<?xml version="1.0" encoding="utf-8"?>
<!-- Generator: Adobe Illustrator 21.1.0, SVG Export Plug-In . SVG Version: 6.00 Build 0)  -->
<svg version="1.1" id="Слой_1" xmlns="http://www.w3.org/2000/svg" xmlns:xlink="http://www.w3.org/1999/xlink" x="0px" y="0px"
	 viewBox="0 0 32.2 27.7" style="enable-background:new 0 0 32.2 27.7;" xml:space="preserve">
<style type="text/css">
	.st0{fill:#FEDB49;}
	.st1{fill:#FE4B01;}
	.st2{fill:#FEC002;}
	.st3{fill:#FED502;}
	.st4{fill:#D2381A;}
	.st5{fill:#FEE469;}
	.st6{fill:#FE8AC9;}
	.st7{fill:#F6D88F;}
	.st8{fill:#020201;}
</style>
<g>
	<path d="M6.1,0c1.3,0.6,1.1,2,1.4,3.1c0.3,0,0.6,0,0.9,0c7.3,0,14.5,0,21.8,0c1.7,0,2.2,0.7,2,2.4c-0.5,3.2-1,6.3-1.5,9.5
		c-0.2,1.6-0.7,2-2.3,2c-5.8,0-11.7,0-17.5,0c-0.3,0-0.6,0-0.9,0c0.1,0.5,0.2,1,0.3,1.5c0.3,0,0.6,0,0.9,0c5.2,0,10.4,0,15.5,0
		c0.3,0,0.5,0,0.8,0c0.9,0.1,1.5,0.8,1.5,1.6c0,0.8-0.6,1.4-1.5,1.5c-0.2,0-0.4,0-0.6,0c-5.8,0-11.7,0-17.5,0
		c-1.4,0-1.9-0.4-2.2-1.8C6.1,14.5,5.2,9.3,4.2,4C4.1,3.7,4.1,3.4,4,3.1c-0.6,0-1.3,0-1.9,0C1,3.1,0.3,2.7,0.1,2
		c-0.2-0.8,0.1-1.3,1-2C2.8,0,4.4,0,6.1,0z M28.6,6.2c-2.2,0-4.3,0-6.4,0c0,1,0,2,0,3c2,0,4,0,5.9,0C28.3,8.2,28.5,7.2,28.6,6.2z
		 M8.6,9.2c1.8,0,3.5,0,5.2,0c0-1,0-2,0-3c-1.9,0-3.8,0-5.7,0C8.2,7.2,8.4,8.2,8.6,9.2z M22.3,10.8c0,1,0,2,0,3c1.8,0,3.5,0,5.2,0
		c0.2-1,0.3-2,0.5-3C26,10.8,24.2,10.8,22.3,10.8z M20.5,9.2c0-1,0-2,0-3c-1.7,0-3.3,0-4.9,0c0,1,0,2,0,3
		C17.2,9.2,18.8,9.2,20.5,9.2z M15.5,10.8c0,1.1,0,2,0,3c1.7,0,3.3,0,4.9,0c0-1,0-2,0-3C18.8,10.8,17.2,10.8,15.5,10.8z M13.8,10.8
		c-1.7,0-3.3,0-4.9,0c0.2,1,0.4,2,0.5,3c1.5,0,2.9,0,4.4,0C13.8,12.8,13.8,11.8,13.8,10.8z"/>
	<path d="M11.4,23.1c1.4,0,2.5,1,2.5,2.3c0,1.3-1.1,2.3-2.6,2.3c-1.4,0-2.5-1-2.5-2.3C8.8,24.1,9.9,23.1,11.4,23.1z"/>
	<path d="M26.4,27.7c-1.4,0-2.5-1-2.5-2.3c0-1.3,1.1-2.3,2.5-2.3c1.4,0,2.5,1,2.5,2.3C28.9,26.7,27.8,27.7,26.4,27.7z"/>
</g>
</svg>
