<?xml version="1.0" encoding="utf-8"?>
<!-- Generator: Adobe Illustrator 21.1.0, SVG Export Plug-In . SVG Version: 6.00 Build 0)  -->
<svg version="1.1" id="Слой_1" xmlns="http://www.w3.org/2000/svg" xmlns:xlink="http://www.w3.org/1999/xlink" x="0px" y="0px"
	 viewBox="0 0 117 29" style="enable-background:new 0 0 117 29;" xml:space="preserve">
<style type="text/css">
	.st0{fill:#4C4C4C;}
	.st1{font-family:'MyriadPro-Regular';}
	.st2{font-size:19.6039px;}
</style>
<g>
	<path class="st0" d="M118.7,27.3c-1.6-0.4-3.3-0.8-6.1-1.4c-1.7,0.5-4.9,2-8.3,2.3c-7.2,0.6-13.4-4.7-14.6-11.5
		c-1.3-7.5,2.5-14.1,9.5-16.6c6.7-2.3,14.1,0.5,17.5,6.7c0.8,1.4,1.4,3,2,4.5C118.7,16.6,118.7,22,118.7,27.3z M115,14
		c0.1-6.1-4.8-11.2-10.9-11.4c-6-0.1-11.2,5-11.4,11c-0.1,6,4.9,11.2,11,11.4C109.7,25.1,114.9,20.1,115,14z"/>
	<path class="st0" d="M1.7,1.3C3.1,1.2,5,0.4,5.8,1c3.3,2.8,6.3,5.9,9.3,9.1c0.6,0.6,0.3,2,0.4,3c-1-0.1-2.4,0.1-3-0.5
		C8.8,9.3,5.3,5.8,1.7,2.3C1.7,2,1.7,1.6,1.7,1.3z"/>
	<path class="st0" d="M45.6,29.8c-8.1,0-14.7-6.4-14.7-14.5c0-8.1,6.5-14.5,14.7-14.5C53.5,0.8,59.8,7.1,60,15
		C60.1,23.1,53.6,29.7,45.6,29.8z M56.6,15.5c0.1-6-5-11.3-11-11.4c-6-0.1-11.2,5-11.3,11c-0.1,6,4.9,11.2,11,11.4
		C51.2,26.6,56.5,21.5,56.6,15.5z"/>
	<path class="st0" d="M11,28c-0.5-0.3-1.5-0.7-1.5-1c0-1,0.1-2.3,0.7-3c4.1-5,8.3-9.9,12.4-14.9c2.3-2.8,4.7-5.6,7.1-8.3
		c0.5-0.5,1.7-0.5,2.5-0.7c0.1,1,0.7,2.4,0.2,3c-6.6,8.1-13.4,16-20.1,24C12.1,27.4,11.6,27.6,11,28z"/>
	<path class="st0" d="M67.2,27.9c0.1-1.4-0.2-3,0.5-3.8c6.7-8.1,13.5-16,20.3-23.9c0.3-0.3,0.9-0.3,2.3-0.9
		c-0.2,1.7,0.2,3.3-0.5,4.1C82.9,11.6,75.9,19.6,69,27.7C68.8,27.8,68.4,27.8,67.2,27.9z"/>
	<path class="st0" d="M73.7,12.7c-1.1,0.2-2.5,0.9-3,0.5c-3.7-3.4-7.2-6.9-10.6-10.5c-0.3-0.3-0.1-1.7,0.3-2.1
		c0.4-0.4,1.7-0.5,2.1-0.1c3.6,3.4,7.1,7,10.6,10.5C73.4,11.1,73.4,11.5,73.7,12.7z"/>
</g>
<text transform="matrix(1 0 0 1 41.0032 21.3747)" class="st1 st2">2</text>
</svg>
