<?xml version="1.0" encoding="utf-8"?>
<!-- Generator: Adobe Illustrator 21.1.0, SVG Export Plug-In . SVG Version: 6.00 Build 0)  -->
<svg version="1.1" id="Слой_1" xmlns="http://www.w3.org/2000/svg" xmlns:xlink="http://www.w3.org/1999/xlink" x="0px" y="0px"
	 viewBox="0 0 117 29" style="enable-background:new 0 0 117 29;" xml:space="preserve">
<style type="text/css">
	.st0{fill:#FEDB49;}
	.st1{fill:#FE4B01;}
	.st2{fill:#FEC002;}
	.st3{fill:#FED502;}
	.st4{fill:#D2381A;}
	.st5{fill:#FEE469;}
	.st6{fill:#FE8AC9;}
	.st7{fill:#F6D88F;}
	.st8{fill:#020201;}
</style>
<g>
	<path d="M117,28c-1.6-0.4-3.3-0.8-6.1-1.4c-1.7,0.5-4.9,2-8.3,2.3c-7.2,0.6-13.4-4.7-14.6-11.5c-1.3-7.5,2.5-14.1,9.5-16.6
		c6.7-2.3,14.1,0.5,17.5,6.7c0.8,1.4,1.4,3,2,4.5C117,17.4,117,22.7,117,28z M113.3,14.7c0.1-6.1-4.8-11.2-10.9-11.4
		c-6-0.1-11.2,5-11.4,11c-0.1,6,4.9,11.2,11,11.4C108,25.8,113.2,20.8,113.3,14.7z"/>
	<path d="M0,2c1.4-0.1,3.4-0.9,4.1-0.3c3.3,2.8,6.3,5.9,9.3,9.1c0.6,0.6,0.3,2,0.4,3c-1-0.1-2.4,0.1-3-0.5C7.1,10,3.6,6.5,0,3
		C0,2.7,0,2.4,0,2z"/>
	<path d="M44.8,29c-8.1,0-14.7-6.4-14.7-14.5C30.2,6.4,36.7,0,44.8,0c7.9,0,14.3,6.3,14.4,14.2C59.4,22.4,52.9,29,44.8,29z
		 M55.9,14.7c0.1-6-5-11.3-11-11.4c-6-0.1-11.2,5-11.3,11c-0.1,6,4.9,11.2,11,11.4C50.5,25.8,55.7,20.7,55.9,14.7z"/>
	<path d="M9.3,28.8c-0.5-0.3-1.5-0.7-1.5-1c0-1,0.1-2.3,0.7-3c4.1-5,8.3-9.9,12.4-14.9c2.3-2.8,4.7-5.6,7.1-8.3
		C28.6,1,29.8,1,30.7,0.8c0.1,1,0.7,2.4,0.2,3c-6.6,8.1-13.4,16-20.1,24C10.4,28.1,9.9,28.3,9.3,28.8z"/>
	<path d="M65.5,28.7c0.1-1.4-0.2-3,0.5-3.8c6.7-8.1,13.5-16,20.3-23.9c0.3-0.3,0.9-0.3,2.3-0.9c-0.2,1.7,0.2,3.3-0.5,4.1
		c-6.8,8.2-13.8,16.2-20.8,24.2C67.2,28.6,66.7,28.5,65.5,28.7z"/>
	<path d="M72.1,13.4c-1.1,0.2-2.5,0.9-3,0.5c-3.7-3.4-7.2-6.9-10.6-10.5c-0.3-0.3-0.1-1.7,0.3-2.1c0.4-0.4,1.7-0.5,2.1-0.1
		c3.6,3.4,7.1,7,10.6,10.5C71.7,11.8,71.7,12.2,72.1,13.4z"/>
</g>
</svg>
