<?xml version="1.0" encoding="utf-8"?>
<!-- Generator: Adobe Illustrator 21.1.0, SVG Export Plug-In . SVG Version: 6.00 Build 0)  -->
<svg version="1.1" id="Слой_1" xmlns="http://www.w3.org/2000/svg" xmlns:xlink="http://www.w3.org/1999/xlink" x="0px" y="0px"
	 viewBox="0 0 85.6 27.7" style="enable-background:new 0 0 85.6 27.7;" xml:space="preserve">
<style type="text/css">
	.st0{fill:#F6D88F;}
</style>
<g>
	<path class="st0" d="M85.4,22.6c0.9,4.2-0.8,5.8-4.9,4.9c-0.7-0.9-1.3-1.9-2.1-2.6c-5.6-5.2-5.8-5.4-11.5-0.5c-4,3.4-6.7,1.8-9.7-1
		c-2.7-2.6-5.1-4-8.8-0.7c-5.5,5-5.9,4.9-11.8-0.3c-2.8-2.5-4.9-2.8-7.9-0.3c-6,5-6.2,5-12.3-0.3c-2.8-2.4-4.8-2.5-7.5-0.1
		C6.5,23.8,4,26.9,0,24.5c0-1.3,0-2.6,0-3.9c2-1.4,4-2.8,5.9-4.4c6.6-5.4,6.8-5.6,13-0.3c3.3,2.8,5.5,2.5,8.2-0.3
		c3.5-3.7,7.2-4.2,10.8-0.1c3.3,3.7,6.6,3.4,9.8-0.1c3.3-3.6,6.6-3.4,9.6,0.1c3.7,4.3,7.1,4,10.7,0c3.1-3.5,6-2.8,9.2,0.2
		C79.7,18.2,82.6,20.3,85.4,22.6z"/>
	<path class="st0" d="M0,12.8c0-1.3,0-2.6,0-3.9c3.2-3,7.4-5,9.8-8.8c1.6,0,3.3,0,4.9,0c2.1,1.8,4.2,3.6,6.2,5.5
		c1.2,1.1,2.3,1.2,3.4,0c1.9-2,4.7-3,6.1-5.5c1.3,0,2.6,0,3.9,0c0.9,1.8,2.9,2.5,4.2,3.9c2.8,3.2,5.4,3.3,8.2,0
		C48.6,1.8,51,0.5,54,0.7c5,5,10,8.4,15.9,1c1.5-1.8,3.9-0.8,5.7,0.7c3.2,2.5,6.5,4.9,9.7,7.4c0,1.3,0,2.6,0,3.9
		c-4,2.4-6.6-0.6-8.9-2.9C73.3,7.7,70.9,7.8,68,11c-3.3,3.6-7.1,4.3-10.5,0.4c-3.8-4.3-7-3.5-10.5,0.2c-3,3.1-5.9,2.8-8.9-0.1
		c-0.9-0.9-2.2-1.5-3-2.4c-1.8-1.9-3.2-1.7-5.3,0c-7.5,6.2-6.4,6.4-13.7,0.3c-2.8-2.3-4.7-2.3-7,0.1C6.6,11.9,3.8,13.6,0,12.8z"/>
</g>
</svg>
