<?xml version="1.0" encoding="utf-8"?>
<!-- Generator: Adobe Illustrator 21.1.0, SVG Export Plug-In . SVG Version: 6.00 Build 0)  -->
<svg version="1.1" id="Слой_1" xmlns="http://www.w3.org/2000/svg" xmlns:xlink="http://www.w3.org/1999/xlink" x="0px" y="0px"
	 viewBox="0 0 55 45" style="enable-background:new 0 0 55 45;" xml:space="preserve">
<g>
	<path style="fill:#695939;" d="M49.6250648,24.8756237c-0.2385292,0.548317-0.8788795,0.6324253-1.2230263,1.0586987
		c-0.5413551,0.363636-1.0827332,0.7272644-1.6236572,1.0909767c-0.3300629,0.0728455-0.5755386,0.2791958-0.8040276,0.5122337
		c-0.4981041,0.061924-0.8269958,0.4483986-1.2510719,0.6523018c-1.2376633,0.6254559-2.5449715,1.1503105-3.6242867,2.0297298
		c-1.2317886,1.0036469-2.5171394,1.8225994-4.076683,2.2483349c-0.5439148,0.1484909-1.1471176,0.3285103-1.6169662,0.8275261
		c-0.5811615,0.6172409-1.2665329,1.1689415-2.0649757,1.529808c-0.7033806,0.087616-1.4067593,0.1752281-2.1101379,0.2628441
		c-1.7160778,0.1265869-3.4958134,0.1820717-5.0259457-0.5886726c-1.8819809-0.9479752-3.9543419-1.2547722-5.8561211-2.1261024
		c-2.2214909-1.0178127-4.5263739-1.8480034-6.5795403-3.2090626c-0.7619953-0.5051327-1.6522837-0.9355659-2.1475821-1.6752949
		c-0.8843451-1.320776-2.0545702-2.2059689-3.4406843-2.8791752c-0.37428-0.0589085-0.5320177-0.5026188-0.9283152-0.5223999
		c-0.5727043-0.4682198-1.2066965-0.8413334-1.853579-1.1944408c-0.3175821-0.2249928-0.61443-0.4846039-0.9987397-0.5981884
		c-0.716212-0.5142765-1.320091-1.1428719-1.8644295-1.8320484c0.2595532,0.0293007,0.5187967,0.0618191,0.7787266,0.0873451
		c1.572547,0.1544304,3.1430993,0.3434086,4.7192945,0.4372406c0.4376678,0.0260525,0.8595247-0.1658535,1.1826754,0.3068886
		c0.1225615,0.1793003,0.3337469,0.0686398,0.4906492-0.0504112c0.3012199-0.228548,0.5533161-0.1048622,0.8673105,0.0370827
		c0.4217157,0.1906414,0.6901398,0.5061913,0.996171,0.9913998c0.2783022-0.7844925,0.5164356-1.4386654,0.7396421-2.0978966
		c0.0508356-0.150135,0.0507383-0.3289394,0.2571096-0.3378677c0.1536589-0.0066433,0.2231417,0.1040993,0.2534151,0.2479038
		c0.1361971,0.6469784,0.5370054,0.3429737,0.6900368,0.1026096c0.4427958-0.6954956,0.9857054-1.3457546,1.1954813-2.1712265
		c0.040432-0.1590958,0.0950308-0.3516388,0.2756824-0.3173389c0.2633905,0.0500088,0.1904011,0.3161983,0.1308069,0.4533653
		c-0.5946646,1.3687477-0.6824903,2.8719025-1.1531591,4.2752705c-0.2350121,0.7007275-0.3216534,1.4512177-0.4754038,2.1791973
		c0.4995346-0.2936058,0.4326839-0.7749119,0.5596619-1.1755161c0.2062521-0.6507053,0.8031359-0.8749256,1.2210817-0.6944656
		c0.5622377,0.2427597,1.1904249,0.405838,1.6912947,0.7527523c1.3422337,0.9296722,2.3774891,0.6185417,2.8770447-0.9322205
		c0.1039295-0.3226242,0.196352-0.6520939,0.3377399-0.9582443c0.0755863-0.1636639,0.0090847-0.5206623,0.3193321-0.4439526
		c0.3113499,0.0769825,0.1980305,0.4134254,0.1563301,0.6105881c-0.1771755,0.8376617-0.0836601,1.6802368-0.0975361,2.5203419
		c-0.0042744,0.2587872-0.0353622,0.5408192,0.2314739,0.7137871c0.5292377,0.3430691,0.8276501,0.8715,1.2090664,1.3507576
		c0.7567272,0.9508343,1.652771,1.7744427,2.3235283,2.82411c0.5845242,0.9147263,1.2270756,1.8026047,1.8421898,2.7039928
		c0.3287506,0.4817543,0.1829796,1.1573906,0.6865158,1.5497398c0.0130577,0.2299118,0.1286449,0.3544846,0.3458767,0.4556084
		c1.4591217,0.6792526,2.0590134,0.5603218,3.1372929-0.6561508c0.2218857-0.0036774,0.4895172,0.0497551,0.410881-0.329113
		l0.0450726-0.0435371c0.2184696,0.220871,0.3932571,0.4442749,0.7968369,0.3106537
		c0.5983219-0.1980972,1.2289982-0.1330566,1.853941-0.0612869c0.3002853,0.0344849,0.2102127,0.2834702,0.3063507,0.4192619
		c0.3773689-0.6448326,0.4941978-1.3823853,0.6274986-2.0845299c0.112381-0.5919628,0.3982658-1.1863689,0.2389374-1.8212337
		c0.1200218-0.7530785,0.2542801-1.5025177,0.5667648-2.206171c0.0763779-0.0027637,0.1527596-0.0055294,0.2291451-0.0082912
		c0.643589,0.3530922,0.4369888,1.3631344,1.2247505,1.6241035c0.1789017-0.497654,0.2788086-1.5175457,0.1249504-1.6301022
		c-0.3683281-0.2694492-0.739975,0.1390114-1.1204605,0.0353413c-0.0742798-0.0202408-0.1547203-0.0178833-0.2323151-0.0259457
		c-0.0946846-0.303772,0.1477127-0.8032761-0.2716141-0.8830795c-0.3213158-0.0611477-0.1203079,0.4356556-0.2829056,0.6243458
		c-0.0259819,0.0301437-0.0886574,0.0286617-0.1397018,0.043335c-0.2250328-0.219862-0.0101547-0.5045433-0.1093407-0.7406311
		c0.0566406-0.1539555,0.2298088-0.2672005,0.1622581-0.4645214c0.0482254-0.4650002,0.4111519-0.2827778,0.6656036-0.3236389
		c0.8294563,0.7480412,1.8262253,0.692831,2.8328972,0.5901031c0.7044525-0.0446587,1.4056091-0.2244053,2.1145592-0.0142784
		c1.7020264,0.5044651,3.3685379,0.1445465,4.9216957-0.4770279C46.7072792,25.1941204,48.0443878,24.5239487,49.6250648,24.8756237
		z M13.1761417,20.9794102c0.0179682-0.0103455,0.0455179-0.0169277,0.0514431-0.0320072
		c0.0071564-0.018219-0.0040083-0.0436363-0.0072451-0.065937c-0.0268517,0.014595-0.0537024,0.0291901-0.080555,0.0437832
		C13.1519032,20.9433022,13.1640215,20.9613552,13.1761417,20.9794102z"/>
	<path style="fill:#E5DECD;" d="M30.3246269,33.2273827c-1.0782795,1.2164726-1.6781712,1.3354034-3.1372929,0.6561508
		c-0.2172318-0.1011238-0.332819-0.2256966-0.3458672-0.4556084c0.0512009-0.2613106,0.1023903-0.522625,0.1535816-0.7839355
		c0-1.7750721,0-3.5501423,0-5.3921928c0.4736805,0.1499729,0.8273754,0.1122932,1.1075878,0.3463764
		c0.1263866,0.1055851,0.3581886,0.1764603,0.4084473,0.0160885c0.1974964-0.6302147,0.9241505-0.8600979,1.0878391-1.4996204
		c0.0494652-0.0132675,0.1166763-0.0107327,0.1464977-0.0428829c0.2154579-0.2322826,0.1280785-0.4616966-0.09231-0.5926781
		c-0.4704533-0.2796154-0.5887337-1.0099678-1.278532-0.9864483c-0.0312405,0.0010624-0.0579967,0.133543-0.0868435,0.2048149
		c-0.1405849,0.4784355-0.2811699,0.956871-0.4217548,1.4353065c-1.1535892,0.0107536-1.1046963,0.0055809-1.0514259-1.1123352
		c0.0295753-0.6206322-0.0374908-1.3685932-0.2345181-1.8546677c-0.2571621-0.6344337-0.180418-1.2091827-0.2642155-1.8064747
		c-0.0895519-0.6382866-0.1289806-1.2610149-0.5761795-1.8222237c-0.9474983-1.1890602-1.9936523-2.1584377-3.6079578-2.2513199
		c-0.0549145-0.0502052-0.109827-0.1004086-0.1647434-0.1506138c-0.3372688-0.3100643,0.0055904-0.4207401,0.1611423-0.6098328
		c0.1741581-0.2117195,0.2827587-0.5920763-0.0942593-0.5768681c-1.4471416,0.0583744-1.9324036-1.2879887-2.8828201-1.9344187
		c-0.3003006-0.2042513-0.485815-0.3604517-0.7565231-0.1911707c-0.5812492,0.3634663-1.1950645,0.6863518-1.6948128,1.1699018
		c-0.6741142-0.7642059-0.6716213-0.7484188-1.6723585-0.5903721c-0.5861454,0.0925703-1.1709318-0.2157154-1.780652-0.0139704
		c-0.168417,0.055728-0.461792-0.1229086-0.4404783-0.4421978c0.5570555,0.011076,0.9798679-0.3608932,1.424181-0.5887661
		c1.2767887-0.6548214,2.5519457-1.3057394,3.9097548-1.7708626c1.6917915-0.5795336,3.4783001-0.6688995,5.2289524-0.9374113
		c0.6695976-0.1027002,1.3520432-0.1216393,2.0288334-0.1786966c0.1980419,0.330328,0.21311,0.692482,0.1867905,1.0623169
		c-0.0113106,0.1589451-0.0192394,0.3189306,0.1776047,0.3808622c0.13344,0.0419855,0.3194561,0.0361938,0.3536263-0.0726929
		c0.106636-0.3397799,0.2134991-0.6952238,0.2198162-1.046401c0.0065308-0.3631535-0.3844891-0.265624-0.6002865-0.3717957
		c0.4808388-0.4972334,1.0768719-0.2360535,1.6148109-0.1992836c0.3039799,0.0207767,0.6150322,0.1042414,0.9300518,0.1088667
		c-0.0131531,0.4455872-0.3615646,0.4279814-0.665741,0.5095739c-0.3926315,0.1053152-0.7349777,1.2095852-0.4195442,1.3260555
		c0.8115826,0.299675,0.8953915,1.3084002,1.7219658,1.5887785c0.4644756,0.1575546,0.788723,0.5730495,0.9959126,1.0612745
		c0.1091671,0.2572479,0.3294697,0.4829321,0.6330986,0.5535154c1.0489311,0.2438431,1.605114,0.9971704,2.0036392,1.9176722
		c-0.1991653,0.0559635-0.5089836-0.3102684-0.5915241,0.0630741c-0.1232281,0.5573711,0.0199451,1.1679935,0.4413319,1.5106564
		c0.4219093,0.3430939,0.1701012-0.5291443,0.5574722-0.4648075c0.0242958,0.004034,0.0512543-0.007988,0.076973-0.0125389
		c0.2920609,1.5409794,0.5122108,3.0977802,1.0105705,4.5933723c0.1379929,0.7882175,0.2759857,1.576437,0.4139786,2.3646545
		c0.0498581,0.212244,0.0997124,0.4244919,0.1495667,0.6367359c-0.1883469,0.1246357-0.1591797,0.3092613-0.1357841,0.4923
		c-0.0548935,0.014986-0.109787,0.0299702-0.1646805,0.0449581c-0.3408852-0.4991322-0.6804466-0.4995441-1.0571327-0.0202026
		c-0.4792213,0.6098251-0.7465515,1.364542-1.5226421,1.7719326c-0.5102348,0.2678299-0.281992,0.8673573-0.0503902,1.2724915
		c0.2737541,0.4788666,0.5202293-0.0404263,0.7735443-0.113596c0.166626-0.0481319,0.3496666-0.1265984,0.4296494-0.3169937
		c0.2365303,0.0086689,0.4558792,0.0411835,0.479435,0.345438c-0.4469566-0.0026951-0.8139763,0.2419586-0.7436867,0.6534138
		c0.0830421,0.4861355,0.3757324-0.1545467,0.5811996-0.0022774c-0.0270004,0.3681831-0.2727814,0.5847492-0.5247765,0.8176765
		c-0.6616936,0.6116295-1.3487072,1.2007103-1.89221,1.9290543c0,0-0.0450306,0.0437317-0.0447998,0.0438423
		C30.5603962,32.960022,30.413599,33.0575447,30.3246269,33.2273827z"/>
	<path style="fill:#ACA28A;" d="M26.9950485,32.6439896c-0.0511913,0.2613106-0.1023808,0.522625-0.1535816,0.7839355
		c-0.5035458-0.3923492-0.3577747-1.0679855-0.6865253-1.5497398c-0.6151142-0.9013882-1.2576656-1.7892666-1.8421898-2.7039928
		c-0.6707573-1.0496674-1.5668011-1.8732758-2.3235283-2.82411c-0.3814163-0.4792576-0.6798286-1.0076885-1.2090664-1.3507576
		c-0.2668362-0.1729679-0.2357483-0.4549999-0.2314739-0.7137871c0.013876-0.8401051-0.0796394-1.6826801,0.0975361-2.5203419
		c0.0417004-0.1971626,0.1550198-0.5336056-0.1563301-0.6105881c-0.3102474-0.0767097-0.2437458,0.2802887-0.3193321,0.4439526
		c-0.1413879,0.3061504-0.2338104,0.6356201-0.3377399,0.9582443c-0.4995556,1.5507622-1.534811,1.8618927-2.8770447,0.9322205
		c-0.5008698-0.3469143-1.1290569-0.5099926-1.6912947-0.7527523c-0.4179459-0.18046-1.0148296,0.0437603-1.2210817,0.6944656
		c-0.1269779,0.4006042-0.0601273,0.8819103-0.5596619,1.1755161c0.1537504-0.7279797,0.2403917-1.4784698,0.4754038-2.1791973
		c0.4706688-1.403368,0.5584946-2.9065228,1.1531591-4.2752705c0.0595942-0.137167,0.1325836-0.4033566-0.1308069-0.4533653
		c-0.1806517-0.0342999-0.2352505,0.1582432-0.2756824,0.3173389c-0.2097759,0.8254719-0.7526855,1.4757309-1.1954813,2.1712265
		c-0.1530313,0.2403641-0.5538397,0.5443687-0.6900368-0.1026096c-0.0302734-0.1438046-0.0997562-0.2545471-0.2534151-0.2479038
		c-0.2063713,0.0089283-0.206274,0.1877327-0.2571096,0.3378677c-0.2232065,0.6592312-0.46134,1.3134041-0.7396421,2.0978966
		c-0.3060312-0.4852085-0.5744553-0.8007584-0.996171-0.9913998c-0.3139944-0.1419449-0.5660906-0.2656307-0.8673105-0.0370827
		c-0.1569023,0.119051-0.3680878,0.2297115-0.4906492,0.0504112c-0.3231506-0.4727421-0.7450075-0.2808361-1.1826754-0.3068886
		c-1.5761952-0.093832-3.1467476-0.2828102-4.7192945-0.4372406c-0.2599299-0.025526-0.5191734-0.0580444-0.7787266-0.0873451
		c-0.0459547-0.3437881,0.2476966-0.4720764,0.4270666-0.6727982c1.3658292-0.3078384,2.5885756-1.0203533,3.9314363-1.3959694
		c0.1037865-0.0290318,0.2399335-0.1804523,0.2456713-0.2815323c0.0277462-0.4887753,0.3131351-0.5622501,0.7163272-0.5163193
		c0.1963434,0.0223656,0.3564405-0.0732708,0.4675293-0.239439c0.3236904-0.4841824,0.8921518-0.5231686,1.2721615-0.3482761
		c0.579833,0.2668591,0.9528608-0.0436573,1.4074316-0.1998634c0.2670803-0.0917797,0.4267473-0.3011036,0.6096239-0.4844151
		c0.2796383-0.280302,0.5269651-0.446373,0.8050823,0.0118332c0.1218176,0.2006969,0.3592224,0.433567,0.5836687,0.2582169
		c0.7800989-0.6094675,1.8227777-0.6629496,2.5967741-1.275651c0.1694002-0.1341,0.3393841-0.486084,0.5632954-0.3031664
		c0.2373161,0.1938658,0.1169052,0.5196514-0.0482635,0.7853346c-0.4199982,0.6755838-0.3905821,1.3579473-0.0176105,2.0837088
		c0.3444691-0.3022137,0.5279293-0.9913292,1.037096-0.6615524c0.658123,0.4262505,1.3453598,0.6094093,2.0876598,0.7124386
		c0.1641922,0.022789,0.352108,0.1325359,0.3057003,0.2958755c-0.1088371,0.3830376,0.0686874,0.5403404,0.3903809,0.6112003
		c0.3739719,0.0823765,0.5766773-0.1535625,0.7638702-0.4296551c0.3286724-0.4847641,0.7287731-0.8949299,1.2807961-1.1294098
		c-0.1068134,0.6427002-0.2339611,1.2829399-0.3113689,1.9291363c-0.0359268,0.2999249-0.0784397,0.6990204,0.4722519,0.5255699
		c0.5626926-0.1772289,0.6258564,0.1896324,0.6238575,0.5998859c-0.001833,0.3765583-0.0348015,0.7389736,0.5057545,0.794548
		c0.1455479,0.014967,0.3127956,0.2017956,0.3992176,0.3508282c1.1033401,1.9025955,2.3138275,3.7678909,2.2634392,6.1002312
		c-0.0027637,0.1278782,0.0257626,0.2611828,0.063982,0.3844376c0.2743797,0.8848324,0.3941631,1.8022118,0.5914536,2.7017136
		C26.7135296,31.3259239,26.4176998,32.0858002,26.9950485,32.6439896z"/>
	<path style="fill:#F3EDE3;" d="M32.549614,17.2892342c-0.3984947-0.9205399-0.9546776-1.6738672-2.0036087-1.9177103
		c-0.3036289-0.0705833-0.5239315-0.2962675-0.6330986-0.5535154c-0.2071896-0.488225-0.5314369-0.9037199-0.9959126-1.0612745
		c-0.8265743-0.2803783-0.9103832-1.2891035-1.7219658-1.5887785c-0.3154335-0.1164703,0.0269127-1.2207403,0.4195442-1.3260555
		c0.3041763-0.0815926,0.6525879-0.0639868,0.665741-0.5095739c1.0508785-0.1254787,1.9656792,0.3275394,2.825634,0.796401
		c2.0956059,1.1425667,4.308733,2.0256062,6.5009937,2.9339819c2.1027374,0.8712778,4.0602798,1.9720926,6.0210991,3.0964327
		c0.3563309,0.2043228,0.732151,0.3756676,1.0614319,0.6288109c0.1833801,0.140974,0.3692589,0.1306801,0.5913849,0.0634613
		c0.8334465-0.2522125,1.5308113,0.1746426,1.7909889,1.0698242c-0.3134193,0.1471367-0.3893471-0.1100674-0.5215836-0.2942467
		c-0.1042175-0.145153-0.2328529-0.3272438-0.3965034-0.0432243c-0.4159546,0.1742306-0.4231339,0.661972-0.7145767,0.9316998
		c-0.6463776,0.5663433-1.3130264,0.3993626-1.9466896,0.0072098c-1.1845093-0.733057-2.4360847-0.7054234-3.7209282-0.3908768
		c-0.1981316,0.0485039-0.3514061-0.020237-0.5271873-0.0774174c-0.5888672-0.1915531-1.1459694-0.6515198-1.8218384-0.2221584
		c-0.0740128,0.04702-0.2408333-0.0621128-0.3670654-0.0855961c-0.7449799-0.1385765-1.3581314-0.4676495-1.7360878-1.1594105
		c-0.0847549-0.1551247-0.1876526-0.3654079-0.4172173-0.2380161c-0.199707,0.1108265-0.1748314,0.3462143-0.0769234,0.4884968
		c0.3210983,0.4666233,0.1790428,1.0253925,0.3451653,1.5169315c0.1317596,0.389864-0.0702782,0.4662857-0.3908768,0.4529743
		c-0.2772827-0.2100544-0.2193489-0.6919746-0.638504-0.7869034l-0.0023079-0.00313
		c0.0123787-0.2298317-0.0156898-0.4352608-0.2950859-0.4890366c-0.2986031-0.4282494-0.3719521-1.0943928-1.1137505-1.0545769
		C32.669796,17.4123821,32.6097031,17.3508091,32.549614,17.2892342z"/>
	<path style="fill:#CCC6B1;" d="M38.2541771,26.2524281c-1.0066719,0.1027451-2.0034409,0.1579552-2.8329849-0.5900688
		c0.1847954-0.0825901,0.300251-0.2252922,0.2928123-0.42696c-0.0240173-0.6512413,0.0726624-1.3021088-0.1255341-1.9528351
		c-0.3017426-0.9907112-0.5416527-2.0002556-0.8078232-3.0018005c0.2979393,0.0233936,0.5193901,0.2003708,0.5821838,0.4613991
		c0.1002312,0.416666,0.3999176,0.5852089,0.7276115,0.7693844c1.0359344,0.5822277,2.055275,0.7753716,3.0682564-0.0481014
		c0.080162-0.0651627,0.2427864-0.0623207,0.2750931,0.0483303c0.2220497,0.7605,0.7497063,0.4041519,1.2177277,0.3761616
		c0.4214821-0.0252056,0.9029236-0.1718845,1.2139587,0.3209553c0.0875969,0.1388054,0.3296967,0.1906433,0.4046936,0.0316143
		c0.2977104-0.6312752,0.5027466-0.1350975,0.7291489,0.0403061c0.2176361,0.1686134,0.3876114,0.5145493,0.723526,0.2958965
		c0.2816124-0.1833019,0.3331566-0.5335999,0.3346558-0.8422108c0.001564-0.3210087-0.3853607-0.7659988,0.2991982-0.8047733
		c0.3665009-0.0207596,0.6476822-0.4525051,1.0935516-0.1376266c0.7070847,0.4993572,1.6813011,0.4158821,2.3583031,0.9825001
		c0.509079,0.4260693,1.2077904,0.1087112,1.6748657,0.4643078c0.4775848,0.3636017,0.8434677,0.3185272,1.2506485-0.03615
		c0.3682442,0.4012947,1.0042076,0.4280701,1.3003616,0.9297714c-0.6742668-0.0464764-1.2148819,0.3942184-1.8598557,0.4963684
		c-1.3053246,0.2067318-2.5894661,0.5473824-3.8948822,0.7532978c-0.8136482,0.1283455-1.543499,0.5074081-2.3450737,0.6473598
		c0.0006104-0.1287975,0.0064774-0.2578259,0.0008392-0.3863506c-0.0170555-0.3884563-0.2216568-0.8515301-0.5432281-0.8023376
		c-0.4550476,0.0696087-0.2090492,0.5786076-0.2071495,0.9048424c0.0008621,0.1479321,0.0779457,0.2954197,0.1204453,0.4431114
		c-0.1600838,0.0513783-0.3201752,0.1027565-0.4802628,0.1541328c-0.0158653-1.0176964-0.2465019-1.2840137-1.2383041-1.2462044
		c-0.5538483,0.0211124-0.9509125-0.1569672-1.2952919-0.5673561c-0.1655273-0.1972466-0.4504776-0.3475857-0.4519463,0.0912819
		c-0.0025024,0.7502632-0.166832,1.518589,0.1504288,2.2492352c-0.2453461,0.1960182-0.5300827,0.0955029-0.8000336,0.1062756
		c-0.0005608-0.2624474,0.0294037-0.5292587-0.0073624-0.7865276c-0.1141586-0.7986679-0.9639893-1.3012981-1.5754585-0.9353676
		c-0.3439865,0.2058563-0.4911041,0.6540546-0.9812241,0.721035c-0.1690254,0.0231018-0.1430855,0.5011539,0.0675507,0.4695778
		c0.647995-0.0971451,0.9964104,0.5119057,1.560173,0.5541058C38.2539253,26.0834827,38.2540512,26.1679554,38.2541771,26.2524281z
		 M45.2089462,22.1850224c0,0.5435085-0.0026207,1.087038,0.0014572,1.6305141
		c0.0013695,0.1825428,0.0002937,0.3903103,0.2611275,0.3895836c0.2185402-0.0006104,0.3369484-0.158783,0.3423462-0.353426
		C45.8308144,23.2412987,45.766037,22.6474781,45.2089462,22.1850224z"/>
	<path style="fill:#CCC6B1;" d="M21.9610157,17.2832298c-0.5520458,0.2345028-0.9521465,0.6446686-1.2808189,1.1294327
		c-0.1871929,0.2760925-0.3898983,0.5120316-0.7638702,0.4296551c-0.3216934-0.0708599-0.499218-0.2281628-0.3903809-0.6112003
		c0.0464077-0.1633396-0.1415081-0.2730865-0.3057003-0.2958755c-0.7423-0.1030293-1.4295368-0.2861881-2.0876598-0.7124386
		c-0.5091667-0.3297768-0.692627,0.3593388-1.037096,0.6615524c-0.3729715-0.7257614-0.4023876-1.4081249,0.0176105-2.0837088
		c0.1651688-0.2656832,0.2855797-0.5914688,0.0482635-0.7853346c-0.2239113-0.1829176-0.3938951,0.1690664-0.5632954,0.3031664
		c-0.7739964,0.6127014-1.8166752,0.6661835-2.5967741,1.275651c-0.2244463,0.1753502-0.4618511-0.0575199-0.5836687-0.2582169
		c-0.2781172-0.4582062-0.525444-0.2921352-0.8050823-0.0118332c-0.1828766,0.1833115-0.3425436,0.3926353-0.6096239,0.4844151
		c-0.4545708,0.1562061-0.8275986,0.4667225-1.4074316,0.1998634c-0.3800097-0.1748924-0.9484711-0.1359062-1.2721615,0.3482761
		c-0.1110888,0.1661682-0.2711859,0.2618046-0.4675293,0.239439c-0.403192-0.0459309-0.688581,0.027544-0.7163272,0.5163193
		c-0.0057378,0.1010799-0.1418848,0.2525005-0.2456713,0.2815323c-1.3428607,0.3756161-2.5656071,1.088131-3.9314363,1.3959694
		c0.3545842-0.5914001,0.9712272-0.8534317,1.5198586-1.1958218c0.8607545-0.5371799,1.73315-1.055706,2.6006074-1.5821495
		c0.3476024-0.0956917-0.0465131-0.645113,0.411746-0.6730938c0.1572905,0.1258793,0.2847037,0.1098862,0.4849358,0.0222569
		c0.9765544-0.4273739,1.8361096-1.052412,2.7565875-1.5729599c0.4695272-0.2261992,1.1859007-0.0152607,1.3582106-0.7666988
		c0.2121096-0.0452795,0.1629944-0.2525597,0.2369614-0.3838348c0.2309513-0.0088081,0.3614073,0.1367884,0.4747562,0.3087502
		c-0.0211611,0.3191366,0.2722139,0.4977732,0.4406309,0.4420452c0.6097202-0.201745,1.1945066,0.1065407,1.780652,0.0139704
		c1.0007372-0.1580467,0.9982443-0.1738338,1.6723585,0.5903721c0.4997482-0.4835501,1.1135635-0.8064356,1.6948128-1.1699018
		c0.2707081-0.169281,0.4562225-0.0130806,0.7565231,0.1911707c0.9504166,0.64643,1.4356785,1.9927931,2.8828201,1.9344187
		c0.377018-0.0152082,0.2684174,0.3651485,0.0942593,0.5768681c-0.1555519,0.1890926-0.4984112,0.2997684-0.1612167,0.6097546
		c-0.0012665,0.0510616-0.0047665,0.1020432-0.010582,0.1528664L21.9610157,17.2832298z"/>
	<path style="fill:#E5DECD;" d="M50.7340698,22.2027569c-0.4071808,0.3546772-0.7730637,0.3997517-1.2506485,0.03615
		c-0.4670753-0.3555965-1.1657867-0.0382385-1.6748657-0.4643078c-0.677002-0.566618-1.6512184-0.4831429-2.3583031-0.9825001
		c-0.4458694-0.3148785-0.7270508,0.1168671-1.0935516,0.1376266c-0.6845589,0.0387745-0.2976341,0.4837646-0.2991982,0.8047733
		c-0.0014992,0.3086109-0.0530434,0.6589088-0.3346558,0.8422108c-0.3359146,0.2186527-0.5058899-0.1272831-0.723526-0.2958965
		c-0.2264023-0.1754036-0.4314384-0.6715813-0.7291489-0.0403061c-0.0749969,0.159029-0.3170967,0.1071911-0.4046936-0.0316143
		c-0.3110352-0.4928398-0.7924767-0.3461609-1.2139587-0.3209553c-0.4680214,0.0279903-0.9956779,0.3843384-1.2177277-0.3761616
		c-0.0323067-0.110651-0.194931-0.113493-0.2750931-0.0483303c-1.0129814,0.823473-2.0323219,0.6303291-3.0682564,0.0481014
		c-0.3276939-0.1841755-0.6273804-0.3527184-0.7276115-0.7693844c-0.0627937-0.2610283-0.2842445-0.4380054-0.5823326-0.4613152
		c-0.010994-0.0967255-0.0218391-0.193531-0.0326881-0.2903385c0.0106239-0.0609951,0.0212479-0.1219864,0.031868-0.1829815
		c0.3204536,0.0133877,0.5224915-0.0630341,0.3907318-0.452898c-0.1661224-0.491539-0.0240669-1.0503082-0.3451653-1.5169315
		c-0.097908-0.1422825-0.1227837-0.3776703,0.0769234-0.4884968c0.2295647-0.1273918,0.3324623,0.0828915,0.4172173,0.2380161
		c0.3779564,0.691761,0.9911079,1.020834,1.7360878,1.1594105c0.1262321,0.0234833,0.2930527,0.132616,0.3670654,0.0855961
		c0.675869-0.4293613,1.2329712,0.0306053,1.8218384,0.2221584c0.1757813,0.0571804,0.3290558,0.1259212,0.5271873,0.0774174
		c1.2848434-0.3145466,2.5364189-0.3421803,3.7209282,0.3908768c0.6336632,0.3921528,1.300312,0.5591335,1.9459953-0.0073528
		c0.1973877,0.3976631,0.4655991,0.6658649,0.9584732,0.5188999c0.1710434,0.3016472,0.3728065,0.6268101,0.7107773,0.6980667
		c1.1065941,0.2333145,2.0372276,0.934597,3.1478195,1.1429596l0.0035744,0.0007629
		c0.0531998,0.0511799,0.1063805,0.1024055,0.1595612,0.1536312C50.5527229,22.0346889,50.6763916,22.058609,50.7340698,22.2027569z
		"/>
	<path style="fill:#E5DECD;" d="M39.1901169,25.9761848c0.2699509-0.0107727,0.5546875,0.0897427,0.7999916-0.1067715
		c0.9781418,0.0026989,1.8768272-0.4226532,2.8351555-0.5264606c0.1600876-0.0513763,0.320179-0.1027546,0.4802589-0.1541061
		c0.2096977-0.0530777,0.4194031-0.1061859,0.6291046-0.1592922c0.8015671-0.1399517,1.5314178-0.5190144,2.3450661-0.6473598
		c1.3054161-0.2059155,2.5895576-0.546566,3.8948822-0.7532978c0.6449738-0.10215,1.1855888-0.5428448,1.8598557-0.4963684
		c0.5870285,0.117342,0.6966286,0.7239113,1.0978775,1.0384007c-0.9097214,0.2517891-1.7356224,0.7457466-2.7357712,0.5807266
		c-0.145546-0.0240173-0.4507332,0.3437138-0.7714691,0.12397c-1.5806808-0.3516769-2.9177895,0.3184948-4.3346367,0.8855133
		c-1.5531578,0.6215744-3.2196693,0.981493-4.9216957,0.4770279c-0.70895-0.2101269-1.4101067-0.0303802-2.1145592,0.0142784
		c-0.0001259-0.0844898-0.0002518-0.1689625-0.0004539-0.2536106C38.5658073,25.9911709,38.877964,25.9836769,39.1901169,25.9761848
		z"/>
	<path style="fill:#F3EDE3;" d="M50.255558,21.8752499c-1.1105919-0.2083626-2.0412254-0.9096451-3.1478195-1.1429596
		c-0.3379707-0.0712566-0.5397339-0.3964195-0.7107201-0.6979942c0.0127258-0.087307,0.0253868-0.1746826,0.038044-0.2620602
		c0.3276711,0.0724792,0.5467453-0.1807423,0.819416-0.2732143c1.0399017,0.5092087,1.7879066,1.4379807,2.8189507,1.9626675
		C50.2170296,21.5347691,50.2576447,21.7090969,50.255558,21.8752499z"/>
	<path style="fill:#F3EDE3;" d="M10.7360973,14.788126c-0.9204779,0.5205479-1.7800331,1.145586-2.7565875,1.5729599
		c-0.200232,0.0876293-0.3276453,0.1036224-0.4853201-0.0222492c-0.0268297-0.0561962-0.0532756-0.112402-0.0797224-0.1686058
		c0.3776989-0.7245932,0.9075818-1.2114801,1.7785087-1.2762156c0.3464785-0.0257521,0.6391726-0.2924995,1.000989-0.3668308
		C10.4892416,14.4665232,10.6361933,14.5311823,10.7360973,14.788126z"/>
	<path style="fill:#ACA28A;" d="M25.7354507,10.4227428c0.2157974,0.1061716,0.6068172,0.0086422,0.6002865,0.3717957
		c-0.0063171,0.3511772-0.1131802,0.7066212-0.2198162,1.046401c-0.0341702,0.1088867-0.2201862,0.1146784-0.3536263,0.0726929
		c-0.1968441-0.0619316-0.1889153-0.2219172-0.1776047-0.3808622c0.0263195-0.3698349,0.0112514-0.7319889-0.1867905-1.0623169
		C25.5102844,10.4545155,25.6228676,10.4386292,25.7354507,10.4227428z"/>
	<path style="fill:#ACA28A;" d="M47.2544785,19.4990215c-0.2726707,0.0924721-0.491745,0.3456936-0.8193665,0.2732868
		c0.032444-0.4260082,0.0019684-0.8372059-0.281353-1.1885414c0.1636505-0.2840195,0.2922859-0.1019287,0.3965034,0.0432243
		c0.1322365,0.1841793,0.2081642,0.4413834,0.5215836,0.2942467C47.1436882,19.1105328,47.3060417,19.2709217,47.2544785,19.4990215
		z"/>
	<path style="fill:#695939;" d="M12.3312693,13.6375923c-0.073967,0.1312752-0.0248518,0.3385553-0.2369614,0.3838348
		c-0.1888161-0.2369709-0.6583319-0.3023624-0.5418015-0.7078018c0.0542345-0.1886988,0.348979-0.4375458,0.558485-0.1349478
		C12.1912146,13.2945461,12.2521772,13.4850302,12.3312693,13.6375923z"/>
	<path style="fill:#695939;" d="M7.4144673,16.1702309c0.0264468,0.0562038,0.0528927,0.1124096,0.0797224,0.1686058
		c-0.4578748,0.0279732-0.0637593,0.5773945-0.4113617,0.6730862c-0.0542698-0.0531254-0.1049538-0.1106472-0.1634498-0.1586514
		c-0.2425137-0.1990108-0.4876938-0.4232006-0.2747931-0.7551823C6.9175763,15.67241,7.1616235,16.0828075,7.4144673,16.1702309z"/>
	<path style="fill:#F3EDE3;" d="M50.4186935,22.029644c-0.0531807-0.0512257-0.1063614-0.1024513-0.1595612-0.1536312
		C50.3123093,21.9272537,50.3655014,21.9784508,50.4186935,22.029644z"/>
	<path style="fill:#CCC6B1;" d="M26.2288456,36.5765877c-0.1054077-0.0020065-0.2108135-0.0040169-0.3162212-0.0059662
		c-0.0176849-0.1781044-0.1218987-0.2458916-0.2883186-0.3175507c-1.0855865-0.4674721-2.284214-0.511261-3.3833389-0.9334488
		c-1.1360073-0.4363518-2.3384075-0.7243576-3.4284229-1.250061c-1.5511684-0.7481117-3.033535-1.645813-4.62535-2.3107929
		c-2.1352396-0.8920002-3.9978561-2.1623135-5.559226-3.8608036c-0.7046318-0.7665119-1.3439121-1.6011238-1.697958-2.5967846
		c-0.1556597-0.437748-0.2903218-0.945015,0.3220339-1.21381c0.3962975,0.0197811,0.5540352,0.4634914,0.9283409,0.5223198
		c0.0201788,0.2611618-0.0354471,0.5601845,0.0728893,0.7774563c0.6614733,1.3266048,1.5561152,2.4834538,2.7252693,3.4013386
		c2.5129929,1.9729195,5.4605341,3.1643543,8.3473158,4.4121685c2.0124989,0.8699074,4.0918484,1.6603928,6.2854233,2.0479012
		c1.6053391,0.2835884,3.2183838,0.4280396,4.8441505,0.3605309c0.2962151-0.0123024,0.8047428,0.0726738,0.7747993-0.5210075
		c0.7033787-0.087616,1.4067574-0.1752281,2.1101379-0.2628136c0.1261253,0.2049866,0.2949295,0.1155663,0.4814301,0.1044083
		c1.2579918-0.0752449,2.3037109-0.7975845,3.4797134-1.1138077c2.5626831-0.6890984,4.748806-2.0139847,6.580265-3.9187107
		c0.4474335-0.4653339,0.8736839-0.9849205,0.8415031-1.7073193c0.4240761-0.2039032,0.7529678-0.5903778,1.2510834-0.6522942
		c0.3731728,0.4256687-0.0508842,0.6769428-0.2007256,1.0053139c-0.5174599,1.1340065-1.2674713,2.0544319-2.2166862,2.8766975
		c-1.7505112,1.5164032-3.8750992,2.2919884-5.9641838,3.0992126c-1.9325714,0.7467461-3.8949089,1.4505882-5.9812393,1.7384987
		c-1.1928978,0.1646156-2.3509121,0.3611183-3.5787659,0.2771416
		C27.4707603,36.4959679,26.8079453,36.1281738,26.2288456,36.5765877z"/>
	<path style="fill:#ACA28A;" d="M31.2302322,35.0880775c0.0299435,0.5936813-0.4785843,0.5087051-0.7747993,0.5210075
		c-1.6257668,0.0675087-3.2388115-0.0769424-4.8441505-0.3605309c-2.1935749-0.3875084-4.2729244-1.1779938-6.2854233-2.0479012
		c-2.8867817-1.2478142-5.8343229-2.439249-8.3473158-4.4121685c-1.1691542-0.9178848-2.063796-2.0747337-2.7252693-3.4013386
		c-0.1083364-0.2172718-0.0527105-0.5162945-0.0728893-0.7774563c1.3860884,0.6732864,2.5563135,1.5584793,3.4406586,2.8792553
		c0.4952984,0.7397289,1.3855867,1.1701622,2.1475821,1.6752949c2.0531664,1.3610592,4.3580494,2.1912498,6.5795403,3.2090626
		c1.9017792,0.8713303,3.9741402,1.1781273,5.8561211,2.1261024C27.7344189,35.2701492,29.5141544,35.2146645,31.2302322,35.0880775
		z"/>
	<path style="fill:#ACA28A;" d="M44.7232819,28.1898346c0.0321808,0.7223988-0.3940697,1.2419853-0.8415031,1.7073193
		c-1.831459,1.904726-4.0175819,3.2296124-6.580265,3.9187107c-1.1760025,0.3162231-2.2217216,1.0385628-3.4797134,1.1138077
		c-0.1865005,0.011158-0.3553047,0.1005783-0.4814301-0.1044083c0.7984428-0.3608971,1.4838142-0.9125977,2.0649757-1.5298386
		c0.4698486-0.4990158,1.0730515-0.6790352,1.6169662-0.8275261c1.5595436-0.4257355,2.8448944-1.244688,4.076683-2.2483349
		C42.1783104,29.3401451,43.4856186,28.8152905,44.7232819,28.1898346z"/>
	<path style="fill:#E5DECD;" d="M7.2520437,24.0873699c-0.6123557,0.268795-0.4776936,0.776062-0.3220339,1.21381
		c0.3540459,0.9956608,0.9933262,1.8302727,1.697958,2.5967846c1.5613699,1.6984901,3.4239864,2.9688034,5.559226,3.8608036
		c1.591815,0.6649799,3.0741816,1.5626812,4.62535,2.3107929c1.0900154,0.5257034,2.2924156,0.8137093,3.4284229,1.250061
		c1.0991249,0.4221878,2.2977524,0.4659767,3.3833389,0.9334488c0.16642,0.0716591,0.2706337,0.1394463,0.2883186,0.3175507
		c-0.9241772-0.0824242-1.8404751-0.2163391-2.6834793-0.6262321c-0.4799747-0.233387-1.0125141-0.177269-1.5105247-0.3961563
		c-1.0654488-0.4682846-2.1894875-0.8018799-3.2837772-1.2062073c-2.2680225-0.8380165-4.4047365-1.9736366-6.4891825-3.1653957
		c-2.2095261-1.2632732-4.1556258-2.9103451-5.4954414-5.147974c-0.1301994-0.2174511-0.1590757-0.4930801-0.2587638-0.7317696
		c-0.2741971-0.6565342-0.2187915-1.4579926-0.8691568-1.958683c-0.0558023-0.0429592,0.0469937-0.2919273,0.0761399-0.4452362
		C6.0453472,23.2460365,6.6793394,23.6191502,7.2520437,24.0873699z M6.6346321,24.0504818
		c0.0173721-0.0126991,0.0347443-0.0254002,0.0521159-0.0381031c-0.0146084-0.0155468-0.0292158-0.0310917-0.0438242-0.0466404
		c-0.022037,0.0212498-0.0440755,0.0424976-0.066113,0.0637493C6.5960841,24.0364857,6.6153579,24.0434856,6.6346321,24.0504818z"/>
	<path style="fill:#ACA28A;" d="M33.3600121,29.4566708c-0.0235558-0.3042545-0.2429047-0.3367691-0.4795952-0.3450718
		c-0.0110092-0.3585281,0.1801834-0.622366,0.374321-0.9056454c0.3745804-0.5465775,0.704422-1.1238213,1.0528107-1.6883488
		c0.0548935-0.0149918,0.109787-0.0299759,0.1644287-0.0451126c0.0412788-0.0020275,0.0818367-0.009306,0.1214294-0.021986
		c0.0991974,0.236084-0.1156807,0.5207653,0.1093521,0.7406273c0.0510445-0.0146732,0.1137199-0.0131912,0.1397018-0.043335
		c0.1625977-0.1886902-0.0384102-0.6854935,0.2829056-0.6243458c0.4193268,0.0798035,0.1769295,0.5793076,0.2716141,0.8830795
		l0.003067-0.0033951c-0.0763779,0.0027599-0.1527596,0.0055256-0.2292519,0.0083141
		c-0.1188278-0.0024147-0.2375374-0.0048618-0.3562469-0.0073051c-0.5504036,0.0355778-0.7623177,0.2856445-0.5213242,0.8227043
		c-0.0320282,0.2380295-0.131382,0.4405899-0.3153801,0.5985947c-0.0234756-0.020834-0.0469322-0.0416965-0.0703888-0.0625591
		c0.0217819,0.0225353,0.0435562,0.0450726,0.0653381,0.067606c-0.0067673,0.0477505-0.0083771,0.0956707-0.0048218,0.1437645
		c0.0171471,0.1010323-0.0846024,0.3198738,0.1770248,0.1786594c0.3415604-0.0015488,0.3073769,0.243763,0.3068047,0.4669876
		c-0.0123138,0.0200691-0.0246239,0.0401402-0.0369377,0.0602112c0.0113487-0.02104,0.0226974-0.0420818,0.0340424-0.0631237
		l0.0776253-0.0020275l0.07761,0.002615c0.1593323,0.6348839-0.1265526,1.22929-0.2389336,1.8212528
		c-0.1333008,0.7021446-0.2501297,1.4396973-0.6274986,2.0845299c-0.096138-0.1357918-0.0060654-0.3847771-0.3063507-0.4192619
		c-0.6249428-0.0717697-1.255619-0.1368103-1.853941,0.0612869c-0.4035797,0.1336212-0.5783672-0.0897827-0.7968369-0.3106537
		c0.5434608-0.7285385,1.2304745-1.3176193,1.892168-1.9292488c0.2519951-0.2329273,0.497776-0.4494934,0.5246391-0.8178158
		c-0.0001373-0.0001431-0.0058174-0.0078754-0.0058174-0.0078754c0.3202553-0.0132732,0.5151176-0.2043896,0.5750771-0.4912395
		c0.0352974-0.168869-0.1540337-0.148262-0.2734795-0.1574669C33.4485168,29.4465694,33.4041328,29.448431,33.3600121,29.4566708z"
		/>
	<path style="fill:#ACA28A;" d="M34.7478104,19.990509c0.010849,0.0968075,0.0216942,0.1936131,0.0326881,0.2903385
		c0.2663193,1.001461,0.5062294,2.0110054,0.807972,3.0017166c0.1981964,0.6507263,0.1015167,1.3015938,0.1255341,1.9528351
		c0.0074387,0.2016678-0.108017,0.3443699-0.2928123,0.42696c-0.254364,0.040844-0.6172905-0.1413784-0.6654892,0.3236237
		c-0.0491562-0.0032387-0.0983963-0.0051193-0.1476898-0.00564c-0.0498543-0.212244-0.0997086-0.4244919-0.1495819-0.6367531
		c0.2206955,0.0024071,0.4522095,0.0819073,0.6302223-0.0599766c-0.1510696-0.6148319-0.5471306-1.1331882-0.4776611-1.7864799
		c0.0446053-0.4194603-0.172184-0.5700493-0.5665245-0.5181808c-0.4983597-1.4955921-0.7185097-3.052393-1.0106354-4.5932999
		c0.1225014-0.3784618-0.2282753-0.5992355-0.3039474-0.9116955c0.7417984-0.0398159,0.8151474,0.6263275,1.1135864,1.054697
		c-0.0170174,0.2327499-0.054657,0.4779453,0.2952499,0.4889164l0.0022507,0.0031509
		C34.2648468,19.3930378,34.2025375,19.8818913,34.7478104,19.990509z"/>
	<path style="fill:#ACA28A;" d="M35.3969803,27.4065323c0.0775948,0.0080624,0.1580353,0.0057049,0.2323151,0.0259457
		c0.3804855,0.1036701,0.7521324-0.3047905,1.1204605-0.0353413c0.1538582,0.1125565,0.0539513,1.1324482-0.1249504,1.6301022
		c-0.7877617-0.2609692-0.5811615-1.2710114-1.2247505-1.6241016L35.3969803,27.4065323z"/>
	<path style="fill:#CCC6B1;" d="M34.4518089,29.6199055c0.0005646-0.2232265,0.0347481-0.4685383-0.3069115-0.4670448
		c-0.0590401-0.0595722-0.1179848-0.1190872-0.1769257-0.1786003c-0.0035553-0.0480976-0.0019455-0.0960178,0.0048218-0.1437683
		l0.0050697-0.0050755c0.183979-0.1579762,0.2833328-0.3605366,0.3153419-0.59869
		c0.3235779-0.1793098,0.2854233-0.5878143,0.5213432-0.8225803c0.1187096,0.0024433,0.2374191,0.0048904,0.3562469,0.0073071
		c-0.3123703,0.7036266-0.4466286,1.4530659-0.5666504,2.2061443l-0.0776138-0.002634l-0.0776215,0.0020275L34.4518089,29.6199055z"
		/>
	<path style="fill:#CCC6B1;" d="M34.6080132,25.9803429c0.0492935,0.0005207,0.0985336,0.0024014,0.1476898,0.00564
		c0.067524,0.197319-0.1056442,0.310564-0.1622849,0.4645195c-0.0396042,0.0126839-0.080162,0.0199623-0.1214409,0.0219898
		C34.4488335,26.2896042,34.4196663,26.1049786,34.6080132,25.9803429z"/>
	<path style="fill:#ACA28A;" d="M30.3246269,33.2273827c0.0889721-0.169838,0.2357693-0.2673607,0.4111118-0.3290024
		C30.8141441,33.2771378,30.5465126,33.2237053,30.3246269,33.2273827z"/>
	<path style="fill:#ACA28A;" d="M13.1761408,20.9794064c-0.0121193-0.0180511-0.0242376-0.0361042-0.036356-0.0541573
		c0.0268526-0.0145931,0.0537033-0.0291882,0.080555-0.0437832c0.0032368,0.0223007,0.0144014,0.047718,0.0072451,0.065937
		C13.2216597,20.9624825,13.1941099,20.9690647,13.1761408,20.9794064z"/>
	<path style="fill:#CCC6B1;" d="M26.9950485,32.6439896c-0.5773487-0.5581894-0.2815189-1.3180656-0.4254684-1.9743862
		c-0.1972904-0.8995018-0.3170738-1.8168812-0.5914536-2.7017136c-0.0382195-0.1232548-0.0667458-0.2565594-0.063982-0.3844376
		c0.0503883-2.3323402-1.160099-4.1976357-2.2634392-6.1002312c-0.086422-0.1490326-0.2536697-0.3358612-0.3992176-0.3508282
		c-0.540556-0.0555744-0.5075874-0.4179897-0.5057545-0.794548c0.0019989-0.4102535-0.0611649-0.7771149-0.6238575-0.5998859
		c-0.5506916,0.1734505-0.5081787-0.2256451-0.4722519-0.5255699c0.0774078-0.6461964,0.2045555-1.2864361,0.3113689-1.9291363
		l-0.0046825,0.004631c0.0584736-0.0007343,0.1169243-0.0014439,0.1753731-0.0021515
		c1.6143055,0.0928822,2.6604595,1.0622597,3.6079578,2.2513199c0.4471989,0.5612087,0.4866276,1.1839371,0.5761795,1.8222237
		c0.0837975,0.5972919,0.0070534,1.1720409,0.2642155,1.8064747c0.1970272,0.4860744,0.2640934,1.2340355,0.2345181,1.8546677
		c-0.0532703,1.1179161-0.1021633,1.1230888,1.0511131,1.1123619c0.2299213,0.2248707,0.4132671,0.4865322,0.8252411,0.4142418
		c0.4890766-0.085825,0.1037064-0.5643921,0.3791504-0.7215137c0.2453918-0.0300522,0.479435-0.0393105,0.5293007,0.2888832
		c-0.1641254,0.6397724-0.8907795,0.8696556-1.0882759,1.4998703c-0.0502586,0.1603718-0.2820606,0.0894966-0.4084473-0.0160885
		c-0.2802124-0.2340832-0.6339073-0.1964035-1.1075878-0.3463764
		C26.9950485,29.0938473,26.9950485,30.8689175,26.9950485,32.6439896z"/>
	<path style="fill:#CCC6B1;" d="M34.3075485,26.5176048c-0.3483887,0.5645275-0.6782303,1.1417713-1.0528107,1.6883488
		c-0.1941376,0.2832794-0.3853302,0.5471172-0.374321,0.9056454c-0.0798225,0.1900291-0.2628632,0.2684956-0.4294891,0.3166275
		c-0.253315,0.0731697-0.4997902,0.5924625-0.7735443,0.113596c-0.2316017-0.4051342-0.4598446-1.0046616,0.0503902-1.2724915
		c0.7760906-0.4073906,1.0434208-1.1621075,1.5226421-1.7719326C33.6271019,26.0180569,33.9666634,26.0184689,34.3075485,26.5176048
		z"/>
	<path style="fill:#695939;" d="M29.0700588,25.8255081c-0.275444,0.1571217,0.1099262,0.6356888-0.3791504,0.7215137
		c-0.411974,0.0722904-0.5953197-0.1893711-0.8252411-0.4142418c0.1408978-0.4784622,0.2814827-0.9568977,0.4220543-1.435297
		C28.5484924,25.0735168,28.8092766,25.4495125,29.0700588,25.8255081z"/>
	<path style="fill:#CCC6B1;" d="M32.7298851,17.4739571c0.0756721,0.3124599,0.4264488,0.5332336,0.3039474,0.9116936
		c-0.0256538,0.0044804-0.0526123,0.0165024-0.0769081,0.0124683c-0.3873711-0.0643368-0.1355629,0.8079014-0.5574722,0.4648075
		c-0.4213867-0.3426628-0.5645599-0.9532852-0.4413319-1.5106564c0.0825405-0.3733425,0.3923588-0.0071106,0.5915241-0.0630741
		C32.6097031,17.3508091,32.669796,17.4123821,32.7298851,17.4739571z"/>
	<path style="fill:#695939;" d="M34.0444679,22.9789524c0.3943405-0.0518684,0.6111298,0.0987206,0.5665245,0.5181808
		c-0.0694695,0.6532917,0.3265915,1.171648,0.4776611,1.7864799c-0.1780128,0.1418839-0.4095268,0.0623837-0.6302223,0.0599766
		C34.3204536,24.5553894,34.1824608,23.76717,34.0444679,22.9789524z"/>
	<path style="fill:#F3EDE3;" d="M29.0700588,25.8255081c-0.2607822-0.3759956-0.5215664-0.7519913-0.7823372-1.1280251
		c0.0288601-0.0713081,0.0556164-0.2037888,0.0868568-0.2048512c0.6897984-0.0235195,0.8080788,0.7068329,1.278532,0.9864483
		c0.2203884,0.1309814,0.3077679,0.3603954,0.09231,0.5926781c-0.0298214,0.0321503-0.0970325,0.0296154-0.1464977,0.0428829
		C29.5494938,25.7861977,29.3154507,25.7954559,29.0700588,25.8255081z"/>
	<path style="fill:#CCC6B1;" d="M33.3600121,29.4566708c0.0441208-0.0082397,0.0885048-0.0101013,0.1332397-0.0054932
		c-0.0636749,0.2334042-0.3446198,0.365654-0.3016815,0.6486149c0,0,0.0056801,0.0077324,0.0058174,0.0078754
		c-0.2053299-0.1521301-0.4980202,0.4885521-0.5810623,0.0024166
		C32.5460358,29.6986294,32.9130554,29.4539757,33.3600121,29.4566708z"/>
	<path style="fill:#ACA28A;" d="M22.1316833,17.2857323c-0.0584488,0.0007076-0.1168995,0.0014172-0.1753731,0.0021515
		c0.0057888-0.0508003,0.0092888-0.1017818,0.0105553-0.1528435C22.0218563,17.1853237,22.0767689,17.235527,22.1316833,17.2857323z
		"/>
	<path style="fill:#695939;" d="M46.153759,18.5837669c0.2833214,0.3513355,0.313797,0.7625332,0.281353,1.1885414
		c-0.0127068,0.0873051-0.0253677,0.1746807-0.0380936,0.2619877c-0.4929314,0.1468925-0.7611427-0.1213093-0.9585304-0.5189724
		C45.7306252,19.245739,45.7378044,18.7579975,46.153759,18.5837669z"/>
	<path style="fill:#CCC6B1;" d="M34.7478104,19.990509c-0.5452728-0.1086178-0.4829636-0.5974712-0.6068382-0.9697876
		c0.4192123,0.0949078,0.3612785,0.576828,0.6385612,0.7868824C34.7690582,19.8685226,34.7584343,19.9295139,34.7478104,19.990509z"
		/>
	<path style="fill:#CCC6B1;" d="M34.1387215,19.0175705c-0.3499069-0.0109711-0.3122673-0.2561665-0.2952499-0.4889164
		C34.1230316,18.5823097,34.1511002,18.7877388,34.1387215,19.0175705z"/>
	<path style="fill:#ACA28A;" d="M42.825264,25.3429527c-0.9583282,0.1038074-1.8570137,0.5291595-2.8351555,0.5264606
		c-0.3172188-0.7301502-0.1528893-1.498476-0.1503868-2.2487392c0.0014687-0.4388676,0.2864189-0.2885284,0.4519463-0.0912819
		c0.3443794,0.4103889,0.7414436,0.5884686,1.2952919,0.5673561C42.5787621,24.058939,42.8093987,24.3252563,42.825264,25.3429527z"
		/>
	<path style="fill:#ACA28A;" d="M39.1901169,25.9761848c-0.3121529,0.0074921-0.6243095,0.014986-0.9363937,0.0226498
		c-0.5636902-0.0420265-0.9121056-0.6510773-1.5601006-0.5539322c-0.2106361,0.0315762-0.2365761-0.446476-0.0675507-0.4695778
		c0.4901199-0.0669804,0.6372375-0.5151787,0.9812241-0.721035c0.6114693-0.3659306,1.4612999,0.1366997,1.5754585,0.9353676
		C39.2195206,25.4469261,39.1895561,25.7137375,39.1901169,25.9761848z"/>
	<path style="fill:#ACA28A;" d="M45.2089462,22.1850224c0.5570908,0.4624557,0.6218681,1.0562763,0.6049309,1.6666718
		c-0.0053978,0.194643-0.123806,0.3528156-0.3423462,0.353426c-0.2608337,0.0007267-0.259758-0.2070408-0.2611275-0.3895836
		C45.2063255,23.2720604,45.2089462,22.7285309,45.2089462,22.1850224z"/>
	<path style="fill:#ACA28A;" d="M43.9346199,25.0295544c-0.2096939,0.0531063-0.4193993,0.1062145-0.629097,0.1592922
		c-0.0424957-0.1477184-0.1195793-0.2952061-0.1204414-0.4431381c-0.0018997-0.3262348-0.2478981-0.8352337,0.2071495-0.9048424
		c0.3215714-0.0491924,0.5261726,0.4138813,0.5432281,0.8023376C43.9410973,24.7717285,43.9352303,24.9007568,43.9346199,25.0295544
		z"/>
	<path style="fill:#CCC6B1;" d="M6.6346316,24.0504818c-0.0192738-0.0069962-0.0385475-0.0139961-0.0578213-0.0209942
		c0.022038-0.0212517,0.0440764-0.0424995,0.0661135-0.0637493c0.0146084,0.0155487,0.0292158,0.0310936,0.0438242,0.0466404
		C6.6693764,24.0250816,6.6520042,24.0377827,6.6346316,24.0504818z"/>
	<path style="fill:#695939;" d="M34.8145485,27.4041462c-0.23592,0.234766-0.1977654,0.6432705-0.5213432,0.8225803
		C34.0522308,27.6897907,34.2641449,27.439724,34.8145485,27.4041462z"/>
	<path style="fill:#E5DECD;" d="M33.1915703,30.0997925c-0.0429382-0.2829609,0.2380066-0.4152107,0.3016815-0.6486149
		c0.1193619,0.0091133,0.3086929-0.0114937,0.2733955,0.1573753C33.7066879,29.8954029,33.5118256,30.0865192,33.1915703,30.0997925
		z"/>
	<path style="fill:#E5DECD;" d="M33.9679718,28.9742603c0.0589409,0.0595131,0.1178856,0.1190281,0.1769257,0.1786003
		C33.8833694,29.2941303,33.9851189,29.0752888,33.9679718,28.9742603z"/>
	<path style="fill:#CCC6B1;" d="M33.9727936,28.830492c-0.0217819-0.0225334-0.0435562-0.0450706-0.0653381-0.067606
		c0.0234566,0.0208626,0.0469131,0.0417252,0.0703888,0.0625591L33.9727936,28.830492z"/>
	<path style="fill:#CCC6B1;" d="M34.4489059,29.616991c-0.0113449,0.0210419-0.0226936,0.0420837-0.0340424,0.0631237
		c0.0123138-0.020071,0.0246239-0.0401421,0.0369377-0.0602112L34.4489059,29.616991z"/>
</g>
</svg>
