<?xml version="1.0" encoding="utf-8"?>
<!-- Generator: Adobe Illustrator 21.1.0, SVG Export Plug-In . SVG Version: 6.00 Build 0)  -->
<svg version="1.1" id="Слой_1" xmlns="http://www.w3.org/2000/svg" xmlns:xlink="http://www.w3.org/1999/xlink" x="0px" y="0px"
	 viewBox="0 0 25 25" style="enable-background:new 0 0 25 25;" xml:space="preserve">
<g>
	<path style="fill:#3B5997;" d="M13.5487194,23.5938435c-0.055089-0.0215721-0.1126537-0.0114727-0.1689978-0.0114822
		c-3.0440845-0.0005436-6.0881696-0.0019073-9.1322517,0.0009937c-0.4735582,0.000452-0.9094815-0.1103115-1.2926135-0.3919735
		c-0.5964873-0.4385109-0.8749101-1.0377407-0.8751221-1.7727127c-0.0009294-3.2229023-0.0023198-6.4458027-0.0030038-9.668704
		C2.0762498,9.4862061,2.0745203,7.2224436,2.078459,4.9586926c0.0007703-0.442708-0.0113299-0.8858232,0.0165567-1.3283789
		C2.156471,2.6550298,3.0045786,1.8032296,3.9775298,1.743417c0.1539547-0.0094644,0.3084486-0.0142846,0.4626935-0.0143049
		c5.429769-0.0007114,10.8595371-0.000597,16.2893047-0.000581c0.739439,0.0000023,1.3416901,0.2791493,1.780838,0.8827081
		c0.2777634,0.3817527,0.386488,0.8162341,0.3866425,1.2832894c0.0010777,3.2391479,0.0037422,6.4782953,0.0041409,9.7174435
		c0.0003223,2.6051435,0.0013695,5.2102938-0.0046139,7.8154249c-0.0020752,0.9041576-0.4119396,1.5685291-1.2276249,1.9692879
		c-0.2928734,0.1438923-0.6095123,0.1867352-0.9347706,0.1861553c-1.3127327-0.0023365-2.6254711-0.0010719-3.9382076-0.0005245
		c-0.0482731,0.000021-0.0965443,0.0064278-0.1448021,0.0098476c0.0007-0.7029629,0.0019951-1.4059162,0.0019627-2.1088657
		c-0.0000935-2.032299,0.0002613-4.0646-0.0038509-6.0968914c-0.0002213-0.1094131,0.028923-0.1329184,0.1344528-0.1322651
		c0.7681808,0.0047617,1.5364094,0.0010529,2.3046036,0.00457c0.0907402,0.0004139,0.1208916-0.0235558,0.1374798-0.1165915
		c0.1709194-0.9586439,0.3472004-1.9163408,0.5258331-2.8735857c0.0198479-0.1063585-0.0005665-0.135663-0.1144619-0.1350784
		c-0.9551563,0.0049047-1.9103489,0.0024996-2.86553,0.003397c-0.0684128,0.0000639-0.1210632,0.0078239-0.1207047-0.0951853
		c0.0034904-1.0039425,0.0014477-2.0079031,0.0013599-3.0118589c-0.000021-0.2436771,0.072094-0.4633093,0.2232857-0.6556597
		c0.2385006-0.3034229,0.5618725-0.4069042,0.9345436-0.4049282c0.6096745,0.0032315,1.2193928-0.0012655,1.8290539,0.0029945
		c0.1006699,0.0007029,0.1393414-0.0155034,0.1387234-0.1304078c-0.0051422-0.955152-0.0041637-1.9103522-0.0002022-2.8655167
		c0.0004234-0.1020851-0.0287628-0.129488-0.1295967-0.1286864c-0.577137,0.0045862-1.1543427,0.0001001-1.7314987,0.003315
		c-0.2192345,0.0012207-0.4400177,0.0005102-0.6573086,0.0252042c-0.7789745,0.0885248-1.4889708,0.3590107-2.1068249,0.8477736
		C14.1458902,6.520153,13.58636,7.5606928,13.5444832,8.844223c-0.0340443,1.0435162-0.0097456,2.0889263-0.0121288,3.1334953
		c-0.0004148,0.1815271,0.0220242,0.1578379-0.1522055,0.1581326c-0.6056232,0.0010242-1.2112589,0.0018616-1.8168678-0.0012941
		c-0.084259-0.0004368-0.1202536,0.0112715-0.1198177,0.1100969c0.0042667,0.9673576,0.0043402,1.9347448,0.0007143,2.9021053
		c-0.0003595,0.0957909,0.0304594,0.1124239,0.1178055,0.1118917c0.6056032-0.0036926,1.2112408-0.0025921,1.816865-0.0015421
		c0.1745472,0.0003042,0.1542597-0.0242176,0.1544371,0.1560669c0.0026169,2.6783943,0.0047064,5.3567848,0.0073442,8.0351791
		C13.5406771,23.4968529,13.545908,23.5453472,13.5487194,23.5938435z"/>
	<path style="fill:#EBEFF0;" d="M13.5487194,23.5938435c-0.0028114-0.0484962-0.0080423-0.0969906-0.00809-0.1454887
		c-0.0026379-2.6783943-0.0047274-5.3567848-0.0073442-8.0351791c-0.0001774-0.1802845,0.0201101-0.1557627-0.1544371-0.1560669
		c-0.6056242-0.00105-1.2112617-0.0021505-1.816865,0.0015421c-0.0873461,0.0005322-0.118165-0.0161009-0.1178055-0.1118917
		c0.0036259-0.9673605,0.0035524-1.9347477-0.0007143-2.9021053c-0.0004358-0.0988255,0.0355587-0.1105337,0.1198177-0.1100969
		c0.6056089,0.0031557,1.2112446,0.0023184,1.8168678,0.0012941c0.1742296-0.0002947,0.1517906,0.0233946,0.1522055-0.1581326
		c0.0023832-1.044569-0.0219154-2.0899792,0.0121288-3.1334953c0.0418768-1.2835302,0.6014071-2.32407,1.6079674-3.1203265
		c0.6178541-0.4887629,1.3278503-0.7592487,2.1068249-0.8477736c0.2172909-0.024694,0.4380741-0.0239835,0.6573086-0.0252042
		c0.5771561-0.0032148,1.1543617,0.0012712,1.7314987-0.003315c0.1008339-0.0008016,0.1300201,0.0266013,0.1295967,0.1286864
		c-0.0039616,0.9551644-0.00494,1.9103646,0.0002022,2.8655167c0.000618,0.1149044-0.0380535,0.1311107-0.1387234,0.1304078
		c-0.6096611-0.0042601-1.2193794,0.000237-1.8290539-0.0029945c-0.3726711-0.001976-0.696043,0.1015053-0.9345436,0.4049282
		c-0.1511917,0.1923504-0.2233067,0.4119825-0.2232857,0.6556597c0.0000877,1.0039558,0.0021305,2.0079165-0.0013599,3.0118589
		c-0.0003586,0.1030092,0.0522919,0.0952492,0.1207047,0.0951853c0.9551811-0.0008974,1.9103737,0.0015078,2.86553-0.003397
		c0.1138954-0.0005846,0.1343098,0.0287199,0.1144619,0.1350784c-0.1786327,0.9572449-0.3549137,1.9149418-0.5258331,2.8735857
		c-0.0165882,0.0930357-0.0467396,0.1170053-0.1374798,0.1165915c-0.7681942-0.0035172-1.5364227,0.0001917-2.3046036-0.00457
		c-0.1055298-0.0006533-0.1346741,0.0228519-0.1344528,0.1322651c0.0041122,2.0322914,0.0037575,4.0645924,0.0038509,6.0968914
		c0.0000324,0.7029495-0.0012627,1.4059029-0.0019627,2.1088676c-0.0279751,0.0027809-0.0559368,0.0079594-0.0838985,0.0079708
		c-0.9821558,0.0004177-1.9643087,0.0004005-2.9464636,0.0000744
		C13.5967522,23.6002045,13.5727348,23.5960579,13.5487194,23.5938435z"/>
</g>
</svg>
