<?xml version="1.0" encoding="utf-8"?>
<!-- Generator: Adobe Illustrator 21.1.0, SVG Export Plug-In . SVG Version: 6.00 Build 0)  -->
<svg version="1.1" id="Слой_1" xmlns="http://www.w3.org/2000/svg" xmlns:xlink="http://www.w3.org/1999/xlink" x="0px" y="0px"
	 viewBox="0 0 55 45" style="enable-background:new 0 0 55 45;" xml:space="preserve">
<g>
	<path style="fill:#A6A41A;" d="M4.2950187,24.9049511c-0.0979195-0.1716614-0.1958394-0.3433228-0.293695-0.5149784
		c-0.0629079-0.4240875-0.1258783-0.8481846-0.1888275-1.2722797c0.0461314-0.7298756-0.1027932-1.4437294-0.1776581-2.1626854
		c-0.0071583-0.0704136-0.0143797-0.1418018-0.0216017-0.2131901c0.0176764-0.1129208,0.0353529-0.2258415,0.0529795-0.3387413
		c0.7952924,0.3826504,1.6265421,0.6422825,2.5063095,0.7320557c0.7695079,0.3467808,1.5962934,0.5004292,2.4092808,0.7014885
		c0.0535355,0.5550213-0.3108549,0.9167538-0.6060872,1.3104725c-0.02352-0.2965946-0.0395422-0.5808735-0.4253082-0.6644268
		c-0.7207918-0.1561165-1.4487739-0.2977829-2.1498847-0.5205975c-0.6618452-0.2103405-0.7189407,0.102602-0.6775837,0.6175003
		c0.0566025,0.7046986,0.3556647,1.3874149,0.1928601,2.1116905C4.7088747,24.7624912,4.5019469,24.8337212,4.2950187,24.9049511z"
		/>
	<path style="fill:#E5E8F2;" d="M46.8025093,14.3208389c0.1155052,0.0627003,0.1527481,0.1662769,0.1514511,0.289979
		c0.0168419,0.0540524,0.03368,0.1081028,0.0503807,0.1618605c-0.1904335-0.0300322-0.380722-0.0597715-0.5710144-0.08951
		c-0.1691589-0.2156143-0.3780136-0.1812181-0.5951691-0.0944881c-0.0583839-0.0478554-0.1167641-0.0957117-0.175148-0.1435671
		c0.1400833-0.5603943-0.1801643-0.8186932-0.6545563-0.7889433c-0.566246,0.035511-1.1144524-0.118618-1.6470184-0.1848173
		c-2.0063858-0.2493925-3.9894409-0.6865044-5.9812279-1.0533218L37.348465,12.381608
		c0.5402832-0.6999102,1.2290115-0.1891813,1.735321-0.0654383c1.4423943,0.3525238,2.8960571,0.4723959,4.3613625,0.570013
		c0.0797958,0.0646372,0.1552277,0.1788673,0.2400627,0.1863394c1.0074234,0.0887537,2.001503,0.2061663,2.7952003,0.9324512
		C46.4928665,14.2070522,46.5967674,14.3158655,46.8025093,14.3208389z"/>
	<path style="fill:#EAE347;" d="M29.8897533,13.1937361c0.4917068-0.3830347,1.2087212-0.0879402,1.6730366-0.5550051
		c0.125309-0.0279007,0.2498875-0.0564165,0.3744183-0.0848284c0.6588535-0.0957136,1.3390026-0.4361029,1.9368153,0.1684608
		c-0.3764153,0.0943098-0.9470978-0.2514238-1.0489998,0.4635267c-0.281723,0.0583658-0.561924,0.1257744-0.8454399,0.1734886
		c-1.070137,0.1800976-1.3182011,0.4598665-1.3340626,1.5548162c-0.0068645,0.4739285,0.0106335,0.9482088,0.017067,1.4223299
		c-0.0542507,0.0748158-0.1085014,0.1496315-0.1627541,0.2244473c-0.037077-0.0030613-0.0730209,0.001976-0.107832,0.0151119
		c-0.09305-0.0610237-0.1861-0.1220493-0.2791481-0.183073c0.1446686-0.807992,0.0371742-1.6233721,0.072401-2.4344921
		C30.1983509,13.6570549,30.1664066,13.3799524,29.8897533,13.1937361z"/>
	<path style="fill:#EAE347;" d="M9.2657967,18.5675411c0.7594109-0.154417,1.1764717,0.0612907,1.2602997,0.9244061
		c0.0612259,0.6303921,0.0794878,1.2545967,0.084218,1.883522c-0.2240763-0.060173-0.448452-0.1204281-0.6728277-0.1806812
		c-0.1482477-1.5902023-0.2583561-1.6785946-1.3504629-1.0841122c-0.727767,0.2230835-1.4500837,0.4672413-2.1863017,0.6576481
		c-0.2525067,0.0653038-0.3164706,0.1408062-0.2271199,0.3667889c-0.8808441-0.0897541-1.7120938-0.3493862-2.5073862-0.7320366
		c0.1865098-0.5022182,0.6441584-0.3644981,1.0099936-0.4124966c1.5185666-0.1992474,2.9817891-0.5806141,4.358428-1.2665482
		C9.1123028,18.6722984,9.1890497,18.6199207,9.2657967,18.5675411z"/>
	<path style="fill:#2E23E4;" d="M42.7119331,25.5991554l-0.055172-0.0077858l-0.0401573,0.0386295
		c-0.1709747,0.0668163-0.3563232,0.1099796-0.5112801,0.2035027c-1.5474243,0.9339485-3.097168,1.8644352-4.6309204,2.8205128
		c-0.9203529,0.5737057-1.9193001,1.0278587-2.7336159,1.7660465c-0.0422096-0.0126038-0.0758781-0.0008163-0.1010056,0.0353642
		c-1.8123741,0.897377-3.4852962,2.0323372-5.2045956,3.0858765c-0.9907303,0.6070976-2.0688705,1.083683-2.9426975,1.8756218
		l-0.0050621,0.0018997c-0.1420555,0.0151596-0.2841854,0.0302887-0.4263172,0.0454178
		c-0.0569859-0.0769653-0.1139736-0.1539268-0.1709595-0.2308922c-0.2644253-0.4901123-0.1235447-0.8241463,0.3556061-1.0973892
		c1.8345737-1.046196,3.6644001-2.1011047,5.4829445-3.1748676c1.1723042-0.692194,2.4076786-1.2910557,3.4247265-2.2237396
		c0.2189064-0.0177841,0.4270058-0.0533676,0.5026474-0.3064423c0.2600632-0.0089626,0.4810867-0.0902977,0.6155777-0.332058
		c0.2168465-0.0199165,0.442627-0.0266647,0.4733047-0.3210449l0.0063629-0.0062122
		c0.3290138-0.025671,0.6729469-0.0279694,0.7362022-0.4699612c0.3535538-0.2274818,0.7071114-0.4549637,1.0606689-0.6824455
		c0.2692833-0.0144405,0.4870377-0.1100712,0.5954933-0.377924c0.04002,0.0011196,0.0680161-0.0166779,0.083992-0.0533981
		c0.4369774-0.133173,0.8533859-0.29109,0.9714165-0.8078098c0.2156715-0.0092163,0.2226486-0.1684093,0.2334557-0.324852
		c0.8500977-0.0716591,1.387413-0.7038498,2.036232-1.1362247c0.1082878-0.0320492,0.2165756-0.0640965,0.3248634-0.0961437
		c0.2710571,0.0737762,0.5183945-0.0350266,0.7713928-0.1002312c0.0600471-0.0231133,0.1200867-0.0462284,0.18013-0.0693398
		c0.0331306-0.0085964,0.061985-0.0247955,0.0865707-0.0485954c0.1684837-0.0227013,0.3049202-0.0962315,0.3923912-0.2474194
		c0.033947-0.0212135,0.0642052-0.0467892,0.0907784-0.076725c0.6352654-0.1716957,1.1763687-0.5126095,1.6740379-0.9315701
		c0.0262413-0.0166359,0.053688-0.0309544,0.0823517-0.0429535c0.7695045-0.2311974,1.541935-0.4576035,1.9885368-1.2165852
		c0.2744026-0.1730385,0.5488014-0.3460751,0.823204-0.5191116c0.1060066-0.0640221,0.2120132-0.1280441,0.3180161-0.1920643
		c0.7003403-0.106308,1.1860161-0.6108131,1.7611465-0.9493904c0.1665878,0.1638908,0.523941,0.1386261,0.4935913,0.4977856
		c-0.167984,0.014576-0.1748924,0.1635113-0.2281799,0.2736187c-1.7303734,1.2285805-3.6190872,2.2038479-5.391304,3.3639622
		C44.7964249,24.2449303,43.622654,24.7211533,42.7119331,25.5991554z"/>
	<path style="fill:#EAE347;" d="M49.2010536,20.3782406c-0.1060028,0.0640202-0.2120094,0.1280422-0.3180008,0.1920624
		c-0.0070648-0.1610832-0.0602837-0.3007488-0.187912-0.4051208c0.2525406-1.0548153,0.2204781-2.1460686,0.4034348-3.2087269
		c0.0787811-0.4575691-0.2092247-0.3917542-0.4657555-0.4137707c-0.0576172-0.3369904,0.2398148-0.2622948,0.4008751-0.345726
		c0.413353,0.0004215,0.7169876-0.2452459,1.0339546-0.4609985c0.3883171,0.0844679,0.664238-0.0607414,0.9194412-0.443922
		c-0.4439354,0-0.8120613,0.0313816-1.1722794-0.0085335c-0.385788-0.0427485-0.7641411-0.1526346-1.1457367-0.2332201
		c0.016346-0.0271406,0.0326347-0.0543127,0.0488739-0.0815153c0.2672386,0.0004511,0.5344772,0.0009012,0.8017159,0.0013514
		c0.2448883,0.0061579,0.4897766,0.0123158,0.7351532,0.0184193c0.1474304,0.1776066,0.3333359,0.2133627,0.5464973,0.1498299
		c0.1069221-0.0076656,0.2138519-0.0153322,0.3207283-0.0229416c0.1048012-0.0013018,0.2096405-0.0026608,0.3144798-0.0040197
		c0.0917168,0.029089,0.1834297,0.0581789,0.2754517,0.0868263c0.0140533,0.1560593-0.0072899,0.3255558,0.158226,0.4258327
		c0,0-0.0027885,0.0094175-0.0022202,0.0091724c-0.0243759,0.0429106-0.0278893,0.0877466-0.0099678,0.134264
		c-0.0377998,0.0376682-0.0440407,0.0799904-0.0182419,0.1270695c-0.026268,0.1154785-0.0530205,0.230854-0.0797729,0.3462276
		c-0.0119095,0.1594257-0.023819,0.3188496-0.0354691,0.4783421c-0.0001221,0.0556183-0.0005112,0.1111679-0.0008965,0.1667194
		c-0.0703697,0.6006413-0.1498871,1.2004166-0.20681,1.8023281c-0.0242882,0.2568512-0.0685806,0.4725685-0.3645668,0.5303726
		c-0.0846558-0.2236252-0.2552795-0.1392212-0.4092979-0.1141911c0.062191-0.7355213,0.1409645-1.4701538,0.180336-2.2068939
		c0.0235825-0.4411926-0.0950623-0.695713-0.4979515-0.213604c-0.1424866,0.0708046-0.2849731,0.1416111-0.4274597,0.2124176
		c-0.1617699-0.0113926-0.3836517,0.0011425-0.4000931,0.1586857c-0.089283,0.8552761-0.5809784,1.676321-0.2349205,2.5697193
		c0.0104904,0.1095142,0.0208282,0.2191105,0.0311699,0.3287067C49.2891464,20.0765915,49.1684494,20.1925964,49.2010536,20.3782406
		z"/>
	<path style="fill:#928C99;" d="M49.2010536,20.3782406c-0.0326042-0.1856441,0.0880928-0.3016491,0.192955-0.42519
		c0.4324341-0.2032127,0.9512558-0.2871418,1.1388168-0.82728c0.0222816-0.0335331,0.0513115-0.0595341,0.0870895-0.0780029
		c0.0121346,0.0275898,0.0239105,0.0553322,0.0353317,0.0832272c0.0934715,0.0559711,0.1869392,0.1119404,0.2804108,0.1679134
		c0.0109482,0.0428886,0.0198097,0.0862064,0.0265617,0.1299458C50.3870697,19.7674274,49.9013939,20.2719326,49.2010536,20.3782406
		z"/>
	<path style="fill:#EAE347;" d="M46.9539604,14.6108179c0.3680458,0.0291929,0.7360954,0.0583858,1.10429,0.0872335
		c0.0859261,0.1194744,0.2038002,0.1446314,0.3402634,0.1150026c0.0939445,0.0172262,0.1878891,0.0344543,0.2821388,0.0512857
		c0.000473,0.0388365,0.0128021,0.0737782,0.0372963,0.1044292c-0.0162392,0.0272026-0.0325279,0.0543747-0.0486641,0.0810232
		c-0.5634766-0.0403023-1.1242714-0.0975189-1.6648026-0.2768202
		C46.9876404,14.7189207,46.9708023,14.6648703,46.9539604,14.6108179z"/>
	<path style="fill:#ECEFF8;" d="M46.8025093,14.3208389c-0.2057419-0.0049734-0.3096428-0.1137867-0.3220978-0.3158655
		c0.0184593-0.1024294,0.0553894-0.2594309,0.156498-0.2260723C46.913475,13.8701468,46.7587814,14.1336594,46.8025093,14.3208389z"
		/>
	<path style="fill:#887A7C;" d="M50.9356575,19.2989082c-0.0934715-0.0559731-0.1869392-0.1119423-0.2804909-0.1679115
		c0.0288277-0.0101337,0.0581169-0.0190105,0.0877914-0.0266247c0.1540184-0.0250301,0.3246422-0.1094341,0.4092979,0.1141911
		C51.0802078,19.2452106,51.0079346,19.2720585,50.9356575,19.2989082z"/>
	<path style="fill:#E5E8F2;" d="M51.7599983,16.2408009c0.0267525-0.1153736,0.0535049-0.2307491,0.0797729-0.3462276
		C52.1430588,16.0855122,52.0438576,16.1842957,51.7599983,16.2408009z"/>
	<path style="fill:#E5E8F2;" d="M51.7236328,16.8858624c0.0003853-0.0555515,0.0007744-0.1111012,0.0008965-0.1667194
		C51.8552856,16.7751694,51.8548508,16.8307648,51.7236328,16.8858624z"/>
	<path style="fill:#EAE347;" d="M3.6132369,20.7418175c0.0072215,0.0713882,0.0144429,0.1427765,0.0216012,0.2131901
		C3.5266943,20.8935356,3.551718,20.8195267,3.6132369,20.7418175z"/>
	<path style="fill:#928C99;" d="M13.7083464,34.6167221c-0.9189835,0.3925743-1.5889959-0.3105583-2.3531656-0.5578766
		c-2.2241697-0.7198448-4.1568022-2.1138287-6.3948174-2.8099728c-0.0709238-0.2578411-0.1421633-0.5155239-0.2133455-0.7732296
		c0.0114651-0.167635,0.0228734-0.3352489,0.0342579-0.502882c0.5484433,0.0563927,0.5019183,0.8899632,1.1190248,0.8567219
		c1.1885443,0.5698185,2.3838935,1.1259594,3.5638728,1.7129936C10.8741007,33.2439041,12.368865,33.771698,13.7083464,34.6167221z"
		/>
	<path style="fill:#252290;" d="M4.4705467,26.7988625c-0.0836582-0.2382469-0.2871194-0.3596668-0.479588-0.4918118
		c-0.2840478-0.3616524-0.1949072-0.6665688,0.1419439-0.933979c0.8073263,0.089098,1.4309015,0.6700802,2.2128334,0.826416
		c-0.0827227,0.527647-0.5566492,0.8617477-0.6794896,1.3697968C5.2677088,27.3124237,4.8691282,27.0556431,4.4705467,26.7988625z"
		/>
	<path style="fill:#5F2130;" d="M6.3458982,26.1999645c-0.782094-0.1568127-1.4056692-0.7377949-2.2129955-0.8268929
		c-0.0733771-0.2001266,0.0709105-0.3250809,0.1621337-0.468256c0.2069106-0.0710945,0.4138384-0.1423244,0.6207795-0.2133656
		c0.5831375,0.2299538,1.1662612,0.4597187,1.7493854,0.6894855C6.7247715,25.7186623,6.5156846,25.9516525,6.3458982,26.1999645z"
		/>
	<path style="fill:#A2A5C7;" d="M51.2635002,21.1920605c-0.1028671,0.0537033-0.2057304,0.1074028-0.3086433,0.1610451
		c-0.3065376-0.0278778-0.5663528,0.0989399-0.8044662,0.2656841c-0.8239937,0.5770073-1.7350426,0.9922752-2.62854,1.4413681
		c-0.0529938,0.0266361-0.0635529,0.1376896-0.0940323,0.2093658c-0.6826096,0.1319618-1.2302895,0.5004368-1.8208809,0.8593006
		c-0.9175072,0.5575085-1.7362785,1.3708668-2.8946762,1.4709454c0.9103928-0.8786163,2.0841637-1.3548393,3.1240463-2.035553
		c1.7722168-1.1601143,3.6609306-2.1353817,5.391304-3.3639622C51.1909103,20.5326595,51.5540504,20.8504982,51.2635002,21.1920605z
		"/>
	<path style="fill:#887A7C;" d="M6.6652012,25.3809357c-0.5831242-0.2297668-1.1662478-0.4595318-1.7493854-0.6894855
		c0.1627913-0.7244663-0.136271-1.4071827-0.1928735-2.1118813c-0.041357-0.5148983,0.0157385-0.8278408,0.6775837-0.6175003
		c0.7011108,0.2228146,1.4290929,0.364481,2.1498847,0.5205975c0.385766,0.0835533,0.4017882,0.3678322,0.4252076,0.6642666
		c-0.1863022,0.2053623-0.2087493,0.5519733-0.5429916,0.6299477c-0.1651645,0.1488152-0.2304926,0.0761852-0.336422-0.0948753
		c-0.1496849-0.2417221-0.2343712-0.5770683-0.6245375-0.6564903c-0.2127314,0.7234669,0.0430984,1.184391,0.6420383,1.4969368
		C7.0108881,24.8330021,7.048646,25.2169933,6.6652012,25.3809357z"/>
	<path style="fill:#EAE347;" d="M6.6652012,25.3809357c0.3834448-0.1639423,0.3456869-0.5479336,0.4484887-0.8583927
		c0.255476-0.1846943,0.4017744-0.4161777,0.3189368-0.7456627c0.3342423-0.0779743,0.3566895-0.4245853,0.5429916-0.6299477
		c0.2953329-0.3935585,0.6597233-0.755291,0.6063128-1.3103676c0.0477591-0.0557289,0.0953941-0.1114082,0.1430273-0.1670876
		c0.0630217,0.160141,0.1697092,0.2764301,0.3351269,0.3337154c0.0278511,0.1694221,0.0557098,0.338871,0.0835705,0.5083237
		c-0.1313171,0.3689289-0.2626333,0.7378578-0.3939495,1.1067848c-0.0097208,0.0732632-0.0194416,0.1465263-0.0291634,0.2197895
		c-0.4197664,0.2218895-0.4512777,0.6329403-0.5036697,1.0338135c-0.0304508-0.0073185-0.0558329,0.0009384-0.0761461,0.0247784
		c-0.0947437,0.0086536-0.1419287,0.058773-0.1356106,0.1555405c-0.5341282,1.0664444-1.0682564,2.1328888-1.6023841,3.1993332
		c-0.2800479,0.027668-0.5600958,0.0553379-0.8401442,0.0830059c-0.1996455-0.2867756,0.184906-0.4944458,0.1036148-0.7651939
		c0.1228838-0.5081329,0.5968103-0.8422337,0.679533-1.3698807C6.5156846,25.9516525,6.7247715,25.7186623,6.6652012,25.3809357z"/>
	<path style="fill:#E5E8F2;" d="M8.7249584,21.6694775c-0.0476332,0.0556793-0.0952682,0.1113586-0.1430273,0.1670876
		c-0.8131123-0.201004-1.6398978-0.3546524-2.4094057-0.7014332c-0.088274-0.2260017-0.0243101-0.3015041,0.2281966-0.3668079
		c0.736218-0.1904068,1.4585347-0.4345646,2.1863742-0.6577377c0.8352613-0.2353687,1.0072012,0.236515,0.9808645,0.9198017
		C8.7397928,20.8648224,8.5953178,20.97435,8.7249584,21.6694775z"/>
	<path style="fill:#19115A;" d="M13.7083464,34.6167221c-1.3394814-0.8450241-2.8342457-1.372818-4.244173-2.0742455
		c-1.1799793-0.5870342-2.3753285-1.1431751-3.5640903-1.712244c0.2254715-0.3911266,0.5055337-0.1537018,0.7490187-0.0443382
		c1.0582261,0.4753094,2.1131282,0.9584408,3.1620622,1.4539242c1.517581,0.7168579,3.1300678,1.2420311,4.5156012,2.2267113
		c-0.0453167,0.0520592-0.0906334,0.1041222-0.135951,0.1561813C14.0299921,34.6207161,13.8691683,34.6187172,13.7083464,34.6167221
		z"/>
	<path style="fill:#928C99;" d="M14.190814,34.6227112c0.0453176-0.0520592,0.0906343-0.1041222,0.1361589-0.1562119
		c0.0576582,0.0202103,0.1151085,0.040451,0.1725588,0.0606918c-0.0175505,0.1955299-0.161973,0.2432823-0.3203163,0.2750893
		C14.1830225,34.7425346,14.1869183,34.6826248,14.190814,34.6227112z"/>
	<path style="fill:#A2A5C7;" d="M37.0357399,29.6574612c-0.8287735,0.0620937-1.4584122,0.7228394-2.2946854,0.7629032
		c0.8140488-0.7384911,1.8129959-1.1926441,2.7333488-1.7663498c1.5337524-0.9560776,3.0834961-1.8865643,4.6309204-2.8205128
		c0.1549568-0.093523,0.3403053-0.1366863,0.5112801-0.2035027c0.0732155,0.4722919-0.3485565,0.5662708-0.6126404,0.7285614
		c-1.4681969,0.9022713-2.9531326,1.7773991-4.4367638,2.6543407
		C37.3060722,29.1672497,37.0819092,29.3342838,37.0357399,29.6574612z"/>
	<path style="fill:#AC3442;" d="M8.7249584,21.6694775c-0.1296406-0.6951275,0.0148344-0.8046551,0.8429022-0.6390171
		c0.1231422,0.0548229,0.2463846,0.1095753,0.369626,0.1643276c0.2243757,0.0602531,0.4487514,0.1205082,0.6728277,0.1806812
		c1.1131105,0.5472031,2.1929054,0.6447334,3.4030619,0.1422939c1.4859467-0.6169434,3.04986-1.0527859,4.5958958-1.5138493
		c0.4114285-0.1226959,0.9548721-0.466341,1.2733192,0.2122841c-0.0216236,0.0208664-0.0375175,0.0454388-0.0466976,0.0732861
		c-1.9042797,0.6481018-3.8095398,1.2966366-5.7392769,1.9535046c0.4812164,0.7242413,1.2095232,0.627821,1.7979069,0.8541737
		c0.7955685,0.2327518,1.5537605,0.5946312,2.3890247,0.6915741c0.0003395,0.0001621,0.0469933,0.0278912,0.0469933,0.0278912
		c0.0529747,0.0288105,0.1059475,0.0576229,0.1589222,0.0864334c0.7144489,0.2031307,0.1585789,0.8032913,0.3642502,1.1654396
		c-0.1366253,0.2674828-0.3795109,0.3078747-0.6442909,0.3014793c-0.2197971-0.5255642-0.5506172-0.7965889-1.1317844-0.4936523
		c-0.1137962,0.0022411-0.2275925,0.0044823-0.3413887,0.0067272l0.0037823,0.0065498
		c0.0042038-0.3124485-0.2416191-0.4037037-0.4638386-0.4587841c-1.7470894-0.433073-3.3727474-1.2552681-5.1176329-1.6553268
		c-0.7546635-0.173027-1.3027325-0.795639-2.0984678-0.772274C8.8946676,21.9459076,8.7879801,21.8296185,8.7249584,21.6694775z"/>
	<path style="fill:#2E23E4;" d="M19.8825912,20.2161961c1.0844078-0.3512211,2.1688194-0.7024422,3.2534332-1.0536957
		c0.2591286,0.2075272,0.6114445,0.1921997,0.8312531,0.0839157c0.7151985-0.3523254,1.5068474-0.4249802,2.2405529-0.707634
		c1.0736084-0.4135971,2.1861076-0.7252121,3.274786-1.1012669c0.4070721-0.1406097,0.5417194-0.0050411,0.5117855,0.3887386
		c-0.5572739,0.2206516-1.0826225,0.5452766-1.7130623,0.5305138c-0.6823368,0.1639748-1.3856735,0.2756119-1.9332371,0.7755585
		c-0.4271603,0.0074959-0.8759785-0.0412884-1.1234131,0.4326859c0.0071182,0.0347157,0.007103,0.0694256-0.0000439,0.1041336
		c-0.1045132,0.0024815-0.2090244,0.0049629-0.3135376,0.0074463c-0.0973206-0.0063381-0.1946392-0.0126762-0.2919598-0.0190163
		c-0.1557274-0.011858-0.3323631-0.0779514-0.4639626-0.0272179c-1.3840923,0.5335541-2.7544022,1.1035576-4.2015038,1.457304
		c-0.1445198,0.0353298-0.146162,0.1978283-0.1191425,0.3341465l-0.0184231-0.0228786
		c-0.2994518-0.0800209-0.5662384,0.0199833-0.8459206,0.1202374c-0.968977,0.3473339-1.9427681,0.6819248-2.9204674,1.0039444
		c-0.5532417,0.1822224-0.5582905,0.1668949-1.1411018-0.2774563c1.396822-0.3506413,2.6335144-1.0311642,4.0329323-1.2495499
		c0.3520679-0.0549412,1.0023975,0.0322208,0.8933544-0.7061882C19.8450737,20.2616367,19.8609676,20.2370644,19.8825912,20.2161961
		z"/>
	<path style="fill:#AC3442;" d="M30.112854,16.3930111c0.0930481,0.0610237,0.1860981,0.1220493,0.2787247,0.183157
		c-0.0209885,0.052412-0.0415554,0.1047421-0.0621204,0.157074c-2.2746849,0.896862-4.5777569,1.7083664-6.9501724,2.3113461
		C23.3723392,18.461628,23.822525,18.3319168,24.2439079,18.191c1.5669861-0.5240211,3.160799-0.9696941,4.6870747-1.6121101
		l-0.0083866,0.0001068c0.2540569-0.0725212,0.5081158-0.1450386,0.7619476-0.2173061
		C29.8271618,16.3722992,29.9700089,16.3826561,30.112854,16.3930111z"/>
	<path style="fill:#252290;" d="M23.3792858,19.0445881c2.3724155-0.6029797,4.6754875-1.414484,6.9502621-2.3113842
		c0.3851738,0.2690296,0.6652126-0.0060749,0.9636173-0.1860332c0.1424866-0.0167828,0.2849751-0.0335674,0.4277096-0.0497971
		c0.1883736,0.155302,0.1847534,0.2380447-0.0333748,0.4102497c-0.2959785,0.2336597-0.7287979,0.3266182-0.8602886,0.7499313
		c-0.2822075,0.0339375-0.5235348,0.2697582-0.8330784,0.1687069c0.0302029-0.3937874-0.1044445-0.529356-0.5115166-0.3887463
		c-1.0886784,0.3760548-2.2011776,0.6876698-3.274786,1.1012669c-0.7337055,0.2826538-1.5253544,0.3553085-2.2405529,0.707634
		c-0.2198086,0.108284-0.5721245,0.1236115-0.8312531-0.0839157C23.2169743,19.1232166,23.29813,19.0839024,23.3792858,19.0445881z"
		/>
	<path style="fill:#A6A41A;" d="M30.112854,16.3930111c-0.1428452-0.010355-0.2856922-0.0207119-0.4283104-0.0313206
		c0.0110435-0.8160553,0.013422-1.6321115,0.0378227-2.4475088c0.0073318-0.2450132-0.1207352-0.5351524,0.1670609-0.7203426
		c0.2769794,0.1861134,0.3089237,0.4632158,0.2958279,0.7646799C30.1500282,14.769639,30.2575226,15.5850191,30.112854,16.3930111z"
		/>
	<path style="fill:#5F2130;" d="M37.2103157,13.1779003c0.056633-0.2532892,0.1132622-0.5065804,0.1698914-0.7598696
		c1.991787,0.3668175,3.9748421,0.8039293,5.9812279,1.0533218c0.5325661,0.0661993,1.0807724,0.2203283,1.6470184,0.1848173
		c0.4743919-0.0297499,0.7946396,0.228549,0.6544266,0.7893438c-0.4727821,0.2465258-0.3000031,0.5423803-0.065052,0.8430233
		c-0.1698456,0.6698742-0.20895,1.3519373-0.2245789,2.0405054c-0.0077782,0.3425388,0.0830269,0.5904484,0.4273643,0.6361141
		c0.8072662,0.1070671,1.593792,0.3698654,2.4207802,0.3285923c0.0038223,0.1759109,0.0076485,0.3518219,0.0114784,0.5275345
		c-1.3129921-0.29389-2.6377945-0.8823433-3.8973885,0.1560345c-0.0345612-0.1025753-0.0691185-0.2051506-0.1036873-0.3077259
		c0.0416489-0.260006,0.0692787-0.523201,0.1276169-0.7794056c0.1634636-0.7179375-0.0197029-1.1377487-0.8330421-1.2711983
		c-1.3771019-0.2259502-2.7382736-0.5477791-4.10849-0.8173485c-0.6492805-0.1277342-1.1640091,0.0074749-1.3179092,0.7614956
		c-0.0898705,0.4403515-0.3335724,0.7710514-0.742588,0.9713917l-0.0012474,0.0113831
		c-0.0473404-0.4321384-0.3945732-0.7828979-0.33741-1.2433949c0.3416405-0.8056002-0.0274658-1.6510382,0.1382484-2.4664993
		C37.1747551,13.6166439,37.1925354,13.3972731,37.2103157,13.1779003z"/>
	<path style="fill:#A6A41A;" d="M45.5978279,15.288537c-0.234951-0.300643-0.4077301-0.5964975,0.065052-0.8430233
		c0.0585136,0.0474548,0.1168938,0.0953112,0.1751709,0.1427917c0.1983528,0.0313721,0.3968163,0.063117,0.5952759,0.0948629
		c0.1902924,0.0297384,0.3805809,0.0594778,0.5710144,0.08951c0.5406723,0.179595,1.1014671,0.2368116,1.6649437,0.2771139
		c0.3813858,0.0810776,0.7597389,0.1909637,1.1455269,0.2337122c0.360218,0.0399151,0.728344,0.0085335,1.1722794,0.0085335
		c-0.2552032,0.3831806-0.5311241,0.5283899-0.9188423,0.4437561c-0.6575356-0.1135197-1.3142242-0.2526445-1.9865875-0.1110659
		C47.2433853,15.5890169,46.3939209,15.635932,45.5978279,15.288537z"/>
	<path style="fill:#EAE347;" d="M46.4333267,14.6831684c-0.1984596-0.0317459-0.3969231-0.0634909-0.5952759-0.0948629
		C46.0553131,14.5019503,46.2641678,14.4675541,46.4333267,14.6831684z"/>
	<path style="fill:#BBBAD5;" d="M30.6625881,16.336525c-0.0064335-0.4741211-0.0239315-0.9484015-0.017067-1.4223299
		c0.0158615-1.0949497,0.2639256-1.3747187,1.3340626-1.5548162c0.2835159-0.0477142,0.5637169-0.1151228,0.8457031-0.1733036
		c0.012291,0.025651,0.0249596,0.0507965,0.0382957,0.0752592c-0.008213,0.1240969-0.0164566,0.2485552-0.0247002,0.3730125
		c-0.4124832,0.3593559-0.2419472,0.9734316-0.5917015,1.3583851c-0.2808456,0.309104-0.0793991,0.5231562,0.1337509,0.7387362
		c-0.1714783,0.0054626-0.3044395,0.0831976-0.4074249,0.2171631C31.5365334,16.0779285,31.0995598,16.2072258,30.6625881,16.336525
		z"/>
	<path style="fill:#A6A41A;" d="M37.2103157,13.1779003c-0.0177803,0.2193727-0.0355606,0.4387436-0.0530777,0.6582365
		c-1.03545-0.1097488-2.0709343-0.2218485-3.1069984-0.3283758c-0.4045715-0.0415974-0.7294846-0.4628649-1.1866837-0.2460642
		c-0.0133095-0.0248251-0.0259781-0.0499706-0.038269-0.0756216c0.1016388-0.7151356,0.6723213-0.3694019,1.0487366-0.4637117
		c0.2466125,0.0196247,0.4930115,0.0392542,0.7396889,0.0588226c0.2085533,0.2176361,0.4443932,0.3109274,0.733799,0.1624641
		C35.9684448,13.0217333,36.5893822,13.0998163,37.2103157,13.1779003z"/>
	<path style="fill:#5F2130;" d="M30.6625881,16.336525c0.4369717-0.1292992,0.8739452-0.2585964,1.3105259-0.3877668
		c-0.0844231,0.1827707-0.1684551,0.3654165-0.2524891,0.5480604c-0.1424847,0.0167847-0.2849731,0.0335693-0.4274902,0.0504799
		c-0.2644558,0.0046425-0.5288773,0.0091591-0.7933006,0.0136738C30.5540867,16.4861565,30.6083374,16.4113407,30.6625881,16.336525
		z"/>
	<path style="fill:#19115A;" d="M30.4998341,16.5609722c0.2644234-0.0045147,0.5288448-0.0090313,0.7933006-0.0136738
		c-0.2983742,0.1798306-0.578413,0.4549351-0.9635868,0.1859055c0.0204754-0.0522938,0.0410423-0.1046238,0.0620308-0.1570358
		C30.4268131,16.5629482,30.4627571,16.5579109,30.4998341,16.5609722z"/>
	<path style="fill:#EAE347;" d="M35.3475113,12.9436502c-0.2894058,0.1484632-0.5252457,0.055172-0.733799-0.1624641
		C34.8877335,12.7015514,35.1425743,12.7098103,35.3475113,12.9436502z"/>
	<path style="fill:#A6A41A;" d="M9.9374866,21.194788c-0.1232414-0.0547523-0.2464838-0.1095047-0.369626-0.1643276
		c0.0264368-0.6833591-0.145503-1.1552429-0.9807644-0.9198742C9.6791306,19.5161934,9.7892389,19.6045856,9.9374866,21.194788z"/>
	<path style="fill:#A2A5C7;" d="M42.793644,23.8228359c-0.1082878,0.0320473-0.2165756,0.0640945-0.3247566,0.0961113
		c-0.3159637,0.0010395-0.6320267,0.0021076-0.9480362,0.0031414c-0.3163567-0.1145134-0.674057-0.1045074-0.957756-0.3176575
		c0.1072197-0.649765,0.5915298-0.6861496,1.0914078-0.6393967c0.7195549,0.0672951,1.294178-0.213419,1.7575188-0.718771
		c0.2447395-0.2669334,0.4043999-0.7104568-0.0651054-0.840416c-1.0523567-0.2912865-2.1384773-0.4590683-3.2080612-0.690033
		c-1.0665627-0.2303123-2.1732903-0.0489368-3.2340698-0.32757c-0.0040092-0.2100544-0.0078468-0.420229-0.011692-0.6304054
		c-0.0004539-0.2644787-0.0009155-0.5289593-0.0013695-0.7934361c1.3419571,0.240654,2.6832809,0.5104465,4.0215874,0.7372017
		c1.6351128,0.2770424,2.8287163,1.0142288,3.7340279,2.3364449c-0.4773445,0.3214798-0.937397,0.6738396-1.4378586,0.9540157
		C42.8519707,23.1922112,42.7404366,23.449789,42.793644,23.8228359z"/>
	<path style="fill:#19115A;" d="M26.0345306,35.5957222c-0.1194706,0.0218582-0.2389393,0.0437241-0.3581772,0.0653954
		c-1.6265965-0.6721802-3.2562904-1.3373528-4.8793335-2.0183678c-1.2493095-0.5242004-2.4882565-1.086853-3.8633251-0.4157486
		c0.140707-0.3638687,0.4967003-0.5132217,0.754118-0.7609329c0.1244698-0.1197777,0.3443298-0.2226601,0.2319527-0.4377861
		c-0.1013527-0.1940193-0.3261089-0.1255817-0.4982662-0.1137829c-0.5172348,0.0354538-0.9727669,0.4025173-1.5201416,0.2895298
		c0.1661835-0.2516537,0.4632072-0.3032417,0.6948967-0.4545193c0.6008835,0.0239468,1.0026035-0.4963531,1.6398849-0.5109901
		c1.4609737-0.0335598,2.6059628,0.8219013,3.9109554,1.2104092c1.2682209,0.3775558,2.4108238,1.1053581,3.7117062,1.4106903
		c-0.3307514,0.5301476-0.7118587,0.0978088-1.0136681-0.0000305c-1.1314602-0.366806-2.2048931-0.9010582-3.3646011-1.1950569
		c-0.2268543-0.0575104-0.5009441-0.2194824-0.5497761,0.1702461c-0.0439491,0.3507996,0.2468414,0.3570747,0.4907246,0.3497276
		c0.2798462-0.0084305,0.4821396,0.1139145,0.7181282,0.2605553c1.1815243,0.7341652,2.4327393,1.333992,3.7505417,1.7882881
		c0.0569859,0.0769653,0.1139736,0.1539268,0.1708298,0.2308464C26.0277519,35.5031395,26.01898,35.5469971,26.0345306,35.5957222z"
		/>
	<path style="fill:#252290;" d="M25.8901501,35.2333488c-1.3178024-0.4542961-2.5690174-1.0541229-3.7505417-1.7882881
		c-0.2359886-0.1466408-0.438282-0.2689857-0.7181282-0.2605553c-0.2438831,0.0073471-0.5346737,0.0010719-0.4907246-0.3497276
		c0.0488319-0.3897285,0.3229218-0.2277565,0.5497761-0.1702461c1.159708,0.2939987,2.2331409,0.8282509,3.3646011,1.1950569
		c0.3018093,0.0978394,0.6829166,0.5301781,1.0136929-0.0002098c0.1638737-0.0869675,0.3277264-0.1736946,0.4915314-0.2604485
		c1.9003353-0.8010368,3.5653324-2.0100994,5.3177624-3.0675907c0.9127636-0.3803883,1.7034016-0.9772148,2.5654163-1.447546
		c0.0860138-0.0650692,0.1720276-0.1301384,0.2580414-0.1952076l0.0149269-0.009407
		c0.1257439,0.0169888,0.2237587-0.0252304,0.2897873-0.1357269l0.0474625-0.0283813
		c0.0897369-0.0088711,0.1797295-0.0177631,0.269722-0.0266552l0.0401154,0.0491524
		c-1.0172119,0.9324684-2.2525864,1.5313301-3.4248905,2.2235241c-1.8185444,1.0737629-3.6483707,2.1286716-5.4829445,3.1748676
		C25.7666054,34.4092026,25.6257248,34.7432365,25.8901501,35.2333488z"/>
	<path style="fill:#AC3442;" d="M34.2335358,29.0837936c-0.8620148,0.4703312-1.6526527,1.0671577-2.5654163,1.447546
		c-0.0192184-0.022295-0.0388565-0.0442142-0.0589123-0.0657368c0.1213245-0.3775024,0.2426472-0.7550182,0.3639717-1.1325359
		c0.3349037-0.0107288,0.5851288-0.2252846,0.848835-0.3826942c1.4628792-0.8732109,2.8876038-1.8108063,4.4036064-2.5939808
		c0.6463699-0.2904072,1.2300377-0.6795616,1.7761688-1.1278248l0.0036469,0.0072021
		c0.2247314-0.0036011,0.4494629-0.0072041,0.6741943-0.0108051c0.0889435,0.4334259-0.5204468,0.5390778-0.4519539,0.9629021
		c-0.015976,0.0367203-0.043972,0.0545177-0.0839005,0.0526981c-0.3543015-0.1189747-0.5848656-0.0427933-0.5955849,0.378624
		c-0.3535576,0.2274818-0.7071152,0.4549637-1.060173,0.6821442c-0.3858871-0.0637989-0.5599327,0.2053623-0.7366982,0.4702625
		l-0.006382,0.0061722c-0.1038055,0.0129013-0.207592,0.0258465-0.3111801,0.0384922
		c-0.236496-0.0619431-0.4498596-0.0801544-0.4738274,0.254282l-0.0513916,0.0348663
		c-0.1191444-0.0192318-0.2190132-0.000679-0.2602654,0.1327763l-0.0325127,0.0312061
		c-0.1249466-0.0248699-0.2349091-0.0140038-0.2916489,0.1228867l-0.0436172,0.0301323
		c-0.225029-0.0210819-0.4348984-0.0195484-0.4364891,0.2926407c0,0-0.0477142,0.0284023-0.0474701,0.0281696
		c-0.1254158-0.0164318-0.2346268,0.0024223-0.2900314,0.1359596l-0.0149193,0.0094166
		C34.3550911,28.8869305,34.2329178,28.9041939,34.2335358,29.0837936z"/>
	<path style="fill:#AC3442;" d="M42.793644,23.8228359c-0.0532074-0.3730469,0.0583267-0.6306248,0.4158363-0.8307705
		c0.5004616-0.2801762,0.9605141-0.6325359,1.4367714-0.9542599c0.6268883-0.1588707,1.2076721-0.4143372,1.7086563-0.8335323
		c0.6382179-0.2429714,1.2597046-0.515461,1.7617264-0.9986839c0.1955605,0.0262985,0.3916969,0.0608425,0.5781631-0.0410194
		c0.1279716,0.1049843,0.1811905,0.2446499,0.1882553,0.4057331c-0.2744179,0.1730385-0.5488167,0.3460751-0.8229179,0.5190411
		c-0.6962624,0.3507023-1.531292,0.4751263-1.9888382,1.2166576c-0.0286636,0.0119991-0.0561104,0.0263176-0.0821991,0.0427399
		c-0.6845856,0.0829735-1.2913589,0.3062267-1.6741905,0.9317837c-0.0265732,0.0299358-0.0568314,0.0555115-0.0901642,0.0757618
		c-0.236393-0.0848637-0.4492455-0.13064-0.3930054,0.2483826c-0.0245857,0.0237999-0.0534401,0.039999-0.0860291,0.0480995
		c-0.0849762-0.0417614-0.166523-0.0727921-0.1806717,0.0698357C43.3120384,23.7878094,43.0647011,23.8966122,42.793644,23.8228359z
		"/>
	<path style="fill:#A2A5C7;" d="M34.639782,30.4554253c-0.0133667,0.2498055,0.1045876,0.5722733-0.2817078,0.6410351
		c-1.0735397,0.1910915-1.7239952,1.1044559-2.6337452,1.5367336c-1.2240658,0.5816269-2.2615108,1.4664345-3.4924011,2.0073128
		c-0.5811253,0.2553596-0.94034,1.0198479-1.739439,0.7764931c0.873827-0.7920151,1.9519672-1.2686005,2.9426975-1.8756981
		C31.1544857,32.4877625,32.8274078,31.3528023,34.639782,30.4554253z"/>
	<path style="fill:#CDCEE6;" d="M41.5207939,23.922123c0.3160667-0.0010681,0.6321297-0.0021362,0.9480934-0.0031757
		c-0.6489258,0.4324074-1.1862411,1.0645981-2.0362816,1.1361942c0.0000648-0.0000629-0.0557709-0.0310917-0.0557709-0.0310917
		c-0.0430336-0.0486088-0.0860634-0.0972176-0.129097-0.1458282c-0.0548592-0.0002918-0.1097221-0.0005875-0.1645241-0.0008926
		c0.0431557-0.2869606-0.4751854-0.4268303-0.2189255-0.7524052c0.2602158-0.3306103,0.6014252-0.1963844,0.9310417-0.1041718
		C41.0452385,24.0906696,41.306488,24.1544704,41.5207939,23.922123z"/>
	<path style="fill:#252290;" d="M46.0712967,22.3060017c0.4575462-0.7415314,1.2925758-0.8659554,1.9888382-1.2166576
		C47.6132317,21.8483982,46.8408012,22.0748043,46.0712967,22.3060017z"/>
	<path style="fill:#887A7C;" d="M39.2276764,26.1878662c-0.0684929-0.4238243,0.5408974-0.5294762,0.4510269-0.9628811
		c0.1728477,0.0517063,0.3466148,0.1033878,0.5203896,0.1550713C40.0810623,25.8967762,39.6646538,26.0546932,39.2276764,26.1878662
		z"/>
	<path style="fill:#928C99;" d="M44.3149071,23.2805252c0.3828316-0.6255569,0.9896049-0.8488102,1.6741905-0.9317837
		C45.4912758,22.7679157,44.9501724,23.1088295,44.3149071,23.2805252z"/>
	<path style="fill:#E5E8F2;" d="M40.1990929,25.3800564c-0.1737747-0.0516834-0.3475418-0.1033649-0.5203896-0.1550713
		c-0.2238045,0.0035801-0.4485359,0.0071831-0.673275,0.0107059c0.2462883-0.4592628,0.6864433-0.3353062,1.0777283-0.3583488
		c0.0548592,0.0002918,0.1097221,0.0005875,0.1645775,0.0008602c0.0430298,0.0486031,0.0860634,0.0972271,0.1291008,0.1458473
		c0,0,0.0558357,0.0310287,0.0557709,0.0310917C40.4217415,25.211647,40.4147644,25.3708401,40.1990929,25.3800564z"/>
	<path style="fill:#252290;" d="M36.7513199,27.771595c0.1767654-0.2649002,0.350811-0.5340614,0.7366982-0.4702625
		C37.4242668,27.7436256,37.0803337,27.745924,36.7513199,27.771595z"/>
	<path style="fill:#887A7C;" d="M38.5481911,26.6191902c0.0107193-0.4214191,0.2412834-0.4976006,0.5955849-0.3786259
		C39.0352287,26.5091171,38.8174744,26.6047478,38.5481911,26.6191902z"/>
	<path style="fill:#A2A5C7;" d="M26.0345306,35.5957222c-0.0155506-0.0487251-0.0067787-0.0925827,0.0264492-0.1315269
		c0.1422615-0.0150833,0.2843914-0.0302124,0.4264469-0.045372C26.4708042,35.8217163,26.2513313,35.7052956,26.0345306,35.5957222z
		"/>
	<path style="fill:#928C99;" d="M43.8317375,23.6046696c-0.0562401-0.3790226,0.1566124-0.3332462,0.3930054-0.2483826
		C44.1366577,23.5084381,44.0002213,23.5819683,43.8317375,23.6046696z"/>
	<path style="fill:#252290;" d="M36.4335594,27.8165569c0.1037865-0.0129433,0.2075729-0.0258884,0.3113785-0.0387897
		c-0.0306587,0.2944202-0.2564392,0.3011684-0.4732857,0.321085l-0.0479164-0.060358
		C36.2936783,27.9645138,36.3636169,27.8905373,36.4335594,27.8165569z"/>
	<path style="fill:#252290;" d="M36.2716522,28.0988522c-0.134491,0.2417603-0.3555145,0.3230953-0.6155777,0.332058
		l-0.0508537-0.0445614c0.0173836-0.0376396,0.0209007-0.0765324,0.0105515-0.1166821l0.032177-0.031496
		c0.1156883,0.0128155,0.2071037-0.0227013,0.2605896-0.1327629l0.0511665-0.0348148
		c0.0878563-0.0106659,0.1759453-0.0213814,0.2640305-0.0320988L36.2716522,28.0988522z"/>
	<path style="fill:#252290;" d="M35.6560745,28.4309101c-0.0756416,0.2530746-0.283741,0.2886581-0.5026474,0.3064423
		l-0.0399323-0.0488739c0.0556831-0.0886459,0.1113396-0.1773586,0.1669998-0.2660694c0,0,0.0436172-0.0301323,0.0433121-0.0300846
		c0.0936012-0.0019588,0.1875076-0.0039692,0.281414-0.0059757L35.6560745,28.4309101z"/>
	<path style="fill:#928C99;" d="M43.5650368,23.7226048c0.0141487-0.1426277,0.0956955-0.1115971,0.1806717-0.0698357
		C43.6851234,23.6763763,43.6250839,23.6994915,43.5650368,23.7226048z"/>
	<path style="fill:#887A7C;" d="M45.5978279,15.288537c0.796093,0.3473949,1.6455574,0.3004799,2.483902,0.3360205
		c0.2715874,0.0517588,0.5419579,0.1110764,0.8149338,0.1537304c0.3325768,0.0519695,0.2790337,0.2178698,0.1370316,0.4186707
		c-0.1610603,0.0834312-0.4584923,0.0087357-0.4013062,0.3458004c-0.1284752,0.1182156-0.2565193,0.2363548-0.3845711,0.3544922
		c-0.1241875-0.0864544-0.2449608-0.1784019-0.3733521-0.2580853c-0.1961555-0.1217346-0.2139626-0.7539768-0.6172485-0.2710209
		c-0.3000565,0.3593388-0.1033554,0.6966324,0.2618523,0.9158211c0.1785965,0.1071892,0.3808899,0.1749058,0.5724525,0.2604904
		c0.1719971,0.2274551,0.1956749,0.4806194,0.1298714,0.7492924c-0.8269882,0.0412731-1.6135139-0.2215252-2.4207802-0.3285923
		c-0.3443375-0.0456657-0.4351425-0.2935753-0.4273643-0.6361141C45.3888779,16.6404743,45.4279823,15.9584112,45.5978279,15.288537
		z"/>
	<path style="fill:#A6A41A;" d="M48.2213936,18.2937489c0.0658035-0.2686729,0.0421257-0.5218372-0.1299782-0.7494583
		c0.052063-0.2157879,0.1042328-0.4314137,0.1564026-0.6470375c0.1280518-0.1181393,0.2560959-0.2362785,0.3845711-0.3544941
		c0.2569618,0.0219421,0.5449677-0.0438728,0.4661865,0.4136963c-0.1829567,1.0626583-0.1508942,2.1539116-0.4034348,3.2087269
		c-0.1868095,0.1012497-0.382946,0.0667057-0.5788002,0.0405636c-0.065609-0.0739841-0.1309166-0.1481228-0.1962318-0.2222595
		c0.3363914-0.3248539,0.3504486-0.7364655,0.3127556-1.1620045C48.2290421,18.6455708,48.2252159,18.4696598,48.2213936,18.2937489
		z"/>
	<path style="fill:#E5E8F2;" d="M50.7429581,19.104372c-0.0296745,0.0076141-0.0589638,0.0164909-0.0877914,0.0266247
		c-0.0113411-0.0278969-0.0231171-0.0556393-0.0350571-0.0830765c0.0001945-0.2941341,0.0001945-0.5884209,0.0001945-0.9908352
		c-0.252533,0.2912846-0.436718,0.660717-0.5834503,0.6464005c-0.7179489-0.0700531-0.4819641,0.4095936-0.5012817,0.7515049
		l-0.0039711-0.0053253c-0.0495529,0.0380077-0.0990982,0.0760136-0.1486473,0.1140194l-0.0202293,0.0610905
		c-0.3459129-0.8934765,0.1457825-1.7145214,0.2350655-2.5697975c0.0164413-0.1575432,0.2383232-0.1700783,0.4001274-0.1587505
		c0.0668373,0.3259068,0.3171539,0.4480438,0.6010132,0.5043736c0.0432587,0.008585,0.1515503-0.1368084,0.1731453-0.2248688
		c0.0692711-0.2824116-0.071888-0.4398575-0.3467331-0.4918575c0.4028893-0.4821091,0.521534-0.2275887,0.4979515,0.213604
		C50.8839226,17.6342182,50.8051491,18.3688507,50.7429581,19.104372z"/>
	<path style="fill:#5F2130;" d="M49.0336952,16.1969585c0.1420021-0.2008009,0.1955452-0.3667011-0.1370316-0.4186707
		c-0.2729759-0.042654-0.5433464-0.1019716-0.8149338-0.1537304c0.6722946-0.141408,1.3289833-0.0022831,1.9865189,0.1112366
		C49.7506828,15.9517126,49.4470482,16.1973801,49.0336952,16.1969585z"/>
	<path style="fill:#ECEFF8;" d="M50.4253426,16.6838741c0.2748451,0.052,0.4160042,0.209446,0.3467331,0.4918575
		c-0.021595,0.0880604-0.1298866,0.2334538-0.1731453,0.2248688c-0.2838593-0.0563297-0.5341759-0.1784668-0.6010132-0.5043755
		C50.1403694,16.8254852,50.282856,16.7546787,50.4253426,16.6838741z"/>
	<path style="fill:#AC3442;" d="M50.5328255,19.1257706c-0.187561,0.5401382-0.7063828,0.6240673-1.1388168,0.82728
		c-0.0103111-0.1092434-0.020649-0.2188396-0.0311394-0.3283539c0,0,0.0200844-0.0610104,0.0197792-0.0608959
		c0.0494499-0.0379677,0.0992012-0.0760498,0.1489525-0.1141338l0.0039063,0.0053139
		C49.91436,19.4859715,50.1379776,19.0464954,50.5328255,19.1257706z"/>
	<path style="fill:#ECEFF8;" d="M50.5328255,19.1257706c-0.3948479-0.0792751-0.6184654,0.3602009-0.9973183,0.3292103
		c0.0193825-0.3419018-0.2166023-0.8215485,0.5013466-0.7514954c0.1467323,0.0143166,0.3309174-0.3551159,0.5834503-0.6464005
		c0,0.4024143,0,0.696701-0.0001945,0.9908352C50.584137,19.0662365,50.5551071,19.0922375,50.5328255,19.1257706z"/>
	<path style="fill:#252290;" d="M16.3003864,33.561615c-0.3239708,0.3883972-0.9028168,0.341938-1.2311239,0.7217178
		c-0.1893663,0.0810661-0.3793316,0.1623306-0.5695133,0.2437248c-0.0576677-0.0201073-0.115118-0.0403481-0.1727762-0.0605583
		c-1.3857412-0.9846497-2.9982281-1.5098228-4.5158091-2.2266808c-1.048934-0.4954834-2.1038361-0.9786148-3.1620622-1.4539242
		c-0.243485-0.1093636-0.5235472-0.3467884-0.7490196,0.0443382c-0.616888,0.0324917-0.570363-0.8010788-1.1188064-0.8574715
		c-0.1198235-0.3786125,0.0417199-0.6592274,0.3140903-0.901453c0.0967951-0.0030518,0.1934848-0.0059204,0.290174-0.0087929
		c0.1597619,0.0993958,0.3195248,0.1987877,0.4792876,0.2981815c0.3830519,0.4429359,0.8652248,0.6565609,1.4522042,0.6277218
		l-0.0013132-0.0009289c1.1590281,0.8489933,2.4778786,1.3492031,3.8382492,1.7588024l-0.0006819-0.000309
		c0.8886757,0.6500778,1.9134159,1.0336761,2.9045076,1.4831657c-0.0273943,0.2365913-0.310647,0.490593,0.0417156,0.7017059
		c0.2559156,0.1533241,0.4959183,0.2671318,0.8081551,0.0671005c0.4396238-0.2816429,0.9133034-0.510128,1.3724222-0.7613449
		C16.2868538,33.3449478,16.2936211,33.4532814,16.3003864,33.561615z"/>
	<path style="fill:#AC3442;" d="M5.8648276,29.3606968c-0.1597629-0.0993938-0.3195257-0.1987858-0.479207-0.2983837
		c-0.0245609-0.1526871-0.1319418-0.2059097-0.268527-0.2240963c-0.0234141-0.0270443-0.0428176-0.0567131-0.0582237-0.0892143
		c-0.0424948-0.3941402,0.4221725-0.1713371,0.5037184-0.4144402c0.2800484-0.027668,0.5600963-0.0553379,0.8398037-0.0830421
		c0.5714989,0.4417553,1.2602563,0.6495266,1.9107394,0.9237652c1.6966658,0.715313,3.3513365,1.5332432,5.1031389,2.1145172
		l0.0509272-0.0158863c0.080308,0.0489655,0.1606159,0.0979309,0.2409239,0.1468964
		c0.0055399,0.1939125,0.0804358,0.3197384,0.2990131,0.3048439c0.0257101,0.3751812,0.1837349,0.496748,0.5608101,0.3509731
		c0.4320259-0.1670132,0.7919655-0.3883514,0.9491568-0.8495331c0.2070103,0.0202198,0.4076138,0.0293236,0.6113548-0.0559845
		c0.1993351-0.0834675,0.4062119-0.3186989,0.6336918-0.0888214c0.2885475,0.2915764-0.2458839,0.4090481-0.1657658,0.6672039
		c-0.2318172,0.1512928-0.528841,0.2028809-0.6948729,0.4546833c-0.051506,0.0511169-0.1031618,0.1020813-0.1545019,0.1529617
		c-0.4246826,0.1693344-0.7960682,0.4674301-1.2665367,0.5277023c-0.296998,0.0135803-0.5601778-0.0840988-0.8367805-0.1907654
		c-0.8286133-0.3195381-1.5647659-0.8856792-2.4904137-0.9480934l0.0006952,0.0003109
		c-1.1643372-0.8374043-2.4703894-1.365551-3.838253-1.7588043l0.0013185,0.0009308
		C6.9190807,29.5799694,6.4231963,29.398056,5.8648276,29.3606968z"/>
	<path style="fill:#887A7C;" d="M5.1170936,28.8382168c0.1365852,0.0181866,0.2439661,0.0714092,0.268527,0.2240963
		c-0.0967698,0.0030746-0.1934595,0.0059433-0.2902546,0.0089951C5.1025372,28.9937325,5.1098156,28.9159756,5.1170936,28.8382168z"
		/>
	<path style="fill:#5F2130;" d="M7.4326267,23.7768803c0.0828376,0.3294849-0.0634608,0.5609684-0.3189368,0.7456627
		c-0.5989242-0.3126373-0.854754-0.7735615-0.6420226-1.4970284c0.3901663,0.079422,0.4748526,0.4147682,0.6245375,0.6564903
		C7.2021341,23.8530655,7.2674623,23.9256954,7.4326267,23.7768803z"/>
	<path style="fill:#A2A5C7;" d="M13.4165716,31.2899742c-1.7521038-0.5814457-3.4067745-1.3993759-5.1034403-2.1146889
		c-0.6504831-0.2742386-1.3392406-0.4820099-1.9107399-0.9237652c0.5344687-1.0664082,1.0685968-2.1328526,1.6024513-3.1994534
		c0.0451117-0.051899,0.090498-0.1036415,0.1358843-0.1553841c0.0203133-0.02384,0.0456953-0.0320969,0.0766592-0.024847
		c0.3378172-0.2620811,0.5069437-0.6058712,0.5031567-1.0337448c0.0097218-0.0732632,0.0194426-0.1465263,0.0292311-0.2200451
		c0.6487436-0.3575611,1.405261-0.630518,2.0154743-0.1850414c0.9050035,0.6606808,1.9168472,0.7881851,2.9444656,0.9616718
		c0.0521383,0.0884838,0.1047077,0.0933113,0.1577816,0.0008278c0.7772913,0.1760788,1.4431009,0.6386204,2.1836596,0.8760567
		c0.4459858,0.1429901,0.4130192,0.2607784,0.267519,0.5741768c-0.3725653,0.8024921-0.7691202,1.5994854-1.1242657,2.4023609
		c-0.4600849,1.0401115-0.8125401,2.0948124-1.8159084,2.7605419
		C13.3441095,31.0314579,13.4018002,31.1930599,13.4165716,31.2899742z"/>
	<path style="fill:#928C99;" d="M13.7097139,24.3946629c-1.0276184-0.1734734-2.0394621-0.3009777-2.9444656-0.9616585
		c-0.6102133-0.4454765-1.3667307-0.1725197-2.0154743,0.1850414c0.1312485-0.3686714,0.2625647-0.7376003,0.3933687-1.1068878
		c0.3374796-0.1007652,0.6153164,0.1015091,0.908721,0.1954041c2.2335615,0.7147751,4.424736,1.5593739,6.6881685,2.1830425
		l-0.0037861-0.0065479c0.0991898,0.0643291,0.1983852,0.1286564,0.2975807,0.1929836
		c-0.0051517,0.1290741,0.0296879,0.2771912-0.0213661,0.384407c-0.9957962,2.0911636-2.0016069,4.1775589-3.0053673,6.2649307
		c-0.2185364,0.015173-0.2934322-0.1106529-0.2989416-0.3045292c-0.0802984-0.0489521-0.1606264-0.0979424-0.2409544-0.1469326
		l-0.0509272,0.0158863c-0.0144701-0.0967426-0.0721607-0.2583447-0.0377703-0.2811623
		c1.0033684-0.6657295,1.3558235-1.7204304,1.8159084-2.7605419c0.3551455-0.8028755,0.7517004-1.5998688,1.1242657-2.4023609
		c0.1455002-0.3133984,0.1784668-0.4311867-0.267519-0.5741768c-0.7405586-0.2374363-1.4063683-0.6999779-2.1836596-0.8760567
		l0.0026598,0.0025024c-0.0557089-0.0870876-0.1107759-0.089922-0.1651239,0.0012608L13.7097139,24.3946629z"/>
	<path style="fill:#5F2130;" d="M16.7400322,24.8896046c-2.2634325-0.6236687-4.454607-1.4682674-6.6881685-2.1830425
		c-0.2934046-0.093895-0.5712414-0.2961693-0.9087219-0.1954041c-0.0273466-0.1690941-0.0552053-0.3385429-0.0830564-0.5079651
		c0.795743-0.0233383,1.343812,0.5992737,2.0984755,0.7723007c1.7448854,0.4000587,3.3705435,1.2222538,5.1176329,1.6553268
		C16.4984131,24.4859009,16.744236,24.5771561,16.7400322,24.8896046z"/>
	<path style="fill:#928C99;" d="M8.7205429,23.8380909c0.003787,0.4278736-0.1653395,0.7716637-0.5031567,1.0337448
		C8.2692652,24.4710312,8.3007765,24.0599804,8.7205429,23.8380909z"/>
	<path style="fill:#928C99;" d="M8.140727,24.8966827c-0.0453863,0.0517426-0.0907726,0.1034851-0.1358843,0.1553841
		C7.9987984,24.9554558,8.0459833,24.9053364,8.140727,24.8966827z"/>
	<path style="fill:#BBBAD5;" d="M24.6191483,19.6575756c0.0973206,0.00634,0.1946392,0.0126781,0.2919216,0.0189342
		c0.1070786,0.1084843,0.211256,0.09058,0.3135757-0.0073643c0.0071468-0.034708,0.0071621-0.069418-0.0001259-0.1039505
		c0.3694458-0.0973492,0.7390633-0.1948833,1.1086864-0.2924175c0.7263622,0.2044754,1.3289967,0.1337395,1.6701298-0.2002735
		c-0.1498871-0.1492157-0.5011349,0.1830711-0.5396271-0.2219925c0.2565136-0.0875359,0.5130253-0.1750698,0.7695408-0.2626057
		c0.0865364,0.4623966,0.3078003,0.2915745,0.6269321,0.2088833c0.6023903-0.1560879,1.2892208-0.6479111,1.810154,0.1794624
		c-0.0541134,0.0533066-0.1081161,0.1067448-0.1621189,0.160183c-0.3192711-0.0065365-0.5555038,0.1992188-0.8240623,0.3223286
		c-2.3167763,0.5347061-4.3056755,2.0935612-6.8284931,2.0650749c-0.8221645-0.0092831-1.6524391,0.526619-2.474268,0.8261719
		c-0.1427174,0.0520248-0.3777561,0.1749287-0.3736897,0.2551289c0.0388622,0.7662144-0.6706848,0.6926804-1.0536499,0.9785748
		c-0.2405205,0.012928-0.4966965-0.0254135-0.670845,0.2048607c-0.8349247-0.0967808-1.5931168-0.4586601-2.3885498-0.6913033
		c0.1209354-0.3283424,0.4435005-0.3347454,0.7034512-0.4462299c1.0585289-0.4539719,2.2305851-0.6160107,3.2180061-1.2521114
		c0,0,0.0184231,0.0228786,0.0179672,0.0223179c1.2778034-0.2583618,2.4670906-0.79072,3.6889725-1.2187233
		C23.9003334,20.0703697,24.3920631,20.1108246,24.6191483,19.6575756z"/>
	<path style="fill:#A6A41A;" d="M18.2094231,25.3699799c0.26478,0.0063953,0.5076656-0.0339966,0.644165-0.3017406
		c0.0919361,0.1303005,0.1839981,0.2608662,0.2765026,0.391655c0.1121578,0.3437061,0.3482914,0.4698772,0.688736,0.6300278
		c0.8828106,0.4152851,1.8554516,0.5310078,2.7348671,0.9740353c0.6649952,0.3350105,1.439064,0.6322651,2.2478085,0.3439064
		c0.1937466-0.0005436,0.3797646,0.0233326,0.5278625,0.167038c0.123148,0.2257938,0.3384438,0.4452457,0.3544979,0.6784134
		c0.1045227,1.5181007,0.2359314,3.0365124,0.1713047,4.5619011c-0.0120945,0.2854691-0.2122478,0.4029617-0.3967991,0.5468216
		c-0.5374832-0.0664215-0.2898502-0.5448799-0.4301968-0.8197174c0.0091801-1.1126595,0.0144596-2.2253723,0.0298176-3.3379459
		c0.0048695-0.3529282-0.1105213-0.641573-0.4443054-0.7700043c-0.4890976-0.1881943-0.9935436-0.3364906-1.4914494-0.5017872
		c-0.2486-0.0861816-0.4916115-0.1988392-0.7662315-0.161768c-1.098938-0.7247429-2.3502636-1.0612507-3.5961838-1.4115257
		c-0.2983742-0.1406193-0.6021233-0.2767181-0.5786972-0.6880093
		C18.1905556,25.5708466,18.1999893,25.4704132,18.2094231,25.3699799z"/>
	<path style="fill:#EAE347;" d="M18.2094231,25.3699799c-0.0094337,0.1004333-0.0188675,0.2008667-0.0282688,0.3013077
		c-0.4832859,0.3272209-0.6129627,0.8298244-0.6769333,1.3650131c-0.5829697,0.683033-0.9220753,1.4887657-1.1760254,2.3373451
		c-0.2028923,0.4026394-0.4884691,0.7809944-0.3749523,1.2765713c-0.1453133,0.1921616-0.2906265,0.384325-0.4359388,0.5764866
		c-0.1573944,0.4615746-0.517334,0.6829128-0.9493599,0.849926c-0.3770752,0.1457748-0.5351,0.0242081-0.5608101-0.3509731
		c1.0037193-2.0876503,2.0095301-4.1740456,3.0053263-6.2652092c0.051054-0.1072159,0.0162144-0.2553329,0.0215263-0.3849125
		c0.0146561-0.0667381,0.0291538-0.1329727,0.0436516-0.1992073C17.6588058,24.573391,17.9896259,24.8444157,18.2094231,25.3699799z
		"/>
	<path style="fill:#252290;" d="M19.8161163,21.3989296c-0.987421,0.6361008-2.1594772,0.7981396-3.2180061,1.2521114
		c-0.2599506,0.1114845-0.5825157,0.1178875-0.7034512,0.4462299c-0.5885191-0.2264614-1.3168259-0.1300411-1.7980423-0.8542824
		c1.9297371-0.656868,3.8349972-1.3054028,5.7392769-1.9535046c0.1080627,0.738842-0.5422668,0.65168-0.8943348,0.7066212
		c-1.3994179,0.2183857-2.6361103,0.8989086-4.0329323,1.2495499c0.5828114,0.4443512,0.5878601,0.4596786,1.1411018,0.2774563
		c0.9776993-0.3220196,1.9514904-0.6566105,2.9204674-1.0039444C19.2498779,21.4189129,19.5166645,21.3189087,19.8161163,21.3989296
		z"/>
	<path style="fill:#CDCEE6;" d="M19.1296501,25.4596691c-0.0920639-0.1305637-0.1841259-0.2611294-0.276062-0.3914299
		c-0.2055454-0.361887,0.3503246-0.9620476-0.3639011-1.1651478c-0.0529003-0.0288048-0.1060238-0.0576344-0.1591454-0.0864658
		c0,0-0.0466537-0.0277271-0.0469933-0.0278893c0.1738091-0.2304363,0.429985-0.1920948,0.6708412-0.2049313
		c0.1928635,0.3107967,0.4877682,0.5746288,0.4958305,0.9729118c0.0114155,0.5638351,0.3252888,0.7256279,0.8435459,0.8359089
		c0.4486961,0.0954781,1.0134239,0.131197,1.2425385,0.6867561c-0.7319183-0.2081947-1.4638386-0.4163914-2.1957588-0.6245842
		c-0.0320282-0.0009041-0.0613689,0.0097122-0.088026,0.0318527C19.2202053,25.438282,19.1792488,25.4292908,19.1296501,25.4596691z
		"/>
	<path style="fill:#5F2130;" d="M17.0776386,24.8763275c-0.0144978,0.0662346-0.0289955,0.1324692-0.0436516,0.1992073
		c-0.0993557-0.0638218-0.1985512-0.128149-0.2977409-0.1924782C16.8500462,24.8808098,16.9638424,24.8785686,17.0776386,24.8763275
		z"/>
	<path style="fill:#BBBAD5;" d="M18.3305416,23.8166256c0.0531216,0.0288315,0.106245,0.0576611,0.1591454,0.0864658
		C18.4364891,23.8742504,18.3835163,23.845438,18.3305416,23.8166256z"/>
	<path style="fill:#A2A5C7;" d="M30.6704464,18.9763813c-0.5210438-0.8275032-1.2078743-0.33568-1.8102646-0.1795921
		c-0.3191319,0.0826912-0.5403957,0.2535133-0.6268215-0.2087879c0.0160656-0.0770149,0.0320225-0.1541233,0.0479794-0.2312336
		c0.6304398,0.0147629,1.1557884-0.3098621,1.7130623-0.5305138c0.3092747,0.101059,0.550602-0.1347618,0.8327332-0.1687126
		c0.0537701,0.0165844,0.1076145,0.0331821,0.1612167,0.0497875c0.0220852,0.1941032,0.109972,0.246254,0.3140984,0.2103043
		c0.4163818-0.0733318,0.6952038,0.1113167,0.8094425,0.5262032c-0.1149654,0.1059742-0.2299347,0.2119484-0.3448277,0.318367
		C31.4015751,18.8338928,31.0360088,18.905138,30.6704464,18.9763813z"/>
	<path style="fill:#252290;" d="M24.6191483,19.6575756c-0.2270851,0.453249-0.7188148,0.4127941-1.0960922,0.5449486
		c-1.2218819,0.4280033-2.4111691,0.9603615-3.6889725,1.2187233c-0.0265636-0.1357574-0.0249214-0.2982559,0.1195984-0.3335857
		c1.4471016-0.3537464,2.8174114-0.9237499,4.2015038-1.457304C24.2867851,19.5796242,24.4634209,19.6457176,24.6191483,19.6575756z
		"/>
	<path style="fill:#252290;" d="M28.2813396,18.3567677c-0.0159569,0.0771103-0.0319138,0.1542187-0.0479794,0.2312336
		c-0.2566261,0.0874405-0.5131378,0.1749744-0.7696018,0.2624779c-0.3679276,0.0981369-0.7359066,0.19631-1.1038876,0.2944851
		l-0.0117168-0.0125713C26.8956661,18.6323795,27.5990028,18.5207424,28.2813396,18.3567677z"/>
	<path style="fill:#252290;" d="M26.3332062,19.2727776c-0.3696232,0.0975342-0.7392406,0.1950684-1.1086864,0.2924175
		c0.2476044-0.4741573,0.6964226-0.4253731,1.1235828-0.432869l0.011755,0.0126057
		C26.3417168,19.1856022,26.33284,19.2282276,26.3332062,19.2727776z"/>
	<path style="fill:#A2A5C7;" d="M25.2246456,19.6691456c-0.1023197,0.0979443-0.2064972,0.1158485-0.3135757,0.0073643
		C25.0156212,19.6741085,25.1201324,19.671627,25.2246456,19.6691456z"/>
	<path style="fill:#19115A;" d="M30.9885941,17.7073212c-0.0538445-0.0165977-0.1076889-0.0331955-0.161459-0.0497799
		c0.131567-0.4232998,0.5643864-0.5162582,0.8603649-0.749918c0.2181282-0.172205,0.2217484-0.2549477,0.0333748-0.4102497
		c0.0837841-0.1831989,0.1678162-0.3658447,0.2522392-0.5486155c0.1033783-0.1340923,0.2363396-0.2118273,0.4079742-0.2173223
		c0.1909065,0.0528231,0.3234863-0.085001,0.4794312-0.1462393c1.4155006,0.06849,2.7433968,0.6448164,4.1582069,0.7173185
		c-0.0571632,0.4604969,0.2900696,0.8112564,0.3374329,1.2432327c-0.2287331,0.1523571-0.4657021,0.2044888-0.7454834,0.1380749
		c-0.6153336-0.1460667-1.2321396-0.2988071-1.8569679-0.389143c-1.0209312-0.147604-2.0638046-0.544733-3.0475693,0.1470604
		C31.4159279,17.3923988,31.2428761,17.6595917,30.9885941,17.7073212z"/>
	<path style="fill:#887A7C;" d="M31.7061386,17.44174c0.9837646-0.6917934,2.026638-0.2946644,3.0475693-0.1470604
		c0.6248283,0.0903358,1.2416344,0.2430763,1.8569679,0.389143c0.2797813,0.0664139,0.5167503,0.0142822,0.7454834-0.1380749
		l0.0012741-0.0112915c0.1075897,0.259964,0.3298302,0.3797359,0.5754204,0.3125038
		c0.6103783-0.167099,1.2065086,0.0138035,1.8064537,0.0332336c1.5318031,0.0496082,2.9959335,0.5184231,4.4924965,0.7893982
		c0.0345612,0.1025753,0.0691185,0.2051506,0.1040688,0.3077526c0.2471962,0.3642292,0.6132278,0.4523907,1.0276909,0.5091343
		c0.8600388,0.1177464,1.7240295,0.2310848,2.5565453,0.4970074c0.0653152,0.0741367,0.1306229,0.1482754,0.1962318,0.2222595
		c-0.5017281,0.4830666-1.1232147,0.7555561-1.7616577,0.9985828c-0.5690689-0.2555637-1.2625275-0.385458-1.677269-0.7965527
		c-0.6077728-0.6024303-1.3542099-0.7373352-2.074852-1.0082741c-0.9253616-0.347908-1.9257927-0.6073284-2.8627701-0.5423737
		c-1.0027657,0.0695171-1.858448-0.3555584-2.7501106-0.5294342C35.2342072,17.9853764,33.4916382,17.602272,31.7061386,17.44174z"
		/>
	<path style="fill:#19115A;" d="M44.2317963,18.6695919c-1.4965553-0.2709751-2.9606857-0.73979-4.4924889-0.7893982
		c-0.5999451-0.0194302-1.1960754-0.2003326-1.8064537-0.0332336c-0.2455902,0.0672321-0.4678307-0.0525398-0.5754204-0.3125038
		c0.4089661-0.2002697,0.652668-0.5309696,0.7425385-0.9713211c0.1539001-0.7540207,0.6686287-0.8892298,1.3179092-0.7614956
		c1.3702164,0.2695694,2.7313881,0.5913982,4.10849,0.8173485c0.8133392,0.1334496,0.9965057,0.5532608,0.8330421,1.2711983
		C44.301075,18.1463909,44.2734451,18.409586,44.2317963,18.6695919z"/>
	<path style="fill:#887A7C;" d="M37.0187263,16.302515c-1.4148102-0.0725021-2.7427063-0.6488285-4.1579018-0.7173262
		c-0.2279778-0.647768,0.2025452-1.3030396-0.0219421-1.9508419c0.0082436-0.1244574,0.0164871-0.2489157,0.0247002-0.3730125
		c0.4571724-0.2164383,0.7820854,0.2048292,1.186657,0.2464266c1.0360641,0.1065273,2.0715485,0.218627,3.1070023,0.3283758
		C36.9912605,14.6514769,37.3603668,15.4969149,37.0187263,16.302515z"/>
	<path style="fill:#19115A;" d="M47.9201088,19.9834862c-0.8325157-0.2659225-1.6965065-0.379261-2.5565453-0.4970074
		c-0.414463-0.0567436-0.7804947-0.1449051-1.0276909-0.5091343c1.2592049-1.0384045,2.5840073-0.4499512,3.8969994-0.1560612
		C48.2705574,19.2470207,48.2565002,19.6586323,47.9201088,19.9834862z"/>
	<path style="fill:#928C99;" d="M32.8388824,13.634347c0.2244873,0.6478024-0.2060356,1.3030739,0.0219421,1.9508419
		c-0.15625,0.0612459-0.2888298,0.19907-0.4797363,0.1462469c-0.2133064-0.2155476-0.414753-0.4295998-0.1339073-0.7387037
		C32.5969353,14.6077785,32.4263992,13.9937029,32.8388824,13.634347z"/>
	<path style="fill:#BBBAD5;" d="M36.904953,20.3881207c1.0606117,0.2787571,2.1673393,0.0973816,3.233902,0.3276939
		c1.0695839,0.2309647,2.1557045,0.3987465,3.2080612,0.690033c0.4695053,0.1299591,0.309845,0.5734825,0.0651054,0.840416
		c-0.4633408,0.505352-1.0379639,0.7860661-1.7575188,0.718771c-0.4998779-0.0467529-0.9841881-0.0103683-1.0913734,0.6393356
		c-0.6907272-0.0991116-1.3411522-0.441328-2.0648308-0.3423862c-0.310833-0.1224651-0.6120682-0.2937546-0.9344444-0.3566246
		c-0.5297127-0.1033058-0.7761612-0.3610268-0.6755333-0.9066334C37.2960205,21.4660091,36.8635406,20.9246197,36.904953,20.3881207
		z"/>
	<path style="fill:#E2E7F4;" d="M38.4983978,23.2618561c0.7235794-0.098814,1.3740044,0.2434025,2.0647316,0.342514
		c0.2836647,0.2132111,0.6413651,0.2032051,0.9577217,0.3177185c-0.2143631,0.2323818-0.4756126,0.168581-0.7255211,0.0986633
		c-0.3296165-0.0922127-0.670826-0.2264385-0.9310417,0.1041718c-0.2562599,0.3255749,0.2620811,0.4654446,0.2189255,0.7524052
		c-0.3913422,0.023056-0.8314972-0.1009007-1.0777855,0.3583622c0,0-0.0036392-0.0071239-0.0037994-0.0072708
		c-0.8625526-0.1182327-1.343647,0.5573139-1.9638557,0.943306c-1.4011536,0.7173939-2.850708,1.3460026-4.1368675,2.2740669
		c-0.187252,0.1351242-0.3957062,0.3180656-0.6479683,0.1963577c-0.2405586-0.1160641-0.1521072-0.37323-0.1553955-0.5733433
		c-0.0104599-0.6370125-0.0038567-1.2743015-0.003849-1.9114838c1.1415482,0.1967735,2.1914635-0.4111843,3.3288078-0.3601246
		c1.1231194,0.0504227,1.435833-1.3172741,2.4401894-1.539959c0.0428543-0.0095043,0.1053505-0.1560326,0.0829124-0.2004204
		C37.6341324,23.4405899,38.2659187,23.4908848,38.4983978,23.2618561z"/>
	<path style="fill:#928C99;" d="M31.7061386,17.44174c1.7854996,0.160532,3.5280685,0.5436363,5.2835426,0.8859539
		c0.8916626,0.1738758,1.747345,0.5989513,2.7501106,0.5294342c0.9369774-0.0649548,1.9374084,0.1944656,2.8627701,0.5423737
		c0.7206421,0.2709389,1.4670792,0.4058437,2.074852,1.0082741c0.4147415,0.4110947,1.1082001,0.5409889,1.677269,0.7965527
		c-0.5007591,0.4191399-1.081543,0.6746063-1.7084312,0.833477c-0.9042244-1.3219719-2.0978279-2.0591583-3.7329407-2.3362007
		c-1.3383064-0.2267551-2.6796303-0.4965477-4.0216064-0.7372417c-0.4124222-0.0783291-0.821804-0.1940002-1.237812-0.2275333
		c-1.0303268-0.0830498-2.0115547-0.6685047-3.08461-0.3052235c-0.1524658,0.0040779-0.3049278,0.0081539-0.4573898,0.0122299
		c-0.1142387-0.4148865-0.3930607-0.599535-0.8094425-0.5262032c-0.2041264,0.0359497-0.2920132-0.016201-0.3140984-0.2103043
		C31.2428761,17.6595917,31.4159279,17.3923988,31.7061386,17.44174z"/>
	<path style="fill:#CDCEE6;" d="M32.1118927,18.4438362c0.152462-0.004076,0.304924-0.008152,0.4573555-0.0118008
		c0.4573479,0.932045,1.5038376,0.3564339,2.1548691,0.8378716c-0.1152,0.2767162-0.6526794,0.4891376-0.2257042,0.8422756
		c0.3948631,0.3265743,0.6467056-0.081728,0.8254814-0.3373795c0.2433167-0.3479462,0.4821968-0.3554993,0.7994423-0.1589565
		c0.2374115,0.1470852,0.5018997,0.1556625,0.7697601,0.1419926c0.0038414,0.2101765,0.007679,0.420351,0.0116882,0.6304054
		c-0.0412445,0.536375,0.3912354,1.0777645-0.0164413,1.6104794c-1.5276604-0.40555-3.0416718-0.8774376-4.6368523-0.9553757
		c0.2947693-0.2429314,0.4474945-0.5754013,0.2721367-0.9084969c-0.2312164-0.4391994-0.5260487-0.108654-0.7940006,0.0227375
		c-0.1819839,0.0892372-0.3101349-0.0172157-0.383152-0.1693535c-0.0581837-0.1212311-0.0722179-0.2733974,0.1201668-0.2954903
		c0.7923183-0.0909786,0.4619465-0.5367012,0.3003502-0.9309883C31.881958,18.6557846,31.9969273,18.5498104,32.1118927,18.4438362z
		"/>
	<path style="fill:#BBBAD5;" d="M36.8930931,19.7578392c-0.2678566,0.01367-0.5323448,0.0050926-0.7697563-0.1419926
		c-0.3172455-0.1965427-0.5561256-0.1889896-0.7994423,0.1589565c-0.1787758,0.2556515-0.4306183,0.6639538-0.8254814,0.3373795
		c-0.4269753-0.353138,0.1105042-0.5655594,0.2257042-0.8422756c-0.6510315-0.4814377-1.6975212,0.0941734-2.1548691-0.8378716
		c1.0730896-0.3637104,2.0543175,0.2217445,3.0846443,0.3047943c0.416008,0.0335331,0.8253899,0.1492043,1.2378082,0.2275333
		C36.8921776,19.2288799,36.8926392,19.4933605,36.8930931,19.7578392z"/>
	<path style="fill:#5F2130;" d="M17.504221,27.0363007c0.0639706-0.5351887,0.1936474-1.0377922,0.6769333-1.3650131
		c-0.0234585,0.4112835,0.2802906,0.5473824,0.5776463,0.6874065c-0.1615639,1.1897449,0.1706963,2.3657646,0.1035366,3.5541134
		c-0.0121365,0.2147408,0.1501541,0.3189068,0.3346329,0.3920002c1.9356575,0.7669125,3.8268013,1.6497116,5.8312016,2.2375126
		c0.1403465,0.2748375-0.1072865,0.7532959,0.430479,0.8199272c0.2615719,0.2046356,0.5688038,0.1364441,0.8630009,0.1455956
		c0.0040264,0.0321236,0.0136108,0.0624924,0.0287552,0.0911102c-0.1638546,0.086731-0.3277073,0.1734581-0.491581,0.2604256
		c-1.3009071-0.3050919-2.4435101-1.0328941-3.711731-1.41045c-1.3049927-0.3885078-2.4499817-1.243969-3.9109554-1.2104092
		c-0.6372814,0.014637-1.0390015,0.5349369-1.6398849,0.5109901c-0.0799904-0.2581711,0.4544411-0.3756428,0.1658936-0.6672192
		c-0.2274799-0.2298775-0.4343567,0.0053539-0.6336918,0.0888214c-0.2037411,0.0853081-0.4043446,0.0762043-0.6113548,0.0559845
		c0.1455154-0.1925545,0.2908287-0.3847179,0.436142-0.5769138c0.1496525-0.0455132,0.299305-0.090992,0.4489594-0.1364746
		c0.7520599,0.1553783,1.2790966-0.1886253,1.2909489-0.8693943C17.7083683,28.7704449,17.6746273,27.8978195,17.504221,27.0363007z
		"/>
	<path style="fill:#252290;" d="M15.7466917,32.3572235c0.0516558-0.0509644,0.1033115-0.1019287,0.1548176-0.1530457
		c0.5472231,0.1128387,1.0027552-0.2542248,1.51999-0.2896786c0.1721573-0.0117989,0.3969135-0.0802364,0.4982662,0.1137829
		c0.1123772,0.215126-0.1074829,0.3180084-0.2319527,0.4377861c-0.2574177,0.2477112-0.6134109,0.3970642-0.754118,0.7609329
		c-0.0001049,0.0001678-0.0148468-0.0138855-0.0148468-0.0138855c-0.0659618-0.019577-0.1317844-0.0388145-0.1976089-0.0580444
		c0.1542721-0.561573,0.1368275-0.9655113-0.6274567-0.6828575C15.9470034,32.5265007,15.8389845,32.4661827,15.7466917,32.3572235z
		"/>
	<path style="fill:#AC3442;" d="M31.6681194,30.5313396c-1.75243,1.0574913-3.4174271,2.2665539-5.3177624,3.0675907
		c-0.0150948-0.028595-0.0246792-0.0589638-0.0284958-0.0911255c0.2751884-0.274395,0.4183044-0.6169853,0.5102997-0.9858894
		c1.1966209-0.9403019,2.6507149-1.4414673,3.9030685-2.2869377c0.2642899,0.179327,0.5567703,0.2518158,0.8739738,0.2306042
		C31.6292629,30.4871254,31.648901,30.5090446,31.6681194,30.5313396z"/>
	<path style="fill:#887A7C;" d="M35.2804947,28.4224091c-0.0556602,0.0887108-0.1113167,0.1774235-0.1669998,0.2660694
		c-0.0900116,0.0088291-0.1800041,0.0177212-0.2697411,0.0265923
		C34.8455963,28.4028606,35.0554657,28.4013271,35.2804947,28.4224091z"/>
	<path style="fill:#887A7C;" d="M34.2335358,29.0837936c-0.000618-0.1795998,0.1215553-0.1968632,0.258049-0.1951962
		C34.4055634,28.9536552,34.3195496,29.0187244,34.2335358,29.0837936z"/>
	<path style="fill:#887A7C;" d="M34.5065041,28.879179c0.0554047-0.1335373,0.1646156-0.1523914,0.2900314-0.1359596
		C34.7302628,28.8539486,34.6322479,28.8961678,34.5065041,28.879179z"/>
	<path style="fill:#EAE347;" d="M26.8322773,32.5218315c-0.0921116,0.368988-0.2352276,0.7115784-0.510416,0.9859734
		c-0.2944069-0.0091133-0.6016388,0.0590782-0.8632107-0.1455574c0.184269-0.1440697,0.3844223-0.2615623,0.3965168-0.5470314
		c0.0646267-1.5253887-0.066782-3.0438004-0.1713047-4.5619011c-0.0160542-0.2331676-0.2313499-0.4526196-0.3539619-0.6783161
		c0.2009144-0.1465187,0.3507881-0.3385448,0.6543999-0.3485222c0.59161-0.0194435,1.0719891-0.3330173,1.5043583-0.7184715
		c0.052803,0.0059853,0.100338-0.0071259,0.1426086-0.0393314c0.0661087-0.0402279,0.1322193-0.080452,0.1983299-0.120676
		l0.064743,0.0032005l0.0575905-0.0297565c0.1238651,0.0012875,0.2297707-0.0302734,0.2844486-0.1555233
		c0.0644417-0.0241261,0.1288834-0.0482559,0.193325-0.072382c0.4955101,0.0649929,0.7837296-0.2949047,1.1238956-0.5483208
		c0.0530815-0.0171604,0.1061649-0.0343189,0.1592445-0.0514793c0.5743999-0.0526962,0.8014526-0.5444622,1.1368046-0.899332
		c0.18647,0.0029106,0.3729401,0.0058212,0.5594082,0.0087337c0.3004608,0.3559246,0.445446,0.7511139,0.4214439,1.2319756
		c-0.0367851,0.7368717-0.0491066,1.4774418-0.0186062,2.214241c0.0177097,0.4277649-0.1946068,0.8959103,0.1612835,1.2837124
		c-0.1213245,0.3775177-0.2426472,0.7550335-0.3639717,1.1325359c-0.3172073,0.0211906-0.6096878-0.0512981-0.8738995-0.2306309
		c-0.0597439-0.0365276-0.119566-0.0730572-0.17939-0.1095829c0.2356339-1.0204964,0.0955582-2.0571842,0.1131992-3.0855141
		c0.0094662-0.5516815-0.3679428-0.3951721-0.6608467-0.2233238c-0.8700485,0.5104542-1.7718697,0.9534111-2.6934204,1.363678
		c-0.2941399,0.1309452-0.6727448,0.2828503-0.6621056,0.7140846c0.0260811,1.0574398-0.0926323,2.1191368,0.0878563,3.1721687
		c0.0073929,0.117981,0.0147896,0.2359657,0.0221863,0.3539467l-0.0132046,0.0250359l0.0159645-0.0249176
		C26.7828655,32.45755,26.8051128,32.4913101,26.8322773,32.5218315z"/>
	<path style="fill:#CDCEE6;" d="M31.9731789,29.3330669c-0.3558903-0.3878021-0.1435738-0.8559475-0.1612835-1.2837124
		c-0.0305004-0.7367992-0.0181789-1.4773693,0.0186062-2.214241c0.0240021-0.4808617-0.1209831-0.8760509-0.4214153-1.2322464
		c1.0028477,0.1768875,0.5603962,0.9904308,0.6846066,1.5544567c-0.0000076,0.6371822-0.0066109,1.2744713,0.003849,1.9114838
		c0.0032883,0.2001133-0.0851631,0.4572792,0.1553955,0.5733433c0.2522621,0.1217079,0.4607162-0.0612335,0.6479683-0.1963577
		c1.2861595-0.9280643,2.735714-1.556673,4.137001-2.2742233c0.0626602,0.0615063,0.1251869,0.1231632,0.1877136,0.1848221
		c-1.5160027,0.7831745-2.9407272,1.7207699-4.4036064,2.5939808
		C32.5583076,29.1077824,32.3080826,29.3223381,31.9731789,29.3330669z"/>
	<path style="fill:#E5E8F2;" d="M37.2256203,26.3563919c-0.0625267-0.0616589-0.1250534-0.1233158-0.1877136-0.1848221
		c0.6200752-0.3858356,1.1011696-1.0613823,1.9637222-0.9431496C38.455658,25.6768303,37.8719902,26.0659847,37.2256203,26.3563919z
		"/>
	<path style="fill:#887A7C;" d="M36.2237358,28.0384941c-0.0880852,0.0107174-0.1761742,0.0214329-0.2640305,0.0320988
		c0.0241928-0.3344879,0.2375565-0.3162766,0.4740524-0.2543335C36.3636169,27.8905373,36.2936783,27.9645138,36.2237358,28.0384941
		z"/>
	<path style="fill:#887A7C;" d="M35.6052208,28.3863487c-0.0939064,0.0020065-0.1878128,0.0040169-0.281414,0.0059757
		c0.057045-0.1369381,0.1670074-0.1478043,0.291954-0.1229343C35.6261215,28.3098164,35.6226044,28.3487091,35.6052208,28.3863487z"
		/>
	<path style="fill:#887A7C;" d="M35.9085388,28.1054077c-0.0534859,0.1100616-0.1449013,0.1455784-0.2605896,0.1327629
		C35.6895256,28.1047287,35.7893944,28.0861759,35.9085388,28.1054077z"/>
	<path style="fill:#E2E7F4;" d="M40.3768349,25.0240498c-0.0430374-0.0486202-0.086071-0.0972443-0.1291008-0.1458473
		C40.2907715,24.9268322,40.3338013,24.975441,40.3768349,25.0240498z"/>
	<path style="fill:#5F2130;" d="M48.247818,16.8972511c-0.0521698,0.2156258-0.1043396,0.4312515-0.1564026,0.6470413
		c-0.1914558-0.0854206-0.3937492-0.1531372-0.5723457-0.2603264c-0.3652077-0.2191887-0.5619087-0.5564823-0.2618523-0.9158211
		c0.403286-0.4829559,0.421093,0.1492863,0.6172485,0.2710209C48.0028572,16.7188492,48.1236305,16.8107967,48.247818,16.8972511z"
		/>
	<path style="fill:#ECEFF8;" d="M49.531601,19.449667c-0.0497513,0.038084-0.0995026,0.0761662-0.1489525,0.1141338
		C49.4325027,19.5256786,49.482048,19.4876728,49.531601,19.449667z"/>
	<path style="fill:#19115A;" d="M16.7212391,33.1550713c0.0658245,0.0192299,0.1316471,0.0384674,0.1975403,0.0578728
		c-0.1359596,0.2412491-0.3897552,0.2730026-0.6186829,0.3485527c-0.0064754-0.1082153-0.0132427-0.2165489-0.0200424-0.3253288
		C16.4270935,33.2088356,16.5741673,33.1819534,16.7212391,33.1550713z"/>
	<path style="fill:#2E23E4;" d="M16.7212391,33.1550713c-0.1470718,0.0268822-0.2941456,0.0537643-0.441185,0.0810966
		c-0.4590864,0.2516594-0.932766,0.4801445-1.3723898,0.7617874c-0.3122368,0.2000313-0.5522394,0.0862236-0.8081551-0.0671005
		c-0.3523626-0.211113-0.0691099-0.4651146-0.0418301-0.7019157c0.1926765-0.0511131,0.3644009-0.1279144,0.4227915-0.3440971
		c0.4704685-0.0602722,0.8418541-0.3583679,1.2665358-0.5277023c0.0919781,0.1090431,0.1999969,0.1693611,0.346776,0.1150742
		C16.8580666,32.1895599,16.8755112,32.5934982,16.7212391,33.1550713z"/>
	<path style="fill:#19115A;" d="M7.3157187,29.9874897c1.3678637,0.3932533,2.6739159,0.9214001,3.838253,1.7588043
		C9.7935972,31.3366928,8.4747467,30.836483,7.3157187,29.9874897z"/>
	<path style="fill:#19115A;" d="M14.4804707,32.8848419c-0.0583906,0.2161827-0.2301149,0.292984-0.4227915,0.3440971
		c-0.9909773-0.4492798-2.0157175-0.8328781-2.9043932-1.4829559c0.9256382,0.0624142,1.6617908,0.6285553,2.4904041,0.9480934
		C13.9202929,32.8007431,14.1834726,32.8984222,14.4804707,32.8848419z"/>
	<path style="fill:#19115A;" d="M5.8648276,29.3606968c0.5583687,0.0373592,1.0542531,0.2192726,1.4522095,0.6277237
		C6.7300525,30.0172577,6.2478795,29.8036327,5.8648276,29.3606968z"/>
	<path style="fill:#A2A5C7;" d="M13.4671974,31.2739162c0.080328,0.0489902,0.160656,0.0979805,0.2409544,0.1469326
		C13.6278133,31.3718472,13.5475054,31.3228817,13.4671974,31.2739162z"/>
	<path style="fill:#928C99;" d="M13.8674955,24.395504c-0.0530739,0.0924835-0.1056433,0.087656-0.1577816-0.0008278
		l-0.0046482,0.0045776c0.0550528-0.0004272,0.1100712-0.0008373,0.1650896-0.0012474L13.8674955,24.395504z"/>
	<path style="fill:#A2A5C7;" d="M13.8701553,24.3980064c-0.0550184,0.0004101-0.1100368,0.0008202-0.1650896,0.0012474
		C13.7593794,24.3080845,13.8144464,24.3109188,13.8701553,24.3980064z"/>
	<path style="fill:#E5E8F2;" d="M32.0936928,26.1573238c-0.1242104-0.5640259,0.3182411-1.3775692-0.6846066-1.5544567
		c-0.1864967-0.0026417-0.3729668-0.0055523-0.559473-0.0087261c-0.7295265-0.1431751-0.8839455,0.4403629-1.1367683,0.8995953
		c-0.0530796,0.0171604-0.106163,0.0343189-0.1592178,0.0512199c-0.4875584-0.0485878-0.9680634-0.0824223-1.1239223,0.5485802
		c-0.0644417,0.0241261-0.1288834,0.0482559-0.1930561,0.0722332c-0.1220551,0.0018101-0.2257557,0.0378284-0.2847176,0.1556721
		l-0.0575905,0.0297565l-0.0650139-0.0033474c-0.0662022,0.0401764-0.1321297,0.0804996-0.1980591,0.1208229
		c-0.0422707,0.0322056-0.0898056,0.0453167-0.1426983,0.039093c-0.1306763,0.0035572-0.2915096-0.0411568-0.387249,0.0185318
		c-1.1851597,0.738924-2.3490028,0.5024967-3.5254955-0.0248718c-0.1581955-0.0709114-0.3664055-0.2700291-0.5706558-0.0404797
		c-0.1216717-0.0189915-0.2433434-0.0379829-0.365015-0.0569763c-0.1569805-0.3344898-0.3771133-0.502512-0.7444801-0.2824287
		c-0.1197891-0.0140514-0.2395802-0.0281048-0.3593693-0.04216c-0.2291145-0.5555592-0.7938423-0.5912781-1.2425385-0.6867561
		c-0.5182571-0.110281-0.8321304-0.2720737-0.8435459-0.8359089c-0.0080624-0.398283-0.3029671-0.6621151-0.4958305-0.9729118
		c0.3826294-0.2859859,1.0921764-0.2124519,1.0533142-0.9786663c-0.0040665-0.0802002,0.2309723-0.203104,0.3736897-0.2551289
		c0.8218288-0.2995529,1.6521034-0.8354549,2.474268-0.8261719c2.5228176,0.0284863,4.5117168-1.5303688,6.8286076-2.0652733
		c0.0035477,0.7437992,0.0030499,1.4878445,0.0126057,2.2317619c0.003252,0.2531967-0.0737,0.5593758,0.3136768,0.6253033
		c0.4442768-0.5648556,1.1296043-0.6799049,1.7436352-0.9220295c0.2016582-0.0795116,0.4035816-0.1298504,0.4973049-0.3502522
		c1.5951805,0.0779381,3.1091919,0.5498257,4.6368523,0.9553757c-0.1006508,0.5456085,0.1457977,0.8033295,0.6755104,0.9066353
		c0.3223763,0.06287,0.6236115,0.2341595,0.9344444,0.3566246c-0.2323799,0.2289009-0.8641663,0.178606-0.5526962,0.794836
		c0.022438,0.0443878-0.0400581,0.1909161-0.0829124,0.2004204c-1.0043564,0.2226849-1.31707,1.5903816-2.4401894,1.539959
		C34.2851563,25.7461395,33.2352409,26.3540974,32.0936928,26.1573238z"/>
	<path style="fill:#E2E7F4;" d="M32.2514915,21.0433483c-0.0937233,0.2204018-0.2956467,0.2707405-0.4973049,0.3502522
		c-0.6140308,0.2421246-1.2993584,0.3571739-1.743578,0.9220657c-0.150032-1.1091633,0.4786377-2.096489,0.4976082-3.1792316
		c0.0540028-0.0534382,0.1080055-0.1068764,0.1621189-0.160183c0.3656731-0.0711136,0.7312393-0.1423588,1.0967293-0.2140484
		c0.1615238,0.3938408,0.4918957,0.8395634-0.3004227,0.930542c-0.1923847,0.0220928-0.1783504,0.1742592-0.1201668,0.2954903
		c0.0730171,0.1521378,0.2011681,0.2585907,0.383152,0.1693535c0.267952-0.1313915,0.5627842-0.461937,0.7940006-0.0227375
		C32.6989861,20.467947,32.5462608,20.8004169,32.2514915,21.0433483z"/>
	<path style="fill:#CDCEE6;" d="M30.5082169,19.1364346c-0.0189705,1.0827427-0.6476402,2.0700684-0.4976082,3.1792316
		c-0.387434-0.0659637-0.310482-0.3721428-0.3137341-0.6253395c-0.0095558-0.7439175-0.009058-1.4879627-0.0126057-2.2317619
		C29.952713,19.3356533,30.1889458,19.1298981,30.5082169,19.1364346z"/>
	<path style="fill:#A2A5C7;" d="M26.3332062,19.2727795c-0.0003662-0.0445518,0.0085106-0.0871773,0.0266514-0.1278477
		c0.3679943-0.0981426,0.7359734-0.1963158,1.1039009-0.2944527c0.0384426,0.4050961,0.3896904,0.0728092,0.5395775,0.2220249
		C27.6622028,19.406517,27.0595684,19.477253,26.3332062,19.2727795z"/>
	<path style="fill:#887A7C;" d="M25.0281715,32.5423203c-2.0044003-0.587801-3.8955441-1.4706001-5.8312016-2.2375126
		c-0.1844788-0.0730934-0.3467693-0.1772594-0.3346329-0.3920002c0.0671597-1.1883488-0.2651005-2.3643684-0.1035366-3.5541134
		c1.2469387,0.3508701,2.4982643,0.6873779,3.597065,1.4119854c0.0015392,0.2235031-0.227438,0.2540836-0.337019,0.3891258
		c0.9157372,0.2922993,1.1274338,1.0341301,0.4843254,1.6693707c-0.3604012-0.1834908-0.3949432-0.4890041-0.319149-0.8398838
		c0.0533237-0.2468452-0.0181885-0.4831696-0.2967949-0.3687687c-0.2339573,0.0960636-0.5432968,0.2383881-0.5218601,0.6031895
		c0.0189991,0.323349,0.1616077,0.5552483,0.5047989,0.5957756c0.2072258,0.0244732,0.4186497,0.0134144,0.6281872,0.0183201
		c-0.1841812,0.8867531-0.9967747,0.0220222-1.3487225,0.4576492c0.1182518,0.2866669,0.457901,0.0649433,0.5458508,0.2375164
		c0.4094582,0.803442,1.2320461,0.8416615,1.940424,1.0867958c0.220192,0.0761948,0.4605484,0.1098804,0.6942959,0.1267834
		c0.2427807,0.0175571,0.4457207-0.0869026,0.359993-0.3704567c-0.1970768-0.6518497-0.0822086-1.3146324-0.1007328-1.9714909
		c-0.0140572-0.4982948-0.1992893-0.7882156-0.718605-0.8693562c-0.3432446-0.0536289-0.6698799-0.1906052-0.7486229-0.6026669
		c0.4979057,0.1652966,1.0023518,0.3135929,1.4914494,0.5017872c0.3337841,0.1284313,0.4491749,0.4170761,0.4443054,0.7700043
		C25.0426311,30.3169479,25.0373516,31.4296608,25.0281715,32.5423203z M21.6388969,27.8720665
		c-0.0433922-0.0188808-0.0962753-0.0620327-0.1275139-0.049818c-0.0312061,0.0121994-0.0407448,0.0798168-0.059782,0.1231403
		c0.0432568,0.0189915,0.0963058,0.0624695,0.1270504,0.0501785C21.6101551,27.9829693,21.6198235,27.9157734,21.6388969,27.8720665
		z"/>
	<path style="fill:#928C99;" d="M23.1222343,27.9325829c0.078743,0.4120617,0.4053783,0.5490379,0.7486229,0.6026669
		c0.5193157,0.0811405,0.7045479,0.3710613,0.718605,0.8693562c0.0185242,0.6568584-0.096344,1.3196411,0.1007328,1.9714909
		c0.0857277,0.2835541-0.1172123,0.3880138-0.359993,0.3704567c-0.2337475-0.0169029-0.4741039-0.0505886-0.6942959-0.1267834
		c-0.7083778-0.2451344-1.5309658-0.2833538-1.940424-1.0867958c-0.0879498-0.1725731-0.427599,0.0491505-0.5458508-0.2375164
		c0.3519478-0.435627,1.1645412,0.4291039,1.3487225-0.4576492l0.0048122-0.0086536
		c0.6431141-0.6352196,0.4314175-1.3770504-0.4843197-1.6693497c0.109581-0.1350422,0.3385582-0.1656227,0.337019-0.3891258
		C22.6306229,27.7337437,22.8736343,27.8464012,23.1222343,27.9325829z"/>
	<path style="fill:#EAE347;" d="M21.5363045,26.0793819c0.1197891,0.0140553,0.2395802,0.0281086,0.3590012,0.042263
		c0.1873856,0.254324,0.4366417,0.3461609,0.7448483,0.2823257c0.1216717,0.0189934,0.2433434,0.0379848,0.3647079,0.0569973
		c0.5986748,0.3156452,1.1976585,0.6312714,1.7966404,0.9468956c-0.8087444,0.2883587-1.5828133-0.0088959-2.2478085-0.3439064
		c-0.8794155-0.4430275-1.8520565-0.5587502-2.7348671-0.9740353c-0.3404446-0.1601505-0.5765781-0.2863216-0.688736-0.6300278
		c0.0491581-0.0306034,0.0901146-0.0216122,0.1227016,0.02668c0.028492-0.0132484,0.0576496-0.0238171,0.0877533-0.0317764
		C20.0724659,25.6629906,20.8043861,25.8711872,21.5363045,26.0793819z"/>
	<path style="fill:#CDCEE6;" d="M24.8015022,27.4078636c-0.5989819-0.3156242-1.1979656-0.6312504-1.7966404-0.9468956
		c0.2045574-0.2295704,0.4127674-0.0304527,0.5709629,0.0404587c1.1764927,0.5273685,2.3403358,0.7637959,3.5254955,0.0248718
		c0.0957394-0.0596886,0.2565727-0.0149746,0.387249-0.0185318c-0.4322796,0.3856926-0.9126587,0.6992664-1.5042686,0.7187099
		c-0.3036118,0.0099773-0.4534855,0.2020035-0.6543999,0.3485222C25.1812668,27.4311962,24.9952488,27.40732,24.8015022,27.4078636z
		"/>
	<path style="fill:#928C99;" d="M17.504221,27.0363007c0.1704063,0.8615189,0.2041473,1.7341442,0.1889305,2.6080132
		c-0.0118523,0.680769-0.5388889,1.0247726-1.2910519,0.869278c0.4237118-0.1211472,0.4376831-0.4994431,0.4493923-0.8203907
		c0.011652-0.3193169-0.2638836-0.3477898-0.5232964-0.3195553C16.5821457,28.5250664,16.9212513,27.7193336,17.504221,27.0363007z"
		/>
	<path style="fill:#A2A5C7;" d="M16.3281956,29.3736458c0.2594128-0.0282345,0.5349483,0.0002384,0.5232964,0.3195553
		c-0.0117092,0.3209476-0.0256805,0.6992435-0.4493923,0.8203907c-0.1495514,0.045599-0.2992039,0.0910778-0.4488564,0.136591
		C15.8397264,30.1546402,16.1253033,29.7762852,16.3281956,29.3736458z"/>
	<path style="fill:#A6A41A;" d="M19.3405457,25.4547977c-0.0301037,0.0079594-0.0592613,0.018528-0.0877533,0.0317764
		C19.2791767,25.46451,19.3085175,25.4538937,19.3405457,25.4547977z"/>
	<path style="fill:#E5E8F2;" d="M26.7627869,32.4204292c-0.0073967-0.117981-0.0147934-0.2359657-0.0226154-0.3538704
		c0.33568-0.0543098,0.1858616-0.5737686,0.5650215-0.5889416c0.638485-0.0255527,1.0187588-0.5242538,1.4171028-0.8913918
		c0.5634003-0.5192547,1.1779938-0.4917107,1.833622-0.4608364c0.059824,0.0365257,0.1196461,0.0730553,0.17939,0.1095829
		c-1.2524319,0.8454762-2.7065258,1.3466415-3.9031467,2.2869434c-0.0270481-0.0306053-0.0492954-0.0643654-0.0664215-0.1012154
		L26.7627869,32.4204292z"/>
	<path style="fill:#ECEFF8;" d="M30.5559177,30.1253891c-0.6556282-0.0308743-1.2702217-0.0584183-1.833622,0.4608364
		c-0.398344,0.3671379-0.7786179,0.865839-1.4171028,0.8913918c-0.3791599,0.015173-0.2293415,0.5346317-0.5650215,0.5889416
		c-0.1800594-1.0531082-0.0613461-2.1148052-0.0874271-3.172245c-0.0106392-0.4312344,0.3679657-0.5831394,0.6621056-0.7140846
		c0.9215508-0.4102669,1.8233719-0.8532238,2.6934204-1.363678c0.2929039-0.1718483,0.6703129-0.3283577,0.6608467,0.2233238
		C30.6514759,28.0682049,30.7915516,29.1048927,30.5559177,30.1253891z M29.4685287,28.7869511
		c-0.0901852-0.1798973,0.068222-0.6613178-0.3200474-0.6016293c-0.4986935,0.076664-0.4775543,0.6911583-0.6578312,1.0724144
		c-0.101923,0.2155361,0.030695,0.5581818,0.3807468,0.5445576C29.5045872,29.777647,29.3361053,29.2238197,29.4685287,28.7869511z"
		/>
	<path style="fill:#CDCEE6;" d="M29.7128448,25.4937363c0.2528229-0.4592323,0.4072418-1.0427704,1.1367683-0.8995953
		C30.5142975,24.9492741,30.2872448,25.44104,29.7128448,25.4937363z"/>
	<path style="fill:#CDCEE6;" d="M28.4297047,26.0935364c0.155859-0.6310024,0.636364-0.597168,1.1239223-0.5485802
		C29.2134342,25.7986317,28.9252148,26.1585293,28.4297047,26.0935364z"/>
	<path style="fill:#CDCEE6;" d="M27.951931,26.3214417c0.0589619-0.1178436,0.1626625-0.153862,0.2847176-0.1556721
		C28.1817017,26.2911682,28.0757961,26.3227291,27.951931,26.3214417z"/>
	<path style="fill:#CDCEE6;" d="M27.6312675,26.4686737c0.0659294-0.0403233,0.1318569-0.0806465,0.1980591-0.1208229
		C27.7634869,26.3882217,27.6973763,26.4284458,27.6312675,26.4686737z"/>
	<polygon style="fill:#ECEFF8;" points="26.7627869,32.4204292 26.7657394,32.4207001 26.7495823,32.4454651 	"/>
	<path style="fill:#CDCEE6;" d="M22.6401539,26.4039726c-0.3082066,0.0638332-0.5574627-0.0280037-0.7448483-0.2823277
		C22.2630405,25.9014587,22.4831734,26.0694809,22.6401539,26.4039726z"/>
	<path style="fill:#5F2130;" d="M22.498354,29.8378086c-0.2095375-0.0049057-0.4209614,0.0061531-0.6281872-0.0183201
		c-0.3431911-0.0405273-0.4857998-0.2724266-0.5047989-0.5957756c-0.0214367-0.3648014,0.2879028-0.5071259,0.5218601-0.6031895
		c0.2786064-0.1144009,0.3501186,0.1219234,0.2967949,0.3687687c-0.0757942,0.3508797-0.0412521,0.6563931,0.319149,0.8398838
		L22.498354,29.8378086z"/>
	<path style="fill:#928C99;" d="M21.6389732,27.8722706c-0.0191498,0.0435028-0.0288181,0.1106987-0.0603218,0.1232967
		c-0.0307446,0.012291-0.0837936-0.0311871-0.1270504-0.0501785c0.0190372-0.0433235,0.0285759-0.1109409,0.059782-0.1231403
		C21.5426216,27.8100338,21.5955048,27.8531857,21.6389732,27.8722706z"/>
	<path style="fill:#EAE347;" d="M29.4685287,28.7869511c-0.1324234,0.4368687,0.0360584,0.990696-0.5971317,1.0153427
		c-0.3500519,0.0136242-0.4826698-0.3290215-0.3807468-0.5445576c0.1802769-0.3812561,0.1591377-0.9957504,0.6578312-1.0724144
		C29.5367508,28.1256332,29.3783436,28.6070538,29.4685287,28.7869511z"/>
</g>
</svg>
