<?xml version="1.0" encoding="utf-8"?>
<!-- Generator: Adobe Illustrator 21.1.0, SVG Export Plug-In . SVG Version: 6.00 Build 0)  -->
<svg version="1.1" id="Слой_1" xmlns="http://www.w3.org/2000/svg" xmlns:xlink="http://www.w3.org/1999/xlink" x="0px" y="0px"
	 viewBox="0 0 55 45" style="enable-background:new 0 0 55 45;" xml:space="preserve">
<g>
	<path style="fill:#232534;" d="M22.2449341,37.8912544c-0.36586-0.3271103-0.5989265-0.7264099-0.662117-1.2180557
		c0.5472031,0.0469398,0.8382492-0.0991592,0.9435539-0.7432518c0.1158066-0.7083511,0.1053944-1.4072456,0.1471138-2.1113625
		c0.0551624-0.9309959,0.1052055-1.8683662,0.5456676-2.7244892c0.0126305,1.0139294-0.2104588,2.0034542-0.3033047,3.0049191
		c-0.0765419,0.8256302-0.3094006,1.7156258,0.3223858,2.6371078c0.1775341-0.4621582,0.1779346-0.7550468,0.0924168-1.0401649
		c-0.1854687-0.6183357-0.0510578-1.2239494-0.020977-1.8460083c0.0634632-1.3124199,0.3822327-2.5576839,0.6802349-3.8211365
		c0.2055244-0.8713627,0.4010754-1.7553768,0.5478153-2.6302147c0.1268253-0.7560921,0.4892654-1.4601994,0.4677505-2.2396469
		c0.4516354-0.2252254,0.2368069-0.7838631,0.5415707-1.0825615c-0.1941547,0.7039986,0.5946598,1.260437,0.3225727,1.9489498
		c-0.1814308,0.4591141-0.0735416,0.8616295,0.0339813,1.2874241c-0.4809933,0.0840664-0.3750248,0.4474468-0.316473,0.7404785
		c0.0669231,0.3349133,0.2660465,0.5733204,0.6651134,0.5165977c-0.4525471,1.1658134-0.6054783,2.3483353-0.20397,3.5635262
		c0.0917549,0.2777061-0.0161953,0.5214767-0.1467991,0.7585869c-0.384407,0.0843925-0.9348183-0.4130898-1.0853539-0.0723724
		c-0.3789539,0.8577118-1.4060879,1.4441566-0.9828777,2.6795959c0.4002399,1.1683693-0.0940609,2.5657539-0.8153877,2.9956856
		c-0.1180992-0.0570602-0.2362022-0.1141205-0.3542995-0.1711807
		C22.5240116,38.1795349,22.3844719,38.0353966,22.2449341,37.8912544z"/>
	<path style="fill:#292C3F;" d="M25.5470467,24.0763874c-0.3047657,0.2987003-0.0899372,0.857338-0.5415535,1.0825253
		c-0.4207726,0.0598373-0.4562778,0.4014187-0.5407162,0.7198639c-0.2295895,0.8658752-0.2958431,1.7782001-0.6973267,2.6754627
		c-0.4389133-0.495697,0.2245255-0.9865665-0.1322746-1.4313622c-0.2623768,0.4835682-0.5027714,1.221817-0.3025322,1.4446869
		c0.7354069,0.8185253,0.3781662,1.1791077-0.376749,1.5571613c-0.1737976,0.0870323-0.109911,0.3377857,0.0750885,0.4120922
		c0.307745,0.1236115,0.307745,0.1236134,0.1881695,0.5572777c-0.4404621,0.856123-0.4905052,1.7934933-0.5456676,2.7244892
		c-0.0417194,0.7041168-0.0313072,1.4030113-0.1471138,2.1113625c-0.1053047,0.6440926-0.3963509,0.7901917-0.9435539,0.7432518
		c-0.0609646-0.1153374-0.1219292-0.2306786-0.1828976-0.3460236c0.6618729-0.6663094,0.1677208-1.3305092-0.0036507-1.9952965
		c0.0141945-0.4756813,0.0283909-0.9513626,0.0422726-1.4271317c0.2037525-0.0257301,0.5072155-0.0249329,0.4726791-0.2868843
		c-0.136282-1.0336151,0.4411831-1.965641,0.3812294-2.9813251c0.049509-0.0300694,0.0863705-0.0703983,0.1105881-0.1209869
		c0.2160854-0.1144829,0.3290558-0.2398205,0.0428734-0.4071865c0.1426811-0.6550026,0.2853661-1.3100071,0.428051-1.9650097
		c0.803133-0.3453979,0.7725449-0.9499798,0.5060768-1.6278915c0.0596008-0.1234398,0.1191998-0.2468777,0.1788025-0.3703175
		c0.2462559-0.0338821,0.4741535-0.0757122,0.1535263-0.3548546c0.0164719-0.1766491,0.0329399-0.3532982,0.0494118-0.5299473
		c0.8492069-0.2046776,1.0424633-0.7107201,0.6769695-1.4734745c0.0052414-0.1154556,0.0104828-0.2309074,0.0158596-0.3461323
		c0.2136211,0.2616501,0.3445721,0.2759933,0.5251675-0.0694122c0.2185783-0.418047,0.46805-0.8983364,1.1070633-0.6460552
		c-0.5803394,0.6918983-0.3157825,1.577898-0.5402317,2.3515568L25.5470467,24.0763874z M23.1051636,29.5480194
		c0.0164852-0.0540867,0.0267467-0.0877457,0.0370045-0.1214046c-0.0222492,0.0063877-0.0445004,0.0127773-0.0667496,0.0191669
		C23.0829582,29.4716969,23.090498,29.4976082,23.1051636,29.5480194z"/>
	<path style="fill:#6F7288;" d="M32.199894,21.9190292c1.3488159,3.2676735,2.5920792,6.5739594,3.1657906,10.0785503
		c0.2088051,1.2754803,0.2361183,2.5884647-0.4884796,3.7722988c-0.060276-0.0480042-0.1205711-0.0959969-0.1808624-0.1439857
		c0.0049896-0.3171616,0.0099831-0.6343193,0.0149727-0.9514809c-0.0026741-0.7038803-0.0053406-1.4077606-0.0080147-2.1116371
		c0.0821953-0.5940533-0.206562-1.0904694-0.4025459-1.6185341c-0.3575096-0.9632816-0.6740532-1.9417686-1.0076828-2.9139137
		c0.3471527-0.0026894,0.5216179,0.0173798,0.3395119-0.49119c-0.6039314-1.6866341-1.0992432-3.4120445-1.6451054-5.1197376
		C31.9082355,22.1714954,31.8094921,21.9512596,32.199894,21.9190292z"/>
	<path style="fill:#838CAF;" d="M32.199894,21.9190292c-0.3904018,0.0322304-0.2916584,0.2524662-0.2124157,0.50037
		c0.5458622,1.7076931,1.0411739,3.4331036,1.6451054,5.1197376c0.182106,0.5085697,0.0076408,0.4885006-0.3395996,0.4912338
		c-0.4971771-1.303566-0.5924034-2.7409401-1.3152847-3.9612026c-0.2653103,0.0033283,0.0238304,0.413372-0.3176079,0.3922691
		c-0.2401657-0.7275887-0.4805431-1.455822-0.7208652-2.1840572c-0.0112743-0.1234512-0.0226097-0.2469025-0.0339451-0.3703499
		c0.0097885-0.1847305-0.0148697-0.3487701-0.2368374-0.3942928c-0.0226631,0.1352711-0.0453281,0.2705402-0.0679913,0.4058113
		c-0.1290112-0.0582523-0.2580242-0.1165028-0.3870354-0.1747551c-0.1859531-0.3048191-0.4223537-0.3943386-0.7319489-0.1715221
		c-0.06674-0.0190601-0.133482-0.0381241-0.2002201-0.057188c0.1921215-0.8442097-0.5533237-1.4842987-0.5003109-2.298151
		c0.0590591-0.0138855,0.1180763-0.0278339,0.1770973-0.0417843c0.3042717,0.1394482,0.4899292,0.4010677,0.6820602,0.6574917
		c0.1669922,0.2228699,0.3414326,0.4338207,0.6180305,0.1247139c0.2327671,0.0560799,0.4655361,0.1121597,0.6983051,0.1682396
		c0.2987862,0.2893562,0.5975742,0.5787144,0.8963604,0.8680706c0.017437,0.0666447,0.0348759,0.1332932,0.0521984,0.1999207
		c-0.0899868,0.288044-0.0326385,0.4881783,0.3094387,0.5182457C32.2095833,21.7808971,32.2047386,21.8499622,32.199894,21.9190292z
		"/>
	<path style="fill:#54637C;" d="M22.8739624,27.1433544c-0.1426849,0.6550026-0.2853699,1.3100071-0.4276714,1.9650345
		c-0.0702209,0.1254234-0.1408195,0.2508297-0.2114182,0.3762321c-0.3453217-0.1694145-0.4244938-0.5395718-0.6199818-0.8219948
		c0.6669102-2.4509068,1.7135239-4.768198,2.5303001-7.1666489c0.1611481-0.4732037,0.4334145-0.9126911,0.8128738-1.2643051
		c0.5429325,0.1585827,0.3815823-0.2634487,0.4255447-0.5162392c0.074831-0.0984364,0.1430798-0.0855999,0.20714,0.0127678
		c0.1630058-0.0515499,0.3251743-0.1036568,0.4873447-0.1557655l0.0167713,0.0133038
		c-0.0019855,0.1825981,0.0480652,0.4324894,0.2080612,0.4326458c0.6530247,0.0006466,0.4575577,0.4842854,0.5188942,0.8257351
		c-1.2145119-0.3137569-2.2449646,0.381115-2.3673477,1.596386c-0.0052414,0.1154556-0.0104828,0.2309074-0.0154228,0.3466377
		c-0.5037994,0.3632507-0.6109562,0.9088306-0.6772709,1.4731998c-0.0164719,0.1766491-0.0329399,0.3532982-0.0491352,0.5299702
		c-0.0510826,0.1182899-0.1024418,0.2365627-0.1537991,0.3548317c-0.0596066,0.1234398-0.1192055,0.2468777-0.1787491,0.3703079
		C23.0467968,26.0068913,22.9993,26.587225,22.8739624,27.1433544z"/>
	<path style="fill:#373D4F;" d="M34.7033005,32.5627747c0.0026741,0.7038765,0.0053406,1.4077568,0.0081367,2.111824
		c-0.8205757,0.3041725-0.5360718,0.6258392-0.0150986,0.9512939c0.0602951,0.0479889,0.1205902,0.0959816,0.1808662,0.1439857
		c-0.0303421,0.1176987-0.0606689,0.2353859-0.0910149,0.3530502c-0.3439484,0.6545792-0.68787,1.3091774-1.0317879,1.9637794
		c-0.3293228,0.1358261-0.5163536,0.412014-0.6909142,0.7005043c-0.0978317,0.0318298-0.1957016,0.0636177-0.2935715,0.0954056
		c-0.0279427-0.2030258,0.0055008-0.4447365-0.0940132-0.6026649c-0.5527496-0.8772011-0.6151237-1.8880768-0.8300114-2.8577118
		c0.2193508-0.1427612,0.441618-0.2297745,0.6785984-0.0354958c0.0914574,0.5444679,0.1829109,1.088932,0.2743683,1.6334
		c0.3211975-0.6643715,0.4377174-1.3139725,0.1298561-1.9729576c0.2190285-0.1298218,0.4380608-0.2596474,0.657093-0.3894768
		c0.5400505,0.027832,0.7443581-0.3002205,0.768261-0.7688675c0.022686-0.444664,0.0004539-0.8916245-0.0020332-1.337574
		C34.4691238,32.5551033,34.5862122,32.5589409,34.7033005,32.5627747z M32.8558121,37.8039665
		c0.0090027-0.0257835,0.0242844-0.0517654,0.0235062-0.0772476c-0.000267-0.0086136-0.0412178-0.0159721-0.0635796-0.0239029
		c-0.0089836,0.0257797-0.0242805,0.0517616-0.0234566,0.0772324C32.7925568,37.7886925,32.8334656,37.796032,32.8558121,37.8039665
		z"/>
	<path style="fill:#E4E091;" d="M27.3941231,8.0708132c-0.5989399-0.1709156-0.1742477-0.7648077-0.4430256-1.0721512
		c0.0281334-0.0139742,0.0579071-0.0208764,0.0891552-0.0208688c0.2320251,0.174705,0.442421,0.2677197,0.6655273-0.0382824
		c0.2415962-0.3313556,0.5226002-0.6342454,0.6387005-1.0411425C28.7639885,5.804009,29.02565,5.427022,28.7853413,5.154788
		C28.19203,4.4826522,28.4034081,3.7433298,28.4028645,3.009625c0.8034859-0.4713159,1.0281849-0.3833127,1.0983562,0.5255191
		c0.0666809,0.8636606-0.0176754,1.7292755-0.1443958,2.5870564c-0.6548367,0.5049109-1.2838306,1.0293393-1.4175377,1.9194245
		c-0.0158463,0.0705833-0.0316887,0.1411657-0.0475349,0.2117491C27.7258759,8.1925201,27.5599976,8.1316662,27.3941231,8.0708132z"
		/>
	<path style="fill:#A5A5A6;" d="M27.3941231,8.0708132c0.1658745,0.060853,0.3317528,0.121707,0.4975357,0.1824493
		c0.2041092,0.3761797,0.5643749,0.3465242,0.9117355,0.3504324c0.007164,0.532938-0.1155949,1.0742359,0.105175,1.5933857
		c0.0943508,0.2218723,0.0835819,0.4635592-0.1769161,0.5018311c-0.6687183,0.0982389-0.3893051,0.6114035-0.4686832,0.9686241
		c-0.0669174-0.0006304-0.1337891-0.0012274-0.2006569-0.0018263c-0.1275387-0.381424-0.03759-0.8525658-0.6251259-1.0123377
		c-0.2421894-0.0658607-0.2265282-0.4474382-0.1619301-0.7788067C27.3896275,9.2878876,27.3622055,8.6735659,27.3941231,8.0708132z"
		/>
	<path style="fill:#54637C;" d="M21.4388542,32.9048347c-0.0141945,0.4756813-0.0283909,0.9513626-0.0424824,1.4270592
		c-0.4503307,0.4976692,0.1114635,1.1087418-0.1818581,1.6240044c-0.7001457-1.2756577-0.5681171-2.6556664-0.4396286-4.0125065
		c0.0725842-0.766449,0.324646-1.5159035,0.4958534-2.2730007c0.1028023,0.1119289,0.2056103,0.2238445,0.3084183,0.335762
		l0.0172844,0.0147018c0.0521526,0.5369987-0.5935097,1.0704288-0.0082397,1.610157
		C21.0246181,31.9953785,21.4435482,32.4749413,21.4388542,32.9048347z"/>
	<path style="fill:#F2F2F3;" d="M28.819952,13.9968882c0.2066288,0.0363998,0.6448612,0.0429525,0.368042,0.3348312
		c-0.4603119,0.4853487-0.2609406,0.8933458-0.110754,1.3703747c0.1251488,0.3974943-0.1516647,0.737216-0.2264175,1.1075659
		c-0.0789986-0.0509338-0.1580143-0.1018829-0.2369957-0.1528263c-0.0023766-0.1785431-0.0157566-0.3577633-0.00494-0.535511
		c0.0236511-0.3888254-0.197607-0.6990681-0.5171642-0.7290211c-0.494854-0.04638-0.0999222,0.4066133-0.230217,0.5935974
		c-0.1182537,0.1697044-0.2295189,0.3442822-0.3438644,0.5167084c-0.0548878,0.0123692-0.1103134,0.02145-0.1662807,0.0272465
		c-0.6965523-0.7366257-0.7920723-1.17976,0.5172157-1.6924191c0.4940758-0.1934586,0.6168079-0.3877754,0.5566826-0.832284
		C28.5540581,13.8701839,28.6945629,14.2948465,28.819952,13.9968882z"/>
	<path style="fill:#F2F2F3;" d="M31.8527908,20.9936638c-0.2987862-0.2893562-0.5975742-0.5787144-0.8963661-0.868084
		c-0.0705528-0.7213821-0.6558723-1.0446796-1.1264572-1.4567013c0.0514603-0.0045376,0.1029053-0.0092163,0.1543388-0.0140362
		C31.300602,18.8673401,31.6991501,19.3662109,31.8527908,20.9936638z"/>
	<path style="fill:#6F7288;" d="M21.5882015,31.631012c-0.5852699-0.5397282,0.0603924-1.0731583,0.0081463-1.6102142
		c0.0424137-0.0663147,0.0858097-0.1320724,0.1243725-0.2005558c0.0016365-0.0029087-0.0415382-0.0310459-0.0638332-0.0474339
		c-0.0259094,0.0777836-0.0518188,0.1555653-0.0777283,0.233345c-0.1028099-0.1119175-0.2056179-0.2238331-0.3084202-0.335762
		c0.0915031-0.3439827,0.0951824-0.7179279,0.344141-1.0079594c0.1954994,0.2826176,0.2746716,0.6527748,0.6207809,0.822319
		c0.0548668,0.0182266,0.1103973,0.0284519,0.1673775,0.0307999c-0.0242176,0.0505886-0.061079,0.0909176-0.110424,0.1211185
		C21.7384758,30.1886749,21.886898,30.9888306,21.5882015,31.631012z"/>
	<path style="fill:#E0E0E1;" d="M28.8033943,8.6036949c-0.3473606-0.0039082-0.7076263,0.0257473-0.9117355-0.3504324
		c0.0159397-0.0704718,0.0317822-0.1410542,0.0471821-0.2119045c0.5375881-0.1094103,0.7943974-0.5993323,1.2004375-0.8871922
		C29.094265,7.6528549,29.6699467,8.295372,28.8033943,8.6036949z"/>
	<path style="fill:#373D4F;" d="M28.6137924,16.6568279c0.0790157,0.0509491,0.1580315,0.1018982,0.23703,0.152832
		l0.0139828,0.021389c0.0440769,0.1152325,0.0881195,0.2306099,0.1321621,0.3459892
		c-0.0412846,0.2570343,0.0312004,0.4255848,0.3270016,0.4204521c0.047596,0.0160275,0.0964851,0.0229454,0.1466618,0.0207558
		c0.0026131,0.0506973,0.0082455,0.1010571,0.0169239,0.1511478c-0.2600613,0.0258312-0.4680061,0.0771408-0.1815262,0.3706703
		c0.0025368,0.0548191,0.0020447,0.1096077-0.0014744,0.1643715c-0.1018333-0.0056896-0.2036629-0.0113792-0.3057823-0.0168247
		c-0.0549488-0.0905819-0.1003971-0.2509232-0.165947-0.2596111c-0.2253609-0.0298786-0.2270985,0.1872807-0.2881889,0.3320522
		c-0.2182274-0.3616409-0.4364529-0.7232838-0.6546783-1.0849247c0.2150803-0.0569077,0.2185612-0.2259369,0.2120857-0.4002438
		l0.0626678-0.0229168l0.066473,0.0058174c0.0628128,0.0686684,0.1256256,0.1373329,0.1884384,0.2059975
		c0.0202217,0.2351475,0.0691967,0.451273,0.3616161,0.5560722c-0.0152988-0.2830982-0.1061783-0.4720211-0.3418217-0.5736771
		c-0.0201817-0.0756264-0.0401421-0.1514492-0.0601006-0.2272758C28.4574757,16.7648754,28.535635,16.7108517,28.6137924,16.6568279
		z"/>
	<path style="fill:#54637C;" d="M28.819952,13.9968882c-0.1253891,0.2979584-0.2658939-0.1267042-0.3946934,0.0082626
		c-0.766552,0.1544714-1.0356731-0.2034206-0.9521999-0.9244576c0.078104-0.0528879,0.1561928-0.1057882,0.2342834-0.1586876
		c0.2864571,0.1217585,0.5729179,0.243515,0.859375,0.3652725C28.6993294,13.5066147,28.822876,13.7291842,28.819952,13.9968882z"/>
	<path style="fill:#6F7288;" d="M29.1392784,7.1541657c-0.4060402,0.2878599-0.6628494,0.777782-1.2004375,0.8871922
		c0.1341534-0.8898182,0.7631474-1.4142466,1.417984-1.9191575c0.0363674,0.30722-0.283186,0.5413575-0.1757221,0.8625889
		C29.1706772,7.0421181,29.1567345,7.0985756,29.1392784,7.1541657z"/>
	<path style="fill:#E4E091;" d="M27.1620235,2.2767475c0.2443867-0.0412328,0.4887714-0.0824649,0.7331181-0.1239159
		c-0.3265438,0.5923548-0.7505779,1.1080694-1.2394905,1.5726621c-0.0098953-0.2896092-0.0197887-0.5792177-0.0296841-0.8688269
		C26.5833321,2.4587796,26.7794056,2.2815471,27.1620235,2.2767475z"/>
	<path style="fill:#54637C;" d="M26.4514408,18.0452175c0.2905922-0.457737,0.5811844-0.9154739,0.8717365-1.3731747
		c0.1927071,0.0595284,0.2086964,0.2137089,0.2031765,0.3794918c-0.0783405,0.0765018-0.2080021,0.1436806-0.2237797,0.2313538
		c-0.0284672,0.1581764,0.1381149,0.1231365,0.2348537,0.1499805c0.0715408,0.2744541-0.0376949,0.4982452-0.1983147,0.7076378
		c-0.2961197,0.0714817-0.5922356,0.1429634-0.8883495,0.2140903
		C26.4509964,18.2512321,26.4512196,18.1482239,26.4514408,18.0452175z"/>
	<path style="fill:#F2F2F3;" d="M29.4706306,17.6182461c-0.0501766,0.0021896-0.0990658-0.0047283-0.1466446-0.0207348
		c-0.028511-0.2027397-0.1672211-0.3198051-0.3270187-0.4204731c-0.0440426-0.1153793-0.0880852-0.2307568-0.1321621-0.3459892
		c0.0536327-0.026022,0.1075134-0.0750923,0.1609383-0.0745983c0.3197498,0.0029507,0.7542152-0.3370514,0.9122276-0.0819874
		C30.1787243,17.0630951,29.7029037,17.3307495,29.4706306,17.6182461z"/>
	<path style="fill:#373D4F;" d="M21.2145138,35.9558983c0.2933216-0.5152626-0.2684727-1.1263351,0.1818581-1.6240044
		c0.1712685,0.664772,0.6654205,1.3289719,0.0035477,1.9952812C21.2565155,36.2441673,21.2253838,36.1050873,21.2145138,35.9558983z
		"/>
	<path style="fill:#6F7288;" d="M28.5667171,13.2872782c-0.2864571-0.1217575-0.5729179-0.2435141-0.859375-0.3652954
		c-0.0344639-0.0368223-0.0408592-0.0779829-0.0191841-0.1235065c-0.0011406-0.0886106-0.0022793-0.1772213-0.0034161-0.2658329
		l-0.0046406,0.0162668c0.0667667-0.05898,0.1335316-0.1179609,0.2002945-0.1769419
		c0.0933781-0.3129826,0.3111362-0.3102398,0.562706-0.2216825C28.6336174,12.5130501,28.6604366,12.8936119,28.5667171,13.2872782z
		"/>
	<path style="fill:#505127;" d="M26.625967,2.8566668c0.0098953,0.2896092,0.0197887,0.5792177,0.0296783,0.8688393
		c0.0175896,0.1343446,0.0351849,0.2686775,0.0527763,0.4030101c-0.0194893,0.4089541-0.0389729,0.8179092-0.0584564,1.2268639
		c0.0865803,0.1288567,0.1731625,0.2577128,0.2593765,0.3865924c-0.0272064,0.0768838-0.0540504,0.1537428-0.0808926,0.2306018
		c-0.7377415-0.2616343-0.1936054-0.9122977-0.404768-1.333725C26.597559,4.05688,26.1657619,3.4061511,26.625967,2.8566668z"/>
	<path style="fill:#F2F2F3;" d="M28.4431019,12.1502857c-0.2515697-0.0885572-0.4693279-0.0913-0.5626507,0.2216606
		c-0.0667458,0.0589743-0.1335468,0.1179686-0.2003498,0.1769638l0.0047894-0.0160513
		c-0.2211246,0.0912886-0.1362362,0.1787729,0.0032635,0.2656174c-0.0216713,0.0455236-0.015276,0.0866842,0.0191879,0.1235056
		c-0.0780907,0.0529232-0.1561794,0.1058235-0.2342834,0.1587114c-0.4525642-0.74195,0.262495-0.9976254,0.5892639-1.4149933
		c0.0668583,0.0006084,0.1337299,0.0012054,0.2006474,0.0018358C28.4516659,11.7804899,28.4228859,11.9745264,28.4431019,12.1502857
		z"/>
	<path style="fill:#838CAF;" d="M26.450758,18.3549538c0.2961197-0.0714836,0.5922356-0.1429653,0.8883801-0.2145042
		c-0.0117664,0.1333332-0.0235558,0.2667274-0.035347,0.4001198c-0.3662357-0.0901337-0.4457569,0.4934254-0.8327885,0.3544235
		c-0.0745564-0.0075016-0.1491127-0.0150051-0.2236691-0.0225086c-0.3384876,0.0023975-0.4090862-0.1150894-0.1667442-0.3726234
		c0.0955296,0.0190945,0.1910496,0.0381947,0.2865696,0.0572929L26.36483,18.5570164
		C26.3934727,18.4896622,26.4221134,18.422308,26.450758,18.3549538z"/>
	<path style="fill:#838CAF;" d="M29.304554,18.3044357c0.0035191-0.0547638,0.0040112-0.1095524,0.0015106-0.1643867
		c0.0842667-0.0743332,0.1684952-0.1486473,0.2527237-0.2229633c0.2229481,0.1992607,0.4305515,0.4073772,0.4257641,0.7378578
		c-0.0516796,0.0047188-0.1031246,0.0093975-0.1545353,0.0139599C29.6548977,18.5474319,29.479723,18.4259338,29.304554,18.3044357z
		"/>
	<path style="fill:#54637C;" d="M26.2473335,18.8724842c0.0745564,0.0075035,0.1491127,0.015007,0.2234306,0.0221825
		c0.0664368,0.3343906,0.2824554,0.7502384-0.3758583,0.6911049l-0.0167675-0.0133228
		c-0.0049438-0.0785999-0.0099354-0.1572208-0.0149269-0.2358398C26.124588,19.1819019,26.1859627,19.0271931,26.2473335,18.8724842
		z"/>
	<path style="fill:#373D4F;" d="M25.3836098,19.7154331c-0.0439625,0.2527905,0.1173878,0.6748219-0.4255447,0.5162392
		C25.0760078,20.0398293,25.1418571,19.80513,25.3836098,19.7154331z"/>
	<path style="fill:#F2F2F3;" d="M32.2144279,21.7118301c-0.3420773-0.0300674-0.3994255-0.2302017-0.3094387-0.5182457
		C32.2213936,21.2391014,32.2073517,21.4817677,32.2144279,21.7118301z"/>
	<path style="fill:#6F7288;" d="M26.3671589,18.5571537c-0.09552-0.0190983-0.19104-0.0381985-0.2865696-0.0572929
		c0.1236744-0.1516552,0.2473526-0.3033161,0.3709431-0.4548111c-0.0003128,0.1031742-0.000536,0.2061825-0.0007687,0.3095474
		c-0.0286503,0.0677109-0.057291,0.1350651-0.085762,0.202507L26.3671589,18.5571537z"/>
	<path style="fill:#838CAF;" d="M27.5263653,17.0514488c0.0055084-0.1656971-0.0104809-0.3198776-0.2031879-0.379406
		c0.0045738-0.0483837,0.0139484-0.0957756,0.0281734-0.1421986c0.0559769-0.0057869,0.1114025-0.0148678,0.1663208-0.0271912
		c0.0628757,0.0458565,0.125721,0.0916691,0.188633,0.1378632c0.0099068,0.0779228,0.0197506,0.1554661,0.0295944,0.2330112
		C27.6660538,16.9328346,27.5962105,16.9921417,27.5263653,17.0514488z"/>
	<path style="fill:#54637C;" d="M29.5587883,17.9170856c-0.0842285,0.074316-0.168457,0.1486301-0.2527237,0.2229633
		c-0.2865162-0.2935143-0.0785713-0.3448238,0.1814899-0.3706551C29.5443974,17.8026085,29.5681515,17.85186,29.5587883,17.9170856z
		"/>
	<path style="fill:#373D4F;" d="M26.0632114,19.3366089c0.0049915,0.078619,0.0099831,0.1572399,0.0149269,0.2358398
		c-0.1622143,0.0520954-0.3243828,0.1042023-0.4873886,0.1557522C25.486742,19.2814617,25.8769951,19.4325161,26.0632114,19.3366089
		z"/>
	<path style="fill:#E0E0E1;" d="M33.063446,38.7871704c0.1746025-0.2884483,0.3616333-0.5646362,0.6909561-0.7004623
		c0.6737404,0.3152161,0.7953758,0.8528366,0.4161263,1.5752411c-1.0947723,2.08535-2.9616756,2.8215981-5.1570072,2.9399796
		c-1.4991932,0.0808525-2.9608421-0.1674957-4.3593826-0.7359352c-1.1288719-0.4588318-2.1910324-2.3494835-1.990591-3.5423164
		c0.1181011,0.0570641,0.2362041,0.1141243,0.3543034,0.1711845c0.120491,0.1779213,0.2409782,0.3558388,0.3614635,0.5337601
		c0.0769367,0.7046967,0.4679432,1.2244339,1.0380611,1.5861664c2.2918987,1.4541855,4.7004147,1.3980064,7.0885658,0.3413582
		C32.3537025,40.5810509,33.1237144,39.924057,33.063446,38.7871704z"/>
	<path style="fill:#1C1E2B;" d="M23.3793163,39.0286217c-0.1204872-0.1779213-0.2409744-0.3558388-0.3614655-0.5337601
		c0.7213268-0.4299316,1.2156277-1.8273163,0.8153877-2.9956856c-0.4232101-1.2354393,0.6039238-1.8218842,0.9828777-2.6795959
		c0.1505356-0.3407173,0.7009468,0.156765,1.0854187,0.0723953c0.2994843,0.2729836,0.6200562,0.4932251,1.0566463,0.4240036
		l-0.0028934,0.0289955c-0.2242737,0.6536522,0.1813259,0.6304855,0.6173954,0.5745811l0.0094376,0.0020294
		c-0.1116238,0.2823715,0.1419792,0.5055771,0.1245785,0.7725792c0.1127377,0.0906715,0.2141838,0.203289,0.3402004,0.2681847
		c0.5229664,0.2693024,0.8054371,0.5994492,0.3930683,1.1839752c-0.0561409,0.0795822-0.0121193,0.2298241-0.014473,0.3473473
		c-0.6804867-0.1417122-1.3757305-0.3209343-2.0046425-0.5514717c-1.2631626-0.4630241-2.0714054-0.0211868-2.1721077,1.3236237
		c-0.0470924,0.6289291,0.2492504,1.4063225-0.4955368,1.8700218
		C23.6285763,39.1001015,23.5039482,39.0643654,23.3793163,39.0286217z"/>
	<path style="fill:#292C3F;" d="M25.9035606,27.3127308c-0.1074848-0.4257622-0.215374-0.8282776-0.0339432-1.2873917
		c0.2720871-0.6885128-0.5167274-1.2449512-0.3225727-1.9489498l-0.000433,0.000433
		c0.8946972-0.4091015,0.6226788,0.4862366,0.855526,0.8476715c0.5132008-0.3254871,0.3704586-0.802393,0.4130497-1.2171364
		c0.2397251-0.0013504,0.5304546-0.0005264,0.5068607-0.3249187c-0.0461311-0.6342564,0.2252693-1.2583942,0.0395374-1.8918037
		c0.0977802,0.0035076,0.1955624,0.007021,0.2933426,0.0105324c0.2689381,0.2662296,0.286726,0.5996494,0.3442936,0.9579182
		c0.1102962,0.6864128-0.2086353,1.3605442-0.0519104,2.0066376c0.1753101,0.7227135,0.2933292,1.4015675-0.0482502,2.0933971
		c-0.5670547-0.1204357-0.8383293,0.4013023-1.2662144,0.5830956c-0.2770653-0.0898342-0.5326195-0.0912762-0.7230339,0.175499
		L25.9035606,27.3127308z"/>
	<path style="fill:#373D4F;" d="M23.2191525,31.0940952c0.1195755-0.4336643,0.1195755-0.4336662-0.1881695-0.5572777
		c-0.1849995-0.0743065-0.2488861-0.3250599-0.0750885-0.4120922c0.7549152-0.3780537,1.1121559-0.738636,0.376749-1.5571613
		c-0.2002392-0.2228699,0.0401554-0.9611187,0.3025322-1.4446869c0.3568001,0.4447956-0.3066387,0.9356651,0.1322746,1.4313622
		c0.4014835-0.8972626,0.4677372-1.8095875,0.6973267-2.6754627c0.0844383-0.3184452,0.1199436-0.6600266,0.5407162-0.7198639
		c0.0214958,0.7794857-0.3409443,1.483593-0.4677696,2.2396851c-0.14674,0.8748379-0.3422909,1.758852-0.5478153,2.6302147
		c-0.2980022,1.2634525-0.6167717,2.5087166-0.6802349,3.8211365c-0.0300808,0.6220589-0.1644917,1.2276726,0.020977,1.8460083
		c0.0855179,0.2851181,0.0851173,0.5780067-0.0924168,1.0401649c-0.6317863-0.9214821-0.3989277-1.8114777-0.3223858-2.6371078
		C23.0086937,33.0975494,23.2317829,32.1080246,23.2191525,31.0940952z"/>
	<path style="fill:#12141A;" d="M26.6329155,27.142292c0.4278164-0.1818695,0.699091-0.7036076,1.2660141-0.5827808
		c0.2423325,0.0121708,0.4848022,0.0239449,0.7272682,0.0357151c-0.0041065,0.1052437-0.0082111,0.2104874-0.0123196,0.3157291
		c-0.5213261,0.1394901-1.2088871-0.2330551-1.5377598,0.4992371c-0.9791965,1.9498367-1.2780914,3.9132442-0.1178131,5.9057598
		c-0.4367142,0.0692482-0.7572861-0.1509933-1.0567703-0.4239769c0.1305389-0.237133,0.2384892-0.4809036,0.1467342-0.7586098
		c-0.4015083-1.2151909-0.2485771-2.3977127,0.2041321-3.5634613c-0.0512218-0.2344437-0.1026096-0.4689503-0.1539974-0.7034588
		C26.5041389,27.7930317,26.5637684,27.4641476,26.6329155,27.142292z"/>
	<path style="fill:#292C3F;" d="M26.0984039,27.8664455c0.0513878,0.2345085,0.1027756,0.4690151,0.1539974,0.7034588
		c-0.399229,0.0566578-0.5983524-0.1817493-0.6652756-0.5166626c-0.0585518-0.2930317-0.1645203-0.6564121,0.316473-0.7404785
		l0.0061779,0.0049324C25.9726276,27.5006008,26.0355148,27.6835251,26.0984039,27.8664455z"/>
	<path style="fill:#232534;" d="M26.8152962,23.7072392c-0.0426998,0.4148617,0.1000423,0.8917675-0.4131584,1.2172546
		c-0.2328472-0.3614349,0.0391712-1.256773-0.855526-0.8476715c0.2244453-0.7736549-0.0401115-1.6596546,0.540247-2.3514233
		c0.0613518,0.0023212,0.1226807,0.0045147,0.1840115,0.0067081c0.0285606,0.079237,0.0571232,0.1584759,0.0856876,0.2377129
		c0.0282021-0.0792484,0.0564022-0.1584969,0.0846024-0.2377453c0.1358986-0.0109692,0.2717953-0.0219402,0.4076462-0.0328274
		c0.1033192,0.0055714,0.2066841,0.011055,0.3100452,0.0165424c0.0012646,0.0665131,0.0025272,0.1330261,0.0037899,0.1995411
		c-0.6445847,0.1955605-0.2404976,0.7243271-0.3466454,1.0909729
		C26.8157635,23.2399483,26.8155308,23.4735947,26.8152962,23.7072392z M26.380352,23.3115063
		c-0.0497246-0.0211639-0.110199-0.0697842-0.1461277-0.0557156c-0.0353909,0.0138588-0.0459099,0.0912342-0.0673409,0.1407413
		c0.0495701,0.0212498,0.1101418,0.0701275,0.1456242,0.0559998C26.3481827,23.4383259,26.3588886,23.3614101,26.380352,23.3115063z
		"/>
	<path style="fill:#373D4F;" d="M26.2708702,21.7321072c-0.0613308-0.0021935-0.1226597-0.0043869-0.1840115-0.0067081
		c-0.6390324-0.2524109-0.888504,0.2278786-1.1070824,0.6459255c-0.1805954,0.3454056-0.3115463,0.3310623-0.5251675,0.0694122
		c0.1222477-1.2155018,1.1527004-1.9103737,2.3670406-1.5967083l0.0265713,0.0186615
		c0.0625496,0.2786808-0.230999,0.557869,0.0006313,0.8364735c-0.1358967,0.0109711-0.2717934,0.0219421-0.4076271,0.0329742
		C26.3844795,21.7335701,26.3276749,21.7335396,26.2708702,21.7321072z"/>
	<path style="fill:#373D4F;" d="M21.5882015,31.631012c0.2986965-0.6421814,0.1502743-1.442337,0.7044125-1.9943428
		c0.0597897,1.0155525-0.5176754,1.9475784-0.3813934,2.9811935c0.0345364,0.2619514-0.2689266,0.2611542-0.472681,0.2868843
		C21.4435482,32.4749413,21.0246181,31.9953785,21.5882015,31.631012z"/>
	<path style="fill:#373D4F;" d="M23.7617798,24.2603436c0.0663147-0.5643692,0.1734715-1.1099491,0.6772709-1.4731998
		C24.8042431,23.5496235,24.6109867,24.055666,23.7617798,24.2603436z"/>
	<path style="fill:#373D4F;" d="M22.8739624,27.1433544c0.1253376-0.5561295,0.1728344-1.1364632,0.506134-1.6279011
		C23.6465073,26.1933746,23.6770954,26.7979565,22.8739624,27.1433544z"/>
	<path style="fill:#373D4F;" d="M22.403038,29.5155506c-0.0569801-0.0023479-0.1125107-0.0125732-0.1673775-0.0307999
		c0.0698109-0.1255322,0.1404095-0.2509384,0.2106304-0.3763618C22.7320938,29.2757301,22.6191235,29.4010677,22.403038,29.5155506z
		"/>
	<path style="fill:#373D4F;" d="M23.5588455,25.1451454c0.0513573-0.118269,0.1027164-0.2365417,0.1537991-0.3548317
		C24.0329952,25.0694332,23.8050976,25.1112633,23.5588455,25.1451454z"/>
	<path style="fill:#373D4F;" d="M23.1051636,29.5480194c-0.0146656-0.0504112-0.0222054-0.0763226-0.0297451-0.1022377
		c0.0222492-0.0063896,0.0445004-0.0127792,0.0667496-0.0191669C23.1319103,29.4602737,23.1216488,29.4939327,23.1051636,29.5480194
		z"/>
	<path style="fill:#54637C;" d="M34.7033005,32.5627747c-0.1170883-0.0038338-0.2341766-0.0076714-0.3511276-0.0117073
		c-0.0058784-0.1194992-0.011898-0.2387962-0.0179176-0.3580933c-0.1258011-0.8846169-0.5277786-1.2341003-1.2618713-1.0970993
		c-0.7687874-0.5105057-1.1388931-1.3711205-1.7636395-2.0081787c0.2542133-0.5770226-0.5126209-0.863308-0.398838-1.4003429
		c0.0129986-0.4385471,0.1130409-0.8839931-0.0446243-1.312006c-0.230175-0.6248322-0.3960114-1.2553139-0.2932587-1.9288635
		c0.1285267-0.0076256,0.2570515-0.0152512,0.3855801-0.0228767c0.3490543,0.7805595,0.2039833,1.7234325,0.7972851,2.429142
		c-0.0724201-1.414547-0.4604511-2.746521-0.989872-4.0438747c0.0070839-0.1938667-0.0319347-0.4028378,0.1741543-0.5314941
		c0.2403774,0.7282352,0.4807549,1.4564686,0.7209206,2.1840572c0.3414383,0.0211029,0.0522976-0.3889408,0.3176079-0.3922691
		c0.7228813,1.2202625,0.8181076,2.6576366,1.3152847,3.9612026c0.3337173,0.9721012,0.6502609,1.9505882,1.0077705,2.9138699
		C34.4967384,31.4723053,34.7854958,31.9687214,34.7033005,32.5627747z M31.8307552,27.8559513
		c-0.0523129,0.5545597-0.0716076,1.1004238,0.4274464,1.641716c0.1945496-0.6661968-0.0653114-1.1472626-0.2185822-1.641716
		c-0.0206451-0.195919-0.0412922-0.3918419-0.0670948-0.6367111C31.7697277,27.4467392,31.8679962,27.6626625,31.8307552,27.8559513
		z M32.5550346,27.1144638c-0.0107956-0.1117516-0.0147781-0.2431164-0.1608124-0.2496262
		c-0.1528931-0.006815-0.1839867,0.1249275-0.1521912,0.2325859c0.0280838,0.0950966,0.1036377,0.2324352,0.1777649,0.2462444
		C32.5863152,27.3746815,32.5394554,27.2119331,32.5550346,27.1144638z M32.7637901,28.0392933
		c-0.0462646-0.0760803-0.085659-0.1408577-0.1250458-0.205637c-0.0240288,0.0513306-0.0699654,0.1039028-0.0671387,0.1537056
		c0.0046692,0.0821304,0.0408554,0.162466,0.063755,0.2435608C32.6755867,28.1709023,32.7158127,28.1108818,32.7637901,28.0392933z
		 M31.9395351,24.9170418c-0.1492825,0.154377-0.1300373,0.3060799-0.012125,0.4677353
		C32.0720673,25.2298775,32.0582619,25.0783157,31.9395351,24.9170418z M32.5584068,29.7900982
		c0.024292-0.0128384,0.048584-0.0256786,0.072876-0.038517c-0.021225-0.0170841-0.041378-0.0458908-0.0639801-0.0479584
		c-0.0227242-0.002079-0.0478859,0.0224495-0.0719833,0.0353165C32.5163498,29.7559929,32.5373764,29.7730446,32.5584068,29.7900982
		z"/>
	<path style="fill:#54637C;" d="M34.6963425,35.6258926c-0.520977-0.3254547-0.805481-0.6471214,0.0150948-0.9512939
		C34.7063255,34.9915733,34.7013321,35.3087311,34.6963425,35.6258926z"/>
	<path style="fill:#373D4F;" d="M30.5720234,24.4464836c-0.1027527,0.6735497,0.0630836,1.3040314,0.2932587,1.9288635
		c0.1576653,0.4280128,0.0576229,0.8734589,0.0449753,1.3118992c-0.6435719-0.1591339-1.1307926-0.6808128-1.8012009-0.7785339
		c0.1426983-0.9605961-0.2166901-1.8782635-0.2232494-2.82868c-0.2711143,0.8245888,0.1269398,1.7075977-0.2596092,2.5151939
		c-0.242466-0.0117702-0.4849358-0.0235443-0.7272682-0.0357151c0.341711-0.6922207,0.2236919-1.3710747,0.0483818-2.0937881
		c-0.1567249-0.6460934,0.1622066-1.3202248,0.0519104-2.0066376c-0.0575676-0.3582687-0.0753555-0.6916885-0.3437881-0.9572487
		c0.046299-0.2316227,0.0456505-0.5145416,0.4228821-0.3044243c0.2503033,0.1394157,0.4611301,0.3978252,0.8017368,0.3023415
		c0.1337299,0.0051098,0.2674637,0.0102196,0.4011955,0.0153294c0.0667381,0.0190639,0.1334801,0.0381279,0.2001896,0.0570412
		c0.0816479,0.7684345,0.7083778,1.3419914,0.7591763,2.1216259C30.1805916,24.0197239,30.3472919,24.2458782,30.5720234,24.4464836
		z M29.4963036,24.5946999c0.0824413,0.596487,0.1648846,1.1929722,0.247324,1.7894573
		C29.8034687,25.7741566,30.002573,25.1544952,29.4963036,24.5946999z"/>
	<path style="fill:#E0E0E1;" d="M29.2812481,21.5150833c-0.1337318-0.0051098-0.2674656-0.0102196-0.4013119-0.0153522
		c-0.0925426-0.549099-0.1238079-1.1126556-0.3840256-1.6220188c-0.1587658-0.5283146-0.1199741-1.1372452-0.6877613-1.6674118
		c-0.0798969,0.5979996-0.1428642,1.0692825-0.2058296,1.5405636c-0.0439281,0.1061859-0.0878582,0.2123718-0.1317387,0.3185558
		c-0.107832,0.0046597-0.2157192,0.0093231-0.3236046,0.0139828c0.0522728-0.5142784,0.1045437-1.0285549,0.1568146-1.5428333
		c0.0117912-0.1333923,0.0235806-0.2667866,0.035347-0.4001198c0.1605949-0.2093353,0.2698307-0.4331264,0.1982861-0.7076683
		c0.1175098-0.0526085,0.2350216-0.1051311,0.3525333-0.1576538c0.2182255,0.3616409,0.436451,0.7232838,0.6546783,1.0849247
		l0.0219193-0.0110416c0.0003529,0.2480106-0.0324306,0.5058346,0.2026691,0.6843243l0.008482,0.0229988
		c-0.0300484,0.0541306-0.028986,0.1076431,0.0031891,0.1605377C28.7279243,20.0307846,29.4733696,20.6708736,29.2812481,21.5150833
		z"/>
	<path style="fill:#6F7288;" d="M30.5720234,24.4464836c-0.2247314-0.2006054-0.3914318-0.4267597-0.3314095-0.7527332
		c0.5148716-0.6572933-0.0878506-1.298996-0.0271969-1.9499569c0.1290112,0.0582523,0.2580242,0.1165028,0.3868961,0.1747398
		c0.1015625-0.0038471,0.2032681-0.0076752,0.3049679-0.0115032c0.0113354,0.1234474,0.0226707,0.2468987,0.0339451,0.3703499
		c-0.2061443,0.1286564-0.1671257,0.3376274-0.1742077,0.5315723c-0.0297756,0.5494785,0.0146866,1.0900269,0.192585,1.6146545
		C30.8290749,24.4312325,30.7005501,24.438858,30.5720234,24.4464836z"/>
	<path style="fill:#54637C;" d="M29.304554,18.3044357c0.175169,0.1214981,0.3503437,0.2429962,0.5254631,0.3644676
		c0.4705353,0.4119968,1.0558548,0.7352943,1.1264076,1.4566765c-0.2327633-0.0560665-0.4655323-0.1121464-0.6983356-0.1682587
		c-0.3639278-0.4961815-0.4306946-1.2930641-1.2965851-1.2810688c-0.0120354-0.1061859-0.0241203-0.2123699-0.0362034-0.3185539
		c0.0243244-0.0237179,0.0489101-0.0471611,0.0737572-0.0703316C29.1008911,18.2930565,29.2027206,18.2987461,29.304554,18.3044357z
		"/>
	<path style="fill:#E0E0E1;" d="M30.2134171,21.7437935c-0.0606537,0.6509609,0.5420685,1.2926636,0.0271969,1.9499569
		c-0.0507984-0.7796345-0.6775284-1.3531914-0.7591763-2.1216259
		C29.7910633,21.3494549,30.0274639,21.4389744,30.2134171,21.7437935z"/>
	<path style="fill:#292C3F;" d="M28.9614563,18.6762505c0.8659382-0.0119934,0.9327049,0.7848892,1.2966328,1.2810707
		c-0.2765617,0.3091393-0.4510021,0.0981884-0.6179943-0.1246815c-0.192131-0.256424-0.3777885-0.5180435-0.6819172-0.6573849
		c-0.0600605-0.0395679-0.1202679-0.0792446-0.1804714-0.1189213l-0.0084667-0.022953
		C28.8333206,18.9143677,28.8973885,18.7953091,28.9614563,18.6762505z"/>
	<path style="fill:#54637C;" d="M30.9052811,21.9070301c-0.1016998,0.003828-0.2034054,0.0076561-0.3049679,0.0115032
		c0.0228024-0.1352558,0.0454674-0.270525,0.0681305-0.4057961C30.8904114,21.55826,30.9150696,21.7222996,30.9052811,21.9070301z"
		/>
	<path style="fill:#373D4F;" d="M28.7777061,19.0563335c0.0602036,0.0396767,0.1204109,0.0793533,0.1804714,0.1189213
		c-0.059164,0.0138435-0.1181812,0.027792-0.1772404,0.0416775C28.7487202,19.1639767,28.7476578,19.1104641,28.7777061,19.0563335z
		"/>
	<path style="fill:#373D4F;" d="M27.303791,18.5405693c-0.0522709,0.5142784-0.1045418,1.0285549-0.1568966,1.5431614
		c-0.2763309,0.1921806-0.0820141,0.5642796-0.2983761,0.7790661l-0.0268688-0.0187683
		c-0.0611649-0.3413582,0.1343021-0.8249969-0.5187225-0.8256435c-0.159996-0.0001564-0.2100468-0.2500477-0.2080612-0.4326458
		c0.6583538,0.059166,0.4423351-0.3566818,0.3758984-0.6910725C26.8580341,19.0339947,26.9375553,18.4504356,27.303791,18.5405693z"
		/>
	<path style="fill:#EEED46;" d="M31.3088417,29.0876713c0.624649,0.6370831,0.9947548,1.4976978,1.7636719,2.0082779
		c0.0872612,0.1784954-0.0345879,0.4392052,0.2177086,0.5525799c-0.0430527,0.1984329,0.0853081,0.3195839,0.1919518,0.4599648
		c0.6255722,0.8234711,0.7983627,1.6699562,0.1036339,2.5492172c-0.2190323,0.1298294-0.4380646,0.259655-0.6571579,0.389534
		c-0.0807762,0.0164909-0.1614876,0.0329247-0.2421989,0.0493584c-1.7873421-0.0182724-3.4978924-0.3700638-5.104063-1.1751862
		l-0.0098934-0.0015564c-0.2058601-0.1914253-0.4115334-0.3831558-0.6172066-0.5748863l0.0028934-0.0289955
		c-1.1601543-1.9925423-0.8612595-3.9559498,0.1179504-5.905735c0.039402,0.0383148,0.0793095,0.0760326,0.1194706,0.1129684
		c-0.1700478,0.9304733-0.3654461,1.853302-0.488905,2.7962074c-0.1638241,1.2511654-0.2089596,1.277956,1.0646667,1.2080536
		c0.1358242-0.0074539,0.2803421,0.1206398,0.4157753-0.0512352c-0.0778141-0.4980202-0.5439491-0.5687771-0.8873672-0.7723446
		c-0.2717686-0.1610985-0.3608131-0.397337-0.2717819-0.6857166c0.1145687-0.3710785,0.4368629-0.3918476,0.7344761-0.3347683
		c0.2468777,0.047348,0.6154575,0.0133553,0.5049038,0.4982529c-0.112648,0.4940662,0.3216801,0.3271275,0.5545597,0.3957386
		c0.0253162,0.1081905,0.1097298,0.2673302,0.0670166,0.3168755c-0.5780277,0.6705074-0.4853554,1.3311272,0.0241013,2.0411148
		c0.0761414-0.571167,0.2766037-1.042408,0.7619534-1.33955c0.0734177,0.2576809,0.4216385,0.4204445,0.2615776,0.7588272
		c-0.0390167,0.3181572-0.082859,0.6355705-0.1148281,0.9541779c-0.0402641,0.4012566,0.0184479,0.7253838,0.5508423,0.6310234
		c0.3453159,0.3959923,0.7349701,0.4847412,1.1827869,0.1713181c0.0000381,0.0006371,0.0487461,0.0290985,0.0487461,0.0290985
		l0.0514469-0.0231514c0.1661892-0.0065842,0.3470478,0.0192566,0.4213009-0.1905746l0.0432434,0.0144157l0.0371857-0.0263672
		c0.2510376,0.2893486,0.201046-0.0554619,0.2783394-0.132122c0.3107033-0.8398323,0.1611443-1.4546165-0.5152683-2.1180496
		c-0.0655022-0.0855179-0.1310043-0.1710358-0.1965065-0.2565517c-0.1248436,0.1112633-0.277544,0.2124901-0.1494751,0.4148769
		c-0.0600014-0.0010376-0.1200047-0.0020733-0.1798992-0.0030899c0.1152897-0.1552582-0.0532932-0.2478752-0.0819073-0.3714008
		c-0.0177784-0.1698589-0.0355606-0.3397217-0.053339-0.5095825c0.7814522-0.3312283,0.45331-0.7176685,0.0011177-1.0008545
		c-0.8146896-0.5102043-1.4093227-0.3747673-2.1146221,0.3913212c-0.6245708-0.6418171,0.2952557-0.5127907,0.3968487-0.79216
		c-0.8974495-0.6270771-0.9262409-0.7776127-0.3671837-1.9140797c0.4420033,0.0243759,0.8614292,0.0912914,1.0646477,0.5651951
		c-0.220602,0.0766392-0.6010513-0.0166874-0.5126343,0.4075565c0.060545,0.290493,0.2203617,0.5961361,0.5592194,0.5820351
		c0.3759556-0.0156384,0.2416859-0.3933735,0.317667-0.6194077C30.8391514,28.7347527,31.0739975,28.9112129,31.3088417,29.0876713z
		"/>
	<path style="fill:#292C3F;" d="M31.845892,35.4222412c0.2148876,0.969635,0.2772617,1.9805107,0.8300114,2.8577118
		c0.099514,0.1579285,0.0660706,0.3996391,0.093956,0.602562c-0.1250954,0.1088753-0.2501373,0.2178535-0.3752022,0.3267555
		c-0.2198639,0.0891457-0.4757137,0.1330986-0.6538372,0.2747726c-1.3763218,1.0946884-2.9774208,1.2741241-4.6429195,1.1390953
		c-0.7306423-0.0592384-1.471077-0.1831398-1.9505768-0.8555984c1.3230915,0.4584541,2.6944218,0.3108368,4.0540276,0.3348656
		c0.653286,0.0115471,1.2270432-0.1600838,1.7401085-0.5552483c0.5886955-0.3729744,0.7788239-0.8828011,0.6005402-1.5657959
		c-0.2220573-0.8506851-0.4014969-1.7124901-0.5993404-2.5694923C31.2437382,35.4153252,31.5448151,35.4187851,31.845892,35.4222412
		z"/>
	<path style="fill:#A5A5A6;" d="M32.39468,39.2093468c0.125042-0.1089783,0.2500839-0.2179565,0.3751793-0.3268318
		c0.0979271-0.0316849,0.195797-0.0634727,0.2936287-0.0953026c0.0602264,1.1368446-0.7097855,1.7938385-1.5575466,2.1689339
		c-2.3881512,1.0566483-4.7966671,1.1128273-7.0885658-0.3413582c-0.570118-0.3617325-0.9611244-0.8814697-1.0380611-1.5861664
		c0.1246338,0.0357437,0.2492619,0.0714798,0.3738937,0.1072273c0.0641079,0.0701904,0.1282196,0.140377,0.1923294,0.2105637
		c0.033493,0.557724,0.4718876,0.8189926,0.8558865,1.0772858c1.5579243,1.047924,5.2775517,1.1360512,7.3245716-0.3581123
		C32.4375076,39.8382034,32.5077858,39.5583382,32.39468,39.2093468z"/>
	<path style="fill:#12141A;" d="M31.845892,35.4222412c-0.3010769-0.0034561-0.6021538-0.006916-0.9032021-0.0103531
		c-0.1175499-0.0583-0.2351265-0.1166191-0.352705-0.1749344c-0.9856129-0.0506592-1.8531742-0.7284393-2.883276-0.542778
		c0.0173912-0.2670135-0.2362118-0.4902191-0.124588-0.7725906c1.6064377,0.8049545,3.316988,1.1567459,5.1047306,1.1750412
		c0.0163803,0.1361237-0.0211868,0.2421875-0.1623611,0.2901192C32.2875099,35.1924667,32.0652428,35.27948,31.845892,35.4222412z"
		/>
	<path style="fill:#505127;" d="M33.5858078,34.657711c0.6947289-0.879261,0.5219383-1.7257462-0.1036339-2.5492172
		c-0.1066437-0.1403809-0.2350044-0.2615318-0.1920662-0.4601154c0.4730377-0.0583191,0.6551933,0.4413509,1.0441475,0.5445957
		c0.0060196,0.119297,0.0120392,0.2385941,0.0179176,0.3580933c0.0023499,0.4461517,0.0245819,0.8931122,0.0018959,1.3377762
		C34.3301659,34.3574905,34.1258583,34.6855431,33.5858078,34.657711z"/>
	<path style="fill:#54637C;" d="M32.5244904,35.3867455c0.1411743-0.0479317,0.1787415-0.1539955,0.1623611-0.2901192
		c0.0803108-0.0164566,0.1610222-0.0328903,0.2417984-0.0493813c0.3079262,0.6589279,0.1914063,1.3085289-0.1297913,1.9729004
		C32.7074013,36.4756775,32.6159477,35.9312134,32.5244904,35.3867455z"/>
	<path style="fill:#292C3F;" d="M32.8558121,37.8039665c-0.0223465-0.0079346-0.0632553-0.015274-0.06353-0.0239182
		c-0.000824-0.0254707,0.014473-0.0514526,0.0234566-0.0772285c0.0223618,0.0079269,0.0633125,0.0152855,0.0635796,0.0238991
		C32.8800964,37.7522011,32.8648148,37.778183,32.8558121,37.8039665z"/>
	<path style="fill:#A5A5A6;" d="M26.7084217,4.1285162c-0.0175915-0.1343327-0.0351868-0.2686656-0.0527763-0.4030101
		c0.4889183-0.4646051,0.9129524-0.9803197,1.2394962-1.5726745c0.3315659-0.0789769,0.6468868-0.1304865,0.4314423,0.3874786
		c-0.076498,0.1839094-0.0888157,0.3357482,0.0765362,0.4695208c0.000288,0.7334988-0.2110901,1.4728212,0.3822212,2.1449571
		c0.2403088,0.272234-0.0213528,0.6492209-0.4408569,0.7435842c-0.0839119,0.0018506-0.1678257,0.0036964-0.2517433,0.0055428
		c-0.3526611-0.3584476-0.7629147-0.2962375-1.183033-0.1619663c-0.0865803-0.1288557-0.1731625-0.2577119-0.2597542-0.3865919
		c0.4537659,0.0380092,0.5660877-0.3921967,0.7853298-0.6307092c0.21208-0.2307239,0.6426392-0.5259004,0.3653164-0.8943527
		c-0.3726883-0.4951684-0.5409107,0.1863863-0.8336067,0.2395427C26.8801155,4.0856156,26.7945747,4.1087523,26.7084217,4.1285162z"
		/>
	<path style="fill:#505127;" d="M28.092741,5.9039149c0.0839176-0.0018463,0.1678314-0.0036922,0.2517433-0.0055428
		c-0.1161041,0.4068933-0.3971081,0.7097831-0.6387043,1.0411386c-0.2231064,0.3060021-0.4335022,0.2129874-0.6655273,0.0382824
		c-0.0180588-0.2471495,0.2324734-0.3091674,0.3296032-0.4776969C27.6110363,6.3010225,27.8518887,6.102469,28.092741,5.9039149z"/>
	<path style="fill:#E4E091;" d="M27.7062416,16.6401367c-0.062849-0.0458145-0.1256943-0.0916271-0.18857-0.1374836
		c0.114315-0.172472,0.2255802-0.3470497,0.3438339-0.5167542c0.1302948-0.1869841-0.264637-0.6399775,0.230217-0.5935974
		c0.3195572,0.029953,0.5408154,0.3401957,0.5171642,0.7290211c-0.0108166,0.1777477,0.0025635,0.3569679,0.00494,0.535511
		c-0.0781918,0.054018-0.1563511,0.1080418-0.2344627,0.1624336c-0.0533371-0.0023613-0.1027451,0.010355-0.14818,0.038517
		l-0.066473-0.0058174c0,0-0.0626678,0.0229168-0.0629063,0.0231323c-0.0002403,0.0002155-0.0278549-0.0083733-0.0278549-0.0083733
		C28.0551682,16.6227703,27.8818455,16.6296024,27.7062416,16.6401367z"/>
	<path style="fill:#E4E091;" d="M28.092741,5.9039149c-0.2408524,0.198554-0.4817047,0.3971076-0.7228851,0.5961814
		c-0.1806717-0.1755309-0.3610096-0.3515797-0.5413761-0.5275755c0.0268116-0.0768056,0.0536556-0.1536646,0.080862-0.2305484
		C27.3298264,5.6076775,27.7400799,5.5454674,28.092741,5.9039149z"/>
	<path style="fill:#54637C;" d="M21.5791588,30.0061531c0.0259094-0.0777798,0.0518188-0.1555614,0.0777283-0.233345
		c0.022295,0.0163879,0.0654697,0.0445251,0.0638332,0.0474339c-0.0385628,0.0684834-0.0819588,0.1342411-0.1243725,0.2005558
		L21.5791588,30.0061531z"/>
	<path style="fill:#6F7288;" d="M27.8899593,17.2751274c-0.1175137,0.0525227-0.2350254,0.1050453-0.3525352,0.1576538
		c-0.096735-0.0267563-0.2633171,0.0082836-0.2348499-0.1498928c0.0157776-0.0876732,0.1454391-0.1548519,0.2237797-0.2313538
		c0.0698566-0.0593929,0.1396999-0.1187,0.2092628-0.177969c0.112587-0.0022545,0.2254581-0.0045471,0.3383331-0.0068398
		c0,0,0.0276146,0.0085888,0.0278549,0.0083733C28.1085186,17.0491905,28.1050377,17.2182198,27.8899593,17.2751274z"/>
	<path style="fill:#838CAF;" d="M28.4396324,17.0459766c0.2354279,0.1018562,0.3263073,0.2907791,0.3416061,0.5738773
		c-0.2924194-0.1047993-0.3413944-0.3209248-0.3615856-0.5560875L28.4396324,17.0459766z"/>
	<path style="fill:#54637C;" d="M28.5446358,18.3600502c0.0610905-0.1447697,0.0628281-0.3619289,0.2881889-0.3320503
		c0.0655499,0.008688,0.1109982,0.1690292,0.165947,0.2596111c-0.0245609,0.0229263-0.0491467,0.0463696-0.0730019,0.0696373
		c-0.1194248-0.0030441-0.2393208-0.0056419-0.3592148-0.0082397L28.5446358,18.3600502z"/>
	<path style="fill:#54637C;" d="M28.9969673,17.1770382c0.1597977,0.100668,0.2985077,0.2177334,0.3270187,0.4204731
		C29.0281677,17.602623,28.9556828,17.4340725,28.9969673,17.1770382z"/>
	<path style="fill:#838CAF;" d="M28.231184,16.8577843c0.045435-0.028162,0.0948429-0.0408783,0.14818-0.0385151
		c0.0199108,0.0754585,0.0398712,0.1512814,0.0600529,0.2269077l-0.0197639,0.0175896
		C28.3568096,16.9951172,28.2939968,16.9264526,28.231184,16.8577843z"/>
	<path style="fill:#54637C;" d="M27.688158,12.7984762c-0.1395035-0.0868444-0.2243919-0.1743288-0.0032654-0.2656174
		C27.6858788,12.6212549,27.6870174,12.7098656,27.688158,12.7984762z"/>
	<path style="fill:#54637C;" d="M27.6801014,12.5489101c0.066803-0.0589952,0.133604-0.1179895,0.2003498-0.1769638
		C27.813633,12.4309492,27.7468681,12.4899302,27.6801014,12.5489101z"/>
	<path style="fill:#E4E091;" d="M26.7084217,4.1285162c0.086153-0.0197639,0.1716938-0.0429006,0.2585716-0.0586786
		c0.292696-0.0531564,0.4609184-0.7347112,0.8336067-0.2395427c0.2773228,0.3684523-0.1532364,0.6636288-0.3653164,0.8943527
		C27.2160416,4.96316,27.1037197,5.3933659,26.64995,5.3553567C26.6694489,4.9464254,26.6889324,4.5374703,26.7084217,4.1285162z"/>
	<path style="fill:#373D4F;" d="M26.3671589,18.5571537l-0.0021572-0.0000496
		C26.3648338,18.5570164,26.3671589,18.5571537,26.3671589,18.5571537z"/>
	<path style="fill:#54637C;" d="M28.0739498,16.8667259c-0.112875,0.0022926-0.2257462,0.0045853-0.3383331,0.0068398
		c-0.0095615-0.0775833-0.0194054-0.1551266-0.0293121-0.2330494
		C27.8818455,16.6296024,28.0551682,16.6227703,28.0739498,16.8667259z"/>
	<path style="fill:#12141A;" d="M23.9455376,39.3464127c-0.0641098-0.0701866-0.1282215-0.1403732-0.1923294-0.2105637
		c0.7447872-0.4637032,0.4484444-1.2410965,0.4955368-1.8700256c0.1007023-1.3448105,0.9089451-1.7866478,2.1721077-1.3236237
		c0.628912,0.2305374,1.3241558,0.4097595,2.0046482,0.5514641c0.0592651,0.0010414,0.1185265,0.0016251,0.1777973,0.0017471
		c0.0919075,0.3908005,0.2027683,0.7727737,0.1946735,1.1867485c-0.0074825,0.3829918,0.1646385,0.5606804,0.5285702,0.2532005
		c0.0593586-0.0008049,0.1186943-0.0023384,0.1780128-0.0045929c0.3602772,0.3259544,0.7199974,0.6562347,1.1807842,0.0334129
		c0.0981007,0.6064072,0.1770897,1.0946655,0.2560768,1.5829201c-0.5130215,0.3952217-1.0867786,0.5668526-1.7400646,0.5553055
		c-1.3596058-0.0240288-2.7309361,0.1235886-4.0538368-0.3350945C24.6575146,39.8825378,24.490675,39.0739288,23.9455376,39.3464127
		z"/>
	<path style="fill:#232534;" d="M28.6032982,36.4954109c-0.0592709-0.0001221-0.1185322-0.0007057-0.1777973-0.0017471
		c0.0023479-0.1175156-0.0416737-0.2677574,0.0144672-0.3473396c0.4123688-0.5845261,0.1298981-0.9146729-0.3930683-1.1839752
		c-0.1260166-0.0648956-0.2274628-0.1775131-0.3402004-0.2681847c1.0301113-0.1856499,1.8976727,0.4921303,2.883234,0.5427322
		c-0.1191368,0.7472,0.2699661,1.5828781-0.3568668,2.2976913c-0.0614586-0.1072311-0.1166992-0.1578712-0.1111946-0.2007027
		c0.1338806-1.0414925,0.1366482-1.0328979-0.8056297-0.8539543C29.0859203,36.5236702,28.8413277,36.4922676,28.6032982,36.4954109
		z"/>
	<path style="fill:#12141A;" d="M26.9552879,33.3449745c0.2056732,0.1917305,0.4113464,0.383461,0.6172066,0.5748863
		C27.1366138,33.9754601,26.7310143,33.9986267,26.9552879,33.3449745z"/>
	<path style="fill:#54637C;" d="M27.4705315,20.069418c0.0439301-0.1061821,0.0878601-0.212368,0.1317959-0.3186169
		c0.2202663-0.0819988,0.4662952-0.363533,0.6099319,0.0945759c0.0592556,0.1889744,0.1692505,0.194067,0.2836514,0.0323353
		c0.2602177,0.5093632,0.2914829,1.0729198,0.3840256,1.6220188c-0.3404903,0.0955067-0.5513172-0.1629028-0.8016205-0.3023186
		c-0.3772316-0.2101173-0.3765831,0.0728016-0.4228821,0.3044224c-0.0982857-0.004179-0.1960678-0.0076923-0.2939472-0.0104866
		c-0.0072517-0.0572548-0.018364-0.1144524-0.0334396-0.1708794C27.3755417,20.9034538,27.4230347,20.486433,27.4705315,20.069418z"
		/>
	<path style="fill:#373D4F;" d="M27.3280468,21.3204689c0.0150757,0.056427,0.0261879,0.1136246,0.0334396,0.1708794
		c0.1858311,0.6326962-0.0855694,1.256834-0.0394382,1.8910904c0.0235939,0.3243923-0.2671356,0.3235683-0.5068607,0.3249187
		c0.0003433-0.2337627,0.000576-0.4674091,0.0007-0.7011528c0.6337109-0.1989021,0.2362957-0.7256393,0.3467541-1.0908737
		c-0.0012627-0.066515-0.0025253-0.133028-0.0037498-0.1995316C27.1576939,21.5593853,27.1885338,21.4166851,27.3280468,21.3204689z
		"/>
	<path style="fill:#232534;" d="M26.0984039,27.8664455c-0.0628891-0.1829205-0.1257763-0.3658447-0.1886272-0.5487499
		c0.1904507-0.2667561,0.4460049-0.2653141,0.7230701-0.1754799C26.5637684,27.4641476,26.5041389,27.7930317,26.0984039,27.8664455
		z"/>
	<path style="fill:#54637C;" d="M28.6261978,26.5952263c0.386549-0.8075962-0.0115051-1.6906052,0.2596092-2.5151939
		c0.0065594,0.9504166,0.3659477,1.868084,0.223381,2.8290043c-0.1082001,0.0197639-0.2165337,0.0392075-0.3248653,0.0586472
		c-0.0568161-0.0189095-0.1136284-0.0378208-0.1704445-0.0567284C28.6179867,26.8057137,28.6220913,26.70047,28.6261978,26.5952263z
		"/>
	<path style="fill:#EEED46;" d="M28.6138783,26.9109554c0.0568161,0.0189075,0.1136284,0.0378189,0.1703339,0.0566082
		c0.0386734,0.0833874,0.0774536,0.1668949,0.1161404,0.2504368c-0.557333,0.1626358-1.1692429,0.0201035-1.7044849,0.3054447
		c-0.0404263-0.0371685-0.0803337-0.0748863-0.1197357-0.1132011
		C27.4049911,26.6779003,28.0925522,27.0504456,28.6138783,26.9109554z"/>
	<path style="fill:#838CAF;" d="M27.3280468,21.3204689c-0.139513,0.0962162-0.1703529,0.2389164-0.1691551,0.3953304
		c-0.1034012-0.005497-0.2067661-0.0109806-0.3100853-0.016552c-0.2315845-0.2786884,0.061964-0.5578766-0.0005856-0.8365574
		c0.2166595-0.2146797,0.0223427-0.5867786,0.2986736-0.7789555c0.1079674-0.0049915,0.2158546-0.009655,0.3236866-0.0143147
		C27.4230347,20.486433,27.3755417,20.9034538,27.3280468,21.3204689z"/>
	<path style="fill:#292C3F;" d="M27.1626434,21.9153309c-0.1104603,0.3652344,0.2869549,0.8919716-0.346756,1.0908737
		C26.9221439,22.639658,26.5180569,22.1108913,27.1626434,21.9153309z"/>
	<path style="fill:#292C3F;" d="M26.3804436,23.311739c-0.0215549,0.0496712-0.0322609,0.1265869-0.0679359,0.1407928
		c-0.0354824,0.0141277-0.0960541-0.03475-0.1456242-0.0559998c0.021431-0.0495071,0.03195-0.1268826,0.0673409-0.1407413
		C26.270153,23.2417221,26.3306274,23.2903423,26.3804436,23.311739z"/>
	<path style="fill:#292C3F;" d="M26.2708702,21.7321072c0.0568047,0.0014324,0.1136093,0.0014629,0.1703548,0.0000305
		c-0.028265,0.0791855-0.0564651,0.1584339-0.0846672,0.2376823C26.3279934,21.890583,26.2994308,21.8113441,26.2708702,21.7321072z
		"/>
	<path style="fill:#505127;" d="M28.900444,27.2179661c-0.0387783-0.0835075-0.0775585-0.1670151-0.1162319-0.2504025
		c0.1084423-0.0193195,0.2167759-0.038763,0.324976-0.058527c0.6702766,0.0973969,1.1574974,0.6190758,1.8010693,0.7782097
		c-0.1141338,0.5371418,0.6527004,0.8234272,0.3984871,1.4004498c-0.2347469-0.1764832-0.469593-0.3529434-0.7044373-0.5294018
		l-0.0102711,0.0092182c-0.0616741-0.0582142-0.1233463-0.1164303-0.1850204-0.1746445l-0.0010815-0.0011158
		c-0.019659-0.097168-0.0484295-0.1857624-0.1731853-0.1840267l0.0054817-0.0196095
		c-0.2033939-0.4739094-0.6228199-0.5408249-1.0648193-0.5651779c0.007021-0.044096-0.0015163-0.0849724-0.02561-0.1226006
		c0.006134-0.1702728-0.0920639-0.2472363-0.2456493-0.274662L28.900444,27.2179661z"/>
	<path style="fill:#838CAF;" d="M30.9576035,24.4236069c-0.1778984-0.5246277-0.2223606-1.065176-0.192585-1.6146545
		c0.5294189,1.2972755,0.91745,2.6292496,0.9898701,4.0437965C31.1615868,26.1470394,31.3066578,25.2041664,30.9576035,24.4236069z"
		/>
	<path style="fill:#373D4F;" d="M34.3342552,32.1929741c-0.3889542-0.1032448-0.5711098-0.6029148-1.0441475-0.5445957
		c-0.252182-0.113224-0.1303329-0.3739338-0.2175941-0.5524292C33.8064766,30.9588737,34.2084541,31.3083572,34.3342552,32.1929741z
		"/>
	<path style="fill:#6F7288;" d="M32.0396194,27.8559513c0.1532707,0.4944534,0.4131317,0.9755192,0.2185822,1.641716
		c-0.499054-0.5412922-0.4797592-1.0871563-0.4272938-1.6417198C31.9005795,27.8559475,31.9700985,27.8559494,32.0396194,27.8559513
		z"/>
	<path style="fill:#6F7288;" d="M32.5559158,27.1147976c-0.0164604,0.0971355,0.0303993,0.2598839-0.1361198,0.2288704
		c-0.0741272-0.0138092-0.1496811-0.1511478-0.1777649-0.2462444c-0.0317955-0.1076584-0.0007019-0.2394009,0.1521912-0.2325859
		C32.5402565,26.8713474,32.544239,27.0027122,32.5559158,27.1147976z"/>
	<path style="fill:#6F7288;" d="M32.7637901,28.0392933c-0.0479774,0.0715885-0.0882034,0.131609-0.1284294,0.1916294
		c-0.0228996-0.0810947-0.0590858-0.1614304-0.063755-0.2435608c-0.0028267-0.0498028,0.0431099-0.102375,0.0671349-0.1537056
		C32.6781311,27.8984356,32.7175255,27.963213,32.7637901,28.0392933z"/>
	<path style="fill:#838CAF;" d="M32.0396194,27.8559513c-0.069521-0.0000019-0.13904-0.0000038-0.2087116-0.0000038
		c0.0370884-0.193285-0.0611801-0.4092083,0.1416168-0.6367073C31.9983273,27.4641094,32.0189743,27.6600323,32.0396194,27.8559513z
		"/>
	<path style="fill:#838CAF;" d="M31.9395351,24.9170418c0.1187267,0.161274,0.1325321,0.3128357-0.012125,0.4677353
		C31.8094978,25.2231216,31.7902527,25.0714188,31.9395351,24.9170418z"/>
	<path style="fill:#6F7288;" d="M32.5584068,29.7900982c-0.0210304-0.0170536-0.042057-0.0341053-0.0630875-0.051157
		c0.0240974-0.0128689,0.0492592-0.0373974,0.0719833-0.0353184c0.0226021,0.0020676,0.0427551,0.0308743,0.0639801,0.0479584
		C32.6069908,29.7644196,32.5826988,29.7772598,32.5584068,29.7900982z"/>
	<path style="fill:#54637C;" d="M29.4963036,24.5946999c0.5062695,0.5597954,0.3071651,1.1794567,0.247324,1.7894573
		C29.6611881,25.787672,29.5787449,25.1911869,29.4963036,24.5946999z"/>
	<path style="fill:#292C3F;" d="M28.4959106,19.8777122c-0.1144009,0.1617317-0.2243958,0.1566391-0.2836514-0.0323353
		c-0.1436367-0.4581089-0.3896656-0.1765747-0.6099358-0.0945759c0.0629616-0.4712181,0.1259289-0.9425011,0.2058258-1.5405006
		C28.3759365,18.7404671,28.3371449,19.3493977,28.4959106,19.8777122z"/>
	<path style="fill:#373D4F;" d="M28.566555,18.3490086c0.119894,0.0025978,0.23979,0.0051956,0.3592148,0.0082397
		c0.0116138,0.1066341,0.0236988,0.2128181,0.0357342,0.3190041c-0.0641155,0.1190567-0.1281834,0.2381153-0.1922646,0.3571281
		C28.5341244,18.854845,28.5669079,18.5970211,28.566555,18.3490086z"/>
	<path style="fill:#F7F812;" d="M29.1498013,27.5003376c0.0240936,0.0376282,0.0326309,0.0785046,0.02561,0.1226006
		c-0.5590611,1.1364441-0.5302696,1.2869797,0.3671799,1.9140568c-0.101593,0.2793694-1.0214195,0.1503429-0.3968792,0.7922039
		c-0.1079464,0.0827637-0.2158642,0.1654835-0.3237858,0.2482014c-0.2328758-0.0686111-0.6672039,0.0983276-0.5545559-0.3957386
		c0.1105537-0.4848976-0.2580261-0.4509048-0.5049038-0.4982529c-0.2976131-0.0570793-0.6199074-0.0363102-0.7344761,0.3347683
		c-0.0890312,0.2883797,0.0000134,0.5246181,0.2717819,0.6857166c0.3434181,0.2035675,0.8095531,0.2743244,0.8873672,0.7723446
		c-0.1354332,0.171875-0.2799511,0.0437813-0.4157753,0.0512352c-1.2736263,0.0699024-1.2284908,0.0431118-1.0646667-1.2080536
		c0.1234589-0.9429054,0.3188572-1.8657341,0.488905-2.7962074c0.5355072-0.2851086,1.1474171-0.1425762,1.7047501-0.305212
		c0,0,0.0037994,0.0076752,0.0023823,0.0082874C28.8068657,27.4791451,28.9982166,27.471674,29.1498013,27.5003376z"/>
	<path style="fill:#505127;" d="M28.8219261,30.5774002c0.1079216-0.0827179,0.2158394-0.1654377,0.3237858-0.2482014
		c0.7053299-0.7661324,1.299963-0.9015694,2.1146526-0.3913651c0.4521923,0.283186,0.7803345,0.6696262-0.0006676,1.000803
		c-0.2446709-0.0773048-0.5036659-0.2467918-0.7320023-0.2124443c-0.4623718,0.0695457-1.0597343,0.1046505-0.8526936,0.869648
		c-0.4853497,0.297142-0.685812,0.768383-0.7619534,1.33955c-0.5094566-0.7099876-0.602129-1.3706074-0.0241013-2.0411148
		C28.9316597,30.8447304,28.8472462,30.6855907,28.8219261,30.5774002z"/>
	<path style="fill:#E4E091;" d="M29.6750011,31.5958405c-0.2070408-0.7649975,0.3903217-0.8001022,0.8526936-0.869648
		c0.2283363-0.0343475,0.4873314,0.1351395,0.7320023,0.2124443c0.0173283,0.1699123,0.0351105,0.3397751,0.0528126,0.5095634
		c-0.0919094,0.0174446-0.1837425,0.0349617-0.2755756,0.0524807c-0.0714149,0.0052872-0.1428337,0.0105762-0.2142487,0.0158672
		c-0.4130783,0.2140427-0.3248482,0.414257,0.0167637,0.6074791c0.0760612-0.0244942,0.1521244-0.0489883,0.2281857-0.0734825
		c0.2754707,0.1587372,0.2369404-0.1268921,0.3267517-0.2308922c0.0600014,0.0010357,0.1200047,0.0020714,0.1799126,0.0031281
		c0.1524296,0.0284081,0.2661591-0.0280132,0.3460751-0.1583443c0.6764126,0.6634331,0.8259716,1.2782173,0.5152493,2.1181488
		c-0.102726-0.3495293,0.1831169-0.7847786-0.2346992-1.0649643c-0.0994911-0.2745132-0.2560177-0.1589012-0.4101124-0.0599365
		c-0.1753807,0.0774269-0.1342735,0.2549896-0.1812267,0.391819l-0.0835991,0.0151863l-0.0436707,0.0096054
		c-0.0556583-0.330307-0.3062382-0.3329391-0.5587234-0.3323669c-0.1859512,0.0043068-0.3718987,0.0086174-0.557848,0.0129204
		c-0.1593189-0.1158905-0.1750393-0.3855324-0.4287148-0.4003944
		C30.0966396,32.0162849,29.7484188,31.8535213,29.6750011,31.5958405z"/>
	<path style="fill:#12141A;" d="M30.3657436,32.7548485c0.1859493-0.004303,0.3718967-0.0086136,0.5579567-0.0128479
		c0.0493069,0.3796425-0.1194439,0.7958031,0.1333637,1.1707306c0.4317627-0.1892433,0.1077518-0.6617165,0.425251-0.8384361
		l0.0436516-0.009716c0.009779,0.3485832,0.019577,0.6972771,0.0293751,1.0459671
		c-0.4477787,0.314064-0.8374329,0.2253151-1.1827698-0.1701431C30.3702793,33.5455742,30.3680115,33.1502113,30.3657436,32.7548485
		z"/>
	<path style="fill:#6F7288;" d="M30.3657436,32.7548485c0.0022678,0.3953629,0.0045357,0.7907257,0.0068283,1.1855545
		c-0.5323734,0.0938263-0.5910854-0.2303009-0.5508213-0.6315575c0.0319691-0.3186073,0.0758114-0.6360207,0.1148281-0.9541779
		C30.1907043,32.3693161,30.2064247,32.638958,30.3657436,32.7548485z"/>
	<path style="fill:#505127;" d="M32.2009163,32.717617c0.4178238,0.2801895,0.1319809,0.7154388,0.2347069,1.0649681
		c-0.0772743,0.076561-0.0272827,0.4213715-0.278183,0.1326599c0.0001373-0.1287422,0.0001373-0.2581253,0.0001373-0.3875084
		c-0.0269012,0.0000229-0.0538025,0.000042-0.0807037,0.000061c0,0.1329193,0,0.2658386,0,0.3987617
		c-0.0742531,0.2098312-0.2551117,0.1839905-0.4209156,0.190773c-0.0152016-0.3558083-0.0307884-0.7118187-0.0463772-1.0678291
		c0.046957-0.1368294,0.0058498-0.3143921,0.1812305-0.391819c0.0297489,0.0307732,0.059803,0.0612373,0.0901661,0.0914001
		c0.0222149,0.1529236-0.0750065,0.412075,0.1620827,0.4050102c0.2355614-0.0070305,0.0995255-0.2672882,0.1369743-0.4131546
		L32.2009163,32.717617z"/>
	<path style="fill:#F7F812;" d="M30.6043072,28.5582943c-0.0759811,0.2260342,0.0582886,0.6037693-0.317667,0.6194077
		c-0.3388577,0.014101-0.4986744-0.2915421-0.5592194-0.5820351c-0.0884171-0.4242439,0.2920322-0.3309174,0.5126343-0.4075565
		l-0.0052891,0.0196152c0.0577354,0.0613422,0.1154518,0.1226826,0.1731682,0.1840267l0.0010853,0.0011158
		c0.061676,0.0582142,0.1233463,0.1164284,0.1850166,0.1746445L30.6043072,28.5582943z"/>
	<path style="fill:#A5A5A6;" d="M31.609581,33.0495033c0.0155888,0.3560104,0.0311756,0.7120209,0.0463772,1.0678291
		c-0.0003853-0.0001984-0.0518322,0.022953-0.0518322,0.022953s-0.048708-0.0284615-0.0487461-0.0290985
		c-0.0098362-0.3493309-0.0196342-0.6980247-0.0294132-1.046608L31.609581,33.0495033z"/>
	<path style="fill:#505127;" d="M31.0369339,31.5006771c0.0918331-0.0175152,0.1836662-0.0350323,0.2755756-0.0524769
		c0.0286903,0.1235962,0.1972733,0.2162132,0.0819836,0.3714714c-0.0899181,0.103981-0.0513878,0.3896103-0.32654,0.2322273
		C31.0578232,31.8690605,31.0473785,31.6848698,31.0369339,31.5006771z"/>
	<path style="fill:#505127;" d="M31.9203739,31.6644363c-0.079916,0.130331-0.1936455,0.1867523-0.3460751,0.1583443
		c-0.1279755-0.2024059,0.024725-0.3036327,0.1495686-0.414896C31.7893696,31.4934006,31.8548717,31.5789185,31.9203739,31.6644363z
		"/>
	<path style="fill:#A5A5A6;" d="M32.0768738,33.9265594c0-0.1329231,0-0.2658424,0-0.3987617
		c0.0269012-0.0000191,0.0538025-0.0000381,0.0807037-0.000061c0,0.1293831,0,0.2587662-0.0001373,0.3875084
		c-0.0001373-0.0006371-0.037323,0.0257301-0.037323,0.0257301L32.0768738,33.9265594z"/>
	<path style="fill:#6F7288;" d="M23.9455376,39.3464127c0.5451374-0.2724838,0.711977,0.5361252,1.2019768,0.4208984
		c0.4793091,0.6726875,1.2197437,0.7965889,1.950386,0.8558273c1.6654987,0.1350288,3.2665977-0.0444069,4.6429195-1.1390953
		c0.1781235-0.141674,0.4339733-0.185627,0.6538372-0.2747726c0.1131287,0.3490677,0.0428505,0.628933-0.2686615,0.8563156
		c-2.04702,1.4941635-5.7666473,1.4060364-7.3245716,0.3581123C24.4174252,40.1654053,23.9790306,39.9041367,23.9455376,39.3464127z
		"/>
	<path style="fill:#1C1E2B;" d="M28.6032982,36.4954109c0.2380295-0.0031433,0.4826221,0.0282593,0.712944-0.01548
		c0.9422779-0.1789436,0.9395103-0.1875381,0.8056297,0.8539543c-0.0055046,0.0428314,0.049736,0.0934715,0.1111946,0.2007027
		c0.626833-0.7148132,0.23773-1.5504913,0.3568668-2.2976913c0.11763,0.0583725,0.2352066,0.1166916,0.3527565,0.1749916
		c0.197813,0.8569832,0.3772526,1.7187881,0.5993099,2.5694733c0.1782837,0.6829948-0.0118446,1.1928215-0.6005402,1.5657959
		c-0.079031-0.4883118-0.15802-0.9765701-0.2561207-1.5829773c-0.4607868,0.6228218-0.820507,0.2925415-1.1807709-0.0333939
		c-0.0456715-0.2086411,0.1110554-0.4709015-0.1580677-0.6165695c-0.0298901-0.0161781-0.1228294,0.020237-0.1401939,0.0552444
		c-0.106945,0.2156067,0.0527859,0.3822098,0.1202354,0.5658989c-0.3639317,0.3074799-0.5360527,0.1297913-0.5285702-0.2532005
		C28.8060665,37.2681847,28.6952057,36.8862114,28.6032982,36.4954109z"/>
	<path style="fill:#232534;" d="M29.3265419,37.93536c-0.0674496-0.1836891-0.2271805-0.3502922-0.1202354-0.5658989
		c0.0173645-0.0350075,0.1103039-0.0714226,0.1401939-0.0552444c0.2691231,0.145668,0.1123962,0.4079285,0.1580677,0.6165695
		C29.4452362,37.9330215,29.3859005,37.9345551,29.3265419,37.93536z"/>
	<path style="fill:#EEED46;" d="M29.1498013,27.5003376c-0.1515846-0.0286636-0.3429356-0.0211926-0.2470665-0.2740498
		C29.0577374,27.2531013,29.1559353,27.3300648,29.1498013,27.5003376z"/>
	<path style="fill:#EEED46;" d="M30.4079342,28.3917522c-0.0577164-0.0613441-0.1154327-0.1226845-0.1731682-0.1840267
		C30.3595047,28.2059898,30.3882751,28.2945843,30.4079342,28.3917522z"/>
	<path style="fill:#EEED46;" d="M30.5940361,28.5675125c-0.0616703-0.0582161-0.1233406-0.1164303-0.1850166-0.1746445
		C30.4706898,28.4510822,30.532362,28.5092983,30.5940361,28.5675125z"/>
	<path style="fill:#505127;" d="M31.4823151,33.074295c-0.3174992,0.1767197,0.0065117,0.6491928-0.425251,0.8384361
		c-0.2528076-0.3749275-0.0840569-0.7910881-0.1333637-1.1707306C31.1760769,32.7413559,31.4266567,32.743988,31.4823151,33.074295z
		"/>
	<path style="fill:#6F7288;" d="M31.0369339,31.5006771c0.0104446,0.1841927,0.0208893,0.3683834,0.0310192,0.5512218
		c-0.0763798,0.02314-0.1524429,0.0476341-0.2290173,0.0721703c-0.0057583-0.2024784-0.0110054-0.4050026-0.0162506-0.6075211
		C30.8941002,31.5112572,30.965519,31.5059681,31.0369339,31.5006771z"/>
	<path style="fill:#505127;" d="M30.8226852,31.5165462c0.0052452,0.2025204,0.0104923,0.4050446,0.0162506,0.607523
		C30.4978371,31.9308052,30.4096069,31.7305908,30.8226852,31.5165462z"/>
	<path style="fill:#505127;" d="M31.7908115,32.6576843c0.1540947-0.0989647,0.3106213-0.2145767,0.4101124,0.0599365
		l-0.0205002,0.0228882c-0.099556,0.0025749-0.199501,0.0055771-0.2994461,0.0085754
		C31.8506145,32.7189217,31.8205605,32.6884575,31.7908115,32.6576843z"/>
	<path style="fill:#6F7288;" d="M31.8809776,32.7490845c0.0999451-0.0029984,0.1998901-0.0060005,0.2994461-0.0085754
		c-0.037838,0.1462975,0.0981979,0.4065552-0.1373634,0.4135857C31.8059711,33.1611595,31.9031925,32.9020081,31.8809776,32.7490845
		z"/>
</g>
</svg>
