<?xml version="1.0" encoding="utf-8"?>
<!-- Generator: Adobe Illustrator 21.1.0, SVG Export Plug-In . SVG Version: 6.00 Build 0)  -->
<svg version="1.1" id="Слой_1" xmlns="http://www.w3.org/2000/svg" xmlns:xlink="http://www.w3.org/1999/xlink" x="0px" y="0px"
	 viewBox="0 0 25 25" style="enable-background:new 0 0 25 25;" xml:space="preserve">
<g>
	<path style="fill:#FEBF50;" d="M12.1786003,22.9952011c-0.2130289,0.0008354-0.4260607,0.0028381-0.6390867,0.0023155
		c-1.3246794-0.0032539-2.6493587-0.0064774-3.9740343-0.011055c-0.4154401-0.0014381-0.8308077-0.0071411-1.2446532-0.0508575
		c-0.6102695-0.0644684-1.2028627-0.1933613-1.7577605-0.4671936c-0.3219848-0.1588898-0.6186817-0.3557415-0.8980443-0.5799809
		c-0.0094342-0.0075722-0.0163543-0.0182743-0.024446-0.0275154c0.0029526-0.0407257,0.0245183-0.0736561,0.0461285-0.1060123
		c0.0482373-0.0722294,0.0968022-0.1442719,0.1467257-0.2153397c0.2394614-0.3408852,0.5166345-0.6479053,0.8366909-0.9145546
		c0.2386174-0.1987991,0.4925356-0.3769627,0.7659521-0.5252724c0.4143376-0.2247486,0.8528919-0.3838978,1.3157005-0.4746723
		c0.0385079-0.0075531,0.077168-0.0111752,0.1096144-0.0357952c0.0347652,0.0164223,0.0701571,0.0316429,0.1041975,0.0494461
		c0.3827071,0.200161,0.7865725,0.3403664,1.2083893,0.4314423c0.4528513,0.0977802,0.9124985,0.1298027,1.3738003,0.1471214
		c0.2376213,0.0089207,0.4752903,0.0165615,0.7129374,0.0247822c-0.000946,0.0314159,0.0213909,0.0462761,0.043129,0.0624104
		c0.2037849,0.1512604,0.3956738,0.3163643,0.5754213,0.4955578c0.1306324,0.1302299,0.2522993,0.2684116,0.3690538,0.4111767
		c0.2437077,0.2979984,0.4467049,0.6223297,0.6188354,0.9656811c0.0953999,0.1902943,0.1750584,0.3881588,0.2451334,0.589283
		C12.1383648,22.8410206,12.174737,22.9136391,12.1786003,22.9952011z"/>
	<path style="fill:#863AC7;" d="M14.3641367,2.0042281c0.042696,0.0000017,0.085391,0.0000033,0.1280832,0.0000048
		c-0.0012989,0.0414631-0.034606,0.06143-0.0608778,0.0829766c-0.3295412,0.2702689-0.6778746,0.5142694-1.0373077,0.7430673
		c-0.4779577,0.3042459-0.9722672,0.5791049-1.4784288,0.8331866c-0.3363304,0.1688299-0.6732779,0.3363018-1.0177011,0.4882605
		c-0.0123501,0.0054488-0.0325584,0.0063848-0.0306606,0.029963c0.0159588,0.0059762,0.0279636-0.0032754,0.0404043-0.0087652
		c0.2143021-0.0945768,0.4251776-0.1964719,0.6370993-0.2961934c0.3722849-0.1751809,0.7374067-0.3643506,1.0995913-0.5589972
		c0.2451935-0.1317718,0.4845066-0.2743511,0.7213068-0.4210968c0.3999662-0.2478607,0.786459-0.5145919,1.1522141-0.8107741
		c0.0253639-0.0205395,0.0641451-0.0368524,0.0594206-0.0816445c0.0070677-0.0005722,0.0141344-0.0016463,0.0212021-0.0016458
		c1.0938892,0.0000882,2.1878185-0.0051169,3.2816029,0.0134468c0.3299599,0.0056,0.6597767,0.0171456,0.9879761,0.0602338
		c0.4982471,0.0654132,0.9819622,0.1823442,1.4429169,0.3857722c0.0192299,0.008486,0.0374355,0.0192926,0.0561218,0.0290203
		c-0.2423611,0.1576457-0.4905701,0.3056059-0.7401733,0.4514732c-0.4227791,0.2470715-0.8542271,0.4779189-1.2890568,0.702894
		c-0.2680149,0.1386669-0.5399132,0.2693172-0.8100719,0.4035451c-0.1493244,0.0741916-0.3001556,0.145483-0.4516926,0.2150607
		c-0.3754749,0.1723957-0.751709,0.3431425-1.1313667,0.5061951c-0.0172386,0.0074034-0.0327168,0.013979-0.0351629,0.0350266
		c-0.0301418-0.0005436-0.0603533,0.0000381-0.0904179-0.0018001c-0.4484768-0.0274215-0.8974915-0.0415592-1.3466511-0.0464959
		c-1.0813942-0.0118852-2.1628494-0.0059762-3.2442818-0.0053849c-0.4350481,0.0002379-0.8700609,0.0036702-1.3048563,0.020175
		c-0.2465277,0.0093589-0.4930296,0.0194249-0.739543,0.0291719c0.0011206-0.0278382,0.0216093-0.0337906,0.0433321-0.0383215
		c0.0519419-0.0108352,0.1063995-0.0150595,0.1553583-0.0337167c0.1458387-0.0555778,0.2897329-0.1163001,0.4339676-0.1760249
		c0.1041946-0.0431452,0.2023172-0.1057744,0.3235149-0.0903668c0.0192986,0.0024533,0.0413475-0.0089312,0.060813-0.0170584
		c0.0572758-0.0239139,0.1161375-0.0453362,0.1702547-0.0752063c0.0879831-0.0485625,0.2003365-0.0568032,0.2595272-0.1545496
		c0.0055561-0.0091748,0.020546-0.0132108,0.0317583-0.0183029c0.3199015-0.1452723,0.6385136-0.2933733,0.9536095-0.4487531
		c0.3087702-0.152261,0.6126766-0.3138754,0.9133577-0.481756c0.3145857-0.1756434,0.6227894-0.361526,0.9242315-0.5586743
		c0.2746944-0.1796532,0.5413132-0.370712,0.7957611-0.5781302C14.2928486,2.0945537,14.3528385,2.0705209,14.3641367,2.0042281z"/>
	<path style="fill:#6D48C8;" d="M14.3641367,2.0042281c-0.0112982,0.0662928-0.0712881,0.0903256-0.1148252,0.1258149
		c-0.2544479,0.2074182-0.5210667,0.3984771-0.7957611,0.5781302c-0.3014421,0.1971483-0.6096458,0.3830309-0.9242315,0.5586743
		c-0.3006811,0.1678805-0.6045876,0.329495-0.9133577,0.481756c-0.3150959,0.1553798-0.633708,0.3034809-0.9536095,0.4487531
		c-0.0112123,0.0050921-0.0262022,0.0091281-0.0317583,0.0183029c-0.0591908,0.0977464-0.1715441,0.1059871-0.2595272,0.1545496
		c-0.0541172,0.02987-0.1129789,0.0512924-0.1702547,0.0752063c-0.0194654,0.0081272-0.0415144,0.0195117-0.060813,0.0170584
		c-0.1211977-0.0154076-0.2193203,0.0472217-0.3235149,0.0903668C9.6722488,4.6125655,9.5283546,4.6732879,9.3825159,4.7288656
		C9.3335571,4.7475228,9.2790995,4.7517471,9.2271576,4.7625823C9.2054348,4.7671132,9.1849461,4.7730656,9.1838255,4.8009038
		C8.9171677,4.8200569,8.6513567,4.8458047,8.3874378,4.8903456C7.9293365,4.9676566,7.4895186,5.102788,7.0711017,5.3047528
		C6.8913865,5.3914981,6.7207155,5.4938622,6.5583959,5.611268C6.4672251,5.6772118,6.377871,5.7451849,6.2922373,5.8175116
		C6.2084985,5.888238,6.1315465,5.967,6.0516157,6.0422344C5.9797173,6.0410042,5.9115386,6.0649118,5.8429832,6.079689
		C5.5723271,6.1380301,5.3076534,6.2202697,5.0424738,6.299068C4.6682401,6.4102721,4.293262,6.5185657,3.9162786,6.6199398
		C3.650681,6.691361,3.3851521,6.7631087,3.1188247,6.8317308c-0.3505454,0.0903215-0.701263,0.1800771-1.0544267,0.259851
		C2.0429029,7.0964375,2.0251086,7.0978737,2.0201914,7.0703053C2.0215547,6.9571309,2.021348,6.8439116,2.0245762,6.7307906
		c0.0095959-0.3362374,0.0544629-0.6685452,0.114517-0.9990501c0.0015361-0.0084543,0.0054398-0.0164781,0.0082374-0.0246921
		c0.0130799,0.0373397,0.0416877,0.0263448,0.0666118,0.0195661c0.1300883-0.0353804,0.2596905-0.0725508,0.3898115-0.1078076
		c0.6338129-0.1717358,1.2610075-0.3656087,1.88503-0.569488c0.3727398-0.1217799,0.7425804-0.2524981,1.1129932-0.3813004
		c0.1238956-0.0430818,0.2502494-0.0784631,0.3740249-0.1208835c0.1743379-0.0597491,0.3445611-0.1316667,0.515842-0.2001352
		c0.2453928-0.0980945,0.4894738-0.1992941,0.7304192-0.3080697C7.326745,3.9916708,7.4254479,3.9289916,7.539948,3.9057496
		C7.645505,3.8843229,7.7425756,3.841068,7.838007,3.7938039c0.345089-0.1709104,0.6893711-0.3432176,1.0226784-0.5368199
		C9.1662254,3.0795107,9.463623,2.8900385,9.7486677,2.6810989c0.1645002-0.1205807,0.3204393-0.2515669,0.4704294-0.3892643
		c0.0781832-0.0717754,0.1476479-0.1530662,0.2206907-0.2303994c0.0095949-0.0101593,0.0209827-0.0226238,0.0148144-0.0374053
		c-0.0068836-0.0164952-0.0245619-0.0101538-0.037981-0.010963c-0.0159254-0.0009601-0.031951-0.0002475-0.0479336-0.0002561
		C9.5287361,2.0123577,8.6887827,2.011905,7.8488302,2.011452c0.0616231-0.0105245,0.123868-0.0054824,0.1857023-0.0055318
		c2.0939264-0.0016663,4.1878538-0.0026066,6.2817812-0.0035625C14.3322544,2.0023506,14.348196,2.0035775,14.3641367,2.0042281z"/>
	<path style="fill:#C737AA;" d="M22.7477264,5.2291865c0.0997581,0.3138814,0.1554375,0.6366701,0.1971569,0.9625468
		c0.0366135,0.2860093,0.0414543,0.5731959,0.0434017,0.8609724c0.0135555,2.0029202,0.0101643,4.0058661,0.0110092,6.0088053
		c0.0000057,0.0159302-0.0013466,0.0318594-0.0020657,0.0477829c-0.0354576-0.0176592-0.0519352-0.052268-0.0719604-0.082943
		c-0.2696018-0.4130344-0.5528603-0.8165045-0.8526363-1.2081375c-0.2712498-0.3543653-0.5534191-0.6998653-0.8494415-1.0340757
		c-0.2126827-0.2401218-0.425663-0.4797964-0.653471-0.7058506c-0.0125217-0.0124235-0.0224361-0.0274582-0.0348167-0.0400438
		c-0.0945683-0.0961237-0.1893177-0.192071-0.2845631-0.2875223c-0.0056438-0.0056562-0.0160408-0.0065651-0.0242271-0.0096893
		c-0.0027275-0.0299683-0.0069199-0.0598783-0.0079613-0.0898991c-0.0111275-0.3208761-0.0262508-0.6413984-0.0652618-0.9604464
		C20.0990906,8.2507114,19.9995308,7.82232,19.8382053,7.408742c-0.1151638-0.2952361-0.2632389-0.5727744-0.4412689-0.8346233
		c0.0169296-0.005271,0.0342312-0.009573,0.0507259-0.0159583c0.2133045-0.0825601,0.4264812-0.1654572,0.639719-0.2481871
		c0.2479935-0.0962133,0.497385-0.1889877,0.7436905-0.2893405c0.3251095-0.1324596,0.6513977-0.2620125,0.974741-0.3989272
		c0.2252502-0.0953784,0.450552-0.1906886,0.6760368-0.2855258C22.5698395,5.2991729,22.6542721,5.2527595,22.7477264,5.2291865z"/>
	<path style="fill:#5459CA;" d="M7.8488302,2.011452c0.8399525,0.000453,1.6799059,0.0009058,2.5198574,0.001359
		c0.0159826,0.0000086,0.0320082-0.0007041,0.0479336,0.0002561c0.0134192,0.0008092,0.0310974-0.0055323,0.037981,0.010963
		c0.0061684,0.0147815-0.0052195,0.027246-0.0148144,0.0374053c-0.0730429,0.0773332-0.1425076,0.1586239-0.2206907,0.2303994
		C10.0691071,2.4295321,9.913168,2.5605183,9.7486677,2.6810989C9.463623,2.8900385,9.1662254,3.0795107,8.8606853,3.256984
		C8.5273781,3.4505863,8.1830959,3.6228936,7.838007,3.7938039C7.7425756,3.841068,7.645505,3.8843229,7.539948,3.9057496
		c-0.1145,0.023242-0.213203,0.0859213-0.3178849,0.1331804C6.9811177,4.1477056,6.7370367,4.2489052,6.4916439,4.3469996
		C6.320363,4.4154682,6.1501398,4.4873857,5.9758019,4.5471349C5.8520265,4.5895553,5.7256727,4.6249366,5.6017771,4.6680183
		C5.2313643,4.7968206,4.8615236,4.9275389,4.4887838,5.0493188c-0.6240225,0.2038794-1.2512171,0.3977523-1.88503,0.569488
		c-0.130121,0.0352569-0.2597232,0.0724273-0.3898115,0.1078076c-0.024924,0.0067787-0.0535319,0.0177736-0.0666118-0.0195661
		C2.1680725,5.54567,2.215271,5.3905282,2.2611084,5.2353444c0.2337415-0.7913351,0.6620855-1.46102,1.2692966-2.0171518
		C3.9977508,2.7901609,4.5407124,2.49049,5.1394267,2.2912133C5.4859214,2.1758857,5.844173,2.1118128,6.206327,2.0647783
		c0.4788675-0.0621924,0.9598231-0.0485415,1.4403734-0.0545752C7.7140613,2.0093575,7.7814527,2.0109749,7.8488302,2.011452z"/>
	<path style="fill:#A237B3;" d="M22.7477264,5.2291865c-0.0934544,0.0235729-0.177887,0.0699863-0.2658768,0.1069932
		c-0.2254848,0.0948372-0.4507866,0.1901474-0.6760368,0.2855258c-0.3233433,0.1369147-0.6496315,0.2664676-0.974741,0.3989272
		c-0.2463055,0.1003528-0.495697,0.1931272-0.7436905,0.2893405c-0.2132378,0.0827298-0.4264145,0.165627-0.639719,0.2481871
		c-0.0164948,0.0063853-0.0337963,0.0106874-0.0507221,0.0159645c-0.0036507-0.00383-0.0078239-0.0072947-0.0108929-0.0115547
		c-0.7370949-1.0232954-1.7626438-1.5409307-2.9897518-1.7039666c-0.1617489-0.0214906-0.3244572-0.0357547-0.4867229-0.0533657
		c0.002449-0.0210476,0.0179272-0.0276232,0.0351658-0.0350266c0.3796577-0.1630526,0.7558918-0.3337994,1.1313667-0.5061951
		c0.1515369-0.0695777,0.3023682-0.1408691,0.4516926-0.2150607c0.2701588-0.134228,0.542057-0.2648783,0.8100719-0.4035451
		c0.4348297-0.2249751,0.8662777-0.4558225,1.2890568-0.702894c0.2496033-0.1458673,0.4978123-0.2938275,0.7401733-0.451473
		c0.2911186,0.1263552,0.559042,0.2921004,0.8118191,0.4826045c0.7602425,0.5729513,1.2692204,1.3227255,1.5612144,2.2245252
		C22.7434025,5.208272,22.7452278,5.2188382,22.7477264,5.2291865z"/>
	<path style="fill:#DF437C;" d="M22.9495468,18.7387848c-0.0694942,0.7139759-0.2676487,1.3877964-0.6356983,2.0065613
		c-0.2574387,0.432806-0.5741444,0.8170147-0.9637775,1.1386948c-0.0080853,0.0066738-0.017065,0.0122681-0.025631,0.0183659
		c-0.0181942-0.0099297-0.0189323-0.0278072-0.0223789-0.0454979c-0.0345688-0.1773586-0.0683975-0.3548813-0.1050701-0.5318108
		c-0.105175-0.5074291-0.2329178-1.0091896-0.3905449-1.502882c-0.1414108-0.4428997-0.2951622-0.8814945-0.4749012-1.3106651
		c-0.1295223-0.3092651-0.2650166-0.6157455-0.4144821-0.9159317c-0.0123711-0.0248489-0.0220718-0.0531693-0.0526867-0.0634193
		c0.0356083-0.1094837,0.073267-0.2183514,0.1064701-0.3285618c0.1484394-0.4926834,0.2067814-0.9997177,0.2331123-1.5110722
		c0.0205479-0.3990746,0.0342979-0.7984924,0.0378666-1.1981764c0.0025673-0.2876997,0.0057297-0.5753956,0.008625-0.8630934
		c0.0270348-0.0010786,0.0399227,0.0171671,0.0542068,0.0364876c0.2752209,0.3722887,0.5370598,0.753561,0.7823792,1.1463747
		c0.2207928,0.3535423,0.4319229,0.7125931,0.6276283,1.0805044c0.1274719,0.2396336,0.2490177,0.4823265,0.3659096,0.7274818
		c0.1458302,0.3058567,0.2836914,0.6151524,0.4126663,0.9282742c0.1540413,0.3739796,0.296833,0.7523746,0.4225712,1.1369915
		C22.9223461,18.7073975,22.9264774,18.7294407,22.9495468,18.7387848z"/>
	<path style="fill:#D53E8F;" d="M22.9495468,18.7387848c-0.0230694-0.0093441-0.0272007-0.0313873-0.0337353-0.0513744
		c-0.1257381-0.3846169-0.2685299-0.7630119-0.4225712-1.1369915c-0.1289749-0.3131218-0.2668362-0.6224174-0.4126663-0.9282742
		c-0.1168919-0.2451553-0.2384377-0.4878483-0.3659096-0.7274818c-0.1957054-0.3679113-0.4068356-0.7269621-0.6276283-1.0805044
		c-0.2453194-0.3928137-0.5071583-0.774086-0.7823792-1.1463747c-0.0142841-0.0193205-0.0271721-0.0375662-0.0542068-0.0364885
		c-0.0006313-0.0230293-0.0018005-0.0460577-0.0018196-0.0690851c-0.0009766-1.1088238,0.0081749-2.2176828-0.011282-3.3264418
		c-0.0028934-0.1649256-0.0074501-0.3298216-0.0112362-0.4947309c0.0081863,0.0031185,0.0185833,0.0040274,0.0242271,0.0096836
		c0.0952454,0.0954514,0.1899948,0.1913986,0.2845631,0.2875223c0.0123806,0.0125856,0.022295,0.0276203,0.0348167,0.0400438
		c0.227808,0.2260542,0.4407883,0.4657288,0.653471,0.7058506c0.2960224,0.3342104,0.5781918,0.6797104,0.8494415,1.0340757
		c0.2997761,0.391633,0.5830345,0.7951031,0.8526363,1.2081375c0.0200253,0.0306749,0.0365028,0.0652838,0.0719604,0.082943
		c0.0007286,0.015934,0.0020981,0.0318604,0.0020943,0.0477886c-0.0005398,1.6657696,0.0004101,3.3315458-0.0125561,4.9972849
		c-0.0012074,0.1550179-0.0033016,0.3097057-0.0295448,0.4634266
		C22.9505787,18.6567078,22.9592457,18.6987495,22.9495468,18.7387848z"/>
	<path style="fill:#FE9349;" d="M6.8613863,19.5892658c-0.0324454,0.024622-0.0711055,0.028244-0.1096134,0.0357971
		c-0.4628086,0.0907745-0.9013629,0.2499237-1.3157005,0.4746723c-0.2734165,0.1483097-0.5273347,0.3264732-0.7659521,0.5252724
		c-0.3200564,0.2666492-0.5972295,0.5736694-0.8366909,0.9145546C3.7835059,21.61063,3.734941,21.6826725,3.6867037,21.7549019
		c-0.0216103,0.0323563-0.0431759,0.0652866-0.0461287,0.1060123c-0.176986-0.1402988-0.3330512-0.3020611-0.4816585-0.4712811
		c-0.3740423-0.4259109-0.6412892-0.9139938-0.8376985-1.4430752c-0.0029523-0.0079536-0.0017786-0.0174389-0.0025313-0.0262108
		c0.0216727-0.002573,0.0324254-0.0183678,0.0449173-0.0340347c0.1546574-0.1939793,0.3132396-0.3846493,0.4903116-0.5588741
		c0.1099865-0.1082153,0.216038-0.2202625,0.331496-0.3232002c0.1097674-0.0978603,0.220691-0.1943073,0.3355703-0.285778
		c0.1928668-0.1535702,0.3937724-0.2961655,0.6025059-0.4278145c0.2872515-0.1811752,0.5874872-0.3371239,0.8976269-0.47505
		c0.0637655-0.0283585,0.1356463-0.0421371,0.1879888-0.0938816c0.0072036,0.0140591,0.015132,0.0277977,0.0215049,0.0422249
		c0.1202583,0.2722149,0.2675891,0.52845,0.4475698,0.7658978c0.2129226,0.2809048,0.4612598,0.527565,0.7318792,0.7516384
		C6.5504723,19.3977413,6.7049928,19.4953671,6.8613863,19.5892658z"/>
	<path style="fill:#FE9349;" d="M12.1786003,22.9952011c-0.0038633-0.081562-0.0402355-0.1541805-0.0663157-0.2290325
		c-0.070075-0.2011242-0.1497335-0.3989887-0.2451334-0.589283c-0.1721306-0.3433514-0.3751278-0.6676826-0.6188354-0.9656811
		c-0.1167545-0.142765-0.2384214-0.2809467-0.3690538-0.4111767c-0.1797476-0.1791935-0.3716364-0.3442974-0.5754213-0.4955578
		c-0.0217381-0.0161343-0.044075-0.0309944-0.043129-0.0624104c0.1116734,0.0018654,0.2233438,0.0051155,0.335022,0.005373
		c0.7767162,0.0017986,1.5534353,0.0029297,2.3301525,0.004427c0.0779696,0.0001488,0.1559381,0.0013237,0.2339067,0.0020237
		c0.0060873,0.0680065,0.0560856,0.1134548,0.0897064,0.1659355c0.2158442,0.3369217,0.4051809,0.6878986,0.5639124,1.0549984
		c0.1750011,0.4047318,0.3154745,0.8214798,0.4203119,1.2499104c0.0218515,0.0893002,0.0511389,0.1773262,0.0554743,0.2703171
		c-0.0141001,0.0008774-0.0281992,0.0025196-0.0422983,0.0025253c-0.6753559,0.000288-1.3507128,0.0004482-2.0260677,0.0004673
		C12.2067547,22.9980392,12.1926775,22.9961891,12.1786003,22.9952011z"/>
	<path style="fill:#E84869;" d="M19.8643761,17.532196c0.0306149,0.0102539,0.0403156,0.0385742,0.0526867,0.0634232
		c0.1494656,0.3001862,0.2849598,0.6066666,0.4144821,0.9159317c0.179739,0.4291706,0.3334904,0.8677654,0.4749012,1.3106651
		c0.1576271,0.4936924,0.2853699,0.9954529,0.3905449,1.502882c0.0366726,0.1769295,0.0705013,0.3544521,0.1050701,0.5318108
		c0.0034466,0.0176907,0.0041847,0.0355682,0.0223789,0.0454979c-0.1563988,0.1374359-0.3280392,0.2538128-0.5047703,0.3628445
		c-0.2650986,0.1635494-0.5454483,0.295372-0.839407,0.398262c-0.0096416,0.0033741-0.0203609,0.0036621-0.0305824,0.0053883
		c-0.0186787-0.1206245-0.0357857-0.2415142-0.0563202-0.3618221c-0.072464-0.4245872-0.1561775-0.8468018-0.2645435-1.2639599
		c-0.1303387-0.5017509-0.2811089-0.9969349-0.4682636-1.4806309c-0.0607872-0.1571007-0.1223927-0.3139057-0.1859913-0.469883
		c-0.0147133-0.0360851-0.0236435-0.0808487-0.0730343-0.0907841c0.0119381-0.0129814,0.0233746-0.0264683,0.0358906-0.0388699
		c0.2727356-0.2702503,0.5050621-0.5709152,0.6880283-0.9092255C19.7166519,17.8850803,19.7907257,17.7087841,19.8643761,17.532196z
		"/>
	<path style="fill:#FB5345;" d="M2.0098608,16.6265049c-0.0016801-0.18606-0.0043898-0.3721142-0.0048511-0.558176
		c-0.0015032-0.6063538-0.0022025-1.2127075-0.0030808-1.8190622c-0.0000205-0.0141163,0.0014963-0.0282354,0.0022962-0.0423527
		c0.0204508-0.0001316,0.0379584-0.0094261,0.0545473-0.0195093c0.1742766-0.1059198,0.3509066-0.2075968,0.5309777-0.3034706
		c0.2632091-0.1401377,0.5305319-0.2716675,0.8033047-0.3921022c0.224005-0.0989017,0.4520617-0.1878834,0.6830466-0.2687311
		c0.2209234-0.0773258,0.4419022-0.1552458,0.6699829-0.2100849c0.0007319,0.0212183,0.0020504,0.0424337,0.0021105,0.063653
		c0.0015759,0.5582542-0.0020146,1.1165438,0.0117841,1.6747131c0.0030646,0.1239672,0.0056667,0.2479467,0.0084815,0.3719206
		c-0.0894961,0.0104675-0.1701698,0.050005-0.2524471,0.0815783c-0.4361858,0.1673908-0.8613229,0.3586903-1.2662137,0.5934229
		c-0.3857112,0.2236137-0.757611,0.4673328-1.1088688,0.7424393C2.1003699,16.5725098,2.0665376,16.6180725,2.0098608,16.6265049z"
		/>
	<path style="fill:#FE6B42;" d="M16.9007511,22.9883118c-0.2515564,0.0016422-0.5031109,0.0038624-0.7546692,0.0047932
		c-0.3951292,0.0014629-0.7902613,0.0021-1.1853924,0.0028572c-0.0140133,0.0000267-0.0280304-0.0023937-0.0420485-0.0036716
		c0.0005789-0.0611439-0.0198078-0.118557-0.0321798-0.1773148c-0.0650806-0.3091011-0.1480942-0.6135635-0.2479773-0.9130478
		c-0.0785093-0.2353954-0.1661577-0.4676628-0.2661963-0.695015c-0.1136179-0.258213-0.2391539-0.5104046-0.3751068-0.7576542
		c-0.0354948-0.0645504-0.0884027-0.1207581-0.1017504-0.1968861c0.0194874-0.0005455,0.0389738-0.0015163,0.0584631-0.0015755
		c0.6190624-0.0019321,1.2377043-0.0181999,1.8559532-0.0508423c0.0935946-0.00494,0.1868572-0.0226803,0.2811565-0.0118618
		c0.0007648,0.0254421,0.0101509,0.0485458,0.0204449,0.0711269c0.1340122,0.2939453,0.2480717,0.5958519,0.3512421,0.9016171
		c0.1458092,0.432148,0.2636871,0.872139,0.3507023,1.3200569C16.8461246,22.6493797,16.8812103,22.8175259,16.9007511,22.9883118z"
		/>
	<path style="fill:#A237B3;" d="M2.0028157,9.7190437c-0.0007455-0.0141201-0.002182-0.0282412-0.0021369-0.0423594
		C2.0026066,9.0706673,2.004636,8.4646502,2.0068457,7.858633c0.0000706-0.0194044,0.0021551-0.0388007,0.0033009-0.0581994
		c0.0157433-0.0021172,0.0318527-0.0027628,0.0471759-0.0065722c0.332257-0.0825806,0.664382-0.1655931,0.9975054-0.2447553
		c0.3021142-0.0717931,0.6020346-0.1528111,0.9029689-0.229579c0.3473403-0.0886059,0.6929166-0.1836534,1.0382206-0.2798705
		C5.1167779,7.0060072,5.2373624,6.9677019,5.363914,6.9586682C5.1916418,7.2918854,5.0597253,7.6403317,4.9682002,8.0041666
		C4.8845658,8.3366337,4.8394265,8.6750546,4.8096128,9.0159168C4.717988,9.0158176,4.631505,9.0450544,4.5441523,9.0661316
		c-0.2531948,0.0610952-0.5048718,0.128458-0.7579055,0.1902447C3.4937775,9.3277941,3.199152,9.3907633,2.9080248,9.467164
		C2.7007422,9.5215607,2.4983573,9.594367,2.2924631,9.6544189C2.1976595,9.6820707,2.1032012,9.7148762,2.0028157,9.7190437z"/>
	<path style="fill:#F14D57;" d="M18.9015274,19.0018215c0.0493908,0.0099354,0.058321,0.0546989,0.0730343,0.0907841
		c0.0635986,0.1559772,0.1252041,0.3127823,0.1859913,0.469883c0.1871548,0.483696,0.337925,0.9788799,0.4682636,1.4806309
		c0.108366,0.4171581,0.1920795,0.8393726,0.2645435,1.2639599c0.0205345,0.1203079,0.0376415,0.2411976,0.0563202,0.3618221
		c-0.1783028,0.0730495-0.365551,0.1150761-0.5525913,0.1570072c-0.3392944,0.0760651-0.6838188,0.1138592-1.0303974,0.135191
		c-0.0052204,0.0003223-0.0105305-0.0008221-0.0158005-0.0012817c-0.0007858-0.0212479,0.0006084-0.0428429-0.0027008-0.0636902
		c-0.0263424-0.1659393-0.0509682-0.3320999-0.0800419-0.497673c-0.0964069-0.5490494-0.2342796-1.0875111-0.4036789-1.6181679
		c-0.0986938-0.3091698-0.2134171-0.6125565-0.3344536-0.9135895c0.0060768-0.0034103,0.0118332-0.007658,0.0182705-0.0101109
		c0.2759609-0.105093,0.5390377-0.2353058,0.7858849-0.3981342C18.5378342,19.3241081,18.7224998,19.1665611,18.9015274,19.0018215z
		"/>
	<path style="fill:#F14D57;" d="M4.7460842,13.0130157c-0.2280807,0.0548391-0.4490595,0.1327591-0.6699829,0.2100849
		c-0.2309849,0.0808477-0.4590416,0.1698294-0.6830466,0.2687311c-0.2727728,0.1204348-0.5400956,0.2519646-0.8033047,0.3921022
		c-0.1800711,0.0958738-0.3567011,0.1975508-0.5309777,0.3034706c-0.0165889,0.0100832-0.0340965,0.0193777-0.0545473,0.0195093
		c-0.000849-0.0123329-0.0024352-0.0246658-0.0024409-0.0369978c-0.0003133-0.6645765-0.0005057-1.3291531-0.0005951-1.9937286
		c-0.0000017-0.0123501,0.0013833-0.0246992,0.0021214-0.0370502c0.1705425-0.0406618,0.3379481-0.0928764,0.508189-0.1351519
		c0.2972074-0.0738058,0.5823424-0.187911,0.8820989-0.2572145c0.3639472-0.0841446,0.723171-0.1893768,1.0883057-0.2698326
		c0.087851-0.0193577,0.1731277-0.053216,0.2650251-0.0525303c0.0005879,0.0212164,0.0016904,0.0424356,0.001688,0.0636549
		c-0.0000567,0.4570074-0.0001702,0.9140148-0.000484,1.3710222C4.7480984,12.9103947,4.746798,12.9617052,4.7460842,13.0130157z"/>
	<path style="fill:#FE8045;" d="M5.2091041,17.721714c-0.0523429,0.0517445-0.1242237,0.0655231-0.1879892,0.0938816
		c-0.3101397,0.1379261-0.6103754,0.2938747-0.8976269,0.47505c-0.2087336,0.131649-0.4096391,0.2742443-0.6025059,0.4278145
		c-0.1148794,0.0914707-0.2258029,0.1879177-0.3355703,0.285778c-0.115458,0.1029377-0.2215095,0.2149849-0.331496,0.3232002
		c-0.177072,0.1742249-0.3356543,0.3648949-0.4903116,0.5588741c-0.0124919,0.015667-0.0232446,0.0314617-0.0449173,0.0340347
		c-0.0689139-0.1713791-0.1124308-0.3501301-0.1521792-0.5298176c-0.0767787-0.3470898-0.1162503-0.6993637-0.1433139-1.0532646
		c-0.0012112-0.0158348,0.0000899-0.0318623,0.0002208-0.047802c0.014976-0.0023041,0.0251749-0.0121288,0.0354807-0.0220737
		c0.1732996-0.1672344,0.34744-0.3334675,0.5312798-0.4893589c0.1865628-0.1582031,0.379755-0.3076725,0.5807059-0.4469299
		c0.3972807-0.2753086,0.8127263-0.5193558,1.2540903-0.7175503C4.5671248,16.549715,4.7078962,16.4820538,4.856945,16.43466
		c0.0122886,0.069603,0.0247927,0.1391678,0.0368309,0.2088146C4.9579692,17.0148602,5.0671701,17.3730698,5.2091041,17.721714z"/>
	<path style="fill:#D53E8F;" d="M2.0028157,9.7190437c0.1003854-0.0041676,0.1948438-0.036973,0.2896473-0.0646248
		C2.4983573,9.594367,2.7007422,9.5215607,2.9080248,9.467164c0.2911272-0.0764008,0.5857527-0.13937,0.878222-0.2107878
		c0.2530336-0.0617867,0.5047107-0.1291494,0.7579055-0.1902447C4.631505,9.0450544,4.717988,9.0158176,4.8096132,9.015913
		c-0.0264807,0.4635658-0.0459909,0.9273901-0.0521526,1.3917294c-0.0011044,0.0832243-0.0050173,0.1664124-0.0076332,0.2496176
		c-0.1006441,0.0122108-0.1976118,0.0416269-0.2958059,0.0648108c-0.2846437,0.0672064-0.5690925,0.1353483-0.8527672,0.2065144
		c-0.1891565,0.0474539-0.370358,0.1213255-0.5586939,0.1726465c-0.2190454,0.0596895-0.4417384,0.1044102-0.6595235,0.1697845
		c-0.1251376,0.0375614-0.2500956,0.0791817-0.3799515,0.100318c-0.0007527-0.0831938-0.0021229-0.1663876-0.0021553-0.2495813
		C2.0007555,10.6736279,2.00089,10.2255039,2.0010347,9.777379C2.0010412,9.7579336,2.0021958,9.7384892,2.0028157,9.7190437z"/>
	<path style="fill:#FB5345;" d="M17.5300179,19.8666954c0.1210346,0.3010349,0.2357578,0.6044216,0.3344517,0.9135914
		c0.1693993,0.5306568,0.307272,1.0691185,0.4036789,1.6181679c0.0290737,0.1655731,0.0536995,0.3317337,0.0800419,0.497673
		c0.0033092,0.0208473,0.001915,0.0424423,0.0027008,0.0636902c-0.0703335,0.0064335-0.1405697,0.0168991-0.2110214,0.0186367
		c-0.4129658,0.0101967-0.8260098,0.0147362-1.2391148,0.0098572c-0.0195446-0.1707859-0.0546303-0.338932-0.0873623-0.5074177
		c-0.0870152-0.4479179-0.2048931-0.8879089-0.3507023-1.3200569c-0.1031704-0.3057652-0.2172298-0.6076717-0.3512421-0.9016171
		c-0.010294-0.0225811-0.01968-0.0456848-0.020443-0.0711269c0.06814-0.0276947,0.1415844-0.0236435,0.2124119-0.0321503
		c0.2411919-0.0289631,0.4794159-0.0724297,0.715004-0.1309834C17.1919117,19.9818382,17.3609352,19.924139,17.5300179,19.8666954z"
		/>
	<path style="fill:#FE6B42;" d="M4.856945,16.4346619c-0.1490488,0.0473919-0.2898202,0.1150532-0.4319739,0.1788883
		c-0.441364,0.1981945-0.8568096,0.4422417-1.2540903,0.7175503c-0.2009509,0.1392574-0.3941431,0.2887268-0.5807059,0.4469299
		c-0.1838398,0.1558914-0.3579803,0.3221245-0.5312798,0.4893589c-0.0103059,0.0099449-0.0205047,0.0197697-0.0354807,0.0220737
		c-0.0039659-0.1788216-0.0100248-0.3576279-0.011457-0.5364723c-0.0028796-0.3596191-0.0032713-0.7192574-0.0045195-1.0788879
		c-0.0000551-0.0158653,0.0015767-0.0317345,0.0024228-0.0475998c0.0566769-0.0084305,0.0905092-0.0539932,0.1310699-0.0857601
		c0.3512578-0.2751064,0.7231576-0.5188255,1.1088688-0.7424393c0.4048908-0.2347326,0.8300278-0.4260321,1.2662137-0.5934229
		c0.0822773-0.0315733,0.162951-0.0711107,0.2524471-0.0815783c0.011622,0.2500896,0.0227027,0.500205,0.0351105,0.7502556
		c0.005589,0.1126289,0.0110612,0.2253933,0.0218339,0.3375912C4.832583,16.285902,4.8530984,16.3591728,4.856945,16.4346619z"/>
	<path style="fill:#863AC7;" d="M5.3639116,6.958672C5.2373624,6.9677019,5.1167779,7.0060072,4.9960175,7.0396566
		c-0.345304,0.0962172-0.6908803,0.1912646-1.0382206,0.2798705C3.6568625,7.3962951,3.3569422,7.477313,3.0548279,7.5491061
		C2.7217045,7.6282682,2.3895795,7.7112808,2.0573225,7.7938614C2.0419993,7.7976708,2.0258899,7.7983165,2.0101466,7.8004336
		c0.0015252-0.2365999,0.003006-0.4731989,0.0047991-0.7097945C2.014997,7.0838647,2.018364,7.0771151,2.0201881,7.0703292
		c0.0049205,0.0275445,0.0227149,0.0261083,0.04421,0.0212526c0.3531637-0.0797739,0.7038813-0.1695294,1.0544267-0.259851
		C3.3851521,6.7631087,3.650681,6.691361,3.9162786,6.6199398C4.293262,6.5185657,4.6682401,6.4102721,5.0424738,6.299068
		C5.3076534,6.2202697,5.5723271,6.1380301,5.8429832,6.079689c0.0685554-0.0147772,0.136734-0.0386848,0.208631-0.0374532
		C5.7827015,6.3179407,5.5471253,6.6186595,5.3639116,6.958672z"/>
	<path style="fill:#E84869;" d="M2.0030854,11.3713341c0.1298559-0.0211363,0.2548139-0.0627565,0.3799515-0.100318
		c0.2177851-0.0653744,0.4404781-0.110095,0.6595235-0.1697845c0.1883359-0.051321,0.3695374-0.1251926,0.5586939-0.1726465
		c0.2836747-0.071166,0.5681236-0.139308,0.8527672-0.2065144c0.0981941-0.0231838,0.1951618-0.0525999,0.2958059-0.0648108
		c-0.0009661,0.2557163-0.0019321,0.5114336-0.0028982,0.7671509c-0.0918975-0.0006886-0.1771741,0.0331697-0.2650251,0.0525274
		c-0.3651347,0.0804558-0.7243586,0.185688-1.0883057,0.2698326c-0.2997565,0.0693035-0.5848916,0.1834087-0.8820989,0.2572145
		c-0.1702409,0.0422754-0.3376465,0.0944901-0.508189,0.1351519C2.0032353,11.8832035,2.0031605,11.6272697,2.0030854,11.3713341z"
		/>
	<path style="fill:#FE8045;" d="M13.8954306,20.2523727c0.0133476,0.076128,0.0662556,0.1323357,0.1017504,0.1968861
		c0.1359529,0.2472496,0.2614889,0.4994411,0.3751068,0.7576542c0.1000385,0.2273521,0.1876869,0.4596195,0.2661963,0.695015
		c0.0998831,0.2994843,0.1828966,0.6039467,0.2479773,0.9130478c0.012372,0.0587578,0.0327587,0.1161709,0.0321798,0.1773148
		c-0.2097788,0.0085049-0.419611,0.0055809-0.6294422,0.0027561c-0.0043364-0.0929928-0.0336237-0.1810188-0.0554752-0.270319
		c-0.1048374-0.4284306-0.2453108-0.8451786-0.4203119-1.2499104c-0.1587315-0.3670998-0.3480682-0.7180767-0.5639124-1.0549984
		c-0.0336208-0.0524807-0.0836191-0.097929-0.0897045-0.1659355C13.4050074,20.2533798,13.650219,20.2528763,13.8954306,20.2523727z
		"/>
	<path style="fill:#6D48C8;" d="M14.57728,2.0042157c0.0047245,0.0447922-0.0340567,0.061105-0.0594206,0.0816445
		c-0.3657551,0.2961822-0.7522478,0.5629134-1.1522141,0.8107741c-0.2368002,0.1467457-0.4761133,0.289325-0.7213068,0.4210968
		c-0.3621845,0.1946466-0.7273064,0.3838162-1.0995913,0.5589972c-0.2119217,0.0997214-0.4227972,0.2016165-0.6370993,0.2961934
		c-0.0124407,0.0054898-0.0244455,0.0147414-0.0404043,0.0087652c-0.0018978-0.0235782,0.0183105-0.0245142,0.0306606-0.029963
		c0.3444233-0.1519587,0.6813707-0.3194306,1.0177011-0.4882605c0.5061617-0.2540817,1.0004711-0.5289407,1.4784288-0.8331866
		c0.3594332-0.2287979,0.7077665-0.4727983,1.0373077-0.7430673c0.0262718-0.0215466,0.0595789-0.0415134,0.0608778-0.0829766
		C14.5205755,2.0042272,14.5489273,2.0042214,14.57728,2.0042157z"/>
	<path style="fill:#FEFEFE;" d="M13.8954306,20.2523727c-0.2452116,0.0005035-0.4904232,0.0010071-0.7356358,0.0015106
		c-0.0779705-0.0007-0.1559391-0.0018749-0.2339087-0.0020237c-0.7767172-0.0014973-1.5534363-0.0026283-2.3301525-0.004427
		c-0.1116781-0.0002575-0.2233486-0.0035076-0.335022-0.005373c-0.2376471-0.0082207-0.475316-0.0158615-0.7129374-0.0247822
		c-0.4613018-0.0173187-0.920949-0.0493412-1.3738003-0.1471214c-0.4218168-0.0910759-0.8256822-0.2312813-1.2083893-0.4314423
		c-0.0340405-0.0178032-0.0694323-0.0330238-0.1041975-0.0494461c-0.1563945-0.0939007-0.310915-0.1915264-0.4513297-0.3077927
		c-0.2706194-0.2240734-0.5189567-0.4707336-0.7318792-0.7516384c-0.1799808-0.2374477-0.3273115-0.4936829-0.4475698-0.7658978
		c-0.0063729-0.0144272-0.0143013-0.0281658-0.0215049-0.0422249c-0.1419334-0.3486443-0.2511344-0.7068539-0.3153276-1.0782394
		C4.8817377,16.5738277,4.8692336,16.5042629,4.856945,16.43466c-0.0038466-0.0754871-0.0243621-0.1487579-0.0315404-0.2235107
		c-0.0107727-0.1121979-0.0162449-0.2249622-0.0218339-0.3375912c-0.0124078-0.2500505-0.0234885-0.5001659-0.0351105-0.7502556
		c-0.0028148-0.1239738-0.0054169-0.2479534-0.0084815-0.3719206c-0.0137987-0.5581694-0.0102081-1.1164589-0.0117841-1.6747131
		c-0.0000601-0.0212193-0.0013785-0.0424347-0.0021105-0.063653c0.0007138-0.0513105,0.0020142-0.1026211,0.002049-0.1539307
		c0.0003138-0.4570074,0.0004272-0.9140148,0.000484-1.3710222c0.0000024-0.0212193-0.0011001-0.0424385-0.001688-0.0636549
		c0.0009661-0.2557144,0.0019321-0.5114317,0.0028982-0.767148c0.0026159-0.0832052,0.0065289-0.1663933,0.0076332-0.2496176
		c0.0061617-0.4643393,0.025672-0.9281635,0.0521526-1.3917294c0.0298133-0.3408585,0.0749526-0.6792793,0.158587-1.0117464
		C5.0597253,7.6403317,5.1916418,7.2918854,5.363914,6.9586682c0.1832113-0.3400087,0.4187875-0.6407275,0.6877003-0.9164324
		C6.1315465,5.967,6.2084985,5.888238,6.2922373,5.8175116C6.377871,5.7451849,6.4672251,5.6772118,6.5583959,5.611268
		c0.1623197-0.1174059,0.3329906-0.21977,0.5127058-0.3065152c0.418417-0.2019649,0.8582349-0.3370962,1.3163362-0.4144073
		c0.2639189-0.0445409,0.5297298-0.0702887,0.7963877-0.0894418c0.2465134-0.009747,0.4930153-0.0198131,0.739543-0.0291719
		c0.4347954-0.0165048,0.8698082-0.019937,1.3048563-0.020175c1.0814323-0.0005913,2.1628876-0.0065002,3.2442818,0.0053849
		c0.4491596,0.0049367,0.8981743,0.0190744,1.3466511,0.0464959c0.0300646,0.0018382,0.060276,0.0012565,0.0904179,0.0018001
		c0.1622629,0.017611,0.3249712,0.0318751,0.4867201,0.0533657c1.227108,0.1630359,2.2526569,0.6806712,2.9897518,1.7039666
		c0.0030689,0.0042601,0.0072422,0.0077248,0.0108929,0.0115547c0.1780262,0.2618427,0.3261013,0.539381,0.4412651,0.8346171
		c0.1613255,0.413578,0.2608852,0.8419695,0.3146839,1.2819443c0.039011,0.3190479,0.0541344,0.6395702,0.0652618,0.9604464
		c0.0010414,0.0300207,0.0052338,0.0599308,0.0079613,0.0898991c0.0037861,0.1649151,0.0083427,0.3298111,0.0112362,0.4947367
		c0.0194569,1.1087589,0.0103054,2.217618,0.011282,3.3264418c0.0000191,0.0230274,0.0011883,0.0460558,0.0018196,0.0690851
		c-0.0028954,0.2876987-0.0060577,0.5753946-0.008625,0.8630943c-0.0035686,0.399684-0.0173187,0.7991018-0.0378666,1.1981764
		c-0.0263309,0.5113544-0.0846729,1.0183887-0.2331123,1.5110722c-0.0332031,0.1102104-0.0708618,0.2190781-0.1064701,0.3285618
		c-0.0736504,0.1765842-0.1477242,0.3528805-0.2389297,0.5215263c-0.1829662,0.3383102-0.4152927,0.6389751-0.6880283,0.9092255
		c-0.012516,0.0124016-0.0239525,0.0258884-0.0358906,0.0388699c-0.1790276,0.1647396-0.3636932,0.3222866-0.5673561,0.4566307
		c-0.2468472,0.1628284-0.5099239,0.2930412-0.7858849,0.3981342c-0.0064373,0.0024529-0.0121937,0.0067005-0.0182705,0.0101109
		c-0.1690807,0.0574417-0.3381042,0.1151409-0.5115948,0.1582623c-0.2355881,0.0585537-0.4738121,0.1020203-0.715004,0.1309834
		c-0.0708275,0.0085068-0.1442719,0.0044556-0.2124119,0.0321503c-0.0943012-0.0108185-0.1875639,0.0069218-0.2811584,0.0118618
		c-0.6182489,0.0326424-1.2368908,0.0489101-1.8559532,0.0508423
		C13.9344044,20.2508564,13.9149179,20.2518272,13.8954306,20.2523727z M6.1541405,10.6145372
		c-0.0111012,0.1883011-0.0071664,0.3767643-0.0060992,0.565196c-0.0008883,0.3026409-0.0021353,0.6052818-0.002521,0.9079237
		c-0.0002074,0.1627913,0.001061,0.3255835,0.0016637,0.4883747c-0.0006375,0.0141344-0.0018387,0.0282688-0.0018315,0.0424032
		c0.000196,0.3987236-0.0001702,0.797451,0.0010681,1.1961718c0.0007486,0.2409315-0.0021443,0.4819393,0.0095582,0.7227373
		c-0.0005126,0.0194416-0.0015955,0.0388861-0.0014539,0.0583248c0.002614,0.3582935,0.0185022,0.7161932,0.0365567,1.0739183
		c0.011848,0.2347555,0.0289097,0.4694414,0.0751419,0.7007399c0.0395298,0.2535076,0.1089306,0.498703,0.2053695,0.7363186
		c0.066843,0.1646976,0.142395,0.3248539,0.2472434,0.4695587c0.0102587,0.0164566,0.0195575,0.0336094,0.0309134,0.0492687
		c0.3643656,0.5024586,0.8466768,0.8342304,1.4428811,1.0056782c0.3915882,0.112606,0.7922068,0.1589031,1.1969347,0.1776695
		c0.4378977,0.0203075,0.8759832,0.0360832,1.3144855,0.0375118c0.2324257,0.0007591,0.464817,0.0092373,0.6972818,0.0034466
		c0.014122,0.0007515,0.028245,0.0021515,0.0423679,0.002161c0.5527344,0.0004311,1.1054688,0.0007744,1.6582031,0.0009079
		c0.0264988,0.0000057,0.0529985-0.0020256,0.0794964-0.0031052c0.017664,0.0007458,0.0353317,0.0022278,0.0529919,0.0021324
		c0.356039-0.0019283,0.7120924-0.0028915,1.0681152-0.0065746c0.1911516-0.0019779,0.3825264,0.0037498,0.5734053-0.0120831
		c0.1403093,0.0043659,0.280241-0.0061359,0.4202652-0.0115852c0.3244247-0.0126266,0.6489363-0.0240326,0.9706793-0.0734901
		c0.3110962-0.047823,0.615242-0.1192322,0.9012184-0.2552776c0.020565,0.0017776,0.03759-0.0083923,0.0553741-0.0162106
		c0.3735886-0.1642208,0.6758327-0.420023,0.9332981-0.7317638c0.1198215-0.1450882,0.2243595-0.3006821,0.2933769-0.4775257
		c0.0178871-0.0091572,0.0205002-0.028368,0.0274925-0.0439968c0.1237736-0.2766972,0.2072239-0.565321,0.2576962-0.864069
		c0.0491943-0.2912006,0.0687695-0.5850029,0.0810547-0.8794565c0.0082111-0.1968231,0.0133686-0.3937712,0.0198956-0.5906639
		c0.0010281-0.0069952,0.0028152-0.0139732,0.0029793-0.0209894c0.018383-0.7854071,0.0122662-1.5709562,0.0135956-2.3564625
		c0.0000057-0.0034952-0.0010948-0.0069923-0.0016785-0.0104885c0.0007801-0.010581,0.0022659-0.0211639,0.0022373-0.031743
		c-0.0017815-0.6312284-0.0030231-1.2624598-0.0060577-1.8936834c-0.0007591-0.1577005-0.0073376-0.3153734-0.01124-0.4730492
		c0.0005856-0.0052805,0.0018787-0.0105906,0.0016594-0.0158377c-0.0173969-0.4151144-0.0211391-0.8310642-0.0722561-1.2441683
		c-0.0475731-0.3844776-0.1417446-0.756237-0.3064976-1.1085076C18.3764229,7.557673,18.268446,7.398356,18.1465092,7.246429
		c-0.1634846-0.2036991-0.3499489-0.3807917-0.5667706-0.5261216c-0.0249596-0.0168676-0.0492096-0.0349112-0.0749817-0.0504284
		c-0.4183044-0.251864-0.8776913-0.3753223-1.3575726-0.4367933c-0.3541298-0.0453625-0.71066-0.0474339-1.0663633-0.0637589
		c-0.2128696-0.009769-0.4261084-0.0154753-0.6391954-0.0158529c-1.5577879-0.0027623-3.1156988-0.028194-4.6732626,0.0175309
		C9.3833227,6.1823082,8.998167,6.1978679,8.6173744,6.2651916C8.2263184,6.3343296,7.8494978,6.4478273,7.5108466,6.6585488
		c-0.5309429,0.3303728-0.9023328,0.791811-1.0990291,1.3889899c-0.0481243,0.1461067-0.0972362,0.291997-0.1185026,0.4452734
		C6.2523317,8.6608648,6.2299771,8.831686,6.2173495,9.003953c-0.0025363,0.0174208-0.005486,0.0347929-0.007544,0.0522699
		C6.1923723,9.2042408,6.1895227,9.3532143,6.1827884,9.5018473c-0.009716,0.214448-0.0151424,0.4290905-0.0223994,0.643651
		C6.1583061,10.3018446,6.1562233,10.4581909,6.1541405,10.6145372z"/>
	<path style="fill:#D53E8F;" d="M18.8360996,10.1027517c0.0039024,0.1576862,0.0104809,0.3153591,0.01124,0.4730597
		c0.0030346,0.6312237,0.0042763,1.262455,0.0060577,1.8936834c0.0000286,0.0105791-0.0014572,0.021162-0.0022373,0.031744
		c-0.0168667,0.0000572-0.0297012-0.0057812-0.0412006-0.0195827c-0.0840912-0.1009121-0.1813335-0.1894884-0.2711582-0.2850857
		c-0.1723957-0.1834755-0.3586807-0.3533335-0.5425415-0.5254726c-0.1901112-0.17799-0.3852921-0.3499737-0.5833073-0.519022
		c-0.204813-0.1748524-0.4153309-0.3424711-0.6295204-0.5055008c-0.4208889-0.3203583-0.8573151-0.6182585-1.3075914-0.8956642
		c-0.0593061-0.0365372-0.112709-0.0879164-0.1876831-0.0945454c-0.0081625-0.0066881-0.0167894-0.0128908-0.0244246-0.0201349
		c-0.7012091-0.6653566-1.5333567-1.0402431-2.4976778-1.106308c-0.7940788-0.0544014-1.5408869,0.1175652-2.235178,0.510066
		c-0.2450418,0.1385279-0.469451,0.3059235-0.683156,0.4882946C9.8340158,9.515974,9.8201914,9.5077543,9.7999392,9.5147924
		C9.6487465,9.5673323,9.4879236,9.5462351,9.3323555,9.5760612C9.1664143,9.6078749,8.9997969,9.6471529,8.8291931,9.6529369
		C8.7288332,9.6563406,8.635478,9.6968727,8.5368137,9.7076664c-0.190114,0.0207987-0.377284,0.0605211-0.5673141,0.0832758
		C7.8063803,9.8104763,7.647934,9.8619566,7.4846182,9.8863287C7.3742132,9.9028044,7.267766,9.9396534,7.1566319,9.9542875
		c-0.1474361,0.0194149-0.2952929,0.0364342-0.440062,0.072629c-0.18399,0.0459986-0.3669653,0.0969973-0.556181,0.1185818
		c0.007257-0.2145605,0.0126834-0.429203,0.0223994-0.643651c0.0067344-0.148633,0.009584-0.2976065,0.0270171-0.4456244
		c0.002058-0.017477,0.0050077-0.0348492,0.007544-0.0522709C6.508585,8.9622841,6.7941108,8.890564,7.0822105,8.8331795
		c0.2271309-0.0452414,0.453608-0.0993757,0.6780829-0.1591282c0.0324531-0.0086384,0.0658774-0.0135622,0.0987177-0.0208178
		c0.084218-0.0186071,0.1714597,0.0020962,0.2543626-0.0140781C8.2800798,8.6066322,8.4453964,8.566473,8.6103191,8.525569
		c0.071022-0.0176144,0.1422195-0.0316496,0.2148333-0.0311708C8.9162807,8.494998,9.0046797,8.4850264,9.093133,8.4615574
		c0.1437244-0.0381336,0.2886772-0.0662374,0.438446-0.0788498C9.6821146,8.3700304,9.8302345,8.3286982,9.979435,8.3000431
		c0.012104-0.0023251,0.0250053-0.007102,0.0364895-0.0050068c0.0957222,0.0174704,0.1867142-0.0064459,0.2773399-0.0310946
		c0.0993462-0.0270214,0.2030334-0.0635366,0.301816-0.0520573c0.1769638,0.020566,0.3411484-0.0237112,0.5083151-0.0591755
		c0.0543814-0.0115366,0.1067982-0.0250196,0.1615381-0.0077171c0.0316954,0.0100183,0.0623932,0.0068626,0.0943346-0.0004339
		c0.1521292-0.0347557,0.3049955-0.064312,0.4624472-0.0565596c0.0138454,0.0006819,0.028017-0.0035591,0.0419273-0.0061159
		c0.1147947-0.0210953,0.2305889-0.0618286,0.3449755-0.0523348c0.1099148,0.0091228,0.2102146-0.0230303,0.3146648-0.0330877
		c0.112174-0.0108023,0.2259283-0.0139141,0.336832-0.0364389c0.0958309-0.0194621,0.1929235-0.0140133,0.2893019-0.01789
		c0.05548-0.002233,0.1069584-0.0271645,0.1625795-0.0208182c0.0965633,0.0110188,0.1920042-0.0194969,0.2887287-0.0076399
		c0.0112429,0.0013781,0.023469-0.0074973,0.0355463-0.0102949c0.0705729-0.0163498,0.1419849-0.0403056,0.2137089-0.0342302
		C13.928895,7.8758311,14.0045996,7.876092,14.081562,7.856039c0.0683718-0.0178156,0.1371527-0.0303912,0.2099695-0.0151677
		c0.0459003,0.0095963,0.0944185,0.0039043,0.1419201-0.0104203c0.0835037-0.0251822,0.1708527-0.0452509,0.2559853-0.0168781
		c0.0691519,0.023047,0.1299095,0.0122151,0.1960535-0.0078797c0.0389032-0.0118194,0.080533-0.0322881,0.1241789-0.0183868
		c0.0613098,0.019526,0.120676,0.0137444,0.1831074,0.0003753c0.079236-0.0169678,0.1603985-0.0289745,0.242487-0.0126748
		c0.022295,0.0044274,0.0463419,0.0061097,0.0687342,0.0029721c0.1330976-0.0186529,0.2646236,0.0033574,0.3966389,0.0129366
		c-0.006712,0.0103431-0.0132532,0.0208011-0.0201597,0.0310116c-0.163353,0.2414694-0.2169638,0.5028734-0.1402035,0.7867298
		c0.1272755,0.4706554,0.6055059,0.7641697,1.0820818,0.6659117c0.2226295-0.0459013,0.4017277-0.1623487,0.5473976-0.3339834
		c0.0135784,0.0082998,0.0279293,0.0155649,0.0406132,0.0250607c0.1205425,0.0902452,0.2408352,0.1808176,0.3611259,0.2713957
		c0.1725731,0.1299467,0.3409176,0.2651453,0.5071125,0.4031858c0.1511345,0.1255331,0.3002491,0.2532787,0.448246,0.3824711
		C18.7601166,10.0517387,18.7861099,10.0950289,18.8360996,10.1027517z"/>
	<path style="fill:#A237B3;" d="M6.2933149,8.4928122c0.0212665-0.1532764,0.0703783-0.2991667,0.1185026-0.4452734
		c0.1966963-0.5971789,0.5680861-1.0586171,1.0990291-1.3889899c0.3386512-0.2107215,0.7154717-0.3242192,1.1065278-0.3933573
		C8.998167,6.1978679,9.3833227,6.1823082,9.768363,6.1710048c1.5575638-0.0457249,3.1154747-0.0202932,4.6732626-0.0175309
		c0.2130871,0.0003777,0.4263258,0.006084,0.6391954,0.0158529c0.3557034,0.016325,0.7122335,0.0183964,1.0663633,0.0637589
		c0.4798813,0.061471,0.9392681,0.1849294,1.3575726,0.4367933c0.0257721,0.0155172,0.0500221,0.0335608,0.0749798,0.0504303
		c-0.0523663,0.0332046-0.108839,0.055912-0.1712742,0.0439425c-0.0827332-0.0158625-0.1620865-0.0111842-0.239912,0.021461
		c-0.0389156,0.0163236-0.082119,0.0221272-0.1200581,0.0080924c-0.0668106-0.0247154-0.1284389-0.0104175-0.1925411,0.0064883
		c-0.0532322,0.014039-0.1147346,0.0213594-0.1608524,0.0002975c-0.0617352-0.028193-0.1120682-0.0141325-0.167778,0.0027175
		c-0.0338745,0.0102453-0.0683975,0.0248084-0.1028404,0.025413c-0.0834007,0.0014639-0.1654606,0.0069623-0.2479591,0.0220485
		c-0.1108551,0.0202723-0.2267609,0.0081172-0.334115,0.0542808c-0.0405035,0.0174174-0.0832758,0.0175009-0.1215315-0.0115681
		c-0.0121098-0.0092015-0.0261545-0.0093303-0.0407209-0.0058465c-0.0482435,0.0115385-0.096714,0.0221486-0.1448555,0.0340853
		c-0.0671177,0.0166421-0.1337585,0.0358334-0.197731-0.0110168c-0.0132103-0.009675-0.0314732-0.0074615-0.0467052-0.0026093
		c-0.1085978,0.0345969-0.2219439,0.043489-0.3329229,0.0647445c-0.0956335,0.0183163-0.1877222,0.0505447-0.2869415,0.0287633
		c-0.0132732-0.002914-0.0286407-0.0004644-0.0422211,0.002851c-0.1149912,0.0280704-0.2272978,0.0659776-0.3484221,0.066916
		c-0.091732,0.0007105-0.1791039,0.0447078-0.2730913,0.0363541c-0.0505857-0.0044956-0.098999,0.0068145-0.1460991,0.0237093
		c-0.0808363,0.0289969-0.161541,0.054709-0.2492657,0.0307474c-0.0143023-0.0039063-0.0317783,0.0009065-0.0471725,0.0043969
		c-0.0673409,0.0152669-0.1337118,0.0373249-0.201827,0.0460744c-0.1020079,0.0131025-0.2036095,0.0239077-0.3010826,0.059978
		c-0.0451288,0.0167003-0.0944166,0.0276146-0.140933,0.0103087c-0.0892029-0.0331869-0.1602278,0.0183778-0.2342854,0.0483437
		c-0.0199146,0.0080576-0.0373335,0.0216599-0.0608053,0.0215883c-0.0726604-0.0002232-0.1441746,0.0023084-0.2166414,0.0175009
		c-0.1011581,0.0212069-0.2009859,0.0813899-0.3093052,0.0262628c-0.0040026-0.0020375-0.0108261-0.0004368-0.0156527,0.0013318
		c-0.0805922,0.0295157-0.166399,0.0348229-0.2491846,0.0540147c-0.1049528,0.0243297-0.2139969,0.0259933-0.3174896,0.0595646
		c-0.0295858,0.0095978-0.0648251,0.0159202-0.0942287,0.0093126c-0.0946217-0.0212665-0.1836758,0.0078917-0.2714252,0.0290236
		c-0.1187439,0.0285954-0.2379217,0.0650311-0.3577118,0.0753379c-0.1208315,0.0103951-0.2361755,0.0533438-0.3615656,0.0431714
		c-0.0816059-0.0066209-0.1669893,0.0245199-0.2497501,0.0429282c-0.1366043,0.030386-0.2724304,0.0642614-0.4086542,0.0963721
		C9.7552986,7.8121428,9.7311163,7.8240914,9.717741,7.8169403c-0.0722942-0.03865-0.1406231-0.0014534-0.2076035,0.0105948
		C9.3311329,7.859735,9.1606245,7.9360733,8.9741135,7.9306207c-0.0051279-0.0001497-0.0103426,0.0023355-0.015501,0.0036569
		C8.8349676,7.9659462,8.7109938,7.9964004,8.5877876,8.0296888C8.4899054,8.0561352,8.3912716,8.0799637,8.28967,8.076601
		C8.1993847,8.0736132,8.1133747,8.0898209,8.0274229,8.1132355c-0.1163721,0.031702-0.2329588,0.0626478-0.3497338,0.0928316
		C7.504313,8.250885,7.3258562,8.2692375,7.151412,8.3112173C6.8672676,8.3795948,6.5795341,8.4330568,6.2933149,8.4928122z"/>
	<path style="fill:#FE6B42;" d="M14.8759127,18.8332176c-0.1908789,0.0158329-0.3822536,0.0101051-0.5734053,0.0120831
		c-0.3560228,0.0036831-0.7120762,0.0046463-1.0681152,0.0065746c-0.0176601,0.0000954-0.0353279-0.0013866-0.0529919-0.0021324
		c0.0016098-0.0229149-0.0081148-0.0401821-0.0237608-0.0567226c-0.1314526-0.1389771-0.2591114-0.2810059-0.3989334-0.4125938
		c-0.2158728-0.2031574-0.4403-0.3951817-0.6749601-0.5758381c-0.3807364-0.2931137-0.7850533-0.5483646-1.2152863-0.7627163
		c-0.1605597-0.0799961-0.3238411-0.1535873-0.4891043-0.2231712c-0.3426905-0.1442966-0.6950893-0.2598896-1.0557995-0.3484497
		c-0.3409433-0.0837097-0.6864243-0.1422806-1.036396-0.1772366c-0.2259178-0.0225677-0.4524317-0.0340996-0.6784639-0.0363197
		c-0.2047501-0.0020123-0.4105086,0.0055122-0.6154127,0.0262184c-0.1337843,0.0135212-0.2673521,0.0281525-0.4009633,0.043169
		C6.483201,16.3383465,6.3765497,16.367897,6.2662234,16.370327c-0.0462322-0.2312984-0.0632939-0.4659843-0.0751419-0.7007399
		c-0.0180545-0.3577251-0.0339427-0.7156248-0.0365567-1.0739183C6.1543832,14.57623,6.1554661,14.5567856,6.1559787,14.537344
		c0.010643-0.000288,0.0215015,0.0007048,0.0318975-0.0010481c0.2006993-0.0338211,0.4030623-0.0534325,0.6052489-0.0758085
		c0.2485971-0.0275116,0.4983239-0.0336504,0.7472692-0.0368347c0.2294531-0.0029354,0.4598889,0.0063295,0.6895528,0.0261822
		c0.1727333,0.0149307,0.3451586,0.0303993,0.5168581,0.0543718c0.1103258,0.0154057,0.220871,0.0292397,0.3313179,0.0437756
		c0.0219841,0.0317144,0.0449934,0.0627718,0.0657959,0.0952454c0.2082243,0.3250513,0.4575291,0.614934,0.7500582,0.8665113
		c0.6007853,0.5166798,1.2942219,0.8290119,2.0797281,0.9368992c0.2204905,0.030283,0.4419651,0.0351086,0.6639099,0.0335407
		c-0.0003872,0.0333424,0.024375,0.049902,0.0465631,0.0669956c0.0561028,0.0432186,0.1131983,0.085146,0.1697636,0.1277676
		c0.3158674,0.2379971,0.6087332,0.5024624,0.8917294,0.7780495c0.0748405,0.0728798,0.1457214,0.1499424,0.2165232,0.2268314
		c0.1067038,0.115881,0.2151003,0.2304573,0.3167276,0.3507023c0.1714182,0.2028179,0.337739,0.410038,0.4895649,0.6281204
		C14.8073416,18.7144585,14.861598,18.7619362,14.8759127,18.8332176z"/>
	<path style="fill:#C737AA;" d="M6.2933149,8.4928122C6.5795341,8.4330568,6.8672676,8.3795948,7.151412,8.3112173
		C7.3258562,8.2692375,7.504313,8.250885,7.6776891,8.2060671c0.116775-0.0301838,0.2333617-0.0611296,0.3497338-0.0928316
		C8.1133747,8.0898209,8.1993847,8.0736132,8.28967,8.076601c0.1016016,0.0033627,0.2002354-0.0204659,0.2981176-0.0469122
		c0.1232061-0.0332885,0.24718-0.0637426,0.3708248-0.0954113c0.0051584-0.0013213,0.0103731-0.0038066,0.015501-0.0036569
		c0.186511,0.0054526,0.3570194-0.0708857,0.5360241-0.1030855C9.5771179,7.8154869,9.6454468,7.7782903,9.717741,7.8169403
		c0.0133753,0.0071511,0.0375576-0.0047975,0.0564423-0.0092487c0.1362238-0.0321107,0.2720499-0.0659862,0.4086542-0.0963721
		c0.0827608-0.0184083,0.1681442-0.0495491,0.2497501-0.0429282c0.1253901,0.0101724,0.2407341-0.0327764,0.3615656-0.0431714
		c0.1197901-0.0103068,0.2389679-0.0467424,0.3577118-0.0753379c0.0877495-0.021132,0.1768036-0.0502901,0.2714252-0.0290236
		c0.0294037,0.0066075,0.0646429,0.0002851,0.0942287-0.0093126c0.1034927-0.0335712,0.2125368-0.0352349,0.3174896-0.0595646
		c0.0827856-0.0191917,0.1685925-0.0244989,0.2491846-0.0540147c0.0048265-0.0017686,0.0116501-0.0033693,0.0156527-0.0013318
		c0.1083193,0.0551271,0.208147-0.0050559,0.3093052-0.0262628c0.0724669-0.0151925,0.143981-0.017724,0.2166414-0.0175009
		c0.0234718,0.0000715,0.0408907-0.0135307,0.0608053-0.0215883c0.0740576-0.0299659,0.1450825-0.0815306,0.2342854-0.0483437
		c0.0465164,0.0173059,0.0958042,0.0063915,0.140933-0.0103087c0.0974731-0.0360703,0.1990747-0.0468755,0.3010826-0.059978
		c0.0681152-0.0087495,0.1344862-0.0308075,0.201827-0.0460744c0.0153942-0.0034904,0.0328703-0.0083032,0.0471725-0.0043969
		c0.0877247,0.0239615,0.1684294-0.0017505,0.2492657-0.0307474c0.0471001-0.0168948,0.0955133-0.0282049,0.1460991-0.0237093
		c0.0939875,0.0083537,0.1813593-0.0356436,0.2730913-0.0363541c0.1211243-0.0009384,0.2334309-0.0388455,0.3484221-0.066916
		c0.0135803-0.0033154,0.0289478-0.005765,0.0422211-0.002851c0.0992193,0.0217814,0.191308-0.010447,0.2869415-0.0287633
		c0.1109791-0.0212555,0.2243252-0.0301476,0.3329229-0.0647445c0.0152321-0.0048523,0.0334949-0.0070658,0.0467052,0.0026093
		c0.0639725,0.0468502,0.1306133,0.0276589,0.197731,0.0110168c0.0481415-0.0119367,0.096612-0.0225468,0.1448555-0.0340853
		c0.0145664-0.0034838,0.0286112-0.003355,0.0407209,0.0058465c0.0382557,0.0290689,0.081028,0.0289855,0.1215315,0.0115681
		c0.1073542-0.0461636,0.2232599-0.0340085,0.334115-0.0542808c0.0824986-0.0150862,0.1645584-0.0205846,0.2479591-0.0220485
		c0.0344429-0.0006046,0.0689659-0.0151677,0.1028404-0.025413c0.0557098-0.01685,0.1060429-0.0309105,0.167778-0.0027175
		c0.0461178,0.0210619,0.1076202,0.0137415,0.1608524-0.0002975c0.0641022-0.0169058,0.1257305-0.0312037,0.1925411-0.0064883
		c0.0379391,0.0140347,0.0811424,0.0082312,0.1200581-0.0080924c0.0778255-0.0326452,0.1571789-0.0373235,0.239912-0.021461
		c0.0624352,0.0119696,0.1189079-0.0107379,0.1712742-0.0439429c0.2168236,0.1453285,0.4032879,0.3224211,0.5667725,0.5261202
		c0.1219368,0.151927,0.2299137,0.311244,0.3124962,0.4878197c0.164753,0.3522706,0.2589245,0.72403,0.3064976,1.1085076
		c0.0511169,0.4131041,0.0548592,0.8290539,0.0722561,1.2441683c0.0002193,0.0052471-0.0010738,0.0105572-0.0016594,0.0158319
		c-0.0499897-0.0077276-0.075983-0.0510178-0.1092491-0.0800581c-0.1479969-0.1291924-0.2971115-0.256938-0.448246-0.3824711
		c-0.1661949-0.1380405-0.3345394-0.2732391-0.5071125-0.4031858c-0.1202908-0.0905781-0.2405834-0.1811504-0.3611259-0.2713957
		c-0.0126839-0.0094957-0.0270348-0.0167608-0.040617-0.0250559c0.008707-0.0132713,0.0169983-0.0268469,0.0261917-0.0397806
		c0.2952862-0.415452,0.202158-0.9977498-0.2148361-1.2905269c-0.3112202-0.2185121-0.6434746-0.2352562-0.9837532-0.0661135
		c-0.1178226,0.0585661-0.2116804,0.1478028-0.2967148,0.2467465c-0.1320152-0.0095792-0.2635412-0.0315895-0.3966389-0.0129366
		c-0.0223923,0.0031376-0.0464392,0.0014553-0.0687342-0.0029721c-0.0820885-0.0162997-0.1632509-0.004293-0.242487,0.0126748
		c-0.0624313,0.0133691-0.1217976,0.0191507-0.1831074-0.0003753c-0.0436459-0.0139012-0.0852757,0.0065675-0.1241789,0.0183868
		c-0.066144,0.0200949-0.1269016,0.0309267-0.1960535,0.0078797c-0.0851326-0.0283728-0.1724815-0.0083041-0.2559853,0.0168781
		c-0.0475016,0.0143247-0.0960197,0.0200167-0.1419201,0.0104203c-0.0728168-0.0152235-0.1415977-0.0026479-0.2099695,0.0151677
		c-0.0769625,0.0200529-0.152667,0.0197921-0.2315817,0.0131087c-0.0717239-0.0060754-0.143136,0.0178804-0.2137089,0.0342302
		c-0.0120773,0.0027976-0.0243034,0.011673-0.0355463,0.0102949c-0.0967245-0.011857-0.1921654,0.0186586-0.2887287,0.0076399
		c-0.0556211-0.0063462-0.1070995,0.0185852-0.1625795,0.0208182c-0.0963783,0.0038767-0.193471-0.0015721-0.2893019,0.01789
		c-0.1109037,0.0225248-0.224658,0.0256367-0.336832,0.0364389c-0.1044502,0.0100574-0.2047501,0.0422106-0.3146648,0.0330877
		c-0.1143866-0.0094938-0.2301807,0.0312395-0.3449755,0.0523348c-0.0139103,0.0025568-0.0280819,0.0067978-0.0419273,0.0061159
		c-0.1574516-0.0077524-0.310318,0.0218039-0.4624472,0.0565596c-0.0319414,0.0072966-0.0626392,0.0104523-0.0943346,0.0004339
		c-0.05474-0.0173025-0.1071568-0.0038195-0.1615381,0.0077171c-0.1671667,0.0354643-0.3313513,0.0797415-0.5083151,0.0591755
		c-0.0987825-0.0114794-0.2024698,0.0250359-0.301816,0.0520573c-0.0906258,0.0246487-0.1816177,0.0485649-0.2773399,0.0310946
		C10.0044403,8.2929411,9.991539,8.297718,9.979435,8.3000431C9.8302345,8.3286982,9.6821146,8.3700304,9.531579,8.3827076
		C9.3818102,8.3953199,9.2368574,8.4234238,9.093133,8.4615574C9.0046797,8.4850264,8.9162807,8.494998,8.8251524,8.4943981
		C8.7525387,8.4939194,8.6813412,8.5079546,8.6103191,8.525569C8.4453964,8.566473,8.2800798,8.6066322,8.1133738,8.6391554
		c-0.0829029,0.0161743-0.1701446-0.004529-0.2543626,0.0140781C7.8261709,8.6604891,7.7927465,8.6654129,7.7602935,8.6740513
		C7.5358186,8.7338037,7.3093414,8.7879381,7.0822105,8.8331795C6.7941108,8.890564,6.508585,8.9622841,6.2173495,9.003952
		C6.2299771,8.831686,6.2523317,8.6608648,6.2933149,8.4928122z"/>
	<path style="fill:#FE8045;" d="M6.2662234,16.370327c0.1103263-0.00243,0.2169776-0.0319805,0.3260965-0.0442448
		c0.1336112-0.0150166,0.267179-0.0296478,0.4009633-0.043169c0.2049041-0.0207062,0.4106627-0.0282307,0.6154127-0.0262184
		c0.2260323,0.0022202,0.4525461,0.013752,0.6784639,0.0363197c0.3499718,0.034956,0.6954527,0.0935268,1.036396,0.1772366
		c0.3607101,0.0885601,0.713109,0.2041531,1.0557995,0.3484497c0.1652632,0.0695839,0.3285446,0.1431751,0.4891043,0.2231712
		c0.430233,0.2143517,0.8345499,0.4696026,1.2152863,0.7627163c0.2346601,0.1806564,0.4590874,0.3726807,0.6749601,0.5758381
		c0.139822,0.131588,0.2674809,0.2736168,0.3989334,0.4125938c0.015646,0.0165405,0.0253706,0.0338078,0.0237608,0.0567226
		c-0.0264978,0.0010796-0.0529976,0.0031109-0.0794964,0.0031052c-0.5527344-0.0001335-1.1054688-0.0004768-1.6582031-0.0009079
		c-0.014123-0.0000095-0.0282459-0.0014095-0.0423679-0.002161c-0.0005016-0.0287151-0.0208225-0.0432663-0.0409641-0.0584469
		c-0.1489124-0.1122379-0.3038998-0.2155266-0.461544-0.3149776c-0.3069839-0.1936665-0.6288719-0.3584499-0.9644527-0.4963646
		c-0.3340178-0.1372738-0.6774721-0.2445049-1.0301371-0.3229275c-0.3972692-0.0883389-0.7998095-0.1317253-1.205852-0.1455956
		c-0.211081-0.0072117-0.421916,0.0056992-0.6320848,0.0225983c-0.1160669,0.0093327-0.2329621,0.0173931-0.3474617,0.0421391
		c-0.1048484-0.1447048-0.1804004-0.3048611-0.2472434-0.4695587C6.375154,16.86903,6.3057532,16.6238346,6.2662234,16.370327z"/>
	<path style="fill:#FB5345;" d="M14.8759127,18.8332176c-0.0143147-0.0712814-0.0685711-0.1187592-0.1074257-0.174572
		c-0.1518259-0.2180824-0.3181467-0.4253025-0.4895649-0.6281204c-0.1016273-0.120245-0.2100239-0.2348213-0.3167276-0.3507023
		c-0.0708017-0.076889-0.1416826-0.1539516-0.2165232-0.2268314c-0.2829962-0.2755871-0.5758619-0.5400524-0.8917294-0.7780495
		c-0.0565653-0.0426216-0.1136608-0.084549-0.1697636-0.1277676c-0.0221882-0.0170937-0.0469503-0.0336533-0.0465641-0.0669956
		c0.1746502-0.0138149,0.3491812-0.0230999,0.5228205-0.0532894c0.4455481-0.0774632,0.8657522-0.2235794,1.2621899-0.4400539
		c0.1884861-0.1029253,0.3635359-0.2261887,0.5366526-0.3524542c0.0058851,0.0039492,0.0125914,0.0070696,0.0175371,0.0119667
		c0.1954775,0.1935472,0.3914042,0.3866816,0.5781145,0.5888109c0.0600624,0.0650196,0.1190958,0.1310978,0.176199,0.1987209
		c0.1427765,0.1690769,0.2851648,0.3384113,0.4207602,0.5134945c0.2304363,0.2975407,0.4443607,0.6064224,0.6465988,0.9235973
		c0.1297131,0.2034264,0.2503033,0.4122715,0.3695889,0.6218929c-0.2859764,0.1360455-0.5901222,0.2074547-0.9012184,0.2552776
		c-0.321743,0.0494576-0.6462545,0.0608635-0.9706793,0.0734901C15.1561537,18.8270817,15.016222,18.8375835,14.8759127,18.8332176z
		"/>
	<path style="fill:#F14D57;" d="M17.1680756,18.4928646c-0.1192856-0.2096214-0.2398758-0.4184666-0.3695889-0.6218929
		c-0.2022381-0.3171749-0.4161625-0.6260567-0.6465988-0.9235973c-0.1355953-0.1750832-0.2779837-0.3444176-0.4207602-0.5134945
		c-0.0571032-0.0676231-0.1161366-0.1337013-0.176199-0.1987209c-0.1867104-0.2021294-0.382637-0.3952637-0.5781145-0.5888109
		c-0.0049458-0.0048971-0.011652-0.0080175-0.0175371-0.0119667c0.0102072-0.0096636,0.0197868-0.0201111,0.0307121-0.0288782
		c0.2529221-0.2029743,0.4773636-0.4336481,0.6747112-0.6909523c0.1500664-0.1956587,0.2778168-0.4052305,0.3922586-0.6232424
		c0.0186119,0.0001106,0.0340157,0.0067368,0.0478039,0.0197506c0.0502625,0.0474367,0.1024189,0.0929317,0.151577,0.141469
		c0.1489468,0.1470661,0.2901764,0.3015347,0.4338741,0.4536629c0.1314602,0.1391745,0.2582645,0.2825222,0.381731,0.4284821
		c0.1898842,0.2244787,0.3723526,0.4550533,0.5470123,0.6918812c0.2445087,0.3315411,0.472456,0.6739178,0.6893959,1.0239677
		c0.045414,0.0732765,0.0788002,0.154911,0.1417713,0.2168427c-0.0690174,0.1768436-0.1735554,0.3324375-0.2933769,0.4775257
		c-0.2574654,0.3117409-0.5597095,0.567543-0.9332981,0.7317638C17.2056656,18.4844723,17.1886406,18.4946423,17.1680756,18.4928646
		z"/>
	<path style="fill:#E84869;" d="M18.4501247,17.2673645c-0.0629711-0.0619316-0.0963573-0.1435661-0.1417713-0.2168427
		c-0.2169399-0.35005-0.4448872-0.6924267-0.6893959-1.0239677c-0.1746597-0.2368279-0.3571281-0.4674025-0.5470123-0.6918812
		c-0.1234665-0.1459599-0.2502708-0.2893076-0.381731-0.4284821c-0.1436977-0.1521282-0.2849274-0.3065968-0.4338741-0.4536629
		c-0.0491581-0.0485373-0.1013145-0.0940323-0.151577-0.141469c-0.0137882-0.0130138-0.029192-0.01964-0.0478039-0.0197506
		c0.0010433-0.0052109,0.0009403-0.0110207,0.0032997-0.0155478c0.1459961-0.2798929,0.246994-0.5760374,0.3188305-0.8826866
		c0.0736313-0.3143196,0.1026917-0.6333961,0.1011753-0.9556894c0.0172615-0.0005627,0.0309372,0.0082436,0.0430145,0.0186367
		c0.0496235,0.0427055,0.0976639,0.0872993,0.1481361,0.1289568c0.2105713,0.1737919,0.4058895,0.364397,0.6029263,0.5527306
		c0.2229519,0.2131042,0.4327087,0.4393826,0.6398468,0.6680927c0.1176739,0.1299267,0.2349014,0.2603035,0.3476696,0.3942814
		c0.1778164,0.2112627,0.3507195,0.4267111,0.5161915,0.6479378c0.0150738,0.020154,0.0294476,0.0406609,0.0582142,0.0411577
		c-0.0065269,0.1968927-0.0116844,0.3938408-0.0198956,0.5906639c-0.0122852,0.2944536-0.0318604,0.5882559-0.0810547,0.8794565
		c-0.0504723,0.298748-0.1339226,0.5873718-0.2576962,0.864069C18.4706249,17.2389965,18.4680119,17.2582073,18.4501247,17.2673645z
		"/>
	<path style="fill:#DF437C;" d="M18.8362637,14.8891783c-0.0287666-0.0004969-0.0431404-0.0210037-0.0582142-0.0411577
		c-0.165472-0.2212267-0.3383751-0.4366751-0.5161915-0.6479378c-0.1127682-0.1339779-0.2299957-0.2643547-0.3476696-0.3942814
		c-0.2071381-0.2287102-0.4168949-0.4549885-0.6398468-0.6680927c-0.1970367-0.1883335-0.392355-0.3789387-0.6029263-0.5527306
		c-0.0504723-0.0416574-0.0985126-0.0862513-0.1481361-0.1289568c-0.0120773-0.0103931-0.025753-0.0191994-0.0430126-0.0186367
		c-0.0057507-0.1701841-0.0164127-0.3399887-0.0410614-0.5086269c-0.0918865-0.6285858-0.3235283-1.2014275-0.6872425-1.7215137
		c-0.1381178-0.1975002-0.2980509-0.3766432-0.4638052-0.5508795c0.0749741,0.0066299,0.128377,0.0580091,0.1876831,0.0945463
		c0.4502764,0.2774057,0.8867025,0.5753059,1.3075914,0.8956642c0.2141895,0.1630297,0.4247074,0.3306484,0.6295204,0.5055008
		c0.1980152,0.1690483,0.3931961,0.341032,0.5833073,0.519022c0.1838608,0.1721392,0.3701458,0.3419971,0.5425415,0.5254726
		c0.0898247,0.0955973,0.187067,0.1841736,0.2711582,0.2850857c0.0114994,0.0138016,0.024334,0.01964,0.0412006,0.0195827
		c0.0005836,0.0034952,0.0016842,0.0069923,0.0016785,0.0104876c-0.0013294,0.7855062,0.0047874,1.5710554-0.0135956,2.3564625
		C18.8390789,14.875205,18.8372917,14.8821831,18.8362637,14.8891783z"/>
	<path style="fill:#FB5345;" d="M9.0781231,14.5479851c-0.1104469-0.0145388-0.2209921-0.0283728-0.3313179-0.0437784
		c-0.1716995-0.0239725-0.3441248-0.0394411-0.5168581-0.0543718c-0.2296638-0.0198526-0.4600997-0.0291176-0.6895528-0.0261822
		c-0.2489452,0.0031843-0.498672,0.0093231-0.7472692,0.0368347c-0.2021866,0.0223761-0.4045496,0.0419874-0.6052489,0.0758085
		c-0.010396,0.0017529-0.0212545,0.0007601-0.0318975,0.0010481c-0.0117025-0.240798-0.0088096-0.4818058-0.0095582-0.7227373
		c-0.0012383-0.3987207-0.0008721-0.7974482-0.0010681-1.1961718c-0.0000072-0.0141344,0.001194-0.0282688,0.0018315-0.0424032
		c0.1315851-0.0150471,0.2632241-0.0300303,0.3947043-0.0454941c0.2301898-0.0270739,0.4614048-0.041235,0.6922889-0.0480642
		c0.3627892-0.0107327,0.7261906-0.007309,1.0884147,0.0211334c0.0647068,0.0050802,0.1312771-0.0003529,0.194828,0.019083
		c0.0008373,0.0141487,0.0022316,0.0282898,0.0024319,0.0424471c0.0086241,0.6130486,0.1537018,1.1924162,0.4299297,1.7392406
		C8.9911585,14.3862896,9.0352745,14.4668169,9.0781231,14.5479851z"/>
	<path style="fill:#F14D57;" d="M8.5174208,12.5226898c-0.0635519-0.0194359-0.1301222-0.0140028-0.194829-0.019083
		c-0.3622241-0.0284424-0.7256255-0.0318661-1.0884147-0.0211334c-0.2308841,0.0068293-0.4620991,0.0209904-0.6922889,0.0480642
		c-0.1314802,0.0154638-0.2631192,0.030447-0.3947043,0.0454941c-0.0006027-0.1627913-0.0018711-0.3255835-0.0016637-0.4883747
		c0.0003858-0.3026419,0.0016327-0.6052828,0.002521-0.9079256c0.0800462-0.0148001,0.1604071-0.0280857,0.2400808-0.044673
		c0.2620077-0.0545483,0.5238042-0.1099825,0.7849569-0.168684c0.2365108-0.0531626,0.4821219-0.0524607,0.7174654-0.1166401
		c0.1232429-0.0336094,0.253489-0.0217724,0.3782077-0.0524721c0.1661549-0.0409002,0.3344927-0.0548992,0.505044-0.0241899
		c0.0411863,0.0074148,0.0853596-0.0014477,0.1229296,0.0244913c-0.0041533,0.0115652-0.0074482,0.0235262-0.0125837,0.0346384
		c-0.1321516,0.2859163-0.2278862,0.5834255-0.289773,0.8923569C8.5415583,11.9881878,8.5204554,12.2544689,8.5174208,12.5226898z"
		/>
	<path style="fill:#FE9349;" d="M6.7188363,17.5762043c0.1144996-0.0247459,0.2313948-0.0328064,0.3474617-0.0421391
		c0.2101688-0.0168991,0.4210038-0.02981,0.6320848-0.0225983c0.4060426,0.0138702,0.8085828,0.0572567,1.205852,0.1455956
		c0.3526649,0.0784225,0.6961193,0.1856537,1.0301371,0.3229275c0.3355808,0.1379147,0.6574688,0.3026981,0.9644527,0.4963646
		c0.1576443,0.0994511,0.3126316,0.2027397,0.461544,0.3149776c0.0201416,0.0151806,0.0404625,0.0297318,0.0409641,0.0584469
		c-0.2324648,0.0057907-0.4648561-0.0026875-0.6972818-0.0034466c-0.4385023-0.0014286-0.8765879-0.0172043-1.3144855-0.0375118
		c-0.4047279-0.0187664-0.8053465-0.0650635-1.1969347-0.1776695c-0.5962043-0.1714478-1.0785155-0.5032196-1.4428811-1.0056782
		C6.7383938,17.6098137,6.729095,17.5926609,6.7188363,17.5762043z"/>
	<path style="fill:#DF437C;" d="M6.1603889,10.1454983c0.1892157-0.0215845,0.372191-0.0725832,0.556181-0.1185818
		c0.1447692-0.0361948,0.2926259-0.0532141,0.440062-0.072629C7.267766,9.9396534,7.3742132,9.9028044,7.4846182,9.8863287
		C7.647934,9.8619566,7.8063803,9.8104763,7.9694996,9.7909422c0.1900301-0.0227547,0.3772001-0.0624771,0.5673141-0.0832758
		C8.635478,9.6968727,8.7288332,9.6563406,8.8291931,9.6529369c0.1706038-0.005784,0.3372211-0.0450621,0.5031624-0.0768757
		c0.1555681-0.0298262,0.316391-0.008729,0.4675837-0.0612688c0.0202522-0.0070381,0.0340767,0.0011816,0.04778,0.0134926
		c-0.196167,0.1811829-0.376586,0.3767748-0.5388861,0.5889454c-0.0229568-0.0127773-0.0463667-0.0153141-0.0716124-0.0060854
		c-0.0726919,0.0265703-0.1500406,0.0240297-0.2253084,0.0335054c-0.1789112,0.022522-0.3592739,0.0409689-0.5357246,0.0733881
		c-0.180809,0.0332193-0.3629704,0.0599203-0.5433822,0.0963249c-0.1940055,0.0391474-0.394186,0.0395222-0.5876398,0.0866203
		c-0.2237606,0.0544748-0.4537859,0.0766382-0.6774616,0.1343975c-0.167562,0.0432692-0.3401608,0.0670414-0.5135636,0.0791559
		C6.1562233,10.4581909,6.1583061,10.3018446,6.1603889,10.1454983z"/>
	<path style="fill:#E84869;" d="M6.1541405,10.6145372c0.1734028-0.0121145,0.3460016-0.0358868,0.5135636-0.0791559
		c0.2236757-0.0577593,0.453701-0.0799227,0.6774616-0.1343975c0.1934538-0.0470982,0.3936343-0.047473,0.5876398-0.0866203
		c0.1804118-0.0364046,0.3625731-0.0631056,0.5433822-0.0963249c0.1764507-0.0324192,0.3568134-0.0508661,0.5357246-0.0733881
		c0.0752678-0.0094757,0.1526165-0.0069351,0.2253084-0.0335054c0.0252457-0.0092287,0.0486555-0.0066919,0.0716124,0.0060844
		c-0.0306501,0.0421352-0.062602,0.0833931-0.0917253,0.1265583c-0.1195421,0.1771774-0.2233219,0.3635502-0.3203821,0.5537758
		c-0.03757-0.025939-0.0817432-0.0170765-0.1229296-0.0244913c-0.1705513-0.0307093-0.3388891-0.0167103-0.505044,0.0241899
		c-0.1247187,0.0306997-0.2549648,0.0188627-0.3782077,0.0524721c-0.2353435,0.0641794-0.4809546,0.0634775-0.7174654,0.1166401
		c-0.2611527,0.0587015-0.5229492,0.1141357-0.7849569,0.168684c-0.0796738,0.0165873-0.1600347,0.0298729-0.2400808,0.044673
		C6.1469741,10.9913015,6.1430392,10.8028383,6.1541405,10.6145372z"/>
	<path style="fill:#FEFEFE;" d="M8.8967257,10.7975636c0.0970602-0.1902256,0.20084-0.3765984,0.3203821-0.5537758
		c0.0291233-0.0431652,0.0610752-0.0844231,0.0917253-0.1265583C9.4711332,9.9050598,9.6515522,9.7094679,9.8477192,9.528285
		c0.213707-0.182373,0.4381161-0.3497686,0.6831579-0.4882965c0.6942911-0.3925009,1.4410992-0.5644674,2.235178-0.510066
		c0.9643211,0.0660648,1.7964687,0.4409513,2.4976778,1.106308c0.0076351,0.0072441,0.0162621,0.0134468,0.0244246,0.0201349
		c0.1657543,0.1742353,0.3256874,0.3533783,0.4638052,0.5508785c0.3637142,0.5200863,0.595356,1.0929279,0.6872425,1.7215137
		c0.0246487,0.1686382,0.0353107,0.3384428,0.0410614,0.5086269c0.0015144,0.3222933-0.0275459,0.6413698-0.1011772,0.9556894
		c-0.0718365,0.3066492-0.1728344,0.6027937-0.3188305,0.8826866c-0.0023594,0.0045271-0.0022564,0.0103369-0.0032997,0.0155478
		c-0.1144419,0.2180119-0.2421923,0.4275837-0.3922586,0.6232424c-0.1973476,0.2573042-0.4217892,0.487978-0.6747112,0.6909523
		c-0.0109253,0.0087671-0.020505,0.0192146-0.0307121,0.0288782c-0.1731167,0.1262655-0.3481665,0.2495289-0.5366526,0.3524542
		c-0.3964376,0.2164745-0.8166418,0.3625908-1.2621899,0.4400539c-0.1736393,0.0301895-0.3481703,0.0394745-0.5228205,0.0532894
		c-0.2219439,0.0015678-0.4434185-0.0032578-0.663909-0.0335407c-0.7855062-0.1078873-1.4789429-0.4202194-2.0797281-0.9368992
		c-0.2925291-0.2515774-0.5418339-0.54146-0.7500582-0.8665113c-0.0208025-0.0324736-0.0438118-0.0635309-0.0657959-0.0952444
		c-0.0428486-0.0811663-0.0869646-0.1616936-0.1283417-0.2436056c-0.276228-0.5468245-0.4213057-1.1261921-0.4299297-1.7392406
		c-0.0002003-0.0141573-0.0015945-0.0282984-0.0024319-0.0424471c0.0030355-0.2682209,0.0241385-0.534502,0.0769491-0.798131
		c0.0618868-0.3089314,0.1576214-0.6064405,0.289773-0.8923569C8.8892775,10.8210897,8.8925724,10.8091288,8.8967257,10.7975636z
		 M13.9269695,14.652091c0.1774073-0.1128788,0.3334484-0.2509375,0.4760323-0.404727
		c0.2246065-0.2422562,0.3902912-0.5208607,0.5096426-0.8279486c0.0056524-0.012928,0.0121031-0.0255699,0.0168409-0.038825
		c0.1589613-0.4447832,0.1942053-0.8994093,0.1078606-1.3635912c-0.2468462-1.327014-1.5066051-2.2491484-2.8469229-2.0817032
		c-0.5851374,0.0731001-1.0893946,0.3173313-1.5098534,0.7313194c-0.1703234,0.1677027-0.3171082,0.3541279-0.4293537,0.5662966
		c-0.0510149,0.0748491-0.086709,0.1576099-0.1223488,0.2401981c-0.1835365,0.4253035-0.2485657,0.8681192-0.1944132,1.3282948
		c0.0345621,0.3319759,0.1337271,0.6440392,0.2954807,0.935338c0.2898178,0.5219288,0.7082596,0.9049177,1.2567129,1.1413698
		c0.4474201,0.192893,0.9148579,0.2487898,1.3963394,0.1789865C13.2614422,15.0022297,13.6061811,14.8572369,13.9269695,14.652091z"
		/>
	<path style="fill:#FEFEFE;" d="M15.9006367,7.7909155c0.0850344-0.0989437,0.1788921-0.1881804,0.2967148-0.2467465
		c0.3402786-0.1691427,0.672533-0.1523986,0.9837532,0.0661135c0.4169941,0.2927771,0.5101223,0.8750749,0.2148361,1.2905269
		c-0.0091934,0.0129337-0.0174847,0.0265093-0.0261917,0.0397806c-0.1456661,0.1716299-0.3247643,0.2880774-0.5473938,0.3339787
		c-0.4765759,0.098258-0.9548063-0.1952562-1.0820818-0.6659117c-0.0767603-0.2838564-0.0231495-0.5452604,0.1402035-0.7867298
		C15.8873835,7.8117166,15.8939247,7.8012586,15.9006367,7.7909155z"/>
	<path style="fill:#E84869;" d="M10.2512159,11.2329121c0.1122456-0.2121687,0.2590303-0.3985939,0.4293537-0.5662966
		c0.4204588-0.4139881,0.924716-0.6582193,1.5098534-0.7313194c1.3403177-0.1674452,2.6000767,0.7546892,2.8469229,2.0817032
		c0.0863447,0.4641819,0.0511007,0.918808-0.1078606,1.3635912c-0.0047379,0.0132551-0.0111885,0.025897-0.0168428,0.038825
		c-0.0167122-0.0018616-0.0289021-0.0118093-0.0418453-0.0215559c-0.266427-0.2006454-0.542325-0.3874846-0.8227654-0.5679379
		c-0.3388205-0.2180185-0.6896076-0.4149656-1.0474796-0.5993853c-0.1686554-0.0869131-0.3419628-0.1644278-0.5148382-0.2427588
		c-0.3330278-0.1508932-0.6729145-0.2840376-1.0180912-0.4042645C11.06849,11.4444933,10.6619072,11.3316555,10.2512159,11.2329121z
		"/>
	<path style="fill:#F14D57;" d="M10.2512159,11.2329121c0.4106913,0.0987434,0.8172741,0.2115812,1.2164068,0.3506012
		c0.3451767,0.1202269,0.6850634,0.2533712,1.0180912,0.4042645c0.1728754,0.078331,0.3461828,0.1558456,0.5148382,0.2427588
		c0.357872,0.1844196,0.7086592,0.3813667,1.0474796,0.5993853c0.2804403,0.1804533,0.5563383,0.3672924,0.8227654,0.5679379
		c0.0129433,0.0097466,0.0251331,0.0196943,0.0418453,0.0215559c-0.1193495,0.3070879-0.2850342,0.5856924-0.5096407,0.8279486
		c-0.1425838,0.1537895-0.298625,0.2918482-0.4760323,0.404727c-0.0030985-0.0193739-0.0168438-0.0299273-0.0317421-0.040451
		c-0.1099997-0.0776854-0.2183733-0.157753-0.3298092-0.2333097c-0.2186937-0.1482763-0.4447041-0.2848396-0.6728506-0.4181614
		c-0.3894234-0.2275658-0.7917509-0.428957-1.2082453-0.6015787c-0.536478-0.222353-1.0848713-0.4092646-1.6504545-0.5436096
		c-0.032692-0.0077658-0.064909-0.0190649-0.0994139-0.0135756c-0.0541525-0.4601755,0.0108767-0.9029913,0.1944132-1.3282948
		C10.1645069,11.390522,10.200201,11.3077612,10.2512159,11.2329121z"/>
	<path style="fill:#FB5345;" d="M9.934454,12.801405c0.0345049-0.0054893,0.0667219,0.0058098,0.0994139,0.0135756
		c0.5655832,0.1343451,1.1139765,0.3212566,1.6504545,0.5436096c0.4164944,0.1726217,0.8188219,0.3740129,1.2082453,0.6015787
		c0.2281466,0.1333218,0.4541569,0.2698851,0.6728506,0.4181614c0.1114359,0.0755568,0.2198095,0.1556244,0.3298092,0.2333097
		c0.0148983,0.0105238,0.0286436,0.0210772,0.0317421,0.040451c-0.3207884,0.2051458-0.6655273,0.3501387-1.0439825,0.4050083
		c-0.4814816,0.0698032-0.9489193,0.0139065-1.3963394-0.1789865c-0.5484533-0.2364521-0.9668951-0.619441-1.2567129-1.1413698
		C10.068181,13.4454441,9.9690161,13.1333809,9.934454,12.801405z"/>
</g>
</svg>
