<?xml version="1.0" encoding="utf-8"?>
<!-- Generator: Adobe Illustrator 21.1.0, SVG Export Plug-In . SVG Version: 6.00 Build 0)  -->
<svg version="1.1" id="Слой_1" xmlns="http://www.w3.org/2000/svg" xmlns:xlink="http://www.w3.org/1999/xlink" x="0px" y="0px"
	 viewBox="0 0 55 45" style="enable-background:new 0 0 55 45;" xml:space="preserve">
<g>
	<path style="fill:#70CF53;" d="M30.989954,26.7821102c0.8200054,0.7264767,1.9130535,1.0155964,2.7491703,1.7162666
		c-0.0214844,0.0258484-0.0428543,0.0517883-0.0640678,0.0777206c-1.1437225-0.3200569-2.2043133-0.8399315-3.2273159-1.4238453
		c-0.3368893-0.1922951-0.4945946-0.2920208-0.4919128,0.1794376c0.0012169,0.2141018-0.0632229,0.353302-0.2341309,0.4514389
		c-0.8176804,0.4695225-1.3565826,1.4519444-2.4900455,1.3462563c-0.1613197-0.0150433-0.3133698,0.0886021-0.2876549,0.2706928
		c0.0131435,0.0930595,0.1249142,0.2016144,0.2192783,0.2485676c0.363884,0.1810818,0.7573986,0.202795,1.1606674,0.202282
		c1.8970928-0.0024128,3.7942181,0.0068188,5.6912861,0.0190372c0.367157,0.0023651,0.7820702,0.5125256,1.0589714,0.1269646
		c0.2703972-0.3765125-0.4897614-0.4706821-0.4849014-0.86936c0.0226936-0.0241508,0.0454178-0.0482788,0.0681686-0.072382
		c0.6443214,0.3501549,1.3998756,0.5747337,1.6044807,1.4213448c-0.0264702,0.4329967-0.3424454,0.4494095-0.6586914,0.4478779
		c-1.9875793-0.0096302-3.9751377-0.0231323-5.9627037-0.0353527c-0.0549088-0.2679214-0.2528915-0.3033009-0.4799881-0.3016586
		c-1.0825272,0.0078411-2.1658173,0.0273037-3.237606-0.1701527c-0.3568573-0.286129-0.7327595-0.5376415-1.1735115-0.6811199
		c-1.7597828-0.5728531-3.5316505-1.1122398-5.2730198-1.7365971c-1.0408611-0.3731976-2.1728039-0.5398254-3.0822334-1.2434616
		c0.5924759-0.0836239,1.0999069,0.0645275,1.6489735,0.3454151c0.8803883,0.4503937,1.839035,0.7625103,2.8659248,0.7835579
		c-0.3867474-0.2368546-0.6754646-0.5792389-1.1500702-0.6514225c-0.3237724-0.049242-0.6225071-0.4679241-0.1992741-0.6069603
		c0.7935677-0.2606945,0.3701439-0.5818233,0.1624298-0.9046936c-0.1475105-0.22929-0.1994324-0.4320908-0.0706863-0.6773968
		c0.3482723-0.6635799,0.2488976-1.4285679,0.4611797-2.1138821c0.2628632-0.8486233,0.0305443-1.3987465-0.7659321-1.7412663
		c0.0938721-0.1689053,0.1876411-0.3380661,0.2814102-0.5072289c0.300396,0.0122719,0.529707-0.0978127,0.657793-0.3821392
		c0.7243004-0.0240517,0.6401367-0.407135,0.3394508-0.8274536c-0.1776962-0.2484016-0.5188675-0.5751877-0.3013535-0.7755184
		c0.6417599-0.5910492,0.4766941-1.820715,1.6698952-1.9949207c-0.3120289-0.0474129-0.4127331-0.2198906-0.4536591-0.4446774
		c0.1344032-0.0026169,0.2688046-0.0052338,0.4032078-0.0078487l-0.0142784-0.0128708
		c0.3541279,0.3616962,0.806654,0.1181602,1.20681,0.1963673c1.1764297,0.0569267,2.3528614,0.1138554,3.5291481,0.1710014
		c0.8402252,0.0948391,1.6351185-0.1100407,2.4220695-0.3673954c0.113842,0.3285141-0.2667904,0.6991367-0.1027718,0.9055042
		c0.5474224,0.6887817,0.3014126,1.2299271-0.1064911,1.8552799c-0.5005608,0.7674026-0.145977,1.8157177,0.6968956,2.007391
		c0.6981697,0.1587639,1.0000458,0.5120087,0.9956627,1.1912785c-0.0042706,0.6617355,0.5480595,1.0543442,0.8214588,1.5750809
		c0.174696,0.3327408,0.7136726-0.063282,1.1008759,0.0065269c0.3568344,0.0643311,0.7340126,0.0134373,1.0921059,0.0735798
		c2.3622284,0.3967228,4.7217178,0.8097286,7.0820999,1.217432c0.2404556,0.0585289,0.4809113,0.1170597,0.7213669,0.1755867
		c0.3182755,0.0344715,0.6008568,0.2547379,0.9400024,0.1805382c0.3630638,0.0037727,0.7261276,0.0075436,1.0891914,0.0113182
		c0.3218536,0.3389606,0.7351379,0.1320591,1.1048927,0.1850758c0.2434959-0.0006886,0.4869843-0.0013752,0.7304802-0.0020618
		c0.4555893,0.3708763,0.9865112,0.1155243,1.4792099,0.1779346c0.1808014,0.0035534,0.3616104,0.0071087,0.5424118,0.0106659
		c-0.002037,0.1138573-0.0040627,0.2277107-0.0060921,0.3415661c-0.1860771,0.0592556-0.3721581,0.118515-0.5582352,0.1777725
		c-1.3382378-0.3293762-2.7275581,0.0179729-4.0661392-0.306881c-0.1072845-0.0008945-0.2145653-0.0017891-0.3218498-0.0026817
		c-0.7439156-0.4683704-1.6101799-0.4029369-2.4263344-0.5561333c-0.1102715-0.0023327-0.2205391-0.0046673-0.3308105-0.0070019
		c-0.1409798-0.2377968-0.3669052-0.1959972-0.5856209-0.177927c-0.1109161-0.0020771-0.2218285-0.0041561-0.3327408-0.0062332
		c-0.1373749-0.2370644-0.3625145-0.1954384-0.5786972-0.1822529c-0.1144943-0.0046463-0.2289886-0.0092888-0.3434792-0.0139351
		c-0.5111618-0.3192329-1.0759888-0.3920975-1.6631813-0.3623352c-0.1200562-0.005106-0.2401123-0.0102119-0.3601685-0.015316
		c-0.0920219-0.1603947-0.2394943-0.1731968-0.4003372-0.1503983c-0.1709137-0.0051651-0.3418274-0.0103264-0.5127449-0.0154915
		c-0.3872337-0.3657932-0.86203-0.1267643-1.2934685-0.1872501c-0.1825562-0.0024853-0.3651161-0.0049686-0.5476761-0.007452
		c-0.7892113-0.3002453-1.5809269-0.2746048-2.3744183-0.0182438c-0.1872158,0.0076313-0.3744316,0.0152626-0.5616493,0.0228939
		c-0.2687054-0.0103912-0.530098-0.0094414-0.5550766,0.3580303l-0.0033321,0.0028896
		c-0.2225208,0.0047855-0.3484974,0.1152592-0.3710575,0.3389492c-0.0606918,0.4641018,0.2126007,0.7373638,0.5549297,0.9711819
		c0.0329456,0.3538914-0.0950603,0.8913555,0.5821629,0.5104332C30.4757233,26.6087341,30.7328377,26.6954212,30.989954,26.7821102z
		 M21.4264164,28.0722523c0.289587,0.121748,0.4688759,0.2449055,0.6594715,0.2660179
		c0.2842026,0.0314865,0.5413094,0.3605385,0.8453426,0.0968304c0.0362339-0.0314312,0.0126801-0.1807976-0.0294399-0.2452564
		c-0.207056-0.3168736-0.5200348-0.4122219-0.8756046-0.3440247C21.8553162,27.8785896,21.6953354,27.9681511,21.4264164,28.0722523
		z"/>
	<path style="fill:#3275CE;" d="M16.3939629,26.7562103c0.9096603,0.7034931,2.0416031,0.870121,3.0824642,1.2433186
		c1.7413692,0.6243572,3.513237,1.163744,5.2730198,1.7365971c0.440752,0.1434784,0.8166542,0.3949909,1.1738892,0.6810074
		c-0.002636,0.0519581,0.0080433,0.1010475,0.0324173,0.1471596c-0.0565815,0.7982292,0.2922039,1.6030235-0.0387955,2.3968086
		c-0.7806072,0.2948265-1.5086517,0.6570053-2.1157551,1.2652817c-0.2023945,0.2027893-0.4631329,0.5005951-0.8525753,0.4219666
		c-0.431181-0.0398788-0.6195354-0.2717819-0.6370354-0.7086182c-0.0100574-0.2509766,0.1379204-0.5628967-0.1762199-0.7500992
		c-0.8776493-0.992836-2.1701984-1.071167-3.3091984-1.325119c-2.3856525-0.5319138-4.6680717-1.3225193-6.9191446-2.2391796
		c-0.4598513-0.2371922-0.8934269-0.5474586-1.4481783-0.520731l-0.0017633-0.0029888
		c-0.1048584-0.095005-0.2097187-0.190012-0.3145781-0.285017c-1.2053699-0.6547127-2.410738-1.3094273-3.6161079-1.9641399
		c-0.6086349-0.2481956-1.2172699-0.4963875-1.9195418-0.7827682c0.8495569-1.0033817,2.1653037-1.114666,3.1081719-1.8299809
		c0.2415133,0.0853653,0.2881775-0.0841808,0.3338404-0.2550316c0.6896667-0.0406551,1.3048573,0.1929989,1.9372387,0.4443092
		c1.5765352,0.6265221,3.0904646,1.4343548,4.7873888,1.7287884l0.0785294,0.0265255l0.0826588-0.006216
		c0.0686979,0.0502548,0.1373959,0.1005116,0.2060957,0.1507683l0.0241661,0.0167027
		c0.0425301,0.1915035,0.1331129,0.1265507,0.2272587,0.0425816c0.0659113,0.0017204,0.1318245,0.0034409,0.1977358,0.0051613
		c0.1625614,0.368084,0.4842787,0.3744087,0.815629,0.358839L16.3939629,26.7562103z"/>
	<path style="fill:#3F8E1F;" d="M42.3223076,26.0176411c0.1072845,0.0008926,0.2145653,0.0017872,0.3221817,0.0024338
		c1.303299,0.79249,2.6789093,0.6244316,4.0658073,0.3071289c0.1860771-0.0592575,0.3721581-0.1185169,0.5582733-0.1775932
		c0.2739563,0.0073147,0.5478821,0.0144463,0.8218002,0.0215797c-0.0914001,1.6312408-0.4104614,1.9583187-2.1893921,2.0339909
		c-1.6663589,0.0708828-3.3105011-0.0072994-4.9770775-0.3173409c-2.0922966-0.3892345-4.2312088-0.5553493-6.3275833-0.9592133
		c-1.2010384-0.2313805-2.4007874-0.1908703-3.6064587-0.1465206c-0.257021-0.0866852-0.5141354-0.1733723-0.7714272-0.2598953
		c-0.1536751-0.2161503-0.3281975-0.4085197-0.5819874-0.5105953c-0.342329-0.2338181-0.6156216-0.5070801-0.5548344-0.9708366
		c0.2493572,0.0243206,0.3639297-0.098772,0.3709621-0.3392944l0.0033703-0.0028114
		c0.2757454,0.0212307,0.5246029,0.000782,0.5550385-0.3581085c0.1872177-0.0076313,0.3744335-0.0152626,0.5615025-0.0227165
		c0.7890263,0.3242912,1.5808868,0.2917347,2.3745651,0.0180664c0.18256,0.0024834,0.3651199,0.0049667,0.5477295,0.0074043
		c0.3555641,0.5843735,0.8221359,0.4020939,1.2934151,0.1872978c0.1709175,0.0051651,0.3418312,0.0103264,0.5130844,0.0152721
		c0.0784302,0.1961308,0.1373215,0.4433575,0.3999977,0.1506176c0.1200562,0.0051041,0.2401123,0.01021,0.3602676,0.0152569
		c0.456089,0.5719528,1.0550194,0.4881134,1.6630821,0.3623943c0.1144905,0.0046463,0.2289848,0.0092888,0.3437195,0.0137806
		c0.1002045,0.3545399,0.281765,0.4507942,0.5784569,0.1824074c0.1109123,0.0020771,0.2218246,0.0041561,0.3330116,0.0060616
		c0.1124268,0.3312302,0.2894897,0.4496155,0.58535,0.1780987c0.1102715,0.0023346,0.2205391,0.0046692,0.3311005,0.0068207
		C40.6204758,26.0156765,41.3992157,26.3312683,42.3223076,26.0176411z"/>
	<path style="fill:#65CA41;" d="M15.5899439,26.3932972c-0.0659113-0.0017204-0.1318245-0.0034409-0.1984177-0.005291
		c-0.0759802-0.0142345-0.1512794-0.0283413-0.2265768-0.04245l-0.0241547-0.0164833
		c-0.0686941-0.0501804-0.1374006-0.1005859-0.206109-0.1509895l-0.0826569,0.006216l-0.0785856-0.0264015
		c-0.0336285-0.335968-0.3046312-0.4692421-0.5583334-0.4930515c-0.5088806-0.0477562-0.8872824-0.3242836-1.2821102-0.5897655
		c-0.0546455-0.7280579,0.4278316-0.7555962,0.9542103-0.7394581c0.2832747,0.0086842,0.5937805-0.0243874,0.64114-0.3646545
		c0.062108-0.4462357-0.3170815-0.332037-0.56392-0.368681c-0.142684-0.0211792-0.33358,0.0238857-0.3783808-0.1649399
		c-0.0549431-0.2315693,0.1419964-0.2911053,0.3066311-0.3717365c0.3797474-0.1859932,0.8466206-0.1202717,1.1869612-0.4119225
		c0.1788311-0.153244,0.5295-0.1990414,0.5107069-0.4681721c-0.0246449-0.3529034-0.3733006-0.2111187-0.5888653-0.2321644
		c-0.2507067-0.0244713-0.3986578-0.1195221-0.4146175-0.3801594c0.6366234-0.3092575,1.291728-0.104784,1.9427614-0.0797901
		c0.4470387,0.0171661,0.9022293,0.0610142,1.338192-0.1018372c0.5166206,0.1053696,0.9867687-0.1285019,1.4788151-0.2024021
		c0.7965813,0.3427753,1.0289001,0.8928986,0.766037,1.7415218c-0.2122822,0.6853142-0.1129074,1.4503021-0.4611797,2.1138821
		c-0.128746,0.245306-0.0768242,0.4481068,0.0706863,0.6773968c0.2077141,0.3228703,0.6311378,0.6439991-0.1624298,0.9046936
		c-0.423233,0.1390362-0.1244984,0.5577183,0.1992741,0.6069603c0.4746056,0.0721836,0.7633228,0.4145679,1.1500702,0.6514225
		c-1.0268898-0.0210476-1.9855366-0.3331642-2.8659248-0.7835579c-0.5490665-0.2808876-1.0564976-0.429039-1.6489735-0.3454151
		c0,0,0.0113792-0.003931,0.0114574-0.0041409C16.3393917,26.1643124,15.9059982,26.4123402,15.5899439,26.3932972z"/>
	<path style="fill:#59C32A;" d="M43.4176292,25.4362507c-0.3630638-0.0037746-0.7261276-0.0075455-1.089325-0.0111408
		c-0.0229836-0.2331867-0.0095329-0.4937687-0.340065-0.5228519c-0.275444-0.0242348-0.5459595-0.0276279-0.5998039,0.3421364
		c-0.2404556-0.058527-0.4809113-0.1170578-0.7214088-0.1755371c-0.4209099-0.7861385-1.2134514-0.8045254-1.943676-0.9087372
		c-1.2232437-0.174572-1.4060936-0.3938026-1.1976166-1.5753422c0.0157242-0.0891037,0.01157-0.1819706,0.0137596-0.273159
		c0.0222816-0.9300423-0.2118568-1.9346485,0.7548485-2.5893555c0.8847466,0.6816216,1.8366318,1.2334824,2.9283676,1.5150299
		c1.1192322,0.855648,2.5480309,1.1157589,3.6939049,1.9201641c0.0574303,0.2253304,0.2015953,0.2507381,0.3917961,0.1700249
		l0.0368729,0.0129089c0.0838127,0.8054295,0.6228752,0.841671,1.2451897,0.7372036l0.0217018,0.0121861
		c-0.080101,0.5211868,0.2783928,0.4052792,0.5671501,0.3906841c0.0515594-0.0008087,0.0823441,0.0240765,0.09235,0.0745964
		c0.0130119,0.1570911,0.0644493,0.2794762,0.2521362,0.2785339l-0.0563812,0.0335751l0.0591927-0.0274944
		c-0.0842018,0.3228531-0.1681023,0.6455212-0.2519989,0.9681892c-0.1808014-0.0035572-0.3616104-0.0071125-0.5425034-0.01054
		c-0.5662422-0.877594-0.8480949-0.9115524-1.4791183-0.1780605c-0.2434959,0.0006866-0.4869843,0.0013733-0.7305107,0.0020981
		C44.2505798,24.9844685,43.8289108,25.2413483,43.4176292,25.4362507z"/>
	<path style="fill:#59C32A;" d="M48.5826454,18.0832024c0.5122528,0.3332844,0.9129715,0.7843056,1.3091125,1.2401447
		c-0.7894821,0.5955219-1.6064568,0.075779-2.3525314-0.0497189c-2.6451988-0.4449501-5.2875252-0.8288593-7.9759521-0.8148632
		c-0.4754791-1.1321411,0.4599762-2.9121504-1.540863-3.3509293c-0.1336632-0.029314-0.2818375-0.1780071-0.1969681-0.3518419
		c0.1006165-0.2060804,0.3199158-0.1716185,0.4798203-0.1091557c1.5641365,0.611001,3.2525139,0.6768103,4.8544235,1.1185446
		c1.219677,0.3363285,2.4396515,0.6715984,3.6594925,1.0073395l0.0476837-0.0261936l0.0475731,0.026392
		c-0.0033569,0.3990288,0.2646255,0.4112663,0.5560532,0.3900833l-0.0023994,0.0006618
		c0.063282,0.0611343,0.1265717,0.1222668,0.1898537,0.1833992l-0.0027771-0.0079823
		c0.0553169,0.067091,0.1107407,0.1340199,0.1661606,0.2009506l0.0065193,0.0080757
		C47.8636818,18.0308323,48.1807747,18.1168156,48.5826454,18.0832024z"/>
	<path style="fill:#3275CE;" d="M46.9144363,16.7729206l-0.0475731-0.026392l-0.0482216,0.0263004
		c-0.1108932-0.4380455-0.4782829-0.4796753-0.8374214-0.5860882c-4.0444374-1.1983862-8.1809769-1.9988098-12.3017845-2.8675795
		c-0.379097-0.2880363-0.8466339-0.2362537-1.2757683-0.3320436c-0.1201591-0.0198812-0.2403183-0.0397625-0.3604774-0.0596437
		c-0.0145874-0.0724993-0.0291748-0.1449986-0.0437641-0.2174988c1.2164135-0.9030886,2.4615574-1.0072803,3.9537144-0.5683661
		c3.743454,1.1011276,7.522419,2.1000061,11.4016647,2.636651c0.6902847,0.0954895,1.2431221,0.4269667,1.6855316,0.9544153
		c-0.1050415,0.7814484-0.9945259,0.9546528-1.2545166,1.6159744c-0.0419769-0.0239334-0.0854988-0.0271759-0.1305542-0.0097294
		l0.002594,0.0082188c-0.0633087-0.0611115-0.1265411-0.1222916-0.1897697-0.1834736l0.002327-0.0005493
		C47.3932915,16.8789539,47.1928062,16.7704735,46.9144363,16.7729206z"/>
	<path style="fill:#3F8E1F;" d="M41.2227097,21.2372932c-1.0917358-0.2815475-2.0436211-0.8334084-2.9285965-1.5147781
		c0.1417656-0.5597916,0.7772255-0.5121784,1.0786629-0.8758869c3.2827682,0.1762409,6.5163879,0.6973171,9.7317123,1.36096
		c0.48452,0.100008,0.9851112,0.3696156,1.4955254,0.0612755c0.4589157,1.3814621,0.0776787,1.9896088-1.3086205,1.8559303
		c-2.1185913-0.2042923-4.2277832-0.5105362-6.3376312-0.798008C42.3758621,21.2480469,41.802494,21.2141514,41.2227097,21.2372932z
		"/>
	<path style="fill:#59C32A;" d="M14.5868654,21.5731926c0.0159597,0.2606373,0.1639109,0.3556881,0.4146175,0.3801594
		c0.2155647,0.0210457,0.5642204-0.120739,0.5888653,0.2321644c0.0187931,0.2691307-0.3318758,0.3149281-0.5107069,0.4681721
		c-0.3403406,0.2916508-0.8072138,0.2259293-1.1869612,0.4119225c-0.1646347,0.0806313-0.3615742,0.1401672-0.3066311,0.3717365
		c0.0448008,0.1888256,0.2356968,0.1437607,0.3783808,0.1649399c0.2468386,0.036644,0.6260281-0.0775547,0.56392,0.368681
		c-0.0473595,0.3402672-0.3578653,0.3733387-0.64114,0.3646545c-0.5263786-0.0161381-1.0088558,0.0114002-0.9542313,0.7394333
		c-0.4085026,0.0429974-0.7525921-0.1491547-1.1258965-0.2695827c-1.244873-0.4015903-2.3830681-1.2218456-3.7910376-1.0109692
		c-0.3363857-1.0412483-0.6306672-2.0856876-0.2410526-3.1819344l-0.0112109,0.0367966
		c0.3500075,0.0027103,0.6999707,0.0054264,1.049933,0.0081444c1.4884176-0.1785946,2.902915,0.3214264,4.3535671,0.4873543
		C13.6531696,21.2004375,14.2180681,21.0917854,14.5868654,21.5731926z"/>
	<path style="fill:#70CF53;" d="M6.5264015,26.852457c1.2053699,0.6547127,2.410738,1.3094273,3.6143818,1.9630451
		c-0.0583811,0.0414219-0.1683397,0.1141949-0.163888,0.122036c0.1090765,0.1921864,0.3044786,0.1507435,0.4801922,0.1640759
		l0.0018635,0.0029888c0.434638,0.3073845,0.8588657,0.6434383,1.4480782,0.520731
		c2.2510729,0.9166603,4.5334921,1.7072659,6.9191446,2.2391796c1.1389999,0.253952,2.4315491,0.332283,3.3089294,1.3244057
		c-0.0163002,0.2349586-0.1309376,0.3833275-0.3722954,0.4195099c-0.6941528-0.2119598-1.3753414-0.527668-2.0848999-0.6163254
		c-2.084446-0.2604561-4.0695372-0.8221817-5.9488163-1.7476864c-0.4844265-0.2385712-0.9582262-0.3636398-1.4876938-0.2622147
		c-0.0290375-0.0212593-0.0575581-0.04319-0.0855627-0.065794c-0.7822752-0.6425877-1.6897802-1.0597916-2.635087-1.3771725
		c-1.0126925-0.340004-1.9383435-0.8313618-2.8157406-1.4251289c-0.680943-0.4608212-1.3665609-0.9050789-2.2007327-1.0380459
		c-0.1606526-0.7749653,0.2825079-0.627943,0.7396283-0.4950962C5.6636987,26.7029686,6.0073142,27.1995735,6.5264015,26.852457z"/>
	<path style="fill:#59C32A;" d="M20.2859421,20.3000507c-0.1280861,0.2843266-0.3573971,0.3944111-0.6582298,0.382412
		c-0.1336765-0.4021091-0.4154358-0.6527977-0.7905617-0.8386269c-1.1967487-0.592844-2.4089203-1.1608334-3.5676022-1.8217545
		c-0.6369448-0.3633137-1.4175949-0.6406975-1.6179285-1.5026932c0,0-0.0348177-0.0274506-0.0346832-0.0280437
		c0.0844297-0.0617104,0.2295752-0.1043339,0.0725164-0.2387924c0.1501694-0.4235296,0.5629816-0.4697542,0.8937607-0.5213413
		c2.4894447-0.3882637,4.9325905-0.0245314,7.3602886,0.5183773c-0.1344223,0.0026588-0.2688236,0.0052757-0.4029427,0.0079117
		c-0.4776154-0.0005302-0.9555149-0.0010777-1.4334106-0.001627c-0.1402264-0.2147789-0.3593388-0.182373-0.5684204-0.1814079
		c-0.7041225-0.0248966-1.113493,0.667778-1.8236237,0.7288113c-0.2853966,0.0245304-0.2638969,0.5817604-0.084095,0.8845615
		c0.1365223,0.2299156,0.3379078,0.4474831,0.560358,0.5955296C19.0138855,18.8307819,19.6412106,19.572731,20.2859421,20.3000507z"
		/>
	<path style="fill:#3F8E1F;" d="M25.9169579,32.9611015c0.3309994-0.7937851-0.017786-1.5985794,0.0389671-2.3966255
		c1.1926956,0.5129433,2.4409351,0.3929558,3.6846275,0.3245811c1.987566,0.0122204,3.9751244,0.0257225,5.9627037,0.0353527
		c0.316246,0.0015316,0.6322212-0.0148811,0.6586914-0.4478779c0.585453,1.4818058,0.2532463,2.2705307-1.1157684,2.2877655
		C32.0688782,32.8030319,28.9975128,33.1143646,25.9169579,32.9611015z M31.8316307,32.5878448
		c-0.0000038-0.0029755-0.0000038-0.0059547-0.0000057-0.0089302c0.4266033,0,0.8546047-0.0216827,1.2794552,0.0055923
		c0.5103188,0.0327568,0.7981529-0.0846672,0.7787247-0.6893063c-0.0174446-0.5430489-0.2130623-0.7804642-0.7600975-0.7669144
		c-0.8222809,0.0203686-1.6457424,0.0289688-2.4678268,0.0081558c-0.5320148-0.0134697-0.8440418,0.0746193-0.8456993,0.7346954
		c-0.0016365,0.6518116,0.2765198,0.7726688,0.8276596,0.7235088
		C31.0368481,32.5595932,31.4354992,32.5878448,31.8316307,32.5878448z"/>
	<path style="fill:#3F8E1F;" d="M21.7628078,33.608429c0.2413578-0.0361824,0.3559952-0.1845512,0.3722954-0.4195099
		c0.3144093,0.1879158,0.1664314,0.499836,0.1764889,0.7508125c0.0174999,0.4368362,0.2058544,0.6687393,0.6370354,0.7086182
		c-0.5427265,0.7587051-1.248455,0.6001701-1.9473362,0.3157463c-4.133749-1.6823082-8.4248695-2.9658298-12.448637-4.9283504
		c-1.0113206-0.4932537-2.1257825-0.7564392-3.1047206-1.3279343c-0.2894325-0.1689739-0.693305-0.2460938-0.699409-0.7047558
		c0.2027674,0.0575352,0.4351702,0.0697212,0.6040087,0.1795864c1.049912,0.6831837,2.24266,1.0683556,3.3810129,1.5395679
		c1.1091318,0.4591179,2.1886425,1.0686531,3.4222889,1.1941986c0.0280046,0.022604,0.0565252,0.0445347,0.0850582,0.0655575
		c-0.0251474,0.2367458,0.1354561,0.2850628,0.3177843,0.3587875c1.3167744,0.5324192,2.6300564,1.0607853,3.9942913,1.4778652
		c1.4054527,0.4296799,2.7547016,1.040184,4.1412697,1.5359688C21.3428173,34.5864944,21.8608456,34.5065117,21.7628078,33.608429z"
		/>
	<path style="fill:#3F8E1F;" d="M13.6516199,16.5193882c0.2003336,0.8619957,0.9809837,1.1393795,1.6179285,1.5026932
		c1.1586819,0.6609211,2.3708534,1.2289104,3.5676022,1.8217545c0.3751259,0.1858292,0.6568851,0.4365177,0.7905617,0.8386269
		c-0.0933323,0.16889-0.1871014,0.3380508-0.2809734,0.5069561c-0.4921513,0.0736446-0.9622993,0.3075161-1.47892,0.2021465
		c-1.1475887-0.7354336-2.3056736-1.4550743-3.4379854-2.2132034c-0.5191212-0.3475723-0.9107256-0.8129883-0.8377991-1.5108871
		c0.0483532-0.0095577,0.0962763-0.0196838,0.1441994-0.0298119c-0.0480909,0.000248-0.0961809,0.0004959-0.1442719,0.000742
		c0,0-0.0209112-0.0695133-0.0201797-0.0692863c0.0865984-0.1334438,0.0872412-0.2557697-0.0472364-0.3601074
		C13.4980059,16.9664402,13.4024906,16.7111607,13.6516199,16.5193882z"/>
	<path style="fill:#3F8E1F;" d="M29.0871849,16.2365704c-0.7869034,0.2575188-1.5817966,0.4623985-2.4220219,0.3675594
		c-0.7361698-0.4264469-1.4628563-0.8705635-2.2115936-1.2737207c-0.7041206-0.3791323-0.492981-1.0204382-0.5123196-1.5996332
		c-0.0186272-0.5578156,0.3989525-0.4956446,0.75387-0.5173273c0.0543022,0.1040211,0.1087151,0.2079468,0.1631279,0.3118734
		c1.0006237,1.0798845,2.4285564,1.2740116,3.7029591,1.7863913c0.1765728,0.0703964,0.3531475,0.1407928,0.5297432,0.211195
		C29.2422123,15.7616091,29.2542324,15.9995651,29.0871849,16.2365704z"/>
	<path style="fill:#70CF53;" d="M24.8582478,13.525322c-0.0544128-0.1039267-0.1088257-0.2078524-0.1631279-0.3118734
		c1.9860611-0.2267141,3.9804726-0.2840405,5.9768353-0.2831383c0.4595261,0.0002069,0.9047508-0.0273829,1.3275471-0.2203541
		c0.014513,0.0725193,0.0291004,0.1450186,0.043642,0.2176523c-0.7580147,0.1346331-1.3327503,0.6525002-2.0093746,0.9522352
		c-0.4276218,0.1894302-0.6469746,0.3504515-0.4461803,0.8670969c0.152607,0.3926678,0.1237392,0.8097858-0.4966602,0.7759619
		c-0.1765747-0.0703964-0.3531494-0.1407928-0.5299053-0.2108879C27.5403137,14.2739391,26.2582893,13.7773676,24.8582478,13.525322
		z"/>
	<path style="fill:#70CF53;" d="M50.6000137,20.2688637c-0.5104141,0.3083401-1.0110054,0.0387325-1.4955254-0.0612755
		c-3.2153244-0.6636429-6.4489441-1.1847191-9.7316589-1.361166c0.0083847-0.1564465,0.0389214-0.3017788,0.1904449-0.3876572
		c2.688427-0.0139961,5.3307533,0.3699131,7.9759521,0.8148632c0.7460747,0.1254978,1.5630493,0.6452408,2.3525314,0.0497189
		C50.2352753,19.5580521,50.6241951,19.7587433,50.6000137,20.2688637z"/>
	<path style="fill:#59C32A;" d="M12.1558352,30.9164085c-1.2336464-0.1255455-2.3131571-0.7350807-3.4222889-1.1941986
		c-1.1383529-0.4712124-2.3311009-0.8563843-3.3810129-1.5395679c-0.1688385-0.1098652-0.4012413-0.1220512-0.6040087-0.1795864
		c-0.1917086-0.2798271-0.3579764-0.5662441-0.244246-0.9267769c0.834168,0.1327496,1.5197859,0.5770073,2.2007289,1.0378284
		c0.8773971,0.5937672,1.8030481,1.085125,2.8157406,1.4251289C10.4660549,29.856617,11.37356,30.2738209,12.1558352,30.9164085z"/>
	<path style="fill:#3F8E1F;" d="M47.78582,17.34865c0.2599907-0.6613216,1.1494751-0.8345261,1.2545166-1.6159744
		c0.2198563,0.8107967,0.1110306,1.5342255-0.5566444,2.1097984c-0.2186356-0.0982151-0.4372406-0.1962891-0.6558456-0.2943649
		l-0.006485-0.0080338C47.809536,17.4762936,47.7976799,17.4124718,47.78582,17.34865z"/>
	<path style="fill:#3F8E1F;" d="M7.774992,20.6125698c-0.3896146,1.0962467-0.0953331,2.140686,0.2406988,3.181942
		c0.0108242,0.0633926,0.0220032,0.1267796,0.0331812,0.1901646c-0.0456629,0.1708508-0.0923271,0.3403969-0.3338404,0.2550316
		c-0.3726187-0.9769497-0.5069127-1.991394-0.5135121-3.0315056C7.1989036,20.795845,7.3249655,20.5624599,7.774992,20.6125698z"/>
	<path style="fill:#65CA41;" d="M47.2746239,25.8078651c0.0838966-0.3226681,0.1677971-0.6453362,0.2519989-0.9681892
		c0.4396515,0.3374004,0.7179489,0.7431126,0.563736,1.3316479c-0.2739067-0.007267-0.5478325-0.0143986-0.8217888-0.0217133
		C47.2705612,26.0355759,47.2725868,25.9217224,47.2746239,25.8078651z"/>
	<path style="fill:#65CA41;" d="M46.5904732,24.0775948c-0.6223145,0.1044674-1.161377,0.0682259-1.2451897-0.7372036
		C45.8033905,23.5136223,46.2389259,23.7247219,46.5904732,24.0775948z"/>
	<path style="fill:#65CA41;" d="M47.8278465,17.5481091c0.218605,0.0980759,0.4372101,0.1961498,0.6558456,0.2943649
		c0.0329971,0.0803413,0.0659752,0.1605434,0.0989532,0.2407379C48.1807747,18.1168156,47.8636818,18.0308323,47.8278465,17.5481091
		z"/>
	<path style="fill:#59C32A;" d="M23.1360149,16.4331284c-0.400156-0.078207-0.8526821,0.165329-1.20681-0.1963673
		C22.3443336,16.2226887,22.7710705,16.1379738,23.1360149,16.4331284z"/>
	<path style="fill:#65CA41;" d="M47.1793251,24.4804649c-0.2887573,0.014595-0.6472511,0.1305027-0.5671501-0.3906841
		C46.8452797,24.1561699,47.0328407,24.2885246,47.1793251,24.4804649z"/>
	<path style="fill:#3F8E1F;" d="M8.813714,20.6575108c-0.3499622-0.002718-0.6999254-0.005434-1.049933-0.0081444
		C8.1156874,20.3994083,8.4654264,20.4348469,8.813714,20.6575108z"/>
	<path style="fill:#65CA41;" d="M47.5238113,24.8335953c-0.1876869,0.0009422-0.2391243-0.1214428-0.2521362-0.2785339
		C47.4347115,24.5764408,47.5002022,24.68606,47.5238113,24.8335953z"/>
	<path style="fill:#70CF53;" d="M33.7391243,28.4983768c0.1151123,0.0708427,0.2302284,0.1416874,0.3453407,0.2125301
		l-0.0482025,0.056036c-0.1204147-0.0635834-0.2408333-0.1271648-0.3612518-0.1907482
		C33.69627,28.5501652,33.7176399,28.5242252,33.7391243,28.4983768z"/>
	<path style="fill:#70CF53;" d="M34.2923393,28.8743877c0.1521988-0.0012894,0.2833519,0.0398922,0.3650665,0.1808605
		c-0.0226898,0.0240421-0.045414,0.0481701-0.0680237,0.0722256c-0.1202812-0.0633869-0.2406502-0.1266785-0.3610229-0.1899681
		L34.2923393,28.8743877z"/>
	<path style="fill:#65CA41;" d="M45.3084106,23.3274822c-0.1902008,0.0807133-0.3343658,0.0553055-0.3917961-0.1700249
		C45.047226,23.2141075,45.1778145,23.270792,45.3084106,23.3274822z"/>
	<path style="fill:#59C32A;" d="M13.5245457,17.2090111c0.1344776,0.1043377,0.1338348,0.2266636,0.0472355,0.3601074
		C13.5555477,17.4489307,13.5400467,17.3289719,13.5245457,17.2090111z"/>
	<path style="fill:#3F8E1F;" d="M13.6894531,16.252552c0.1570587,0.1344585,0.0119133,0.1770821-0.0725164,0.2387924
		C13.6410198,16.4121418,13.6652365,16.3323479,13.6894531,16.252552z"/>
	<path style="fill:#70CF53;" d="M34.084465,28.710907c0.0692558,0.0545254,0.1385117,0.1090508,0.2078209,0.1635284
		c0.0000534-0.0000477-0.0639267,0.0630703-0.0639267,0.0630703c-0.0640182-0.0568752-0.1280556-0.1137199-0.1920967-0.1705627
		L34.084465,28.710907z"/>
	<path style="fill:#59C32A;" d="M13.5919619,17.6384048c0.0480909-0.000246,0.0961809-0.000494,0.1442719-0.000742
		c-0.0479231,0.010128-0.0958462,0.0202541-0.1441994,0.0298119C13.5916042,17.6669064,13.5919619,17.6384048,13.5919619,17.6384048
		z"/>
	<path style="fill:#65CA41;" d="M39.5632744,18.458765c-0.1515236,0.0858784-0.1820602,0.2312107-0.1904449,0.3876572
		c-0.3014908,0.3639145-0.9369507,0.3163013-1.0787163,0.8760929c-0.9664764,0.6544552-0.732338,1.6590614-0.7546196,2.5891037
		c-0.0021896,0.0911884,0.0019646,0.1840553-0.0137596,0.273159c-0.208477,1.1815395-0.0256271,1.4007702,1.1976166,1.5753422
		c0.7302246,0.1042118,1.5227661,0.1225986,1.943676,0.9087372c-2.3603401-0.407753-4.7198296-0.8207588-7.082058-1.2174816
		c-0.3580933-0.0601425-0.7352715-0.0092487-1.0921059-0.0735798c-0.3872032-0.069809-0.9261799,0.3262138-1.1008759-0.0065269
		c-0.2733994-0.5207367-0.8257294-0.9133453-0.8214588-1.5750809c0.0043831-0.6792698-0.297493-1.0325146-0.9956627-1.1912785
		c-0.8428726-0.1916733-1.1974564-1.2399883-0.6968956-2.007391c0.4079037-0.6253529,0.6539135-1.1664982,0.1064911-1.8552799
		c-0.1640186-0.2063675,0.2166138-0.5769901,0.1027718-0.9055042c0.1669998-0.2371693,0.1549797-0.4751253,0.0037174-0.7138262
		c0.6203785,0.0338182,0.6492462-0.3832998,0.4966393-0.7759676c-0.2007942-0.5166454,0.0185585-0.6776667,0.4461803-0.8670969
		c0.6766243-0.2997351,1.2513599-0.8176022,2.0093746-0.9522352c0.1202049,0.0197468,0.2403641,0.039628,0.360424,0.0592308
		c0.322998,0.5027666,0.7891159,0.4571161,1.2758675,0.3323221c4.1208076,0.8687696,8.2573471,1.6691933,12.3017845,2.8675795
		c0.3591385,0.1064129,0.7265282,0.1480427,0.8374214,0.5860882c-1.2193031-0.3358479-2.4392776-0.6711178-3.6589546-1.0074463
		c-1.6019096-0.4417343-3.290287-0.5075436-4.8544235-1.1185446c-0.1599045-0.0624628-0.3792038-0.0969248-0.4798203,0.1091557
		c-0.0848694,0.1738348,0.0633049,0.3225279,0.1969681,0.3518419C40.0232506,15.5466146,39.0877953,17.3266239,39.5632744,18.458765
		z"/>
	<path style="fill:#65CA41;" d="M34.0362625,28.766943c0.0640411,0.0568428,0.1280785,0.1136875,0.1921082,0.1705475
		c0.1203613,0.0633049,0.2407303,0.1265965,0.3610115,0.1899834c-0.0049438,0.3987732,0.7552147,0.4929428,0.4848175,0.8694553
		c-0.2769012,0.385561-0.6918144-0.1245995-1.0589714-0.1269646c-1.897068-0.0122185-3.7941933-0.02145-5.6912861-0.0190372
		c-0.4032688,0.0005131-0.7967834-0.0212002-1.1606674-0.202282c-0.0943642-0.0469532-0.2061348-0.155508-0.2192783-0.2485676
		c-0.0257149-0.1820908,0.1263351-0.2857361,0.2876549-0.2706928c1.1334629,0.1056881,1.6723652-0.8767338,2.4900455-1.3462563
		c0.170908-0.0981369,0.2353477-0.2373371,0.2341309-0.4514389c-0.0026817-0.4714584,0.1550236-0.3717327,0.4919128-0.1794376
		c1.0230026,0.5839138,2.0835934,1.1037884,3.2273159,1.4238453C33.7954292,28.6397781,33.9158478,28.7033596,34.0362625,28.766943z
		"/>
	<path style="fill:#65CA41;" d="M20.2859421,20.3000507c-0.6447315-0.7273197-1.2720566-1.4692688-2.094574-2.0166836
		c-0.2224503-0.1480465-0.4238358-0.3656139-0.560358-0.5955296c-0.1798019-0.3028011-0.2013016-0.8600311,0.084095-0.8845615
		c0.7101307-0.0610332,1.1195011-0.7537079,1.8236752-0.7288132c0.1399403,0.2156944,0.3611012,0.1767845,0.5683689,0.1814098
		c0.4778957,0.0005493,0.9557953,0.0010967,1.4334106,0.001627c0.0406418,0.2247677,0.141346,0.3972454,0.4533749,0.4446583
		c-1.1932011,0.1742058-1.0281353,1.4038715-1.6698952,1.9949207c-0.217514,0.2003307,0.1236572,0.5271168,0.3013535,0.7755184
		C20.9260788,19.8929157,21.0102425,20.2759991,20.2859421,20.3000507z"/>
	<path style="fill:#65CA41;" d="M46.7102966,26.3272038c-1.386898,0.3173027-2.7625084,0.4853611-4.0658073-0.3071289
		C43.9827385,26.3451767,45.3720589,25.9978275,46.7102966,26.3272038z"/>
	<path style="fill:#65CA41;" d="M29.6405525,30.8890572c-1.2436924,0.0683746-2.4919319,0.1883621-3.6846275-0.3245811
		c-0.0245457-0.0462952-0.0352249-0.0953846-0.032589-0.1473427c1.0714111,0.1975689,2.1547012,0.1781063,3.2372284,0.1702652
		C29.387661,30.5857563,29.5856438,30.6211357,29.6405525,30.8890572z"/>
	<path style="fill:#65CA41;" d="M42.3223076,26.0176411c-0.9230919,0.3136272-1.7018318-0.0019646-2.4260445-0.5563145
		C40.7121277,25.6147041,41.578392,25.5492706,42.3223076,26.0176411z"/>
	<path style="fill:#65CA41;" d="M32.9470482,24.3359146c-0.7936783,0.2736683-1.5855389,0.3062248-2.3745651-0.0180664
		C31.3661213,24.0613098,32.1578369,24.0356693,32.9470482,24.3359146z"/>
	<path style="fill:#65CA41;" d="M45.2530022,25.6192646c0.6310234-0.7334919,0.9128761-0.6995335,1.4791183,0.1780605
		C46.2395134,25.7347889,45.7085915,25.9901409,45.2530022,25.6192646z"/>
	<path style="fill:#65CA41;" d="M21.4264164,28.0722523c0.268919-0.1041012,0.4288998-0.1936626,0.5997696-0.2264328
		c0.3555698-0.0681973,0.6685486,0.0271511,0.8756046,0.3440247c0.04212,0.0644588,0.0656738,0.2138252,0.0294399,0.2452564
		c-0.3040333,0.2637081-0.5611401-0.0653439-0.8453426-0.0968304
		C21.8952923,28.3171577,21.7160034,28.1940002,21.4264164,28.0722523z"/>
	<path style="fill:#65CA41;" d="M37.7246246,25.0741577c-0.6080627,0.1257191-1.2069931,0.2095585-1.6630821-0.3623943
		C36.6486359,24.6820602,37.2134628,24.7549248,37.7246246,25.0741577z"/>
	<path style="fill:#65CA41;" d="M34.7881927,24.5306168c-0.4712791,0.2147961-0.937851,0.3970757-1.2934151-0.1872978
		C33.9261627,24.4038525,34.400959,24.1648235,34.7881927,24.5306168z"/>
	<path style="fill:#65CA41;" d="M41.3884354,25.2443943c0.0538445-0.3697643,0.3243599-0.3663712,0.5998039-0.3421364
		c0.3305321,0.0290833,0.3170815,0.2896652,0.340065,0.5228519C41.9892921,25.4991322,41.7067108,25.2788658,41.3884354,25.2443943z
		"/>
	<path style="fill:#65CA41;" d="M43.4176292,25.4362507c0.4112816-0.1949024,0.8329506-0.4517822,1.1048622,0.185112
		C44.1527672,25.5683098,43.7394829,25.7752113,43.4176292,25.4362507z"/>
	<path style="fill:#65CA41;" d="M29.6364441,26.0116158c0.2537899,0.1020756,0.4283123,0.294445,0.5819874,0.5105953
		C29.5413837,26.9029713,29.6693897,26.3655071,29.6364441,26.0116158z"/>
	<path style="fill:#65CA41;" d="M38.646801,25.2703438c-0.2966919,0.2683887-0.4782524,0.1721344-0.5784569-0.1824055
		C38.2842865,25.0749073,38.5094261,25.0332813,38.646801,25.2703438z"/>
	<path style="fill:#65CA41;" d="M39.5651627,25.4545059c-0.2958603,0.2715168-0.4729233,0.1531315-0.58535-0.1781006
		C39.1982574,25.2585087,39.4241829,25.2167091,39.5651627,25.4545059z"/>
	<path style="fill:#65CA41;" d="M30.0109806,24.3405647c-0.0304356,0.3588905-0.2792931,0.3793392-0.5550385,0.3581085
		C29.4808826,24.3311234,29.7422752,24.3301735,30.0109806,24.3405647z"/>
	<path style="fill:#65CA41;" d="M29.4525719,24.7014847c-0.0070324,0.2405224-0.1216049,0.363615-0.3709621,0.3392944
		C29.1040745,24.8167439,29.230051,24.7062702,29.4525719,24.7014847z"/>
	<path style="fill:#65CA41;" d="M35.7012749,24.6965065c-0.2626762,0.2927399-0.3215675,0.0455132-0.3999977-0.1506176
		C35.4617805,24.5233097,35.6092529,24.5361118,35.7012749,24.6965065z"/>
	<path style="fill:#70CF53;" d="M8.048872,23.9846764c-0.011178-0.063385-0.022357-0.1267719-0.0331812-0.1901646
		c1.4083233-0.2108841,2.5465183,0.6093712,3.7913914,1.0109615c0.3733044,0.1204281,0.7173939,0.3125801,1.1258965,0.2695827
		c0.3948488,0.2655067,0.7732506,0.5420341,1.2821312,0.5897903c0.2537022,0.0238094,0.5247049,0.1570835,0.5583334,0.4930515
		c-1.6968679-0.2945576-3.2107973-1.1023903-4.7873325-1.7289124C9.3537292,24.1776752,8.7385387,23.9440212,8.048872,23.9846764z"
		/>
	<path style="fill:#FEFEFE;" d="M11.9070292,29.6253338c-0.5892124,0.1227074-1.0134401-0.2133465-1.4480782-0.520731
		C11.0136023,29.0778751,11.4471779,29.3881416,11.9070292,29.6253338z"/>
	<path style="fill:#70CF53;" d="M15.5899439,26.3932972c0.3160543,0.019043,0.7494478-0.2289848,0.8157072,0.3586292
		C16.0742226,26.7677059,15.7525053,26.7613811,15.5899439,26.3932972z"/>
	<path style="fill:#FEFEFE;" d="M10.4570875,29.101614c-0.1757135-0.0133324-0.3711157,0.0281105-0.4801922-0.1640759
		c-0.0044518-0.0078411,0.1055069-0.0806141,0.163888-0.122036C10.2473688,28.911602,10.3522291,29.006609,10.4570875,29.101614z"/>
	<path style="fill:#70CF53;" d="M15.1649494,26.3455563c0.0752974,0.0141087,0.1505966,0.0282154,0.2265768,0.04245
		C15.2980623,26.472105,15.2074795,26.5370579,15.1649494,26.3455563z"/>
	<path style="fill:#70CF53;" d="M14.9346876,26.1780834c0.0687065,0.0504036,0.137413,0.1008091,0.2061081,0.1509895
		C15.0720835,26.278595,15.0033855,26.2283382,14.9346876,26.1780834z"/>
	<path style="fill:#65CA41;" d="M46.9144363,16.7729206c0.2783699-0.0024471,0.4788551,0.1060333,0.5559807,0.3901958
		C47.1790619,17.1841869,46.9110794,17.1719494,46.9144363,16.7729206z"/>
	<path style="fill:#65CA41;" d="M47.78582,17.34865c0.0118599,0.0638218,0.023716,0.1276436,0.0355415,0.1914253
		c-0.0554543-0.0669727-0.110878-0.1339016-0.1661949-0.2009926C47.7003212,17.3214741,47.7438431,17.3247166,47.78582,17.34865z"/>
	<path style="fill:#65CA41;" d="M47.4680901,17.1636658c0.0632286,0.061182,0.126461,0.1223621,0.1897697,0.1834736
		C47.5946617,17.2859325,47.5313721,17.2248001,47.4680901,17.1636658z"/>
	<path style="fill:#70CF53;" d="M33.6794357,13.3191614c-0.4867516,0.124794-0.9528694,0.1704445-1.2758675-0.3323221
		C32.8328018,13.0829077,33.3003387,13.0311251,33.6794357,13.3191614z"/>
	<path style="fill:#59C32A;" d="M21.7628078,33.608429c0.0980377,0.8980827-0.4199905,0.9780655-1.0685692,0.7461586
		c-1.3865681-0.4957848-2.735817-1.1062889-4.1412697-1.5359688c-1.3642349-0.4170799-2.6775169-0.945446-3.9942913-1.4778652
		c-0.1823282-0.0737247-0.3429317-0.1220417-0.3177843-0.3587875c0.5299721-0.1011887,1.0037718,0.02388,1.4881983,0.2624512
		c1.8792791,0.9255047,3.8643703,1.4872303,5.9488163,1.7476864C20.3874664,33.080761,21.068655,33.3964691,21.7628078,33.608429z"
		/>
	<path style="fill:#70CF53;" d="M20.1071491,16.2558727c-0.2072678-0.0046253-0.4284286,0.0342846-0.5683689-0.1814098
		C19.7478104,16.0734997,19.9669228,16.0410938,20.1071491,16.2558727z"/>
	<path style="fill:#70CF53;" d="M31.8316307,32.5878448c-0.3961315,0-0.7947826-0.0282516-1.1877899,0.0068016
		c-0.5511398,0.04916-0.8292961-0.0716972-0.8276596-0.7235088c0.0016575-0.6600761,0.3136845-0.7481651,0.8456993-0.7346954
		c0.8220844,0.020813,1.645546,0.0122128,2.4678268-0.0081558c0.5470352-0.0135498,0.7426529,0.2238655,0.7600975,0.7669144
		c0.0194283,0.6046391-0.2684059,0.7220631-0.7787247,0.6893063c-0.4248505-0.0272751-0.8528519-0.0055923-1.2794552-0.0055923
		C31.8316269,32.5818901,31.8316269,32.5848694,31.8316307,32.5878448z"/>
	<path style="fill:#59C32A;" d="M24.8582478,13.525322c1.4000416,0.2520456,2.682066,0.7486172,3.702776,1.7866926
		C27.2868042,14.7993336,25.8588715,14.6052065,24.8582478,13.525322z"/>
</g>
</svg>
