<?xml version="1.0" encoding="utf-8"?>
<!-- Generator: Adobe Illustrator 21.1.0, SVG Export Plug-In . SVG Version: 6.00 Build 0)  -->
<svg version="1.1" id="Слой_1" xmlns="http://www.w3.org/2000/svg" xmlns:xlink="http://www.w3.org/1999/xlink" x="0px" y="0px"
	 viewBox="0 0 25 25" style="enable-background:new 0 0 25 25;" xml:space="preserve">
<g>
	<path style="fill:#FFFFFF;" d="M1.0603266,7.0459762C1.0749145,7.0064545,1.0879943,6.9662986,1.1043358,6.927516
		C1.2075396,6.6825886,1.3779072,6.5249372,1.654811,6.5077343c1.0853273-0.0674257,2.1706285-0.0671062,3.2560105-0.0002484
		C5.1332188,6.5211849,5.3060932,6.6203241,5.387939,6.8258657c0.1622863,0.4075551,0.3079786,0.8217196,0.4603324,1.2332258
		C5.8858738,8.160655,5.8949986,8.3004913,5.9677029,8.3535423c0.0729213,0.0532103,0.2088766,0.0210485,0.3172646,0.0244198
		c0.2101121,0.0065336,0.4204984,0.007555,0.6303029,0.0192614c0.106009,0.0059156,0.1913676-0.0193892,0.2802525-0.0809383
		c2.1240411-1.4708166,4.248589-2.9409146,6.3765931-4.4059901c0.9549713-0.6574738,1.9170351-1.304657,2.8771505-1.9546343
		c0.2542229-0.1721036,0.6312275-0.1140592,0.8124733,0.1341218c0.9065361,1.2413201,1.8113079,2.4839485,2.7116528,3.7297633
		c0.5880699,0.8137164,1.1687546,1.6327877,1.7489033,2.4521799c0.0560837,0.0792093,0.1147308,0.1106281,0.210041,0.1097889
		c0.1390896-0.0012255,0.2783222,0.0135555,0.4221954,0.02178c0.0525551-0.2003126,0.1020317-0.3913898,0.1528759-0.5821042
		c0.0766449-0.2874947,0.2618866-0.470829,0.5436039-0.5577235c0.2297745-0.0708714,0.5783749,0.0571966,0.7089481,0.2655783
		c0.0658321,0.1050582,0.1251583,0.2162395,0.1700649,0.3314214c0.0197964,0.0507817,0.0051937,0.1205449-0.008728,0.1780763
		c-0.28339,1.1711683-0.561224,2.3437595-0.8558159,3.5121202c-0.4846363,1.9220781-0.9799461,3.8414669-1.47229,5.7615967
		c-0.0430927,0.1680622-0.0699139,0.3521709-0.2490387,0.4407787c-0.0953827,0.0471802-0.1995087,0.1028385-0.301403,0.1064568
		c-0.6650448,0.023613-1.3305492,0.0461006-1.995924,0.0466995c-3.2081184,0.0028877-6.4162493,0.0012703-9.6243601-0.0057487
		c-0.4742155-0.0010376-0.9484224-0.0379925-1.4224887-0.0612545c-0.2264237-0.0111103-0.3736734-0.1269646-0.4493375-0.3434639
		c-0.4102564-1.1738815-0.8311877-2.3440971-1.2334142-3.5207119c-0.6750422-1.9746695-1.3396788-3.9529009-2.0046477-5.930994
		C4.2779856,7.9411211,4.2332921,7.9096889,4.1253676,7.9083796C3.2611828,7.897893,2.3970723,7.8807135,1.5330157,7.8620415
		C1.48831,7.8610749,1.4368671,7.8369784,1.4012332,7.808043C1.2308371,7.669682,1.1140679,7.4943724,1.0603265,7.2795911
		C1.0603265,7.2017198,1.0603265,7.1238475,1.0603266,7.0459762z M8.1630955,9.4425678
		c1.3427715,1.8677855,2.6765919,3.7231226,4.0269709,5.6014919c2.8162251-1.9504576,5.6067858-3.8831387,8.4041376-5.8205233
		c-0.0424576-0.0669746-0.0653267-0.1069489-0.0918484-0.14433c-1.2696266-1.7894249-2.5399723-3.5783377-3.8079605-5.3689213
		c-0.0502777-0.071002-0.0991898-0.0781052-0.1654568-0.0391078c-0.1406651,0.0827782-0.2853165,0.1599512-0.4197674,0.2519398
		c-1.3194199,0.9027162-2.6390734,1.8051167-3.9546452,2.7134213C10.9701242,7.454278,9.7902651,8.2786026,8.6097698,9.1019821
		C8.4637461,9.2038336,8.3261395,9.3177528,8.1630955,9.4425678z M20.3499374,16.4701004
		c0.0482197-0.1866341,0.0917931-0.3518181,0.1335335-0.5174675c0.1584663-0.6288424,0.3173389-1.2575865,0.4738064-1.8869267
		c0.045454-0.182826,0.0403004-0.1880274-0.134819-0.2026758c-0.1045284-0.0087442-0.2095356-0.0161219-0.3143482-0.0164204
		c-0.8557415-0.0024319-1.7114868-0.0031328-2.5672302-0.0039091c-0.0334396-0.0000305-0.0668812,0.0044994-0.0993862,0.0068369
		c0,0.8821964,0,1.7552433,0,2.6205626C18.6804104,16.4701004,19.511713,16.4701004,20.3499374,16.4701004z M7.8089151,13.8433466
		c0.0161242,0.0669518,0.0210609,0.0976648,0.0308809,0.12673c0.2746563,0.8129482,0.5510397,1.6253176,0.8228369,2.4392176
		c0.0253048,0.0757771,0.0696592,0.0777264,0.1310101,0.0769081c0.6534595-0.0087013,1.3069372-0.0160885,1.9604025-0.0243092
		c0.0258608-0.0003262,0.0516634-0.0053997,0.0840635-0.0089893c0.0104132-0.2431908,0.0230465-0.4795399,0.0280647-0.716053
		c0.0007906-0.0372553-0.0275936-0.0790253-0.0514135-0.1123266c-0.4072018-0.5692759-0.816782-1.1368532-1.2226343-1.7070866
		c-0.0415936-0.0584393-0.0855951-0.0767517-0.1541862-0.0755444c-0.2216816,0.0039043-0.4434738,0.0014544-0.665225,0.0014534
		C8.458189,13.8433466,8.1436634,13.8433466,7.8089151,13.8433466z M16.3868828,13.9704428
		c-0.0125084-0.0082254-0.0250168-0.0164509-0.0375252-0.0246754c-1.2094698,0.8065834-2.4052696,1.6329308-3.5848494,2.4827337
		c0.0037289,0.0108395,0.0074568,0.0216808,0.0111856,0.0325203c1.2015972,0,2.4031925,0,3.6111889,0
		C16.3868828,15.6183071,16.3868828,14.7943745,16.3868828,13.9704428z M21.9057865,10.1439323
		c-0.0102482-0.007308-0.0204964-0.014616-0.0307426-0.021924c-1.0801868,0.7216921-2.1465015,1.4633007-3.1931477,2.2489567
		c0.8015232,0.0275059,1.5947666,0.0293112,2.3879929,0.0264626c0.2550411-0.0009155,0.2766914-0.0122318,0.3413067-0.257369
		c0.1534462-0.5821276,0.296402-1.1670246,0.4425869-1.7510538C21.8740463,10.3080463,21.8885937,10.2256575,21.9057865,10.1439323z
		 M8.4840212,12.3937874c-0.0445919-0.0689459-0.0622816-0.0987711-0.0823221-0.1269207
		c-0.4444561-0.6243172-0.8871188-1.2499285-1.3351817-1.8716478c-0.1226001-0.1701155-0.2587547-0.3308315-0.3949356-0.4905357
		C6.6367669,9.8638544,6.5781212,9.8433466,6.5304241,9.8135023c-0.009532,0.0083942-0.0190635,0.0167885-0.028595,0.0251827
		c0.0052776,0.048521,0.003397,0.0991621,0.0170326,0.1452074c0.0705833,0.2383471,0.140048,0.477231,0.2193384,0.7127504
		c0.1747832,0.519165,0.3555584,1.0363121,0.5329642,1.5545988c0.0252066,0.0736418,0.056253,0.1414576,0.1467376,0.1418848
		C7.7632694,12.3947611,8.1086483,12.3937874,8.4840212,12.3937874z"/>
	<path style="fill:#FFFFFF;" d="M16.2579021,21.3398209c-0.0017185-1.2356682,1.0054607-2.2555962,2.2313976-2.2596359
		c1.2887707-0.0042477,2.2884789,0.9793949,2.2907791,2.2539673c0.0022259,1.2341499-1.0229359,2.2530804-2.2663021,2.2525215
		C17.3016701,23.5861301,16.2595844,22.5482121,16.2579021,21.3398209z M19.3320599,21.3150597
		c-0.0004864-0.445631-0.3630333-0.8006859-0.8169136-0.8000298c-0.4386635,0.0006313-0.8119946,0.3664188-0.8133945,0.7969532
		c-0.001482,0.4558144,0.367342,0.8250275,0.8228226,0.8236923C18.9788437,22.1343422,19.3325596,21.7748737,19.3320599,21.3150597z
		"/>
	<path style="fill:#FFFFFF;" d="M11.5387287,19.0832558c1.4922371-0.0063839,2.2703838,1.2274303,2.2761154,2.2354565
		c0.006856,1.2054596-1.0385561,2.2651577-2.2373838,2.2680492c-1.2599487,0.0030403-2.2837334-1.0080853-2.2855644-2.2573032
		C9.2900639,20.0801754,10.2822695,19.0882492,11.5387287,19.0832558z M11.5312805,22.1355896
		c0.4620895,0.005888,0.8238125-0.346611,0.8327179-0.8114834c0.0084362-0.4403496-0.3525152-0.8015976-0.8084736-0.8091373
		c-0.4356546-0.0072041-0.8178148,0.357748-0.8231516,0.7860851C10.7267218,21.7547474,11.0858717,22.1299133,11.5312805,22.1355896
		z"/>
</g>
</svg>
