<?xml version="1.0" encoding="utf-8"?>
<!-- Generator: Adobe Illustrator 21.1.0, SVG Export Plug-In . SVG Version: 6.00 Build 0)  -->
<svg version="1.1" id="Слой_1" xmlns="http://www.w3.org/2000/svg" xmlns:xlink="http://www.w3.org/1999/xlink" x="0px" y="0px"
	 viewBox="0 0 55 45" style="enable-background:new 0 0 55 45;" xml:space="preserve">
<g>
	<path style="fill:#A42020;" d="M9.7933836,21.3868084c0.1812782,0.0004978,0.3625565,0.0009937,0.5437326,0.0015106
		c0.0196562,0.3089581,0.2578669,0.3721561,0.4910212,0.4049778c2.6435404,0.3721447,5.265727,0.8934288,7.9389257,1.0622501
		c0.8348389,0.0527229,1.7026119,0.0930882,2.4654732,0.5385189c0.0606251,0.1722336-0.0449085,0.3028431-0.1110172,0.4433231
		c-0.1013775,0.005228-0.2027588,0.0104561-0.3041382,0.015686c-0.661562-0.276289-1.354084-0.3718929-2.0666008-0.4382877
		c-1.5050602-0.1402435-3.0142632-0.246912-4.5083103-0.5028954c-1.4903259-0.2553425-2.9830456-0.4962921-4.4874744-0.6687889
		c-0.6931305-0.0794697-0.9551744,0.4049282-1.2892323,0.7939186C8.243475,23.295866,8.4611807,23.3887367,8.723094,23.4076748
		c0.3019142,0.0218277,0.6826839-0.1319256,0.8900032,0.114212c0.4179688,0.4962311,0.9544115,0.4043274,1.4896116,0.4720821
		c0.5915384,0.0748882,1.1732626,0.2557297,1.7481003,0.4277267c0.9623022,0.2879276,1.9017763,0.7180271,2.8629055,0.9215221
		c1.1766567,0.2491302,2.4292221,0.1319599,3.6478176,0.1952572c0.3945465,0.0204945,0.7407475-0.0515156,1.0499172-0.295557
		c-0.1319809,0.5823879-0.263958,1.1647778-0.395937,1.7471638c-0.1807728,0.867733-0.4820213,1.6979752-0.6287422,2.5861206
		c-0.1933861,1.1706409-0.4110126,2.3477154-0.6744919,3.5105362c-2.4768009-0.1596031-4.8811464-0.7504349-7.3048086-1.2266159
		c-1.5799294-0.3104134-3.1604681-0.6177311-4.7410617-0.9263802c-0.2469058-0.280077-0.4934845-0.5602074-0.7400632-0.8403358
		c0.0085468-0.114809-0.0048289-0.219883-0.1235247-0.2781925c-0.3591657-1.5997448-0.0175447-3.1451607,0.3634133-4.6875267
		c0.5044837-0.4556904,0.1580315-1.2817535,0.7413039-1.7031517c0.4885254-0.2874527,0.7477121-0.8658237,1.3377514-1.0407982
		c0.0899734-0.02668,0.1107235-0.2867908,0.1634903-0.4389343C8.8615351,21.7370186,9.4942799,21.9758606,9.7933836,21.3868084z"/>
	<path style="fill:#A42020;" d="M49.2046242,13.4220591c0.875618,0.6987858,1.0071716,1.6937437,1.0879593,2.7125616
		c0.012516,0.1578789,0.0209961,0.3318291,0.1794777,0.4418297c0.1205864,0.0836964,0.2517624,0.2156105,0.1584702,0.3504162
		c-0.6680489,0.9653397-0.2369652,2.1809063-0.7391129,3.179718c-0.3802032,0.6625595-0.7605553,1.3252316-1.1409073,1.9879036
		c-0.13908,0.0511742-0.2199898,0.1419868-0.2037659,0.2989979c-0.0285492,0.0843391-0.0571022,0.1686764-0.0856552,0.2530174
		c-0.3766823,0.3183308-0.7293205,0.6528702-0.7954674,1.1804657c-0.4401283,0.2616787-0.6820602,0.6636219-0.8107605,1.1456909
		c-0.0578232,0.1408157-0.1156464,0.2816315-0.1734695,0.4224472c-0.1201706,0.0183334-0.2111244,0.0696926-0.2920914,0.1714268
		c-0.8517342,1.070219-1.7338142,2.1063595-2.9096756,2.8522301c-0.2664337,0.1690083-0.4195862,0.4460087-0.528141,0.7930698
		c-0.1991234,0.636591,0.1120338,1.277977-0.1222916,1.8913784l-0.0001183-0.0014114
		c-0.8703499,0.0377388-1.0322952,0.9477901-1.6203117,1.3479023c-0.1877289,0.1277313,0.1403313,0.1810951,0.2865868,0.1937675
		c-0.0427017,0.0472794-0.0854034,0.0945587-0.1281013,0.1418381c-0.20084-0.0182915-0.3476982,0.0831108-0.5158424,0.1830826
		c-2.0130806,1.1968765-4.1230087,2.0802765-6.5344315,1.9410591c-0.024189-0.1644363-0.0584946-0.3365326,0.0435715-0.4821548
		c0.5686035-0.8112373,0.8856239-1.7371254,1.2662277-2.6405907c0.5663719-1.3444252,0.417347-2.6953602,0.2232246-4.0640049
		c0.0194206-0.6527348-0.1344337-1.2504044-0.5598717-1.7617683c-0.0027618-0.3059425,0.4505005-0.2477207,0.4443169-0.5563946
		c0.7614632-0.0538597,1.5038376,0.1657829,2.2548103,0.1765518c1.0152206,0.0145531,2.0030365,0.2994919,3.0590134-0.0949802
		c1.7552872-0.6557083,2.8050995-2.2187576,4.3566551-3.1077156c0.4492569-0.2574005,0.3393707-0.8014069,0.6372795-1.1471844
		c0.4269562-0.4955673,1.0078392-0.9646835,1.2457695-1.4959106c0.6521683-1.4560585,2.1777191-2.4466076,2.2049751-4.2420549
		c0.0054054-0.3560324,0.1670303-0.6675091-0.0966034-1.0082655C49.1663933,14.1877661,49.1014557,13.6139708,49.2046242,13.4220591
		z"/>
	<path style="fill:#E96868;" d="M49.2046242,13.4220591c-0.1031685,0.1919117-0.0382309,0.765707,0.1917191,1.0629187
		c0.2636337,0.3407564,0.1020088,0.6522331,0.0966034,1.0082655c-0.027256,1.7954473-1.5528069,2.7859964-2.2049751,4.2420549
		c-0.2379303,0.5312271-0.8188133,1.0003433-1.2457695,1.4959106c-0.2979088,0.3457775-0.1880226,0.8897839-0.6372795,1.1471844
		c-1.5515556,0.888958-2.601368,2.4520073-4.3566551,3.1077156c-1.0559769,0.3944721-2.0437927,0.1095333-3.0590134,0.0949802
		c-0.7509727-0.0107689-1.4933472-0.2304115-2.2552643-0.1765842c-0.2942085-0.0162868-0.5879593-0.0325413-0.8819351-0.0487518
		c-0.41436-0.5592213-1.0402336-0.8503628-1.5814819-1.2486706c0.4540863-0.2269058,0.9545631-0.2356224,1.4416656-0.2926579
		c1.4742508-0.1726322,3.006649-0.2566032,4.1634903-1.3120308c1.4946594-1.3636303,2.9195251-2.8061848,4.2727127-4.3150139
		c0.3839684-0.3821659,0.7414474-0.7965889,1.1585503-1.1382084c0.6078873-0.4978752,0.5904083-1.1334591,0.4919548-1.8009062
		c-0.0647202-0.4387445-0.450573-0.7785978-0.4024277-1.2563648c0.0380135-0.1396313,0.0760269-0.2792606,0.1140442-0.418889
		c0.2458725-0.1403809,0.5218582-0.247261,0.6173363-0.5549402c1.0632629-0.3732967,2.1470642-0.5519667,3.2715378-0.3452444
		C48.9055977,12.6670494,49.0458107,13.0545511,49.2046242,13.4220591z"/>
	<path style="fill:#E96868;" d="M21.2325516,23.3940506c-0.7628765-0.4454155-1.6306496-0.4857807-2.4654884-0.5385036
		c-2.6731987-0.1688213-5.2953854-0.6901054-7.9389257-1.0622501c-0.2331543-0.0328217-0.471365-0.0960197-0.4910212-0.4049778
		c0.3949814-0.2838249,0.7228661-0.6602573,1.2026062-0.8263874c1.1250191-0.3895836,2.2910404-0.6977844,3.3554955-1.2140999
		c0.9347706-0.453413,1.8844509-0.8690586,2.8408375-1.2601738c1.9502125-0.7975407,3.8438511-1.7316589,5.8376904-2.422328
		c0.5984402-0.0227079,1.1506939-0.2311859,1.6875668-0.4636402c1.7815075-0.7713518,3.5523987-1.567214,5.333353-2.3398685
		c0.2148685-0.0932198,0.3899746-0.1685514,0.3722668-0.4363127c0,0,0.0315876-0.0263529,0.0313702-0.0260334
		c0.3306675-0.0037394,0.7349682,0.1584482,0.8349438-0.3684931c0.0169392-0.0222645,0.0392551-0.0353737,0.0663795-0.0390835
		c0.1504841,0.0154524,0.2931118,0.0071993,0.3862667-0.1387472c0.0370407-0.0499411,0.0740776-0.0998812,0.1107864-0.149703
		c-0.0003319,0.0001183,0.0000572-0.0039415,0.0000572-0.0039415c0.6970749-0.2711077,1.4055901-0.5036764,2.1437798-0.6368752
		c0.3746223,0.4059258,0.7491608,0.8121405,1.1240616,1.2184639c0.0027122,0.1344995,0.0050659,0.2688913,0.0074196,0.4032841
		c-0.0912628,0.2334843-0.2829857,0.3529491-0.4896622,0.4772348c-0.6345711,0.3816004-1.2835579,0.7297812-1.9825554,0.9790287
		c-0.4686775,0.0599537-0.9895515-0.0485725-1.3337536,0.413188c-0.0483608,0.2151957-0.124342,0.4037704-0.3924484,0.4071589
		c-0.5734482,0.0080128-1.0288677,0.2635517-1.4598465,0.6276207c-0.5132084,0.4335337-1.083437,0.9332609-1.7577095,0.8951464
		c-1.0728836-0.0606441-1.8345909,0.5618935-2.6929245,0.9734001c-0.8005791,0.3838215-1.5012741,0.9849358-2.3547001,1.2464752
		c-1.1394386,0.3491898-2.015007,1.2880669-3.2506561,1.404871c-0.1478958,0.013979-0.2114944,0.1768131-0.2516441,0.3188705
		l-0.0458794-0.0090141c-0.9982796-0.0212994-1.5817146,0.7923279-2.5462589,1.171772
		c0.7458038,0.0955524,1.3236599,0.1695881,1.901516,0.2436218c0.9012909,0.1508389,1.8025799,0.3016796,2.7038708,0.4525185
		c0.040678,0.4306087-0.4002895,0.6644249-0.4348583,1.0642891L21.2325516,23.3940506z"/>
	<path style="fill:#9B9EA0;" d="M41.3672485,32.7853088c0.0426979-0.0472794,0.0853996-0.0945587,0.1284142-0.1415596
		c0.5259895-0.1940231,0.9256973-0.5642204,1.3186569-0.9438324c0.3565636-0.3058662,0.7631416-0.5697155,1.0613136-0.9246387
		c1.5650406-1.8628941,2.7805901-3.9374905,3.6512108-6.2117214c0.0571823-0.1483917,0.1143684-0.2967834,0.1715546-0.4451733
		c0.239975-0.0448399,0.2513084-0.2267456,0.2496452-0.4164391c0.315731-0.2814674,0.4633331-0.6446648,0.5130463-1.0554409
		c0.028553-0.084341,0.057106-0.1686783,0.0854263-0.2528419c0.1973038-0.0112896,0.2634392-0.1123943,0.2039948-0.2991734
		c0.380352-0.662672,0.760704-1.3253441,1.1409073-1.9879036c0.2358208,1.2847443-0.3420372,2.4098892-0.7346115,3.5593662
		c-0.5886269,1.7235661-1.5858917,3.2427216-2.4649658,4.8260498c-0.6320152,1.1383476-1.4098587,2.1527195-2.1562996,3.1957798
		c-0.7618637,1.0646152-1.8424263,1.8218937-2.8685226,2.6061268c-1.4972382,1.14431-3.2513275,1.8060951-4.9676819,2.555275
		c-1.149189,0.5016136-2.3433189,0.8553314-3.5121498,1.2677727c-1.0012054,0.353302-2.0820007,0.5512581-3.1628838,0.6939354
		c-1.1197166,0.1478119-2.2299671,0.3579903-3.3608551,0.4493217c-1.4426155,0.1165085-2.8797855,0.1590729-4.3189812-0.0132751
		c-0.7742615-0.0927238-1.5593815-0.1077194-2.3318596-0.1413422c-1.9926815-0.086731-3.9487648-0.4162483-5.8463125-0.9365578
		c-1.9578848-0.53685-3.7268343-1.5130997-4.5461073-3.5687332c-0.1662235-0.4170723-0.4814205-0.9028816-0.0128555-1.3567085
		c0.5917416,0.1850052,1.183466,0.3700104,1.7751904,0.5550117c-0.304718,0.1929588-0.5427113,0.2721977-0.2921066,0.8086815
		c0.4340878,0.929287,1.1338253,1.5634918,1.9854784,1.8866959c1.7527676,0.6651878,3.5779161,1.1452675,5.4628916,1.29319
		c1.4990883,0.1176414,2.9813786,0.4145203,4.4893513,0.4239388c2.4970703,0.0155869,4.9696541-0.2114105,7.4522018-0.5160789
		c2.0211411-0.2480469,3.9185448-0.7043266,5.7113762-1.6427917c0.3543968-0.1855087,0.7049446-0.3961868,1.0823326-0.516861
		c1.5626259-0.4996758,2.8285561-1.499733,4.1576195-2.3982811C41.7441139,32.9258575,41.3435097,32.9087105,41.3672485,32.7853088z
		"/>
	<path style="fill:#747274;" d="M41.3672485,32.7853088c-0.0237389,0.1234016,0.3768654,0.1405487,0.0644188,0.3517914
		c-1.3290634,0.8985481-2.5949936,1.8986053-4.1576195,2.3982811c-0.377388,0.1206741-0.7279358,0.3313522-1.0823326,0.516861
		c-1.7928314,0.9384651-3.6902351,1.3947449-5.7113762,1.6427917c-2.4825478,0.3046684-4.9551315,0.5316658-7.4522018,0.5160789
		c-1.5079727-0.0094185-2.990263-0.3062973-4.4893513-0.4239388c-1.8849754-0.1479225-3.710124-0.6280022-5.4628916-1.29319
		c-0.8516531-0.323204-1.5513906-0.9574089-1.9854784-1.8866959c-0.2506046-0.5364838-0.0126114-0.6157227,0.2915525-0.8086128
		c0.4926062-0.0197792,0.9614029,0.0714264,1.3985167,0.3070335c-0.2862568,0.3121071-0.2629194,0.5746574,0.0535069,0.8797951
		c0.4050865,0.3906288,0.8465242,0.6993561,1.3468409,0.9596062c1.1124344,0.5786438,2.3041544,0.7309074,3.5285997,0.8961678
		c1.9424686,0.2621803,3.8932209,0.4247322,5.8416729,0.4932861c2.5617352,0.090126,5.1140175,0.0165482,7.670372-0.4746971
		c1.3859863-0.266346,2.7742615-0.4719925,4.1108856-0.9347115c0.3393669-0.117485,0.7048416-0.2046432,1.152607-0.5917625
		c-0.7210312,0.1549149-1.2330208,0.3457146-1.7740364,0.3477097c-0.1041603-0.0014038-0.2083244-0.0028076-0.3124847-0.0042076
		c-0.0358849-0.0074196-0.0721016-0.0098114-0.1086502-0.0071754c-0.8501701-0.0519753-1.6996841-0.1242218-2.5506401-0.1517181
		c-1.794632-0.0579948-3.5836048-0.2557449-5.3612461-0.443161c-1.4919243-0.1572876-2.9893055-0.4095192-4.4865837-0.5352631
		c-3.6842747-0.3094177-7.2829342-1.0979156-10.9039078-1.7731705c-1.1310663-0.2109222-2.1934776-0.7907658-3.3920045-0.6394234
		c-0.0531731-0.0492554-0.1063461-0.0985107-0.1589103-0.1473293L7.427424,31.9281864L7.39151,31.9524593
		c-0.3988376-0.1176186-0.5724978-0.5170803-0.9024162-0.7209606c0.0592084-0.0992622,0.1184249-0.1985359,0.1776419-0.2978096
		c1.580266,0.3087025,3.1608047,0.6160202,4.7407341,0.9264336c2.4236622,0.476181,4.8280077,1.0670128,7.3051538,1.2265778
		c0.431612,0.2046585,0.8949108,0.2465858,1.3626804,0.2905235c1.2412262,0.1165924,2.4821186,0.2393913,3.7206078,0.3817673
		c1.6587791,0.1906891,3.3133316,0.4189987,4.9730835,0.6001358c1.8473454,0.2016144,3.6984921,0.3683853,5.5479794,0.5503235
		c2.4114227,0.1392174,4.5213509-0.7441826,6.5344315-1.9410591C41.0195503,32.8684196,41.1664085,32.7670174,41.3672485,32.7853088
		z M37.6117477,34.9857292c-0.412487-0.061306-0.6789589,0.1037827-0.9361115,0.2941551
		C37.0098381,35.2985115,37.3102837,35.2255821,37.6117477,34.9857292z"/>
	<path style="fill:#A42020;" d="M7.5954165,32.1269836c1.1985269-0.1513424,2.2609382,0.4285011,3.3920045,0.6394234
		c3.6209736,0.6752548,7.2196331,1.4637527,10.9039078,1.7731705c1.4972782,0.1257439,2.9946594,0.3779755,4.4865837,0.5352631
		c1.7776413,0.1874161,3.5666142,0.3851662,5.3612461,0.443161c0.850956,0.0274963,1.70047,0.0997429,2.5503387,0.1515884
		c0.0321159,0.0611954,0.0682373,0.067997,0.1089516,0.0073051c0.1041603,0.0014,0.2083244,0.0028038,0.3122826,0.0040131
		c-0.3747902,0.467041-0.9607277,0.4898911-1.4478188,0.5193977c-2.6707458,0.1617928-5.3396454-0.0291672-7.9922638-0.3092499
		c-1.7322598-0.1829033-3.4602242-0.3985863-5.198513-0.5337868c-1.1719761-0.0911522-2.331358-0.2772255-3.4825134-0.5579338
		c-1.251668-0.3052063-2.5379477-0.4684715-3.8091373-0.6936264c-0.4371138-0.2356071-0.9059105-0.3268127-1.3985167-0.3070335
		c-0.5911703-0.18507-1.1828947-0.3700752-1.7746363-0.5550804C8.9101658,32.9191666,8.1410437,32.7244225,7.5954165,32.1269836z"/>
	<path style="fill:#9B9EA0;" d="M48.399437,12.6728268c-1.1244736-0.2067223-2.2082748-0.0280523-3.2718048,0.34513
		c-0.3272476-0.4864368-0.6905975-0.9671869-1.214138-1.2247076c-0.659214-0.3242579-0.7945099-0.7141161-0.3768768-1.3070745
		c-0.0388565-0.3647146,0.357048-0.412796,0.5453529-0.6561174c-0.4202042-0.249259-0.8797836,0.04387-1.2296944-0.2290001
		c1.6551704-0.2860794,2.837471,0.588172,3.9657021,1.6070671c0.3418732,0.3087406,0.6749687,0.6180859,1.1209602,0.8093872
		C48.1492577,12.1077242,48.383461,12.3575439,48.399437,12.6728268z"/>
	<path style="fill:#747274;" d="M5.8028202,29.8152142c0.1186957,0.0583096,0.1320715,0.1633835,0.123414,0.2782154
		c-0.4243841,0.2251034-0.623548-0.3327579-0.9964261-0.2864361c-0.7600389-1.6874466-0.7968554-3.3667583-0.0603867-5.0887127
		c0.4804802-1.1234245,1.2356319-1.9383965,2.3003397-2.4957676c-0.009501,0.4176693-0.7337923,0.6794052-0.2622237,1.2020226
		c-0.5832725,0.4213982-0.2368202,1.2474613-0.7411065,1.7030659c-0.1259961,0.0165806-0.2219644,0.076519-0.2721777,0.1968021
		c-0.4632368,1.1096516-0.6502228,2.2648506-0.4792547,3.4550724C5.466146,29.1355476,5.4941025,29.5384789,5.8028202,29.8152142z"
		/>
	<path style="fill:#9B9EA0;" d="M35.6642151,12.2809877c-0.3745384-0.4062157-0.7490768-0.8124304-1.1236992-1.2183561
		c1.08284-0.5825424,2.325119-0.6941118,3.447506-1.1673107c0.5538216-0.23349,1.066906-0.6122084,1.7138939-0.5757408
		c-0.5188713,0.4472752-0.0488091,1.0126123-0.1797409,1.5066137c-0.9869804-0.0357933-1.864666,0.4164591-2.7660828,0.700592
		C36.390007,11.6421795,35.793602,11.7033863,35.6642151,12.2809877z"/>
	<path style="fill:#E96868;" d="M39.522049,10.8258104c0.1310577-0.493618-0.3390045-1.0589552,0.1798668-1.5062304
		c0.7972107-0.0653934,1.5608864,0.1848383,2.3434563,0.2481203c-0.0651283,0.0125942-0.1569138,0.0027676-0.1882858,0.0416689
		c-0.0857124,0.1062593,0.0414581,0.0911589,0.0809937,0.0922718c0.1521721,0.0042791,0.3184967,0.0485058,0.4323463-0.1069288
		c0.1603508,0.0020905,0.3207054,0.00418,0.4814529,0.0063066c0.3503075,0.2729082,0.8098869-0.0202208,1.2300911,0.2290382
		c-0.1883049,0.2433214-0.5842094,0.2914028-0.54533,0.6555748c-0.5632896,0.0124645-0.5633316,0.7689352-1.0928421,0.8269167
		c-0.8753548-0.6033316-1.8545952-0.5414953-2.8391953-0.4454727C39.5767403,10.8540106,39.549221,10.8402557,39.522049,10.8258104z
		"/>
	<path style="fill:#9B9EA0;" d="M30.9669323,12.4255085c0.0177078,0.2677612-0.1573982,0.3430929-0.3722668,0.4363127
		c-1.7809544,0.7726545-3.5518456,1.5685167-5.333353,2.3398685c-0.5368729,0.2324543-1.0891266,0.4409323-1.6875668,0.4636402
		c1.4972439-0.6435738,2.9970932-1.2804785,4.4904022-1.9323692C29.036665,13.3084192,29.9996662,12.8620815,30.9669323,12.4255085z
		"/>
	<path style="fill:#475153;" d="M6.9075375,23.4245358c-0.4715686-0.5226173,0.2527227-0.7843533,0.2622237-1.2020226
		c0.1531129-0.2140827,0.1411309-0.616888,0.5784788-0.5060711c0.0073853,0.1348381,0.0147696,0.2696762,0.0221381,0.40452
		l-0.0452886,0.0278893l0.0402093-0.0332699c0.2002053-0.1107655,0.4090528-0.1889668,0.6434803-0.1707783
		c-0.0527668,0.1521435-0.0735168,0.4122543-0.1634903,0.4389343C7.6552496,22.558712,7.3960629,23.1370831,6.9075375,23.4245358z"
		/>
	<path style="fill:#9B9EA0;" d="M4.9298081,29.8069935c0.3728781-0.0463219,0.572042,0.5115395,0.9964261,0.2864361
		c0.2466893,0.2801056,0.493268,0.560236,0.7401738,0.840313c-0.0588894,0.0992203-0.1181059,0.198494-0.1773143,0.2977562
		C5.7713718,30.9733524,5.1728582,30.5847244,4.9298081,29.8069935z"/>
	<path style="fill:#9B9EA0;" d="M8.4087801,21.9448032c-0.2344284-0.0181885-0.4432759,0.0600128-0.6434813,0.1707783
		l0.005095,0.0053749c-0.0073843-0.1348381-0.0147686-0.2696762-0.0221539-0.4045143
		c0.5825725-0.1441975,1.1769557-0.2543373,1.7416253-0.450161c0.2115154-0.0733509,0.2238102,0.0292625,0.3033018,0.1205044
		C9.4942799,21.9758606,8.8615351,21.7370186,8.4087801,21.9448032z"/>
	<path style="fill:#9B9EA0;" d="M31.8332462,12.030982c-0.0999756,0.5269413-0.5042763,0.3647537-0.8349438,0.3684931
		C31.2559376,12.2292166,31.5296917,12.0963182,31.8332462,12.030982z"/>
	<path style="fill:#9B9EA0;" d="M32.2858925,11.8531513c-0.0931549,0.1459465-0.2357826,0.1541996-0.3862667,0.1387472
		C31.9761353,11.7989321,32.1043358,11.7517529,32.2858925,11.8531513z"/>
	<path style="fill:#9B9EA0;" d="M42.3704262,9.5947123c-0.1138496,0.1554346-0.2801743,0.111208-0.4323463,0.1069288
		c-0.0395355-0.0011129-0.1667061,0.0139875-0.0809937-0.0922718c0.0313721-0.0389013,0.1231575-0.0290747,0.1882858-0.0416689
		c0.0543747,0.0053034,0.1078568,0.0108004,0.1621437,0.0163498c0.0577393,0.0022793,0.114666,0.0045071,0.1715965,0.0067358
		L42.3704262,9.5947123z"/>
	<polygon style="fill:#9B9EA0;" points="32.3967361,11.6995068 32.3966789,11.7034483 32.3746109,11.6744595 	"/>
	<path style="fill:#E96868;" d="M42.3791122,9.590786c-0.0569305-0.0022287-0.1138573-0.0044565-0.1715965-0.0067358
		C42.2641754,9.5862608,42.3216438,9.5885239,42.3791122,9.590786z"/>
	<polygon style="fill:#A42020;" points="7.39151,31.9524593 7.427424,31.9281864 7.4365063,31.9796543 	"/>
	<path style="fill:#475153;" d="M34.3169746,34.9094505c-1.8494873-0.1819382-3.700634-0.3487091-5.5479794-0.5503235
		c-1.6597519-0.1811371-3.3143044-0.4094467-4.9730835-0.6001358c-1.2384892-0.1423759-2.4793816-0.2651749-3.7206078-0.3817673
		c-0.4677696-0.0439377-0.9310684-0.085865-1.3626804-0.2905235c0.263134-1.1627827,0.4807606-2.3398571,0.6741467-3.510498
		c0.1467209-0.8881454,0.4479694-1.7183876,0.6287899-2.5864544c1.2487202,0.0679379,2.572958-0.2387123,3.6351967,0.7594566
		c0.0939713,0.0883026,0.3125019,0.0440521,0.4735413,0.0614452c0.4112301-0.0032578,0.8315811,0.0711803,1.2161179-0.1481495
		c0.0313683-0.0236015,0.0533466-0.0535755,0.0659332-0.08992c0.8210373-0.4405689,0.9128132-1.1640339,0.2445908-1.8388329
		c-0.072237-0.0729465-0.0793476-0.2103844-0.1166649-0.3179054c1.400713-0.0179901,2.8014297-0.0359764,4.2021446-0.0539608
		c1.705286-0.002058,3.4105759-0.0041142,5.11586-0.0061722c0.2937508,0.0162544,0.5875015,0.0325089,0.8817101,0.0487957
		c0.0066376,0.3087063-0.4466248,0.2504845-0.4440994,0.5564613c-0.5398254,0.0354576-1.0858231,0.1419487-1.6178932,0.0939789
		c-2.2707367-0.2047291-4.5430202-0.0338879-6.8137016-0.0782375c-0.1953506-0.0038147-0.4137955,0.0076962-0.4154263,0.2681847
		c-0.0019855,0.3177452-0.1687698,0.7610893,0.1868286,0.9077263c0.4122829,0.1700077,1.0563202,0.3689594,1.3167019,0.1751194
		c0.3722248-0.2770977,0.6290798-0.1946182,0.9522076-0.1219826c0.2760506,0.0620556,0.5790119,0.2854347,0.8095303,0.2209702
		c1.0713787-0.2996101,2.1339111,0.0674191,3.1959648-0.0308571c0.2433548-0.0225182,0.4615021,0.1145477,0.6843529,0.1391201
		c0.7511826,0.0828209,1.4690437,0.6278553,2.2615433,0.1877117c0.1941223,1.3686447,0.3431473,2.7195797-0.2232246,4.0640049
		c-0.3806038,0.9034653-0.6976242,1.8293533-1.2662277,2.6405907
		C34.2584801,34.5729179,34.2927856,34.7450142,34.3169746,34.9094505z"/>
	<path style="fill:#E96868;" d="M20.4114494,25.242918c-0.3091698,0.2440414-0.6553707,0.3160515-1.0499172,0.295557
		c-1.2185955-0.0632973-2.4711609,0.0538731-3.6478176-0.1952572c-0.9611292-0.203495-1.9006033-0.6335945-2.8629055-0.9215221
		c-0.5748377-0.1719971-1.1565619-0.3528385-1.7481003-0.4277267c-0.5352001-0.0677547-1.0716429,0.0241489-1.4896116-0.4720821
		c-0.2073193-0.2461376-0.588089-0.0923843-0.8900032-0.114212c-0.2619133-0.0189381-0.479619-0.1118088-0.2573309-0.3706532
		c0.3340578-0.3889904,0.5961018-0.8733883,1.2892323-0.7939186c1.5044289,0.1724968,2.9971485,0.4134464,4.4874744,0.6687889
		c1.4940472,0.2559834,3.0032501,0.3626518,4.5083103,0.5028954c0.7125168,0.0663948,1.4050388,0.1619987,2.0670376,0.4381924
		C20.8485012,24.3647671,20.6189995,24.8006306,20.4114494,25.242918z"/>
	<path style="fill:#747274;" d="M20.4114494,25.242918c0.20755-0.4422874,0.4370518-0.8781509,0.4063683-1.3899384
		c0.1009426-0.0051346,0.2023239-0.0103626,0.3041039-0.015583c0.5256042,0.3198853,1.0308647,0.6686192,1.4621887,1.1091938
		c0.1364632,0.1393909,0.2954845,0.217329,0.4336243,0.1104984c0.2136803-0.1652412-0.0230789-0.2703629-0.1058598-0.3942413
		c-0.052496-0.0785561-0.2234859-0.0760231-0.1653271-0.2615986c0.6269341,0.0755672,1.0888157,0.4362087,1.5402832,0.8171539
		c0.005455,0.032299,0.0030689,0.0640087-0.0071564,0.0951309c-0.0754299,0.0739956-0.1508617,0.1479931-0.2262897,0.2219887
		c-0.3306255-0.1436024-0.686348-0.3326836-0.8726521,0.169817c-0.2488136,0.6711025,0.0554199,1.4721432,0.6887226,1.8314552
		c0.125721,0.0713272,0.2678604,0.0886078,0.2544804,0.273777c-0.160677-0.0173149-0.3792076,0.0269356-0.4731789-0.061367
		c-1.0622387-0.9981689-2.3864765-0.6915188-3.6351967-0.7594566C20.1474915,26.4076958,20.2794685,25.8253059,20.4114494,25.242918
		z"/>
	<path style="fill:#475153;" d="M24.2868309,25.2184029c-0.4514675-0.3809452-0.9133492-0.7415867-1.5402832-0.8171539
		c-0.0581589,0.1855755,0.1128311,0.1830425,0.1653271,0.2615986c0.0827808,0.1238785,0.31954,0.2290001,0.1058598,0.3942413
		c-0.1381397,0.1068306-0.2971611,0.0288925-0.4336243-0.1104984c-0.431324-0.4405746-0.9365845-0.7893085-1.4621887-1.1091938
		c0.0657063-0.1404877,0.1712399-0.2710972,0.1106148-0.4433308c0,0,0.0519505-0.0435047,0.0520821-0.0434093
		c0.8945503,0.2746029,1.7543659,0.6314735,2.5748825,1.0816498c0.3400097,0.4462605,1.0167465,0.4288712,1.304842,0.9468899
		C24.8718395,25.3255978,24.5793343,25.2719994,24.2868309,25.2184029z"/>
	<path style="fill:#9B9EA0;" d="M5.8028202,29.8152142c-0.3087177-0.2767353-0.3366742-0.6796665-0.3878217-1.035738
		c-0.1709681-1.1902218,0.0160179-2.3454208,0.4792547-3.4550724c0.0502133-0.1202831,0.1461816-0.1802216,0.2721777-0.1968021
		C5.7852755,26.6700535,5.4436545,28.2154694,5.8028202,29.8152142z"/>
	<path style="fill:#747274;" d="M35.8499985,27.7227001c-0.7924995,0.4401436-1.5103607-0.1048908-2.2615433-0.1877117
		c-0.2228508-0.0245724-0.4409981-0.1616383-0.6843529-0.1391201c-1.0620537,0.0982761-2.1245861-0.2687531-3.1959648,0.0308571
		c-0.2305183,0.0644646-0.5334797-0.1589146-0.8095303-0.2209702c-0.3231277-0.0726357-0.5799828-0.1551151-0.9522076,0.1219826
		c-0.2603817,0.19384-0.9044189-0.0051117-1.3167019-0.1751194c-0.3555984-0.146637-0.1888142-0.5899811-0.1868286-0.9077263
		c0.0016308-0.2604885,0.2200756-0.2719994,0.4154263-0.2681847c2.2706814,0.0443497,4.5429649-0.1264915,6.8137016,0.0782375
		c0.5320702,0.0479698,1.0780678-0.0585213,1.6178932-0.0939789C35.7155647,26.4722958,35.8694191,27.0699654,35.8499985,27.7227001
		z M29.665638,27.0164948c0.0035496,0.0165272,0.0017586,0.040657,0.0119114,0.0477886
		c0.0150185,0.0105495,0.0385132,0.0090351,0.0584011,0.0126572c-0.005394-0.027483-0.010788-0.0549679-0.0161819-0.0824509
		C29.701725,27.0018272,29.6836815,27.009161,29.665638,27.0164948z"/>
	<path style="fill:#E96868;" d="M42.8291931,31.1032124c0.2343254-0.6134014-0.0768318-1.2547874,0.1222916-1.8913784
		c0.1085548-0.3470612,0.2617073-0.6240616,0.528141-0.7930698c1.1758614-0.7458706,2.0579414-1.782011,2.9096756-2.8522301
		c0.0809669-0.1017342,0.1719208-0.1530933,0.2919693-0.1714134c0.0310402,0.058176,0.1027756,0.1519775,0.0875015,0.1693668
		c-0.6513405,0.7417412-0.9479904,1.7151413-1.6239853,2.4466839c-0.3766594,0.407608-0.8695488,0.8647861-0.9476852,1.3571415
		C44.0540695,30.2695389,43.3901062,30.6135693,42.8291931,31.1032124z"/>
	<path style="fill:#747274;" d="M42.8291931,31.1032124c0.5609131-0.4896431,1.2248764-0.8336735,1.3679085-1.7348995
		c0.0781364-0.4923553,0.5710258-0.9495335,0.9476852-1.3571415c0.6759949-0.7315426,0.9726448-1.7049427,1.6239853-2.4466839
		c0.015274-0.0173893-0.0564613-0.1111908-0.0875015-0.1693668c0.0579453-0.1408291,0.1157684-0.2816448,0.1731377-0.4224777
		c0.3237419,0.0279427,0.3374519-0.4547977,0.6724319-0.4090862c-0.8706169,2.274231-2.0861664,4.3488274-3.651207,6.2117214
		c-0.298172,0.3549232-0.7047501,0.6187725-1.0611343,0.9242649c0.0049782-0.1994991,0.0097733-0.3986187,0.014576-0.5977421
		L42.8291931,31.1032124z"/>
	<path style="fill:#E96868;" d="M42.8290749,31.1018009c-0.0048027,0.1991234-0.0095978,0.398243-0.014576,0.5977421
		c-0.3931389,0.3799858-0.7928467,0.7501831-1.3188362,0.9442062c-0.1465683-0.0129509-0.4746284-0.0663147-0.2868996-0.194046
		C41.7967796,32.0495911,41.958725,31.1395397,42.8290749,31.1018009z"/>
	<path style="fill:#E96868;" d="M48.4610901,22.6465034c-0.0497131,0.4107761-0.1973152,0.7739735-0.512989,1.0552349
		c-0.0933647,0.0422497-0.1867828,0.0847034-0.280201,0.1271572l-0.0022812-0.0019321
		C47.7317696,23.2993736,48.0844078,22.9648342,48.4610901,22.6465034z"/>
	<path style="fill:#E96868;" d="M47.526844,24.5635567c-0.3349838-0.0457115-0.3486938,0.4370289-0.6724358,0.4090862
		c0.1291542-0.4820518,0.3710861-0.8839951,0.8112144-1.1456738l0.0022736,0.0019264
		c0.0101662,0.0964928,0.0203323,0.1929893,0.0305023,0.2894878C47.6412125,24.2667732,47.5840263,24.4151649,47.526844,24.5635567z
		"/>
	<path style="fill:#E96868;" d="M48.7505112,22.0944881c0.0594444,0.186779-0.006691,0.2878838-0.2039948,0.2991734
		C48.5305214,22.236475,48.6114311,22.1456623,48.7505112,22.0944881z"/>
	<path style="fill:#475153;" d="M43.1485901,18.1876659c-1.3533363,1.508543-2.7782021,2.9510975-4.2728615,4.3147278
		c-1.1568413,1.0554276-2.6892395,1.1393986-4.1634903,1.3120308c-0.4871025,0.0570354-0.9875793,0.065752-1.4416275,0.2926941
		c-0.3757668-0.0055904-0.7430115-0.0158672-1.1190186-0.1082993c-3.3811741-0.8311939-6.8306675-1.266798-10.2733307-1.7400341
		c0.8639832-0.3734207,1.7039452,0.0733414,2.5577526,0.0795307c1.1372204,0.0082359,2.2124901,0.442852,3.3513756,0.5074425
		c1.0688744,0.0606194,2.1442547,0.1848621,3.1917381,0.4019279c1.5103092,0.3129711,3.0124454,0.5224686,4.5512905,0.2964764
		c0.2102509-0.0308819,0.4740944-0.0308952,0.5233574-0.2714329c0.0361176-0.1763592-0.19981-0.2262344-0.342968-0.2988815
		c0.1792068-0.2571449,0.4560356-0.1354046,0.6906471-0.1777496c0.106308,0.2774467,0.280899,0.3324757,0.5517769,0.2055531
		c0.1550293-0.0726395,0.3063545-0.1085968,0.2855682-0.3268967c-0.0228615-0.240118-0.1617661-0.3792076-0.374691-0.4567356
		c-0.1088333-0.0396252-0.2224655-0.0660648-0.333931-0.0984669c-0.2491608-0.2895527-0.6048317-0.3386726-0.9459915-0.3899708
		c-1.049057-0.1577339-2.0988731-0.3145161-3.1523476-0.437912c-2.2452946-0.2629967-4.4930801-0.5047359-6.7398453-0.7551842
		c0.2431431-0.7447014,0.1653576-1.6166668,0.8648624-2.1798897c0.0798683,0.1392479,0.2076092,0.1909294,0.3584499,0.1851254
		c2.1818581-0.0839767,4.3208294,0.2696476,6.4757042,0.5456486c2.099659,0.2689304,4.23563,0.2265835,6.3234138,0.6683426
		c0.5871429,0.1242371,0.9076309-0.3379288,0.6892776-0.9093437c0.297924-0.1721802,0.4551468-0.4855347,0.117691-0.6349869
		c-0.2815208-0.1246796-0.5633926-0.3190804-0.8995438-0.3467236c-1.6859207-0.138649-3.3716049-0.2809429-5.0561485-0.4352798
		c-1.208786-0.1107502-2.4156494-0.242466-3.623373-0.3648281c0.3574657-0.446825-0.0106926-1.1278639,0.4930305-1.5274811
		c0.6788006,0.0582457,1.3623333,0.09482,2.0391064,0.1330986c2.980896,0.1685991,5.9307022,0.5695248,8.877182,1.0177326
		c0.3859367,0.0587101,0.7455406-0.023222,1.0879517-0.219593c0.3218803-0.1845989-0.0962029-0.2348461-0.0527-0.3633919
		c0.0828629-0.0118542,0.1657219-0.0237064,0.2485847-0.0355587c0.2083893,0.0826511,0.3093681-0.0056171,0.3364563-0.2114487
		c0.3766174,0.642355-0.0880394,1.0554886-0.4236107,1.489069C43.3499718,17.6032696,43.0321579,17.787138,43.1485901,18.1876659z"
		/>
	<path style="fill:#9B9EA0;" d="M21.8782616,22.2587852c3.4426632,0.4732361,6.8921566,0.9088402,10.2733307,1.7400341
		c0.3760071,0.092432,0.7432518,0.1027088,1.1190186,0.1082993c0.5412102,0.3982716,1.1670837,0.6894131,1.5814438,1.2486343
		c-1.7050591,0.0020142-3.4103489,0.0040703-5.1157074,0.006258c-0.0392895-0.2062054-0.0537739-0.5103855-0.305357-0.489893
		c-0.8851643,0.0721016-1.6611977-0.5428219-2.5739746-0.3434448c-0.4466648,0.0975647-0.923193-0.0271721-1.3905468-0.1077614
		c-0.5195408-0.0895901-1.0699883,0.000042-1.6069794,0.0116463c-0.8205051-0.450428-1.6803207-0.8072987-2.5748711-1.0819016
		c0.0344372-0.3999596,0.4754047-0.6337757,0.4348755-1.0645847C21.7725143,22.276844,21.825388,22.2678127,21.8782616,22.2587852z"
		/>
	<path style="fill:#475153;" d="M44.5105629,13.5730114c-0.0380173,0.1396284-0.0760307,0.2792578-0.1141167,0.4189444
		c-0.6841583,0.2507677-0.9414749,0.7173977-0.7212868,1.4256449c-2.3942299-0.3393297-4.7675171-0.854331-7.2027435-0.8548145
		c-0.1295471-0.0000267-0.2590714-0.0974379-0.3881569-0.1494989c0.3664322-0.6322699,0.0375519-1.1591425-0.2561378-1.6913528
		c0.1316605-0.0449667,0.260437-0.1030045,0.3954391-0.1328325c1.076889-0.2379217,2.0060616-1.0182705,3.1880684-0.8688078
		c0.0430489,0.3022776,0.0537148,0.6137199,0.136097,0.9048672c0.1569481,0.5546446,0.014946,1.2002668,0.4922562,1.658577
		c0.1890335,0.18151,0.3697166,0.3964567,0.66436,0.1697206c0.4283524-0.3296309,0.9244537-0.5471811,1.0117569-1.2268133
		c0.0552139-0.429822,0.3079796-0.8826046,0.6713333-1.2089357c0.2334175,0.0643244,0.2507782,0.336442,0.4122353,0.448266
		C43.3578873,12.8525877,43.7104416,13.5622034,44.5105629,13.5730114z"/>
	<path style="fill:#747274;" d="M44.5105629,13.5730114c-0.8001213-0.010808-1.1526756-0.7204237-1.7108955-1.1070356
		c-0.1614571-0.111824-0.1788177-0.3839417-0.4121513-0.4485006c0.0189552-0.2350664,0.0378342-0.4699001,0.0567093-0.7047329
		c0.5290833-0.0581751,0.5291252-0.8146458,1.0924149-0.8271103c-0.4176559,0.5935011-0.2823601,0.9833593,0.3768539,1.3076172
		c0.5235405,0.2575207,0.8868904,0.7382708,1.214138,1.2247076C45.0324211,13.3257504,44.7564354,13.4326305,44.5105629,13.5730114z
		"/>
	<path style="fill:#A42020;" d="M43.6751328,15.4175625c-0.2201614-0.708209,0.0371552-1.174839,0.7213135-1.4256058
		c-0.0480728,0.4777107,0.33778,0.817564,0.4025002,1.2563086c0.0984535,0.6674471,0.1159325,1.303031-0.4919548,1.8009062
		c-0.4171028,0.3416195-0.7745819,0.7560425-1.1585503,1.1382084c-0.1162834-0.4002419,0.2015305-0.5841103,0.3998871-0.8404026
		c0.3355713-0.4335804,0.8002281-0.846714,0.4234924-1.4891844c-0.0923042-0.1069775-0.1844902-0.2138367-0.27668-0.3206978
		C43.6944885,15.4962425,43.6878204,15.4563999,43.6751328,15.4175625z"/>
	<path style="fill:#747274;" d="M21.8782616,22.2587852c-0.0528736,0.0090275-0.1057472,0.0180588-0.1587677,0.0272865
		c-0.9014397-0.1506386-1.8027287-0.3014793-2.7039204-0.4523144c0.1187439-0.5156059,0.375927-0.9681282,0.6446438-1.4153976
		c0,0,0.0458794,0.0090141,0.0462875,0.0088692c0.0583992,0.0131435,0.1163902,0.026432,0.1743793,0.0397224
		c-0.0842552,0.4668026,0.2595215,0.5798111,0.5826874,0.6219578c1.6325436,0.2129211,3.2702179,0.3865032,4.9028339,0.5989246
		c1.3050556,0.1698017,2.6177711,0.2608051,3.9197807,0.4773521c1.1535568,0.1918583,2.3219376,0.2833309,3.4800339,0.4847202
		c0.965374,0.1678772,1.9654503,0.185339,2.9447289,0.3239498c0.1430168,0.0726395,0.3789444,0.1225147,0.3428268,0.2988739
		c-0.049263,0.2405376-0.3131065,0.240551-0.5233574,0.2714329c-1.5388451,0.2259922-3.0409813,0.0164948-4.5512905-0.2964764
		c-1.0474834-0.2170658-2.1228638-0.3413086-3.1917381-0.4019279c-1.1388855-0.0645905-2.2141552-0.4992065-3.3513756-0.5074425
		C23.5822067,22.3321266,22.7422447,21.8853645,21.8782616,22.2587852z"/>
	<path style="fill:#A42020;" d="M19.8808842,20.4669514c-0.0579891-0.0132904-0.1159801-0.0265789-0.1743793-0.0397224
		c0.0397415-0.1419125,0.1033401-0.3047466,0.251236-0.3187256c1.2356491-0.1168041,2.1112175-1.0556812,3.2506561-1.404871
		c0.853426-0.2615395,1.554121-0.8626537,2.3547001-1.2464752c0.8583336-0.4115067,1.6200409-1.0340443,2.6929245-0.9734001
		c0.6742725,0.0381145,1.2445011-0.4616127,1.7577095-0.8951464c0.4309788-0.364069,0.8863983-0.6196079,1.4592495-0.6272821
		c-0.0129356,0.1921387-0.02528,0.3839397-0.0376225,0.5757408c-0.5037231,0.3996172-0.1355648,1.0806561-0.4927139,1.5275555
		c-1.0097637-0.0842686-2.0196495-0.170948-3.0299835-0.2520771c-0.6040726-0.0485039-0.9972973,0.197525-1.1088638,0.8198109
		c-0.3555222,0.1479263-0.2278004,0.4608994-0.2471523,0.7236404c-0.6992931,0.5638199-0.6215076,1.4357853-0.8643188,2.1805515
		c-1.0899353-0.1572609-2.1906128-0.2055264-3.2837543-0.3746758
		C21.5854301,20.0345039,20.6640015,19.8984222,19.8808842,20.4669514z"/>
	<path style="fill:#747274;" d="M31.435358,15.5370693c0.0123425-0.1918011,0.0246868-0.3836021,0.0376225-0.5757408
		c0.2687035-0.003727,0.3446846-0.1923018,0.3929176-0.4074593c1.2723465,0.2658205,2.5837059,0.2019739,3.8543816,0.4111605
		c1.3649292,0.2247028,2.7456932,0.1956244,4.1125069,0.4223642c0.9171371,0.1521435,1.8351212,0.4097757,2.7881737,0.3921928
		c0.2546158-0.0046978,0.5595322,0.1015024,0.7659378,0.3253288c-0.0435028,0.1285458,0.3745804,0.178793,0.0527,0.3633919
		c-0.342411,0.1963711-0.7020149,0.2783031-1.0879517,0.219593c-2.9464798-0.4482079-5.896286-0.8491335-8.877182-1.0177326
		C32.7976913,15.6318893,32.1141586,15.595315,31.435358,15.5370693z"/>
	<path style="fill:#9B9EA0;" d="M43.386898,16.1049156c-0.2064056-0.2238264-0.511322-0.3300266-0.7659378-0.3253288
		c-0.9530525,0.0175829-1.8710365-0.2400494-2.7881737-0.3921928c-1.3668137-0.2267399-2.7475777-0.1976614-4.1125069-0.4223642
		c-1.2706757-0.2091866-2.5820351-0.14534-3.8543816-0.4111605c0.3443298-0.4617987,0.8652039-0.3532724,1.3340797-0.4131985
		c0.0298042,0.0196543,0.0584373,0.040617,0.0860863,0.0629158l0.0575943,0.0347013l0.0655479-0.0070896
		c0.8915367,0.0606909,1.7830696,0.1213827,2.6746025,0.1820736c0.1295357,0.0520763,0.2590599,0.1494875,0.388607,0.1495142
		c2.4352264,0.0004835,4.8085136,0.5154848,7.2027435,0.8548145c0.012661,0.0387993,0.0193291,0.0786419,0.0199356,0.1196594
		c-0.0199013,0.177475-0.0397568,0.3547859-0.0596161,0.5320969C43.5526199,16.0812092,43.4697609,16.0930614,43.386898,16.1049156z
		"/>
	<path style="fill:#747274;" d="M39.4116287,11.720294c-1.1820068-0.1494627-2.1111794,0.6308861-3.1880684,0.8688078
		c-0.1350021,0.0298281-0.2637787,0.0878658-0.3953743,0.1327505c-0.052021-0.0125456-0.1041031-0.0250101-0.156189-0.0374727
		c-0.0023537-0.1343927-0.0047073-0.2687845-0.0074196-0.4032841c0.1290245-0.5777092,0.7254295-0.638916,1.0915146-0.7543097
		c0.9014168-0.284133,1.7791023-0.7363853,2.7660828-0.700592c0.0270462,0.0140619,0.0545654,0.0278168,0.0818481,0.0408735
		C39.4939499,11.1412306,39.6534729,11.4758759,39.4116287,11.720294z"/>
	<path style="fill:#A42020;" d="M35.6719971,12.6843796c0.0520859,0.0124626,0.1041679,0.0249271,0.156189,0.0374727
		c0.2936249,0.5322924,0.6225052,1.059165,0.256073,1.6914349c-0.891983-0.0607061-1.7835159-0.121398-2.6744728-0.1818504
		c-0.0360146-0.0416222-0.0774498-0.0509853-0.1237221-0.0278502c-0.0276489-0.0222988-0.056282-0.0432615-0.0860863-0.0629158
		c0.6987991-0.2492752,1.3477859-0.597456,1.982357-0.9790564C35.3890114,13.0373287,35.5807343,12.9178638,35.6719971,12.6843796z"
		/>
	<path style="fill:#A42020;" d="M19.6602173,20.4183598c-0.2687168,0.4472694-0.5258999,0.8997917-0.6446438,1.4153976
		c-0.5779552-0.0740376-1.1558113-0.1480732-1.9016151-0.2436256
		C18.0785027,21.2106876,18.6619377,20.3970604,19.6602173,20.4183598z"/>
	<path style="fill:#747274;" d="M47.6983986,24.1183796c-0.01017-0.0964947-0.0203362-0.1929913-0.0305023-0.289484
		c0.0934219-0.0424538,0.1868401-0.0849075,0.2802048-0.1271572C47.949707,23.8916378,47.9383736,24.0735435,47.6983986,24.1183796z
		"/>
	<path style="fill:#475153;" d="M12.7804852,34.1057091c1.2711897,0.2251549,2.5574694,0.3884201,3.8091373,0.6936264
		c1.1511555,0.2807083,2.3105373,0.4667816,3.4825134,0.5579338c1.7382889,0.1352005,3.4662533,0.3508835,5.198513,0.5337868
		c2.6526184,0.2800827,5.3215179,0.4710426,7.9922638,0.3092499c0.4870911-0.0295067,1.0730286-0.0523567,1.4478188-0.5193977
		c0.5412178-0.0018005,1.0532074-0.1926003,1.7742386-0.3475151c-0.4477654,0.3871193-0.8132401,0.4742775-1.152607,0.5917625
		c-1.3366241,0.462719-2.7248993,0.6683655-4.1108856,0.9347115c-2.5563545,0.4912453-5.1086369,0.5648232-7.670372,0.4746971
		c-1.948452-0.0685539-3.8992043-0.2311058-5.8416729-0.4932861c-1.2244453-0.1652603-2.4161654-0.317524-3.5285997-0.8961678
		c-0.5003166-0.2602501-0.9417543-0.5689774-1.3468409-0.9596062
		C12.5175657,34.6803665,12.4942284,34.4178162,12.7804852,34.1057091z"/>
	<path style="fill:#475153;" d="M37.6117477,34.9857292c-0.3014641,0.2398529-0.6019096,0.3127823-0.9361115,0.2941551
		C36.9327888,35.0895119,37.1992607,34.9244232,37.6117477,34.9857292z"/>
	<path style="fill:#475153;" d="M34.3984489,35.6768951c-0.0407143,0.0606918-0.0768356,0.0538902-0.1089516-0.0073051
		C34.3263474,35.6670837,34.3625641,35.6694756,34.3984489,35.6768951z"/>
	<path style="fill:#A42020;" d="M39.4116287,11.720294c0.2418442-0.2444181,0.0823212-0.5790634,0.1923943-0.8532267
		c0.9851799-0.096014,1.9644203-0.1578503,2.8397751,0.4454813c-0.0184479,0.2350264-0.0373268,0.4698601-0.056282,0.7049265
		c-0.3634377,0.3265657-0.6162033,0.7793484-0.6714172,1.2091703c-0.0873032,0.6796322-0.5834045,0.8971825-1.0117569,1.2268133
		c-0.2946434,0.2267361-0.4753265,0.0117893-0.66436-0.1697206c-0.4773102-0.4583101-0.3353081-1.1039324-0.4922562-1.658577
		C39.4653435,12.3340139,39.4546776,12.0225716,39.4116287,11.720294z"/>
	<polygon style="fill:#9B9EA0;" points="7.7652988,22.1155815 7.7250896,22.1488514 7.7703781,22.1209621 	"/>
	<path style="fill:#A42020;" d="M24.2868309,25.2184029c0.2925034,0.0535965,0.5850086,0.1071949,0.8773842,0.1607819
		l-0.0016899,0.0189133c0.0218487,0.0927029,0.085577,0.1257,0.1746769,0.1225281
		c0.065691-0.0349293,0.131382-0.0698566,0.197073-0.104784c0.0373173,0.1075211,0.0444279,0.2449589,0.1166649,0.3179054
		c0.6682224,0.674799,0.5764465,1.3982639-0.2441463,1.8383064c-0.0446949,0.0137119-0.0669689,0.044035-0.0663776,0.0904465
		c-0.3845367,0.2193298-0.8048878,0.1448917-1.2161179,0.1481495c0.0130177-0.1852474-0.1291218-0.202528-0.2548428-0.2738552
		c-0.6333027-0.3593121-0.9375362-1.1603527-0.6887226-1.8314552c0.1863041-0.5025005,0.5420265-0.3134193,0.8722916-0.1697769
		c-0.0125542,0.1077995-0.102293,0.2567883,0.0170002,0.3109646c0.1314278,0.0596809,0.1752987-0.0965748,0.1956024-0.1974621
		c0.0218143-0.1083984,0.0107594-0.2234058,0.0140476-0.3355312C24.2898998,25.2824116,24.2922859,25.2507019,24.2868309,25.2184029
		z"/>
	<path style="fill:#747274;" d="M25.5342751,25.4158421c-0.065691,0.0349274-0.131382,0.0698547-0.1973629,0.1047382
		c-0.058321-0.0408611-0.1163559-0.0816708-0.174387-0.1224823l0.0016899-0.0189133
		c-0.2879677-0.5180073-0.9647045-0.500618-1.3047142-0.9468784c0.5369797-0.0113525,1.0874271-0.1009846,1.6069679-0.0113945
		c0.4673538,0.0805893,0.943882,0.2053261,1.3905468,0.1077614c0.9127769-0.1993771,1.6888103,0.4155464,2.5739746,0.3434448
		c0.2515831-0.0204926,0.2660675,0.2836876,0.305357,0.4898911C28.3357048,25.3798656,26.934988,25.3978519,25.5342751,25.4158421z"
		/>
	<path style="fill:#747274;" d="M25.340416,27.6625004c-0.0005913-0.0464115,0.0216827-0.0767345,0.0663776-0.0904465
		C25.3937626,27.6089249,25.3717842,27.6388988,25.340416,27.6625004z"/>
	<path style="fill:#E96868;" d="M24.2796745,25.3135338c-0.0032883,0.1121254,0.0077667,0.2271328-0.0140476,0.3355312
		c-0.0203037,0.1008873-0.0641747,0.257143-0.1956024,0.1974621c-0.1192932-0.0541763-0.0295544-0.2031651-0.0170002-0.3109646
		C24.1288128,25.4615269,24.2042446,25.3875294,24.2796745,25.3135338z"/>
	<path style="fill:#475153;" d="M29.665638,27.0164948c0.0180435-0.0073338,0.036087-0.0146675,0.0541306-0.0220051
		c0.005394,0.027483,0.010788,0.0549679,0.0161819,0.0824509c-0.0198879-0.0036221-0.0433826-0.0021076-0.0584011-0.0126572
		C29.6673965,27.0571518,29.6691875,27.0330219,29.665638,27.0164948z"/>
	<path style="fill:#9B9EA0;" d="M19.8808842,20.4669514c0.7831173-0.5685291,1.704546-0.4324474,2.5276871-0.3050766
		c1.0931416,0.1691494,2.193819,0.2174149,3.2837543,0.3746758c2.2464333,0.2503834,4.4942188,0.4921227,6.7395134,0.7551193
		c1.0534744,0.1233959,2.1032906,0.2801781,3.1523476,0.437912c0.3411598,0.0512981,0.6968307,0.1004181,0.9460487,0.389967
		c-0.5001984,0.1384258-0.1875687,0.4316578-0.1287804,0.6765499c-0.2346115,0.042345-0.5114403-0.0793953-0.6906471,0.1777496
		c-0.9791374-0.1386032-1.9792137-0.156065-2.9445877-0.3239422c-1.1580963-0.2013893-2.3264771-0.2928619-3.4800339-0.4847202
		c-1.3020096-0.216547-2.6147251-0.3075504-3.9197807-0.4773521c-1.632616-0.2124214-3.2702904-0.3860035-4.9028339-0.5989246
		C20.1404057,21.0467625,19.796629,20.933754,19.8808842,20.4669514z"/>
	<path style="fill:#9B9EA0;" d="M26.8037968,17.6323586c0.1115665-0.6222858,0.5047913-0.8683147,1.1088638-0.8198109
		c1.010334,0.0811291,2.0202198,0.1678085,3.0299835,0.2520771c1.207407,0.1222878,2.4142704,0.2540035,3.6230564,0.3647537
		c1.6845436,0.1543369,3.3702278,0.2966309,5.0561485,0.4352798c0.3361511,0.0276432,0.6180229,0.222044,0.8995438,0.3467236
		c0.3374557,0.1494522,0.180233,0.4628067-0.1177101,0.6349525c-0.3500099,0.0372562-0.7158127,0.1595459-1.0473824,0.0978527
		c-1.9504967-0.3629169-3.9379311-0.3381939-5.9027901-0.5656509c-1.8568859-0.2149601-3.7389755-0.4044266-5.6237831-0.433094
		C27.5064888,17.9405251,27.0145435,18.1433201,26.8037968,17.6323586z"/>
	<path style="fill:#747274;" d="M26.8037968,17.6323586c0.2107468,0.5109615,0.702692,0.3081665,1.0259304,0.3130836
		c1.8848076,0.0286674,3.7668972,0.2181339,5.6237831,0.433094c1.964859,0.227457,3.9522934,0.202734,5.9027901,0.5656509
		c0.3315697,0.0616932,0.6973724-0.0605965,1.0473824-0.0978527c0.2183723,0.5714493-0.1021156,1.0336151-0.6892586,0.9093781
		c-2.0877838-0.4417591-4.2237549-0.3994122-6.3234138-0.6683426c-2.1548748-0.276001-4.2938461-0.6296253-6.4757042-0.5456486
		c-0.1508408,0.0058041-0.2785816-0.0458775-0.3584499-0.1851254
		C26.5759964,18.0932579,26.4482746,17.7802849,26.8037968,17.6323586z"/>
	<path style="fill:#747274;" d="M36.4014549,22.7960987c-0.0587883-0.2448921-0.371418-0.5381241,0.1287804-0.6765499
		c0.1114082,0.0324059,0.2250404,0.0588455,0.3338737,0.0984707c0.212925,0.077528,0.3518295,0.2166176,0.374691,0.4567356
		c0.0207863,0.2182999-0.1305389,0.2542572-0.2855682,0.3268967C36.682354,23.1285744,36.5077629,23.0735455,36.4014549,22.7960987z
		"/>
	<path style="fill:#747274;" d="M43.635479,16.0693569c0.0198593-0.1773109,0.0397148-0.3546219,0.0596161-0.5320969
		c0.0922356,0.1066961,0.1844215,0.2135553,0.2767258,0.3205328C43.9448509,16.0637398,43.8438721,16.1520081,43.635479,16.0693569z
		"/>
	<path style="fill:#E96868;" d="M33.2860641,14.2035866c0.0462723-0.0231352,0.0877075-0.013772,0.1237221,0.0278502
		c-0.0005798-0.0002384-0.0661278,0.0068512-0.0661278,0.0068512L33.2860641,14.2035866z"/>
	<path style="fill:#475153;" d="M25.1625252,25.398098c0.0580311,0.0408115,0.116066,0.0816212,0.174387,0.1224823
		C25.2481022,25.523798,25.1843739,25.4908009,25.1625252,25.398098z"/>
</g>
</svg>
