<?xml version="1.0" encoding="utf-8"?>
<!-- Generator: Adobe Illustrator 21.1.0, SVG Export Plug-In . SVG Version: 6.00 Build 0)  -->
<svg version="1.1" id="Слой_1" xmlns="http://www.w3.org/2000/svg" xmlns:xlink="http://www.w3.org/1999/xlink" x="0px" y="0px"
	 viewBox="0 0 55 45" style="enable-background:new 0 0 55 45;" xml:space="preserve">
<g>
	<path style="fill:#F5765A;" d="M33.7486534,16.4722233c0.7302628-0.2909355,1.4604568-0.5820417,2.1908646-0.8726044
		c0.1022491-0.0406723,0.2239609-0.0557585,0.3056107-0.1213446c1.1264915-0.9048109,2.5743332-0.8630657,3.8518524-1.3201361
		c0.0964012-0.0344906,0.1734772-0.1229849,0.2595367-0.1863747l0.0683327,0.0148325
		c-0.1320839,0.3928289,0.3234901,0.317008,0.4208069,0.5270472c0.0703201,0.0434237,0.1406364,0.0868464,0.2109604,0.1302681
		l-0.0054893,0.003581c0.030098,0.1320801,0.0627861,0.263629,0.0898666,0.3963261
		c0.1395607,0.6840162-0.0098114,0.8527746-0.6699562,0.777564c-0.0123596-0.0014067-0.0470963,0.1936512-0.0713654,0.2970581
		c-0.3308067-0.0823269-0.6595573-0.1289568-0.9747124,0.0569782c-0.0552864-0.2954426-0.1236763-0.464879-0.4842606-0.236022
		c-0.8333244,0.5288897-1.5878067,1.2045088-2.621479,1.375617c-0.4186478,0.0693016-0.5832863,0.3844624-0.4040947,0.8119717
		c-0.0783043,0.0748482-0.1566124,0.1496964-0.2349205,0.2245445c-0.1801529-0.5823898-0.7404823-0.2778931-1.0927162-0.4637547
		c-0.1712952-0.0903835-0.3313675-0.3860741-0.5492706-0.1720009c-0.1854858,0.1822319,0.0137863,0.3967266,0.0913734,0.5926628
		c0.038105,0.0962315,0.0328598,0.2096291,0.0475349,0.3152618c-0.1419067-0.0039845-0.2841148-0.0079708-0.4263268-0.0119572
		c-0.7198868,0.1229572-1.131237,0.8314228-1.8459892,0.9789295c-0.0760841,0.0157013-0.1108494,0.231636-0.1647816,0.3546829
		c-0.1085358,0.0036736-0.2170734,0.0073471-0.3256111,0.0110207c-0.2623882,0.0593243-0.5495605,0.0698681-0.782074,0.1879959
		c-0.5042324,0.2561722-1.1978874,0.2586803-1.3908863,0.9658718c-0.2849312,0.0202293-0.4505787,0.1781597-0.5182686,0.4483547
		c-0.1592674-0.0341282-0.3186455-0.0675659-0.4780235-0.1010036c-0.7268448-0.3047047-1.4535522-0.7285156-2.1815662-0.0024719
		c-0.1190586,0.0947247-0.0509052,0.1358395,0.0481415,0.168108c0.2345314,0.0802402,0.2831135,0.2778816,0.3091831,0.489727
		c-0.0511532,0.1060848-0.1022968,0.2121735-0.1534443,0.3182621c-0.0659695-0.0504017-0.1319408-0.1008034-0.1979103-0.1512032
		c-0.3925209-0.770689-0.8871841-0.7186604-1.4470654-0.183466c-0.0584316,0.0558529-0.1516247,0.0755119-0.2095566,0.1316948
		c-0.9377995,0.9094658-2.1076717,1.0565948-3.3394642,1.0665188c-0.5180607,0.0041733-0.7127285-0.1834831-0.651495-0.6777134
		c0.1196632-0.1941814,0.3158302-0.1609745,0.4985523-0.1677341c0.7843437,0.098814,1.367363-0.1071205,1.5017719-0.9921169
		c0.1106529-0.0007629,0.2213078-0.0015259,0.3319607-0.0022869c0.3843498,0.1560059,0.6800442,0.090168,0.8329906-0.3328838
		c0.2789249-0.2809334,0.6488094-0.4239559,1.2406673-0.6394405c-0.3737831-0.0200939-0.4781284-0.0257034-0.5824718-0.0313129
		c0.1849594-0.2327728,0.4624748-0.2766056,0.7225399-0.3639221c1.3199253-0.4431648,2.5494347-1.0995655,3.9327583-1.4207344
		c1.1787586-0.273674,2.2888317-0.8711567,3.4028492-1.3829479C32.8010712,17.0551338,33.4705505,17.0988998,33.7486534,16.4722233z
		"/>
	<path style="fill:#E4DEDD;" d="M19.2588634,38.6114845c-0.1102448,0.0000877-0.2204895,0.0001755-0.3307724,0.0001526
		c-0.9590893-0.0573463-1.935976-0.2563019-2.8729782-0.1383629c-1.3795223,0.1736336-2.7528486,0.0421333-4.1229973,0.1391602
		c-1.911478,0.1353569-3.0413542-1.0967178-3.5041456-2.5906219c-0.10641-0.3434944-0.2257347-0.6289711-0.6586981-0.5836105
		c-0.0109801-0.3222504,0.2945805-0.49189,0.3719883-0.7715263c0.2564316-0.0275764,0.4536829,0.1143608,0.6599627,0.2303848
		c0.0821848,1.0534592,1.2162523,2.2849846,2.2845879,2.5378075c0.5979404,0.1415062,1.2081757,0.177578,1.8015137,0.2736473
		c2.2530956,0.3648186,4.5111246,0.2164993,6.7657595,0.214035c0.4111366-0.0004501,1.0144005,0.1239128,1.2809925-0.4594536
		c0.9651985-0.1688423,1.9794483-0.0755959,2.8892059-0.5406876c0.0999146,0.0172272,0.1650848-0.0225182,0.1955166-0.1192284
		l0.011919-0.0089912l-0.0353107,0.0724449l0.067543,0.043972c0.4112587-0.0373497,0.7636013-0.2188225,1.0963745-0.4481735
		c1.336422-0.3464546,2.4374981-1.0967407,3.4449654-2.0076523l-0.0060577,0.0120239
		c0.1035576-0.0710068,0.2071304-0.1419563,0.3107033-0.2129059c1.3308964-0.9420357,2.6678715-1.8756218,3.9910583-2.8283634
		c1.4499359-1.0440063,2.8871422-2.1056957,4.329895-3.1596794c1.3230133-0.9575691,2.6383362-1.9259968,3.9706879-2.8703938
		c2.560997-1.8152752,4.9318047-3.8862724,7.5589981-5.6119728c0.4485931,0.13801,0.3122902,0.3471355,0.0852623,0.5936451
		c-1.0731583,1.1652412-2.5292435,1.8563461-3.652771,2.9568615c-0.6117859,0.5992584-1.4683952,0.8147373-2.0992165,1.4008007
		c-0.6179161,0.5740738-1.3682594,1.0071316-1.9762497,1.5899506c-0.6961937,0.6673737-1.3376694,1.3724976-2.3048439,1.6616364
		c-0.1228676,0.0367317-0.2111053,0.2490025-0.27911,0.3966522c-0.1263008,0.2742386-0.3296814,0.450182-0.5462265,0.6592045
		c-0.5656433,0.5460033-1.2330284,0.8972225-1.8798294,1.3093204c-1.1921883,0.7595844-2.3106461,1.6347485-3.5015106,2.3966084
		c-1.024065,0.6551552-2.0437794,1.3338966-2.9109592,2.1631584c-0.4211102,0.4026909-0.7774258,0.5326157-1.2796535,0.5283394
		c-0.0230465-0.0132179-0.0461006-0.0264244-0.0691566-0.0396309c0.0235558,0.0127106,0.0471115,0.0254173,0.0706654,0.0381279
		c-0.5364113,0.6109276-1.1825485,1.0337181-1.998415,1.1655083c-0.0241108-0.0126991-0.0482197-0.0254059-0.0723267-0.0381126
		c0.0237179,0.0131111,0.0474339,0.026226,0.0711517,0.039341c-0.4093323,0.3323669-1.1499538,0.133419-1.3318863,0.8304787
		c-0.1101933,0.0019341-0.2203865,0.0038681-0.3305988,0.0057526c-0.6232357,0.046524-1.2540607,0.0734749-1.672163,0.648716
		c-0.1651001,0.0037651-0.3302002,0.007534-0.4952908,0.011322c-0.1834545,0.0037727-0.3792477-0.0297737-0.4995041,0.1651611
		c-0.110899,0.0026817-0.2217999,0.0053596-0.3326893,0.0079842C20.8854713,38.1129341,20.0901337,38.4951591,19.2588634,38.6114845
		z"/>
	<path style="fill:#741E17;" d="M4.5710759,32.6680832c-0.7541485-0.4177361-1.2277479-1.1269817-1.8006256-1.7329617
		c0.057689-0.056675,0.1153069-0.1133823,0.1729293-0.1700115c0.2677679,0.1158257,0.5429263,0.061718,0.8168638,0.0356388
		c0.0304258,0.1427708,0.1070476,0.2264385,0.2471404,0.2982712c0.7392306,0.3790588,1.5830355,0.4064827,2.3414416,0.719223
		c1.998229,0.8240108,4.0886974,1.3742924,6.1351337,2.0554218c2.7152958,0.9037437,5.4769726,1.4874001,8.3627052,1.234787
		c0.0549259-0.0048103,0.1108112-0.0002441,0.1661777,0.0018539c1.4521255,0.054985,2.9030628,0.1128235,4.2773952-0.5061073
		c0.3989563-0.1796722,0.8005657-0.4009018,1.2229233-0.4712753c0.8766937-0.1460838,1.5071335-0.7236824,2.2268791-1.1448555
		c0.1494312-0.0874405,0.2116013-0.268177,0.0898819-0.4308548c-0.099472-0.1329384-0.2644501-0.1197891-0.3712082-0.0275269
		c-0.3037434,0.2624779-0.6631393,0.2421188-1.0223007,0.2445297c-1.5090179-0.1041222-2.9269009,0.496521-4.4062386,0.5752182
		c-0.8498516,0.0452118-1.6483021,0.7710533-2.5433769,0.189949c-0.5139008-0.3336411-1.1047707-0.4755287-1.6892529-0.6183014
		c-2.5102177-0.6131859-5.0226841-1.2171478-7.5343313-1.8243523c0.0562096-0.1066704,0.112422-0.213459,0.1686325-0.3202515
		c1.8447752,0.2262115,3.5768986,0.9307175,5.3970327,1.2680473c1.1154175,0.2067261,2.2175045,0.4853859,3.3255768,0.7317467
		c-0.292717-0.53685-0.7054596-0.8197193-1.1886444-1.0059528c-0.0734234-0.3698502-0.4111309-0.4898815-0.6617718-0.6855488
		c-1.0177479-0.7945538-2.2309303-1.2546215-3.3216276-1.9251842c0.1034918-0.0237846,0.2069836-0.0475655,0.3104763-0.0713463
		c0.1599798,0.0553284,0.3199587,0.1106567,0.4799395,0.1659851c0.1051779,0.0130157,0.2103567,0.0260296,0.3155346,0.0390434
		l-0.0065536-0.0042019c0.0340271,0.137188,0.1420307,0.1721001,0.262455,0.1898441
		c0.1926346,0.1030216,0.3852711,0.2060432,0.5779057,0.3090649c0.2107906,0.1247978,0.4215813,0.2495918,0.6323719,0.3743896
		c0.9380531,0.6655273,1.8761024,1.3310566,2.8141537,1.9965858c0.0739899,0.1710548,0.1946449,0.2765846,0.3897495,0.2775841
		l0.0016499,0.0013123c0.1250782,0.1916351,0.194706,0.4739418,0.5289841,0.3235054
		c0.1138744,0.0020256,0.2277508,0.0040512,0.3416252,0.006073c-0.0115566,0.4004478,0.250679,0.3435402,0.5063896,0.3064499
		c1.0839386-0.1572113,2.1761513-0.2722054,3.2488842-0.4854088c0.5169716-0.1027412,1.1198292,0.0135498,1.537962-0.4491158
		l0.0572433,0.0017128l0.0543537-0.0180397c0.1364536,0.1503906,0.267765,0.1711006,0.390852-0.0155029
		c0.1104889-0.0005493,0.2209759-0.0010986,0.3314648-0.0016441c0.4864826,0.0687828,0.9209766-0.0964432,1.3551521-0.286005
		c0.7025948-0.306757,1.4114227-0.5992451,2.1176186-0.8977604c0.3424549,0.5528221,0.0830612,1.3428955-0.5672798,1.6819572
		c-0.7316723,0.3814659-1.3525448,0.9010696-1.9208717,1.4906502c-0.1426792,0.0873795-0.1689587,0.2198753-0.1442242,0.372139
		l0.0059738-0.0121078c-0.450716,0.0514336-0.9013615,0.1028976-1.3520107,0.1543655
		c-0.4544525-0.0455246-0.8876724,0.0919342-1.2859993,0.2568207c-1.2154408,0.5031319-2.4349842,0.8738136-3.7831783,0.7580299
		c-0.6396675-0.0549355-1.3048058-0.134079-1.9324265,0.2592468c-0.2741241,0.1717873-0.750967,0.1691475-1.0447006-0.0195961
		c-0.4652157-0.2989349-0.9466496-0.2440796-1.4377193-0.260437c-0.2732506-0.0091057-0.5441418,0.0230103-0.8164234-0.0865746
		c-1.2970686-0.5220222-2.707036-0.627121-4.0258331-1.0729103c-0.1651287-0.000164-0.3302565-0.0003281-0.4953861-0.0004921
		c-0.177228-0.2425156-0.4560032-0.2848549-0.7154112-0.3751411c-1.0583992-0.3683701-2.1509781-0.656189-3.2310762-0.902523
		c-0.9443288-0.2153702-1.8132329-1.0066681-2.8867054-0.5449867C5.2597837,32.7340927,4.8915138,32.1846771,4.5710759,32.6680832z"
		/>
	<path style="fill:#B0341E;" d="M2.9433744,30.7650299c-0.0576172,0.0567093-0.1152351,0.1134167-0.172924,0.1700916
		c-0.5213118-0.5525646-0.5271959-1.1073189-0.0177939-1.6739979c0.1682465,0.5122833,0.5614367,0.5813904,1.0216091,0.5184689
		c0.4565556,0.0759525,0.8581555,0.308363,1.3442237,0.3447666c2.0724111,0.1552105,4.1044168,0.5957985,6.1447239,0.97225
		c2.5116472,0.6073246,5.0241137,1.2112865,7.5343313,1.8244724c0.5844822,0.1427727,1.1753521,0.2846603,1.6892529,0.6183014
		c0.8950748,0.5811043,1.6935253-0.1447372,2.5433769-0.189949c1.4793377-0.0786972,2.8972206-0.6793404,4.4059849-0.5752106
		c-0.4934559,0.3852806-0.9314747,0.948822-1.4903793,1.1218262c-1.5710583,0.4863091-3.1715202,0.9501381-4.8619461,0.7152061
		c-0.2157383-0.0299835-0.4417744,0.0239105-0.6626301,0.0193176c-1.0354156-0.0215454-2.068552,0.0292015-3.1011963-0.1824036
		c-1.0500469-0.215168-1.8416615-0.9335442-2.7916365-1.3014069c-1.643918-0.6365814-3.3057432-1.2738113-5.0856094-1.4481907
		c-1.6560111-0.1622429-3.1243653-1.2676754-4.8709412-0.9575253c0.104002-0.2336369,0.4084339-0.519125-0.2115288-0.476923
		c-0.5167646,0.0351734-1.0525634,0.1163731-1.5449395-0.1412563C2.7196448,30.3859921,2.8293381,30.5760078,2.9433744,30.7650299z"
		/>
	<path style="fill:#47110C;" d="M27.2522106,34.6091156c0.4506493-0.0514679,0.9012947-0.102932,1.3520107-0.1543655
		c-1.0073986,0.9109421-2.1084747,1.6612282-3.4449005,2.0076714c-0.4380398-0.0281601-0.8837795-0.0751495-1.0963707,0.448185
		l-0.067543-0.043972c0,0,0.0353107-0.0724449,0.0345612-0.0716705c-0.0499229-0.0038795-0.0990925-0.0085373-0.1482658-0.013195
		c0.0457001,0.0071335,0.0913963,0.0142708,0.1370964,0.0214119c-0.0304317,0.0967102-0.095602,0.1364555-0.1955509,0.1192017
		c-0.0480499-0.0265656-0.096674-0.0773506-0.1439915-0.0761566c-2.2126579,0.0557251-4.4305935,0.3592911-6.6242676-0.2365265
		c-1.1609402-0.3153191-2.3710546-0.3820267-3.522212-0.8064728c-1.1357174-0.4187508-2.1888275-1.0787163-3.4925976-1.092598
		c-0.5020685-0.0053482-1.1622648-0.1766052-1.6148777-0.5026932c-0.7304907-0.5262985-1.5830073-0.5168724-2.3811989-0.7423706
		c-0.5333595-0.1875916-1.0630097-0.3820381-1.4730234-0.7974777c0.3204346-0.4834099,0.6887045,0.0660057,1.0263195-0.0476685
		c0.5422044,0.4459267,1.2114983,0.6447945,1.862864,0.7742577c1.326571,0.263649,2.6662278,0.453392,3.8970103,1.0563011
		c0.3664408,0.1795044,0.7173004,0.2752304,1.0732708-0.0077744c0.1651297,0.000164,0.3302574,0.0003281,0.495429,0.0004425
		c0.6580973,1.0131149,1.7776308,0.9331207,2.7650795,1.1575661c0.2377748,0.0540428,0.5770674-0.0567398,0.7231398,0.0731125
		c0.9354,0.8315544,2.1183109,0.6974106,3.1563301,0.640377c2.2187958-0.1219063,4.4713421-0.0985489,6.6297436-0.8458939
		C26.714922,35.2906075,27.1173668,35.166008,27.2522106,34.6091156z"/>
	<path style="fill:#321413;" d="M6.0441027,33.4655647c0.7981915,0.2254982,1.6507082,0.2160721,2.3811989,0.7423706
		c0.4526129,0.326088,1.1128092,0.497345,1.6148777,0.5026932c1.3037701,0.0138817,2.3568802,0.6738472,3.4925976,1.092598
		c1.1511574,0.4244461,2.3612719,0.4911537,3.522212,0.8064728c2.1936741,0.5958176,4.4116096,0.2922516,6.6242676,0.2365265
		c0.0473175-0.001194,0.0959415,0.0495911,0.1439915,0.0761566c-0.9097233,0.4651184-1.9239731,0.3718719-2.8891697,0.5407104
		c-1.1146755-0.0517998-2.2293549-0.1035919-3.3440361-0.1553802c-0.1007137-0.1874847-0.2442188-0.1907883-0.4106522-0.0954132
		c-0.1955967-0.0180473-0.3911934-0.0360947-0.5867882-0.0541458c-0.8416414-0.4926682-1.8298426-0.4220161-2.7290077-0.7078438
		c-0.8576784-0.2726402-1.7485237-0.4398003-2.6217031-0.665287c-0.4529715-0.1169701-0.719348-0.7225723-1.3044643-0.5044022
		c-0.3787298-0.1278534-0.7574587-0.255703-1.1361876-0.3835526c-0.206296-0.1160316-0.4035473-0.2579689-0.6599789-0.2303925
		C7.4339013,34.2808075,6.5922823,34.1293602,6.0441027,33.4655647z"/>
	<path style="fill:#D66043;" d="M33.7486534,16.4722214c-0.2781029,0.6266785-0.9475822,0.5829124-1.4450455,0.8114491
		c-1.1140175,0.5117912-2.2240906,1.1092739-3.4028492,1.3829479c-1.3833237,0.3211689-2.612833,0.9775696-3.9327583,1.4207344
		c-0.2600651,0.0873165-0.5375805,0.1311493-0.7224579,0.3639412c-0.58605,0.0426445-1.1018772,0.3161755-1.6471748,0.4953365
		c-1.6876945,0.5545063-3.2576046,1.4233074-4.9876995,1.8631382l-0.0269127-0.0344734
		c0.0094261-0.0520821,0.0172882-0.1043987,0.0235901-0.1569538c1.1129131-0.4539108,2.2194576-0.9242535,3.3400154-1.3584385
		c2.6258411-1.0174389,5.2556839-2.0247116,7.8895359-3.0212288c1.0770741-0.4075089,2.1715679-0.7687588,3.2523746-1.1667042
		c0.4768486-0.1755733,1.0736465-0.2288113,1.1205482-1.0690174C33.0287781,16.8403797,33.5586624,16.380188,33.7486534,16.4722214z
		"/>
	<path style="fill:#683A35;" d="M40.3565178,13.9717636c0.1767426-0.3695545,0.6247215-0.2868137,0.8789711-0.5271158
		c0.721405-0.0499411,1.4338112-0.227643,2.164032-0.1523457c0.0150528,0.1408691,0.0415649,0.2823515,0.2066689,0.3165607
		c1.9230118,0.3984489,3.8538704,0.7458334,5.8174057,0.8753424c-0.179718,0.5604248-0.5706329,0.8339958-1.1525116,0.8482952
		c-0.1549225-0.2695045-0.413559-0.3374586-0.6961098-0.3590202c-1.116478-0.1720743-2.2329559-0.3441496-3.3494301-0.5162239
		c-0.0538521-0.0140734-0.1085663-0.0227146-0.164135-0.0259247c-0.4228287-0.1820068-0.8539276-0.3269463-1.3243675-0.2956762
		c-0.77705,0.0484085-1.5263863-0.3339052-2.3122292-0.1487722L40.3565178,13.9717636z"/>
	<path style="fill:#683A35;" d="M7.4314532,26.2496567c0.7573161-0.1838398,1.5146327-0.3676796,2.2717891-0.5513783
		c0.0770321,0.043541,0.1542234,0.0869389,0.2315006,0.1301765c-0.0056581,0.0303001-0.0067272,0.0609207-0.0031195,0.0917072
		c-0.0562057,0.0603352-0.1124105,0.1206684-0.1686153,0.1810036c-0.2691383,0.0097351-0.5382757,0.0194721-0.8075333,0.0290909
		c-0.4750147,0.0016994-0.3297243,0.3741016-0.3773642,0.6312199c-0.2399616,0.0134144-0.4897614,0.0141468-0.4690037,0.3637352
		c-0.0428152,0.0236187-0.0886555,0.0345669-0.1375241,0.0328465c-0.2474613-0.2823257-0.5125146,0.0360012-0.7665319-0.0224495
		c-0.9142742-0.0979614-1.7531466,0.1837616-2.5453253,0.5794907c-0.4238148,0.2117119-0.9348741,0.4284191-0.9016356,1.0629768
		c-0.3107557,0.0190678-0.3854313-0.4135456-0.7087495-0.3704433c0.1744058-0.4755497,0.4246492-0.8935604,0.8782723-1.1574917
		c0.0354362,0.1185246,0.0286376,0.3202686,0.2306614,0.2198792c0.9903169-0.4921017,2.0224967-0.8203678,3.1353869-0.8618584
		C7.6152048,26.5961781,7.3742275,26.3649101,7.4314532,26.2496567z"/>
	<path style="fill:#D66043;" d="M9.9346581,25.8286152c-0.0771923-0.0433979-0.1543837-0.0867958-0.2314157-0.1303368
		c1.9110031-0.6499634,3.767457-1.4367485,5.6273775-2.2162228c0.2172909-0.0910625,0.4916153-0.0460339,0.7392807-0.0638065
		c0.0717545,0.0590096,0.1437244,0.1177273,0.2154999,0.1766033c-0.0127239,0.0612621-0.0252457,0.122366-0.0377674,0.1834717
		c-0.3118658-0.0283661-0.6083183,0.0432777-0.8878145,0.1680546c-0.4163265,0.1858616-0.8167772,0.4084148-1.2370939,0.5839634
		c-0.7511806,0.3137321-1.5695524,0.4630356-2.5008173,1.0001526c0.72789,0.1081905,1.23211,0.1407089,1.732954,0.0230675
		c0.2401924-0.0564175,0.3760748-0.0462589,0.3998852,0.2255039c-0.2807426,0.0082893-0.5614882,0.0165806-0.8422308,0.0248737
		C11.9198961,25.8121643,10.9272776,25.8203888,9.9346581,25.8286152z"/>
	<path style="fill:#321413;" d="M49.4235954,14.4842052c-1.9635353-0.129509-3.8943939-0.4768934-5.8174057-0.8753424
		c-0.1651039-0.0342093-0.1916161-0.1756916-0.2066536-0.3165665c0.2243042-0.0108976,0.4485931-0.0217905,0.6728897-0.0326834
		c1.717762,0.236413,3.4355278,0.4728241,5.1532898,0.7092333c0.1283226,0.3493919,0.5965805-0.0586653,0.7119217,0.3193865
		C49.8421097,14.5522804,49.6017532,14.4367332,49.4235954,14.4842052z"/>
	<path style="fill:#A19F9F;" d="M7.4314532,26.2496567c-0.0572257,0.1152534,0.1837516,0.3465214-0.1377921,0.3585052
		c-1.1128902,0.0414906-2.1450701,0.3697567-3.1353869,0.8618584c-0.2020237,0.1003895-0.1952252-0.1013546-0.2306614-0.2198792
		C4.9649072,26.4595375,6.1730618,26.2666321,7.4314532,26.2496567z"/>
	<path style="fill:#47110C;" d="M3.0493405,28.4076328c0.3233182-0.0431023,0.3979938,0.3895111,0.7088437,0.3704891
		c0.0055032,0.232748,0.0109136,0.4654465,0.0163233,0.6981468c-0.0000722,0.1011124-0.0001447,0.2022285-0.0002165,0.3033409
		c-0.4601979,0.0629044-0.8533881-0.0062027-1.0216346-0.518486C2.8515294,28.9766636,2.9504344,28.6921482,3.0493405,28.4076328z"
		/>
	<path style="fill:#E4DEDD;" d="M44.0724258,13.259613c-0.2242966,0.0108929-0.4485855,0.0217857-0.6728897,0.0326834
		c-0.7302361-0.0752916-1.4426422,0.1024103-2.1640472,0.1523514c0.7443237-0.5810919,1.6648636-0.4258137,2.5083237-0.5840721
		C43.9530258,12.8213224,44.0516472,13.0504074,44.0724258,13.259613z"/>
	<path style="fill:#741E17;" d="M16.2855988,23.594696c-0.0719738-0.0587196-0.1439438-0.1174374-0.2156982-0.1764469
		c0.2702847-0.1289692,0.2043133-0.7404461,0.726469-0.5063725c0.2041702,0.0535545,0.3892612,0.1357803,0.4908676,0.3389435
		c-0.0109081,0.176178-0.0216618,0.3522415-0.0323792,0.5283356c-0.0531883,0.0062847-0.1065922,0.009943-0.1601734,0.0110092
		C16.8542633,23.6038361,16.5648861,23.6201477,16.2855988,23.594696z"/>
	<path style="fill:#F3F3F4;" d="M19.2588634,38.6114845c0.8312702-0.1163254,1.6266079-0.4985504,2.4953899-0.3371696
		C20.9668255,38.7152023,20.1511593,38.9469643,19.2588634,38.6114845z"/>
	<path style="fill:#F3F3F4;" d="M23.0817375,38.0898476c0.4181023-0.5752411,1.0489273-0.6021919,1.672163-0.648716
		C24.3628273,38.0861168,23.7263699,38.0985184,23.0817375,38.0898476z"/>
	<path style="fill:#D66043;" d="M17.2873898,23.2507038c-0.101759-0.2030468-0.28685-0.2852726-0.4910202-0.3388271
		c0.1250553-0.0438576,0.2495651-0.0879345,0.3741817-0.1320496c0.1378059-0.0015354,0.2755051-0.0030327,0.4132042-0.0045319
		l0.0267658,0.0342407c-0.058567,0.1518555-0.1169891,0.3039436-0.1754112,0.4560318
		C17.3852577,23.2666988,17.3360157,23.2617455,17.2873898,23.2507038z"/>
	<path style="fill:#F3F3F4;" d="M22.0869427,38.2663307c0.1202564-0.1949348,0.3160496-0.1613884,0.4995041-0.1651611
		C22.5198078,38.4582062,22.3633099,38.5435028,22.0869427,38.2663307z"/>
	<path style="fill:#741E17;" d="M17.5837555,22.7752953c-0.1376991,0.0014992-0.2753983,0.0029964-0.4132042,0.0045319
		c0.1108246-0.1473656,0.2066441-0.3355789,0.4366779-0.1615715C17.6010437,22.6708965,17.5931816,22.7232132,17.5837555,22.7752953
		z"/>
	<path style="fill:#F57254;" d="M20.4219894,22.6170502c-0.0612335,0.4942303,0.1334343,0.6818867,0.651495,0.6777134
		c1.2317924-0.0099239,2.4016647-0.157053,3.3394642-1.0665188c0.0579319-0.0561829,0.151125-0.0758419,0.2095566-0.1316948
		c0.5598812-0.5351944,1.0545444-0.5872231,1.4472523,0.1835213c-0.0231628,0.0779305-0.0400944,0.2212372-0.0707855,0.224247
		c-1.2271671,0.1203461-2.1385593,1.0475941-3.3182888,1.2913761c-0.4402142,0.0909653-0.8384094,0.2834072-0.9419289,0.7972374
		c-0.4641171-0.1414471-0.9283657-0.2830734-1.3926144-0.4247017c0.3527126-0.4828472,0.1566887-0.7040138-0.3638115-0.6441765
		c-0.3538589,0.040678-0.6304722-0.0284061-0.8922882-0.2415543C19.454565,22.901638,19.9142723,22.7112961,20.4219894,22.6170502z"
		/>
	<path style="fill:#EA522F;" d="M21.7386284,24.5927544c0.1036453-0.5136528,0.5018406-0.7060947,0.9420547-0.79706
		c1.1797295-0.243782,2.0911217-1.17103,3.3182888-1.2913761c0.0306911-0.0030098,0.0476227-0.1463165,0.0707855-0.224247
		c0.0657825,0.0503445,0.1317539,0.1007462,0.1975708,0.1513882c0.1160374,0.3427353,0.227047,0.6853256,0.0183887,1.0336189
		c-0.9255104,0.7781162-2.0434494,1.1442928-3.1735039,1.4845657
		C22.6543522,24.8306828,22.1964893,24.7117176,21.7386284,24.5927544z"/>
	<path style="fill:#EA522F;" d="M28.7230778,21.559288c0.0678024-0.2708855,0.2334499-0.4288158,0.518446-0.4489498
		c0.6811142-0.4659767,1.7636185-0.1762009,2.1728954-1.1539631c0.1085377-0.0036736,0.2170753-0.0073471,0.3256645-0.0109291
		c0.6742496,0.0021648,1.3815861,0.1641712,1.8682079-0.5497112c0.0851974-0.1249847,0.411953-0.0853138,0.6271477-0.1216869
		c0.0616875,0.1169987,0.1233749,0.2339954,0.1849289,0.3509445c-0.1397209,0.0675354-0.1691132,0.1908894-0.1672287,0.3300781
		c-0.0588989,0.0549011-0.1178017,0.1098022-0.1767044,0.1647053c-0.284523-0.0186901-0.5332832,0.0369263-0.6711273,0.3230057
		c-0.3744774,0.0849628-0.7179909,0.2309475-0.9962234,0.5055695c-0.3958473,0.0151196-0.7341576,0.202652-1.096138,0.3349037
		c-0.796154,0.2908764-1.5112629,0.8201294-2.4008694,0.8426685C28.8490772,21.9370461,28.7860775,21.748167,28.7230778,21.559288z"
		/>
	<path style="fill:#F26546;" d="M20.4219894,22.6170502c-0.5077171,0.0942459-0.9674244,0.2845879-1.3319416,0.6654625
		c-0.316494-0.011076-0.597868,0.0717812-0.8221207,0.307415c-0.3026657-0.0437775-0.6063805-0.0848618-0.8328171-0.3243599
		c0.0584221-0.1520882,0.1168442-0.3041763,0.1754112-0.4560318c1.7302418-0.4395981,3.3001518-1.3083992,4.9878464-1.8629055
		c0.5452976-0.1791611,1.0611248-0.452692,1.6471748-0.4953346c0.1042614,0.0055885,0.2086067,0.011198,0.5823898,0.031292
		c-0.5918579,0.2154846-0.9617424,0.3585072-1.240675,0.6394062c-0.3227901-0.0019436-0.6666565-0.0565987-0.832983,0.3329182
		c-0.1106529,0.000761-0.2213078,0.001524-0.331974,0.0022259c-0.6063499,0.1706257-1.3766651,0.0931377-1.5017586,0.992178
		C20.7378197,22.4560757,20.5416527,22.4228687,20.4219894,22.6170502z"/>
	<path style="fill:#EA522F;" d="M35.6802063,18.3515301c0.0783081-0.0748482,0.1566162-0.1496964,0.2348442-0.2245903
		c0.6969261-0.3739777,1.4578934-0.6146717,2.1209412-1.0652046c0.4230766-0.2874718,0.8566589-0.5933075,1.405632-0.6094551
		c0.2950821,0.2477531,0.4431686,0.5188789,0.1370049,0.86203c-0.058918,0.1006947-0.1177521,0.2015743-0.1765862,0.302454
		c-0.2379494,0.0052032-0.4748459,0.0120239-0.5101128,0.3302727c-0.4520721-0.1014881-0.758667,0.2653313-1.1506004,0.3574276
		c-0.2421455-0.014101-0.4034882,0.1020718-0.5056725,0.313633c-0.3956985,0.1109276-0.7914009,0.2218533-1.1871033,0.332777
		C35.8590889,18.7920723,35.6907692,18.6202774,35.6802063,18.3515301z"/>
	<path style="fill:#A12010;" d="M40.3996468,16.1184254c0.0242958-0.1033916,0.0590324-0.2984495,0.0713921-0.2970428
		c0.6601448,0.0752106,0.8095169-0.0935478,0.6699562-0.777564c-0.0270805-0.1326971-0.0597687-0.264246-0.089798-0.3963737
		c0.0620956-0.0059214,0.1241341-0.0117931,0.1861687-0.0176649c0.2546768,0.3603516,0.5111885,0.7149649,1.0070992,0.3228855
		c0.1527405,0.005558,0.305481,0.0111141,0.4582214,0.0166702c0.1212463,0.1204624,0.2424965,0.2409258,0.3637428,0.3613892
		c-0.0022049,0.033041-0.0007439,0.0659199,0.0043755,0.0986366c-0.0012169,0.0711088-0.0024338,0.1422186-0.0036469,0.2133274
		c0.0129967,0.2811079-0.2495079,0.4219036-0.3330078,0.6538677c-0.4228287-0.0201225-0.8138275,0.0933399-1.1867447,0.2827263
		c-0.2834549,0.0079498-0.5270576,0.0935345-0.6827545,0.3504124c-0.2070732-0.0045357-0.4141541-0.0090733-0.6212311-0.0136089
		C40.2954941,16.650198,40.3475685,16.3843098,40.3996468,16.1184254z"/>
	<path style="fill:#F26546;" d="M39.4416237,16.45228c-0.5489731,0.0161476-0.9825554,0.3219833-1.405632,0.6094551
		c-0.6630478,0.4505329-1.424015,0.691227-2.1209412,1.0652046c-0.1791153-0.4274635-0.0144768-0.7426243,0.404171-0.8119259
		c1.0336723-0.1711082,1.7881546-0.8467274,2.621479-1.375617c0.3605843-0.228857,0.4289742-0.0594206,0.4840164,0.2354803
		C39.430191,16.2669849,39.4359055,16.3596325,39.4416237,16.45228z"/>
	<path style="fill:#741E17;" d="M35.6802063,18.3515301c0.0105629,0.2687473,0.1788826,0.4405422,0.3685837,0.5993195
		c-0.435833,0.1536064-0.7934036,0.5142326-1.2962952,0.4916553c0.1954498-0.5452576,0.159874-0.928091-0.5756683-0.8188095
		c-0.0143738-0.105629-0.0091286-0.2190266-0.0472336-0.315258c-0.0775871-0.1959362-0.2768593-0.4104309-0.0913734-0.5926628
		c0.2179031-0.2140732,0.3779755,0.0816174,0.5492706,0.1720009C34.939724,18.073637,35.5000534,17.7691402,35.6802063,18.3515301z"
		/>
	<path style="fill:#47110C;" d="M26.4209328,22.1129608c-0.0260773-0.2118492-0.0746593-0.4094906-0.3093338-0.4897919
		c-0.0160942-0.056057-0.0320454-0.1120529-0.0479984-0.168047c0.728014-0.7260437,1.4547215-0.3022327,2.1815662,0.0024662
		c-0.1626606,0.3795776-0.4217224,0.6366425-0.8547859,0.6725578
		C27.0738468,21.7511883,26.7434139,22.1564445,26.4209328,22.1129608z"/>
	<path style="fill:#F26546;" d="M34.2354393,19.2740479c-0.2151947,0.0363731-0.5419502-0.0032978-0.6271477,0.1216869
		c-0.4866219,0.7138824-1.1939583,0.5518761-1.8682079,0.5497112c0.0538788-0.1231384,0.088644-0.3390732,0.1647282-0.3547745
		c0.7147522-0.1475067,1.1261024-0.8559723,1.8459053-0.9788094C33.7034073,18.98559,34.0660629,19.0590534,34.2354393,19.2740479z"
		/>
	<path style="fill:#47110C;" d="M41.2373657,14.6297798c-0.0620346,0.0058718-0.124073,0.0117435-0.1861687,0.0176649
		l0.0054207-0.0036173c-0.0331345-0.1037474-0.1029892-0.1478643-0.2109604-0.1301842
		c-0.0973167-0.2100391-0.5528908-0.1342182-0.4208069-0.5270472c0.7858047-0.1848459,1.535141,0.1974678,2.3121452,0.1489716
		c-0.0032845,0.158185-0.0065193,0.3164597-0.0097466,0.4747486l0.0149384,0.0276623
		c-0.1074677-0.0495663-0.2149239-0.0991135-0.3223877-0.1486588
		C42.0256538,14.5361404,41.6315117,14.5829592,41.2373657,14.6297798z"/>
	<path style="fill:#741E17;" d="M27.3903809,22.130146c0.4330635-0.0359154,0.6921253-0.2929802,0.8547859-0.6725578
		c0.1593781,0.0334435,0.3187561,0.0668812,0.4780235,0.1010094c0.0628872,0.1895695,0.1258869,0.3784485,0.1889477,0.5672455
		c-0.23703,0.3438702-0.5807476,0.491642-0.981945,0.533659c-0.0616741-0.1644058-0.1898632-0.215292-0.352869-0.2067623
		l0.0049782,0.0018539c-0.0598183-0.0576668-0.1196404-0.1153336-0.1794624-0.1730022
		C27.3862648,22.232132,27.3821106,22.1816502,27.3903809,22.130146z"/>
	<path style="fill:#D66043;" d="M27.3903809,22.130146c-0.0082703,0.0515041-0.0041161,0.1019859,0.0125542,0.1515236
		c0.0598545,0.0576935,0.1196117,0.1153088,0.1793671,0.172924l-0.004921-0.0018654
		c-0.2344341,0.3226795-0.8678856,0.2547932-0.8281364,0.8459625c-0.1113014,0.1753063-0.2944984,0.150671-0.463131,0.1665363
		c0.2082615-0.3484421,0.0972519-0.6910324-0.0187855-1.0337677c0.0513-0.106329,0.1024437-0.2124176,0.1535969-0.3185024
		C26.7434139,22.1564445,27.0738468,21.7511883,27.3903809,22.130146z"/>
	<path style="fill:#F57254;" d="M20.9205418,22.449316c0.1250935-0.8990402,0.8954086-0.8215523,1.5017586-0.992178
		C22.2879047,22.3421955,21.7048855,22.54813,20.9205418,22.449316z"/>
	<path style="fill:#F26546;" d="M31.4144192,19.9563751c-0.409277,0.9777622-1.4917812,0.6879864-2.1728954,1.1539631
		c0.192934-0.7072868,0.8865891-0.709795,1.3908215-0.9659672C30.8648586,20.0262432,31.1520309,20.0156994,31.4144192,19.9563751z"
		/>
	<path style="fill:#B0341E;" d="M39.4416237,16.45228c-0.0057182-0.0926476-0.0114326-0.1852951-0.0169067-0.2774029
		c0.3153992-0.1853933,0.6441498-0.1387634,0.9749565-0.0564365c-0.0521049,0.2658691-0.1041794,0.5317574-0.1562614,0.797802
		c-0.1849976,0.1939182-0.3486824,0.423254-0.6646957,0.3982544C39.8847923,16.971159,39.7367058,16.7000332,39.4416237,16.45228z"
		/>
	<path style="fill:#D66043;" d="M34.2354393,19.2740479c-0.1693764-0.2149944-0.532032-0.2884579-0.4847221-0.6621857
		c0.1422958,0.0038662,0.2845039,0.0078526,0.4264107,0.011837c0.7352409-0.1092854,0.7708168,0.2735481,0.5752754,0.8187962
		c-0.0048828,0.0561543-0.0096741,0.1123161-0.0144691,0.1684799c-0.1058083,0.0046902-0.2116203,0.0093765-0.3174324,0.0140667
		C34.3588142,19.5080433,34.2971268,19.3910465,34.2354393,19.2740479z"/>
	<path style="fill:#F57254;" d="M22.7542744,21.4549122c0.1663265-0.3895168,0.5101929-0.3348618,0.832983-0.3329182
		C23.4343185,21.5450802,23.1386242,21.610918,22.7542744,21.4549122z"/>
	<path style="fill:#A12010;" d="M40.8456573,14.5136433c0.1079712-0.0176802,0.1778259,0.0264368,0.2109604,0.1301842
		C40.9862938,14.6004896,40.9159775,14.5570669,40.8456573,14.5136433z"/>
	<path style="fill:#F57254;" d="M26.0636005,21.455122c0.0159531,0.055994,0.0319042,0.11199,0.0479984,0.168047
		C26.0126953,21.5909615,25.9445419,21.5498466,26.0636005,21.455122z"/>
	<path style="fill:#683A35;" d="M52.4069748,15.3051901c0.4853439,0.8087091,0.0899086,1.4396124-0.4960098,1.9276228
		c-0.9198799,0.7661686-1.9102058,1.4474545-2.8626175,2.1752663c-0.1211357,0.0925732-0.1937065,0.2487183-0.2887726,0.3754101
		c-2.6271935,1.7257004-4.9980011,3.7966976-7.5589981,5.6119728c-1.3323517,0.944397-2.6476746,1.9128246-3.9706459,2.8703575
		c-0.6061821-0.4490852,0.0816154-0.6665268,0.1772232-0.9899101c0.1265907-0.0457077,0.2772751-0.0616741,0.3761787-0.1416626
		c1.5880547-1.2843971,3.4414215-2.2136612,4.9292259-3.6228065c0.7114372-0.6738262,1.7382469-0.9111423,2.3292923-1.6665916
		c0.5620613-0.7184029,1.3249893-1.0823441,2.0166245-1.5904427c0.5501556-0.4041653,1.291172-0.6753864,1.5037766-1.4517612
		l0.0151939-0.0145988c0.2365799,0.0029964,0.4669571-0.0031834,0.4830856-0.3264332l0.008564-0.0077229
		c0.3584023,0.0164165,0.6403084-0.0676727,0.6570129-0.5001354c0.1362114-0.2510166,0.37323-0.3653526,0.6031609-0.5198326
		c0.7280579-0.4891491,1.5736618-0.8726387,1.9109268-1.7858372c0.020092-0.1083536,0.040184-0.2167082,0.0602722-0.3250637
		C52.3355827,15.3147526,52.3710823,15.3088083,52.4069748,15.3051901z"/>
	<path style="fill:#611810;" d="M37.4071579,27.2758617c-0.0956116,0.323431-0.7834091,0.5408726-0.1772232,0.9899578
		c-1.4427986,1.0540199-2.8800049,2.1157093-4.3299408,3.1597157c-1.3231869,0.9527416-2.660162,1.8863277-3.9910736,2.8283749
		c-0.0554924-0.0530586-0.1109715-0.1061249-0.1664486-0.1591911c0.568327-0.5895805,1.1891994-1.1091843,1.9208717-1.4906502
		c0.650341-0.3390617,0.9097347-1.1291351,0.5674229-1.6817684c0.1822815-0.339653,0.5088806-0.4965248,0.8325996-0.6570454
		c0.2611084,0.0216293,0.4254723-0.1044807,0.5184937-0.3395329c0.2492065,0.0220337,0.3136978-0.2243614,0.4765053-0.3278866
		c0.3347168,0.0091228,0.5024681-0.1569996,0.5126801-0.4884701l0.003788-0.0037594
		c0.3405914,0.0343513,0.6520805-0.0065632,0.8879776-0.2972431c0.6235352-0.768322,1.5602493-1.0677624,2.3643036-1.5654736
		C37.0191345,27.1240292,37.2269249,27.0395813,37.4071579,27.2758617z"/>
	<path style="fill:#A19F9F;" d="M16.5926018,37.1581535c0.1955948,0.0180511,0.3911915,0.0360985,0.5869865,0.0534592
		c0.1068077,0.1593513,0.2195702,0.2933006,0.4104538,0.0960999c1.1146812,0.0517883,2.2293606,0.1035805,3.3440361,0.1553802
		c-0.2665939,0.5833702-0.8698578,0.4590073-1.2809944,0.4594574c-2.2546349,0.0024643-4.5126638,0.1507835-6.7657595-0.214035
		c-0.593338-0.0960693-1.2035732-0.1321411-1.8015137-0.2736473c-1.0683355-0.2528229-2.2024031-1.4843483-2.2845879-2.5378075
		c0.3787451,0.1278572,0.7574739,0.2557068,1.1360941,0.3834915c0.1021624,0.6729126,0.6719971,0.8168983,1.1762142,1.0061722
		c1.2483482,0.4685974,2.5800695,0.5719337,3.8756285,0.8302956C15.5092068,37.2207298,16.0513477,37.4801941,16.5926018,37.1581535
		z"/>
	<path style="fill:#321413;" d="M24.0629501,36.9106064c0.2125912-0.5233345,0.6583309-0.4763451,1.0963707-0.448185
		C24.8265514,36.6917839,24.4742088,36.8732567,24.0629501,36.9106064z"/>
	<path style="fill:#47110C;" d="M28.7424717,34.0947189c0.0554771,0.0530663,0.1109562,0.1061325,0.1664486,0.1591911
		c-0.1035576,0.0709381-0.2071304,0.1418877-0.310688,0.2128944C28.573513,34.3145943,28.5997925,34.1820984,28.7424717,34.0947189z
		"/>
	<path style="fill:#F3F3F4;" d="M28.4159756,35.4381638c-0.0235538-0.0127106-0.0471096-0.0254173-0.0706654-0.0381279
		c0.023056,0.0132065,0.0461102,0.026413,0.0691566,0.0396309L28.4159756,35.4381638z"/>
	<path style="fill:#F3F3F4;" d="M26.4163857,36.6049004c-0.0237179-0.0131149-0.0474339-0.0262299-0.0711517-0.039341
		c0.024107,0.0127068,0.0482159,0.0254135,0.0723267,0.0381126L26.4163857,36.6049004z"/>
	<path style="fill:#321413;" d="M24.0187988,36.8031807c-0.0457001-0.0071411-0.0913963-0.0142784-0.1370964-0.0214119
		c0.0491734,0.0046577,0.0983429,0.0093155,0.1482658,0.013195C24.0307178,36.7941895,24.0187988,36.8031807,24.0187988,36.8031807z
		"/>
	<path style="fill:#F57254;" d="M49.4235954,14.4842052c0.1781578-0.047472,0.4185143,0.0680752,0.5140419-0.1959724
		c0.4553299,0.0744495,0.8716087-0.2564306,1.3294449-0.1323128c0.3499603,0.0948734,0.6777992,0.2289085,0.821949,0.6069469
		c-1.4822922,1.0111275-2.9357147,2.0689526-4.4603271,3.0116444c-0.6688347,0.4135494-1.2167931,1.0672264-2.0598755,1.1830349
		c-0.3205376,0.0090199-0.4853935,0.1767063-0.5034752,0.4939899l-0.0015945,0.0017223
		c-0.2407646-0.0017338-0.4807167-0.0022488-0.4978027,0.3317013l-0.0014763,0.0013504
		c-0.262188-0.0233746-0.456028,0.1186295-0.679821,0.2319279c-1.5086708,0.7637844-2.8228645,1.8336086-4.2717438,2.6910973
		c-0.3147812,0.1862946-0.640049,0.442997-0.7048073,0.8697186c-0.3386345-0.0518188-0.6635475-0.2102852-1.0190353-0.1310635
		c0.1050491-0.4204121,0.1050491-0.4204121,0.7804718-0.5116997c-0.3192368-0.0331593,0.2215385-1.1675911-0.7922516-0.4794636
		c-0.6593704,0.4475632-1.3915253,0.913763-2.2031479,1.1889515c-0.3937073,0.1334915-0.5473862,0.02071-0.7633057-0.1948318
		c0.1240883-0.21064,0.4319191-0.2395344,0.5000267-0.5055428c0.2174797-0.0011368,0.3236389-0.1155281,0.3335457-0.3278446
		l-0.0021667,0.0031567c0.6147118-0.0004272,1.0645714-0.2366199,1.5828133-0.6283798
		c0.4762421-0.3600025,0.9654465-0.9974346,1.7411461-0.8780346c0.2449265,0.0058804,0.413002-0.1043358,0.5027809-0.3328285
		c0.0035362-0.1357288,0.0312653-0.2590313,0.167675-0.3265247c0.1411476,0.4346886,0.2680473,0.4704533,0.3207016,0.2836227
		c0.1138229-0.403862,1.1606789-0.2106628,0.6113472-0.9809189c0.1241913-0.069685,0.2483788-0.1393681,0.3725662-0.2090511
		c0.5046196,0.3286076,0.9038086,0.0139351,1.2678185-0.2559013c0.635582-0.4711456,1.2071533-1.0434284,2.0029106-1.2441139
		c0.5702209-0.1438046,0.8160896-0.4847717,0.7554855-1.060957c0.1652107,0.0305004,0.3398285,0.0795994,0.3577919-0.1809921
		c0.5960655,0.003952,1.1384773-0.1098442,1.4762726-0.6726875c0.1034393-0.1600494,0.2731438-0.1814718,0.4394226-0.2100649
		c0.3394089,0.0230932,0.7449608,0.1615534,0.7364273-0.4222212c0.0646172-0.0563431,0.1292267-0.1126862,0.1938438-0.1690283
		C48.8529625,15.3182011,49.2438774,15.0446301,49.4235954,14.4842052z"/>
	<path style="fill:#D66043;" d="M45.5688286,18.9575462c0.8430824-0.1158085,1.3910408-0.7694855,2.0598755-1.1830349
		c1.5246124-0.9426918,2.978035-2.0005169,4.4603271-3.0116444c0.1298637,0.0955763,0.2994347,0.1600218,0.2885704,0.3665533
		c-0.0256996,0.0645552-0.0514183,0.1290779-0.0771332,0.1936007c-0.0200882,0.1083555-0.0401802,0.2167101-0.0604095,0.3248158
		c-0.4688416,0.0757713-0.8636055,0.2945757-1.2556496,0.562191c-1.8605728,1.2700481-3.6980972,2.5718613-5.6017952,3.7819786
		c-1.4808006,0.9412899-3.0641708,1.7294769-4.4265518,2.857563c-0.4089813,0.338644-0.7081528,0.8979454-1.3818703,0.7705517
		c0.0074005-0.1453342,0.06427-0.2528458,0.1867294-0.3473568c1.261116-0.9733086,2.5467415-1.9056511,3.9543381-2.6658974
		c0.3365173-0.1817551,0.8080215-0.3006783,0.8491974-0.8205643l0.001503-0.001318
		c0.2406425,0.0015373,0.4066811-0.1088829,0.4977989-0.3317261l0.0015984-0.0016918
		C45.3842201,19.4408226,45.5480804,19.2721081,45.5688286,18.9575462z"/>
	<path style="fill:#B0341E;" d="M52.3004684,15.3230209c0.0257149-0.0645227,0.0514336-0.1290455,0.0771332-0.1936007
		c0.009697,0.0584612,0.0193977,0.1169538,0.0292358,0.1756077C52.3710823,15.3088083,52.3355827,15.3147526,52.3004684,15.3230209z
		"/>
	<path style="fill:#EA522F;" d="M8.9555941,26.130373c0.2691383-0.0097351,0.5382757-0.0194721,0.8074417-0.0291309
		c0.0569239-0.002388,0.1138172-0.0048561,0.1707115-0.0073223c0.9927959-0.0071125,1.9855928-0.014225,2.9783897-0.0213375
		c1.6168261,0.0007477,3.2219458,0.1475277,4.82232,0.3690243c0.2765331,0.0382748,0.5864811,0.025507,0.7645397,0.2475967
		c0.7128372,0.8891125,1.5656128,1.6694393,2.1122112,2.6891899c-0.1716537,0.3131351-0.4787655,0.1829052-0.7350159,0.2341137
		c-0.9998474,0.1998081-1.9748898,0.0253372-2.9504738-0.1671257c-0.1086903-0.0041103-0.2173805-0.0082188-0.3260708-0.0123272
		c-0.1330929-0.1901474-0.3283005-0.1568871-0.517849-0.14398l0.0065117,0.0041885
		c-0.0851269-0.1752033-0.1879215-0.2072048-0.3154831-0.0390377c-0.1599808-0.0553284-0.3199596-0.1106567-0.4801531-0.1658707
		C13.5746222,28.1914272,11.77246,27.5084,9.9137173,26.9691429c-0.222518-0.0563202-0.484767,0.041893-0.6671076-0.1712875
		C9.316927,26.502409,9.0336275,26.3611393,8.9555941,26.130373z"/>
	<path style="fill:#A12010;" d="M4.5715179,30.7406216c1.7468781-0.3097248,3.2152324,0.7957077,4.8712435,0.9579506
		c1.7798662,0.1743793,3.4416914,0.8116093,5.0856094,1.4481907c0.949975,0.3678627,1.7415895,1.0862389,2.7916365,1.3014069
		c1.0326443,0.2116051,2.0657806,0.1608582,3.1011963,0.1824036c0.2208557,0.0045929,0.4468918-0.0493011,0.6626301-0.0193176
		c1.6904259,0.2349319,3.2908878-0.2288971,4.8619461-0.7152061c0.5589046-0.1730042,0.9969234-0.7365456,1.4903793-1.1218262
		c0.3594151-0.0024185,0.718811,0.0179405,1.0225544-0.2445374c0.1067581-0.0922623,0.2717361-0.1054115,0.3712082,0.0275269
		c0.1217194,0.1626778,0.0595493,0.3434143-0.0898819,0.4308548c-0.7197456,0.4211731-1.3501854,0.9987717-2.2268791,1.1448555
		c-0.4223576,0.0703735-0.823967,0.2916031-1.2229233,0.4712753c-1.3743324,0.6189308-2.8252697,0.5610924-4.2773952,0.5061073
		c-0.0553665-0.0020981-0.1112518-0.0066643-0.1661777-0.0018539c-2.8857327,0.2526131-5.6474094-0.3310432-8.3627052-1.234787
		c-2.0464363-0.6811295-4.1369047-1.231411-6.1351337-2.0554218c-0.7584062-0.3127403-1.602211-0.3401642-2.3414416-0.719223
		c-0.1400928-0.0718327-0.2167146-0.1555004-0.247051-0.2984829c0.0556476-0.0119457,0.1112063-0.0236778,0.1667643-0.035408
		c0.0667491-0.0054073,0.133498-0.0108128,0.200247-0.0162201C4.2754021,30.7461472,4.42346,30.7433853,4.5715179,30.7406216z"/>
	<path style="fill:#B0341E;" d="M32.0633659,30.265255c-0.323719,0.1605206-0.6503181,0.3173923-0.8325996,0.6570454
		c-0.7063389,0.2983265-1.4151669,0.5908146-2.1177616,0.8975716c-0.4341755,0.1895618-0.8686695,0.3547878-1.3552704,0.2860279
		c0.271656-0.2805386,0.6411705-0.4232559,0.9417019-0.6532745c0.6037178-0.4620628,1.4174309-0.6929131,1.7244835-1.4973011
		c0.2282352-0.0277271,0.4894848,0.0625458,0.656908-0.1834698c0.4580879-0.1944065,0.7508011-0.5600605,1.0025387-0.9681454
		c0.3947639,0.0098705,0.3935394-0.514082,0.7497597-0.5561733c0.412632,0.0614109,0.6821556-0.1985226,0.960556-0.4324341
		c1.3829193-1.1619225,3.0520592-1.9027195,4.4571991-3.0316906c0.1602135,0.0568275,0.3204231,0.1136551,0.4806328,0.1704845
		c0.0712395,0.3851242-0.1409798,0.6867676-0.4260902,0.8250122c-0.9120483,0.4422379-1.6151581,1.1857147-2.5179291,1.6477814
		c-0.8246269,0.4220734-1.7308578,0.7849064-2.212677,1.6788521l-0.0037117,0.0038395
		c-0.3182945,0.0080566-0.4761848,0.1845627-0.5127411,0.4884548c-0.1628075,0.1035252-0.2272987,0.3499203-0.4765358,0.3280563
		C32.1722336,29.6772556,32.1310272,29.9914742,32.0633659,30.265255z"/>
	<path style="fill:#D66043;" d="M18.9658108,31.770319c0.4831848,0.1862335,0.8959274,0.4691029,1.1886444,1.0059528
		c-1.1080723-0.2463608-2.2101593-0.5250206-3.3255768-0.7317467c-1.8201342-0.3373299-3.5522575-1.0418358-5.3970404-1.2680473
		c-1.548727-0.3040962-3.1015444-0.5893936-4.6432991-0.9254417c-0.3879046-0.0845528-0.8370733,0.1030045-1.1666908-0.2457275
		c0.4691234-0.2756367,0.9856-0.1195965,1.4803405-0.1620846c2.1876912,0.6022587,4.494247,0.6094913,6.658298,1.3300915
		C15.4761848,31.2069874,17.1848621,31.6773243,18.9658108,31.770319z"/>
	<path style="fill:#611810;" d="M27.2522106,34.6091156c-0.1348438,0.5568924-0.5372887,0.6814919-1.0519447,0.8596916
		c-2.1584015,0.747345-4.4109478,0.7239876-6.6297436,0.8458939c-1.0380192,0.0570335-2.2209301,0.1911774-3.1563301-0.640377
		c-0.1460724-0.1298523-0.4853649-0.0190697-0.7231398-0.0731125c-0.9874487-0.2244453-2.1069822-0.1444511-2.7650795-1.1575661
		c1.3187542,0.4458389,2.7287216,0.5509377,4.0257902,1.0729599c0.2722816,0.1095848,0.5431728,0.0774689,0.8164234,0.0865746
		c0.4910698,0.0163574,0.9725037-0.0384979,1.4377193,0.260437c0.2937336,0.1887436,0.7705765,0.1913834,1.0447006,0.0195961
		c0.6276207-0.3933258,1.2927589-0.3141823,1.9324265-0.2592468c1.3481941,0.1157837,2.5677376-0.2548981,3.7831783-0.7580299
		C26.3645382,34.7010498,26.7977581,34.563591,27.2522106,34.6091156z"/>
	<path style="fill:#F57254;" d="M18.9658108,31.770319c-1.7809486-0.0929947-3.4896259-0.5633316-5.2053013-0.9969635
		c0.0279036-0.7710152,0.6176844-0.9271202,1.2487841-1.079319c-0.1443453-0.2804203-0.5287695-0.2943859-0.5647259-0.6093082
		c0.1792812,0.0249519,0.3585625,0.0499039,0.5378437,0.0748577c1.0906973,0.6705627,2.3038797,1.1306305,3.3216276,1.9251842
		C18.5546799,31.2804375,18.8923874,31.4004688,18.9658108,31.770319z"/>
	<path style="fill:#A12010;" d="M20.6112747,29.377943c-0.5466652-1.0193005-1.3994408-1.7996273-2.112278-2.6887398
		c-0.1780586-0.2220898-0.4880066-0.209322-0.7645397-0.2475967c-1.6003742-0.2214966-3.2054939-0.3682766-4.8221931-0.3687592
		c0.0001688-0.0894585,0.0002108-0.1791821,0.0002518-0.2689075c0.2807426-0.0082932,0.5614882-0.0165844,0.8423281-0.0248489
		c0.1147099,0.0044041,0.2293215,0.0087814,0.3438969,0.0130596c1.2101116,0.2793293,2.4392118,0.1013947,3.6589899,0.1473827
		c0.2796822,0.0105457,0.2120438-0.1629372,0.1247215-0.3207645c0.0749893-0.0065346,0.1499767-0.0130692,0.2248459-0.0194664
		c0.1657276,0.232214,0.367054,0.3418369,0.6735477,0.3887768c1.321312,0.2023602,2.6488152,0.0672398,3.9713631,0.1296692
		c0.0006714,0.0629597,0.0013409,0.1259193,0.0020123,0.188879c-1.2860985,0-2.5721951,0-4.0080509,0
		c0.8005066,1.0390224,1.4406528,2.0252056,2.3414307,2.8032131c0.2726498,0.2798023,0.1539497,0.7423439,0.4682102,1.0027161
		c0.1592751,0.5990086,0.1974106,1.2120323,0.2114735,1.8278408c-0.006773,0.0584812-0.013546,0.1169605-0.0203209,0.1754398
		c-0.039381,0.2170868,0.059185,0.4587822-0.1162605,0.6515884c-0.1138744-0.0020218-0.2277508-0.0040474-0.3418636-0.005909
		c-0.0030155-0.21315-0.0057926-0.4264641-0.0085697-0.6397781c0.2582588-0.8826485,0.1847591-1.7168617-0.36236-2.4819241
		C20.880867,29.4762154,20.751749,29.4204311,20.6112747,29.377943z"/>
	<path style="fill:#F57254;" d="M20.9179096,29.6398144c0.5471191,0.7650623,0.6206188,1.5992756,0.362154,2.4818325
		c-0.17346,0.1053391-0.346714,0.2107697-0.5199699,0.3162003l-0.0016632-0.0012856
		c-0.0363598-0.1477776,0.1704407-0.3367424-0.0272808-0.4319153c-0.0779858-0.0375443-0.2391605,0.0977249-0.3624554,0.1543045
		c-0.9380512-0.6655293-1.8761005-1.3310585-2.8139858-1.9967346c0.5457153-0.3725376,0.951582,0.1693134,1.4277248,0.2447491
		C19.8213196,30.5398731,20.4008522,30.2171459,20.9179096,29.6398144z"/>
	<path style="fill:#D66043;" d="M21.630703,32.7674255c0.1754456-0.1928062,0.0768795-0.4345016,0.1163197-0.6516724
		c0.0589237-0.0554962,0.1177902-0.1109123,0.1766567-0.1663284l0.0048962-0.0027237
		c0.5365486,0.0977745,1.0701332,0.2224388,1.6109009,0.2838135c0.3495216,0.0396652,0.7012062,0.1584091,1.0655937-0.072834
		c0.7498341-0.4758587,1.596859-0.602108,2.4740982-0.5513439c-0.0517426,0.1776733-0.103487,0.3553429-0.1552296,0.5330143
		c-0.4181328,0.4626656-1.0209904,0.3463745-1.537962,0.4491158c-1.0727329,0.2132034-2.1649456,0.3281975-3.2488842,0.4854088
		C21.881382,33.1109657,21.6191463,33.1678734,21.630703,32.7674255z M26.4650097,32.029808
		c-0.0451908-0.0274963-0.0848045-0.0700741-0.1257744-0.0714207c-0.0423584-0.0013905-0.0860329,0.0372562-0.1291351,0.0583897
		c0.0397587,0.025486,0.078476,0.0690689,0.1195621,0.0714264C26.3717365,32.0906219,26.4161301,32.0526657,26.4650097,32.029808z"
		/>
	<path style="fill:#611810;" d="M5.6219363,29.6053047c0.3295293,0.3487358,0.778698,0.1611786,1.1666026,0.2457314
		c1.5417547,0.3360481,3.0945721,0.6213455,4.6432991,0.9254417c-0.0562029,0.1067924-0.1124153,0.2135811-0.1686249,0.3202515
		c-2.040307-0.3765717-4.0723128-0.8171597-6.1447239-0.9723701c-0.4860682-0.0364037-0.8876681-0.2688141-1.3442237-0.3447666
		c0.0000973-0.1010952,0.0001698-0.2022114,0.0001698-0.3035049C4.3874998,29.5578823,4.9981704,29.6750908,5.6219363,29.6053047z"
		/>
	<path style="fill:#611810;" d="M12.4305439,34.443203c-0.3559704,0.2830048-0.70683,0.1872787-1.0732708,0.0077744
		c-1.2307825-0.6029091-2.5704393-0.7926521-3.8970103-1.0563011c-0.6513658-0.1294632-1.3206596-0.328331-1.862864-0.7742577
		c1.0734248-0.4615479,1.9423289,0.3297501,2.8866577,0.5451202c1.0800982,0.2463341,2.172677,0.534153,3.2310762,0.902523
		C11.9745407,34.1583481,12.2533159,34.2006874,12.4305439,34.443203z"/>
	<path style="fill:#EA522F;" d="M26.9239388,32.1393509c0.0517426-0.1776714,0.103487-0.355341,0.1552868-0.5329895
		c0.3148441,0.0079803,0.4508667-0.2758579,0.6774101-0.4080467c0.8466625-0.4940472,1.5729332-1.2498798,2.6495285-1.2618427
		l0.017889,0.0189991c-0.3071861,0.8042412-1.1208992,1.0350914-1.724617,1.4971542
		c-0.3005314,0.2300186-0.6700459,0.372736-0.9417019,0.6532745c-0.1103706,0.0005226-0.2208576,0.0010719-0.3314705,0.0016327
		c-0.1303272,0.0051689-0.2605286,0.0103302-0.390728,0.0154915l-0.0543537,0.0180397L26.9239388,32.1393509z"/>
	<path style="fill:#F26546;" d="M20.9179096,29.6398144c-0.5170574,0.5773315-1.09659,0.9000587-1.9354763,0.7671509
		c-0.4761429-0.0754356-0.8820095-0.6172867-1.4277248-0.2447491c-0.2109585-0.124649-0.4217491-0.2494431-0.6325245-0.3742561
		c0.0011883-0.1142044,0.0023613-0.2283916,0.0035343-0.3425789c0.975584,0.1924629,1.9506264,0.3669338,2.9504738,0.1671257
		c0.2562504-0.0512085,0.5633621,0.0790215,0.7350159-0.2341137C20.751749,29.4204311,20.880867,29.4762154,20.9179096,29.6398144z"
		/>
	<path style="fill:#A12010;" d="M14.9824114,29.159586c-0.1792812-0.0249538-0.3585625-0.0499058-0.5378304-0.074688
		l-0.0054903,0.01614c-0.1121912-0.0673656-0.2243814-0.1347275-0.3365726-0.2020931
		c-0.1101274-0.0452499-0.2202549-0.0904999-0.3303823-0.1357498c-0.0566521-0.0327015-0.1133041-0.0654068-0.1699553-0.0981102
		c-1.3744125-0.497366-2.6505251-1.2957001-4.1661482-1.3607178c-0.0153093-0.048317-0.0290136-0.097086-0.041111-0.1463032
		c0.1680202-0.076355,0.3915377-0.0002708,0.5187025-0.1888428c1.8588362,0.5391788,3.6609983,1.2222061,5.3790503,2.119133
		C15.189395,29.1120205,15.0859032,29.1358013,14.9824114,29.159586z"/>
	<path style="fill:#EA522F;" d="M3.9270971,30.7651291c-0.055558,0.0117302-0.1111166,0.0234623-0.1667643,0.035408
		C3.486306,30.826828,3.2111475,30.8809357,2.9433782,30.76511c-0.1140401-0.1891022-0.2237334-0.379118-0.1280262-0.6422424
		c0.4923761,0.2576294,1.0281749,0.1764297,1.5449395,0.1412563c0.6199627-0.042202,0.3155308,0.2432861,0.2115288,0.476923
		c-0.1483603,0.0023384-0.2964182,0.0051003-0.4446177,0.0080929C4.0527329,30.6572571,3.985738,30.6581898,3.9270971,30.7651291z"
		/>
	<path style="fill:#D66043;" d="M20.7600937,32.4378471c0.1732559-0.1054306,0.3465099-0.2108612,0.5199699-0.3162003
		c0.0029831,0.2134056,0.0057602,0.4267197,0.0087757,0.6398697C20.9547997,32.9117889,20.8851719,32.6294823,20.7600937,32.4378471
		z"/>
	<path style="fill:#D66043;" d="M20.3686943,32.1589508c0.1232948-0.0565796,0.2844696-0.1918488,0.3624554-0.1543045
		c0.1977215,0.0951729-0.009079,0.2841377,0.0272808,0.4319153C20.5633392,32.4355354,20.4426842,32.3300056,20.3686943,32.1589508z
		"/>
	<path style="fill:#F57254;" d="M16.9257183,29.4453812c-0.001173,0.1141872-0.002346,0.2283745-0.0035343,0.3425789
		c-0.1926498-0.1030064-0.3852863-0.206028-0.5774651-0.3091908c0.0852795-0.0153332,0.1701031-0.0305252,0.2549286-0.0457153
		C16.7083378,29.4371624,16.817028,29.4412708,16.9257183,29.4453812z"/>
	<path style="fill:#F26546;" d="M16.5996475,29.433054c-0.0848255,0.0151901-0.1696491,0.0303822-0.2549286,0.0457153
		c-0.1208801-0.0176029-0.2288837-0.052515-0.2629108-0.189703C16.271347,29.2761669,16.4665546,29.2429066,16.5996475,29.433054z"
		/>
	<path style="fill:#F26546;" d="M15.7728271,29.2542248c0.1275616-0.1681671,0.2303562-0.1361656,0.3154831,0.0390377
		C15.9831839,29.2802544,15.878005,29.2672405,15.7728271,29.2542248z"/>
	<path style="fill:#D66043;" d="M27.0355358,32.123024c0.1301994-0.0051613,0.2604008-0.0103226,0.390728-0.0154915
		C27.3033009,32.2941246,27.1719894,32.2734146,27.0355358,32.123024z"/>
	<path style="fill:#683A35;" d="M16.5926018,37.1581573c-0.541254,0.3220367-1.083395,0.0625725-1.6034422-0.0411377
		c-1.2955589-0.2583618-2.6272802-0.3616982-3.8756285-0.8302956c-0.5042171-0.1892738-1.0740519-0.3332596-1.1762142-1.0061722
		c0.5852261-0.2181015,0.8516026,0.3875008,1.304574,0.5044708c0.8731794,0.2254868,1.7640247,0.3926468,2.6217031,0.665287
		C14.7627592,36.7361374,15.7509604,36.6654854,16.5926018,37.1581573z"/>
	<path style="fill:#683A35;" d="M17.5900421,37.3077126c-0.1908836,0.1972008-0.3036461,0.0632515-0.4104538-0.096096
		C17.3458233,37.1169243,17.4893284,37.1202278,17.5900421,37.3077126z"/>
	<path style="fill:#321413;" d="M44.225544,14.4572563c1.1164742,0.1720743,2.2329521,0.3441496,3.3492928,0.516098
		c-0.4277878,1.0395908-1.335186,0.6105871-2.0572548,0.6225338C44.8143005,15.6075239,44.2722778,15.2718525,44.225544,14.4572563z
		"/>
	<path style="fill:#47110C;" d="M44.225544,14.4572563c0.0467339,0.8145962,0.5887566,1.1502676,1.292038,1.1386318
		c0.7220688-0.0119467,1.629467,0.417057,2.0572548-0.6225338c0.2826881,0.0216875,0.5413246,0.0896416,0.6962471,0.3591461
		c-0.0644531,0.0564766-0.1290627,0.1128197-0.1936417,0.169095c-0.2571564,0.1203241-0.554306,0.1710501-0.7364655,0.4222889
		c-0.1662788,0.0285931-0.3359833,0.0500154-0.4394264,0.2100306c-0.980648-0.1847124-1.963974-0.3495054-2.9627113-0.4002953
		c0.0356827-0.3068762,0.0713615-0.6137514,0.1070442-0.9206257c0.0051727-0.1272202,0.0103455-0.2544422,0.0155182-0.3816624
		C44.1169777,14.4345417,44.1716919,14.4431829,44.225544,14.4572563z"/>
	<path style="fill:#611810;" d="M44.0614014,14.4313316c-0.0051727,0.1272202-0.0103455,0.2544422-0.0153618,0.3815489
		c-0.1437836-0.1127882-0.2921295-0.2127008-0.4899521-0.1692448c-0.2762833-0.0111122-0.5525589-0.0222235-0.8288498-0.0333357
		c0.0032387-0.1582727,0.0064735-0.3165474,0.009758-0.4747324C43.2074814,14.1043854,43.6385803,14.2493248,44.0614014,14.4313316z
		"/>
	<path style="fill:#EA522F;" d="M9.3949213,27.1580639c0.0120974,0.0492172,0.0258017,0.0979862,0.0410719,0.1461697
		c0.062376,0.0825081,0.1247921,0.1651535,0.1872082,0.2477989c-0.4336042,0.2090015-0.5877676,0.6920223-1.030591,0.9527836
		c-0.497118,0.2927341-1.0902619,0.4793167-1.4904218,0.9384079c-0.4947405,0.0424881-1.0112171-0.1135521-1.4803405,0.1620846
		c-0.6236777,0.0697823-1.2343483-0.0474262-1.8474128-0.129221c-0.0053375-0.2325191-0.0107479-0.4652176-0.0162511-0.6979656
		c-0.0333326-0.6346035,0.4777267-0.8513107,0.9015415-1.0630226c0.7921786-0.3957291,1.6310511-0.6774521,2.545578-0.579628
		c0.2439804,0.3989716,0.4976931,0.4614792,0.7662792,0.0225868c0.0488687,0.0017204,0.0947089-0.0092278,0.1373782-0.0328941
		c0.0999517,0.0053959,0.2000484,0.0108433,0.3001471,0.0162868c-0.0216875,0.095726-0.1307621,0.2275639,0.0079536,0.2783222
		c0.2525539,0.0924206,0.4020605-0.0994949,0.5466156-0.2682705C9.1074257,27.1536884,9.251173,27.1558762,9.3949213,27.1580639z"/>
	<path style="fill:#741E17;" d="M12.9125156,25.8039398c-0.000041,0.0897255-0.000083,0.1794491-0.0002518,0.2689075
		c-0.9929237,0.0068474-1.9857206,0.0139599-2.9784927,0.0212193c-0.0007-0.057869-0.0014238-0.1158867-0.0021477-0.1739044
		c-0.0036077-0.0307865-0.0025387-0.0614071,0.0031195-0.0917072
		C10.9272776,25.8203888,11.9198961,25.8121643,12.9125156,25.8039398z"/>
	<path style="fill:#611810;" d="M9.3949213,27.1580639c-0.1437483-0.0021877-0.2874956-0.0043755-0.4314098-0.0068283
		c-0.1849117-0.0034389-0.3696575-0.0066128-0.5544033-0.0097847c-0.1000986-0.0054436-0.2001953-0.010891-0.3001471-0.0162868
		c-0.0206118-0.3495407,0.229188-0.3502731,0.4694204-0.3635025c0.2229223,0.012188,0.4455748,0.0241909,0.6682281,0.0361938
		c0.1823406,0.2131805,0.4445896,0.1149673,0.6671076,0.1712875C9.786459,27.157793,9.5629416,27.0817089,9.3949213,27.1580639z"/>
	<path style="fill:#A12010;" d="M9.2466097,26.7978554c-0.2226534-0.0120029-0.4453058-0.0240059-0.6682281-0.0361938
		c0.047369-0.2573032-0.0979214-0.6297054,0.3770933-0.6314049C9.0336275,26.3611393,9.316927,26.502409,9.2466097,26.7978554z"/>
	<path style="fill:#611810;" d="M7.9715829,27.1580582c-0.2685862,0.4388924-0.5222988,0.3763847-0.7662792-0.0225868
		C7.4590683,27.1940594,7.7241216,26.8757324,7.9715829,27.1580582z"/>
	<path style="fill:#A12010;" d="M9.9316235,25.9201622c0.0007238,0.0580177,0.0014477,0.1160355,0.0021477,0.1739044
		c-0.0569181,0.0023193-0.1138115,0.0047874-0.1707354,0.0071754C9.8192129,26.0408306,9.8754177,25.9804974,9.9316235,25.9201622z"
		/>
	<path style="fill:#EA522F;" d="M14.0987787,25.7922497c-0.1146135-0.0043774-0.2292252-0.0087547-0.343935-0.0131588
		c-0.0239077-0.2717876-0.15979-0.2819462-0.3999825-0.2255287c-0.500844,0.1176414-1.005064,0.0851231-1.732954-0.0230675
		c0.9312649-0.537117,1.7496367-0.6864204,2.5008173-1.0001526c0.4203167-0.1755486,0.8207674-0.3981018,1.2370939-0.5839634
		c0.2794962-0.1247768,0.5759487-0.1964207,0.8879595-0.168005c0.315279,0.518877,0.9411335,0.8268738,1.021347,1.5050964
		c-0.7276917,0.4546261-1.5397072,0.3158722-2.330863,0.3399696C14.6535225,25.6321125,14.3323011,25.5106945,14.0987787,25.7922497
		z"/>
	<path style="fill:#B0341E;" d="M17.269125,25.2834702c-0.0802135-0.6782227-0.706068-0.9862194-1.021347-1.5050964
		c0.0123768-0.0611553,0.0248985-0.1222591,0.0376225-0.1835213c0.2794857,0.0252953,0.5688629,0.0089836,0.8092499,0.1952286
		c0.0565815,0.0542812,0.1132011,0.1086426,0.169775,0.1629753c-0.0233536,0.3250599-0.0361652,0.6461964,0.3127995,0.8311691
		c0.1767311,0.2716465,0.3534622,0.5432911,0.5301933,0.8149376c-0.0749893,0.0065365-0.1499767,0.0130711-0.2245636,0.0196171
		C17.6748962,25.5137005,17.5453625,25.2642384,17.269125,25.2834702z"/>
	<path style="fill:#A12010;" d="M17.4351101,23.2655678c0.2264366,0.2394981,0.5301514,0.2805824,0.8328133,0.3244152
		c0.1018677,0.1090336,0.4098282,0.206234,0.0294571,0.3481712c-0.1676197,0.0625458-0.3984337-0.0489483-0.5045681,0.1850948
		c-0.2166042-0.0358944-0.2385788-0.3831692-0.5156345-0.3216915l-0.022356-0.0224342
		c0.0107536-0.1760616,0.0215073-0.3521252,0.0324154-0.5283031C17.3360157,23.2617455,17.3852577,23.2666988,17.4351101,23.2655678
		z"/>
	<path style="fill:#A12010;" d="M17.2644691,23.9530869c-0.0566177-0.0543633-0.1132374-0.1087246-0.1698189-0.1630058
		c0.0536156-0.0009823,0.1070194-0.0046406,0.1602097-0.0109253c0,0,0.0223179,0.0224018,0.0222225,0.0223007
		C17.2712631,23.8518028,17.2670898,23.9023819,17.2644691,23.9530869z"/>
	<path style="fill:#F5765A;" d="M17.7930794,24.1233273c0.1058674-0.2341213,0.3366814-0.1226273,0.5043011-0.185173
		c0.3803711-0.1419373,0.0724106-0.2391376-0.0294571-0.3481712c0.2242565-0.2356892,0.5056305-0.3185463,0.8221245-0.3074703
		c0.2618084,0.2131348,0.5384216,0.2822189,0.8922806,0.2415409c0.5205002-0.0598373,0.7165241,0.1613293,0.364357,0.6438026
		c-0.1245537-0.0054493-0.249651-0.0105267-0.3750591-0.0158367c-0.1807938-0.0529385-0.3490505-0.3184204-0.5490437-0.0317707
		c-0.0555668,0.054678-0.1111317,0.1093597-0.1666965,0.1640396c-0.1693993,0.2175007-0.639658-0.1779118-0.6676235,0.3277168
		c-0.1633453-0.0580215-0.3266945-0.1160431-0.4900398-0.1740646
		C18.0792561,24.2528133,18.0040913,24.1221905,17.7930794,24.1233273z"/>
	<path style="fill:#A12010;" d="M19.9719353,24.1522541c0.1250992,0.0050755,0.2501965,0.0101528,0.3747501,0.0156021
		c0.4637032,0.1420021,0.9279518,0.2836285,1.3920689,0.4250755c0.4577351,0.1187859,0.9155979,0.237751,1.3732719,0.3567028
		c-0.1529617,0.3132782-0.4459133,0.1378136-0.6727486,0.1928787c-0.5121918-0.1680794-1.0243816-0.3361588-1.5365734-0.5042362
		C20.6183834,24.4266033,20.1177711,24.6291351,19.9719353,24.1522541z"/>
	<path style="fill:#F57254;" d="M22.4392776,25.1425133c0.2268353-0.0550652,0.5197868,0.1203995,0.6727486-0.1928787
		c1.1302414-0.3402634,2.2481804-0.70644,3.1736908-1.4845562c0.1690292-0.0157166,0.3522263,0.0089188,0.4635258-0.1664772
		c0.419323-0.1656437,0.8458996-0.3177948,1.1809502-0.6390991c0.4011974-0.042017,0.744915-0.1897888,0.981945-0.533659
		c0.8895454-0.022459,1.6046543-0.551712,2.4008083-0.8425884c0.3619804-0.1322517,0.7002907-0.3197842,1.0961571-0.3348618
		c0.0011215,0.1136932,0.0022278,0.2273445,0.003334,0.3409939c-1.2221432,0.9966621-2.7550621,1.4027061-4.1070938,2.155365
		c-1.1652222,0.6486645-2.4754086,1.0228653-3.5518265,1.8468285c0.0001755,0.0437202,0.0002041,0.0874443,0.0000877,0.1311703
		c-0.2115459-0.0049496-0.4230919-0.0098991-0.6350002-0.0144138c-0.0994682-0.1130505-0.2268295-0.1401215-0.3678818-0.1129322
		c-0.020628,0.0039749-0.0351505,0.0396137-0.0525017,0.0605984c0.1199341,0.0413227,0.2398701,0.0826416,0.3598042,0.1239624
		c0.4098358,0.3051472,0.8693428,0.3866978,1.3654861,0.3033543l-0.0092278-0.0061417
		c0.0467529,0.1864815,0.1018543,0.3689747-0.2073574,0.3606739c-0.3716145-0.0099812-0.743681-0.0032864-1.115551-0.003809
		c-0.1080151-0.0155773-0.2160301-0.0311565-0.3240433-0.0467339c-0.0500946-0.6412373-0.5281181-0.2437038-0.7808132-0.2776737
		C22.5376148,25.7492886,22.2047462,25.7143307,22.4392776,25.1425133z"/>
	<path style="fill:#F5765A;" d="M24.7536049,25.4227505c0.0001163-0.043726,0.0000877-0.08745-0.0000992-0.1312866
		c0.9395294,0.0462513,1.6361637-0.5623207,2.4409962-0.8872471c1.4273663-0.576252,2.7857285-1.3051071,4.1830673-1.9402256
		c1.8112011-0.823225,3.5939159-1.7437153,5.3597889-2.6792488c0.1621056-0.0596733,0.2722931-0.1720619,0.3364372-0.3312092
		c0.5468521-0.0164623,0.9567108-0.2531052,1.2992592-0.5979233c-0.0353622-0.0617981-0.0707207-0.1235962-0.1060829-0.1853943
		c-0.3970757,0.150795-0.7941475,0.3015919-1.1912193,0.4523869c-0.1606522,0.0601463-0.2709427,0.1714191-0.334816,0.329813
		c-0.9184113,0.2518406-1.6572075,0.9800491-2.6616974,1.003603l-0.0037155-0.0038605
		c0.0003052-0.110796,0.0006065-0.22159,0.0009117-0.3323841c0.0589027-0.0549011,0.1178055-0.1098022,0.17659-0.1647148
		c0.2378464-0.0071583,0.4043961-0.1149807,0.4849091-0.3440838c0.0047951-0.0561638,0.0095863-0.1123257,0.0144691-0.1684799
		c0.5029831,0.0225868,0.8605537-0.3380394,1.2963867-0.4916439c0.3954659-0.1109009,0.7911682-0.2218266,1.1869125-0.3327179
		c0.2365456,0.0050163,0.477581,0.0173092,0.5056267-0.3136692c0.3919334-0.0920963,0.6985283-0.4589157,1.1507378-0.3573418
		c0.249691,0.012764,0.4187584-0.0987377,0.5099754-0.3303585c0.0588341-0.1008797,0.1176682-0.2017593,0.1765862-0.302454
		c0.3161011,0.0251865,0.4797859-0.2041492,0.6647911-0.3980675c0.207077,0.0043793,0.4141579,0.0089169,0.6213989,0.0135994
		c0.3967628,0.4848709-0.2158699,0.4260807-0.3518639,0.6047649c-0.1345215,0.1767406-0.5649414,0.069685-0.4993744,0.6697254
		c0.5155716-0.5954399,1.3500023-0.3889942,1.7228775-1.0758991c0.2314262,0.0328884,0.4841423-0.0894852,0.74366,0.1207695
		c-0.6718826,0.66642-1.7580528,0.6214237-2.3778152,1.4289761c0.8191528,0.1262608,1.2718887-0.7840195,2.2212219-0.627924
		c-0.4692383,0.4094353-0.9806862,0.53158-1.279026,0.9151421c-0.3410835,0.0494919-0.5983658,0.2411785-0.8240814,0.4863491
		c-0.2435188-0.0039158-0.4743462,0.0101528-0.4820633,0.3402824c-0.2194519,0.0559845-0.4389114,0.1119671-0.6583633,0.1679497
		c-0.5885239,0.0272694-1.0374374,0.4354591-1.4680748,0.7183075c-0.6772499,0.4448261-1.6198349,0.4941692-2.051506,1.3096523
		c-1.2064896,0.1622963-1.9219475,1.2394695-3.0127907,1.6174679c-0.1556892,0.0077019-0.3113785,0.0154057-0.4670677,0.0231056
		c-0.0023155-0.1167107-0.0046349-0.2334251-0.0069504-0.3501358c0.4831657-0.5819397,1.2176895-0.7610035,1.8222313-1.147028
		c0.5765228-0.3681355,1.3411484-0.4773598,1.6848526-1.1786957c1.4230881-0.0901031,2.4196472-1.0545063,3.5412903-1.7663708
		c-1.2571373,0.5483742-2.5540657,1.0086975-3.7135239,1.7647228c-1.4805298,0.5508251-2.7521706,1.5084057-4.1897278,2.1525879
		c-0.5518456,0.2472878-1.2329617,0.2978249-1.6380234,0.8444233c-1.178093,0.4871387-2.3083534,1.061224-3.3303776,1.8320694
		l-0.002943,0.0062866c-0.2776966-0.0030651-0.5553951-0.0061321-0.8330917-0.0091953l0.0092201,0.0061531
		C25.2650356,25.5426998,24.9746704,25.5470943,24.7536049,25.4227505z M39.5258865,18.851572
		c-0.020134,0.0462036-0.0662308,0.102705-0.0531311,0.1357212c0.0132065,0.0332985,0.094841,0.0689278,0.128643,0.056181
		c0.032917-0.0124149,0.069397-0.0954075,0.0562172-0.1279011C39.6439819,18.8819637,39.5724945,18.8718185,39.5258865,18.851572z
		 M39.2667961,18.3313255c-0.0237503,0.0069504-0.0511665,0.0092087-0.0693016,0.0233593
		c-0.0064468,0.0050354,0.0096207,0.0389309,0.0154076,0.0596504c0.0237541-0.007021,0.0510979-0.0094242,0.0693245-0.023571
		C39.2886162,18.385807,39.2725868,18.3519745,39.2667961,18.3313255z"/>
	<path style="fill:#F5765A;" d="M32.4124374,21.2893867c-0.0011063-0.1136494-0.0022125-0.2273006-0.003334-0.3409939
		c0.2782135-0.2746639,0.621727-0.4206486,0.9962616-0.5055065c0.2191544,0.3152771,0.4475403-0.0484295,0.6701584,0.0092716
		l0.0036812,0.0038223C33.7269707,21.1404724,33.0350914,21.1457157,32.4124374,21.2893867z"/>
	<path style="fill:#F57254;" d="M34.0755234,20.452158c-0.2226181-0.0577011-0.451004,0.3060055-0.6701584-0.0092716
		c0.1377869-0.2861843,0.3865471-0.3418007,0.6710701-0.3231106C34.0761299,20.2305679,34.0758286,20.341362,34.0755234,20.452158z"
		/>
	<path style="fill:#F57254;" d="M34.7379341,19.6109753c-0.080513,0.2291031-0.2470627,0.3369255-0.4849091,0.3440838
		c-0.00177-0.1391773,0.0276222-0.2625313,0.1673431-0.3300667C34.5263138,19.6203518,34.6321259,19.6156654,34.7379341,19.6109753z
		"/>
	<path style="fill:#F57254;" d="M37.7413292,18.3044643c-0.0280457,0.3309784-0.2690811,0.3186855-0.5056267,0.3136673
		C37.337841,18.4065361,37.4991837,18.2903633,37.7413292,18.3044643z"/>
	<path style="fill:#F57254;" d="M39.4020424,17.6167641c-0.091217,0.2316208-0.2602844,0.3431225-0.5099754,0.3303585
		C38.9271965,17.628788,39.164093,17.6219673,39.4020424,17.6167641z"/>
	<path style="fill:#F26546;" d="M41.0444031,18.9654274c0.2984352-0.3835926,0.8098831-0.5057373,1.2791214-0.9151726
		c-0.9493332-0.1560955-1.4020691,0.7541847-2.2212219,0.627924c0.6197624-0.8075523,1.7059326-0.7625561,2.3778152-1.4289761
		c-0.2595177-0.2102547-0.5122337-0.0878811-0.74366-0.1208363c-0.0630188-0.183075-0.1260338-0.3660793-0.1890526-0.5490837
		c0.3729172-0.1893864,0.763916-0.3028488,1.1867409-0.2827797c0.1140671,0.2668114,0.3471031,0.2884865,0.5984459,0.3313522
		c0.5818291,0.0992279,1.1570129,0.2373962,1.7348976,0.3597736c0.0606041,0.5761852-0.1852646,0.9171524-0.7554855,1.060957
		c-0.7957573,0.2006855-1.3673286,0.7729683-2.0029106,1.2441139c-0.3640099,0.2698364-0.7631989,0.5845089-1.2675934,0.2564621
		C41.0426178,19.3549557,41.0435066,19.1601906,41.0444031,18.9654274z M43.5587273,17.4014053
		c-0.551693-0.1609116-0.7861214,0.1714611-1.0648956,0.4059048C42.8731117,17.7948456,43.2605247,17.8003654,43.5587273,17.4014053
		z"/>
	<path style="fill:#B0341E;" d="M45.0674896,16.9876289c-0.5778847-0.1223774-1.1530685-0.2605457-1.7348976-0.3597736
		c-0.2513428-0.0428658-0.4843788-0.0645409-0.5984459-0.3313522c0.0835037-0.2319107,0.3460083-0.3727064,0.3330116-0.6540222
		c0.7628632-0.0393896,0.429142-0.6154451,0.4889297-0.9988451c0.1978226-0.0434561,0.3461685,0.0564566,0.4899521,0.1692448
		c-0.0358391,0.3069878-0.0715179,0.613863-0.1073036,0.921011c-0.119175,0.0878096-0.4764748,0.2611008-0.173893,0.3065653
		c0.4199829,0.0631046,0.7505875,0.4429264,1.2173157,0.295702c0.4192924-0.1322613,0.4237518,0.1911411,0.4431229,0.4704781
		C45.4073181,17.0672283,45.2327003,17.0181293,45.0674896,16.9876289z"/>
	<path style="fill:#F57254;" d="M41.5474052,16.5792828c0.0630188,0.1830044,0.1260338,0.3660088,0.1890526,0.5490837
		c-0.3728752,0.6869717-1.2073059,0.480526-1.7228775,1.0759659c-0.065567-0.6000404,0.3648529-0.4929848,0.4993744-0.6697254
		c0.135994-0.1786842,0.7486267-0.119894,0.3518639-0.6047649C41.0203476,16.6728172,41.2639503,16.5872326,41.5474052,16.5792828z"
		/>
	<path style="fill:#EA522F;" d="M43.5560875,14.6436357c-0.0597878,0.3834,0.2739334,0.9594555-0.4889297,0.9988451
		c0.0012131-0.0709009,0.00243-0.1420107,0.0036125-0.2127752c0.0213814-0.0079775,0.0428009-0.0162973,0.0642128-0.0246181
		c-0.02285-0.0247869-0.0457001-0.0495749-0.0685539-0.0743628c-0.1212463-0.1204634-0.2424965-0.2409267-0.3633995-0.3614969
		c0.0132828-0.1104803,0.0262222-0.2208529,0.0391655-0.3312263l-0.014946-0.0276852
		C43.0035286,14.6214123,43.2798042,14.6325235,43.5560875,14.6436357z"/>
	<path style="fill:#741E17;" d="M41.2373657,14.6297798c0.394146-0.0468206,0.7882881-0.0936394,1.1823578-0.1406221
		c-0.0584641,0.1543941-0.1168633,0.3089514-0.1752586,0.4635077
		C41.7485542,15.3447447,41.4920425,14.9901314,41.2373657,14.6297798z"/>
	<path style="fill:#B0341E;" d="M42.2444649,14.9526663c0.0583954-0.1545572,0.1167946-0.3091145,0.1752586-0.4635086
		c0.1075401,0.0497074,0.2149963,0.0992546,0.322464,0.1488209c-0.0129356,0.1103964-0.0258751,0.2207689-0.0391579,0.3312492
		C42.5499458,14.9637794,42.3972054,14.9582233,42.2444649,14.9526663z"/>
	<path style="fill:#B0341E;" d="M43.0664291,15.3307247c0.0228539,0.0247879,0.0457039,0.0495758,0.0685539,0.0743628
		c-0.0214119,0.0083208-0.0428314,0.0166407-0.064209,0.0246181C43.0656853,15.3966446,43.0642242,15.3637657,43.0664291,15.3307247
		z"/>
	<path style="fill:#A12010;" d="M27.9301929,22.659502c-0.3350506,0.3213043-0.7616272,0.4734554-1.1809502,0.6390991
		c-0.0397472-0.5910797,0.5937042-0.5231934,0.8281384-0.8458729C27.7403297,22.4442101,27.8685188,22.4950962,27.9301929,22.659502
		z"/>
	<path style="fill:#A12010;" d="M27.5823021,22.4545937c-0.0597553-0.0576153-0.1195126-0.1152306-0.1793671-0.172924
		C27.4626617,22.3392601,27.5224838,22.3969269,27.5823021,22.4545937z"/>
	<path style="fill:#B0341E;" d="M39.5742188,23.6201515c0.6736908,0.1273632,0.9728622-0.4319382,1.3818436-0.7705822
		c1.362381-1.1280861,2.9457512-1.9162731,4.4265518-2.857563c1.903698-1.2101173,3.7412224-2.5119305,5.6017952-3.7819786
		c0.3920441-0.2676153,0.786808-0.4864197,1.2556496-0.562191c-0.3371277,0.9134464-1.1827316,1.296936-1.9107895,1.7860851
		c-0.2299309,0.15448-0.4669495,0.268816-0.6031342,0.519846c-0.3278427,0.0237026-0.5170212,0.2296238-0.6570396,0.5001221
		l-0.0085258,0.0076313c-0.2353897-0.0012283-0.4817314-0.0185242-0.4831238,0.3265247c0,0-0.0151939,0.0145988-0.0151749,0.0143871
		c-0.6089554,0.1865177-1.1739082,0.4732628-1.6403809,0.8994102c-0.7691078,0.7026196-1.7117958,1.1476135-2.5014191,1.8585644
		c-0.8505898,0.7658463-1.8084679,1.5039101-2.8531113,2.0701504c-0.8757591,0.4746952-1.5549774,1.3397884-2.6753807,1.3176003
		c0.1348457-0.3419228,0.2695541-0.6838512,0.4042625-1.0257778c0.0285492-0.0119553,0.0582581-0.0167999,0.0891342-0.014534
		c0.1794472-0.0203819,0.1816559-0.1566124,0.1891556-0.2893848L39.5742188,23.6201515z"/>
	<path style="fill:#741E17;" d="M38.8918419,24.9481506c1.1205406,0.0221958,1.7997589-0.8428974,2.675518-1.3175926
		c1.0446434-0.5662403,2.0025215-1.3043041,2.8531113-2.0701504c0.7896233-0.7109509,1.7323112-1.1559448,2.5014191-1.8585644
		c0.4664726-0.4261475,1.0314255-0.7128925,1.6403809-0.8994102c-0.2126236,0.7765865-0.95364,1.0478077-1.5037956,1.451973
		c-0.6916351,0.5080986-1.4545631,0.8720398-2.0166245,1.5904427c-0.5910454,0.7554493-1.6178551,0.9927654-2.3292923,1.6665916
		c-1.4878044,1.4091454-3.3411713,2.3384094-4.9292259,3.6228065c-0.0989037,0.0799885-0.249588,0.0959549-0.3761787,0.1416626
		c-0.1802292-0.2363281-0.3880196-0.1518803-0.58004-0.03302c-0.8040543,0.4977112-1.7407684,0.7971516-2.3643036,1.5654736
		c-0.2358971,0.2906799-0.5473862,0.3315945-0.8879776,0.2972431c0.4818039-0.8940105,1.3880348-1.2568436,2.2126617-1.6789169
		c0.902771-0.4620667,1.6058807-1.2055435,2.5179291-1.6477814c0.2851105-0.1382446,0.4973297-0.439888,0.4261627-0.8250656
		C38.7849312,24.9485092,38.8383293,24.9466305,38.8918419,24.9481506z"/>
	<path style="fill:#741E17;" d="M49.0690956,18.4538898c0.1400185-0.2704983,0.3291969-0.4764194,0.6570396-0.5001221
		C49.709404,18.3862171,49.4274979,18.4703064,49.0690956,18.4538898z"/>
	<path style="fill:#741E17;" d="M48.577446,18.7880459c0.0013924-0.3450489,0.2477341-0.3277531,0.4831238-0.3265247
		C49.0444031,18.7848625,48.8140259,18.7910423,48.577446,18.7880459z"/>
	<path style="fill:#741E17;" d="M33.0583649,29.5978355c0.0365562-0.3038921,0.1944466-0.4803982,0.5127411-0.4884548
		C33.560833,29.440836,33.3930817,29.6069584,33.0583649,29.5978355z"/>
	<path style="fill:#741E17;" d="M32.0633659,30.265255c0.0676613-0.2737808,0.1088676-0.5879993,0.5184631-0.3393631
		C32.4888382,30.1607742,32.3244743,30.2868843,32.0633659,30.265255z"/>
	<path style="fill:#F5765A;" d="M21.7672844,31.9403973c-0.0140629-0.6158085-0.0521984-1.2288322-0.2112751-1.8278122
		c1.1857548-0.0026226,2.3318176-0.0966396,3.4460564-0.6300716c0.5241585-0.2509384,0.9504414-0.6471806,1.4785862-0.8458519
		c0.9726467-0.365881,1.9194164-0.7299652,2.2752647-1.8431816c0.2069244-0.1045971,0.3264866-0.2675762,0.3366013-0.5036964
		c0.3591995-0.0534363,0.3195381,0.7209625,0.8290291,0.387331c0.3637486-0.2381973,0.7876854-0.3920631,1.1285229-0.656147
		c0.7974472-0.6178761,1.5943661-1.1780453,2.5848141-1.5073357c0.4643021-0.1543674,1.0462265-0.4764919,1.2759552-1.062685
		c0.2159195,0.2155418,0.3695984,0.3283234,0.7633057,0.1948318c0.8116226-0.2751884,1.5437775-0.7413883,2.2031479-1.1889515
		c1.0137901-0.6881275,0.4730148,0.4463043,0.7922516,0.4794636c-0.6754227,0.0912876-0.6754227,0.0912876-0.7804031,0.5116844
		c-0.0012856,0.1696568-0.0026321,0.3393326-0.0039711,0.5089378c-0.0550575,0.0013638-0.1251068-0.0188618-0.1630173,0.0073624
		c-1.4356766,0.9930725-2.8937149,1.9574604-4.2764015,3.019865c-0.2284622,0.1755428-0.7442665-0.0284462-0.7099266,0.4898911
		c-0.1303406-0.0171413-0.2589073-0.0289307-0.3371048,0.1115971c-0.3436279-0.265707-0.6726036-0.8091202-1.1438198-0.4561977
		c-0.475338,0.35602,0.0786781,0.7631226,0.1730423,1.1492558c-0.8735199,0.5598354-1.750967,1.1136627-2.6194191,1.6812515
		c-0.8142376,0.5321598-1.7863941,0.617342-2.6631298,0.9660091c-1.1010246,0.4378643-2.2036076,0.7228317-3.3984432,0.445776
		c-0.4418812-0.1024609-0.7473106,0.0960045-0.8182964,0.5750313l-0.0049839,0.002594
		C21.8715935,31.9452839,21.8194695,31.9423275,21.7672844,31.9403973z"/>
	<path style="fill:#F26546;" d="M34.9108391,23.4509468c-0.2297287,0.5861931-0.8116531,0.9083176-1.2759552,1.062685
		c-0.990448,0.3292904-1.7873669,0.8894596-2.5848141,1.5073357c-0.3408375,0.2640839-0.7647743,0.4179497-1.1285229,0.656147
		c-0.509491,0.3336315-0.4698296-0.4407673-0.829155-0.3874245c0.145647-0.1215839,0.2732887-0.306694,0.4401321-0.354248
		c1.0928421-0.3114853,1.9619808-1.0735569,3.0048294-1.4673309c0.3914108-0.1477928,0.5027161-0.3705082,0.5210648-0.7235947
		c0.5560722-0.2878113,1.0972672-0.6112118,1.6730499-0.85186c0.4385109-0.1832752,0.7547989-0.4166031,0.8288536-0.9045734
		c0.4317589-0.8156281,1.3743439-0.8649712,2.0515938-1.3097973c0.4306374-0.2828484,0.8795509-0.6910381,1.4679794-0.7183781
		c0.1011925,0.2077408,0.174099,0.3748779-0.098053,0.5550289c-0.3488655,0.2309361-0.7454414,0.3751049-1.0823517,0.6031303
		c-0.7251511,0.4907951-1.7852898,0.5093632-2.1572456,1.5026493l0.00214-0.0031528
		c-0.111187,0.1092854-0.2223549,0.2185631-0.3335228,0.3278408C35.3427582,23.2114124,35.0349274,23.2403069,34.9108391,23.4509468
		z"/>
	<path style="fill:#F26546;" d="M39.385376,23.9078465c-0.0308762-0.0022659-0.060585,0.0025787-0.0894012,0.0145187
		c-0.1294708-0.1144447-0.258667-0.2288799-0.387867-0.3433113c0.0647583-0.4267216,0.3900261-0.683424,0.7048073-0.8697186
		c1.4488792-0.8574886,2.763073-1.9273129,4.2717438-2.6910973c0.223793-0.1132984,0.4176331-0.2553024,0.679821-0.2319279
		c-0.0411987,0.5198784-0.5127029,0.6388016-0.8492203,0.8205566c-1.4075966,0.7602463-2.693222,1.6925888-3.9543381,2.6658974
		c-0.1224594,0.094511-0.1793289,0.2020226-0.1867294,0.3473568l0.0003166-0.0016708
		C39.4437828,23.6707001,39.4036942,23.7821617,39.385376,23.9078465z"/>
	<path style="fill:#EA522F;" d="M35.7422447,22.6207161c0.3719559-0.9932861,1.4320946-1.0118542,2.1572456-1.5026493
		c0.3369102-0.2280254,0.7334862-0.3721943,1.0823517-0.6031303c0.2721519-0.180151,0.1992455-0.3472881,0.098053-0.555027
		c0.2195473-0.0559139,0.4390068-0.1118965,0.6584473-0.1679382c0.2610588,0.221611,0.3146477,0.4427605-0.0016823,0.6629772
		c-0.1364098,0.0674934-0.1641388,0.1907959-0.1676521,0.32658c-0.3621063-0.1830139-0.4718513,0.0153427-0.5028038,0.3327732
		c-0.7756996-0.1194-1.264904,0.5180321-1.7411461,0.8780346C36.8068161,22.3840961,36.3569565,22.6202888,35.7422447,22.6207161z"
		/>
	<path style="fill:#D66043;" d="M45.4252815,16.8066368c-0.019371-0.2793369-0.0238304-0.6027393-0.4431229-0.4704781
		c-0.4667282,0.1472244-0.7973328-0.2325974-1.2173157-0.295702c-0.3025818-0.0454645,0.054718-0.2187557,0.173893-0.3065653
		c0.9988403,0.050518,1.9821663,0.2153111,2.9628143,0.4000235C46.5637589,16.6967926,46.021347,16.8105888,45.4252815,16.8066368z"
		/>
	<path style="fill:#611810;" d="M38.9081078,23.5790539c0.1292,0.1144314,0.2583961,0.2288666,0.387867,0.3433113
		c-0.1344414,0.3419418-0.2691498,0.6838703-0.4039955,1.0257931c-0.0536499-0.0015278-0.107048,0.000351-0.1603928,0.0056839
		c-0.1602821-0.056776-0.3204918-0.1136036-0.4807777-0.1704578c-0.0295372-0.1336269-0.0337791-0.2821083-0.1982117-0.3359814
		c-0.0268822-0.1732979,0.04813-0.381485-0.1674347-0.4904232c0.0013466-0.169672,0.0026932-0.3393478,0.0039787-0.5090046
		C38.2445602,23.3687687,38.5694733,23.527235,38.9081078,23.5790539z"/>
	<path style="fill:#F26546;" d="M39.73666,20.4549484c0.31633-0.2202168,0.2627411-0.4413662,0.0016823-0.6629791
		c0.0077286-0.3300705,0.2385559-0.3441391,0.4821396-0.3402233c-0.0225945,0.3540192,0.2081947,0.3367386,0.4482269,0.3059063
		c0.5493317,0.770256-0.4975243,0.5770569-0.6113472,0.9809189C40.0047073,20.9254017,39.8778076,20.889637,39.73666,20.4549484z"/>
	<path style="fill:#741E17;" d="M40.6687088,19.7576523c-0.2400322,0.0308323-0.4708214,0.0481129-0.4482269-0.3059063
		c0.2256508-0.2451706,0.482933-0.4368572,0.8240166-0.4863491c-0.0009918,0.1947937-0.0018806,0.3895588-0.0029984,0.583765
		C40.9170876,19.6182842,40.7929001,19.6879673,40.6687088,19.7576523z"/>
	<path style="fill:#D66043;" d="M47.3409767,15.9238844c0.1821594-0.2512388,0.4793091-0.3019648,0.7364655-0.4222889
		C48.0859375,16.0854378,47.6803856,15.9469776,47.3409767,15.9238844z"/>
	<path style="fill:#F26546;" d="M45.5688286,18.9575462c-0.0207481,0.3145618-0.1846085,0.4832764-0.5034714,0.4940205
		C45.0834351,19.1342525,45.248291,18.9665661,45.5688286,18.9575462z"/>
	<path style="fill:#F26546;" d="M39.0662041,21.1143017c0.0309525-0.3174305,0.1406975-0.5157871,0.5028038-0.3327732
		C39.4792061,21.0099659,39.3111305,21.120182,39.0662041,21.1143017z"/>
	<path style="fill:#F26546;" d="M45.0637589,19.4532585c-0.0911179,0.2228432-0.2571564,0.3332634-0.4977989,0.3317261
		C44.5830421,19.4510098,44.8229942,19.4515247,45.0637589,19.4532585z"/>
	<path style="fill:#EA522F;" d="M35.410862,22.9454041c0.1111679-0.1092777,0.2223358-0.2185555,0.3335228-0.3278408
		C35.7345047,22.8298759,35.6283455,22.9442673,35.410862,22.9454041z"/>
	<path style="fill:#B0341E;" d="M3.9270971,30.7651291c0.058641-0.1069393,0.1256359-0.107872,0.2001054-0.0159893
		C4.060595,30.7543163,3.9938462,30.7597218,3.9270971,30.7651291z"/>
	<path style="fill:#D66043;" d="M38.0525093,24.4473457c0.1645203,0.0539303,0.1687622,0.2024117,0.1982994,0.3360386
		c-1.4050674,1.1289978-3.0742073,1.8697948-4.4571266,3.0317173c-0.2784004,0.2339115-0.547924,0.493845-0.959938,0.4324265
		c0.0155144-0.1515656,0.030407-0.3031197,0.0453033-0.4546757c0.2536469-0.0294399,0.4647942-0.1394825,0.6608047-0.3049469
		C34.9337196,26.3112488,36.4871483,25.3701992,38.0525093,24.4473457z"/>
	<path style="fill:#D66043;" d="M32.0833664,28.803709c-0.2517376,0.4080849-0.5444508,0.7737389-1.0025635,0.9682102
		c-0.0046902-0.1392612-0.0400677-0.2625332-0.1746674-0.3339195c0.1272068-0.3936749,0.7562637-0.4458485,0.670084-0.984724
		c0.097374,0.0147514,0.1947479,0.0294991,0.29212,0.0442505C31.9400158,28.5995865,32.011692,28.7016487,32.0833664,28.803709z"/>
	<path style="fill:#47110C;" d="M32.0833664,28.803709c-0.0716743-0.1020603-0.1433506-0.2041225-0.2149448-0.3063374
		c-0.0806122-0.4537659,0.8607388-0.3129406,0.5303059-0.9118042c0.0781898-0.1404667,0.2067566-0.1286774,0.3370934-0.1115589
		c0.0035439,0.1261196,0.0061111,0.2526989,0.1432266,0.3188438c-0.0148964,0.151556-0.029789,0.3031101-0.0453033,0.4546757
		C32.4769058,28.2896271,32.4781303,28.8135796,32.0833664,28.803709z"/>
	<path style="fill:#EA522F;" d="M30.9061356,29.4379997c0.1345997,0.0713863,0.1699772,0.1946583,0.1746674,0.3339195
		c-0.1673985,0.2459507-0.428648,0.1556778-0.6568832,0.1834049c0.0001335,0.0001469-0.0177555-0.0188522-0.0176792-0.0187626
		C30.4223633,29.6195221,30.7008457,29.565443,30.9061356,29.4379997z"/>
	<path style="fill:#F26546;" d="M7.1021886,29.443224c0.4001598-0.4590912,0.9933038-0.6456738,1.4904218-0.9384079
		c0.4428234-0.2607613,0.5969868-0.743782,1.030591-0.9527836c-0.0624161-0.0826454-0.1248322-0.1652908-0.1872082-0.2477989
		c1.5156622,0.0651512,2.7917747,0.8634853,4.1661663,1.3606834c0.0231552,0.0606518,0.0463295,0.1214752,0.0695028,0.1822968
		c0.0334921-0.0280056,0.0669823-0.0560131,0.1004734-0.0840187c0.1101274,0.0452499,0.2202549,0.0904999,0.3303928,0.1360016
		c0.0462399,0.1775589,0.1815014,0.2062263,0.3365622,0.2018414l0.0054903-0.01614
		c0.035943,0.3147526,0.4203672,0.3287182,0.5647125,0.6091385c-0.6310997,0.1521988-1.2208805,0.3083038-1.2487841,1.079319
		C11.5964355,30.0527153,9.2898798,30.0454826,7.1021886,29.443224z"/>
	<path style="fill:#EA522F;" d="M21.0876007,29.1098404c-0.9007778-0.7780075-1.5409241-1.7641907-2.3414307-2.8032131
		c1.4358559,0,2.7219524,0,4.0080109-0.0002041c0.1139755,0.0488148,0.227993,0.0978336,0.3418999,0.146801
		c1.4905758,0.2866077,2.9843979,0.217247,4.4791775,0.0394058c0.1693344,0.0910416,0.3386688,0.1820812,0.5080032,0.2731228
		c-0.5962334,0.566576-1.3109627,0.7320099-2.1170387,0.6903439c-0.7280083-0.037632-1.4397259,0.2401161-2.000906,0.6099281
		c-0.6791801,0.4475727-1.3297863,0.6030598-2.0960903,0.5123405C21.4679909,28.5308628,21.0615234,28.512167,21.0876007,29.1098404
		z"/>
	<path style="fill:#F26546;" d="M21.0876007,29.1098404c-0.0260773-0.5976734,0.3803902-0.5789776,0.7816257-0.5314751
		c0.766304,0.0907192,1.4169102-0.0647678,2.0960903-0.5123405c0.5611801-0.369812,1.2728977-0.6475601,2.000906-0.6099281
		c0.806076,0.041666,1.5208054-0.1237679,2.1170406-0.690258c0.0958157-0.0047836,0.1916256-0.0096512,0.2874374-0.0145168
		c0.1284046,0.0140495,0.2568111,0.0281048,0.3852158,0.0421581c-0.3558483,1.1132164-1.302618,1.4773006-2.2752647,1.8431816
		c-0.5281448,0.1986713-0.9544277,0.5949135-1.4785862,0.8458519c-1.1142387,0.533432-2.2603016,0.627449-3.4460564,0.6300716
		C21.2415504,29.8521843,21.3602505,29.3896427,21.0876007,29.1098404z M21.690012,29.2628403
		c1.106905,0.3896904,2.0027409-0.1884785,2.9507256-0.5350399C23.6277618,28.76227,22.6296768,28.8641548,21.690012,29.2628403z
		 M25.1154633,28.2823505c-0.0452213,0.0698929-0.1209755,0.1387444-0.107975,0.1787338
		c0.0173969,0.053503,0.1018887,0.1155281,0.1606007,0.1187572c0.1120586,0.0061684,0.2027473-0.0650959,0.1567707-0.1872005
		C25.3063412,28.3434544,25.2035809,28.3259869,25.1154633,28.2823505z"/>
	<path style="fill:#EA522F;" d="M22.4392776,25.1425133c-0.2345314,0.5718174,0.0983372,0.6067753,0.5472412,0.6671219
		c0.2526951,0.0339699,0.7307186-0.3635635,0.7807407,0.2778454c-0.338398,0.0102062-0.6767235,0.020237-1.0150509,0.0302677
		c-1.3225479-0.0624294-2.6500511,0.072691-3.9713631-0.1296692c-0.3064938-0.0469398-0.5078201-0.1565628-0.6735477-0.3887768
		c-0.1766109-0.2717857-0.3533421-0.5434303-0.5299149-0.8150444c0.1049366-0.2188187,0.2759418-0.3381081,0.5208397-0.3463173
		c0.1633453,0.0580215,0.3266945,0.1160431,0.4900684,0.1741085c0.7703972,0.105566,1.5389137,0.3742657,2.3144131,0.026228
		C21.414896,24.8063545,21.9270859,24.9744339,22.4392776,25.1425133z"/>
	<path style="fill:#D66043;" d="M17.269125,25.2834702c0.2762375-0.0192318,0.4057713,0.2302303,0.6137295,0.33531
		c0.0869198,0.1578159,0.1545582,0.3312988-0.125124,0.3207531c-1.2197781-0.0459881-2.4488783,0.1319466-3.6589899-0.1473808
		c0.2335606-0.2814579,0.5547819-0.1600399,0.8395214-0.1687126C15.7294178,25.5993423,16.5414333,25.7380962,17.269125,25.2834702z
		"/>
	<path style="fill:#B0341E;" d="M22.7522087,26.1177483c0.3383274-0.0100307,0.6766529-0.0200615,1.0150509-0.0302677
		c0.1080856,0.0154057,0.2161007,0.0309849,0.3240929,0.0464649c-0.0005341,0.0992355-0.0010471,0.1985703-0.0015583,0.2979031
		c-0.3311996,0.0071411-0.6624012,0.0142841-0.9936028,0.0214252c-0.1140175-0.049017-0.228035-0.0980358-0.3420105-0.1468506
		C22.7535496,26.2436676,22.7528801,26.1807079,22.7522087,26.1177483z"/>
	<path style="fill:#F26546;" d="M21.7672844,31.9403973c0.0521851,0.0019302,0.1043091,0.0048866,0.1563854,0.0089512
		c-0.058857,0.0554924-0.1177235,0.1109085-0.1766472,0.1664047C21.7537384,32.0573578,21.7605114,31.9988785,21.7672844,31.9403973
		z"/>
	<path style="fill:#F26546;" d="M30.9061356,29.4379997c-0.2052898,0.1274433-0.4837723,0.1815224-0.4998951,0.4985619
		c-1.0766716,0.0118732-1.8029423,0.7677059-2.6496048,1.2617531c-0.2265434,0.1321888-0.362566,0.4160271-0.6774101,0.4080467
		c-0.8772964-0.0507889-1.7243214,0.0754604-2.4741554,0.5513191c-0.3643875,0.2312431-0.7160721,0.1124992-1.0655937,0.072834
		c-0.5407677-0.0613747-1.0743523-0.186039-1.6109009-0.2838135c0.071064-0.4789734,0.3764935-0.6774387,0.8183746-0.5749779
		c1.1948357,0.2770557,2.2974186-0.0079117,3.3984432-0.445776c0.8767357-0.3486671,1.8488922-0.4338493,2.6631298-0.9660091
		c0.8684521-0.5675888,1.7458992-1.1214161,2.6193066-1.6812801c0.049387,0.0581875,0.0988903,0.1164017,0.1483898,0.1746178
		C31.6623993,28.9921513,31.0333424,29.0443249,30.9061356,29.4379997z"/>
	<path style="fill:#EA522F;" d="M26.4650097,32.029808c-0.0488796,0.0228577-0.0932732,0.0608139-0.1353474,0.0583954
		c-0.0410862-0.0023575-0.0798035-0.0459404-0.1195621-0.0714264c0.0431023-0.0211334,0.0867767-0.0597801,0.1291351-0.0583897
		C26.3802052,31.959734,26.4198189,32.0023117,26.4650097,32.029808z"/>
	<path style="fill:#F57254;" d="M13.7721357,28.763195c-0.0334911,0.0280056-0.0669813,0.0560131-0.1004734,0.0840187
		c-0.0231733-0.0608215-0.0463476-0.121645-0.0695028-0.1822968C13.6588316,28.6977882,13.7154837,28.7304935,13.7721357,28.763195z
		"/>
	<path style="fill:#F57254;" d="M14.4390907,29.101038c-0.1550608,0.004385-0.2903223-0.0242825-0.3365622-0.2018414
		C14.2147093,28.9663105,14.3268995,29.0336723,14.4390907,29.101038z"/>
	<path style="fill:#A12010;" d="M8.4091082,27.1414509c0.1847458,0.0031719,0.3694916,0.0063457,0.5544033,0.0097847
		c-0.1443892,0.1690426-0.2938957,0.3609581-0.5464497,0.2685375C8.2783461,27.3690147,8.3874207,27.2371769,8.4091082,27.1414509z"
		/>
	<path style="fill:#D66043;" d="M18.0982227,24.4379406c-0.2448978,0.0082092-0.4159031,0.1274986-0.5208397,0.3463173
		c-0.349123-0.1850052-0.3363113-0.5061417-0.3129578-0.8312016c0.0026646-0.0506744,0.0068378-0.1012535,0.0126572-0.1515999
		c0.2771511-0.0613766,0.2991257,0.2858982,0.5157299,0.3217926C18.0040913,24.1221905,18.0792561,24.2528133,18.0982227,24.4379406
		z"/>
	<path style="fill:#F26546;" d="M20.9027042,24.6382771c-0.7754993,0.3480377-1.5440159,0.0793381-2.3144131-0.026228
		c0.0279369-0.5056725,0.4981956-0.11026,0.6676064-0.3277817c0.1004982,0.1379108,0.2570152,0.2414875,0.3703537,0.0903683
		c0.0832615-0.1110134-0.0883408-0.2016716-0.2036686-0.2543869c0.1999931-0.2866497,0.3682499-0.0211678,0.5490437,0.0317707
		C20.1177711,24.6291351,20.6183834,24.4266033,20.9027042,24.6382771z"/>
	<path style="fill:#F57254;" d="M19.4225826,24.1202488c0.1153278,0.0527153,0.2869301,0.1433735,0.2036686,0.2543869
		c-0.1133385,0.1511192-0.2698555,0.0475426-0.3703537-0.0903683C19.311451,24.2296085,19.3670158,24.1749268,19.4225826,24.1202488
		z"/>
	<path style="fill:#F26546;" d="M32.4124374,21.2893867c0.622654-0.143671,1.3145332-0.1489143,1.6667671-0.8334064
		c1.0045242-0.0235157,1.7433205-0.7517242,2.6617279-1.0035458c-0.0012093,0.1107731-0.0024109,0.2215271-0.0036125,0.332283
		c-1.7658348,0.9355583-3.5485497,1.8560486-5.3597507,2.6792736c-1.3973389,0.6351185-2.7557011,1.3639736-4.1830673,1.9402256
		c-0.8048325,0.3249264-1.5014668,0.9334984-2.4409962,0.8872471c1.0764294-0.8238468,2.3866158-1.1980476,3.5518379-1.8467121
		C29.6573753,22.6920929,31.1902943,22.2860489,32.4124374,21.2893867z"/>
	<path style="fill:#A12010;" d="M24.0897942,26.4318485c0.0005112-0.0993328,0.0010242-0.1986675,0.0015583-0.2979031
		c0.3718929,0.0006199,0.7439594-0.0060749,1.1155739,0.0039063c0.3092117,0.0083008,0.2541103-0.1741924,0.2073574-0.3606739
		c0.2777004,0.0030613,0.5553989,0.0061283,0.833128,0.0091324c0.11689,0.0917091,0.2337513,0.1834793,0.3505535,0.2755299
		c-0.000494,0.1129055-0.0009327,0.2255325-0.0013714,0.3381634C25.7609921,26.4106178,24.9253941,26.4212341,24.0897942,26.4318485
		z"/>
	<path style="fill:#A12010;" d="M24.7536049,25.4227505c0.2210655,0.1243439,0.5114307,0.1199493,0.6699028,0.3605785
		c-0.4961395,0.083334-0.9556465,0.0017834-1.3654823-0.3033619c0.0205517-0.0238228,0.0408649-0.0478439,0.0609417-0.0720654
		C24.330513,25.4128513,24.5420589,25.4178009,24.7536049,25.4227505z"/>
	<path style="fill:#A12010;" d="M24.0580254,25.4799652c-0.1199341-0.0413208-0.2398701-0.0826397-0.3598042-0.1239624
		c0.0173512-0.0209846,0.0318737-0.0566235,0.0525017-0.0605984c0.1410522-0.0271893,0.2684135-0.0001183,0.3678818,0.1129322
		C24.0988903,25.4321232,24.078577,25.4561443,24.0580254,25.4799652z"/>
	<path style="fill:#EA522F;" d="M28.7559166,26.7934799c-0.1284046-0.0140533-0.2568111-0.0281086-0.3849411-0.0419598
		c0.013382-0.1612301,0.0264874-0.3226604,0.0395889-0.484087c0.0154858-0.5669651,0.2803612-0.8515797,0.8306389-1.1032677
		c0.973978-0.4454784,1.9835854-0.8583317,2.8393478-1.5356541c0.1556892-0.0077,0.3113785-0.0154037,0.4671516-0.0230656
		c0.1299934,0.1943855,0.3175316,0.177103,0.5107155,0.1390705c-0.0183487,0.3530865-0.1296539,0.5758018-0.5210648,0.7235947
		c-1.0428486,0.393774-1.9119873,1.1558456-3.0048294,1.4673309c-0.1668434,0.047554-0.2944851,0.2326641-0.4401321,0.354248
		C29.0824032,26.5259037,28.962841,26.6888828,28.7559166,26.7934799z"/>
	<path style="fill:#F57254;" d="M32.0805511,23.6285114c-0.8557625,0.6773224-1.8653698,1.0901756-2.8393478,1.5356541
		c-0.5502777,0.251688-0.8151531,0.5363026-0.8305702,1.1033268c-0.6166325,0.0411777-1.2158699-0.0714111-1.8126125-0.2059288
		c-0.1168575-0.091774-0.2337189-0.1835442-0.3506088-0.2752533l0.0029087-0.0062237
		c1.2623291-0.2503777,2.3472462-0.8560905,3.3314991-1.6634121c0.3772869,0.0406132,0.6660881-0.1844311,0.9837112-0.3252354
		c0.487133-0.2159519,0.9246864-0.5795879,1.50807-0.5130634C32.0759163,23.3950863,32.0782356,23.5118008,32.0805511,23.6285114z"
		/>
	<path style="fill:#F26546;" d="M32.0736008,23.2783756c-0.5833836-0.0665245-1.020937,0.2971115-1.50807,0.5130634
		c-0.3176231,0.1408043-0.6064243,0.3658485-0.9837246,0.3252296c-0.0003777-0.056221-0.000742-0.1124363-0.0011063-0.1686535
		c0.4050617-0.5465984,1.0861778-0.5971355,1.6380234-0.8444233c1.4375572-0.6441822,2.709198-1.6017628,4.1897202-2.1525707
		c0.0574112,0.000555,0.1148262,0.001091,0.1722412,0.0016308c-0.3437042,0.7013359-1.1083298,0.8105602-1.6848526,1.1786957
		C33.2912903,22.5173721,32.5567665,22.6964359,32.0736008,23.2783756z"/>
	<path style="fill:#741E17;" d="M33.0584183,23.7445164c-0.1931839,0.0380325-0.380722,0.055315-0.5107155-0.1390705
		c1.0907593-0.3780384,1.8062172-1.4552116,3.0127068-1.6175079c-0.0741425,0.4881153-0.3904305,0.7214432-0.8289413,0.9047184
		C34.1556854,23.1333046,33.6144905,23.4567051,33.0584183,23.7445164z"/>
	<path style="fill:#F57254;" d="M35.5806847,20.952652c-0.057415-0.0005398-0.11483-0.0010757-0.1722412-0.0016308
		c1.1594658-0.7560425,2.4563942-1.2163658,3.7135315-1.76474C38.0003319,19.8981457,37.0037727,20.8625488,35.5806847,20.952652z"
		/>
	<path style="fill:#EA522F;" d="M29.5806999,23.9480152c0.0003643,0.0562172,0.0007286,0.1124325,0.0011063,0.1686535
		c-0.9842396,0.8073273-2.0691566,1.4130402-3.3314857,1.6634178C27.2723465,25.0092392,28.402607,24.435154,29.5806999,23.9480152z
		"/>
	<path style="fill:#F26546;" d="M37.0757523,19.1226025c0.3970718-0.150795,0.7941437-0.3015919,1.1912193-0.4523869
		c0.0353622,0.0617981,0.0707207,0.1235962,0.1060829,0.1853943c-0.3425484,0.3448181-0.7524071,0.581461-1.2992592,0.597929
		C37.0744476,19.3432293,37.0750999,19.2329159,37.0757523,19.1226025z"/>
	<path style="fill:#F57254;" d="M37.0757523,19.1226025c-0.0006523,0.1103134-0.0013046,0.2206268-0.0019569,0.3309364
		c-0.0641441,0.1591415-0.1743317,0.2715302-0.3364372,0.3312035c0.0011635-0.1107807,0.0023651-0.2215347,0.0035744-0.3323078
		C36.8048096,19.2940216,36.9151001,19.1827488,37.0757523,19.1226025z"/>
	<path style="fill:#F26546;" d="M39.5261002,18.8514919c0.0463943,0.0203266,0.1178818,0.0304718,0.1315155,0.0640812
		c0.0131798,0.0324936-0.0233002,0.1154861-0.0562172,0.1279011c-0.033802,0.0127468-0.1154366-0.0228825-0.128643-0.056181
		C39.4596558,18.954277,39.5057526,18.8977757,39.5261002,18.8514919z"/>
	<path style="fill:#F26546;" d="M39.2667961,18.3313255c0.0057907,0.020649,0.0218201,0.0544815,0.0154305,0.0594387
		c-0.0182266,0.0141468-0.0455704,0.0165501-0.0693245,0.023571c-0.0057869-0.0207195-0.0218544-0.054615-0.0154076-0.0596504
		C39.2156296,18.3405342,39.2430458,18.3382759,39.2667961,18.3313255z"/>
	<path style="fill:#F5765A;" d="M43.5587273,17.4014053c-0.2982025,0.3989601-0.6856155,0.3934402-1.0648956,0.4059048
		C42.7726059,17.5728664,43.0070343,17.2404938,43.5587273,17.4014053z"/>
	<path style="fill:#D66043;" d="M39.385376,23.9078465c0.0183182-0.1256847,0.0584068-0.2371464,0.1891327-0.2893963
		C39.5670319,23.7512341,39.5648232,23.8874645,39.385376,23.9078465z"/>
	<path style="fill:#F26546;" d="M32.8790474,27.7928524c-0.1371155-0.0661449-0.1396828-0.1927242-0.1432266-0.3188438
		c-0.0343361-0.5183144,0.4814682-0.3143253,0.7099304-0.4898682c1.3826866-1.0624046,2.8407249-2.0267925,4.2764015-3.019865
		c0.0379105-0.0262241,0.1079597-0.0059986,0.1630135-0.0073624c0.2155609,0.109005,0.1405487,0.3171921,0.1674309,0.49049
		c-1.5654488,0.9227962-3.1188774,1.8638458-4.5127449,3.0405025
		C33.3438416,27.6533699,33.1326942,27.7634125,32.8790474,27.7928524z"/>
	<path style="fill:#683A35;" d="M31.5762196,28.4532757c-0.0494995-0.0582161-0.0990028-0.1164303-0.1483898-0.1746178
		c-0.0942516-0.3861046-0.6482677-0.7932072-0.1729298-1.1492271c0.4712162-0.3529224,0.8001919,0.1904907,1.1438198,0.4561977
		c0.3304405,0.5988026-0.6109104,0.4579773-0.5302982,0.9117432C31.7709675,28.4827747,31.6735935,28.4680271,31.5762196,28.4532757
		z"/>
	<path style="fill:#F26546;" d="M24.0897942,26.4318485c0.8355999-0.0106144,1.6711979-0.0212307,2.5067348-0.0316849
		c0.3262043,0.0309277,0.6524658,0.0616989,0.9787292,0.0924664c-1.4947796,0.1778412-2.9886017,0.2472019-4.4791775-0.0394039
		C23.427393,26.4461327,23.7585945,26.4389896,24.0897942,26.4318485z"/>
	<path style="fill:#741E17;" d="M27.5752583,26.49263c-0.3262634-0.0307674-0.6525249-0.0615387-0.9787292-0.0924664
		c0.0005035-0.1127911,0.0009422-0.2254181,0.0014362-0.3383236c0.5967979,0.1342411,1.1960354,0.24683,1.8126698,0.2056522
		c-0.0131721,0.1613674-0.0262775,0.3227978-0.0396595,0.4840279c-0.0960865,0.0046673-0.1918964,0.0095348-0.2877121,0.0143185
		C27.9139271,26.6747112,27.7445927,26.5836716,27.5752583,26.49263z"/>
	<path style="fill:#EA522F;" d="M21.690012,29.2628403c0.9396648-0.3986855,1.9377499-0.5005703,2.9507256-0.5350399
		C23.6927528,29.0743618,22.796917,29.6525307,21.690012,29.2628403z"/>
	<path style="fill:#EA522F;" d="M25.1154633,28.2823505c0.0881176,0.0436363,0.1908779,0.0611038,0.2093964,0.1102905
		c0.0459766,0.1221046-0.0447121,0.1933689-0.1567707,0.1872005c-0.058712-0.0032291-0.1432037-0.0652542-0.1606007-0.1187572
		C24.9944878,28.4210949,25.0702419,28.3522434,25.1154633,28.2823505z"/>
</g>
</svg>
