<?xml version="1.0" encoding="utf-8"?>
<!-- Generator: Adobe Illustrator 21.1.0, SVG Export Plug-In . SVG Version: 6.00 Build 0)  -->
<svg version="1.1" id="Слой_1" xmlns="http://www.w3.org/2000/svg" xmlns:xlink="http://www.w3.org/1999/xlink" x="0px" y="0px"
	 viewBox="0 0 55 45" style="enable-background:new 0 0 55 45;" xml:space="preserve">
<g>
	<path style="fill:#41463C;" d="M25.0042763,11.4857063c0.4429684-0.5695829,1.1539764-0.927021,1.343647-1.6973352
		c0.128952,0.6868572,0.0287228,1.3856621-0.0299377,2.0578556c-0.1241837,1.4229698-0.0779552,2.8411608-0.0287914,4.2560396
		c0.1059189,3.0482521,0.2867966,6.0939827,0.4462795,9.1402569c0.0700493,1.3379841,0.1691895,2.6744232,0.2438412,4.0121937
		c0.1428471,2.5598602,0.4613571,5.1094036,0.4513588,7.6782055c-1.2089405,0-2.4178829,0-3.6268234,0
		c-0.1816578-0.2600555-0.1440334-0.5564575-0.1380291-0.8466377c0.0507164-2.4501305,0.3511524-4.8830509,0.5154572-7.3254509
		c0.0860653-1.2793961,0.1539192-2.5603828,0.2534733-3.8382339c0.1569633-2.0147095,0.316185-4.0287228,0.4389629-6.0460739
		c0.1003075-1.6481247,0.2657185-3.2922029,0.3771229-4.9397755c0.0468826-0.6933498,0.1901417-1.3951206-0.0288582-2.2629776
		c-0.1224308,0.313797-0.200882,0.4647913-0.2408619,0.6253643c-0.286478,1.1506071-0.5530663,2.3062658-0.8486061,3.4544973
		c-0.7898655,3.0688066-1.5957832,6.1334867-2.3814259,9.2033663c-0.0906277,0.3541279-0.4986172,0.5503979-0.4187908,0.9855366
		c0.0639801,0.3487854-0.0477352,0.6929493-0.1404076,1.0320702c-0.4544449,1.6629734-0.9119034,3.3251743-1.3555088,4.9910507
		c-0.4403496,1.6536465-0.865469,3.3113422-1.2972679,4.9672642c-4.3741894,0-8.7483864-0.0036469-13.1225491,0.0071793
		C5.0794072,36.940937,4.9500165,36.90028,4.9557724,36.5066795c0.0270014-1.8464851,0.0120034-3.6935844,0.0120034-5.5404625
		c0.1932888-0.0273361,0.2877097-0.1884975,0.4097023-0.3087616c0.6927223-0.6829071,1.3594894-1.3941975,2.0546269-2.0714912
		c3.093154-3.0137482,6.2313967-5.9811535,9.3389139-8.9802589c1.1468563-1.1068459,2.2861099-2.2212563,3.4004173-3.3633347
		c1.2582798-1.2896376,2.5381508-2.5534267,3.6651382-3.9623995c0.1630116-0.4895554,0.8017139-0.4118338,1.0103054-0.8470869
		C24.8797855,11.5089674,24.9278126,11.5397139,25.0042763,11.4857063z"/>
	<path style="fill:#C74F05;" d="M27.4306736,36.9329224c0.0099983-2.5688019-0.3085117-5.1183453-0.4513588-7.6782055
		c-0.0746517-1.3377705-0.1737919-2.6742096-0.2438412-4.0121937c-0.159483-3.0462742-0.3403606-6.0920048-0.4462795-9.1402569
		c-0.0491638-1.4148788-0.0953922-2.8330698,0.0287914-4.2560396c0.0586605-0.6721935,0.1588898-1.3709984,0.0299377-2.0578556
		c0.0875092-0.0613422,0.1986313-0.10394,0.1931877-0.2403917c0.6351204-0.2467957,0.699831,0.2999134,0.8682423,0.6512356
		c0.694643,1.4490557,1.3147163,2.93647,2.0629482,4.3567085c1.842701,3.497694,3.9751053,6.821722,6.3102226,10.0081387
		c1.3626671,1.8594532,2.6933861,3.7434883,4.0673523,5.5952301c1.0592155,1.4275417,2.0583153,2.9101124,3.1295509,4.3359814
		c0.6168022,0.8209915,1.3426514,1.5578041,1.8833885,2.4376488C39.0521049,36.9329224,33.2413864,36.9329224,27.4306736,36.9329224
		z"/>
	<path style="fill:#ABAEA4;" d="M23.8365746,12.2799711c-1.1269875,1.4089727-2.4068584,2.6727619-3.6651382,3.9623995
		c-1.1143074,1.1420784-2.253561,2.2564888-3.4004173,3.3633347c-3.1075172,2.9991055-6.24576,5.9665108-9.3389139,8.9802589
		c-0.6951375,0.6772938-1.3619046,1.3885841-2.0546269,2.0714912c-0.1219926,0.1202641-0.2164135,0.2814255-0.4097023,0.3087616
		c0-5.459734,0-10.9194641,0-16.3791962c0.795661,0.0203838,1.5571704-0.206563,2.3212519-0.368824
		c0.3749866-0.0796328,0.8315482-0.094842,1.0952325-0.479661c0.0622435-0.0001841,0.1244869-0.00037,0.1867304-0.0005569
		c0.265419,0.2409763,0.9468088,0.2170076,1.1894093-0.0418396c0.1086044-0.1521711,0.2734861-0.1233444,0.4260588-0.1310072
		c1.0691795-0.0537043,2.1379175-0.1313181,3.2077551-0.1521845c0.9278698-0.018096,1.8513498-0.1102915,2.7844839-0.1040831
		c0.678297,0.0045147,1.4059219-0.1846695,2.1154099-0.2709007c1.6135769-0.1961107,3.2507706-0.2576036,4.8086109-0.793623
		C23.3577385,12.0419998,23.5964489,12.1755772,23.8365746,12.2799711z M7.6675301,14.40874
		c-0.1910005,0.0300999-0.3820014,0.0601997-0.6995668,0.1102438C7.2984891,14.5978899,7.4943819,14.6333113,7.6675301,14.40874z
		 M5.8209872,14.9243994c0.0448651-0.0625391,0.0757813-0.101099,0.0982456-0.1440763
		c0.0022068-0.0042229-0.0541744-0.0560408-0.0717583-0.0502901c-0.043797,0.0143232-0.0808973,0.0491209-0.1206865,0.0756989
		C5.7534075,14.8392649,5.7800264,14.8727989,5.8209872,14.9243994z M5.4578996,16.4027767
		c0.0125957-0.0290852,0.0417614-0.0651493,0.0332561-0.0853481c-0.0090079-0.0213928-0.0538406-0.0276985-0.0830264-0.0405941
		c-0.0123382,0.0288601-0.0410728,0.0646954-0.0325675,0.0846863C5.3847208,16.3830471,5.4287815,16.3897228,5.4578996,16.4027767z
		 M5.9356003,16.2744961c-0.0143857-0.0053444-0.0287714-0.0106888-0.0431571-0.0160332
		c-0.0045252,0.0131416-0.0165071,0.0330467-0.0120111,0.038002c0.0091386,0.0100727,0.0271797,0.0120697,0.0415516,0.0173931
		C5.9265227,16.3007374,5.9310613,16.2876167,5.9356003,16.2744961z"/>
	<path style="fill:#BAB164;" d="M44.8628159,36.9329224c-0.5407372-0.8798447-1.2665863-1.6166573-1.8833885-2.4376488
		c-1.0712357-1.425869-2.0703354-2.9084396-3.1295509-4.3359814c-1.3739662-1.8517418-2.7046852-3.7357769-4.0673523-5.5952301
		c-2.3351173-3.1864166-4.4675217-6.5104446-6.3102226-10.0081387c-0.7482319-1.4202385-1.3683052-2.9076529-2.0629482-4.3567085
		c-0.1684113-0.3513222-0.2331219-0.8980312-0.8682423-0.6512356c-0.1629238-0.3229008,0.1061974-0.4367037,0.3012352-0.5155735
		c0.2099285-0.0848913,0.2922211,0.1469812,0.3710136,0.2897587c0.8004608,1.4504747,1.7077789,2.8368855,2.6682873,4.180479
		c0.8114853,1.1351337,1.7118244,2.2146139,2.6468487,3.252018c2.3487434,2.6059113,5.042881,4.84058,7.6945953,7.1256161
		c0.8708611,0.7504387,1.8594093,1.3364868,2.6817398,2.1330032c0.2126541,0.2059803,0.5775108,0.1477928,0.7087593,0.4584713
		c-0.1179352,0.0457802-0.2825546,0.0541744-0.1213074,0.2513752c0.1651726,0.201992,0.3041611,0.4253941,0.4546089,0.6394253
		c1.2581177,1.4093533,2.7367973,2.5924664,4.0511322,3.9443836c0.0629272,0.0647278,0.1707268,0.0858326,0.2576256,0.1272564
		c0,1.7159157-0.008152,3.4319077,0.0078621,5.1476746c0.0027313,0.2928658-0.0655861,0.3651237-0.3590088,0.3590851
		C46.8909836,36.9200974,45.8767662,36.9329224,44.8628159,36.9329224z"/>
	<path style="fill:#3B6BB9;" d="M18.5391102,36.9329224c0.4317989-1.6559219,0.8569183-3.3136177,1.2972679-4.9672642
		c0.4436054-1.6658764,0.9010639-3.3280773,1.3555088-4.9910507c0.0926723-0.3391209,0.2043877-0.6832848,0.1404076-1.0320702
		c-0.0798264-0.4351387,0.3281631-0.6314087,0.4187908-0.9855366c0.7856426-3.0698795,1.5915604-6.1345596,2.3814259-9.2033663
		c0.2955399-1.1482315,0.5621281-2.3038902,0.8486061-3.4544973c0.0399799-0.160573,0.1184311-0.3115673,0.2408619-0.6253643
		c0.2189999,0.867857,0.0757408,1.5696278,0.0288582,2.2629776c-0.1114044,1.6475725-0.2768154,3.2916508-0.3771229,4.9397755
		c-0.1227779,2.0173512-0.2819996,4.0313644-0.4389629,6.0460739c-0.0995541,1.2778511-0.167408,2.5588379-0.2534733,3.8382339
		c-0.1643047,2.4424-0.4647408,4.8753204-0.5154572,7.3254509c-0.0060043,0.2901802-0.0436287,0.5865822,0.1380291,0.8466377
		C22.0489368,36.9329224,20.2940235,36.9329224,18.5391102,36.9329224z"/>
	<path style="fill:#41463C;" d="M43.9468918,27.3625526c-0.1504478-0.2140312-0.2894363-0.4374332-0.4546089-0.6394253
		c-0.1612473-0.1972008,0.0033722-0.205595,0.1213074-0.2513752c0.2031288,0.1191368,0.4059715,0.2382622,0.6087151,0.3570957
		c0.042202,0.1223488,0.1271782,0.1807556,0.2575188,0.1708813l0.0268173,0.0223255
		c0.0500069,0.1619701,0.176445,0.2094784,0.3284874,0.218523c0.3128815,0.2570496,0.662674,0.4536114,1.0268326,0.6263809
		c0.0479622,0.1288891,0.135685,0.1942158,0.2775154,0.1726665c0.0604095,0.0290451,0.1208115,0.0580902,0.1811485,0.0868397
		c0.0492668,0.1229401,0.1356506,0.1858273,0.2722702,0.1668606c0.3105698,0.2297592,0.6516037,0.4012184,1.0147667,0.5299339
		c0.1682243,0.2041359,0.3720703,0.3236427,0.6479874,0.2710495c0,0.3899803,0,0.7799606,0,1.1699409
		c-0.9203033-0.5902767-1.7858467-1.2586002-2.6819534-1.8814106C45.052597,28.020668,44.6485825,27.4427872,43.9468918,27.3625526z
		"/>
	<path style="fill:#C74F05;" d="M43.9468918,27.3625526c0.7016907,0.0802345,1.1057053,0.6581154,1.6268044,1.0202866
		c0.8961067,0.6228104,1.7616501,1.2911339,2.6819534,1.8814106c0,0.3899803,0,0.7799625,0,1.1699429
		c-0.0868988-0.0414238-0.1946983-0.0625286-0.2576256-0.1272564C46.6836891,29.955019,45.2050095,28.7719059,43.9468918,27.3625526
		z"/>
	<path style="fill:#ABAEA4;" d="M48.2556496,29.0943089c-0.2759171,0.0525932-0.479763-0.0669136-0.6479874-0.2710495
		c0.2249107-0.1442833,0.4317856,0.0287151,0.6479874,0.0370598C48.2556496,28.9383163,48.2556496,29.0163116,48.2556496,29.0943089
		z"/>
	<path style="fill:#ABAEA4;" d="M44.8351288,27.2405777c-0.1520424-0.0090446-0.2784805-0.0565529-0.3284874-0.218523
		C44.6913567,26.9819679,44.8391037,26.9971581,44.8351288,27.2405777z"/>
	<path style="fill:#ABAEA4;" d="M44.4798241,26.9997292c-0.1303406,0.0098743-0.2153168-0.0485325-0.2575188-0.1708794
		C44.3887901,26.7643986,44.4845428,26.8062534,44.4798241,26.9997292z"/>
	<path style="fill:#ABAEA4;" d="M46.1394768,28.0396252c-0.1418304,0.0215492-0.2295532-0.0437775-0.2775154-0.1726665
		C46.0261154,27.8093853,46.1218872,27.8616047,46.1394768,28.0396252z"/>
	<path style="fill:#ABAEA4;" d="M46.5928955,28.2933254c-0.1366196,0.0189667-0.2230034-0.0439205-0.2722702-0.1668606
		C46.4945374,28.0464687,46.5855484,28.1015377,46.5928955,28.2933254z"/>
	<path style="fill:#3B6BB9;" d="M25.0042763,11.4857063c-0.0764637,0.0540075-0.1244907,0.0232611-0.1573963-0.0528221
		C24.8992939,11.4504671,24.9517841,11.4680872,25.0042763,11.4857063z"/>
	<path style="fill:#D5D7CA;" d="M7.6675301,14.40874c-0.1731482,0.2245712-0.369041,0.1891499-0.6995668,0.1102438
		C7.2855287,14.4689398,7.4765296,14.4388399,7.6675301,14.40874z"/>
	<path style="fill:#D5D7CA;" d="M5.8209872,14.9243994c-0.0409608-0.0516005-0.0675797-0.0851345-0.0941992-0.1186676
		c0.0397892-0.0265779,0.0768895-0.0613756,0.1206865-0.0756989c0.0175838-0.0057507,0.0739651,0.0460672,0.0717583,0.0502901
		C5.8967686,14.8233004,5.8658524,14.8618603,5.8209872,14.9243994z"/>
	<path style="fill:#D5D7CA;" d="M5.4577575,16.4028244c-0.028976-0.0131016-0.0730367-0.0197773-0.0821958-0.0413036
		c-0.0085053-0.0199909,0.0202293-0.0558262,0.0325675-0.0846863c0.0291858,0.0128956,0.0740185,0.0192013,0.0830264,0.0405941
		C5.499661,16.3376274,5.4704952,16.3736916,5.4577575,16.4028244z"/>
	<path style="fill:#D5D7CA;" d="M5.9356003,16.2744942c-0.004539,0.0131226-0.0090775,0.0262432-0.0136166,0.0393639
		c-0.0143719-0.0053234-0.032413-0.0073204-0.0415516-0.0173931c-0.0044961-0.0049553,0.0074859-0.0248604,0.0120111-0.038002
		C5.9068289,16.2638073,5.9212146,16.2691517,5.9356003,16.2744942z"/>
</g>
</svg>
