<?xml version="1.0" encoding="utf-8"?>
<!-- Generator: Adobe Illustrator 21.1.0, SVG Export Plug-In . SVG Version: 6.00 Build 0)  -->
<svg version="1.1" id="Слой_1" xmlns="http://www.w3.org/2000/svg" xmlns:xlink="http://www.w3.org/1999/xlink" x="0px" y="0px"
	 viewBox="0 0 55 45" style="enable-background:new 0 0 55 45;" xml:space="preserve">
<g>
	<path style="fill:#9BE76E;" d="M50.4500427,13.6780682c-0.0023499,0.3698759-0.0046997,0.7397518-0.0068741,1.1092939
		c-0.2052422,0.196063-0.1393776,0.4401608-0.1188011,0.6762953c-0.0810127,0.1982927-0.1620293,0.3965864-0.2426872,0.594593
		c-0.2114601,0.173254-0.3206558,0.3953819-0.3173828,0.6707687c-0.0059967,0.2615242-0.0119972,0.5230503-0.0179138,0.7844009
		c-0.3438416,0.4263706-0.7771187,0.8089218-0.708252,1.4386711c-0.043663,0.1987762-0.0482254,0.414896-0.2420616,0.546875
		c-0.4574051,0.0501785-0.6118469,0.4275837-0.6469574,0.7674236c-0.0998268,0.9664288-0.4571381,1.864872-0.6738091,2.7986794
		c-0.1326981,0.5718727-0.0557442,0.9996738,0.3853951,1.3687c0.0269127,0.0764275,0.0538292,0.152853,0.0806351,0.2287712
		c0.0551033,0.5095959,0.4023132,0.8527184,0.7002029,1.2240391c0.0680428,0.1417503,0.1360855,0.2835007,0.2039909,0.4248142
		c-0.010788,0.1318684,0.0236931,0.2421417,0.1501961,0.3074799c0.0703201,0.144165,0.1406479,0.288332,0.2108879,0.4319077
		c0.004734,0.0593433,0.0333061,0.1041584,0.0856476,0.1338596c0.0380592,0.1313171,0.0761147,0.2626286,0.1140671,0.3934155
		c-0.0250664,0.1369972,0.0105743,0.2469444,0.142601,0.3130188c0,0,0.0261192,0.0545101,0.0260963,0.05406
		c0.0301437,0.0530624,0.060318,0.1065731,0.0904884,0.1600838c0.0274887,0.071537,0.0549774,0.1430721,0.0824661,0.2141113
		c-0.0259972,0.3263531,0.0944138,0.6023026,0.295742,0.8501205c0.0456924,0.2505493,0.0913849,0.5010967,0.1367073,0.7513561
		c0.03125,0.0543652,0.0628853,0.1090221,0.0945244,0.163681c0,0,0.0236626,0.0480938,0.0236778,0.0477238
		c-0.0030212,0.2387848-0.0769806,0.4952316,0.1646309,0.6747341c0.025795,0.4322701,0.0515862,0.8645382,0.0770912,1.2965469
		c-0.0290947,0.2691803-0.0454216,0.5406532-0.0888596,0.8077202c-0.1994553,1.226181-0.9193306,2.1254311-1.8747292,2.2822342
		c-1.8132095,0.2975883-3.6542168,0.217598-5.4786835,0.3697815c-1.063961-0.2583046-2.1278954-0.5221519-3.1920662-0.0009422
		c0.1228752-0.2860184,0.2903442-0.4597282,0.6287155-0.5703506c0.8393021-0.2743874,1.6946907-0.6354866,2.238266-1.3456421
		c1.3594551-1.776062,2.7747726-3.5064354,3.388195-5.7627144c0.2247391-0.8266239,0.4861717-1.6555271,0.7086601-2.4932957
		c0.2208252-0.8315029-0.0116386-1.7160244,0.3125992-2.5076504c0.335556-0.8192635-0.0598564-1.4568481-0.3501129-2.1472092
		c-0.0866051-0.2059784-0.1382294-0.4033642-0.3862-0.4418125c-0.1819839-0.0282154-0.3130989,0.0786247-0.3065948,0.2465782
		c0.0343018,0.8860416-0.3292503,1.6876678-0.4895058,2.5198078c-0.3100243,1.6097374-0.3284874,3.2015953-1.1508102,4.7649136
		c-1.0724411,2.038805-2.7770767,3.2148762-4.6170616,4.2769299c-1.0531311,0.6078796-2.3242798,0.5754318-3.543869,0.5651016
		c-0.4125252-0.0034943-0.6493835-0.4696312-1.0986443-0.3136368c-0.6138725,0.2131424-1.1902924-0.0299911-1.7153625-0.2861671
		c-0.4207306-0.2052689-0.8169594-0.3537369-1.2872658-0.3311348c-0.4178886,0.0200882-0.8344364,0.0587711-1.1436043-0.3711929
		c-0.1966686-0.2735081-0.587986-0.2411232-0.8409462-0.1095657c-0.297348,0.1546459-0.2375717,0.4483356-0.0128021,0.6832294
		c-0.1059761,0.2974873-0.0701447,0.7044964-0.5505295,0.712801c0.1079674-1.5246201,0.021553-1.6618958-1.0659447-1.6933117
		c-0.092144-0.2212696-0.1964741-0.3876972-0.4039974-0.0897789c-0.9105263-0.4459362-1.8586407-0.7554989-2.881422-0.7941494
		c-0.2286758-0.5009823-0.7099457-0.4377575-1.1320019-0.5067959c-1.3274784-0.3409176-2.6549568-0.6818314-3.9824352-1.022747
		c-0.4344196-0.4357681-0.6977997-0.0834064-0.6818924,0.2664032c0.0321121,0.7061443-0.3933334,1.2414207-0.5320816,1.8736439
		c-0.2517471,0.2672539-0.2650375,0.6924324-0.5996208,0.904789c-0.0935402,0.0003815-0.1868286,0.0009632-0.280117,0.001545
		c0.051897-0.5780659,0.4881077-0.9679756,0.7212734-1.4581814c0.8735809-1.8366032,0.3325996-4.4862194-1.1745949-5.6125183
		c-0.6614189-0.5585346-1.4104939-0.5157452-2.1821432-0.3180904c-0.2065191,0.0100403-0.4286423,0.0748749-0.6170244,0.021225
		c-1.2313528-0.350668-2.4852123-0.5349541-3.7625732-0.5748596c-0.892971-0.2706528-1.7725563-0.6066608-2.6827774-0.7931042
		c-0.8658738-0.1773548-1.8006873-0.3689575-2.4730077,0.5176411c-0.0452914,0.0031853-0.0894752-0.0023956-0.1325521-0.0167484
		c0.2697673-0.8325329,0.888916-1.0678501,1.6911769-0.9877758c2.2625875,0.225811,4.438612,0.9188728,6.6854391,1.2394428
		c0.728034,0.1038723,1.4466314,0.0901184,2.171361,0.0947819c0.1858292,0.0973816,0.3780766,0.1528397,0.5880051,0.1994743
		c2.3269978,0.5169659,4.6372471,1.0965958,6.8495064,2.0071259c0.5585423,0.8325043,1.5553913,0.7144356,2.340332,1.0448723
		c0.6627064,0.2789803,1.3759842,0.6842251,2.1477108,0.1274738c0.2392139-0.1725731,0.4779987,0.1053963,0.6846733,0.2963638
		c0.4258194,0.3934536,0.9006863,0.6233292,1.4564056,0.2151966c1.3685913,1.719492,3.2519302,2.7083244,5.3289299,2.9409218
		c2.0212479,0.2263527,3.7347374-0.7976303,5.1235199-2.3440704c0.5933418-0.6606941,1.033638-1.4075928,1.5619049-2.1013298
		c0.4538231,0.2529812,0.6574211,0.0821419,0.7314453-0.3978825c0.1969032-1.2768555,0.7665329-2.4885273,1.305645-3.5812283
		c0.838089-1.6986752,0.3323059-3.2150879-0.0154305-4.7356701c-0.3192368-1.3959703-1.4791145-2.4377079-2.2240868-3.6621094
		c-0.300106-0.4932461-0.5993767-0.6109209-1.0889664-0.3896227c-0.1751251-0.092577-0.3320656-0.2566795-0.5597992-0.1423149
		l-0.015255-0.0154047c-0.002121-0.5420589-0.3446732-0.5722389-0.7542572-0.5016365
		c-0.2116356-0.0922909-0.4232674-0.1845818-0.6349068-0.2768726c-0.0598183-0.1011992-0.1382828-0.1472883-0.2531891-0.0856409
		c-0.4230804-0.1791344-0.8628731-0.2608385-1.3232422-0.2912388c-3.6613235-0.2417746-5.9660206,1.9853277-7.6202965,4.7211542
		c-0.8771057,1.4505539-1.2201748,3.3689384-1.2258549,5.2299442c-0.0048237,1.5814915,0.5737324,2.9966469,0.9420185,4.4756031
		c-0.598856-0.5229244-0.7608433-1.2564621-0.9443436-1.9764404c-0.1779251-0.6980972-0.2524662-1.4370575-0.5273685-2.0931473
		c-0.7561951-1.8047485-0.7131939-3.7119064,0.0653801-5.3356934c0.9495468-1.9803591,2.1554775-3.9393778,4.0787029-5.209693
		c0.5758667-0.3803663,0.4975052-0.6742468,0.2353783-1.1184607c0.1851082-0.1462822,0.3702202-0.2925644,0.5454521-0.431036
		c-0.8015976-0.471076-1.6029644-0.526063-2.4577789-0.2570419c-0.3912621,0.1231356-0.8234863,0.1161146-1.237133,0.1681223
		c-0.3603935,0.0057096-0.3835983-0.6492624-0.9082508-0.4030256c-1.4547215,0.6827536-2.9560928,1.259943-3.9998856,2.596735
		c-0.3150177,0.4034481-0.7430325,0.76546-1.2695923,0.9374542c-0.0368767-0.2542906-0.0835361-0.5008116-0.4160137-0.5175438
		c-0.0278702-0.0184984-0.0556126-0.0371847-0.0832291-0.0560589c-0.3579826-0.2480783-0.7383671-0.3286381-1.1528587-0.1541872
		c-0.5358181-0.0521202-1.07164-0.1042423-1.60746-0.1563635c-0.0933418-0.4365797-0.3656635-0.8634787-0.0710411-1.3209534
		c0.4567089-0.7549906,0.9821472-1.4742947,1.2135143-2.3456764c0.5160904-0.1767845,0.6483326-0.7415342,0.5632553-1.0536122
		c-0.0903969-0.3315806-0.6094093-0.1744084-0.9678707-0.0723019c-0.1851845,0.0527506-0.4070396-0.0232162-0.6123238-0.0410275
		c0.2535591-0.4583292,0.75103-0.3795247,1.1473484-0.5287423c0.470726-0.1772327,0.9174728-0.4041672,1.2333488-0.8208838
		c0.252634,0.7789874,0.8082561,0.6905828,1.4035206,0.4884109c0.1273003,0.4292469,0.4717808,0.4128213,0.8120518,0.3873205
		c1.0294418-0.077147,1.8593025-0.6489444,2.7326241-1.1121874c0.3884945-0.0615673,0.4027557-0.2939944,0.2223549-0.5598965
		c-0.2440338-0.3596988-0.1738281-0.7092776-0.0310364-1.0701118c1.1050644-0.455693,2.2083893-0.1121469,3.2794933,0.0917463
		c2.9953079,0.5701818,5.264286,2.3241501,7.1382561,4.6404829c0.3147812,0.3890915,0.6251755,0.6854887,1.1235771,0.8348112
		c3.3633499,1.0076666,5.5840645,3.2510977,6.8815346,6.4635801c0.0843925,0.2089558,0.1434593,0.3974819,0.3985748,0.4270554
		c0.0328445,0.5541973,0.5976028-0.0424309,0.7587852,0.3555031c0.0698357,0.1724205,0.3869324,0.4092216,0.5922432,0.1690884
		c0.2037735-0.2383232,0.1756973-0.7193432-0.0528069-0.8250904c-0.5903206-0.2731781-0.8034019-0.9212303-1.3546104-1.2008238
		c-0.0866699-0.8870163-0.6512794-1.8179712,0.4668579-2.5577707c0.23703-0.1568251,0.0847893-0.9129343,0.0968628-1.3933105
		c0.004673-0.1859751-0.1914177-0.428031,0.1452408-0.5020533c0.3555222-0.0781689,0.4507141,0.2335243,0.4094429,0.4320812
		c-0.1121826,0.53967,0.4595413,0.9416466,0.2488937,1.4771652c0.003006,0.1420565-0.0287323,0.2976332,0.0168114,0.4257317
		c0.0623932,0.1754932,0.4969254-0.0014896,0.3914833,0.3427315c-0.0614395,0.2005959-0.2976379,0.1730328-0.4729538,0.1393261
		c-0.1612816-0.0310125-0.2769623-0.0567245-0.3102455,0.1639328c-0.0412064,0.2732229,0.0034523,0.4767399,0.3068542,0.5462875
		l0.0370255,0.0335083l-0.0320091-0.0384798c-0.1635017-0.6461897,0.282753-0.569149,0.6754265-0.5838938
		c0.3258591-0.0122385,0.7499313,0.2257128,0.9275856-0.2480965c0.1801872-0.480545-0.2024574-0.6793394-0.5279236-0.887764
		c-0.2551537-0.3838215-0.2521019-0.776927-0.0197296-1.1641579c0.0581627-0.0969229,0.207489-0.1926222,0.2822266-0.0461082
		c0.1781044,0.3491354,0.6259346,0.5736713,0.4991035,1.0704508c-0.028244,0.1106215,0.0059929,0.237196,0.0114059,0.3567543
		C49.6910515,13.3735361,50.1781158,13.4082956,50.4500427,13.6780682z M36.4319305,9.6668062
		c0.4567451-0.0644045,0.3679237-0.3659353,0.2815933-0.659071C36.562851,8.49613,36.187809,8.3428116,35.6958504,8.384038
		c-0.1798439-0.1736174-0.3596878-0.3472338-0.5395317-0.5208497C35.13517,7.389411,34.7907372,7.1147676,34.4187889,7.0645828
		c-0.7592545-0.1024399-1.2193298-0.7295938-1.9414978-0.9329109c-1.186285-0.3339839-2.3339081-0.7370591-3.5980701-0.5908022
		c0.0000229,0.4074183,0.2530422,0.5293369,0.4697399,0.6793256c0.0854168,1.2446771,0.8737431,2.1816297,2.089222,2.5101428
		c0.7752113,0.2095194,1.5634766,0.3536711,2.2997742,0.7252808c0.4291115,0.2165709,0.9608574,0.4044352,1.4531822,0.038228
		C35.5685043,9.8114185,36.0068207,9.6917248,36.4319305,9.6668062z M39.7908096,11.2562389
		c0.0165138-0.0800018,0.0330315-0.1600027,0.0495491-0.2400026c-0.3248329-0.1456041-0.6384926-0.3280563-0.9763947-0.4305935
		c-1.6827126-0.5106182-3.196228,0.1015387-4.7073479,0.7335348c-0.4840508,0.2024441-0.877491,0.4978495-1.1906548,0.9182119
		c-0.0975609,0.1309538-0.200428,0.2501307-0.0841064,0.3904943c0.1405029,0.1695442,0.2629051,0.0086641,0.3848343-0.064846
		c1.1697655-0.7052422,2.4076614-1.1995316,3.7777481-1.38515C37.9672585,11.052866,38.875721,11.2007952,39.7908096,11.2562389z
		 M49.8627167,31.9648495c-0.156292,0.4492016-0.6492195,0.8781452-0.1346092,1.4044285
		C50.0256538,32.928627,49.9082832,32.4459038,49.8627167,31.9648495z"/>
	<path style="fill:#5CC828;" d="M30.4408379,27.5931931c-0.5557194,0.4081326-1.0305862,0.178257-1.4564056-0.2151966
		c-0.2066746-0.1909676-0.4454594-0.4689369-0.6846733-0.2963638c-0.7717266,0.5567513-1.4850044,0.1515064-2.1477108-0.1274738
		c-0.7849407-0.3304367-1.7817898-0.212368-2.339962-1.0448723c1.0419292-0.2237148,2.0178509,0.1127796,3.0190125,0.3099861
		c0.4327049,0.0852318,1.2100925,0.2934303,1.2961025-0.1842251c0.1062489-0.5900364-0.5484753-0.9919987-1.1313725-1.2217464
		c-0.0805683-0.0317612-0.1898232,0.0090904-0.2702446-0.0228443c-1.4243202-0.5655823-3.0445538-0.541853-4.3557949-1.4513836
		c-0.2001572-0.1388359-0.4492016-0.2581081-0.6763973-0.074646c-0.3135986,0.253231-0.3903084,0.1149578-0.6723099-0.1391068
		c-0.8122997-0.731823-1.5285358-1.7654953-2.9008961-1.4400482c-0.2111568,0.0500755-0.4652882-0.1124477-0.7037716-0.1398258
		c-0.5324211-0.061121-0.9570885-0.0992603-0.8097725,0.7362556c0.0578957,0.3283749,0.3020992,0.9090405-0.2263374,1.2218895
		c-1.0499773-3.0498409-0.7845898-6.0194016,0.5445976-8.9240131c0.125515,0.0128841,0.1767063-0.0530958,0.1799965-0.1698503
		l0.0031147-0.0053596c0.1588306-0.0612411,0.2074718-0.1867981,0.2009354-0.3445339l-0.000103,0.0010414
		c0.0524502,0.0022488,0.1025028-0.0077562,0.1501102-0.030015c0.4949646,0.7207756,1.2196045,0.2788343,1.8402214,0.3635025
		c0.9561577-0.0665131,1.9197731,0.4177599,2.8706493-0.0388546c0.8150101,0.2610836,1.0538025,0.0408268,1.1296616-1.0419636
		c0.5266495-0.1719713,0.9546642-0.5339832,1.2696819-0.9374313c1.0437927-1.336792,2.5451641-1.9139814,3.9998856-2.596735
		c0.5246525-0.2462368,0.5478573,0.4087353,0.9084358,0.4031048c-0.0708065,0.0505104-0.1418018,0.1009426-0.2126827,0.1516371
		c-0.2290764,0.0626202-0.4714546,0.110177-0.4760818,0.4245644l-0.0106564,0.0077667
		c-0.4909477-0.0613012-0.8996601-0.0034513-0.9116383,0.6292105c-0.2072334,0.2491751-0.5170841,0.4199629-0.5896835,0.7719793
		L27.1966839,12.17665c-0.7368526-0.0700655-1.6272793,0.8071203-1.8925304,1.8643894l0.0060692-0.0102005
		c-0.2707977-0.0360165-0.3537445,0.1847563-0.4651394,0.3524218c-0.5101624,0.7678804-0.4625378,0.8967266,0.4597893,0.9930782
		c0.7137737,0.0745611,1.4350624,0.0747194,2.152277,0.1196566c0.5270424,0.03302,0.7776661-0.2231569,0.8136082-0.7286987
		c-0.1845951-0.6261778,0.3355618-0.7999306,0.6923828-1.0785398c0.6515255-0.6497669,1.3372345-1.2683239,1.8586769-2.0361586
		c0.3437271-0.1109934,0.4108086-0.4157248,0.4945927-0.7087946c0.4893284,0.2046776,0.9019279-0.0070581,1.3103561-0.2414436
		c0.2621269,0.4442139,0.3404884,0.7380943-0.2353783,1.1184607c-1.9232254,1.2703152-3.1291561,3.2293339-4.0787029,5.209693
		c-0.778574,1.6237869-0.8215752,3.5309448-0.0653801,5.3356934c0.2749023,0.6560898,0.3494434,1.39505,0.5273685,2.0931473
		c0.1835003,0.7199783,0.3454876,1.453516,0.944416,1.9765568C29.8621025,26.8826256,30.3515568,27.1131248,30.4408379,27.5931931z
		 M18.3936386,16.1555443c1.3941917-0.0038357,2.7668839,0.4336491,4.1737785,0.1691742
		C21.1805115,16.1789761,19.7995472,15.9113045,18.3936386,16.1555443z"/>
	<path style="fill:#4C932B;" d="M18.4099979,31.5895329c0.3343296-0.2125607,0.34762-0.6377392,0.598875-0.9053669
		c0.196743-0.0097504,0.3939743-0.0191307,0.5912094-0.0285072c0.0730438,0.491621,0.4743481,0.5845127,0.8540154,0.6833668
		c1.10882,0.2887096,2.2208595,0.5650482,3.3316383,0.8462353c0.4254131,0.2966805,0.9184113,0.3602829,1.414854,0.4106941
		c1.0800362,0.2932091,2.1533337,0.6176529,3.2437916,0.867054c0.6394005,0.146244,1.108181-0.1259689,1.2509232-0.8181992
		l-0.0061684,0.0064697c0.4803886-0.0083084,0.4445572-0.4153175,0.5505409-0.7130585
		c0.632515,0.2708588,0.4212265,0.9049721,0.5916042,1.374897c-0.995697,0.2937508-0.3246975,0.8660545-0.2244587,1.342968
		c-0.013937,0.0234795-0.0278625,0.0469627-0.0417843,0.070446c0.012619-0.0247612,0.0252419-0.0495224,0.0378647-0.0742836
		c0.8022194-0.4025726,1.4480724,0.4279289,2.1340046,0.3233871c0.9482651-0.1445198,0.8516388,1.0270615,1.6323586,0.9711876
		c-0.9351578,0.1683159-1.7428627-0.1706352-2.5746899-0.3735771c-1.3559685-0.3308258-2.7064075-0.689785-4.0728283-0.9703865
		c-0.9152565-0.1879501-1.757803-0.6989326-2.7120876-0.660305c-0.6815624,0.0275955-1.1184349-0.244709-1.3482628-0.8714905
		c-0.5986423,0.5199585-1.5209045,0.8910484-0.5460758,1.7923584c-0.9417343-0.1383324-1.8848724-0.2879028-2.7307339,0.341156
		c-1.8459377-0.2455254-3.5300541-1.0408516-5.2918539-1.5714073c-0.4373875-0.1317177-0.9919338-0.0671806-1.2625666-0.5810776
		c0.8899021-0.0709686,1.6532698,0.5363235,2.541502,0.4733086c0.8635273,0.5370598,1.901989,0.5064087,2.8207722,0.8709755
		c0.7280788,0.2888985,1.4185448,0.349472,1.8452854-0.6113396c-1.0738621,0.0406265-1.7995186-0.9430771-2.8943157-0.8073425
		C18.2401733,32.4738388,18.3250847,32.0316887,18.4099979,31.5895329z"/>
	<path style="fill:#4C932B;" d="M16.3803043,23.5035915c0.5284367-0.312849,0.2842331-0.8935146,0.2263374-1.2218895
		c-0.147316-0.835516,0.2773514-0.7973766,0.8097725-0.7362556c0.2384834,0.0273781,0.4926147,0.1899014,0.7037716,0.1398258
		c1.3723602-0.3254471,2.0885963,0.7082253,2.9008961,1.4400482c0.2820015,0.2540646,0.3587112,0.3923378,0.6723099,0.1391068
		c0.2271957-0.1834621,0.4762402-0.0641899,0.6763973,0.074646c1.3112411,0.9095306,2.9314747,0.8858013,4.3557949,1.4513836
		c0.0804214,0.0319347,0.1896763-0.0089169,0.2702446,0.0228443c0.5828972,0.2297478,1.2376213,0.6317101,1.1313725,1.2217464
		c-0.08601,0.4776554-0.8633976,0.2694569-1.2961025,0.1842251c-1.0011616-0.1972065-1.9770832-0.5337009-3.0190125-0.3099861
		c-2.2126293-0.9105301-4.5228786-1.49016-6.8498764-2.0071259c-0.2099285-0.0466347-0.4021759-0.1020927-0.5880051-0.1994743
		C16.3762131,23.6362648,16.3782578,23.5699291,16.3803043,23.5035915z"/>
	<path style="fill:#4C932B;" d="M10.7217894,31.9215908c-1.7564297-0.4382095-3.5128613-0.8764191-5.2691312-1.3145924
		c0.1657357-0.1828861,0.3877211-0.1229095,0.5915842-0.1376266c0.3742027,0.0782166,0.7460089,0.18536,1.1250443,0.2275391
		c0.4613881,0.0513458,0.8996811,0.5218353,1.3921738,0.0931644c0.3175907-0.0027008,0.6200542-0.1625099,1.0346756,0.0286388
		c-0.1158705-0.357214-0.2087221-0.5786781-0.2567177-0.809473c-0.0489521-0.2353897-0.0925846-0.4838943-0.0686121-0.7195415
		c0.0333338-0.327692-0.1978502-0.7678986,0.2363348-0.9517097c0.3123703-0.1322422,1.2271538,0.6411514,1.2285128,1.018055
		c0.001071,0.2974243-0.042655,0.6059914-0.1302452,0.8899441c-0.107091,0.3471622-0.0918322,0.6511879,0.1215553,0.9438438
		c-0.5062151,0.0784588-0.9933949-0.4171104-1.5782843-0.0431099c0.5533609,0.435091,1.3584661,0.1088657,1.7778044,0.7066765
		C10.8583317,31.8761654,10.790061,31.8988781,10.7217894,31.9215908z"/>
	<path style="fill:#5CC828;" d="M19.9685707,11.1083956c-0.2942181,0.4575405-0.0218964,0.8844395,0.0711288,1.3208637
		c-0.1285248,0.0061331-0.2567368,0.0124235-0.3849449,0.018714c-1.2654934-0.4307766-2.5572376-0.4175549-3.859395-0.2281704
		c-0.4017963-0.5082321-0.0709667-0.900979,0.2052507-1.3022327c1.2179337,0.4328957,2.4775372,0.1104231,3.714159,0.2048473
		C19.7993717,11.1177444,19.8839703,11.1130705,19.9685707,11.1083956z"/>
	<path style="fill:#9BE76E;" d="M10.9263659,31.853344c-0.41922-0.5977554-1.2243252-0.2715302-1.7776861-0.7066212
		c0.5848894-0.3740005,1.0720692,0.1215687,1.5782232,0.0430908c1.1912365,0.4147854,2.3975658,0.7916222,3.5694056,1.255579
		c1.0709543,0.4240074,2.1048775,0.7303009,3.1566296-0.0068398c-0.1084576,0.6129379-0.7965832,0.6490517-1.0812855,1.0866089
		c-0.8882151,0.0632553-1.6515827-0.5440369-2.5414848-0.4730682c-0.0576-0.0076332-0.1149368-0.0153389-0.1723051-0.0230446
		c-0.314003-0.9224548-1.1457777-0.7823868-1.8509808-0.9020386C11.5133772,32.0357895,11.2198715,31.9445648,10.9263659,31.853344z
		"/>
	<path style="fill:#5CC828;" d="M20.1655502,7.5958433c0.2052841,0.0178113,0.4271393,0.0937781,0.6123238,0.0410275
		c0.3584614-0.1021066,0.8774738-0.2592788,0.9678707,0.0723019c0.0850773,0.312078-0.0471649,0.8768277-0.5641422,1.0535455
		c-0.2247143,0.0027761-0.4628448-0.0513477-0.6345501,0.1590557c-0.1081467-0.0146503-0.2162952-0.0293026-0.3244419-0.0439529
		c-0.4684029-0.2839184-0.9492645-0.5849152-1.5191746-0.3649702c-0.420805,0.1624012-0.8153725,0.1083612-1.2238464,0.0105839
		c-0.0539265-0.4861336,0.1743011-0.7040839,0.6524658-0.7376375C18.8109875,7.7381554,19.4878197,7.6606097,20.1655502,7.5958433z"
		/>
	<path style="fill:#4C932B;" d="M15.7953596,12.2198029c1.3021574-0.1893845,2.5939016-0.2026062,3.8595076,0.2279634
		c-0.2621212,0.2961864-0.6922379-0.0248299-0.9933872,0.2684841c0.5350723,0.4472713,0.6821079,1.0285282,0.6376972,1.678113
		c-0.6206169-0.0846682-1.3452568,0.3572731-1.8401852-0.3635635c0.000906-0.0556479-0.0050316-0.1104956-0.0177765-0.164608
		c0.1360188-0.183835,0.2720375-0.367672,0.4079666-0.5514259c0.2386875-0.1211834,0.5452671-0.3438501,0.4552898-0.5514927
		c-0.149435-0.3448524-0.5470657-0.1358471-0.8427982-0.1424875c-0.1181221-0.0041361-0.2362461-0.0082741-0.3543148-0.0124121
		c-0.4229565-0.0722933-0.8459644-0.1445837-1.2689734-0.2168741
		C15.8046455,12.3391285,15.7903042,12.2818956,15.7953596,12.2198029z"/>
	<path style="fill:#5CC828;" d="M27.6857624,4.3797531c-0.1427917,0.3608341-0.2129974,0.710413,0.0310364,1.0701118
		c0.1804008,0.265902,0.1661396,0.4983292-0.2222595,0.5599904c-0.7098827-0.6216469-1.4994698-0.2343106-2.2629051-0.1784482
		c-0.1090984-0.2869544-0.3740253-0.4122882-0.599762-0.5782709c-0.0165596-0.1587143-0.0331173-0.3174281-0.0496769-0.4761429
		C25.6144753,4.6270523,26.6325684,4.3662901,27.6857624,4.3797531z"/>
	<path style="fill:#5CC828;" d="M5.8262277,23.3562374c0.043077,0.0143528,0.0872607,0.0199337,0.1327858,0.0164642
		c-0.0065479,0.3863258-0.0034838,0.7595253-0.1194801,1.1504536c-0.539176,1.8171215-1.1450844,3.6287003-0.9784265,5.5717831
		c-0.1101422,0.0020905-0.220284,0.004179-0.3304257,0.0062656c-0.2353892-0.2625809-0.332932-0.5765514-0.3439779-0.9225616
		c0.0185657-0.0167389,0.0554409-0.0386925,0.0524201-0.0497265c-0.0118523-0.0433006-0.0362816-0.0831623-0.0560403-0.1243
		c0.0293746-0.1184502,0.0587492-0.2368984,0.0879669-0.3553047c0.0166087-0.0699215,0.0333748-0.1398849,0.0501413-0.2098522
		C4.8597679,26.7559776,5.1071124,24.9862671,5.8262277,23.3562374z"/>
	<path style="fill:#4C932B;" d="M24.6318722,5.2531362c0.2257366,0.1659827,0.4906635,0.2913165,0.5998058,0.5782528
		c-0.3154602,0.4597592-0.9527473,0.4628434-1.2819099,0.9032393C23.3545036,6.9368,22.7988815,7.0252047,22.5462475,6.2462173
		c-0.2989349-0.541604-0.0374126-0.7964625,0.4664955-0.9683614c0.3298855-0.1125355,0.5306129-0.4864793,0.923893-0.4919834
		c-0.1099987,0.3326392-0.3575211,0.5484538-0.6176472,0.762197c-0.2384396,0.1959229-0.4623203,0.374753-0.1279907,0.7295947
		c0.3017712,0.3202863,0.4221172,0.0966215,0.6466732-0.0623927C24.1961536,5.9614224,24.5493679,5.7256203,24.6318722,5.2531362z"
		/>
	<path style="fill:#4C932B;" d="M17.4795895,8.5234346c0.408474,0.0977774,0.8030415,0.1518173,1.2238464-0.0105839
		c0.56991-0.219945,1.0507717,0.0810518,1.5190105,0.3649702c-0.3997669,0.2061548-0.9391041,0.0893917-1.2353153,0.5344839
		c-0.7871647-0.2489567-1.4422684,0.0853233-2.0854588,0.4722109C16.7241497,9.2736511,17.1013794,8.8983345,17.4795895,8.5234346z"
		/>
	<path style="fill:#9BE76E;" d="M19.7147694,11.1224174c-1.2366219-0.0944242-2.4962254,0.2280483-3.714159-0.2048473
		c0.0412388-0.0550852,0.0824432-0.110076,0.1236973-0.1650448c0.8339138,0.105073,1.6178169-0.1760044,2.4203415-0.3131552
		c0.0246944-0.0265293,0.0469894-0.0549374,0.0666695-0.0852919c0.3992672,0.0213013,0.7987576,0.0426693,1.198246,0.0640392
		C20.1390247,10.7014799,19.6892853,10.8799677,19.7147694,11.1224174z"/>
	<path style="fill:#101911;" d="M20.3845882,35.2045784c0.8458614-0.6290588,1.7889996-0.4794884,2.7307568-0.3412819
		c0.0444584,0.0402107,0.0888977,0.0805511,0.1333351,0.1208916c-0.1032028,0.0221672-0.2064095,0.0443344-0.3096123,0.0665054
		c-0.0689278,0.0478096-0.1378555,0.095623-0.2067814,0.1434364c-0.0401344,0.0492744-0.0802708,0.0985489-0.1204052,0.1478233
		c-0.14538,0.2289886-0.328249,0.4509964-0.617384,0.2836418c-0.5303574-0.3069801-0.7293606,0.0425758-0.9221573,0.4789696
		c-0.1598511-0.3586617-0.1534576-0.7954178-0.6584206-0.7575264
		C20.4068241,35.2990112,20.3970432,35.2515182,20.3845882,35.2045784z"/>
	<path style="fill:#4C932B;" d="M48.830162,12.6855021c0.3254662,0.2084246,0.7081108,0.4072189,0.5279236,0.887764
		c-0.1776543,0.4738092-0.6017265,0.235858-0.9275856,0.2480965c-0.3926735,0.0147448-0.8389282-0.0622959-0.6754265,0.5838938
		l-0.0049782,0.0049419c-0.3034401-0.0695181-0.3480988-0.273035-0.3068924-0.546258
		c0.0332832-0.2206573,0.1489639-0.1949453,0.3102455-0.1639328c0.1753159,0.0337067,0.4115143,0.0612698,0.4729538-0.1393261
		c0.105442-0.3442211-0.3290901-0.1672382-0.3914833-0.3427315c-0.0455437-0.1280985-0.0138054-0.2836752-0.0168114-0.4257317
		C48.1238976,12.4634562,48.5682487,13.4296598,48.830162,12.6855021z"/>
	<path style="fill:#CCCCCC;" d="M16.9016724,9.8845158c0.6431904-0.3868876,1.2982941-0.7211676,2.0851421-0.4723759
		c0.4658413,0.5491495-0.1585674,0.6644506-0.3752728,0.9420052c-0.0199032,0.0302877-0.0421982,0.0586958-0.0667725,0.0852613
		c-0.3263645-0.0121155-0.6540298-0.011158-0.9789696-0.0404367c-0.274929-0.0247736-0.6404018,0.0633411-0.6451988-0.4045315
		C16.8966522,9.9608355,16.8903446,9.9241953,16.9016724,9.8845158z"/>
	<path style="fill:#4C932B;" d="M46.4508095,15.3361063c0.5512085,0.2795935,0.7642899,0.9276457,1.3546104,1.2008238
		c0.2285042,0.1057472,0.2565804,0.5867672,0.0528069,0.8250904c-0.2053108,0.2401333-0.5224075,0.0033321-0.5922432-0.1690884
		c-0.1611824-0.397934-0.7259407,0.1986942-0.7587852-0.3555031c0.3399734-0.3498554-0.0481949-0.6809406-0.0263863-1.0221958
		c0.0295715-0.0368404,0.0256805-0.0702038-0.0116158-0.0996723C46.4630661,15.589076,46.4569359,15.4625912,46.4508095,15.3361063z
		"/>
	<path style="fill:#9BE76E;" d="M24.6318722,5.2531362c-0.0825043,0.4724841-0.4357185,0.7082863-0.7942009,0.9621353
		c-0.224556,0.1590142-0.344902,0.382679-0.6466732,0.0623927c-0.3343296-0.3548417-0.1104488-0.5336719,0.1279907-0.7295947
		c0.2601261-0.2137432,0.5076485-0.4295578,0.6176472-0.762197c0.2146168-0.1040101,0.4303532-0.0539613,0.6457882-0.0089436
		C24.5987549,4.935708,24.6153126,5.0944219,24.6318722,5.2531362z"/>
	<path style="fill:#4C932B;" d="M11.8068819,32.1270103c0.7052031,0.1196518,1.5369778-0.0204163,1.8509808,0.9020386
		c-0.6624508-0.2414513-1.482976,0.1393852-2.0400553-0.518158C11.7820244,32.4328575,11.8315973,32.2982559,11.8068819,32.1270103z
		"/>
	<path style="fill:#4C932B;" d="M16.9206009,9.9944382c0.004797,0.4678726,0.3702698,0.3797579,0.6451988,0.4045315
		c0.3249397,0.0292788,0.6526051,0.0283213,0.9789696,0.0404367c-0.8026447,0.1371145-1.5865479,0.4181919-2.4204617,0.3131189
		C16.3027611,10.4084826,16.4654236,10.0478182,16.9206009,9.9944382z"/>
	<path style="fill:#101911;" d="M11.8068819,32.1270103c0.0247154,0.1712456-0.0248575,0.3058472-0.1890745,0.3838806
		c-0.3346567-0.1414337-0.9877968,0.200882-0.8960209-0.5893402c0.0682745-0.0226727,0.1365452-0.0453854,0.2046976-0.0681515
		C11.2198715,31.9445648,11.5133772,32.0357895,11.8068819,32.1270103z"/>
	<path style="fill:#9BE76E;" d="M4.5306811,30.1012039c0.1101418-0.0020866,0.2202835-0.0041752,0.3306971-0.0062065
		c0.3646393,0.0669937,0.7290068,0.1339264,1.0933747,0.2008553c0.0300984,0.0578842,0.0601974,0.1157684,0.0902963,0.1736526
		c-0.20467,0.0145836-0.4266553-0.045393-0.592391,0.1374931C5.1046019,30.5124187,4.6988139,30.5233917,4.5306811,30.1012039z"/>
	<path style="fill:#CCCCCC;" d="M17.4616737,12.6207857c0.2957325,0.0066404,0.6933632-0.2023649,0.8427982,0.1424875
		c0.0899773,0.2076426-0.2166023,0.4303093-0.4552898,0.5514927C17.883955,12.9918413,17.4949703,12.905653,17.4616737,12.6207857z"
		/>
	<path style="fill:#CCCCCC;" d="M15.8383856,12.3914995c0.4230089,0.0722904,0.8460169,0.1445808,1.2689734,0.2168741
		C16.638937,12.8016882,16.1840439,12.916152,15.8383856,12.3914995z"/>
	<path style="fill:#CCCCCC;" d="M48.9957237,26.6188736c-0.126503-0.0653381-0.160984-0.1756115-0.1501961-0.3074799
		c0.1163864-0.0192146,0.2389107-0.0159492,0.2670174,0.1178131C49.1236267,26.4819145,49.0375595,26.5550442,48.9957237,26.6188736
		z"/>
	<path style="fill:#CCCCCC;" d="M17.3089485,14.0598345c0.0065365,0.1577358-0.0421047,0.2832928-0.2009354,0.3445339
		C17.0914421,14.2407627,17.1480465,14.1198854,17.3089485,14.0598345z"/>
	<path style="fill:#CCCCCC;" d="M49.5489273,27.8910751c-0.1320267-0.0660744-0.1676674-0.1760216-0.142601-0.3130188
		C49.5412788,27.6429214,49.5778732,27.7520523,49.5489273,27.8910751z"/>
	<path style="fill:#CCCCCC;" d="M50.2749519,30.0844879c-0.0316391-0.0546589-0.0632744-0.1093159-0.094532-0.163681
		C50.2121849,29.9755611,50.2435646,30.0300236,50.2749519,30.0844879z"/>
	<path style="fill:#9BE76E;" d="M46.4691963,15.7155609c0.0372963,0.0294685,0.0411873,0.0628319,0.0116158,0.0996714
		c-0.0204353-0.0251217-0.0408211-0.0498285-0.0612106-0.0745373
		C46.4361343,15.7323189,46.4526634,15.7239389,46.4691963,15.7155609z"/>
	<path style="fill:#CCCCCC;" d="M49.6655121,28.1052189c-0.0301704-0.0535107-0.0603447-0.1070213-0.0904884-0.1600838
		C49.6625252,27.9663143,49.7070961,28.0113525,49.6655121,28.1052189z"/>
	<path style="fill:#9BE76E;" d="M4.3211913,28.4394588c-0.0167665,0.0699673-0.0335326,0.1399307-0.0501413,0.2098522
		C4.2013736,28.5587254,4.2399912,28.4940186,4.3211913,28.4394588z"/>
	<path style="fill:#CCCCCC;" d="M17.1048985,14.4097281c-0.0032902,0.1167545-0.0544815,0.1827345-0.1799965,0.1698503
		C16.9849415,14.5229492,17.04492,14.4663382,17.1048985,14.4097281z"/>
	<path style="fill:#CCCCCC;" d="M17.4412155,13.8661919c0.0127449,0.0541124,0.0186825,0.1089602,0.0177765,0.164608
		c-0.0476437,0.0223198-0.0976963,0.0323248-0.1501465,0.030076C17.3530025,13.9959831,17.39711,13.9310865,17.4412155,13.8661919z"
		/>
	<path style="fill:#9BE76E;" d="M4.1830831,29.0046158c0.0197587,0.0411377,0.044188,0.0809994,0.0560403,0.1243
		c0.0030208,0.011034-0.0338545,0.0329876-0.0524201,0.0497265C4.1854815,29.1205025,4.1842828,29.0625572,4.1830831,29.0046158z"/>
	<path style="fill:#CCCCCC;" d="M49.2922592,27.1846409c-0.0523415-0.0297012-0.0809135-0.0745163-0.0856476-0.1338596
		C49.2985039,27.0551605,49.3392105,27.0917587,49.2922592,27.1846409z"/>
	<path style="fill:#101911;" d="M30.4408379,27.5931931c-0.0892811-0.4800682-0.5787354-0.7105675-0.7217484-1.1572819
		c-0.3683586-1.4790726-0.9469147-2.894228-0.942091-4.4757195c0.0056801-1.8610058,0.3487492-3.7793903,1.2258549-5.2299442
		c1.6542759-2.7358265,3.9589729-4.9629288,7.6202965-4.7211542c0.4603691,0.0304003,0.9001617,0.1121044,1.3234062,0.2908611
		c0.084446,0.0284214,0.1687355,0.0572205,0.2530251,0.0860186c0.2116394,0.0922909,0.4232712,0.1845818,0.6351662,0.2766609
		c0.1259193,0.3556805,0.3792496,0.519906,0.7539978,0.5018482l0.0154037,0.0151215
		c-0.0337181,0.292244,0.2092705,0.4197083,0.3654213,0.5909843c1.2715111,1.3946514,2.1075439,3.0006599,2.4638672,4.8649902
		c0.2416992,1.2646294,0.0979462,2.5331402,0.1334305,3.7996616c-0.1639481,1.2806931-0.6935577,2.4501228-1.1116753,3.6534748
		c-0.5282669,0.693737-0.9685631,1.4406357-1.5619049,2.1013298c-1.3887825,1.5464401-3.102272,2.5704231-5.1235199,2.3440704
		C33.6927681,30.3015175,31.8094292,29.312685,30.4408379,27.5931931z M35.3487244,14.9554214
		c-0.1492386,0.0348721-0.3040047-0.2424564-0.4383621,0.0005026c-0.0220261,0.0398235,0.0475388,0.1695967,0.1069946,0.2083254
		c0.2485161,0.1618757,0.272789-0.0556831,0.3280258-0.2122736c0.1409874-0.0071955,0.2814026-0.01758,0.286274-0.2079592
		c0.0005035-0.0196381-0.0346031-0.0566425-0.0547714-0.0577974C35.3852539,14.6752567,35.3690338,14.8179665,35.3487244,14.9554214
		z M40.2743454,18.2404118c-0.5069084,0.0104351-0.6461868,0.3978767-0.8460617,0.7764225
		c1.0207748,0.4537907,0.7723007-0.3245811,0.841156-0.7817745c0.0531464-0.0159359,0.1062927-0.0318718,0.1594353-0.0478134
		c-0.0161057-0.0220394-0.0322151-0.0440788-0.0483208-0.0661163C40.34515,18.1608906,40.3097496,18.2006512,40.2743454,18.2404118z
		 M36.0427132,29.235302c-0.4163361-0.4943504-1.0662727-0.0011978-1.5270653-0.357048
		c-0.0721321-0.055706-0.212471,0.069355-0.2247314,0.2123985c-0.0138893,0.1620007,0.0455971,0.3774967,0.1794014,0.3637886
		c0.4960861-0.0508194,0.9781532,0.364212,1.4738617,0.0368881c0.1458397-0.0023289,0.2916794-0.0046597,0.4375191-0.0069885
		c1.5394974-0.0471401,2.7667389-0.7582607,3.8550568-1.7866535c0.1488037-0.1406116,0.3939629-0.2437344,0.3307076-0.4531193
		c-0.0339432-0.1123657-0.2965889-0.1929531-0.4662018-0.2174397c-0.2049408-0.0295906-0.5314445,0.002552-0.5197906,0.2302723
		c0.0237808,0.464613-0.4145088,0.3148975-0.4631119,0.3902969c-0.2895966,0.4492378-0.6191368,0.6889668-1.1602173,0.6192455
		c-0.0126038-0.001627-0.0671349,0.1590137-0.0661011,0.2435226c0.003994,0.3264694-0.0834999,0.3862152-0.3613396,0.1776886
		c-0.2818031-0.2115002-0.4879189-0.1792965-0.5570984,0.2327633c-0.0884438,0.5268097-0.273983-0.1184769-0.4030113,0.0214748
		C36.1869965,28.6658268,36.1806679,29.06917,36.0427132,29.235302z M33.2591324,21.8635159
		c-0.5962029-0.4699516-1.0411263-0.6122665-1.4570999-0.0079861c-0.0759869,0.110384-0.3992233,0.0024509-0.2571945,0.3231392
		c0.1450272,0.327467,0.3263264,0.133461,0.507206,0.0742359C32.4243736,22.1309967,32.6812286,21.7433338,33.2591324,21.8635159z
		 M37.6334572,18.5847759c-0.0808372,0.3624954-0.370327,0.6959171-0.1597939,1.1473141
		C37.7022552,19.3448734,37.7780876,18.9822693,37.6334572,18.5847759z M37.9039612,18.0318127
		c-0.0331421-0.0737858-0.0680313-0.1514683-0.1029243-0.2291527c-0.0316467,0.0456429-0.0933418,0.0947819-0.0885239,0.1361828
		c0.0093422,0.0803185,0.0560722,0.1562843,0.0873108,0.2340508C37.8312302,18.1303482,37.8626328,18.0878029,37.9039612,18.0318127
		z"/>
	<path style="fill:#5CC828;" d="M23.2486801,34.9841881c-0.0444374-0.0403404-0.0888767-0.0806808-0.1333351-0.1208916
		c-0.9748516-0.9011841-0.0525894-1.272274,0.5460529-1.7922325c0.2298279,0.6267815,0.6667004,0.899086,1.3482628,0.8714905
		c0.9542847-0.0386276,1.7968311,0.4723549,2.7120876,0.660305c1.3664207,0.2806015,2.7168598,0.6395607,4.0728283,0.9703865
		c0.8318272,0.2029419,1.6395321,0.541893,2.5746899,0.3735771c-0.7807198,0.0558739-0.6840935-1.1157074-1.6323586-0.9711876
		c-0.6859322,0.1045418-1.3317852-0.7259598-2.1340046-0.3233871l0.003931,0.0038414
		c-0.1002502-0.4769173-0.7712498-1.049221,0.2244473-1.3429718c-0.1703777-0.4699249,0.0409107-1.1040382-0.5916042-1.374897
		c-0.2247772-0.2346401-0.2845535-0.5283298,0.0127945-0.6829758c0.2529602-0.1315575,0.6442776-0.1639423,0.8409462,0.1095657
		c0.3091679,0.4299641,0.7257156,0.3912811,1.1436043,0.3711929c0.4703064-0.0226021,0.8665352,0.1258659,1.2872658,0.3311348
		c0.5250702,0.256176,1.10149,0.4993095,1.7153625,0.2861671c0.4492607-0.1559944,0.6861191,0.3101425,1.0986443,0.3136368
		c1.2195892,0.0103302,2.4907379,0.042778,3.543869-0.5651016c1.8399849-1.0620537,3.5446205-2.2381248,4.6170616-4.2769299
		c0.8223228-1.5633183,0.840786-3.1551762,1.1508102-4.7649136c0.1602554-0.83214,0.5238075-1.6337662,0.4895058-2.5198078
		c-0.0065041-0.1679535,0.1246109-0.2747936,0.3065948-0.2465782c0.2479706,0.0384483,0.2995949,0.2358341,0.3862,0.4418125
		c0.2902565,0.690361,0.6856689,1.3279457,0.3501129,2.1472092c-0.3242378,0.791626-0.091774,1.6761475-0.3125992,2.5076504
		c-0.2224884,0.8377686-0.4839211,1.6666718-0.7086601,2.4932957c-0.6134224,2.256279-2.0287399,3.9866524-3.388195,5.7627144
		c-0.5435753,0.7101555-1.3989639,1.0712547-2.238266,1.3456421c-0.3383713,0.1106224-0.5058403,0.2843323-0.6287231,0.5703545
		l-0.0019989,0.002697c-0.151474-0.003582-0.298584,0.0016289-0.3602219,0.1789207l-0.0063553,0.0040474
		c-0.1505966-0.0029335-0.2963676,0.0038109-0.3583374,0.1786499l-0.0060692,0.0051804
		c-0.0612679,0.0448532-0.1225357,0.0897064-0.1838112,0.1345558c-0.0530243,0.0171356-0.106636,0.0321808-0.1608391,0.0451355
		c-0.1547432-0.0008812-0.3134232-0.010067-0.3778419,0.179348l-0.0082703,0.0048828
		c-0.8129005,0.0180855-1.5504456,0.271183-2.2271576,0.7140465c-0.4469948,0.3702698-1.0201263,0.0734558-1.4972572,0.2828407
		c-1.5023804,0.0168304-2.9327774-0.3833199-4.3779964-0.725666c-2.0891705-0.4948883-4.1412525-1.1679459-6.29599-1.3607712
		C23.8043842,35.0405197,23.5316963,34.9938545,23.2486801,34.9841881z"/>
	<path style="fill:#101911;" d="M17.4529381,32.4385529c-1.0517521,0.7371407-2.0856752,0.4308472-3.1566296,0.0068398
		c-1.1718397-0.4639568-2.3781691-0.8407936-3.5694056-1.255579c-0.2133265-0.2926369-0.2285852-0.5966625-0.1214943-0.9438248
		c0.0875902-0.2839527,0.1313162-0.5925198,0.1302452-0.8899441c-0.001359-0.3769035-0.9161425-1.1502972-1.2285128-1.018055
		c-0.434185,0.1838112-0.203001,0.6240177-0.2363348,0.9517097c-0.0239725,0.2356472,0.01966,0.4841518,0.0686121,0.7195415
		c0.0479956,0.2307949,0.1408472,0.4522591,0.2567177,0.809473c-0.4146214-0.1911488-0.7170849-0.0313396-1.0346909-0.0285835
		c-0.0200806-0.0452976-0.0361757-0.09202-0.0482969-0.1401119c-0.3282719-1.130228-0.3279886-2.2956715,0.0481329-3.3748913
		c0.4024-1.1546116,0.6432724-2.1229076-0.5614319-2.9585648c-0.3773851-0.261776-0.189568-0.5945911,0.2995386-0.5995312
		c0.2698832-0.0027275,0.5542431-0.0284443,0.8073463,0.0433674c0.6894627,0.1956158,1.3498383,0.1254349,2.0078306-0.1119499
		c1.2773609,0.0399055,2.5312204,0.2241917,3.7625732,0.5748596c0.1883821,0.0536499,0.4105053-0.0111847,0.6165257-0.0209904
		c0.7142868,0.1949577,1.399332,0.5941086,2.182642,0.3178558c1.5071945,1.1262989,2.0481758,3.7759151,1.1745949,5.6125183
		c-0.2331657,0.4902058-0.6693764,0.8801155-0.721096,1.4582462C17.9043007,31.8735161,17.6786194,32.1560326,17.4529381,32.4385529
		z M12.1625147,31.2081375c0.034915,0.0252171,0.0698309,0.0504379,0.1047459,0.075655
		c-0.0255985-0.0344887-0.0511961-0.0689754-0.0767956-0.1034641c0.1126738-0.3703384,0.5560226,0.1718521,0.6435833-0.2282963
		c0.0498381-0.2277508-0.0805235-0.4120998-0.2451468-0.5518398c-0.2074108-0.1760578-0.4354649-0.3275452-0.6494398-0.4961967
		c-0.2035275-0.1604176-0.3219643-0.0686321-0.423172,0.1221066C11.237525,30.5514851,11.5366621,31.1020603,12.1625147,31.2081375z
		 M15.6540384,25.2867222c-0.0094633,0.4604435,0.0867109,0.7851696,0.6075735,0.4378319
		c0.2792225-0.1861954,0.5413704-0.232275,0.845253-0.1053848c0.2614231,0.1091595,0.3982773-0.0446072,0.4836845-0.2576714
		c0.1187458-0.2962379-0.1227551-0.3744984-0.314043-0.4299889c-0.3131886-0.0908508-0.6422768-0.1256771-0.9579716-0.2093601
		C15.7989922,24.5844383,15.6843987,24.8867188,15.6540384,25.2867222z M13.4621363,29.5594139
		c-0.1570063-0.4124546-0.3261042-0.8401508-0.8478451-0.9336681c-0.260148-0.046629-0.5466938-0.0962734-0.6220875,0.313467
		c-0.1099548,0.5975761,0.2693777,0.8233719,0.717041,0.9788494C13.0301905,30.0295296,13.3030481,29.9232426,13.4621363,29.5594139
		z M10.9359093,28.6222897c0.5145197-1.2888527,0.425622-1.5104561-0.6843033-1.8781548
		c0.0743732,0.3602524,0.0471783,0.5468826-0.1476555,1.0366955c-0.0568848,0.1430092,0.0545101,0.2174778,0.1378517,0.2882633
		C10.4450226,28.2416916,10.6582384,28.4025211,10.9359093,28.6222897z M14.5325012,30.9408607
		c0.1367416-0.1025276,0.4204044-0.1582623,0.3558359-0.4798813c-0.0371161-0.184885-0.1709051-0.3646297-0.3649578-0.3268394
		c-0.2847805,0.0554657-0.3054304,0.3379841-0.3236322,0.5710907C14.1871939,30.8659782,14.2650118,30.998497,14.5325012,30.9408607
		z M13.1315851,25.1680279c-0.2811031,0.313324-0.421977,0.5843983-0.3247528,0.9197159
		c0.0427256,0.1473579,0.2084169,0.1133118,0.2865944,0.0268955C13.3359089,25.8465996,13.3085203,25.5558357,13.1315851,25.1680279
		z M13.9549599,24.6433544c-0.0372953-0.1188202-0.1474266-0.1831646-0.3104734-0.1594086
		c-0.110754,0.0161362-0.2696991,0.0207195-0.25105,0.1717854c0.0250559,0.202961,0.2284546,0.2446594,0.3873854,0.2721004
		C13.9286985,24.9533691,13.9505987,24.8141747,13.9549599,24.6433544z"/>
	<path style="fill:#4C932B;" d="M11.1145649,23.6484489c-0.6579924,0.2373848-1.318368,0.3075657-2.0078306,0.1119499
		c-0.2531033-0.0718117-0.5374632-0.0460949-0.8073463-0.0433674c-0.4891067,0.00494-0.6769238,0.3377552-0.2995386,0.5995312
		c1.2047043,0.8356571,0.9638319,1.8039532,0.5614319,2.9585648c-0.3761215,1.0792198-0.3764048,2.2446632-0.0480833,3.3748531
		c-0.8240628-0.3255692-1.6730785-0.4711742-2.558445-0.3541279c-0.364368-0.0669289-0.7287354-0.1338615-1.0933747-0.2008553
		c-0.1669292-1.9431419,0.4389791-3.7547207,0.9781551-5.5718422c0.1159964-0.3909283,0.1129322-0.7641277,0.1194801-1.1504536
		c0.6720867-0.8863144,1.6069002-0.6947117,2.472774-0.5173569C9.3420086,23.0417881,10.2215939,23.3777962,11.1145649,23.6484489z"
		/>
	<path style="fill:#5CC828;" d="M19.6000824,30.6556587c-0.1972351,0.0093765-0.3944664,0.0187569-0.5912094,0.0285072
		c0.1392403-0.6318493,0.5646858-1.1671257,0.5325737-1.87327c-0.0159073-0.3498096,0.2474728-0.7021713,0.6819839-0.2659931
		c0.029335,0.2331524,0.1598186,0.3790493,0.3806095,0.4518108c1.0224133,0.3369122,2.0444241,0.6750412,3.0666103,1.0126514
		c0.4126034,0.136282,0.395956-0.2472878,0.5351238-0.4421253c0.4220562,0.0690384,0.903326,0.0058136,1.1318207,0.5067825
		c-0.1324253,0.1874733-0.2646675,0.3749657-0.3969135,0.5624561c-0.7500916,0.0343113-0.6996231,0.5965939-0.7175732,1.1028957
		c-0.0078373,0.2211246,0.0632114,0.4433689,0.3167267,0.4690456c0.3161469,0.0320168,0.3917618-0.2040329,0.4082699-0.4653091
		c0.5153942-0.1243191,0.7746639,0.3252525,1.1502476,0.513485c-0.3258858,0.0427094-0.6539478,0.078846-0.897295,0.3390694
		c-0.4969101-0.0501213-0.9899082-0.1137238-1.4148617-0.4095573c0.0376339-0.1868076,0.0028667-0.3024693-0.1780338-0.4443665
		c-0.6032467-0.4731827-1.384222-0.2386723-2.0509262-0.605051C21.00387,30.8325939,20.3246803,30.5102558,19.6000824,30.6556587z"
		/>
	<path style="fill:#5CC828;" d="M42.4551926,26.0887146c0.4181175-1.203352,0.9477272-2.3727818,1.1116524-3.6534882
		c0.6175194-1.0613708,0.3304253-2.171629,0.1648483-3.2701321c-0.2037888-1.3519897-0.0273705-2.8020611-1.0001984-3.9613361
		c-0.524765-0.6253366-1.045269-1.2542534-1.5676956-1.8815575c0.4895897-0.2212973,0.7888603-0.1036224,1.0889664,0.3896236
		c0.7449722,1.2244015,1.90485,2.266139,2.2240868,3.6621094c0.3477364,1.5205822,0.8535194,3.0369949,0.0154305,4.7356701
		c-0.5391121,1.092701-1.1087418,2.3043728-1.305645,3.5812283C43.1126137,26.1708565,42.9090157,26.3416958,42.4551926,26.0887146z
		"/>
	<path style="fill:#101911;" d="M19.2991772,14.3943634c0.0444107-0.6495848-0.1026249-1.2308416-0.6376972-1.678113
		c0.3011494-0.293314,0.731266,0.0277023,0.9933872-0.2684841c0.1280956-0.0060835,0.2563076-0.0123739,0.3848324-0.018507
		c0.5361366,0.0522766,1.0719585,0.1043987,1.6080055,0.1565361c0.3505402,0.3042507,0.7617531,0.1531887,1.1526299,0.15417
		c0.0276165,0.0188742,0.0553589,0.0375605,0.0835361,0.0561943c0.1960068,0.718626-0.4759464,1.0396023-0.7140446,1.5593491
		C21.2189503,14.8121233,20.2553349,14.3278503,19.2991772,14.3943634z"/>
	<path style="fill:#4C932B;" d="M38.828373,36.1114769c0.054203-0.0129547,0.1078148-0.0279999,0.161068-0.0449677
		c0.0613441-0.044796,0.1224632-0.0897598,0.1835823-0.1347237l0.0060577-0.005188
		c0.119442-0.0595512,0.2388916-0.1190948,0.3583488-0.1786423l0.0063438-0.004055
		c0.144268-0.01091,0.2801552-0.0387268,0.3602333-0.1789131l0.0019989-0.002697
		c1.0641785-0.5212135,2.1281128-0.2573662,3.1920738,0.0009384c-1.553978,0.1328163-2.7734451,1.1001358-4.1606255,1.6473923
		c-0.9092827,0.3587265-1.7873192,0.873951-2.8135109,0.8812332c0.1434059-0.4371605,0.2297211-0.8014336-0.4722519-0.5662651
		c-0.2770996,0.0928307-0.6030045,0.0301285-0.8553314,0.2345161c-0.0262489-0.1557503-0.0524979-0.3114777-0.0787468-0.4672089
		c0.4773636-0.2096863,1.0504951,0.0871277,1.4979591-0.2830963c0.8106346-0.0257339,1.5624123-0.2335243,2.2266884-0.7140923
		l0.0082512-0.0048904C38.576458,36.2310295,38.7024155,36.1712532,38.828373,36.1114769z"/>
	<path style="fill:#101911;" d="M26.0986691,32.2566071c-0.3759003-0.1882439-0.63517-0.6378155-1.1505527-0.5135117
		c-0.0024681-0.3688793-0.0049515-0.7377491-0.0074368-1.106617c0.1322479-0.1874905,0.2644901-0.3749828,0.3969154-0.5624561
		c1.0229626,0.0386639,1.971077,0.3482265,2.8816338,0.7941818c0.2108383,0.7533932-0.2391796,1.2245464-0.7185802,1.6827602
		C27.0334435,32.4526405,26.5660572,32.3546257,26.0986691,32.2566071z"/>
	<path style="fill:#5CC828;" d="M17.4529381,32.4385529c0.2256813-0.2825203,0.4513626-0.5650368,0.6768665-0.8476143
		c0.093111-0.0006466,0.1863995-0.0012283,0.2799397-0.0016098c-0.0846596,0.4423599-0.1695709,0.88451-0.2663326,1.3883667
		c1.0947971-0.1357346,1.8204536,0.8479691,2.8943157,0.8073425c-0.4267406,0.9608116-1.1172066,0.900238-1.8452854,0.6113396
		c-0.9187832-0.3645668-1.9572449-0.3339157-2.8207722-0.8709755
		C16.6563549,33.0876045,17.3444805,33.0514908,17.4529381,32.4385529z"/>
	<path style="fill:#4C932B;" d="M35.1911392,9.4938469c-0.9433556-1.3058767-2.1503181-2.1554737-3.7367535-2.623498
		c-0.5812893-0.1714888-1.3617725-0.0399566-1.8081169-0.6533365c0.8550434-0.2731709,1.6595612-0.0291986,2.4709797,0.2215505
		c1.0810509,0.3340726,1.981926,1.0445828,3.0390701,1.4246254c0.1798439,0.1736159,0.3596878,0.3472323,0.5397263,0.5209098
		c0.1307716,0.493371,0.7688751,0.6955786,0.7358856,1.2827082C36.0068207,9.6917248,35.5685043,9.8114185,35.1911392,9.4938469z"/>
	<path style="fill:#CCCCCC;" d="M39.7908096,11.2562389c-0.9150887-0.0554438-1.8235512-0.203373-2.7463722-0.078351
		c-1.3700867,0.1856184-2.6079826,0.6799078-3.7777481,1.38515c-0.1219292,0.0735102-0.2443314,0.2343903-0.3848343,0.064846
		c-0.1163216-0.1403637-0.0134544-0.2595406,0.0841064-0.3904943c0.3131638-0.4203625,0.706604-0.7157679,1.1906548-0.9182119
		c1.5111198-0.6319962,3.0246353-1.244153,4.7073479-0.7335348c0.3379021,0.1025372,0.6515617,0.2849894,0.9763947,0.4305935
		C39.8238411,11.0962362,39.8073235,11.1762371,39.7908096,11.2562389z"/>
	<path style="fill:#4C932B;" d="M41.1637993,13.3222008c0.5224266,0.6273041,1.0429306,1.2562208,1.5676956,1.8815575
		c0.9728279,1.1592751,0.7964096,2.6093464,1.0001984,3.9613361c0.1655769,1.0985031,0.4526711,2.2087612-0.1648483,3.2701321
		c-0.0354614-1.2665081,0.1082916-2.5350189-0.1334076-3.7996483c-0.3563232-1.8643303-1.1923561-3.4703388-2.4638672-4.8649902
		c-0.1561508-0.1712761-0.3991394-0.2987404-0.3654213-0.5909843
		C40.8317337,13.0655222,40.9886742,13.2296247,41.1637993,13.3222008z"/>
	<path style="fill:#5CC828;" d="M35.1563187,7.8631883c-1.0571442-0.3800426-1.9580193-1.0905528-3.0390701-1.4246254
		c-0.8114185-0.2507491-1.6159363-0.4947214-2.4709797-0.2215505c-0.099102,0.0010791-0.1982231,0.0021248-0.2973232,0.0031767
		c-0.2166824-0.1499825-0.4697018-0.2719011-0.4697247-0.6793194c1.2641621-0.1462569,2.4117851,0.2568183,3.5980701,0.5908022
		c0.722168,0.2033172,1.1822433,0.830471,1.9414978,0.9329109C34.7907372,7.1147676,35.13517,7.389411,35.1563187,7.8631883z"/>
	<path style="fill:#CCCCCC;" d="M32.6267662,10.7023602c-0.4084282,0.2343855-0.8210278,0.4461212-1.3100948,0.2415934
		c-0.2775383-0.566165-0.6594086-0.3843737-1.0491676-0.145833c-0.2875118-0.2294836-0.6182957-0.203228-0.9517727-0.161027
		c-0.0170116-0.101078-0.0340233-0.2021551-0.0510349-0.3032331c0.0709934-0.0504341,0.1419888-0.1008663,0.2127953-0.1513767
		c0.4134617-0.0520868,0.845686-0.0450659,1.236948-0.1682014c0.8548145-0.269021,1.6561813-0.2140341,2.4577789,0.2570419
		C32.9969864,10.4097958,32.8118744,10.556078,32.6267662,10.7023602z"/>
	<path style="fill:#5CC828;" d="M27.5004711,32.5512772c0.479578-0.4585266,0.9295959-0.9296799,0.7187576-1.683073
		c0.2074928-0.2979374,0.3118229-0.1315098,0.4040623,0.0898609c0.2460861,0.5640736,0.9651566,0.9273262,0.7210121,1.6992531
		C28.6884575,33.3389473,28.0992393,32.8620758,27.5004711,32.5512772z"/>
	<path style="fill:#4C932B;" d="M24.2057743,29.5672398c-0.1391678,0.1948376-0.1225204,0.5784073-0.5351238,0.4421253
		c-1.0221863-0.3376102-2.0441971-0.6757393-3.0666103-1.0126514c-0.2207909-0.0727615-0.3512745-0.2186584-0.3806095-0.4518108
		C21.5508175,28.8854084,22.8782959,29.2263222,24.2057743,29.5672398z"/>
	<path style="fill:#4C932B;" d="M19.7147694,11.1224174c-0.0254841-0.2424498,0.4242554-0.4209375,0.0953465-0.7043514
		c0.4918499-0.3778086,0.7705765-0.8601828,0.7369366-1.4962921c0.1717052-0.2104034,0.4098358-0.1562796,0.6345501-0.1590557
		c-0.2304802,0.8714485-0.7559185,1.5907526-1.2126274,2.3457432
		C19.8839703,11.1130705,19.7993717,11.1177444,19.7147694,11.1224174z"/>
	<path style="fill:#4C932B;" d="M22.1698265,14.3555088c0.2380981-0.5197468,0.9100513-0.840723,0.7140446-1.5593491
		c0.3321705,0.0165968,0.37883,0.2631178,0.4157066,0.5174084C23.223629,14.3963356,22.9848366,14.6165924,22.1698265,14.3555088z"
		/>
	<path style="fill:#4C932B;" d="M29.3443031,32.6573181c0.2441444-0.7719269-0.474926-1.1351795-0.7210121-1.6992531
		c1.0874023,0.0313148,1.1738167,0.1685905,1.0658493,1.6932106l0.0061665-0.0064697
		C29.5783062,32.6489754,29.4613037,32.6531487,29.3443031,32.6573181z"/>
	<path style="fill:#5CC828;" d="M17.6763058,24.520174c-0.7833099,0.2762527-1.4683552-0.1228981-2.182642-0.3178596
		C16.2658119,24.0044289,17.0148869,23.9616394,17.6763058,24.520174z"/>
	<path style="fill:#5CC828;" d="M36.4319305,9.6668062c0.0329895-0.5871296-0.605114-0.7893372-0.7358856-1.2827082
		c0.4917641-0.0412865,0.866806,0.1120319,1.0174789,0.6236372C36.7998543,9.3008709,36.8886757,9.6024017,36.4319305,9.6668062z"/>
	<path style="fill:#5CC828;" d="M49.8627167,31.9648495c0.0455666,0.4810543,0.1629372,0.9637775-0.1346092,1.4044285
		C49.2134972,32.8429947,49.7064247,32.4140511,49.8627167,31.9648495z"/>
	<path style="fill:#4C932B;" d="M40.5887451,13.1644821c-0.3747482,0.0180578-0.6280785-0.1461678-0.7539978-0.5018482
		C40.244072,12.5922432,40.5866241,12.6224232,40.5887451,13.1644821z"/>
	<path style="fill:#4C932B;" d="M22.8003349,12.7399654c-0.3908768-0.0009813-0.8020897,0.1500807-1.1526299-0.15417
		C22.0619678,12.4113274,22.4423523,12.4918871,22.8003349,12.7399654z"/>
	<polygon style="fill:#4C932B;" points="47.7550735,14.4052563 47.7870827,14.4437361 47.7500572,14.4102278 	"/>
	<path style="fill:#4C932B;" d="M39.1995811,12.385973c-0.0842896-0.0287981-0.1685791-0.0575972-0.2530251-0.0860186
		C39.0612984,12.2386847,39.1397629,12.2847738,39.1995811,12.385973z"/>
	<path style="fill:#9BE76E;" d="M28.9631405,13.6887569c-0.3568211,0.2786093-0.8769779,0.4523621-0.6924934,1.0786009
		c-0.9610596-0.1428013-1.9619083,0.0838175-2.8954754-0.312604c-0.0357361-0.0273409-0.0705357-0.055829-0.1043949-0.0854645
		c0.0131493-0.1128168,0.0262985-0.2256336,0.0394459-0.3384504l-0.0060749,0.0101757
		c0.7784843,0.0450649,1.5270195-0.2958851,2.3110523-0.1793461c0.0949936-0.0324135,0.1899929-0.064827,0.2849865-0.0972376
		c-0.0693684-0.0400629-0.1387386-0.0801258-0.208107-0.1201878c0.1526432-0.3334293-0.1810017-0.5826683-0.15518-0.8939266
		c0.1818485-0.105999,0.1149101-0.3022957,0.16465-0.4564381c0.0218639-0.0382957,0.054842-0.0570803,0.0994167-0.056489
		c0.1213799,0.1193247,0.2422714,0.2387829,0.363163,0.358242c0.0751076,0.0590448,0.1502171,0.1180906,0.2253246,0.1771345
		C29.123558,12.7380934,28.9711132,13.2586679,28.9631405,13.6887569z"/>
	<path style="fill:#CCCCCC;" d="M25.3102226,14.030839c-0.0131474,0.1128168-0.0262966,0.2256336-0.0391655,0.3386946
		c-0.0853214,0.0832653-0.1840687,0.1640377-0.0484276,0.2849169c0.050848-0.0665665,0.1016941-0.133131,0.1525421-0.1996965
		c0.933567,0.3964214,1.9344158,0.1698027,2.8954754,0.312604c-0.0358315,0.5054808-0.2864552,0.7616577-0.8134975,0.7286377
		c-0.7172146-0.0449371-1.4385033-0.0450954-2.152277-0.1196566c-0.922327-0.0963516-0.9699516-0.2251978-0.4597893-0.9930782
		C24.9564781,14.2155952,25.0394249,13.9948225,25.3102226,14.030839z"/>
	<path style="fill:#CCCCCC;" d="M27.5372639,12.7500381c-0.026186,0.3115368,0.3074589,0.5607758,0.1546917,0.8945026
		c-0.0256691,0.0725737-0.0512123,0.1448517-0.0767555,0.2171278c-0.7840328-0.116539-1.532568,0.224411-2.3110523,0.1793461
		c0.2652569-1.0572443,1.1556835-1.9344301,1.8922462-1.8643885C26.6941929,12.7340069,27.58778,12.4611835,27.5372639,12.7500381z
		 M26.8034954,12.7810802c-0.1529884,0.0731773-0.305975,0.1463528-0.4875031,0.233181
		c0.2438507,0.169672,0.3644543,0.0486507,0.4794769-0.0921345c0.1132889-0.0285969,0.2916317,0.2121038,0.3266563-0.0157881
		C27.1546822,12.6944857,26.9191322,12.8129473,26.8034954,12.7810802z"/>
	<path style="fill:#CCCCCC;" d="M28.9631405,13.6887569c0.0079727-0.430089,0.1604176-0.9506636-0.5736618-0.9161062
		c-0.0053997-0.197197,0.4685745-0.5358162-0.1618443-0.5483723c0.5753517-0.4057388,1.1416969-0.8281498,1.8451118-0.99685
		c0.2153454,0.2024908,0.6619911-0.0030327,0.7495346,0.424902C30.300375,12.420433,29.614666,13.03899,28.9631405,13.6887569z"/>
	<path style="fill:#4C932B;" d="M30.0727463,11.2274284c-0.7034149,0.1687002-1.2697601,0.5911112-1.8451118,0.99685
		l0.0122414-0.0105829c-0.1464653,0.0079441-0.2929306,0.0158863-0.4393959,0.0238285
		c-0.0440884-0.0007257-0.0770664,0.0180588-0.0995674,0.0565786c-0.1629944,0.0288086-0.3268394,0.0623665-0.4241638-0.126461
		c0.0725994-0.3520164,0.3824501-0.5228043,0.5897121-0.7720137c0.6422539,0.2805166,0.7565403-0.2038765,0.9116096-0.6291761
		l0.0106602-0.0077782c0.1937618,0.0378962,0.3831024,0.0566521,0.5270004-0.1215801
		c0.333477-0.042201,0.6642609-0.0684566,0.951376,0.1607618C30.1858025,10.9335356,29.992672,11.0188398,30.0727463,11.2274284z"/>
	<path style="fill:#4C932B;" d="M18.3936386,16.1555443c1.4059086-0.2442398,2.7868729,0.0234318,4.1737785,0.1691742
		C21.1605225,16.5891933,19.7878304,16.1517086,18.3936386,16.1555443z"/>
	<path style="fill:#9BE76E;" d="M30.0727463,11.2274284c-0.0800743-0.2085886,0.1130562-0.2938929,0.1943607-0.4295731
		c0.3901558-0.2382755,0.7720261-0.4200668,1.0495644,0.1460981c-0.0840454,0.2929201-0.1511269,0.5976515-0.494854,0.7086449
		C30.7347374,11.2243958,30.2880917,11.4299192,30.0727463,11.2274284z"/>
	<path style="fill:#9BE76E;" d="M28.7780704,10.7664518c-0.1550694,0.4252996-0.2693558,0.9096928-0.9116096,0.6291761
		C27.8784103,10.7630005,28.2871227,10.7051506,28.7780704,10.7664518z"/>
	<path style="fill:#FEFEFE;" d="M27.2767487,12.1676416c0.0973244,0.1888275,0.2611694,0.1552696,0.4241638,0.126461
		c-0.0491028,0.1539183,0.0178356,0.350215-0.1640129,0.456214c0.0508804-0.2891331-0.8427067-0.0163097-0.3405056-0.5736904
		C27.1966839,12.17665,27.2767487,12.1676416,27.2767487,12.1676416z"/>
	<path style="fill:#9BE76E;" d="M29.315731,10.6370935c-0.143898,0.1782322-0.3332386,0.1594763-0.5270004,0.1215801
		c0.0046234-0.3143759,0.2470016-0.3619328,0.476078-0.4245529C29.2817078,10.4349384,29.2987194,10.5360155,29.315731,10.6370935z"
		/>
	<path style="fill:#4C932B;" d="M23.2486801,34.9841881c0.2830162,0.0096664,0.5557041,0.0563316,0.7951698,0.2219696
		c0.2546482,0.3564987,0.6761494,0.3943977,1.0412579,0.4984398c1.6316833,0.4649467,3.2829533,0.8629532,4.907526,1.3505173
		c1.2404594,0.3722801,2.5354271,0.5748482,3.7124519,1.1518326c-0.0343399,0.3489647-0.2520981,0.2048378-0.4607353,0.2018509
		c-1.0317307-0.014782-2.0309982-0.2364197-3.0343266-0.4342232c-1.9104996-0.3766518-3.8796825-0.4982452-5.6490288-1.4645691
		c-0.6021099-0.3288422-0.993227-0.9553566-1.6945171-1.1136742c-0.0850868-0.0177116-0.1701756-0.0354233-0.2549305-0.0537605
		c0.0404682-0.0498924,0.0806046-0.0991669,0.1206913-0.1483307c0.0689087-0.0477753,0.1378708-0.0956612,0.2068291-0.1435471
		C23.0422707,35.0285225,23.1454773,35.0063553,23.2486801,34.9841881z"/>
	<path style="fill:#9BE76E;" d="M22.866478,35.3963318c0.7012901,0.1583176,1.0924072,0.784832,1.6945171,1.1136742
		c1.7693462,0.9663239,3.7385292,1.0879173,5.6490288,1.4645691c1.0033283,0.1978035,2.0025959,0.4194412,3.0343266,0.4342232
		c0.2086372,0.0029869,0.4263954,0.1471138,0.4608231-0.2018852c0.2559929,0.014946,0.5118866,0.0299263,0.7677841,0.0449028
		c0.0658951,0.1215706,0.1577873,0.1088676,0.2586021,0.0500755c0.1430321,0.0316849,0.2860603,0.0633736,0.4290924,0.0950623
		c-0.5422096,0.8229141-1.3916359,0.5006371-2.060627,0.4165459c-2.5919876-0.3258133-5.1812515-0.7459183-7.6930294-1.4623375
		C24.3854504,37.0597878,23.1263885,36.8010788,22.866478,35.3963318z"/>
	<path style="fill:#101911;" d="M35.1606522,38.3969536c-0.1430321-0.0316887-0.2860603-0.0633774-0.4286423-0.094902
		c0.025135-0.1841469,0.0498238-0.3684464,0.0745125-0.5527458L34.79636,37.7601166
		c0.252327-0.2043991,0.5782318-0.1416969,0.8553314-0.2345276c0.701973-0.2351685,0.6156578,0.1291046,0.4722519,0.5662651
		C35.9052963,38.5151596,35.4857063,38.3071785,35.1606522,38.3969536z"/>
	<path style="fill:#9BE76E;" d="M29.3443031,32.6573181c0.1170006-0.0041695,0.2340031-0.0083427,0.3510036-0.0125122
		c-0.1427441,0.692234-0.6115246,0.964447-1.2509251,0.818203c-1.0904579-0.2494011-2.1637554-0.5738449-3.2437916-0.867054
		c0.2438145-0.2605133,0.5718765-0.2966499,0.8977623-0.3393593c0.4677048,0.0980301,0.935091,0.1960449,1.4022961,0.2943687
		C28.0992393,32.8620758,28.6884575,33.3389473,29.3443031,32.6573181z"/>
	<path style="fill:#9BE76E;" d="M19.6000824,30.6556587c0.7245979-0.1454029,1.4037876,0.1769352,1.9571533,0.4810314
		c0.6667042,0.3663788,1.4476795,0.1318684,2.0509262,0.605051c0.1809006,0.1418972,0.2156677,0.2575588,0.1780338,0.4443665
		c-1.1112385-0.2820339-2.223278-0.5583725-3.332098-0.8470821C20.0744305,31.2401714,19.6731262,31.1472797,19.6000824,30.6556587z
		"/>
	<path style="fill:#5CC828;" d="M30.6029034,34.6522484c-0.0126228,0.0247612-0.0252457,0.0495224-0.0378647,0.0742836
		c0.0139217-0.0234833,0.0278473-0.0469666,0.0417843-0.070446L30.6029034,34.6522484z"/>
	<path style="fill:#5CC828;" d="M5.9547529,30.2958527c0.8853664-0.1170464,1.7343822,0.0285587,2.558445,0.3541279
		c0.0120716,0.04813,0.0281668,0.0948524,0.0482473,0.1401501c-0.4924774,0.4286156-0.9307704-0.0418739-1.3921585-0.0932198
		c-0.3790355-0.0421791-0.7508416-0.1493225-1.1250443-0.2275391C6.0149503,30.4116211,5.9848514,30.3537369,5.9547529,30.2958527z"
		/>
	<path style="fill:#FEFEFE;" d="M20.5470524,8.9217739c0.0336399,0.6361094-0.2450867,1.1184835-0.7369366,1.4962921
		c-0.4000397-0.0213184-0.79953-0.0426865-1.1987972-0.0639877c0.2169285-0.2774878,0.8413372-0.3927889,0.3754959-0.9419384
		c0.2965279-0.4449272,0.835865-0.3281641,1.2356319-0.5343189C20.3307571,8.8924713,20.4389057,8.9071236,20.5470524,8.9217739z"/>
	<path style="fill:#9BE76E;" d="M22.9390678,35.0506935c-0.0689583,0.0478859-0.1379204,0.0957718-0.206831,0.1435471
		C22.8012123,35.1463165,22.8701401,35.0985031,22.9390678,35.0506935z"/>
	<path style="fill:#CCCCCC;" d="M36.5689659,28.9411125c0.1306534-0.1386719,0.3161926,0.5066147,0.4046364-0.020195
		c0.0691795-0.4120598,0.2752953-0.4442635,0.5570984-0.2327633c0.2778397,0.2085266,0.3653336,0.1487808,0.3613396-0.1776886
		c-0.0010338-0.0845089,0.0534973-0.2451496,0.0661011-0.2435226c0.5410805,0.0697212,0.8706207-0.1700077,1.1602173-0.6192455
		c0.0486031-0.0753994,0.4868927,0.074316,0.4631119-0.3902969c-0.0116539-0.2277203,0.3148499-0.2598629,0.5197906-0.2302723
		c0.1696129,0.0244865,0.4322586,0.1050739,0.4662018,0.2174397c0.0632553,0.2093849-0.1819038,0.3125076-0.3307076,0.4531193
		c-1.0883179,1.0283928-2.3155594,1.7395134-3.8541832,1.7867241C36.4452858,29.3033562,36.507122,29.1222343,36.5689659,28.9411125
		z"/>
	<path style="fill:#4C932B;" d="M35.9441795,29.491333c-0.4957085,0.3273201-0.9777756-0.0877113-1.4738617-0.0368919
		c-0.1338043,0.0137081-0.1932907-0.2017879-0.1794014-0.3637886c0.0122604-0.1430435,0.1525993-0.2681046,0.2247314-0.2123985
		c0.4607925,0.3558502,1.1107292-0.1373024,1.5273552,0.35676C36.0102501,29.320261,35.9772148,29.405798,35.9441795,29.491333z"/>
	<path style="fill:#4C932B;" d="M33.2591324,21.8635159c-0.5779037-0.120182-0.8347588,0.2674809-1.2070885,0.389389
		c-0.1808796,0.0592251-0.3621788,0.253231-0.507206-0.0742359c-0.1420288-0.3206882,0.1812077-0.2127552,0.2571945-0.3231392
		C32.2180061,21.2512493,32.6629295,21.3935642,33.2591324,21.8635159z"/>
	<path style="fill:#4C932B;" d="M40.2694359,18.235075c-0.0688515,0.4571781,0.1796227,1.2355499-0.8411522,0.7817593
		c0.1998749-0.3785458,0.3391533-0.7659874,0.8460617-0.7764225L40.2694359,18.235075z"/>
	<path style="fill:#4C932B;" d="M37.6334572,18.5847759c0.1446304,0.3974934,0.0687981,0.7600975-0.1597939,1.1473141
		C37.2631302,19.2806931,37.5526199,18.9472713,37.6334572,18.5847759z"/>
	<path style="fill:#9BE76E;" d="M35.9441795,29.491333c0.0330353-0.085535,0.0660706-0.171072,0.0988235-0.256319
		c0.1376648-0.165844,0.1439934-0.5691872,0.5267754-0.2932625c-0.0626564,0.1804829-0.1244926,0.3616047-0.1872063,0.5426559
		C36.2358589,29.4866695,36.0900192,29.4890003,35.9441795,29.491333z"/>
	<path style="fill:#4C932B;" d="M35.3453751,14.9519691c-0.0552292,0.1565971-0.0795021,0.374156-0.3280182,0.2122803
		c-0.0594559-0.0387287-0.1290207-0.1685019-0.1069946-0.2083254c0.1343575-0.242959,0.2891235,0.0343695,0.4383621-0.0005026
		L35.3453751,14.9519691z"/>
	<path style="fill:#4C932B;" d="M35.3487244,14.9554214c0.0203094-0.137455,0.0365295-0.2801647,0.2281609-0.2692022
		c0.0201683,0.0011549,0.055275,0.0381594,0.0547714,0.0577974c-0.0048714,0.1903791-0.1452866,0.2007637-0.2862778,0.2079563
		L35.3487244,14.9554214z"/>
	<path style="fill:#4C932B;" d="M37.9039612,18.0318127c-0.0413284,0.0559902-0.072731,0.0985355-0.1041374,0.1410828
		c-0.0312386-0.0777683-0.0779686-0.1537342-0.0873108-0.2340527c-0.004818-0.0414009,0.0568771-0.0905399,0.0885239-0.1361809
		C37.8359299,17.8803444,37.8708191,17.9580269,37.9039612,18.0318127z"/>
	<path style="fill:#4C932B;" d="M40.2743454,18.2404118c0.0354042-0.0397606,0.0708046-0.0795212,0.1062088-0.1192837
		c0.0161057,0.0220394,0.0322151,0.0440788,0.0483208,0.0661221c-0.0531425,0.0159378-0.1062889,0.0318737-0.1594353,0.0478191
		L40.2743454,18.2404118z"/>
	<path style="fill:#101911;" d="M34.4729576,38.2518158c-0.2558975-0.0149765-0.5117912-0.0299568-0.7677841-0.0449028
		c-1.1771126-0.5769501-2.4720802-0.7795181-3.7125397-1.1517982c-1.6245728-0.4875641-3.2758427-0.8855705-4.907526-1.3505173
		c-0.3651085-0.1040421-0.7866096-0.1419411-1.0412579-0.4984398c2.154747,0.1928253,4.2068291,0.8658829,6.2959995,1.3607712
		c1.445219,0.3423462,2.8756161,0.7424965,4.3779964,0.725666c0.0260162,0.1560326,0.0522652,0.3117599,0.0785141,0.4675102
		l0.0101509-0.0107841C34.4820862,37.7752953,34.4420357,37.9900017,34.4729576,38.2518158z"/>
	<path style="fill:#9BE76E;" d="M38.4422607,36.2957077c-0.6642761,0.4805679-1.4160538,0.6883583-2.2266884,0.7140923
		C36.8918152,36.5668907,37.6293602,36.3137932,38.4422607,36.2957077z"/>
	<path style="fill:#9BE76E;" d="M38.828373,36.1114769c-0.1259575,0.0597763-0.251915,0.1195526-0.377861,0.1793404
		C38.5149498,36.1014099,38.6736298,36.1105957,38.828373,36.1114769z"/>
	<path style="fill:#9BE76E;" d="M39.5374298,35.7479553c-0.1194572,0.0595474-0.2389069,0.119091-0.3583488,0.1786423
		C39.2410622,35.7517662,39.3868332,35.7450218,39.5374298,35.7479553z"/>
	<path style="fill:#9BE76E;" d="M39.904007,35.5649872c-0.0800781,0.1401863-0.2159653,0.1680031-0.3602333,0.1789131
		C39.605423,35.5666161,39.752533,35.5614052,39.904007,35.5649872z"/>
	<path style="fill:#9BE76E;" d="M39.1730232,35.9317856c-0.0611191,0.0449638-0.1222382,0.0899277-0.1835823,0.1347275
		C39.0504875,36.021492,39.1117554,35.9766388,39.1730232,35.9317856z"/>
	<path style="fill:#4C932B;" d="M15.6540384,25.2867222c0.0303602-0.4000034,0.1449537-0.7022839,0.6644964-0.5645733
		c0.3156948,0.083683,0.644783,0.1185093,0.9579716,0.2093601c0.191288,0.0554905,0.4327888,0.1337509,0.314043,0.4299889
		c-0.0854073,0.2130642-0.2222614,0.3668308-0.4836845,0.2576714c-0.3038826-0.1268902-0.5660305-0.0808105-0.845253,0.1053848
		C15.7407494,26.0718918,15.6445751,25.7471657,15.6540384,25.2867222z"/>
	<path style="fill:#4C932B;" d="M13.4621363,29.5594139c-0.1590881,0.3638287-0.4319458,0.4701157-0.7528915,0.3586483
		c-0.4476633-0.1554775-0.8269958-0.3812733-0.717041-0.9788494c0.0753937-0.4097404,0.3619394-0.360096,0.6220875-0.313467
		C13.1360321,28.7192631,13.30513,29.1469593,13.4621363,29.5594139z"/>
	<path style="fill:#4C932B;" d="M10.9359093,28.6222897c-0.2776709-0.2197685-0.4908867-0.3805981-0.6941071-0.553196
		c-0.0833416-0.0707855-0.1947365-0.1452541-0.1378517-0.2882633c0.1948338-0.4898129,0.2220287-0.6764431,0.1476555-1.0366955
		C11.3615313,27.1118336,11.450429,27.333437,10.9359093,28.6222897z"/>
	<path style="fill:#4C932B;" d="M12.1616821,31.2089958c-0.62502-0.1069355-0.9241571-0.6575108-0.6453924-1.1828938
		c0.1012077-0.1907387,0.2196445-0.2825241,0.423172-0.1221066c0.213975,0.1686516,0.442029,0.3201389,0.6494398,0.4961967
		c0.1646233,0.13974,0.2949848,0.3240891,0.2451468,0.5518398c-0.0875607,0.4001484-0.5309095-0.1420422-0.6435833,0.2282963
		L12.1616821,31.2089958z"/>
	<path style="fill:#4C932B;" d="M14.5325012,30.9408607c-0.2674894,0.0576363-0.3453074-0.0748825-0.3327541-0.23563
		c0.0182018-0.2331066,0.0388517-0.515625,0.3236322-0.5710907c0.1940527-0.0377903,0.3278418,0.1419544,0.3649578,0.3268394
		C14.9529057,30.7825985,14.6692429,30.8383331,14.5325012,30.9408607z"/>
	<path style="fill:#4C932B;" d="M13.1315851,25.1680279c0.1769352,0.3878078,0.2043238,0.6785717-0.0381584,0.9466114
		c-0.0781775,0.0864162-0.2438688,0.1204624-0.2865944-0.0268955C12.7096081,25.7524261,12.850482,25.4813519,13.1315851,25.1680279
		z"/>
	<path style="fill:#4C932B;" d="M13.9549599,24.6433544c-0.0043612,0.1708202-0.0262613,0.3100147-0.1741381,0.2844772
		c-0.1589308-0.027441-0.3623295-0.0691395-0.3873854-0.2721004c-0.0186491-0.1510658,0.140296-0.1556492,0.25105-0.1717854
		C13.8075333,24.4601898,13.9176645,24.5245342,13.9549599,24.6433544z"/>
	<path style="fill:#4C932B;" d="M12.190465,31.1803284c0.0255995,0.0344887,0.0511971,0.0689754,0.0767956,0.1034641
		c-0.034915-0.0252171-0.0698309-0.0504379-0.1051626-0.0752277L12.190465,31.1803284z"/>
	<path style="fill:#4C932B;" d="M24.9406796,30.6364784c0.0024853,0.3688679,0.0049686,0.7377377,0.0074368,1.106617
		c-0.0165195,0.2612915-0.0921345,0.4973412-0.4082813,0.4653244c-0.2535152-0.0256767-0.324564-0.247921-0.3167267-0.4690456
		C24.2410583,31.2330723,24.1905899,30.6707897,24.9406796,30.6364784z"/>
	<path style="fill:#4C932B;" d="M28.2276344,12.2242785c0.6304188,0.0125561,0.1564445,0.3511753,0.1618443,0.5483723
		c-0.0751324-0.0589285-0.1502419-0.1179743-0.2251377-0.1772184c0.0253201-0.1273775,0.0504284-0.2545576,0.0755348-0.3817368
		L28.2276344,12.2242785z"/>
	<path style="fill:#CCCCCC;" d="M28.2398758,12.2136955c-0.0251064,0.1271791-0.0502148,0.2543592-0.0755348,0.3817368
		c-0.1211033-0.1192598-0.2419949-0.238718-0.3633747-0.3580427C27.9469452,12.2295818,28.0934105,12.2216396,28.2398758,12.2136955
		z"/>
	<path style="fill:#5CC828;" d="M27.6152,13.8616686c0.0255432-0.0722761,0.0510864-0.1445541,0.0767555-0.2171278
		c0.0694923,0.0397644,0.1388626,0.0798273,0.208231,0.1198902C27.8051929,13.7968416,27.7101936,13.8292551,27.6152,13.8616686z"/>
	<path style="fill:#9BE76E;" d="M25.3751717,14.4547539c-0.050848,0.0665655-0.1016941,0.1331301-0.1525421,0.1996965
		c-0.1356411-0.1208792-0.0368938-0.2016516,0.0484276-0.2849169C25.304636,14.3989248,25.3394356,14.427413,25.3751717,14.4547539z
		"/>
	<path style="fill:#FEFEFE;" d="M26.7954693,12.9221268c-0.1150227,0.1407852-0.2356262,0.2618065-0.4794769,0.0921345
		c0.1815281-0.0868282,0.3345146-0.1600037,0.4875889-0.2332659C26.7862301,12.8271284,26.7834969,12.8742018,26.7954693,12.9221268
		z"/>
	<path style="fill:#101911;" d="M26.7954693,12.9221268c-0.0119724-0.047925-0.0092392-0.0949984,0.008112-0.1411333
		c0.115551,0.0319538,0.3511009-0.0865078,0.3185444,0.1253452C27.087101,13.1342306,26.9087582,12.8935299,26.7954693,12.9221268z"
		/>
	<path style="fill:#4C932B;" d="M34.4729576,38.2518196c-0.0309219-0.2618179,0.0091286-0.4765244,0.3335533-0.5024986
		c-0.0246773,0.1842842-0.049366,0.3685837-0.074501,0.5527306C34.6307449,38.3606834,34.5388527,38.3733864,34.4729576,38.2518196z
		"/>
</g>
</svg>
