<?xml version="1.0" encoding="utf-8"?>
<!-- Generator: Adobe Illustrator 21.1.0, SVG Export Plug-In . SVG Version: 6.00 Build 0)  -->
<svg version="1.1" id="Слой_1" xmlns="http://www.w3.org/2000/svg" xmlns:xlink="http://www.w3.org/1999/xlink" x="0px" y="0px"
	 viewBox="0 0 55 45" style="enable-background:new 0 0 55 45;" xml:space="preserve">
<g>
	<path style="fill:#0B0C0A;" d="M34.3205757,16.4916611c-0.0399742,2.8492661-0.1880569,5.6966209-0.5207977,8.5229092
		c-0.1622276,1.3779335-0.0034447,2.75243-0.1905746,4.1176949c-0.3713608,0.1772709-0.3246803,0.3893776-0.051693,0.6203403
		c-0.0067863,0.137085-0.0135765,0.2741699-0.0203629,0.4112511c-0.3273354,0.3088741-0.1198502,0.7025089-0.1673126,1.0557384
		c-0.2601738-0.1651669-0.3268814-0.4231396-0.3183517-0.7047043c0.0094032-0.3105125-0.2833672-0.3605881-0.4400749-0.3927307
		c-0.1990891-0.0408363-0.2129326,0.2550697-0.2310524,0.395443c-0.0522614,0.404911-0.0596657,0.8177128-0.054081,1.2269993
		c0.0023842,0.1744576,0.2649918,0.3917274,0.2955437,0.2749214c0.1310158-0.5009613,0.6517448-0.2077942,0.8519783-0.4950371
		c0.0070953,1.7363892,0.0141869,3.4727745,0.0212822,5.2091637c-0.182003,0.21418-0.207653,0.4204292,0.0311241,0.6132545
		c0.0681305,0.4077225,0.2077599,0.8102913-0.0045471,1.2237587c-0.1323166,0.2576904,0.0736275,0.467308,0.1554718,0.6921387
		c-0.0406075,0.232502,0.0664215,0.3715057,0.2804108,0.4427757c0.0176163,0.1079597,0.0352325,0.2159195,0.0528564,0.3238792
		c-0.097538,0.0503311-0.1950684,0.1006622-0.2926025,0.1509933c-0.0311241-0.0880013-0.1000214-0.2385559-0.1716347-0.1680565
		c-0.5252953,0.517067-0.9259071,0.0698395-1.3581505-0.1493912c-0.011261-0.2937355-0.0222435-0.5874367-0.033226-0.8811378
		c0.1741905-0.0294571,0.1126328-0.2173996,0.2035713-0.3028259c0.1339569,0.0820122,0.210865,0.2959976,0.4268684,0.1854477
		c0.0142517-0.0072975,0.0288658-0.0425415,0.0230522-0.0561028c-0.0947571-0.2210922-0.2959251-0.0991974-0.4483223-0.1366806
		c-0.4317551-0.1178589-0.2354851-0.4881134-0.2552261-0.730732c-0.3774719-4.6387939,0.0657959-9.2632027,0.3041077-13.8885498
		c0.1593132-3.0921307,0.5052872-6.1711674,0.3132324-9.2792616c-0.1778908-2.8788824-1.6004906-4.5458603-4.2003212-4.740221
		c-1.1394768-0.0851851-1.1369934-0.0850573-1.1942348,1.0266275c-0.0113964,0.2212791-0.0498886,0.4411621-0.0758839,0.6616888
		c-0.1853065,0.6293135-0.1064568,0.7142267,0.6958256,0.7493439c0.0602493,0.1955538,0.0545006,0.3884354-0.0234203,0.5783949
		c-0.8324165,0-1.6648293,0-2.4972477,0c0.003685,0.0872669,0.0073681,0.1745348,0.0110512,0.2618017
		c0.877346,0.0500298,1.7516632,0.2997732,2.6344395-0.0083113c0.1685886,0.0103388,0.3371773,0.0206795,0.5057659,0.0310192
		c0.2622757,0.2505455,0.5521469,0.2044764,0.8494015,0.0790167c0.2734718,0.1282291,0.8479919-0.1483784,0.7928696,0.3588772
		c-0.0449409,0.4135437,0.43713,1.0733395-0.3811722,1.2721291c-0.068121-0.0189066-0.1362419-0.0378141-0.2043629-0.0567207
		c0.0682831-0.1025534,0.156414-0.197216,0.2009392-0.3092146c0.110239-0.2773008,0.2260895-0.6593618-0.0589733-0.7981615
		c-0.3450432-0.1680021-0.0914345,0.3888903-0.3732624,0.4804153c-0.0844269,0.0274191-0.5211964,0.3770227-0.0594463,0.6342192
		c-0.0008297,0.2493801-0.0016613,0.4987612-0.0024929,0.7481413c-0.3749294,0.3245707-0.4481506,1.3617582-0.1474876,2.0892191
		c-0.0001411,0.0977192-0.0002823,0.1954365-0.0004196,0.2931557c-0.1537228,0.0498009-0.3074436,0.0996056-0.4611626,0.1494064
		c-0.0202961-0.0112247-0.0405922-0.0224495-0.0608883-0.0336742c0.0204029,0.0111179,0.0408039,0.022234,0.0612068,0.03335
		c0.1245117,0.3962212,0.0063782,0.8582745,0.3260002,1.2015572c-0.0030174,0.0873795-0.0060387,0.1747589-0.009058,0.2621384
		c0.198988,0.2574921-0.6968002,0.5213604,0.0045204,0.7759247c-0.0020924,0.2447186-0.0041847,0.4894352-0.0062752,0.7341518
		c-0.4622173,0.7581081-0.4882183,1.5694942-0.2940807,2.4077663c0.3679333,0.4930706-0.1760635,0.9791031-0.0113487,1.4706039
		c-0.1249084,0.0146046-0.2055321,0.068716-0.2899876,0.1792488c-0.3354702,0.4390697,0.1411228,0.9086456,0.0076675,1.2402115
		c-0.2937164,0.7297459-0.1010456,1.4486828-0.1682796,2.1659679c-0.0212822,0.2270355-0.0789165,0.513916,0.2751732,0.5828514
		c-0.0850601,0.5420265-0.1701164,1.0840549-0.2551765,1.6260815c-0.2886715,0.6956158-0.2634563,1.3939362-0.0180435,2.0941544
		c-0.0018387,0.1977386-0.0036793,0.3954735-0.0055218,0.5932121c-0.4840431,0.4382362-0.4263,1.1093063,0.1160297,1.3484688
		c0.0429287,0.902729-0.1599293,1.8260422,0.2245274,2.8437729c0.0977039-0.4169159,0.1696014-0.7070007,0.4805279-0.830349
		c0.2213097,0.0265274,0.4426231,0.0530586,0.6639347,0.0795898c0.0018559,0.1950073-0.0107021,0.3987274,0.2604427,0.4310226
		c0.0087757,0.1051292,0.0175552,0.2102623,0.0263348,0.3153954c-0.0574265,0.0401421-0.114851,0.0802841-0.1722717,0.1204262
		c-0.0561581-0.0465012-0.1335545-0.0818939-0.164711-0.141468c-0.1216087-0.2325211-0.182497-0.5197296-0.5591431-0.4340897
		c-0.405838,0.0922852-0.2337875,0.4155502-0.2814426,0.6535492c-0.0942345,0.4706078,0.2043839,0.8546295,0.2786064,1.2876663
		c-0.976614,0.2655106-1.972784,0.1020164-2.9601307,0.1336441c0.2952709-0.4040871,0.9672375-0.0840263,1.210041-0.7009468
		c0.1918163-0.4873619,0.1967144-0.9555168,0.1057854-1.410511c-0.1422997-0.7120438-0.058857-1.4064636,0.0437775-2.0942154
		c0.3552475-2.3804245,0.121027-4.7664566,0.1215038-7.1501389c0.0000267-0.1436043-0.0914364-0.2208118-0.2188053-0.263504
		c-0.0520992-0.2310238,0.0813103-0.3995342,0.1672554-0.597435c0.1817017-0.4184093,0.1669922-0.8052139-0.3856258-0.947649
		c-0.2976303-0.2747917-0.0060349-0.5526276-0.004282-0.8289661l0.0058956-0.0061836
		c0.2070999-0.1322098,0.466465-0.2152901,0.5385532-0.5143433c-0.0949574-0.0161304-0.1479607-0.0426445-0.1860714-0.0286407
		c-0.1866055,0.0685883-0.3778725,0.1690979-0.5295601-0.0462971c-0.0762634-0.1082916,0.2641582-1.1047363,0.3602924-1.0985126
		c0.1904049,0.0751648,0.0013237,0.4246864,0.3218403,0.4227295c0.1773968-0.3141327-0.1563377-0.6047077-0.0527401-0.9117794
		c0.0451355-0.1350822,0.1133385-0.2671356,0.1315308-0.405756c0.0919609-0.7007065-0.1409435-1.4081554,0.1061172-2.1187763
		c0.1242733-0.3574448,0.0062943-0.7406063-0.5421352-0.6531734c0.42449-0.3620529,0.4439163-0.8703194,0.3720226-1.3407402
		c-0.0435429-0.2849102-0.4000492-0.3089218-0.6827202-0.2794685c-0.3068714-0.0455513-0.654995-0.336647-0.9086838-0.0674248
		c-0.2444172,0.259388-0.1873055,0.6678276,0.0103912,0.9653587c0.1763878,0.2654667-0.0520229,0.4744339-0.0092163,0.7082157
		c-0.3836842,0.3493042,0.036417,0.6802845,0.0232811,1.0211411c-0.2885208,0.5394745-0.0955772,1.1153316-0.1265182,1.6742725
		c-0.1615162,0.6408482-0.1996078,1.2908382-0.1442337,1.9477501c-0.0056057,0.1930904-0.0112114,0.3861809-0.0168171,0.5792713
		c0.0012093,0.248436,0.0024204,0.4968719,0.0036316,0.745306c-0.0129547,0.1479664-0.0259075,0.2959328-0.0388622,0.4438992
		c-0.4398708,0.1831264-0.4473133,0.5134659-0.3422623,0.913908c0.1839714,0.7012711,0.0411892,1.3845921-0.1693726,2.0582008
		c-0.0668373-0.0699806-0.1332932-0.1399384-0.199749-0.2098942c0.4876137-0.2692146-1.0290813-0.1040134-0.1044769-0.4759884
		c0.0028-0.0011292-0.0254974-0.1547813-0.0617657-0.1662865c-0.4132156-0.1310959-0.3117371-0.532032-0.4060307-0.8090858
		c-0.2524452-0.7417259-0.0711613-1.5022755-0.0486603-2.2616425c0.0547066-1.8459244,0.017355-3.6945724,0.0177479-5.5421238
		c0.0000553-0.2479191,0.0143242-0.4980698-0.1080837-0.726759c-0.3918953-0.7321434-0.3437901-1.5265656-0.3399258-2.3175373
		c0.0018215-0.3729095,0.0372372-0.7331867,0.128233-1.0983744c0.0734615-0.2947989-0.0202026-0.3429298-0.3073444-0.2297859
		c-0.4512062,0.1777925-0.4473095,0.1775455-0.4146042,0.693471c0.0125217,0.197506,0.0111828,0.3968391,0.0016823,0.5946445
		c-0.0723801,1.5068378,0.0378742,3.0105724-0.1043472,4.5266361c-0.1406841,1.499649,0.011898,3.0343056,0.1217766,4.5473633
		c0.0750961,1.0340996-0.1255932,2.0665531,0.0077667,3.0855923c0.2577629,1.9696236,0.3317013,3.9489059,0.4137459,5.9281311
		c0.039999,0.9649658,0.008604,1.9329643,0.0061131,2.8995819c-0.0015984,0.619175,0.1734524,1.1140518,0.8561554,1.2723503
		c0.1456985,0.033783,0.17309,0.1596184,0.1938457,0.2844887c-0.307024,0.0582314-0.6012173,0.0732155-0.9263725,0.0428581
		c-0.6183071-0.0577316-1.2673759-0.1762733-1.8745193,0.1157684c-0.1613007-0.0566292-0.3225975-0.1132584-0.4838943-0.1698875
		c-0.0055199-0.0499954-0.0110359-0.0999908-0.0163822-0.1499519c0.5936127,0.1051331,0.7983551-0.1980896,0.9228802-0.742733
		c0.1978474-0.8653183-0.0834846-1.7263603,0.0678768-2.587616c0.0562706-0.3201942-0.2863655-0.2960472-0.4757576-0.2844925
		c-0.1815834,0.0110855-0.3238487,0.2201309-0.5402088,0.1967278c0.0043526-0.2016678,0.0087051-0.4033394,0.0130577-0.6050072
		c0.0981159-0.1977921,0.7174206,0.4509659,0.4783573-0.2945023c0.1477261-0.0228996,0.2940636-0.0569,0.2626381-0.2526779
		c-0.0073185-0.0456009-0.1050797-0.122345-0.1326962-0.1115837c-0.1728077,0.0673752-0.109602,0.2331886-0.1294613,0.3647346
		c-0.1661224,0.0024681-0.3322449,0.0049324-0.4983692,0.0074005c-0.03965-0.0494347-0.0792999-0.0988693-0.118948-0.1483078
		c0.0499592-0.2542877,0.0214558-0.5033455-0.0499954-0.7495346c0.0455265-0.3096275,0.0345459-0.610939-0.1308308-0.8895493
		c0.0488682-0.1027832,0.0977325-0.2055702,0.1466503-0.3082237c0.180809,0.2245369,0.5240192,0.4969673,0.6776371,0.3342323
		c0.3632545-0.3848114-0.295845-0.5881004-0.2360039-1.0134506c-0.2809772,0.2211914-0.3422737,0.4624672-0.4393063,0.6823616
		c-0.2335663-0.0652885-0.1195431-0.3174515-0.2388077-0.4441948c0.0607738-0.1036339,0.0604763-0.2020874-0.024868-0.2933311
		c-0.0204105-0.2921486-0.0408211-0.5842915-0.0612316-0.8764381c0.3088722-0.1839447,0.3133888-0.3425064-0.039299-0.4712849
		c-0.1014156-0.9448013-0.2028313-1.8896046-0.3042469-2.8344078c0.1794968-0.1285305,0.1161709-0.2192078-0.045908-0.2944889
		c-0.0726242-0.1979408-0.1200867-0.3987789-0.0703125-0.6108074c0.1196499-0.320385,0.2505875-0.6426563-0.1465511-0.8766441
		c-0.0140285-0.1495819-0.0280571-0.2991638-0.0420876-0.4487457c0.1844044-0.2401485,0.2429256-0.4562283-0.1133842-0.5929909
		c-0.0899677-0.9989281-0.304224-1.9864616-0.2745018-2.9965572c0.0475788-0.3515224,0.2349052-0.7186718-0.1156616-1.0249615
		c-0.1286297-0.4448566-0.1135883-0.8965836-0.0645237-1.3499336c0.1792259-0.8346748,0.1851349-1.6690998-0.0036182-2.5032425
		c-0.0609703-0.3060398-0.055748-0.6073513,0.0643272-0.9004555c0.3479576-0.2345257,0.1597919-0.5614862,0.1479378-0.8580475
		c0.0105553-0.1140203,0.0211086-0.2280426,0.031662-0.342063c0.2264614,0.1551867,0.1499977,0.3946209,0.1647377,0.6064253
		c0.013958,0.2006712,0.0065384,0.4167671,0.2883797,0.419241c0.2870865,0.0025196,0.2098541-0.2027855,0.2620602-0.3946257
		c0.2159252-0.7934408,0.1325016-1.6488037,0.4066048-2.3988552c0.169342-0.4633875,0.1376095-0.8291006,0.0469894-1.2489853
		l0.0291157,0.0445518l-0.0316467-0.0428877c0.2676773,0.35604,0.4873524,0.3180227,0.763958-0.025713
		c0.2788372-0.3465099,0.3487549-0.8323526,0.7463551-1.0898733c0.8560028-0.5544262,1.6004639-1.2850256,2.5733318-1.6527882
		c0.2342739-0.0885601,0.3381653-0.1887798,0.2148304-0.4302664c0.0114727-0.1774263,0.0229511-0.3548527,0.0344276-0.532279
		c-0.2579918-0.6233196,0.2724171-1.2725825-0.0579624-1.9491534c-0.1400051,0.1960711-0.2523632,0.3534269-0.3647251,0.5107832
		c-0.0403271-0.0209775-0.0826817-0.0363793-0.1270657-0.0462046c-0.0190277-0.1763282-0.1004028-0.3018718-0.2817936-0.3459458
		c-0.0792179-0.2626629-0.3155212-0.1661406-0.4887848-0.2137642c-0.1949596-0.2108006-0.2574978-0.079051-0.2961502,0.1144867
		c-0.0965443,0.0602174-0.1940117,0.0647578-0.2925472,0.0048528c-0.131443-0.2155724,0.0581322-0.4319224,0.0618477-0.7210178
		c-0.2226048,0.1375856-0.3666592,0.2266212-0.5107155,0.3156562l-0.0007629-0.0009041
		c-0.1384296-0.1800675-0.4171619-0.3186193-0.236845-0.6063867c0.1418743-0.2264152,0.3953419-0.1056533,0.5995655-0.1393714
		c0.3250618-0.0536695,0.7168179,0.3567095,0.978035-0.139957c0.1984844-0.0009723,0.3969707-0.0019445,0.5954552-0.0029168
		c0.0991726,0.1665306,0.2188625,0.3245225,0.2925777,0.5016475c0.1035233,0.2487507,0.271328,0.2419047,0.3651714,0.0545177
		c0.3009338-0.6008954,0.8530197-0.4620366,1.2895679-0.3807139c0.5381794,0.1002545,1.0023537,0.0071745,1.4791718-0.182724
		c0.2302761-0.1316981,0.4769039-0.1589484,0.7346745-0.1150169c0.8544445,0.5428042,1.8912048,0.035028,2.7627239,0.4794436
		c0.5660629-0.511735,1.0737305-0.1773958,1.5846786,0.1093802c0.0085945,0.2153583,0.0171814,0.430717,0.0257683,0.6460752
		c0.0542793,0.4086719-0.1692123,0.4177203-0.4901924,0.3816481c-0.864399-0.0971441-1.7452278-0.0978808-2.5978851-0.1742601
		c-0.6385288-0.0571976-1.2787151,0.1423321-1.9303379-0.0792284c-0.5954685-0.2024684-0.8174744,0.3446431-0.9971123,0.810462
		c-0.4347897,0.3459463-0.3100433,0.8968883-0.3041077,1.2989869c0.0042896,0.290597,0.5992832,0.0767632,0.9267788,0.1199808
		c0.288662,0.0380917,0.586834,0.0041275,0.8808079,0.0019817c0.5542641,0.150732,1.1085281,0.3014641,1.6629429,0.452054
		c0.1176262,0.1213293,0.2429371,0.2268267,0.4283123,0.2098618l-0.0194435,0.0522308
		c0.3872185,0.9471436,1.0348377,1.6966057,1.793169,2.36201c0.0366325,0.0793915,0.0732346,0.1588125,0.1098404,0.2382345
		c0.0298042-0.0196285,0.0596085-0.039258,0.0894127-0.0588884c-0.0649757-0.0610723-0.1299553-0.1221466-0.1949348-0.1832199
		c0.0075722-0.1514053,0.0667305-0.2685986,0.216156-0.325922c0.2284393,0.369544,0.4004402,0.7595806,0.435482,1.1993475
		c-0.1902313,0.0529099-0.4047813-0.1497393-0.5339584,0.2682819c-0.3013916,0.9753103-0.2321167,1.955821-0.2790031,2.9407034
		c-0.0264511,0.5555515,0.150032,1.0077705,0.4391518,1.4522476c0.0825691,0.126936,0.1183205,0.2906418,0.309433,0.2241879
		c0.1807785-0.0628643,0.180378-0.2451572,0.1301346-0.3753853C33.7599373,16.6955509,33.8635902,16.4849606,34.3205757,16.4916611z
		 M21.8850193,28.8429794c0.0199795,0.01124,0.0399628,0.0224762,0.0599442,0.0337162
		c-0.0202179-0.0110035-0.040432-0.022007-0.0606461-0.0330124c-0.0389576-0.050106,0.0663013-0.2015457-0.1093407-0.1556072
		C21.8116608,28.7397079,21.848341,28.791338,21.8850193,28.8429794z M24.8622761,5.9175119
		c0.0530376,0.0571041,0.0836906,0.1926785,0.1923351,0.054873c-0.0643044-0.0180669-0.1286106-0.0361328-0.192915-0.0541992
		c-0.0184269-0.1075611-0.0148258-0.2337799-0.1775494-0.2248192c-0.0168648,0.0009284-0.0451698,0.0290437-0.0462074,0.0458965
		C24.6278744,5.9027805,24.7561836,5.8969393,24.8622761,5.9175119z M20.991045,22.8891563
		c-0.0198059-0.1074734-0.0396118-0.2149467-0.0594177-0.3224182c-0.0193062,0.012146-0.0504551,0.0203457-0.0560284,0.0370693
		c-0.0420971,0.1262798,0.0102558,0.2171669,0.1163521,0.2845993c0.0333157,0.193634-0.0721016,0.407526,0.0865765,0.6139259
		C21.1697464,23.2594376,21.1843567,23.0589352,20.991045,22.8891563z M21.7356682,31.2250652
		c0.1892815-0.4257717,0.3091736-0.8627243,0.2539711-1.4021473c-0.3200073,0.4791012-0.242218,0.9479446-0.2536221,1.4024391
		c-0.104908,0.0677719-0.1569633,0.1584415-0.1151657,0.2839851c0.0055485,0.0166626,0.0365219,0.0248585,0.0557213,0.036974
		C21.69627,31.4392319,21.7159691,31.3321495,21.7356682,31.2250652z M32.7524757,32.5655136
		c-0.2185555-0.0999184-0.4365921-0.190464-0.4423561,0.191555c-0.0047913,0.3175087-0.0024567,0.6351967,0.0019226,0.9527283
		c0.001709,0.1233864,0.0181541,0.2641602,0.1775131,0.2650375c0.1365395,0.0007553,0.2274895-0.1189041,0.2343521-0.239048
		c0.0222511-0.3895988,0.0203094-0.7805786,0.0276985-1.1710205c0.057148-0.0525589,0.1907501-0.0831146,0.0550346-0.1911926
		C32.7885857,32.4375534,32.7705307,32.5015335,32.7524757,32.5655136z M22.927187,30.3328857
		c-0.1662712-1.9182644-0.1395817-3.8406296-0.1244202-5.7628345c0.0013237-0.1677685,0.0417347-0.3502483-0.1190815-0.4799633
		c-0.0446339-0.7464733-0.0320396-1.4917469,0.0468884-2.2356281c0.053503-0.0462513,0.1525116-0.0911713,0.1539059-0.1389465
		c0.0463753-1.5872154,0.1679802-3.1752186-0.0223484-4.7612762c0.1633453-1.1712675-0.2782707-2.2645159-0.4379997-3.3972187
		c-0.1493702-0.0178089-0.1358356,0.120182-0.1692772,0.1938438c-0.8869057,1.9536047-0.935339,4.0256977-0.8353176,6.1124172
		c0.1376362,2.8714466,0.5650806,5.7136765,0.8976727,8.5653419c-0.0412064,0.671402,0.1410484,1.3085155,0.2991085,1.9493408
		c0.0853386,0.345499-0.1470375,0.7586536,0.2101192,1.1077957C23.003376,31.0697308,22.9035645,30.6962852,22.927187,30.3328857z
		 M22.9232883,13.1958761c0.1209431,0.1642828,0.2255077,0.1688757,0.3090248-0.0316973
		c0.4940128-0.0321178,0.9880257-0.0642347,1.4820385-0.0963526c0.2167492,0.1795044,0.331377,0.0877542,0.2693691-0.1477184
		c-0.0681496-0.2587852,0.0347023-0.4889603,0.0321484-0.7325249c0.9413929,0.0156898,0.452219-0.7108393,0.5583839-1.1121702
		c0.0933037-0.3527088-0.0212479-0.5065422-0.4294281-0.3205042c-1.0303307,0.4695959-1.8219833,1.2045517-2.4641533,2.1156139
		C22.4639034,13.1780548,22.7484455,13.1565361,22.9232883,13.1958761z M32.3106766,37.3787498
		c0.0817604,0.00877,0.1635208,0.01754,0.245285,0.02631c0.0744247-0.5806732,0.892662-1.0671883,0.1232376-1.759861
		c-0.1155396-0.1040077-0.0504303-0.2741699,0.0012398-0.4175186c0.0599442-0.1662941,0.116291-0.362915-0.1494293-0.3853989
		c-0.2004547-0.016964-0.2177925,0.1633072-0.2185669,0.3114586C32.3085785,35.8953934,32.3106766,36.6370773,32.3106766,37.3787498
		z M23.8863754,14.5094528c-0.2421665-0.2376337,0.1973305-0.8448086-0.3819923-0.9241133
		c-0.2967548-0.0406227-0.5012856,0.328599-0.4804955,0.6291628c0.0190239,0.2750292-0.0087719,0.6909552,0.4961491,0.632947
		C23.704565,14.826251,23.9403381,14.881176,23.8863754,14.5094528z M25.1754322,20.5326328
		c0.0439491,0.0043106,0.0878983,0.0086174,0.1318474,0.0129261c0-0.7063675,0-1.412735,0-2.1191044
		c-0.0439491-0.0005779-0.0878983-0.0011597-0.1318474-0.0017395
		C25.1754322,19.1273556,25.1754322,19.8299942,25.1754322,20.5326328z M20.938879,20.2832661
		c0.0448685-0.2714348,0.1408806-0.4990578-0.1328564-0.6277466c-0.0456429-0.0214596-0.1693439,0.0203915-0.1893883,0.0640297
		C20.4949112,19.9845886,20.6565018,20.126503,20.938879,20.2832661z M32.4529266,27.5300503
		c0.030407,0.0474854,0.0632286,0.1642838,0.1272774,0.1851273c0.1339836,0.0436039,0.1587105-0.0920219,0.1522522-0.1795273
		c-0.0060654-0.0821743-0.0496864-0.2102356-0.107235-0.2301693C32.491291,27.2590981,32.4916153,27.3958683,32.4529266,27.5300503z
		 M22.0060692,31.3551846c0.0512753,0.0885696,0.0798397,0.210928,0.1449528,0.2351856
		c0.1354866,0.0504742,0.1540565-0.0780354,0.153944-0.1749573c-0.0001144-0.1024437-0.0433273-0.202055-0.1567211-0.2105732
		C22.1103992,31.2019997,22.0657978,31.2890587,22.0060692,31.3551846z M21.609848,27.183363
		c0.1285896-0.2055397,0.2090206-0.3669033,0.0241604-0.5710983C21.5971966,26.7887573,21.4003201,26.9355698,21.609848,27.183363z
		 M20.8955231,25.103775c-0.0719585,0.1493645-0.0831947,0.2863789,0.061554,0.3899689
		c0.0211639,0.0151482,0.1159267-0.0199814,0.1190434-0.0405655C21.0993099,25.2999687,21.0532799,25.1739349,20.8955231,25.103775z
		 M32.4154968,29.0052891c0.0864563,0.1155186,0.1239128,0.1655674,0.1613693,0.2156162
		c0.0477982-0.0365963,0.1234398-0.0648403,0.1374626-0.1115723c0.0270653-0.090189,0.0085754-0.194191-0.1195145-0.1887188
		C32.5358696,28.92313,32.4789772,28.9736938,32.4154968,29.0052891z M21.8238926,27.7601929
		c-0.0522804,0.0611324-0.112669,0.1063232-0.1372528,0.1662102c-0.0411053,0.1001244-0.1240425,0.2829914,0.0902348,0.2279434
		C21.9253464,28.1162052,21.9021301,27.9215755,21.8238926,27.7601929z M21.1000233,24.2921848
		c-0.017519,0.040678-0.0350361,0.081356-0.0525551,0.1220379c0.0406742,0.0175018,0.0902901,0.0576496,0.1195011,0.0461159
		c0.0290451-0.011467,0.0601978-0.0837402,0.048727-0.112999C21.2043133,24.3183022,21.1409645,24.3096371,21.1000233,24.2921848z
		 M21.4422817,28.8531609c-0.0195808-0.0500374-0.0441113-0.1127186-0.0686417-0.1753979
		c-0.0247631,0.0341644-0.0689201,0.0675488-0.0703335,0.1026535c-0.0031338,0.0777721-0.0493603,0.1831245,0.078167,0.2094326
		C21.39048,28.9917088,21.4160042,28.9135036,21.4422817,28.8531609z M33.8073044,20.2128143
		c-0.0366096-0.0605984-0.0678215-0.1122684-0.0990372-0.1639385c-0.0188675,0.0409203-0.0549278,0.082798-0.0527153,0.1225452
		c0.0036392,0.0653725,0.032074,0.1293659,0.0500603,0.1939411C33.7374687,20.3175716,33.7693291,20.2697792,33.8073044,20.2128143z
		 M27.1632767,6.0568032c0.0392246-0.0200191,0.076725-0.0391574,0.1142235-0.0582957
		c-0.0348396-0.0223436-0.0689068-0.060832-0.1047325-0.0625463c-0.0367451-0.0017581-0.0752087,0.0324521-0.1129208,0.05092
		C27.0939636,6.0099449,27.1280823,6.0330091,27.1632767,6.0568032z M33.1891136,36.9627838
		c-0.0202637-0.0394173-0.0396309-0.0771027-0.0590019-0.1147842c-0.0225372,0.0350342-0.0613899,0.0692978-0.0630913,0.1053162
		c-0.0017471,0.0369377,0.0328445,0.0755959,0.0515289,0.1135025C33.141819,37.0325089,33.1650925,36.9981995,33.1891136,36.9627838
		z M32.979805,35.0537453c-0.0236359,0.0404282-0.0603256,0.0759621-0.0612907,0.1124306
		c-0.0009842,0.0372124,0.0331459,0.0753517,0.0519028,0.1130867c0.0219383-0.0354767,0.0596275-0.070179,0.0614204-0.1066475
		C33.0336647,35.1355095,33.0001411,35.0966644,32.979805,35.0537453z M21.1020355,16.4920578
		c-0.0104465-0.0195427-0.0208931-0.0390835-0.0313377-0.0586243c-0.0138187,0.0169506-0.0372314,0.0330715-0.038784,0.0510788
		c-0.0015888,0.0184155,0.018261,0.038681,0.0287285,0.0581379C21.0744381,16.5257854,21.0882378,16.5089207,21.1020355,16.4920578z
		"/>
	<path style="fill:#171814;" d="M21.7323875,39.4142723c0.1612968,0.0566292,0.3225937,0.1132584,0.4835052,0.1696472
		c0.2814407,0.5292282,0.7799339,0.1501617,1.1580162,0.2760086c0.1004143,0.1347694,0.2456188,0.1494942,0.3971195,0.1494598
		c1.6057167-0.0003395,3.2114315-0.0001221,4.8171482-0.0008202c0.1741524-0.0000763,0.3520203,0.0032272,0.4358006-0.1979866
		c0.0257626-0.1814613,0.5670261-0.2293129,0.1370811-0.5288849c-0.0740681-0.4332161-0.3726864-0.8172379-0.2784519-1.2878456
		c0.0476551-0.237999-0.1243954-0.561264,0.2814426-0.6535492c0.376646-0.08564,0.4375343,0.2015686,0.5591431,0.4340897
		c0.0311565,0.0595741,0.1085529,0.0949669,0.1649113,0.1415138c0.057045,0.457798,0.1270885,0.9144325,0.1659908,1.3737068
		c0.0249844,0.29496,0.0916405,0.410408,0.4445114,0.3855743c0.5647068-0.0397377,1.1527405-0.1008492,1.6896763,0.1878548
		c0.4319687,0.2191925,0.8325806,0.66642,1.3578758,0.149353c0.0716133-0.0704994,0.1405106,0.0800552,0.1716347,0.1680603
		c-0.1539345,0.145031,0.1433067,0.6396942-0.3839302,0.4954262c-0.0322342-0.0897141-0.0895576-0.0808258-0.1551437-0.0394859
		l-0.0027695,0.0006599c-0.408844-0.0138092-0.2479515,0.5163803-0.6343765,0.5969124
		c0.00951-0.7527046-0.4314156-0.7613564-0.984087-0.5472031c-1.3170395,0.5103378-2.6874523,0.600544-4.0828724,0.5538292
		c-1.9051762-0.0637779-3.8145294,0.248951-5.7157574-0.0180435c-0.8146305-0.1144028-1.6119843-0.3476906-2.4208584-0.5084915
		c-0.6581383-0.1308365-0.5316219-0.5602455-0.4102936-0.9987221c0.7477207,0.0476074,1.4952068,0.0993919,2.2432709,0.1407967
		C21.4782333,39.8731346,21.7944298,39.8774948,21.7323875,39.4142723z"/>
	<path style="fill:#171814;" d="M23.3736973,6.0671415c0.1440563-0.089035,0.2881107-0.1780705,0.5107155-0.3156562
		c-0.0037155,0.2890954-0.1932907,0.5054455-0.0618477,0.7210178c-1.2786713,0.0580282-2.5651684-0.0763254-3.8365459,0.1716833
		c-0.5569897,0.1086521-0.4634533-0.3418393-0.5252724-0.6510687c0.1049385-1.1140466,0.1051102-1.1257725,1.2923641-1.1082158
		c0.8514996,0.0125914,1.7032814,0.0991402,2.5533428,0.0804272c0.493042-0.0108538,0.9607487-0.0092506,1.4072361,0.2151933
		c-0.2612171,0.4966664-0.6529732,0.0862875-0.978035,0.139957c-0.2042236,0.0337181-0.4576912-0.0870438-0.5995655,0.1393714
		c-0.1803169,0.2877674,0.0984154,0.4263191,0.2368488,0.6063924c-0.050787,0.0385203-0.2020741-0.0669971-0.1567039,0.1093464
		C23.2687225,6.1394401,23.321209,6.1032906,23.3736973,6.0671415z M21.8656044,5.3991261
		c-0.2613316-0.0314231-0.4271851,0.0388069-0.5760746,0.1765299C21.4754162,5.5851407,21.6902828,5.7099409,21.8656044,5.3991261z
		 M22.3203125,5.4793987c-0.1315975,0.0285478-0.2546997,0.0413232-0.2066879,0.1657214
		c0.0227509,0.058949,0.1406689,0.1027427,0.2202454,0.111886c0.0738792,0.0084891,0.2202511,0.0161481,0.1637173-0.1317043
		C22.4711094,5.5560508,22.3677387,5.5162015,22.3203125,5.4793987z M20.501667,5.3797684
		c0.0031643,0.0156498,0.0012016,0.0383778,0.0107136,0.045269c0.0137844,0.0099893,0.0358639,0.0085311,0.0544071,0.0119557
		c-0.0049267-0.025806-0.0098534-0.0516119-0.0147839-0.0774174C20.5352249,5.3663068,20.5184441,5.3730373,20.501667,5.3797684z"/>
	<path style="fill:#171814;" d="M34.3205757,16.4916611c-0.4569855-0.0067005-0.5606384,0.2038898-0.4024506,0.6138687
		c0.0502434,0.130228,0.0506439,0.312521-0.1301346,0.3753853c-0.1911125,0.0664539-0.2268639-0.0972519-0.309433-0.2241879
		c-0.2891197-0.4444771-0.4656029-0.8966961-0.4391518-1.4522476c0.0468864-0.9848824-0.0223885-1.9653931,0.2790031-2.9407034
		c0.1291771-0.4180212,0.3437271-0.2153721,0.5339584-0.2682819c0.1280937,0.0773964,0.1853905,0.1828613,0.1317482,0.3323088
		c-0.0650711,0.0177021-0.130146,0.0354042-0.1952133,0.0531063c0.0381584,0.1242132,0.1476402,0.0623798,0.2243614,0.0860147
		c0.0597267,0.07798,0.0698509,0.1531029-0.0138321,0.2225761c-0.0179558,0.0405893-0.1581612,0.0150003-0.0637245,0.1159906
		c0.0282326-0.0325794,0.0564651-0.0651588,0.0847015-0.0977373C34.3988152,14.3428144,34.343483,15.418767,34.3205757,16.4916611z
		 M34.0964394,14.865572c-0.0197639-0.0514536-0.0440102-0.1145582-0.0682526-0.1776638
		c-0.0268745,0.0549822-0.0743141,0.1098509-0.0746155,0.164979c-0.0002823,0.0512152,0.0497131,0.102705,0.0775757,0.1540737
		C34.050087,14.9659433,34.0690308,14.9249268,34.0964394,14.865572z"/>
	<path style="fill:#3B3B3B;" d="M21.7323875,39.4142685c0.0620422,0.4632263-0.2541542,0.4588661-0.5614128,0.441864
		c-0.748064-0.0414047-1.4955502-0.0931892-2.2432709-0.1407967c-0.0706711-0.7644577,0.3032227-1.2331009,0.993063-1.4904976
		c0.2730789-0.1018944,0.5653992-0.1659966,0.7702007-0.3992882c0.434618,0.0246506,0.7539539-0.1777916,1.0068321-0.5111465
		c0.0364532-0.0074463,0.0694523,0.0001335,0.0989952,0.022747c-0.0120449,0.0936012-0.0240898,0.1871948-0.0361328,0.2807961
		c0.078186,0.5513153-0.3828964,1.0879478-0.0448284,1.6463432C21.7213516,39.3142815,21.7268677,39.3642769,21.7323875,39.4142685z
		"/>
	<path style="fill:#3B3B3B;" d="M29.4703083,5.055316c-0.2577705-0.0439315-0.5043983-0.0166812-0.7346992,0.1150503
		c-0.2719727-0.2682362-0.612606-0.0885901-0.9167595-0.1428776c-0.559021-0.0997758-1.1805305,0.0136986-1.6340847-0.4611602
		c0.2451744-0.2730765,0.5304585-0.1061125,0.7404938,0.0019846c0.5392303,0.2775207,1.0842762,0.1987033,1.6389427,0.1367459
		c1.6904621-0.1888275,3.3904552,0.0154562,5.0822067-0.1221256c0.0328789,0.4389749-0.2563667,0.4457998-0.5751572,0.4465704
		C31.870924,5.0324059,30.67062,5.0458317,29.4703083,5.055316z"/>
	<path style="fill:#171814;" d="M25.6971664,8.9297276c0.1233349,0.2414865,0.0194435,0.3417063-0.2148304,0.4302664
		c-0.972868,0.3677626-1.717329,1.098362-2.5733318,1.6527882c-0.3976002,0.2575207-0.4675179,0.7433634-0.7463551,1.0898733
		c-0.2766056,0.3437357-0.4962807,0.381753-0.763958,0.025713C22.3208599,10.3759079,23.8654823,9.4599333,25.6971664,8.9297276z"/>
	<path style="fill:#171814;" d="M21.4012222,12.1267042c0.09062,0.4198847,0.1223526,0.7855978-0.0469894,1.2489853
		c-0.2741032,0.7500515-0.1906796,1.6054144-0.4066048,2.3988552c-0.052206,0.1918402,0.0250263,0.3971453-0.2620602,0.3946257
		c-0.2818413-0.0024738-0.2744217-0.2185698-0.2883797-0.419241c-0.01474-0.2118044,0.0617237-0.4512386-0.1647377-0.6064253
		C20.3567791,14.0351372,20.7332993,13.0244732,21.4012222,12.1267042z"/>
	<path style="fill:#3B3B3B;" d="M24.7136898,5.1805224c-0.4464874-0.2244439-0.9141941-0.226047-1.4072361-0.2151933
		c-0.8500614,0.018713-1.7018433-0.0678358-2.5533428-0.0804272c-1.187254-0.0175567-1.1874256-0.0058308-1.2923641,1.1082158
		c-0.2157154-0.2832236-0.1765671-0.6031952-0.1265125-0.9215217c0.0577393-0.3672261,0.2144852-0.5117588,0.6465244-0.4888949
		c1.7013054,0.090034,3.4120216-0.0606418,5.1086884,0.2140541c0.2578392,0.0417452,0.5377789-0.0530167,0.8074989-0.0846434
		c0.0331764,0.444469-0.4652576,0.2176538-0.587801,0.4654937C25.1106606,5.1785779,24.9121742,5.1795502,24.7136898,5.1805224z"/>
	<path style="fill:#171814;" d="M25.309145,5.1776056c0.1225433-0.2478399,0.6209774-0.0210247,0.587801-0.4654937
		c0.0515442-0.1362319,0.1624584-0.155262,0.287817-0.1457834c0.4535561,0.4748588,1.0750656,0.3613844,1.6340866,0.4611602
		c0.3041534,0.0542874,0.6447868-0.1253586,0.9167595,0.1428776c-0.4767933,0.1898651-0.9409676,0.2829452-1.479147,0.1826906
		c-0.4365482-0.0813227-0.9886341-0.2201815-1.2895679,0.3807139c-0.0938435,0.187387-0.2616482,0.1942329-0.3651714-0.0545177
		C25.5280075,5.5021281,25.4083176,5.3441362,25.309145,5.1776056z"/>
	<path style="fill:#171814;" d="M29.4703083,5.055316c1.2003117-0.0094843,2.4006157-0.0229101,3.6009426-0.0258121
		c0.3187904-0.0007706,0.608036-0.0075955,0.5751572-0.4465704c0.0480385,0.0032582,0.096077,0.0065165,0.1441154,0.0097733
		c0.0329056,0.2107763-0.0839272,0.4737849,0.2073479,0.5944357c0.0005646,0.0960183,0.0011253,0.1920362,0.0016899,0.2880521
		c-0.0606155,0.0563145-0.1212311,0.1126308-0.1818504,0.1689463c-0.5109482-0.286777-1.0186157-0.6211162-1.5846786-0.1093812
		C31.3615131,5.090344,30.3247528,5.5981202,29.4703083,5.055316z"/>
	<path style="fill:#171814;" d="M33.1963844,11.7259741c-0.7583046-0.6654358-1.4059238-1.4148979-1.7931423-2.3620415
		c0.9535923,0.3976107,1.523653,1.1752443,2.0136433,2.0322151c-0.1494255,0.0573225-0.2085838,0.1745157-0.216156,0.3259211
		L33.1963844,11.7259741z"/>
	<path style="fill:#171814;" d="M33.4738007,31.5244865c-0.2002373,0.2872429-0.7209663-0.0059242-0.8519821,0.4950371
		c-0.0305519,0.116806-0.2931595-0.1004639-0.2955437-0.2749214c-0.0055847-0.4092865,0.0018196-0.8220882,0.054081-1.2269993
		c0.0181198-0.1403732,0.0319633-0.4362793,0.2310524-0.395443c0.1567078,0.0321426,0.4494781,0.0822182,0.4400749,0.3927307
		c-0.0085297,0.2815647,0.0581779,0.5395374,0.3181534,0.7047501c0.0417404,0.00457,0.0838051,0.0063324,0.1259804,0.005331
		C33.4883423,31.32481,33.4810715,31.4246483,33.4738007,31.5244865z"/>
	<path style="fill:#171814;" d="M19.9885235,17.2440701c0.1887531,0.8341427,0.1828442,1.6685677,0.0036182,2.5032425
		C19.8257294,18.9131374,19.8320332,18.0787106,19.9885235,17.2440701z"/>
	<path style="fill:#171814;" d="M25.3089066,6.9590783c0.1123619-0.1573563,0.22472-0.314712,0.3647251-0.5107832
		c0.3303795,0.6765709-0.2000294,1.3258338,0.0579643,1.9491534c-0.6071777-0.1849041-0.2590637-0.6400251-0.2802315-0.9906902
		C25.4038792,7.2575321,25.3563938,7.1083055,25.3089066,6.9590783z"/>
	<path style="fill:#171814;" d="M21.5335255,32.8620987c0.0970325-0.2198944,0.158329-0.4611702,0.4393063-0.6823616
		c-0.0598412,0.4253502,0.5992584,0.6286392,0.2360039,1.0134506c-0.1536179,0.162735-0.4968281-0.1096954-0.6776371-0.3342323
		L21.5335255,32.8620987z"/>
	<path style="fill:#3B3B3B;" d="M33.4956169,31.2249718c-0.0421753,0.0010014-0.08424-0.000761-0.1259804-0.005331
		c0.0476608-0.3532753-0.1598244-0.7469101,0.167511-1.0557842C33.6269188,30.5216198,33.5603714,30.8732605,33.4956169,31.2249718z
		"/>
	<path style="fill:#171814;" d="M20.6022987,26.1605015c0.3971405,0.2339878,0.2662029,0.5562592,0.146553,0.8766441
		C20.5589466,26.7685108,20.5747471,26.4654884,20.6022987,26.1605015z"/>
	<path style="fill:#171814;" d="M20.0566654,21.0972462c0.3505669,0.3062897,0.1632404,0.673439,0.1156616,1.0249615
		C19.9833012,21.7976131,20.0097713,21.4485798,20.0566654,21.0972462z"/>
	<path style="fill:#F5F5F4;" d="M21.3845482,33.1671791c0.1653767,0.2786102,0.1763573,0.5799217,0.1308308,0.8895493
		C21.1373062,33.8094025,21.2613468,33.4882278,21.3845482,33.1671791z"/>
	<path style="fill:#171814;" d="M20.2007885,15.4855671c0.0118542,0.2965612,0.2000198,0.6235218-0.1479378,0.8580475
		C19.987318,16.0377979,20.0038185,15.7461243,20.2007885,15.4855671z"/>
	<path style="fill:#3B3B3B;" d="M33.8177109,5.6441407c0.0606194-0.0563154,0.1212349-0.1126318,0.1818504-0.1689463
		c0.06007,0.2931385,0.0983849,0.5821075-0.1560898,0.8150072C33.8348923,6.0748568,33.8263054,5.859498,33.8177109,5.6441407z"/>
	<path style="fill:#171814;" d="M20.4468288,25.1187649c0.3563099,0.1367626,0.2977886,0.3528423,0.1133823,0.5929909
		C20.4387627,25.5300884,20.4113712,25.3304367,20.4468288,25.1187649z"/>
	<path style="fill:#3B3B3B;" d="M33.5262032,37.3469048c-0.2387772-0.1928253-0.2131271-0.3990746-0.0311241-0.6132545
		C33.5809135,36.9342384,33.5934067,37.1385498,33.5262032,37.3469048z"/>
	<path style="fill:#3B3B3B;" d="M33.9978752,5.1871424c-0.2912788-0.1206508-0.1744461-0.3836594-0.2073517-0.5944357
		C34.0928383,4.7095094,34.0270424,4.9547138,33.9978752,5.1871424z"/>
	<path style="fill:#3B3B3B;" d="M33.5575104,29.7526054c-0.2729874-0.2309628-0.3196678-0.4430695,0.051693-0.6203403
		C33.6516266,29.3440151,33.6630974,29.5531883,33.5575104,29.7526054z"/>
	<path style="fill:#F5F5F4;" d="M33.9575386,39.7055779c-0.2139893-0.07127-0.3210182-0.2102737-0.2804108-0.4427757
		C33.922554,39.3141556,34.1634598,39.3683815,33.9575386,39.7055779z"/>
	<path style="fill:#171814;" d="M21.1693192,30.7768497c0.3526878,0.1287785,0.3481712,0.2873402,0.0392971,0.4712849
		C21.1955185,31.0910397,21.1824188,30.9339447,21.1693192,30.7768497z"/>
	<path style="fill:#171814;" d="M20.8191643,27.647953c0.1620789,0.0752811,0.2254047,0.1659584,0.045908,0.2944889
		C20.7873802,27.8540039,20.7616062,27.7574749,20.8191643,27.647953z"/>
	<path style="fill:#F5F5F4;" d="M31.4226856,9.3117018c-0.1853752,0.0169649-0.3106861-0.0885324-0.4283123-0.2098618
		C31.206665,9.0296526,31.3658943,9.0660391,31.4226856,9.3117018z"/>
	<path style="fill:#171814;" d="M24.4112625,6.3531637c-0.0054245,0.0485682-0.018362,0.0950451-0.0388145,0.13943
		c-0.0857811-0.0083146-0.1715584-0.0166287-0.2573357-0.0249429C24.1537647,6.2741127,24.2163029,6.1423631,24.4112625,6.3531637z"
		/>
	<path style="fill:#F5F5F4;" d="M21.2698498,32.1245728c0.0853443,0.0912437,0.0856419,0.1896973,0.024868,0.2933311
		C21.1471691,32.3319359,21.1226063,32.2355385,21.2698498,32.1245728z"/>
	<path style="fill:#F5F5F4;" d="M19.8634834,37.7105255c-0.021883,0.0368385-0.0357113,0.0863953-0.067461,0.1044693
		c-0.0216961,0.012352-0.0683937-0.0192108-0.1039124-0.0311394c0.0187035-0.0368919,0.0289459-0.0904045,0.0587139-0.1055565
		C19.7758121,37.6655846,19.8235607,37.6975899,19.8634834,37.7105255z"/>
	<path style="fill:#0B0C0A;" d="M34.0132637,13.0669241c-0.0767212-0.0236349-0.186203,0.0381985-0.2243614-0.0860147
		c0.0650673-0.0177021,0.1301422-0.0354042,0.1952133-0.0531063c0.0143166,0.029273,0.0321007,0.0574961,0.0414162,0.0882835
		C34.0298882,13.0304766,34.0178604,13.0498238,34.0132637,13.0669241z"/>
	<path style="fill:#171814;" d="M26.1995296,21.0681438c0.0131359-0.3408566-0.4069653-0.6718369-0.0229893-1.0210438
		c0.2016201,0.0759792,0.3967609-0.2216663,0.6078377-0.0007706c0.1195354,0.1250916,0.2446823,0.0624237,0.2306614-0.0906715
		c-0.0466995-0.5098972,0.428978-0.994545,0.068718-1.5148048c0.282671-0.0294533,0.6391773-0.0054417,0.6827202,0.2794685
		c0.0718937,0.4704208,0.0524673,0.9786873-0.3720398,1.3407383l-0.0007915,0.0003719
		c-0.2779732,0.674387-0.1806335,1.3583717-0.0522537,2.0431519c0.1578693,0.3658657-0.249506,0.9099236,0.3575497,1.1341839
		c-0.1035976,0.3070717,0.2301369,0.5976467,0.0527401,0.9117794c-0.3205166,0.0019569-0.1314354-0.3475647-0.3218403-0.4227295
		c-0.0961342-0.0062237-0.4365559,0.990221-0.3602924,1.0985126c0.1516876,0.215395,0.3429546,0.1148853,0.5295601,0.0462971
		c0.0381107-0.0140038,0.091114,0.0125103,0.1860714,0.0286407c-0.0720882,0.2990532-0.3314533,0.3821335-0.5385571,0.5143623
		c-0.0221405-0.0098267-0.0442753-0.0196705-0.0664101-0.0295124c0.0201721,0.0118942,0.0403442,0.0237846,0.0605183,0.035677
		c-0.0017529,0.2763386-0.2933483,0.5541744,0.0043125,0.8295097c0.2498093,0.6151409-0.2385368,1.2733936,0.1051426,2.0281658
		c0.0595531-0.2544308,0.0863762-0.3690281,0.1131973-0.4836254c0.1273689,0.0426922,0.218832,0.1198997,0.2188053,0.263504
		c-0.0004768,2.3836823,0.2337437,4.7697144-0.1215038,7.1501389c-0.1026344,0.6877518-0.1860771,1.3821716-0.0437775,2.0942154
		c0.090929,0.4549942,0.086031,0.9231491-0.1057854,1.410511c-0.2428036,0.6169205-0.9147701,0.2968597-1.2100315,0.7009201
		c-0.3946362,0.0034485-0.7892761,0.0069237-1.183918,0.0103989c-0.0207558-0.1248703-0.0481472-0.2507057-0.1938457-0.2844887
		c-0.682703-0.1582985-0.8577538-0.6531754-0.8561554-1.2723503c0.002491-0.9666176,0.033886-1.9346161-0.0061131-2.8995819
		c-0.0820446-1.9792252-0.155983-3.9585075-0.4137459-5.9281311c-0.1333599-1.0190392,0.0673294-2.0514927-0.0077667-3.0855923
		c-0.1098785-1.5130577-0.2624607-3.0477142-0.1217766-4.5473633c0.1422215-1.5160637,0.0319672-3.0197983,0.1043472-4.5266361
		c0.0095005-0.1978054,0.0108395-0.3971386-0.0016823-0.5946445c-0.0327053-0.5159254-0.036602-0.5156784,0.4146042-0.693471
		c0.2871418-0.1131439,0.380806-0.0650129,0.3073444,0.2297859c-0.0909958,0.3651876-0.1264114,0.7254648-0.128233,1.0983744
		c-0.0038643,0.7909718-0.0519695,1.5853939,0.3399258,2.3175373c0.1224079,0.2286892,0.108139,0.4788399,0.1080837,0.726759
		c-0.0003929,1.8475513,0.0369587,3.6961994-0.0177479,5.5421238c-0.022501,0.759367-0.2037849,1.5199165,0.0486603,2.2616425
		c0.0942936,0.2770538-0.007185,0.67799,0.4060307,0.8090858c0.0362682,0.0115051,0.0645657,0.1651573,0.0617657,0.1662865
		c-0.9246044,0.3719749,0.5920906,0.2067738,0.1044998,0.4762039c-0.2080479,0.0309525-0.3267899,0.1659317-0.4054546,0.3476772
		c-0.0906162-0.0567646-0.1773319-0.0753708-0.1887226,0.0656223c-0.0131264,0.162466,0.0593281,0.2084599,0.2018967,0.1154366
		c-0.0296192,0.1892796-0.0683231,0.3777008-0.0863132,0.5680809c-0.018177,0.192337,0.0669346,0.3632965,0.2559795,0.3958206
		c0.286808,0.0493412,0.1997833-0.1973953,0.2296963-0.3488693c0.0615997-0.3118973,0.1283836-0.6227684,0.1930275-0.9340649
		c0.2101784-0.6736336,0.3529606-1.3569546,0.1689892-2.0582256c-0.105051-0.4004421-0.0976086-0.7307816,0.3424854-0.9139061
		c0.0093822,0.2434101-0.001421,0.48983,0.0346794,0.7291756c0.0242939,0.1610565,0.1149044,0.312109,0.1758442,0.4676361
		c0.1688461-0.0710449,0.3661613-0.1077957,0.5010338-0.2197666c0.3603458-0.2991543,0.2465897-0.7343235,0.1784954-1.0916653
		c-0.0884228-0.4640217-0.5267544-0.3137074-0.8514137-0.3292809c-0.0012112-0.2484341-0.0024223-0.49687-0.0037022-0.7453136
		c0.4485073-0.3683453,0.6019402,0.1173878,0.8574944,0.3707676c0.04636-0.9757233,0.04636-0.9757233-0.8406067-0.9500313
		c-0.0553741-0.6569118-0.0172825-1.3069019,0.1440544-1.9478207c0.7016125-0.0588608,0.2411861,0.7384605,0.6830368,0.919384
		c0.1725159-0.5246544,0.4538078-1.1149139-0.0258293-1.5005913c-0.5637112-0.4532795-0.6603146-0.6754742,0.1340294-0.8793144
		C26.6509056,21.0435143,26.4074039,21.1190624,26.1995296,21.0681438z M26.6100311,30.9547825
		c0.0192242-0.7192841,0.1569538-1.3873844-0.0093288-2.0712147c-0.0604191-0.2484684-0.1410313-0.3147755-0.3360405-0.3705635
		c-0.3008213-0.08605-0.3331718,0.1230602-0.3544044,0.3236961c-0.0680199,0.6426163-0.1261024,1.2862873-0.2000637,2.0546722
		C26.1570492,30.3004971,26.3919125,30.5181541,26.6100311,30.9547825z M25.3262539,34.9985313
		c0-0.7700653,0.0059338-1.5402145-0.005249-2.3101158c-0.0021152-0.1455879,0.0842838-0.4165497-0.1908512-0.3785515
		c-0.1875896,0.0259094-0.4651585,0.1078758-0.3853588,0.4282837c0.0296745,0.119133,0.104929,0.1774178,0.0478191,0.3616219
		C24.5871792,33.7623978,24.5725212,34.44067,25.3262539,34.9985313z M25.9979496,33.0220604
		c-0.2806606,0.0641975-0.4866314,0.1660271-0.2608223,0.4970894c0.2257099,0.3309212,0.3415108,0.6362-0.0242825,0.9735184
		c-0.1966114,0.1813011,0.0132637,0.307621,0.1697655,0.3805008c0.213625,0.0994835,0.436903,0.3343277,0.674633,0.1337776
		c0.1914444-0.1615028-0.0206623-0.2754364-0.1290932-0.4098129c-0.2036018-0.2523155-0.3301582-0.5476341-0.053318-0.8338623
		c0.1197262-0.1237907,0.3117027-0.209156,0.1923618-0.4161606C26.4476967,33.1398277,26.2174568,33.0885429,25.9979496,33.0220604z
		 M26.1660671,32.2836914c0.2527065,0.0919495,0.4767532,0.1944923,0.4947891-0.2335205
		c0.017477-0.4147472-0.0503769-0.733532-0.5310383-0.7734642c-0.3837643-0.0318832-0.2981625,0.2266445-0.3227196,0.4817257
		C25.7755432,32.086235,25.5905609,32.4252701,26.1660671,32.2836914z"/>
	<path style="fill:#3B3B3B;" d="M29.839138,15.0435266c-0.1193428,3.2628775-0.2341213,6.5259314-0.3592281,9.7885904
		c-0.1440811,3.7573624-0.3005371,7.5142574-0.4400711,11.27178c-0.010603,0.2856026-0.1255512,0.5918655,0.069622,0.8655319
		c-0.3109245,0.1233444-0.382822,0.4134293-0.480526,0.8303452c-0.3844566-1.0177307-0.1815987-1.9410439-0.2241936-2.843853
		c0.0222569-0.4547844,0.1181564-0.9158859-0.1163635-1.3483887c0.0018425-0.1977386,0.0036831-0.3954735,0.0054493-0.5932388
		c0.2363892-0.6960602,0.2247181-1.3942471,0.018116-2.0941277c0.0850601-0.5420265,0.1701164-1.0840549,0.2553673-1.6260986
		c0.2529774-1.3812695,0.1818619-2.7761192,0.1752357-4.1682625c-0.1647148-0.4915009,0.379282-0.9775333,0.0111485-1.4707813
		c0.1527271-0.0441151,0.2723064-0.121479,0.2743015-0.3003502c0.0078392-0.7024002,0.0135059-1.4048233,0.0199795-2.1072388
		c0.0020905-0.2447166,0.0041828-0.4894333,0.0060196-0.7342129c0.4527397-0.2610111,0.4156342-0.5194263-0.0042648-0.7758636
		c0.0030193-0.0873795,0.0060406-0.1747589,0.0087547-0.2622452c0.4989986-0.4046955,0.2841797-0.8809128,0.1351471-1.3505325
		c0.0001373-0.0977192,0.0002785-0.1954365,0.0002899-0.2932034c0.1589165-0.6886578,0.4824219-1.3656349,0.1476173-2.0891714
		c0.0008316-0.2493801,0.0016632-0.4987612,0.0022945-0.7481155c0.0932693-0.145009,0.1944466,0.0170813,0.2909412-0.0072842
		C29.7028961,15.0057125,29.7710171,15.0246201,29.839138,15.0435266z"/>
	<path style="fill:#171814;" d="M21.6977978,37.3144035c-0.0023327-0.489399-0.0046654-0.9787979-0.0070019-1.4681969
		c0.2163601,0.0234032,0.3586254-0.1856422,0.5402088-0.1967278c0.1893921-0.0115547,0.5320282-0.0357018,0.4757576,0.2844925
		c-0.1513615,0.8612556,0.1299706,1.7222977-0.0678768,2.587616c-0.1245251,0.5446434-0.3292675,0.8478661-0.9228802,0.742733
		c-0.3382397-0.5584259,0.1228428-1.0950584,0.0444717-1.6463051c0.0921288-0.0055008,0.1960373-0.0139046,0.2119808-0.1238327
		c0.0171108-0.1179657-0.0831928-0.1416588-0.175663-0.157032C21.767252,37.314537,21.7342529,37.3069572,21.6977978,37.3144035z"/>
	<path style="fill:#3B3B3B;" d="M30.0601749,37.795433c0.7969341,0.2211723,1.5199528,0.572834,2.0946064,1.1864319
		c0.0109825,0.2937012,0.021965,0.5874023,0.033226,0.8811378c-0.5366611-0.2886658-1.1246948-0.2275543-1.6894016-0.1878166
		c-0.3528709,0.0248337-0.4195271-0.0906143-0.4445114-0.3855743c-0.0389023-0.4592743-0.1089458-0.9159088-0.1659908-1.3737068
		C29.9453239,37.8757172,30.0027485,37.8355751,30.0601749,37.795433z"/>
	<path style="fill:#3B3B3B;" d="M25.0171738,39.4255333c0.3946419-0.0034752,0.7892818-0.0069504,1.183918-0.0103989
		c0.9873371-0.031601,1.9835072,0.1318932,2.9601212-0.1336174c0.4297905,0.2997513-0.1114731,0.3476028-0.1372604,0.5295715
		c-1.8833637,0.0166206-3.7667027,0.0327301-5.6500435,0.0488396c-0.3780823-0.1258469-0.8765755,0.2532196-1.1580162-0.2760086
		c0.6075325-0.2918015,1.2566013-0.1732597,1.8749084-0.1155281C24.4159565,39.4987488,24.7101498,39.4837646,25.0171738,39.4255333
		z"/>
	<path style="fill:#3B3B3B;" d="M22.3172092,28.4286213c0.4882278-0.0816135,0.2389374-0.4681988,0.2422504-0.6930027
		c0.0179367-1.21628-0.0667877-2.4349232,0.1242256-3.6455307c0.1608162,0.129715,0.1204052,0.3121948,0.1190815,0.4799633
		c-0.0151615,1.922205-0.041851,3.8445702,0.1244164,5.7628269c-0.1036263,0.0150223-0.2072449,0.0300541-0.3108654,0.045084
		C22.4582577,29.7371368,22.2760029,29.1000233,22.3172092,28.4286213z"/>
	<path style="fill:#3B3B3B;" d="M27.0837574,18.4408531c0.36026,0.5202599-0.1154175,1.0049076-0.068718,1.5148048
		c0.0140209,0.1530952-0.1111259,0.2157631-0.2306614,0.0906715c-0.2110767-0.2208958-0.4062176,0.0767498-0.6078377,0.0007706
		c-0.0430984-0.2338791,0.1853123-0.4428463,0.0089245-0.708313c-0.1976967-0.2975311-0.2548084-0.7059708-0.0103912-0.9653587
		C26.4287624,18.1042061,26.776886,18.3953018,27.0837574,18.4408531z"/>
	<path style="fill:#171814;" d="M28.7425461,25.1258049c0.0066261,1.3921432,0.0777416,2.786993-0.1752357,4.1682625
		c-0.3542805-0.0689182-0.2966461-0.3557987-0.2753639-0.5828342c0.067234-0.7172852-0.1254368-1.4362221,0.1682796-2.1659679
		c0.1334553-0.3315659-0.3431377-0.8011417-0.0076675-1.2402115C28.537014,25.194521,28.6176376,25.1404095,28.7425461,25.1258049z"
		/>
	<path style="fill:#3B3B3B;" d="M22.7305737,21.8544598c-0.0756187-1.6366177-0.0909824-3.271616,0.1315575-4.9002247
		c0.1903286,1.5860596,0.0687237,3.1740627,0.0223484,4.7612782C22.8830853,21.7632885,22.7840767,21.8082085,22.7305737,21.8544598
		z"/>
	<path style="fill:#3B3B3B;" d="M27.6989422,23.2387676c-0.6070557-0.2242603-0.1996803-0.7683182-0.3573666-1.133913
		c0.0174809-0.6809597,0.0347748-1.3621902,0.0520706-2.0434227l0.0007915-0.0003719
		c0.5484467-0.087431,0.6664257,0.2957306,0.5421524,0.6531754c-0.2470608,0.7106209-0.0141563,1.4180698-0.1061172,2.1187763
		C27.8122807,22.971632,27.7440777,23.1036854,27.6989422,23.2387676z"/>
	<path style="fill:#3B3B3B;" d="M26.1995296,21.0681438c0.2078743,0.0509186,0.451376-0.0246296,0.6645393,0.2136803
		c-0.7943439,0.2038403-0.6977406,0.4260349-0.1340294,0.8793144c0.4796371,0.3856773,0.1983452,0.9759369,0.0258293,1.5005913
		c-0.4418507-0.1809235,0.0185757-0.9782448-0.6830368-0.919384C26.1039524,22.1834755,25.9110088,21.6076183,26.1995296,21.0681438
		z"/>
	<path style="fill:#3B3B3B;" d="M25.9155922,26.0147438c0.3246593,0.0155735,0.762991-0.1347408,0.8514137,0.3292809
		c0.0680943,0.3573418,0.1818504,0.792511-0.1784954,1.0916653c-0.1348724,0.1119709-0.3321877,0.1487217-0.5010338,0.2197666
		c-0.0609398-0.1555271-0.1515503-0.3065796-0.1758442-0.4676361c-0.0361004-0.2393456-0.0252972-0.4857655-0.0346794-0.7291756
		C25.8896847,26.3106766,25.9026375,26.1627102,25.9155922,26.0147438z"/>
	<path style="fill:#171814;" d="M32.3106766,37.3787498c0-0.7416725-0.0020981-1.4833565,0.0017662-2.2250099
		c0.0007744-0.1481514,0.0181122-0.3284225,0.2185669-0.3114586c0.2657204,0.0224838,0.2093735,0.2191048,0.1494293,0.3853989
		c-0.0516701,0.1433487-0.1167793,0.3135109-0.0012398,0.4175186c0.7694244,0.6926727-0.0488129,1.1791878-0.1232376,1.759861
		C32.4741974,37.3962898,32.392437,37.3875198,32.3106766,37.3787498z"/>
	<path style="fill:#171814;" d="M23.8863754,14.5094528c0.0539627,0.3717232-0.1818104,0.3167982-0.3663387,0.3379965
		c-0.504921,0.0580082-0.4771252-0.3579178-0.4961491-0.632947c-0.0207901-0.3005638,0.1837406-0.6697855,0.4804955-0.6291628
		C24.0837059,13.6646442,23.6442089,14.2718191,23.8863754,14.5094528z"/>
	<path style="fill:#3B3B3B;" d="M27.9240303,13.0489941c0.0494003,0.0845108,0.0987988,0.1690226,0.1482201,0.2535124
		c-0.8827534,0.3080626-1.7570705,0.0583191-2.6344166,0.0082893c-0.0036831-0.0872669-0.0073662-0.1745348-0.0110512-0.2618017
		C26.259201,13.0489941,27.0916138,13.0489941,27.9240303,13.0489941z"/>
	<path style="fill:#171814;" d="M29.0479755,21.2474346c-0.0064735,0.7024155-0.0121403,1.4048386-0.0199795,2.1072388
		c-0.0019951,0.1788712-0.1215744,0.2562351-0.2743015,0.3003502
		C28.5597572,22.8169289,28.5857582,22.0055428,29.0479755,21.2474346z"/>
	<path style="fill:#171814;" d="M29.3415394,15.7422056c0.3348045,0.7235365,0.0112991,1.4005136-0.1476173,2.0891714
		C28.8933887,17.1039639,28.96661,16.0667763,29.3415394,15.7422056z"/>
	<path style="fill:#171814;" d="M32.7515945,32.5647621c-0.0073776,0.3904457-0.0054359,0.7814255-0.0276871,1.1710243
		c-0.0068626,0.1201439-0.0978127,0.2398033-0.2343521,0.239048c-0.159359-0.0008774-0.1758041-0.1416512-0.1775131-0.2650375
		c-0.0043793-0.3175316-0.0067139-0.6352196-0.0019226-0.9527283c0.005764-0.382019,0.2238007-0.2914734,0.4423561-0.191555
		L32.7515945,32.5647621z"/>
	<path style="fill:#171814;" d="M29.1936321,18.1245804c0.1490326,0.4696198,0.3638515,0.945837-0.1351471,1.3505325
		c-0.3193188-0.3431759-0.2011852-0.8052292-0.3256969-1.2014503l-0.0003204,0.0003262
		C28.8861885,18.2241859,29.0399094,18.1743813,29.1936321,18.1245804z"/>
	<path style="fill:#171814;" d="M28.3119431,30.920166c0.2066021,0.6998806,0.2182732,1.3980675-0.018116,2.0941277
		C28.0484867,32.3141022,28.0232716,31.6157818,28.3119431,30.920166z"/>
	<path style="fill:#3B3B3B;" d="M24.7599144,29.5687504c0.0786648-0.1817455,0.1974068-0.3167248,0.4054546-0.3476772
		c0.066433,0.0697403,0.1328888,0.139698,0.1997261,0.2096786c-0.0642605,0.3113213-0.1310444,0.6221924-0.1926441,0.9340897
		c-0.0299129,0.151474,0.0571117,0.3982105-0.2296963,0.3488693c-0.189045-0.0325241-0.2741566-0.2034836-0.2559795-0.3958206
		c0.0179901-0.1903801,0.056694-0.3788013,0.086916-0.5682678C24.7694988,29.6892071,24.7647076,29.6289768,24.7599144,29.5687504z"
		/>
	<path style="fill:#171814;" d="M29.6347752,14.9868059c-0.0964947,0.0243654-0.1976719-0.1377249-0.2909412,0.0072842
		c-0.4615517-0.2572222-0.0247822-0.6068258,0.0596447-0.6342449c0.2818279-0.0915251,0.0282192-0.6484175,0.3732624-0.4804153
		c0.2850628,0.1387997,0.1692123,0.5208607,0.0589733,0.7981615C29.7911892,14.7895899,29.7030582,14.8842525,29.6347752,14.9868059
		z"/>
	<path style="fill:#171814;" d="M28.2883778,33.6075325c0.23452,0.4325027,0.1386204,0.8936043,0.1163635,1.3483887
		C27.8620777,34.7168388,27.8043346,34.0457687,28.2883778,33.6075325z"/>
	<path style="fill:#3B3B3B;" d="M25.9287777,24.6901665c0.8869667-0.025692,0.8869667-0.025692,0.8406067,0.9500313
		c-0.2555542-0.2533798-0.408987-0.7391129-0.8574944-0.3707676C25.9175663,25.0763474,25.923172,24.8832569,25.9287777,24.6901665z
		"/>
	<path style="fill:#3B3B3B;" d="M27.4633846,27.795845c-0.0268211,0.1145973-0.0536442,0.2291946-0.1131973,0.4836254
		c-0.3436794-0.7547722,0.1446667-1.4130249-0.1051426-2.0281658c0.5525875,0.1418915,0.567297,0.5286961,0.3855953,0.9471054
		C27.5446949,27.3963108,27.4112854,27.5648212,27.4633846,27.795845z"/>
	<path style="fill:#3B3B3B;" d="M25.1754322,20.5326328c0-0.7026386,0-1.4052773,0-2.1079178
		c0.0439491,0.0005798,0.0878983,0.0011616,0.1318474,0.0017395c0,0.7063694,0,1.4127369,0,2.1191044
		C25.2633305,20.5412502,25.2193813,20.5369434,25.1754322,20.5326328z"/>
	<path style="fill:#171814;" d="M27.2516251,11.7212553c-0.1147995,0.5717583,0.6220016,0.3527403,0.6958256,0.7493448
		C27.1451683,12.435482,27.0663185,12.3505688,27.2516251,11.7212553z"/>
	<path style="fill:#171814;" d="M22.6163177,30.3779621c0.1036205-0.0150299,0.2072392-0.0300617,0.3108654-0.045084
		c-0.0236187,0.3634071,0.0761929,0.7368526-0.1007462,1.1528797
		C22.4692802,31.1366158,22.7016563,30.7234612,22.6163177,30.3779621z"/>
	<path style="fill:#171814;" d="M29.0497303,19.7373581c0.419899,0.2564373,0.4570045,0.5148525,0.0042648,0.7758636
		C28.3529301,20.2587185,29.2487183,19.9948502,29.0497303,19.7373581z"/>
	<path style="fill:#3B3B3B;" d="M24.7143517,13.0678263c0.177475-0.2670498-0.2667789-0.7470665,0.3015175-0.8802433
		c0.0025539,0.2435646-0.1002979,0.4737396-0.0321484,0.7325249C25.0457287,13.1555805,24.9311008,13.2473307,24.7143517,13.0678263
		z"/>
	<path style="fill:#171814;" d="M21.736021,31.2253609c0.0114002-0.4544983-0.0663891-0.9233418,0.2536182-1.4024429
		c0.0552025,0.539423-0.0646896,0.9763756-0.2539711,1.4021473L21.736021,31.2253609z"/>
	<path style="fill:#171814;" d="M20.938879,20.2832661c-0.2823772-0.1567631-0.4439678-0.2986774-0.3222446-0.5637169
		c0.0200443-0.0436382,0.1437454-0.0854893,0.1893883-0.0640297C21.0797596,19.7842083,20.9837475,20.0118313,20.938879,20.2832661z
		"/>
	<path style="fill:#3B3B3B;" d="M28.5780392,13.3335037c0.2924671-0.0739737,0.5765285-0.0577488,0.8493767,0.079072
		C29.1301861,13.5379801,28.8403149,13.5840492,28.5780392,13.3335037z"/>
	<path style="fill:#171814;" d="M32.4529266,27.5300503c0.0386887-0.134182,0.0383644-0.2709522,0.1722946-0.2245693
		c0.0575485,0.0199337,0.1011696,0.147995,0.107235,0.2301693c0.0064583,0.0875053-0.0182686,0.2231312-0.1522522,0.1795273
		C32.5161552,27.694334,32.4833336,27.5775356,32.4529266,27.5300503z"/>
	<path style="fill:#171814;" d="M21.7038536,35.2411995c-0.0065079-0.0955429-0.0130157-0.1910858-0.0195274-0.2866287
		c0.1661205-0.0024681,0.332243-0.0049324,0.4983654-0.0074005l-0.0004826-0.000473
		C22.4212742,35.6921654,21.8019695,35.0434074,21.7038536,35.2411995z"/>
	<path style="fill:#171814;" d="M22.0060692,31.3551846c0.0597286-0.0661259,0.1043301-0.1531849,0.1421757-0.1503448
		c0.1133938,0.0085182,0.1566067,0.1081295,0.1567211,0.2105732c0.0001125,0.0969219-0.0184574,0.2254314-0.153944,0.1749573
		C22.0859089,31.5661125,22.0573444,31.4437542,22.0060692,31.3551846z"/>
	<path style="fill:#171814;" d="M21.609848,27.183363c-0.209528-0.2477932-0.0126514-0.3946056,0.0241604-0.5710983
		C21.8188686,26.8164597,21.7384377,26.9778233,21.609848,27.183363z"/>
	<path style="fill:#171814;" d="M20.8955231,25.103775c0.1577568,0.0701599,0.2037868,0.1961937,0.1805973,0.3494034
		c-0.0031166,0.0205841-0.0978794,0.0557137-0.1190434,0.0405655C20.8123283,25.3901539,20.8235645,25.2531395,20.8955231,25.103775
		z"/>
	<path style="fill:#171814;" d="M32.4154968,29.0052891c0.0634804-0.0315952,0.1203728-0.082159,0.1793175-0.0846748
		c0.1280899-0.0054722,0.1465797,0.0985298,0.1195145,0.1887188c-0.0140228,0.0467319-0.0896645,0.074976-0.1374626,0.1115723
		C32.5394096,29.1708565,32.5019531,29.1208076,32.4154968,29.0052891z"/>
	<path style="fill:#171814;" d="M21.8238926,27.7601929c0.0782375,0.1613827,0.1014538,0.3560123-0.0470181,0.3941536
		c-0.2142773,0.055048-0.13134-0.1278191-0.0902348-0.2279434C21.7112236,27.8665161,21.7716122,27.8213253,21.8238926,27.7601929z"
		/>
	<path style="fill:#171814;" d="M22.1826916,34.9471703c0.0198593-0.131546-0.0433464-0.2973595,0.1294613-0.3647346
		c0.0276165-0.0107613,0.1253777,0.0659828,0.1326962,0.1115837c0.0314255,0.1957779-0.114912,0.2297783-0.2626381,0.2526779
		L22.1826916,34.9471703z"/>
	<path style="fill:#171814;" d="M32.3583527,38.679039c0,0,0.0017319-0.0074806,0.0016632-0.0074081
		c0.1523323,0.0375557,0.3535004-0.0843391,0.4482574,0.1367531c0.0058136,0.0135612-0.0088005,0.0488052-0.0230522,0.0561028
		C32.5692177,38.9750366,32.4923096,38.7610512,32.3583527,38.679039z"/>
	<path style="fill:#171814;" d="M29.7733974,37.049015c0.2539673,0.0426712,0.336422,0.1889763,0.2604427,0.4310188
		C29.7626953,37.4477425,29.7752533,37.2440224,29.7733974,37.049015z"/>
	<path style="fill:#171814;" d="M20.9910336,22.8891678c0.1933231,0.1697674,0.1787128,0.3702698,0.0874939,0.6131649
		c-0.1586781-0.2063999-0.0532608-0.4202919-0.0865765-0.6139259L20.9910336,22.8891678z"/>
	<path style="fill:#171814;" d="M24.8622799,5.9175043c-0.1060963-0.020565-0.2344055-0.0147238-0.2243404-0.1782413
		c0.0010376-0.0168529,0.0293427-0.0449681,0.0462074-0.0458965c0.1627235-0.0089607,0.1591225,0.1172581,0.1775494,0.2248192
		L24.8622799,5.9175043z"/>
	<path style="fill:#3B3B3B;" d="M22.9232883,13.1958761c0.0907078-0.1305037,0.1975384-0.1037951,0.3090248-0.0316944
		C23.1487961,13.3647518,23.0442314,13.3601589,22.9232883,13.1958761z"/>
	<path style="fill:#171814;" d="M21.1002159,24.2921124c0.0407486,0.0175247,0.1040974,0.0261898,0.1154804,0.0552273
		c0.0114708,0.0292587-0.0196819,0.101532-0.048727,0.112999c-0.029211,0.0115337-0.0788269-0.028614-0.119503-0.0461159
		C21.0649872,24.3735409,21.0825043,24.3328629,21.1002159,24.2921124z"/>
	<path style="fill:#171814;" d="M21.4422817,28.8531609c-0.0262775,0.0603428-0.0518017,0.1385479-0.0608082,0.1366882
		c-0.1275272-0.0263081-0.0813007-0.1316605-0.078167-0.2094326c0.0014133-0.0351048,0.0455704-0.0684891,0.0703335-0.1026535
		C21.3981705,28.7404423,21.4227009,28.8031235,21.4422817,28.8531609z"/>
	<path style="fill:#171814;" d="M33.8073044,20.2128143c-0.0379753,0.0569649-0.0698357,0.1047573-0.101696,0.1525478
		c-0.0179825-0.0645752-0.0464172-0.1285686-0.0500565-0.1939411c-0.0022125-0.0397472,0.0338478-0.081625,0.0527153-0.1225471
		C33.7394829,20.1005459,33.7706947,20.152216,33.8073044,20.2128143z"/>
	<path style="fill:#171814;" d="M27.1632767,6.0568032c-0.0351944-0.0237942-0.069313-0.0468583-0.1034298-0.0699215
		c0.0377121-0.0184684,0.0761757-0.0526786,0.1129208-0.0509205c0.0358257,0.0017142,0.0698929,0.0402026,0.1047325,0.0625463
		C27.2400017,6.0176458,27.2025013,6.0367842,27.1632767,6.0568032z"/>
	<path style="fill:#171814;" d="M20.991951,22.8884068c-0.1060963-0.0674324-0.1584492-0.1583195-0.1163521-0.2845993
		c0.0055733-0.0167236,0.0367222-0.0249233,0.0560284-0.0370693c0.0198059,0.1074715,0.0396118,0.2149448,0.0594101,0.3224258
		L20.991951,22.8884068z"/>
	<path style="fill:#171814;" d="M21.7356682,31.2250652c-0.0196991,0.1070843-0.0393982,0.2141666-0.0590954,0.3212509
		c-0.0191994-0.0121155-0.0501728-0.0203114-0.0557213-0.036974c-0.0417976-0.1255436,0.0102577-0.2162132,0.1151657-0.2839813
		L21.7356682,31.2250652z"/>
	<path style="fill:#171814;" d="M33.2007294,11.7220688c0.0649796,0.0610733,0.1299591,0.1221476,0.1949348,0.1832199
		c-0.0298042,0.0196304-0.0596085,0.0392599-0.0894127,0.0588884c-0.0366058-0.079422-0.0732079-0.158843-0.1098404-0.2382345
		L33.2007294,11.7220688z"/>
	<path style="fill:#171814;" d="M33.1891136,36.9627838c-0.0240211,0.0354156-0.0472946,0.069725-0.0705643,0.1040344
		c-0.0186844-0.0379066-0.0532761-0.0765648-0.0515289-0.1135025c0.0017014-0.0360184,0.040554-0.070282,0.0630913-0.1053162
		C33.1494827,36.8856812,33.1688499,36.9233665,33.1891136,36.9627838z"/>
	<path style="fill:#171814;" d="M32.979805,35.0537453c0.0203362,0.0429192,0.0538597,0.0817642,0.0520325,0.1188698
		c-0.0017929,0.0364685-0.0394821,0.0711708-0.0614204,0.1066437c-0.0187569-0.0377312-0.052887-0.0758705-0.0519028-0.1130829
		C32.9194794,35.1297073,32.9561691,35.0941734,32.979805,35.0537453z"/>
	<path style="fill:#171814;" d="M21.1020355,16.4920578c-0.0137978,0.0168629-0.0275974,0.0337276-0.0413933,0.0505924
		c-0.0104675-0.0194569-0.0303173-0.0397224-0.0287285-0.0581379c0.0015526-0.0180073,0.0249653-0.0341282,0.038784-0.0510788
		C21.0811424,16.4529743,21.091589,16.4725151,21.1020355,16.4920578z"/>
	<path style="fill:#171814;" d="M24.8616962,5.9181857c0.0643044,0.0180664,0.1286106,0.0361323,0.192915,0.0541992
		c-0.1086445,0.1378055-0.1392975,0.0022311-0.1923332-0.0548768L24.8616962,5.9181857z"/>
	<path style="fill:#171814;" d="M32.7524757,32.5655136c0.018055-0.0639801,0.0361099-0.1279602,0.0541649-0.1919403
		c0.1357155,0.108078,0.0021133,0.1386337-0.0550385,0.1911926L32.7524757,32.5655136z"/>
	<path style="fill:#171814;" d="M21.8850231,28.8429699c-0.0366821-0.0516319-0.0733624-0.1032619-0.1100464-0.1548939
		c0.175642-0.0459385,0.0703831,0.1055012,0.1093407,0.1556072L21.8850231,28.8429699z"/>
	<path style="fill:#171814;" d="M28.7327881,18.2736626c-0.0204029-0.011116-0.0408039-0.0222321-0.0612068-0.03335
		c0.0202961,0.0112247,0.0405922,0.0224495,0.0608883,0.0336742L28.7327881,18.2736626z"/>
	<path style="fill:#171814;" d="M21.8843174,28.8436832c0.0202141,0.0110054,0.0404282,0.0220089,0.0606461,0.0330124
		c-0.0199814-0.01124-0.0399647-0.0224762-0.0599422-0.03372L21.8843174,28.8436832z"/>
	<path style="fill:#0B0C0A;" d="M23.373909,39.8599281c1.8833408-0.0161095,3.7666798-0.0322189,5.6500435-0.0488396
		c-0.0837555,0.2007065-0.2616234,0.197403-0.4357758,0.1974792c-1.6057167,0.0006981-3.2114315,0.0004807-4.8171482,0.0008202
		C23.6195278,40.0094223,23.4743233,39.9946976,23.373909,39.8599281z"/>
	<path style="fill:#FCFCFC;" d="M33.3338623,40.6758804c-0.0517159-0.0131493-0.1034279-0.0263023-0.1551437-0.0394707
		C33.2443047,40.5950546,33.3016281,40.5861664,33.3338623,40.6758804z"/>
	<path style="fill:#0B0C0A;" d="M21.8656044,5.3991261c-0.1753216,0.3108149-0.3901882,0.1860147-0.5760746,0.1765299
		C21.4384193,5.437933,21.6042728,5.367703,21.8656044,5.3991261z"/>
	<path style="fill:#0B0C0A;" d="M22.3203125,5.4793987c0.0474262,0.0368028,0.1507969,0.0766521,0.1772747,0.1459031
		c0.0565338,0.1478524-0.089838,0.1401935-0.1637173,0.1317043c-0.0795765-0.0091434-0.1974945-0.052937-0.2202454-0.111886
		C22.0656128,5.5207219,22.188715,5.5079465,22.3203125,5.4793987z"/>
	<path style="fill:#0B0C0A;" d="M23.3736973,6.0671415c-0.0524883,0.036149-0.1049747,0.0722985-0.1574631,0.108448
		c-0.0453701-0.1763434,0.105917-0.0708261,0.1567039-0.1093464L23.3736973,6.0671415z"/>
	<path style="fill:#0B0C0A;" d="M20.501667,5.3797684c0.016777-0.006731,0.0335579-0.0134616,0.0503368-0.0201931
		c0.0049305,0.025806,0.0098572,0.0516119,0.0147839,0.0774179c-0.0185432-0.0034246-0.0406227-0.0019665-0.0544071-0.0119557
		C20.5028687,5.4181461,20.5048313,5.3954182,20.501667,5.3797684z"/>
	<path style="fill:#0B0C0A;" d="M34.0964394,14.865572c-0.0274086,0.0593548-0.0463524,0.1003714-0.0652924,0.1413889
		c-0.0278625-0.0513687-0.077858-0.1028585-0.0775757-0.1540737c0.0003014-0.0551281,0.0477409-0.1099968,0.0746155-0.164978
		C34.0524292,14.7510138,34.0766754,14.8141184,34.0964394,14.865572z"/>
	<path style="fill:#0B0C0A;" d="M34.0204086,13.3077536c-0.0282364,0.0325785-0.056469,0.0651579-0.0847015,0.0977373
		c-0.0944366-0.1009903,0.0457687-0.0754013,0.0637245-0.1159906
		C34.0004234,13.2898035,34.0204086,13.3077536,34.0204086,13.3077536z"/>
	<path style="fill:#0B0C0A;" d="M21.7967949,37.3371506c0.0924702,0.0153732,0.1927738,0.0390663,0.175663,0.157032
		c-0.0159435,0.1099281-0.1198521,0.1183319-0.2119808,0.1238327C21.7727051,37.5243454,21.78475,37.4307518,21.7967949,37.3371506z
		"/>
	<path style="fill:#3B3B3B;" d="M26.6100311,30.9547825c-0.2181187-0.4366283-0.4529819-0.6542854-0.8998375-0.0634098
		c0.0739613-0.7683849,0.1320438-1.412056,0.2000637-2.0546722c0.0212326-0.2006359,0.0535831-0.4097462,0.3544044-0.3236961
		c0.1950092,0.055788,0.2756214,0.1220951,0.3360405,0.3705635C26.7669849,29.5673981,26.6292553,30.2354984,26.6100311,30.9547825z
		"/>
	<path style="fill:#3B3B3B;" d="M25.3262539,34.9985313c-0.7537327-0.5578613-0.7390747-1.2361336-0.5336399-1.8987617
		c0.0571098-0.1842041-0.0181446-0.2424889-0.0478191-0.3616219c-0.0797997-0.3204079,0.1977692-0.4023743,0.3853588-0.4282837
		c0.275135-0.0379982,0.188736,0.2329636,0.1908512,0.3785515C25.3321877,33.4583168,25.3262539,34.228466,25.3262539,34.9985313z"
		/>
	<path style="fill:#3B3B3B;" d="M25.9979496,33.0220604c0.2195072,0.0664825,0.4497471,0.1177673,0.5692444,0.3250504
		c0.1193409,0.2070045-0.0726357,0.2923698-0.1923618,0.4161606c-0.2768402,0.2862282-0.1502838,0.5815468,0.053318,0.8338623
		c0.1084309,0.1343765,0.3205376,0.2483101,0.1290932,0.4098129c-0.23773,0.2005501-0.4610081-0.0342941-0.674633-0.1337776
		c-0.1565018-0.0728798-0.3663769-0.1991997-0.1697655-0.3805008c0.3657932-0.3373184,0.2499924-0.6425972,0.0242825-0.9735184
		C25.5113182,33.1880875,25.717289,33.0862579,25.9979496,33.0220604z"/>
	<path style="fill:#3B3B3B;" d="M26.1660671,32.2836914c-0.5755062,0.1415787-0.3905239-0.1974564-0.3589687-0.525259
		c0.0245571-0.2550812-0.0610447-0.5136089,0.3227196-0.4817257c0.4806614,0.0399323,0.5485153,0.358717,0.5310383,0.7734642
		C26.6428204,32.4781837,26.4187737,32.3756409,26.1660671,32.2836914z"/>
	<path style="fill:#0B0C0A;" d="M27.3936462,20.0614319c-0.0172958,0.6812325-0.0345898,1.362463-0.0520706,2.0434227
		C27.2130127,21.4198036,27.1156731,20.7358189,27.3936462,20.0614319z"/>
	<path style="fill:#0B0C0A;" d="M24.7599144,29.5687504c0.0047932,0.0602264,0.0095844,0.1204567,0.0137768,0.180872
		c-0.1431713,0.0932102-0.2156258,0.0472164-0.2024994-0.1152496
		C24.5825825,29.4933796,24.6692982,29.5119858,24.7599144,29.5687504z"/>
	<path style="fill:#0B0C0A;" d="M27.2407322,25.4217949c-0.020174-0.0118923-0.0403461-0.0237827-0.0605183-0.035677
		c0.0221348,0.0098419,0.0442696,0.0196857,0.0664101,0.0295124L27.2407322,25.4217949z"/>
</g>
</svg>
