<?xml version="1.0" encoding="utf-8"?>
<!-- Generator: Adobe Illustrator 21.1.0, SVG Export Plug-In . SVG Version: 6.00 Build 0)  -->
<svg version="1.1" id="Слой_1" xmlns="http://www.w3.org/2000/svg" xmlns:xlink="http://www.w3.org/1999/xlink" x="0px" y="0px"
	 viewBox="0 0 55 45" style="enable-background:new 0 0 55 45;" xml:space="preserve">
<g>
	<path style="fill:#033B78;" d="M51.3745918,9.687232c0.0381546,0.1323481,0.0763054,0.2646971,0.1144142,0.3970175
		c-0.0154991,0.0223551-0.0482559,0.0593052-0.0436401,0.0647917c0.0338135,0.040163,0.075119,0.0740242,0.1140594,0.1098719
		c-0.0364342,0.1878624-0.2814178,0.3190126-0.1502495,0.5524492c-0.4047012,0.9917326-0.2979012,1.9919615-0.0497055,2.9945364
		c0.0618248,0.1472054,0.1236458,0.2944098,0.1854706,0.4416161c-0.546917,0.8016253-0.9001465,1.7012281-1.3029556,2.5757198
		c-0.1451225,0.2426243-0.2902489,0.4852772-0.435379,0.727932c-0.041378,0.0720253-0.0827599,0.1440506-0.1241341,0.2160721
		c-0.3175163,0.4343052-0.6350288,0.8686161-0.9525414,1.3029251l0.0037308-0.0042267
		c-0.0547714,0.0691929-0.1095619,0.1383839-0.1643448,0.2075748l-0.0072975,0.0098839
		c-0.0504532,0.0575676-0.1009102,0.1151485-0.1513672,0.1727314c-0.0391006,0.052866-0.0782013,0.1057339-0.1172981,0.1586056
		c-0.5162888,0.5319729-1.0600929,1.0401878-1.450779,1.6806316c-0.4838028,0.3999729-0.9675941,0.799921-1.4513855,1.1998672
		c-0.6614609,0.1967392-1.1662521,0.524683-1.1085663,1.3236942l0.0041885-0.0088844
		c-0.1217232,0.0125904-0.1891937,0.0793953-0.201313,0.2014942l0.0096054-0.0030556
		c-0.089325-0.0011959-0.2219696-0.0400734-0.2598495,0.0034752c-0.1137238,0.1307602,0.0460663,0.2045422,0.1067276,0.2976933
		c0.0473938,0.0050335,0.0734367,0.0312653,0.0781403,0.078661c0.0950394,0.2515869-0.3923531,0.3929806-0.1280556,0.6766453
		c-0.0109901,0.1289711-0.0219803,0.2579422-0.0329704,0.3869133c-0.0619888,0.0060444-0.1237831,0.0136566-0.185379,0.0228348
		c-0.7827187,0.161293-0.672493,0.6815681-0.3358917,1.1020947c0.2852554,0.3563843,0.3594589,0.6962204,0.3318329,1.1064625
		L43.63591,27.7247047c-0.2893562,0.1522026-0.5939407,0.2932339-0.521431,0.7108746
		c-0.499691,0.5532341-0.4732513,1.1572857-0.0987701,1.7397728c0.29459,0.4582138,0.6643906,0.8680706,1.000782,1.2994041
		c-0.4448967,0.8209858-0.3901443,1.6683865,0.0558662,2.5509129c-0.6236763-0.0377579-0.5970421-0.6304474-1.029911-0.6734047
		c-0.9066963-0.0899773-0.7374954-1.3014755-1.5425072-1.5111446c0.1026001-0.1132793,0.2051964-0.2265568,0.3077965-0.3398342
		c0.3795547-0.0675735,0.8151436,0.1627522,1.1365738-0.2137928c0.1877975-0.8787556-0.5170135-0.9620399-1.055748-1.1193943
		c-1.4443054-0.4218674-1.6625366-1.0190792-0.7729721-2.2479763c0.0910988-0.1258545,0.1611061-0.2667866,0.2486763-0.3954315
		c0.1370697-0.2013607,0.3742371-0.4108715,0.1253357-0.6478157c-0.2082481-0.198246-0.478878-0.1159039-0.6806946,0.0565472
		c-1.2131844,1.0366764-2.5789413,1.8520164-3.9117165,2.7154121c-3.0442123,1.6715202-6.2026443,3.1040306-9.3855381,4.4853706
		c-0.0934086,0.0505981-0.1868153,0.1012001-0.2802238,0.1517944l-0.0689392-0.0078926
		c-0.2096138,0.0131187-0.4208107,0.0216103-0.5751286,0.1965408l-0.0014725,0.0006027
		c-0.0604267-0.0033188-0.1147442,0.0133171-0.1629486,0.0499077c-0.095789,0.0291901-0.191576,0.0583839-0.287365,0.0875778
		c-0.0422955-0.0104828-0.072979,0.0065308-0.0920563,0.0510292l-0.0185452,0.0083961
		c-0.2555141,0.0586815-0.5110302,0.117363-0.7665462,0.1760483c-0.8160515-0.0914612-1.6550465-0.2708054-2.2248783,0.5808487
		c-0.0580845,0.0110703-0.1166878,0.0160637-0.175808,0.0149803c-0.2092438-0.0056458-0.4497128-0.0898056-0.5361767,0.213253
		c-2.2151985,0.7407722-4.4956093,1.1188164-6.8244991,1.2268867c-1.1193705-0.2466545-2.238513-0.2515335-3.3573503,0.0039215
		c-1.1724644-0.0779648-2.3452539-0.1543655-3.4171906-0.7136803c0.0233774-0.0200615,0.0553112-0.035965,0.0676765-0.0613823
		c0.0118713-0.0244064,0.0153637-0.0777054,0.0022631-0.0859032c-1.2915654-0.8081207-1.5068398-2.3947144-2.482688-3.4301033
		c0.4115167,0.0982018,0.7364969,0.1334763,1.0929909,0.5790634c0.4076595,0.5095367,1.0662746,1.0448532,1.9934101,0.9608002
		c0.9464626-0.0858002,2.0208206-0.1277275,2.854661,0.2351494c1.2154846,0.528965,2.482893,0.4195023,3.5434055,0.1810799
		c1.5730076-0.3536491,3.1694927-0.4914398,4.7398434-0.8099289c2.6400661-0.5354424,5.283371-1.0475502,7.8391628-1.9092636
		c0.8606567-0.2901783,1.609951-0.9886837,2.4332008-1.1996326c0.999754-0.2561741,1.8549614-0.8012962,2.8506203-1.0511856
		c1.5320129-0.3845119,2.6944008-1.5123615,3.9066658-2.4693508c0.4118729-0.3251419,0.9627533-0.1556492,1.2571602-0.5137177
		c0.8828621-1.0737514,2.126297-1.7216682,3.1684456-2.5888214c1.1207542-0.9325752,2.402092-1.5454178,3.1278-2.9794884
		c0.7039223-1.391016,2.1867676-2.2219734,3.1044312-3.496172c0.7799835-1.0830173,1.7831039-2.0585852,1.8337212-3.5243483
		c-0.0348625-0.3744841,0.2236061-0.6056719,0.3945007-0.8955212c0.3115158-0.5283527,0.3038368-1.1597843,0.048481-1.6768856
		c-0.2571182-0.5206633-0.5203934,0.2516022-0.8335724,0.1230936c0.3056259-1.0232029,0.7205162-2.0289783,0.3667183-3.14328
		C50.9616547,8.4689102,50.7771149,9.4530487,51.3745918,9.687232z"/>
	<path style="fill:#F8F8F8;" d="M47.9911499,32.5930634c-0.039753,0.4296532-0.2685928,0.755497-0.5672226,1.0459213
		c-0.4886169,0.4751854-0.9966736,0.9096527-1.0197105,1.7008057c-0.0152435,0.5234718-0.5578232,0.7658463-0.9405708,0.9719048
		c-1.1352844,0.6111946-2.3113022,1.1407471-3.647213,1.176403c-0.8771782,0.0234184-1.7191353,0.5415573-2.6302109,0.1859665
		c-0.1690025-0.0659637-0.3936462-0.0108299-0.5455818-0.0957413c-1.4769363-0.8254318-2.847023-0.029583-4.2880287,0.1697311
		c-2.2001152,0.3043137-4.2512436,1.3626785-6.5203609,1.2297058c-0.4687672-0.0274734-0.833189,0.2294769-1.2482529,0.3470688
		c-1.6081448,0.4555893-3.2721653,0.6527023-4.8976135,1.0624084c-1.3424187,0.3383675-2.7710934,0.6076508-4.2305183,0.5003052
		c-1.5864019-0.1166801-3.1982555,0.0877533-4.7805367-0.0540237c-2.2140265-0.1983833-4.4262695-0.5804977-6.257391-1.994442
		c-1.1477118-0.8862419-2.0865455-2.0926361-2.5247345-3.3946228c-0.3873742-1.1510086-0.3382368-2.5640144,0.1155586-3.8025417
		c0.1844845-0.5035057,0.1489868-0.8024406-0.2412155-1.1279297c-0.3287497-0.2742233-0.3347001-0.6294842-0.1826327-0.9943409
		c0.3609221-0.0544643,0.279146,0.5803833,0.6607022,0.3768959c0.3169966-0.1690521,0.1410165-0.5046692,0.1881704-0.7654457
		c0.059473-0.328907-0.161005-0.8998871,0.5644894-0.6559544c0.0253849,0.2698917-0.0829368,0.5811157,0.2348032,0.7608528
		c-0.3535647,1.1171036-0.2709785,2.1633816,0.0678177,3.3227291c0.3163667,1.0825996,1.1300464,1.7421074,1.5826964,2.6683083
		c-0.3678851,0.1951103-0.4979463,0.3446732-0.2817535,0.853138c0.591084,1.3901787,1.9098511,1.7962074,3.0645132,2.255825
		c2.0358925,0.8103943,4.237174,1.0168304,6.4262943,1.0021744c1.047266-0.0070114,2.0905323-0.3015442,3.1401043-0.3386154
		c2.1676979-0.0765648,4.2298393-0.6161842,6.2768135-1.2598686c0.2325802-0.0731316,0.509119-0.1030731,0.5166397-0.442543
		c0.187952-0.0008736,0.375906-0.0017471,0.563858-0.0026245c1.3228989,0.1085129,2.5484676-0.2680283,3.7522984-0.7529182
		c0.1257896-0.0004082,0.251585-0.0008125,0.3773746-0.0012207c0.80443-0.0617599,1.6466885-0.1932526,2.3610249-0.4441948
		c1.9754372-0.6939659,3.9163017-0.8299789,5.9282875-0.3334045c0.2755661,0.0680122,0.4999161-0.0052376,0.5346718-0.3429489
		c0.1247177,0.0004082,0.2494354,0.0008202,0.3741531,0.0012283c0.6777229,0.6929398,1.4585457,0.5365715,1.8798828-0.3764687
		l0.0030518-0.0007591c0.2469559-0.0650444,0.6745605,0.7794495,0.7500343-0.1489716
		c1.2249756,0.0278053,2.2631531-0.5721016,3.3531189-0.9977646c0.867012,0.1331329,1.2329788-0.2444382,1.1255112-1.1044693
		c0.0709877-0.0749435,0.1419792-0.1498909,0.2129669-0.2248383c0.0568466-0.0466118,0.1136971-0.0932274,0.1705551-0.1398315
		l0.0234299-0.0261536C47.6213341,32.4655533,47.8062401,32.5293083,47.9911499,32.5930634z"/>
	<path style="fill:#27313B;" d="M45.9040146,33.8970375c-1.0900192,0.4257164-2.1281967,1.0256233-3.3531723,0.9978142
		c-0.2337151-0.0619965-0.4674301-0.1239929-0.7011452-0.1859932c-0.307682-0.1550713-0.6153603-0.3101463-0.9230423-0.4652176
		c-0.2677002-0.2547531-0.535408-0.5095024-0.8031082-0.7642517c-1.0265579-1.3180122-2.3556099-2.3812428-3.2263336-3.8305092
		c1.3327522-0.8634415,2.6985092-1.6787815,3.9116936-2.7154579c0.2018166-0.172451,0.4724464-0.2547932,0.6806946-0.0565472
		c0.2489014,0.2369442,0.011734,0.446455-0.1253357,0.6478157c-0.0875702,0.1286449-0.1575775,0.269577-0.2486763,0.3954315
		c-0.8895645,1.2288971-0.6713333,1.8261089,0.7729721,2.2479763c0.5387344,0.1573544,1.2435455,0.2406387,1.055542,1.1193485
		c-0.6299934-0.1164398-1.1105614-0.6653881-1.8406906-0.7160015c0.1303253,0.4803524,0.4846687,0.6517754,0.7043228,0.9298401
		c-0.1026001,0.1132774-0.2051964,0.2265549-0.3077965,0.3398342c0.8050117,0.2096691,0.6358109,1.4211674,1.5425072,1.5111446
		c0.432869,0.0429573,0.4062347,0.6356468,1.029911,0.6734047c-0.4460106-0.8825264-0.5007629-1.7299271-0.0555878-2.5509243
		c0.5714188-1.3836365,2.063118-1.9834709,3.3825378-1.3110352c0.3824577,0.1949196,0.5614014,0.0644951,0.7611771-0.2037449
		c0.0346107,0.0669231,0.0692177,0.133852,0.1038322,0.200779c-0.0319595,0.1233444-0.0639229,0.2466869-0.0958824,0.3700314
		c-0.1906166,0.0554123-0.1564102,0.2340527-0.202179,0.3688507c-0.2957878,0.1175346-0.1000328,0.3805447-0.1674385,0.565712
		c-0.0481606,0.0035667-0.0924301,0.0185413-0.133297,0.045002c-0.2982559-0.3868408-0.2005424-1.0632496-0.8978119-1.1608047
		c-1.9901886-0.2784481-2.7113838,1.0815067-2.5172043,2.7294712c0.0365219,0.3099556,0.2314529,0.6520615,0.5899086,0.6072617
		c0.3110352-0.0388718,0.4032784-0.4659271,0.3399887-0.6707573c-0.3008842-0.9737015,0.2835884-1.2880173,1.0239143-1.5414867
		c0.1845551-0.0631886,0.314045-0.3343849,0.5562744-0.0971069c0.2319221,0.2271862,0.1125717,0.4522991,0.0199966,0.682375
		c-0.3411484-0.298748-0.6876335-0.1683216-0.8365898,0.1476631c-0.2068863,0.4388885,0.2863579,0.3117447,0.4689865,0.446312
		c0.0745201,0.0549126,0.0715942,0.2149429,0.1039047,0.3271484C46.4411888,33.3719368,45.8485489,33.41782,45.9040146,33.8970375z"
		/>
	<path style="fill:#E3F1F4;" d="M5.2330608,29.2360172c-0.3177214-0.1797638-0.2093997-0.4909878-0.2347846-0.7608795
		c0.2260065-0.1907768,0.4210081-0.4520988,0.337831-0.7261009c-0.4039679-1.3307438,0.4264503-0.8828964,1.046536-0.7509232
		c0.3366733,0.5655689-0.1722713,1.1041355-0.0531359,1.6627636c-0.1849728,0.7876892,0.2672086,1.3373699,0.706686,1.8917942
		c-0.0153775,0.2035999,0.0870924,0.3367214,0.229156,0.4773808c1.7587042,1.7413292,3.9003305,1.2324867,5.9902878,1.0317192
		c0.3768835-0.0182381,0.7537689-0.0364761,1.1306534-0.0547142c1.4118071-0.2185555,2.8379107-0.3690586,4.188344-0.8797951
		c0.9278812-0.2451954,1.8546352-0.494751,2.7838917-0.734623c1.6080856-0.415102,3.1439266-1.036644,4.6897812-1.6300049
		c0.1829529-0.1042576,0.4415741-0.0458851,0.5708084-0.2655945l-0.0129356,0.0155602
		c0.3483906-0.0551987,0.6665592-0.1826363,0.9484463-0.3967934l-0.0151043,0.0148907
		c0.1286049-0.0690899,0.2572117-0.1381779,0.3858185-0.2072659l-0.0145931,0.0127735
		c0.1628571-0.0048809,0.3073101-0.0451107,0.3903561-0.2032661L28.293417,27.743782
		c1.0058575-0.5490417,2.0925751-1.0088711,2.4761944-2.2444077c0,0-0.015152,0.0112247-0.0152512,0.0110016
		c0.7601337-0.5176964,0.7123203-1.3004379,0.6818314-2.0774937c0.768528,0.4019661,0.4257698,1.0297775,0.2504025,1.5498199
		c-0.2764168,0.8196793-0.9119759,1.4185486-1.4677753,2.0608025c-0.3740406,0.4322186-0.0897522,0.4893208,0.2931328,0.4656849
		c0.0225086,0.0256157,0.0448322,0.0513878,0.0669708,0.0773239c-0.2170563,0.149662-0.4341164,0.2993202-0.6511726,0.4489822
		l-0.0194435-0.02705c-0.199295,0.0425987-0.4088783,0.0646725-0.5307426,0.2637539
		c-0.9096165,0.3207264-1.8164043,0.6481934-2.6627216,1.1194839c-0.1386795-0.0035152-0.2685738,0.0097008-0.3217869,0.1689568
		c-0.200491,0.046093-0.4442596-0.0360088-0.5818405,0.1964283l0.0097809-0.0189629
		c-0.1460438,0.0118923-0.300211,0.0027885-0.3930664,0.1521149l-0.0369701-0.0064449
		c-0.5506172,0.207056-1.1012325,0.414114-1.6518517,0.621172l0.0167694-0.0203743
		c-0.4767685,0.015131-0.8956833,0.2025013-1.2989979,0.4363174c-0.5942402,0.0816841-1.1553936,0.2695179-1.6944675,0.5281773
		c-3.8847828,0.9355373-7.7694378,1.8722248-11.8204117,1.3236637c-0.3381176-0.23452-0.7163239-0.3472748-1.124135-0.3701172
		c-0.1039915-0.2484169-0.2915101-0.3713188-0.5599465-0.3726311c-0.0636988-0.0658684-0.127398-0.1317368-0.1910973-0.1976051
		l0.0101233,0.007349C6.2449732,31.08675,5.8323569,30.1594315,5.9083972,29.028965
		c-0.0175633-0.3664379,0.3682785-0.6960316,0.0539141-1.2447529C5.6843891,28.3375034,5.458725,28.7867603,5.2330608,29.2360172z"
		/>
	<path style="fill:#E3F1F4;" d="M51.3745918,9.687232c-0.597477-0.2341833-0.4129372-1.2183218-1.3431702-1.268611
		c0.3537979,1.1143017-0.0610924,2.1200771-0.3666954,3.1432285l0.0109406-0.0058861
		c-0.1829796,0.3002605-0.4512749,0.5661097-0.3892479,0.9651766c0.1104126,0.3078737-0.1980324,0.3463364-0.323288,0.5026264
		c-0.0855522,0.0741835-0.1711044,0.148366-0.2566566,0.2225494l0.0116196-0.0205812
		c-0.4446106,0.6259241-0.889225,1.2518463-1.3338394,1.8777695l0.0086441-0.006959
		c-0.707119,0.7587299-1.4142342,1.5174608-2.1213608,2.2761908c-1.5081139,1.1969204-2.8274536,2.5994358-4.2437286,3.8965511
		c-0.1182785,0.0816975-0.2364845,0.1632996-0.3546944,0.2449017c-0.7299995,0.2211037-1.1629944,0.8469887-1.7399521,1.2766666
		l-0.009037-0.0043087c-1.1511993,0.7821465-2.2779503,1.5942955-3.4753342,2.3152237
		c-1.4295807,0.8607311-2.9390755,1.5658226-4.3713017,2.4146156l0.0070744-0.01968
		c-0.1685486,0.0299358-0.3370953,0.0598717-0.5056419,0.0898075c-0.0221386-0.0259361-0.0444622-0.0517082-0.0668259-0.0771503
		c0.0438194-0.20047,0.1755276-0.286829,0.3618793-0.3772221c0.8824844-0.4280949,1.7493534-0.8883209,2.6231136-1.3344784
		c1.7461777-0.8916245,3.218502-2.2105942,4.9292908-3.1575603c0.1629829-0.0902138,0.3727493-0.2092896,0.2497215-0.4206276
		c-0.1285286-0.2207851-0.4152641-0.1815758-0.5948639-0.101244c-0.7739334,0.3461704-1.5458755,0.3274899-2.3610802,0.1615753
		c-1.3287468-0.2704277-1.8032227-0.6505108-1.9009743-1.7331429c-0.0270309-0.2994213,0.0556374-0.6087437,0.0879707-0.9135246
		c0.0018082-0.1189938,0.0036201-0.2379913,0.0054283-0.356987c0.0775337,0.0037689,0.1550636,0.007534,0.2325974,0.011301
		c-0.1420708,1.6727219,0.1254349,2.180685,1.2595406,2.3917274c0.2044907,0.0472088,0.4207764,0.0949955,0.6159744,0.1228085
		c1.4364319,0.2046623,2.8134537,0.1017475,3.9080963-1.0275707c0.3341675,0.0304909,0.4871597-0.2870941,0.7513351-0.3910694
		c0.242485,0.0176525,0.3460274-0.1516037,0.4431877-0.3294449c0.0521164,0.0044823,0.0900726-0.0165653,0.1138611-0.0631485
		c0.1579208-0.0374794,0.2256927-0.1506405,0.2512245-0.2992611l-0.0183449,0.0220394
		c0.4783554-0.203373,0.803997-0.5814724,1.1158791-0.9753113l-0.0050888,0.0105858
		c0.1998825-0.04846,0.3398438-0.1618347,0.3962669-0.3657322l0.0029297,0.0039749
		c0.912014-0.7068195,1.7293549-1.5100384,2.452816-2.4088526c0,0,0.0223579-0.0236874,0.0214119-0.0240107
		c0.4700356-0.2873821,0.8639793-0.6419096,1.0392075-1.1879959c0.9658661-1.1485004,1.8710098-2.3367987,2.4500999-3.7387619
		c0.8841476-1.6687517,0.7900124-2.5798149-0.4340744-3.5624032c0.7868843-0.1167555,1.4761658,0.3412347,2.2183762,0.4732447
		C51.1710129,8.0170879,51.3266106,9.01896,51.3745918,9.687232z"/>
	<path style="fill:#F8F8F8;" d="M46.842598,21.2953377c0.3906631-0.6404171,0.9344673-1.148632,1.4507561-1.6806049
		c0.7639046,1.47258,1.6384811,2.8799343,1.4142456,4.6883965c-0.1739426,1.402853-0.4715195,2.7431297-1.0557823,4.0258446
		c-0.1003036,0.2201996-0.1372643,0.4692459-0.2034912,0.7049637c-0.1678162-1.0499191-0.785675-1.8125629-1.5742264-2.4662533
		c0.05373-0.3010731,0.1074562-0.6021442,0.1611862-0.9032173c0.0955582-1.1423454-0.0287132-2.2726994-0.1855545-3.4012718
		C47.1049118,21.9386768,47.0284271,21.6166039,46.842598,21.2953377z"/>
	<path style="fill:#396799;" d="M46.8740997,26.5676842c0.7885513,0.6536903,1.4064102,1.4163342,1.5742264,2.4662533
		c-0.0156364,0.2538261-0.0312805,0.5076542-0.0469284,0.7614784c-0.0803108,0.0548496-0.160614,0.1096992-0.2409134,0.1645489
		c-0.1997757,0.26824-0.3787193,0.3986645-0.7611771,0.2037449c-1.3194199-0.6724358-2.8111191-0.0726013-3.3825378,1.3110352
		c-0.3366699-0.4313221-0.7064705-0.8411789-1.0010605-1.2993927c-0.3744812-0.5824871-0.4009209-1.1865387,0.0987091-1.7394066
		c0.6059151,0.0798855,0.561985-0.3169365,0.521492-0.7112408l0.0337791-0.0410976
		c0.6981506,0.1253948,1.1484718-0.3161983,1.6204491-0.7082767c0.9518051-0.2713585,0.2396622-0.8682537,0.2586594-1.3221092
		C45.9905624,25.9580421,46.4323311,26.2628632,46.8740997,26.5676842z"/>
	<path style="fill:#E3F1F4;" d="M18.667696,17.9129124c0.0749817-1.0527363,1.1095791-0.9128666,1.6857128-1.3382473
		c0.466135-0.344162,1.3361034-0.2161102,1.2268047-1.2009554c-0.0290146-0.2614222,0.3205147-0.231575,0.5206642-0.1191978
		c0.5058517,0.2840071,0.982296,0.3966608,1.4178066-0.1228085c0.0533428-0.0636225,0.1675816-0.1281614,0.2403278-0.1155739
		c0.7989311,0.1382332,1.238493-0.3013792,1.8863907-0.7305155c1.0983086-0.7274666,2.1095657-1.710619,3.4440346-2.0788012
		c0.5502033-0.151803,1.0198212-0.6429262,1.6648865-0.3969097c-0.3478889,0.2217407-0.6958122,0.4435711-1.0437355,0.6654024
		c-0.0536633-0.0080605-0.0973091,0.0092058-0.1309338,0.0517988c-0.7458649,0.2617474-1.4935474,0.5199966-2.0823402,1.0835848
		l0.0015774-0.0145903c-0.7606297,0.5694628-0.7813148,1.0762987-0.0737,1.8060904c0,0,0.0331783,0.0192413,0.0335999,0.018466
		c0.3741474,0.6389608,1.0258121,0.3837986,1.5665951,0.4856462c-0.1178761,0.1019764-0.2357502,0.2039547-0.3536263,0.305933
		c-0.355175,0.0339451-0.71035,0.0678921-1.0655251,0.1018372c-0.4909897-0.0386791-1.0243664-0.1695099-1.1717129,0.5389366
		l-0.0138988,0.0094624c-0.5459576-0.0413342-1.146677-0.2066708-1.3247128,0.5850582
		c-0.1104088,0.0796051-0.2208176,0.1592121-0.3312302,0.238821c-0.0164413,0.0792885-0.0328846,0.158577-0.0493221,0.2378654
		c-1.5921669,1.5612602-1.6544762,2.1380711-0.3574123,3.3085403c-0.0083179,0.1048946-0.016634,0.2097855-0.0249538,0.3146801
		c-0.3301792,0.0281086-0.573946-0.183012-0.8493805-0.3065834c-0.8367825-0.6530991-0.5844555-1.4919262-0.3953953-2.3199749
		L23.0667,18.9389763c0.0291653-0.0680256,0.0583305-0.1360512,0.0874996-0.2040768
		c0.0266457-0.0561562,0.0532932-0.1123104,0.0799389-0.1684647c0.1566238-0.0152359,0.3311195,0.0025368,0.3824978-0.2070885
		l-0.0145741,0.0034199c0.1296215-0.0114613,0.1737442-0.1004391,0.1925449-0.2123737l-0.0125313,0.0170307
		c0.1166916-0.0158234,0.1970367-0.0696507,0.2065449-0.1975422l-0.0183468,0.0077896
		c0.078392-0.0636082,0.156786-0.1272163,0.2351799-0.1908245c0.1854763-0.0214996,0.3045235-0.11759,0.3423347-0.3048897
		c0.3382797-0.2487411,0.4571686-0.5411224,0.1813984-0.9119987c0.0281029-0.0306664,0.0264072-0.0595875-0.0050831-0.0867615
		c0.0251255-0.1672688-0.0549393-0.2394295-0.2157288-0.2386093c-0.5187149-0.4449358-1.6956177-0.4383793-2.3647919-0.0661659
		c-1.125927,0.6262741-2.2801628,1.2016659-3.4224873,1.79846L18.667696,17.9129124z"/>
	<path style="fill:#E3F1F4;" d="M8.3852758,24.9120197c0.0057507-0.1242046-0.0334072-0.3285713,0.0239325-0.360693
		c1.0019169-0.5613079,1.4944115-1.7409801,2.6204929-2.1509018c0.1664591-0.0605965,0.2976685-0.2134628,0.4515429-0.3138962
		c1.4909697-0.9731922,2.9118233-2.0413761,4.455965-2.9516754c0.8927336-0.5262814,1.7692347-0.9264832,2.7306814-1.221632
		l0.0531883,0.0636349c-0.1994572,0.1399841-0.3931007,0.2892284-0.5992546,0.4185333
		c-1.6352005,1.0256348-3.4124117,1.827507-4.887866,3.104763c-0.3362141,0.0633812-0.5657072,0.2895908-0.7927303,0.5195675
		c-0.4369659,0.1589394-0.7877922,0.4427681-1.1111784,0.766386C10.2631454,23.3765697,9.4790821,24.35882,8.3852758,24.9120197z"/>
	<path style="fill:#396799;" d="M48.5095024,7.4650264c1.2240868,0.9825883,1.318222,1.8936515,0.4340439,3.5624347
		c-0.2085152-0.3107529-0.024868-0.6018076,0.0548096-0.8919048c0.4174385-1.5199432-0.049984-2.1982622-1.6337433-2.5177841
		c-1.9421883-0.3918366-3.8240128-0.0461764-5.7097397,0.3499198c-0.3230553,0.0678573-0.6389923,0.2974696-0.9746819,0.0384574
		c0.01474-0.0443082,0.0202026-0.0897326,0.0163918-0.1362729c0.1148224-0.0296178,0.2296486-0.0592356,0.3444786-0.0888534
		c0.6936226-0.1662164,1.3872375-0.3324342,2.0808563-0.4986525C43.30476,7.2643423,43.487606,7.246314,43.6704559,7.2282863
		c0.2683716,0.0323257,0.5325394,0.0403333,0.7656021-0.1320186c0.1219177-0.0148129,0.2438316-0.0296268,0.3657494-0.0444374
		c1.123745,0.0282722,2.2579231-0.0993543,3.3618584,0.2249494l-0.0048141-0.0060887
		c0.0690956,0.0391536,0.1381149,0.0783739,0.2071342,0.1175938C48.4009399,7.4379578,48.4487801,7.4635377,48.5095024,7.4650264z"
		/>
	<path style="fill:#396799;" d="M29.7105885,12.4753056c0.3479233-0.2218313,0.6958466-0.4436617,1.0437355-0.6654024
		l0.0052013-0.0098591c1.1150417-0.4626913,2.2302208-0.9253054,3.3453979-1.3879213
		c0.3992233,0.1632566,0.4926262-0.2564783,0.7377472-0.3869915c0.9994087-0.3476448,1.922554-0.8968506,2.9680138-1.1226778
		c0.0520515,0.4433603-0.295929,0.5143166-0.5889397,0.577179c-0.2845192,0.0610418-0.5553513,0.0955009-0.6880493,0.3980417
		c-0.1861267,0.004323-0.3722496,0.0086479-0.5583763,0.0129709c-0.062027,0.0593958-0.1240578,0.1187916-0.1860847,0.1781874
		l-0.0005035,0.0005674c-0.3404808,0.0667562-0.6950226,0.1145735-0.7546043,0.5599079l0.0008163-0.0008764
		c-0.5197105,0.1392803-1.1364403,0.0188036-1.5052147,0.5621939c-0.1858406,0.0638008-0.3716888,0.1276026-0.5575294,0.1914034
		c-0.1897392,0.124403-0.3794746,0.2488079-0.5692101,0.37321c-0.3290405,0.0650311-0.6643658,0.1080828-0.9857445,0.1999216
		C30.8456154,12.1185112,30.3986969,12.6890869,29.7105885,12.4753056z"/>
	<path style="fill:#E3F1F4;" d="M37.8106537,8.9023075c-1.0454292,0.2259731-1.9685745,0.7751789-2.9679832,1.1228237
		c-0.0038834-0.4629202,0.207859-0.7764711,0.6644821-0.8750372c1.0980988-0.2370358,2.1469116-0.4774284,3.1049156-1.2063975
		c0.4686699-0.3566275,1.3739243-0.2756958,2.0844955-0.0738258c0.00383,0.046546-0.0016327,0.0919704-0.0163994,0.1362863
		c-0.9319572,0.0898066-1.7747459,0.4792347-2.6420937,0.786108c-0.073185,0.0429773-0.1463699,0.0859537-0.2195587,0.1289282
		L37.8106537,8.9023075z"/>
	<path style="fill:#396799;" d="M6.3295074,28.6608772c-0.1191354-0.5586281,0.3898091-1.0971947,0.0531359-1.6627636
		c0.606051-0.567173,1.2120943-1.1343555,1.8180318-1.70154c-0.0098314,0.1851025-0.019558,0.3702049-0.0290995,0.5551167
		c-0.340157,0.5384483-1.0595331,0.8647442-0.9327207,1.6650848c-0.1946597,0.255167-0.5519624,0.3961391-0.5528216,0.7873726
		c-0.0021758,0.1066093-0.0043516,0.2132225-0.0065265,0.3198299C6.5628409,28.6362801,6.4461737,28.6485786,6.3295074,28.6608772z"
		/>
	<path style="fill:#0355A4;" d="M8.1713924,25.8518829c0.0097246-0.1851044,0.0194511-0.3702068,0.0292826-0.5553093
		c0.0977945-0.032711,0.1759682-0.0789318,0.1409807-0.2034893c0.0153656-0.0610733,0.0307331-0.1221466,0.0460997-0.1832256
		l-0.0024853,0.0021667c1.093812-0.5532055,1.8778753-1.5354557,2.9447794-2.1259193c0,0,0.0610495,0.061842,0.0610065,0.0617828
		C10.5248308,24.0710602,9.3416834,24.9545803,8.1713924,25.8518829z"/>
	<path style="fill:#E3F1F4;" d="M34.1049232,10.4121227c-1.1151772,0.462616-2.2303562,0.92523-3.3453979,1.3879213
		c0.1778469-0.7900076,0.9126377-0.9150534,1.4906807-1.1368465c0.5881844-0.2256832,1.4447823,0.0245562,1.4302368-1.0298786
		c-0.0004768-0.0346184,0.2057228-0.0996361,0.3162804-0.1012163c0.1358871-0.0019417,0.2329102,0.0980806,0.2169762,0.2417679
		C34.189949,9.9880075,34.1423645,10.1995029,34.1049232,10.4121227z"/>
	<path style="fill:#E3F1F4;" d="M48.1636658,7.2767797c-1.1039352-0.3243036-2.2381134-0.1966772-3.3618584-0.2249508
		c1.0507927-0.7700858,2.1410065-0.2935586,3.2179298-0.0865259C48.085247,6.9778962,48.1164818,7.168829,48.1636658,7.2767797z"/>
	<path style="fill:#B2B4B6;" d="M51.5449409,14.2475147c-0.0618248-0.1472063-0.1236458-0.2944107-0.1854935-0.4413118
		c0.2377853-0.6696568,0.0343857-1.4248285,0.3998489-2.0701332C52.1029053,12.6086435,52.1184959,13.4532223,51.5449409,14.2475147
		z"/>
	<path style="fill:#396799;" d="M51.7592964,11.7360697c-0.3654633,0.6453047-0.1620636,1.4004765-0.3998489,2.0701332
		c-0.2481728-1.0028791-0.3549728-2.003108,0.0497284-2.9948406C51.7726212,11.0261879,51.4008102,11.5193796,51.7592964,11.7360697
		z"/>
	<path style="fill:#E3F1F4;" d="M48.7299309,19.0701637c0.3175125-0.434309,0.635025-0.8686199,0.9525414-1.3029251
		C49.8859482,18.743412,49.7597694,18.9160061,48.7299309,19.0701637z"/>
	<path style="fill:#E3F1F4;" d="M43.1219177,7.2823706C42.428299,7.4485888,41.734684,7.6148067,41.0410614,7.781024
		C41.5831413,6.9824505,42.3602066,7.1644378,43.1219177,7.2823706z"/>
	<path style="fill:#E2E3E5;" d="M47.6659927,31.510294c0.0403938-0.0264149,0.0846634-0.0413895,0.1328239-0.0449562
		c0.4268799,0.314085,0.7044945,0.6536617,0.1923561,1.1278172c-0.1849327-0.0638466-0.3698387-0.1276016-0.5548019-0.1912689
		c-0.0062599-0.0408478-0.0084038-0.0819969-0.0064735-0.1233597C47.5085907,32.0224457,47.5872917,31.7663708,47.6659927,31.510294
		z"/>
	<path style="fill:#E3F1F4;" d="M44.436058,7.0962672c-0.2330627,0.1723523-0.4972305,0.1643448-0.7656021,0.13202
		C43.8452797,6.7181921,44.1224518,6.8015881,44.436058,7.0962672z"/>
	<path style="fill:#E3F1F4;" d="M49.8066063,17.5511646c0.1451302-0.2426529,0.2902565-0.4853058,0.435379-0.7279301
		C50.2159309,17.1371174,50.3734436,17.5607605,49.8066063,17.5511646z"/>
	<path style="fill:#F8F8F8;" d="M47.9662552,30.8996258c0.0457687-0.134798,0.0115623-0.3134384,0.202179-0.3688507
		c0.1318245,0.0393295,0.3585701,0.0252342,0.2764091,0.2407894C48.3680573,30.9730053,48.1379395,30.8920574,47.9662552,30.8996258
		z"/>
	<path style="fill:#F8F8F8;" d="M48.1604843,29.9599648c0.0802994-0.0548496,0.1606026-0.1096992,0.2409096-0.1645489
		c0.2393303,0.2287312,0.0850029,0.3097401-0.1370811,0.3653278C48.229702,30.0938168,48.1950951,30.0268879,48.1604843,29.9599648z
		"/>
	<path style="fill:#E3F1F4;" d="M8.3877554,24.9098587c-0.0153666,0.061079-0.0307341,0.1221523-0.0460997,0.1832256
		c-0.0709705-0.0412216-0.1419411-0.0824394-0.2129126-0.1236572C8.2150812,24.9495697,8.3014174,24.9297161,8.3877554,24.9098587z"
		/>
	<path style="fill:#E3F1F4;" d="M48.5693169,19.2735119c0.0547829-0.069191,0.1095734-0.138382,0.1643448-0.2075748
		C48.678875,19.135128,48.6240959,19.204319,48.5693169,19.2735119z"/>
	<path style="fill:#E3F1F4;" d="M48.4106522,19.4561272c0.050457-0.0575829,0.100914-0.1151638,0.1513672-0.1727314
		C48.5115623,19.3409824,48.4611053,19.3985558,48.4106522,19.4561272z"/>
	<path style="fill:#E3F1F4;" d="M51.5594254,10.258913c-0.0389404-0.0358477-0.080246-0.0697088-0.1140594-0.1098719
		c-0.0046158-0.0054865,0.028141-0.0424366,0.0436401-0.0647917C51.5125084,10.1424894,51.5359688,10.2006998,51.5594254,10.258913z
		"/>
	<path style="fill:#E3F1F4;" d="M48.3659859,7.3882847c-0.0690193-0.0392199-0.1380386-0.0784402-0.2071342-0.1175942
		C48.2278519,7.3099327,48.2969208,7.3491087,48.3659859,7.3882847z"/>
	<path style="fill:#0355A4;" d="M48.963131,13.0237675c0.1252556-0.156291,0.4337006-0.1947536,0.3232803-0.5026588
		c0.4434662-0.1952009,0.4076195-0.5836983,0.3892555-0.9651451l-0.0109406,0.0058861
		c0.3131561,0.1285601,0.5764313-0.6437054,0.8335495-0.1230421c0.2553558,0.5171013,0.2630348,1.1485329-0.048481,1.6768856
		c-0.1708946,0.2898493-0.4293633,0.5210371-0.3944664,0.895524c-0.7729454,0.6557493-1.1136551,1.630537-1.7268944,2.4165535
		c-1.7319298,2.2199154-3.7112122,4.1880665-5.6706429,6.1769848c-2.3854485,2.4213467-5.2193527,4.2455292-8.2960548,5.6661892
		c-1.4815025,0.684082-2.9692268,1.3584766-4.5022697,1.9469032c-1.1999359,0.4605713-2.5693874,0.4956379-3.6332626,1.3271999
		c-0.2572842,0.2011051-0.6052761,0.1015091-0.9145069,0.1179962c-0.2791042,0.014883-0.6007595-0.0486145-0.829565,0.0679169
		c-1.1100883,0.5653877-2.2896786,0.8959846-3.4998093,1.1397781c-0.6979733,0.1406136-1.4170437,0.2056694-2.0952702,0.4092026
		c-1.5141335,0.4543953-3.0985813,0.4707527-4.6293449,0.8109703c-0.4081116,0.0907021-0.6688395-0.092804-0.6194105-0.5621643
		c0.1135311-0.0467644,0.2301044-0.1404648,0.3402586-0.1334457c1.4025736,0.0893898,2.6771507-0.6593628,4.0712013-0.6138878
		c0.2395649,0.0078163,0.4277477-0.0613289,0.4435482-0.3458557c0.1283493-0.0095482,0.2566986-0.0191002,0.3850479-0.0286522
		c0.7844944,0.2400284,1.4319611-0.1448593,2.0948677-0.4593391c-0.072588-0.0417881-0.145174-0.0835762-0.2177639-0.1253681
		c0.0023174-0.1243782,0.0046349-0.2487526,0.0069542-0.3731308c0.5390739-0.2586594,1.1002274-0.4464931,1.6945152-0.5281887
		c0.552166,0.2092896,0.952158-0.0343208,1.2989502-0.436306l-0.0166092,0.0205059
		c0.6329861,0.0117397,1.2642899,0.0193176,1.6516914-0.6213036l0.036953,0.0070248
		c0.1861668,0.0909309,0.3242912,0.0580254,0.3930836-0.1526947l-0.0096779,0.0190582
		c0.2231064,0.0207195,0.4577541,0.075779,0.5817375-0.1965237c0.0532131-0.159256,0.1831074-0.172472,0.3218517-0.1689739
		c1.0977173-0.0039368,2.1066628-0.2415867,2.8823128-1.0939236c0.1661682-0.0295029,0.3361893-0.0548801,0.3107014-0.2898369
		c0,0,0.0198288,0.0275898,0.0199757,0.0280247c0.5130978,0.0936699,0.9214096-0.0373459,1.1566677-0.5392246l-0.0070705,0.0196857
		c0.3901119,0.0735779,0.7288055-0.0658703,1.0781078-0.2217197c0.7028847-0.3136177,1.4203568-0.5945377,2.131813-0.8889503
		c1.3206863-0.0761909,2.428051-0.5582218,3.1985092-1.681221c0.1236534-0.0649967,0.2473068-0.1299915,0.3709641-0.1949844
		c0.0933075-0.0041084,0.1875076-0.0013523,0.279789-0.0133533c1.3449745-0.1749172,1.8845978-1.4233646,2.7990761-2.1654701
		c0.1481323-0.1202068,0.4256783-0.6890373,0.0921249-1.0814991c1.4162064-1.2970219,2.7355461-2.6995373,4.2438087-3.8965321
		c0.8944931-0.2553101,2.0390625-1.4835138,2.121212-2.2761183c0,0-0.0086441,0.006959-0.0085182,0.0070381
		c0.8765564-0.3191833,1.2905502-0.9668427,1.3337135-1.8778467l-0.0114784,0.0204926
		C48.7922211,13.1720142,48.8776779,13.0978909,48.963131,13.0237675z M21.4754829,31.7830677
		c0.457346-0.1523228,0.995491,0.0001431,1.5950146-0.5771217C22.3646278,31.3820515,21.8659477,31.3784637,21.4754829,31.7830677z"
		/>
	<path style="fill:#024491;" d="M13.6383543,33.5286217c-0.0494862,0.4694862,0.2112417,0.6529922,0.6193533,0.5622902
		c1.5307636-0.3402176,3.1152115-0.356575,4.6293449-0.8109703c0.6782265-0.2035332,1.3972969-0.268589,2.0952702-0.4092026
		c1.2101307-0.2437935,2.3897209-0.5743904,3.4998093-1.1397781c0.2288055-0.1165314,0.5504608-0.0530338,0.829565-0.0679169
		c0.3092308-0.0164871,0.6572227,0.0831089,0.9145069-0.1179962c1.0638752-0.831562,2.4333267-0.8666286,3.6332626-1.3271999
		c1.5330429-0.5884266,3.0207672-1.2628212,4.5022697-1.9469032c3.0767021-1.42066,5.9106064-3.2448425,8.2960548-5.6661892
		c1.9594307-1.9889183,3.9387131-3.9570694,5.6706429-6.1769848c0.6132393-0.7860165,0.953949-1.7608042,1.7268944-2.4165535
		c-0.0506516,1.4657602-1.053772,2.441328-1.8337555,3.5243454c-0.9176636,1.2741985-2.4005089,2.1051559-3.1044312,3.496172
		c-0.725708,1.4340706-2.0070457,2.0469131-3.1278,2.9794884c-1.0421486,0.8671532-2.2855835,1.51507-3.1684456,2.5888214
		c-0.2944069,0.3580685-0.8452873,0.1885757-1.2571602,0.5137177c-1.212265,0.9569893-2.3746529,2.0848389-3.9066658,2.4693508
		c-0.9956589,0.2498894-1.8508663,0.7950115-2.8506203,1.0511856c-0.8232498,0.2109489-1.5725441,0.9094543-2.4332008,1.1996326
		c-2.5557919,0.8617134-5.1990967,1.3738213-7.8391628,1.9092636c-1.5703506,0.3184891-3.1668358,0.4562798-4.7398434,0.8099289
		c-1.0605125,0.2384224-2.3279209,0.3478851-3.5434055-0.1810799c-0.8338404-0.3628769-1.9081984-0.3209496-2.854661-0.2351494
		c-0.9271355,0.084053-1.5857506-0.4512634-1.9934101-0.9608002c-0.3564939-0.4455872-0.6814742-0.4808617-1.0929704-0.5790291
		c-0.0625-0.1857605-0.125021-0.3715553-0.187541-0.557354c0.0344882-0.269289-0.0617909-0.7068176,0.4520802-0.3071461
		c0.1217041,0.0946541,0.332695,0.0745029,0.5026145,0.1071625l-0.010067-0.007328
		c0.0637202,0.0658703,0.1273794,0.1317272,0.1910367,0.1975842c0.268435,0.0013123,0.4559536,0.1242142,0.5599351,0.3726196
		c0.1240435,0.6712952,0.6665721,0.8888054,1.2095466,0.9291344c1.4718943,0.1093216,2.9422455,0.3208008,4.4252911,0.2011795
		C13.5145998,33.5323563,13.5764866,33.5309219,13.6383543,33.5286217z"/>
	<path style="fill:#D3D4D5;" d="M40.1235466,33.4793892c0.2677002,0.2547493,0.535408,0.5094986,0.8031006,0.7642555
		c-0.5961113,0.6834869-1.4672661,0.5829887-2.0845985,0.3538513c-1.9605179-0.7276802-3.8353424-0.1901207-5.6702309,0.2716713
		c-1.6696072,0.4201851-3.3575191,0.7815208-5.0200596,1.2480659c-1.8196812,0.5106392-3.7169266,0.7431107-5.5783081,1.1073112
		c-3.018589,0.5906296-6.0653553,0.7607346-9.1330175,0.6302147c-0.5421486-0.0230675-1.104146-0.0125351-1.481616-0.6126671
		c0.3494339-0.1048088,0.6355791-0.1906357,0.9217253-0.2764626c0.8721561-0.0271492,1.7443123-0.0542946,2.6164684-0.0814438
		c2.3289442-0.108078,4.609355-0.4861221,6.8241014-1.2265282c0.2064915-0.0008965,0.4242115,0.0248947,0.5366287-0.2136192
		c0.0591202,0.0010834,0.1177235-0.0039101,0.1756344-0.0150261c0.7692337-0.087635,1.4945469-0.344162,2.2250519-0.5808029
		c0.2555161-0.0586853,0.5110321-0.1173668,0.7665462-0.1760483c-0.0462685,0.2307739-0.409111,0.3253593-0.2605667,0.6770401
		c2.5120468-0.4248848,5.0375824-0.8155365,7.5081615-1.4665337c1.6121063-0.4247856,3.1768723-0.4859581,4.8227959-0.1184616
		C38.6849632,33.8958549,39.5046272,33.9606247,40.1235466,33.4793892z M24.8956795,35.6075706
		c-0.1302738-0.0825424-0.1951962-0.1516762-0.2692204-0.1634178c-0.0904808-0.0143623-0.2012024,0.018322-0.1421299,0.1546288
		c0.02145,0.0494957,0.0892696,0.1098976,0.1361599,0.1100922C24.6906815,35.7091637,24.761076,35.6606789,24.8956795,35.6075706z"
		/>
	<path style="fill:#B2B4B6;" d="M40.1235466,33.4793892c-0.6189194,0.4812355-1.4385834,0.4164658-2.028183,0.2848167
		c-1.6459236-0.3674965-3.2106895-0.306324-4.8227959,0.1184616c-2.4705791,0.6509972-4.9961147,1.0416489-7.5081615,1.4665337
		c-0.1485443-0.3516808,0.2142982-0.4462662,0.2605667-0.6770401c0,0,0.0185452-0.0083961,0.018364-0.0082779
		c0.0182667-0.0395241,0.0490742-0.0566101,0.0922375-0.0511475c0.095789-0.0291939,0.191576-0.0583878,0.2873421-0.087574
		c0.083725,0.079422,0.1268826,0.0262947,0.1629715-0.0499115l0.0014496-0.0005798
		c0.2033253-0.0314941,0.443655,0.0451889,0.5751514-0.1965637c0,0,0.0689392,0.0078926,0.0690422,0.0077667
		c0.0934429-0.0506401,0.1867828-0.1011543,0.2801208-0.1516685c3.1828938-1.38134,6.3413258-2.8138504,9.3855381-4.4853706
		C37.7679367,31.0981464,39.0969887,32.161377,40.1235466,33.4793892z"/>
	<path style="fill:#E2E3E5;" d="M12.8805418,36.9656296c-0.2861462,0.0858269-0.5722914,0.1716537-0.9217253,0.2764626
		c0.37747,0.600132,0.9394674,0.5895996,1.481616,0.6126671c3.0676622,0.1305199,6.1144285-0.0395851,9.1330175-0.6302147
		c1.8613815-0.3642006,3.7586269-0.5966721,5.5783081-1.1073112c1.6625404-0.4665451,3.3504524-0.8278809,5.0200596-1.2480659
		c1.8348885-0.461792,3.709713-0.9993515,5.6702309-0.2716713c0.6173325,0.2291374,1.4884872,0.3296356,2.0845985-0.3538513
		c0.3076897,0.1550674,0.6153679,0.3101425,0.9230156,0.4652328c-0.0163078,0.1116638-0.0325813,0.2233047-0.0488548,0.3349495
		l-0.0030518,0.0007133c-0.6266327,0.125473-1.2532578,0.2509918-1.8798828,0.3765144
		c-0.1247177-0.0004082-0.2494354-0.0008202-0.3741493-0.0012703c-0.3712082-0.3664894-0.8898087-0.2431297-1.3184929-0.3124847
		c-0.8971367-0.1451302-1.7935905-0.4303017-2.7488213-0.130024c-0.9371986,0.2946091-1.9355812,0.389164-2.8863983,0.6477013
		c-0.669754,0.1821136-1.5452099,0.0087509-1.8702755,0.9153976c-0.1257896,0.0004082-0.251585,0.0008125-0.3773518,0.0012321
		c-0.4619541-0.4485397-0.94874-0.0866318-1.3801727,0.0218773c-0.7997227,0.2011299-1.7256393,0.0323486-2.3721485,0.7310295
		c-0.187952,0.0008774-0.375906,0.0017509-0.5638638,0.0025826c-0.7184811-0.0477104-1.392334,0.2400742-2.0705166,0.3207016
		c-2.4861221,0.2955704-4.9251881,1.0836716-7.4724712,0.8078651c-0.1510715-0.0163574-0.3123684,0.0106354-0.4625626,0.0451012
		c-1.5598726,0.3579369-3.0815163-0.0312996-4.6033583-0.2632179c-1.3739405-0.2093735-2.4239616-1.148838-3.5954685-1.7896004
		c0.189908-0.1697655,0.5437517,0.0528412,0.7381992-0.2154732c0.0527487-0.0175705,0.1069174-0.0269203,0.1625032-0.0280533
		c1.0719357,0.5593147,2.2447252,0.6357155,3.4171686,0.7136803C12.3866282,36.9139442,12.633584,36.9397888,12.8805418,36.9656296z
		"/>
	<path style="fill:#27313B;" d="M8.7225237,36.1744194c-0.0555849,0.001133-0.1097536,0.0104828-0.1625223,0.0280533
		c-0.7327642-0.026207-1.1357365-0.6191483-1.6764078-0.9754448c-0.4526501-0.9262009-1.2663298-1.5857086-1.5826964-2.6683083
		c-0.3387961-1.1593475-0.4213824-2.2056255-0.0678177-3.3227291c0.2256455-0.4492302,0.4513097-0.8984871,0.7292318-1.4517784
		c0.3143644,0.5487213-0.0714774,0.878315-0.0539141,1.2447777c-0.5788283,0.6470623-0.4864302,1.9478531,0.2138577,3.0107212
		c0.06252,0.1857986,0.125041,0.3715935,0.187541,0.557354c0.9758277,1.0353546,1.191102,2.6219482,2.4826674,3.430069
		c0.0131006,0.0081978,0.0096083,0.0614967-0.0022631,0.0859032C8.7778349,36.1384544,8.7459011,36.1543579,8.7225237,36.1744194z
		 M6.066771,32.7295532c-0.0496187-0.0248833-0.099237-0.0497704-0.1488571-0.0746498
		c-0.0026007,0.049633-0.0128961,0.1006813-0.0041304,0.1482201c0.0036607,0.0198555,0.0671492,0.0492554,0.0705805,0.0453644
		C6.0159707,32.8126297,6.0403705,32.7704124,6.066771,32.7295532z"/>
	<path style="fill:#D3D4D5;" d="M46.8740997,26.5676842c-0.4417686-0.304821-0.8835373-0.609642-1.3252754-0.9144363
		c-0.1332932-0.2608643-0.3585472-0.4104233-0.6220474-0.51367c-0.237011-0.3291168-0.5264778-0.594923-0.9066734-0.7512321
		c-0.0046844-0.0474319-0.0307274-0.0736637-0.0779495-0.0783138c0.0511017-0.1002636,0.1020279-0.2009048,0.1529503-0.3015518
		c0,0-0.0096054,0.0030556-0.0097313,0.0029049c0.0670624-0.0672169,0.1342506-0.1342793,0.2014389-0.2013435
		c0,0-0.0041885,0.0088844-0.0043716,0.0088215c0.3799095-0.4324951,0.9748764-0.6849022,1.1087494-1.3236313
		c0.4837914-0.3999462,0.9675827-0.7998943,1.4513855-1.1998672c0.1858521,0.3212395,0.2623367,0.6433125,0.0073547,0.9679356
		c-1.0904922,0.4624043-0.5177116,1.4956703-0.7730179,2.2447453c-0.3136597,0.9202881,0.2065392,1.1295719,0.958374,1.1564217
		C46.9815559,25.9655399,46.9278297,26.2666111,46.8740997,26.5676842z"/>
	<path style="fill:#0355A4;" d="M44.9267769,25.1395817c0.2635002,0.1032429,0.4887543,0.2528019,0.6220474,0.5136662
		c-0.0190239,0.4538288,0.693119,1.050724-0.2577934,1.3220024c-1.0868759,0.0447388-1.5838127-0.4160366-1.6173134-1.5005474
		c0.0615959-0.0091782,0.1233902-0.0167904,0.1854134-0.0226879c0.2577934-0.0028114,0.5341721,0.0890255,0.7462578-0.1464443
		C44.7125206,25.2502422,44.8196449,25.194912,44.9267769,25.1395817z"/>
	<path style="fill:#024491;" d="M43.6737175,25.4747028c0.0335007,1.0845108,0.5304375,1.5452862,1.6173134,1.5005474
		c-0.4728699,0.3921585-0.9231911,0.8337517-1.6213417,0.7083569c0.0275955-0.4105892-0.046608-0.7504253-0.3318634-1.1068096
		C43.0012245,26.156271,42.8909988,25.6359959,43.6737175,25.4747028z"/>
	<path style="fill:#396799;" d="M41.8077393,31.5012894c-0.2196579-0.2780685-0.5740013-0.4494915-0.7043266-0.9298439
		c0.7301292,0.0506134,1.2106972,0.5995617,1.8406906,0.7160015C42.622879,31.6640377,42.1872902,31.433712,41.8077393,31.5012894z"
		/>
	<path style="fill:#27313B;" d="M25.2584267,34.8482094c-0.730505,0.2366409-1.4558182,0.4931679-2.2250519,0.5808029
		C23.6033802,34.577404,24.4423752,34.7567482,25.2584267,34.8482094z"/>
	<path style="fill:#27313B;" d="M12.8805418,36.9656296c-0.2469578-0.0258408-0.4939137-0.0516853-0.7408485-0.0775299
		c1.1188583-0.255455,2.2380009-0.250576,3.3573713-0.0039215C14.6248541,36.911335,13.7526979,36.9384804,12.8805418,36.9656296z"
		/>
	<path style="fill:#27313B;" d="M45.3911896,22.4952316c-0.133873,0.6387291-0.7288399,0.8911362-1.1087494,1.3236313
		C44.2249374,23.0199146,44.7297287,22.6919708,45.3911896,22.4952316z"/>
	<path style="fill:#396799;" d="M44.9267769,25.1395817c-0.107132,0.0553303-0.2142563,0.1106606-0.3212051,0.1657028
		c-0.212307-0.1558285-0.4488564-0.2398682-0.7135124-0.2403297c-0.2642899-0.2836647,0.2231026-0.4250584,0.1280632-0.6766453
		C44.4002991,24.5446548,44.6897659,24.810461,44.9267769,25.1395817z"/>
	<path style="fill:#024491;" d="M43.63591,27.7247047c0.040493,0.3943043,0.0844231,0.7911263-0.521492,0.7112408
		C43.0419693,28.0179386,43.3465538,27.8769073,43.63591,27.7247047z"/>
	<path style="fill:#024491;" d="M43.892067,25.0649548c0.2646484,0.0004616,0.5011978,0.0845013,0.7135048,0.2403297
		c-0.2122688,0.2357559-0.4886475,0.143919-0.7464409,0.1467304C43.8700867,25.322897,43.8810768,25.1939259,43.892067,25.0649548z"
		/>
	<path style="fill:#27313B;" d="M44.0951042,24.0084801c-0.0509224,0.100647-0.1018486,0.2012882-0.1529503,0.3015518
		c-0.060833-0.0935345-0.220623-0.1673164-0.1068993-0.2980766C43.8731346,23.9684067,44.0057793,24.0072842,44.0951042,24.0084801z
		"/>
	<path style="fill:#D3D4D5;" d="M27.1624889,34.2781067c-0.1314964,0.2417526-0.3718262,0.1650696-0.5751514,0.1965637
		C26.7416782,34.2997169,26.9528751,34.2912254,27.1624889,34.2781067z"/>
	<path style="fill:#27313B;" d="M22.8577404,35.4440384c-0.1124172,0.2385139-0.3301373,0.2127228-0.5366287,0.2136192
		C22.4080276,35.3542328,22.6484966,35.4383926,22.8577404,35.4440384z"/>
	<path style="fill:#27313B;" d="M44.2868118,23.8100414c-0.0671883,0.0670643-0.1343765,0.1341267-0.2014389,0.2013435
		C44.0976181,23.8894367,44.1650887,23.8226318,44.2868118,23.8100414z"/>
	<path style="fill:#D3D4D5;" d="M27.511652,34.1342049c-0.093338,0.0505142-0.1866779,0.1010284-0.2801208,0.1516685
		C27.3248367,34.235405,27.4182434,34.184803,27.511652,34.1342049z"/>
	<path style="fill:#D3D4D5;" d="M26.1355743,34.6127357c-0.0431633-0.0054626-0.0739708,0.0116234-0.0922375,0.0511475
		C26.0625954,34.6192665,26.0932789,34.602253,26.1355743,34.6127357z"/>
	<path style="fill:#D3D4D5;" d="M26.5858879,34.4752502c-0.0360889,0.0762062-0.0792465,0.1293335-0.1629715,0.0499115
		C26.4711437,34.4885674,26.5254612,34.4719315,26.5858879,34.4752502z"/>
	<path style="fill:#E3F1F4;" d="M6.8835936,35.2270279c0.5406713,0.3562965,0.9436436,0.9492378,1.6764078,0.9754448
		c-0.1944275,0.2683144-0.5482712,0.0457077-0.7381792,0.2154732c1.1715069,0.6407623,2.2215281,1.5802269,3.5954685,1.7896004
		c1.521842,0.2319183,3.0434856,0.6211548,4.6033583,0.2632179c0.1501942-0.0344658,0.311491-0.0614586,0.4625626-0.0451012
		c2.5472832,0.2758064,4.9863491-0.5122948,7.4724712-0.8078651c0.6781826-0.0806274,1.3520355-0.368412,2.0705166-0.3207016
		c-0.007515,0.3395119-0.2840538,0.3694534-0.516634,0.442585c-2.0469742,0.6436844-4.1091156,1.1833038-6.2768135,1.2598686
		c-1.049572,0.0370712-2.0928383,0.331604-3.1401043,0.3386154c-2.1891203,0.0146561-4.3904018-0.1917801-6.4262943-1.0021744
		c-1.1546621-0.4596176-2.4734292-0.8656464-3.0645132-2.255825C6.3856473,35.571701,6.5157084,35.4221382,6.8835936,35.2270279z"/>
	<path style="fill:#E3F1F4;" d="M30.7197361,36.5403748c0.3250656-0.9066467,1.2005215-0.733284,1.8702755-0.9153976
		c0.9508171-0.2585373,1.9491997-0.3530922,2.8863983-0.6477013c0.9552307-0.3002777,1.8516846-0.0151062,2.7488213,0.130024
		c0.4286842,0.069355,0.9472847-0.0540047,1.3184929,0.3124847c-0.0347595,0.3377533-0.2591095,0.4110031-0.5346756,0.3429909
		c-2.0119858-0.4965744-3.9528503-0.3605614-5.9282875,0.3334045
		C32.3664246,36.3471222,31.5241661,36.4786148,30.7197361,36.5403748z"/>
	<path style="fill:#E3F1F4;" d="M26.5900631,37.2945137c0.6465092-0.6986809,1.5724258-0.5298996,2.3721485-0.7310295
		c0.4314327-0.1085091,0.9182186-0.470417,1.3801727-0.0218773C29.1385307,37.0264854,27.912962,37.4030266,26.5900631,37.2945137z"
		/>
	<path style="fill:#E3F1F4;" d="M39.9178734,35.4210548c0.6266251-0.1255226,1.2532501-0.2510414,1.8798828-0.3765144
		C41.3764191,35.9576263,40.5955963,36.1139946,39.9178734,35.4210548z"/>
	<path style="fill:#B2B4B6;" d="M47.4298973,32.2785263c-0.0019302,0.0413628,0.0002136,0.0825119,0.0064735,0.1233597
		c0.0000534-0.0000877-0.0233765,0.0260658-0.0231934,0.0259132c-0.0567932,0.0465622-0.1137657,0.0932732-0.1707382,0.1399879
		c-0.0709877,0.0749435-0.1419792,0.1498909-0.212738,0.2246933c-0.1707878,0.0625458-0.3418045,0.1252403-0.5128136,0.1879349
		c-0.0323105-0.1122055-0.0293846-0.2722359-0.1039047-0.3271484c-0.1826286-0.1345673-0.6758728-0.0074234-0.4689865-0.446312
		c0.1489563-0.3159847,0.4954414-0.4464111,0.8367043-0.147728C46.9522018,32.2653542,47.2022247,32.2388802,47.4298973,32.2785263z
		"/>
	<path style="fill:#E2E3E5;" d="M46.51688,32.9804153c0.1710167-0.0626945,0.3420334-0.1253891,0.5128212-0.1879349
		c0.1072388,0.8601723-0.258728,1.2377434-1.1257401,1.1046104C45.8485489,33.41782,46.4411888,33.3719368,46.51688,32.9804153z"/>
	<path style="fill:#E3F1F4;" d="M41.800808,35.0438271c0.0162735-0.1116447,0.032547-0.2232857,0.0488548-0.3349495
		c0.2337494,0.0619812,0.4674644,0.1239777,0.7011795,0.1859741C42.4753685,35.8232765,42.0477638,34.9787827,41.800808,35.0438271z
		"/>
	<path style="fill:#E2E3E5;" d="M47.2424393,32.5677834c0.0569725-0.046711,0.113945-0.0934219,0.1707344-0.1399879
		C47.3561363,32.474556,47.2992859,32.5211716,47.2424393,32.5677834z"/>
	<path style="fill:#F1EB4F;" d="M47.4298973,32.2785263c-0.2276726-0.0396461-0.4776955-0.0131721-0.6491966-0.2192993
		c0.0924606-0.230011,0.2118111-0.4551239-0.0201111-0.6823101c-0.2422295-0.237278-0.3717194,0.0339184-0.5562744,0.0971069
		c-0.7403259,0.2534695-1.3247986,0.5677853-1.0239143,1.5414867c0.0632896,0.2048302-0.0289536,0.6318855-0.3399887,0.6707573
		c-0.3584557,0.0447998-0.5533867-0.2973061-0.5899086-0.6072617c-0.1941795-1.6479645,0.5270157-3.0079193,2.5172043-2.7294712
		c0.6972694,0.0975552,0.599556,0.7739639,0.8978119,1.1608009C47.5872917,31.7663708,47.5085907,32.0224457,47.4298973,32.2785263z
		"/>
	<path style="fill:#286BC6;" d="M26.0483074,28.7626343c-1.5458546,0.5933609-3.0816956,1.2149029-4.6897812,1.6300049
		c-0.9292564,0.239872-1.8560104,0.4894276-2.7838554,0.7345066c-0.266573-0.0160351-0.5331841-0.03195-0.7999191-0.0476875
		c-0.0069733-0.0931797,0.0177574-0.2060108-0.0258389-0.2767048c-0.2695675-0.437109,0.0523872-0.7139244,0.2945805-0.9622402
		c0.3221607-0.3303051,0.3401508,0.2033615,0.5520573,0.2501068c0.6074028,0.1339664,1.250721,0.2027416,1.5872364-0.4102993
		c0.3281898-0.5978756,1.199995-0.2963848,1.4199753-0.984211c0.0095272-0.0297832,0.244257-0.0250511,0.3507614,0.0194359
		c1.1965675,0.4997921,2.2233315,0.3531761,3.0524254-0.7254162c0.222187-0.2890491,0.4893436-0.5689201,0.9491234-0.3312435
		c0.338686,0.1750736,0.574007-0.073967,0.806282-0.2989197c0.7240562-0.7012253,0.952076-1.7033901,1.5322609-2.4958305
		c0.3192482-0.4360466-0.1404362-0.7823009-0.3842812-1.006897c-0.3655033-0.3366566-0.0914421,0.5210018-0.521759,0.3382626
		c-0.0694351-0.7313251-0.2000504-1.2419682-0.9665794-0.3475971c-0.2198811,0.2565517-0.7757988,0.2651443-1.1502972-0.1508999
		c-0.385807-0.4286079-0.8033962-0.8041344-1.4843712-0.3580627c-0.3921642,0.2568874-1.0402584-0.1317387-0.9668789-0.4003181
		c0.2747555-1.0056248-0.6261482-0.7817554-0.8688278-0.7493725c-0.7151432,0.0954304-1.4339752,0.0073967-2.138834,0.1234093
		c-0.7755299,0.1276512-1.4597645-0.5688667-1.2645664-1.3137054c0.057436-0.2191734,0.4950047-0.4053097,0.0275459-0.6632214
		c-0.3424072-0.1889191-0.5576363-0.0287075-0.836813,0.1577911c-0.4922695,0.328846-1.0350056,0.6283779-1.4759064-0.1032448
		c0.0183754-0.3775597,0.2902699-0.3732166,0.5601788-0.3718643c0.0269222,0.1398792,0.0531101,0.367075,0.2307339,0.2740231
		c0.2243023-0.1175041-0.0131512-0.3045483-0.041275-0.4626408c0.0263042-0.3410358,0.2864075-0.3139343,0.530817-0.3880005
		c0.7716885-0.2338562,1.6909428-0.3359032,2.2485371-0.8315678c0.7032452-0.6251392,1.2899437-0.5277119,1.9972782-0.2811794
		c0.1411896,0.0492096,0.2889938,0.2083492,0.4005413,0.0318451c0.1307526-0.2068996-0.0120068-0.3315353-0.2159939-0.4089031
		c-0.2314014-0.0877666-0.5837135-0.3209496-0.2768536-0.4832726c0.5607967-0.2966499,0.9017487-0.9390106,1.5935707-0.9981709
		c0.2105446-0.0180054,0.4629917-0.087986,0.5935268,0.143877c0.1355877,0.2408295-0.0367374,0.4001026-0.2171631,0.5451736
		c-0.585968,0.4711418-0.7877197,1.2106495-1.2197151,1.7940807c-0.2198925,0.2969723-0.4597664,0.8149967,0.1828995,1.0676937
		c0.0085831,0.1862259,0.017168,0.3724518,0.0257473,0.5586758c-0.2937756,0.2908401-0.0709991,0.3400383,0.1766415,0.3776093
		c0.0632801,0.1236401,0.126564,0.2472763,0.1898441,0.3709164c0.0758381,0.152462,0.2126617,0.189394,0.3667583,0.1935997
		c0.0074139,0.059618,0.0123501,0.1194363,0.0147572,0.1795464c-0.0147877,0.0273972-0.0295334,0.0547123-0.044281,0.0820236
		c0.0154972-0.0266495,0.0309963-0.0533028,0.0464954-0.0799522c0.0606575-0.0009403,0.1211567,0.001688,0.1815033,0.0078812
		c0.0964298,0.1212215,0.1128407,0.4142151,0.3769112,0.1755886c0.3754063,0.0675354,0.7508144,0.1350708,1.1262207,0.2026062
		c0.1194172,0.1846714,0.2423725,0.1885471,0.3689499,0.0072193c0.1547108-0.0014458,0.2966785,0.0252953,0.3837852,0.1734409
		c0.1797428,0.4775562,0.3274097,0.7023201,1.0297527,0.6969852c0.9209061-0.0069942,1.6284065-0.7439022,2.5403137-0.511507
		c0.0602741-0.0006351,0.1204777,0.0011158,0.1806164,0.0052586c0.0577335,0.4525414,0.4409389,0.4527893,0.757761,0.5452862
		c0.1227283,0.0668678,0.2454567,0.1337357,0.368185,0.2006035c0.0634422,0.064249,0.1268826,0.1284981,0.1903267,0.1927471
		c0.4812832,0.742691-0.074852,1.4092197-0.1549587,2.1106968c0,0,0.015152-0.0112247,0.0148811-0.0113182
		c-0.6304455,0.3362255-1.0950851,0.8773727-1.6400852,1.3191376c-0.3293362,0.2669525-0.9465256,0.2630672-0.8358383,0.9253635
		l0.0075932-0.01087c-0.1727943-0.01408-0.3296585,0.002243-0.3902626,0.2032928l0.0145054-0.0128021
		c-0.1755733-0.0182266-0.3305111,0.0017929-0.3857307,0.2072945l0.014967-0.0149727
		c-0.3774776-0.014143-0.7918339-0.1166229-0.9483089,0.3968754l0.0127544-0.0156994
		C26.3740997,28.4684391,26.1247158,28.4299755,26.0483074,28.7626343z M21.0485001,19.9894352
		c0.2448006-0.0231934,0.4088135-0.1422844,0.4316807-0.3989983c0.0169525-0.1902542-0.1054878-0.2848873-0.277441-0.299839
		c-0.202795-0.0176334-0.3774033,0.0434799-0.4094429,0.2769527C20.7659264,19.7669964,20.8055973,19.9427814,21.0485001,19.9894352
		z"/>
	<path style="fill:#F8F8F8;" d="M33.9071541,19.6331387c-0.0323334,0.304781-0.1150017,0.6141033-0.0879707,0.9135246
		c0.0977516,1.0826321,0.5722275,1.4627151,1.9009743,1.7331429c0.8152046,0.1659145,1.5871468,0.1845951,2.3610802-0.1615753
		c0.1795998-0.0803318,0.4663353-0.1195412,0.5948639,0.101244c0.1230278,0.211338-0.0867386,0.3304138-0.2497215,0.4206276
		c-1.7107887,0.9469662-3.1831131,2.2659359-4.9292908,3.1575603c-0.8737602,0.4461575-1.7406292,0.9063835-2.6231136,1.3344784
		c-0.1863518,0.0903931-0.3180599,0.1767521-0.3618793,0.3772221c-0.3830299,0.0234623-0.6673183-0.0336399-0.2932777-0.4658585
		c0.5557995-0.6422539,1.1913586-1.2411232,1.4677753-2.0608025c0.1753674-0.5200424,0.5181255-1.1478539-0.2503796-1.5498447
		l0.0056324-0.0053806c0.2786694-0.6637058,0.0175133-1.0181561-0.5655441-1.4186306
		c-0.4918327-0.3378201-1.1314869-0.075552-1.5190105-0.553627c1.0945606-0.4436512,2.2077007-0.8459072,3.2303085-1.449873
		C33.1071892,20.1639729,33.4876328,19.8292904,33.9071541,19.6331387z"/>
	<path style="fill:#024491;" d="M20.7624111,31.4490681c-0.0023193,0.1243782-0.0046368,0.2487526-0.0068417,0.3734188
		c-0.670496,0.0509129-1.3224335,0.1615524-1.8772163,0.5844193c-0.1283493,0.009552-0.2566986,0.019104-0.3847961,0.0284042
		c-1.6809673,0.2446518-3.3621864,0.4895515-5.0434055,0.7344437c-0.8919353-0.0022354-1.7839413,0.0015297-2.6757851-0.0087357
		c-0.6348314-0.0073051-1.2969732,0.095726-1.8323669-0.3882866C12.9929733,33.3212929,16.8776283,32.3846054,20.7624111,31.4490681
		z"/>
	<path style="fill:#396799;" d="M25.0897274,22.0898724c-0.3754063-0.0675392-0.7508144-0.1350746-1.1262608-0.2025013
		c-0.0852356-0.1451206-0.2246151-0.1742096-0.3768711-0.1756973c-0.0603466-0.0061932-0.1208458-0.0088215-0.1815033-0.0078812
		l-0.0021687-0.0021553c-0.0024529-0.0600262-0.0073891-0.1198444-0.0147057-0.1794586
		c0.0036335-0.0611992,0.0051289-0.1224537,0.0045815-0.1837578c0.0314407-0.0315399,0.0617485-0.0641289,0.0909271-0.097765
		c0.2753201,0.1237679,0.5190868,0.3348885,0.8492546,0.3067532c1.0235271,0.4994316,2.1049652,0.4472351,3.1926975,0.3350258
		c0.3435497,0.0059395,0.6874886,0.0253735,1.0305729,0.0153999c1.2539902-0.0364532,2.2408962,0.4213314,2.8854637,1.5297432
		l-0.0055008,0.0052795c0.0304661,0.7770805,0.0782795,1.5598221-0.6818542,2.0775185
		c0.0802059-0.7012539,0.6363411-1.3677826,0.1550388-2.1104832c-0.0634499-0.0642548-0.1268768-0.1284943-0.1903076-0.1927376
		c-0.1227283-0.0668678-0.2454567-0.1337357-0.3682652-0.2003937c-0.0699463-0.4352913-0.4182777-0.4841957-0.7576809-0.545496
		c-0.0601387-0.0041428-0.1203423-0.0058937-0.1806946-0.0052071c-0.4341354-0.4894218-1.0320511-0.4428921-1.5523701-0.3340759
		c-0.6755085,0.1412659-1.3426094,0.1391754-2.0176182,0.1485462c-0.0871067-0.1481457-0.2290745-0.1748867-0.3837185-0.1735516
		C25.335783,22.0945301,25.2127552,22.0922012,25.0897274,22.0898724z"/>
	<path style="fill:#396799;" d="M13.2556372,32.0617714c-2.0899572,0.2007675-4.2315836,0.70961-5.9902878-1.0317192
		c-0.1420636-0.1406593-0.2445335-0.2737808-0.2292032-0.4774303c0.0719786-0.00037,0.1440029-0.0006905,0.2159719-0.0012112
		c0.927001,0.4595928,1.6409388,1.3872089,2.8235226,1.286087c0.3078489,0.002594,0.6156988,0.0051842,0.9235477,0.0077705
		c0.2544813,0.0002975,0.5089607,0.0005951,0.7634411,0.0008945c0.2460747,0.0008812,0.4921484,0.0017643,0.7382221,0.0026493
		c0.2521601,0.0034885,0.5043192,0.0069752,0.7564802,0.0104656C13.2567673,31.926775,13.2562008,31.9942741,13.2556372,32.0617714z
		"/>
	<path style="fill:#0355A4;" d="M8.9419994,32.7727318c0.5353937,0.4840126,1.1975355,0.3809814,1.8323669,0.3882866
		c0.8918438,0.0102654,1.7838497,0.0065002,2.6757441,0.0086632c0.0008316,0.1210289,0.0017071,0.2421303,0.0025816,0.3632355
		c-1.4830456,0.1196213-2.9533968-0.0918579-4.4252911-0.2011795c-0.5429745-0.040329-1.0855031-0.2578392-1.2095466-0.9291344
		C8.2256756,32.425457,8.6038818,32.5382118,8.9419994,32.7727318z"/>
	<path style="fill:#286BC6;" d="M13.2556372,32.0617714c0.0005636-0.0674973,0.0011301-0.1349964,0.0017004-0.2026138
		c0.5248318-0.6061668,3.0034561-1.0798492,3.9463825-0.7543068c-0.4284439,0.2436428-0.9401188,0.2360821-1.3702593,0.4107552
		c-0.4766636,0.1935577-1.1419029-0.1603889-1.4471703,0.4914513
		C14.0094061,32.0252953,13.6325207,32.0435333,13.2556372,32.0617714z"/>
	<path style="fill:#033B78;" d="M6.1222544,32.039711c-0.7002873-1.0628681-0.7926855-2.3636589-0.2138572-3.0107212
		c-0.0760403,1.1304417,0.336576,2.0577602,1.1685467,2.8107376c-0.1699138-0.0326595-0.3809047-0.0125084-0.5026088-0.1071625
		C6.0604639,31.3328934,6.156743,31.770422,6.1222544,32.039711z"/>
	<path style="fill:#0355A4;" d="M7.2521739,30.5516109c-0.0720248,0.0003204-0.1440492,0.0006409-0.2160277,0.0010109
		c-0.4394302-0.5543747-0.8916116-1.1040554-0.7066388-1.8917446c0.1166663-0.0122986,0.2333336-0.0245972,0.3500829-0.036499
		c0.0300775,0.1549931,0.0593686,0.3549118,0.234478,0.3661766c0.8389225,0.0539532,0.8673244,0.4158764,0.4421887,1.0213699
		C7.2601972,30.1487312,7.2837052,30.3694954,7.2521739,30.5516109z"/>
	<path style="fill:#396799;" d="M28.293417,27.743782c-0.1106873-0.6622963,0.5065022-0.658411,0.8358383-0.9253635
		c0.5450001-0.4417648,1.0096397-0.9829121,1.6400852-1.3191376C30.3859921,26.734911,29.2992744,27.1947403,28.293417,27.743782z"
		/>
	<path style="fill:#396799;" d="M14.3862906,32.0070572c0.3052673-0.6518402,0.9705067-0.2978935,1.4471703-0.4914513
		c0.4301405-0.1746731,0.9418154-0.1671124,1.3702211-0.4108334c0.1903706-0.0085487,0.3807831-0.0170193,0.5711937-0.0254917
		c0.2666111,0.0159149,0.5332222,0.0318298,0.7997952,0.0478649C17.2242012,31.6379986,15.7980976,31.7885017,14.3862906,32.0070572
		z"/>
	<path style="fill:#024491;" d="M29.5972195,28.2977428c-0.77565,0.8523369-1.7845955,1.0899868-2.8823128,1.0939236
		c0.8462524-0.4712734,1.7530403-0.7987404,2.6626568-1.119463C29.4507828,28.280714,29.5240021,28.2892284,29.5972195,28.2977428z"
		/>
	<path style="fill:#024491;" d="M25.3909588,29.8837757c-0.3874016,0.6406212-1.0187054,0.6330433-1.6516914,0.6213036
		C24.2897263,30.2978897,24.8403416,30.0908318,25.3909588,29.8837757z"/>
	<path style="fill:#033B78;" d="M31.0845642,27.496706c-0.2352581,0.5018787-0.6435699,0.6328945-1.1566677,0.5392246
		c0.2169094-0.1500969,0.4339695-0.2997551,0.6510258-0.4494171C30.7474689,27.5565777,30.9160156,27.5266418,31.0845642,27.496706z
		"/>
	<path style="fill:#024491;" d="M23.7558765,30.4845734c-0.3467922,0.4019852-0.7467842,0.6455956-1.2989502,0.436306
		C22.8601933,30.6870747,23.279108,30.4997044,23.7558765,30.4845734z"/>
	<path style="fill:#396799;" d="M26.6061802,28.5125999c0.1564751-0.5134983,0.5708313-0.4110184,0.9483089-0.3968754
		C27.2727394,28.3299637,26.9545708,28.4574013,26.6061802,28.5125999z"/>
	<path style="fill:#033B78;" d="M29.5972195,28.2977428c-0.0732174-0.0085144-0.1464367-0.0170288-0.219656-0.0255394
		c0.1218643-0.1990852,0.3314476-0.221159,0.5307426-0.2637577C29.9334087,28.2428627,29.7633877,28.26824,29.5972195,28.2977428z"
		/>
	<path style="fill:#396799;" d="M26.0483074,28.7626343c0.0764084-0.3326588,0.3257923-0.2941952,0.5706272-0.2657337
		C26.4898815,28.7167492,26.2312603,28.6583767,26.0483074,28.7626343z"/>
	<path style="fill:#024491;" d="M26.393055,29.5606403c-0.1239834,0.2723026-0.3586311,0.2172432-0.5817375,0.1965237
		C25.9487953,29.5246315,26.192564,29.6067333,26.393055,29.5606403z"/>
	<path style="fill:#396799;" d="M27.9107475,27.9362049c0.0606041-0.2010498,0.2174683-0.2173729,0.3902626-0.2032928
		C28.2180576,27.8910942,28.0736046,27.931324,27.9107475,27.9362049z"/>
	<path style="fill:#024491;" d="M25.8209953,29.7381058c-0.0687923,0.2107201-0.2069168,0.2436256-0.3930836,0.1526947
		C25.5207844,29.7408943,25.6749516,29.7499981,25.8209953,29.7381058z"/>
	<path style="fill:#396799;" d="M27.5395222,28.1306973c0.0552197-0.2055016,0.2101574-0.2255211,0.3857307-0.2072945
		C27.7967339,27.9925194,27.6681271,28.0616074,27.5395222,28.1306973z"/>
	<path style="fill:#033B78;" d="M7.2579179,32.0299835c-0.0636559-0.0658569-0.127315-0.1317139-0.1910367-0.1975842
		C7.1305199,31.8982468,7.1942191,31.9641151,7.2579179,32.0299835z"/>
	<path style="fill:#286BC6;" d="M29.7105885,12.4753056c0.6881084,0.2137814,1.1350269-0.3567944,1.7066555-0.5201454
		c0.3213787-0.0918388,0.6567039-0.1348906,0.9858093-0.1998844c0.2760735,0.0071974,0.5506248,0.0121393,0.5691452-0.3732471
		c0.1858406-0.0638008,0.3716888-0.1276026,0.5575905-0.1913462c0.6981087,0.3381748,1.1346054-0.023777,1.5051537-0.5622511
		l-0.000782,0.0009069c0.3463211-0.0589294,0.6955223-0.1139507,0.75457-0.5599384l0.0004959-0.0005646
		c0.0620308-0.0593939,0.1240616-0.1187916,0.1860924-0.1781902c0.1861267-0.004323,0.3722496-0.0086479,0.558445-0.0129318
		c0.9472733,0.050272,1.7175751-0.4673777,2.5474663-0.7936583c0.2255402-0.0886745,0.489193-0.2737951,0.6076965,0.104454
		c0.1185226,0.378293-0.7925644,0.4493799-0.3477402,0.8787193c0.3229332,0.3116894,0.5672684-0.593936,0.9357529-0.2628279
		c0.6637115,0.5963831,1.7085991,0.7064333,2.1870461,1.789052c-0.1716881-0.9577427,0.4782791-0.9764166,0.9980812-1.1080246
		c0.7636032-0.1933365,1.4497833,0.1826982,2.110611,0.44065c0.325016,0.1268682,0.4267159,0.6853971,0.3247337,1.0957394
		c-0.1185951,0.47715-0.491497,0.1627932-0.6830177,0.0980377c-0.7518234-0.2541971-0.8701935,0.1026154-0.7846413,0.7187347
		c0.0338211,0.2436285,0.1152496,0.489687,0.0994911,0.7296829c-0.0973778,1.4829178-0.1045303,1.4824476,1.2171478,1.5715628
		c-0.0918236,0.2734318-0.4857864,0.4388714-0.2911758,0.8146753c0,0-0.0223579,0.0236874-0.0227318,0.022768
		c-0.7598076,0.0958414-2.2223358,1.5336943-2.4524422,2.4097719c0,0-0.0029297-0.0039749-0.003273-0.0042572
		c-0.3038788-0.0635815-0.4280319,0.0668354-0.3959236,0.3660145l0.0048523-0.0107517
		c-0.8093643-0.1749268-0.9635963,0.3990231-1.1156425,0.9754772c0,0,0.0183449-0.0220394,0.0178528-0.0222778
		c-0.2043304-0.000864-0.2407951,0.1382446-0.2507324,0.2994995c-0.0237885,0.0465832-0.0617447,0.0676308-0.1138878,0.0630341
		c-0.2553062-0.0348034-0.4273224,0.0424156-0.443161,0.3295593c-0.2641754,0.1039753-0.4171677,0.4215603-0.7513313,0.3910637
		c-0.8526268,0.2347393-1.5892601-0.2068291-2.5716667-0.3596096c0.7745323-0.4915562,0.9635353-1.0953751,0.9543991-1.8952751
		c-0.1925926,0.1579494-0.3247375,0.2663212-0.4568787,0.374691l-0.0012093-0.001194
		c-0.022274-0.3568802,0.1351204-0.8423748-0.2826653-0.9955215c-0.91082-0.3338757-1.4980545-1.3539715-2.6174088-1.2208176
		c-0.9286041-1.0665503-2.1331406-1.3105593-3.4688759-1.1633215c-0.303318-0.3176222-0.7174091-0.2426109-1.0394802-0.1629038
		c-0.9986057,0.2471371-1.9893188,0.1513977-2.986639,0.0709705c0,0-0.0331783-0.0192413-0.0322762-0.0197268
		c0.024868-0.6021929,0.0488338-1.2038984,0.0727978-1.8056049c0,0-0.0015774,0.0145903-0.0014038,0.0147123
		c0.90802,0.0496407,1.5495548-0.4124165,2.0821667-1.0837069C29.6132793,12.4845114,29.6569252,12.4672451,29.7105885,12.4753056z
		 M44.2211723,14.9910955c-0.1242828,0.075551-0.252636,0.1452303-0.3718681,0.2280531
		c-0.1728096,0.1200409-0.3781776,0.0175476-0.5370102,0.0686178c-0.38554,0.1239653-0.2427979,0.9259901,0.1758652,0.9590006
		C44.3525047,16.3149223,43.9281578,15.4207888,44.2211723,14.9910955z M42.9162827,14.5381927
		c-0.0335312-0.0795965-0.0461769-0.1871719-0.1060524-0.2328978c-0.082016-0.0626316-0.1889763-0.0089931-0.1857452,0.0957546
		c0.0022736,0.0740013,0.0766029,0.1504183,0.1325493,0.2135372C42.7662811,14.6250267,42.8464241,14.5726318,42.9162827,14.5381927
		z"/>
	<path style="fill:#2D6DC0;" d="M45.7463913,15.1398373c-1.3216782-0.0891171-1.3145256-0.0886469-1.2171478-1.5715647
		c0.0157585-0.239996-0.06567-0.4860544-0.0994911-0.7296829c-0.0855522-0.6161194,0.0328178-0.9729319,0.7846413-0.7187347
		c0.1915207,0.0647554,0.5644226,0.3791122,0.6830177-0.0980377c0.1019821-0.4103422,0.0002823-0.9688711-0.3247337-1.0957394
		c-0.6608276-0.2579517-1.3470078-0.6339865-2.110611-0.44065c-0.5198021,0.131608-1.1697693,0.1502819-0.9980812,1.1080246
		c-0.478447-1.0826187-1.5233345-1.1926689-2.1870461-1.789052c-0.3684845-0.3311081-0.6128197,0.5745173-0.9357529,0.2628279
		c-0.4448242-0.4293394,0.4662628-0.5004263,0.3477402-0.8787193c-0.1185036-0.3782492-0.3821564-0.1931286-0.6076965-0.104454
		c-0.8298912,0.3262806-1.600193,0.8439302-2.5474663,0.7936583c0.1326294-0.3025799,0.4034615-0.337039,0.6879807-0.3980808
		c0.2930107-0.0628624,0.6409912-0.1338186,0.5889397-0.577179l0.0080452,0.0187855
		c0.0732536-0.042963,0.1462975-0.085968,0.2193413-0.128974c0.8673477-0.3068733,1.7101364-0.6963015,2.6420937-0.786108
		c0.3357162,0.2590046,0.6516533,0.0293922,0.9747086-0.038465c1.8857269-0.3960962,3.7675514-0.7417564,5.7097397-0.3499198
		c1.5837593,0.3195219,2.0511818,0.9978409,1.6337433,2.5177841c-0.0796776,0.2900972-0.2633247,0.581152-0.0548096,0.8919048
		c-0.5790596,1.4019318-1.4842033,2.59023-2.4500809,3.7386875C46.2444305,14.8906832,45.9954109,15.0152607,45.7463913,15.1398373z
		"/>
	<path style="fill:#2063BE;" d="M34.9532318,16.6767445c1.1194878-0.133213,1.7067223,0.8868828,2.6175423,1.2207584
		c0.4177856,0.1531467,0.2603912,0.6386414,0.2826729,0.9955273c-0.0141907,0.0264893-0.0283928,0.0529728-0.0425949,0.0794582
		c0.0145988-0.0260887,0.0291977-0.0521793,0.0437965-0.07827c0.1321411-0.1083698,0.264286-0.2167416,0.4568787-0.374691
		c0.0091362,0.7999001-0.1798668,1.4037189-0.9543991,1.8952751c0.9824066,0.1527805,1.7190399,0.5943489,2.5716667,0.3596096
		c-1.0946465,1.129324-2.4716682,1.2322388-3.9081001,1.0275764c-0.1951981-0.027813-0.4114838-0.0755997-0.6158562-0.1228237
		c0.0202026-0.2581654-0.2133102-0.3593826-0.336998-0.5225506c-0.8952904-1.1810665-0.8247414-1.8097954,0.3361092-2.8197155
		c0.4667549-0.0847988,0.5467453-0.4354343,0.5540199-0.8244305c0.0024948-0.1331711-0.090004-0.2624054-0.2242012-0.2256012
		c-0.3497581,0.095932-0.3048706,0.4124165-0.331749,0.6819c-0.1269798-0.0096912-0.2539597-0.0193806-0.3810272-0.0289707
		C34.9983482,17.5188446,34.9757881,17.0977955,34.9532318,16.6767445z M38.0642204,21.3803101
		c-0.254261-0.2458706-0.4080772-0.4412022-0.7256584-0.2634525C37.507061,21.3745022,37.6710815,21.5054359,38.0642204,21.3803101z
		"/>
	<path style="fill:#033B78;" d="M37.8568878,24.5295124c-0.1236572,0.0649967-0.2473106,0.1299915-0.3710442,0.1948643
		c-1.2766533,0.1600418-2.2772903,0.8450851-3.1984291,1.681345c-0.7114563,0.2944126-1.4289284,0.5753326-2.131813,0.8889503
		c-0.3493023,0.1558495-0.6879959,0.2952976-1.0781078,0.2217197c1.4322224-0.8487988,2.9417171-1.5538902,4.3712978-2.4146214
		c1.1973839-0.7209282,2.3241348-1.5330772,3.4753494-2.3152027c0.1785164,0.3491669,0.142231,0.6293697-0.241333,0.8185959
		C38.2859116,23.8009701,37.9957314,24.0994949,37.8568878,24.5295124z"/>
	<path style="fill:#024491;" d="M37.8568878,24.5295162c0.1388435-0.4300213,0.4290237-0.7285461,0.8259201-0.9243526
		c0.383564-0.1892262,0.4198494-0.469429,0.241333-0.8185959c0,0,0.0090218,0.0042877,0.0091972,0.0044231
		c0.8881912-0.0057182,1.5126228-0.3706455,1.7397766-1.2768021c0.1182098-0.0816021,0.2364159-0.1632042,0.3546944-0.2449017
		c0.333622,0.3923683,0.056076,0.9611988-0.0920563,1.0814056c-0.9144783,0.7421055-1.4541016,1.9905529-2.7990761,2.1654701
		C38.0443954,24.5281639,37.9501953,24.5254078,37.8568878,24.5295162z"/>
	<path style="fill:#396799;" d="M35.02108,17.9396973c0.1269798,0.0096893,0.2539597,0.0193787,0.3810768,0.0289135
		c0.0006905,0.1226597,0.0012436,0.2454739,0.0017929,0.368288c-1.1608505,1.0099201-1.2313995,1.638649-0.3361092,2.8197155
		c0.1236877,0.163168,0.3572006,0.2643852,0.336998,0.5225506c-1.1342239-0.2110271-1.4017296-0.7189903-1.2597351-2.3917274
		c0.0542183-0.1297188,0.1085129-0.2594223,0.1628151-0.3891354C34.5456467,18.5787621,34.7833633,18.2592297,35.02108,17.9396973z"
		/>
	<path style="fill:#396799;" d="M42.9800415,18.3870506c0.2301064-0.8760777,1.6926346-2.3139305,2.4524422-2.4097719
		C44.7093964,16.8770123,43.8920555,17.6802311,42.9800415,18.3870506z"/>
	<path style="fill:#024491;" d="M47.3928986,15.0965452c-0.0821495,0.7926025-1.2267189,2.0208063-2.121212,2.2761183
		C45.9786644,16.614006,46.6857796,15.8552752,47.3928986,15.0965452z"/>
	<path style="fill:#033B78;" d="M40.6731148,21.5141888c-0.2271538,0.9061565-0.8515854,1.2710838-1.7397766,1.2768021
		C39.5101204,22.3611774,39.9431152,21.7352924,40.6731148,21.5141888z"/>
	<path style="fill:#024491;" d="M48.7180939,13.2257347c-0.0431633,0.9110041-0.4571571,1.5586634-1.3337135,1.8778467
		C47.8288689,14.477581,48.2734833,13.8516588,48.7180939,13.2257347z"/>
	<path style="fill:#E2E3E5;" d="M33.9071541,19.6331387c-0.4195213,0.1961517-0.7999649,0.5308342-1.319561,0.3723202
		c0.4183197-0.3236141,0.836647-0.6473427,1.2549706-0.9710693c0.0233383,0.0805874,0.0466766,0.1611748,0.070015,0.2417622
		C33.9107742,19.3951473,33.9089622,19.5141449,33.9071541,19.6331387z"/>
	<path style="fill:#396799;" d="M45.7463913,15.1398373c0.2490196-0.1245766,0.4980392-0.2491541,0.7470741-0.3736887
		c-0.1752167,0.5461292-0.5691605,0.9006567-1.039196,1.1880388C45.2606049,15.5787067,45.6545677,15.4132671,45.7463913,15.1398373
		z"/>
	<path style="fill:#396799;" d="M41.4700546,19.7135334c0.1520462-0.5764542,0.3062782-1.150404,1.1156425-0.9754772
		C42.2740517,19.132061,41.94841,19.5101604,41.4700546,19.7135334z"/>
	<path style="fill:#033B78;" d="M49.6756668,11.5559635c0.018364,0.3814468,0.0542107,0.7699442-0.3892555,0.9651451
		C49.2243919,12.1220732,49.4926872,11.8562241,49.6756668,11.5559635z"/>
	<path style="fill:#396799;" d="M40.6801262,20.3833485c0.0158386-0.2871437,0.1878548-0.3643627,0.443161-0.3295593
		C41.0261536,20.2317448,40.9226112,20.401001,40.6801262,20.3833485z"/>
	<path style="fill:#396799;" d="M42.5808449,18.7488079c-0.0321083-0.2991791,0.0920448-0.4295959,0.3959236-0.3660145
		C42.9206886,18.5869732,42.7807274,18.7003479,42.5808449,18.7488079z"/>
	<path style="fill:#F8F8F8;" d="M33.9125786,19.2761517c-0.0233383-0.0805874-0.0466766-0.1611748-0.070015-0.2417641
		l0.0404778,0.0107632c0.0631104-0.0596905,0.1262245-0.119381,0.1893349-0.1790733l-0.0071983-0.0121593
		c0.0809097,0.0147972,0.1618233,0.0295944,0.242733,0.0443916c-0.0542946,0.1297054-0.1085892,0.259409-0.1628075,0.3891277
		C34.067646,19.2836857,33.9901161,19.2799206,33.9125786,19.2761517z"/>
	<path style="fill:#396799;" d="M41.237175,19.9907551c0.0099373-0.1612549,0.046402-0.3003635,0.2507324-0.2994995
		C41.4628677,19.8401146,41.3950958,19.9532757,41.237175,19.9907551z"/>
	<path style="fill:#024491;" d="M48.963131,13.0237675c-0.085453,0.0741234-0.1709099,0.1482468-0.2565155,0.2224598
		C48.7920265,13.1721325,48.8775787,13.09795,48.963131,13.0237675z"/>
	<path style="fill:#E2E3E5;" d="M47.0352859,25.6644669c-0.7518349-0.0268497-1.2720337-0.2361336-0.958374-1.1564217
		c0.2553062-0.7490749-0.3174744-1.782341,0.7730179-2.2447453C47.0065727,23.3917675,47.1308441,24.5221214,47.0352859,25.6644669z
		"/>
	<path style="fill:#F1EB4F;" d="M33.8425636,19.0343895c-0.4183235,0.3237267-0.8366508,0.6474552-1.2549706,0.9710693
		c-1.0226002,0.6038532-2.1357403,1.0061092-3.2299347,1.4501266c-0.1701679,0.023098-0.3407097,0.0458298-0.5112476,0.0685616
		c-0.2972412-0.0161495-0.5979824-0.049963-0.8487148,0.1683483c-0.1531143-0.0110073-0.3062305-0.0220165-0.4593449-0.0330257
		c-1.0767651-0.0182838-2.1521072-0.0471611-3.1804028-0.4267139c-1.2970657-1.1704693-1.2347565-1.7472801,0.3573246-3.3082733
		c0.171833-0.0469284,0.1491394-0.1345348,0.0494118-0.2381325c0.1104088-0.0796089,0.2208176-0.1592159,0.3311253-0.2392883
		c0.4938755-0.0764599,1.0735931,0.0420189,1.3248138-0.5845909c0,0,0.0138988-0.0094624,0.013588-0.0096931
		c0.4341354-0.0846577,0.9296818-0.0360508,1.1720238-0.5387058c0.355175-0.0339451,0.71035-0.0678921,1.0652828-0.1015739
		c1.1078358-0.0287437,2.1732101-0.3772945,3.3021336-0.3379726c2.3512383,0.0818911,2.9258461,0.8499851,2.091526,2.9793949
		l0.0073624,0.0123692c-0.0630569,0.059761-0.1262779,0.1193104-0.1894989,0.1788635L33.8425636,19.0343895z M26.7618694,19.8081264
		c0.6721439,0.3075924,1.074398,0.0848236,1.1302929-0.6401691c0.0273972-0.3554134,0.2026176-0.7249069,0.4438629-0.7434502
		c0.8430939-0.0648079,1.0696182-1.098547,1.9470997-1.0619469c-0.880722-0.6241837-1.631464-0.0463047-2.2929478,0.2540836
		c-0.8453884,0.3839035-0.9356251,1.4005299-1.2376099,2.2051373l-0.0014038,0.0282822L26.7618694,19.8081264z
		 M31.2820759,18.7038002c-1.1248932-0.222517-0.1841106-0.6622124-0.0625534-0.9445057
		c-0.4996548-0.4336433-0.6516247,0.209259-0.9910202,0.2182865c-0.3586693,0.0095387-0.5552197,0.4773865-0.9624672,0.2463818
		c0.0666332,0.5442238,0.6459923,0.3894558,0.8590088,0.860651c-0.3637962-0.1083336-0.3996105,0.5490093-0.8677387,0.2037029
		c-0.0718918-0.05303-0.4017181,0.0872383-0.4638042,0.2119884c-0.1075592,0.2161198,0.2338562,0.1496429,0.3060093,0.3201637
		c0.2748852,0.6496239,0.6656837,0.3190498,1.1482792,0.2125683c0.9335232-0.2059708,1.843729-0.3773727,2.4842815-1.1534767
		c0.256134-0.3103352,0.4957314-0.6272793,0.9556885-0.8580704c-0.5324631-0.0083275-0.7800407-0.3176441-1.0852852-0.5212269
		c-0.621273-0.4143639-0.0399399,0.7301674-0.6642113,0.5019073c-0.2787952-0.1019421-0.6222553,0.3037949-0.6675758,0.7204037
		L31.2820759,18.7038002z"/>
	<path style="fill:#2D6DC0;" d="M22.6291294,20.0213737c-0.6426659-0.252697-0.402792-0.7707214-0.1828995-1.0676937
		c0.4319954-0.5834312,0.6337471-1.3229389,1.2197151-1.7940807c0.1804256-0.145071,0.3527508-0.3043442,0.2171631-0.5451736
		c-0.1305351-0.231863-0.3829823-0.1618824-0.5935268-0.143877c-0.6918221,0.0591602-1.032774,0.7015209-1.5935707,0.9981709
		c-0.30686,0.162323,0.0454521,0.3955059,0.2768536,0.4832726c0.2039871,0.0773678,0.3467464,0.2020035,0.2159939,0.4089031
		c-0.1115475,0.1765041-0.2593517,0.0173645-0.4005413-0.0318451c-0.7073345-0.2465324-1.2940331-0.3439598-1.9972782,0.2811794
		c-0.5575943,0.4956646-1.4768486,0.5977116-2.2485371,0.8315678c-0.2444096,0.0740662-0.5045128,0.0469646-0.5307999,0.3880272
		c-0.0631485,0.0628796-0.1263123,0.1257343-0.189476,0.188591c-0.2699089-0.0013523-0.5418034-0.0056953-0.5601768,0.3719292
		c-0.4775839-0.0632877-0.8382483,0.1282291-1.1460886,0.4856186c-0.3357019,0.3897324-0.7445488,0.6638489-1.2900677,0.6529598
		c-0.1973104-0.0095921-0.3946238-0.0191822-0.5919342-0.0287704c1.4754543-1.277256,3.2526655-2.0791283,4.887866-3.104763
		c0.2061539-0.1293049,0.3997974-0.2785492,0.5992546-0.4185333c1.1423416-0.5967693,2.2965775-1.1721611,3.4225044-1.7984352
		c0.6691742-0.3722134,1.846077-0.3787699,2.3649178,0.0662022c0.0719528,0.0795479,0.1437759,0.1590595,0.2156029,0.2385731
		c0.0314903,0.027174,0.033186,0.0560951,0.0051899,0.087038c-0.1221695,0.2917919-0.2536678,0.5814667-0.1815052,0.9117222
		c-0.0378113,0.1872997-0.1568584,0.28339-0.3423271,0.3048439c-0.0783901,0.063591-0.1567898,0.1272297-0.2351875,0.1908684
		c0,0,0.0183468-0.0077877,0.018261-0.0077286c-0.0688763,0.0658665-0.1376686,0.1316738-0.206459,0.1974831L23.79459,18.150486
		c-0.0641861,0.0708218-0.1283588,0.1415501-0.1925297,0.2122784l0.0143757-0.0035591
		c-0.179554-0.0268078-0.331974-0.003849-0.3822975,0.2072296c-0.0266457,0.0561543-0.0532932,0.1123085-0.079834,0.1682301
		c-0.0291271,0.0679455-0.0583649,0.1361294-0.0876045,0.2043114l0.0209656-0.0181885
		C22.5986328,19.1478596,22.6677742,19.6070423,22.6291294,20.0213737z"/>
	<path style="fill:#E2E3E5;" d="M34.0651779,18.8539181c0.8343201-2.1294079,0.2597122-2.8975019-2.091526-2.979393
		c-1.1289234-0.0393219-2.1942978,0.3092289-3.3021336,0.3379726c0.1181183-0.1022415,0.2359924-0.2042198,0.3539047-0.3061953
		c0.8197098-0.1309786,1.639389-0.2619581,2.4590664-0.3929377c1.3357353-0.1472387,2.5402718,0.0967703,3.4688759,1.1633205
		c0.0224228,0.4211102,0.0449829,0.8421593,0.067627,1.2631111c-0.2376289,0.3194332-0.4753456,0.6389656-0.7130699,0.9585056
		C34.2270012,18.8835125,34.1460876,18.8687153,34.0651779,18.8539181z"/>
	<path style="fill:#396799;" d="M31.4844894,15.5133648c-0.8196774,0.1309795-1.6393566,0.2619591-2.4590664,0.3929377
		c-0.5408192-0.1018486-1.1924839,0.1533136-1.5666313-0.4856472c0.9968987,0.0812025,1.9876118,0.1769419,2.9862175-0.0701952
		C30.7670803,15.2707529,31.1811714,15.1957417,31.4844894,15.5133648z"/>
	<path style="fill:#396799;" d="M29.5796547,12.5271044c-0.5326118,0.6712904-1.1741467,1.1333475-2.0821667,1.0837069
		C28.0861073,13.047101,28.8337898,12.7888517,29.5796547,12.5271044z"/>
	<path style="fill:#F8F8F8;" d="M24.3579464,21.2327557c1.0282974,0.3795528,2.1036396,0.4084301,3.1802578,0.4271049
		c-0.0042686,0.0744553-0.0083961,0.1485138-0.0125256,0.2225742c-1.0877323,0.1122093-2.1691704,0.1644058-3.1927013-0.3350258
		C24.3413124,21.4425411,24.3496284,21.3376503,24.3579464,21.2327557z"/>
	<path style="fill:#396799;" d="M27.4988918,13.5960989c-0.0239639,0.6017065-0.0479298,1.2034121-0.0727978,1.8056049
		C26.717577,14.6723976,26.7382622,14.1655617,27.4988918,13.5960989z"/>
	<path style="fill:#396799;" d="M22.6291294,20.0213737c0.0386448-0.4143314-0.0304966-0.8735142,0.4585361-1.1005859
		c-0.188509,0.8281384-0.440836,1.6669655,0.3959465,2.3200645c-0.0290642,0.0334396-0.0593719,0.0660286-0.0907555,0.0975151
		c-0.1237946-0.0033016-0.2476444-0.0065479-0.3714943-0.0097923c-0.0632801-0.1236401-0.126564-0.2472763-0.1898193-0.3708992
		c-0.0003796-0.1532307-0.0338917-0.2909889-0.1766663-0.3776264
		C22.6462975,20.3938255,22.6377125,20.2075996,22.6291294,20.0213737z"/>
	<path style="fill:#E2E3E5;" d="M26.4206238,16.8624706c-0.2512207,0.6266098-0.8309383,0.508131-1.3248138,0.5845909
		C25.2739468,16.6557999,25.8746662,16.8211365,26.4206238,16.8624706z"/>
	<path style="fill:#E2E3E5;" d="M27.6062355,16.3140717c-0.242342,0.502655-0.7378883,0.4540482-1.1720238,0.5387058
		C26.5818691,16.1445618,27.1152458,16.2753925,27.6062355,16.3140717z"/>
	<path style="fill:#396799;" d="M24.5477886,17.4819565c-0.0721626-0.3302555,0.0593357-0.6199303,0.1815052-0.9117222
		C25.0049572,16.940834,24.8860683,17.2332153,24.5477886,17.4819565z"/>
	<path style="fill:#396799;" d="M23.2341385,18.5664349c0.0503235-0.2110786,0.2027435-0.2340374,0.3822975-0.2072296
		C23.565258,18.5689716,23.3907623,18.551199,23.2341385,18.5664349z"/>
	<path style="fill:#E2E3E5;" d="M24.7646809,17.6863499c0.0997314,0.1035976,0.1224251,0.1912041-0.0494118,0.2381325
		C24.7317963,17.8449268,24.7482395,17.7656384,24.7646809,17.6863499z"/>
	<path style="fill:#396799;" d="M23.970274,17.9776707c0.0783978-0.0636406,0.1567974-0.1272793,0.2351875-0.1908703
		C24.1270599,17.8504543,24.048666,17.9140625,23.970274,17.9776707z"/>
	<path style="fill:#396799;" d="M24.7241039,16.4831963c-0.0718269-0.0795135-0.1436501-0.1590252-0.2156029-0.2385731
		C24.6691647,16.2437668,24.7492294,16.3159275,24.7241039,16.4831963z"/>
	<path style="fill:#396799;" d="M23.0667,18.9389763c0.0292397-0.068182,0.0584774-0.1363659,0.0876045-0.2043114
		C23.1250305,18.8029251,23.0958652,18.8709507,23.0667,18.9389763z"/>
	<path style="fill:#396799;" d="M23.6020603,18.3627644c0.0641708-0.0707283,0.1283436-0.1414566,0.1925297-0.2122784
		C23.7758064,18.2623272,23.7316837,18.351305,23.6020603,18.3627644z"/>
	<path style="fill:#396799;" d="M23.7820759,18.1674232c0.0687904-0.0658092,0.1375828-0.1316166,0.206459-0.1974831
		C23.9791126,18.0977726,23.8987675,18.1515999,23.7820759,18.1674232z"/>
	<path style="fill:#0355A4;" d="M11.3300495,22.7861061c0.3233862-0.3236179,0.6742125-0.6074467,1.1112041-0.7663517
		c0.0267258,0.0267353,0.0533915,0.0534725,0.0800266,0.0802383c-0.0037823,0.0609875-0.0080318,0.1219349-0.0127497,0.1828518
		c-0.2608223,0.1106701-0.4438257,0.3027267-0.5746078,0.5494041c-0.1809406,0.0052338-0.3618832,0.0104656-0.5428238,0.0156994
		L11.3300495,22.7861061z"/>
	<path style="fill:#0355A4;" d="M13.2339582,21.5001526c0.1973104,0.0095882,0.3946238,0.0191784,0.5918913,0.0286961
		c-0.0620413,0.0612888-0.1240387,0.1226559-0.1860361,0.1840191c-0.1584167-0.0046978-0.2971973,0.029974-0.3749504,0.187006
		l-0.0046177,0.0054016c-0.1567898,0.0003376-0.2985773,0.0310879-0.3786907,0.1868362
		c-0.1200914,0.0026283-0.2401838,0.0052547-0.3602743,0.0078812c-0.0266352-0.0267658-0.0533009-0.053503-0.0800266-0.0802383
		C12.668251,21.7897434,12.8977442,21.5635338,13.2339582,21.5001526z"/>
	<path style="fill:#2D6DC0;" d="M35.0349426,10.6284313c-0.3705482,0.5384741-0.807045,0.9004259-1.5051537,0.5622511
		C33.8985023,10.6472349,34.5152321,10.7677116,35.0349426,10.6284313z"/>
	<path style="fill:#2D6DC0;" d="M35.7887306,10.0693998c-0.0590477,0.4459877-0.4082489,0.501009-0.75457,0.5599384
		C35.093708,10.1839733,35.4482498,10.1361561,35.7887306,10.0693998z"/>
	<path style="fill:#2D6DC0;" d="M32.9721985,11.3820286c-0.0185204,0.3853865-0.2930717,0.3804445-0.5691452,0.3732471
		C32.5927238,11.6308365,32.7824593,11.5064316,32.9721985,11.3820286z"/>
	<path style="fill:#2D6DC0;" d="M35.9753189,9.8906469c-0.0620308,0.0593967-0.1240616,0.1187944-0.1860924,0.1781883
		C35.8512611,10.0094366,35.9132919,9.9500408,35.9753189,9.8906469z"/>
	<path style="fill:#396799;" d="M38.0380707,8.7922649c-0.0730438,0.0430059-0.1460876,0.0860109-0.2193413,0.128974
		C37.8917007,8.8782187,37.9648857,8.8352423,38.0380707,8.7922649z"/>
	<path style="fill:#1560CA;" d="M12.5212803,22.0999928c0.1200905-0.0026264,0.2401829-0.0052528,0.3602819-0.0079498
		c0.2924509,0.2748337,0.3362474,0.0454121,0.3786831-0.1867676l0.0045538-0.0054188
		c0.1531954-0.0057011,0.2911921-0.0420055,0.3750143-0.1869888c0.0619974-0.0613632,0.1239948-0.1227303,0.1860361-0.1840191
		c0.5455618,0.0109634,0.9544086-0.2631531,1.2901106-0.6528854c0.3078403-0.3573895,0.6685047-0.5489063,1.1460886-0.4856186
		c0.4408989,0.7315578,0.9836349,0.4320259,1.4759045,0.1031799c0.2791767-0.1864986,0.4944057-0.3467102,0.836813-0.1577911
		c0.4674587,0.2579117,0.0298901,0.4440479-0.0275459,0.6632214c-0.1951981,0.7448387,0.4890366,1.4413567,1.2645664,1.3137054
		c0.7048588-0.1160126,1.4236908-0.0279789,2.138834-0.1234093c0.2426796-0.032383,1.1435833-0.2562523,0.8688278,0.7493725
		c-0.0733795,0.2685795,0.5747147,0.6572056,0.9668789,0.4003181c0.680975-0.4460716,1.0985641-0.0705452,1.4843712,0.3580627
		c0.3744984,0.4160442,0.9304161,0.4074516,1.1502972,0.1508999c0.7665291-0.894371,0.8971443-0.383728,0.9665794,0.3475971
		c0.4303169,0.1827393,0.1562557-0.6749191,0.521759-0.3382626c0.243845,0.224596,0.7035294,0.5708504,0.3842812,1.006897
		c-0.5801849,0.7924404-0.8082047,1.7946053-1.5322609,2.4958305c-0.232275,0.2249527-0.4675961,0.4739933-0.806282,0.2989197
		c-0.4597797-0.2376766-0.7269363,0.0421944-0.9491234,0.3312435c-0.8290939,1.0785923-1.8558578,1.2252083-3.0524254,0.7254162
		c-0.1065044-0.044487-0.3412342-0.0492191-0.3507614-0.0194359c-0.2199802,0.6878262-1.0917854,0.3863354-1.4199753,0.984211
		c-0.3365154,0.6130409-0.9798336,0.5442657-1.5872364,0.4102993c-0.2119064-0.0467453-0.2298965-0.5804119-0.5520573-0.2501068
		c-0.2421932,0.2483158-0.5641479,0.5251312-0.2945805,0.9622402c0.0435963,0.070694,0.0188656,0.1835251,0.0258389,0.2767029
		c-0.1902866,0.008297-0.3806992,0.0167675-0.5710697,0.0253162c-0.9428883-0.3254642-3.4215126,0.1482182-3.9463444,0.754385
		c-0.2521667-0.0033703-0.5043259-0.0068569-0.7564096-0.0103493c-0.0149012-0.2612038-0.1560183-0.3755302-0.413537-0.359972
		c-0.226368,0.0136738-0.3070631,0.1559486-0.3247614,0.3573265c-0.2544804-0.0002995-0.5089598-0.000597-0.7633657-0.0008545
		c-0.0521984-0.4756851-0.4580145-0.4545021-0.7584076-0.4613934c-0.2101631-0.0048218-0.1561604,0.2793179-0.1652155,0.4535828
		c-1.1825838,0.1011219-1.8965216-0.8264942-2.8235226-1.286087c0.0315871-0.1819153,0.0080791-0.4026794,0.1041389-0.5394859
		c0.4251356-0.6054935,0.3967338-0.9674168-0.4421887-1.0213699c-0.1751094-0.0112648-0.2044005-0.2111835-0.234478-0.3661766
		c0.0020914-0.107008,0.0042672-0.2136211,0.0064487-0.3205185c0.4806595-0.0543137,0.8395414-0.1938953,0.5528159-0.7870846
		c-0.1268125-0.8003407,0.5925636-1.1266365,0.9327207-1.6650848c1.1701078-0.89711,2.3532553-1.7806301,3.2194805-3.0038013
		c0.1809835-0.0051746,0.3619261-0.0104065,0.5429802-0.0155907c0.6009169,0.2447567,0.5448637-0.1971283,0.5744944-0.5494537
		C12.5132484,22.2219276,12.517498,22.1609802,12.5212803,22.0999928z"/>
	<path style="fill:#0355A4;" d="M7.2388549,27.5167751c0.2867255,0.5931892-0.0721564,0.7327709-0.5528145,0.7870846
		C6.6868925,27.9129143,7.0441952,27.7719421,7.2388549,27.5167751z"/>
	<path style="fill:#024491;" d="M34.2874146,26.4057217c0.9211388-0.8362598,1.9217758-1.5213032,3.1984291-1.681345
		C36.7154655,25.8474998,35.6081009,26.3295307,34.2874146,26.4057217z"/>
	<path style="fill:#2063BE;" d="M13.452692,33.532917c-0.0008745-0.1211052-0.00175-0.2422066-0.0025816-0.3632355
		c1.6812601-0.2448196,3.3624792-0.4897194,5.0434465-0.7343712c-0.0160522,0.2847748-0.2042351,0.35392-0.4438,0.3461037
		c-1.3940506-0.045475-2.6686277,0.7032776-4.0712013,0.6138878c-0.1101542-0.007019-0.2267275,0.0866814-0.3402586,0.1334457
		C13.5764866,33.5309219,13.5145998,33.5323563,13.452692,33.532917z"/>
	<path style="fill:#1560CA;" d="M18.8783531,32.4069061c0.5547829-0.4228668,1.2067204-0.5335064,1.8772163-0.5844193
		c0.0724773,0.0415039,0.1450634,0.083292,0.2176514,0.1250801C20.3103142,32.2620468,19.6628475,32.6469345,18.8783531,32.4069061z
		"/>
	<path style="fill:#1560CA;" d="M21.4754829,31.7830677c0.3904648-0.404604,0.8891449-0.4010162,1.5950146-0.5771217
		C22.470974,31.7832108,21.9328289,31.6307449,21.4754829,31.7830677z"/>
	<path style="fill:#B2B4B6;" d="M24.8956795,35.6075706c-0.1346035,0.0531082-0.204998,0.101593-0.2751904,0.1013031
		c-0.0468903-0.0001945-0.1147099-0.0605965-0.1361599-0.1100922c-0.0590725-0.1363068,0.0516491-0.1689911,0.1421299-0.1546288
		C24.7004833,35.4558945,24.7654057,35.5250282,24.8956795,35.6075706z"/>
	<path style="fill:#033B78;" d="M6.0668197,32.729805c-0.0264492,0.0406075-0.050849,0.0828247-0.0824556,0.1186829
		c-0.0034313,0.003891-0.0669198-0.0255089-0.0705805-0.0453644c-0.0087657-0.0475388,0.0015297-0.098587,0.0041308-0.1482201
		C5.9675341,32.6797829,6.0171523,32.70467,6.0668197,32.729805z"/>
	<path style="fill:#2D6DC0;" d="M25.8424625,22.2705288c0.6750088-0.0093708,1.3421097-0.0072803,2.0176182-0.1485462
		c0.520319-0.1088161,1.1182346-0.1553459,1.5523701,0.3340759c-0.911829-0.2324467-1.6193295,0.5044613-2.5402355,0.5114555
		C26.1698723,22.9728489,26.0222054,22.748085,25.8424625,22.2705288z"/>
	<path style="fill:#2D6DC0;" d="M21.0481644,19.9884567c-0.2425671-0.0456753-0.282238-0.2214603-0.2548676-0.4209061
		c0.0320396-0.2334728,0.2066479-0.2945862,0.4094429-0.2769527c0.1719532,0.0149517,0.2943935,0.1095848,0.277441,0.299839
		C21.4573135,19.8471508,21.2933006,19.9662418,21.0481644,19.9884567z"/>
	<path style="fill:#2D6DC0;" d="M29.5931454,22.4612656c0.3394032,0.0613003,0.6877346,0.1102047,0.7576809,0.545496
		C30.0340843,22.9140549,29.6508789,22.9138069,29.5931454,22.4612656z"/>
	<path style="fill:#1560CA;" d="M16.8222256,20.0184155c0.0631638-0.0628567,0.1263275-0.1257114,0.189476-0.188591
		c0.0281067,0.1580658,0.2655602,0.3451099,0.0412579,0.4626141C16.8753357,20.3854904,16.8491478,20.1582947,16.8222256,20.0184155
		z"/>
	<path style="fill:#2D6DC0;" d="M22.6548767,20.5800495c0.1427746,0.0866375,0.1762867,0.2243958,0.1766663,0.3776264
		C22.5838776,20.9200878,22.3611012,20.8708897,22.6548767,20.5800495z"/>
	<path style="fill:#2D6DC0;" d="M23.5865955,21.7116737c0.152256,0.0014877,0.2916355,0.0305767,0.3768711,0.1756973
		C23.6994362,22.1258888,23.6830254,21.8328953,23.5865955,21.7116737z"/>
	<path style="fill:#2D6DC0;" d="M23.0213623,21.3285751c0.1238499,0.0032444,0.2476997,0.0064907,0.3714943,0.0097923
		c0.0004902,0.0613575-0.0010052,0.122612-0.0046387,0.1838112C23.234024,21.5179691,23.0972004,21.4810371,23.0213623,21.3285751z"
		/>
	<path style="fill:#2D6DC0;" d="M25.0897274,22.0898724c0.1230278,0.0023289,0.2460556,0.0046577,0.3690166,0.0071049
		C25.3320999,22.2784157,25.2091446,22.2745399,25.0897274,22.0898724z"/>
	<path style="fill:#2D6DC0;" d="M30.7190914,23.2071552c0.0634308,0.0642433,0.1268578,0.1284828,0.1903076,0.1927376
		C30.845974,23.3356533,30.7825336,23.2714043,30.7190914,23.2071552z"/>
	<path style="fill:#2D6DC0;" d="M23.4050922,21.7037926c-0.0154991,0.0266495-0.0309982,0.0533028-0.0464954,0.0799522
		c0.0147476-0.0273113,0.0294933-0.0546265,0.044281-0.0820236L23.4050922,21.7037926z"/>
	<path style="fill:#E3F1F4;" d="M27.5256786,21.8824348c0.0041294-0.0740604,0.0082569-0.148119,0.0125256-0.2225742
		c0.1532612,0.0106182,0.3063774,0.0216274,0.4599895,0.0323753c0.2914219-0.0140152,0.6113205,0.1185741,0.848217-0.1680889
		c0.1705379-0.0227318,0.3410797-0.0454636,0.5112476-0.0685616c0.3871574,0.4777088,1.0268116,0.2154408,1.5186443,0.5532608
		c0.5830574,0.4004745,0.8442135,0.7549248,0.5655441,1.4186306c-0.6446991-1.1083107-1.6316051-1.5660954-2.8855953-1.5296421
		C28.2131672,21.9078083,27.8692284,21.8883743,27.5256786,21.8824348z"/>
	<path style="fill:#286BC6;" d="M10.0756407,31.8374977c0.0090551-0.1742649-0.0449476-0.4584045,0.1652155-0.4535828
		c0.3003931,0.0068913,0.7062092-0.0142918,0.7584076,0.4613934C10.6913395,31.8426819,10.3834896,31.8400917,10.0756407,31.8374977
		z"/>
	<path style="fill:#286BC6;" d="M11.7626295,31.8461628c0.0176983-0.2013779,0.0983934-0.3436527,0.3247614-0.3573265
		c0.2575188-0.0155582,0.3986359,0.0987682,0.413537,0.359972C12.2547779,31.8479271,12.0087042,31.847044,11.7626295,31.8461628z"
		/>
	<path style="fill:#2D6DC0;" d="M44.2211723,14.9910955c-0.2930145,0.4296932,0.1313324,1.3238268-0.7330132,1.2556715
		c-0.418663-0.0330105-0.5614052-0.8350353-0.1758652-0.9590006c0.1588326-0.0510702,0.3642006,0.0514231,0.5370102-0.0686178
		C43.9685364,15.1363258,44.0968895,15.0666466,44.2211723,14.9910955z"/>
	<path style="fill:#2D6DC0;" d="M42.9162827,14.5381927c-0.0698586,0.0344391-0.1500015,0.086834-0.1592484,0.0763941
		c-0.0559464-0.0631189-0.1302757-0.1395359-0.1325493-0.2135372c-0.003231-0.1047478,0.1037292-0.1583862,0.1857452-0.0957546
		C42.8701057,14.3510208,42.8827515,14.4585962,42.9162827,14.5381927z"/>
	<path style="fill:#1560CA;" d="M35.4039497,18.3368988c-0.0005493-0.1228142-0.0011024-0.2456284-0.0017929-0.368288
		c0.026741-0.2693272-0.0181465-0.5858116,0.3316116-0.6817436c0.1341972-0.0368042,0.226696,0.0924301,0.2242012,0.2256012
		C35.950695,17.9014645,35.8707047,18.2521,35.4039497,18.3368988z"/>
	<path style="fill:#286BC6;" d="M38.0642204,21.3803101c-0.3931389,0.1251259-0.5571594-0.0058079-0.7256584-0.2634525
		C37.6561432,20.9391079,37.8099594,21.1344395,38.0642204,21.3803101z"/>
	<path style="fill:#286BC6;" d="M37.8546486,18.8942184c-0.0145988,0.0260906-0.0291977,0.0521812-0.0437965,0.07827
		c0.0142021-0.0264854,0.0284042-0.052969,0.0425949-0.0794582L37.8546486,18.8942184z"/>
	<path style="fill:#E2E3E5;" d="M33.8830414,19.0451527c0.063221-0.0595531,0.126442-0.1191025,0.1894989-0.1788635
		C34.0092659,18.9257698,33.9461517,18.9854603,33.8830414,19.0451527z"/>
	<path style="fill:#27313B;" d="M31.2706871,18.7225742c0.0453205-0.4166088,0.3887806-0.8223457,0.6675758-0.7204037
		c0.6242714,0.22826,0.0429382-0.9162712,0.6642113-0.5019073c0.3052444,0.2035828,0.5528221,0.5128994,1.0852852,0.5212269
		c-0.4599571,0.2307911-0.6995544,0.5477352-0.9556885,0.8580704c-0.6405525,0.776104-1.5507584,0.947506-2.4842815,1.1534767
		c-0.4825954,0.1064816-0.873394,0.4370556-1.1482792-0.2125683c-0.0721531-0.1705208-0.4135685-0.104044-0.3060093-0.3201637
		c0.0620861-0.1247501,0.3919125-0.2650185,0.4638042-0.2119884c0.4681282,0.3453064,0.5039425-0.3120365,0.8677387-0.2037029
		c-0.2130165-0.4711952-0.7923756-0.3164272-0.8590088-0.860651c0.4072475,0.2310047,0.6037979-0.2368431,0.9624672-0.2463818
		c0.3393955-0.0090275,0.4913654-0.6519299,0.9910202-0.2182865c-0.1215572,0.2822933-1.0623398,0.7219887,0.0626984,0.9443207
		c0.034853,0.0307522,0.0695648,0.0616894,0.1042728,0.0926266c0.0012493-0.024519,0.0024986-0.0490398,0.0037479-0.0735588
		C31.3503895,18.7226467,31.3105392,18.7226105,31.2706871,18.7225742z"/>
	<path style="fill:#27313B;" d="M26.7517071,19.8223915c0.302845-0.8052177,0.3930817-1.8218441,1.2384701-2.2057476
		c0.6614838-0.3003883,1.4122257-0.8782673,2.2929478-0.2540836c-0.8774815-0.0366001-1.1040058,0.997139-1.9470997,1.0619469
		c-0.2412453,0.0185432-0.4164658,0.3880367-0.4438629,0.7434502c-0.0558949,0.7249928-0.458149,0.9477615-1.1302929,0.6401691
		L26.7517071,19.8223915z"/>
	<path style="fill:#F8F8F8;" d="M28.8464108,21.524147c-0.2368965,0.2866631-0.5567951,0.1540737-0.848217,0.1680889
		C28.2484283,21.474184,28.5491695,21.5079975,28.8464108,21.524147z"/>
	<polygon style="fill:#27313B;" points="26.7618694,19.8081264 26.7511635,19.8500633 26.7521381,19.8220863 	"/>
	<path style="fill:#2D6DC0;" d="M12.5085306,22.2828445C12.4789,22.63517,12.5349531,23.077055,11.9340363,22.8322983
		C12.0647049,22.5855713,12.2477083,22.3935146,12.5085306,22.2828445z"/>
	<path style="fill:#2D6DC0;" d="M13.2602453,21.9052753c-0.0424356,0.2321796-0.0862322,0.4616013-0.3786831,0.1867676
		C12.961668,21.9363632,13.1034555,21.9056129,13.2602453,21.9052753z"/>
	<path style="fill:#2D6DC0;" d="M13.6398134,21.7128677c-0.0838223,0.1449833-0.2218189,0.1812878-0.3750143,0.1869888
		C13.3426161,21.7428417,13.4813967,21.7081699,13.6398134,21.7128677z"/>
	<path style="fill:#F1EB4F;" d="M31.2706871,18.7225742c0.0398521,0.0000362,0.0797024,0.0000725,0.1195545,0.0001087
		c-0.0012493,0.024519-0.0024986,0.0490398-0.0037479,0.0735588c-0.034708-0.0309372-0.0694199-0.0618744-0.1042728-0.0926266
		L31.2706871,18.7225742z"/>
</g>
</svg>
