<?xml version="1.0" encoding="utf-8"?>
<!-- Generator: Adobe Illustrator 21.1.0, SVG Export Plug-In . SVG Version: 6.00 Build 0)  -->
<svg version="1.1" id="Слой_1" xmlns="http://www.w3.org/2000/svg" xmlns:xlink="http://www.w3.org/1999/xlink" x="0px" y="0px"
	 viewBox="0 0 55 45" style="enable-background:new 0 0 55 45;" xml:space="preserve">
<g>
	<path style="fill:#41625D;" d="M20.7579765,20.3530216c0.059042-0.0076466,0.118084-0.0152931,0.1770821-0.0229244
		c0.7212963-0.0015697,1.2618732-0.6429863,1.9722176-0.6020851c0.7525234,0.0433254,1.2067852-0.3177948,1.5663185-0.8999023
		c0.5604267-0.269886,1.2138519-0.2757092,1.7494106-0.6161537c0.5482922,0.0390205,1.0482883-0.0437946,1.6049633-0.1744537
		c1.3405933-0.3146534,2.6417999-0.8028908,4.0137081-1.0172081c0.4439449-0.0693493,1.0206318-0.1515408,1.3354435-0.6303101
		c0.3703995-0.0563793,0.7142982,0.0804138,1.0677986,0.1465378c0.5955505-0.0352612,1.0669518,0.3623734,1.6227837,0.4658203
		c0.0649757,0.3789673-0.2831879,0.4363117-0.4824982,0.5895424c-0.9331093,0.7173958-2.0369759,1.1309834-3.0570679,1.6943188
		c-1.239399,0.6844444-2.4535007,1.4147015-3.678545,2.1251392c-0.7146873-0.1163235-1.3417301,0.188982-1.9857101,0.4127941
		c-0.1038246,0.0031204-0.2076492,0.0062389-0.3114758,0.0093594c-0.4958973,0.1056767-0.9471951,0.3103809-1.3555317,0.6104755
		c-0.5410309,0.0883675-1.1715908,0.0124512-1.3627739,0.7427254c-0.1945057,0.0091724-0.3890114,0.018343-0.5835171,0.0275154
		c-0.2261314-0.0161324-0.4499226-0.0284309-0.4727478,0.288538c-0.4107304-0.0617714-0.5603008,0.3789234-0.8942833,0.4648094
		c-0.5421047-0.0598812-1.0153484-0.0087242-1.3951015,0.4892445c-0.1586189,0.2079964-0.4450893,0.4033318-0.7775974,0.4182854
		c-0.2691784,0.0121059-0.4000282,0.1839905-0.4132328,0.4484425c-0.0967464,0.0521698-0.1934948,0.1043377-0.2902431,0.1565056
		c-0.1981487,0.0197468-0.3992386,0.0714149-0.5939217,0.0535011c-0.7001152-0.0644131-0.9355774,0.7723866-1.5898685,0.7966118
		c-0.3657742,0.013546-0.6565857,0.1887455-0.9057274,0.4675026c-0.2116432,0.2367992-0.5539722,0.5812893-0.7846479,0.1792965
		c-0.2087679-0.3638115-0.3790846-0.9255104-0.0467281-1.3163776c0.9333239-1.0976315,2.4596491-1.4298363,3.3910131-2.5573883
		c0.1447582-0.1752472,0.4364052-0.3031273,0.669239-0.3189754c1.0590668-0.0720825,1.5951557-1.1825771,2.6292019-1.2915707
		c0.1041565-0.0109787,0.2291718-0.1476192,0.1470966-0.2874069c-0.0385494-0.0656548-0.1598682-0.1034222-0.2488766-0.1154804
		c-0.7513409-0.1017971-1.439394,0.056427-2.0480843,0.5213718c-0.2471657,0.1887951-0.4952278,0.3768234-0.7886639,0.0735626
		c0.4171925-0.4143944,1.0025787-0.5194969,1.4887524-0.8078842C20.366106,20.7344723,20.7464466,20.7690601,20.7579765,20.3530216z
		"/>
	<path style="fill:#202826;" d="M6.2272944,35.0387802c-0.9024253-0.115284-1.740963-0.4335327-2.5622694-0.8065224
		c-0.2987254-0.3925209-0.8969181-0.5637703-0.8792858-1.1900291c0.8321455,0.2421837,0.4533439-0.502594,0.6260982-0.788044
		c0.4790545-0.0565567,0.6042931,0.5077934,1.1220896,0.5152931c1.3473897,0.0195045,2.6781769,0.3810005,4.0417757,0.2773705
		c0.1174221-0.0089226,0.2583246,0.0243568,0.3575611,0.0868683c0.5783052,0.3642578,0.7220297-0.01754,0.7667437-0.4664612
		c0.042243-0.424118,0.011837-0.8554688,0.0133848-1.283638c0.099165-0.009449,0.1983318-0.0188999,0.2973948-0.0281696
		c0.0009956,0.0474243,0.0079622,0.0937901,0.0207987,0.1392708c-0.2342024,1.3469601,0.3954315,2.1989956,1.8526154,2.5070095
		c0.4562368,0.1869431,0.9137812,0.1149597,1.3694868,0.001503c0.3691454-0.0919113,0.7413607-0.187748,0.6872768-0.698925
		c0.5776386-0.4288597,0.1941996-0.9814529,0.1911888-1.4850655c0.0899906-0.0012531,0.1799822-0.0025043,0.2699728-0.0037556
		c0.0562057,0.1504803,0.1124096,0.3009624,0.1686144,0.4514408c0.4758902,0.559494,1.1600218,0.5021858,1.7898798,0.60075
		c0.9798508,0.1533356,1.9037914-0.3753319,2.8681355-0.2672539c0.8243351,0.0923843,1.6365662,0.0077248,2.452322-0.0218239
		c0.7225437-0.026165,1.4536152-0.0642738,2.1612587-0.1997757c1.2369404-0.2368546,2.4922714-0.1753998,3.734066-0.3090057
		c0.13657-0.0146942,0.3097839,0.0900879,0.4266224-0.0227509c0.4776173-0.4612675,1.0721836-0.4047852,1.6641312-0.4474583
		c0.3624039-0.0261288,0.3928528,0.1376324,0.4866409,0.3998966c0.1768436,0.4944954-0.4652119,0.5493393-0.4496098,0.9358826
		c-3.3699894,0.990715-6.8471203,1.4182243-10.3068218,1.9198494c-1.70854,0.2477264-3.4390717,0.3437767-5.1596527,0.5084572
		c-1.6102495,0.035984-3.2204981,0.0719643-4.8307476,0.1079445c-0.7237453-0.0635643-1.4474897-0.1271286-2.1712346-0.1906929
		C6.9207902,35.1119194,6.5781446,35.0582657,6.2272944,35.0387802z"/>
	<path style="fill:#848585;" d="M51.5996208,19.4095116c-0.243557,0.5567341-0.487114,1.1134701-0.7306519,1.6702118
		c-0.2949448,0.3043861-0.488369,0.673357-0.6684418,1.0508251c-0.1723824,0.1051559-0.3447685,0.21031-0.517189,0.3154697
		c-0.1460457,0.024662-0.340786-0.0023994-0.4304466,0.0820713c-0.7853889,0.7398796-1.7731018,1.0760918-2.7559509,1.4263763
		c-0.2589264-0.2575169-0.3442612-0.0217476-0.449276,0.1581039l-0.006115,0.0068874
		c-0.4141655,0.0081215-0.7778358,0.1350098-1.1051521,0.4019833c-0.344532,0.2810211-0.7633629,0.3643627-1.2019119,0.3471222
		c-0.1208305-0.0047512-0.2659111,0.024229-0.3321571-0.1142654c-0.0711365-0.1487274,0.039032-0.2502499,0.1485405-0.2997475
		c0.5036888-0.2276726,0.7981071-0.7231388,1.3387947-0.9383793c0.7388229-0.294117,1.5177803-0.627882,2.0598755-1.2083263
		c0.4579735-0.4903698,1.054657-0.752758,1.5023384-1.1909389c0.2562027-0.250761,0.7405853,0.2191086,0.761116-0.3436642
		c0.0515327-0.1491795,0.1030197-0.2984428,0.1545029-0.4477062c0.7890511-0.0411053,0.902832-0.5864677,0.9065704-1.2140102
		c0.2071495-0.5020618,0.6305885-0.8265667,0.9920349-1.2005939c0.2844963-0.294405,0.3094177-0.5554428-0.0602188-0.7935181
		c0.045063-0.3428993,0.0901222-0.6858006,0.1351814-1.0286999c-0.0894928-0.411027-0.0043259-0.9158192-0.5739555-1.0690718
		c0.0489731-0.1569128,0.09795-0.3138247,0.1469269-0.4707365c0.4472542,0.0448303,0.5120926,0.4401779,0.6409988,0.7437592
		C52.133297,16.6545601,51.9622879,18.0328465,51.5996208,19.4095116z"/>
	<path style="fill:#2E4643;" d="M10.010891,31.3552704c-0.0991669,0.0094471-0.1983337,0.018898-0.2975101,0.0282574
		c-0.0308485-0.0602722-0.0616875-0.1204548-0.0925274-0.1806355c-0.3115025,0.467226-0.8880615,0.2610531-1.1873188,0.2192307
		c-0.7175188-0.1002731-1.4936976,0.2780476-2.2046981-0.3301849c-0.264123-0.2259464-1.0538516-0.4811382-1.4083123,0.3266792
		c-0.1902318,0.4335423-0.6615801,0.3341064-0.9762578,0.0955696c-0.3197272-0.2423668,0.0764487-0.6007633-0.0368974-0.9023838
		c0.5461099-0.713501,1.2349651-1.2681465,1.9705031-1.7702179c-0.0303435,0.1978245-0.0332417,0.4045048-0.0970888,0.5902367
		c-0.1045589,0.3041611,0.0376925,0.494173,0.2606463,0.6370354c0.2389698,0.1531219,0.4659476,0.1153488,0.6786923-0.0952511
		c1.279541-1.2666588,2.8980522-1.5789528,4.6101751-1.6204033c-0.0008535,0.0996704-0.0001698,0.1994324-0.0027113,0.2991104
		c-0.0167418,0.6565704,0.1083202,1.4127808-0.9806414,1.2432365c-0.2115231-0.0329342-0.1766214,0.1563702-0.1285601,0.3176899
		c0.078949,0.2649784,0.3818445,0.2145195,0.5118742,0.3969173c-0.1980782,0.0914173-0.3194876,0.2322216-0.3000832,0.4640694
		L10.318676,31.085495c-0.0457201,0.0478477-0.0914402,0.0956955-0.1371603,0.1435452l-0.0059175,0.0122795
		C10.1206951,31.2793026,10.065793,31.3172874,10.010891,31.3552704z"/>
	<path style="fill:#233533;" d="M3.807369,30.6118031c0.1133461,0.3016205-0.2828298,0.660017,0.0368974,0.9023838
		c0.3146777,0.2385368,0.786026,0.3379726,0.9762578-0.0955696c0.3544607-0.8078175,1.1441894-0.5526257,1.4083123-0.3266792
		c0.7110004,0.6082325,1.4871793,0.2299118,2.2046981,0.3301849c0.2992573,0.0418224,0.8758163,0.2479954,1.1873188-0.2192307
		c0.0308399,0.0601807,0.0616789,0.1203632,0.0925274,0.1806355c-0.0015364,0.4282589,0.0288696,0.8596096-0.0133734,1.2837276
		c-0.044714,0.4489212-0.1884384,0.830719-0.7667437,0.4664612c-0.0992365-0.0625114-0.240139-0.0957909-0.3575611-0.0868683
		c-1.3635988,0.1036301-2.694386-0.2578659-4.0417757-0.2773705c-0.5177965-0.0074997-0.6430352-0.5718498-1.1220896-0.5152931
		c-0.1727543,0.28545,0.2060473,1.0302277-0.6260982,0.788044C2.6071417,32.0138626,3.043319,31.2439232,3.807369,30.6118031z"/>
	<path style="fill:#4D6D67;" d="M46.3405571,14.596076c0.202507-0.0063019,0.405014-0.0126038,0.6075211-0.0189056
		c0.127636,0.3444672,0.0879364,0.5664015-0.3198929,0.7222385c-1.0913734,0.4170303-2.2996826-0.0269032-3.4054222,0.5846739
		c-0.438633,0.2426052-1.1632309,0.1349373-1.7276764,0.3586693c-1.0367203-0.2933264-2.0445862-0.153038-3.0321159,0.2168655
		c-0.1463242,0.0548096-0.2313881,0.032011-0.3124542-0.0832233c0.0041084-0.1393623,0.008213-0.2787209,0.0123215-0.4180822
		c0.0070877-0.2289038,0.014183-0.4578066,0.0212288-0.6864214c0.4462814-0.0331888,0.8926125-0.0666656,1.3389473-0.1001406
		c1.0723267-0.1032534,2.144516-0.2079811,3.2171059-0.3084154c0.1955643-0.0183105,0.2411537-0.1449623,0.253418-0.3067446
		c0.0582809-0.0181494,0.1165657-0.0362968,0.1748047-0.0543118c0.0119705,0.1034136,0.0615959,0.2071142,0.1679115,0.1759024
		c0.0669518-0.0196562,0.1052513-0.136898,0.1564064-0.2103634c0.8111267-0.1606226,1.5970688,0.1213837,2.398201,0.1364269
		c0.0226097,0.1161432,0.0462456,0.2345543,0.1942596,0.24965C46.2731323,14.8730679,46.3184128,14.7445583,46.3405571,14.596076z"
		/>
	<path style="fill:#3A5956;" d="M50.9140358,14.5489044c-0.0489769,0.1569118-0.0979538,0.3138237-0.1473045,0.4708319
		c-0.6000443,0.1420584-0.3331718,0.7436466-0.5700302,1.1022425c-0.7115059,1.0771999-1.7288895,1.8222446-2.6430054,2.6812859
		c-0.40345,0.1562042-0.8069038,0.3124065-1.21035,0.4685593c-0.0597992-0.031599-0.119606-0.0631466-0.1794052-0.0946922
		c0.0322723-0.0309811,0.0640373-0.0625172,0.0969048-0.0928555c0.1624489-0.1499538,0.5957527-0.1540585,0.4206848-0.476614
		c-0.1256218-0.2314491-0.4032555,0.0252724-0.5938759,0.1093864c-0.2168465,0.0956841-0.4353294,0.0932884-0.6589622,0.0951176
		c0.1202583-0.2631817,0.3899803-0.3277264,0.6096115-0.4588089c0.3479118-0.0316544,0.5474358-0.2198696,0.5972176-0.5660667
		c0.2492828-0.0104084,0.5296173-0.1000748,0.7421913-0.0167866c0.7203522,0.2822514,0.9849014-0.1485252,1.2193642-0.6851292
		c0.0380096-0.0869999,0.1140709-0.1573753,0.172493-0.2354755c0.3570671-0.0522385,0.3988113-0.3336811,0.4448013-0.6120358
		c-0.1490936-0.5626307-0.602829-0.1908188-0.9017143-0.2939711c-0.2227707-0.0164022-0.4306183-0.0068207-0.4812355,0.276454
		c-0.0894432-0.0000114-0.1788902-0.0000229-0.2683296-0.0000362c-0.003685-0.0926037-0.0073662-0.1852074-0.0110474-0.277812
		c0.1406708-0.2328768,0.1695976-0.4889154,0.1561852-0.7538185c0.0997429,0.0469885,0.1995277,0.0940742,0.2993088,0.14116
		c0.0226555,0.0682373,0.0334167,0.1887951,0.0697174,0.1970568c0.8835144,0.2010365,1.4270668-0.2157898,1.4440575-1.0963306
		c0.2646675-0.0362511,0.5332298-0.0506487,0.7226105-0.289196c0.1674576-0.2109261,0.3872147-0.3086281,0.6438065-0.1664839
		C51.1919518,14.1434164,50.7751999,14.3623133,50.9140358,14.5489044z"/>
	<path style="fill:#41625D;" d="M47.7082672,15.1887779c0.0133743,0.2648048-0.0155525,0.5208435-0.156208,0.7536602
		c-0.1453552,0.0018187-0.2907143,0.0036993-0.4360847,0.005579c-1.6187744-0.0633469-3.1479034,0.4399834-4.7084274,0.7448673
		c-0.1696281,0.0044384-0.3499641-0.0226822-0.4604568,0.156147c-0.3886414-0.0246449-0.4643784-0.2826118-0.4520493-0.606245
		c0.5644913-0.2237663,1.2890892-0.1160984,1.7277222-0.3587036c1.1057396-0.611577,2.3140488-0.1676435,3.4054222-0.5846739
		c0.4078293-0.1558371,0.4475288-0.3777714,0.3198929-0.7222385c0.2007675-0.0166616,0.4015427-0.0333233,0.6022911-0.0499344
		C47.2177849,14.8397446,47.3038063,15.0522728,47.7082672,15.1887779z"/>
	<path style="fill:#233533;" d="M11.2303429,28.3532524c-1.7121687,0.0414009-3.3306799,0.3536949-4.6102209,1.6203537
		c-0.2127447,0.2105999-0.4397225,0.248373-0.6786923,0.0952511c-0.2229538-0.1428623-0.3652053-0.3328743-0.2606463-0.6370354
		c0.0638471-0.1857319,0.0667453-0.3924122,0.0970888-0.5902367c0.0726223-0.0267544,0.1451745-0.0529613,0.218987-0.0798836
		c0.0617952,0.0619755,0.1223316,0.1246719,0.182868,0.1873665c-0.0010071-0.0239639,0.0077538-0.0583305-0.0047398-0.0700665
		c-0.0496545-0.0466309-0.1059437-0.0861969-0.1597748-0.1283798c0.0417075-0.0722122,0.083415-0.1444263,0.1251831-0.2162971
		c0.3872728,0.5578384,0.8208675,0.6195164,1.3067169,0.12257c0.8357444-0.3197899,1.6792932-0.6133728,2.5654597-0.7638092
		c0.2049522-0.0035305,0.3021479-0.111639,0.3035612-0.3126183C10.8506784,27.5662861,11.2399988,27.7237473,11.2303429,28.3532524z
		"/>
	<path style="fill:#2E4643;" d="M20.7579765,20.3530216c-0.0115299,0.4160385-0.3918705,0.3814507-0.631815,0.5237789
		c-0.4861736,0.2883873-1.0715599,0.3934898-1.4886703,0.8079281c-0.0465736-0.001049-0.0932255-0.0009499-0.1398754,0.0003376
		c-0.0532112,0.0503788-0.1064224,0.1007576-0.1596317,0.1511345l-0.0029526-0.000082
		c-0.2217789-0.0034657-0.4342365,0.0067024-0.4485493,0.306675c-0.051693,0.0015507-0.1033878,0.0030994-0.1550808,0.0046482
		c-0.0518456,0.0486965-0.1036911,0.097393-0.1555367,0.1460876c-0.0439205-0.0017109-0.0878563-0.002594-0.1318092-0.0026493
		c-0.0556583-0.0952015-0.1111565-0.1097908-0.1664104,0.0003281l-0.0001144-0.000824
		c-0.4987164,0.0199108-0.8526134,0.4709969-1.3625088,0.4576225c-0.0998783-0.0990753-0.1997557-0.1981506-0.2996349-0.297226
		C17.2806549,21.6315804,18.9307251,20.7751274,20.7579765,20.3530216z"/>
	<path style="fill:#4D6D67;" d="M9.5418596,26.1904945c1.3245525-0.8724842,2.6963406-1.664753,4.0949697-2.4114513
		c0.0029049,0.1601963,0.0058069,0.3203907,0.008708,0.4805851c-0.3991623,0.372139-1.0173254,0.5121651-1.348381,0.7928352
		c-0.8502388,0.7208309-1.9230289,1.0364799-2.7425575,1.7576523C9.5503531,26.6035767,9.5461054,26.3970337,9.5418596,26.1904945z"
		/>
	<path style="fill:#567772;" d="M33.1771202,16.3899841c-0.3148117,0.4787693-0.8914986,0.5609608-1.3354435,0.6303101
		c-1.3719082,0.2143173-2.6731148,0.7025547-4.0137081,1.0172081c-0.556675,0.1306591-1.0566711,0.2134743-1.6049633,0.1744537
		c0.5838261-0.5569439,1.3504124-0.6328506,2.0867348-0.7606163c0.215519-0.0373936,0.427248-0.0516911,0.6220169-0.1574993
		c0.2876034,0.3382702,0.5710049,0.0331154,0.8230476-0.0407486C30.8852901,16.9217911,32.0079041,16.5659981,33.1771202,16.3899841
		z"/>
	<path style="fill:#2E4643;" d="M7.4471126,28.6568947c-0.4858494,0.4969463-0.9194441,0.4352684-1.3067169-0.12257
		c0.3075027-0.4040489,0.7097764-0.6954002,1.1360822-0.9580917c0.4612627-0.1087646,0.9239349-0.2047634,1.4026976-0.1435757
		c0.0351868,0.1016273,0.0691948,0.0879574,0.1024342-0.0010452l0.0210781-0.0132332
		c0.2474747-0.00033,0.4949598-0.0009232,0.7424459-0.0015163c0.2543707,0.0668144,0.5533924-0.076931,0.7709541,0.1634769
		c-0.0013676,0.201107-0.0985632,0.3092155-0.3034773,0.3127632C8.9922419,27.5224094,7.8534384,27.8614388,7.4471126,28.6568947z"
		/>
	<path style="fill:#3A5956;" d="M33.1771202,16.3899841c-1.1692162,0.1760139-2.2918301,0.5318069-3.4223156,0.8631077
		c-0.2520428,0.073864-0.5354443,0.3790188-0.8230476,0.0407486c1.7288914-0.5973072,3.4605732-1.1838036,5.2971172-1.3628349
		c0.0054016,0.2018166,0.0107765,0.4036388,0.0161476,0.6054592C33.8914185,16.4703979,33.5475197,16.3336048,33.1771202,16.3899841
		z"/>
	<path style="fill:#3F4B44;" d="M24.4735947,18.8281097c-0.3595333,0.5821075-0.8137951,0.9432278-1.5663185,0.8999023
		c-0.7103443-0.0409012-1.2509212,0.6005154-1.9722176,0.6020851c0.0447254-0.1091518,0.0439987-0.2353096,0.1864014-0.295927
		c0.9324493-0.3969135,1.8569622-0.8130684,2.7964954-1.1921272C24.0717487,18.779995,24.2862377,18.6903763,24.4735947,18.8281097z
		"/>
	<path style="fill:#567772;" d="M38.1841164,15.2716017c-0.0070953,0.2289038-0.0141907,0.4578066-0.0212402,0.6865673
		c-0.1484146-0.0018854-0.2968636-0.0036278-0.4453163-0.0053701c-0.020237-0.259531-0.2006302-0.3845835-0.406353-0.2912283
		c-0.69524,0.3154993-1.4670753,0.2050085-2.1741028,0.4319868c-0.1508064-0.0001564-0.3016167-0.0003147-0.4524231-0.000473
		c0.0000191-0.0840092,0.0000343-0.1680202,0.0000496-0.2520304c0.2615509-0.2849092,0.655571-0.2838869,0.9625664-0.2924957
		c0.8151436-0.0228634,1.577198-0.2657881,2.3611298-0.4166164C38.0669937,15.1785069,38.1255531,15.2250547,38.1841164,15.2716017z
		"/>
	<path style="fill:#567772;" d="M8.6791754,27.4326572c-0.4787626-0.0611877-0.9414349,0.034811-1.4026976,0.1435757
		c0.6322422-0.662962,1.4144859-1.0805187,2.2654066-1.3857498c0.004221,0.2065506,0.0084686,0.4130936,0.012763,0.6198959
		c0.0000496,0.0002613-0.0167704,0.0235214-0.0167704,0.0235214c-0.3783903,0.0269566-0.5948162,0.2577286-0.7351789,0.5842171
		L8.781888,27.4317169C8.7478495,27.4336758,8.7135181,27.4339561,8.6791754,27.4326572z"/>
	<path style="fill:#A7A6A6;" d="M42.9935379,14.5565901c-0.0122643,0.1617823-0.0578537,0.288434-0.253418,0.3067446
		c-1.0725899,0.1004343-2.1447792,0.205162-3.2170944,0.3084297c-0.1708908-0.2873821-0.561718-0.0050488-0.7358742-0.2840395
		C40.1892815,14.7773476,41.5914116,14.6669683,42.9935379,14.5565901z"/>
	<path style="fill:#41625D;" d="M49.5213127,14.4305658c-0.0169907,0.8805408-0.5605431,1.2973671-1.4440575,1.0963306
		c-0.0363007-0.0082617-0.0470619-0.1288195-0.0697174-0.1970348c0.1987953-0.2630844,0.3663025-0.5368862,0.303997-0.8892536
		C48.7147903,14.4372597,49.1180534,14.4339123,49.5213127,14.4305658z"/>
	<path style="fill:#202826;" d="M34.6847305,15.8410549c-0.0000153,0.0840092-0.0000305,0.1680202-0.000042,0.2519913
		c0.0389252,0.3064899,0.2473755,0.2962704,0.4733505,0.2533112c0.3897591,0.1173992,0.825531-0.0443058,1.1948662,0.1969833
		c0.0354424,0.3614368-0.1574402,0.4815083-0.4852028,0.4590015c-0.5558319-0.103447-1.0272331-0.5010815-1.6227837-0.4658203
		c-0.0052681-0.2018776-0.010643-0.4036999-0.0160446-0.6055155C34.380806,15.9010267,34.5327682,15.8710413,34.6847305,15.8410549z
		"/>
	<path style="fill:#4D6D67;" d="M15.615387,22.4507809c0.0998793,0.0990753,0.1997566,0.1981506,0.2996588,0.2972202
		l0.0051498-0.0031185c-0.1934071,0.0368805-0.4278259-0.0883751-0.5716314,0.1445942
		c-0.1749706,0.2745819-0.170475,0.2799358,0.2633381,0.3136444c-0.2517338,0.2464333-0.5542421,0.3898163-0.9007845,0.4438267
		c-0.0157528-0.2269859-0.1648407-0.3014641-0.3642139-0.3184242C14.6971216,22.9310093,15.1241636,22.6445217,15.615387,22.4507809
		z"/>
	<path style="fill:#41625D;" d="M14.3469038,23.3285236c0.1993732,0.0169601,0.3484612,0.0914383,0.3641691,0.3185406
		c-0.2348747,0.4136143-0.5486889,0.6896992-1.0655355,0.6125641c-0.0029011-0.1601944-0.0058031-0.3203888-0.008708-0.4805851
		C13.8045835,23.5202179,14.1384087,23.5231419,14.3469038,23.3285236z"/>
	<path style="fill:#4D6D67;" d="M48.3115349,14.440609c0.0623055,0.3523664-0.1052017,0.6261683-0.303997,0.8892527
		c-0.099781-0.0471077-0.1995659-0.0941935-0.2993088-0.1411819c-0.4044228-0.1364069-0.4904442-0.3489351-0.1578598-0.6614437
		C47.7904243,14.3780661,48.0535965,14.4323425,48.3115349,14.440609z"/>
	<path style="fill:#CFCFCF;" d="M38.7871513,14.8877249c0.1741562,0.2789907,0.5649834-0.0033426,0.7358742,0.2840385
		c-0.4463463,0.0334616-0.8926773,0.0669384-1.3389587,0.1001272c-0.0585136-0.0468359-0.1170731-0.0933838-0.1756401-0.1399488
		C38.2022934,14.8409977,38.4952202,14.8659544,38.7871513,14.8877249z"/>
	<path style="fill:#41625D;" d="M46.3405571,14.596076c-0.0221443,0.1484823-0.0674248,0.2769918-0.2554359,0.2578182
		c-0.1480141-0.0150957-0.1716499-0.1335068-0.1942596-0.24965C46.04076,14.6015224,46.1906586,14.5987988,46.3405571,14.596076z"/>
	<path style="fill:#A7A6A6;" d="M43.4926605,14.4678173c-0.0511551,0.0734653-0.0894547,0.1907072-0.1564064,0.2103634
		c-0.1063156,0.0312119-0.155941-0.0724888-0.1679115-0.1759014C43.2674866,14.4057732,43.3783913,14.4208918,43.4926605,14.4678173
		z"/>
	<path style="fill:#2E4643;" d="M6.0152125,28.7506218c0.0538311,0.0421829,0.1101203,0.081749,0.1597748,0.1283798
		c0.0124936,0.0117359,0.0037327,0.0461025,0.0047398,0.0700665c-0.0605364-0.0626945-0.1210728-0.125391-0.182868-0.1873665
		C5.9955997,28.7624187,6.0152116,28.7506218,6.0152125,28.7506218z"/>
	<path style="fill:#CFCFCF;" d="M49.6833687,22.4460087c0.17239-0.1051502,0.3447762-0.2103043,0.5175247-0.3155231
		c0.2189178,0.0277824,0.3264236,0.0394287,0.2698212,0.3660221c-0.1115646,0.6437092-0.5456963,1.1006985-0.850338,1.6088066
		c-0.4705734,0.7848663-1.0861893,1.5047455-1.8351173,2.0580692c-0.6556206,0.4843922-1.3870773,0.8656769-2.0466995,1.3452435
		c-1.2652512,0.9198933-2.6054611,1.7113705-3.9869194,2.4372997c-0.8924637,0.4689751-1.8513412,0.8410664-2.6656113,1.4185181
		c-0.5039253,0.3573685-1.2899666,0.3378544-1.5252151,1.0677795l-0.0006981,0.000679
		c-0.8481407-0.0288086-1.5648079,0.2487755-2.1173744,0.908741c-0.0976715,0.0035515-0.1953392,0.0070992-0.2930984,0.0105515
		c-0.3321991-0.0276604-0.5887756,0.0490532-0.6142769,0.4447861l0.0000992,0.000145
		c-0.2975311,0.0226822-0.5970917-0.0432701-0.8919258,0.0857277c-2.0981293,0.9180069-4.2759609,1.6275482-6.4568691,2.3026009
		c-2.3561249,0.7292786-4.8256969,0.8375244-7.2748928,0.9284477c-1.9005299,0.0705566-3.8059998,0.0335388-5.708786,0.0079727
		c-1.0971432-0.0147438-2.1918287,0.0602875-3.2906923,0.0356102c-0.5538282-0.0124397-0.9972553-0.2884865-1.5164366-0.3369408
		c-0.8061438-0.0752373-1.4825354-0.4985161-2.1518135-0.9038658c-0.2444215-0.148037-0.4160576-0.4190979-0.0083184-0.6357346
		c0.7237449,0.0635643,1.4474893,0.1271286,2.1712346,0.1906929c0.1208086,0.369854,0.3931894,0.49646,0.7558937,0.6228371
		c0.6639452,0.2313423,1.3838863,0.2379684,2.0349894,0.3174667c1.143857,0.1396637,2.3226328,0.227356,3.4901695,0.2556305
		c1.9850206,0.0480728,3.9588003-0.1385078,5.9374342-0.2732887c2.2819729-0.1554489,4.5362225-0.4015617,6.718895-1.1126404
		c1.4889984-0.4850922,2.9963341-0.9076424,4.450491-1.5075722c1.5021782-0.6197395,2.9135323-1.4211731,4.3980598-2.0733261
		c0.7750053-0.340456,1.5207062-0.7489872,2.2727203-1.1400757c0.8834343-0.4594173,1.5692062-1.2067413,2.5114899-1.6140079
		c0.6387444-0.2760715,1.4392891-0.4654179,1.8397255-1.0612926c0.5750237-0.8556824,1.5465813-1.1251869,2.2895508-1.7120094
		c0.6675072-0.5272198,1.2906036-1.1662426,2.0696754-1.5724506c0.3069763-0.1600571,0.3238792-0.4859467,0.2769852-0.8023643
		C48.7588272,23.2528057,49.4341621,23.0432091,49.6833687,22.4460087z"/>
	<path style="fill:#DFE0E0;" d="M7.2357306,35.2809448c-0.4077392,0.2166367-0.2361031,0.4876976,0.0083184,0.6357346
		c0.6692781,0.4053497,1.3456697,0.8286285,2.1518135,0.9038658c0.5191813,0.0484543,0.9626083,0.324501,1.5164366,0.3369408
		c1.0988636,0.0246773,2.1935492-0.050354,3.2906923-0.0356102c1.9027863,0.0255661,3.8082561,0.0625839,5.708786-0.0079727
		c2.4491959-0.0909233,4.9187679-0.1991692,7.2748928-0.9284477c2.1809082-0.6750526,4.3587399-1.384594,6.4568691-2.3026009
		c0.2948341-0.1289978,0.5943947-0.0630455,0.8919258-0.0857277c-0.7133255,0.6720352-1.7010384,0.7744026-2.5216293,1.2169075
		c-0.8807106,0.4749184-1.8695202,0.6870651-2.7829227,1.0599174c-0.7462788,0.3046379-1.7033653,0.4253387-2.5719643,0.6017952
		c-1.1220131,0.2279358-2.2423553,0.464119-3.36479,0.6899261c-0.1952477,0.0392799-0.3973103,0.0634842-0.5961666,0.0630913
		c-1.8827934-0.0037193-3.7611084,0.2537842-5.6320343,0.2393951c-1.4502888-0.011158-2.9113197-0.0794182-4.365449-0.0668983
		c-1.1729212,0.0100937-2.3408642,0.0438347-3.4979334-0.1704483c-0.9218922-0.1707268-1.7428203-0.6185951-2.5545688-1.0525322
		c-0.5111184-0.2732239-0.7237587-0.7537575-0.420712-1.3395004C6.5781446,35.0582657,6.9207902,35.1119194,7.2357306,35.2809448z"
		/>
	<path style="fill:#DFE0E0;" d="M37.5608139,32.4322243c0.2352486-0.7299252,1.0212898-0.7104111,1.5252151-1.0677795
		c0.81427-0.5774517,1.7731476-0.949543,2.6656113-1.4185181c1.3814583-0.7259293,2.7216682-1.5174065,3.9869194-2.4372997
		c0.6596222-0.4795666,1.3910789-0.8608513,2.0466995-1.3452435c0.7489281-0.5533237,1.3645439-1.2732029,1.8351173-2.0580692
		c0.3046417-0.5081081,0.7387733-0.9650974,0.850338-1.6088066c0.0566025-0.3265934-0.0509033-0.3382397-0.2698212-0.3660221
		c0.1797066-0.3774052,0.3731308-0.746376,0.6680756-1.0507641c0.281105,0.1186562,0.3400345,0.3506966,0.3096123,0.6218758
		c-0.1855698,1.6542549-0.9193878,2.9494247-2.1802902,4.0970592c-0.9796753,0.8916721-2.02742,1.6878376-3.1095276,2.3893108
		c-1.3113022,0.8500423-2.6647301,1.6625729-4.0687141,2.3852615c-1.1683388,0.6013889-2.4621086,0.9584942-3.5223885,1.7739849
		C38.0846367,32.5110588,37.8094482,32.4232674,37.5608139,32.4322243z"/>
	<path style="fill:#DFE0E0;" d="M35.4427414,33.3416443c0.5525665-0.6599655,1.2692337-0.9375496,2.1173744-0.908741
		c-0.0964355,0.5004311-0.4170837,0.7058678-0.9062309,0.6839333C36.2322388,33.0979233,35.8890266,33.49683,35.4427414,33.3416443z
		"/>
	<path style="fill:#DFE0E0;" d="M34.5353661,33.7969818c0.0255013-0.3957329,0.2820778-0.4724464,0.6142769-0.4447861
		C35.1141205,33.7342491,34.8632813,33.8188553,34.5353661,33.7969818z"/>
	<path style="fill:#3A5956;" d="M13.6455374,24.2596283c0.5168467,0.0771351,0.8306608-0.1989498,1.0655355-0.6125641
		c0.3465872-0.0541267,0.6490955-0.1975098,0.900878-0.4439507c0.7050314,0.1466827,1.5395384-0.3106346,1.6655798-0.9127293
		l0.0001354,0.0008488c0.0554771-0.000103,0.1109333-0.0002289,0.1663895-0.0003529
		c0.0439529,0.0000553,0.0878887,0.0009384,0.1318932,0.0026493c0.0518742-0.0486946,0.1036644-0.0973892,0.1554527-0.1460876
		c0.051693-0.0015488,0.1033878-0.0030975,0.1550789-0.0046444c0.2195168,0.0001621,0.4448128,0.0087662,0.4485512-0.3066788
		l0.0029526,0.0000973c0.0532112-0.0503731,0.1064205-0.1007614,0.1596317-0.1511497
		c0.0466499-0.0012875,0.0933018-0.0013866,0.1398754-0.0003376c0.293354,0.3032169,0.5414162,0.1151886,0.7885818-0.0736065
		c0.6086903-0.4649448,1.2967434-0.6231689,2.0480843-0.5213718c0.0890083,0.0120583,0.2103271,0.0498257,0.2488766,0.1154804
		c0.0820751,0.1397877-0.0429401,0.2764282-0.1470966,0.2874069c-1.0340462,0.1089935-1.5701351,1.2194881-2.6292019,1.2915707
		c-0.2328339,0.0158482-0.5244808,0.1437283-0.669239,0.3189754c-0.9313641,1.127552-2.4576893,1.4597569-3.3910131,2.5573883
		c-0.3323565,0.3908672-0.1620398,0.9525661,0.0467281,1.3163776c0.2306757,0.4019928,0.5730047,0.0575027,0.7846479-0.1792965
		c0.2491417-0.2787571,0.5399532-0.4539566,0.9057274-0.4675026c0.6542912-0.0242252,0.8897533-0.8610249,1.5898685-0.7966118
		c0.1946831,0.0179138,0.3957729-0.0337543,0.5937824-0.0535812c-0.1354961,0.3842602-0.4697437,0.5822124-0.7971992,0.7279587
		c-0.7197723,0.3203621-1.4217854,0.668148-2.0921907,1.080862c-0.1982164,0.0046711-0.2986546,0.1058598-0.300457,0.304409
		l-0.0005655,0.0004807c-0.3847256-0.0811539-0.6695709,0.1310234-0.9581356,0.3287582
		c-0.1017342,0.0697117-0.2352085,0.1446495-0.1832743,0.2897949c0.0648642,0.181284,0.2447481,0.1224194,0.3861341,0.1342316
		c0.6071386-0.0044346,1.2142754-0.0088692,1.8214149-0.0133018c0.1489372,0.0051384,0.2978764,0.0102749,0.4468155,0.0154133
		c0.4666176,0.1898403,0.7986088,0.6221008,0.6744041,1.0260162c-0.1046505,0.3403301-0.5944633,0.4502258-1.0828724,0.365139
		c-1.0885773-0.1896343-1.5501823-0.0521202-2.4279861,0.5059834c1.6490374,0.2497349,3.2374954,0.3781204,4.8350697,0.0665817
		c0.8609581-0.1678905,1.7247601-0.3000393,2.6055679-0.3011494c0.5749569-0.0007267,1.1931038,0.1322079,1.6104393-0.4462032
		c0.0102386,0.2997971,0.3007374,0.400486,0.435133,0.6121521c-0.2455826,0.2541199-0.5327187-0.1689491-0.7689915,0.0384102
		c-0.7492981,0.6576042-1.5779858,0.8810043-2.6042747,0.9283371c-0.7268734,0.0335217-1.4683762-0.0501881-2.2094994,0.0299664
		c-0.8540993,0.0923729-1.753973,0.4229393-2.6512842-0.0601826c-0.364007-0.1959839-0.8226566,0.0662556-1.133482,0.4015007
		c-0.0025234-0.0444813-0.0043945-0.0891285-0.0056934-0.1337967c-0.0501566-0.0525513-0.1003122-0.1051006-0.1504688-0.1576538
		l-0.001277-0.0018044c-0.1761971-0.1547546-0.2099304-0.593626-0.6084328-0.3050766
		c-0.9728661-0.4206829-1.9691286-0.6113281-3.0157633-0.3067417c-0.1301394-0.1822834-0.4330349-0.1318245-0.5119839-0.3968029
		c-0.0480614-0.1613197-0.082963-0.3506241,0.1285601-0.3176899c1.0889616,0.1695442,0.9638996-0.5866661,0.9806414-1.2432365
		c0.0025415-0.099678,0.0018578-0.19944,0.0027113-0.2991104c0.0097017-0.6294556-0.3796186-0.7869167-0.9141636-0.7727356
		c-0.2176075-0.2405357-0.5166292-0.0967903-0.7708426-0.1633587c-0.0023642-0.1942348-0.0048895-0.3887234-0.0074139-0.5832081
		c0,0,0.01682-0.0232601,0.0167704-0.0235214c0.8194799-0.7214355,1.8922701-1.0370846,2.7425089-1.7579155
		C12.628212,24.7717934,13.2463751,24.6317673,13.6455374,24.2596283z M13.4389095,25.6958618
		c-0.1247358,0.2119961,0.0513535,0.3815975,0.1005421,0.5595284c0.0744762,0.2693977,0.3198814,0.2803669,0.5566645,0.2674255
		c0.1360836-0.0074368,0.2699661-0.050909,0.2758179-0.1966496c0.0103884-0.2587433-0.2301311-0.3071289-0.4025135-0.3869743
		C13.7954092,25.8585873,13.6823196,25.6418877,13.4389095,25.6958618z M10.8149347,30.2461662
		c-0.040554-0.0245914-0.0760717-0.0626373-0.1127949-0.0638409c-0.038166-0.0012474-0.0774975,0.0331192-0.1163187,0.0519161
		c0.0357304,0.0228405,0.0705109,0.0618572,0.1074543,0.064024C10.7310581,30.3004856,10.7709637,30.2665806,10.8149347,30.2461662z
		"/>
	<path style="fill:#0B1111;" d="M35.8677025,17.0023422c0.3277626,0.0225067,0.5206451-0.0975647,0.4852028-0.4590034
		l-0.0122414-0.0371857c0.1011543,0.0331287,0.2023087,0.0662575,0.3034592,0.0993843
		c0.1028786,0.7770424,0.6877136,0.2999783,1.0494957,0.4033279c0.0562248,0.0967216,0.1124535,0.1934433,0.1686821,0.2901649
		c-0.9255791-0.0789528-1.2055969,0.8076267-1.8094749,1.2098236c-0.4038963,0.0241871-0.9375648-0.1556377-1.0236969,0.4629631
		c-0.0504494,0.3623466-0.2669563,0.8976841,0.2257423,1.0772133c1.1608086,0.4229736,2.1334953,1.1649208,3.2090836,1.7192898
		c0.4380836,0.22579,0.3645172,0.3923626,0.3192711,0.6924343c-0.1599121,0.1257191-0.3198242,0.2514343-0.4797173,0.377552
		c-0.1482773,0.0599537-0.2965775,0.1195068-0.4448814,0.17906c-0.6450272,0.0269451-1.1459541,0.5684032-1.8153267,0.5084209
		c0.046978-0.1752148,0.5634041-0.3646679-0.0370369-0.5231457c-0.2302399-0.0607681-0.410717-0.2647591-0.4222527-0.5472202
		c0.5366135-0.093071,0.9448166,0.2817173,1.4256668,0.3934269c0.188076,0.0436916,0.3689461,0.0528889,0.4583397-0.1330376
		c0.1342659-0.2792664-0.1652031-0.2266769-0.2765923-0.3222885c-0.3444595-0.2956944-0.9008865-0.3762989-1.138649-0.6400528
		c-0.7512436-0.8333855-1.4906731-0.4711456-2.2739182-0.2124081c-1.0610046,0.073082-1.9075184,0.7323875-2.8779545,1.0529995
		c-0.1842194-0.001276-0.2897091,0.0939274-0.3298702,0.2691841c-0.5234261-0.006403-0.9822788,0.2596607-1.4824677,0.3513107
		c-0.6560993,0.1961651-1.3121986,0.3923302-1.9682999,0.5884914c0.1367378-0.8330231,0.3124104-1.6390858,1.2382259-1.9831161
		c0.1765652-0.0656109,0.2708931-0.2175274,0.2910995-0.4085884c1.2250443-0.7104378,2.439146-1.4406948,3.678545-2.1251392
		c1.020092-0.5633354,2.1239586-0.976923,3.0570679-1.6943188C35.5845146,17.4386539,35.9326782,17.3813095,35.8677025,17.0023422z
		 M34.3479881,19.740099c-1.1706963,0.6880054-2.3303795,1.1995068-3.4412899,2.1753273
		C33.0788765,21.6689167,34.2641602,20.9230595,34.3479881,19.740099z"/>
	<path style="fill:#233533;" d="M15.9178381,27.2887707c0.6704149-0.4127064,1.3724279-0.7604923,2.0922003-1.0808544
		c0.3274555-0.1457462,0.6617031-0.3436985,0.7971992-0.7279587c0.0968876-0.0520878,0.1936359-0.1042557,0.2903786-0.1564484
		c0.9772453-0.2321625,1.8167572-0.7269878,2.5859356-1.3559494c0.3339825-0.085886,0.4835529-0.5265808,0.894289-0.4647827
		c0.2257538,0.015501,0.4347401,0.0035095,0.4727421-0.2885647c0.1945057-0.0091724,0.3890114-0.018343,0.5835552-0.0273285
		c0.2004128,0.001749,0.4007835,0.0033073,0.6011543,0.0048676c0,0,0.0234509,0.0259113,0.0232811,0.0257397
		c0.0322876,0.6705742-0.7438431,0.3355713-0.9236584,0.7422848c-1.004282,0.5743484-1.9604359,1.2268829-2.9949913,1.7574883
		c-0.3374767,0.1730843-0.708128,0.142477-1.0264168,0.3841896c-1.0056248,0.7636814-2.1213474,1.3161259-3.3938074,1.491518
		C15.9190788,27.4915714,15.9184589,27.390173,15.9178381,27.2887707z"/>
	<path style="fill:#233533;" d="M28.6495914,21.4113426c-0.0202065,0.191061-0.1145344,0.3429775-0.2910995,0.4085884
		c-0.9258156,0.3440304-1.1014881,1.1500931-1.2382374,1.9831696c0.0027885,0.1561642,0.0055866,0.3122768,0.0083866,0.4683857
		c-0.0168648,0.1845913-0.1097946,0.2932091-0.3021526,0.3025227c-0.0693722-0.1295929-0.2242298-0.3477097-0.1953697-0.375576
		c0.4799004-0.4633961,0.0643444-1.0202827,0.1744537-1.5186424c0.0752487-0.3405952-0.2326355-0.4110165-0.4714298-0.4605484
		c-0.3434544-0.0712414-0.251152,0.2229729-0.2765961,0.3936157c-0.0329552,0.2210121-0.1242714,0.4334755-0.3531704,0.4096012
		c-0.5043011-0.052599-0.9404945,0.3193569-1.4456329,0.1952038l-0.0233517-0.0257683
		c0.1388912-0.3662663,0.6077957-0.3966789,0.7614822-0.7479229c0.4083366-0.3000946,0.8596344-0.5047989,1.3556328-0.6104259
		c0.0682087,0.124836,0.1814785,0.1595669,0.3133659,0.1571693c0.0513878,0.0696812,0.0859661,0.1947269,0.1992645,0.0605106
		c-0.066925-0.0195847-0.1338539-0.0391712-0.200779-0.0587578c-0.0001602-0.0561104-0.0003166-0.1122208-0.0004768-0.1683311
		C27.3078613,21.6003246,27.9349041,21.2950191,28.6495914,21.4113426z"/>
	<path style="fill:#3A5956;" d="M21.6835518,23.9675598c-0.7691784,0.6289616-1.6086903,1.1237869-2.5859356,1.3559494
		c0.0132084-0.2644291,0.1440582-0.4363136,0.4132366-0.4484196c0.3325081-0.0149536,0.6189785-0.210289,0.7775974-0.4182854
		C20.6682034,23.9588356,21.1414471,23.9076786,21.6835518,23.9675598z"/>
	<path style="fill:#3A5956;" d="M24.9968739,22.4439716c-0.1536865,0.351244-0.622591,0.3816566-0.7614822,0.7479229
		c-0.20047-0.0017033-0.4008408-0.0032616-0.6012535-0.0050106C23.8252831,22.4564228,24.455843,22.5323391,24.9968739,22.4439716z"
		/>
	<path style="fill:#3A5956;" d="M23.0505829,23.2142124c-0.038002,0.2920742-0.2469883,0.3040657-0.4727421,0.2885647
		C22.6006603,23.1857815,22.8244514,23.1980801,23.0505829,23.2142124z"/>
	<path style="fill:#0B1111;" d="M26.6638813,21.8241367c0.0001602,0.0561104,0.0003166,0.1122208,0.0004768,0.1683311
		l0.0015202-0.0017624c-0.1318932,0.0024071-0.245163-0.0323238-0.3133717-0.1571598
		C26.4562321,21.8303757,26.5600567,21.8272572,26.6638813,21.8241367z"/>
	<path style="fill:#A7A6A6;" d="M48.4530067,23.7985077c0.0469322,0.3164539,0.0300293,0.6423435-0.276947,0.8024006
		c-0.7790718,0.406208-1.4021683,1.0452309-2.0696754,1.5724506c-0.7429695,0.5868225-1.7145271,0.8563271-2.2895508,1.7120094
		c-0.4004364,0.5958748-1.2009811,0.7852211-1.8397255,1.0612926c-0.9422836,0.4072666-1.6280556,1.1545906-2.5114899,1.6140079
		c-0.7520142,0.3910885-1.497715,0.7996197-2.2727203,1.1400757c-1.4845276,0.652153-2.8958817,1.4535866-4.3980598,2.0733261
		c-1.4541569,0.5999298-2.9614925,1.02248-4.450491,1.5075722c-2.1826725,0.7110786-4.4369221,0.9571915-6.718895,1.1126404
		c-1.9786339,0.1347809-3.9524136,0.3213615-5.9374342,0.2732887c-1.1675367-0.0282745-2.3463125-0.1159668-3.4901695-0.2556305
		c-0.651103-0.0794983-1.3710442-0.0861244-2.0349894-0.3174667c-0.3627043-0.1263771-0.6350851-0.2529831-0.7558937-0.6228371
		c1.6102495-0.0359802,3.2204981-0.0719604,4.830759-0.1079979c0.0092783,0.4035492,0.2887039,0.3916626,0.5819902,0.4007034
		c0.4002075,0.0123367,0.83183-0.1165543,1.195735,0.0742073c1.1283226,0.5914726,2.3192654-0.1373024,3.4517708,0.2026215
		c1.0905056-0.8922119,2.4622078-0.4925995,3.6689301-0.6488876c2.1617928-0.2799759,4.2604141-0.6077385,6.2638626-1.4963455
		c0.4708214-0.2088203,0.9815483-0.4734192,1.4729576-0.5142212c1.2338448-0.1024551,2.1875114-0.9368134,3.4396858-1.1025009
		c0.9495773-0.1256523,1.9031181-0.8142033,2.8613281-1.2373581c0.3974152-0.1755009,0.6084213-0.4283409,0.5431328-0.8728828
		c1.2988243-0.6428509,2.5799637-1.3181515,3.8144646-2.0789375c0.6874428-0.1175137,1.2435684-0.5206585,1.7975578-0.8910656
		c1.2169876-0.8137112,2.6185799-1.3554668,3.6432076-2.4536057C47.6357346,24.6953297,47.8736343,23.9799328,48.4530067,23.7985077
		z"/>
	<path style="fill:#2E4643;" d="M41.5316734,28.0901203c-1.2345924,0.760704-2.5157318,1.4360046-3.8145676,2.0788345
		c-0.3460503,0.1148396-0.6920853,0.2296982-1.0381165,0.3445549c-0.0612602-0.1040592-0.1064568-0.2835274-0.1862602-0.3005314
		c-0.8101158-0.1725826-1.6193275-0.3393116-2.4493942-0.0630054c-1.2123566,0.403553-2.4772606,0.5371227-3.7423801,0.6072445
		c-0.6791,0.0376396-1.3418159,0.1437073-2.0112419,0.2232399c-0.8860321,0.1052704-1.7151337,0.4793663-2.6429863,0.4092464
		c-1.5166187-0.1146145-3.0185261,0.1293869-4.511261,0.3964405c-1.8598728,0.3327332-3.7223454,0.5833855-5.6112051,0.2100506
		c-0.3453064-0.0682487-0.7064695-0.0671902-0.9535198,0.270731c-0.0562048-0.1504784-0.1124086-0.3009605-0.1685829-0.4512711
		c0.0033293-0.100111,0.0066271-0.2003975,0.0099239-0.3006821c0.3107471-0.3351021,0.7693968-0.5973415,1.1334038-0.4013577
		c0.8973112,0.4831219,1.7971849,0.1525555,2.6512842,0.0601826c0.7411232-0.0801544,1.482626,0.0035553,2.2094994-0.0299664
		c1.026289-0.0473328,1.8549767-0.2707329,2.6042747-0.9283371c0.2362728-0.2073593,0.5234089,0.2157097,0.769083-0.0385227
		c0.3571968,0.0468559,0.7143021,0.0938263,1.0714111,0.1407948c1.5234432,0.369812,3.0001698-0.1630917,4.4404678-0.4289227
		c1.1069508-0.2043095,2.2236748-0.3505096,3.3284512-0.4464931c1.4968185-0.1300392,2.9065895-0.6253738,4.3591614-0.9078789
		c0.8650856-0.1682453,1.7812042-0.4176998,2.6623611-0.6644382C40.2397499,27.7025051,40.9052925,27.9562302,41.5316734,28.0901203
		z"/>
	<path style="fill:#233533;" d="M14.5707407,32.2669258c0.2470503-0.3379211,0.6082134-0.3389797,0.9535198-0.270731
		c1.8888597,0.3733349,3.7513323,0.1226826,5.6112051-0.2100506c1.4927349-0.2670536,2.9946423-0.511055,4.511261-0.3964405
		c0.9278526,0.0701199,1.7569542-0.3039761,2.6429863-0.4092464c0.669426-0.0795326,1.3321419-0.1856003,2.0112419-0.2232399
		c1.2651196-0.0701218,2.5300236-0.2036915,3.7423801-0.6072445c0.8300667-0.2763062,1.6392784-0.1095772,2.4493942,0.0630054
		c0.0798035,0.017004,0.125,0.1964722,0.1861076,0.3002491c-1.9923897,0.834322-3.9767456,1.6906872-6.0851688,2.204668
		c-0.1371841-0.1665573-0.2336674-0.0919991-0.3181362,0.0537033c-0.1636391,0.1479225-0.3709545,0.1437874-0.5712471,0.1640892
		c-0.0156994-0.3868446,0.6263561-0.4416885,0.4495125-0.9361839c-0.0937881-0.2622643-0.1242371-0.4260254-0.4866409-0.3998966
		c-0.5919476,0.0426731-1.1865139-0.0138092-1.6641312,0.4474583c-0.1168385,0.1128387-0.2900524,0.0080566-0.4266224,0.0227509
		c-1.2417946,0.133606-2.4971256,0.0721512-3.734066,0.3090057c-0.7076435,0.1355019-1.438715,0.1736107-2.1612587,0.1997757
		c-0.8157558,0.0295486-1.6279869,0.1142082-2.452322,0.0218239c-0.964344-0.108078-1.8882847,0.4205894-2.8681355,0.2672539
		C15.7307625,32.7691116,15.0466309,32.8264198,14.5707407,32.2669258z"/>
	<path style="fill:#848585;" d="M30.593668,32.7178955c2.1084232-0.5139809,4.0927792-1.3703461,6.0851688-2.204668
		c0.3461838-0.1145744,0.6922188-0.2294331,1.038269-0.3442726c0.0653,0.4445629-0.1457062,0.697403-0.5431213,0.8729038
		c-0.95821,0.4231548-1.9117508,1.1117058-2.8613281,1.2373581c-1.2521744,0.1656876-2.2058411,1.0000458-3.4396858,1.1025009
		c-0.4914093,0.040802-1.0021362,0.3054008-1.4729576,0.5142212c-2.0034485,0.888607-4.1020699,1.2163696-6.2638626,1.4963455
		c-1.2067223,0.1562881-2.5784245-0.2433243-3.6689301,0.6488876c-1.1325054-0.3399239-2.3234482,0.3888512-3.4517708-0.2026215
		c-0.363905-0.1907616-0.7955275-0.0618706-1.195735-0.0742073c-0.2932863-0.0090408-0.5727119,0.0028458-0.5819902-0.4007034
		c1.7205696-0.1646271,3.4511013-0.2606773,5.1596413-0.5084038c3.4597015-0.5016251,6.9368324-0.9291344,10.3068218-1.9198494
		c0.2003899-0.0200005,0.4077053-0.0158653,0.5716305-0.1640053C30.3819599,32.7534065,30.4878139,32.7356491,30.593668,32.7178955z
		"/>
	<path style="fill:#D5A113;" d="M14.1321535,31.8192406c0.0030107,0.5036125,0.3864498,1.0562057-0.1910572,1.4839478
		c-0.0863132-0.015667-0.17276-0.0302162-0.2592058-0.0447655c-0.0154819-0.1490669-0.0032701-0.3123245-0.1910696-0.3729973
		c0.1040134-0.5068207-0.3537979-0.4490471-0.6035242-0.6004372c0.2727737-0.3690815,0.1731272-0.5759583-0.2675724-0.6788845
		c-0.6952734-0.1623821-1.4265785,0.6465588-1.2503195,1.4039669c0.1703386-0.0303116,0.2394028-0.2618561,0.4419966-0.2248802
		c0.0219498,0.1234436,0.0438995,0.2468872,0.0658503,0.3703308c-0.0004282,0.1721764-0.0008554,0.3443489-0.0012836,0.5165253
		c0.0114899,0.046257,0.0229788,0.0925179,0.0344706,0.1387787c-0.0087452,0.063633-0.0174904,0.1272659-0.0262375,0.1909027
		c-1.4571838-0.3080139-2.0868177-1.1600494-1.8528528-2.5066185c0.1197729-0.0434952,0.1434917-0.1421185,0.144249-0.2537918
		l0.0058947-0.0122623c0.0457115-0.0478439,0.0914478-0.0957031,0.1371841-0.1435604l0.0114279-0.0112247
		c1.1235123-0.4255733,2.2177601-0.3107014,3.2916794,0.178709C13.7919054,31.4417324,13.9620295,31.6304874,14.1321535,31.8192406z
		"/>
	<path style="fill:#4D6D67;" d="M11.884201,34.0017281c0.0087471-0.0636368,0.0174923-0.1272697,0.0256529-0.1909866
		c0.0242634-0.0093536,0.0480146-0.0208855,0.0706711-0.0346756c0.6556311,0.1183624,1.3531876,0.3745193,1.7013655-0.517643
		c0.0864458,0.0145493,0.1728926,0.0290985,0.2592058,0.0447655c0.0539522,0.5122948-0.3182631,0.6081314-0.6874084,0.7000427
		C12.7979822,34.1166878,12.3404379,34.1886711,11.884201,34.0017281z"/>
	<path style="fill:#3F4B44;" d="M14.1321535,31.8192406c-0.1701241-0.1887531-0.3402481-0.3775082-0.5103703-0.5662613
		l0.0434055-0.0456009c0.1964607,0.0048199,0.3929195,0.0096397,0.5893793,0.0144577l0.0012589,0.0018291
		c0.0501528,0.0525532,0.100318,0.1051025,0.1504841,0.1576538c0.001298,0.0446682,0.0031691,0.0893154,0.0056925,0.1337967
		c-0.0032187,0.1001415-0.0065165,0.200428-0.0098457,0.300539C14.3121357,31.8167362,14.2221441,31.8179874,14.1321535,31.8192406z
		"/>
	<path style="fill:#3F4B44;" d="M10.1755981,31.2413197c-0.0007582,0.1116714-0.024477,0.2102947-0.1442499,0.2537899
		c-0.012599-0.0458717-0.0195656-0.0922375-0.0205612-0.1396599C10.065793,31.3172874,10.1206951,31.2793026,10.1755981,31.2413197z
		"/>
	<path style="fill:#567772;" d="M49.2129478,20.7731571c-0.0204849,0.5628567-0.5048676,0.0929871-0.7610703,0.3437481
		c-0.4476814,0.4381809-1.0443649,0.7005692-1.5023384,1.1909389c-0.5420952,0.5804443-1.3210526,0.9142094-2.0598755,1.2083263
		c-0.5406876,0.2152405-0.8351059,0.7107067-1.3387947,0.9383793c-0.1095085,0.0494976-0.219677,0.1510201-0.1485405,0.2997475
		c0.066246,0.1384945,0.2113266,0.1095142,0.3321571,0.1142654c0.438549,0.0172405,0.8573799-0.0661011,1.2019119-0.3471222
		c0.3273163-0.2669735,0.6909866-0.3938618,1.1051407-0.4020786c-0.1221085,0.4825687-0.9647369,0.2391472-0.9085732,0.9014587
		c-0.0472603,0.0034561-0.0945358,0.0063801-0.1419678,0.0086269c-0.6004562,0.0028019-1.1245766,0.2862473-1.6795464,0.4561596
		c-0.0500946,0.0455437-0.1001892,0.0910854-0.1502876,0.1366234c-0.8187141,0.1974583-1.5770988,0.6055012-2.4418182,0.658432
		c-0.2483749,0.0151997-0.415535,0.2667961-0.433239,0.5522423c-0.2012253,0.0004196-0.4024467,0.0008392-0.6036682,0.0012608
		c-0.4458847-0.3260365-0.6814613-0.6582775-0.094944-1.0897961c0.0877495-0.0645618,0.0677757-0.2755547,0.097641-0.418808
		c0.2866592-0.1543674,0.5776482-0.3012581,0.8592758-0.4643116c1.9076118-1.1044312,3.9565125-1.9493599,5.8052368-3.1617088
		c0.3034096,0.0358467,0.4944839-0.2045689,0.7428894-0.2972622C47.7836037,21.1444035,48.3440437,20.4294243,49.2129478,20.7731571
		z"/>
	<path style="fill:#567772;" d="M46.3433456,19.2718773c0.4034462-0.1562061,0.8069-0.3124084,1.2103348-0.468504
		c0.0367584,0.1822395-0.0944557,0.4173756,0.1402359,0.5306129c0.0520401,0.0251102,0.2188377-0.0533257,0.2365494-0.1127663
		c0.133255-0.4471703,0.5509987-0.5023289,0.8778801-0.7037182c0.690731-0.4255543,1.4121017-0.8149509,1.6452484-1.7274799
		c0.0904655-0.3540859,0.4682465-0.620842,0.8874702-0.7013092c-0.0450592,0.3428993-0.0901184,0.6858006-0.1353111,1.0290337
		c-0.8824615,1.4222622-1.8627663,2.7530689-3.3729057,3.58255c-0.4985161,0.2738228-1.0841141,0.3894081-1.4940758,0.8241768
		c-0.6454468,0.0890865-1.1342049,0.6323757-1.8127441,0.6255131c-0.0978928-0.1893768-0.1759834-0.3836422-0.1490707-0.6038303
		c0.1999435-0.3184681,0.1497917-0.8128471,0.6792374-0.9090481c0.0933342-0.0169582,0.0182266-0.2188854-0.0811653-0.3090076
		c0.1992569-0.2101173,0.4849701-0.22192,0.7332153-0.3196621C46.1515656,19.962635,45.9254417,19.3395958,46.3433456,19.2718773z"
		/>
	<path style="fill:#4D6D67;" d="M51.3410645,16.0887127c-0.4192238,0.0804672-0.7970047,0.3472233-0.8874702,0.7013092
		c-0.2331467,0.912529-0.9545174,1.3019257-1.6452484,1.7274799c-0.3268814,0.2013893-0.7446251,0.2565479-0.8778801,0.7037182
		c-0.0177116,0.0594406-0.1845093,0.1378765-0.2365494,0.1127663c-0.2346916-0.1132374-0.1034775-0.3483734-0.1402359-0.5306129
		c0.9141312-0.8591499,1.9315147-1.6041946,2.6430206-2.6813946c0.2368584-0.3585958-0.030014-0.9601841,0.5700302-1.1022425
		C51.3367386,15.1728935,51.2515717,15.6776857,51.3410645,16.0887127z"/>
	<path style="fill:#4D6D67;" d="M45.1329842,25.0208473c-0.0561829-0.6623383,0.7864456-0.4189167,0.9085541-0.9014854
		l0.0060425-0.0068092c0.1672707-0.0028362,0.3442116,0.0216064,0.4493599-0.1580868
		c0.9828491-0.3502846,1.970562-0.6864967,2.7559509-1.4263763c0.0896606-0.0844707,0.2844009-0.0574093,0.4304466-0.0820713
		c-0.249176,0.5971909-0.924511,0.8067875-1.2302933,1.3525257c-0.5794106,0.1813889-0.8173103,0.8967857-1.4807968,0.9467506
		c-0.1651955-0.3005619-0.3399773-0.4169483-0.6087761-0.0839539
		C46.0436783,25.0575142,45.6156349,25.1486912,45.1329842,25.0208473z"/>
	<path style="fill:#41625D;" d="M46.3387299,21.5243244c0.4100037-0.4346199,0.9956017-0.5502052,1.4941177-0.824028
		c1.5101395-0.8294811,2.4904442-2.1602879,3.3729057-3.58255c0.3697662,0.2377415,0.3448448,0.4987793,0.0603485,0.7931843
		c-0.3614464,0.3740273-0.7848854,0.6985321-0.991993,1.2006378c-0.4235344,0.3140507-0.7160149,0.7259617-0.9066124,1.2139664
		c-0.0514832,0.1492634-0.1029701,0.2985268-0.1545029,0.4477062c-0.8689499-0.3438168-1.42939,0.3711624-2.1204567,0.6290379
		c-0.2484055,0.0926933-0.4394798,0.3331089-0.7429657,0.2971535
		C46.3459091,21.6409893,46.3423195,21.5826569,46.3387299,21.5243244z"/>
	<path style="fill:#567772;" d="M49.3674965,20.3255348c0.1905975-0.4880047,0.483078-0.8999157,0.9066124-1.2139664
		C50.2703285,19.7390671,50.1565475,20.2844296,49.3674965,20.3255348z"/>
	<path style="fill:#567772;" d="M46.4969406,23.9544659c-0.1051483,0.1796932-0.2820892,0.1552505-0.4493599,0.1580868
		C46.1526794,23.9327183,46.2380142,23.696949,46.4969406,23.9544659z"/>
	<path style="fill:#3F4B44;" d="M13.6217833,31.2529793c-1.0739193-0.4894104-2.1681671-0.6042824-3.2916794-0.178709
		c-0.0193329-0.2318916,0.1020765-0.3726959,0.3001547-0.4641132c1.0467443-0.3047009,2.0430069-0.1140556,3.0158863,0.3066845
		c0.0063572,0.0968819,0.012701,0.1937103,0.0190439,0.2905369L13.6217833,31.2529793z"/>
	<path style="fill:#3F4B44;" d="M10.318676,31.085495c-0.0457363,0.0478573-0.0914726,0.0957165-0.1371841,0.1435604
		C10.2272358,31.1811905,10.2729559,31.1333427,10.318676,31.085495z"/>
	<path style="fill:#3F4B44;" d="M37.8623009,17.2990303c-0.0562286-0.0967216-0.1124573-0.1934433-0.1685181-0.2902546
		c0.0072861-0.3156033,0.085125-0.5800571,0.4567337-0.6323814c0.0810661,0.1152344,0.1661301,0.1380329,0.3124542,0.0832233
		c0.9875298-0.3699036,1.9953957-0.5101919,3.0321159-0.2168655c-0.0123749,0.3236675,0.0633621,0.5816345,0.4520836,0.6062393
		c0.4078064,0.4993248,0.839962,0.9710064,1.3906593,1.3224277c0.1673088,0.1067657,0.2606354,0.1306801,0.2736893-0.1069603
		c0.4133377-0.0285492,0.8266754-0.0571003,1.2399483-0.0861378c-0.0625496,0.1733456-0.1250343,0.3471775-0.1875229,0.5210075
		c-0.0466614-0.0003567-0.0931206,0.0025387-0.1393738,0.0086842c-0.2360077,0.0297947-0.4714394,0.066103-0.7082443,0.0868549
		c-0.1349373,0.0118256-0.1796799,0.0601292-0.079483,0.1601524c0.0432053,0.043129,0.1331978,0.0393906,0.201931,0.0569458
		c-0.0012703,0.1514606-0.0025444,0.3029232-0.0038185,0.4543839c-0.0135727,0.2119713-0.0271416,0.4239426-0.0405502,0.6357441
		c-0.2481422-0.0827217-0.4223747-0.0360699-0.4536591,0.2599583c-0.4169197-0.1000404-0.7280159,0.5540485-1.1852989,0.1663151
		c-1.2967682-0.8758888-2.7444458-1.4795551-4.090065-2.2673168C38.3048248,17.711401,38.5549431,17.3177299,37.8623009,17.2990303z
		"/>
	<path style="fill:#202826;" d="M38.1505165,16.3763943c-0.3716087,0.0523243-0.4494476,0.3167782-0.4567337,0.6323814
		c-0.3619461-0.10326-0.9467812,0.3738041-1.0497208-0.4035778c0.1115952-0.0648537,0.2232513-0.1293678,0.3349037-0.1938801
		c0.3337822-0.0117588,0.5619011-0.1937199,0.7385941-0.458519c0.1484528,0.0017424,0.2969017,0.0034847,0.4453163,0.0053701
		C38.1587296,16.0976734,38.1546249,16.2370319,38.1505165,16.3763943z"/>
	<path style="fill:#0B1111;" d="M44.851532,17.9788074c-0.4133377,0.0285511-0.8266754,0.0571022-1.2399826,0.0856247
		c-0.0135193-0.0455856-0.0212173-0.0921135-0.0230522-0.1396103c0.7347488-0.0830212,1.3531227-0.5727863,2.1287003-0.5603886
		c0.5439034,0.0086937,1.022541-0.2654667,1.5194664-0.5159035c0.4556999-0.2296638,0.9708519-0.4885883,1.5350838-0.459425
		c-0.0007095,0.1536121-0.0014153,0.3072243-0.0021248,0.4608364c-0.0584755,0.0780582-0.1345367,0.1484337-0.1725464,0.2354336
		c-0.2344627,0.5366039-0.499012,0.9673805-1.2193642,0.6851292c-0.212574-0.0832882-0.4929085,0.0063782-0.7421303,0.0165634
		c-0.214016-0.0430202-0.4116631,0.0003433-0.5960083,0.1134377c-0.1518669,0.0058155-0.30373,0.0116329-0.4555969,0.0174484
		C45.3398285,17.9382401,45.0956802,17.9585228,44.851532,17.9788074z"/>
	<path style="fill:#202826;" d="M48.7717476,16.3891048c-0.5642319-0.0291634-1.0793839,0.2297611-1.5350838,0.459425
		c-0.4969254,0.2504368-0.975563,0.5245972-1.5194664,0.5159035c-0.7755775-0.0123978-1.3939514,0.4773674-2.1285019,0.5603771
		l0.0207329-0.0097618c0.0029793-0.1072292,0.0059586-0.2144623,0.0089378-0.3216915
		c0.0212898-0.2759895,0.2469101-0.2315502,0.4259491-0.3082676c1.134861-0.4862766,2.4286728-0.44063,3.5187759-1.0647793
		c0.0894394,0.0000134,0.1788864,0.0000248,0.2685738,0.0002346c0.2279091,0.0249882,0.4498901,0.0398979,0.4809914-0.2766523
		c0.2988853,0.1031523,0.7526207-0.2686596,0.9017563,0.293992C49.0668869,16.2883053,48.9193153,16.3387051,48.7717476,16.3891048z
		"/>
	<path style="fill:#233533;" d="M47.5630913,16.2203102c-1.0901031,0.6241493-2.3839149,0.5785027-3.5187759,1.0647793
		c-0.179039,0.0767174-0.4046593,0.0322781-0.4259529,0.3083744c-0.0583916,0.0598373-0.1167831,0.1195679-0.1751747,0.1792965
		c-0.2325363-0.2301636-0.5427437-0.4012585-0.5882988-0.7736149c0.9416237-0.2483978,1.8970566-0.429781,2.8508568-0.6233368
		c0.473259-0.0960388,1.057415,0.086422,1.4102287-0.4277916c0.1453705-0.0018797,0.2907295-0.0037603,0.4360847-0.005579
		C47.5557251,16.0351028,47.5594063,16.1277065,47.5630913,16.2203102z"/>
	<path style="fill:#4D6D67;" d="M43.8942451,19.9022636c0.0135689-0.2119713,0.0271378-0.4239426,0.0405579-0.6359367
		c0.04636,0.0468216,0.092865,0.0936642,0.1393776,0.1405087c0.0110893,0.1292248,0.0243378,0.2555065,0.2109299,0.2047081
		c0.1931458-0.0525837,0.4051437-0.0838413,0.3909569-0.3607445c0.0075073-0.1937428,0.1137695-0.2835865,0.3020706-0.287117
		c0.0608406,0.112009,0.1112251,0.0998707,0.1531296-0.0129013c0.0673065-0.1144543,0.1774368-0.1370373,0.2973595-0.1386223
		c0.2236977-0.0018215,0.4421806,0.0005741,0.6590271-0.0951099c0.1906204-0.0841141,0.4682541-0.3408356,0.5938759-0.1093864
		c0.1750679,0.3225555-0.2582359,0.3266602-0.4206848,0.476614c-0.0328674,0.0303383-0.0646324,0.0618744-0.0969048,0.0928555
		c0.0597992,0.0315456,0.119606,0.0630932,0.1794052,0.0946922c-0.4179039,0.0677719-0.1917801,0.6908112-0.6348648,0.7367363
		c-0.4453125-0.6000271-0.8199539-0.2703457-1.1922417,0.0914459
		C44.2743874,20.1425877,44.0055199,20.2697639,43.8942451,19.9022636z"/>
	<path style="fill:#567772;" d="M44.978138,18.9636822c-0.1883011,0.0035305-0.2945633,0.0933743-0.3020592,0.2873077
		c-0.2006226,0.0520763-0.4012642,0.1039619-0.6018982,0.1558456c-0.0465126-0.0468445-0.0930176-0.0936871-0.1393776-0.1405087
		c0.0014267-0.1514378,0.0027008-0.3029003,0.003788-0.4543514c0.2356224-0.0233841,0.5452309,0.0955544,0.5859795-0.3039627
		c0.0462532-0.0061455,0.0927124-0.0090408,0.1395226-0.0085583c0.4942932,0.1028538,0.7653084-0.1472569,0.9198837-0.581501
		c0.1518669-0.0058155,0.30373-0.0116329,0.4555969-0.0174179c0.0854073,0.1512032,0.0992203,0.3021736-0.0012703,0.4528217
		c-0.2196312,0.1310825-0.4893532,0.1956272-0.6096115,0.4588089c-0.1199875,0.0015774-0.2301178,0.0241604-0.2974319,0.1387711
		C45.0802193,18.9552917,45.0291748,18.959486,44.978138,18.9636822z"/>
	<path style="fill:#4D6D67;" d="M46.0383034,18.3533573c0.1004906-0.1506481,0.0866776-0.3016186,0.0012703-0.4528217
		c0.1843452-0.1131248,0.3819923-0.1564884,0.5960083-0.1134682C46.5857391,18.1334877,46.3862152,18.321703,46.0383034,18.3533573z
		"/>
	<path style="fill:#233533;" d="M48.7717476,16.3891048c0.1475677-0.0503998,0.2951393-0.1007996,0.4426651-0.1512203
		c-0.046032,0.2783337-0.0877762,0.5597763-0.4448433,0.6120148C48.7703323,16.6963291,48.7710381,16.542717,48.7717476,16.3891048z
		"/>
	<path style="fill:#233533;" d="M48.3126564,15.9438925c-0.0311012,0.3165503-0.2530823,0.3016405-0.4809914,0.2766523
		C47.8820381,15.9370718,48.0898857,15.9274902,48.3126564,15.9438925z"/>
	<path style="fill:#3A5956;" d="M47.1159744,15.9480171c-0.3528137,0.5142136-0.9369698,0.3317528-1.4102287,0.4277916
		c-0.9538002,0.1935558-1.9092331,0.374939-2.8508186,0.6233521c0.0000343,0.0000134,0.0046463,0.002615,0.0046463,0.002615
		c-0.0333939-0.0734406,0.0700264-0.295332-0.1639633-0.1511059c-0.1215477-0.0059948-0.2282295-0.0391293-0.288063-0.1577854
		C43.968071,16.3880005,45.4972,15.8846703,47.1159744,15.9480171z"/>
	<path style="fill:#4D6D67;" d="M42.407547,16.6928844c0.0598335,0.1186562,0.1665154,0.1517906,0.2882271,0.1577492
		c0.0547104,0.050354,0.1092529,0.1007481,0.1637993,0.1511402c0,0-0.004612-0.0025997-0.0046463-0.0026131
		c0.045517,0.3723412,0.3557243,0.5434361,0.5883751,0.7735386c0.0554543,0.0474091,0.1107903,0.0948792,0.1661263,0.1423492
		l-0.0207329,0.0097618c0.0016365,0.0475082,0.0093346,0.0940361,0.0228539,0.1396217
		c-0.0130844,0.2376671-0.106411,0.2137527-0.2737198,0.106987c-0.5506973-0.3514214-0.9828529-0.823103-1.3906593-1.3224277
		C42.0575829,16.6702023,42.2379189,16.6973228,42.407547,16.6928844z"/>
	<path style="fill:#3F4B44;" d="M7.4471126,28.6568947c0.4063258-0.7954559,1.5451293-1.1344852,2.5654979-0.763792
		C9.1264057,28.0435219,8.2828569,28.3371048,7.4471126,28.6568947z"/>
	<path style="fill:#41625D;" d="M17.2775307,22.2903843c-0.1260414,0.6020947-0.9605484,1.059412-1.6655798,0.9127293
		c-0.4338617-0.0337009-0.4383574-0.0390549-0.2636194-0.3135967c0.2028322,0.0007172,0.4244366,0.0747013,0.5718641-0.1446342
		l-0.0051498,0.0031185C16.4249172,22.7613811,16.7788143,22.3102951,17.2775307,22.2903843z"/>
	<path style="fill:#41625D;" d="M18.3350315,21.8361187c-0.0037384,0.3154449-0.2290344,0.3068409-0.4485512,0.3066788
		C17.900795,21.8428211,18.1132526,21.832653,18.3350315,21.8361187z"/>
	<path style="fill:#41625D;" d="M17.7314014,22.1474438c-0.0517883,0.0486965-0.1035786,0.0973911-0.1554508,0.1460876
		C17.6277103,22.2448349,17.6795559,22.1961384,17.7314014,22.1474438z"/>
	<path style="fill:#41625D;" d="M17.4440556,22.2908802c-0.0554562,0.000124-0.1109123,0.0002499-0.1663895,0.0003529
		C17.3328991,22.1810894,17.3883972,22.1956787,17.4440556,22.2908802z"/>
	<path style="fill:#41625D;" d="M18.4976158,21.6850662c-0.0532112,0.0503883-0.1064205,0.1007767-0.1596317,0.1511497
		C18.3911934,21.7858238,18.4444046,21.735445,18.4976158,21.6850662z"/>
	<path style="fill:#4D6D67;" d="M9.5378771,26.8339005c0.0025244,0.1944847,0.0050497,0.3889732,0.0074139,0.5832081
		c-0.2476435,0.0003471-0.4951286,0.0009403-0.7426033,0.0012703C8.9430609,27.091629,9.1594868,26.860857,9.5378771,26.8339005z"/>
	<path style="fill:#4D6D67;" d="M8.6791754,27.4326572c0.0343428,0.0012989,0.0686741,0.0010185,0.1027126-0.0009403
		C8.7483702,27.5206146,8.7143621,27.5342846,8.6791754,27.4326572z"/>
	<path style="fill:#4D6D67;" d="M37.7175598,15.9527988c-0.176693,0.2647991-0.4048119,0.4467602-0.7387428,0.4583473
		c-0.2308388-0.0892315-0.4895554-0.3661861-0.6381531,0.0950069l0.0122414,0.0371857
		c-0.3693352-0.2412872-0.8051071-0.0795822-1.1949844-0.1966228c-0.007019-0.0841465-0.013916-0.1686535-0.0208168-0.2531586
		c0.7070274-0.2269783,1.4788628-0.1164875,2.1741028-0.4319868C37.5169296,15.5682154,37.6973228,15.6932678,37.7175598,15.9527988
		z"/>
	<path style="fill:#3A5956;" d="M35.137104,16.0935574c0.0069008,0.0845051,0.0137978,0.1690121,0.0208168,0.2531586
		c-0.2258568,0.0426006-0.4343071,0.0528202-0.4732323-0.2536697C34.8354874,16.0932426,34.9862976,16.093401,35.137104,16.0935574z
		"/>
	<path style="fill:#2E4643;" d="M15.9201956,22.7448826c-0.1474276,0.2193356-0.3690319,0.1453514-0.5718641,0.1446342
		C15.4923697,22.6565075,15.7267885,22.7817631,15.9201956,22.7448826z"/>
	<path style="fill:#41625D;" d="M23.3445091,29.564991c-0.4174423,0.578352-1.0355892,0.4454174-1.6105461,0.4461441
		c-0.8808079,0.0011101-1.7446098,0.1332588-2.6055679,0.3011494c-1.5975742,0.3115387-3.1860323,0.1831532-4.8350697-0.0665817
		c0.8778038-0.5581036,1.3394089-0.6956177,2.4279861-0.5059834c0.488409,0.0850868,0.9782219-0.0248089,1.0828724-0.365139
		c0.1242046-0.4039154-0.2077866-0.8361759-0.6744118-1.0260143c0.6777782-0.2615509,1.4221172-0.0782337,2.1037884-0.3145924
		c0.2580147,0.0044365,0.5158997,0.0087547,0.7737827,0.013073c1.603775,0.0306091,3.112854-0.5824318,4.6964588-0.6965046
		c0.1577282-0.011364,0.3549194-0.0495186,0.4501991-0.2317677c0.2326469-0.0139217,0.4410858-0.0830593,0.6007843-0.2633801
		c0.3047314-0.0504684,0.6094608-0.1009388,0.914175-0.1514797c0.0120926,0.3219833-0.0057926,0.6111832-0.4527817,0.5969887
		c-0.2163086-0.0068703-0.3121662,0.133049-0.2843246,0.3459702c0.0244656,0.187109,0.1666813,0.2568665,0.3229809,0.2380295
		c0.6093941-0.0734386,1.3280144,0.2938004,1.7811298-0.4290085c0.1117401-0.1782436,0.2957764-0.1579018,0.4693336-0.1659489
		c1.0082455-0.0467415,2.005024,0.1949711,3.0285282,0.0707741c0.2866192-0.0347805,0.7346287-0.3064804,1.03829,0.0878048
		c-0.1312523,0.1846619-0.352581,0.1955681-0.5374832,0.2447834c-1.7885914,0.4760704-3.5812492,0.9368706-5.3727474,1.4020309
		c-0.2202702-0.2159081-0.2650948-0.0460281-0.3034782,0.1380119c-0.1513309,0.0039749-0.3026581,0.0079536-0.453989,0.0119324
		c-0.486599-0.0348587-0.9752769-0.0785561-1.3598347,0.3200893C24.144558,29.5652447,23.7445335,29.5651188,23.3445091,29.564991z
		 M26.0185909,28.4068451c-0.0182533,0.0419197-0.0600548,0.0931797-0.0481701,0.123148
		c0.0119915,0.0302429,0.0772476,0.039362,0.1191654,0.0577335c0.0182858-0.0417919,0.0602112-0.0930748,0.0482998-0.1227398
		C26.1256657,28.4345512,26.0608044,28.425251,26.0185909,28.4068451z M27.6314926,28.2385769
		c0.0418987,0.0182304,0.0930958,0.0599728,0.123085,0.0481091c0.0302086-0.0119514,0.039341-0.0771732,0.0577068-0.1190548
		c-0.041769-0.0182724-0.0930042-0.0601578-0.1226749-0.0482597C27.6591949,28.131567,27.6498909,28.196394,27.6314926,28.2385769z"
		/>
	<path style="fill:#0B1111;" d="M26.6689777,26.7039871c-0.3047314,0.0504684-0.6094608,0.1009388-0.9141521,0.1512394
		c-0.0338345-0.5155125-0.399189-0.4884567-0.761858-0.4657974c-0.0439873-0.0073681-0.0881729-0.0132561-0.1325531-0.0176582
		c-0.1605301-0.1939831-0.201128-0.6284962-0.6180897-0.3081875c-0.0974007-0.0034771-0.1948051-0.0069561-0.2922058-0.010437
		c-0.288805-0.5740108-0.7374592-0.4923611-1.2007065-0.2771282c-1.1069431,0.5143108-2.1336193,1.1706524-3.1716137,1.8072567
		c-0.1822376,0.1117706-0.3242855,0.227541-0.3443756,0.4505787c-0.6815338,0.2364788-1.4258728,0.0531616-2.103651,0.3147125
		c-0.1489315-0.0051403-0.2978706-0.0102768-0.4468842-0.0152798c0.0161533-0.1746788,0.1057415-0.2749348,0.2865086-0.2863312
		c1.0041313-0.0633049,1.7710934-0.7009125,2.6446838-1.0828953c0.8923149-0.3901691,1.7149372-0.8694515,2.5135117-1.4365578
		c0.5961723-0.4233704,1.0379467-0.8635597,1.2073231-1.5677261c0.1798153-0.4067135,0.955946-0.0717106,0.9236584-0.7422848
		c0.5053082,0.1243248,0.9415016-0.2476311,1.4458027-0.1950321c0.228899,0.0238743,0.3202152-0.1885891,0.3531704-0.4096012
		c0.025444-0.1706429-0.0668583-0.4648571,0.2765961-0.3936157c0.2387943,0.0495319,0.5466785,0.1199532,0.4714298,0.4605484
		c-0.1101093,0.4983597,0.3054466,1.0552464-0.1744537,1.5186424c-0.0288601,0.0278664,0.1259975,0.2459831,0.1952705,0.3754921
		c-0.0511017,0.0066261-0.0972176,0.0253601-0.1384487,0.0561161c-0.1475925-0.0224953-0.2973366-0.0357761-0.4423046-0.0695381
		c-0.2493286-0.0580654-0.4653187-0.1004391-0.6286545,0.1917038c-0.2010002,0.3595066,0.1692963,0.343853,0.2886734,0.4753704
		c0.1814632,0.1999207,0.4077473,0.3591576,0.6149368,0.5357475c0.088583,0.0656033,0.1772213,0.1311302,0.2658596,0.196661
		c0.0186749,0.0826283,0.0373497,0.1652584,0.0558834,0.2478466c-0.237093,0.1135502-0.6200581-0.3368797-0.6810837,0.0198193
		c-0.0682259,0.3987713,0.4055977,0.2649956,0.6664486,0.3124275C26.7747917,26.594717,26.7218838,26.6493492,26.6689777,26.7039871
		z M25.2266808,25.282341c-0.0220604,0.4152908,0.0871849,0.6472282,0.3924866,0.7648029
		c0.0926437,0.0356808,0.2317581,0.0048504,0.2230625-0.1072254C25.8188858,25.6390629,25.5653687,25.5148296,25.2266808,25.282341z
		"/>
	<path style="fill:#202826;" d="M23.3349152,23.9597759c-0.1693764,0.7041664-0.6111507,1.1443558-1.2073231,1.5677261
		c-0.7985744,0.5671062-1.6211967,1.0463886-2.5135117,1.4365578c-0.8735905,0.3819828-1.6405525,1.0195904-2.6446838,1.0828953
		c-0.1807671,0.0113964-0.2703552,0.1116524-0.2865086,0.2863312c-0.6070633,0.0042973-1.2142,0.0087318-1.8213673,0.0131931
		c0.029541-0.4738655,0.8232508-0.1810818,0.7553043-0.7528114l0.0005465-0.0004921
		c0.1007652-0.0000782,0.2015467-0.0001411,0.3023281-0.0002041c1.27246-0.1753922,2.3881826-0.7278366,3.3938074-1.491518
		c0.3182888-0.2417126,0.68894-0.2111053,1.0264168-0.3841896C21.3744793,25.1866589,22.3306332,24.5341244,23.3349152,23.9597759z"
		/>
	<path style="fill:#233533;" d="M26.6618862,29.0953388c1.7914982-0.4651604,3.584156-0.9259605,5.3727474-1.4020309
		c0.1849022-0.0492153,0.4062309-0.0601215,0.5374336-0.2448616c0.0985222-0.006876,0.1970901-0.0136738,0.2956848-0.0203342
		c0.2153854-0.0554028,0.4300194-0.1139469,0.6462212-0.1659832c1.2018661-0.2892838,2.358593-0.7594604,3.5980225-0.8981342
		c-0.0024681,0.0550385-0.00494,0.110075-0.0073586,0.1651478c-0.0515938,0.0469856-0.1032372,0.0939407-0.1548843,0.1408939
		c-0.4028168,0.0436821-0.3058319,0.833704-0.8948898,0.599287c-0.0302353-0.2078018-0.0870285-0.3574162-0.3105545-0.1417465
		c-1.3740692,0.1290112-2.6337433,0.683363-3.9412193,1.0599766c-0.855175,0.2335072-1.7130165,0.4577427-2.5649376,0.7025719
		c-1.4787102,0.4249592-2.9825344,0.7743683-4.3871136,1.4276409c-0.3571091-0.0469685-0.7142143-0.0939388-1.0714111-0.1407948
		c-0.1344872-0.2115536-0.4249859-0.3122425-0.4352245-0.6120396c0.4001312,0.0001869,0.8001556,0.0003128,1.2001972,0.0003891
		c0.5037556,0.1077595,0.9441223-0.0537167,1.3598194-0.3200378c0.1513309-0.0039787,0.3026581-0.0079575,0.4540138-0.0116768
		C26.4884109,29.2507954,26.5985947,29.2244244,26.6618862,29.0953388z"/>
	<path style="fill:#233533;" d="M13.4389095,25.6958618c0.2434101-0.0539742,0.3564997,0.1627254,0.5305109,0.24333
		c0.1723824,0.0798454,0.4129019,0.128231,0.4025135,0.3869743c-0.0058517,0.1457405-0.1397343,0.1892128-0.2758179,0.1966496
		c-0.236783,0.0129414-0.4821882,0.0019722-0.5566645-0.2674255C13.490263,26.0774593,13.3141737,25.9078579,13.4389095,25.6958618z
		"/>
	<path style="fill:#2E4643;" d="M15.6168251,27.593668c0.0679464,0.5717297-0.7257633,0.2789459-0.7553043,0.7528114
		c-0.1413574-0.0118389-0.3212414,0.0470257-0.3861055-0.1342583c-0.0519342-0.1451454,0.0815401-0.2200832,0.1832743-0.2897949
		C14.9472542,27.7246914,15.2320995,27.5125141,15.6168251,27.593668z"/>
	<path style="fill:#2E4643;" d="M13.6651888,31.2073784c-0.0063429-0.0968266-0.0126867-0.193655-0.0190439-0.2905369
		c0.398489-0.2886066,0.4322224,0.1502647,0.6084194,0.3050213C14.0581083,31.2170181,13.8616495,31.2121983,13.6651888,31.2073784z
		"/>
	<path style="fill:#2E4643;" d="M15.9196997,27.5929718c-0.1007814,0.0000629-0.2015629,0.0001259-0.3023281,0.0002041
		c0.0018215-0.1985378,0.1022596-0.2997265,0.3004761-0.3043976C15.9184589,27.390173,15.9190788,27.4915714,15.9196997,27.5929718z
		"/>
	<path style="fill:#2E4643;" d="M10.8149347,30.2461662c-0.0439711,0.0204144-0.0838766,0.0543194-0.1216593,0.0520992
		c-0.0369434-0.0021667-0.0717239-0.0411835-0.1074543-0.064024c0.0388212-0.0187969,0.0781527-0.0531635,0.1163187-0.0519161
		C10.738863,30.1835289,10.7743807,30.2215748,10.8149347,30.2461662z"/>
	<path style="fill:#2E4643;" d="M14.4063101,31.381319c-0.0501652-0.0525513-0.1003304-0.1051006-0.1504831-0.1576538
		C14.3059978,31.2762184,14.3561535,31.3287678,14.4063101,31.381319z"/>
	<path style="fill:#4D6D67;" d="M32.8677254,27.4279785c-0.098568,0.006794-0.1971359,0.0135918-0.2956581,0.0204678
		c-0.3036118-0.394207-0.7516212-0.1225071-1.0382404-0.0877266c-1.0235043,0.124197-2.0202827-0.1175156-3.0285282-0.0707741
		c-0.1735573,0.0080471-0.3575935-0.0122948-0.4693336,0.1659489c-0.4531155,0.7228088-1.1717358,0.3555698-1.7811298,0.4290085
		c-0.1562996,0.018837-0.2985153-0.0509205-0.3229809-0.2380295c-0.0278416-0.2129211,0.0680161-0.3528404,0.2843246-0.3459702
		c0.4469891,0.0141945,0.4648743-0.2750053,0.4527817-0.5969887c0.0529232-0.0545654,0.1058311-0.1091976,0.1587391-0.1638355
		l-0.0071049,0.0041161c0.1931667,0.0426922,0.3863525,0.085453,0.5795403,0.1282139
		c0.3813591,0.0541611,0.7216778,0.0551414,1.1253109-0.0866699c0.5720119-0.2009735,1.1431599-0.4880981,1.7763901-0.5021801
		c-0.1977596,0.5454693-0.2187557,0.8440189,0.5554905,0.6361923c0.4070454-0.1092587,0.8039131-0.2610722,1.2103043-0.371706
		c1.0515251-0.2862625,2.0993538-0.5905704,3.0776176-1.107523c0.875-0.4623833,1.7718811-0.9075909,2.7043762-1.2290611
		c0.7100449-0.2447834,1.1516304-0.7980824,1.8782883-1.0976334c-0.4479027-0.2675686-0.6474304-0.0706444-0.8620262,0.1128254
		c-0.2801476,0.2395153-0.4981308,0.2408295-0.5624046-0.1887493c0.1599197-0.1257153,0.3198318-0.2514305,0.4796982-0.3772373
		c0.4634705-0.1198788,0.9344673-0.2185917,1.3481789-0.4787331c0.4718933,0.0326595,0.813076-0.293541,1.2184067-0.4435902
		c0.3263016,0.0167637,0.5764885-0.0686016,0.6052437-0.4510784c0.4313469,0.0052185,0.8440056-0.0615711,1.2085495-0.3137169
		c0.0981064-0.0121651,0.1962166-0.024332,0.294323-0.036499c0.5048866,0.0441933,0.3236542,0.8677502,0.919075,0.8091068
		c-0.0269127,0.2201881,0.051178,0.4144535,0.1490746,0.6037502c-0.1754646,0.5911846-0.7603531,0.5956516-1.1884308,0.8076649
		c-1.7163734,0.8500404-3.444252,1.6768589-5.1678734,2.5122662c-0.0293617-0.1041222-0.022583-0.2741299-0.1889763-0.2158337
		c-0.1596222,0.0559254-0.1001167,0.2358398-0.1176338,0.3671741c-0.0995865,0.0015965-0.1991653,0.003191-0.2987518,0.0047894
		c-1.421772,0.3787785-2.8101311,0.8779545-4.2592888,1.1613197C33.0095482,26.8450756,32.9106445,27.1427326,32.8677254,27.4279785
		z"/>
	<path style="fill:#3F4B44;" d="M26.520649,25.7632504c-0.2072468-0.1765156-0.4335308-0.3357525-0.614994-0.5356731
		c-0.1193771-0.1315174-0.4896736-0.1158638-0.2886734-0.4753704c0.1633358-0.2921429,0.3793259-0.2497692,0.6286545-0.1917038
		c0.144968,0.033762,0.2947121,0.0470428,0.4420643,0.0689545c0.193325,0.4572639,0.498251,0.1750107,0.7490864,0.0949497
		c0.9983845-0.3186684,1.9752426-0.6977291,2.9819813-0.998291c1.0770855-0.3215714,2.1201458-0.757164,3.1778202-1.1436462
		c0.1444283-0.0527763,0.29319-0.1151009,0.2576637-0.3058949c-0.0085716-0.0460224-0.1176872-0.115675-0.1658478-0.1054077
		c-0.4721565,0.1006336-1.0062714,0.1090603-1.3983841,0.3479061c-0.9992237,0.6086521-2.1219769,0.8048611-3.2062664,1.1358318
		c0.0016041-0.1467838,0.0032101-0.2935658,0.0048122-0.4403496c0.5001888-0.09165,0.9590416-0.3577137,1.4827118-0.350956
		c0.2204762,0.0451698,0.3177891-0.0600243,0.3296261-0.2695389c0.9704361-0.320612,1.8169498-0.9799175,2.8779583-1.0530319
		c0.5326767,0.2651596,0.8921852,0.8994427,1.615654,0.7579441c0.0659142,0.0505733,0.1318283,0.1011448,0.1977425,0.1517181
		l-0.0083961,0.0048008c0.0116844,0.2823906,0.1921616,0.4863815,0.4224014,0.5471497
		c0.600441,0.1584778,0.0840149,0.3479309,0.0370979,0.5230312c-0.095417,0.1465683-0.3228226,0.2045593-0.2928505,0.4355793
		c-0.1239395,0.0049973-0.2380981,0.0300312-0.306118,0.1495171c-0.4036942,0.1034565-0.8073883,0.206913-1.2110825,0.3103733
		c-0.0249901-0.2676239-0.1687241-0.3406792-0.4121552-0.2525139c-0.3746033,0.1356754-0.7449646,0.28512-1.1250381,0.4032745
		c-1.1558189,0.3593121-2.2526627,0.9144764-3.4756145,1.0514889c0.0310631-0.2109776,0.1840839-0.2454166,0.3632126-0.311142
		c1.75453-0.6437378,3.502161-1.3062916,5.251749-1.9634953c0.1861115-0.0069427,0.3834915-0.0578175,0.3908005-0.2619476
		c0.0084457-0.2358761-0.2674522-0.2564621-0.3929863-0.2477875c-0.7538109,0.0520954-1.4874458,0.1996613-2.1107597,0.6741524
		c-0.2220955-0.0295105-0.4188385,0.041832-0.605751,0.1522789c-0.2220402-0.0140266-0.4356232-0.0146141-0.4582176,0.2883263
		c-0.1511879,0.0014763-0.3023796,0.0029507-0.4535694,0.0044231c-0.4977818-0.2457581-0.7592468-0.0113926-0.9100018,0.4479008
		c-0.2007198,0.0042343-0.4014378,0.0084667-0.6021576,0.0126991c-1.0280018,0.0572586-1.8692513,0.7343178-2.8784275,0.870615
		C26.6366882,25.3134174,26.516407,25.5399036,26.520649,25.7632504z"/>
	<path style="fill:#567772;" d="M35.4443932,24.1107693c0.0680199-0.1194859,0.1821785-0.1445198,0.3060837-0.149538
		c0.6111908-0.1827717,1.2237816-0.361166,1.8328209-0.5509529c0.180748-0.0563278,0.285511-0.1904926,0.2753296-0.3929119
		c0.148304-0.0595531,0.2966042-0.1191063,0.4448814-0.17906c0.0642471,0.4291763,0.2822304,0.4278622,0.5623779,0.1883469
		c0.2145958-0.1834698,0.4141235-0.380394,0.8620262-0.1128254c-0.7266579,0.299551-1.1682434,0.85285-1.8782883,1.0976334
		c-0.9324951,0.3214703-1.8293762,0.7666779-2.7043762,1.2290611c-0.9782639,0.5169525-2.0260925,0.8212605-3.0776176,1.107523
		c-0.4063911,0.1106339-0.8032589,0.2624474-1.2103043,0.371706c-0.7742462,0.2078266-0.7532501-0.090723-0.5555344-0.6362534
		c0.1924-0.048502,0.3903847-0.0814495,0.5763855-0.1479301c1.1202316-0.4004059,2.2377129-0.8084946,3.3561172-1.2140141
		C34.6992989,24.6400719,35.2096786,24.6485023,35.4443932,24.1107693z"/>
	<path style="fill:#202826;" d="M40.1313019,21.9818554c-0.4136543,0.2602196-0.8846512,0.3589325-1.3481216,0.4788113
		c0.0452919-0.299984,0.1188583-0.4665565-0.3192253-0.6923466c-1.0755882-0.554369-2.048275-1.2963161-3.2090836-1.7192898
		c-0.4926987-0.1795292-0.2761917-0.7148666-0.2257423-1.0772133c0.086132-0.6186008,0.6198006-0.438776,1.0236588-0.4629478
		l-0.0016823-0.0011024c-0.0004311,0.0505676-0.0008507,0.1011086-0.0012665,0.1516476
		c-0.0003204,0.0538845-0.0006447,0.1077671-0.0009537,0.161581c-0.0487137,0.0018539-0.0974007,0.0011539-0.1460876-0.0022144
		c-0.092411-0.1488552-0.190773-0.1742382-0.2980995-0.0144844c-0.3680954,0.2433205-0.3406601,0.3569908,0.1469727,0.6089973
		c1.4096451,0.7649155,2.819294,1.5298328,4.2289352,2.2947502C40.030838,21.7993145,40.0810699,21.8905849,40.1313019,21.9818554z"
		/>
	<path style="fill:#202826;" d="M35.394516,22.2989731c-0.7234688,0.1414986-1.0829773-0.4927845-1.615654-0.7579441
		c0.7832413-0.2587051,1.5226707-0.620945,2.2739143,0.2124405c0.2377625,0.2637539,0.7941895,0.3443584,1.138649,0.6400528
		c0.1113892,0.0956116,0.4108582,0.0430222,0.2765923,0.3222885c-0.0893936,0.1859264-0.2702637,0.1767292-0.4583397,0.1330376
		c-0.4808502-0.1117096-0.8890533-0.4864979-1.4256668-0.3934269c-0.0001488,0.0000706,0.0082474-0.0047302,0.0082474-0.0047302
		C35.5263062,22.4001369,35.4604111,22.349556,35.394516,22.2989731z"/>
	<path style="fill:#202826;" d="M34.3479881,19.740099c-0.083828,1.1829605-1.2691116,1.9288177-3.4412899,2.1753273
		C32.0176086,20.9396057,33.1772919,20.4281044,34.3479881,19.740099z"/>
	<path style="fill:#2E4643;" d="M37.8623009,17.2990303c0.6926422,0.0186996,0.442524,0.4123707,0.3031158,0.7619686
		c-0.2010345-0.0516033-0.4021072-0.103157-0.6031723-0.1547241c-0.0201149-0.0124073-0.0402412-0.0247974-0.0603676-0.0371857
		c0.0209885,0.0115356,0.0419731,0.0230713,0.0629578,0.0346069c-0.1320496,0.1914825-0.3398056,0.2484531-0.5458908,0.3117695
		c-0.1942673,0.0596867-0.2147141,0.1621437-0.0610352,0.2968807c-0.1249924,0.1814671-0.3103676,0.1425095-0.4875374,0.1335087
		c-0.0970116-0.1757679-0.2703629-0.1198025-0.4192467-0.1381149l0.0016632,0.0011292
		C36.6567039,18.106657,36.9367218,17.2200775,37.8623009,17.2990303z"/>
	<path style="fill:#2E4643;" d="M29.0885658,23.2145557c-0.0016022,0.1467838-0.0032082,0.2935658-0.0047741,0.4403648
		c-0.6657982,0.1607952-1.2266464,0.65452-1.9551506,0.6165657c-0.0028-0.1561089-0.0055981-0.3122215-0.0083866-0.4683857
		C27.7763672,23.6068859,28.4324665,23.4107208,29.0885658,23.2145557z"/>
	<path style="fill:#4D6D67;" d="M37.8586273,23.0173664c0.0101814,0.2024193-0.0945816,0.3365841-0.2753296,0.3929119
		c-0.6090393,0.1897869-1.2216301,0.3681812-1.8328209,0.5509529c-0.0299377-0.230999,0.1974678-0.28899,0.2928848-0.4355583
		C36.7126732,23.5857697,37.2136002,23.0443115,37.8586273,23.0173664z"/>
	<path style="fill:#41625D;" d="M36.3406639,16.5061531c0.1485977-0.4611931,0.4073143-0.1842384,0.6381531-0.0950069
		c-0.1115036,0.0646839-0.2231598,0.1291981-0.3347549,0.1940517
		C36.5429726,16.5724106,36.4418182,16.5392818,36.3406639,16.5061531z"/>
	<path style="fill:#233533;" d="M30.9009037,22.5940609c-0.011837,0.2095146-0.1091499,0.3147087-0.3296261,0.2695389
		C30.6111946,22.6879883,30.7166843,22.5927849,30.9009037,22.5940609z"/>
	<path style="fill:#41625D;" d="M27.1286411,24.2714863c0.7285042,0.0379543,1.2893524-0.4557705,1.9551487-0.6165657
		c1.0842533-0.330986,2.2070065-0.527195,3.2062302-1.1358471c0.3921127-0.2388458,0.9262276-0.2472725,1.3983841-0.3479061
		c0.0481606-0.0102673,0.1572762,0.0593853,0.1658478,0.1054077c0.0355263,0.190794-0.1132355,0.2531185-0.2576637,0.3058949
		c-1.0576744,0.3864822-2.1007347,0.8220749-3.1778202,1.1436462c-1.0067387,0.3005619-1.9835968,0.6796227-2.9819813,0.998291
		c-0.2508354,0.080061-0.5557613,0.3623142-0.7490864-0.0949497c0.0414715-0.0301723,0.0875874-0.0489063,0.138689-0.0555325
		C27.0188465,24.5646954,27.1117764,24.4560776,27.1286411,24.2714863z"/>
	<path style="fill:#0B1111;" d="M26.6643581,21.9924679c0.066925,0.0195866,0.1338539,0.0391731,0.200779,0.0587578
		c-0.1132984,0.1342163-0.1478767,0.0091705-0.1992645-0.0605106L26.6643581,21.9924679z"/>
	<path style="fill:#3A5956;" d="M24.851038,30.3177662c1.4045792-0.6532726,2.9084034-1.0026817,4.3871136-1.4276409
		c0.8519211-0.2448292,1.7097626-0.4690647,2.5650406-0.7024822c1.0107689,0.1865444,2.0054398,0.3452625,3.0275345-0.0374279
		c0.5292015-0.1981449,1.0215912-0.3078136,0.9135818-1.0226383c0.223526-0.2156696,0.2803192-0.0660553,0.3105087,0.1419849
		c0.1962471,0.5173111,0.6863213,0.396368,1.0682144,0.4661694c1.6840248,0.3078003,3.1333809-0.6780758,4.7272758-0.8890686
		c0.9420013-0.1246967,1.6416779-0.9537964,2.6445694-0.9530811c0.1719704,0.0001259,0.1388397-0.1632824,0.0302086-0.2695007
		c0.1751633-0.1826324,0.5520439-0.2071438,0.4660339-0.5945129c0.0473099-0.002367,0.0945854-0.005291,0.1418457-0.0087471
		c0.4826698,0.1278706,0.9107132,0.0366936,1.2305069-0.3594799c0.2687988-0.3329945,0.4435806-0.216608,0.6087761,0.0839539
		c-1.0245285,1.0982113-2.4261208,1.639967-3.6431084,2.4536781c-0.5539894,0.3704071-1.1101151,0.7735519-1.7975578,0.8910656
		c-0.6262894-0.1338081-1.291832-0.3875332-1.8901024-0.220005c-0.8811569,0.2467384-1.7972755,0.4961929-2.6623611,0.6644382
		c-1.4525719,0.282505-2.8623428,0.7778397-4.3591614,0.9078789c-1.1047764,0.0959835-2.2215004,0.2421837-3.3284512,0.4464931
		C27.8512077,30.1546745,26.3744812,30.6875782,24.851038,30.3177662z"/>
	<path style="fill:#202826;" d="M30.593668,32.7178955c-0.105854,0.0177536-0.2117081,0.035511-0.3178501,0.0534859
		C30.3600006,32.6258965,30.4564838,32.5513382,30.593668,32.7178955z"/>
	<path style="fill:#202826;" d="M13.6818905,33.2584229c-0.3481779,0.8921623-1.0457344,0.6360054-1.7012768,0.5176353
		c-0.0348225-0.0346718-0.0697346-0.0693398-0.1046457-0.1040115c0.0004282-0.1721764,0.0008554-0.3443489,0.0011711-0.5159721
		c0.5377893-0.0898666,1.0756922-0.1802826,1.6135941-0.2707024C13.6786203,32.9460983,13.6664085,33.1093559,13.6818905,33.2584229
		z"/>
	<path style="fill:#202826;" d="M11.8114014,32.7851906c-0.2025938-0.0369759-0.2716579,0.1945686-0.4419966,0.2248802
		c-0.176259-0.7574081,0.5550461-1.566349,1.2503195-1.4039669c0.4406996,0.1029263,0.5403461,0.309803,0.2675743,0.6789036
		c-0.454093-0.453558-0.6835833-0.0739403-0.7497616,0.2824783C12.0847807,32.8516197,11.8933287,32.6861649,11.8114014,32.7851906z
		"/>
	<path style="fill:#3F4B44;" d="M11.8114014,32.7851906c0.0819273-0.0990257,0.2733793,0.0664291,0.3261356-0.2177048
		c0.0661783-0.3564186,0.2956686-0.7360363,0.7497616-0.2824783c0.2497244,0.151371,0.7075357,0.0935974,0.6035223,0.6004181
		c-0.5379896,0.0903664-1.0758924,0.1807823-1.6136818,0.270649C11.8553009,33.0320778,11.8333511,32.9086342,11.8114014,32.7851906
		z"/>
	<path style="fill:#3F4B44;" d="M11.875968,33.6720467c0.0349112,0.0346718,0.0698233,0.0693398,0.1046457,0.1040115
		c-0.0227451,0.0137978-0.0464964,0.0253296-0.0707598,0.0346832C11.8989468,33.7645645,11.8874578,33.7183037,11.875968,33.6720467
		z"/>
	<path style="fill:#3A5956;" d="M38.1697273,25.4698372c1.7236214-0.8354073,3.4514999-1.6622257,5.1678734-2.5122662
		c0.4280777-0.2120132,1.0129662-0.2164803,1.1884308-0.8076649c0.6785355,0.0069427,1.1672935-0.5363464,1.8127403-0.625433
		c0.0035477,0.0581837,0.0071373,0.1165161,0.0107994,0.1749592c-1.8486481,1.2124577-3.8975487,2.0573864-5.8051605,3.1618176
		c-0.2816277,0.1630535-0.5726166,0.3099442-0.8593025,0.4642696c-0.9130592,0.2878361-1.6572876,0.9376011-2.5805206,1.2035866
		c0.0024681-0.0550365,0.00494-0.1100731,0.0073662-0.1649036c-0.0520134-0.3701935,0.4612198-0.3942833,0.4524117-0.7382355
		c0.0995865-0.0015984,0.1991653-0.0031929,0.29879-0.0047531C37.9903793,25.6214161,38.1039467,25.5939999,38.1697273,25.4698372z"
		/>
	<path style="fill:#41625D;" d="M44.5250854,25.6240807c0.1086311,0.1062183,0.1417618,0.2696266-0.0302086,0.2695007
		c-1.0028915-0.0007153-1.7025681,0.8283844-2.6445694,0.9530811c-1.593895,0.2109928-3.043251,1.1968689-4.7272758,0.8890686
		c-0.3818932-0.0698013-0.8719673,0.0511417-1.0682144-0.4661694c0.5891037,0.2341785,0.4921188-0.5558434,0.8950157-0.5994072
		c0.0302124,0.3093243,0.2709045,0.4354897,0.5116005,0.4447308c0.7521782,0.028883,1.5227699,0.1386089,2.2210045-0.2807198
		c0.2012215-0.0004215,0.4024429-0.0008411,0.6036873-0.001236c0.4322891-0.1706104,0.9332581-0.1957798,1.3238907-0.35326
		c0.526062-0.2120705,1.3947945,0.0425663,1.5511475-0.857439c0.0500984-0.0455379,0.100193-0.0910797,0.1503067-0.1367474
		C43.6519585,26.0920448,44.1343155,25.4574413,44.5250854,25.6240807z"/>
	<path style="fill:#4D6D67;" d="M39.6824379,26.8341656c-0.6982346,0.4193287-1.4688263,0.3096027-2.2210045,0.2807198
		c-0.240696-0.0092411-0.4813881-0.1354065-0.5116005-0.4447289c0.0515671-0.0470734,0.1032104-0.0940285,0.1548042-0.1410141
		c0.9231834-0.2660217,1.6674118-0.9157867,2.580471-1.2036228c-0.0298386,0.1432953-0.0098648,0.3542881-0.0976143,0.4188499
		C39.0009766,26.1758881,39.2365532,26.5081291,39.6824379,26.8341656z"/>
	<path style="fill:#4D6D67;" d="M43.1611633,25.6222305c-0.156353,0.9000053-1.0250854,0.6453686-1.5511475,0.857439
		c-0.3906326,0.1574802-0.8916016,0.1826496-1.3238907,0.35326c0.0176849-0.285471,0.184845-0.5370674,0.4332199-0.5522671
		C41.5840645,26.2277317,42.3424492,25.8196888,43.1611633,25.6222305z"/>
	<path style="fill:#4D6D67;" d="M44.5250854,25.6240807c-0.39077-0.1666393-0.873127,0.4679642-1.2136154-0.1385975
		c0.5549507-0.1697884,1.079071-0.4532337,1.6795273-0.4560356C45.0771294,25.4169369,44.7002487,25.4414482,44.5250854,25.6240807z
		"/>
	<path style="fill:#233533;" d="M44.3769569,21.5461559c-0.5954208,0.0586433-0.4141884-0.7649136-0.9190788-0.8087425
		c0.2875595-0.3166065,0.671196-0.3733997,1.0681763-0.3940449c0.1572723,0.218792,0.3005638,0.0265427,0.4489746-0.0152683
		c0.0993919,0.0901222,0.1744995,0.2920494,0.0811653,0.3090076C44.5267487,20.7333088,44.5769005,21.2276878,44.3769569,21.5461559
		z"/>
	<path style="fill:#202826;" d="M44.975029,20.3281002c-0.1484108,0.041811-0.2917023,0.2340603-0.4489746,0.0150661
		c-0.0032501-0.0813198-0.0065041-0.1624393-0.0097542-0.243557c0.3722267-0.3613949,0.7468681-0.6910763,1.1921806-0.0910492
		C45.4599991,20.1061802,45.1742859,20.1179829,44.975029,20.3281002z"/>
	<path style="fill:#202826;" d="M36.957901,18.5123672c-0.1536713-0.134758-0.1332245-0.237215,0.0610428-0.2969017
		c0.2060852-0.0633163,0.4138412-0.1202869,0.5458908-0.3117695l-0.0025978,0.0025921
		c0.2010727,0.0515537,0.4021454,0.1031075,0.6031799,0.1547108c1.3455849,0.7878132,2.7932625,1.3914795,4.0900307,2.2673473
		c0.0000191,0.0492382,0.0001488,0.0984955,0.0003929,0.1477547c-0.6469078-0.1404858-1.2837448-0.2526245-1.8581886-0.6631184
		c-0.3936462-0.2812996-0.797905-0.6257153-1.3237152-0.688921c-0.2363548-0.3468647-0.7323532-0.260046-0.9828568-0.6066704
		c-0.3049011-0.4219017-0.6535034-0.3544102-0.9885902-0.0148296C37.0541458,18.5036621,37.0059471,18.5069313,36.957901,18.5123672
		z"/>
	<path style="fill:#233533;" d="M42.2558403,20.4761009c-0.0002441-0.0492592-0.0003738-0.0985165-0.0003929-0.1477547
		c0.457283,0.3877544,0.7683792-0.2663345,1.1855621-0.1661892c0.0814323,0.2827988-0.308197,0.3516026-0.2774506,0.6113911
		c-0.3645439,0.2521458-0.7772026,0.3189354-1.2085648,0.3136768c-0.1688423-0.1571522-0.1114845-0.2732182,0.0874977-0.2922192
		C42.2726631,20.7730255,42.3709831,20.7079754,42.2558403,20.4761009z"/>
	<path style="fill:#0B1111;" d="M43.163559,20.7735481c-0.0307465-0.2597885,0.3588829-0.3285923,0.2774506-0.6113911
		c0.0310211-0.296133,0.2052536-0.3427849,0.4533958-0.2600632c0.1111145,0.3676701,0.379982,0.2404938,0.6218376,0.1979122
		c0.0033073,0.0807209,0.0065613,0.1618404,0.0098114,0.2431602c-0.3969803,0.0208473-0.7806168,0.0776405-1.0681763,0.3942471
		C43.3597755,20.7492161,43.2616653,20.7613831,43.163559,20.7735481z"/>
	<path style="fill:#4D6D67;" d="M45.5839767,17.9179535c-0.1545753,0.4342442-0.4255905,0.6843548-0.9198837,0.581501
		c0.0623398-0.1739559,0.1248245-0.3477879,0.1873741-0.5211334C45.0956802,17.9585228,45.3398285,17.9382401,45.5839767,17.9179535
		z"/>
	<path style="fill:#4D6D67;" d="M44.5245705,18.5080128c-0.0407486,0.3995171-0.3503571,0.2805786-0.5859795,0.3039627
		c-0.0685501-0.0175648-0.1585426-0.0138264-0.2017479-0.0569553c-0.1001968-0.1000233-0.0554543-0.1483269,0.079483-0.1601524
		C44.0531311,18.5741158,44.2885628,18.5378075,44.5245705,18.5080128z"/>
	<path style="fill:#0B1111;" d="M43.6094284,17.9150486c-0.055336-0.0474701-0.110672-0.0949402-0.1661263-0.1423492
		c0.0582771-0.0596676,0.1166687-0.1193981,0.1750603-0.1792355C43.615387,17.7005863,43.6124077,17.8078194,43.6094284,17.9150486z
		"/>
	<path style="fill:#3A5956;" d="M44.0741806,19.4068356c0.200634-0.0518837,0.4012756-0.1037693,0.6018982-0.1558456
		c0.0141754,0.2767124-0.1978226,0.30797-0.3909683,0.3605537C44.0985184,19.6623421,44.0852699,19.5360603,44.0741806,19.4068356z"
		/>
	<path style="fill:#3A5956;" d="M44.978138,18.9636822c0.0510368-0.0041962,0.1020813-0.0083904,0.1531219-0.0127449
		C45.0893631,19.0635529,45.0389786,19.0756912,44.978138,18.9636822z"/>
	<path style="fill:#233533;" d="M42.8595734,17.0017738c-0.0545464-0.0503922-0.1090889-0.1007862-0.1637993-0.1511402
		C42.9295998,16.7064438,42.8261795,16.9283352,42.8595734,17.0017738z"/>
	<path style="fill:#3A5956;" d="M23.950119,26.0531464c0.0974007,0.0034809,0.1948051,0.0069599,0.2922058,0.0105591
		c0.0469952,0.4219761,0.3671341,0.2955894,0.6180897,0.3080654c0.0443802,0.0044022,0.0885658,0.0102901,0.1326218,0.01758
		c0.037056,0.2467575-0.1718464,0.5478306,0.160965,0.7294235c-0.0952797,0.1822491-0.2924709,0.2204037-0.4501991,0.2317677
		c-1.5836048,0.1140728-3.0926838,0.7271137-4.6964855,0.6964912c0.5322075-0.7665405,1.3589172-1.0446033,2.1787281-1.3642635
		C22.769146,26.4554081,23.4726391,26.5659275,23.950119,26.0531464z"/>
	<path style="fill:#2E4643;" d="M23.950119,26.0531464c-0.4774799,0.5127811-1.1809731,0.4022617-1.7640743,0.6296234
		c-0.8198109,0.3196602-1.6465206,0.597723-2.1787281,1.3642635c-0.2578564-0.0043049-0.5157413-0.0086231-0.773756-0.0130596
		c0.0199528-0.2231579,0.1620007-0.3389282,0.3442383-0.4506989c1.0379944-0.6366043,2.0646706-1.2929459,3.1716137-1.8072567
		C23.2126598,25.5607853,23.661314,25.4791355,23.950119,26.0531464z"/>
	<path style="fill:#233533;" d="M25.1540012,27.1187744c-0.3328114-0.1815929-0.123909-0.482666-0.160965-0.7294235
		c0.3626003-0.0225811,0.7279549-0.0496368,0.7617893,0.4658756C25.5950871,27.0357151,25.3866482,27.1048527,25.1540012,27.1187744
		z"/>
	<path style="fill:#3A5956;" d="M25.9044189,29.2452831c-0.4156971,0.2663212-0.8560638,0.4277973-1.3598194,0.3200378
		C24.929142,29.1667271,25.41782,29.2104244,25.9044189,29.2452831z"/>
	<path style="fill:#4D6D67;" d="M26.0187874,28.4067726c0.042017,0.0184784,0.1068783,0.0277786,0.1190987,0.0582142
		c0.0119114,0.029665-0.030014,0.0809479-0.0482998,0.1227398c-0.0419178-0.0183716-0.1071739-0.0274906-0.1191654-0.0577335
		C25.9585361,28.5000248,26.0003376,28.4487648,26.0187874,28.4067726z"/>
	<path style="fill:#3A5956;" d="M26.6618862,29.0953388c-0.0632915,0.1290855-0.1734753,0.1554565-0.3034534,0.1382675
		C26.3967915,29.0493107,26.4416161,28.8794308,26.6618862,29.0953388z"/>
	<path style="fill:#4D6D67;" d="M27.6314182,28.2383804c0.0184727-0.0419865,0.0277767-0.1068134,0.0581913-0.119009
		c0.0296707-0.011898,0.0809059,0.0299873,0.1226749,0.0482597c-0.0183659,0.0418816-0.0274982,0.1071033-0.0577068,0.1190548
		C27.7245884,28.2985497,27.6733913,28.2568073,27.6314182,28.2383804z"/>
	<path style="fill:#4D6D67;" d="M29.6928215,24.4188004c0.2007198-0.0042324,0.4014378-0.0084648,0.6021843-0.0126133
		c0.3302879-0.0945587,0.7155228-0.0775471,0.9099751-0.4479866c0.1511898-0.0014725,0.3023815-0.0029469,0.4535828-0.0043602
		c0.2192593,0.009573,0.4344616,0.0126553,0.4582043-0.2883892c0.1869125-0.1104469,0.3836555-0.1817894,0.6057053-0.152359
		c0.2476463,0.2492065,0.4524803-0.0608559,0.6829109-0.0529194c0.4804497,0.0165424,0.9149399-0.5608578,1.4300804-0.1114178
		c-1.749588,0.6572037-3.4972191,1.3197575-5.251749,1.9634953c-0.1791286,0.0657253-0.3321495,0.1001644-0.3629932,0.3111534
		c-0.0410919-0.0023575-0.0824337-0.0031433-0.123806-0.0023384c-0.0553436,0.0007076-0.1106834,0.0014172-0.1660271,0.0021248
		c-0.6924915-0.0445137-1.2016201,0.4551983-1.8252811,0.6149731c-0.0933399-0.0067539-0.1866798-0.0135078-0.2800179-0.0202599
		l0.0168877-0.0100307c-0.0186768-0.0826283-0.0373516-0.1652584-0.0558567-0.2480164
		c0.4918232-0.1408424,0.9334869-0.4232216,1.4066353-0.604311C28.6887341,25.1659107,29.3972988,25.0400829,29.6928215,24.4188004z
		"/>
	<path style="fill:#41625D;" d="M29.6928215,24.4188004c-0.2955227,0.6212826-1.0040874,0.7471104-1.4995651,0.9367447
		c-0.4731483,0.1810894-0.9148121,0.4634686-1.4066353,0.604311c-0.0888081-0.0654011-0.1774464-0.130928-0.2660294-0.1965313
		c-0.0041847-0.2234211,0.1160965-0.4499073,0.2938023-0.4739094C27.8235703,25.1531181,28.6648197,24.476059,29.6928215,24.4188004
		z"/>
	<path style="fill:#202826;" d="M25.2266808,25.282341c0.3386879,0.2324886,0.592205,0.3567219,0.6155491,0.6575775
		c0.0086956,0.1120758-0.1304188,0.1429062-0.2230625,0.1072254C25.3138657,25.9295692,25.2046204,25.6976318,25.2266808,25.282341z
		"/>
	<path style="fill:#202826;" d="M26.8276997,26.5400791c-0.2608509-0.0474319-0.7346745,0.0863438-0.6664486-0.3124275
		c0.0610256-0.356699,0.4439907,0.0937309,0.6810837-0.0198193l-0.0167427,0.0100842
		c-0.0016575,0.1087914-0.0033188,0.2175694-0.0049782,0.3263512L26.8276997,26.5400791z"/>
	<path style="fill:#2E4643;" d="M24.8604145,26.3717709c-0.2509556-0.012476-0.5710945,0.1139107-0.6180897-0.3080654
		C24.6592865,25.7432747,24.6998844,26.1777878,24.8604145,26.3717709z"/>
	<path style="fill:#41625D;" d="M35.7443085,27.1275768c0.1080093,0.7148247-0.3843803,0.8244934-0.9135818,1.0226383
		c-1.0220947,0.3826904-2.0167656,0.2239723-3.0275345,0.0374279C33.1105652,27.8109398,34.3702393,27.256588,35.7443085,27.1275768
		z"/>
	<path style="fill:#41625D;" d="M37.5643654,25.625967c0.0088081,0.3439522-0.504425,0.368042-0.4524117,0.7382355
		c-1.2393875,0.1384659-2.3961143,0.6086426-3.5979805,0.8979263c-0.2162018,0.0520363-0.4308357,0.1105804-0.6462212,0.1659832
		c0.0428925-0.2853794,0.1417961-0.5830364,0.4373245-0.6408253C34.7542343,26.5039215,36.1425934,26.0047455,37.5643654,25.625967z
		"/>
	<path style="fill:#41625D;" d="M29.0969162,25.6210651c0.0413723-0.0008049,0.0827141-0.0000191,0.123806,0.0023384
		c1.2227325-0.1370239,2.3195763-0.6921883,3.4753952-1.0515003c0.3800735-0.1181545,0.7504349-0.2675991,1.1250381-0.4032745
		c0.2434311-0.0881653,0.3871651-0.01511,0.4121552,0.2524223c0.0003281,0.1001072,0.0006561,0.200304,0.0009842,0.3005028
		c-1.1184044,0.4055195-2.2358856,0.8136082-3.3561172,1.2140141c-0.1860008,0.0664806-0.3839855,0.0994282-0.5763855,0.1479301
		c-0.6331863,0.014143-1.2043343,0.3012676-1.7763462,0.5022411c-0.4036331,0.1418114-0.7439518,0.140831-1.1251698,0.0867462
		c0.0516453-0.2463684-0.2003212-0.2868614-0.2946682-0.4343224c0.623661-0.1597748,1.1327896-0.6594868,1.8253422-0.6149616
		C28.9877281,25.7318268,29.0429039,25.721386,29.0969162,25.6210651z"/>
	<path style="fill:#3F4B44;" d="M42.2558403,20.4761009c0.1151428,0.2318745,0.0168228,0.2969246-0.2133484,0.3189049
		c-0.1989822,0.019001-0.25634,0.135067-0.0874977,0.2922192c-0.0287399,0.3825169-0.2789268,0.4678822-0.6052589,0.4511108
		c-0.0566521-0.0620193-0.1132813-0.124033-0.1699066-0.1860447c0.1513329-0.296032,0.0687599-0.5330296-0.1994171-0.7027302
		c-0.290493-0.1838245-0.6042747-0.3326244-0.8857765-0.5284958c-0.5051804-0.351511-1.1707344-0.2562542-1.656601-0.5555782
		c-0.6463051-0.3981667-1.2930336-0.5899715-2.0314674-0.4841061c-0.2249336,0.0322475-0.3331184-0.0432701-0.3576927-0.2603149
		c0.0003204-0.0538845,0.0006447-0.1077671,0.0009613-0.1616268c0.1401825-0.0045109,0.2803574-0.0090466,0.420536-0.0135822
		c0.1771698,0.0089989,0.362545,0.0479565,0.4875374-0.1335106c0.0480385-0.005415,0.0962372-0.0086842,0.1446381-0.0097027
		c0.6306419,0.291357,1.2169685,0.7230434,1.9713898,0.621418c0.5258102,0.0632057,0.930069,0.4076214,1.3237152,0.688921
		C40.9720955,20.2234764,41.6089325,20.3356152,42.2558403,20.4761009z"/>
	<path style="fill:#233533;" d="M41.1798286,21.3522911c0.0566254,0.0620117,0.1132545,0.1240253,0.1699066,0.1860447
		c-0.4053001,0.1500568-0.7464828,0.4762573-1.2183762,0.4435978c-0.0502892-0.0913486-0.1005211-0.1826191-0.1507187-0.2740479
		C40.4263,21.744133,40.7497177,21.3682289,41.1798286,21.3522911z"/>
	<path style="fill:#0B1111;" d="M27.105608,26.238163c0.094347,0.1474609,0.3463135,0.1879539,0.2946682,0.4343224
		c-0.1933289-0.0428371-0.3865147-0.085598-0.5796814-0.1282902c0.0016785-0.1087093,0.0033398-0.2174873,0.0049973-0.3262787
		C26.9189281,26.2246552,27.0122681,26.2314091,27.105608,26.238163z"/>
	<path style="fill:#41625D;" d="M38.1697273,25.4698372c-0.0657806,0.1241627-0.179348,0.1515789-0.306572,0.1513786
		c0.0174789-0.1313725-0.0420265-0.3112869,0.1175957-0.3672123C38.1471443,25.1957073,38.1403656,25.365715,38.1697273,25.4698372z
		"/>
	<path style="fill:#41625D;" d="M34.8354645,23.3487549c-0.5151405-0.44944-0.9496307,0.1279602-1.4300804,0.1114178
		c-0.2304306-0.0079365-0.4352646,0.3021259-0.6829109,0.0529194c0.6233597-0.474411,1.3569946-0.6219769,2.1108055-0.6740723
		c0.1255341-0.0086746,0.401432,0.0119114,0.3929863,0.2477875C35.218956,23.2909374,35.0215759,23.3418121,34.8354645,23.3487549z"
		/>
	<path style="fill:#4D6D67;" d="M34.2342949,24.7215538c-0.0003281-0.1001987-0.0006561-0.2003956-0.0009842-0.3005028
		c0.4036942-0.1033688,0.8073883-0.2068253,1.2110825-0.3102818C35.2096786,24.6485023,34.6992989,24.6400719,34.2342949,24.7215538
		z"/>
	<path style="fill:#41625D;" d="M31.2049809,23.9582005c-0.1944523,0.3704395-0.5796871,0.3534279-0.9099751,0.4479866
		C30.445734,23.9468079,30.7071991,23.7124424,31.2049809,23.9582005z"/>
	<path style="fill:#41625D;" d="M32.1167679,23.665451c-0.0237427,0.3010445-0.238945,0.2979622-0.4582043,0.2883892
		C31.6811447,23.6508369,31.8947277,23.6514244,32.1167679,23.665451z"/>
	<path style="fill:#0B1111;" d="M35.394516,22.2989731c0.0658951,0.0505829,0.1317902,0.1011639,0.1977119,0.1517315
		C35.5263443,22.4001179,35.4604301,22.3495464,35.394516,22.2989731z"/>
	<path style="fill:#41625D;" d="M41.1798286,21.3522892c-0.4301109,0.0159397-0.7535286,0.3918438-1.1991882,0.3555965
		c-1.4096756-0.7647591-2.8193245-1.5296764-4.229023-2.2945423c0.002037-0.1815472,0.0041275-0.3631439,0.0062141-0.5447426
		c0.0483322-0.0165939,0.0966682-0.033186,0.1450043-0.049778c0.0486488,0.0033264,0.0973358,0.0040264,0.1460495,0.0021725
		c0.0245628,0.2171154,0.1327477,0.2926331,0.3576813,0.2603855c0.7384338-0.1058655,1.3851624,0.0859394,2.0314674,0.4841061
		c0.4858665,0.299324,1.1514206,0.2040672,1.656601,0.5555782c0.2815018,0.1958714,0.5952835,0.3446712,0.8857765,0.5284958
		C41.2485886,20.8192616,41.3311615,21.0562592,41.1798286,21.3522892z"/>
	<path style="fill:#3F4B44;" d="M35.7578316,18.8686028c-0.0020866,0.1815968-0.0041771,0.3631935-0.0062141,0.5447407
		c-0.4875793-0.2520561-0.5150146-0.3657265-0.1470108-0.6089783
		C35.6556206,18.8258247,35.7067261,18.8472137,35.7578316,18.8686028z"/>
	<path style="fill:#0B1111;" d="M36.4703712,18.6458569c-0.1401787,0.0045357-0.2803535,0.0090714-0.420536,0.0135822
		c0.0004196-0.0505638,0.0008392-0.1011047,0.0012703-0.1516724C36.2000084,18.5260525,36.3733597,18.4700871,36.4703712,18.6458569
		z"/>
	<path style="fill:#0B1111;" d="M35.7578316,18.8686008c-0.0511055-0.0213871-0.102211-0.0427761-0.1532249-0.0642357
		c0.1074181-0.1598225,0.20578-0.1344395,0.2981911,0.0144157C35.8544998,18.8354149,35.8061638,18.8520069,35.7578316,18.8686008z"
		/>
	<path style="fill:#202826;" d="M37.5648346,17.9036961c-0.0209846-0.0115356-0.0419693-0.0230713-0.0629578-0.0346069
		c0.0201263,0.0123882,0.0402527,0.0247784,0.0603676,0.0371857L37.5648346,17.9036961z"/>
	<path style="fill:#2E4643;" d="M39.0739365,19.1240616c-0.7544212,0.1016254-1.3407478-0.330061-1.9713898-0.621418
		c0.3350296-0.3396626,0.6836319-0.4071541,0.988533,0.0147476C38.3415833,18.8640156,38.8375816,18.7771969,39.0739365,19.1240616z
		"/>
	<path style="fill:#3F4B44;" d="M29.0969162,25.6210651c-0.0540123,0.1003208-0.1091881,0.1107616-0.165966,0.0021362
		C28.9862328,25.6224823,29.0415726,25.6217728,29.0969162,25.6210651z"/>
</g>
</svg>
