<?xml version="1.0" encoding="utf-8"?>
<!-- Generator: Adobe Illustrator 21.1.0, SVG Export Plug-In . SVG Version: 6.00 Build 0)  -->
<svg version="1.1" id="Слой_1" xmlns="http://www.w3.org/2000/svg" xmlns:xlink="http://www.w3.org/1999/xlink" x="0px" y="0px"
	 viewBox="0 0 55 45" style="enable-background:new 0 0 55 45;" xml:space="preserve">
<g>
	<path style="fill:#BBC6C2;" d="M5.3571897,12.9723368c0.894125-0.8990307,2.0852933-1.1416502,3.2396541-1.4663534
		c-0.017663,0.693615,0.197032,1.3552389,0.9990616,1.0618353c0.795476-0.2910051,1.536562-0.1173248,2.3022366-0.1379242
		c-0.0207882,0.2172565-0.0415754,0.434515-0.0623636,0.6517715c-0.6687479,0.2645912-1.3374939,0.5291843-2.1178856,0.8379478
		c0.6075373,0.3460588,0.9519596,0.0405703,1.3137608-0.1178102c0.3458166-0.1513872,0.679985-0.3963175,1.0059309,0.0250282
		c-0.1264572,0.2116556-0.2529144,0.4233122-0.3793726,0.6349688c-0.6007643,0.1035395-0.9870481,0.4938631-1.346714,0.9525242
		c-0.439043,0.5598869-0.2156162,0.8059473,0.3735485,0.9279127c-0.000041,0.1483326-0.000083,0.2966671-0.000124,0.4449997
		c-0.3324022,0.3745842-0.0412645,0.4206238,0.2467518,0.4683075c0.0694351,0.0049305,0.1389465,0.0065994,0.2085361,0.0050049
		c0.2064705,0.6037178,0.3719406,1.231329,0.9450598,1.6213188c-0.0005283,0.3313332,0.1557512,0.5611763,0.4531002,0.6996918
		c0.0882692,0.2281094,0.1765394,0.4562187,0.2648077,0.6843281c-0.760067-0.0809059-1.1159401,0.4257889-1.1278629,1.025629
		c-0.0180693,0.9091454,0.009553,1.7810421-0.7461109,2.444273c-0.1400757,0.2420406-0.3947649,0.1818485-0.6088734,0.2356224
		c-1.868659,0.4693108-3.4771628,1.338028-4.5690351,2.9938698c-0.1306558,0.1485157-0.2613125,0.2970314-0.3919687,0.4455471
		c-0.0865331,0.0178261-0.1730657,0.0356541-0.2595987,0.0534821c0.0064492-0.2279167,0.0128975-0.4558334,0.0193458-0.6837521
		c0.0300136-0.0585575,0.0429463-0.1206741,0.0387964-0.1863461c0.0807195-0.0182228,0.1614389-0.0364475,0.2421584-0.0546722
		c0.3786726-0.3342342,0.7449846-0.6781082,0.9156356-1.1745129c0.6608381-0.4515743,1.3115163-0.9190178,1.9853029-1.3503647
		c0.7092657-0.4540596,0.7247543-0.4478493,0.0155916-0.9147072c-0.2120762-0.139616-0.1815214-0.3356209-0.1538229-0.4984207
		c0.2242498-1.3180027-0.9087844-2.5447197-0.2575254-3.8945274c0.0536571-0.1112118-0.0353446-0.2963638-0.0701056-0.4443302
		c-0.3584614-1.5258846-0.7873888-3.0087433-1.9371934-4.182436C5.6268511,13.8035526,5.3245091,13.4438829,5.3571897,12.9723368z"
		/>
	<path style="fill:#CAD4D6;" d="M28.549036,13.7516108c1.7947216,0.4109669,3.5945721,0.8009262,5.3830967,1.2372866
		c3.6837311,0.8987503,7.3675919,1.7984543,11.0378876,2.7498894c1.1269112,0.2921238,2.3195152,0.4697361,3.2708359,1.246891
		c-2.0991364,0.421051-3.4309349,1.663372-3.9920883,3.7303486c-0.1381454,0.1165123-0.2765503,0.2328854-0.414959,0.3492584
		c-0.1823006-0.112196-0.2277298-0.2876167-0.2243233-0.4856014c0.2958069-0.4752312,0.3908043-1.0385303,0.7859955-1.4896336
		c0.2675629-0.305418,0.2678261-0.8791256-0.1517792-1.1317501c-0.5800476-0.3492184-1.2316971-0.789011-1.8628464-0.8057079
		c-2.1491585-0.0568638-4.0912781-0.9900265-6.0241127-1.6271954c-3.2116623-1.0587425-6.3418083-2.3681154-9.6427155-3.1986055
		c-0.6263409-0.1575832-1.5022297,0.0547161-1.8849449-0.7754374c0.9073677,0.0163078,1.823204-0.1217756,2.6827698,0.3706617
		C27.8235855,14.100605,28.2569981,14.1321344,28.549036,13.7516108z"/>
	<path style="fill:#102948;" d="M4.9375548,32.0209312c-0.0715532-0.7485943-0.1431065-1.4971867-0.2146602-2.2458134
		c0.8738837-0.0349998,1.0176039,0.9140015,1.6681533,1.2348099c0.7662292,0.3778553,1.5777988,0.6613159,2.1881852,1.4343395
		c0.3445768,0.4363861,1.0259666,1.1405792,1.909152,0.8477516c0.6423464,0.366024,0.8533287-0.1912193,1.1604691-0.5426521
		c0.4575653-0.1943626,0.9144001-0.476181,1.3774662-0.0114975c0.0089712,0.2255478-0.0174274,0.459671,0.0347538,0.6747322
		c0.0904226,0.3726387,0.2478466,0.7263565,0.6712875,0.8335419c0.1647053,0.0416946,0.3725204-0.1427574,0.2980289-0.2150192
		c-0.3816061-0.3702126,0.5604343-1.1081085-0.3727827-1.2866707c0.0170374-0.1627121,0.0340748-0.3254242,0.0511122-0.4881363
		c0.4060926,0.0062599,0.6068544,0.365654,0.9186172,0.5341454c0.0970984,0.6053886,0.3376379,1.1149216,0.9289303,1.3900566
		c-0.0389404,0.5686684-0.5514364,0.5619888-0.9067297,0.7463036c-0.6989527,0.1626549-1.1551685,0.7779198-1.9011049,0.91502
		c-2.7688942,0.5089188-5.0157561-0.3956757-6.908813-2.3783684C5.5389314,32.9826279,5.2382426,32.5017776,4.9375548,32.0209312z"
		/>
	<path style="fill:#A9B0B0;" d="M5.3571897,12.9723368c-0.0326805,0.4715462,0.2696614,0.8312159,0.5407219,1.1079054
		c1.1498046,1.1736927,1.578732,2.6565514,1.9371934,4.182436c0.034761,0.1479664,0.1237626,0.3331184,0.0701056,0.4443302
		c-0.6512589,1.3498077,0.4817753,2.5765247,0.2575254,3.8945274c-0.0276985,0.1627998-0.0582533,0.3588047,0.1538229,0.4984207
		c0.7091627,0.4668579,0.6936741,0.4606476-0.0155916,0.9147072c-0.6737866,0.4313469-1.3244648,0.8987904-1.9854836,1.3503132
		c-0.3194156-0.0376377-0.4756942-0.2151165-0.4744-0.5385628c0.0067105-1.6775055-0.4032397-3.3491344-0.0180678-5.0371265
		c0.0868073-0.3804245,0.5011778-0.628294,0.3817606-1.0523224c-0.4931674-1.7511501-0.8706732-3.5373573-1.5719004-5.225935
		C4.793138,13.2223186,5.0540609,13.0689526,5.3571897,12.9723368z"/>
	<path style="fill:#1C82EC;" d="M50.7487488,21.1973038c0.4184914,0.7133427,0.9911194,1.3413219,1.2011986,2.1688843
		c-0.2843704,0.527523-0.3595963,1.1791134-0.9143867,1.5476971c-0.5574379-0.5467701-0.9456902,0.3141327-1.466362,0.1718445
		c-1.300827-0.3554783-2.4472809-0.9162121-2.8524399-2.3287888c-0.1679039-0.5853882-0.5101929-0.9080563-1.0408554-1.1016674
		c-0.0299187-0.3365746,0.0800362-0.6371346,0.2382431-0.9252682c0.546627-0.0289631,1.0658417,0.0416908,1.5909271-0.3544426
		c0.3754425-0.283247,0.8334503-0.6742668,1.4197235-0.5763302C49.7875175,19.9329243,50.0578537,20.839447,50.7487488,21.1973038z"
		/>
	<path style="fill:#9BA7A2;" d="M4.6328759,13.5110302c0.7012272,1.6885777,1.078733,3.4747849,1.5719004,5.225935
		c0.1194172,0.4240284-0.2949533,0.6718979-0.3817606,1.0523224c-0.3851719,1.6879921,0.0247784,3.359621,0.0180678,5.0371265
		c-0.0012941,0.3234463,0.1549845,0.5009251,0.4744,0.5385628C6.1450133,25.861433,5.7787013,26.205307,5.3996558,26.53936
		c-0.12462-0.1738548-0.2065978-0.1621227-0.2417855,0.0548534c0.0041499,0.0656719-0.0087829,0.1277885-0.0385623,0.1860905
		c-0.4088407-0.2091141-0.4430599-0.5686111-0.3871841-0.9643154c0.2878494-0.0462303,0.3407774-0.1872349,0.2962785-0.4831104
		c-0.1675401-1.1139603-0.3576303-2.2307549-0.4190631-3.3530693c-0.1060419-1.9372692-0.3947034-3.8279896-1.0815618-5.6485519
		c0.0074389-0.2367573,0.0148785-0.4735155,0.0222857-0.7102518c0.0265803-0.0183935,0.0782638-0.0428925,0.0755224-0.0541868
		c-0.0127382-0.0525055-0.0405471-0.1013536-0.0629625-0.1515102C3.7481275,14.6843033,4.0324759,14.008852,4.6328759,13.5110302z"
		/>
	<path style="fill:#D4D9DD;" d="M29.4743595,19.9565125c-0.0832291,0.5650673-0.2522297,0.5173607-0.7579212,0.2837391
		c-2.3584347-1.0895634-4.7594032-2.0871525-7.1475735-3.112011c-0.1380157-0.059227-0.2973042-0.068882-0.446743-0.1015511
		c-0.15275-0.0060406-0.3054504-0.0121365-0.4581604-0.0180969c-0.3286934-0.3090076-0.6230583-0.6084042-1.116312-0.7355556
		c-1.1054306-0.2849588-2.2665119-0.3343325-3.3285942-0.8250999c-0.3188858-0.1473503-0.7909288-0.1675749-0.8954287,0.3982086
		c-0.150485-0.0007076-0.300971-0.0014153-0.4514513-0.001935c-1.0866842-0.3943768-2.1767826-0.2959976-3.2615271-0.0031357
		c-0.8542051,0.2306204,0.2364788,1.1270761-0.470438,1.4194746c-0.0695896,0.0015945-0.139101-0.0000744-0.2085142-0.0050259
		c-0.0050287-0.196806-0.0507078-0.3721752-0.2467737-0.4682865c0.000041-0.1483326,0.000083-0.2966671,0.0003271-0.4451675
		c0.0284853-0.5737324,0.4704666-0.7729263,0.9062405-0.8929758c0.663229-0.1827116,0.4993258-0.5349846,0.2702904-0.9383078
		c0.4556646-0.0408583,0.9113293-0.0817175,1.3670006-0.1225786c0.6200247,0.0412874,1.2400427,0.0825768,1.8600588,0.1238651
		c0.8804588,0.6590052,1.9329214,0.3033972,2.8949518,0.4864559c1.7577991,0.3344774,3.3690777,1.0623884,4.9662209,1.8200903
		C25.1302433,17.8529472,27.3980331,18.7062626,29.4743595,19.9565125z"/>
	<path style="fill:#D4D9DD;" d="M28.549036,13.7516117c-0.292038,0.3805227-0.7254505,0.3489933-1.0371838,0.1704035
		c-0.8595657-0.4924374-1.7754021-0.3543539-2.6827335-0.3707113c-1.2995262-0.2613516-2.5535812-0.8964996-3.9357395-0.4790592
		c-0.3054352,0.0009632-0.6108856,0.0017948-0.9163399,0.0026264c-0.5399303-1.3987589-1.6550865-0.6434193-2.5579491-0.6830711
		c-0.4604473-0.0034723-0.9208965-0.0069437-1.3813438-0.010416c-0.1148367-0.4815445-0.32827-0.6190128-0.7009211-0.2008505
		c-0.406024-0.0244865-0.9095087,0.0934095-1.197401-0.1036558c-0.5665379-0.3877974-0.6412659,0.0958109-0.8781261,0.335124
		c-0.0102539-0.4661713-0.0205097-0.9323416-0.0307665-1.3985138c3.2935085,0.1803169,6.5605202,0.5120373,9.7917786,1.2441854
		C24.8897953,12.6808128,26.7335682,13.1539526,28.549036,13.7516117z"/>
	<path style="fill:#CAD4D6;" d="M10.9291449,23.7358131c0.755723-0.6632538,0.7281008-1.5351505,0.74617-2.4442959
		c0.0119228-0.5998402,0.3677959-1.106535,1.1276836-1.0256519c0.7003069,0.1073303,0.6941423,1.0233994,1.3510275,1.180645
		c-0.0413885,1.140995,1.1204872,1.5577698,1.4954729,2.463953c0.1426325,0.3446827,0.4371328,0.6182022,0.3300467,1.0385647
		c-1.0698748-0.3111515-1.9783449-1.1683941-3.205514-0.9481926C12.2096367,23.5604877,11.5500298,23.7829342,10.9291449,23.7358131
		z"/>
	<path style="fill:#D4D9DD;" d="M5.8396211,33.4634743c1.8930559,1.9826927,4.1399179,2.8872871,6.908812,2.3783684
		c0.7459364-0.1371002,1.2021523-0.7523651,1.9010954-0.91502c0.9500647,1.0814629,1.0156384-0.5391617,1.6151314-0.5287018
		c-0.0947647,0.6737061-0.4814272,1.0708275-1.0281982,1.4971886c-0.5606871,0.4372101-1.4389791,0.2689362-1.7713318,1.0277786
		c-0.2259178-0.0010338-0.4518366-0.0020638-0.6777439-0.0028648c-1.1149979-0.4575729-2.3250589-0.0847054-3.474968-0.4014359
		c-0.4000664-0.1101913-0.914422-0.5324936-1.3899994-0.0654869c-0.1476774,0.0005875-0.2953553,0.0011826-0.4432502,0.0020638
		c-0.1061239-0.4051971-0.1721044-0.8422394-0.7142253-0.9028625c-0.3054914-0.2337036-0.6109719-0.4674225-0.9164519-0.701149
		c-0.0776954-0.3837357-0.1553917-0.7674713-0.2331996-1.1511841C5.6899929,33.6212807,5.7648072,33.5423775,5.8396211,33.4634743z"
		/>
	<path style="fill:#186FC9;" d="M50.7487488,21.1973038c-0.6908951-0.3578568-0.9612312-1.2643795-1.8239479-1.3980427
		c-0.3895149-0.9166603-0.9994583-0.4027195-1.4689674-0.1591549c-0.5534248,0.2870998-1.0311432,0.7201366-1.541687,1.0898991
		c-0.1582069,0.2881336-0.2681618,0.5886936-0.2381783,0.9252567c-0.9790993,0.7970486-1.1388016,2.0071297-0.7266846,3.2419548
		c0.3168564,0.9494019,1.4751358,1.0983467,1.6649895,2.069088c-0.2435036,0.0150146-0.4869423,0.0298328-0.7303734,0.044651
		l-0.0063782,0.0154305c-0.0118523-0.1083946-0.0237045-0.2167873-0.0355568-0.325182
		c-0.0547485,0.0365143-0.1095009,0.0730305-0.1642532,0.1095486c-0.3951836-0.1577377-0.7903709-0.3154716-1.1855583-0.4732056
		c-0.0210876-0.0779877-0.0421715-0.1559772-0.0632591-0.233963c0.160183-1.1409645-0.2369499-2.2522507-0.1803932-3.3876972
		c0.5614204-2.0668373,1.893219-3.3091583,3.9923553-3.7302094c0.1483841,0.0171986,0.2967606,0.0343876,0.4451027,0.0515747
		c0.0806923,0.0155106,0.1614189,0.0310173,0.2421494,0.046526C49.7236443,19.6257763,50.7308044,19.9854717,50.7487488,21.1973038z
		"/>
	<path style="fill:#3C5161;" d="M4.7321239,25.8159885c-0.0558758,0.3957043-0.0216565,0.7552013,0.3871841,0.9643154
		c-0.0066824,0.2281742-0.0131307,0.4560909-0.0193582,0.6838341c-0.3767796,0.4450741-0.0933819,0.6908474,0.2753916,0.9108334
		l-0.0034776-0.0036392c0.0786023,0.2336121,0.2552638,0.3692551,0.4682069,0.4686527L5.833312,28.8333778
		c0.1959147,0.5520573,0.5098796,1.0207291,1.0114579,1.3349457c1.3717523,0.8593369,2.2747712,2.2632179,3.6437879,3.1240997
		c-0.883358,0.2924232-1.5647478-0.4117699-1.9093246-0.848156c-0.6103864-0.7730236-1.4219561-1.0564842-2.1881852-1.4343395
		c-0.6505494-0.3208084-0.7942696-1.2698097-1.6681533-1.2348099c-0.1374683-1.3215141-0.2749357-2.6430664-0.4123693-3.9646091
		C4.4510813,25.8123398,4.5916023,25.8141651,4.7321239,25.8159885z"/>
	<path style="fill:#93978F;" d="M4.7321239,25.8159885c-0.1405215-0.0018234-0.2810426-0.0036488-0.4215975-0.0054798
		c-0.4039352-3.1479588-0.7492175-6.3007526-0.7827604-9.479269c0.6868699,1.8205795,0.9755313,3.7112999,1.0815732,5.6485691
		c0.0614328,1.1223145,0.251523,2.239109,0.4190631,3.3530693C5.0729012,25.6287537,5.0199733,25.7697582,4.7321239,25.8159885z"/>
	<path style="fill:#527598;" d="M17.8893223,27.9146671c-0.0111275,0.2136402-0.022253,0.4272823-0.033392,0.6415596
		c-0.1294823,0.0101147-0.2589512,0.0195904-0.3884182,0.0290661c-0.0845375-0.2271767-0.1690731-0.4543514-0.2536087-0.6815262
		c-0.0311909-0.3773861-0.1772823-0.6977329-0.4694023-0.9455891c-0.8567019-0.8989677-1.4774075-2.1378384-2.9975739-2.0812187
		c-0.1003656-0.1560974-0.1999445-0.1556149-0.2987375,0.0014992c-0.5079098-0.1687393-1.0246124-0.2832813-1.5646744-0.2538242
		c0.0012302-0.141489,0.0024605-0.28298,0.0036917-0.424469c0.3060799-0.0198536,0.6461573,0.1115513,0.8868246-0.1993294
		c1.227169-0.2202015,2.1356392,0.6370411,3.205514,0.9481926C16.8715038,25.7730598,17.5301132,26.7474556,17.8893223,27.9146671z"
		/>
	<path style="fill:#D4D9DD;" d="M11.8981419,12.4298944c-0.7656746,0.0205994-1.5067606-0.1530809-2.3022366,0.1379242
		c-0.8020296,0.2934036-1.0167246-0.3682203-0.9990616-1.0618353c0.9095917-0.3729219,1.86446-0.4809732,2.8374491-0.4822922
		C11.4843292,11.5269022,12.0052834,11.8747997,11.8981419,12.4298944z"/>
	<path style="fill:#3C5161;" d="M51.0355606,24.9138851c0.5547905-0.3685837,0.6300163-1.020174,0.9143867-1.5476971
		c0.3640327,0.77878,1.3969688,1.4424839,0.4179878,2.4492455c-0.234787,0.0328598-0.3136559,0.1816311-0.2978668,0.4007854
		c-0.0693893-0.2888317-0.3033905-0.3268223-0.5429459-0.3562965c-0.1611786-0.0898399-0.3224144-0.1796494-0.4836426-0.2694569
		C51.0408401,25.3649387,51.0382004,25.1394119,51.0355606,24.9138851z"/>
	<path style="fill:#527598;" d="M11.8981419,12.4298944c0.1071415-0.5550947-0.4138126-0.9029922-0.4638491-1.4062033
		c0.598772-0.0034018,1.197506-0.0068254,1.7962389-0.0102262c0.0102568,0.4661951,0.0205126,0.9323654,0.0307102,1.3981991
		c0.0030136,0.0768127,0.0060835,0.153965,0.0091553,0.2311163c-0.1492815,0.214818-0.5228481,0.2468176-0.4943848,0.6065187
		c-0.0716152,0.0218916-0.1430597,0.0213499-0.2143345-0.0016251c-0.1964788-0.2542362-0.4779034-0.1370363-0.7258997-0.166008
		C11.8565664,12.8644094,11.8773537,12.647151,11.8981419,12.4298944z"/>
	<path style="fill:#EBECEC;" d="M5.8396211,33.4634743c-0.0748138,0.0789032-0.1496282,0.1578064-0.2243295,0.2366943
		c-1.2496481-0.1464806-0.8224335-0.9698868-0.6777415-1.679245C5.2382426,32.5017776,5.5389314,32.9826279,5.8396211,33.4634743z"
		/>
	<path style="fill:#CAD4D6;" d="M48.9281082,19.0837784c-0.0807304-0.0155087-0.1614571-0.0310154-0.2421494-0.046524
		C48.7889709,18.9368801,48.8653412,18.9749165,48.9281082,19.0837784z"/>
	<path style="fill:#93978F;" d="M3.562623,15.415308c0.0224154,0.0501566,0.0502243,0.0990047,0.0629625,0.1515102
		c0.0027413,0.0112944-0.0489421,0.0357933-0.0755224,0.0541868C3.529573,15.5509214,3.5337484,15.4823618,3.562623,15.415308z"/>
	<path style="fill:#266097;" d="M12.7740316,24.0008354c-0.2406673,0.3108807-0.5807447,0.1794758-0.8871565,0.1993675
		c-0.7552385-0.0812283-1.3963852,0.3509121-2.1076193,0.4669514c-1.0751362,0.5268726-2.2047529,0.9688148-2.6741691,2.2439957
		c-0.1546059,0.4199944-0.5711641,0.5859985-1.0374923,0.5251541c-0.0220666-0.2129898-0.0829606-0.3999062-0.316299-0.4710217
		c1.0918722-1.6558418,2.700376-2.524559,4.5690351-2.9938698c0.2141085-0.0537739,0.4687977,0.0064182,0.6088734-0.2356224
		C11.5500298,23.7829342,12.2096367,23.5604877,12.7740316,24.0008354z"/>
	<path style="fill:#CAD4D6;" d="M11.8617783,14.5107861c0.2290373,0.4033232,0.3929405,0.7555962-0.2702885,0.9383078
		c-0.4357738,0.1200495-0.8777552,0.3192434-0.9062386,0.8929758c-0.5893698-0.1217976-0.8127966-0.3678579-0.3737535-0.9277449
		c0.3596659-0.4586611,0.7459497-0.8489847,1.3467073-0.9525309C11.7274084,14.4725037,11.7952681,14.4888363,11.8617783,14.5107861
		z"/>
	<path style="fill:#3C5161;" d="M11.8357782,13.081666c0.2479963,0.0289717,0.5294209-0.0882282,0.7259083,0.166687
		c-0.174696,0.1932783-0.3493986,0.3858786-0.5241022,0.5784788c-0.3259459-0.4213457-0.6601143-0.1764154-1.0059309-0.0250282
		c-0.3618011,0.1583805-0.7062235,0.4638691-1.3137608,0.1178102C10.4982843,13.6108503,11.1670303,13.3462572,11.8357782,13.081666
		z"/>
	<path style="fill:#3C5161;" d="M5.7512956,26.9652824c0.2333384,0.0711155,0.2942324,0.2580318,0.3163104,0.4711437
		c-0.1486602,0.6334896,0.5932398,1.0130386,0.4673619,1.6399117c-0.2338858-0.080986-0.4677711-0.161974-0.7016559-0.24296
		l0.0067401,0.0065765c-0.0061779-0.3059864-0.1396508-0.4847488-0.4681883-0.4686222l0.0034785,0.0036335
		c-0.0053387-0.3213825-0.0106769-0.6427593-0.0160155-0.9641361C5.4899831,27.2623138,5.6206398,27.1137981,5.7512956,26.9652824z"
		/>
	<path style="fill:#102948;" d="M12.0375843,13.8268318c0.1747036-0.1926003,0.3494062-0.3852005,0.5241022-0.5784788
		c0.0712662,0.022296,0.1427107,0.0228376,0.2142715,0.0015707c0.0874319,0.0272665,0.1749191,0.0539064,0.2624054,0.0805464
		c-0.0158463,0.2615633-0.0848513,0.537775,0.1976261,0.7171249c-0.0024071,0.1135378-0.0048122,0.2270765-0.0072174,0.3406143
		c-0.4556627,0.0408592-0.9113274,0.0817184-1.366992,0.1225767c-0.0665121-0.0219498-0.1343718-0.0382824-0.2035751-0.0489931
		C11.7846699,14.250144,11.9111271,14.0384874,12.0375843,13.8268318z"/>
	<path style="fill:#527598;" d="M5.3593268,27.4108295c0.0053387,0.3213768,0.0106769,0.6427536,0.0160155,0.9641361
		c-0.3687744-0.2199802-0.6521721-0.4657536-0.2753925-0.9108276C5.1862612,27.4464836,5.2727938,27.4286556,5.3593268,27.4108295z"
		/>
	<path style="fill:#D4D9DD;" d="M12.5462103,18.8839912c-0.0025015,0.2324562-0.005002,0.4649162-0.0076704,0.6974716
		c-0.2975187-0.1384182-0.4537983-0.3682613-0.45327-0.6995945C12.2388725,18.8826237,12.3925419,18.8833084,12.5462103,18.8839912z
		"/>
	<path style="fill:#CAD4D6;" d="M10.6849222,16.7872372c0.1960659,0.0961113,0.241745,0.2714806,0.2467737,0.4682865
		C10.6436577,17.2078609,10.35252,17.1618214,10.6849222,16.7872372z"/>
	<path style="fill:#93978F;" d="M5.1578703,26.5942135c0.0351877-0.2169762,0.1171656-0.2287083,0.2417855-0.0548534
		C5.3193092,26.557766,5.2385898,26.5759907,5.1578703,26.5942135z"/>
	<path style="fill:#A9B0B0;" d="M43.6094856,22.5796833c-0.0034065,0.1979847,0.0420227,0.3734055,0.2244301,0.4854736
		c0.0028877,0.0673294,0.0067787,0.1347237,0.0116806,0.2019768c-0.0431595,0.4453182-0.6219177,0.6719284-0.4862518,1.1903076
		c-1.3089981-0.2010403-2.3919067-1.0998459-3.7307281-1.2088451c-1.3873177-0.883913-2.9711304-1.3254147-4.4610023-1.9783421
		c-0.2265549-0.0992851-0.4478531-0.0889778-0.6011467,0.1496143c-4.581274-2.0489407-9.2597713-3.8844662-13.7003269-6.2416697
		c0.3478737-0.1710567,0.6902752-0.3574123,1.0562458-0.0271683c0.2455387,0.2215681,0.5476513,0.3647633,0.8138027,0.0867195
		c0.3251133-0.3396387-0.2066898-0.5000095-0.2242508-0.780242c-0.2010269-0.4538689-0.067091-0.7326002,0.4319515-0.5660582
		c1.3754482,0.4590178,2.9196529,0.5858755,4.1446762,1.2432804c2.7522583,1.4769926,5.5665894,2.8047953,8.3926277,4.1204576
		C38.138443,20.4922695,40.8296852,21.6435375,43.6094856,22.5796833z"/>
	<path style="fill:#BBC6C2;" d="M43.6094856,22.5796833c-2.7798004-0.9361458-5.4710426-2.0874138-8.1282921-3.3244953
		c-2.8260384-1.3156624-5.6403694-2.643465-8.3926277-4.1204576c-1.2250233-0.6574049-2.769228-0.7842627-4.1446762-1.2432804
		c-0.4990425-0.1665421-0.6329784,0.1121893-0.4318905,0.5662556c-0.1538372,0.0084286-0.3077393,0.0166588-0.4616394,0.0248909
		c0.0239239-0.3722982-0.0541878-0.6460676-0.4905853-0.7518692c-0.3212204-0.077879-0.658947-0.223649-0.6664143-0.6586142
		c1.3821774-0.4173088,2.6362324,0.2178392,3.9357586,0.4791908c0.382679,0.8302031,1.2585678,0.6179037,1.8849087,0.7754869
		c3.3009071,0.8304901,6.4310532,2.139863,9.6427155,3.1986055c1.9328346,0.6371689,3.8749542,1.5703316,6.0241127,1.6271954
		c0.6311493,0.0166969,1.2827988,0.4564896,1.8628464,0.8057079c0.4196053,0.2526245,0.419342,0.8263321,0.1517792,1.1317501
		C44.0002899,21.541153,43.9052925,22.1044521,43.6094856,22.5796833z"/>
	<path style="fill:#266097;" d="M43.8457031,23.2672081c-0.0050087-0.0673275-0.0088997-0.1347218-0.0117874-0.2020512
		c0.1383018-0.1162453,0.2767067-0.2326183,0.4148521-0.3491306c-0.0568237,1.1353073,0.3403091,2.2465935,0.1805687,3.3873291
		C43.6757431,25.2730198,44.3037529,24.1582756,43.8457031,23.2672081z"/>
	<path style="fill:#186FC9;" d="M9.7793036,24.6671619c0.7111864-0.1160469,1.3523331-0.5481873,2.1075716-0.466959
		c-0.0008993,0.1414509-0.0021296,0.2829418-0.0036306,0.4249077c-0.0631971,0.1413212-0.1745386,0.2797222-0.1817884,0.4233742
		c-0.1065445,2.1114502,0.5822315,4.0690842,1.3267241,5.9795074c0.2026911,0.5201149,1.0403051,0.8949757,1.5815582,0.1339626
		c0.2886581-0.4058628,0.7018347-0.4328022,1.055048-0.6380157c0.1297941-0.0754128,0.4262495,0.038229,0.3539705-0.2948666
		c-0.2604704-1.2003384,0.5690632-1.4453201,1.4487553-1.6437798c0.129467-0.0094757,0.2589359-0.0189514,0.3884163-0.0290661
		c-0.0141907,0.4855957-0.0283947,0.9718285-0.042551,1.45788c-0.5732956,0.1442471-0.5228481,0.6478329-0.6401939,1.0726738
		c-0.3339081,1.2088928-1.4792175,1.9631462-2.545846,1.7036819c-0.3117628-0.1684914-0.5125246-0.5278854-0.9185505-0.5337906
		c-0.4201136-0.2741089-0.884532-0.3967743-1.3829689-0.4027023c-0.3952589-2.1101379-2.6733513-3.4740887-2.3292208-5.8772564
		C8.9621315,25.6998272,9.7935982,25.1133251,9.7793036,24.6671619z"/>
	<path style="fill:#527598;" d="M5.833312,28.8333778c0.2338848,0.080986,0.4677701,0.161974,0.7016134,0.2428741
		c0.4040923,0.005167,0.7225099,0.2066364,1.0070696,0.4628887c1.1539907,1.0391903,2.4880972,1.8068905,3.8324966,2.5599766
		c0.0914545,0.2167511,0.1829071,0.4335022,0.2743626,0.6502495c-0.3071404,0.3514328-0.5181227,0.9086761-1.1604691,0.5426521
		c-1.368844-0.8604774-2.271863-2.2643585-3.6436152-3.1236954C6.3431916,29.8541069,6.0292268,29.3854351,5.833312,28.8333778z"/>
	<path style="fill:#266097;" d="M14.6273375,32.7904625c1.0666285,0.2594643,2.2119379-0.4947891,2.545846-1.7036819
		c0.1173458-0.4248409,0.0668983-0.9284267,0.6401939-1.0726738c-0.0122395,1.3315296-0.6884861,2.3912964-1.4046001,3.4347115
		c-0.2841206,0.2438927-0.5683155,0.4877968-0.8525095,0.7317009
		C14.9649754,33.9053841,14.7244358,33.3958511,14.6273375,32.7904625z"/>
	<path style="fill:#266097;" d="M11.6488543,32.7493668c-0.0914555-0.2167473-0.1829081-0.4334984-0.2741642-0.6504173
		c0.3219938-0.0630531,0.6983423,0.0859642,0.951128-0.2449799c0.4984369,0.005928,0.9628553,0.1285934,1.3829689,0.4027023
		c-0.0171041,0.1623573-0.0341415,0.3250694-0.0507126,0.4881363c-0.2102757-0.0020752-0.4210138-0.004509-0.6317539-0.0069389
		C12.5632544,32.2731857,12.1064196,32.5550041,11.6488543,32.7493668z"/>
	<path style="fill:#3C5161;" d="M13.0263205,32.7378693c0.2107401,0.00243,0.4214783,0.0048637,0.6317539,0.0069389
		c0.9327507,0.1782074-0.0092897,0.9161034,0.3723164,1.2863159c0.0744915,0.0722618-0.1333237,0.2567139-0.2980289,0.2150192
		c-0.4234409-0.1071854-0.5808649-0.4609032-0.6712875-0.8335419C13.008893,33.1975403,13.0352917,32.9634171,13.0263205,32.7378693
		z"/>
	<path style="fill:#CAD4D6;" d="M15.5562677,34.1805191c0.284194-0.2439041,0.5683889-0.4878082,0.8525095-0.7317009
		c0.4516792,0.1897621,0.1687832,0.4636879,0.0818901,0.7151527c-0.0755844,0.0780258-0.1511936,0.1560555-0.2268047,0.2340889
		l0.0007629,0.000042c-0.5994587-0.0104408-0.6650324,1.6101837-1.615097,0.5287209
		C15.0048313,34.7425079,15.5173273,34.7491875,15.5562677,34.1805191z"/>
	<path style="fill:#93978F;" d="M20.8658009,15.178319c4.4408951,2.3570833,9.1193924,4.1926088,13.7006245,6.2415743
		c1.3239975,0.6209068,2.6617966,1.2147846,3.9642067,1.8781376c0.4236679,0.2157841,0.7365494,0.0240688,1.0979843-0.0494347
		c1.3388214,0.1089993,2.42173,1.0078049,3.7307968,1.2085762c-0.0878372,0.6294308,0.5000191,1.0752888,0.4604034,1.6918507
		c-0.5076828-0.0526428-0.9561958-0.2685318-1.4158096-0.4751034c-3.1529961-1.417078-6.3128052-2.8189793-9.4704247-4.225769
		c-1.1448498-0.5159798-2.2452278-1.1351547-3.4592209-1.4911652c-2.0763283-1.2507229-4.3441181-2.1040382-6.5243492-3.1383667
		c-1.5971432-0.7577019-3.2084217-1.4856129-4.9662209-1.8200903c-0.9620304-0.1830587-2.014493,0.1725492-2.8947763-0.4864817
		c-0.0082712-0.0828714-0.0167179-0.1657171-0.0249128-0.2486982c0.3990602-0.0070992,0.7978706-0.0140629,1.1966801-0.0210257
		c0.2320099,0.0071554,0.4640198,0.0143118,0.6959991,0.0212631C18.2597675,14.5683594,19.5627842,14.8733387,20.8658009,15.178319z
		"/>
	<path style="fill:#D4D9DD;" d="M32.9335823,21.4481506c3.1576195,1.4067898,6.3174286,2.808691,9.4704247,4.225769
		c0.4596138,0.2065716,0.9081268,0.4224606,1.415699,0.4743137c0.1949463,0.1656303,0.3454094,0.4898205,0.6724472,0.1893139
		c0.3951874,0.1577339,0.7903748,0.3154678,1.185379,0.4729328c0.0665436,0.0717869,0.1332664,0.1438465,0.1999893,0.2159061
		l0.0065231-0.015583c2.0994606,0.6870842,3.9230614,0.0222435,5.6430206-1.1508465
		c0.2396126,0.0294399,0.4736137,0.0674305,0.5430031,0.3562622c0.6031876,0.4596577,0.2029953,0.7970467-0.1582336,1.0989628
		c-1.4474411,1.2098064-5.0287857,1.3360729-6.7782669,0.4813175c-2.7336655-1.3356018-5.5212784-2.572773-8.3425179-3.7117405
		c-1.2835426-0.5181808-2.2472153-1.5745449-3.6112938-1.9167118
		C32.9023743,22.0984688,32.9468956,21.7160416,32.9335823,21.4481506z"/>
	<path style="fill:#1A77D6;" d="M51.0355606,24.9138851c0.0026398,0.2255268,0.0052795,0.4510536,0.0076752,0.6766033
		c-0.8166084,0.897562-1.9627075,1.0721569-3.0442047,1.3884029c-0.151413-0.2268925-0.3063469-0.2311573-0.4648705-0.0073338
		c-0.3066063-0.0018196-0.6132126-0.0036354-0.9198189-0.005455c-0.1899223-0.9705391-1.3482018-1.1194839-1.6650581-2.0688858
		c-0.412117-1.2348251-0.2524147-2.4449062,0.7266846-3.2419548c0.5305977,0.1936226,0.8728867,0.5162907,1.0407906,1.1016788
		c0.405159,1.4125767,1.5516129,1.9733105,2.8524399,2.3287888C50.0898705,25.2280178,50.4781227,24.367115,51.0355606,24.9138851z"
		/>
	<path style="fill:#1A77D6;" d="M45.9141464,20.7300053c0.5105438-0.3697624,0.9882622-0.8027992,1.541687-1.0898991
		c0.4695091-0.2435646,1.0794525-0.7575054,1.4689674,0.1591549c-0.586277-0.0979652-1.0442848,0.2930546-1.4197273,0.5763016
		C46.9799881,20.7716961,46.4607735,20.7010422,45.9141464,20.7300053z"/>
	<path style="fill:#3C5161;" d="M15.0638514,14.263485c0.0084457,0.0828447,0.0168924,0.1656904,0.0251637,0.2485619
		c-0.6201916-0.0412626-1.2402096-0.082552-1.8602343-0.1238394c0.0023966-0.1135359,0.0048018-0.2270746,0.0072069-0.3406429
		C13.8452749,14.1195173,14.4545612,14.1915016,15.0638514,14.263485z"/>
	<path style="fill:#A9B0B0;" d="M16.9568119,14.2637911c-0.2320099-0.0071564-0.4640198-0.0143127-0.6960182-0.021472
		c0.2410412-0.3936939,1.0893707-0.8411312-0.0980835-1.1084032c-0.9855967-0.0371428-1.9716988-0.0713062-2.892313-0.4911356
		c-0.0030718-0.0771513-0.0061417-0.1543036-0.0091553-0.2311163c0.2369165-0.2389755,0.3116446-0.7225838,0.8781824-0.3347864
		c0.2878923,0.1970654,0.7913771,0.0791693,1.1973619,0.103405c0.1786003,0.2584429,0.4455347,0.2097435,0.7009602,0.2011013
		c0.4604473,0.0034723,0.9208965,0.0069437,1.3813496,0.0103827c0.6317921,1.0546637,1.718874,0.404562,2.5579433,0.6831045
		c0.3054543-0.0008316,0.6109047-0.0016632,0.9163399-0.0026264c0.0074482,0.4348335,0.3451748,0.5806036,0.6663952,0.6584826
		c0.4363976,0.1058016,0.5145092,0.379571,0.4906311,0.7517767c-0.332922,0.4023046-0.644558-0.1098223-0.970171-0.0227213
		c-1.0415211-0.7735882-2.2849693-0.8292742-3.5016518-0.9698257c-0.0372066-0.0042982-0.0958824,0.1772499-0.1445503,0.2721519
		C17.2749577,13.9293365,17.1158867,14.0965633,16.9568119,14.2637911z"/>
	<path style="fill:#BBC6C2;" d="M19.9770393,13.0748711c-0.8390694-0.2785425-1.9261513,0.3715591-2.5579433-0.6831045
		C18.3219528,12.4314518,19.437109,11.6761122,19.9770393,13.0748711z"/>
	<path style="fill:#BBC6C2;" d="M16.0377464,12.3813839c-0.2554255,0.0086422-0.5223598,0.0573416-0.7009602-0.2011013
		C15.7094765,11.7623711,15.9229097,11.8998394,16.0377464,12.3813839z"/>
	<path style="fill:#266097;" d="M47.9990311,26.9788914c1.0814972-0.316246,2.2275963-0.4908409,3.0442047-1.3884029
		c0.1614723,0.0897846,0.3227081,0.179594,0.4838867,0.269434c-1.7200165,1.1731243-3.5436172,1.837965-5.6430779,1.1508827
		c0.2432861-0.0146675,0.4867249-0.0294857,0.7302284-0.0445004c0.306675,0.0016174,0.6132813,0.0034332,0.9198685,0.0053577
		C47.6890945,26.974144,47.8440666,26.9765186,47.9990311,26.9788914z"/>
	<path style="fill:#9BA7A2;" d="M44.4921532,26.3375473c-0.3270378,0.3005066-0.4775009-0.0236835-0.6724472-0.1893139
		c0.0397263-0.6157722-0.54813-1.0616302-0.4602928-1.691061c-0.1357346-0.5181103,0.4430237-0.7447205,0.4861832-1.1900387
		c0.4581566,0.8911419-0.1698532,2.0058861,0.5837402,2.8362217C44.4499817,26.1815701,44.4710655,26.2595596,44.4921532,26.3375473
		z"/>
	<path style="fill:#266097;" d="M45.8775215,27.0263863c-0.0667229-0.0720596-0.1334457-0.1441193-0.1999893-0.2159061
		c0.0549316-0.0362453,0.109684-0.0727615,0.1644325-0.1092758C45.853817,26.8095989,45.8656693,26.9179916,45.8775215,27.0263863z"
		/>
	<path style="fill:#527598;" d="M5.3718638,28.3713322c0.3285375-0.0161266,0.4620104,0.1626358,0.4681883,0.4686222
		C5.6271276,28.7405872,5.4504662,28.6049442,5.3718638,28.3713322z"/>
	<path style="fill:#D4D9DD;" d="M16.2638626,34.3980598c0.0756111-0.0780334,0.1512203-0.1560631,0.2268047-0.2340889
		C16.4150486,34.2420044,16.3394566,34.320034,16.2638626,34.3980598z"/>
	<path style="fill:#1A77D6;" d="M17.4675121,28.5852909c-0.8796921,0.1984615-1.7092257,0.4434433-1.4487553,1.6437817
		c0.072279,0.3330956-0.2241764,0.2194538-0.3539705,0.2948666c-0.3532133,0.2052135-0.7663898,0.2321529-1.055048,0.6380157
		c-0.5412531,0.761013-1.3788671,0.3861523-1.5815582-0.1339626c-0.7444925-1.9104233-1.4332685-3.8680573-1.3267241-5.9795074
		c0.0072498-0.143652,0.1185913-0.282053,0.1817884-0.4233742c0.5403328-0.0299339,1.0570354,0.0846081,1.5652914,0.2535362
		c0.0996943-0.0004368,0.1990433-0.0010624,0.2983913-0.001688c1.5201664-0.0566196,2.140872,1.182251,2.9973469,2.0814629
		c-0.0858173,0.2309456-0.4973183,0.2941151-0.3774834,0.6056137c0.1456261,0.3785343,0.515583,0.3447247,0.8471127,0.3397312
		C17.298439,28.1309414,17.3829746,28.3581161,17.4675121,28.5852909z"/>
	<path style="fill:#186FC9;" d="M17.2139034,27.9037666c-0.3315296,0.0049934-0.7014866,0.0388031-0.8471127-0.3397312
		c-0.1198349-0.3114986,0.291666-0.3746681,0.3774834-0.6056137C17.0366211,27.2060337,17.1827126,27.5263805,17.2139034,27.9037666
		z"/>
	<path style="fill:#186FC9;" d="M13.7469273,24.8769588c-0.0993481,0.0006256-0.1986971,0.0012512-0.2983913,0.001688
		C13.5469828,24.721344,13.6465616,24.7208614,13.7469273,24.8769588z"/>
	<path style="fill:#3C5161;" d="M13.2703972,12.6427803c0.9206142,0.4198294,1.9067163,0.4539928,2.8927917,0.4909754
		c-0.0734997,0.6552763-0.5559464,0.3916779-0.861702,0.3281336c-0.752759-0.1564436-1.5053806-0.150506-2.2631235-0.1314192
		c-0.0874863-0.0266399-0.1749735-0.0532799-0.2624054-0.0805464
		C12.7475491,12.8895979,13.1211157,12.8575983,13.2703972,12.6427803z"/>
	<path style="fill:#D4D9DD;" d="M6.5542746,35.7637138c0.0691361-0.0691299,0.1382723-0.1382637,0.207375-0.2073631
		C6.692502,35.6254921,6.6233878,35.694603,6.5542746,35.7637138z"/>
	<path style="fill:#0653AB;" d="M12.3258181,31.8539696c-0.2527857,0.3309441-0.6291342,0.1819267-0.951128,0.2449799
		c-1.3445978-0.7529182-2.6787043-1.5206184-3.832695-2.5598087c-0.2845597-0.2562523-0.6029773-0.4577217-1.0070696-0.4628887
		c0.1259203-0.6267872-0.6159797-1.0063362-0.4673195-1.6398258c0.4663167,0.0607224,0.882875-0.1052818,1.0374808-0.5252762
		c0.4694161-1.2751808,1.5990329-1.717123,2.6741691-2.2439957c0.0143423,0.4461708-0.8171244,1.0326729,0.2173414,1.3095589
		C9.6524668,28.3798809,11.9305592,29.7438316,12.3258181,31.8539696z"/>
	<path style="fill:#9BA7A2;" d="M13.0383635,13.3304701c0.7577429-0.0190868,1.5103645-0.0250244,2.2631235,0.1314192
		c0.3057556,0.0635443,0.7882023,0.3271427,0.861702-0.3281336c1.1869755,0.2674322,0.3386459,0.7148695,0.0976048,1.1085634
		c-0.3988209,0.0069666-0.7976313,0.0139303-1.1966915,0.0210295c-0.6095409-0.071847-1.2188272-0.1438313-1.8281145-0.2157841
		C12.9535122,13.8682451,13.0225172,13.5920334,13.0383635,13.3304701z"/>
	<path style="fill:#9BA7A2;" d="M21.0802345,14.4597826c0.325613-0.087101,0.637249,0.4250259,0.970171,0.0227213
		c0.1538544-0.0081396,0.3077564-0.0163698,0.4615936-0.0247984c0.0174999,0.280035,0.5493031,0.4404058,0.2241898,0.7800446
		c-0.2661514,0.2780437-0.568264,0.1348486-0.8138027-0.0867195c-0.3659706-0.3302441-0.7083721-0.1438885-1.0562458,0.0271683
		c-1.3033562-0.3048601-2.6063728-0.6098394-3.909359-0.9146128c0.1591053-0.1670227,0.3181763-0.3342495,0.4771938-0.5015049
		C18.6903419,13.7804356,19.7953739,14.5899925,21.0802345,14.4597826z"/>
	<path style="fill:#BBC6C2;" d="M39.6286163,23.2485962c-0.3614349,0.0735035-0.6743164,0.2652187-1.0979843,0.0494347
		c-1.3024101-0.663353-2.6402092-1.2572308-3.9642067-1.8781376c0.1533356-0.2386169,0.3746338-0.2489243,0.6011887-0.1496391
		C36.657486,21.9231815,38.2412987,22.3646832,39.6286163,23.2485962z"/>
	<path style="fill:#186FC9;" d="M47.9990311,26.9788914c-0.1549644-0.0023727-0.3099365-0.0047474-0.4648895-0.0072289
		C47.6926842,26.7477341,47.8476181,26.7519989,47.9990311,26.9788914z"/>
	<path style="fill:#3C5161;" d="M21.0802345,14.4597826c-1.2848606,0.1302099-2.3898926-0.679347-3.6462593-0.6977015
		c0.0487251-0.0948744,0.1074009-0.2764225,0.1446075-0.2721243C18.7952652,13.6305084,20.0387135,13.6861944,21.0802345,14.4597826
		z"/>
</g>
</svg>
