<?xml version="1.0" encoding="utf-8"?>
<!-- Generator: Adobe Illustrator 21.1.0, SVG Export Plug-In . SVG Version: 6.00 Build 0)  -->
<svg version="1.1" id="Слой_1" xmlns="http://www.w3.org/2000/svg" xmlns:xlink="http://www.w3.org/1999/xlink" x="0px" y="0px"
	 viewBox="0 0 55 45" style="enable-background:new 0 0 55 45;" xml:space="preserve">
<g>
	<path style="fill:#737E76;" d="M13.8032465,21.6649342c0.7769098-0.6894875,1.856658-0.8623695,2.6369867-1.54599
		c0.3261433-0.1656761,0.65238-0.3312283,0.9786186-0.4967785c0.2976971-0.1239491,0.5953941-0.2479,0.893034-0.371994
		c1.2433739-0.606142,2.4867992-1.2121391,3.7302265-1.8181381c0.0557671-0.0285435,0.111536-0.057085,0.1672802-0.0857296
		c2.4766674-1.0439301,4.9513111-2.0926514,7.4306622-3.1301203c2.2097836-0.9246721,4.3617992-1.9849262,6.7261829-2.5250654
		c1.1245384-0.2568979,2.3466148-0.092783,3.3842163-0.7535725c0.0876656-0.055831,0.274025,0.0351639,0.4121323,0.0680447
		c0.6622505,0.1576824,1.3236656,0.3188391,1.9853783,0.4787617c0.0534401,0.0738821,0.1068802,0.1477642,0.1602898,0.2217579
		c-0.1674385,0.3973475-0.5273438,0.3697672-0.8647079,0.3919373c-0.2964783,0.0302134-0.5749588-0.2375937-0.8944283,0.0014973
		c-0.6563454,0.4912128-1.4631615,0.7172642-2.1479416,1.1524649c-0.4752426,0.3020287-1.2258224,0.1439486-1.4481125,0.8603945
		c-0.0464478,0.0014391-0.0925941,0.0059528-0.1384392,0.0135422c-0.1182976,0.0059013-0.2448616-0.01369-0.3536491,0.0215588
		c-1.4410133,0.4669027-2.7563019,1.2459068-4.2065201,1.6936159c-0.5335236,0.16471-1.1158504,0.2731524-1.3877029,0.8664942
		c-0.0926228,0.004982-0.1852455,0.0099602-0.2778683,0.0149422c-0.2315807,0.0170937-0.5399742-0.1220055-0.5797596,0.2851048
		c-0.0476723,0.003624-0.0954151,0.005228-0.1432266,0.0048103c-0.2161942-0.016634-0.426487-0.0238533-0.4431877,0.2777882
		c-0.1048412,0.1629333-0.2748184,0.1417637-0.4332333,0.1532745c-0.0753345-0.1074524-0.1923733-0.1900272-0.2996883-0.1064548
		c-0.557951,0.4345112-1.2625771,0.5277557-1.8737907,0.8316727c-0.272419,0.135458-0.7093487,0.09062-0.7236481,0.5656395
		c-0.0914078,0.0067425-0.1828175,0.013483-0.2742252,0.0202255c-0.700491,0.167469-1.4044075,0.3484974-2.0240841,0.7158642
		c-0.2576866,0.1527653-0.691431,0.124958-0.7427959,0.5627251c-0.0923462,0.0049477-0.1846905,0.0098953-0.2770367,0.0148449
		c-1.4276237,0.3099785-2.7439537,0.9050541-4.0094318,1.6115265c-0.3086433,0.1723042-0.7954769,0.0675945-0.9170456,0.5503788
		c-0.0462055,0.0038567-0.0924854,0.0062485-0.1388378,0.0071774c-0.2867203-0.0136242-0.5592003-0.003706-0.8395939,0.1143532
		c-0.888463,0.3740921-1.7724667,0.7747936-2.6915808,1.0561314c-1.2147293,0.37183-2.3684664,0.8312588-3.3587503,1.6446648
		c-0.2420549,0.1988182-0.6947384,0.0697594-0.7859135,0.5042076c-0.2000914,0.1847763-0.4001827,0.3695507-0.6000061,0.5546684
		c-0.1044044,0.0299263-0.2090759,0.0595093-0.3137493,0.0890942c0.0142069,0.0184879,0.0249443,0.0479202,0.0431824,0.0537033
		c0.124527,0.0394897,0.2259493,0.0003281,0.3055706-0.1007881c1.2090397-0.3692913,2.4034081-0.7737217,3.4825439-1.4541264
		c0.3142939-0.1835384,0.7904739,0.0003433,0.9927626-0.4374104c0.1185293-0.0156345,0.2471399-0.0066738,0.354104-0.0505219
		c2.1501465-0.8813801,4.3216553-1.7157936,6.4399738-2.6683788c2.702713-1.2153797,5.4165382-2.4020195,8.1473503-3.5522671
		c1.256424-0.5292187,2.5438328-0.9956665,3.726141-1.6903782l-0.0045738,0.0019875
		c1.2727318-0.3305511,2.4363441-0.9385509,3.6226654-1.4760866c0.6800728-0.3081474,1.4974976-0.3566961,2.0219612-0.98594
		l0.0000229,0.0010262c0.142601-0.0085669,0.3029137,0.0226078,0.4250603-0.031848
		c1.2196236-0.5437336,2.4326477-1.1022673,3.6484337-1.6546335c0.1664505-0.0756226,0.2651863-0.1973782,0.2946663-0.3767309
		c1.3079948,0.3718643,2.6839371,0.5800581,3.7421722,1.5539083c-0.0087357,0.1123295-0.0175095,0.2243614-0.0262833,0.3363924
		c-0.0915451,0.004941-0.1830826,0.0098839-0.2746277,0.0148258c-0.0898857-0.1126957-0.195076-0.1092701-0.3177452-0.0540428
		c-1.2539864,0.5645466-2.5101471,1.1243067-3.7604752,1.6968136c-0.0634308,0.0290451-0.0791206,0.1623554-0.1170311,0.2471218
		c-0.0461884,0.0017176-0.0923882,0.0032282-0.1386719,0.0044804c-0.5209084,0.1646757-1.1037865,0.2032242-1.4539604,0.7149515
		c-0.1428566,0.0512447-0.285717,0.1024876-0.4285736,0.1537323c-0.8764648,0.1761131-1.6943359,0.4707928-2.323101,1.1481094
		c-0.0451393,0.0042496-0.0903282,0.0078468-0.1355782,0.010788c-0.7071075,0.1154671-1.3854103,0.2943363-1.8888397,0.8581276
		c-0.1117058,0.2564068-0.3310356,0.3006992-0.5768929,0.2927074c-0.1445732-0.2080879-0.3001099-0.0768566-0.4304924,0.0041237
		c-0.5058403,0.3141632-1.0915489,0.4611416-1.6025543,0.7438812c-0.5795479,0.3206615-1.3271732,0.3594189-1.7298813,0.98699
		c-0.0652866,0.1104717-0.1714764,0.1366119-0.2886868,0.1400375c-0.7439709-0.1493835-1.2295818,0.3119221-1.7322731,0.7328529
		l-0.0003071,0.0003071c-0.2089062-0.0057316-0.3541889,0.0883083-0.4377346,0.27915
		c-0.0477962,0.0029488-0.0956173,0.0053921-0.1434669,0.0073338c-1.1910381,0.0458603-2.1125107,0.8393307-3.208992,1.1793861
		c-1.1047401,0.342617-2.0837097,1.0789967-3.2321758,1.3934956c-0.4456062,0.1220303-0.8440342,0.3411121-1.0830097,0.7690372
		c-0.0924797,0.0001831-0.1849575,0.0003662-0.2775669,0.0003853c-1.5720081,0.3213673-2.9116707,1.2213726-4.3947926,1.7640171
		c-0.4328909-0.2839031-0.9089212-0.4512177-1.4194775-0.5252209c0.0703058-0.3231621,0.3804569-0.3404942,0.6030073-0.454792
		c1.1915159-0.6119347,2.4619894-1.0424004,3.6801977-1.6004295c3.3437023-1.5316639,6.7379627-2.9525642,10.1036701-4.4366798
		c3.1238403-1.3774662,6.2381859-2.7765293,9.3537369-4.1727161c1.7788658-0.7971687,3.5967407-1.5125284,5.3263474-2.4594221
		c-0.1576653-0.1817141-0.2953873-0.2388611-0.4784088-0.1594353c-1.4071808,0.610652-2.8030777,1.2507763-4.1981201,1.8841362
		c-1.3375053,0.6072397-2.705864,1.1396484-4.037468,1.7570963c-1.10112,0.5105762-2.1944427,1.0389347-3.3056011,1.5266457
		c-1.6265049,0.7139072-3.2564468,1.4218788-4.9035683,2.0861511c-0.8735981,0.352314-1.636198,0.9081573-2.5446892,1.226593
		c-0.4704895,0.1649113-1.100771,0.2085915-1.4855404,0.6571827l0.0056076-0.0055923
		c-1.191082,0.4774704-2.3886833,0.9394093-3.5718536,1.4357395c-2.2647438,0.9500427-4.5034847,1.9646091-6.7863913,2.8680649
		c-2.144187,0.8485565-4.186698,1.902998-6.2645273,2.8877621c-0.2559462,0.1213017-0.1358929,0.3102283-0.1681976,0.4758339
		c-0.0660491,0.0201187-0.1321568,0.0401783-0.1982656,0.060236c0.0136957,0.0189171,0.0374975,0.0554008,0.0396118,0.054184
		c0.0568728-0.0327129,0.1115212-0.0692959,0.1665449-0.1052284c0.1766367-0.0671902,0.3571348-0.1257648,0.5293131-0.2029095
		c1.6818194-0.7535419,3.3694081-1.4930611,5.0998778-2.1300488l0.0261011,0.0298691
		c0.0281582,0.1993484-0.2732553,0.366539-0.05548,0.5851212c0.22118,0.2219982,0.4389763,0.0534744,0.6588993-0.0012016
		c0.2845993-0.0707569,0.4876099-0.2739582,0.7159929-0.4359188c0.2792101,0.0463753,0.6991892-0.2183228,0.8005838,0.2201271
		c0.1031609,0.4460888-0.3314133,0.5147877-0.6406593,0.6285973c-0.1567831,0.0576954-0.3192482,0.1055202-0.4831095,0.1374779
		c-0.802145,0.1564426-1.5598145,0.4444141-2.3027115,0.7741585c-0.8434916,0.3744011-1.7173414,0.6660519-2.547595,1.0914192
		c-0.4636149,0.2375259-0.94064,0.3108616-1.0821733,0.8888626c-0.4723115,0.1986904-1.0790544,0.2658882-0.9907894,1.0129128
		c-0.4029655-0.0369873-0.3029346-0.3473492-0.3065214-0.5861835c-0.0063605-0.4233856-0.0133834-0.841341-0.3314366-1.1745853
		c0.0592346-0.4991684,0.1637173-0.9856358,0.4026012-1.4343796c0.804934-0.1842537,0.7266283-0.8525791,0.7907653-1.4428368
		c0.0902648-0.2914352,0.2886419-0.5088787,0.4938846-0.7216225c0.075213-0.0504589,0.1504259-0.1009159,0.2256389-0.1513767
		l-0.0461702-0.0064297l-0.0014009-0.0465965c0.5147109,0.149559,0.9026289,0.1962357,0.9322386-0.566925
		c0.0196581-0.5066853,0.5892553-0.8269863,0.6944761-1.3469601c0.1058331-0.2004089,0.2116652-0.4008217,0.3174629-0.6012688
		c0.1990528-0.0265179,0.4396105,0.016901,0.4765902-0.282814c0.8363323-1.1629467,2.3605766-1.158577,3.3879604-1.9968891
		C13.3021736,21.8944836,13.5947132,21.8828945,13.8032465,21.6649342z M15.3880653,21.6320496
		c0.1849413-0.0140324,0.4018993,0.0295544,0.4903536-0.2631149c-0.2704725-0.0383339-0.4634523-0.0404739-0.4947624,0.2578182
		c-0.1054945,0.0209599-0.210988,0.0419197-0.3164835,0.0628815c0.0124645,0.0189018,0.0211487,0.0493336,0.0379992,0.0548611
		C15.2288942,21.785078,15.3224096,21.7416935,15.3880653,21.6320496z M17.4197674,20.771349
		c0.3724785,0.0173779,0.7118416-0.1007023,1.0327988-0.2709713c0.7617359-0.404108,1.5433826-0.8286896,2.3380165-1.0895576
		c1.6001415-0.5253105,3.1225796-1.2288342,4.6822224-1.8393574c3.3094368-1.2954788,6.585022-2.6792488,9.8551636-4.0721836
		c0.9852219-0.4196615,2.0270348-0.7389259,2.9148941-1.3785505c-1.4767838,0.2629738-2.8195114,0.9341269-4.1833382,1.4752092
		c-1.9653931,0.7797451-3.9666176,1.4831429-5.8823032,2.4061375c-1.617775,0.7794571-3.3519325,1.3135605-5.0119514,2.0101719
		c-1.794857,0.753191-3.6432838,1.3929672-5.3265438,2.3912601c-0.1472702,0.0873413-0.5917568-0.1271954-0.4357796,0.3483276
		c-0.1733799,0.0401306-0.4354954-0.0670757-0.449646,0.2605286C17.1976376,21.080204,17.3183765,20.9438057,17.4197674,20.771349z
		 M16.4188824,21.032795c-0.0725136,0.0637817-0.1771011,0.1110039-0.1930523,0.1790142
		c-0.0345211,0.1471882,0.1016579,0.1289902,0.173214,0.100029c0.0743942-0.0301075,0.1291504-0.1087475,0.1924934-0.1661663
		C16.5417347,21.1131115,16.4919319,21.0805531,16.4188824,21.032795z M38.6376114,11.9901419
		c0.0032959,0.0151653,0.0017014,0.0374136,0.0110168,0.0438395c0.0140686,0.0097065,0.035759,0.0083752,0.0542068,0.011734
		c-0.0049019-0.0250521-0.0098038-0.0501041-0.0147057-0.0751562C38.6712914,11.9770861,38.6544533,11.983614,38.6376114,11.9901419
		z"/>
	<path style="fill:#F6F6F6;" d="M22.0421124,17.4320335c-1.2434273,0.605999-2.4868526,1.2119961-3.7302265,1.8181362
		c-0.1738415-0.4251976-0.0265179-0.5214272,0.4031849-0.7482967c0.9042702-0.4774246,1.846777-0.8320827,2.7909184-1.1946239
		C21.6659412,17.2458267,21.9666882,16.9690075,22.0421124,17.4320335z"/>
	<path style="fill:#5E6A62;" d="M7.2298479,26.7713394c0.308372-0.7080441,0.9327431-1.1762218,1.3611507-1.7931423
		c0.0886164-0.0400391,0.1772308-0.0800877,0.2657042-0.1204414c-0.105361,0.5196724-0.6749582,0.8399734-0.6946163,1.3466587
		C8.1324768,26.9675751,7.7445588,26.9208984,7.2298479,26.7713394z"/>
	<path style="fill:#F6F6F6;" d="M17.4188519,19.6221657c-0.3262386,0.1655502-0.6524754,0.3311024-0.9786186,0.4967785
		c-0.000946-0.2513428-0.466466-0.2964344-0.3179226-0.5432892c0.1566582-0.2603455,0.4342289-0.0228748,0.6480522,0.0271225
		C16.9907475,19.6543064,17.2149639,19.3335342,17.4188519,19.6221657z"/>
	<path style="fill:#F6F6F6;" d="M13.8032465,21.6649342c-0.2085333,0.2179604-0.5010729,0.2295494-0.7646704,0.3115482
		c-0.2252026-0.1207504-0.3750763-0.3019829-0.0941648-0.4721012
		C13.2409792,21.3247814,13.5865049,21.2456398,13.8032465,21.6649342z"/>
	<path style="fill:#F6F6F6;" d="M9.6506157,23.9733715c-0.0369797,0.299715-0.2775373,0.2562962-0.4765902,0.282814
		c0.0049553-0.12463-0.2993031-0.1539459-0.1158752-0.3210106C9.2541256,23.7566853,9.458972,23.86026,9.6506157,23.9733715z"/>
	<path style="fill:#48544B;" d="M23.0517082,22.0658836c0.3847694-0.4485912,1.0150509-0.4922714,1.4855404-0.6571827
		c0.9084911-0.3184357,1.6710911-0.874279,2.5446892-1.226593c1.6471214-0.6642723,3.2770634-1.3722439,4.9035683-2.0861511
		c1.1111584-0.487711,2.2044811-1.0160694,3.3056011-1.5266457c1.331604-0.6174479,2.6999626-1.1498566,4.037468-1.7570963
		c1.3950424-0.6333599,2.7909393-1.2734842,4.1981201-1.8841362c0.1830215-0.0794258,0.3207436-0.0222788,0.4784088,0.1594353
		c-1.7296066,0.9468937-3.5474815,1.6622534-5.3263474,2.4594221c-3.115551,1.3961868-6.2298965,2.7952499-9.3537369,4.1727161
		c-3.3657074,1.4841156-6.7599678,2.9050159-10.1036701,4.4366798c-1.2182083,0.5580292-2.4886818,0.9884949-3.6801977,1.6004295
		c-0.2225504,0.1142979-0.5327015,0.1316299-0.6030035,0.4549866c-0.3257246,0.0483532-0.6613712,0.0512562-0.9626131,0.2111511
		c-0.3001146,0.1281147-0.5957422,0.2685146-0.9018316,0.3802662c-0.2242203,0.0818577-0.5283947,0.1602402-0.4706478,0.4195213
		c0.0640697,0.2876701,0.381279,0.1806469,0.6094351,0.1587582c0.0122366,0.0668373,0.0244741,0.1336727,0.0367126,0.2005081
		c-0.2286453,0.1618023-0.4316559,0.3650036-0.7162552,0.4357605c-0.219923,0.0546761-0.4377193,0.2231998-0.6588993,0.0012016
		c-0.2177753-0.2185822,0.0836382-0.3857727,0.0552387-0.5853882c0.0602474-0.0266895,0.1207342-0.0531158,0.181221-0.0795403
		c-0.0145407-0.0170403-0.0379534-0.0508709-0.0422792-0.048584c-0.05651,0.0298595-0.1103153,0.0648346-0.1648016,0.0985222
		c-1.7304697,0.6369877-3.4180584,1.3765068-5.0998778,2.1300488c-0.1721783,0.0771446-0.3526764,0.1357193-0.5293131,0.2029095
		l-0.0079513-0.0092525c0.0323648-0.1655445-0.0876884-0.3544712,0.1682577-0.4757729
		c2.0778294-0.9847641,4.1203403-2.0392056,6.2645273-2.8877621c2.2829065-0.9034557,4.5216475-1.9180222,6.7863913-2.8680649
		c1.1831703-0.4963303,2.3807716-0.9582691,3.5718422-1.4357204c0.0182743,0.0117435,0.0365562,0.0234661,0.0548382,0.0351887
		C23.0919991,22.0856266,23.0718517,22.0757561,23.0517082,22.0658836z"/>
	<path style="fill:#48544B;" d="M28.5541592,21.6304531c0.0478497-0.0019417,0.0956707-0.004385,0.1434708-0.007267
		c0.3743477,0.2650051,0.3673477-0.067749,0.4377308-0.2792168l0.000267-0.0003471
		c0.6823082,0.0036869,1.2055759-0.3686619,1.7323132-0.7328129c0.1172104-0.0034256,0.2234001-0.0295658,0.2886963-0.1400242
		c0.9442616-0.056097,1.6717205-0.6612129,2.5031185-1.0014706c0.4468536-0.1828785,0.9817352-0.248373,1.2598-0.7335377
		c0.2458572,0.0079918,0.4651871-0.0363007,0.5769081-0.2926712c0.6750755-0.1859913,1.4303741-0.1954117,1.8888245-0.8581638
		c0.0452499-0.0029411,0.0904388-0.0065384,0.1356087-0.010746c0.69487,0.0284653,1.1649361-0.6699734,1.8785477-0.5808563
		l0.0286331,0.0370941c-0.468792,0.4364109-1.0719986,0.6370907-1.633976,0.8976688
		c-4.8631821,2.2549572-9.7272854,4.5082035-14.6071758,6.7266312c-1.0408726,0.4731865-2.0308151,1.044754-3.1061935,1.4585342
		c-0.9975319,0.3838291-2.0410042,0.7221546-2.894125,1.4203472c-0.1245728-0.1240997-0.2491455-0.2482033-0.3737164-0.3723049
		c0.0275307-0.1165733,0.0529442-0.2350388,0.1802521-0.2887058c1.0580769-0.4460373,2.1189556-0.8855972,3.1725082-1.3420715
		c0.2535648-0.1098595,0.5609474-0.1943283,0.5868912-0.5576077c0.0924816-0.0001869,0.1849594-0.00037,0.2774162-0.0007076
		c0.1067066,0.1338196,0.2356071,0.1399803,0.3827991,0.0728111c2.0975075-0.9572144,4.1740894-1.9607105,6.3210239-2.8084621
		C28.0400257,22.1156406,28.4603424,22.0716343,28.5541592,21.6304531z"/>
	<path style="fill:#5E6A62;" d="M17.4027061,20.7515697c-0.1557369-0.4752579,0.2887497-0.2607212,0.4360199-0.3480625
		c1.68326-0.9982929,3.5316868-1.6380692,5.3265438-2.3912601c1.6600189-0.6966114,3.3941765-1.2307148,5.0119514-2.0101719
		c1.9156857-0.9229946,3.9169102-1.6263924,5.8823032-2.4061375c1.3638268-0.5410824,2.7065544-1.2122355,4.1833382-1.4752092
		c-0.8878593,0.6396246-1.9296722,0.958889-2.9148941,1.3785505c-3.2701416,1.3929348-6.5457268,2.7767048-9.8551636,4.0721836
		c-1.5596428,0.6105232-3.0820808,1.3140469-4.6822224,1.8393574c-0.7946339,0.2608681-1.5762806,0.6854496-2.3380165,1.0895576
		c-0.3209572,0.170269-0.6603203,0.2883492-1.0327988,0.2709713L17.4027061,20.7515697z"/>
	<path style="fill:#48544B;" d="M29.8658981,17.0124722c0.0478115,0.0004177,0.0955544-0.0011864,0.1431274-0.0049057
		c0.2264633-0.0273991,0.5177116,0.0769672,0.5798588-0.2850094c0.0926228-0.004982,0.1852455-0.0099602,0.2778816-0.0149155
		c0.631815,0.0631638,1.0647087-0.6850681,1.7441616-0.4275551c-1.1823082,0.6947117-2.469717,1.1611595-3.726141,1.6903782
		c-2.7308121,1.1502476-5.4446373,2.3368874-8.1473503,3.5522671c-2.1183186,0.9525852-4.2898273,1.7869987-6.4399738,2.6683788
		c-0.1069641,0.043848-0.2355747,0.0348873-0.3541327,0.0504284c-0.2343206-0.3985119,0.1675615-0.3707771,0.3257742-0.4247055
		c1.0406771-0.3547249,1.9778423-0.9663887,3.0585423-1.2210846c0.1838531-0.0433292,0.363636-0.1426868,0.3812466-0.3786144
		c0.0463524-0.0009289,0.0926323-0.0033207,0.1388187-0.0071945c1.652441-0.3766937,3.0759716-1.33498,4.6773071-1.841938
		c0.1508121-0.0477448,0.2299786-0.1635284,0.2491894-0.3199501c0.0923462-0.0049496,0.1846905-0.0098972,0.2770748-0.0147934
		c0.8152771-0.3101749,1.6312313-0.6185436,2.4451427-0.93223c0.1586971-0.0611629,0.3017693-0.1500473,0.3216991-0.3464108
		c0.0914078-0.0067425,0.1828175-0.013483,0.2742367-0.0202122c0.7118378-0.1029625,1.2991219-0.5347309,1.9683018-0.7594738
		c0.3187943-0.1070671,0.8242092-0.0100651,0.9288139-0.5313969c0.1584148-0.0115108,0.328392,0.0096588,0.433218-0.1532917
		C29.6302643,17.2931366,29.8363838,17.2937088,29.8658981,17.0124722z"/>
	<path style="fill:#48544B;" d="M6.0024872,32.33535c-0.0882649-0.7470245,0.5184779-0.8142223,0.9907999-1.0128975
		c0.2832985,0.0411758,0.5072236-0.1118679,0.7450314-0.2241344c1.356761-0.6405125,2.6619759-1.4639072,4.0860386-1.8684864
		c1.5854521-0.450428,3.0480165-1.0957756,4.484725-1.8540764c0.1896324,0.0301018,0.2813148,0.1586647,0.331089,0.3293552
		c-0.0938473,0.0170364-0.1960907,0.0155678-0.2803211,0.053793c-2.7922878,1.2671375-5.5844793,2.5345249-8.3721943,3.811676
		c-0.5104303,0.2338467-1.0528593,0.4134216-1.3269448,1.0059662c-0.1046505,0.2262421-0.3373995,0.4765968-0.6703367,0.4878578
		c-0.0186143-0.1748962,0.0195479-0.3200798,0.1494713-0.4577026C6.3048959,32.4318695,6.1630459,32.3688698,6.0024872,32.33535z"/>
	<path style="fill:#5E6A62;" d="M16.309082,27.3757553c-1.4367085,0.7583008-2.8992729,1.4036484-4.484725,1.8540764
		c-1.4240627,0.4045792-2.7292776,1.2279739-4.0860386,1.8684864c-0.2378078,0.1122665-0.4617329,0.2653103-0.7450314,0.2241344
		c0.1415229-0.5780163,0.6185479-0.6513519,1.0821629-0.8888779c0.8302536-0.4253674,1.7041035-0.7170181,2.547595-1.0914192
		c0.742897-0.3297443,1.5005665-0.6177158,2.3027115-0.7741585c0.1638613-0.0319576,0.3263264-0.0797825,0.4831095-0.1374779
		c0.3092461-0.1138096,0.7438202-0.1825085,0.6406593-0.6285973c-0.1013947-0.4384499-0.5213737-0.1737518-0.8005838-0.2201271
		c-0.0119762-0.0666771-0.0242138-0.1335125-0.0364628-0.2000179c0.4019089-0.5286331,0.9176321-0.3744602,1.3783321-0.1620655
		c0.5337172,0.2460613,0.9241686,0.1726418,1.2431316-0.3127251C16.0678921,26.9866467,16.2173786,27.1519165,16.309082,27.3757553z
		"/>
	<path style="fill:#CFD0CF;" d="M16.309082,27.3757553c-0.0917034-0.2238388-0.24119-0.3891087-0.4751549-0.4683361
		c-0.5211096-0.5381622-1.2562981-0.2563267-1.8583918-0.48452c0.3012419-0.1598949,0.6368885-0.1627979,0.9626131-0.2111511
		c0.5105524,0.0738087,0.9865828,0.2411232,1.419714,0.5248852c0.1207924,0.174696,0.2510223,0.3391762,0.4550285,0.4246769
		c0.1245708,0.1241016,0.2491436,0.2482052,0.3740139,0.3715019c0.095993,0.3620052,0.3082085,0.6512394,0.5736618,0.9069309
		c0.072813,0.3167343-0.0166111,0.6919327,0.3284492,0.9104748c-0.0040493,0.0405827,0.001543,0.0797882,0.016777,0.1176205
		c0.0271339,0.4799175,0.1063499,0.9495564,0.2768841,1.4013882c0.0125561,0.1994209,0.0248013,0.3986797,0.0370502,0.5979404
		c-0.0059204,0.1506653-0.0118408,0.3013306-0.0177593,0.4519958c-0.1518784,0.7281876-0.1436558,1.4978981-0.5595779,2.1575928
		c0.0019722-0.5794411,0.0039387-1.1588745,0.0059071-1.738308c0.1394634-0.3013878,0.1120319-0.6094055,0.0365314-0.9193363
		c0.1235256-0.5332108,0.0278072-1.0412788-0.1763096-1.536953c-0.0420284-0.151247-0.0840168-0.3024578-0.1260071-0.4536705
		c0.003418-0.3507957-0.1298695-0.6237812-0.4499264-0.7904549c0.0454121-0.4215794-0.1848869-0.6976318-0.4924145-0.9329205
		C16.5903969,27.53442,16.4987144,27.4058571,16.309082,27.3757553z"/>
	<path style="fill:#5E6A62;" d="M17.7088928,22.2171345c-0.0176105,0.2359276-0.1973934,0.3352852-0.3812466,0.3786144
		c-1.0806999,0.2546959-2.0178652,0.8663597-3.0585423,1.2210846c-0.1582127,0.0539284-0.5600948,0.0261936-0.3257742,0.4247055
		c-0.20226,0.4378471-0.6784401,0.2539654-0.9929962,0.4374313c-0.2297173-0.2494297-0.4410648-0.1345596-0.6959124-0.011095
		c-0.7163048,0.3470268-1.3996763,0.788393-2.2213669,0.8686161c0.0911751-0.4344482,0.5438585-0.3053894,0.7859135-0.5042076
		c0.990284-0.813406,2.144021-1.2728348,3.3587503-1.6446648c0.9191141-0.2813377,1.8031178-0.6820393,2.6915808-1.0561314
		C17.1496925,22.2134285,17.4221725,22.2035103,17.7088928,22.2171345z"/>
	<path style="fill:#5E6A62;" d="M28.5541592,21.6304531c-0.0938168,0.4411812-0.5141335,0.4851875-0.8203773,0.6061134
		c-2.1469345,0.8477516-4.2235165,1.8512478-6.3210239,2.8084621c-0.147192,0.0671692-0.2760925,0.0610085-0.3827991-0.0728111
		c0.2389984-0.4277706,0.6374264-0.6468525,1.0830326-0.7688828c1.1484661-0.3144989,2.1274357-1.0508785,3.2321758-1.3934956
		C26.4416485,22.4697838,27.363121,21.6763134,28.5541592,21.6304531z"/>
	<path style="fill:#5E6A62;" d="M32.6109276,16.2800865c-0.6794529-0.257513-1.1123466,0.4907188-1.7441616,0.4275551
		c0.2718391-0.5933685,0.854166-0.7018108,1.3876896-0.8665209c1.4502182-0.4477091,2.7655067-1.2267132,4.2065201-1.6936159
		c0.1087875-0.0352488,0.2353516-0.0156574,0.3535194-0.0217981c-0.768116,0.668355-1.7658005,0.8632965-2.6490326,1.2940063
		c-0.5323257,0.2595901-1.2254372,0.2422256-1.5591087,0.8623934L32.6109276,16.2800865z"/>
	<path style="fill:#5E6A62;" d="M16.812891,27.1613102c-0.2040062-0.0855007-0.3342361-0.2499809-0.4550285-0.4246769
		c1.4828815-0.5425034,2.8225441-1.4425087,4.3945522-1.763876c-0.025816,0.3634472-0.3331985,0.447916-0.5867634,0.5577755
		c-1.0535526,0.4564743-2.1144314,0.8960342-3.1725082,1.3420715C16.8658352,26.9262714,16.8404217,27.0447369,16.812891,27.1613102
		z"/>
	<path style="fill:#5E6A62;" d="M6.0024872,32.33535c0.1605587,0.0335197,0.3024087,0.0965195,0.1373587,0.2713509
		c-0.1299233,0.1376228-0.1680856,0.2828064-0.1495562,0.457695l-0.0058103,0.0009079
		c-0.225059-0.015049-0.2931089,0.1350861-0.3321595,0.3157272c-0.1758251-0.1557083-0.3516502-0.3114128-0.5274758-0.4671211
		c-0.0264993-0.0751915-0.0006557-0.2014198-0.1514964-0.155365l0.0173888-0.0019646
		c-0.0051622-0.7495308-0.0054955-1.4982357,0.3738446-2.1819324c0.3180013,0.3331776,0.3250241,0.751133,0.3313847,1.1745186
		C5.6995525,31.9880009,5.5995216,32.2983627,6.0024872,32.33535z"/>
	<path style="fill:#5E6A62;" d="M36.953064,14.1124039c0.22229-0.7164459,0.9728699-0.5583658,1.4481125-0.8603945
		c0.6847801-0.4352007,1.4915962-0.661252,2.1479416-1.1524649c0.3194695-0.2390909,0.59795,0.0287161,0.89431-0.0017109
		c-0.1679955,0.421257-0.6116791,0.3848314-0.9308319,0.5480556c-0.7564468,0.3868742-1.5751991,0.652833-2.2615929,1.1751842
		l-0.0000229-0.0010309C37.8183441,13.9174929,37.3857002,14.0149479,36.953064,14.1124039z"/>
	<path style="fill:#48544B;" d="M36.953064,14.1124039c0.4326363-0.097456,0.8652802-0.194911,1.2979164-0.2923613
		c-0.5244637,0.6292486-1.3418884,0.6777973-2.0219612,0.9859447c-1.1863213,0.5375357-2.3499336,1.1455355-3.6226654,1.4760866
		c0.3336716-0.6201353,1.026783-0.6027708,1.5591087-0.862361c0.8832321-0.4307098,1.8809166-0.6256514,2.6490326-1.2940063
		C36.8604698,14.1183567,36.9066162,14.113843,36.953064,14.1124039z"/>
	<path style="fill:#5E6A62;" d="M22.7742081,20.0480518c-0.0192108,0.1564217-0.0983772,0.2722054-0.2491894,0.3199501
		c-1.6013355,0.506958-3.0248661,1.4652443-4.6773071,1.841938c0.1215878-0.4827671,0.6084213-0.3780575,0.9170647-0.5503616
		C20.0302544,20.9531059,21.3465843,20.3580303,22.7742081,20.0480518z"/>
	<path style="fill:#48544B;" d="M46.0604248,13.6629877c0.0915451-0.0049419,0.1830826-0.0098848,0.2747726-0.0145884
		c0.0550957,0.0078411,0.1100502,0.0154448,0.1650047,0.0230494c-0.498806,0.5562916-1.2111244,0.7481995-1.8573151,1.0208664
		c-0.9186668,0.38764-1.7327805,1.0217142-2.7473602,1.1826563l-0.0399437-0.0402584
		c-0.0429993-0.0924339-0.0860062-0.1848679-0.1290054-0.2773018c0.0462074-0.0013027,0.0924072-0.0028133,0.138588-0.0045347
		c0.1652908-0.0167561,0.3637924,0.0200672,0.4906998-0.0586042C43.5328407,14.7646551,44.9209099,14.4644556,46.0604248,13.6629877
		z"/>
	<path style="fill:#5E6A62;" d="M46.0604248,13.6629877c-1.1395149,0.8014679-2.5275841,1.1016674-3.7045593,1.8312845
		c-0.1269073,0.0786715-0.3254089,0.0418482-0.4907036,0.0586033c0.0379219-0.0847616,0.0536118-0.2180719,0.1170425-0.247117
		c1.2503281-0.5725069,2.5064888-1.132267,3.7604752-1.6968136C45.8653488,13.5537176,45.9705391,13.550292,46.0604248,13.6629877z"
		/>
	<path style="fill:#48544B;" d="M38.2510033,13.8210735c0.6863937-0.5223513,1.505146-0.7883101,2.2615929-1.1751842
		c0.3191528-0.1632242,0.7628365-0.1267986,0.9308319-0.5480556c0.3374825-0.0219564,0.6973877,0.0056238,0.8648262-0.3917236
		c0.1035461,0.0172606,0.2070541,0.0346317,0.3107414,0.051878c-0.0293121,0.1792259-0.1280479,0.3009815-0.2944984,0.3766041
		c-1.215786,0.5523663-2.4288101,1.1108999-3.6484337,1.6546335C38.5539169,13.8436813,38.3936043,13.8125067,38.2510033,13.8210735
		z"/>
	<path style="fill:#5E6A62;" d="M34.9195557,18.7357769c-0.2780647,0.4851646-0.8129463,0.5506592-1.2598,0.7335377
		c-0.831398,0.3402576-1.558857,0.9453735-2.5031185,1.0014706c0.4026985-0.6275845,1.1503239-0.6663418,1.7298717-0.9870033
		c0.5110054-0.2827396,1.096714-0.429718,1.6025543-0.7438812C34.6194458,18.6589203,34.7749825,18.527689,34.9195557,18.7357769z"
		/>
	<path style="fill:#48544B;" d="M10.0330544,25.5364914c0.8216906-0.0802231,1.5050621-0.5215893,2.2213669-0.8686161
		c0.2548475-0.1234646,0.4661951-0.2383347,0.6959124,0.011095c-1.0788736,0.6804771-2.273242,1.0849075-3.4822817,1.4541988
		l-0.0352716-0.0423508C9.6328716,25.9060421,9.832963,25.7212677,10.0330544,25.5364914z"/>
	<path style="fill:#5E6A62;" d="M28.9894772,17.4435349c-0.1046047,0.5213318-0.6100197,0.4243298-0.9288139,0.5313969
		c-0.6691799,0.2247429-1.256464,0.6565113-1.9683018,0.7594738c0.0142879-0.4750328,0.4512177-0.4301949,0.7236366-0.5656528
		c0.6112137-0.3039169,1.3158398-0.3971615,1.8737907-0.8316727C28.7971039,17.2535076,28.9141426,17.3360825,28.9894772,17.4435349
		z"/>
	<path style="fill:#48544B;" d="M39.8439674,16.4260445c0.1428566-0.0512447,0.285717-0.1024876,0.4285851-0.1536942
		c0.1519394,0.2110806,0.2711983,0.0571003,0.4066124-0.0289516c0.3590508-0.2281647,0.7487259-0.3748446,1.1764183-0.4086857
		l0.0395851,0.0398388c-0.72855,0.5854912-1.5905228,0.8861542-2.4668045,1.1563053l-0.0288506-0.0374355
		C39.370533,16.6656017,39.8745995,16.7551842,39.8439674,16.4260445z"/>
	<path style="fill:#5E6A62;" d="M25.8181248,18.7546177c-0.0199299,0.1963634-0.163002,0.2852478-0.3216991,0.3464108
		c-0.8139114,0.3136864-1.6298656,0.6220551-2.4451427,0.9322319c0.0513268-0.4378204,0.4850712-0.4100132,0.7427578-0.5627785
		C24.4137173,19.1031151,25.1176338,18.9220867,25.8181248,18.7546177z"/>
	<path style="fill:#5E6A62;" d="M39.8439674,16.4260445c0.030632,0.3291397-0.4734344,0.2395573-0.4444542,0.5673771
		c-0.7136803-0.0891991-1.1837463,0.6092396-1.8786163,0.5807743
		C38.1496315,16.8968372,38.9675026,16.6021576,39.8439674,16.4260445z"/>
	<path style="fill:#5E6A62;" d="M37.3852882,17.5849419c-0.4584503,0.6627522-1.2137489,0.6721725-1.8888245,0.8581638
		C35.9998779,17.8792782,36.6781807,17.7004089,37.3852882,17.5849419z"/>
	<path style="fill:#5E6A62;" d="M30.8679409,20.6108093c-0.5267372,0.364151-1.050005,0.7364998-1.7323132,0.7328129
		C29.6383591,20.9227314,30.12397,20.4614258,30.8679409,20.6108093z"/>
	<path style="fill:#5E6A62;" d="M5.7671304,29.1402016c0.1188893-0.5602474,0.4322195-1.0139275,0.7907662-1.4428329
		C6.4937587,28.2876225,6.5720644,28.9559479,5.7671304,29.1402016z"/>
	<path style="fill:#5E6A62;" d="M41.8555832,15.834713c-0.4276924,0.0338411-0.8173676,0.180521-1.1764183,0.4086857
		c-0.1354141,0.0860519-0.254673,0.2400322-0.4066124,0.0289516c0.3501625-0.5117655,0.9330406-0.5503139,1.453949-0.7149897
		C41.769577,15.6498451,41.8125839,15.7422791,41.8555832,15.834713z"/>
	<path style="fill:#5E6A62;" d="M30.5888844,16.7225571c-0.0621471,0.3619766-0.3533955,0.2576103-0.5798588,0.2850094
		C30.0489101,16.6005516,30.3573036,16.7396507,30.5888844,16.7225571z"/>
	<path style="fill:#5E6A62;" d="M29.1353607,21.3439693c-0.0703831,0.2114677-0.0633831,0.5442219-0.4377308,0.2792168
		C28.7811718,21.4322777,28.9264545,21.3382378,29.1353607,21.3439693z"/>
	<path style="fill:#5E6A62;" d="M15.3835859,21.6266804c0.0313807-0.2982197,0.2243605-0.2960796,0.494833-0.2577457
		c-0.0884542,0.2926693-0.3054123,0.2490826-0.4903536,0.2631149L15.3835859,21.6266804z"/>
	<path style="fill:#5E6A62;" d="M17.4197674,20.771349c-0.1013908,0.1724567-0.2221298,0.3088551-0.4664669,0.2410145
		c0.0141506-0.3276043,0.2762661-0.2203979,0.4495258-0.2606621L17.4197674,20.771349z"/>
	<path style="fill:#5E6A62;" d="M16.4188824,21.032795c0.0730495,0.0477581,0.1228523,0.0803165,0.172657,0.1128769
		c-0.063345,0.0574188-0.1181011,0.1360588-0.1924953,0.1661663c-0.0715561,0.0289612-0.2077351,0.0471592-0.173214-0.100029
		C16.2417812,21.1437988,16.3463688,21.0965767,16.4188824,21.032795z"/>
	<path style="fill:#5E6A62;" d="M29.8658981,17.0124722c-0.0295143,0.2812366-0.2356339,0.2806644-0.443203,0.277771
		C29.4394112,16.9886189,29.649704,16.9958382,29.8658981,17.0124722z"/>
	<path style="fill:#5E6A62;" d="M46.5002022,13.6714487c-0.0549545-0.0076046-0.1099091-0.0152082-0.1650047-0.0230494
		c0.0086288-0.1122684,0.0174026-0.2243004,0.0261383-0.3366299c0.1957016,0.0544214,0.3370781,0.1718893,0.4166222,0.3607302
		C46.6853828,13.6721478,46.5927925,13.6717978,46.5002022,13.6714487z"/>
	<path style="fill:#48544B;" d="M9.4680519,26.1331692c-0.0796213,0.1011162-0.1810436,0.1402779-0.3055706,0.1007881
		c-0.0182381-0.0057831-0.0289755-0.0352154-0.0431824-0.0537033c0.1046734-0.0295849,0.2093449-0.0591679,0.3137493-0.0890942
		L9.4680519,26.1331692z"/>
	<path style="fill:#5E6A62;" d="M15.3880653,21.6320496c-0.0656557,0.1096439-0.1591711,0.1530285-0.2828932,0.1124458
		c-0.0168505-0.0055275-0.0255346-0.0359592-0.0379992-0.054863c0.1054955-0.0209599,0.210989-0.0419197,0.3164482-0.0629158
		C15.3835859,21.6266804,15.3880653,21.6320496,15.3880653,21.6320496z"/>
	<path style="fill:#48544B;" d="M6.2742372,29.7368832c-0.0550237,0.0359325-0.1096721,0.0725155-0.1665449,0.1052284
		c-0.0021143,0.0012169-0.0259161-0.0352669-0.0396118-0.054184c0.0661087-0.0200577,0.1322165-0.0401173,0.1982656-0.060236
		L6.2742372,29.7368832z"/>
	<path style="fill:#5E6A62;" d="M38.6376114,11.9901419c0.0168419-0.0065279,0.03368-0.0130558,0.050518-0.0195827
		c0.0049019,0.0250521,0.0098038,0.0501041,0.0147057,0.0751562c-0.0184479-0.0033588-0.0401382-0.0020275-0.0542068-0.011734
		C38.6393127,12.0275555,38.6409073,12.0053072,38.6376114,11.9901419z"/>
	<path style="fill:#5E6A62;" d="M7.0517802,26.9757423c0.05056-0.0871353,0.0703492-0.2201118,0.2255845-0.1513805
		C7.2022061,26.8748264,7.1269932,26.9252834,7.0517802,26.9757423z"/>
	<path style="fill:#737E76;" d="M18.38237,30.8690701c-0.1702271-0.4516754-0.2494431-0.9213142-0.2764912-1.4013252
		c2.1787128-0.9372311,4.3080044-1.9792919,6.433012-3.0302086c0.0571404-0.0282593,0.0878906-0.1098785,0.1309471-0.1666126
		c0.1549263,0.0808449,0.2724762,0.0866318,0.2756538-0.1372643c0.2540932,0.0205898,0.4651852-0.1004467,0.6829758-0.2036705
		c3.3858643-1.6047649,6.7794266-3.1935081,10.1564827-4.8165798c3.6003494-1.7303886,7.1952057-3.4730358,10.7663841-5.262372
		c0.5571442-0.2791548,1.5034561-0.391818,1.2415848-1.445056c0.7524681,0.2206841,0.9570084,0.7694407,1.029213,1.4998684
		c0.1111107,1.1240692,0.6349182,2.2002697,0.3949356,3.3688374c-0.0503998-0.0033112-0.100853-0.0067139-0.1513062-0.0101109
		c-0.4509125-0.1693573-0.7254181-0.4932384-0.8391075-0.957983c-0.0398865-0.1079216-0.0878296-0.1107445-0.1436348-0.011013
		c-0.1689072,0.1565247-0.2576637,0.353651-0.2927742,0.5779533c-0.1580811,0.00807-0.3288612-0.0190792-0.4274139,0.1541042
		c-0.1172104,0.0053825-0.2249146,0.0295238-0.286232,0.1451416c-0.6441193,0.1580029-1.2855759,0.3202515-1.5984497,1.0050659
		c-0.0623932,0.1149559-0.1699295,0.1356945-0.2866173,0.1373482c-0.531044-0.1067886-1.5263557,0.4325085-1.8833466,1.0204659
		l0.0000458,0.0007935c-0.634304,0.0986614-1.3230591,0.0971279-1.5932426,0.8658237
		c-0.1571922,0.0102482-0.3271828-0.0163841-0.430378,0.1494026c-1.3137436,0.3086853-2.3709602,1.1417446-3.5391159,1.7465057
		c-0.1854439,0.0960026-0.5056458,0.0831013-0.5176544,0.4158897c-0.0461807,0.0024681-0.0923386,0.0053444-0.1384735,0.0086346
		c-0.3093033-0.019268-0.5473061,0.0617657-0.5891037,0.4187927c-0.1411476,0.0534172-0.2822952,0.1068344-0.4234428,0.1602535
		c-0.2977715,0.0847664-0.6279831,0.1133308-0.8880501,0.2634277c-1.6791458,0.9691219-3.5204601,1.6106434-5.1874924,2.6061916
		c-1.1516399,0.6877537-2.5413666,0.9095592-3.5990982,1.7954044c-0.0530071,0.0443993-0.1258221,0.0689278-0.1930923,0.091959
		c-1.4829025,0.5076962-2.8418064,1.2908974-4.2713814,1.91605c-0.7339554,0.3209572-1.3446178,0.8472557-2.1641026,1.0605125
		c-0.5135212,0.1336327-1.1661968,0.3672333-1.4705772,0.9663544c-0.0409374,0.345047-0.3554401,0.6075401-0.2965603,0.9827118
		c-0.1581478,0.2386436-0.2008114,0.5468483-0.4427395,0.7350273c-0.0686359-0.1033592-0.1670628-0.1285133-0.2830257-0.1080284
		c0.0927048-0.2543259,0.1854706-0.5084229,0.2782402-0.762516c0.2563114-0.1135178,0.3081436-0.3296623,0.2912579-0.5802994
		l-0.0078163,0.008213c0.4159298-0.6597023,0.4077072-1.4294128,0.559639-2.1576405
		c0.201025,0.0262604,0.3752804-0.0462685,0.5515289-0.1331272c2.8817749-1.4202156,5.7695446-2.8283482,8.646637-4.2579746
		c3.8580933-1.9170837,7.7100773-3.8465099,11.5589771-5.7819862c0.4233246-0.2128735,0.8769073-0.4076366,1.1521683-0.8354015
		c0.2288704-0.0984459,0.457737-0.1968899,0.6866074-0.2953358c0.788578-0.1079025,1.4009247-0.5704422,2.0262375-1.0068913
		l0.0017471-0.0008755c0.0717888-0.0014172,0.1558876,0.0214539,0.2135735-0.0077877
		c1.6820068-0.8525772,3.364727-1.7034187,5.094017-2.4579639c0.272644-0.1189594,0.2006569-0.276041,0.0477409-0.4414577
		c-0.2244568-0.2645168-0.4639587-0.0674133-0.6560478,0.0195599c-1.1994934,0.543108-2.4172058,1.0279045-3.5823364,1.6698284
		c-2.4746094,1.363369-5.0218353,2.6010475-7.5783348,3.8074989c-1.6583786,0.7826138-3.2602768,1.6740017-4.9276924,2.4437408
		c-1.3652573,0.6302586-2.6682892,1.4042568-4.0973129,1.9090042c-0.019474-0.0111542-0.0389595-0.022295-0.0584412-0.0334377
		c0.020092,0.0105324,0.0401859,0.0210629,0.060276,0.0315933c-0.0425224,0.0814342-0.0644512,0.2068481-0.1306,0.2378254
		c-1.4070034,0.6588764-2.8337669,1.2772884-4.2255077,1.9665241c-1.2053356,0.5969219-2.5788078,0.8608513-3.6182041,1.7812023
		C19.2106476,30.8492527,18.8310852,30.9473038,18.38237,30.8690701z"/>
	<path style="fill:#737E76;" d="M46.5002022,13.6714487c0.0925903,0.000349,0.1851807,0.000699,0.2777557,0.0010509
		c0.1422119,0.0075817,0.2844391,0.0151615,0.4265594,0.0229273c0.1872292,0.1936579,0.2064934,0.5040483,0.4552498,0.6548166
		c-0.0044327,0.2207937,0.0023537,0.448328-0.2964439,0.4915686c-0.360611-0.2588339-0.4840317-0.0208607-0.5791092,0.2764835
		v0.0000439c-0.2166443-0.0011101-0.421814,0.0233498-0.6343613,0.0980902
		c-1.9971466,0.7022848-3.7479744,1.911746-5.6927109,2.7331781c-1.8897285,0.7981987-3.7054977,1.7735023-5.5410042,2.696373
		c-0.3599129,0.1809616-0.7869682,0.2992058-1.0080032,0.6956673c-0.0455818,0.0040684-0.0912361,0.007122-0.1369553,0.0091629
		c-0.1636353,0.0105038-0.3642464-0.0363693-0.4846497,0.0412216c-0.5923958,0.3817616-1.2088585,0.7023792-1.871088,0.9480247
		c-0.1740208,0.0645523-0.4029331,0.1768341-0.4044876,0.4445515c-0.046278,0.0021782-0.0925541,0.0043507-0.1388321,0.0065136
		c-1.2058811-0.0063686-2.1824436,0.7488194-3.1294212,1.2577915c-1.4236259,0.7651596-3.010437,1.0874023-4.3953667,2.0039387
		c-1.2877693,0.852232-2.881628,1.2936878-4.3193302,1.9636765c-0.4105797,0.1913357-0.7733116,0.4940796-1.2675972,0.4232407
		c-0.2652931-0.2557182-0.4775085-0.5449524-0.5735016-0.9069576c0.8528233-0.6973896,1.8962955-1.0357151,2.8938274-1.4195442
		c1.0753784-0.4137802,2.065321-0.9853477,3.1061935-1.4585342c4.8798904-2.2184277,9.7439938-4.471674,14.6071758-6.7266312
		c0.5619774-0.2605782,1.165184-0.4612579,1.633976-0.8976688c0.8765678-0.2697277,1.7385406-0.5703907,2.4670906-1.1558819
		c1.0149384-0.1605225,1.829052-0.7945967,2.7477188-1.1822367C45.2890778,14.4196482,46.0013962,14.2277403,46.5002022,13.6714487z
		"/>
	<path style="fill:#48544B;" d="M30.8721218,22.7911224c0.046278-0.0021629,0.0925541-0.0043354,0.1388512-0.0064869
		c0.6479721-0.0718307,1.2116642-0.3543205,1.7901096-0.6385326c0.4033852-0.1981983,0.9064827-0.205183,0.9700966-0.7952919
		c0.0457191-0.0020409,0.0913734-0.0050945,0.13694-0.0091801c0.9224052-0.0669308,1.5864105-0.7383308,2.4029274-1.0301151
		c1.1233101-0.4014111,2.1552696-0.9803581,3.2252197-1.4833889c1.5809784-0.7432957,3.1515846-1.5111942,4.7019157-2.3161659
		c0.8576469-0.4453087,1.8589668-0.6362171,2.546032-1.3936214v-0.0000439
		c0.2286949-0.0174723,0.4273186-0.0979376,0.5791092-0.2764835c0.2987976-0.0432405,0.2920113-0.2707748,0.2964439-0.4915705
		c0.0443878,0.0185623,0.088768,0.0371504,0.133152,0.0557375c0.2618713,1.0532398-0.6844406,1.1659031-1.2415848,1.4450579
		c-3.5711784,1.7893362-7.1660347,3.5319834-10.7663841,5.262372c-3.3770561,1.6230717-6.7706184,3.2118149-10.1564827,4.8165798
		c-0.2177906,0.1032238-0.4288826,0.2242603-0.6830235,0.2035141c-0.1359634-0.1263599-0.0520916-0.2266884,0.0628014-0.2694073
		c1.6355076-0.6080952,3.047987-1.6745415,4.6990833-2.2682095C30.1053009,23.4527912,30.7320576,23.4059944,30.8721218,22.7911224z
		"/>
	<path style="fill:#CFD0CF;" d="M4.7552624,32.0091286c0.0184159,0.0416985,0.0490961,0.0795174,0.0469851,0.1154099
		c-0.0020566,0.0349617-0.0376697,0.0679474-0.0585508,0.1018028c-0.0169973-0.0367584-0.0482106-0.0740242-0.0469255-0.1101303
		C4.6980128,32.0813179,4.7327447,32.0476189,4.7552624,32.0091286z"/>
	<path style="fill:#CFD0CF;" d="M11.3338871,38.2674713c-0.0474253,0.1065369-0.0949831,0.1155243-0.1426992,0.0001793
		l-0.0024872,0.0024071c0.0493975,0.0000801,0.0987768,0.0001678,0.1481552,0.0002594L11.3338871,38.2674713z"/>
	<path style="fill:#737E76;" d="M13.9755354,26.4228992c0.6020937,0.2281933,1.3372822-0.0536423,1.8583918,0.48452
		c-0.3189478,0.4849339-0.7093992,0.5583534-1.2431164,0.3122921c-0.4607-0.2123947-0.9764233-0.3665676-1.3783321,0.1620655
		c-0.2281437,0.0215569-0.5453529,0.1285801-0.6094227-0.15909c-0.0577469-0.2592812,0.2464275-0.3376637,0.4706478-0.4195213
		C13.3797932,26.6914139,13.6754208,26.5510139,13.9755354,26.4228992z"/>
	<path style="fill:#737E76;" d="M11.9034281,27.4039249c0.0544863-0.0336876,0.1082916-0.0686626,0.1648016-0.0985222
		c0.0043259-0.0022869,0.0277386,0.0315437,0.0422792,0.048584c-0.0604868,0.0264244-0.1209736,0.0528507-0.181221,0.0795403
		L11.9034281,27.4039249z"/>
	<path style="fill:#737E76;" d="M23.0517082,22.0658836c0.0201435,0.0098724,0.0402908,0.019743,0.0604343,0.0296154
		c-0.0182819-0.0117226-0.0365639-0.0234451-0.0548382-0.0351887L23.0517082,22.0658836z"/>
	<path style="fill:#737E76;" d="M16.6401711,27.7051105c0.3075275,0.2352905,0.5378265,0.511343,0.4923801,0.9329624
		c-0.27911,0.7278843-1.114378,0.777338-1.6246147,1.0071239c-1.0288448,0.4633446-1.9525166,1.1728268-3.0858603,1.4363995
		c-0.967001,0.2248859-1.8268766,0.7623901-2.6886559,1.2374115c-0.6268606,0.3455315-1.389535,0.5724182-1.7265711,1.3195915
		c-0.0090942,0.1405373-0.018188,0.2810822-0.0269909,0.4216995c-0.3453059,0.0658798-0.2421799,0.3495102-0.2749844,0.5671501
		c-0.1288924,0.0342751-0.1898479,0.4236946-0.3897543,0.0795212c-0.1415343-0.2436752-0.2857728-0.4752731-0.6044369-0.5014839
		c-0.1214066-0.4600296-0.4855189-0.2194138-0.7520456-0.2605095l0.0049038,0.0014267
		c-0.1611772-0.2015724,0.5973749-0.3908234,0.0081086-0.5979652c0.0042768-0.0943794,0.008553-0.1887589,0.0128298-0.2831345
		l0.0058103-0.0009079c0.3330221-0.0112534,0.5657711-0.2616081,0.6704216-0.4878502
		c0.2740855-0.5925446,0.8165145-0.7721195,1.3269448-1.0059662c2.7877145-1.2771511,5.579906-2.5445385,8.3721943-3.811676
		C16.4440804,27.7206783,16.5463238,27.722147,16.6401711,27.7051105z"/>
	<path style="fill:#737E76;" d="M17.708559,29.8821926c0.2040768,0.4956398,0.2997952,1.0037079,0.1761322,1.5372467
		c-0.7700825-0.1491146-1.1189766,0.6543903-1.7669621,0.7809849c-1.48524,0.5166969-2.8974209,1.1986504-4.2814379,1.9361534
		c-0.3005209,0.160141-0.6053638,0.3969078-0.6459618,0.8043365c-0.005682,0.0930023-0.011363,0.1860085-0.017045,0.279007
		c-0.2541618,0.0068741-0.485074,0.0465546-0.5497007,0.3526268c-0.114109,0.5404243-0.3587809,0.4843521-0.5599766,0.0777206
		c-0.1722116-0.3480568-0.4301043-0.4163589-0.7589102-0.4151421c-0.1887512-0.14925-0.061698-0.2745438,0.0312786-0.401329
		c0.1789579-0.2440262,0.0243406-0.3667564-0.1713505-0.4751282c-0.1473608-0.0958252-0.2947197-0.1916466-0.4420786-0.2874718
		c0.0641403-0.1388855,0.1742783-0.2164841,0.3178177-0.2673035c1.6718349-0.5919304,3.2195206-1.4552689,4.8233938-2.1964188
		C15.138382,31.0184746,16.3478394,30.2798347,17.708559,29.8821926z"/>
	<path style="fill:#5E6A62;" d="M27.5395222,26.5499649c1.4290333-0.5047588,2.7320652-1.2787571,4.0973225-1.9090157
		c1.6674156-0.7697392,3.2693138-1.6611271,4.9276924-2.4437408c2.5564995-1.2064514,5.1037254-2.4441299,7.5783348-3.8074989
		c1.1651306-0.6419239,2.382843-1.1267204,3.5823364-1.6698284c0.1920891-0.0869732,0.431591-0.2840767,0.6560059-0.0194683
		c-1.2560616,0.6230106-2.5193672,1.2318306-3.7648087,1.8752346c-0.5607605,0.2896957-1.2154961,0.4502602-1.5904808,1.0318832
		l-0.0017433,0.0008736c-0.8150406,0.0546322-1.4694023,0.432642-2.0262413,1.0068932
		c-0.2288704,0.0984459-0.457737,0.1968899-0.6869507,0.2953262c-0.3116302-0.0545139-0.559967,0.1075134-0.8153076,0.240324
		c-1.0845451,0.5641117-2.1592598,1.1478996-3.253788,1.6918545c-1.9230499,0.9557037-3.8871498,1.8330345-5.778801,2.8463497
		c-1.5418739,0.825943-3.1313019,1.5446491-4.7108746,2.2838688c-1.354763,0.634016-2.6390533,1.4072704-4.0040798,2.0069847
		c-1.1126003,0.4888134-2.1274757,1.1991158-3.3284111,1.4871616c-0.012249-0.1992607-0.0244942-0.3985195-0.0370502-0.5979404
		c0.4484081,0.0780773,0.8279705-0.0199738,1.1843777-0.3355656c1.0393963-0.920351,2.4128685-1.1842804,3.6182041-1.7812023
		c1.3917408-0.6892357,2.8185043-1.3076477,4.2255077-1.9665241c0.0661488-0.0309772,0.0880775-0.1563911,0.1306-0.2378254
		L27.5395222,26.5499649z"/>
	<path style="fill:#737E76;" d="M16.3360119,36.4532738c-0.1414871,0.5288696-0.393383,0.6208763-0.9903908,0.5675392
		c-0.7367229-0.0658226-1.5144901,0.086277-2.2786226,0.1151848c-0.6778812,0.02565-1.3517914,0.1517639-2.0032692-0.1415253
		c-0.0030022-0.1950264-0.0059423-0.3899879-0.0088825-0.5849419c-0.0097046-0.322998,0.2586946-0.4540443,0.4575844-0.6048622
		c1.9386864-1.4700851,4.1664-2.4154778,6.335866-3.4662209c-0.0019684,0.5794334-0.0039349,1.1588669-0.0059071,1.738308
		l0.0078087-0.0082016c-0.0799809,0.0229988-0.1599579,0.0459976-0.2399368,0.0689926
		c-0.0446968-0.0764771-0.0893955-0.1529503-0.1340923-0.2294312c-0.3175201,0.2164803-0.7390442,0.2742462-0.8137817,0.8024979
		c-0.0718937,0.5081291-0.4108524,0.8366318-0.999733,0.8174095c-0.2312851-0.0075493-0.4657545,0.0824738-0.698905,0.1281433
		c-0.1549501-0.5285721-0.5078077-0.794117-1.1021099-0.848484c0.0511999,0.331913,0.2730865,0.5639839,0.2238178,0.8568039
		c-0.4439478-0.2031784-0.7872553-0.1078033-0.9631691,0.3641357c-0.0891247,0.2391014-0.1740999,0.3720169-0.459219,0.2499046
		c-0.1457539-0.0624237-0.3039675,0.0110054-0.2818937,0.2049179c0.0213604,0.1876488,0.1986055,0.2129326,0.3348379,0.1737328
		c0.503211-0.1447906,1.046257-0.1458015,1.5144625-0.4158211c0.045826,0.0013695,0.0913935,0.0055656,0.1366997,0.0125847
		C14.9979782,36.5720215,15.6937103,36.2487755,16.3360119,36.4532738z"/>
	<path style="fill:#48544B;" d="M18.4197273,31.4671669c1.2009354-0.2880459,2.2158108-0.9983482,3.3284111-1.4871616
		c1.3650265-0.5997143,2.6493168-1.3729687,4.0040798-2.0069847c1.5795727-0.7392197,3.1690006-1.4579258,4.7108746-2.2838688
		c1.8916512-1.0133152,3.855751-1.890646,5.778801-2.8463497c1.0945282-0.5439548,2.1692429-1.1277428,3.253788-1.6918545
		c0.2553406-0.1328106,0.5036774-0.294838,0.8153076-0.240324c-0.2749176,0.4277744-0.7285004,0.6225376-1.151825,0.8354111
		c-3.8488998,1.9354763-7.7008839,3.8649025-11.5589771,5.7819862c-2.8770924,1.4296265-5.7648621,2.837759-8.646637,4.2579746
		c-0.1762486,0.0868587-0.3505039,0.1593876-0.5515289,0.1331272
		C18.4078865,31.7684975,18.4138069,31.6178322,18.4197273,31.4671669z"/>
	<path style="fill:#5E6A62;" d="M30.8721218,22.7911224c-0.1400642,0.614872-0.7668209,0.6616688-1.164793,0.8047638
		c-1.6510963,0.593668-3.0635757,1.6601143-4.6990833,2.2682095c-0.114893,0.0427189-0.1987648,0.1430473-0.0628014,0.2694073
		c-0.00313,0.2240524-0.1206799,0.2182655-0.2757816,0.1373653c-0.2205563-0.2855835-0.4851799-0.0641098-0.6378727,0.0255451
		c-1.4494762,0.8510609-3.0950565,1.2526169-4.5791054,2.0282516c-0.526577,0.2752113-0.9532661,0.6252632-1.3636684,1.0255527
		c-0.3450603-0.2185421-0.2556362-0.5937405-0.3284492-0.9104748c0.4941254,0.0708656,0.8568573-0.2318783,1.267437-0.423214
		c1.4377022-0.6699886,3.0315609-1.1114445,4.3193302-1.9636765c1.3849297-0.9165363,2.9717407-1.2387791,4.3953667-2.0039387
		C28.6896782,23.5399418,29.6662407,22.7847538,30.8721218,22.7911224z"/>
	<path style="fill:#5E6A62;" d="M8.0068483,33.6385994c0.3370371-0.7471733,1.0997114-0.9740601,1.726572-1.3195915
		c0.8617792-0.4750214,1.7216549-1.0125256,2.6886559-1.2374115c1.1333437-0.2635727,2.0570154-0.9730549,3.0858603-1.4363995
		c0.5102367-0.2297859,1.3455048-0.2792397,1.6246147-1.0071239c0.3200912,0.1666336,0.4533787,0.4396191,0.4499245,0.7904396
		c-0.7113075,0.5066051-1.5933771,0.5924664-2.365056,0.9856224c-1.8696537,0.9525528-3.7975149,1.7923164-5.7142258,2.6500282
		C9.0178299,33.2813606,8.6315212,33.7802048,8.0068483,33.6385994z"/>
	<path style="fill:#48544B;" d="M8.0068493,33.6385994c0.6246719,0.1416054,1.0109806-0.3572388,1.4963446-0.5744362
		c1.9167109-0.8577118,3.8445721-1.6974754,5.7142258-2.6500282c0.7716789-0.3931561,1.6537485-0.4790173,2.365056-0.9856224
		c0.0420265,0.1511879,0.0840149,0.3023987,0.1260433,0.4536457c-1.3606796,0.3976765-2.570137,1.1363163-3.8447609,1.725317
		c-1.6038733,0.7411499-3.1515589,1.6044884-4.8233938,2.1964188c-0.1435394,0.0508194-0.2536774,0.128418-0.3177223,0.2673264
		c-0.2462854-0.0942001-0.4995937,0.2786942-0.7430749-0.0110016C7.9886613,33.9196815,7.9977551,33.7791367,8.0068493,33.6385994z"
		/>
	<path style="fill:#48544B;" d="M17.8482952,32.3384476c-2.1694641,1.0507431-4.3971777,1.9961357-6.3358641,3.4662209
		c-0.1988897,0.1508179-0.467289,0.2818642-0.4576712,0.6046104c-0.2684698-0.22715-0.1507492-0.4706917-0.0235815-0.7078209
		c0.0817051-0.152359,0.3139744-0.2555161,0.1421061-0.4815369c0.005682-0.0929985,0.011363-0.1860046,0.0170431-0.279007
		c0.6106195,0.0180092,0.912672-0.681591,1.4438543-0.7012253c1.3839149-0.0511513,2.1050549-1.3664055,3.3480844-1.6570587
		c0.1531763-0.0358124,0.1248751-0.2403908,0.1354628-0.382206c0.6479855-0.1265945,0.9968796-0.9300995,1.7669621-0.7809849
		C17.9603291,31.7290421,17.9877605,32.0370598,17.8482952,32.3384476z"/>
	<path style="fill:#48544B;" d="M18.089016,29.3502178c0.4104023-0.4002895,0.8370914-0.7503414,1.3636684-1.0255527
		c1.4840488-0.7756348,3.1296291-1.1771908,4.5791054-2.0282516c0.1526928-0.0896549,0.4173164-0.3111286,0.6378727-0.0255451
		c-0.042881,0.0567894-0.0736313,0.1384087-0.1307716,0.1666679c-2.1250076,1.0509167-4.2542992,2.0929775-6.433012,3.0302086
		C18.090559,29.430006,18.0849667,29.3908005,18.089016,29.3502178z"/>
	<path style="fill:#48544B;" d="M5.9844794,33.0653038c-0.0042768,0.0943756-0.008553,0.188755-0.0127153,0.2831459
		c-0.1045418,0.011425-0.2091966,0.0228386-0.3138518,0.0342522l-0.0055289-0.0017128
		C5.6913705,33.2003899,5.7594204,33.0502548,5.9844794,33.0653038z"/>
	<path style="fill:#F6F6F6;" d="M5.1248441,32.9139099c-0.0504766-0.0517845-0.1009526-0.103569-0.1514621-0.1553574
		C5.1241884,32.7124901,5.0983448,32.8387184,5.1248441,32.9139099z"/>
	<path style="fill:#5E6A62;" d="M45.6508446,23.3777161c-0.2287292,0.3377438-0.616066,0.4677982-0.9219017,0.7042961
		c-0.6057816,0.2890568-1.3112144,0.3109322-1.8961868,0.5987473c-1.6810493,0.8271103-3.3528175,1.6838436-4.9675179,2.6323051
		c-1.9760666,1.1607227-4.1354027,1.9282761-6.1475792,3.0090694c-1.654623,0.8887405-3.4972458,1.359602-5.1738224,2.2182102
		c-1.0243683,0.5246048-2.1560059,0.8139381-3.2051411,1.2732162c-1.3392372,0.5862846-2.6650467,1.1824417-4.0823116,1.5560951
		c-0.317112,0.0836067-0.5527687,0.2407265-0.7949677,0.5190659c-0.2592583,0.2979431-0.7701092,0.4026566-1.2337322,0.3077316
		c0.1119823-0.2256775,0.2239666-0.451355,0.3359966-0.6770477c0.2419739-0.1881905,0.2846375-0.4963951,0.4426346-0.7349319
		c0.3030109,0.0758362,0.5675716-0.0998001,0.8542728-0.1311264c0.3484993,0.6003761,0.7410564,0.2268524,1.0543385-0.0014839
		c0.3965988-0.2890625,0.8511848-0.4192696,1.271265-0.6296425c1.0919495-0.5468521,2.2906609-0.7846489,3.3955288-1.3036575
		c0.7743149-0.3637276,1.5090275-0.8364143,2.3923645-1.0234909c0.777895-0.1647415,1.630003-0.4828072,2.2435627-0.8755188
		c1.3359165-0.8550625,2.7603321-1.5038414,4.1503372-2.2300835c1.5177002-0.792963,3.0897102-1.4832115,4.5972862-2.2940216
		c2.2908249-1.2320576,4.5012741-2.6285458,7.0814323-3.2200336C45.0983124,23.475523,45.4277573,23.3203373,45.6508446,23.3777161z
		"/>
	<path style="fill:#48544B;" d="M18.8606091,34.6533661c-0.2867222,0.0313072-0.5512829,0.2069435-0.8542938,0.1311073
		c-0.0587292-0.3752785,0.2557735-0.6377716,0.2965145-0.9829865c0.5731678,0.0209198,1.0984154-0.160305,1.5680904-0.4578934
		c1.9820824-1.2558517,4.2132969-1.9945183,6.2927094-3.0507202c2.0755081-1.0542183,4.2054253-2.0021076,6.2713566-3.0794563
		c1.0520897-0.548645,2.0478439-1.2057476,3.1717339-1.619915c0.1931038-0.0711575,0.4605103-0.1894035,0.4701004-0.4917469
		c0.1411476-0.0534191,0.2822952-0.1068363,0.4235497-0.16008c0.3214912,0.0362129,0.562851-0.0401917,0.5889969-0.4189663
		c0.0461349-0.0032902,0.0922928-0.0061665,0.1385422-0.0085316c0.1871338-0.023077,0.3988457,0.0025387,0.557209-0.0774593
		c0.9334679-0.4715309,1.869297-0.9424629,2.7704697-1.4712849c0.2602425-0.1527138,0.6771317-0.188942,0.729023-0.6137543
		c0.1031952-0.1657867,0.2731857-0.1391544,0.4304314-0.1493359c0.5590591-0.2371483,1.1453667-0.4241314,1.5931892-0.8658905
		l-0.0000076-0.0007439c0.6719322-0.2586899,1.3535309-0.4995174,1.8833084-1.0205154
		c0.1166878-0.0016537,0.2242241-0.0223923,0.2866554-0.1372948c0.5874329-0.2481861,1.2445946-0.3854675,1.5984116-1.0051193
		c0.0613174-0.1156178,0.1690216-0.1397591,0.286232-0.1451683c0.2509995,0.2497272,0.3279839,0.0166855,0.4274139-0.1540775
		c0.0351105-0.2243023,0.123867-0.4214287,0.2928009-0.5778866c0.0478897,0.0036869,0.0957527,0.0073147,0.1436081,0.0109463
		c0.1136894,0.4647446,0.388195,0.7886257,0.8391075,0.957983c-0.0527534,0.0585194-0.1055069,0.1170425-0.1582336,0.1755714
		c-0.4142494,0.0950947-0.801487-0.2795334-1.2526131,0.0037308c-1.0335083,0.6489429-2.1336823,1.1843567-3.2045097,1.769331
		c-3.4344635,1.8761787-6.8573723,3.7722664-10.3554344,5.529686c-2.2325974,1.1216564-4.4594517,2.2557755-6.668869,3.4222126
		c-1.8578796,0.9808445-3.6868496,2.0164528-5.528616,3.0278168c-0.3483887-0.2096024-0.4901352-0.0040359-0.5868187,0.2920723
		c-0.1420822,0.0512009-0.2841663,0.1024055-0.4262466,0.1536064c-0.3167591,0.0126495-0.62813,0.0348625-0.737442,0.4155998
		C19.6780014,34.1676445,19.2162495,34.2965965,18.8606091,34.6533661z"/>
	<path style="fill:#5E6A62;" d="M36.0768204,25.1017551c-0.0095901,0.3023434-0.2769966,0.4205894-0.4701004,0.4917469
		c-1.1238899,0.4141674-2.1196442,1.07127-3.1717339,1.619915c-2.0659313,1.0773487-4.1958485,2.025238-6.2713566,3.0794563
		c-2.0794125,1.0562019-4.310627,1.7948685-6.2927094,3.0507202c-0.4696751,0.2975883-0.9949226,0.4788132-1.5680904,0.4578934
		c0.3045769-0.5989532,0.9572525-0.8325539,1.4707737-0.9661865c0.8194847-0.2132568,1.4301472-0.7395554,2.1641026-1.0605125
		c1.429575-0.6251526,2.7884789-1.4083538,4.2713814-1.91605c0.0672703-0.0230312,0.1400852-0.0475597,0.1930923-0.091959
		c1.0577316-0.8858452,2.4474583-1.1076508,3.5990982-1.7954044c1.6670322-0.9955482,3.5083466-1.6370697,5.1874924-2.6061916
		C35.4488373,25.215086,35.7790489,25.1865215,36.0768204,25.1017551z"/>
	<path style="fill:#5E6A62;" d="M14.9638805,35.656086c0.2330198-0.0455894,0.4674892-0.1356125,0.6987743-0.1280632
		c0.5888805,0.0192223,0.9278393-0.3092804,0.999733-0.8174095c0.0747375-0.5282516,0.4962616-0.5860176,0.8137817-0.8024979
		c0.0446968,0.0764809,0.0893955,0.1529541,0.1338501,0.2291946c-0.0171871,0.1703529-0.0341339,0.3409462-0.0510788,0.5115395
		c-0.0927696,0.2540932-0.1855354,0.5081902-0.2782402,0.762516c-0.4031639,0.2674561-0.4548321,0.8540535-0.9452877,1.0416946
		c-0.6417027-0.2042847-1.3374348,0.1189613-1.9681778-0.1992455C14.5819511,36.0702553,14.9118338,36.0018501,14.9638805,35.656086
		z"/>
	<path style="fill:#48544B;" d="M43.0259247,19.6075306c0.3749847-0.5816231,1.0297203-0.7421875,1.5904808-1.0318832
		c1.2454414-0.643404,2.5087471-1.252224,3.7648087-1.8752346c0.1529579,0.1653252,0.2249451,0.3224068-0.047699,0.4413662
		c-1.72929,0.7545452-3.4120102,1.6053867-5.094017,2.4579639C43.1818123,19.6289845,43.0977135,19.6061134,43.0259247,19.6075306z"
		/>
	<path style="fill:#5E6A62;" d="M41.2846107,22.3516788c-0.0518913,0.4248123-0.4687805,0.4610405-0.729023,0.6137543
		c-0.9011726,0.5288219-1.8370018,0.999754-2.7704697,1.4712849c-0.1583633,0.079998-0.3700752,0.0543823-0.557209,0.0774593
		c0.01194-0.3328915,0.3321419-0.3199902,0.5175858-0.4159927C38.9136505,23.4934235,39.9708672,22.6603642,41.2846107,22.3516788z"
		/>
	<path style="fill:#5E6A62;" d="M45.1915321,20.3151932c-0.5297775,0.520998-1.2113762,0.7618256-1.8833084,1.0205154
		C43.6651764,20.7477016,44.6604881,20.2084045,45.1915321,20.3151932z"/>
	<path style="fill:#48544B;" d="M40.9979401,20.6152992c0.556839-0.5742531,1.2112007-0.9522629,2.0262413-1.0068951
		C42.3988647,20.0448551,41.7865181,20.5073948,40.9979401,20.6152992z"/>
	<path style="fill:#5E6A62;" d="M47.0765991,19.1727791c-0.353817,0.6196518-1.0109787,0.7569332-1.5984116,1.0051193
		C45.7910233,19.4930305,46.4324799,19.3307819,47.0765991,19.1727791z"/>
	<path style="fill:#5E6A62;" d="M43.3082314,21.3364525c-0.4478226,0.4417591-1.0341301,0.6287422-1.5931892,0.8658905
		C41.9851723,21.4335804,42.6739273,21.4351139,43.3082314,21.3364525z"/>
	<path style="fill:#5E6A62;" d="M37.0893669,24.5227089c-0.0261459,0.3787746-0.2675056,0.4551792-0.5889969,0.4189663
		C36.5420609,24.5844746,36.7800636,24.5034409,37.0893669,24.5227089z"/>
	<path style="fill:#CFD0CF;" d="M17.5589409,34.6488495c0.0169449-0.1705933,0.0338917-0.3411865,0.0510788-0.5115395
		c0.0802212-0.0227585,0.1601982-0.0457573,0.2401791-0.0687561C17.8670845,34.3191872,17.8152523,34.5353317,17.5589409,34.6488495
		z"/>
	<path style="fill:#5E6A62;" d="M47.7902451,18.8735332c-0.0994301,0.170763-0.1764145,0.4038048-0.4274139,0.1540775
		C47.4613838,18.854454,47.632164,18.8816032,47.7902451,18.8735332z"/>
	<path style="fill:#5E6A62;" d="M48.2266541,18.3065929c-0.0478554-0.0036316-0.0957184-0.0072594-0.1436081-0.0109463
		C48.1388245,18.1958485,48.1867676,18.1986713,48.2266541,18.3065929z"/>
	<path style="fill:#5E6A62;" d="M27.5413666,26.5481091c-0.0200901-0.0105305-0.040184-0.0210609-0.060276-0.0315933
		c0.0194817,0.0111427,0.0389671,0.0222836,0.0584412,0.0334377L27.5413666,26.5481091z"/>
	<path style="fill:#737E76;" d="M20.8844204,33.6386032c0.1420803-0.0512009,0.2841644-0.1024055,0.4263268-0.1535072
		c0.2404366-0.0073929,0.4429874-0.0907669,0.5867386-0.2921715c1.8417664-1.011364,3.6707363-2.0469723,5.528616-3.0278168
		c2.2094173-1.1664371,4.4362717-2.3005562,6.668869-3.4222126c3.4980621-1.7574196,6.9209709-3.6535072,10.3554344-5.529686
		c1.0708275-0.5849743,2.1710014-1.120388,3.2045097-1.769331c0.4511261-0.2832642,0.8383636,0.0913639,1.2526093-0.0037308
		c0.0200119,0.3515987-0.1353683,0.6350403-0.3484077,0.8961029c-0.549263-0.1681595-1.0457916-0.053051-1.1609077,0.5335388
		c-0.0783539,0.3992996-0.1838303,0.6484642-0.5504494,0.8139477c-0.1930428,0.0871353-0.3513565,0.2531548-0.352478,0.5019302
		c-0.1426468,0.00453-0.2852974,0.0090599-0.4279442,0.0135899c-0.0286446-0.0599861-0.0572815-0.1199722-0.0859222-0.1799583
		c-0.0194473,0.0651016-0.0388908,0.1302032-0.0583382,0.1953049c-0.1351967,0.4467087-0.3740845,0.7878513-0.8763924,0.8608017
		c-2.5801392,0.5914974-4.7905884,1.9879856-7.0814133,3.2200432c-1.507576,0.8108101-3.079586,1.5010586-4.5972862,2.2940216
		c-1.3900051,0.7262421-2.8144207,1.375021-4.1503372,2.2300835c-0.6135597,0.3927116-1.4656677,0.7107773-2.2435627,0.8755188
		c-0.883337,0.1870766-1.6180496,0.6597633-2.3923645,1.0234909c-1.1048679,0.5190086-2.3035793,0.7568054-3.3955288,1.3036575
		c-0.4200802,0.2103729-0.8746662,0.34058-1.271265,0.6296425c-0.313282,0.2283363-0.7058392,0.60186-1.0543385,0.0014839
		c0.3556614-0.3567505,0.8174133-0.4857025,1.2865257-0.5989418C20.462328,34.0388451,20.7251434,33.9304619,20.8844204,33.6386032z
		 M48.3317261,19.9267578c0.0034409-0.0183525,0.0068855-0.0367031,0.0103302-0.0550518
		c-0.0252037,0.0049095-0.0504112,0.009819-0.0756187,0.0147305c0.0065269,0.0166836,0.0091171,0.0378704,0.0210762,0.0483379
		C48.2945366,19.940918,48.3164902,19.9299984,48.3317261,19.9267578z"/>
	<path style="fill:#737E76;" d="M17.2276821,36.1964531c0.463625,0.0949249,0.9744759-0.0097885,1.2337341-0.3077316
		c0.2421989-0.2783394,0.4778557-0.4354591,0.7949677-0.5190659c1.4172649-0.3736534,2.7430744-0.9698105,4.0823116-1.5560951
		c1.0491352-0.4592781,2.1807728-0.7486115,3.2051411-1.2732162c1.6765766-0.8586082,3.5191994-1.3294697,5.1738224-2.2182102
		c2.0121765-1.0807934,4.1715126-1.8483467,6.1475792-3.0090694c1.6147003-0.9484615,3.2864685-1.8051949,4.9675179-2.6323051
		c0.5849724-0.2878151,1.2904053-0.3096905,1.8961868-0.5987473c0.1009064,0.3475399-0.178421,0.4636974-0.3850746,0.6109085
		c-3.129364,2.2292557-6.5206871,3.9854794-9.9777679,5.6444416c-1.7453461,0.8375492-3.478899,1.6964893-5.2911968,2.3699322
		c-0.8465977,0.3145905-1.6730194,0.6761398-2.5202446,0.9853516c-1.4956379,0.5458679-2.8863106,1.3474693-4.4230595,1.7953529
		c-0.6590462,0.1920738-1.3036308,0.4016342-1.9933395,0.5016441c-0.9182777,0.1331482-1.8176155,0.3984299-2.7236938,0.6128464
		c-0.1633854,0.038662-0.345047,0.1383324-0.4189053-0.0955925C16.9418926,36.3365936,17.0903645,36.2564812,17.2276821,36.1964531z
		"/>
	<path style="fill:#5E6A62;" d="M11.1732845,35.2199211c0.1718683,0.2260208-0.060401,0.3291779-0.1421061,0.4815369
		c-0.1271677,0.2371292-0.2448883,0.4806709,0.0235825,0.7078209c0.003026,0.1952057,0.0059662,0.3901672,0.0089684,0.5851936
		c0.1270733,0.3115349,0.1197643,0.5733185-0.2984161,0.3562698c-0.5754089-0.2986526-1.0946121-0.6939011-1.5350342-1.1798935
		c0.3836317-0.2838516-0.0532846-0.6321144,0.0744181-0.9357224c0.3288059-0.0012169,0.5866985,0.0670853,0.7589102,0.4151421
		c0.2011957,0.4066315,0.4458675,0.4627037,0.5599766-0.0777206C10.6882105,35.2664757,10.9191227,35.2267952,11.1732845,35.2199211
		z"/>
	<path style="fill:#48544B;" d="M9.304697,35.2351265c-0.1277027,0.3036079,0.3092136,0.6518707-0.0744181,0.9357224
		c-0.1217051-0.0633163-0.2429609-0.1270752-0.3641472-0.1910172c0.019537-0.2163429-0.0820923-0.3170471-0.2959843-0.3107262
		c-0.2045155-0.309639-0.5310373-0.2660675-0.826766-0.260952c-0.6057224,0.0104752-1.020874-0.2486725-1.2550731-0.804203
		c0.0744529-0.1330719,0.1484132-0.2657661,0.2223735-0.3984642c0.318665,0.0262108,0.4629035,0.2578087,0.6044378,0.5014839
		c0.1999063,0.3441734,0.2608619-0.0452461,0.3898568-0.0792847c0.5497651,0.491375,1.0366864,0.4015465,1.4596486-0.2690163
		c0.1956911,0.1083717,0.3503084,0.231102,0.1713505,0.4751282C9.2429991,34.9605827,9.1159458,35.0858765,9.304697,35.2351265z"/>
	<path style="fill:#5E6A62;" d="M46.4952812,22.185667c0.0011215-0.2487755,0.1594353-0.4147949,0.352478-0.5019302
		c0.3666191-0.1654835,0.4720955-0.4146481,0.5504494-0.8139477c0.1151161-0.5865898,0.6116447-0.7016983,1.1609077-0.5335388
		c-0.4955521,0.6456299-0.9869614,1.2945957-1.4892769,1.9350033c-0.1744614,0.2224216-0.4271774,0.2876377-0.703331,0.2674904
		C46.4094124,22.4209442,46.452343,22.3033047,46.4952812,22.185667z"/>
	<path style="fill:#48544B;" d="M46.4952812,22.185667c-0.0429382,0.1176376-0.0858688,0.2352772-0.1287727,0.3530769
		c-0.2249527,0.2913723-0.3568687,0.6620197-0.7157402,0.838932c-0.223011-0.0573387-0.5524559,0.097847-0.6040649-0.3022614
		c0.5022888-0.0729599,0.7411766-0.4141026,0.876297-0.860878c0.0480652-0.0051365,0.096199-0.0102081,0.1443367-0.0152798
		C46.2099838,22.1947269,46.3526344,22.190197,46.4952812,22.185667z"/>
	<path style="fill:#5E6A62;" d="M6.7106819,34.2054863c-0.0739603,0.1326981-0.1479206,0.2653923-0.2223735,0.3984642
		c-0.3027959-0.1184654-0.5421081-0.2878075-0.529479-0.6591225C6.2251639,33.9860725,6.5892763,33.7454567,6.7106819,34.2054863z"
		/>
	<path style="fill:#5E6A62;" d="M5.6579123,33.3827019c0.1046553-0.0114136,0.2093101-0.0228271,0.3138518-0.0342522
		c0.5891519,0.2071304-0.1694002,0.3963814-0.0082231,0.5979538C5.6391125,33.8790894,5.7086301,33.5983238,5.6579123,33.3827019z"
		/>
	<path style="fill:#5E6A62;" d="M8.5701475,35.6691055c0.213892-0.006321,0.3155212,0.0943832,0.2959843,0.3107262
		C8.6496649,35.9884605,8.526618,35.9080544,8.5701475,35.6691055z"/>
	<path style="fill:#F6F6F6;" d="M11.3368559,38.2703171c-0.0493784-0.0000916-0.0987577-0.0001793-0.1481552-0.0002594
		C11.2382545,38.1630592,11.2876329,38.1701317,11.3368559,38.2703171z"/>
	<path style="fill:#5E6A62;" d="M46.784214,15.1183395c-0.6870651,0.7574043-1.688385,0.9483128-2.546032,1.3936214
		c-1.5503311,0.8049717-3.1209373,1.5728703-4.7019157,2.3161659c-1.0699501,0.5030308-2.1019096,1.0819778-3.2252197,1.4833889
		c-0.8165169,0.2917843-1.4805222,0.9631844-2.4029274,1.0301151c0.2210503-0.3964443,0.6481056-0.5146885,1.0080185-0.6956501
		c1.8355064-0.9228706,3.6512756-1.8981743,5.5410042-2.696373c1.9447365-0.8214321,3.6955643-2.0308933,5.6927109-2.7331781
		C46.3624001,15.1416893,46.5675697,15.1172295,46.784214,15.1183395z"/>
	<path style="fill:#5E6A62;" d="M33.7711792,21.350811c-0.0636139,0.5901089-0.5667114,0.5970936-0.9700966,0.7952919
		c-0.5784454,0.2842121-1.1421375,0.5667019-1.7901096,0.6385326c0.0015354-0.2677441,0.2304478-0.3800259,0.4044685-0.4445782
		c0.6622295-0.2456455,1.2786922-0.5662632,1.871088-0.9480247C33.4069328,21.3144417,33.6075439,21.3613148,33.7711792,21.350811z"
		/>
	<path style="fill:#5E6A62;" d="M47.3633232,14.8418121c-0.1517906,0.178546-0.3504143,0.2590113-0.5791092,0.2764835
		C46.8792915,14.8209515,47.0027122,14.5829782,47.3633232,14.8418121z"/>
	<path style="fill:#5E6A62;" d="M9.1646252,34.3586693c-0.4229622,0.6705627-0.9098835,0.7603912-1.4596486,0.2690163
		c0.032702-0.2178764-0.0704241-0.5015068,0.2748814-0.5673866c0.2431903,0.2896156,0.4964986-0.0832787,0.742784,0.0109215
		C8.8699055,34.1670227,9.0172644,34.2628441,9.1646252,34.3586693z"/>
	<path style="fill:#5E6A62;" d="M16.1177292,32.2004242c-0.0105877,0.1418152,0.0177135,0.3463936-0.1354628,0.382206
		c-1.2430296,0.2906532-1.9641695,1.6059074-3.3480844,1.6570587c-0.5311823,0.0196342-0.8332348,0.7192345-1.4438543,0.7012253
		c0.0405998-0.4074287,0.3454428-0.6441956,0.6459637-0.8043365C13.2203083,33.3990746,14.6324892,32.7171211,16.1177292,32.2004242
		z"/>
	<path style="fill:#5E6A62;" d="M14.2304764,36.2413559c-0.4682055,0.2700195-1.0112514,0.2710304-1.5144625,0.4158211
		c-0.1362324,0.0391998-0.3134775,0.013916-0.3348379-0.1737328c-0.0220737-0.1939125,0.1361399-0.2673416,0.2818937-0.2049179
		c0.2851191,0.1221123,0.3700943-0.0108032,0.459219-0.2499046c0.1759138-0.4719391,0.5192213-0.5673141,0.9631538-0.3641357
		C14.2998095,35.8150291,14.2016544,36.0441551,14.2304764,36.2413559z"/>
	<path style="fill:#48544B;" d="M14.2304764,36.2413559c-0.0288219-0.1972008,0.0693331-0.4263268-0.1450338-0.57687
		c0.049284-0.29282-0.1726027-0.5248909-0.2238026-0.8568039c0.5943022,0.0543671,0.9471598,0.319912,1.1021099,0.848484
		c-0.0519161,0.3456841-0.3817987,0.4140892-0.5965147,0.5976486
		C14.3218699,36.2469215,14.2763023,36.2427254,14.2304764,36.2413559z"/>
	<path style="fill:#5E6A62;" d="M20.8844204,33.6386032c-0.159277,0.2918587-0.4220924,0.4002419-0.7373066,0.415802
		C20.2562904,33.6734657,20.5676613,33.6512527,20.8844204,33.6386032z"/>
	<path style="fill:#5E6A62;" d="M21.8974857,33.1929245c-0.1437511,0.2014046-0.346302,0.2847786-0.5867386,0.2921715
		C21.4073505,33.1888885,21.5490971,32.9833221,21.8974857,33.1929245z"/>
	<path style="fill:#5E6A62;" d="M48.3317261,19.9267578c-0.0152359,0.0032406-0.0371895,0.0141602-0.0442123,0.0080166
		c-0.0119591-0.0104675-0.0145493-0.0316544-0.0210762-0.0483379c0.0252075-0.0049114,0.050415-0.0098209,0.0756187-0.0147305
		C48.3386116,19.8900547,48.3351669,19.9084053,48.3317261,19.9267578z"/>
	<path style="fill:#5E6A62;" d="M46.067337,22.1992569c-0.0481377,0.0050716-0.0962715,0.0101433-0.1443367,0.0152798
		c0.0195236-0.0650349,0.0389671-0.1301365,0.0584145-0.1952381C46.0100555,22.0792847,46.0386925,22.1392708,46.067337,22.1992569z
		"/>
</g>
</svg>
