<?xml version="1.0" encoding="utf-8"?>
<!-- Generator: Adobe Illustrator 21.1.0, SVG Export Plug-In . SVG Version: 6.00 Build 0)  -->
<svg version="1.1" id="Слой_1" xmlns="http://www.w3.org/2000/svg" xmlns:xlink="http://www.w3.org/1999/xlink" x="0px" y="0px"
	 viewBox="0 0 55 45" style="enable-background:new 0 0 55 45;" xml:space="preserve">
<g>
	<path style="fill:#0358A4;" d="M15.9193039,22.2415066c-0.2470436-0.1325665-0.3429985-0.40378-0.3530512-0.6200848
		c-0.0525646-1.1310501-0.5885382-2.1946964-0.4524975-3.3483105c0.021018-0.1782379-0.0088978-0.346283-0.1756067-0.4570065
		c0.0344-0.245245,0.0691233-0.4907074,0.1038456-0.7361679c-0.1344013-1.1718721,0.3525429-2.1706772,0.9382915-3.1136818
		c0.3734798-0.6012716,1.1092434-0.6515198,1.7156086-0.8854551c0.0593472,0.051959,0.1185131,0.1053371,0.1776791,0.1587133
		c-0.0251713,1.3992624-0.2205238,2.7500563-1.0885487,3.916748c-0.0869808,0.116909-0.1300507,0.2671776-0.1895885,0.4036674
		c-0.1111279,0.2547646,0.0586529,0.3642216,0.2461166,0.4562492c0.2286758,0.1122646,0.353714,0.0302448,0.4542332-0.2028847
		c0.3583775-0.8311634,0.9856949-1.5491238,1.039032-2.5088205c0.0125027-0.2249527,0.0912189-0.37397,0.3775711-0.3006392
		c1.4615402,0.3742781,2.9545441,0.4814682,4.452961,0.4098701c1.0111771-0.048316,2.0035763-0.3348503,3.02775-0.2928448
		c0.2736816,0.0112247,0.5777817-0.0433159,0.6863785,0.2970028c0.2452106,0.7684193,1.0198021,0.8635788,1.577446,1.188446
		c0.7243614,0.4219875,1.2349606-0.2801476,1.7319908-0.6389332c1.3548565-0.978014,2.7801895-1.7568398,4.4138832-2.1750965
		c0.8063469-0.206439,1.6002083,0.0568142,2.3886528-0.1062784c0.4925575,0.164897,1.0478668-0.0242414,1.5819855,0.3146896
		c-0.3629494,0.1002512-0.6242371,0.298625-0.8704033,0.5198278c0.2438889,0.2625561,0.409729,0.2602491,0.6723328-0.0329418
		c0.4537659-0.5066156,0.8879929-0.3817816,1.1574745,0.2486258c0.1748962,0.4091234,0.4337997,0.7905407,0.5523682,1.2131824
		c0.1135788,0.404851,0.7817688,0.7385817,0.0341377,1.3267183c-0.331604,0.2608643-0.2691917,1.1504612-0.2165718,1.7395554
		c0.0660286,0.7392597,0.3295212,1.458683,0.4630737,2.1947803c0.1164474,0.6418896-0.5075035,0.9410248-0.7652245,1.4077301
		c-0.2647209,0.479372-0.720932,0.8587399-1.2840576,1.0371094c-0.5608711-0.0948696-1.1215553-0.1924896-1.6834068-0.2828465
		c-0.6540909-0.1051865-0.9484024,0.5993862-1.5203514,0.6819897c-0.4606552,0.4730492-0.9092064,0.1072121-1.3323669-0.0524349
		c-0.4747391-0.1791039-0.9744225-0.3830795-1.4367256-0.1887341c-0.6816177,0.2865429-1.3650646,0.1909084-2.0533848,0.2096634
		c-0.2380924,0.0064888-0.5031242-0.1006718-0.6875801,0.1517811c-0.0469971,0.0058594-0.0937557,0.0044994-0.1402779-0.0040836
		c-0.0555706-0.2886391-0.1779213-0.5181122-0.5085869-0.5490837c-0.5638485-0.0528145-1.1272945-0.1305065-1.6923103-0.1457138
		c-0.9657745-0.0259914-1.9358654,0.0344772-2.8977566-0.0327244c-0.5312347-0.037117-1.2487202,0.0849934-1.4921818-0.5528603
		c-0.1687145-0.44203-0.3881569-0.4957085-0.7572727-0.471447c-1.3994846,0.0919838-2.6674728-0.4736156-3.9719963-0.8302708
		c-0.6300259-0.1722469-1.1714306-0.4089355-1.6098785,0.3334751C16.4591351,22.0461998,16.3022861,22.496645,15.9193039,22.2415066
		z"/>
	<path style="fill:#E0C502;" d="M29.4624729,24.1706123c0.0465221,0.0085831,0.0932808,0.009943,0.1405354,0.0040436
		c0.9459934,0.3605652,1.9896851,0.3804474,2.9081383,0.8359604c0.2158966,0.4069862,0.5590286,0.5641785,1.0080566,0.5134621
		c0.8608017-0.1634712,1.7216072-0.3269424,2.5824089-0.4904137c0.2357445,0.0873051,0.477417,0.1967564,0.594593-0.15909
		c0.3135376-0.1264153,0.5242996-0.3662434,0.7051659-0.6390533c0.1882477-0.0574951,0.3764915-0.1149902,0.5647392-0.1724854
		c0.5047684,0.6957378,0.2711487,1.5831299,0.6034813,2.3238697c-0.2804184,0.2351418-0.2483025,0.5178852-0.1239929,0.8146992
		c-0.1095734,0.297451-0.4822884,0.621727,0.0890617,0.8498135c-0.2612801,0.053091-0.3238525,0.2513351-0.3742752,0.4818649
		c-0.1494484,0.6832409-0.7428017,1.0410576-1.2427025,0.6410904c-0.4461136-0.3569355-0.7320671-0.2320061-1.0966644-0.0005341
		c-0.2038612-1.0651226-0.7252579-2.1340542,0.0421638-3.1857529c0.0872612-0.1195812,0.0872498-0.2099838-0.0596619-0.2919426
		c-0.2106476-0.1175117-0.4188766-0.0757465-0.5160828,0.1060047c-0.2743607,0.5129871-0.6681633,0.9707222-0.73423,1.5856972
		c-0.0944481,0.8791161,0.3929214,1.6440029,0.4658432,2.4885483c-0.8830185,0.3698235-1.7724152,0.7269897-2.5585327,1.2891273
		c-1.0628242,0.2818241-2.1319942,0.5449638-3.1160088,1.0587368c-0.4315109,0.2084007-0.8630219,0.4168015-1.2945347,0.6252022
		c-0.8131733,0.3391571-1.6934509,0.5218277-2.4291496,1.0416565c-0.5635262-0.0921364-0.2216091-0.4600639-0.1711273-0.6786995
		c0.1629429-0.7057076,0.4976501-1.519577,0.068285-2.0955296c-0.6211033-0.833149-1.1904316-1.6081715-1.1401749-2.6963482
		c0.0054493-0.118042-0.1003323-0.2357178-0.2357712-0.2480297c-0.1418991-0.0129013-0.2107468,0.106205-0.2665386,0.2170639
		c-0.1887131,0.3749866,0.0077972,1.6056957,0.3639488,1.788168c0.4216194,0.2160149,0.429081,0.5706139,0.4702072,0.9234753
		c0.1253128,1.0751476-0.1428547,2.1007404-0.4342232,3.1208019c-0.4281921,0.1822014-0.2763901,0.445446-0.0995216,0.7121925
		c-0.003109,0.4743309-0.0486355,1.0612717-0.4151726,1.2663994c-0.3682957,0.2061043-0.2714233,0.5437279-0.484621,0.7471275
		c-0.2975388-0.0213661-0.6975288,0.0031586-0.816433,0.1946754c-0.3719254,0.5990601-0.6455383,0.2926903-0.9602566-0.0067368
		c-0.0896015-0.7871513-0.0321846-1.539135,0.5095177-2.1795998c0.2958221-0.3497543,0.1388855-0.4614296-0.2441101-0.4655037
		c-0.8528328-0.009079-1.6879559,0.1455994-2.4711361,0.4459953c-1.391531,0.5337296-1.7768974,0.3978348-2.6256428-0.8370018
		c-0.3809319-0.5542183-0.6961784-1.1928711-1.2938547-1.5819817c-0.1038485-0.5049019-0.2999525-0.9717255-0.4878531-1.4502239
		c-0.2482634-0.6322098-0.1835957-1.3873062-0.253746-2.0895023c0.0366278-0.1412125,0.0735617-0.2825089,0.1104946-0.4238014
		c-0.1596899-0.7739697,0.0780745-1.496397,0.2833138-2.224472c0.1003075-0.3558331,0.2285032-0.6880798-0.2117052-0.9746895
		c-0.4167776-0.2713509-0.4077644-0.9910965-0.0400696-1.3869972c0.3972425-0.4277096,0.8433046-0.764946,1.4817591-0.6598568
		c0.1979809,0.1655273,0.3095703,0.3975391,0.6478405,0.4227772c1.8511944,0.1381016,3.6846066,0.4886684,5.5568104,0.3863831
		c0.5872536-0.0320835,1.1938686,0.0608521,1.7213478,0.3754902c0.150238,0.0896111,0.276989,0.0698433,0.4221573,0.0482807
		c1.1268902-0.1673698,2.2645969-0.1491566,3.398035-0.2085495C28.4891796,24.3069267,28.9957752,24.3963261,29.4624729,24.1706123z
		 M29.8262119,26.8887482c-0.0758915,0.4731331,0.2931633,0.5674992,0.6049347,0.7106285
		c0.0484238,0.0096436,0.0965595,0.0211372,0.1453152,0.0286121c0.2228985,0.0341854,0.4895725-0.2608852,0.6596756,0.0554543
		c0.0496197,0.0922813-0.0321922,0.2822132-0.0973835,0.4040394c-0.1745033,0.3260994-0.3692417,0.0080662-0.5541172,0.0111599
		c-0.2484188,0.0041561-0.6140003-0.1602802-0.7257767,0.1450329c-0.1111794,0.3036823-0.0465431,0.657999,0.1367245,0.9721642
		c0.1917896,0.3287773,0.5606709,0.394516,0.7813282,0.2851639c0.3360977-0.1665535,0.7164593-0.15979,1.0128574-0.3280277
		c0.2566357-0.1456699,0.7688313-0.2317238,0.6409588-0.6621151c-0.1002007-0.3372402,0.0745621-1.0001335-0.6705379-0.8898754
		c-0.0164108-0.7590504-0.0164108-0.7590504-0.5917645-0.5936184c-0.1405754,0.1736298-0.3203945-0.0257797-0.4713097,0.0495834
		c-0.29352-0.0593338-0.5870419-0.1186714-0.8805618-0.1780071c0.1544437-0.5306721,0.6127148-0.3637409,0.9723759-0.4241447
		c0.1272659-0.0213718,0.316927,0.135107,0.3668442-0.0934639c0.0229607-0.1051369-0.0104294-0.2680321-0.0826721-0.3407917
		c-0.3481483-0.3506393-0.8732452-0.4936638-1.2671223-0.4004726c-1.0152607,0.2402077-1.4865208,1.671526-0.9406357,2.6106834
		C29.1815243,27.7911377,29.2431526,27.1542931,29.8262119,26.8887482z"/>
	<path style="fill:#BF2032;" d="M16.5280399,9.2387981c0.0419617-0.7586708-0.0356731-1.541358,0.444128-2.2119064
		c0.677393-0.228642,1.0157089-0.8552666,1.5157166-1.2922487c-0.0474949-0.0106101-0.0949898-0.0212197-0.1424847-0.0318298
		c0.4265175-0.140738,0.7474613-0.4422913,1.0580578-0.7405076c0.3519936-0.3379674,0.7230072-0.45964,1.18013-0.2650414
		c0.6501198,0.4694781,1.3925648,0.1922321,2.0919571,0.245163c0.39468,0.0298696,0.7862492-0.0051193,1.102293,0.2961988
		c0.290535,0.2769942,0.6377029,0.4388394,1.1034374,0.4102802c-0.5283508,0.6017532-0.6051235,0.6600385-0.3752747,0.962791
		c0.230669,0.303834-0.2027035,0.8611803,0.4122772,0.958796c0.2822285,0.5501609,0.2901096,1.1388698,0.2983055,1.7428393
		c0.0187073,1.3787632-0.0682564,2.7671041,0.9071064,3.9616737c0.7391262,0.9052401,0.6695271,0.9237089-0.4037724,1.2745886
		c-2.233923,0.7303066-4.45368,0.4178448-6.6828098-0.0043783c-0.3758163-0.0711832-0.45401-0.2467031-0.3580322-0.5651112
		c0.1555405-0.5159998,0.1452675-1.022295-0.0206108-1.5371923c-0.2423668-0.7523279-0.1172333-0.885498,0.6405678-0.7195816
		c0.1207809,0.0264444,0.2374687,0.073143,0.3588276,0.095088c0.3682041,0.0665798,0.5233459-0.1319513,0.6463013-0.4567728
		c0.1492157-0.3941889-0.1081505-0.4682903-0.3592472-0.5868645c-0.4786949-0.2260485-0.9715023-0.3676538-1.5093765-0.326478
		c-0.5042095,0.0385981-0.9886513-0.0548925-1.4499474-0.263895C16.5487022,10.0068035,16.7018127,9.5437155,16.5280399,9.2387981z"
		/>
	<path style="fill:#BF2032;" d="M35.8212318,29.1742859c0.3643837-0.2319183,0.6503372-0.3568478,1.0964508,0.0000877
		c0.4999008,0.3999672,1.0932541,0.0421505,1.2427025-0.6410904c0.0504227-0.2305298,0.1129951-0.4287739,0.3742752-0.4818649
		c0.8831367,0.4978924,1.4549217,1.1886501,1.4105034,2.2685051c-0.0048294,0.1173306,0.010994,0.3150787,0.0755463,0.3436127
		c0.8091698,0.3576717,0.3313713,1.0731201,0.3135986,1.5359612c-0.0273857,0.7134056-0.3561974,1.4145813-0.1347389,2.1644058
		c0.0260048,0.088047-0.0927696,0.2188492-0.1444397,0.3295937c0.1347198,0.6799316-0.9925232,0.6466599-0.7763023,1.3729057
		c-0.0457916,0.0104675-0.0975113,0.0404053-0.1364937,0.0285187c-0.7338333-0.2236214-0.4819603,0.3569183-0.4994431,0.6496162
		c-0.0435028,0.7283859-0.4946594,1.3968925-1.0504074,1.6323051c-1.047802,0.4438515-2.1188889,0.7179146-3.261364,0.796669
		c-0.8633995,0.0595169-0.9875908,0.0348434-1.1127701-0.8074417c0.0003014,0.0001335,0.0138969,0.0005379,0.0138969,0.0005379
		c0.1591034-0.0457573,0.1683578-0.1607971,0.1363564-0.2949142c0.3323784-0.9998589,1.2108765-1.6775055,1.5480461-2.6861458
		C35.5919762,33.3653107,35.8617401,31.2944794,35.8212318,29.1742859z"/>
	<path style="fill:#2E2820;" d="M16.98559,10.1844091c0.4612961,0.2090025,0.9457378,0.3024931,1.4499474,0.263895
		c0.5378742-0.0411758,1.0306816,0.1004295,1.5093765,0.326478c0.2510967,0.1185741,0.5084629,0.1926756,0.3592472,0.5868645
		c-0.1229553,0.3248215-0.2780972,0.5233526-0.6463013,0.4567728c-0.1213589-0.021945-0.2380466-0.0686436-0.3588276-0.095088
		c-0.7578011-0.1659164-0.8829346-0.0327463-0.6405678,0.7195816c0.1658783,0.5148973,0.1761513,1.0211926,0.0206108,1.5371923
		c-0.0959778,0.318408-0.0177841,0.493928,0.3580322,0.5651112c2.2291298,0.4222231,4.4488869,0.7346849,6.6828098,0.0043783
		c1.0732994-0.3508797,1.1428986-0.3693485,0.4037724-1.2745886c-0.9753628-1.1945696-0.8883991-2.5829105-0.9071064-3.9616737
		c-0.0081959-0.6039696-0.016077-1.1926785-0.298399-1.7420502c-0.1330299-1.321795,0.1091385-1.7690668,1.0004864-1.8472233
		c-0.005352,0.0807657-0.0107021,0.161531-0.0160542,0.2422962c-0.4046345,0.5725074,0.0924168,1.0373354,0.185154,1.550447
		c0.0998135,0.3957019,0.1996269,0.7914042,0.2994423,1.1871057c-0.0141144,0.1079674-0.0011272,0.2043219,0.1106987,0.2583179
		c-0.0434132,0.557209-0.0868282,1.114418-0.1302433,1.671627c-0.2340946,0.5272093-0.4969025,1.057044,0.1375465,1.5048685
		l0.0092182,0.00354c0.0126648,0.1170788,0.0452824,0.2215157,0.1696777,0.2678022
		c0.0393524,0.0139418,0.0793114,0.0258522,0.119873,0.0357323c0.0583115,0.0865679,0.1166248,0.1731348,0.1749363,0.2597027
		c0.0381527,0.0168791,0.0766869,0.0328321,0.1156063,0.0478573c0.0641193,0.1605806-0.0485077,0.465148,0.1858101,0.4621897
		c0.2202663-0.0027828,0.1877956-0.3347197,0.3046722-0.499568c0.0168915-0.0824461,0.0337868-0.1648941,0.0506802-0.2473402
		c0.1552696-0.059123,0.2533875-0.162324,0.2594948-0.336482l0.0011616-0.0051346
		c0.3744755-0.2477303,0.3954048-0.5022964,0.014782-0.7646265l-0.0148563-0.0215244
		c-0.0006237-0.0305853-0.0090542-0.0588436-0.0252838-0.0847731c-0.0094452-0.0751343-0.0188885-0.1502686-0.0283298-0.2254019
		c0.0553074-0.3860893,0.0226898-0.740694-0.3487759-0.973959c-0.0142155-0.1165571-0.0284328-0.2331142-0.0426483-0.3496723
		c0.12677-0.0244656,0.2535343-0.0489321,0.3803024-0.0733976c0.3067207,0.6966038,0.7065277,1.376339,0.6443062,2.1688585
		c-0.0361271,0.4600868-0.1228733,0.9125395-0.016201,1.3718538c-0.0161095,0.4737635,0.1349831,0.8022385,0.6836758,0.6550779
		c0.7462025-0.2001343,1.4794102-0.4484148,2.2243214-0.6538038c0.2417793-0.0666618,0.506218-0.0590343,0.5171089-0.40306
		c0.0296402-0.0254974,0.0574474-0.0528564,0.0834236-0.082078c0.2793579-0.2438412,0.5587158-0.4876823,0.8380775-0.7315226
		c0.0042076,0.1570005,0.008419,0.314002,0.0126305,0.4710026c-0.0185852,1.0169353,0.3421707,1.2217941,1.2935829,0.8145752
		c0.3244057-0.1388512,0.6366005-0.2443295,0.842926-0.5438576c0.5262756,0.4651375,0.7731819-0.1347218,1.1347008-0.2976503
		c0.1792679,0.0111971,0.3585281,0.0223923,0.537796,0.0335875c0.0491295,0.0454016,0.0982628,0.0908031,0.1473923,0.1362066
		c0.5205498,0.2844,0.4529839,0.6830873,0.2163849,1.113862c-0.7886543,0.1623745-1.5825157-0.1008787-2.3888626,0.1055603
		c-1.6336937,0.4182568-3.0590267,1.1970825-4.4138832,2.1750965c-0.4970303,0.3587856-1.0076294,1.0609207-1.7319908,0.6389332
		c-0.5576439-0.3248672-1.3322353-0.4200268-1.577446-1.188446c-0.1085968-0.3403187-0.4126968-0.285778-0.6863785-0.2970028
		c-1.0241737-0.0420055-2.016573,0.2445288-3.02775,0.2928448c-1.4984169,0.0715981-2.9914207-0.0355921-4.452961-0.4098701
		c-0.2863522-0.0733309-0.3650684,0.0756865-0.3775711,0.3006392c-0.0533371,0.9596968-0.6806545,1.6776571-1.039032,2.5088205
		c-0.1005192,0.2331295-0.2255573,0.3151493-0.4542332,0.2028847c-0.1874638-0.0920277-0.3572445-0.2014847-0.2461166-0.4562492
		c0.0595379-0.1364899,0.1026077-0.2867584,0.1895885-0.4036674c0.8680248-1.1666918,1.0633774-2.5174856,1.0885239-3.9168282
		c0.3878174-0.9828615,0.2644978-1.3247108-0.5719032-1.5853643c-0.0901775-0.1340265-0.2203617-0.2238741-0.3745537-0.1699152
		c-0.5021191,0.1757164-0.6716022-0.1002054-0.7481079-0.5211411C16.2783775,10.5280333,17.0300369,10.7684202,16.98559,10.1844091z
		"/>
	<path style="fill:#7B4147;" d="M33.2180557,38.3659325c0.125473,0.8424225,0.2496643,0.8670959,1.1130638,0.807579
		c1.1424751-0.0787544,2.213562-0.3528175,3.261364-0.796669c0.555748-0.2354126,1.0069046-0.9039192,1.0504074-1.6323051
		c0.0174828-0.2926979-0.2343903-0.8732376,0.4994431-0.6496162c0.0389824,0.0118866,0.0907021-0.0180511,0.1364937-0.0285187
		c-0.2162209-0.7262459,0.9110222-0.6929741,0.7763023-1.3729057c0.4410744,0.5064316,0.0781898,1.054863,0.0830803,1.5839348
		c-0.0412407,0.2328987-0.2078094,0.4401932-0.1421471,0.6949425c-0.2867699,0.6500206-0.565197,1.303936-0.8653259,1.9477348
		c-0.0917549,0.1968155-0.2091331,0.4100304-0.3749199,0.537529c-0.2682533,0.206295-0.5862541,0.3479156-0.8832474,0.5168419
		c0.0203667,0.0315514,0.0407295,0.0631027,0.0610924,0.0946503c-0.4029884,0.044075-0.5536461,0.4358177-0.8552208,0.6326256
		c-1.301754,0.8495483-2.7534828,0.8446884-4.2031479,0.813324c-0.8225403-0.0177994-1.6421814-0.1696854-2.4632587-0.2611008
		c0.0088673-0.0518723,0.0178699-0.1038284,0.0265942-0.1560936c0.1348686-0.0499229,0.3359947-0.000145,0.357996-0.2390785
		c-0.2040863-0.0595284-0.2905006,0.0831909-0.3877048,0.2053261c-0.0992775-0.0026779-0.1985569-0.0053558-0.2978344-0.0080338
		c-0.740694-0.3532944-1.5435524-0.4053192-2.3412781-0.4779968c-0.1094589-0.0099716-0.1772461,0.06493-0.1861973,0.1801338
		c-0.0480766-0.022007-0.0961571-0.0440102-0.1442337-0.0660172c0.0278893-0.2413368-0.1238289-0.2292366-0.2858582-0.2025871
		c0.1824455-0.4811096,0.53582-0.6693268,1.0391712-0.6239967c0.2607517,0.0234833,0.5781555,0.1074295,0.4725838-0.3726234
		c-0.0302258-0.137455,0.1595497-0.1517448,0.2512093-0.2229004c0.510046-0.3959618,1.0412464-0.5420456,1.641943-0.2135277
		c0.3165913,0.1731377,0.5852547,0.005249,0.6721649-0.2482834c0.0918159-0.2678452-0.2879543-0.3986816-0.4268074-0.3993759
		c-0.5290928-0.0026283-1.0753136-0.1700058-1.5925083,0.1261292c-0.3423424,0.196022-0.720459,0.3092499-1.1051579,0.0724792
		c0.0023289-0.1959991,0.0042839-0.3924179,0.0062408-0.5888367c0.7639961-0.1431999,1.5373993-0.0114021,2.3021355-0.0766449
		c0.4813557-0.041069,0.9787731,0.1525803,1.2195606,0.4081612c0.6245327,0.6629028,0.6669331,0.0929832,0.8068676-0.2864113
		c0.0997124-0.2703476,0.2445335-0.4144516,0.5356331-0.3921432c-0.1025124,0.3843193-0.3790436,0.717617-0.3369751,1.1449051
		c-0.0641975,0.028923-0.1285858,0.0576057-0.1929741,0.0862885c0.0152473,0.0189362,0.0415382,0.0557632,0.044117,0.0541725
		c0.0579758-0.0357704,0.1133499-0.0757637,0.1692085-0.1149597C32.8583031,38.6978073,32.9243507,38.3984375,33.2180557,38.3659325
		z M37.0420227,39.9454308c-1.3736916-0.4157944-2.1611023,0.8615608-3.4774857,0.6865501
		C34.9311981,41.0160065,35.864502,40.3451614,37.0420227,39.9454308z M31.1899757,40.6717148
		c0.1527424-0.0957031,0.4136353-0.0398369,0.420969-0.3182945c0.0032291-0.1226044-0.0022163-0.2642708-0.1757813-0.2232285
		c-0.1746559,0.0413017-0.4055386,0.0450974-0.4047699,0.3182259
		C31.0306988,40.5569878,30.9990234,40.6993103,31.1899757,40.6717148z M32.888443,40.5010605
		c-0.1036644,0.0184402-0.1697159,0.0504036-0.1384315,0.1385002c0.0112686,0.0317307,0.0817795,0.0692673,0.1138382,0.0608215
		c0.055294-0.014576,0.1016502-0.0630493,0.1517601-0.0972977C32.9682846,40.5651169,32.9209633,40.5271492,32.888443,40.5010605z"
		/>
	<path style="fill:#2E2820;" d="M27.4393768,40.6922188c0.0480766,0.022007,0.0961571,0.0440102,0.144516,0.0660667
		c0.8239307,0.2576218,1.6634274,0.380703,2.5271931,0.2978134c0.0992775,0.0026779,0.1985569,0.0053558,0.2978344,0.0080338
		l0.0299835,0.0340652c-0.0089989,0.0519524-0.0180016,0.1039085-0.0268688,0.1557808
		c-1.1031265,0.7873993-2.2499294,0.6078453-3.3797531,0.1013832c-0.3829861-0.1716766-0.660408-0.2060051-0.9727077,0.0984688
		c-0.5600662,0.5460358-1.2742043,0.6385155-1.9912891,0.5112419c-1.6931019-0.3005028-3.3294468-0.9799461-5.11306-0.7045937
		c1.1227913-0.4616585,2.2602234-0.567997,3.4269047-0.2971268c0.3571033,0.0829048,0.7245426,0.1395302,1.0669212,0.26408
		c0.9024982,0.3283005,1.6344528-0.1632385,2.5154819-0.4607391c-0.4007778-0.3385582-0.744627-0.6290245-1.0882645-0.9192581
		c-0.7632771-0.8394623-0.9540138-1.9952393-1.600153-2.8996964c0.2131977-0.2033997,0.1163254-0.5410233,0.484621-0.7471275
		c0.3665371-0.2051277,0.4120636-0.7920685,0.4150391-1.2660408c0.4696007-0.1761818,0.3120728-0.4405251,0.0996552-0.7125511
		c0.2913685-1.0200615,0.559536-2.0456543,0.4342232-3.1208019c-0.0411263-0.3528614-0.0485878-0.7074604-0.4702072-0.9234753
		c-0.3561516-0.1824722-0.5526619-1.4131813-0.3639488-1.788168c0.0557919-0.1108589,0.1246395-0.2299652,0.2665386-0.2170639
		c0.1354389,0.0123119,0.2412205,0.1299877,0.2357712,0.2480297c-0.0502567,1.0881767,0.5190716,1.8631992,1.1401749,2.6963482
		c0.4293652,0.5759525,0.0946579,1.389822-0.068285,2.0955296c-0.0504818,0.2186356-0.3923988,0.5865631,0.1714954,0.6786842
		c-0.1504898,0.383461-0.5570183,0.642704-0.5383339,1.1085739c-0.2658386,0.6050911,0.0603218,0.9375343,0.5398445,1.222908
		c0.2503033,0.1489563,0.5882893,0.3857536,0.4105015,0.6749039c-0.1492023,0.2426567-0.4621792-0.0228806-0.6874352-0.1334763
		c-0.2072105-0.2843475-0.4613438-0.1835403-0.7001648-0.0639305c-0.0338058,0.0169334-0.035305,0.2067223,0.0118752,0.2583122
		c0.208086,0.2275314,0.403635,0.0094376,0.6038589-0.0456696c0.1344948,0.2596321,0.4045143,0.2787094,0.6352882,0.3834
		c0.2166443,0.0982819,0.5719261,0.1116295,0.5066814,0.5092583c-0.1537571-0.0001564-0.3073349-0.0001564-0.594595-0.0001564
		c0.3023243,0.1497269,0.4520512,0.1247368,0.5853672-0.0104332c0.1528244,0.0553932,0.3056469,0.1107864,0.4584694,0.1661797
		c0.0450935,0.0328026,0.0901871,0.0656052,0.1352806,0.0984116c0.0158501,0.0942001,0.031702,0.1883926,0.0475521,0.2825928
		c0.1048489,0.4827232-0.027998,0.7501984-0.5810223,0.6584511c-0.119915-0.0198936-0.2547607-0.026123-0.3685837,0.0082283
		c-0.3113899,0.0939865-0.5979862,0.2007484-0.2074966,0.5767021c0.662447,0.6377907,0.7146778,0.8659286,1.2622795-0.0715103
		c0.1157475-0.1981506,0.4247952-0.1871872,0.4460812-0.4610977c0.1730289-0.1485443,0.3460636-0.2970924,0.5190964-0.4456367
		c0.3850784,0.2371902,0.763195,0.1239624,1.1055374-0.0720596c0.5171947-0.2961349,1.0634155-0.1287575,1.5925083-0.1261292
		c0.1388531,0.0006943,0.5186234,0.1315308,0.4268074,0.3993759c-0.0869102,0.2535324-0.3555737,0.4214211-0.6721649,0.2482834
		c-0.6006966-0.3285179-1.131897-0.1824341-1.641943,0.2135277c-0.0916595,0.0711555-0.281435,0.0854454-0.2512093,0.2229004
		c0.1055717,0.4800529-0.211832,0.3961067-0.4725838,0.3726234c-0.5033512-0.04533-0.8567257,0.1428871-1.0392113,0.6242218
		C27.2487526,40.5574608,27.3440647,40.6248398,27.4393768,40.6922188z M25.4570847,38.9981613
		c-0.0277309-0.0354385-0.049818-0.0908546-0.0819569-0.0974731c-0.0357189-0.0073547-0.1070461,0.0209236-0.116497,0.0491905
		c-0.027647,0.082695,0.0206089,0.1392708,0.1066837,0.1329536C25.3971119,39.0805016,25.4253044,39.0290794,25.4570847,38.9981613z
		"/>
	<path style="fill:#BF2032;" d="M32.8188782,12.4299946c-0.0042114-0.1570005-0.0084229-0.314002-0.0126228-0.4708862
		c0.4789734-0.3950319,0.3293571-0.8619452,0.1520996-1.332015c0.053894-0.297575,0.1077919-0.59515,0.1616859-0.892724
		c0.4808731-0.6749506,0.4562607-1.8072186-0.0516548-2.3763108c-0.0411491-0.1450071-0.0822945-0.2900147-0.1234474-0.4350219
		c0.0073547-0.2118554,0.0147095-0.4237113,0.0220642-0.6355667c0.2150574-0.1661434,0.4862175-0.2802553,0.5468445-0.5896249
		c0.3249435,0.0336409,0.438282-0.2212973,0.5858421-0.4295692c0.3116417,0.0988741,0.4504013,0.3952746,0.6759338,0.5906248
		c0.6582756,0.9377799,1.4729385,1.7794361,1.8215752,2.9124999c0.0860062,0.0662794,0.1720123,0.1325588,0.2578773,0.1987524
		c0.0415764,0.0558367,0.0832901,0.1117582,0.1250038,0.1676788l-0.0003853-0.000762
		c-0.1082954,0.8201962-0.0717239,1.6391125,0.0209808,2.457551c-0.0091133,0.0699387-0.0182266,0.1398773-0.0273476,0.2099981
		c-0.3910217,0.0599833-0.2583656,0.4060717-0.3454437,0.6320314c-0.1792679-0.0111961-0.3585281-0.0223913-0.5377655-0.0334558
		c-0.0394783-0.32831-0.3159637-0.3431101-0.4986725-0.2607107C34.6932907,12.5475397,33.7362671,12.2834158,32.8188782,12.4299946z
		"/>
	<path style="fill:#2E2820;" d="M29.4624729,24.1706123c-0.4666977,0.2257137-0.9732933,0.1363144-1.4598885,0.1618118
		c-1.1334381,0.0593929-2.2711449,0.0411797-3.398035,0.2085495c-0.1451683,0.0215626-0.2719193,0.0413303-0.4221573-0.0482807
		c-0.5274792-0.3146381-1.1340942-0.4075737-1.7213478-0.3754902c-1.8722038,0.1022854-3.705616-0.2482815-5.5568104-0.3863831
		c-0.3382702-0.025238-0.4498596-0.2572498-0.6478405-0.4227772c-0.0353565-0.3798046-0.4726267-0.6323853-0.3371935-1.0663357
		c0.3830862,0.2549381,0.5399351-0.195507,0.6132898-0.3197193c0.438448-0.7424107,0.9798527-0.505722,1.6098785-0.3334751
		c1.3045235,0.3566551,2.5725117,0.9222546,3.9719963,0.8302708c0.3691158-0.0242615,0.5885582,0.029417,0.7572727,0.471447
		c0.2434616,0.6378536,0.960947,0.5157433,1.4921818,0.5528603c0.9618912,0.0672016,1.931982,0.0067329,2.8977566,0.0327244
		c0.5650158,0.0152073,1.1284618,0.0928993,1.6923103,0.1457138C29.2845516,23.6525002,29.4069023,23.8819733,29.4624729,24.1706123
		z"/>
	<path style="fill:#7B4147;" d="M23.2761154,36.9477386c0.6461391,0.9044571,0.8368759,2.0602341,1.600153,2.8996964
		c-0.0520458,0.1381874-0.1726227,0.1854591-0.2957382,0.1654091c-2.0125351-0.3277206-4.0652733-0.4214096-6.0311584-1.0199738
		c-0.7254848-0.2208939-1.43993-0.4713554-1.8531208-1.1860008c0.1705303-0.4652977,0.8288021-0.4559937,0.9735794-1.0030479
		c-0.3399601-0.073307-0.6956406-0.0612793-0.9332962-0.3618126c-0.1371899-0.1734848-0.350584-0.2146988-0.5164108-0.04459
		c-0.2677755,0.2746887-0.547842,0.0893669-0.8255959,0.0633507c-0.4320011-0.9684258-0.1450329-1.9840202-0.195343-2.9777031
		c0.2861528,0.3763046,0.09758,0.8095665,0.1390448,1.2146835c0.0700245,0.6841545,0.4058447,1.0898972,1.0077543,0.9235229
		c0.7505646-0.2074623,1.1460075,0.303093,1.6551228,0.5941925c0.2038975,0.1165848,0.3346252,0.46558,0.5231953,0.4863853
		c0.8034325,0.0886307,1.4742641,0.5155678,2.2142277,0.7554207c0.2833443,0.0918427,0.6653404,0.1546364,0.7608967-0.3215942
		c0.3147182,0.299427,0.5883312,0.6057968,0.9602566,0.0067368C22.5785866,36.9508972,22.9785767,36.9263725,23.2761154,36.9477386z
		 M23.4008636,38.9278145c-0.5600224-0.2876015-1.0131207-0.7437859-1.6402607-1.0783615
		C21.901535,38.9547462,22.7705078,38.7613754,23.4008636,38.9278145z"/>
	<path style="fill:#E0C502;" d="M27.4339104,5.1199999c0.2375259-0.1432261,0.5266762-0.0937862,0.6969109,0.0235896
		c0.4979019,0.3433003,0.9518013,0.0189886,1.4220619-0.0076718c0.3654442,0.3884535,0.8421974,0.1474447,1.2635098,0.2219667
		c0.069149,0.2780647,0.2608185,0.3167558,0.502718,0.2573023c0.0249043,0.0381651,0.0585289,0.0656672,0.1008759,0.0825076
		c-0.0131912,0.169548,0.0859871,0.113492,0.1712818,0.0853128c0.0250454,0.0337367,0.0559597,0.060761,0.0927448,0.0810733
		c-0.0315495,0.0735593,0.0029278,0.0885553,0.0678749,0.0765276c0.0261059,0.0768604,0.0522137,0.1537204,0.0780525,0.2301784
		L31.8137989,6.225193l0.0469322,0.0283809c0.1478024,0.4421563,0.2977161,0.8836212,0.4426289,1.3267212
		c0.0916595,0.2802625,0.1553192,0.5600619-0.1112061,0.7916007c-0.6728172,0.5938702-1.3881226,0.1725321-2.1285248,0.0711365
		c0.4400597,0.3043804,0.1162128,1.106472,0.8952312,1.157095c0.5186749,0.0337048,0.9775009,0.4547062,1.5445919,0.2952175
		c-0.0022545,0.1330385-0.004509,0.266078-0.0067596,0.3991175c-0.0855713,0.0551748-0.1711426,0.1103497-0.2567101,0.1655245
		c-2.0761776-0.1160278-3.6316509-1.2094078-4.8963089-2.7363677c-0.4884071-0.5897083-0.711628-1.3691401-0.5819721-2.1834216
		C26.9605675,5.3598118,27.1473789,5.1601429,27.4339104,5.1199999z M29.9344215,6.4086766
		c-0.4685936-0.0369105-1.2210197,0.8643403-1.0707283,1.3025441c0.0723114,0.2108259,0.2322922,0.4354792,0.4547176,0.4272728
		c0.1891403-0.006979,0.3494682-0.2225609,0.2920837-0.4449501c-0.1261368-0.4888453,0.2395096-0.3992858,0.5013504-0.5087333
		c0.2902985-0.1213417,0.8623657,0.1951094,0.8476048-0.309968c-0.0146904-0.5026326-0.5901012-0.3731647-0.9539852-0.4445853
		C29.9813004,6.4255152,29.9580822,6.4159813,29.9344215,6.4086766z M30.8197002,8.2159004
		c0.3431072-0.043766,0.6347675-0.0820675,0.9267559-0.1176901c0.1207733-0.0147352,0.2660408-0.0040941,0.2175198-0.196075
		c-0.0296288-0.1172252-0.0785389-0.3295455-0.1176128-0.3292751c-0.5079422,0.0035191-1.0167694,0.0256476-1.5226555,0.0724769
		c-0.1205826,0.0111628-0.197031,0.1414671-0.0952244,0.281714C30.3876877,8.1463709,30.609724,8.2248888,30.8197002,8.2159004z"/>
	<path style="fill:#BF2032;" d="M21.4994259,37.1356773c-0.0955563,0.4762306-0.4775524,0.4134369-0.7608967,0.3215942
		c-0.7399635-0.2398529-1.4107952-0.66679-2.2142277-0.7554207c-0.18857-0.0208054-0.3192978-0.3698006-0.5231953-0.4863853
		c-0.5091152-0.2910995-0.9045582-0.8016548-1.6551228-0.5941925c-0.6019096,0.1663742-0.9377298-0.2393684-1.0077543-0.9235229
		c-0.0414648-0.405117,0.1471081-0.8383789-0.1390448-1.2146835c-0.0983324-0.3498344-0.0213442-0.6681137,0.1749449-0.9651375
		c0.5977468,0.3887672,0.9129934,1.02742,1.2939253,1.5816383c0.8487453,1.2348366,1.2341118,1.3707314,2.6256428,0.8370018
		c0.7831802-0.300396,1.6183033-0.4550743,2.4711361-0.4459953c0.3829956,0.0040741,0.5399323,0.1157494,0.2441101,0.4655037
		C21.4672413,35.5965424,21.4098244,36.348526,21.4994259,37.1356773z"/>
	<path style="fill:#7B4147;" d="M27.4339104,5.1199999c-0.2865314,0.040143-0.4733429,0.2398119-0.6716499,0.4202499
		c-0.2866993,0.0343108-0.6096134-0.095221-0.8435917,0.1838093c-0.891346,0.0781565-1.1335144,0.5254283-1.0004845,1.8472233
		c-0.6148872-0.0984049-0.1815147-0.6557512-0.4121838-0.9595852c-0.2298489-0.3027525-0.1530762-0.3610377,0.3752747-0.962791
		c-0.4657345,0.0285592-0.8129025-0.133286-1.1034374-0.4102802c-0.3160439-0.3013182-0.707613-0.2663293-1.102293-0.2961988
		c-0.6993923-0.0529308-1.4418373,0.2243152-2.0919571-0.245163C22.8667469,4.8438025,25.1840324,4.4357152,27.4339104,5.1199999z"
		/>
	<path style="fill:#2E2820;" d="M15.3945274,36.4607697c0.2777538,0.0260162,0.5578203,0.211338,0.8255959-0.0633507
		c0.1658268-0.1701088,0.379221-0.1288948,0.5164108,0.04459c0.2376556,0.3005333,0.5933361,0.2885056,0.9332962,0.3618126
		c-0.1447773,0.5470543-0.8030491,0.5377502-0.9735794,1.0030479c-0.1398563,0.5608711,0.2168903,1.0387077,0.950758,1.3091736
		c0.2292423,0.0844917,0.736454-0.0340958,0.5323219,0.4525642c-0.1795731,0.4281082-0.5608025,0.3431702-0.9350147,0.1522903
		c-0.8288803-0.4227943-1.163023-1.202137-1.4183388-2.00177C15.6909132,37.2961082,15.5625343,36.8722801,15.3945274,36.4607697z"
		/>
	<path style="fill:#2E2820;" d="M40.2052994,18.3262653c1.1662407,0.1834202,1.7754555,0.8966103,2.3591232,1.6152859
		c0.3710098,0.4568272,0.6457977,0.9907188,1.0018883,1.4611759c0.1900215,0.2510452,0.1092072,0.3923187-0.0833664,0.550211
		c-0.2304916,0.1889763-0.3176498,0.037447-0.4460716-0.1502037c-0.6905746-1.0090637-1.2213211-2.1621304-2.4521141-2.6897469
		C40.304451,18.9928226,40.4966621,18.5990925,40.2052994,18.3262653z"/>
	<path style="fill:#2E2820;" d="M14.3035154,28.9735985c0.078208,0.6676674-0.362752,1.1521759-0.5871983,1.7155418
		c-0.0878544,0.2205162-0.7311993,0.5488377,0.0745459,0.7652168c0.152482,0.0409489,0.1604624,0.6375275-0.0844135,0.7722359
		c-0.2581577,0.1420174-0.7263832,0.2534447-0.9256077-0.1031952c-0.2460823-0.4405193-0.4484043-0.9141579,0.0037403-1.432415
		c0.5334473-0.6114464,1.0504847-1.2521973,1.3858671-2.0084381C14.2147856,28.7796707,14.2591515,28.8766327,14.3035154,28.9735985
		z"/>
	<path style="fill:#7B4147;" d="M31.8302078,6.1711888c-0.0261059-0.0768604-0.0522137-0.1537204-0.0781441-0.2301331
		c-0.0150967-0.0321093-0.037838-0.0579171-0.0680504-0.0769753c-0.0367851-0.0203123-0.0676994-0.0473366-0.0924187-0.0805922
		c-0.0569859-0.0282769-0.1142979-0.057035-0.171608-0.0857935c-0.042347-0.0168409-0.0759716-0.044343-0.1008606-0.0818
		c-0.0038948-0.4035816-0.2044582-0.4257336-0.5027332-0.2580104c-0.4213123-0.074522-0.8980656,0.1664867-1.2635098-0.2219667
		c0.6465454-0.1921673,1.2939739-0.4315934,1.9411716-0.0113668c0.3272762,0.212503,0.6834583-0.0971479,1.0099735,0.0687361
		c0.1543236,0.3647289,0.3086472,0.7294559,0.4629745,1.0941834c-0.0073547,0.2118549-0.0147095,0.4237108-0.0220108,0.6353054
		c-0.2076111-0.107862-0.3634338,0.0486622-0.5538864,0.1217833c-0.0297241-0.369431,0.0549507-0.7973614-0.4774342-0.8688269
		C31.8862114,6.1676226,31.858387,6.1661081,31.8302078,6.1711888z"/>
	<path style="fill:#7B4147;" d="M37.9661102,24.063036c-0.1882477,0.0574951-0.3764915,0.1149902-0.5646019,0.1722717
		c-0.7854424,0.2263165-1.5105782-0.3129005-2.2887001-0.1808872c0.571949-0.0826035,0.8662605-0.7871761,1.5203514-0.6819897
		c0.5618515,0.0903568,1.1225357,0.1879768,1.6834068,0.2828465C38.1995277,23.791502,38.0828171,23.927269,37.9661102,24.063036z"
		/>
	<path style="fill:#7B4147;" d="M14.3035154,28.9735985c-0.044364-0.0969658-0.0887299-0.1939278-0.1330662-0.2910538
		c-0.0284863-0.1192474-0.018734-0.3066177-0.0912228-0.3472462c-1.2014427-0.6733494-0.1478443-1.6690311-0.3566484-2.481266
		c-0.0352039-0.1369324,0.1130562-0.2906609,0.2771454-0.2799492c0.2288704,0.0149403,0.1385727,0.2125511,0.1377487,0.3408413
		c-0.0051994,0.8094368-0.0508423,1.6186275,0.3076134,2.3875618c0.0746431,0.1601238,0.1456394,0.2294159,0.2980404,0.251585
		c-0.0369635,0.1412792-0.0738974,0.2825756-0.1105251,0.4237881C14.5231094,28.9763851,14.413312,28.9749908,14.3035154,28.9735985
		z"/>
	<path style="fill:#2E2820;" d="M15.0419941,17.079937c-0.0347223,0.2454605-0.0694456,0.4909229-0.1038456,0.7361679
		c-0.6065664,0.2516403-0.9969797,0.7738781-1.5014973,1.1699142C13.6520147,18.0830116,14.1160088,17.3911266,15.0419941,17.079937
		z"/>
	<path style="fill:#7B4147;" d="M36.5971985,8.7714005c-0.3486366-1.1330638-1.1632996-1.97472-1.8215752-2.9124999
		c0.0533218-0.106894,0.178318-0.1462212,0.2354965-0.0753698C35.731575,6.6762919,36.7504311,7.4148045,36.5971985,8.7714005z"/>
	<path style="fill:#7B4147;" d="M16.98559,10.1844091c0.0444469,0.5840111-0.7072124,0.3436241-0.8066063,0.7786036
		c-0.5187521-0.7107363-0.4098177-1.248435,0.3490562-1.7239857C16.7018127,9.5437155,16.5487022,10.0068035,16.98559,10.1844091z"
		/>
	<path style="fill:#2E2820;" d="M38.4455986,27.2016048c-0.1243095-0.296814-0.1564255-0.5795574,0.1239929-0.8146992
		c0.2028084,0.0637398,0.4035606,0.1691799,0.6097107,0.1810837c0.2613983,0.0150909,0.5758972-0.1342907,0.5071678,0.351593
		c-0.0592308,0.4187107-0.3030357,0.4945469-0.663414,0.4063892C38.831871,27.2792053,38.6381683,27.2427273,38.4455986,27.2016048z
		"/>
	<path style="fill:#2E2820;" d="M39.9960632,36.972374c-0.0656624-0.2547493,0.1009064-0.4620438,0.1421471-0.6949425
		c0.3913918-0.1770248,0.649025-0.4704361,0.7693291-0.8831215c0.0996513,0.0014763,0.199379,0.0027008,0.2991104,0.0039253
		C41.1257591,36.1710739,40.9643822,36.8820114,39.9960632,36.972374z"/>
	<path style="fill:#2E2820;" d="M32.9670029,6.2874703c-0.1543274-0.3647275-0.308651-0.7294545-0.4629745-1.0941834
		c0.2788849-0.2480245,0.5826721-0.1401033,0.8846016-0.0616279c-0.0438766,0.2078395,0.0193253,0.3917279,0.1252174,0.566186
		C33.4532204,6.0072145,33.1820602,6.1213264,32.9670029,6.2874703z"/>
	<path style="fill:#7B4147;" d="M37.0006752,11.5946207c-0.0927048-0.8184385-0.1292763-1.6373549-0.0209808-2.457551
		C37.1935997,9.9544563,37.5325356,10.7708178,37.0006752,11.5946207z"/>
	<path style="fill:#7B4147;" d="M17.3016453,11.6540689c0.836401,0.2606535,0.9597206,0.6025028,0.5719032,1.5853643
		c-0.0591412-0.0532961-0.1183071-0.1066742-0.1776543-0.1586332
		C17.5643578,12.6061668,17.4330025,12.1301174,17.3016453,11.6540689z"/>
	<path style="fill:#7B4147;" d="M18.3453999,5.7028131c0.0474949,0.0106101,0.0949898,0.0212197,0.1424847,0.0318298
		c-0.5000076,0.4369822-0.8383236,1.0636067-1.5157166,1.2922487C17.391243,6.5452366,17.635622,5.8826733,18.3453999,5.7028131z"/>
	<path style="fill:#7B4147;" d="M41.2066498,35.3982353c-0.0997314-0.0012245-0.1994591-0.002449-0.2991104-0.0039253
		c0.006794-0.4026947,0.3801804-0.5825996,0.5145226-0.9417381C41.9802589,34.9666901,41.8546982,35.2530365,41.2066498,35.3982353z
		"/>
	<path style="fill:#7B4147;" d="M33.5138474,5.697845c-0.1058922-0.174458-0.1690941-0.3583465-0.1252174-0.566186
		c0.2864723-0.2117906,0.5535431-0.3214579,0.7111473,0.1366968C33.9521294,5.4765477,33.8387909,5.7314858,33.5138474,5.697845z"/>
	<path style="fill:#7B4147;" d="M36.6278839,12.4366493c0.0870781-0.2259588-0.045578-0.5720472,0.3454437-0.6320305
		c0.1368256,0.3082399-0.1254921,0.5137625-0.1980667,0.7682171C36.7261467,12.5274525,36.6770134,12.4820509,36.6278839,12.4366493
		z"/>
	<path style="fill:#7B4147;" d="M36.9800797,9.1378317c-0.0417137-0.0559206-0.0834274-0.1118422-0.1250038-0.1676788
		C36.9525261,8.9846125,36.9801292,9.0509224,36.9800797,9.1378317z"/>
	<path style="fill:#2E2820;" d="M35.1128082,24.0544205c0.7781219-0.1320133,1.5032578,0.4072037,2.2887001,0.1808853
		c-0.1810036,0.2730255-0.3917656,0.5128536-0.7050591,0.6386642c-0.2271233-0.0548496-0.4789162-0.1997757-0.5948372,0.1596947
		c-0.8608017,0.1634712-1.7216072,0.3269424-2.5819473,0.490593c-0.2329369-0.3732243-0.5495911-0.5831242-1.0085182-0.5136414
		c-0.9184532-0.455513-1.9621449-0.4753952-2.9081383-0.8359604c0.1841984-0.2524128,0.4492302-0.1452522,0.6873226-0.151741
		c0.6883202-0.018755,1.371767,0.0768795,2.0533848-0.2096634c0.4623032-0.1943455,0.9619865,0.0096302,1.4367256,0.1887341
		C34.2036018,24.1616325,34.652153,24.5274696,35.1128082,24.0544205z"/>
	<path style="fill:#BF2032;" d="M25.082859,34.9996758c-0.0186844-0.4658699,0.3878441-0.7251129,0.5383339-1.1085739
		c0.7353306-0.5198135,1.6156082-0.7024841,2.4285316-1.0414543c0.4530621,0.4634132,0.7494164-0.2897873,1.1610355-0.1496544
		c0.0525417,0.369545,0.0699234,0.7327003,0.6021614,0.7613373c0.6285591,0.0338173,0.3908463-0.4688377,0.4293499-0.7119064
		c0.0860939-0.5434914,0.4249725-0.7674522,0.8511906-0.6207466c1.0769901,0.3707085,1.5417995-0.5126915,2.3813725-0.9017334
		c-0.4464264-0.2109013-0.7290878,0.0990334-1.0143166-0.0614223c0.7861176-0.5621376,1.6755142-0.9193039,2.5586739-1.2891083
		c0.464119,0.9364738,0.6948547,1.8695545,0.2043915,2.8944645c-0.6786003,1.4180527-1.0393791,2.9831467-1.9763985,4.2832527
		c-0.1300888,0.0676575-0.1430817,0.1795578-0.1158524,0.3066521c-0.0111885,0.0486526-0.022377,0.0973129-0.0335655,0.1459694
		c-0.039959,0.0502434-0.0799141,0.1004868-0.119873,0.1507301l-0.0012398,0.0144196
		c-0.2911987-0.0225525-0.4360199,0.1215515-0.5357323,0.3918991c-0.1399345,0.3793945-0.1823349,0.9493141-0.8068676,0.2864113
		c-0.2407875-0.2555809-0.738205-0.4492302-1.2195606-0.4081612c-0.7647362,0.0652428-1.5381393-0.066555-2.301733,0.0762291
		C27.5327435,36.5803986,26.3566551,35.7409897,25.082859,34.9996758z"/>
	<path style="fill:#2E2820;" d="M33.0977669,37.506752c0.0111885-0.0486565,0.022377-0.0973167,0.0333595-0.1460152
		c0.1089058-0.0755501,0.1376686-0.1815262,0.1160583-0.3066063c0.9370193-1.300106,1.2977982-2.8652,1.9763985-4.2832527
		c0.4904633-1.02491,0.2597275-1.9579906-0.2043915-2.8944645c-0.0730629-0.8445644-0.5604324-1.6094513-0.4659843-2.4885674
		c0.0660667-0.614975,0.4598694-1.07271,0.73423-1.5856972c0.0972061-0.1817513,0.3054352-0.2235165,0.5160828-0.1060047
		c0.1469116,0.0819588,0.1469231,0.1723614,0.0596619,0.2919426c-0.7674217,1.0516987-0.2460251,2.1206303-0.0421638,3.1857529
		c0.0407219,2.1206398-0.2290421,4.1914711-0.9043694,6.2117081c-0.3371696,1.0086403-1.2156677,1.6862869-1.5477524,2.6862106
		c-0.0453529,0.0983276-0.0909996,0.1965866-0.1366463,0.2948494c0,0-0.0135994-0.0004044-0.0139008-0.0005379
		c-0.2939987,0.0323677-0.3600464,0.3317375-0.5584145,0.4759941l-0.0205421-0.0257492
		c-0.0418816-0.4270401,0.2346497-0.7603378,0.337162-1.1446571c0.0000992,0.0002441,0.001339-0.0141754,0.001339-0.0141754
		C33.0176048,37.6071205,33.057682,37.5569344,33.0977669,37.506752z"/>
	<path style="fill:#2E2820;" d="M31.760191,27.620985c0.7451-0.1102581,0.5703373,0.5526352,0.6705379,0.8898754
		c0.1278725,0.4303913-0.3843231,0.5164452-0.6409588,0.6621151c-0.2963982,0.1682377-0.6767597,0.1614742-1.0128574,0.3280277
		c-0.2206573,0.1093521-0.5895386,0.0436134-0.7813282-0.2851639c-0.1832676-0.3141651-0.2479038-0.6684818-0.1367245-0.9721642
		c0.1117764-0.3053131,0.4773579-0.1408768,0.7257767-0.1450329c0.1848755-0.0030937,0.3796139,0.3149395,0.5541172-0.0111599
		c0.0651913-0.1218262,0.1470032-0.311758,0.0973835-0.4040394c-0.1701031-0.3163395-0.4367771-0.0212688-0.6596756-0.0554543
		c-0.0487556-0.0074749-0.0968914-0.0189686-0.1451035-0.0284882c0.1575966-0.1391106,0.3323612-0.2695179,0.2657585-0.5225506
		c0.1509151-0.0753632,0.3307343,0.1240463,0.4711971-0.0494385C31.4386444,27.1524868,31.3182793,27.6672382,31.760191,27.620985z"
		/>
	<path style="fill:#2E2820;" d="M32.4605179,31.1655216c0.2852287,0.1604557,0.5678902-0.1494789,1.0143166,0.0614223
		c-0.8395729,0.3890419-1.3043823,1.2724419-2.3813725,0.9017334c-0.426218-0.1467056-0.7650967,0.0772552-0.8511906,0.6207466
		c-0.0385036,0.2430687,0.1992092,0.7457237-0.4293499,0.7119064c-0.532238-0.0286369-0.5496197-0.3917923-0.6020107-0.7610664
		c0.2001743-0.1149101,0.1219997-0.308033,0.1335983-0.4760094C30.3285236,31.7104855,31.3976936,31.4473457,32.4605179,31.1655216z
		"/>
	<path style="fill:#2E2820;" d="M29.8262806,26.8888073c-0.583128,0.2654858-0.6447563,0.9023304-0.9609356,1.3619461
		c-0.5458851-0.9391575-0.074625-2.3704758,0.9406357-2.6106834c0.393877-0.0931911,0.9189739,0.0498333,1.2671223,0.4004726
		c0.0722427,0.0727596,0.1056328,0.2356548,0.0826721,0.3407917c-0.0499172,0.2285709-0.2395782,0.0720921-0.3668442,0.0934639
		c-0.3596611,0.0604038-0.8179321-0.1065273-0.9724178,0.4241199C29.816473,26.8988953,29.8262806,26.8888073,29.8262806,26.8888073
		z"/>
	<path style="fill:#7B4147;" d="M29.3445091,32.2242584c-0.0115986,0.1679726,0.066576,0.3610954-0.1335983,0.4760056
		c-0.4117699-0.1404037-0.7081242,0.6127968-1.1611862,0.1493835
		C28.4814873,32.6410599,28.9129982,32.4326591,29.3445091,32.2242584z"/>
	<path style="fill:#7B4147;" d="M30.6971169,27.0769501c0.0666027,0.2530327-0.1081619,0.38344-0.2657585,0.5225506
		c-0.3119831-0.1432533-0.6810379-0.2376194-0.6051121-0.7107239c0,0-0.0097733,0.0101185-0.0097332,0.0101414
		C30.110075,26.9582787,30.4035969,27.0176163,30.6971169,27.0769501z"/>
	<path style="fill:#7B4147;" d="M32.5111465,25.0106163c0.4589272-0.0694828,0.7755814,0.1404171,1.0085182,0.5136414
		C33.0701752,25.5747948,32.7270432,25.4176025,32.5111465,25.0106163z"/>
	<path style="fill:#7B4147;" d="M31.760191,27.620985c-0.4419117,0.0462532-0.3215466-0.4684982-0.591877-0.5934734
		C31.7437801,26.8619347,31.7437801,26.8619347,31.760191,27.620985z"/>
	<path style="fill:#7B4147;" d="M24.2754307,34.2220192c0.2124176,0.2720261,0.3699455,0.5363693-0.0996552,0.7125511
		C23.9990406,34.6674652,23.8472385,34.4042206,24.2754307,34.2220192z"/>
	<path style="fill:#7B4147;" d="M36.1016121,25.0336647c0.115921-0.3594704,0.3677139-0.2145443,0.5948372-0.1596947
		C36.5790291,25.2304211,36.3373566,25.1209698,36.1016121,25.0336647z"/>
	<path style="fill:#7B4147;" d="M33.2322502,38.3666077c0.0456467-0.0982628,0.0912933-0.1965218,0.1366463-0.2948494
		C33.4006042,38.2058105,33.3913498,38.3208504,33.2322502,38.3666077z"/>
	<path style="fill:#BF2032;" d="M25.9186707,5.7240591c0.2339764-0.2790303,0.5568905-0.1494985,0.8435898-0.1838093
		c-0.1302147,0.814229,0.0930061,1.5936608,0.5814133,2.1833692c1.264658,1.5269599,2.8201313,2.6203399,4.8959999,2.7364469
		c0.0291481,0.75811-0.0433922,1.5037374-0.2715034,2.2304497c-0.0259762,0.0292206-0.0537834,0.0565796-0.0829659,0.0814047
		c-1.1445484,0.1082001-2.2538071,0.5209084-3.4255638,0.4024582c-0.1066723-0.4593143-0.0199261-0.911767,0.016201-1.3718538
		c0.0622215-0.7925196-0.3375854-1.4722548-0.6439514-2.1691141c0.1564541-0.7894487-0.4239254-0.852293-0.935585-0.9928713
		c0.1445541,0.3892689,0.1557083,0.8345737,0.5549278,1.0665245c0.0142155,0.1165581,0.0284328,0.2331152,0.0420685,0.3491879
		c-0.0648537,0.3894291-0.1522236,0.7876339,0.3493557,0.9744434c0.0094414,0.0751333,0.0188847,0.1502676,0.0282974,0.2249928
		c-0.017334,0.0085974-0.0346355,0.0176039-0.051939,0.0266104c0.0257511,0.0195246,0.0515041,0.0390482,0.0772552,0.0585718
		l0.0145531,0.0215435c-0.0050297,0.2548819-0.0097523,0.5097446-0.0144787,0.7646074l-0.0012512,0.0050573
		c-0.2359619-0.0029745-0.3210163,0.1103029-0.2594051,0.3365593c-0.0168934,0.0824461-0.0337887,0.1648941-0.0507011,0.247323
		c-0.1634998,0.012454-0.3269806,0.0249243-0.4904613,0.0373955c-0.0389194-0.0150251-0.0774536-0.0309782-0.1155224-0.0477495
		c0.0052242-0.1293144-0.0233612-0.236021-0.1750202-0.2598104c-0.0405617-0.0098801-0.0805206-0.0217905-0.119833-0.0356693
		c0.0032043-0.1271048-0.0238953-0.2350969-0.1697178-0.2678652l-0.008934-0.0036955
		c0.1185074-0.5167551-0.1107655-1.0014524-0.1378307-1.5047131c0.0434151-0.557209,0.0868301-1.114418,0.1306782-1.6712894
		c0.2275486-0.1998482-0.0088367-0.2003708-0.1111336-0.2586555c-0.0998154-0.3957014-0.1996288-0.7914038-0.2994671-1.187448
		c0.3970642-0.4057527-0.1367588-0.9309635,0.1692238-1.3666544c0.0417671-0.0594745-0.2106953-0.1561332-0.354353-0.1834502
		C25.9079685,5.8855901,25.9133186,5.8048248,25.9186707,5.7240591z"/>
	<path style="fill:#7B4147;" d="M32.8188782,12.4299946c0.9173889-0.1465788,1.8744125,0.1175451,2.7725677-0.2875109
		c0.1827087-0.0823994,0.4591942-0.0675993,0.4986725,0.2607107c-0.3615494,0.162796-0.6084557,0.7626553-1.1347313,0.2975178
		c-0.2063255,0.2995281-0.5185204,0.4050064-0.842926,0.5438576C33.1610489,13.6517887,32.800293,13.4469299,32.8188782,12.4299946z
		"/>
	<path style="fill:#7B4147;" d="M28.4596405,13.1743784c1.1717567,0.1184502,2.2810154-0.2942581,3.4255638-0.4024582
		c-0.0113487,0.344698-0.2757874,0.3370705-0.5175667,0.4037323c-0.7449112,0.205389-1.4781189,0.4536695-2.2243214,0.6538038
		C28.5946236,13.9766169,28.443531,13.6481419,28.4596405,13.1743784z"/>
	<path style="fill:#7B4147;" d="M31.9681702,12.6905146c0.2281113-0.7267113,0.3006516-1.4723387,0.2715034-2.2304487
		c0.0858765-0.055254,0.1714478-0.1104288,0.2568436-0.1652479c0.2220688,0.0160084,0.2979469,0.2353973,0.4618378,0.3322754
		c0.1772575,0.4700699,0.3268738,0.9369831-0.1520996,1.332015C32.526886,12.2028322,32.2475281,12.4466734,31.9681702,12.6905146z"
		/>
	<path style="fill:#7B4147;" d="M27.4512348,9.7070637c-0.3992214-0.2319508-0.4103756-0.6772556-0.5549297-1.0665245
		c0.5116596,0.1405783,1.0920391,0.2034225,0.935585,0.9928713C27.7047672,9.6581316,27.5780029,9.6825981,27.4512348,9.7070637z"/>
	<path style="fill:#7B4147;" d="M25.9026146,5.9663553c0.1436596,0.027317,0.396122,0.1239758,0.3543549,0.1834502
		c-0.3059826,0.4356909,0.2278404,0.9609017-0.1692238,1.3666544C25.9950333,7.0036907,25.497982,6.5388627,25.9026146,5.9663553z"
		/>
	<path style="fill:#7B4147;" d="M26.3676682,10.633853c0.0270653,0.5032606,0.2563381,0.987958,0.1378307,1.5047131
		C25.8707657,11.690897,26.1335735,11.1610622,26.3676682,10.633853z"/>
	<path style="fill:#7B4147;" d="M27.8426571,11.030695c-0.5015793-0.1868095-0.4142094-0.5850143-0.3493538-0.9744434
		C27.8653469,10.2900009,27.8979645,10.6446056,27.8426571,11.030695z"/>
	<path style="fill:#7B4147;" d="M27.0945263,12.753356c0.1634808-0.0124712,0.3269615-0.0249414,0.4904613-0.0373955
		c-0.1168556,0.1648655-0.0843849,0.4968023-0.3046513,0.4995852C27.0460186,13.218504,27.1586456,12.9139366,27.0945263,12.753356z
		"/>
	<path style="fill:#7B4147;" d="M27.8963451,12.1270208c0.0047264-0.2548628,0.009449-0.5097256,0.0144787-0.7646074
		C28.29175,11.6247244,28.2708206,11.8792906,27.8963451,12.1270208z"/>
	<path style="fill:#7B4147;" d="M27.6356888,12.4686375c-0.0616112-0.2262564,0.0234432-0.3395338,0.2594051-0.3365593
		C27.8890762,12.3063135,27.7909584,12.4095144,27.6356888,12.4686375z"/>
	<path style="fill:#7B4147;" d="M26.3872128,8.703908c0.1022968,0.0582848,0.3386822,0.0588074,0.1111336,0.2586555
		C26.3860855,8.9082298,26.3730984,8.8118753,26.3872128,8.703908z"/>
	<path style="fill:#7B4147;" d="M26.8039837,12.445796c0.151659,0.0237894,0.1802444,0.130496,0.1750202,0.2598104
		C26.9206085,12.6189308,26.8622952,12.5323639,26.8039837,12.445796z"/>
	<path style="fill:#7B4147;" d="M26.5144329,12.1422615c0.1458225,0.0327682,0.1729221,0.1407604,0.1697178,0.2678652
		C26.5597153,12.3637772,26.5270977,12.2593403,26.5144329,12.1422615z"/>
	<path style="fill:#7B4147;" d="M27.8962708,11.3408699c-0.0257511-0.0195236-0.0515041-0.0390472-0.0772552-0.0585718
		c0.0173035-0.0090065,0.034605-0.018013,0.051939-0.0266104C27.8872166,11.2820263,27.895647,11.3102846,27.8962708,11.3408699z"/>
	<path style="fill:#E0C502;" d="M25.082859,34.9996758c1.2737961,0.7413139,2.4498844,1.5807228,3.0299034,3.0186043
		c-0.0023613,0.1968346-0.0043163,0.3932533-0.006649,0.5892525c-0.1734085,0.1481247-0.3464432,0.2966728-0.5194988,0.4447403
		c-0.1788692-0.2408829-0.2647629-0.5534668-0.5512314-0.7102966c-0.0158501-0.0942001-0.031702-0.1883926-0.0474529-0.2822647
		c-0.0093517-0.0815201-0.0490685-0.1219902-0.1353798-0.0987396c-0.1528225-0.0553932-0.305645-0.1107864-0.4584694-0.1661797
		l0.0094109,0.0107498c0.0650616-0.397789-0.2902203-0.4111366-0.5068645-0.5094185
		c-0.2307739-0.1046906-0.5007935-0.1237679-0.6352882-0.3834c0.028101-0.0499458,0.0562019-0.0998917,0.0843029-0.1498413
		c0.2253838,0.1117249,0.5383606,0.3772621,0.6875629,0.1346054c0.1777878-0.2891502-0.1601982-0.5259476-0.4105015-0.6749039
		C25.1431808,35.9372101,24.8170204,35.6047668,25.082859,34.9996758z"/>
	<path style="fill:#2E2820;" d="M37.0420227,39.9454308c-1.1775208,0.3997307-2.1108246,1.0705757-3.4774857,0.6865501
		C34.8809204,40.8069916,35.6683311,39.5296364,37.0420227,39.9454308z"/>
	<path style="fill:#FDFDFD;" d="M30.1110859,41.0560989c-0.8637657,0.0828896-1.7032623-0.0401917-2.5271931-0.2978134
		c0.0086689-0.1152534,0.0764561-0.190155,0.185915-0.1801834C28.5675335,40.6507797,29.3703918,40.7028046,30.1110859,41.0560989z"
		/>
	<path style="fill:#2E2820;" d="M31.1899757,40.6717148c-0.1909523,0.0275955-0.159277-0.114727-0.1595821-0.2232971
		c-0.0007687-0.2731285,0.230114-0.2769241,0.4047699-0.3182259c0.1735649-0.0410423,0.1790104,0.1006241,0.1757813,0.2232285
		C31.603611,40.6318779,31.3427181,40.5760117,31.1899757,40.6717148z"/>
	<path style="fill:#2E2820;" d="M32.888443,40.5010605c0.0325203,0.0260887,0.0798416,0.0640564,0.1271667,0.1020241
		c-0.0501099,0.0342484-0.0964661,0.0827217-0.1517601,0.0972977c-0.0320587,0.0084457-0.1025696-0.0290909-0.1138382-0.0608215
		C32.7187271,40.5514641,32.7847786,40.5195007,32.888443,40.5010605z"/>
	<path style="fill:#2E2820;" d="M30.4089203,41.0641327c0.0972042-0.1221352,0.1836185-0.2648544,0.3877048-0.2053261
		c-0.0220013,0.2389336-0.2231274,0.1891556-0.357996,0.2390785C30.4389038,41.0981979,30.4089203,41.0641327,30.4089203,41.0641327
		z"/>
	<path style="fill:#2E2820;" d="M32.6599312,38.8420639c-0.0558586,0.039196-0.1112328,0.0791893-0.1692085,0.1149597
		c-0.0025787,0.0015907-0.0288696-0.0352364-0.044117-0.0541725c0.0643883-0.0286827,0.1287766-0.0573654,0.1929741-0.0862885
		L32.6599312,38.8420639z"/>
	<path style="fill:#FDFDFD;" d="M27.4393768,40.6922188c-0.0953121-0.067379-0.1906242-0.134758-0.2858982-0.2023621
		C27.3155479,40.4629822,27.4672661,40.450882,27.4393768,40.6922188z"/>
	<path style="fill:#7B4147;" d="M27.0353832,38.3419762c0.2864685,0.1568298,0.3723621,0.4694138,0.5512314,0.7102966
		c-0.0212593,0.2743874-0.330307,0.2634239-0.4460545,0.4615746c-0.5476017,0.937439-0.5998325,0.709301-1.2622795,0.0715103
		c-0.3904896-0.3759537-0.1038933-0.4827156,0.2074966-0.5767021c0.1138229-0.0343513,0.2486687-0.0281219,0.3685837-0.0082283
		C27.0073853,39.0921745,27.1402321,38.8246994,27.0353832,38.3419762z"/>
	<path style="fill:#7B4147;" d="M25.2613392,36.9127235c-0.2002239,0.0551071-0.3957729,0.273201-0.6038589,0.0456696
		c-0.0471802-0.05159-0.045681-0.2413788-0.0118752-0.2583122c0.238821-0.1196098,0.4929543-0.220417,0.7001648,0.0639305
		C25.3175411,36.8128319,25.2894402,36.8627777,25.2613392,36.9127235z"/>
	<path style="fill:#E0C502;" d="M26.3940811,37.7947922c-0.133316,0.13517-0.2830429,0.1601601-0.5853672,0.0104332
		c0.2872601,0,0.4408379,0,0.594595,0.0001564L26.3940811,37.7947922z"/>
	<path style="fill:#7B4147;" d="M25.4570847,38.9981613c-0.0317802,0.0309181-0.0599728,0.0823402-0.0917702,0.084671
		c-0.0860748,0.0063171-0.1343307-0.0502586-0.1066837-0.1329536c0.0094509-0.0282669,0.0807781-0.0565453,0.116497-0.0491905
		C25.4072666,38.9073067,25.4293537,38.9627228,25.4570847,38.9981613z"/>
	<path style="fill:#7B4147;" d="M26.8525505,37.960968c0.0863113-0.0232468,0.1260281,0.0172234,0.1353798,0.0987434
		C26.9427376,38.026577,26.897644,37.9937744,26.8525505,37.960968z"/>
	<path style="fill:#2E2820;" d="M32.9583549,10.6270933c-0.1638908-0.0968781-0.239769-0.316267-0.4618378-0.3322754
		c0.0024261-0.1333952,0.0046806-0.2664347,0.0068932-0.3996525c-0.0350876-0.4840307-0.0665512-0.9682331-0.1137314-1.4508991
		c-0.0029602-0.0302706-0.1288338-0.0485258-0.197525-0.0723705c0.2665253-0.2315388,0.2028656-0.5113382,0.1112061-0.7916007
		c-0.1449127-0.4431-0.2948265-0.8845649-0.442337-1.3261585c0.028759-0.0184546,0.0462112-0.0447774,0.0526485-0.0784044
		c0.5323849,0.0714655,0.44771,0.4993958,0.4774342,0.8688269c0.1904526-0.0731211,0.3462753-0.2296453,0.5538864-0.1217833
		c0.0410995,0.145268,0.0822449,0.2902756,0.1234474,0.435132c0.0172348,0.7920537,0.03442,1.5842576,0.0516014,2.3764615
		C33.0661469,10.0319433,33.012249,10.3295183,32.9583549,10.6270933z"/>
	<path style="fill:#E0C502;" d="M33.1200409,9.7343693c-0.0171814-0.7922039-0.0343666-1.5844078-0.0516014-2.3764615
		C33.5763016,7.9271507,33.600914,9.0594187,33.1200409,9.7343693z"/>
	<path style="fill:#2E2820;" d="M23.4008636,38.9278145c-0.6303558-0.1664391-1.4993286,0.0269318-1.6402607-1.0783615
		C22.387743,38.1840286,22.8408413,38.640213,23.4008636,38.9278145z"/>
	<path style="fill:#7B4147;" d="M32.1921539,8.3718958c0.0686913,0.0238447,0.1945648,0.0421,0.197525,0.0723705
		c0.0471802,0.482666,0.0786438,0.9668684,0.1137314,1.4508991c-0.567049,0.159668-1.0258751-0.2613335-1.5445499-0.2950382
		c-0.7790184-0.0506229-0.4551716-0.8527145-0.8952312-1.157095C30.8040314,8.5444279,31.5193367,8.965766,32.1921539,8.3718958z"/>
	<path style="fill:#7B4147;" d="M29.9344215,6.4086766c0.0236607,0.0073047,0.0468788,0.0168386,0.071043,0.0215802
		c0.363884,0.0714207,0.9392948-0.0580473,0.9539852,0.4445853c0.014761,0.5050774-0.5573063,0.1886263-0.8476048,0.309968
		c-0.2618408,0.1094475-0.6274872,0.0198879-0.5013504,0.5087333c0.0573845,0.2223892-0.1029434,0.4379711-0.2920837,0.4449501
		c-0.2224255,0.0082064-0.3824062-0.2164469-0.4547176-0.4272728C28.7134018,7.2730169,29.4658279,6.3717661,29.9344215,6.4086766z"
		/>
	<path style="fill:#7B4147;" d="M30.8197002,8.2159004c-0.2099762,0.0089884-0.4320126-0.0695295-0.591217-0.2888494
		c-0.1018066-0.1402469-0.0253582-0.2705512,0.0952244-0.281714c0.5058861-0.0468292,1.0147133-0.0689578,1.5226555-0.0724769
		c0.0390739-0.0002704,0.0879841,0.21205,0.1176128,0.3292751c0.048521,0.1919808-0.0967464,0.1813397-0.2175198,0.196075
		C31.4544678,8.1338329,31.1628075,8.1721344,30.8197002,8.2159004z"/>
	<path style="fill:#BF2032;" d="M30.8163929,5.3578844c0.298275-0.1677232,0.4988384-0.1455712,0.5027332,0.2580104
		C31.0772114,5.6746402,30.8855419,5.6359491,30.8163929,5.3578844z"/>
	<path style="fill:#BF2032;" d="M31.4199867,5.6976948c0.0573101,0.0287585,0.1146221,0.0575166,0.171608,0.0857935
		C31.5059738,5.8111863,31.4067955,5.8672423,31.4199867,5.6976948z"/>
	<path style="fill:#BF2032;" d="M31.9136715,6.1757321c-0.0064373,0.033627-0.0238895,0.0599499-0.0526485,0.0784044
		c-0.0002918-0.0005627-0.047224-0.0289435-0.047224-0.0289435l0.0161419-0.0544066
		C31.858387,6.1661081,31.8862114,6.1676226,31.9136715,6.1757321z"/>
	<path style="fill:#BF2032;" d="M31.6840134,5.8640804c0.0302124,0.0190582,0.0529537,0.0448661,0.0680504,0.0769753
		C31.6869411,5.9526358,31.6524639,5.9376397,31.6840134,5.8640804z"/>
	<path style="fill:#7B4147;" d="M33.2471848,37.0541306c0.0216103,0.1250801-0.0071526,0.2310562-0.1160583,0.3066063
		C33.1041031,37.2336884,33.1170959,37.121788,33.2471848,37.0541306z"/>
	<path style="fill:#7B4147;" d="M33.0977631,37.506752c-0.040081,0.0501823-0.0801582,0.1003685-0.1200485,0.1506424
		C33.0178528,37.6072388,33.0578079,37.5569954,33.0977631,37.506752z"/>
</g>
</svg>
