<?xml version="1.0" encoding="utf-8"?>
<!-- Generator: Adobe Illustrator 21.1.0, SVG Export Plug-In . SVG Version: 6.00 Build 0)  -->
<svg version="1.1" id="Слой_1" xmlns="http://www.w3.org/2000/svg" xmlns:xlink="http://www.w3.org/1999/xlink" x="0px" y="0px"
	 viewBox="0 0 25 25" style="enable-background:new 0 0 25 25;" xml:space="preserve">
<g>
	<path style="fill:#F86B00;" d="M20.1726589,23.1991482c-0.1936169,0.0258198-0.4013424,0.006155-0.6079407,0.017519
		c-0.4410343,0.0242653-0.8821583,0.0071907-1.3231945,0.010231c-0.5894508,0.0040627-1.1791592,0.0116043-1.7683773-0.0006714
		c-0.9687939-0.0201797-1.9375954-0.0165997-2.9062014-0.0083523c-2.6002932,0.0221367-5.2005796,0.0041866-7.8008575,0.0074272
		c-0.2795477,0.0003471-0.559823-0.0039711-0.8396211-0.0110092c-0.3959537-0.009964-0.7810874-0.0765781-1.1468053-0.2366638
		c-0.2576003-0.1127586-0.4997132-0.2519169-0.7193458-0.4272461c-0.2876635-0.2296391-0.5354877-0.4966755-0.7320979-0.8092365
		c-0.2154534-0.3425179-0.365865-0.7098427-0.4277871-1.1118622c-0.0328084-0.2130089-0.0423403-0.427248-0.054785-0.6420269
		c-0.0181484-0.3132153-0.0138613-0.6263828-0.007075-0.9389668c0.0062695-0.2887802,0.0001949-0.5777493,0.0118346-0.8661098
		c0.0137877-0.3415699-0.0049412-0.682518-0.0039937-1.0237885c0.0041248-1.4858255,0.0125104-2.9717779-0.0021693-4.4574709
		c-0.0121685-1.2315407-0.0136555-2.4630489-0.0047694-3.6943789c0.0060354-0.8362989-0.0035651-1.672688,0.0122842-2.5087552
		c0.0056839-0.2998333-0.0033095-0.6000171,0.0123559-0.899199c0.0117377-0.2241688-0.0012821-0.4495173,0.0257998-0.6723347
		C1.940815,4.5074511,2.0657947,4.1117725,2.2751429,3.7434158C2.4097772,3.5065212,2.5703402,3.2888951,2.764431,3.0991471
		c0.3943202-0.3854976,0.8589337-0.6526275,1.3901291-0.8047576c0.256413-0.0734346,0.5163364-0.1149206,0.7827373-0.1310766
		c0.3477077-0.0210865,0.695785-0.0350134,1.0432086-0.0211635C6.2253547,2.1519105,6.4700027,2.141,6.7142568,2.152828
		c0.562408,0.0272346,1.1251812,0.0175822,1.6874051,0.0094314c1.467721-0.0212786,2.9355202,0.0061269,4.4030752-0.0128055
		c1.578124-0.0203588,3.1562176-0.0108175,4.7342472-0.006187c0.6220188,0.0018253,1.244381-0.0030758,1.866251,0.0119951
		c0.2114925,0.0051255,0.4229717,0.0045867,0.6343861,0.0099764c0.6823101,0.0173936,1.28932,0.2435246,1.8284397,0.6587756
		c0.3501434,0.2696929,0.628149,0.600147,0.8405666,0.9872541c0.1729641,0.3152068,0.2856522,0.6497333,0.3360195,1.0058868
		c0.032938,0.232913,0.0493393,0.4665418,0.0533409,0.701776c0.0029583,0.1738729,0.0172615,0.3476009,0.0117931,0.5217004
		c-0.0115623,0.3681159-0.0106239,0.736383-0.0161495,1.1045327c-0.001976,0.1317115-0.011673,0.2640781-0.0085621,0.3959465
		c0.0275402,1.1673656-0.0001526,2.3349195,0.0129375,3.5022883c0.0263271,2.3485727,0.0039883,4.6971989,0.0115147,7.0457869
		c0.0006866,0.2141495,0.0079575,0.4286079-0.000885,0.6423855c-0.0154171,0.3726616-0.0009346,0.7456455-0.0154285,1.1177731
		c-0.0084686,0.2174759,0.0055809,0.4359856-0.0230427,0.652626c-0.0363503,0.2751408-0.1041298,0.5414658-0.2128124,0.7979202
		c-0.0865612,0.2042522-0.1972904,0.3946438-0.3215656,0.5766144c-0.0692406,0.1013889-0.1542645,0.192564-0.2318573,0.2883091
		c-0.0606098,0.0747929-0.1255112,0.1483784-0.1956635,0.2085514c-0.0872326,0.0748272-0.1763515,0.1499805-0.2684612,0.2204552
		c-0.2679958,0.2050438-0.5628796,0.3590717-0.8803139,0.4684639c-0.1927757,0.0664291-0.3914356,0.1133137-0.596714,0.1270638
		C20.3037586,23.1932983,20.2452755,23.2057037,20.1726589,23.1991482z M15.3969383,20.1176586
		c0.093358,0.002615,0.1851912-0.0079994,0.2753649-0.0300255c0.6343584-0.1549377,1.0525694-0.7670383,0.7817831-1.455143
		c-0.1011372-0.2570076-0.2641087-0.4718342-0.4575987-0.6649132c-0.5422468-0.5411015-1.0854921-1.0811977-1.6283331-1.6217003
		c-0.0782185-0.0778809-0.1548252-0.1574745-0.2352161-0.2330418c-0.0392284-0.0368748-0.0322323-0.0524426,0.0153284-0.0672817
		c0.0460043-0.0143585,0.089879-0.0354843,0.1357851-0.0502234c0.4851828-0.1557913,0.9686918-0.3161221,1.426569-0.5432873
		c0.252553-0.1252985,0.5072384-0.2475872,0.7161732-0.4438095c0.2227898-0.2092352,0.3721523-0.4585905,0.3998451-0.7669458
		c0.0260983-0.2906113-0.0712032-0.5447226-0.2529755-0.7702131c-0.3214722-0.3987885-0.7191553-0.5195503-1.206275-0.3640223
		c-0.1982298,0.0632906-0.3788738,0.1638098-0.5612173,0.2611513c-0.6166639,0.3291979-1.2719812,0.530242-1.9697409,0.5853777
		c-0.319582,0.0252542-0.638752,0.013566-0.9577742-0.0214148c-0.4923239-0.0539827-0.9595127-0.1914005-1.4034281-0.4088182
		c-0.2290888-0.1122017-0.4544048-0.2321367-0.6839533-0.3433628c-0.2765856-0.1340179-0.5628777-0.1764193-0.8641539-0.0853872
		c-0.7267456,0.2195892-1.03369,1.122283-0.5838833,1.7249365c0.1053991,0.1412172,0.2379112,0.2541609,0.3818159,0.3540764
		c0.3574772,0.2482042,0.7561979,0.4110241,1.1630259,0.5554428c0.2894888,0.1027651,0.5819349,0.197175,0.8720264,0.2982807
		c0.1023159,0.0356598,0.1009245,0.0396862,0.0265379,0.1138554c-0.6190529,0.6172523-1.237978,1.2346344-1.8572655,1.8516521
		c-0.1477842,0.1472435-0.2756357,0.3090286-0.3717728,0.4950409c-0.11096,0.2146854-0.1654587,0.4429264-0.1351376,0.6826687
		c0.0782375,0.6185989,0.6662121,1.0246544,1.2765837,0.9394894c0.2923479-0.0407906,0.5355883-0.1829491,0.7367716-0.3952103
		c0.2718649-0.2868328,0.5472946-0.5701294,0.8270102-0.8492489c0.3687334-0.3679523,0.7318525-0.7418556,1.12537-1.0839729
		c0.1016235-0.0883503,0.0747652-0.083128,0.178153-0.0042133c0.216445,0.1652088,0.4074869,0.359024,0.5941,0.5560226
		c0.4448223,0.4695797,0.9107027,0.9185886,1.3520117,1.391592C14.7505131,19.9801464,15.0445347,20.1169758,15.3969383,20.1176586z
		 M8.5985956,9.0214014C8.598959,9.2987385,8.6268167,9.5699968,8.6834249,9.8380022
		c0.2099915,0.9941578,0.7289181,1.7895937,1.5531282,2.3810902c0.5916557,0.4246006,1.2565746,0.6485128,1.9842777,0.6920519
		c0.4014444,0.0240192,0.7970629-0.0082827,1.1862621-0.1040869c0.8075743-0.1987934,1.4854679-0.6169109,2.0240412-1.2479696
		c0.7845755-0.9193048,1.0632296-1.9836702,0.850934-3.1704531c-0.126791-0.7087731-0.439189-1.3361392-0.9201546-1.8714981
		c-0.9010353-1.0029306-2.0249901-1.4301257-3.3657379-1.2613606c-0.4814873,0.060607-0.9396429,0.2092566-1.3637514,0.446661
		C9.3348207,6.428802,8.646739,7.5305157,8.5985956,9.0214014z"/>
	<path style="fill:#FDFDFD;" d="M15.3969383,20.1176586c-0.3524036-0.0006828-0.6464252-0.1375122-0.88447-0.3926487
		c-0.441309-0.4730034-0.9071894-0.9220123-1.3520117-1.391592c-0.1866131-0.1969986-0.377655-0.3908138-0.5941-0.5560226
		c-0.1033878-0.0789146-0.0765295-0.084137-0.178153,0.0042133c-0.3935175,0.3421173-0.7566366,0.7160206-1.12537,1.0839729
		c-0.2797155,0.2791195-0.5551453,0.5624161-0.8270102,0.8492489c-0.2011833,0.2122612-0.4444237,0.3544197-0.7367716,0.3952103
		c-0.6103716,0.085165-1.1983461-0.3208904-1.2765837-0.9394894c-0.0303211-0.2397423,0.0241776-0.4679832,0.1351376-0.6826687
		c0.096137-0.1860123,0.2239885-0.3477974,0.3717728-0.4950409c0.6192875-0.6170177,1.2382126-1.2343998,1.8572655-1.8516521
		c0.0743866-0.0741692,0.075778-0.0781956-0.0265379-0.1138554c-0.2900915-0.1011057-0.5825377-0.1955156-0.8720264-0.2982807
		c-0.4068279-0.1444187-0.8055487-0.3072386-1.1630259-0.5554428c-0.1439047-0.0999155-0.2764168-0.2128592-0.3818159-0.3540764
		c-0.4498067-0.6026535-0.1428623-1.5053473,0.5838833-1.7249365c0.3012762-0.091032,0.5875683-0.0486307,0.8641539,0.0853872
		c0.2295485,0.1112261,0.4548645,0.2311611,0.6839533,0.3433628c0.4439154,0.2174177,0.9111042,0.3548355,1.4034281,0.4088182
		c0.3190222,0.0349808,0.6381922,0.046669,0.9577742,0.0214148c0.6977596-0.0551357,1.3530769-0.2561798,1.9697409-0.5853777
		c0.1823435-0.0973415,0.3629875-0.1978607,0.5612173-0.2611513c0.4871197-0.1555281,0.8848028-0.0347662,1.206275,0.3640223
		c0.1817722,0.2254906,0.2790737,0.4796019,0.2529755,0.7702131c-0.0276928,0.3083553-0.1770554,0.5577106-0.3998451,0.7669458
		c-0.2089348,0.1962223-0.4636202,0.318511-0.7161732,0.4438095c-0.4578772,0.2271652-0.9413862,0.387496-1.426569,0.5432873
		c-0.0459061,0.014739-0.0897808,0.0358648-0.1357851,0.0502234c-0.0475607,0.0148392-0.0545568,0.030407-0.0153284,0.0672817
		c0.0803909,0.0755672,0.1569977,0.1551609,0.2352161,0.2330418c0.542841,0.5405025,1.0860863,1.0805988,1.6283331,1.6217003
		c0.19349,0.193079,0.3564615,0.4079056,0.4575987,0.6649132c0.2707863,0.6881046-0.1474247,1.3002052-0.7817831,1.455143
		C15.5821295,20.1096592,15.4902964,20.1202736,15.3969383,20.1176586z"/>
	<path style="fill:#FDFDFD;" d="M8.5985956,9.0214014C8.646739,7.5305157,9.3348207,6.428802,10.6324244,5.7024369
		c0.4241085-0.2374043,0.8822641-0.386054,1.3637514-0.446661c1.3407478-0.1687651,2.4647026,0.25843,3.3657379,1.2613606
		c0.4809656,0.5353589,0.7933636,1.162725,0.9201546,1.8714981c0.2122955,1.1867828-0.0663586,2.2511482-0.850934,3.1704531
		c-0.5385733,0.6310587-1.2164669,1.0491762-2.0240412,1.2479696c-0.3891993,0.0958042-0.7848177,0.1281061-1.1862621,0.1040869
		c-0.7277031-0.043539-1.392622-0.2674513-1.9842777-0.6920519C9.412343,11.6275959,8.8934164,10.83216,8.6834249,9.8380022
		C8.6268167,9.5699968,8.598959,9.2987385,8.5985956,9.0214014z M12.4651651,10.6612186
		c0.8791599,0.0172548,1.6092749-0.7292242,1.609231-1.5986757c-0.0000429-0.8380098-0.7292814-1.594945-1.5524111-1.5780997
		c-0.9063702,0.0185485-1.6384382,0.6062922-1.6370487,1.5619102C10.886158,9.8869982,11.5026798,10.6692142,12.4651651,10.6612186z
		"/>
	<path style="fill:#F86B00;" d="M12.4651651,10.6612186c-0.9624853,0.0079956-1.5790071-0.7742205-1.5802288-1.6148653
		c-0.0013895-0.9556179,0.7306786-1.5433617,1.6370487-1.5619102c0.8231297-0.0168452,1.5523682,0.7400899,1.5524111,1.5780997
		C14.07444,9.9319944,13.3443251,10.6784735,12.4651651,10.6612186z"/>
</g>
</svg>
