<?xml version="1.0" encoding="utf-8"?>
<!-- Generator: Adobe Illustrator 21.1.0, SVG Export Plug-In . SVG Version: 6.00 Build 0)  -->
<svg version="1.1" id="Слой_1" xmlns="http://www.w3.org/2000/svg" xmlns:xlink="http://www.w3.org/1999/xlink" x="0px" y="0px"
	 viewBox="0 0 25 25" style="enable-background:new 0 0 25 25;" xml:space="preserve">
<g>
	<path style="fill:#BB2A2A;" d="M24.3704643,19.5247097c-7.8489361-0.0000134-15.6978703-0.0004673-23.5468044,0.0033436
		c-0.1453558,0.0000706-0.1940388-0.0279064-0.1850542-0.1816082c0.0149727-0.2561417,0.0089841-0.5139389,0.0016267-0.7707462
		c-0.0028629-0.099926,0.0298815-0.133625,0.1241879-0.1191826c0.0193174,0.0029564,0.0394757,0.0004215,0.0592464,0.0004215
		c7.8489332,0.0000057,15.6978655,0.0000114,23.5467968,0.0000191
		C24.3704643,18.8128757,24.3704643,19.1687927,24.3704643,19.5247097z"/>
	<path style="fill:#BB2A2A;" d="M24.3704643,17.389204c-0.0494041,0.0007782-0.0988102,0.0022411-0.1482143,0.0022411
		c-7.8000164,0.0001011-15.6000309-0.0003929-23.4000435,0.0037575c-0.1493428,0.0000801-0.1913994-0.0340843-0.1833298-0.183815
		c0.0138127-0.2562885,0.0072253-0.5139351,0.0019074-0.7708588c-0.0017785-0.0859203,0.0265725-0.116354,0.1094136-0.1068935
		c0.0390342,0.0044594,0.0790005,0.0007534,0.1185443,0.0007534c7.7654147,0,15.5308275,0.000042,23.2962418-0.0006657
		c0.068428-0.0000076,0.1383114,0.0130692,0.2054806-0.0122719C24.3704643,16.6773682,24.3704643,17.0332851,24.3704643,17.389204z"
		/>
	<path style="fill:#BB2A2A;" d="M24.3704643,15.2536974c-0.0542259,0.0018597-0.1084557,0.0053492-0.1626835,0.0053511
		c-7.7940006,0.0002413-15.5880041-0.0001602-23.3820038,0.0032883c-0.1417416,0.0000639-0.1980209-0.0222721-0.1873522-0.1803217
		c0.0162733-0.2410746,0.01275-0.4844742,0.0008574-0.7260618c-0.0064083-0.1301775,0.0389915-0.1676168,0.1571776-0.1478853
		c0.0192332,0.0032101,0.0394631,0.0004511,0.0592323,0.0004511c7.7742333,0,15.5484667-0.0000172,23.3226986,0.0002928
		c0.0640259,0.0000029,0.1280499,0.0044308,0.1920738,0.0067921C24.3704643,14.561635,24.3704643,14.9076662,24.3704643,15.2536974z
		"/>
	<path style="fill:#BB2A2A;" d="M11.4722567,5.6784277c0.0591984-0.0016003,0.1183968-0.0045981,0.1775951-0.0046015
		c4.2402039-0.0002346,8.4804087-0.0002322,12.7206125-0.0002489c0,0.3559179,0,0.7118354,0,1.0677533
		c-0.9582882,0.0000081-1.9165745-0.0000739-2.8748627,0.000041c-3.3391838,0.0003991-6.6783676,0.0008655-10.0175915,0.0013323
		C11.4760656,6.3879619,11.4741611,6.0331945,11.4722567,5.6784277z"/>
	<path style="fill:#BB2A2A;" d="M24.3704643,7.8090839c0,0.3559179,0,0.7118359,0,1.0677538
		c-0.0592499-0.0007982-0.1185036-0.0022936-0.1777534-0.0022945c-3.3738861-0.0001116-6.7477722-0.0002289-10.1216583-0.0000105
		C13.2065964,8.874588,12.3421412,8.8757391,11.4776459,8.87642c0.0001154-0.3562317,0.0002718-0.7124968,0.0004272-1.0687613
		c0.06915,0.0004358,0.138299,0.0012517,0.207449,0.0012531C15.9138374,7.8090115,20.1421509,7.8090444,24.3704643,7.8090839z"/>
	<path style="fill:#FEFDFD;" d="M11.4776859,8.8763876c0.8644552-0.0006485,1.7289104-0.0017996,2.5933666-0.0018549
		c3.3738861-0.0002184,6.7477722-0.0001011,10.1216583,0.0000105c0.0592499,0.000001,0.1185036,0.0014963,0.1777534,0.0022945
		c0,0.355917,0,0.7118349,0,1.0677528c-1.1657448-0.0004053-2.3314915-0.0009804-3.4972382-0.0011835
		c-3.1317196-0.0005474-6.2634382-0.0009375-9.3951969-0.0014143C11.47789,9.5867748,11.477788,9.2315807,11.4776859,8.8763876z"/>
	<path style="fill:#FEFDFD;" d="M24.3704643,11.0123434c0,0.3559179,0,0.7118359,0,1.0677538
		c-0.4692116-0.0011396-0.9384251-0.0031891-1.4076385-0.0032768c-3.8282108-0.0007153-7.6564188-0.0010653-11.4846287-0.0015268
		c-0.0003424-0.3553171-0.0006847-0.7106342-0.0010262-1.0659513c0.0444365-0.0010214,0.088872-0.0029383,0.1333084-0.0029402
		c4.2090292-0.0001364,8.4180584-0.000145,12.6270866,0.0001249C24.2818661,11.0065298,24.3261662,11.0103207,24.3704643,11.0123434
		z"/>
	<path style="fill:#FEFDFD;" d="M24.3704643,7.8090839c-4.2283134-0.0000396-8.4566269-0.0000725-12.6849422-0.0001721
		c-0.06915-0.0000014-0.138299-0.0008173-0.20749-0.0012779c-0.000021-0.3550019-0.000001-0.7099786,0.0000181-1.0649552
		c3.3391838-0.0004416,6.6783676-0.0009079,10.0175514-0.001307c0.9582882-0.0001149,1.9165745-0.0000329,2.8748627-0.000041
		C24.3704643,7.0972486,24.3704643,7.453166,24.3704643,7.8090839z"/>
	<path style="fill:#BB2A2A;" d="M24.3704643,11.0123434c-0.0442982-0.0020227-0.0885983-0.0058136-0.1328983-0.0058165
		c-4.2090282-0.0002699-8.4180574-0.0002613-12.6270866-0.0001249c-0.0444365,0.0000019-0.088872,0.0019188-0.1333475,0.002986
		c0.0002861-0.3557606,0.0006113-0.711565,0.0009356-1.0673704c3.1317205,0.000452,6.2634392,0.0008421,9.3951588,0.0013895
		c1.1657467,0.0002031,2.3314934,0.0007782,3.4972382,0.0011835C24.3704643,10.3005085,24.3704643,10.6564264,24.3704643,11.0123434
		z"/>
	<path style="fill:#BB2A2A;" d="M11.4781961,12.0752935c3.8282108,0.0004616,7.6564188,0.0008116,11.4846296,0.0015268
		c0.4692135,0.0000877,0.938427,0.0021372,1.4076385,0.0032768c0,0.3460312,0,0.6920624,0,1.0380936
		c-0.0439968,0.0035791-0.0879917,0.0102854-0.1319904,0.0102911c-4.2462502,0.0006485-8.4924984,0.0007877-12.7387486,0.0008564
		c-0.0098495,0-0.0196972-0.0015402-0.0295362-0.0023699C11.4728661,12.7764063,11.4755316,12.425849,11.4781961,12.0752935z"/>
	<path style="fill:#403F60;" d="M11.4781961,12.0752935c-0.0026646,0.3505554-0.0053301,0.7011127-0.008007,1.0516748
		c-0.0516243,0.0259676-0.1069088,0.0127363-0.1602478,0.0127487C7.8109794,13.1404562,4.3120174,13.13978,0.8130584,13.1428223
		c-0.1262063,0.0001097-0.1745892-0.0192537-0.174268-0.1640739c0.0052946-2.3869915,0.0045299-4.7740002,0.0013604-7.1609993
		C0.640002,5.7057447,0.6628196,5.6704602,0.782917,5.6705837c3.5236683,0.003623,7.0473409,0.0029192,10.5710125,0.0031385
		c0.0394268,0.0000029,0.0788536,0.0030684,0.1183033,0.004705c0.0019283,0.3547673,0.0038328,0.7095346,0.0057774,1.0642767
		c0.000021,0.3549514,0.000001,0.709928,0.0000229,1.06493c-0.0001154,0.3562894-0.0002718,0.7125545-0.0003872,1.0687861
		c0.0001421,0.3551607,0.0002441,0.7103548,0.0003834,1.0655727c-0.0002861,0.3558302-0.0006113,0.7116346-0.0008974,1.0673952
		C11.4775124,11.3646593,11.4778547,11.7199764,11.4781961,12.0752935z M8.3821106,12.1670895
		c0.139492-0.0999727,0.2787924-0.1291342,0.4176626,0.0011301c0.003871,0.0062685,0.0077429,0.012537,0.0116148,0.0188065
		c0.0015659-0.0054989,0.0031328-0.0109978,0.0046988-0.0164967c-0.0062599,0.0003681-0.0125198,0.0007362-0.0187798,0.0011044
		c-0.0593452-0.1726656-0.0216436-0.3104391,0.1537142-0.41539c-0.2061291,0.0498009-0.3240929-0.0289392-0.3602715-0.2546692
		c-0.0114431,0.2477455-0.1599674,0.2824593-0.369132,0.2499199c0.2062073,0.1796618,0.2061815,0.179656,0.1615286,0.4030685
		c-0.0009193,0.0046005,0.0009089,0.0097513,0.0014858,0.0146847c-0.0016022,0.0037651-0.0032043,0.0075312-0.0048075,0.0112963
		C8.3805866,12.1760588,8.3813486,12.1715746,8.3821106,12.1670895z M3.1664038,8.4348135
		c0.1339364-0.1272936,0.2697153-0.1310701,0.4226317,0.0146751C3.4477098,8.240344,3.5657461,8.1293316,3.7331562,8.0331039
		C3.6212232,8.0046768,3.5252347,8.0551157,3.4592118,7.998898C3.3972995,7.9461803,3.4185486,7.8388314,3.3368607,7.753582
		c0.0156989,0.2510738-0.1281354,0.2998533-0.3620098,0.2589531c0.0585949,0.0476027,0.0752673,0.0671034,0.096422,0.0773525
		c0.1237216,0.0599356,0.1590028,0.1475163,0.0922415,0.272007C3.1546459,8.3784313,3.1556509,8.4002628,3.1521928,8.4197369
		C3.1494923,8.4302311,3.1419382,8.4480162,3.1449075,8.4499931C3.1600637,8.4600801,3.1632729,8.4461403,3.1664038,8.4348135z
		 M8.7997837,10.9225225c0.0037022,0.0064507,0.0074062,0.0129032,0.0111084,0.0193539
		c0.0018282-0.0055161,0.0036564-0.0110321,0.0054855-0.0165472c-0.0063391,0.0001411-0.0126781,0.0002832-0.0190163,0.0004253
		c-0.0658579-0.1751213-0.0119076-0.3072424,0.1568108-0.420742c-0.2183018,0.0691233-0.3211136-0.0319061-0.3645086-0.2476101
		c-0.0095358,0.25105-0.1626568,0.2797594-0.359498,0.2667379c0.2132635,0.0880871,0.2193079,0.231369,0.1542559,0.3992043
		c-0.003191,0.001852-0.0068293,0.0032511-0.0093699,0.0057611c-0.0011549,0.0011396-0.0001345,0.0044813-0.0001011,0.0068235
		c0.0022764-0.0048981,0.0045528-0.0097971,0.0068302-0.0146952C8.5214186,10.8233967,8.6608458,10.7934713,8.7997837,10.9225225z
		 M10.1328592,12.1679745c0.1449528-0.1283684,0.2857399-0.112546,0.4371777,0.0162697
		c-0.116787-0.1849823-0.0660248-0.3208733,0.1308393-0.4239988c-0.2227621,0.0485487-0.3285923-0.0452328-0.3707809-0.2626858
		c-0.0018101,0.2643347-0.1598139,0.2822361-0.3553791,0.2675819c0.1942081,0.0878277,0.2317743,0.2197475,0.1561384,0.3923817
		c-0.0014343,0.0032721,0.0029316,0.0090837,0.0045834,0.0136862c-0.0069199,0.0016041-0.0138388,0.0032063-0.0207586,0.0048103
		c0.00175,0.0040884,0.0034981,0.0081787,0.0052481,0.0122671C10.124238,12.1815157,10.1285486,12.1747446,10.1328592,12.1679745z
		 M1.4128739,12.1679745c0.1348693-0.1016636,0.2685946-0.1466045,0.3994983,0.0067682
		c0.0038342,0.0044937,0.0160537,0.0018291,0.0448089,0.0041609c-0.1333644-0.1846981-0.0611145-0.3146238,0.1213977-0.4211578
		c-0.2248631,0.0542459-0.3248732-0.0418034-0.3443537-0.2682819c-0.117028,0.2494211-0.117028,0.2494211-0.4066619,0.2836514
		c0.2462252,0.0750456,0.2362494,0.2298107,0.1878901,0.3980923c-0.0069232,0.0016155-0.0138465,0.003232-0.0207698,0.0048475
		c0.0017551,0.0040903,0.0035104,0.0081797,0.0052654,0.0122709C1.4042572,12.1815414,1.4085655,12.174758,1.4128739,12.1679745z
		 M5.7758689,11.5781364c0.134006-0.1181431,0.2697845-0.1319323,0.4237528,0.0138102
		c-0.147727-0.2094288-0.0154448-0.3153334,0.142487-0.4146757c-0.1128707-0.0256758-0.2082276,0.0234623-0.2740793-0.0343647
		c-0.0601211-0.0527945-0.0389442-0.1585617-0.1220055-0.2422638c0.0182781,0.2539482-0.1299334,0.2961903-0.3571482,0.2588596
		c0.0554385,0.0465145,0.0717735,0.0665426,0.0928597,0.0768709c0.1221361,0.0598135,0.1596155,0.1460943,0.0924115,0.2705374
		c-0.0088344,0.0163584-0.0074568,0.0382309-0.0106897,0.0576677c-0.0029678,0.0100203-0.0104494,0.0274811-0.0081735,0.028862
		C5.770741,11.6028214,5.7732038,11.5893717,5.7758689,11.5781364z M10.5511608,9.6759434
		c0.0009327,0.0063496,0.0018663,0.0127001,0.002799,0.0190496c0.0036831-0.0012922,0.0073671-0.0025854,0.0110502-0.0038776
		c-0.0056963-0.0042343-0.0113916-0.0084696-0.017087-0.0127039c-0.0643654-0.1695204-0.0472832-0.313364,0.1518469-0.4088879
		c-0.2213926,0.0480433-0.3281698-0.0381498-0.3433714-0.2680178c-0.1234426,0.2500906-0.1234426,0.2500906-0.3914146,0.2850523
		c0.2306023,0.0706892,0.2386942,0.221981,0.1605253,0.4168253C10.2677345,9.5351677,10.3951054,9.552433,10.52458,9.68048
		C10.5283079,9.6841669,10.542098,9.6776781,10.5511608,9.6759434z M1.8311907,9.6759186
		C1.8338634,9.6816568,1.836536,9.6873932,1.8392088,9.6931314c0.0005211-0.0031452,0.0025014-0.0081158,0.0012864-0.0090866
		C1.8370187,9.6812696,1.8322456,9.6801195,1.8279824,9.6783304C1.7631047,9.508646,1.7814124,9.3651485,2.0135355,9.2739305
		C1.7386466,9.2594862,1.7386466,9.2594862,1.5999776,9.0052328C1.5947522,9.2501354,1.4621201,9.3036613,1.2274153,9.2512026
		c0.1027634,0.0846109,0.1860338,0.1250401,0.2231561,0.1913176c0.040488,0.0722876-0.0599431,0.1549444-0.0297846,0.2695808
		c0.1269317-0.1769075,0.2543038-0.1597424,0.3838373-0.0315781C1.808336,9.6841955,1.8221332,9.6776762,1.8311907,9.6759186z
		 M1.8313415,8.430212c0.0005486,0.0062771,0.001097,0.0125542,0.0016453,0.0188303
		C1.8367777,8.448103,1.8405687,8.4471626,1.8443598,8.4462233C1.838915,8.441679,1.8334702,8.4371347,1.8280256,8.4325905
		C1.7616932,8.2626238,1.7837809,8.1203814,1.9791708,8.0236969C1.7571232,8.0733156,1.6522273,7.9845624,1.617879,7.7663264
		C1.5956887,8.0067139,1.461,8.0573454,1.2544179,8.0277443c0.1976248,0.0933981,0.2457472,0.2298832,0.1495665,0.4310999
		c0.1443943-0.1693287,0.2717602-0.150239,0.4011366-0.0232668C1.8086846,8.4390764,1.8224013,8.4322281,1.8313415,8.430212z
		 M10.5513182,8.4302235c0.0005989,0.006382,0.0011969,0.0127621,0.0017967,0.0191431
		c0.0038671-0.0010023,0.0077343-0.0020056,0.0116024-0.0030088c-0.005578-0.0045729-0.0111561-0.0091448-0.0167351-0.0137167
		c-0.0662575-0.1699448-0.0446377-0.312314,0.1512423-0.4088793c-0.2221842,0.0496616-0.327013-0.0394397-0.3616877-0.2573495
		c-0.0216789,0.2407184-0.1567516,0.2906499-0.3631182,0.2613358c0.1975527,0.0934076,0.245842,0.2298632,0.1495008,0.4310064
		c0.1444139-0.1692019,0.2717695-0.1505613,0.4011602-0.0231905C10.5286369,8.4390659,10.5423708,8.4322319,10.5513182,8.4302235z
		 M10.551527,7.1844907c0.0001383,0.0063143,0.0002766,0.0126281,0.0004158,0.0189419
		c0.0039387-0.0005846,0.0078793-0.0011687,0.0118179-0.0017529c-0.0052166-0.0049677-0.0104351-0.0099354-0.0156527-0.0149035
		c-0.0698442-0.1706762-0.043623-0.3108354,0.1523914-0.407444c-0.2268133,0.0538955-0.3249884-0.0516748-0.3688612-0.2557549
		c-0.0099745,0.2510977-0.1615944,0.2802744-0.3659182,0.2667379c0.2390938,0.0846624,0.239027,0.2362399,0.151824,0.4352374
		c0.1408215-0.1813893,0.2723856-0.1690478,0.4084501-0.0343709C10.5291853,7.1943398,10.5428133,7.1869521,10.551527,7.1844907z
		 M1.831573,7.1844726c0.0000691,0.0062299,0.0001383,0.0124607,0.0002073,0.0186906
		c0.0038812-0.0005026,0.0077624-0.0010056,0.0116438-0.0015082C1.8383423,7.1966696,1.8332603,7.1916852,1.8281784,7.1867003
		C1.758393,7.0160894,1.7846822,6.875998,1.9804974,6.7793617c-0.2266109,0.053731-0.3248385-0.0515614-0.3684702-0.255806
		C1.6010926,6.7737632,1.4505988,6.804369,1.2529296,6.7872114c0.2080634,0.0958447,0.2452528,0.2345943,0.1428025,0.431118
		C1.5392159,7.0656734,1.6698264,7.045341,1.8061405,7.1912637C1.8089678,7.1942902,1.8228803,7.1869617,1.831573,7.1844726z
		 M3.8689895,8.6831102C4.0704546,8.782896,4.1127605,8.9208307,4.0022902,9.1177406
		C4.1561542,8.9586258,4.2995634,8.9432058,4.458457,9.1153669C4.3298025,8.9129925,4.4116096,8.7866297,4.5867863,8.6785755
		C4.3614202,8.733428,4.2644882,8.6338892,4.227623,8.4234219C4.2001495,8.6510754,4.0857329,8.7234287,3.8689895,8.6831102z
		 M9.8103418,7.4336553C9.5912304,7.485323,9.4909668,7.3863149,9.464488,7.1697979
		C9.4344101,7.3840017,9.3281784,7.4850373,9.0983105,7.4237084c0.0671396,0.1008182,0.1777773,0.1133718,0.2000742,0.1953931
		C9.3192282,7.6957808,9.2376108,7.769177,9.2505703,7.8580604C9.4548206,7.7362466,9.4548206,7.7362466,9.6774282,7.85706
		C9.6314182,7.6105442,9.6314182,7.6105442,9.8103418,7.4336553z M4.2480392,7.1669803
		C4.1235795,7.4159288,4.1235795,7.4159288,3.8230665,7.4516416c0.2665255,0.079186,0.2779849,0.2271833,0.1809337,0.4203176
		c0.1539216-0.1599727,0.2949405-0.1677294,0.4506321-0.0002775C4.3444171,7.6762738,4.3955112,7.540853,4.5894513,7.4373631
		C4.3684525,7.4824848,4.2607703,7.397552,4.2480392,7.1669803z M2.1238923,7.4402328
		c0.1970494,0.0950904,0.2406974,0.2291932,0.1335995,0.41154C2.3697362,7.8294077,2.4151225,7.7165785,2.5000622,7.736959
		c0.0719023,0.017252,0.1325514,0.0814052,0.1981807,0.1248016C2.5817108,7.663125,2.6722386,7.5397978,2.8477447,7.4334788
		c-0.2235396,0.0488558-0.330354-0.0344291-0.3583832-0.2567663C2.4551938,7.3887982,2.3487985,7.4835658,2.1238923,7.4402328z
		 M9.6844139,9.1163044C9.5786352,8.9231253,9.6250086,8.7843752,9.8272352,8.6819639
		c-0.2306948,0.043272-0.3399448-0.0443411-0.3613186-0.2673998c-0.032732,0.2118444-0.1358719,0.3169174-0.3705521,0.2717667
		C9.3126926,8.7812643,9.3316011,8.924531,9.2397747,9.1149826C9.3907242,8.9594212,9.527297,8.9400024,9.6844139,9.1163044z
		 M4.4546242,11.5904932c-0.1047716-0.1822643-0.0641685-0.3167858,0.1380997-0.4157171
		c-0.2176418,0.0374126-0.3348694-0.040638-0.3672309-0.262311c-0.0147386,0.2478247-0.1596646,0.2854795-0.3777323,0.2454405
		c0.096194,0.0823298,0.1886368,0.125227,0.2126732,0.1925478c0.0225301,0.0631027-0.0273395,0.1520538-0.0478506,0.240406
		C4.2346992,11.4663143,4.2346992,11.4663143,4.4546242,11.5904932z M5.7524934,7.8845949
		c0.1449366-0.1591401,0.2853761-0.1966062,0.4426761-0.0140095C6.0926976,7.6743035,6.1442513,7.5373464,6.3362932,7.428658
		C6.0891566,7.5109119,6.0236368,7.3580346,5.9633284,7.1805677C5.9536958,7.4187889,5.8122854,7.463593,5.5965466,7.4255033
		C5.8073673,7.6078334,5.8073673,7.6078334,5.7524934,7.8845949z M9.2378387,10.3598614
		c0.156085-0.1662693,0.2989988-0.1595745,0.454299,0.0253305c-0.0291548-0.1227207-0.0714121-0.2057829-0.0607891-0.2814178
		c0.0115938-0.08255,0.1440744-0.0869808,0.1782856-0.1785545C9.5610809,9.9172678,9.5610809,9.9172678,9.4536657,9.6440916
		c-0.0205078,0.22824-0.1232805,0.3325701-0.3577137,0.2869959C9.3083849,10.0274315,9.3366795,10.1669521,9.2378387,10.3598614z
		 M4.2284484,9.6729984c-0.0151687,0.2460384-0.1658697,0.2769079-0.371788,0.2642145
		c0.2393994,0.07652,0.2328596,0.228898,0.1586528,0.4273024c0.1538086-0.2126799,0.2930727-0.1251011,0.4410462-0.0103855
		c-0.1085501-0.1929922-0.0614491-0.32516,0.1349468-0.4249525C4.3759851,9.9661942,4.2585478,9.8958378,4.2284484,9.6729984z
		 M6.6272697,7.2173953c0.1560326-0.1719208,0.2989402-0.1619911,0.4632068,0.0020328
		C6.9220572,7.0032177,7.0569997,6.8907108,7.2135768,6.7765074c-0.2299376,0.0522513-0.3330541-0.042954-0.3595519-0.2621517
		C6.8236127,6.7301846,6.715786,6.8289342,6.48493,6.7847371C6.6901417,6.8844256,6.7318397,7.0206647,6.6272697,7.2173953z
		 M2.4866891,8.4255219C2.4666665,8.6598845,2.3286743,8.7106867,2.123132,8.6895552
		c0.2042432,0.0913925,0.2431316,0.2237816,0.1438124,0.4204626c0.1599491-0.1812096,0.2993391-0.1353884,0.4490018,0.0050621
		c-0.129308-0.201992-0.0510941-0.329874,0.1341953-0.4337826C2.6365187,8.7167997,2.5121968,8.6573973,2.4866891,8.4255219z
		 M7.714788,8.4177713C7.6954355,8.6433172,7.5748153,8.7224331,7.34582,8.6685095
		c0.0796876,0.0987167,0.1943693,0.1151361,0.2054753,0.1978483c0.010006,0.0745192-0.0344415,0.1563511-0.054872,0.2349577
		C7.6429162,8.9209099,7.7875299,8.9752264,7.948288,9.107789C7.8115835,8.9048986,7.9065256,8.786171,8.0796185,8.6802845
		C7.8451452,8.7354317,7.7546034,8.6200695,7.714788,8.4177713z M4.7505822,6.796267
		C4.9475675,6.8861756,4.9901619,7.0214672,4.879642,7.219101c0.1552148-0.1685553,0.2977161-0.1719265,0.4553947-0.001513
		C5.2144737,7.0150361,5.282897,6.8833909,5.471931,6.7787929C5.2362795,6.8343034,5.1433458,6.719389,5.1137075,6.5013251
		C5.0108685,6.7635355,5.0108685,6.7635355,4.7505822,6.796267z M7.7147164,7.1723948
		C7.6953773,7.397532,7.5759215,7.4781861,7.3509779,7.4247279c0.0732861,0.0991187,0.1894412,0.1137567,0.200459,0.1966844
		c0.0098805,0.0743651-0.0344481,0.1559329-0.0574112,0.2441115c0.223094-0.1322265,0.223094-0.1322265,0.4690194,0.002048
		C7.8017612,7.6657763,7.9042473,7.544795,8.0788717,7.4353256C7.8435335,7.4914994,7.7548094,7.3738399,7.7147164,7.1723948z
		 M9.105689,11.1886082c0.212389,0.0815248,0.2189674,0.2281237,0.1357641,0.4170189
		c0.1562958-0.1787834,0.2965183-0.1490059,0.4486771,0.0025568c-0.1053247-0.1934538-0.07236-0.3352327,0.1393166-0.434968
		c-0.2301331,0.0441513-0.3388748-0.04772-0.3538952-0.2759848C9.3526525,11.1548586,9.3526525,11.1548586,9.105689,11.1886082z
		 M8.0867796,9.9232845C7.8331432,9.9967957,7.7578225,9.857523,7.7130489,9.6603098
		C7.6961608,9.8877544,7.5769382,9.9686041,7.350502,9.9322748c0.2158661,0.0968695,0.2450027,0.2359934,0.1394773,0.4297686
		c0.1542149-0.1620674,0.2970934-0.169117,0.4559641-0.0037909C7.8273597,10.1587324,7.8882055,10.0297031,8.0867796,9.9232845z
		 M5.9842272,9.6481361C5.9243073,9.7557411,5.9384995,9.8672218,5.868536,9.9061985
		c-0.0637784,0.035532-0.1579566,0.0164948-0.2387357,0.0215092c0.193213,0.0997086,0.2210536,0.2431526,0.116899,0.4364805
		c0.147943-0.1543474,0.287643-0.1754036,0.4611011-0.0117035c-0.1695843-0.2162638-0.0203309-0.3178835,0.1211228-0.43048
		C6.0958586,9.9838276,6.010776,9.8667717,5.9842272,9.6481361z M5.9711809,8.4205875
		C5.9563408,8.651454,5.8260355,8.7174292,5.5996675,8.6918812c0.2564192,0.0863686,0.2289901,0.2432203,0.1477108,0.4260731
		C5.8939371,8.9732647,6.033287,8.9329576,6.1976666,9.1084919c-0.1297169-0.2056246-0.0317664-0.3231363,0.134027-0.4285431
		C6.1054268,8.7304554,6.0059538,8.6340218,5.9711809,8.4205875z M8.0781384,11.1722374
		c-0.2425885,0.0587416-0.3243895-0.0676012-0.3631625-0.2690191c-0.021472,0.2225294-0.1330895,0.3136749-0.3717041,0.2751398
		c0.2522902,0.0819044,0.225039,0.2427673,0.1565013,0.4353943c0.1506696-0.211731,0.2907691-0.1434565,0.4457021-0.0117884
		C7.8319411,11.4066677,7.8828115,11.2741385,8.0781384,11.1722374z M2.2454638,10.3417454
		c0.1259806-0.0213833,0.1699138-0.1375103,0.255146-0.1159668c0.0720196,0.0182037,0.132122,0.0835524,0.197499,0.1280355
		C2.5826042,10.154809,2.6707685,10.0300245,2.877784,9.9255199C2.5856345,9.9184752,2.5856345,9.9184752,2.4723749,9.6587
		C2.4690361,9.8984632,2.3411674,9.9632921,2.1254613,9.9304228C2.303673,10.0283442,2.3859715,10.1456251,2.2454638,10.3417454z
		 M8.3801489,7.2081366c0.1642256-0.1916971,0.297904-0.1218166,0.4439726,0.0102782
		C8.7037125,7.0189695,8.7686749,6.883153,8.9599876,6.7771091c-0.2204514,0.0495291-0.330739-0.0343909-0.3714809-0.2601576
		C8.5839977,6.7745929,8.4293251,6.801568,8.23279,6.7879934C8.4201183,6.8841238,8.4887257,7.0059342,8.3801489,7.2081366z
		 M2.8523247,11.1724844c-0.2149589,0.0357056-0.3386009-0.030098-0.3653748-0.2614794
		c-0.0248251,0.2291546-0.151525,0.2956705-0.3688197,0.2682409c0.2162735,0.0865803,0.2446606,0.2226601,0.1367717,0.4039707
		c0.1122713-0.0163975,0.1600287-0.1303091,0.2376289-0.1150608c0.0747991,0.014699,0.1386261,0.085228,0.2072735,0.1312284
		C2.5981755,11.4100018,2.649303,11.2734556,2.8523247,11.1724844z M8.3784714,9.6971197
		C8.5402355,9.505374,8.6780872,9.5744066,8.8255787,9.7047625C8.701829,9.5042267,8.7681313,9.3726044,8.9603901,9.2699194
		C8.746026,9.3096504,8.6251106,9.2406139,8.5951366,9.0106192c-0.0220156,0.2345695-0.1537895,0.2928495-0.361948,0.2651834
		C8.4193039,9.3712063,8.4903612,9.4919147,8.3784714,9.6971197z M5.105917,7.7628002
		C5.0851212,7.9863911,4.9663463,8.0677099,4.7399874,8.0309086c0.2210679,0.0937386,0.235096,0.2406511,0.1247854,0.4407349
		c0.235723-0.150548,0.235723-0.150548,0.4886761-0.0037518c-0.1227512-0.1998949-0.0882478-0.3418674,0.1193519-0.441823
		C5.243866,8.0719614,5.1409588,7.9758992,5.105917,7.7628002z M5.466938,9.2718506
		C5.2290683,9.3273916,5.1408134,9.210577,5.1073508,9.0028648C5.0786061,9.2175789,4.9749579,9.318491,4.7411532,9.2724791
		c0.2140393,0.0993042,0.2397799,0.2438402,0.1403503,0.4453135C5.03304,9.5157814,5.1766558,9.5565643,5.3422685,9.7055798
		C5.2017274,9.4995441,5.2794352,9.3760471,5.466938,9.2718506z M2.9958487,6.7835379
		c0.2096903,0.1005464,0.2483985,0.241488,0.138958,0.4386139c0.1498935-0.166698,0.2922595-0.1780248,0.4393849-0.0022297
		c0.0104964-0.1145425-0.077956-0.1892152-0.0427973-0.2677398c0.0320489-0.0715799,0.1354232-0.0885606,0.1966994-0.1893015
		C3.4965711,6.8314195,3.3976336,6.7224727,3.354671,6.5192585C3.3392894,6.7518353,3.212698,6.8148179,2.9958487,6.7835379z
		 M8.356616,8.4528885c0.2425251-0.1208019,0.2425251-0.1208019,0.502039,0.0225468
		C8.7037926,8.2645655,8.7574024,8.1289854,8.9611712,8.0274439C8.7508984,8.059268,8.6213198,8.0012932,8.5992346,7.7659173
		c-0.0331459,0.2175956-0.1457815,0.3030334-0.3652,0.2614636C8.4223804,8.126008,8.4828615,8.2551689,8.356616,8.4528885z
		 M2.9972515,11.7634678c0.2142169,0.0980082,0.2405145,0.2418985,0.1377819,0.434185
		c0.1480238-0.14785,0.2877595-0.1857462,0.4526923-0.0086956c-0.1275156-0.2077045-0.0359476-0.3263159,0.1420214-0.4366999
		c-0.2543988,0.090085-0.3179071-0.0698481-0.3762875-0.2514858C3.3392668,11.7335835,3.2114217,11.7948351,2.9972515,11.7634678z
		 M3.130765,9.7382793c0.1552999-0.182579,0.2946558-0.212038,0.4449594-0.0207033
		C3.5416963,9.4489708,3.5416963,9.4489708,3.7445736,9.2395687C3.4773529,9.3455906,3.409085,9.1935444,3.3556786,9.0053854
		C3.3436391,9.2391472,3.2175155,9.3095551,2.9852405,9.2565279C3.2032669,9.450469,3.2032669,9.450469,3.130765,9.7382793z
		 M7.2081423,8.0363808c-0.2600851-0.0211945-0.2600851-0.0211945-0.362956-0.2947369
		C6.820724,7.9680471,6.7224326,8.0784988,6.4858723,8.0274153c0.2100873,0.096983,0.2405691,0.239152,0.1453137,0.4345322
		c0.1544213-0.1803074,0.2964988-0.1516056,0.4573598-0.0010138C6.9463682,8.2552013,7.0229392,8.1315918,7.2081423,8.0363808z
		 M4.7574234,10.5122662c0.1785884,0.1779194,0.1785884,0.1779194,0.1308556,0.4519091
		c0.1453085-0.1762953,0.2882924-0.1831007,0.4492583-0.0178137c-0.1378045-0.2069626-0.0396171-0.3246822,0.1338468-0.4310608
		c-0.2333198,0.0518589-0.3318348-0.0568714-0.3669143-0.2668829C5.0791545,10.4672375,4.9763389,10.5640755,4.7574234,10.5122662z
		 M10.5677166,10.9479837c-0.1209126-0.1958885-0.0570421-0.3274899,0.132472-0.4325705
		c-0.2209311,0.0469952-0.3289728-0.0435877-0.3659945-0.2581415c-0.0174065,0.2438507-0.1552505,0.2898054-0.3596821,0.261322
		c0.1807928,0.0943413,0.2541361,0.2170267,0.1523018,0.4221849C10.2884121,10.7542171,10.4227753,10.8203783,10.5677166,10.9479837
		z M3.1385972,10.9500761c0.1481907-0.1664486,0.2886858-0.158823,0.4501524-0.0137959
		c-0.1290386-0.20502-0.0320277-0.3170853,0.1380904-0.4191837c-0.2326837,0.0520515-0.3299267-0.0610981-0.3703778-0.2680883
		c-0.0113988,0.2386761-0.1422954,0.3036652-0.3604214,0.2719584C3.2048671,10.6203108,3.2447019,10.7560568,3.1385972,10.9500761z
		 M6.6317959,9.7028465C6.7903242,9.519412,6.9292002,9.5611982,7.0794091,9.7299347
		C7.0529017,9.6117105,7.0095825,9.5238609,7.0222187,9.4449749c0.0124221-0.0775433,0.1380448-0.0895967,0.1876202-0.1931067
		C6.978467,9.321641,6.8822412,9.2185183,6.8540707,9.0044107C6.822351,9.2170143,6.7197428,9.3214989,6.479753,9.2759199
		C6.7132878,9.3641472,6.7214007,9.5097389,6.6317959,9.7028465z M1.3727165,10.9443483
		c0.2452301-0.125021,0.2452301-0.125021,0.5183145,0.019763c-0.1870337-0.2194328-0.0799881-0.339262,0.0898122-0.4565868
		c-0.2374249,0.0780153-0.3176866-0.0548162-0.3705623-0.2467575c-0.0079541,0.2520304-0.16309,0.2768297-0.3562329,0.2620125
		C1.4357612,10.6143446,1.5110443,10.7289143,1.3727165,10.9443483z M7.0813203,10.9523277
		c-0.1164751-0.1970196-0.0623493-0.333416,0.1356745-0.4369202c-0.2274194,0.0471077-0.3352833-0.0457859-0.3534784-0.2864532
		c-0.047945,0.1170979-0.0593214,0.2208166-0.1161685,0.2624521c-0.0572863,0.0419559-0.1597381,0.0222454-0.2424002,0.0295544
		c0.1831913,0.0976753,0.2311163,0.2270737,0.1227059,0.4259777C6.7897687,10.7673922,6.9302735,10.8036041,7.0813203,10.9523277z
		 M5.4677629,11.7656393c-0.2314324,0.0471992-0.3277531-0.0638399-0.3635359-0.272974
		c-0.0226073,0.2223091-0.1326346,0.3149147-0.363287,0.2717161c0.2154198,0.094595,0.2347083,0.2397146,0.1457949,0.4312372
		c0.1490717-0.1729374,0.2896018-0.1554356,0.4467134-0.0089731C5.2227912,11.9893513,5.2697473,11.8607941,5.4677629,11.7656393z
		 M7.0814266,12.1951056c-0.1150131-0.1965075-0.0634131-0.3324986,0.1387138-0.4400425
		c-0.2451553,0.0711422-0.3312278-0.0511484-0.3679843-0.2576408c-0.0326891,0.212698-0.1370182,0.3141451-0.3665948,0.2683611
		c0.2069659,0.0924063,0.2422891,0.2284918,0.146318,0.4255724C6.7923541,12.0065718,6.931541,12.0515471,7.0814266,12.1951056z"/>
	<path style="fill:#FEFDFD;" d="M3.8689895,8.6831102C4.0857329,8.7234287,4.2001495,8.6510754,4.227623,8.4234219
		C4.2644882,8.6338892,4.3614202,8.733428,4.5867863,8.6785755C4.4116096,8.7866297,4.3298025,8.9129925,4.458457,9.1153669
		C4.2995634,8.9432058,4.1561542,8.9586258,4.0022902,9.1177406C4.1127605,8.9208307,4.0704546,8.782896,3.8689895,8.6831102z"/>
	<path style="fill:#FEFDFD;" d="M9.8103418,7.4336553C9.6314182,7.6105442,9.6314182,7.6105442,9.6774282,7.85706
		C9.4548206,7.7362466,9.4548206,7.7362466,9.2505703,7.8580604C9.2376108,7.769177,9.3192282,7.6957808,9.2983847,7.6191015
		C9.2760878,7.5370803,9.1654501,7.5245266,9.0983105,7.4237084C9.3281784,7.4850373,9.4344101,7.3840017,9.464488,7.1697979
		C9.4909668,7.3863149,9.5912304,7.485323,9.8103418,7.4336553z"/>
	<path style="fill:#FEFDFD;" d="M4.2480392,7.1669803C4.2607703,7.397552,4.3684525,7.4824848,4.5894513,7.4373631
		C4.3955112,7.540853,4.3444171,7.6762738,4.4546323,7.8716817C4.2989407,7.7042298,4.1579218,7.7119865,4.0040002,7.8719592
		C4.1010513,7.6788249,4.089592,7.5308275,3.8230665,7.4516416C4.1235795,7.4159288,4.1235795,7.4159288,4.2480392,7.1669803z"/>
	<path style="fill:#FEFDFD;" d="M2.1238923,7.4402328c0.2249062,0.0433331,0.3313015-0.0514345,0.3654692-0.2635202
		c0.0280292,0.2223372,0.1348436,0.3056221,0.3583832,0.2567663C2.6722386,7.5397978,2.5817108,7.663125,2.6982429,7.8617606
		C2.6326137,7.8183641,2.5719645,7.7542109,2.5000622,7.736959c-0.0849397-0.0203805-0.130326,0.0924487-0.2425704,0.1148138
		C2.3645897,7.669426,2.3209417,7.5353231,2.1238923,7.4402328z"/>
	<path style="fill:#FEFDFD;" d="M9.6844139,9.1163044C9.527297,8.9400024,9.3907242,8.9594212,9.2397747,9.1149826
		C9.3316011,8.924531,9.3126926,8.7812643,9.0953646,8.6863308c0.2346802,0.0451508,0.3378201-0.0599222,0.3705521-0.2717667
		c0.0213737,0.2230587,0.1306238,0.3106718,0.3613186,0.2673998C9.6250086,8.7843752,9.5786352,8.9231253,9.6844139,9.1163044z"/>
	<path style="fill:#FEFDFD;" d="M4.4546242,11.5904932c-0.2199249-0.1241789-0.2199249-0.1241789-0.4420409,0.0003662
		c0.0205112-0.0883522,0.0703807-0.1773033,0.0478506-0.240406c-0.0240364-0.0673208-0.1164792-0.110218-0.2126732-0.1925478
		c0.2180676,0.0400391,0.3629937,0.0023842,0.3777323-0.2454405c0.0323615,0.221673,0.1495891,0.2997236,0.3672309,0.262311
		C4.3904557,11.2737074,4.3498526,11.4082289,4.4546242,11.5904932z"/>
	<path style="fill:#FEFDFD;" d="M5.7524934,7.8845949c0.0548739-0.2767615,0.0548739-0.2767615-0.1559467-0.4590917
		C5.8122854,7.463593,5.9536958,7.4187889,5.9633284,7.1805677C6.0236368,7.3580346,6.0891566,7.5109119,6.3362932,7.428658
		C6.1442513,7.5373464,6.0926976,7.6743035,6.1951694,7.8705854C6.0378695,7.6879888,5.8974299,7.7254548,5.7524934,7.8845949z"/>
	<path style="fill:#FEFDFD;" d="M9.2378387,10.3598614c0.0988407-0.1929092,0.0705462-0.3324299-0.1418867-0.4287739
		c0.2344332,0.0455742,0.3372059-0.0587559,0.3577137-0.2869959c0.1074152,0.2731762,0.1074152,0.2731762,0.3559685,0.2811279
		c-0.0342112,0.0915737-0.1666918,0.0960045-0.1782856,0.1785545c-0.010623,0.075635,0.0316343,0.1586971,0.0607891,0.2814178
		C9.5368376,10.2002869,9.3939238,10.1935921,9.2378387,10.3598614z"/>
	<path style="fill:#FEFDFD;" d="M4.2284484,9.6729984c0.0300994,0.2228394,0.1475368,0.2931957,0.3628578,0.2561789
		c-0.1963959,0.0997925-0.2434969,0.2319603-0.1349468,0.4249525c-0.1479735-0.1147156-0.2872376-0.2022943-0.4410462,0.0103855
		C4.08952,10.166111,4.0960598,10.0137329,3.8566604,9.9372129C4.0625787,9.9499063,4.2132797,9.9190369,4.2284484,9.6729984z"/>
	<path style="fill:#FEFDFD;" d="M6.6272697,7.2173953C6.7318397,7.0206647,6.6901417,6.8844256,6.48493,6.7847371
		C6.715786,6.8289342,6.8236127,6.7301846,6.8540249,6.5143557c0.0264978,0.2191978,0.1296144,0.3144031,0.3595519,0.2621517
		C7.0569997,6.8907108,6.9220572,7.0032177,7.0904765,7.2194281C6.9262099,7.0554042,6.7833023,7.0454745,6.6272697,7.2173953z"/>
	<path style="fill:#FEFDFD;" d="M2.4866891,8.4255219c0.0255077,0.2318754,0.1498296,0.2912779,0.3634524,0.2557755
		C2.6648521,8.7852058,2.5866382,8.9130878,2.7159462,9.1150799C2.5662835,8.9746294,2.4268935,8.9288082,2.2669444,9.1100178
		c0.0993192-0.196681,0.0604308-0.3290701-0.1438124-0.4204626C2.3286743,8.7106867,2.4666665,8.6598845,2.4866891,8.4255219z"/>
	<path style="fill:#FEFDFD;" d="M7.714788,8.4177713c0.0398154,0.2022982,0.1303573,0.3176603,0.3648305,0.2625132
		C7.9065256,8.786171,7.8115835,8.9048986,7.948288,9.107789c-0.160758-0.1325626-0.3053718-0.1868792-0.4518647-0.0064735
		c0.0204306-0.0786066,0.064878-0.1604385,0.054872-0.2349577C7.5401893,8.7836456,7.4255075,8.7672262,7.34582,8.6685095
		C7.5748153,8.7224331,7.6954355,8.6433172,7.714788,8.4177713z"/>
	<path style="fill:#FEFDFD;" d="M4.7505822,6.796267c0.2602863-0.0327315,0.2602863-0.0327315,0.3631253-0.2949419
		C5.1433458,6.719389,5.2362795,6.8343034,5.471931,6.7787929c-0.189034,0.104598-0.2574573,0.2362432-0.1368942,0.4387951
		c-0.1576786-0.1704135-0.30018-0.1670423-0.4553947,0.001513C4.9901619,7.0214672,4.9475675,6.8861756,4.7505822,6.796267z"/>
	<path style="fill:#FEFDFD;" d="M7.7147164,7.1723948c0.0400929,0.2014451,0.1288171,0.3191047,0.3641553,0.2629309
		C7.9042473,7.544795,7.8017612,7.6657763,7.9630451,7.8675718c-0.2459254-0.1342745-0.2459254-0.1342745-0.4690194-0.002048
		c0.022963-0.0881786,0.0672917-0.1697464,0.0574112-0.2441115C7.5404191,7.5384846,7.424264,7.5238466,7.3509779,7.4247279
		C7.5759215,7.4781861,7.6953773,7.397532,7.7147164,7.1723948z"/>
	<path style="fill:#FEFDFD;" d="M9.105689,11.1886082c0.2469635-0.0337496,0.2469635-0.0337496,0.3698626-0.2913771
		c0.0150204,0.2282648,0.1237621,0.3201361,0.3538952,0.2759848c-0.2116766,0.0997353-0.2446413,0.2415142-0.1393166,0.434968
		c-0.1521587-0.1515627-0.2923813-0.1813402-0.4486771-0.0025568C9.3246565,11.4167318,9.318078,11.270133,9.105689,11.1886082z"/>
	<path style="fill:#FEFDFD;" d="M8.0867796,9.9232845c-0.1985741,0.1064186-0.2594199,0.2354479-0.1408362,0.434968
		c-0.1588707-0.1653261-0.3017492-0.1582766-0.4559641,0.0037909c0.1055255-0.1937752,0.0763888-0.3328991-0.1394773-0.4297686
		c0.2264361,0.0363293,0.3456588-0.0445204,0.3625469-0.271965C7.7578225,9.857523,7.8331432,9.9967957,8.0867796,9.9232845z"/>
	<path style="fill:#FEFDFD;" d="M5.9842272,9.6481361c0.0265489,0.2186356,0.1116314,0.3356915,0.344696,0.2738686
		c-0.1414537,0.1125965-0.2907071,0.2142162-0.1211228,0.43048c-0.1734581-0.1637001-0.313158-0.1426439-0.4611011,0.0117035
		c0.1041546-0.1933279,0.076314-0.336772-0.116899-0.4364805C5.7105794,9.9226933,5.8047576,9.9417305,5.868536,9.9061985
		C5.9384995,9.8672218,5.9243073,9.7557411,5.9842272,9.6481361z"/>
	<path style="fill:#FEFDFD;" d="M5.9711809,8.4205875c0.0347729,0.2134342,0.1342459,0.3098679,0.3605127,0.2593613
		c-0.1657934,0.1054068-0.2637439,0.2229185-0.134027,0.4285431C6.033287,8.9329576,5.8939371,8.9732647,5.7473783,9.1179543
		c0.0812793-0.1828527,0.1087084-0.3397045-0.1477108-0.4260731C5.8260355,8.7174292,5.9563408,8.651454,5.9711809,8.4205875z"/>
	<path style="fill:#FEFDFD;" d="M1.8316214,7.1844635C1.8228803,7.1869617,1.8089678,7.1942902,1.8061405,7.1912637
		C1.6698264,7.045341,1.5392159,7.0656734,1.395732,7.2183294c0.1024504-0.1965237,0.0652609-0.3352733-0.1428025-0.431118
		c0.1976693,0.0171576,0.348163-0.0134482,0.3590976-0.2636557c0.0436317,0.2042446,0.1418593,0.3095369,0.3684702,0.255806
		C1.7846822,6.875998,1.758393,7.0160894,1.8281784,7.1867003L1.8316214,7.1844635z"/>
	<path style="fill:#FEFDFD;" d="M8.0781384,11.1722374c-0.1953268,0.1019011-0.2461972,0.2344303-0.1326632,0.4297266
		c-0.154933-0.1316681-0.2950325-0.1999426-0.4457021,0.0117884c0.0685377-0.192627,0.095789-0.3534899-0.1565013-0.4353943
		c0.2386146,0.0385351,0.3502321-0.0526104,0.3717041-0.2751398C7.7537489,11.1046362,7.8355498,11.230979,8.0781384,11.1722374z"/>
	<path style="fill:#FEFDFD;" d="M2.2454638,10.3417454c0.1405077-0.1961203,0.0582092-0.3134012-0.1200025-0.4113226
		C2.3411674,9.9632921,2.4690361,9.8984632,2.4723749,9.6587c0.1132596,0.2597752,0.1132596,0.2597752,0.4054091,0.26682
		c-0.2070155,0.1045046-0.2951798,0.2292891-0.1796751,0.4282942c-0.065377-0.0444832-0.1254795-0.1098318-0.197499-0.1280355
		C2.4153776,10.2042351,2.3714445,10.3203621,2.2454638,10.3417454z"/>
	<path style="fill:#FEFDFD;" d="M8.3801489,7.2081366C8.4887257,7.0059342,8.4201183,6.8841238,8.23279,6.7879934
		C8.4293251,6.801568,8.5839977,6.7745929,8.5885067,6.5169516c0.0407419,0.2257667,0.1510296,0.3096867,0.3714809,0.2601576
		C8.7686749,6.883153,8.7037125,7.0189695,8.8241215,7.2184148C8.6780529,7.0863199,8.5443745,7.0164394,8.3801489,7.2081366z"/>
	<path style="fill:#FEFDFD;" d="M10.5515728,7.1844835c-0.0087595,0.0024686-0.0223875,0.0098562-0.0255785,0.0066981
		c-0.1360645-0.1346769-0.2676287-0.1470184-0.4084501,0.0343709c0.087203-0.1989975,0.0872698-0.350575-0.151824-0.4352374
		c0.2043238,0.0135365,0.3559437-0.0156403,0.3659182-0.2667379c0.0438728,0.2040801,0.1420479,0.3096504,0.3688612,0.2557549
		c-0.1960144,0.0966086-0.2222357,0.2367678-0.1523914,0.407444L10.5515728,7.1844835z"/>
	<path style="fill:#FEFDFD;" d="M2.8523247,11.1724844c-0.2030218,0.1009712-0.2541492,0.2375174-0.1525204,0.4268999
		c-0.0686474-0.0460005-0.1324744-0.1165295-0.2072735-0.1312284c-0.0776002-0.0152483-0.1253576,0.0986633-0.2376289,0.1150608
		c0.1078889-0.1813107,0.0795019-0.3173904-0.1367717-0.4039707c0.2172947,0.0274296,0.3439946-0.0390863,0.3688197-0.2682409
		C2.5137239,11.1423864,2.6373658,11.20819,2.8523247,11.1724844z"/>
	<path style="fill:#FEFDFD;" d="M10.5513592,8.4302168c-0.0089884,0.0020151-0.0227222,0.0088491-0.0262794,0.0053473
		c-0.1293907-0.1273708-0.2567463-0.1460114-0.4011602,0.0231905c0.0963411-0.2011433,0.0480518-0.3375988-0.1495008-0.4310064
		c0.2063665,0.029314,0.3414392-0.0206175,0.3631182-0.2613358c0.0346746,0.2179098,0.1395035,0.3070111,0.3616877,0.2573495
		c-0.1958799,0.0965652-0.2174997,0.2389345-0.1512423,0.4088793L10.5513592,8.4302168z"/>
	<path style="fill:#FEFDFD;" d="M8.3784714,9.6971197c0.1118898-0.205205,0.0408325-0.3259134-0.1452827-0.4213171
		c0.2081585,0.0276661,0.3399324-0.0306139,0.361948-0.2651834c0.029974,0.2299948,0.1508894,0.2990313,0.3652534,0.2593002
		C8.7681313,9.3726044,8.701829,9.5042267,8.8255787,9.7047625C8.6780872,9.5744066,8.5402355,9.505374,8.3784714,9.6971197z"/>
	<path style="fill:#FEFDFD;" d="M5.105917,7.7628002c0.0350418,0.213099,0.137949,0.3091612,0.3668838,0.2632685
		c-0.2075996,0.0999556-0.2421031,0.2419281-0.1193519,0.441823C5.1004958,8.3210955,5.1004958,8.3210955,4.8647728,8.4716434
		c0.1103106-0.2000837,0.0962825-0.3469963-0.1247854-0.4407349C4.9663463,8.0677099,5.0851212,7.9863911,5.105917,7.7628002z"/>
	<path style="fill:#FEFDFD;" d="M5.466938,9.2718506C5.2794352,9.3760471,5.2017274,9.4995441,5.3422685,9.7055798
		C5.1766558,9.5565643,5.03304,9.5157814,4.8815036,9.7177925c0.0994296-0.2014732,0.073689-0.3460093-0.1403503-0.4453135
		C4.9749579,9.318491,5.0786061,9.2175789,5.1073508,9.0028648C5.1408134,9.210577,5.2290683,9.3273916,5.466938,9.2718506z"/>
	<path style="fill:#FEFDFD;" d="M1.8313835,8.4302044c-0.0089822,0.0020237-0.0226989,0.008872-0.0262624,0.005373
		C1.6757447,8.3086052,1.5483787,8.2895155,1.4039844,8.4588442c0.0961807-0.2012167,0.0480583-0.3377018-0.1495665-0.4310999
		C1.461,8.0573454,1.5956887,8.0067139,1.617879,7.7663264c0.0343482,0.218236,0.1392442,0.3069892,0.3612918,0.2573705
		C1.7837809,8.1203814,1.7616932,8.2626238,1.8280256,8.4325905L1.8313835,8.4302044z"/>
	<path style="fill:#FEFDFD;" d="M1.831228,9.6759081C1.8221332,9.6776762,1.808336,9.6841955,1.8046242,9.6805229
		C1.6750907,9.5523586,1.5477185,9.5351934,1.4207869,9.712101C1.3906283,9.5974646,1.4910594,9.5148077,1.4505714,9.4425201
		C1.4134492,9.3762426,1.3301787,9.3358135,1.2274153,9.2512026c0.2347047,0.0524588,0.3673369-0.0010672,0.3725623-0.2459698
		c0.138669,0.2542534,0.138669,0.2542534,0.4135579,0.2686977C1.7814124,9.3651485,1.7631047,9.508646,1.8279824,9.6783304
		L1.831228,9.6759081z"/>
	<path style="fill:#FEFDFD;" d="M10.5511971,9.6759338C10.542098,9.6776781,10.5283079,9.6841669,10.52458,9.68048
		c-0.1294746-0.128047-0.2568455-0.1453123-0.3990707,0.0229034c0.0781689-0.1948442,0.0700769-0.3461361-0.1605253-0.4168253
		c0.267972-0.0349617,0.267972-0.0349617,0.3914146-0.2850523c0.0152016,0.2298679,0.1219788,0.316061,0.3433714,0.2680178
		c-0.1991301,0.0955238-0.2162123,0.2393675-0.1518469,0.4088879L10.5511971,9.6759338z"/>
	<path style="fill:#FEFDFD;" d="M2.9958487,6.7835379c0.2168493,0.03128,0.3434408-0.0317025,0.3588223-0.2642794
		c0.0429626,0.2032142,0.1419001,0.312161,0.3734226,0.2436223C3.6668174,6.8636217,3.5634432,6.8806024,3.5313942,6.9521823
		C3.4962356,7.0307069,3.5846879,7.1053796,3.5741916,7.2199221C3.4270661,7.044127,3.2847002,7.0554538,3.1348066,7.2221518
		C3.2442472,7.0250258,3.205539,6.8840842,2.9958487,6.7835379z"/>
	<path style="fill:#FEFDFD;" d="M8.356616,8.4528885C8.4828615,8.2551689,8.4223804,8.126008,8.2340345,8.0273809
		c0.2194185,0.0415697,0.3320541-0.0438681,0.3652-0.2614636C8.6213198,8.0012932,8.7508984,8.059268,8.9611712,8.0274439
		C8.7574024,8.1289854,8.7037926,8.2645655,8.858655,8.4754353C8.5991411,8.3320866,8.5991411,8.3320866,8.356616,8.4528885z"/>
	<path style="fill:#FEFDFD;" d="M2.9972515,11.7634678c0.2141702,0.0313673,0.3420153-0.0298843,0.3562081-0.2626963
		c0.0583804,0.1816378,0.1218886,0.3415709,0.3762875,0.2514858c-0.177969,0.110384-0.269537,0.2289953-0.1420214,0.4366999
		c-0.1649327-0.1770506-0.3046684-0.1391544-0.4526923,0.0086956C3.237766,12.0053663,3.2114685,11.8614759,2.9972515,11.7634678z"
		/>
	<path style="fill:#FEFDFD;" d="M3.130765,9.7382793C3.2032669,9.450469,3.2032669,9.450469,2.9852405,9.2565279
		c0.232275,0.0530272,0.3583987-0.0173807,0.3704381-0.2511425c0.0534065,0.188159,0.1216743,0.3402052,0.388895,0.2341833
		C3.5416963,9.4489708,3.5416963,9.4489708,3.5757244,9.717576C3.4254208,9.5262413,3.2860649,9.5557003,3.130765,9.7382793z"/>
	<path style="fill:#FEFDFD;" d="M7.2081423,8.0363808c-0.1852031,0.095211-0.2617741,0.2188206-0.1195965,0.4245529
		C6.9276848,8.3103418,6.7856073,8.2816401,6.631186,8.4619474c0.0952554-0.1953802,0.0647736-0.3375492-0.1453137-0.4345322
		c0.2365603,0.0510836,0.3348517-0.0593681,0.359314-0.2857714C6.9480572,8.0151863,6.9480572,8.0151863,7.2081423,8.0363808z"/>
	<path style="fill:#FEFDFD;" d="M4.7574234,10.5122662c0.2189155,0.0518093,0.3217311-0.0450287,0.3470464-0.2638483
		c0.0350795,0.2100115,0.1335945,0.3187418,0.3669143,0.2668829c-0.1734638,0.1063786-0.2716513,0.2240982-0.1338468,0.4310608
		c-0.1609659-0.165287-0.3039498-0.1584816-0.4492583,0.0178137C4.9360118,10.6901855,4.9360118,10.6901855,4.7574234,10.5122662z"
		/>
	<path style="fill:#FEFDFD;" d="M10.5677166,10.9479837c-0.1449413-0.1276054-0.2793045-0.1937666-0.4409027-0.007205
		c0.1018343-0.2051582,0.028491-0.3278437-0.1523018-0.4221849c0.2044315,0.0284834,0.3422756-0.0174713,0.3596821-0.261322
		c0.0370216,0.2145538,0.1450634,0.3051367,0.3659945,0.2581415C10.5106745,10.6204939,10.446804,10.7520952,10.5677166,10.9479837z
		"/>
	<path style="fill:#FEFDFD;" d="M5.7633381,11.5644608c0.0033522-0.0193195,0.0019746-0.0411921,0.0108089-0.0575504
		c0.067204-0.1244431,0.0297246-0.2107239-0.0924115-0.2705374c-0.0210862-0.0103283-0.0374212-0.0303564-0.0928597-0.0768709
		c0.2272148,0.0373306,0.3754263-0.0049114,0.3571482-0.2588596c0.0830612,0.0837021,0.0618844,0.1894693,0.1220055,0.2422638
		c0.0658517,0.057827,0.1612086,0.0086889,0.2740793,0.0343647c-0.1579318,0.0993423-0.2902141,0.2052469-0.142487,0.4146757
		c-0.1539683-0.1457424-0.2897468-0.1319532-0.4237528-0.0138102C5.7716675,11.5735998,5.7674909,11.5690422,5.7633381,11.5644608z"
		/>
	<path style="fill:#FEFDFD;" d="M3.1385972,10.9500761c0.1061046-0.1940193,0.0662699-0.3297653-0.1425564-0.4291096
		c0.2181261,0.0317068,0.3490226-0.0332823,0.3604214-0.2719584c0.040451,0.2069902,0.1376941,0.3201399,0.3703778,0.2680883
		c-0.1701181,0.1020985-0.2671289,0.2141638-0.1380904,0.4191837C3.427283,10.7912531,3.286788,10.7836275,3.1385972,10.9500761z"/>
	<path style="fill:#FEFDFD;" d="M1.4154608,12.1712313c0.0483519-0.1683054,0.0583277-0.3230705-0.1878976-0.3981161
		c0.2896339-0.0342302,0.2896339-0.0342302,0.4066619-0.2836514c0.0194805,0.2264786,0.1194906,0.3225279,0.3443537,0.2682819
		c-0.1825123,0.106534-0.2547622,0.2364597-0.1213977,0.4211578c-0.0287552-0.0023317-0.0409746,0.0003328-0.0448089-0.0041609
		c-0.1309037-0.1533728-0.264629-0.1084318-0.3994983-0.0067682L1.4154608,12.1712313z"/>
	<path style="fill:#FEFDFD;" d="M10.1354456,12.1712341c-0.0016594-0.0046272-0.0060253-0.0104389-0.004591-0.013711
		c0.0756359-0.1726341,0.0380697-0.304554-0.1561384-0.3923817c0.1955652,0.0146542,0.353569-0.0032473,0.3553791-0.2675819
		c0.0421886,0.217453,0.1480188,0.3112345,0.3707809,0.2626858c-0.1968641,0.1031256-0.2476263,0.2390165-0.1308393,0.4239988
		c-0.1514378-0.1288157-0.2922249-0.1446381-0.4371777-0.0162697L10.1354456,12.1712341z"/>
	<path style="fill:#FEFDFD;" d="M6.6317959,9.7028465C6.7214007,9.5097389,6.7132878,9.3641472,6.479753,9.2759199
		c0.2399898,0.045579,0.342598-0.0589056,0.3743176-0.2715092C6.8822412,9.2185183,6.978467,9.321641,7.2098389,9.2518682
		C7.1602635,9.3553782,7.0346408,9.3674316,7.0222187,9.4449749c-0.0126362,0.078886,0.030683,0.1667356,0.0571904,0.2849598
		C6.9292002,9.5611982,6.7903242,9.519412,6.6317959,9.7028465z"/>
	<path style="fill:#FEFDFD;" d="M1.3727165,10.9443483c0.1383277-0.2154341,0.0630447-0.3300037-0.1186686-0.4215689
		c0.1931429,0.0148172,0.3482788-0.0099821,0.3562329-0.2620125c0.0528758,0.1919413,0.1331375,0.3247728,0.3705623,0.2467575
		c-0.1698003,0.1173248-0.2768458,0.237154-0.0898122,0.4565868C1.6179466,10.8193274,1.6179466,10.8193274,1.3727165,10.9443483z"
		/>
	<path style="fill:#FEFDFD;" d="M7.0813203,10.9523277c-0.1510468-0.1487236-0.2915516-0.1849356-0.4536667-0.0053892
		c0.1084104-0.198904,0.0604854-0.3283024-0.1227059-0.4259777c0.0826621-0.007309,0.1851139,0.0124016,0.2424002-0.0295544
		c0.0568471-0.0416355,0.0682235-0.1453543,0.1161685-0.2624521c0.0181952,0.2406673,0.1260591,0.3335609,0.3534784,0.2864532
		C7.018971,10.6189117,6.9648452,10.7553082,7.0813203,10.9523277z"/>
	<path style="fill:#FEFDFD;" d="M8.3843727,10.923295c0.0651007-0.1677856,0.0590563-0.3110676-0.1542072-0.3991547
		c0.1968412,0.0130215,0.3499622-0.0156879,0.359498-0.2667379c0.043395,0.215704,0.1462069,0.3167334,0.3645086,0.2476101
		c-0.1687183,0.1134996-0.2226686,0.2456207-0.1568108,0.420742l0.0024223-0.003231
		c-0.138938-0.1290522-0.2783651-0.0991268-0.4180031-0.0012894L8.3843727,10.923295z"/>
	<path style="fill:#FEFDFD;" d="M5.4677629,11.7656393c-0.1980157,0.0951548-0.2449718,0.223712-0.1343145,0.4210062
		c-0.1571116-0.1464624-0.2976418-0.1639643-0.4467134,0.0089731c0.0889134-0.1915226,0.0696249-0.3366423-0.1457949-0.4312372
		c0.2306523,0.0431986,0.3406796-0.049407,0.363287-0.2717161C5.1400099,11.7017994,5.2363305,11.8128386,5.4677629,11.7656393z"/>
	<path style="fill:#FEFDFD;" d="M7.0814266,12.1951056c-0.1498857-0.1435585-0.2890725-0.1885338-0.4495473-0.0037498
		c0.0959711-0.1970806,0.060648-0.3331661-0.146318-0.4255724c0.2295766,0.045784,0.3339057-0.0556631,0.3665948-0.2683611
		c0.0367565,0.2064924,0.122829,0.328783,0.3679843,0.2576408C7.0180135,11.862607,6.9664135,11.9985981,7.0814266,12.1951056z"/>
	<path style="fill:#FEFDFD;" d="M3.1520834,8.4196424c0.0035675-0.0193796,0.0025625-0.0412111,0.011431-0.0577478
		c0.0667613-0.1244907,0.0314801-0.2120714-0.0922415-0.272007c-0.0211546-0.0102491-0.037827-0.0297499-0.096422-0.0773525
		C3.2087252,8.0534353,3.3525596,8.0046558,3.3368607,7.753582c0.0816879,0.0852494,0.0604389,0.1925983,0.1223512,0.245316
		c0.0660229,0.0562177,0.1620114,0.0057788,0.2739444,0.0342059C3.5657461,8.1293316,3.4477098,8.240344,3.5890355,8.4494886
		C3.4361191,8.3037434,3.3003402,8.3075199,3.1664038,8.4348135C3.1616635,8.4297247,3.1568902,8.4246683,3.1520834,8.4196424z"/>
	<path style="fill:#FEFDFD;" d="M8.7997694,12.1682243c-0.1388664-0.1302691-0.2781668-0.1011076-0.4176588-0.0011349
		l0.00249,0.0021191c-0.0005455-0.0048943-0.0023737-0.0100451-0.0014544-0.0146456
		c0.0446529-0.2234125,0.0446787-0.2234068-0.1615286-0.4030685c0.2091646,0.0325394,0.3576889-0.0021744,0.369132-0.2499199
		c0.0361786,0.2257299,0.1541424,0.3044701,0.3602715,0.2546692c-0.1753578,0.1049509-0.2130594,0.2427244-0.1537142,0.41539
		L8.7997694,12.1682243z"/>
	<path style="fill:#FEFDFD;" d="M10.5479231,9.6784115c0.0056953,0.0042343,0.0113907,0.0084696,0.017087,0.0127039
		c-0.0036831,0.0012922-0.0073671,0.0025854-0.0110512,0.0038776c-0.0009317-0.0063496-0.0018654-0.0127001-0.00278-0.0190544
		L10.5479231,9.6784115z"/>
	<path style="fill:#FEFDFD;" d="M8.3817806,10.9212341c-0.0022774,0.0048981-0.0045538,0.0097971-0.0068302,0.0146952
		c-0.0000334-0.0023422-0.0010538-0.0056839,0.0001011-0.0068235c0.0025406-0.0025101,0.0061789-0.0039091,0.009346-0.0057869
		L8.3817806,10.9212341z"/>
	<path style="fill:#FEFDFD;" d="M1.8281785,7.1867003c0.0050818,0.0049849,0.0101638,0.0099692,0.0152456,0.0149546
		C1.8395427,7.2021575,1.8356615,7.2026606,1.8317803,7.2031631c-0.000069-0.0062299-0.0001382-0.0124607-0.0001831-0.0186954
		L1.8281785,7.1867003z"/>
	<path style="fill:#FEFDFD;" d="M5.7758689,11.5781364c-0.002665,0.0112352-0.0051279,0.0246849-0.0205851,0.0153036
		c-0.0022759-0.0013809,0.0052056-0.0188417,0.0081139-0.0289211C5.7674909,11.5690422,5.7716675,11.5735998,5.7758689,11.5781364z"
		/>
	<path style="fill:#FEFDFD;" d="M1.8279823,9.6783304c0.0042633,0.0017891,0.0090364,0.0029392,0.0125129,0.0057144
		c0.001215,0.0009708-0.0007653,0.0059414-0.0012864,0.0090866C1.836536,9.6873932,1.8338634,9.6816568,1.8312094,9.6759138
		L1.8279823,9.6783304z"/>
	<path style="fill:#FEFDFD;" d="M10.5481081,7.1867762c0.0052176,0.0049682,0.0104361,0.0099359,0.0156527,0.0149035
		c-0.0039387,0.0005841-0.0078793,0.0011683-0.0118179,0.0017529c-0.0001392-0.0063138-0.0002775-0.0126276-0.0003929-0.0189452
		L10.5481081,7.1867762z"/>
	<path style="fill:#FEFDFD;" d="M1.4128739,12.1679745c-0.0043083,0.0067835-0.0086167,0.013567-0.012925,0.0203514
		c-0.001755-0.0040913-0.0035102-0.0081806-0.0052654-0.0122709c0.0069233-0.0016155,0.0138466-0.003232,0.0207736-0.0048351
		L1.4128739,12.1679745z"/>
	<path style="fill:#FEFDFD;" d="M8.3821106,12.1670895c-0.000762,0.0044851-0.001524,0.0089693-0.002286,0.0134544
		c0.0016031-0.0037651,0.0032053-0.0075312,0.0047922-0.0113153L8.3821106,12.1670895z"/>
	<path style="fill:#FEFDFD;" d="M8.797307,12.1716337c0.0062599-0.0003681,0.0125198-0.0007362,0.0187798-0.0011044
		c-0.0015659,0.0054989-0.0031328,0.0109978-0.0046997,0.0164967c-0.003871-0.0062695-0.0077429-0.012538-0.0116158-0.0188036
		L8.797307,12.1716337z"/>
	<path style="fill:#FEFDFD;" d="M10.1328592,12.1679745c-0.0043106,0.0067701-0.0086212,0.0135412-0.0129318,0.0203123
		c-0.00175-0.0040884-0.0034981-0.0081787-0.0052481-0.0122671c0.0069199-0.0016041,0.0138388-0.0032063,0.0207624-0.0047979
		L10.1328592,12.1679745z"/>
	<path style="fill:#FEFDFD;" d="M1.8280256,8.4325905C1.8334702,8.4371347,1.838915,8.441679,1.8443596,8.4462233
		c-0.003791,0.0009394-0.0075819,0.0018797-0.0113728,0.00282c-0.0005484-0.0062771-0.0010967-0.0125542-0.0016243-0.018836
		L1.8280256,8.4325905z"/>
	<path style="fill:#FEFDFD;" d="M3.1664038,8.4348135c-0.0031309,0.0113268-0.00634,0.0252666-0.0214963,0.0151796
		c-0.0029693-0.001977,0.0045848-0.019762,0.0072305-0.030303C3.1568902,8.4246683,3.1616635,8.4297247,3.1664038,8.4348135z"/>
	<path style="fill:#FEFDFD;" d="M10.5479822,8.432641c0.005579,0.0045719,0.011157,0.0091438,0.0167351,0.0137167
		c-0.0038681,0.0010033-0.0077353,0.0020065-0.0116034,0.0030088c-0.0005989-0.006381-0.0011969-0.0127611-0.0017757-0.019146
		L10.5479822,8.432641z"/>
	<path style="fill:#FEFDFD;" d="M8.7973614,10.9257545c0.0063381-0.0001421,0.0126772-0.0002842,0.0190153-0.0004253
		c-0.0018282,0.0055151-0.0036564,0.0110312-0.0054836,0.0165472c-0.0037031-0.0064507-0.0074072-0.0129032-0.0111094-0.0193539
		L8.7973614,10.9257545z"/>
	<path style="fill:#FFFFFF;" d="M24.3704643,14.1944895c-0.0541668,0.0018606-0.1083374,0.0053501-0.1625042,0.005352
		c-7.7854557,0.0002413-15.5709124-0.0001602-23.3563671,0.0032883c-0.1415862,0.0000629-0.1978039-0.0222721-0.1871468-0.1803226
		c0.0162554-0.2410736,0.012736-0.4844732,0.0008564-0.7260618c-0.0064013-0.1301765,0.0389488-0.1676168,0.1570052-0.1478853
		c0.0192121,0.003211,0.0394198,0.000452,0.0591674,0.000452c7.7657094,0,15.5314178-0.0000172,23.2971268,0.0002918
		c0.0639534,0.0000029,0.1279087,0.0044308,0.1918621,0.0067921C24.3704643,13.5024271,24.3704643,13.8484592,24.3704643,14.1944895
		z"/>
	<path style="fill:#FFFFFF;" d="M24.3704643,16.3129044c-0.0541668,0.0018597-0.1083374,0.0053501-0.1625042,0.005352
		c-7.7854557,0.0002403-15.5709124-0.0001602-23.3563671,0.0032883c-0.1415862,0.0000629-0.1978039-0.0222721-0.1871468-0.1803226
		c0.0162554-0.2410736,0.012736-0.4844742,0.0008564-0.7260618c-0.0064013-0.1301775,0.0389488-0.1676168,0.1570052-0.1478853
		c0.0192121,0.003211,0.0394198,0.000452,0.0591674,0.000452c7.7657094,0,15.5314178-0.0000172,23.2971268,0.0002918
		c0.0639534,0.0000029,0.1279087,0.0044308,0.1918621,0.0067921C24.3704643,15.620842,24.3704643,15.9668741,24.3704643,16.3129044z
		"/>
	<path style="fill:#FFFFFF;" d="M24.3704643,18.4457703c-0.0541668,0.0018616-0.1083374,0.0053501-0.1625042,0.005352
		c-7.7854557,0.0002422-15.5709124-0.0001602-23.3563671,0.0032883c-0.1415862,0.0000629-0.1978039-0.0222721-0.1871468-0.1803226
		c0.0162554-0.2410736,0.012736-0.4844742,0.0008564-0.7260609c-0.0064013-0.1301785,0.0389488-0.1676178,0.1570052-0.1478863
		c0.0192121,0.0032101,0.0394198,0.000452,0.0591674,0.000452c7.7657094,0,15.5314178-0.0000172,23.2971268,0.0002918
		c0.0639534,0.0000038,0.1279087,0.0044308,0.1918621,0.0067921C24.3704643,17.7537079,24.3704643,18.099741,24.3704643,18.4457703z
		"/>
</g>
</svg>
