<?xml version="1.0" encoding="utf-8"?>
<!-- Generator: Adobe Illustrator 21.1.0, SVG Export Plug-In . SVG Version: 6.00 Build 0)  -->
<svg version="1.1" id="Слой_1" xmlns="http://www.w3.org/2000/svg" xmlns:xlink="http://www.w3.org/1999/xlink" x="0px" y="0px"
	 viewBox="0 0 55 45" style="enable-background:new 0 0 55 45;" xml:space="preserve">
<g>
	<path style="fill:#181813;" d="M23.9043159,39.3757133c-1.1977692,0.3651199-2.4336624,0.6218338-3.5525265,1.2130394
		c-0.3424149,0.1809311-0.5137959,0.0627556-0.6462555-0.2560921c-0.0881443-0.2121773-0.2111969-0.4098549-0.3185654-0.6139183
		c0.0636044-0.4657974,0.5123882-0.3762817,0.7811699-0.5478745c0.1724968-0.1101227,0.5701618,0.0305519,0.4695206-0.4004593
		c1.5337009-0.308548,3.0614605-0.6539116,4.6047421-0.9031181c0.4607372-0.074398,0.7100792-0.1818275,0.7040958-0.6705704
		c0.9498425,0.5627251,1.2496033,0.3857346,1.3568249-0.7191086c0.0758762-0.7818947-0.084734-1.5454254-0.18153-2.3061066
		c-0.1395893-1.0969772-0.0064564-2.2116776-0.2605305-3.2958527c-0.0193806-1.1376648-0.0387421-2.275341-0.0581055-3.4130211
		c0.0883274-0.9651928-0.0591526-1.9047318-0.306118-2.8338699c-0.2017136-0.7588882-0.2139721-1.5096035,0.0502548-2.2633762
		c0.2376308-0.6778984,0.0251713-1.5741119-0.4618244-1.6857281c-0.5422516-0.1242771-0.8681068-0.4600582-1.1434364-0.8560009
		c-0.5228863-0.7519474-1.6432953-0.9441338-1.8397808-1.9890518c0.0126591-0.9962425-0.9272861-1.4983044-1.213625-2.3394356
		l0.0064735,0.0056725c-0.2658958-0.7731352-0.5244064-1.5488968-0.7989159-2.3189554
		c-0.8456573-2.3722706-1.9046764-4.6873703-1.9293728-7.2771277c0.3936977-0.275455,0.6316719,0.0890446,0.8471336,0.2678041
		c1.4590454,1.210516,2.8858185,2.4598222,4.3362026,3.6809344c0.8342419,0.7023678,1.786684,1.1144028,2.9050694,1.0769892
		c0.225338-0.0075378,0.4528732,0.0507402,0.6793385,0.078619c0.2821312,0.6683064,0.5318985,0.3406763,0.7804146-0.0254564
		c0.5903397-0.3467226,1.2281818-0.3550119,1.8816547-0.2710161c0.6413479,0.0824366,1.100441-0.2216444,1.5218563-0.6744213
		c1.3292274-1.4281425,2.8275337-2.6966805,4.0197601-4.2554317c0.0314255-0.0410862,0.1339302-0.0278082,0.203022-0.0400338
		c-0.1560249,1.4153929-0.5378342,2.773797-0.9796906,4.1243706c-0.3414879,1.0437937-0.8383675,2.0451469-0.9397926,3.1612015
		c-0.5200653,0.8319864-0.9291,1.7205811-1.336525,2.6104412c-0.7913322,1.728364-1.9591732,3.1482916-3.5646477,4.1693544
		c-0.6975384,0.4436264-1.0323048,1.049015-1.1360912,1.826828c-0.3694344,2.7688065-0.3826447,5.5489025-0.3308201,8.3370819
		c0.0345726,1.8599873,0.0766506,3.712307,0.3926086,5.549263c-0.0150719,0.3071861-0.031086,0.6142616-0.0448799,0.9214401
		c-0.0114689,0.2555084-0.0716953,0.5477066,0.1804123,0.7088585c0.3214188,0.2054558,0.4218445-0.1645432,0.6151752-0.2924156
		c0.1309204-0.0865974,0.3779411-0.3270874,0.3981247-0.0658455c0.0397758,0.5147858,0.432457,1.0723648-0.0614281,1.5696983
		c-0.7149525,0.1878204-1.4256687,0.3948593-2.1469593,0.5539513c-0.2865028,0.0631981-0.5597897,0.1910133-0.8965111,0.0835609
		C25.5811291,38.7104187,24.7038136,38.8202286,23.9043159,39.3757133z"/>
	<path style="fill:#FA6E1D;" d="M28.4463234,35.521225c-0.3159771-1.836895-0.3580551-3.6892147-0.3926277-5.549202
		c-0.0518246-2.7881794-0.0386143-5.5682755,0.3308201-8.3370819c0.1037865-0.777813,0.4385529-1.3832016,1.1360912-1.826828
		c1.6054745-1.0210629,2.7733154-2.4409904,3.5646477-4.1693544c0.4074249-0.8898602,0.8164597-1.7784548,1.3366432-2.6104555
		c0.4060974,0.1217566,0.1645813-0.6699228,0.6139221-0.4479074c0.5035896,0.2488203,1.1239319,0.3029089,1.5487137,0.5769548
		c0.8918114,0.5753508,1.8834496,0.846633,2.8305588,1.2504673c-0.0095291,0.0574942-0.019062,0.1149893-0.0285645,0.1724262
		c-0.0611992,0.025547-0.1224251,0.0511522-0.183651,0.0767593c0.0329361,0.0308676,0.065876,0.0617361,0.0988159,0.0926027
		c-0.0706749,0.099926-0.1413536,0.1998501-0.2120247,0.2997236c-0.6223869,1.2111721-0.8454742,2.5010014-0.7582703,3.8519154
		c0.0408287,0.5259533,0.0816536,1.0519066,0.1224823,1.5778103c-0.4857445-0.0325623-0.4783211,0.3128071-0.4200592,0.6153011
		c0.1131363,0.5874004,0.2094193,1.1821079,0.5142174,1.7183857c0.4313431,0.7589283,0.8978233,1.4659252,1.8466034,1.6350632
		l0.0061493,0.0135689c-0.0026627,0.1097679,0.0439911,0.1592865,0.156292,0.1286087c0,0,0.0186996,0.0077209,0.0181122,0.0081844
		c-0.0219727,0.212883,0.1282768,0.2117252,0.271595,0.2192059c0.5077019,0.1691208,1.0154037,0.3382397,1.5230484,0.5073566
		c0.0187111,0.2872295,0.2797585,0.3158817,0.4598541,0.4309235c0.1927299,0.726862,0.807991,1.1178226,1.3097916,1.7580681
		c0.1306152-1.0482101-0.5494537-1.3736572-1.150486-1.7542877c0.608139,0.0718536,1.2235184,0.1065674,1.8228951,0.2233715
		c1.2110214,0.2360001,1.3574753,0.6216164,0.8948174,1.8184357c-0.1739197,0.4498863-0.55439,0.5426598-0.8622742,0.7749023
		c-0.0793419,0.2092113-0.1667557,0.4157696-0.2365646,0.6281185c-0.2498283,0.759943,0.0110626,1.2373524,0.8179169,1.5096111
		c-0.0232124,2.2787838-0.4837418,4.4815807-1.155014,6.6474476c-0.052536-0.0637131-0.014473-0.2610779-0.1964684-0.1333466
		c-0.4829369,0.0633125-0.9048271-0.0135422-1.180191-0.4915733c0.894268-0.237957,0.8917847-0.2363281,0.3971672-0.990715
		c-0.0679207-0.1035995-0.1110649-0.2292099-0.1415405-0.3506851c-0.2403183-0.9578514-0.5646172-1.1246567-1.3769836-0.581646
		c-1.3900146,0.9291344-2.996109,0.9667625-4.5239983,0.9110565c-1.1748238-0.0428314-2.3573914-0.4281578-3.5633888-0.3300438
		c-0.6608925,0.0537643-1.3323936-0.0376472-1.9916172,0.242424c-0.2269478,0.0964203-1.0479031,0.4604187-0.8422985-0.5081177
		c0.016901-0.0796204-0.0528488-0.2065239-0.1207733-0.2709084c-0.9560184-0.9061546-1.0338917-2.1823807-1.3945732-3.3342266
		c-0.1036301-0.3309479-0.2233238-0.5989876-0.5746326-0.6271877c-0.4566193-0.0366497-0.4579258,0.3971195-0.4862404,0.6556759
		c-0.0899162,0.8210049-0.0620117,1.6371861,0.2620983,2.4292126C28.7449017,34.4884644,28.9298382,35.0358429,28.4463234,35.521225
		z M34.8360596,31.8588047c-0.8870354,0.2957325-1.7694321,0.6066151-2.6631775,0.8804607
		c-0.4141731,0.1269073-0.5240974,0.3159599-0.3633614,0.7297287c0.2070084,0.5328979,1.2611618,1.4993095,1.8254051,1.3666725
		c1.263092-0.2969208,2.5538254,0.1551971,3.8149643-0.2901649c0.5381737-0.1900482,1.2030334-0.3480759,1.8000832-0.1087646
		c0.6110458,0.2449188,1.1540489,0.1300545,1.7083092-0.1355095c0.3477592-0.1666222,0.6966019-0.4139977,1.0606041-0.4457436
		c0.6763344-0.0589828,0.8094101-0.4687767,0.805378-0.998909c-0.0023117-0.3037643-0.1107368-0.6052437-0.1359406-0.9106712
		c-0.0348549-0.4223194,0.0239563-0.7771454,0.5847015-0.4665718c0.3572617,0.1978779,0.4128838,0.0711937,0.4220352-0.2948074
		c0.0136337-0.5453949-0.2797775-1.0145073-0.3427277-1.5032158c-0.2143784-1.6642456-0.6004448-2.155344-2.2592621-2.7219276
		c-0.3754501-0.1282368-0.8878899-0.122303-1.1128769-0.3960953c-0.5124016-0.6235428-0.9775658-1.3159466-1.3097038-2.0493126
		c-0.3466148-0.7653332-0.7140045-1.5226402-1.1465263-2.2315941c-0.2231293-0.365736-0.9539299-0.5449238-0.0167046-0.9012833
		c0.057045-0.0216923-0.0042877-0.3360958,0.0016518-0.5138969c0.0354767-1.0619259-0.6807976-1.8273182-1.0876846-2.7103329
		c-0.2359314-0.5120049-1.5148621-0.7426968-1.8378639-0.3147507c-0.6652184,0.8813438-1.6584167,1.1766624-2.5774879,1.6001568
		c-1.2575073,0.5794411-1.6946507,1.3031502-1.6113701,2.6340084c0.0348186,0.5564766,0.2863846,1.2438889-0.5831013,1.5315456
		c-0.3173084,0.1049824-0.286684,0.4118023-0.1274223,0.7716465c0.3821735,0.8635101,0.5872879,1.8077126,0.63377,2.743021
		c0.0570602,1.1481876-0.3821964,2.2613144-0.2408466,3.4516506c0.2169571,1.8270473,0.8296928,2.1165447,2.3521881,1.6231441
		c0.2453461-0.0795097,0.4868355-0.1730843,0.7356644-0.2392502C33.7016411,31.8152714,34.2331886,31.6183147,34.8360596,31.8588047
		z M28.2451878,26.9723759c0,0.6067219-0.0234089,0.9943619,0.0100822,1.377018
		c0.0162373,0.1855183-0.1784878,0.5154514,0.2078285,0.5325851c0.1793709,0.0079575,0.4578323,0.0397377,0.5176201-0.2257786
		c0.0537071-0.2384949,0.1540699-0.5577774-0.1439667-0.6877651C28.4679642,27.8075848,28.4605961,27.4616222,28.2451878,26.9723759
		z M44.6505432,33.9884567c-0.3331947,0.121418-0.5710297,0.2032356-0.8050461,0.2948227
		c-0.2079926,0.0814018-0.6361923-0.154686-0.5975075,0.2357292c0.0341034,0.3441887,0.4544258,0.2265205,0.7222481,0.2392044
		C44.4246712,34.7797356,44.5873985,34.4996452,44.6505432,33.9884567z M28.61483,24.6674938
		c0.2399731,0.0005646,0.4766407-0.0381508,0.5207958-0.3194904c0.0538578-0.3431549-0.2686405-0.3228035-0.4568691-0.3745499
		c-0.3211212-0.0882797-0.3683147,0.2019157-0.4060612,0.4075127C28.2288113,24.6200104,28.4252853,24.659317,28.61483,24.6674938z
		 M38.1277237,19.8420143c-0.0115089-0.1583252,0.1360474-0.3241787-0.0464096-0.4623032
		C37.9925957,19.5444622,37.9925957,19.7010975,38.1277237,19.8420143z M28.385704,30.4896107
		c-0.0221386-0.0393753-0.0434952-0.0773659-0.0648537-0.1153564c-0.02071,0.0383778-0.0575123,0.0767231-0.0576,0.1151485
		c-0.0000858,0.0384026,0.0365658,0.0768833,0.0571136,0.1153316C28.3418827,30.5668221,28.3633995,30.5289116,28.385704,30.4896107
		z"/>
	<path style="fill:#FA6E1D;" d="M11.818264,38.315361c0.1912203-1.3553467-0.6746836-2.5004234-0.7554092-3.8074799
		c-0.0432377-0.7000618,0.1564083-1.4134216-0.108736-2.0997963c0.2115288-0.7634869-0.3931665-1.4772453-0.1386576-2.2441635
		c0.0843143-0.0421124,0.1686306-0.0842266,0.2529459-0.1263428c0.2531557,0.0434837,0.4650593,0.047205,0.3005648-0.3118477
		c-0.0036316-0.0811081-0.0072622-0.1622162-0.0108938-0.2433224c0.2733517-0.429987,0.04251-1.5225525-0.3924036-1.6999111
		c-0.2447605-0.0998135-0.4123974-0.2112427-0.4167252-0.4798698c-0.0074806-0.4643459-0.0068998-0.9290543,0.0027065-1.3933544
		c0.004693-0.2268124,0.1108284-0.4180355,0.3524094-0.4391556c0.5082502-0.0444317,1.0026617-0.3090801,1.520812-0.1447639
		c0.3806658,0.1207199,0.7114143,0.0065899,1.0269766-0.1571808c0.5636969-0.2925587,1.1589012-0.5547962,1.6553135-0.9400349
		c0.9248857-0.7177582,1.817111-1.413723,2.0116949-2.7686005c0.2317104-1.61339-0.0937042-3.1761723-0.1214809-4.7612877
		c-0.0057259-0.3267956-0.0600777-0.5138092,0.2987728-0.6350689c0.1715527-0.05797,0.4217396-0.2156525,0.2753048-0.4549294
		c-0.1050129-0.1715937-0.313879-0.0900774-0.478157,0.0234852c-0.4508839,0.3116865-0.2845745-0.1228542-0.3406773-0.2877426
		c0.0789757-0.0621233,0.1510086-0.1370726,0.2380009-0.1846952c1.2361164-0.676733,2.6445599-0.8563118,3.940237-1.3621178
		c0.2256489,0.1980219,0.2597504,0.4830046,0.3150558,0.7480497c0.0864296,0.4142103,0.2324848,0.7727518,0.6492519,0.9555902
		c0,0-0.0065441-0.0056524-0.0065975-0.0056133c-0.0626965,0.4259377,0.0530949,0.8489065,0.2334785,1.1963644
		c0.1824665,0.351469,0.210844,0.5718269-0.134861,0.7592907c-0.358181,0.1942272-0.4211063-0.1431217-0.5596581-0.3441105
		c-0.5564823-0.8072529-0.6502705-0.8220844-1.4036388-0.2728481c-0.1783562,0.1300297-0.3710403,0.2404041-0.5702553,0.3682404
		c0.6674023,0.3751793,0.8283768,1.1524544,0.2455368,1.4332867c-0.7178421,0.3458767-0.941267,0.9040871-1.0682926,1.57407
		c-0.0737762,0.3891277-0.6804047,0.5985661-0.5547428,0.8699093c0.3779144,0.8160458-0.3667545,1.1026859-0.5882111,1.634779
		c-0.2262192,0.5435352-0.9242382,0.7625866-0.8976898,1.4593163c0.0197906,0.5193806-0.1518192,0.8523331-0.7367373,0.4602203
		c-0.1365347-0.091526-0.306632-0.1721554-0.4183922-0.0269985c-0.6181097,0.8028069-1.6226301,1.1915436-2.1803265,2.058609
		c-0.2415714,0.3755798-0.7523556,0.5753002-0.6962595,1.1450214c0.0689096,0.6998539-0.1014996,1.3804245-0.1887312,2.0694809
		c-0.0699072,0.5522194-0.0158367,1.1226101,0.1461868,1.6637936c0.3813829,1.2738762,1.025589,2.3759041,2.0313396,3.2802963
		c0.6394053,0.5749741,2.9308748,1.2070198,3.68962,0.7750854c0.8581676-0.488533,1.6581345-0.3478584,2.5334644-0.1692009
		c0.6609497,0.1349068,1.3028965,0.7161102,2.047657,0.1465149c0.1981773-0.1515617,0.6134987-0.0603714,0.5751152-0.4684296
		c-0.0323639-0.344101-0.3659801-0.4106979-0.6296444-0.4904137c-0.612627-0.1852112-1.2384701-0.3271904-1.8492947-0.5176773
		c-0.3191643-0.0995293-0.6687183-0.2431641-0.7141266-0.6299934c-0.0392056-0.3339691,0.2668839-0.4628792,0.5070686-0.6162491
		c0.8134441-0.5194092,1.6463432-0.995882,2.6011238-1.2082672c0.1837063-0.0408669,0.2647533-0.1342773,0.2393932-0.3219109
		c-0.074173-0.5487537-0.8043518-1.0478249-1.3904114-0.9806118c-0.4029942,0.0462151-0.715044,0.2702446-1.0520058,0.4518986
		c-0.2499447,0.1347351-0.4413643,0.0400467-0.6183147-0.1472549c-0.2366848-0.250536-0.0674114-0.4243793,0.1112652-0.5836277
		c0.4034348-0.3595638,0.8010254-0.7283916,1.2295303-1.0561428c0.27845-0.2129822,0.4918976-0.2463932,0.6898918,0.2036457
		c0.6150761,1.3980541,1.7562542,2.1610641,3.2378368,2.4426365c0.0855274,0.1166725,0.1928329,0.1588917,0.3353024,0.1098576
		c0.1273422-0.0438251,0.2098598-0.304781,0.3736134-0.127718c0.1363087,0.1473789,0.0592918,0.3385963-0.0390053,0.5022774
		c-0.0656586,0.1093292-0.1680393,0.2214622-0.1747665,0.336956c-0.027132,0.4659042-0.3789482,1.0122757,0.0787601,1.3803558
		c0.64007,0.5147247,0.6815071,0.5866089,0.0247459,1.0671158c-0.3480835,0.254673-0.6694794,0.5212479-0.6932182,1.0022888
		c0.4351215,0.0702324,0.4418983-0.4577942,0.7912407-0.4547615c0.2410011,0.5171776-0.0910511,0.8733406-0.3816128,1.1668816
		c-0.3167934,0.3200302-0.6007481-0.0482254-0.8867016-0.189209c-0.1344643-0.0662918-0.2855415-0.1059532-0.4334412-0.1368294
		c-1.4487514-0.3024445-2.9029102-0.1251488-4.3571091-0.052742c-0.6046371,0.0301018-1.2186432,0.0690231-1.8159008-0.0016251
		c-0.6805706-0.0805054-1.3363533-0.1815414-2.0410042-0.1472588c-0.7990198,0.0388718-1.6585569,0.1261559-2.4242353-0.3874817
		c-0.6251926-0.4193993-1.2417879-0.44244-1.5905247,0.421566c-0.061554,0.1525002-0.2636948,0.2426033-0.3583841,0.389019
		c-0.0888042,0.1373177-0.0915232,0.33918,0.1396751,0.3201942c0.7219315-0.0592842,1.3723526,0.1527634,1.9963579,0.4752502
		c0.1722202,0.0890007,0.5912008,0.1072655,0.337141,0.4218216c-0.168539,0.2086754-0.4532194,0.6871147-0.8599825,0.1977081
		c-0.0785141-0.0944595-0.2192535-0.2678871-0.2914286-0.1487045C13.0728588,38.4794769,12.4165707,38.2888031,11.818264,38.315361z
		"/>
	<path style="fill:#EC4D0B;" d="M11.818264,38.315361c0.5983067-0.0265579,1.2545948,0.1641159,1.6667452-0.516468
		c0.072175-0.1191826,0.2129145,0.054245,0.2914286,0.1487045c0.4067631,0.4894066,0.6914434,0.0109673,0.8599825-0.1977081
		c0.2540598-0.3145561-0.1649208-0.3328209-0.337141-0.4218216c-0.6240053-0.3224869-1.2744265-0.5345345-1.9963579-0.4752502
		c-0.2311983,0.0189857-0.2284794-0.1828766-0.1396751-0.3201942c0.0946894-0.1464157,0.2968302-0.2365189,0.3583841-0.389019
		c0.3487368-0.864006,0.965332-0.8409653,1.5905247-0.421566c0.7656784,0.5136375,1.6252155,0.4263535,2.4242353,0.3874817
		c0.7046509-0.0342827,1.3604336,0.0667534,2.0410042,0.1472588c0.5972576,0.0706482,1.2112637,0.0317268,1.8159008,0.0016251
		c1.4541988-0.0724068,2.9083576-0.2497025,4.3571091,0.052742c0.1478996,0.0308762,0.2989769,0.0705376,0.4334412,0.1368294
		c0.2859535,0.1409836,0.5699081,0.5092392,0.8867016,0.189209c0.2905617-0.293541,0.6226139-0.649704,0.3816128-1.1668816
		c-0.3493423-0.0030327-0.3561192,0.5249939-0.7912407,0.4547615c0.0237389-0.481041,0.3451347-0.7476158,0.6932182-1.0022888
		c0.6567612-0.4805069,0.615324-0.5523911-0.0247459-1.0671158c-0.4577084-0.3680801-0.1058922-0.9144516-0.0787601-1.3803558
		c0.0067272-0.1154938,0.109108-0.2276268,0.1747665-0.336956c0.0982971-0.163681,0.1753139-0.3548985,0.0390053-0.5022774
		c-0.1637535-0.177063-0.2462711,0.0838928-0.3736134,0.127718c-0.1424694,0.0490341-0.2497749,0.006815-0.3352852-0.1098557
		c0.182251-0.1087475,0.1539249-0.2909946,0.1609077-0.4609184c0.1047916-0.0556698,0.1097469-0.1090946-0.0035915-0.1598644
		c-0.7613068-0.2645912,0.1499329-0.51544,0.0062943-0.7749672c0.3974285-0.6065407,0.3521976-1.2914238,0.3416348-1.967926
		c-0.0041313-0.2645569-0.1708984-0.5817966,0.264534-0.6677322c0.1928139,0.8377495,0.1521454,1.6898384,0.1638775,2.5395107
		c0.0033855,0.2450314-0.0942097,0.5270576,0.1721172,0.7136021c0.2540569,1.0841904,0.120924,2.1988907,0.2605133,3.2958679
		c0.096796,0.7606812,0.2574062,1.5242119,0.18153,2.3061066c-0.1072216,1.1048431-0.4069824,1.2818336-1.3568249,0.7191086
		c0.0059834,0.4887428-0.2433586,0.5961723-0.7040958,0.6705704c-1.5432816,0.2492065-3.0710411,0.5945702-4.6030407,0.9033165
		c-1.6417294-0.0650444-3.278141,0.3108597-4.9171839,0.1304092c-1.2817917-0.1411171-2.5582943-0.1492615-3.840579-0.1081963
		C11.6765213,38.6580696,11.7884483,38.4812698,11.818264,38.315361z"/>
	<path style="fill:#FD7C22;" d="M39.4151001,14.4078188c-0.9471169-0.4038353-1.938755-0.6751175-2.8305664-1.2504683
		c-0.4247818-0.2740459-1.0451241-0.3281345-1.5487137-0.5769548c-0.4493408-0.2220154-0.2078247,0.569664-0.6139221,0.4479074
		c0.1013069-1.1160402,0.5981865-2.1173935,0.9396744-3.1611872c0.4418564-1.3505735,0.8236656-2.7089777,0.9796906-4.1243711
		c1.4924812,0.2974973,2.8644447,0.9538674,4.2932854,1.4403276c0.3191681,0.1086621,0.4477844,0.3398609,0.3272667,0.6641774
		c-0.7639427,2.0558767-1.0304604,4.2235241-1.440136,6.3591757C39.5079956,14.2777472,39.4515877,14.3408728,39.4151001,14.4078188
		z"/>
	<path style="fill:#FD7C22;" d="M16.752636,15.3438749c0.0560913,0.1650076-0.110218,0.5995483,0.3406658,0.2878618
		c0.164278-0.1135626,0.3731441-0.1950788,0.478157-0.0234852c0.1464348,0.2392769-0.1037521,0.3969593-0.2753048,0.4549294
		c-0.3588505,0.1212597-0.3044987,0.3082733-0.2987728,0.6350689c0.0277767,1.5851154,0.3531914,3.1478977,0.1214809,4.7612877
		c-0.1945839,1.3548775-1.0868092,2.0508423-2.0116949,2.7686005c-0.4964123,0.3852386-1.0916166,0.6474762-1.6553135,0.9400349
		c-0.3155622,0.1637707-0.6463108,0.2779007-1.0269766,0.1571808c-0.5181503-0.1643162-1.0125618,0.1003323-1.520812,0.1447639
		c-0.241581,0.0211201-0.3477163,0.2123432-0.3524094,0.4391556c-0.0096064,0.4643002-0.0101871,0.9290085-0.0027065,1.3933544
		c0.0043278,0.2686272,0.1719646,0.3800564,0.4167252,0.4798698c0.4349136,0.1773586,0.6657553,1.2699242,0.3923903,1.6998634
		c-0.1819916-0.6445522,0.0252533-1.546175-1.0550938-1.5972271c-0.0439949-0.6434765-0.0793648-1.2877026-0.135231-1.9301472
		c-0.0333014-0.3829651,0.0457058-0.594202,0.4865408-0.710535c0.7224121-0.1906357,1.4343834-0.3675213,2.1814337-0.4711895
		c1.8411961-0.2555084,4.0928497-1.6354771,4.0944004-4.3938046c0.0011654-2.0707417-0.2432022-4.0902252-0.7532482-6.100071
		c-0.4484615-1.7671633-0.7595539-3.5702848-1.0934582-5.3645697c-0.0735703-0.3953362-0.0293589-0.8386192,0.3943014-1.0944471
		c1.1888018-0.7178617,2.3535147-1.4826465,3.6895113-1.91606c0.0242863,2.5902057,1.0833054,4.9053054,1.9289627,7.277576
		c0.2745094,0.7700586,0.53302,1.5458202,0.7989159,2.3189554c-0.4166965-0.1828585-0.5627518-0.5414-0.6491814-0.9556103
		c-0.0553055-0.2650452-0.089407-0.5500278-0.314888-0.7480011c-0.0012493-0.3246412-0.2316093-0.3041964-0.4514885-0.2995558
		c-0.0214672-0.1596689-0.0655899-0.3206587-0.26828-0.2816172c-0.2428074,0.046771-0.1810398,0.2641783-0.1973476,0.4318876
		c-0.3102169,0.0529566-0.6204319,0.1059132-0.9306488,0.1588678c-0.2429581-0.241087-0.2809715-0.0526695-0.3125858,0.1491566
		c-0.1026573,0.0021057-0.2053146,0.0042105-0.307972,0.0063162c-0.6787853-0.2415829-1.3390484-0.3735485-1.8607769,0.3143997
		C16.3380623,14.6767721,16.5041218,15.0161467,16.752636,15.3438749z M17.3746052,10.7461205
		c0.4602108,0.5362988,1.2723198,0.8996458,1.9722004,0.9087677c0.0742321,0.0009661,0.1487293,0.0369148,0.2217884,0.0606747
		c0.1509361,0.0490847,0.3108807,0.1011658,0.3968925-0.0880327c0.0757999-0.1667356-0.0161877-0.3148441-0.1395836-0.4076242
		c-0.3664932-0.2755661-0.3826141-0.6891108-0.5069256-1.0786867c-0.1131783-0.354681,0.0384312-0.7655058-0.2148075-1.1097927
		c-0.2937756,0.2271233-0.4280682,0.489542-0.5397243,0.7844181c-0.0894508,0.2362309-0.3736858,0.3305349-0.4614449,0.0765715
		c-0.3337574-0.9658518-0.7109509-0.5242853-1.1410599,0.0791883c-0.0416374-0.5815954-0.225584-1.0438738,0.4686432-1.1363602
		c1.4708862-0.1959572,1.57337-0.3396101,1.5023136-1.7846804c-0.0249405-0.5071573-0.1649971-0.5990586-0.6698341-0.4371243
		c-0.6430607,0.2062721-1.1130867,0.681468-1.7200222,0.9315042c-1.0981054,0.4523807-1.4125223,1.1121559-0.7650251,2.1282158
		c0.4293108,0.6736794,1.0792189,1.2053261,1.2992258,2.0333633C17.3855896,11.4578695,17.0651283,11.0445137,17.3746052,10.7461205
		z"/>
	<path style="fill:#947264;" d="M44.0743065,37.2279739c0.1819954-0.1277313,0.1439323,0.0696335,0.1964684,0.1333466
		c0.1342888,1.1749039-0.5567818,1.9858971-1.8139534,2.1390152c-0.9985962,0.1216278-2.0011826,0.1467857-3.0056953,0.1849976
		c-3.4794769,0.1323624-6.9599838,0.0957985-10.4400101,0.1358604c-1.4967575,0.017231-2.9713039-0.2094345-4.4604778-0.2465973
		c-0.2124367-0.0052986-0.4742832,0.003952-0.6464615-0.1988449c0.7996368-0.5555229,1.6769524-0.6653328,2.5860615-0.3752174
		c0.3367214,0.1074524,0.6100082-0.0203629,0.8965111-0.0835609c0.7212906-0.1590919,1.4320068-0.3661308,2.146904-0.5541534
		c0.2218513,0.1208878,0.4154835,0.2648468,0.7016315,0.2774429c1.4104271,0.0621071,2.8321781,0.0743752,4.232214,0.0660019
		c2.6077766-0.0155983,5.2191124,0.01017,7.8276672-0.0593987c0.4352455-0.0116119,0.8687363-0.0961342,1.3025665-0.1506844
		c0.2529335-0.0318031,0.4267921-0.0929489,0.3811378-0.4372253C43.9433136,37.7908936,44.037674,37.5056038,44.0743065,37.2279739z
		"/>
	<path style="fill:#181813;" d="M45.4257889,30.7138729c-0.8068542-0.2722588-1.0677452-0.7496681-0.8179169-1.5096111
		c0.069809-0.2123489,0.1572227-0.4189072,0.2365913-0.6282253c0.3810577,0.1719589,0.7367706-0.1836185,1.1157875-0.0536804
		c1.114502,0.1049175,2.1815033,0.4740505,3.3179092,0.5141811c0.669445,0.0236397,0.3294563,0.7375641,0.40131,1.1286812
		c0.0795212,0.4329357-0.3653145,0.2715378-0.5305595,0.2337799C47.8689003,30.106535,46.6539688,30.4687424,45.4257889,30.7138729z
		"/>
	<path style="fill:#181813;" d="M10.3029709,27.8851337c1.0803471,0.0510521,0.8731022,0.9526749,1.0550938,1.5972271
		c0.0036449,0.0811539,0.0072756,0.162262,0.0106449,0.2418766c-0.100275,0.1034546-0.2002878,0.2084007-0.3003025,0.3133411
		c-0.0843153,0.0421162-0.1686316,0.0842304-0.2523661,0.1260204c-0.1498995,0.0334187-0.3003817,0.0671597-0.4508638,0.1008987
		c-0.8785067,0.1485043-1.5780191,0.7415447-2.4234753,0.97575c-0.260253,0.0720921-0.6036019,0.32617-0.6280756-0.1664581
		c-0.0206566-0.4157925-0.8023891-0.8829727,0.0353808-1.2657948c0.3499537-0.1599121,0.709393-0.2989464,1.0626044-0.4518967
		c0.1870642-0.0810032,0.4376707-0.135479,0.4546938-0.3730431C8.9323759,28.0609932,9.6729422,28.0514622,10.3029709,27.8851337z"
		/>
	<path style="fill:#947264;" d="M11.8815975,38.79282c1.2822847-0.0410652,2.5587873-0.0329208,3.840579,0.1081963
		c1.6390429,0.1804504,3.2754545-0.1954536,4.9171839-0.1304092c0.0989399,0.4308128-0.2987251,0.2901382-0.4712219,0.4002609
		c-0.2687817,0.1715927-0.7175655,0.082077-0.7811699,0.5478745c-1.7395496,0.0597801-3.4679928,0.3492966-5.222621,0.1125336
		C13.2711687,39.7107544,12.6036177,39.2217636,11.8815975,38.79282z"/>
	<path style="fill:#FD7C22;" d="M45.9602509,28.522356c-0.3790169-0.1299381-0.7347298,0.2256393-1.1157875,0.0536804
		c0.3078575-0.2321358,0.6883278-0.3249092,0.8622475-0.7747955c0.4626579-1.1968193,0.3162041-1.5824356-0.8948174-1.8184357
		c-0.5993767-0.1168041-1.214756-0.1515179-1.8229179-0.2234173c-0.053112-0.0012741-0.1061935-0.0025063-0.1592827-0.0037346
		c-0.1800957-0.1150417-0.441143-0.1436939-0.4598541-0.4309235c1.1538162,0.1614456,2.3100815,0.3073349,3.4598732,0.4932938
		c0.3706856,0.0599499,0.5573883,0.2922096,0.4502335,0.7296276C46.1213875,27.1948681,45.9386368,27.8437195,45.9602509,28.522356z
		"/>
	<path style="fill:#FD7C22;" d="M40.3946419,24.4478054c-0.9487801-0.169138-1.4152603-0.8761349-1.8466034-1.6350632
		c-0.3047981-0.5362778-0.4010811-1.1309853-0.5142174-1.7183857c-0.0582619-0.302494-0.0656853-0.6478634,0.4200592-0.6153011
		c0.0146408,0.1146812,0.0292854,0.2293091,0.0438347,0.3436737c-0.2229919,0.6872005,0.1077309,1.2539902,0.3987465,1.8294373
		C39.2373466,23.3829651,39.8594475,23.8791313,40.3946419,24.4478054z"/>
	<path style="fill:#FD7C22;" d="M38.3314018,18.9012451c-0.0872078-1.350914,0.1358795-2.6407433,0.7582664-3.8519154
		c0.0041466,0.9444218-0.3746109,1.8208771-0.488987,2.7456665C38.554409,18.1691246,38.4236908,18.5328083,38.3314018,18.9012451z"
		/>
	<path style="fill:#947264;" d="M10.3651772,30.2644978c0.1504822-0.0337391,0.3009644-0.0674801,0.4508657-0.1008987
		c-0.2550907,0.7672405,0.3496046,1.480999,0.1380758,2.2444859C10.7576427,31.6930523,10.56141,30.9787769,10.3651772,30.2644978z"
		/>
	<path style="fill:#181813;" d="M38.8964615,22.6521664c-0.2910156-0.5754471-0.6217384-1.1422367-0.3987465-1.8294373
		C38.6543312,21.4275665,38.9283333,22.0065365,38.8964615,22.6521664z"/>
	<path style="fill:#947264;" d="M28.7149696,10.9836483c-0.2485161,0.3661327-0.4982834,0.6937628-0.7804146,0.0254564
		C28.1961212,11.0431385,28.4479809,10.7820425,28.7149696,10.9836483z"/>
	<path style="fill:#FD7C22;" d="M39.301693,14.7496061c-0.0329399-0.0308666-0.0658798-0.0617352-0.0988159-0.0926027
		c0.0612259-0.0256071,0.1224518-0.0512123,0.183651-0.0767593C39.4161186,14.6657333,39.3905182,14.7235041,39.301693,14.7496061z"
		/>
	<path style="fill:#FD7C22;" d="M40.8467903,24.8173733c-0.1433182-0.0074806-0.2935677-0.0063229-0.271595-0.2192059
		C40.7228661,24.6009178,40.8295517,24.6539669,40.8467903,24.8173733z"/>
	<path style="fill:#FD7C22;" d="M40.5570831,24.589983c-0.1123009,0.0306778-0.1589546-0.0188408-0.156292-0.1286087
		C40.4531059,24.5039749,40.5050926,24.5469799,40.5570831,24.589983z"/>
	<path style="fill:#FD7C22;" d="M25.9164143,31.1930141c-0.0069847,0.1699238,0.0213413,0.3521709-0.1609097,0.4609184
		c-1.4815998-0.2815742-2.6227779-1.0445843-3.237854-2.4426384c-0.1979942-0.4500389-0.4114418-0.4166279-0.6898918-0.2036457
		c-0.4285049,0.3277512-0.8260956,0.696579-1.2295303,1.0561428c-0.1786766,0.1592484-0.34795,0.3330917-0.1112652,0.5836277
		c0.1769505,0.1873016,0.3683701,0.2819901,0.6183147,0.1472549c0.3369617-0.181654,0.6490116-0.4056835,1.0520058-0.4518986
		c0.5860596-0.0672131,1.3162384,0.4318581,1.3904114,0.9806118c0.0253601,0.1876335-0.055687,0.281044-0.2393932,0.3219109
		c-0.9547806,0.2123852-1.7876797,0.688858-2.6011238,1.2082672c-0.2401848,0.1533699-0.5462742,0.28228-0.5070686,0.6162491
		c0.0454082,0.3868294,0.3949623,0.5304642,0.7141266,0.6299934c0.6108246,0.1904869,1.2366676,0.3324661,1.8492947,0.5176773
		c0.2636642,0.0797157,0.5972805,0.1463127,0.6296444,0.4904137c0.0383835,0.4080582-0.3769379,0.3168678-0.5751152,0.4684296
		c-0.7447605,0.5695953-1.3867073-0.0116081-2.047657-0.1465149c-0.87533-0.1786575-1.6752968-0.3193321-2.5334644,0.1692009
		c-0.7587452,0.4319344-3.0502148-0.2001114-3.68962-0.7750854c-1.0057507-0.9043922-1.6499567-2.0064201-2.0313396-3.2802963
		c-0.1620235-0.5411835-0.216094-1.1115742-0.1461868-1.6637936c0.0872316-0.6890564,0.2576408-1.369627,0.1887312-2.0694809
		c-0.0560961-0.5697212,0.4546881-0.7694416,0.6962595-1.1450214c0.5576963-0.8670654,1.5622168-1.2558022,2.1803265-2.058609
		c0.1117601-0.1451569,0.2818575-0.0645275,0.4183922,0.0269985c0.584918,0.3921127,0.7565279,0.0591602,0.7367373-0.4602203
		c-0.0265484-0.6967297,0.6714706-0.915781,0.8976898-1.4593163c0.2214565-0.532093,0.9661255-0.8187332,0.5882111-1.634779
		c-0.1256618-0.2713432,0.4809666-0.4807816,0.5547428-0.8699093c0.1270256-0.6699829,0.3504505-1.2281933,1.0682926-1.57407
		c0.58284-0.2808323,0.4218655-1.0581074-0.2455368-1.4332867c0.1992149-0.1278362,0.3918991-0.2382107,0.5702553-0.3682404
		c0.7533684-0.5492363,0.8471565-0.5344048,1.4036388,0.2728481c0.1385517,0.2009888,0.2014771,0.5383377,0.5596581,0.3441105
		c0.345705-0.1874638,0.3173275-0.4078217,0.134861-0.7592907c-0.1803837-0.3474579-0.296175-0.7704268-0.2334785-1.1963644
		c0.2863922,0.8410921,1.2263374,1.343154,1.2136879,2.3394022c-0.1454544-0.0708847-0.3242378-0.1329346-0.4263191,0.0118923
		c-0.3283215,0.4657841,0.4285603,0.884613,0.0689983,1.3905277c-0.1439133,0.2024899-0.0067215,0.4060307,0.2680073,0.4043636
		c0.1501522-0.0009098,0.298645-0.0732994,0.4502621-0.0868092c0.1862164-0.0165939,0.4075737,0.0069618,0.4080257,0.2418499
		c0.0009365,0.4864254,0.1815891,0.7193375,0.6889381,0.6082859c0.0273933,0.3651314-0.0665607,0.7525959,0.2466812,1.0591393
		c0.1549473,0.1516361,0.3312416,0.2270813,0.5298424,0.2951946c0.1867447,0.0640507,0.4574566,0.1527863,0.3827553,0.4059811
		c-0.2889423,0.9793701,0.066637,2.010294-0.2635574,2.9811649c-0.0008392,0.150959-0.0016747,0.3019199-0.0025139,0.452877
		c-0.1776085,0.1212158-0.1776562,0.3056278-0.1523666,0.4841557c0.0642223,0.4534035,0.193924,0.9039764,0.2018433,1.3573513
		c0.0110569,0.6327095,0.5570183,1.4048481-0.4297237,1.8344402c-0.1772652,0.077177-0.051096,0.3392124,0.0947552,0.4552383
		c0.2391052,0.1902142,0.4997444,0.3533649,0.7512989,0.5279293c0.1435661,0.2595177-0.7676735,0.5103664-0.0063744,0.7749557
		C25.9140091,31.0864334,25.9152107,31.1397228,25.9164143,31.1930141z M15.0359173,28.5122929
		c0.3891516,0.8567047,0.7403908,1.8537006,1.5070515,2.6124134c0.1351528,0.1337547,0.4885387,0.1437855,0.5659389-0.0234146
		c0.1980629-0.4278584,0.6272602-0.5837784,0.9304981-0.8689804c0.5353127-0.5034733,0.546381-1.2602291,1.0310574-1.7715759
		c0.3003883-0.3169174,0.5958157-0.8536129,0.3670368-1.1619625c-0.2264595-0.3052273-0.7385597,0.0155621-1.0974979,0.1952572
		c-0.2937679,0.1470718-0.685957,0.2698193-0.803751-0.0884399c-0.3779926-1.1496429-0.8155613-0.6224308-1.3207417-0.1235466
		c-0.1765537,0.1743546-0.4313259,0.276226-0.6617689,0.3876362C15.2456532,27.8186283,15.0818949,28.0541763,15.0359173,28.5122929
		z M18.6982536,23.8424301c-0.2257328-0.0864277-0.4002056-0.1485996-0.4901009,0.0241966
		c-0.1154823,0.2219753,0.0973816,0.3022919,0.231636,0.4188919c0.2963886,0.2574158,0.5116749,0.5793877,0.6442318,0.9470139
		c0.3172684,0.8798904,0.9046097,1.6084366,1.3494949,2.4165859c0.2227001,0.4045391,0.6215324,0.4929504,1.0696049,0.3224411
		c0.2174568-0.0827503,0.5085926-0.1100101,0.4965649-0.400486c-0.0193233-0.4666786-0.5214863-0.5139351-0.7848644-0.7728958
		c-0.0578938-0.056921-0.2441711,0.0346432-0.3676987,0.0220909c-0.1602726-0.0162849-0.3188076-0.0925293-0.2937622-0.2845936
		c0.0233898-0.1793861,0.1814804-0.1418819,0.3063908-0.1150723c0.6378613,0.1369076,0.3719368-0.2058258,0.2249393-0.4446335
		c-0.3443146-0.5593567-0.8642006-0.9606133-1.4113293-1.2732258c-0.4645271-0.2654133-0.5654125-0.3644047-0.0029221-0.5722885
		c0.159668-0.0590096,0.3813095-0.1423321,0.2904415-0.378109c-0.098814-0.2563915-0.3464298-0.1676273-0.5409851-0.148571
		C19.1445236,23.6307449,18.9352741,23.9217129,18.6982536,23.8424301z"/>
	<path style="fill:#EC4D0B;" d="M44.0743065,37.2279739c-0.0366325,0.2776299-0.1309929,0.5629196-0.0954361,0.8309822
		c0.0456543,0.3442764-0.1282043,0.4054222-0.3811378,0.4372253c-0.4338303,0.0545502-0.867321,0.1390724-1.3025665,0.1506844
		c-2.6085548,0.0695686-5.2198906,0.0438004-7.8276672,0.0593987c-1.4000359,0.0083733-2.8217869-0.0038948-4.232214-0.0660019
		c-0.2861481-0.0125961-0.4797802-0.1565552-0.7016315-0.2774429c0.4939404-0.4971313,0.1012592-1.0547104,0.0614834-1.5694962
		c-0.0201836-0.2612419-0.2672043-0.020752-0.3981247,0.0658455c-0.1933308,0.1278725-0.2937565,0.4978714-0.6151752,0.2924156
		c-0.2521076-0.1611519-0.1918812-0.4533501-0.1804123-0.7088585c0.0137939-0.3071785,0.029808-0.614254,0.0448799-0.9214401
		c0.4835339-0.4854431,0.2985973-1.0328217,0.0910301-1.5400467c-0.32411-0.7920265-0.3520145-1.6082077-0.2620983-2.4292126
		c0.0283146-0.2585564,0.0296211-0.6923256,0.4862404-0.6556759c0.3513088,0.0282001,0.4710026,0.2962399,0.5746326,0.6271877
		c0.3606815,1.1518459,0.4385548,2.428072,1.3945732,3.3342266c0.0679245,0.0643845,0.1376743,0.191288,0.1207733,0.2709084
		c-0.2056046,0.9685364,0.6153507,0.604538,0.8422985,0.5081177c0.6592236-0.2800713,1.3307247-0.1886597,1.9916172-0.242424
		c1.2059975-0.098114,2.3885651,0.2872124,3.5633888,0.3300438c1.5278893,0.055706,3.1339836,0.0180779,4.5239983-0.9110565
		c0.8123665-0.5430107,1.1366653-0.3762054,1.3769836,0.581646c0.0304756,0.1214752,0.0736198,0.2470856,0.1415405,0.3506851
		c0.4946175,0.7543869,0.4971008,0.752758-0.3971672,0.990715C43.1694794,37.2144318,43.5913696,37.2912865,44.0743065,37.2279739z
		 M37.3919754,37.5718079c1.3279152,0.4276962,1.3279152,0.4276962,1.7271385,0
		C38.5985947,37.5718079,38.0948219,37.5718079,37.3919754,37.5718079z"/>
	<path style="fill:#FA6E1D;" d="M25.4558945,25.1462002c0.3301945-0.970871-0.0253849-2.0017948,0.2635574-2.9811649
		c0.0747013-0.2531948-0.1960106-0.3419304-0.3827553-0.4059811c-0.1986008-0.0681133-0.3748951-0.1435585-0.5298424-0.2951946
		c-0.313242-0.3065434-0.2192879-0.6940079-0.2466812-1.0591393c-0.507349,0.1110516-0.6880016-0.1218605-0.6889381-0.6082859
		c-0.000452-0.2348881-0.2218094-0.2584438-0.4080257-0.2418499c-0.1516171,0.0135098-0.3001099,0.0858994-0.4502621,0.0868092
		c-0.2747288,0.001667-0.4119205-0.2018738-0.2680073-0.4043636c0.3595619-0.5059147-0.3973198-0.9247437-0.0689983-1.3905277
		c0.1020813-0.1448269,0.2808647-0.082777,0.4263191-0.0118923c0.196476,1.0449123,1.316885,1.2370987,1.8397713,1.9890461
		c0.2753296,0.3959427,0.6011848,0.7317238,1.1434364,0.8560009c0.4869957,0.1116161,0.6994553,1.0078297,0.4618244,1.6857281
		c-0.2642269,0.7537727-0.2519684,1.504488-0.0502548,2.2633762c0.2469654,0.9291382,0.3944454,1.8686771,0.3061218,2.8338852
		c-0.1201859,0.005394-0.2202625,0.0457268-0.2778759,0.1598778c-0.4354324,0.0859356-0.2686653,0.4031754-0.264534,0.6677322
		c0.0105629,0.6765022,0.0557938,1.3613853-0.3416348,1.967926c-0.251482-0.1745548-0.5121212-0.3377056-0.7512264-0.5279198
		c-0.1458511-0.1160259-0.2720203-0.3780613-0.0947552-0.4552383c0.986742-0.4295921,0.4407806-1.2017307,0.4297237-1.8344402
		c-0.0079193-0.4533749-0.1376209-0.9039478-0.2018433-1.3573513c-0.0252895-0.1785278-0.0252419-0.3629398,0.1522865-0.4841518
		c0.0786285,0.0624962,0.172739,0.1128407,0.2332859,0.1896477c0.22332,0.2833004,0.3278179,0.9440994,0.6776485,0.7681713
		c0.3884125-0.1953297,0.1768799-0.8204765,0.0893192-1.2528553c-0.0722103-0.3565731-0.215519-0.6803303-0.6373158-0.2430897
		C25.7441425,25.1356888,25.5783844,25.1200752,25.4558945,25.1462002z"/>
	<path style="fill:#FD7C22;" d="M26.5252838,27.6225243c0.0576134-0.114151,0.15769-0.1544838,0.2778759-0.1598778
		c0.0193596,1.1376648,0.0387211,2.275341,0.0581017,3.4130058c-0.2663097-0.1865597-0.1687145-0.468586-0.1721001-0.7136173
		C26.6774292,29.3123627,26.7180977,28.4602737,26.5252838,27.6225243z"/>
	<path style="fill:#FD7C22;" d="M34.8360596,31.8588047c-0.6028709-0.24049-1.1344185-0.0435333-1.6713028,0.0992336
		c-0.2488289,0.0661659-0.4903183,0.1597404-0.7356644,0.2392502c-1.5224953,0.4934006-2.135231,0.2039032-2.3521881-1.6231441
		c-0.1413498-1.1903362,0.2979069-2.303463,0.2408466-3.4516506c-0.0464821-0.9353085-0.2515965-1.8795109-0.63377-2.743021
		c-0.1592617-0.3598442-0.1898861-0.6666641,0.1274223-0.7716465c0.8694859-0.2876568,0.6179199-0.975069,0.5831013-1.5315456
		c-0.0832806-1.3308582,0.3538628-2.0545673,1.6113701-2.6340084c0.9190712-0.4234943,1.9122696-0.7188129,2.5774879-1.6001568
		c0.3230019-0.4279461,1.6019325-0.1972542,1.8378639,0.3147507c0.4068871,0.8830147,1.1231613,1.648407,1.0876846,2.7103329
		c-0.0059395,0.1778011,0.0553932,0.4922047-0.0016518,0.5138969c-0.9372253,0.3563595-0.2064247,0.5355473,0.0167046,0.9012833
		c0.4325218,0.7089539,0.7999115,1.4662609,1.1465263,2.2315941c0.3321381,0.733366,0.7973022,1.4257698,1.3097038,2.0493126
		c0.224987,0.2737923,0.7374268,0.2678585,1.1128769,0.3960953c1.6588173,0.5665836,2.0448837,1.057682,2.2592621,2.7219276
		c0.0629501,0.4887085,0.3563614,0.9578209,0.3427277,1.5032158c-0.0091515,0.3660011-0.0647736,0.4926853-0.4220352,0.2948074
		c-0.5607452-0.3105736-0.6195564,0.0442524-0.5847015,0.4665718c0.0252037,0.3054276,0.1336288,0.6069069,0.1359406,0.9106712
		c0.0040321,0.5301323-0.1290436,0.9399261-0.805378,0.998909c-0.3640022,0.0317459-0.7128448,0.2791214-1.0606041,0.4457436
		c-0.5542603,0.265564-1.0972633,0.3804283-1.7083092,0.1355095c-0.5970497-0.2393112-1.2619095-0.0812836-1.8000832,0.1087646
		c-1.2611389,0.4453621-2.5518723-0.0067558-3.8149643,0.2901649c-0.5642433,0.132637-1.6183968-0.8337746-1.8254051-1.3666725
		c-0.1607361-0.4137688-0.0508118-0.6028214,0.3633614-0.7297287
		C33.0666275,32.4654198,33.9490242,32.1545372,34.8360596,31.8588047z M35.2407227,31.5824871
		c0.5976372,0.0693836,1.1060638-0.1545677,1.7374725-0.4187756C36.1840439,30.8433113,35.7727165,31.4422626,35.2407227,31.5824871
		z M42.559082,30.0985928c0.0810814-0.0419636,0.1787109-0.0608406,0.1930733-0.1061211
		c0.0365829-0.1153622-0.0512619-0.178709-0.1555023-0.1702747c-0.053566,0.0043316-0.1315384,0.0653419-0.1434479,0.1141644
		C42.44347,29.9762726,42.5153351,30.0360909,42.559082,30.0985928z"/>
	<path style="fill:#EC4D0B;" d="M28.2451878,26.9723759c0.2154083,0.4892464,0.2227764,0.8352089,0.5915642,0.9960594
		c0.2980366,0.1299877,0.1976738,0.4492702,0.1439667,0.6877651c-0.0597878,0.2655163-0.3382492,0.233736-0.5176201,0.2257786
		c-0.3863163-0.0171337-0.1915913-0.3470669-0.2078285-0.5325851
		C28.2217789,27.9667377,28.2451878,27.5790977,28.2451878,26.9723759z"/>
	<path style="fill:#EC4D0B;" d="M42.8296928,25.7556534c0.0530891,0.0012283,0.1061707,0.0024605,0.1592827,0.0037346
		c0.6010551,0.3806763,1.2811241,0.7061234,1.1505089,1.7543335C43.6376839,26.873476,43.0224228,26.4825153,42.8296928,25.7556534z
		"/>
	<path style="fill:#EC4D0B;" d="M44.6505432,33.9884567c-0.0631447,0.5111885-0.225872,0.7912788-0.6803055,0.7697563
		c-0.2678223-0.0126839-0.6881447,0.1049843-0.7222481-0.2392044c-0.0386848-0.3904152,0.3895149-0.1543274,0.5975075-0.2357292
		C44.0795135,34.1916924,44.3173485,34.1098747,44.6505432,33.9884567z"/>
	<path style="fill:#EC4D0B;" d="M28.6145287,24.6674156c-0.1892433-0.0080986-0.3857174-0.0474052-0.3418331-0.2864494
		c0.0377464-0.2055969,0.08494-0.4957924,0.4060612-0.4075127c0.1882286,0.0517464,0.5107269,0.031395,0.4568691,0.3745499
		C29.0914707,24.629343,28.8548031,24.6680584,28.6145287,24.6674156z"/>
	<path style="fill:#FD7C22;" d="M38.1277237,19.8420143c-0.135128-0.1409168-0.135128-0.2975521-0.0464096-0.4623032
		C38.2637711,19.5178356,38.1162148,19.6836891,38.1277237,19.8420143z"/>
	<path style="fill:#EC4D0B;" d="M28.385704,30.4896107c-0.0223045,0.0393009-0.0438213,0.0772114-0.06534,0.1151237
		c-0.0205479-0.0384483-0.0571995-0.0769291-0.0571136-0.1153316c0.0000877-0.0384254,0.03689-0.0767708,0.0576-0.1151485
		C28.3422089,30.4122448,28.3635654,30.4502354,28.385704,30.4896107z"/>
	<path style="fill:#EC4D0B;" d="M18.4627075,13.962285c0.1026573-0.0021057,0.2053146-0.0042105,0.3079777-0.0063038
		c0.1284924,0.0011873,0.2436905-0.0254803,0.3125801-0.149169c0.3102169-0.0529547,0.6204319-0.1059113,0.9306393-0.158884
		c0.1704216-0.0029392,0.3520794,0.0289412,0.4656372-0.1502542c0.2198792-0.0046406,0.4502392-0.0250854,0.4514885,0.2995558
		c-1.295845,0.5057573-2.7042885,0.6853361-3.9404049,1.3620691c-0.0869923,0.0476227-0.1590252,0.1225719-0.2380009,0.1846952
		c-0.2485027-0.3278475-0.4145622-0.667222-0.1507301-1.0674286c0.1968098,0.1008101,0.3139954,0.5550833,0.4834347,0.3847275
		C17.4845695,14.2598953,18.1338749,14.4331532,18.4627075,13.962285z"/>
	<path style="fill:#947264;" d="M11.0684071,30.0375824c0.1000147-0.1049442,0.2000275-0.2098904,0.3003025-0.313345
		C11.5334663,30.0847836,11.3215628,30.0810623,11.0684071,30.0375824z"/>
	<path style="fill:#FA6E1D;" d="M25.9164143,31.1930141c-0.0012035-0.0532913-0.0024052-0.1065807-0.0036011-0.1598663
		C26.0261593,31.0839195,26.021204,31.1373444,25.9164143,31.1930141z"/>
	<path style="fill:#FA6E1D;" d="M17.3746052,10.7461205c-0.3094769,0.2983932,0.0109844,0.7117491-0.2973633,0.9604025
		c-0.2200069-0.8280373-0.869915-1.359684-1.2992258-2.0333633c-0.6474972-1.0160599-0.3330803-1.6758351,0.7650251-2.1282158
		c0.6069355-0.2500362,1.0769615-0.7252321,1.7200222-0.9315042c0.504837-0.1619344,0.6448936-0.0700331,0.6698341,0.4371243
		c0.0710564,1.4450703-0.0314274,1.5887232-1.5023136,1.7846804c-0.6942272,0.0924864-0.5102806,0.5547647-0.4686432,1.1363602
		c0.430109-0.6034737,0.8073025-1.0450401,1.1410599-0.0791883c0.087759,0.2539635,0.371994,0.1596594,0.4614449-0.0765715
		c0.1116562-0.2948761,0.2459488-0.5572948,0.5397243-0.7844181c0.2532387,0.3442869,0.1016293,0.7551117,0.2148075,1.1097927
		c0.1243114,0.389576,0.1404324,0.8031206,0.5069256,1.0786867c0.1233959,0.0927801,0.2153835,0.2408886,0.1395836,0.4076242
		c-0.0860119,0.1891985-0.2459564,0.1371174-0.3968925,0.0880327c-0.0730591-0.0237598-0.1475563-0.0597086-0.2217884-0.0606747
		C18.646925,11.6457663,17.834816,11.2824192,17.3746052,10.7461205z"/>
	<path style="fill:#FA6E1D;" d="M18.4627075,13.962285c-0.3288326,0.4708681-0.978138,0.2976103-1.3773785,0.699008
		c-0.1694393,0.1703558-0.2866249-0.2839174-0.4834347-0.3847275C17.1236591,13.5887365,17.7839222,13.7207022,18.4627075,13.962285
		z"/>
	<path style="fill:#FA6E1D;" d="M20.4795418,13.497674c-0.1135578,0.1791954-0.2952156,0.147315-0.4656372,0.1502533
		c0.0163174-0.1676922-0.0454502-0.3850994,0.1973572-0.4318705C20.4139519,13.1770153,20.4580746,13.3380051,20.4795418,13.497674z
		"/>
	<path style="fill:#FA6E1D;" d="M19.0832653,13.8068123c-0.0688896,0.1236887-0.1840878,0.1503563-0.3125801,0.149169
		C18.8022938,13.7541428,18.8403072,13.5657253,19.0832653,13.8068123z"/>
	<path style="fill:#FA6E1D;" d="M15.0359173,28.5122929c0.0459776-0.4581165,0.2097359-0.6936646,0.5178232-0.8426132
		c0.230443-0.1114101,0.4852152-0.2132816,0.6617689-0.3876362c0.5051804-0.4988842,0.942749-1.0260963,1.3207417,0.1235466
		c0.117794,0.3582592,0.5099831,0.2355118,0.803751,0.0884399c0.3589382-0.1796951,0.8710384-0.5004845,1.0974979-0.1952572
		c0.2287788,0.3083496-0.0666485,0.8450451-0.3670368,1.1619625c-0.4846764,0.5113468-0.4957447,1.2681026-1.0310574,1.7715759
		c-0.3032379,0.285202-0.7324352,0.4411221-0.9304981,0.8689804c-0.0774002,0.1672001-0.4307861,0.1571693-0.5659389,0.0234146
		C15.7763081,30.3659935,15.4250689,29.3689976,15.0359173,28.5122929z"/>
	<path style="fill:#FA6E1D;" d="M18.6982536,23.8424301c0.2370205,0.0792828,0.44627-0.2116852,0.7216415-0.2386551
		c0.1945553-0.0190563,0.4421711-0.1078205,0.5409851,0.148571c0.090868,0.2357769-0.1307735,0.3190994-0.2904415,0.378109
		c-0.5624905,0.2078838-0.4616051,0.3068752,0.0029221,0.5722885c0.5471287,0.3126125,1.0670147,0.7138691,1.4113293,1.2732258
		c0.1469975,0.2388077,0.4129219,0.5815411-0.2249393,0.4446335c-0.1249104-0.0268097-0.2830009-0.0643139-0.3063908,0.1150723
		c-0.0250454,0.1920643,0.1334896,0.2683086,0.2937622,0.2845936c0.1235275,0.0125523,0.3098049-0.0790119,0.3676987-0.0220909
		c0.2633781,0.2589607,0.7655411,0.3062172,0.7848644,0.7728958c0.0120277,0.2904758-0.279108,0.3177357-0.4965649,0.400486
		c-0.4480724,0.1705093-0.8469048,0.082098-1.0696049-0.3224411c-0.4448853-0.8081493-1.0322266-1.5366955-1.3494949-2.4165859
		c-0.1325569-0.3676262-0.3478432-0.6895981-0.6442318-0.9470139c-0.1342545-0.1166-0.3471184-0.1969166-0.231636-0.4188919
		C18.298048,23.6938305,18.4725208,23.7560024,18.6982536,23.8424301z"/>
	<path style="fill:#EC4D0B;" d="M25.4558945,25.1462002c0.1224899-0.026125,0.2882481-0.0105114,0.3603439-0.0852451
		c0.4217968-0.4372406,0.5651054-0.1134834,0.6373158,0.2430897c0.0875607,0.4323788,0.2990932,1.0575256-0.0893192,1.2528553
		c-0.3498306,0.1759281-0.4543285-0.4848709-0.6776485-0.7681713c-0.0605469-0.076807-0.1546574-0.1271515-0.2332859-0.1896477
		C25.4542198,25.4481201,25.4550552,25.2971592,25.4558945,25.1462002z"/>
	<path style="fill:#FA6E1D;" d="M37.3919754,37.5718079c0.7028465,0,1.2066193,0,1.7271385,0
		C38.7198906,37.9995041,38.7198906,37.9995041,37.3919754,37.5718079z"/>
	<path style="fill:#FA6E1D;" d="M35.2407227,31.5824871c0.5319939-0.1402245,0.9433212-0.7391758,1.7374725-0.4187756
		C36.3467865,31.4279194,35.8383598,31.6518707,35.2407227,31.5824871z"/>
	<path style="fill:#FA6E1D;" d="M42.559082,30.0985928c-0.0437469-0.0625019-0.115612-0.1223202-0.1058769-0.1622314
		c0.0119095-0.0488224,0.0898819-0.1098328,0.1434479-0.1141644c0.1042404-0.0084343,0.1920853,0.0549126,0.1555023,0.1702747
		C42.737793,30.0377522,42.6401634,30.0566292,42.559082,30.0985928z"/>
</g>
</svg>
