<?xml version="1.0" encoding="utf-8"?>
<!-- Generator: Adobe Illustrator 21.1.0, SVG Export Plug-In . SVG Version: 6.00 Build 0)  -->
<svg version="1.1" id="Слой_1" xmlns="http://www.w3.org/2000/svg" xmlns:xlink="http://www.w3.org/1999/xlink" x="0px" y="0px"
	 viewBox="0 0 55 45" style="enable-background:new 0 0 55 45;" xml:space="preserve">
<g>
	<path style="fill:#504B4A;" d="M43.8978882,33.7362556c-0.9440041,1.0941772-2.2830315,1.5915794-3.4817848,2.3000565
		c-0.2879944,0.1702118-0.5935059,0.3107758-0.8909607,0.4649773c-0.7071609-0.0367508-1.3542824,0.2042656-2.0040245,0.4331551
		c-1.7926102-0.1956062-3.6134758-0.2545128-5.3713913-0.6179428c-2.8377495-0.5866737-5.6825294-1.037941-8.5691586-1.2847214
		c-2.2571526-0.1929626-4.4816113-0.5996628-6.5857201-1.4989357c-0.2026787-0.259037-0.4919395-0.1537628-0.7503414-0.1783218
		c-0.0646915-0.002533-0.1293831-0.0050659-0.1940727-0.0075989c-0.9032726-0.6509743-1.9452305-0.738987-3.0083475-0.7411194
		l0.0041447,0.0020142c-0.0995998-0.1395187-0.2468872-0.1633034-0.4050217-0.1943588
		c-1.3405218-0.2632904-2.6808968-0.5280113-4.0170298-0.8124352c-0.2891464-0.0615482-0.6449761-0.1336479-0.5799685-0.5693417
		c0.0856304-0.5739193,0.4402609-0.1345978,0.6308041-0.1216335c1.8830004,0.1281281,3.6700354,0.767168,5.5263348,1.072876
		c1.7381544,0.2862473,3.4301729,0.8540459,5.1411963,1.3028946c0.587719,0.1541748,0.9255772,0.0153236,0.8357105-0.6683083
		c0.0124016-0.0724716,0.0248013-0.1449509,0.0372009-0.2174263c0.6552181-0.1112862,0.3709736-0.8157845,0.7110386-1.1260719
		c0.5228348,0.387991,1.075779,0.654623,1.7605953,0.6346321c0.2975674-0.008688,0.5958843,0.1723099,0.9009514,0.2289886
		c1.540781,0.2862549,3.0757217,0.6240807,4.6282291,0.8221016c2.0246792,0.2582397,4.0239735-0.2532082,6.0383549-0.3411827
		c0.9717865-0.0424423,1.9321899-0.0395851,2.8523102-0.3983765c0.0143433,0.1366005,0.0286789,0.2731514,0.0430145,0.4097023
		c0.0016518,0.2457695,0.0032997,0.4915314,0.0049477,0.7372971c-0.5982742,0.2515526-0.4477119,0.9125519-0.7305107,1.3348198
		c-0.516201,0.7707825-0.0200615,0.9351196,0.6056137,1.082943c0.8183784,0.1933594,1.5128708-0.276371,2.2734146-0.3900108
		c1.0582504-0.158123,2.1547852-0.2802811,3.0717545-0.938282c0.0753365-0.1317215,0.197258-0.1670799,0.3380432-0.1634254
		c0.0751877-0.0649147,0.1503716-0.1298332,0.2255554-0.1947517l-0.0089951,0.0079689
		C43.3142433,34.1445732,43.5029259,33.6706772,43.8978882,33.7362556z M29.363903,34.8919907
		c0.0069637-0.0943108,0.0139275-0.1886177,0.0208931-0.2829285c-2.8102627-0.4163322-5.6205235-0.8326683-8.4307861-1.2490005
		c-0.0120945,0.077076-0.0241928,0.1541481-0.0362911,0.2312241C23.6880226,34.3057327,26.5167332,34.6563416,29.363903,34.8919907z
		"/>
	<path style="fill:#65221A;" d="M16.0504341,33.3469238c0.0646896,0.002533,0.1293812,0.0050659,0.1940556,0.0075722
		c0.1998158,0.2709923,0.4901981,0.1611023,0.7503586,0.1783485c2.1041088,0.8992729,4.3285675,1.3059731,6.5857201,1.4989357
		c2.8866291,0.2467804,5.7314091,0.6980476,8.5691586,1.2847214c1.7579155,0.36343,3.5787811,0.4223366,5.3713913,0.6179428
		c-0.3706474,0.5572777-1.06744,0.4154816-1.55373,0.7248802c-0.6857414,0.0203514-1.371479,0.040699-2.0569458,0.0609932
		c-0.1251106-0.0004921-0.2504921-0.0009346-0.3758774-0.0013733c-0.1921272-0.0013313-0.3842621-0.002655-0.5763893-0.0039825
		c-2.5039463-0.3233452-5.0078926-0.6466827-7.511837-0.9700279c-0.1048603-0.0579491-0.2049732-0.1546822-0.3152714-0.1681824
		c-2.7340031-0.3345833-5.4300938-0.8630371-8.1058407-1.514389c-1.0122547-0.2464104-1.9295464-0.8974113-3.0403194-0.7289543
		c-0.6027918-0.0929718-1.2055845-0.1859398-1.8083763-0.2789116c-0.248683-0.2230263-0.5317793-0.1943398-0.822155-0.1124001
		c-0.2808914-0.2061081-0.5599394-0.4165115-0.9357443-0.4013023c-0.5846167-0.2326851-1.1184931-0.5482254-1.5864286-0.9714546
		c-0.1129436-0.0921364-0.2258854-0.184269-0.3388138-0.2764053c0.4927263-0.6104794,1.2124119-0.3211861,1.6647234-0.162384
		c0.9548388,0.3352356,1.9078169,0.4291916,2.8881273,0.4773254l-0.0041113-0.0021133
		C13.9793749,33.1188316,14.9864264,33.3484612,16.0504341,33.3469238z"/>
	<path style="fill:#78797B;" d="M49.5373421,12.6462765c0.1250839,0.1093855,0.2501678,0.2187729,0.3752632,0.3281031
		c-0.0663261,0.9357405,0.5356445,1.6632881,0.7797699,2.5023451c-0.4146576,0.5784512-0.8184929,1.1610317-1.1949463,1.7685566
		c-1.0601044,1.7108307-1.921711,3.5585556-3.360054,5.0166454c-0.5538292,0.0781651-0.7778854,0.417223-0.753685,0.9526825
		l0.0086708-0.0075035c-1.2236404-0.2417946-1.9532852,0.906332-3.0302734,1.0911541
		c-0.0817871,0.0140305-0.1234703,0.2616634-0.1837997,0.400713c-0.3108215,0.0158672-0.6216469,0.0317326-0.9324722,0.047596
		c0.0175209-0.2823715-0.0923347-0.3654175-0.3470459-0.2217674c-0.095253-0.1498089-0.2373657-0.201828-0.4075317-0.1953087
		c-0.0625534-0.0627403-0.1250992-0.1254807-0.1876488-0.188221c-0.2233772-0.6041164-0.8281097-0.6898174-1.2999077-0.9562244
		c-0.0049706-0.1194344-0.0099411-0.2388668-0.0149193-0.3583088c0.3218002,0.0181999,0.6088982-0.0335369,0.7529297-0.3736095
		c0.1240005-0.0015526,0.2480049-0.0031052,0.3720055-0.0046539c0.4561195-0.0419922,0.9744415,0.1731434,1.3575211-0.1630726
		c0.8961868-0.7865524,2.031971-1.1869678,2.9637871-1.9057064c0.3166084-0.2442112,0.6708069-0.4987736,0.8647957-0.8318996
		c0.6059189-1.0405102,1.6435509-1.7378521,2.185051-2.8156834c0.15345-0.3054314,0.6966782-0.2056313,0.6679802-0.5659828
		c-0.0838776-1.0532455,0.4627533-2.0543251,0.2190781-3.1112146C48.7502785,12.8898649,49.2143173,12.969162,49.5373421,12.6462765
		z"/>
	<path style="fill:#DCDADA;" d="M35.9673882,37.6593285c0.48629-0.3094025,1.1830826-0.1676064,1.55373-0.724884
		c0.6497421-0.2288895,1.2968636-0.4699059,2.0040245-0.4331551c0.141098,0.2563553-0.3692932,0.4012413-0.0887909,0.7376137
		c0.1736641,0.2082596-0.0844498,0.5739555-0.2997704,0.5672722c-1.2504463-0.0388145-1.9276924,1.0541267-2.9517784,1.4804649
		c-0.7448769,0.3101006-1.474247,0.2902985-2.1665955,0.3348007c-1.1950569,0.0768051-2.3482151,0.3561287-3.6486759,0.0573616
		c-1.3863239-0.3184929-2.9484997-0.5768356-4.4433212-0.1858864c-0.9327831,0.2439499-1.7146587-0.3745308-2.6262646-0.4086266
		c-3.4876232-0.130455-6.7705097-1.5108299-10.2423077-1.8015099c-0.2392521-0.020031-0.507164-0.1061249-0.6963997-0.2484093
		c-1.1702995-0.8799438-2.5626936-1.463047-3.4871407-2.6769981c-0.4026051-0.5286827-0.238595-1.3252296-1.2353959-1.706028
		c0.6356978-0.0436783,0.9145732-0.0628433,1.1934752-0.0820045c0.4679613,0.4232292,1.0018377,0.7387695,1.5864325,0.9714432
		c-0.0184164,0.1511726-0.3244133,0.1536484-0.1483507,0.4360275c0.3666458,0.588047,0.777915,1.0994987,1.4199219,1.4024277
		c1.8535948,0.8746033,3.797348,1.4690018,5.7889719,1.9362335c2.526083,0.5926208,5.089241,0.7891273,7.6718636,0.9718246
		c2.8264332,0.1999397,5.6385136,0.5768738,8.4824791,0.5190125c0.7621765-0.0155029,1.4030304-0.446125,2.15131-0.5064583
		C36.1847534,38.2676086,36.1296692,37.9398613,35.9673882,37.6593285z"/>
	<path style="fill:#78797B;" d="M5.9852834,30.7384148c-2.7156303-2.5382862-2.7858663-6.6948128-0.1566782-9.2787704
		c0.4509287,0.0764904,0.3492193,0.803196,0.7914662,0.7680035c0.5512428-0.0438652,0.806622,0.3164177,1.1459079,0.5908852
		c-0.0098634,0.1979713-0.0199151,0.3958778-0.0299664,0.5937843c-0.3216681,0.0254974-0.3880067,0.2943115-0.4592462,0.5233192
		c-0.49968,1.6062775-0.5946908,3.2383919-0.2779469,4.8924751c-0.2486072,0.5733299-0.3631325,1.1248684,0.3257928,1.4833698
		c0.3402567,0.177063,0.1594977,0.4060688,0.0984726,0.6272945c-0.1173334,0.4253578-0.2990561,0.0869064-0.4638939,0.0416145
		C6.6367397,30.8917789,6.3101568,30.8182087,5.9852834,30.7384148z"/>
	<path style="fill:#96999C;" d="M7.3917079,20.2734585c0.3117661-0.3850956,0.9399037-0.4090214,1.0565972-1.0774956
		c0.0426493-0.2443104,0.6994972-0.1341095,0.9983387-0.1019707c1.3375578,0.1438465,2.5419779-0.3460617,3.7395344-0.7268658
		c4.6716003-1.4854851,9.2412548-3.2631617,13.8166676-5.0187263c0.8410034-0.32269,1.6414471-0.7621174,2.3750477-1.3063402
		c0.6184788-0.4588194,1.3161583-0.6989498,2.0952816-0.6695671c-0.0390167,0.2946434,0.135973,0.6548605-0.1875458,0.8653717
		c-1.1671104,0.7594357-2.4257507,1.3586187-3.7093811,1.873868c-1.1664524,0.468215-2.3946934,0.7906208-3.6401691,1.0119324
		c-0.2532501,0.045001-0.5005226,0.1109447-0.65695,0.3193722c-0.5837536,0.777813-1.662672,1.0618916-2.3226814,1.0485516
		c-0.9541416-0.0192852-1.6284943,0.5247593-2.3101482,0.7911396c-1.2370472,0.4834232-2.7303381,0.4958496-3.7157888,1.5812473
		c-1.8655701-0.0660419-3.5334482,0.5302601-5.0847149,1.5173645c-0.4923487-0.0561142-0.8809462,0.095356-1.1144991,0.5570335
		C8.201539,20.8844128,7.574862,21.025713,7.3917079,20.2734585z M31.1686478,12.0336514
		c-0.0573521-0.0173979-0.0929451-0.0281944-0.1285343-0.0389919c0.0067425,0.0234365,0.0134888,0.046874,0.0202312,0.0703125
		C31.0877628,12.0570431,31.1151791,12.0491133,31.1686478,12.0336514z"/>
	<path style="fill:#E9553C;" d="M46.1373749,22.2619267c1.438343-1.4580898,2.2999496-3.3058147,3.360054-5.0166454
		c0.3764534-0.6075249,0.7802887-1.1901054,1.1943588-1.7683954c0.0952187,0.01437,0.1910286,0.0285788,0.2868347,0.0427895
		c0.1309242,0.3652372,0.2618484,0.7304754,0.3927727,1.0958815c-0.27808,0.7959881-1.1972313,1.3890171-0.7624207,2.410347
		c-0.7085381,1.0227795-0.8097267,2.3197746-1.5106659,3.3459854C47.992218,22.199852,47.992218,22.199852,47.999157,23.395771
		c-0.9838562,0.7734661-2.0077171,1.4561729-3.3278351,1.4666939c-0.081955-0.0523415-0.1639061-0.1046848-0.2458534-0.1570244
		c0.2723389-0.5316868,0.8231964-0.8836403,0.9668922-1.4983349l-0.0086937,0.0074272
		C45.7359505,22.9769249,46.0841293,22.7361145,46.1373749,22.2619267z"/>
	<path style="fill:#78797B;" d="M14.9305258,18.8638344c0.9854355-1.0852566,2.4787264-1.097683,3.7157736-1.5811062
		c0.681654-0.2663803,1.3560066-0.8104248,2.3101482-0.7911396c0.6600094,0.01334,1.7389278-0.2707386,2.3226814-1.0485516
		c0.1564274-0.2084274,0.4036999-0.2743711,0.65695-0.3193722c1.2454758-0.2213116,2.4737167-0.5437174,3.6401691-1.0119324
		c1.2836304-0.5152493,2.5422707-1.1144323,3.7093811-1.873868c0.3235188-0.2105112,0.1485291-0.5707283,0.1875458-0.8653736
		c0.1147232-0.0469551,0.229454-0.0939236,0.3442955-0.1409607c0.0569706,0.5156088,0.0646191,1.0187016-0.3606892,1.4114332
		l-0.0222683,0.0170088c-0.4767761,0.1664915-0.8420963,0.4717512-1.1133118,0.8941822
		c-0.2520027,0.0622931-0.4478226,0.2071791-0.6037579,0.410696c-0.178009,0.0175791-0.3698845-0.0029154-0.4884396,0.1778955
		c-1.1609211,0.5194826-2.3375645,1.0067883-3.4796448,1.5648279c-2.7903957,1.3634386-5.6058064,2.6445379-8.722929,3.0744772
		C16.3311977,18.877943,15.6390657,19.0931644,14.9305258,18.8638344z"/>
	<path style="fill:#845547;" d="M5.9852834,30.7384148c0.3248734,0.0797939,0.6514564,0.1533642,0.9739079,0.2419758
		c0.1648378,0.0452919,0.3465605,0.3837433,0.4638939-0.0416145c0.0610251-0.2212257,0.2417841-0.4502316-0.0984726-0.6272945
		c-0.6889253-0.3585014-0.5743999-0.9100399-0.3254657-1.4832268c0.5944052,0.8495445,1.2423596,1.5982418,2.41394,1.595108
		c1.1085329-0.002964,2.1462078,0.7304516,3.3601637,0.4022522c-0.3849373-0.4896088-1.1459742-0.6462116-0.8775415-1.4227867
		c0.5393858,0.1225471,0.923686,0.4389286,1.1659374,0.9328518c0.184,0.0115757,0.368,0.0231476,0.552,0.0347214
		c0.1225615,0.120039,0.245122,0.240078,0.3676825,0.3601189c0.0516138,0.2069054-0.4993105,0.4965,0.1388721,0.6342583
		c2.0158653,0.4351521,3.9397602,1.3096371,6.0580559,1.2527332c0.0898666,0.6836319-0.2479916,0.8224831-0.8357105,0.6683083
		c-1.7110233-0.4488487-3.4030418-1.0166473-5.1411963-1.3028946c-1.8562994-0.3057079-3.6433344-0.9447479-5.5263348-1.072876
		c-0.1905432-0.0129642-0.5451736-0.4522858-0.6308041,0.1216335c-0.0650077,0.4356937,0.290822,0.5077934,0.5799685,0.5693417
		c1.336133,0.2844238,2.6765079,0.5491447,4.0170298,0.8124352c0.1581345,0.0310555,0.3054218,0.0548401,0.4050217,0.1943588
		c-0.9803019-0.0480766-1.93328-0.1420326-2.8881187-0.4772682c-0.4523115-0.158802-1.1719971-0.4480953-1.6647215,0.162384
		C7.5828581,31.8949413,6.5308356,31.7252522,5.9852834,30.7384148z"/>
	<path style="fill:#C19791;" d="M31.456728,12.6425953c0.4253616-0.3923635,0.4177132-0.8954563,0.3607426-1.4110641
		c2.9536362-1.1061039,5.8039246-2.6004057,9.0843277-2.5018587c0.9256401,0.0278072,1.8484268,0.1505442,2.7725716,0.2295732
		c0.1253471,0.4423027-0.368927,0.6723347-0.3676262,1.0724306c-0.186306,0.0878887-0.3594666,0.2225857-0.5866508,0.1648064
		c0.0416565-0.5821171-0.208828-0.8957729-0.7951279-0.7044621c-0.8389244,0.2737417-1.5999527,0.2169743-2.3140564-0.3191576
		c-0.0238914-0.0179377-0.1048393,0.040122-0.1721001,0.0681314c0.0202789,0.2663832,0.1475792,0.5471096-0.0615997,0.7960196
		c-0.8725281-0.0593214-1.6497841,0.2384996-2.4770088,0.47787c-0.8620911,0.2494602-1.2424774,0.5166473-1.1143646,1.3910704
		c-0.1255417-0.0517025-0.2510834-0.103406-0.3766212-0.1551094c-1.3469582-1.3039255-2.1019707-0.8752117-3.0287933,0.2918386
		C32.1312294,12.3564606,31.9761391,12.765398,31.456728,12.6425953z"/>
	<path style="fill:#845547;" d="M47.999157,23.395771c-0.0069389-1.195919-0.0069389-1.195919,1.0994034-1.0232201
		c0.0799217,0.1973591,0.2342033,0.2583656,0.4329185,0.2385712c0.0103188,0.2368832-0.0618362,0.5221519,0.2924843,0.5765095
		c0.2783508,0.0426998,0.4586067-0.0914593,0.5886993-0.3384247c0.2338448-0.443922,0.3431892-0.9625931,0.7620773-1.2979946
		c-1.2106514,3.0596199-2.487812,6.0885315-4.1310692,8.9483547c-0.0473251,0.0731602-0.0947113,0.146368-0.1420975,0.2195778
		c-0.0384598,0.031004-0.0605049,0.0710487-0.0660744,0.120163c-0.105381,0.0284004-0.2108192,0.0567741-0.3162422,0.0851078
		c0.0905037-0.2933941,0.1525803-0.6001778,0.2823639-0.8749771c0.0752411-0.1593189,0.2839355-0.2629013,0.1084595-0.471199
		c-0.2012329-0.2388573-0.3909721-0.0642395-0.5824623,0.0210304c-0.0307693-0.4688416,0.1180801-0.9386082,0.507576-1.1300411
		c0.5948868-0.2923775,0.8326225-0.7582016,1.0317307-1.327858c0.1293373-0.3700409,0.3406715-0.7216721,0.5663567-1.0459957
		c0.9649353-1.3866482,0.9718628-1.3818264-0.6267738-1.7706432C47.7941055,23.9991894,48.7455559,23.8735332,47.999157,23.395771z"
		/>
	<path style="fill:#C19791;" d="M49.5373421,12.6462765c-0.3230247,0.3228855-0.7870636,0.2435884-1.1652603,0.4086037
		c-0.7127151-0.0278835-1.4626656-0.1156836-1.5096855,0.9334564c-0.6126442,0.7455406-0.8515396,1.7213058-1.545269,2.426178
		c-1.2871323,1.3078194-2.5364075,2.6528473-3.8080444,3.9760323c-0.3081589,0.3206463-0.6503067,0.5970726-1.14748,0.4900455
		c0.0423965-0.1069984,0.0840988-0.2143459,0.1258011-0.3216953c0.6797562-0.369154,0.9219818-1.1690731,1.5574074-1.5821075
		c0.7043152-0.573349,1.3922997-1.1620293,1.8649101-1.9560719c0.078476-0.1199207,0.1569557-0.2398415,0.2354317-0.3597622
		c0.3122635-0.0596218,0.4556808-0.2766495,0.5248032-0.5629425c1.0382309-0.3971605,1.2217178-1.4304552,1.628315-2.2690191
		c0.3823547-0.7885542,0.8141212-1.3843288,1.7899399-1.3371115c0.2299309,0.0111284,0.567234,0.092803,0.6213264-0.2476931
		c0.0559235-0.3520317-0.3078232-0.3435555-0.5214043-0.4105892c-0.2330551-0.0731459-0.4905014-0.0665388-0.7364388-0.1009836
		c-0.9286728-0.1300678-1.6477394,0.4631834-2.4665985,0.7116871c0.0075607-0.235507,0.0151138-0.4710159,0.0226746-0.7065229
		c0.4273911,0.0193014,0.8328972-0.0268641,1.1359596-0.3796062c0.5394936,0.037137,1.0597992-0.0473623,1.5620537-0.246357
		C48.3897133,11.535676,49.2879639,11.703723,49.5373421,12.6462765z"/>
	<path style="fill:#F67662;" d="M51.1747398,21.5512123c-0.4188881,0.3354015-0.5282326,0.8540726-0.7620773,1.2979946
		c-0.1300926,0.2469654-0.3103485,0.3811245-0.5886993,0.3384247c-0.3543205-0.0543575-0.2821655-0.3396263-0.2927361-0.57621
		c0.5800705-1.0510483,1.0008926-2.1649437,1.3037148-3.3251095c0.2861176,0.0974293,0.3832283-0.0135136,0.40131-0.3052177
		c0.0150795-0.2432613-0.1405525-0.6110916,0.3251915-0.6378117C51.8521729,19.4631786,51.6668015,20.5256805,51.1747398,21.5512123
		z"/>
	<path style="fill:#B8B6B4;" d="M47.7057838,11.1118174c-0.5022545,0.1989946-1.0225601,0.283494-1.562233,0.2463741
		c-0.4833908-0.4413033-1.1301689-0.6864796-1.5033989-1.2693205c-0.0437698-0.0683479-0.3185616-0.0594492-0.437336,0.0044994
		c-0.3255463,0.1752768-0.5995598-0.0387936-0.8961182-0.0618525c-0.001255-0.3999376,0.4930191-0.6299696,0.367672-1.0722723
		C45.2559242,9.2315187,46.4827881,10.168047,47.7057838,11.1118174z"/>
	<path style="fill:#848B8C;" d="M7.3917079,20.2734585c0.1831541,0.7522545,0.8098311,0.6109543,1.339499,0.6650066
		c-0.0420094,0.4477482-0.5162058,0.7593555-0.3959961,1.2580376c-0.2224073,0.1774731-0.1351891,0.6384144-0.5694165,0.6219635
		c-0.3391008-0.2744007-0.59448-0.6346836-1.1457229-0.5908184c-0.4422469,0.0351925-0.3405375-0.6915131-0.7914662-0.7680035
		C6.2509747,20.9342365,6.7614527,20.5249157,7.3917079,20.2734585z"/>
	<path style="fill:#845547;" d="M42.7132149,34.2932205c-0.1407852-0.0036545-0.2627068,0.0317039-0.3381119,0.1636772
		c-0.4361839-0.1553459-0.3312073-0.4432411-0.1815567-0.742054c0.0103951-0.2127953-0.0062866-0.4077797,0.2510529-0.5382919
		c1.2374268-0.6276054,2.7780342-0.7192345,3.633461-2.0352669c0.0288315-0.0443516,0.1763115-0.0115833,0.268486-0.0147648
		c0.07761,0.2827206-0.2230835,0.3796329-0.2903633,0.5911884l-0.0549431,0.0634518
		c-0.2039108,0.0872803-0.2297974,0.259882-0.2159386,0.4515247c-0.0734062,0.0627937-0.1468086,0.1255913-0.2201538,0.1883583
		c-0.1884842,0.0570374-0.3129234,0.1704254-0.3312035,0.3770676c-0.1415024,0.1752815-0.2814064,0.3526459-0.5215683,0.3993073
		c-0.0890274-0.0567818-0.1774101-0.1143188-0.2685013-0.1672058c-0.003521-0.0020447-0.0329895,0.0406113-0.0503693,0.0624352
		c0.0948944,0.044838,0.1897926,0.0896759,0.2846909,0.1345177c-0.1973381,0.1151009-0.3946838,0.2302017-0.5920296,0.345295
		c-0.5775795-0.2380638-0.9963875-0.1322823-1.1563911,0.5339775l0.0089569-0.0079346
		C42.863533,34.1634331,42.788372,34.2283287,42.7132149,34.2932205z"/>
	<path style="fill:#845547;" d="M51.5614433,18.3432827c-0.465744,0.02672-0.310112,0.3945503-0.3251915,0.6378117
		c-0.0180817,0.2917042-0.1151924,0.402647-0.40131,0.3048229c-0.0753288-0.086937-0.1506424-0.1734753-0.2259674-0.2600136
		c-0.4348106-1.0213299,0.4843407-1.6143589,0.7624207-2.410347C51.579277,17.175457,51.6927986,17.745903,51.5614433,18.3432827z"
		/>
	<path style="fill:#504B4A;" d="M50.9786224,15.5196753c-0.0958061-0.0142107-0.1916161-0.0284195-0.2868347-0.0427895
		c-0.2435379-0.8392181-0.8455086-1.5667658-0.7791824-2.5025043c0.2794952,0.0264082,0.6596069,0.0428238,0.6447334,0.3818007
		C50.523735,14.122035,51.0537758,14.7598248,50.9786224,15.5196753z"/>
	<path style="fill:#DCDADA;" d="M46.0561829,31.7177086c0.0672798-0.2115555,0.3679733-0.3084679,0.2902946-0.5911598
		l-0.0103188-0.001606c0.0624046-0.0697784,0.1248093-0.1395588,0.1872063-0.209341l-0.0041237,0.008852
		c0.1054382-0.0283718,0.2108765-0.0567455,0.3162575-0.085146C46.7628174,31.2980938,46.8091812,31.8624516,46.0561829,31.7177086z
		"/>
	<path style="fill:#65221A;" d="M42.9297752,34.1064377c0.1600037-0.6662598,0.5788116-0.7720413,1.1563911-0.5339813
		c-0.0627747,0.0546112-0.1255455,0.1092186-0.1883011,0.1638145
		C43.5029259,33.6706772,43.3142433,34.1445732,42.9297752,34.1064377z"/>
	<path style="fill:#DCDADA;" d="M45.7853012,32.2326851c-0.0138588-0.1916428,0.0120277-0.3642445,0.2159386-0.4515247
		C46.1761513,32.0496292,46.0519562,32.1751785,45.7853012,32.2326851z"/>
	<path style="fill:#DCDADA;" d="M45.2339439,32.798111c0.01828-0.2066422,0.1427193-0.3200302,0.3312035-0.3770676
		C45.5544815,32.6343803,45.4602165,32.7742119,45.2339439,32.798111z"/>
	<path style="fill:#DCDADA;" d="M46.9015732,30.7191448c0.0473862-0.0732098,0.0947723-0.1464176,0.1420975-0.2195778
		C46.9962616,30.5727901,46.9489136,30.6459675,46.9015732,30.7191448z"/>
	<path style="fill:#555B5C;" d="M37.1069298,32.2201309c-0.9201126,0.3588371-1.8805161,0.3559799-2.8523026,0.3984222
		c-2.0143814,0.0879745-4.0136757,0.5994225-6.0383549,0.3411827c-1.5525074-0.1980209-3.0874481-0.5358467-4.6282291-0.8221016
		c-0.3050671-0.0566788-0.603384-0.2376766-0.9009514-0.2289886c-0.6848164,0.0199909-1.2377605-0.2466412-1.7604218-0.6345253
		c0.2551861-1.6835651,0.5101967-3.3672352,0.7652435-5.0510845c0.2679462-0.0632954,0.5594101-0.2284584,0.7999516-0.1729488
		c1.54842,0.3573055,3.1558762,0.4151154,4.6724586,0.9255409c-0.1435852,0.629858-0.4129524,1.2509212-0.1156864,1.9781284
		c0.1989422-0.2859974,0.3440247-0.5627785,0.5515823-0.7798061c0.5592632-0.5847912,1.0079136-1.3195667,2.0123997-1.2565155
		c0.507082,0.0318279,0.8504753,0.5085793,1.3743649,0.3968029c0.817749-0.1461201,1.8054543-0.3920097,2.3991623,0.1225967
		c1.1331139,0.9821396,2.4428902,0.8699474,3.7294998,1.0411453c0.0331917,0.2908821-0.127964,0.6791687,0.3695374,0.7373543
		c0.0151291,0.1255054,0.0302582,0.2510128,0.0453911,0.3765182c-0.0183449,0.4980011-0.0366821,0.9960003-0.0550194,1.4940014
		C36.831501,31.2945671,37.2335663,31.8432617,37.1069298,32.2201309z M29.2185326,31.3285942
		c0.1990662,0.2276592,0.1990662,0.2276592,0.7481689-0.2350502c0.2788296,0.1214447,0.7574902,0.3627052,0.8229008,0.0696564
		c0.1799412-0.8061504,0.5332413,0.1977406,0.6991711-0.1204548c-0.0472984-1.4465618-0.1622505-1.5877419-1.3362923-1.6411781
		c-0.2314262-0.623579-0.4828968,0.0225086-0.7236328-0.011425c-0.320509-0.2801056-0.6859837-0.5037327-1.0987625-0.2746944
		c-0.3644047,0.2021923-0.3263187,0.6459198-0.4138985,0.9997082c-0.0345497,0.1395683-0.0275745,0.3616543,0.1807938,0.3444424
		c0.1086674-0.0089741,0.2023468-0.1993732,0.4165173-0.4306107C28.1493931,30.9080734,28.9091339,30.9616718,29.2185326,31.3285942
		z M30.2578182,28.755146c0.3441582,0.0894394,0.6580334,0.0570621,0.63908-0.0770741
		c-0.0373192-0.2640934,0.0634212-0.4009228,0.2161903-0.5531197c-0.5656986-0.1992035-1.1313992-0.3984032-1.6970978-0.5976048
		c-0.1060371,0.3464546-0.7578812,0.0742073-0.6643295,0.4772758c0.0578957,0.2494507,0.4545841,0.4683971,0.7448006,0.60186
		C29.7702484,28.7323914,30.1037426,28.7284698,30.2578182,28.755146z"/>
	<path style="fill:#A53122;" d="M37.4755554,31.0858536c0.0183372-0.4980011,0.0366745-0.9960003,0.0545883-1.4940987
		c0.2436218,0.0148392,0.3217621,0.1732464,0.3349915,0.3877811c-0.0023842,0.4035873-0.0180206,0.8076897-0.0024605,1.2105827
		c0.010273,0.2658596-0.1000252,0.5729523,0.1740685,0.7770863c0.7692757,0.5729218,3.526741,0.3527222,4.2351723-0.3370934
		c0.0419044-0.040802,0.057869-0.1082458,0.085907-0.1632938c0.7666931-0.2886257,1.7114639-0.1420097,2.2737541-0.9302578
		c0.2654572-0.0055923,0.532959-0.0080509,0.5662346-0.3694725c0.2465553-0.062458,0.4931183-0.124918,0.7396736-0.1873741
		c0.5151062,0.2683239,0.3168297-0.1918201,0.386425-0.3784256l0.0038033-0.0019493
		c0.1913948-0.0853386,0.381134-0.2599564,0.5823669-0.0210991c0.1754761,0.2082977-0.0332184,0.3118801-0.1084595,0.471199
		c-0.1297836,0.2747993-0.1918602,0.581583-0.2823639,0.8749771l0.0040627-0.0087814
		c-0.0624161,0.0697899-0.1247902,0.1395473-0.1871605,0.2093086l0.0103188,0.001606
		c-0.0921059,0.0031528-0.2395859-0.0296154-0.2684174,0.0147362c-0.8554268,1.3160324-2.3960342,1.4076614-3.633461,2.0352669
		c-0.2573395,0.1305122-0.2406578,0.3254967-0.2511673,0.5384369c-0.2717361-0.0401268-0.620369-0.2085228-0.8021393-0.0992813
		c-0.9709663,0.5835533-2.0126648,0.2088432-3.0145683,0.2907867c-0.4654961,0.0380745-0.9205971-0.1196404-1.2218246-0.5393181
		c-0.0016479-0.2457657-0.0032959-0.4915276-0.0053749-0.7375259
		C37.7964668,32.2288017,37.3784676,31.6028576,37.4755554,31.0858536z"/>
	<path style="fill:#65221A;" d="M37.1548996,33.3671761c0.3012276,0.4196777,0.7563286,0.5773926,1.2218246,0.5393181
		c1.0019035-0.0819435,2.043602,0.2927666,3.0145683-0.2907867c0.1817703-0.1092415,0.5304031,0.0591545,0.8021393,0.0992813
		c-0.1495361,0.2986679-0.2545128,0.5865631,0.1816711,0.741909c-0.9169006,0.6577492-2.0134354,0.7799072-3.0716858,0.9380302
		c-0.7605438,0.1136398-1.4550362,0.5833702-2.2734146,0.3900108c-0.6256752-0.1478233-1.1218147-0.3121605-0.6056137-1.082943
		C36.7071877,34.2797279,36.5566254,33.6187286,37.1548996,33.3671761z"/>
	<path style="fill:#A53122;" d="M20.178257,32.6175117c-2.1182957,0.0569038-4.0421906-0.8175812-6.0580559-1.2527332
		c-0.6381826-0.1377583-0.0872583-0.4273529-0.1387644-0.6343536c0.6551561-0.1089134,0.7125244-0.6253242,0.7756824-1.1376209
		c0.1236067-0.0016308,0.2474041-0.003294,0.3712015-0.0049591c0.1330957,0.1100197,0.1867867,0.2507782,0.1347475,0.4157085
		c-0.2501459,0.7928467-0.3765841,1.4746532,0.8684282,1.1033173c0.1197243-0.0357113,0.3017845,0.0523777,0.4256897,0.1297741
		c0.7817097,0.4882946,1.704958,0.5152531,2.5585823,0.7498245c0.3850708,0.1058121,0.8104992-0.1966362,0.9065342-0.7486458
		c0.0586052-0.336832,0.049551-0.7775898,0.5182934-0.9076977c-0.0720825,0.6956902-0.3671551,1.3563519-0.3251381,2.0699596
		C20.2030582,32.4725609,20.1906586,32.5450401,20.178257,32.6175117z"/>
	<path style="fill:#555B5C;" d="M29.363903,34.8919907c-2.8471699-0.2356491-5.6758804-0.5862579-8.4461842-1.300705
		c0.0120983-0.077076,0.0241966-0.1541481,0.0362911-0.2312241c2.8102627,0.4163322,5.6205235,0.8326683,8.4307861,1.2490005
		C29.3778305,34.703373,29.3708668,34.7976799,29.363903,34.8919907z"/>
	<path style="fill:#845547;" d="M20.2154579,32.4000854c-0.042017-0.7136078,0.2530556-1.3742695,0.3254108-2.0698586
		c0.0058556-0.2470398,0.0114403-0.4941807,0.017025-0.7413177c0.319067-0.3855095,0.4198704-0.8306732,0.3606663-1.3195724
		c0.0587387-0.6283741,0.1174755-1.2567482,0.1762142-1.8851223c0.2555256-0.1386471,0.2029419-0.4008942,0.2496719-0.6223297
		c0.1124516-0.056982,0.225214-0.1148109,0.3379745-0.1726379c0.0031548,0.211319,0.0063076,0.4226437,0.0094585,0.6339664
		c-0.2550125,1.683672-0.5100231,3.367342-0.7652092,5.0509071C20.5864315,31.584301,20.870676,32.2887993,20.2154579,32.4000854z"
		/>
	<path style="fill:#845547;" d="M16.0504341,33.3469238c-1.0640078,0.0015373-2.0710592-0.2280922-3.0083055-0.7411613
		C14.1052036,32.6079369,15.1471615,32.6959496,16.0504341,33.3469238z"/>
	<path style="fill:#845547;" d="M37.4755554,31.0858536c-0.0970879,0.517004,0.3209114,1.1429482-0.3260345,1.5437965
		c-0.0139046-0.136322-0.0282402-0.2728729-0.0425835-0.4094734C37.2335663,31.8432617,36.831501,31.2945671,37.4755554,31.0858536z
		"/>
	<path style="fill:#845547;" d="M16.9948483,33.5328445c-0.2601604-0.0172462-0.5505428,0.0926437-0.7503586-0.1783485
		C16.5029087,33.3790817,16.7921696,33.2738075,16.9948483,33.5328445z"/>
	<path style="fill:#65221A;" d="M42.7132149,34.2932205c0.0751572-0.0648918,0.1503181-0.1297874,0.2255173-0.1947136
		C42.8635864,34.1633873,42.7884026,34.2283058,42.7132149,34.2932205z"/>
	<path style="fill:#B8B6B4;" d="M35.9673882,37.6593246c0.162281,0.2805367,0.2173653,0.608284-0.1825829,0.6405258
		c-0.7482796,0.0603333-1.3891335,0.4909554-2.15131,0.5064583c-2.8439655,0.0578613-5.6560459-0.3190727-8.4824791-0.5190125
		c-2.5826225-0.1826973-5.1457806-0.3792038-7.6718636-0.9718246c-1.9916239-0.4672318-3.9353771-1.0616302-5.7889719-1.9362335
		c-0.6420069-0.3029289-1.0532761-0.8143806-1.4199219-1.4024277c-0.1760626-0.2823792,0.1299343-0.2848549,0.1483507-0.4360275
		c0.3758268-0.0151978,0.6548748,0.1952057,0.9357071,0.4012985c0.0450983,0.4731216,0.3601913,0.5617867,0.7582064,0.532341
		c0.0635881,0.062149,0.1271753,0.1242981,0.1906948,0.1865196c-0.0087214,0.2654762,0.1658401,0.3938065,0.3786402,0.4724503
		c2.0258255,0.7486877,4.0309658,1.571888,6.2153702,1.7612839c0.1806316,0.0041275,0.3612595,0.008255,0.5418911,0.0123787
		c1.2183876,0.4699135,2.4880486,0.58918,3.780468,0.5528221c0.3061943,0.0041962,0.6123886,0.0083923,0.9185848,0.0125923
		c0.6615772,0.4175835,1.3867931,0.1283798,2.0806599,0.1873398c0.1207657-0.0015221,0.2415276-0.0030403,0.3622932-0.0045547
		c0.2397232,0.2989998,0.4914932,0.2860298,0.7526875,0.0290642c0.1255608,0.0046692,0.2511196,0.0093346,0.3766804,0.0140038
		c0.464201,0.3813896,0.9543171,0.5327644,1.5024376,0.1692696c0.1830883,0.0059509,0.3661747,0.0119057,0.5492649,0.0178566
		c0.0651875,0.0983124,0.1226578,0.2758522,0.1967163,0.2830658c1.1333408,0.1103554,2.2693405,0.1254997,3.4021683-0.0038834
		c0.070591-0.0080605,0.121273-0.1904984,0.1812172-0.2918053c0.1226234-0.0508156,0.2452469-0.101635,0.3678741-0.1524544
		C34.5959091,37.7000237,35.2816467,37.6796761,35.9673882,37.6593246z"/>
	<path style="fill:#555B5C;" d="M13.9849072,34.3334084c1.1107731-0.168457,2.0280647,0.4825439,3.0403194,0.7289543
		c2.6757469,0.6513519,5.3718376,1.1798058,8.1058407,1.514389c0.1102982,0.0135002,0.2104111,0.1102333,0.3153667,0.1681328
		c-0.3175068,0.3045769-0.7120056,0.1566734-1.0705357,0.1615601c-0.7743778,0.0105553-1.5290432-0.3024483-2.3150177-0.1592789
		c-0.1226387-0.0010147-0.2453613-0.0018997-0.3680897-0.0027771c-0.7560902-0.4023438-1.6051178-0.3401222-2.4136295-0.4668732
		c-1.6208782-0.2541008-3.1501007-0.8489799-4.7383919-1.2201729c-0.1200857-0.0117722-0.2401695-0.0235481-0.3602552-0.0353241
		C14.1153126,34.7924805,14.0501099,34.5629463,13.9849072,34.3334084z"/>
	<path style="fill:#78797B;" d="M22.0607891,36.7472992c0.7860661-0.1433029,1.5407314,0.1697006,2.3151093,0.1591454
		c0.35853-0.0048866,0.7530289,0.1430168,1.0705357-0.1615601c2.503849,0.3233948,5.0077953,0.6467323,7.5119858,0.9700203
		c-1.0503139,0.3365669-2.1352005,0.0300255-3.1962242,0.1705437c-0.1830902-0.0059509-0.3661766-0.0119057-0.5492592-0.0178986
		c-0.4888248-0.1628456-0.9545174-0.531189-1.5024433-0.1692276c-0.1255608-0.0046692-0.2511196-0.0093346-0.3766804-0.0140877
		c-0.2403584-0.2841225-0.4921494-0.2704353-0.7526875-0.0289803c-0.1207657,0.0015144-0.2415276,0.0030327-0.3624039,0.0047073
		c-0.6391182-0.6663284-1.365593-0.3630638-2.0805492-0.1874924c-0.3061962-0.0042-0.6123905-0.0083961-0.918766-0.0123062
		c-0.0680923-0.3717613-0.3573208-0.3517647-0.6310558-0.3519821C22.3277969,37.107975,22.1010895,37.0659561,22.0607891,36.7472992
		z"/>
	<path style="fill:#96999C;" d="M29.7621956,37.8854485c1.0610237-0.1405182,2.1459103,0.1660233,3.1962242-0.1705437
		c0.1918831,0.0013847,0.3840179,0.0027084,0.5759811,0.0039749c0.0030327,0.0512543,0.0057182,0.1025887,0.0078964,0.1539459
		c-0.0599442,0.1013069-0.1106262,0.2837448-0.1812172,0.2918053c-1.1328278,0.1293831-2.2688274,0.1142387-3.4021683,0.0038834
		C29.8848534,38.1613007,29.827383,37.9837608,29.7621956,37.8854485z"/>
	<path style="fill:#78797B;" d="M13.9849072,34.3334084c0.0652027,0.229538,0.1304054,0.4590721,0.1955471,0.6888199
		c-0.2621145,0.3545341-0.5185547,0.0660248-0.6869411-0.0682297c-0.36658-0.2922745-0.7657223-0.3114128-1.1902285-0.293129
		c-0.0635862-0.062149-0.1271734-0.1242981-0.1908026-0.1863899c0.0213213-0.1399536,0.0426855-0.2799683,0.0640507-0.4199829
		C12.7793226,34.1474686,13.3821154,34.2404366,13.9849072,34.3334084z"/>
	<path style="fill:#96999C;" d="M12.1765327,34.0544968c-0.0213652,0.1400146-0.0427294,0.2800293-0.0640507,0.4199829
		c-0.397974,0.0293884-0.7130671-0.0592766-0.7581654-0.5323982C11.6447515,33.860157,11.9278479,33.8314705,12.1765327,34.0544968z
		"/>
	<path style="fill:#78797B;" d="M33.5422974,37.8728256c-0.0021782-0.0513573-0.0048637-0.1026917-0.0078964-0.1539421
		c0.1255493,0.0004997,0.2509308,0.0009422,0.3760414,0.0014381C33.7875443,37.7711906,33.6649208,37.82201,33.5422974,37.8728256z"
		/>
	<path style="fill:#96999C;" d="M40.3609047,20.8802395c0.4978714,0.1073799,0.8400192-0.1690464,1.1481781-0.4896927
		c1.271637-1.323185,2.5209122-2.6682129,3.8080444-3.9760323c0.6937294-0.7048721,0.9326248-1.6806374,1.5454903-2.4261436
		c0.3683205,0.0266342,0.6523018,0.2282925,0.5524864,0.5879774c-0.1309242,0.471777-0.0874138,0.9771242-0.3643761,1.4260721
		c-0.6096764,0.9882736-1.4250145,1.7768402-2.3120613,2.4976997c-0.8669586,0.7045345-0.9212189,2.2060432-2.3345413,2.3718147
		c-0.0485115,0.0056877-0.0971489,0.0767403-0.131443,0.1270638c-0.3948135,0.5794182-0.9792023,0.8105717-1.6420708,0.89324
		c-0.3331146,0.041544-0.4940186,0.2319927-0.5169144,0.5562363c-0.1240005,0.0015488-0.2480049,0.0031013-0.3720284,0.004612
		c-0.2621613,0.0207596-0.5574875-0.0921745-0.7554169,0.1874008c-0.1323662-0.0020332-0.26474-0.0040665-0.39711-0.0061035
		c-0.3646851-0.1265011-0.7293663-0.253006-1.0941696-0.3794384c-0.0207176-0.1291084-0.0413132-0.2582932-0.0619125-0.387476
		c0.0080376-0.0629425,0.0160789-0.125885,0.0241165-0.1888256c0.1609154,0.0005074,0.3178596-0.0079536,0.4031372-0.178318
		c0.444561,0.0334511,0.8818703,0.6024971,1.3348007,0.0181389c0.3357353-0.0415115,0.5350647-0.2138405,0.5447693-0.5680294
		C39.9468918,20.9270382,40.1538963,20.9036407,40.3609047,20.8802395z"/>
	<path style="fill:#848B8C;" d="M40.1136971,22.4484749c0.0228958-0.3242435,0.1837997-0.5146923,0.5169144-0.5562363
		c0.6628685-0.0826683,1.2472572-0.3138218,1.6420708-0.89324c0.0342941-0.0503235,0.0829315-0.121376,0.131443-0.1270638
		c1.4133224-0.1657715,1.4675827-1.6672802,2.3345413-2.3718147c0.8870468-0.7208595,1.7023849-1.5094261,2.3120613-2.4976997
		c0.2769623-0.4489479,0.2334518-0.9542952,0.3643761-1.4260721c0.0998154-0.3596849-0.184166-0.5613432-0.5524864-0.5879774
		c0.0467987-1.0491743,0.7967491-0.9613743,1.5094643-0.9334908c0.2435036,1.0569248-0.3031273,2.0580044-0.2192497,3.1112499
		c0.028698,0.3603516-0.5145302,0.2605515-0.6679802,0.5659828c-0.5415001,1.0778313-1.5791321,1.7751732-2.185051,2.8156834
		c-0.1939888,0.3331261-0.5481873,0.5876884-0.8647957,0.8318996c-0.9318161,0.7187386-2.0676003,1.119154-2.9637871,1.9057064
		C41.0881386,22.6216183,40.5698166,22.4064827,40.1136971,22.4484749z"/>
	<path style="fill:#C19791;" d="M37.4950905,22.2548752c0.3646851,0.126503,0.7293663,0.2530079,1.0943336,0.3795414
		c0.0921135,0.1478539,0.2321892,0.1948891,0.3971252,0.1899948l0.002224,0.0023346
		c0.0049667,0.1194344,0.0099373,0.2388668,0.0149078,0.3583012l-0.0217705,0.0221844
		c-0.9435425-0.1449642-1.8587685-0.4973373-2.8366356-0.3904343c-0.268322,0.0293312-0.7132645,0.0368519-0.3649788,0.4423904
		c0.8642693,1.00634,0.925106,2.3349018,1.492672,3.4534988c-0.1178398,0.0080051-0.2356796,0.0160122-0.3535156,0.0240173
		c-0.0614052-0.4285698-0.2643661-0.7870235-0.5478134-1.1055317c-0.056282-0.5054836-0.1299133-0.9995708-0.7486382-1.1339092
		c0.0445709-0.4981327-0.2819176-0.7145519-0.6729164-0.8735638c-0.4528008-0.1841335-0.8138199-0.4419365-0.8551979-0.9815769
		c0.2451401-0.0210152,0.4902763-0.0420265,0.7354126-0.0630417C35.7481346,22.7140617,36.6268692,22.5276623,37.4950905,22.2548752
		z"/>
	<path style="fill:#555B5C;" d="M45.3923607,23.2071056c-0.1436958,0.6146946-0.6945534,0.9666481-0.9667854,1.4983406
		c-0.1478691,0.0078812-0.2958527,0.0157604-0.4438362,0.0236397c-0.6069565,0.337801-1.204174,0.0920773-1.8034515-0.0301132
		c0.0603294-0.1390495,0.1020126-0.3866825,0.1837997-0.400713C43.4390755,24.1134377,44.1687202,22.9653111,45.3923607,23.2071056z
		"/>
	<path style="fill:#271F1C;" d="M42.1782875,24.6989727c0.5992775,0.1221905,1.1964951,0.3679142,1.8041763,0.0300407
		c-0.1477737,0.7085209-0.732048,0.4776478-1.1773262,0.5463142c-0.4473724,0.0689926-1.0475807-0.154707-1.1392097,0.5951691
		c-0.0192642,0.0448742-0.0430069,0.0872364-0.0711174,0.1272125c-0.262249-0.1849937-0.2481461-0.591713-0.5787811-0.7220974
		c0.0154686-0.1258087,0.0309448-0.2516155,0.0464096-0.3774223c0.0611267-0.050539,0.1222534-0.101078,0.1833763-0.1516209
		C41.5566406,24.7307053,41.867466,24.7148399,42.1782875,24.6989727z"/>
	<path style="fill:#C19791;" d="M39.0036812,23.1850471c0.4717979,0.266407,1.0765305,0.352108,1.2999077,0.9562244
		l-0.0005684,0.0005722c-0.4034538,0.1222992-1.0715981-0.3366241-1.1408463,0.5195427
		c-0.1182785-0.0505161-0.236557-0.1010323-0.3548393-0.1515465l0.0021172-0.0002289
		c0.1170807-0.426157,0.2502632-0.8502769,0.1724319-1.3023529L39.0036812,23.1850471z"/>
	<path style="fill:#555B5C;" d="M46.1373749,22.2619267c-0.0532455,0.4741879-0.4014244,0.7149982-0.7537079,0.9526062
		C45.3594894,22.6791496,45.5835457,22.3400917,46.1373749,22.2619267z"/>
	<path style="fill:#848B8C;" d="M38.9862518,22.6404877c0.1979294-0.2795753,0.4932556-0.1666412,0.7554169-0.187397
		c-0.1440086,0.3401108-0.4311066,0.3918476-0.7529068,0.3736477l-0.0022049-0.0023155
		C38.9856987,22.7631207,38.9855919,22.7018051,38.9862518,22.6404877z"/>
	<path style="fill:#555B5C;" d="M41.2458153,24.7465687c-0.0611229,0.0505428-0.1222496,0.1010818-0.1834106,0.1515751
		c-0.2179565-0.0041676-0.3562241-0.095459-0.3624535-0.3312416c0.0662727-0.0140343,0.1325455-0.0280685,0.1988182-0.0421009
		C41.1534805,24.3811512,41.2633362,24.4641972,41.2458153,24.7465687z"/>
	<path style="fill:#C19791;" d="M40.8987694,24.5248013c-0.0662727,0.0140324-0.1325455,0.0280666-0.1989594,0.0416794
		c-0.0696182-0.0792751-0.1390953-0.1581326-0.2085724-0.2369881
		C40.6614037,24.3229733,40.8035164,24.3749924,40.8987694,24.5248013z"/>
	<path style="fill:#C19791;" d="M40.3035889,24.1412716c0.0625496,0.0627403,0.1250954,0.1254807,0.1876488,0.188221
		c-0.0627403-0.0625477-0.1254807-0.1250954-0.188221-0.1876469L40.3035889,24.1412716z"/>
	<path style="fill:#E9553C;" d="M21.344759,25.7610378c-0.0470428,0.2222824,0.0055408,0.4845295-0.2497005,0.6233025
		c-0.2016602-0.2637768-0.4515743-0.42453-0.7996807-0.3590775c-1.1609268,0.2182961-2.2048569-0.2308826-3.2965126-0.5028477
		c-0.7714939-0.1921978-1.0202055-0.3777618-0.5075111-1.0731792c0.1704388-0.231184-0.0134926-0.4295082-0.1684742-0.5609684
		c-0.0967617-0.0820751-0.3237-0.1223087-0.426156-0.0644093c-0.2710667,0.153183,0.0482693,0.2975349,0.0492573,0.4447842
		c0.0040293,0.6009998-0.1832561,0.9899864-0.89219,0.6804142c-0.9796381-0.4277821-2.0293331-0.5448437-3.0718622-0.7043228
		c-0.2715893-0.041544-0.4494343-0.0499535-0.4119596,0.2717953c0.0358114,0.3074589,0.3526497,0.7156239-0.2769566,0.7375774
		c-0.3745899,0.0130615-0.8119621,0.398304-1.0741692,0.1373634c-0.7727222-0.7689991-1.8041039-0.3166218-2.6435342-0.681406
		c0.0535679-0.4325809,0.1071358-0.8651657,0.1607037-1.2977467c0.0100513-0.1979065,0.020103-0.395813,0.0299664-0.5937843
		c0.4340425,0.0163841,0.3468242-0.4445572,0.5693431-0.6212463c0.0664701,0.0162983,0.1328287,0.0318184,0.1991873,0.0473366
		c0.6328163-0.3980503,1.2468824-0.4377403,2.0232401-0.2989521c0.8387976,0.1499481,1.7276049,0.0588074,2.6064777,0.2262802
		c0.668664,0.127409,1.3015528,0.5253334,1.9714746,0.4442673c1.0012016-0.1211586,1.8961296,0.3370113,2.6464634,0.7221584
		c1.0643826,0.5463428,1.9715328,0.530714,2.9657269,0.1383801c0.410532-0.1620007,0.5496521,0.1637497,0.8069878,0.2820339
		C21.4845257,24.4263268,21.4146404,25.0936832,21.344759,25.7610378z"/>
	<path style="fill:#A53122;" d="M7.7360129,23.4123173c-0.0535679,0.4325809-0.1071358,0.8651657-0.1604643,1.2976513
		c-0.2595129,0.5379944-0.3033938,1.1306229-0.3418398,1.7034149C7.0925155,28.516943,7.38028,28.8771801,9.4856586,29.4329662
		c0.0299864,0.0079174,0.0595951,0.0186462,0.0878954,0.0313644c0.8038836,0.3612995,1.6272821,0.8198166,2.1032515-0.4284496
		c0.1786356,0.0592823,0.216939,0.2022743,0.2189035,0.3669472c-0.2684326,0.7765751,0.4926043,0.9331779,0.8775415,1.4227867
		c-1.2139559,0.3281994-2.2516308-0.4052162-3.3601637-0.4022522c-1.1715803,0.0031338-1.8195348-0.7455635-2.41394-1.595108
		c-0.317071-1.6542263-0.2220602-3.2863407,0.2776198-4.8926182C7.3480062,23.7066288,7.4143448,23.4378147,7.7360129,23.4123173z"
		/>
	<path style="fill:#F67662;" d="M21.555357,23.7586098c-0.2578125-0.118103-0.3969326-0.4438534-0.8074646-0.2818527
		c-0.994194,0.392334-1.9013443,0.4079628-2.9657269-0.1383801c-0.7503338-0.3851471-1.6452618-0.843317-2.6464634-0.7221584
		c-0.6699219,0.0810661-1.3028107-0.3168583-1.9714746-0.4442673c-0.8788729-0.1674728-1.7676802-0.0763321-2.6064777-0.2262802
		c-0.7763577-0.1387882-1.3904238-0.0990982-2.0232372,0.2991619c0.1955013-0.7910099,1.041585-1.1244831,1.3112831-1.863493
		c1.5512667-0.9871044,3.2191448-1.5834064,5.0847149-1.5173645c0.7085552,0.2291889,1.4006872,0.0139675,2.0959196-0.0819244
		c3.1171227-0.4299393,5.9325333-1.7110386,8.722929-3.0744772c1.1420803-0.5580397,2.3187237-1.0453453,3.4793396-1.5644455
		c0.1901398,0.0158997,0.3988667,0.0814734,0.4887447-0.178278c0.1559353-0.203517,0.3517551-0.348403,0.6038208-0.4100647
		c0.5742607-0.0453234,1.0308971-0.2374201,1.1132488-0.8948135l0.0222683-0.0170088
		c0.5193577,0.1224346,0.674448-0.2865028,0.9236393-0.6002798c0.9268227-1.1670504,1.6818352-1.5957642,3.0288849-0.2919865
		c-0.9108391,1.026968-2.0904007,1.6086473-3.3666077,2.0303917c-0.1665649,0.1504097-0.4478588,0.1514845-0.5315228,0.4093056
		c-0.0288296,0.1231909-0.0576611,0.2463808-0.0859947,0.369523c-0.4868164,0.0175886-0.5967407,0.4841185-0.8821068,0.7419605
		c-0.1893578-0.1766024-0.3793583-0.3269529-0.5807095-0.0142355c-0.3347378,0.0414991-0.6429024,0.3064098-0.996809,0.1543236
		c-0.318325-0.1367979-0.5790329-0.1406488-0.8547001,0.1135864c-0.5890121,0.5432196-1.285738,0.8230639-2.0945225,0.9318552
		c-0.4723911,0.0635433-0.9659157,0.1796436-1.3981953,0.486351c-0.878809,0.6235237-0.8808861,0.9356022,0.0732174,1.5000572
		c-0.4978313,0.0221977-0.9905376,0.0360699-1.4895592-0.0546322c-0.5946331-0.1080837-1.1688938,0.0621033-1.7064514,0.3057003
		c-0.3232861,0.1464977-0.5313187,0.4064598-0.5446625,0.8046818c-0.0154247,0.4604206,0.3187466,0.450985,0.6153908,0.5329895
		c0.5208073,0.14398,0.8147449,0.4611588,0.6726208,1.0348835C22.0184841,21.986372,21.7838669,22.8717327,21.555357,23.7586098z"/>
	<path style="fill:#C19791;" d="M9.8457956,20.38134c-0.2696981,0.7390099-1.1157818,1.0724831-1.3112831,1.863493
		c-0.0663614-0.015728-0.13272-0.0312481-0.1991901-0.0475464c-0.1203213-0.4994659,0.3538752-0.8110733,0.3958845-1.2588215
		C8.9648495,20.476696,9.353447,20.3252258,9.8457956,20.38134z"/>
	<path style="fill:#78797B;" d="M31.1686478,12.0336514c-0.0534687,0.0154619-0.0808849,0.0233917-0.1083031,0.0313206
		c-0.0067425-0.0234385-0.0134888-0.046876-0.0202312-0.0703125C31.0757027,12.0054569,31.1112957,12.0162535,31.1686478,12.0336514
		z"/>
	<path style="fill:#A53122;" d="M47.999157,23.395771c0.7463989,0.4777622-0.2050514,0.6034184-0.1924782,0.9289722
		c-1.2582512,1.0300026-2.7393646,1.3407269-4.3178558,1.3369598c0.3067627-0.3957253,1.1329727-0.0229225,1.1824989-0.7992382
		C45.9914398,24.851944,47.0153008,24.1692371,47.999157,23.395771z"/>
	<path style="fill:#A53122;" d="M50.6089745,19.0259037c0.075325,0.0865383,0.1506386,0.1730766,0.2259674,0.2600136
		c-0.3028221,1.1605606-0.7236443,2.274456-1.3037148,3.3255043c-0.1984634,0.019495-0.3527451-0.0415115-0.4326668-0.2388706
		C49.7992477,21.3456783,49.9004364,20.0486832,50.6089745,19.0259037z"/>
	<path style="fill:#845547;" d="M44.6713219,24.8624649c-0.0495262,0.7763157-0.8757362,0.403513-1.1823692,0.7990665
		c-0.6255569-0.087019-1.2157364,0.1355724-1.8230247,0.2089653c0.091629-0.749876,0.6918373-0.5261765,1.1392097-0.5951691
		c0.4452782-0.0686665,1.0295525,0.1622066,1.1773262-0.5463142c0.1472588-0.0078068,0.2952423-0.015686,0.4431114-0.0235672
		C44.5074158,24.7577801,44.5893669,24.8101234,44.6713219,24.8624649z"/>
	<path style="fill:#C19791;" d="M31.4345131,12.6599722c-0.0823517,0.6573935-0.5389881,0.8494902-1.1132488,0.8948135
		C30.5924168,13.1317234,30.957737,12.8264637,31.4345131,12.6599722z"/>
	<path style="fill:#C19791;" d="M29.7174435,13.9648504c-0.0898781,0.2597513-0.298605,0.1941776-0.4887447,0.178278
		C29.347559,13.961935,29.5394344,13.9824295,29.7174435,13.9648504z"/>
	<path style="fill:#504B4A;" d="M11.895709,29.4028282c-0.0019646-0.1646729-0.0402679-0.3076649-0.2184477-0.3670635
		c0.0243015-0.3783569,0.0481462-0.7565994,0.0718155-1.1348095c0.7409096-0.2873516,1.2362328-1.2888718,2.2529373-0.7753391
		c0.1816778,0.140274,0.266778,0.4009113,0.5369778,0.4308605c0.072773,0.6787624,0.145546,1.3575306,0.2183189,2.036293
		c-0.0633497,0.512331-0.120718,1.0287418-0.7758741,1.1376553c-0.1226683-0.1199455-0.2452288-0.2399845-0.367815-0.3602619
		c-0.1475859-0.5986176-0.3582783-0.1795998-0.5519753-0.034483C12.8193951,29.8417568,12.4350948,29.5253754,11.895709,29.4028282z
		"/>
	<path style="fill:#271F1C;" d="M13.0616465,30.33568c0.193697-0.1451168,0.4043894-0.5641346,0.5519753,0.034483
		C13.4296465,30.3588276,13.2456465,30.3472557,13.0616465,30.33568z"/>
	<path style="fill:#78797B;" d="M35.7858353,11.9059544c-0.1281128-0.874423,0.2522736-1.1416101,1.1143646-1.3910704
		c0.8272247-0.2393703,1.6044807-0.5371914,2.4768562-0.4778004c0.0495758,0.3113995-0.1330566,0.6926556,0.2690659,0.8982182
		c-0.0367737,0.373044-0.0726433,0.7455339-0.1085167,1.118022c-0.3937988,0.0562172-0.7766075,0.1802502-1.1525574,0.2684231
		c-0.6742439,0.1581287-1.273037,0.6950951-2.0304184,0.479001C36.0882034,12.551322,35.9113121,12.2449789,35.7858353,11.9059544z"
		/>
	<path style="fill:#E9553C;" d="M35.7858353,11.9059544c0.1254768,0.3390245,0.3023682,0.6453676,0.5688591,0.8955994
		c0.0355492,0.4670706-0.0728455,0.913373-0.1883392,1.3586903c-1.3580208-0.3058949-2.7510262-0.231595-4.1235962-0.3793678
		c1.2761459-0.4215317,2.4557076-1.003211,3.3665466-2.030179C35.5347519,11.8025484,35.6602936,11.8542519,35.7858353,11.9059544z"
		/>
	<path style="fill:#F67662;" d="M39.6470261,10.9347467c-0.4030266-0.2050076-0.2203941-0.5862637-0.2699699-0.8976631
		c0.2093315-0.2489796,0.0820313-0.529706,0.0617523-0.7960892c0.0672607-0.0280094,0.1482086-0.0860691,0.1721001-0.0681314
		c0.7141037,0.5361319,1.475132,0.5928993,2.3140564,0.3191576c0.5862999-0.1913109,0.8367844,0.122345,0.79533,0.7048578
		c-0.0734138,0.1282196-0.1470261,0.2560425-0.2201805,0.384058c-0.1743317,0.1247425-0.1895943,0.3026276-0.1644821,0.4945078
		c-0.1447411,0.0308104-0.2896118,0.0610838-0.4344788,0.0913553c-0.212326-0.1288824-0.4246597-0.2577658-0.6369858-0.3866491
		c-0.1221657-0.1924477-0.1492195-0.5582523-0.4172173-0.5121555c-0.3257408,0.0560303-0.5577965,0.3264236-0.5588875,0.7099161
		C40.0804062,10.8740788,39.8721466,10.7791929,39.6470261,10.9347467z"/>
	<path style="fill:#96999C;" d="M42.499649,10.5807447c0.0736198-0.1278238,0.1472321-0.2556467,0.2206459-0.3838663
		c0.2269821,0.0573835,0.4001427-0.0773134,0.5864487-0.1652021c0.2965126,0.0229006,0.5705261,0.2369709,0.8960724,0.0616941
		c0.1187744-0.0639486,0.3935661-0.0728474,0.437336-0.0044994c0.37323,0.5828409,1.0200081,0.8280172,1.5033989,1.2693205
		c-0.3028831,0.352725-0.7083893,0.3988905-1.135849,0.3795643c-0.2358017-0.0202627-0.5630569,0.0910931-0.6738815-0.1591406
		C43.9697723,10.7566404,43.2291336,10.6932211,42.499649,10.5807447z"/>
	<path style="fill:#E9553C;" d="M41.6659279,25.8704967c0.6072884-0.0733929,1.1974678-0.2959843,1.8230247-0.2089653
		c1.5783615,0.0039387,3.0594749-0.3067856,4.3177261-1.3367882c1.598465,0.3888054,1.5915375,0.3839836,0.6266022,1.7706318
		c-0.2256851,0.3243237-0.4370193,0.6759548-0.5663567,1.0459957c-0.1991081,0.5696564-0.4368439,1.0354805-1.0317307,1.327858
		c-0.3894958,0.191433-0.5383453,0.6611996-0.507576,1.1300411l-0.0037651,0.001936
		c-0.2556114-0.0032597-0.373806,0.1337318-0.3863678,0.3785076c-0.2465553,0.0624561-0.4931183,0.1249161-0.7397537,0.1872482
		c-0.2775993-0.0128918-0.5496864-0.017334-0.5661545,0.3695984c-0.5622902,0.7882481-1.507061,0.6416321-2.2735596,0.930315
		c-0.2194405-0.4470291-0.5663223-0.3863239-0.9585915-0.2706985c-0.6345024,0.187027-1.1794052,0.1159916-1.7110138-0.393734
		c-0.4827919-0.4629116-1.1169701-0.7667885-1.8232765-0.8229065c-0.0132294-0.2145348-0.0913696-0.372942-0.3349876-0.3877811
		c-0.0147057-0.1254082-0.0298347-0.2509155-0.0449753-0.3764095c0.0051308-0.639061,0.0102844-1.2781315,0.0154305-1.9172039
		c0.2172546-0.3031425,0.0419197-0.5913429-0.0406799-0.8782997c-0.4247131-1.4755821-0.1643677-1.8466911,1.3496399-1.9103146
		l-0.0023079,0.0003815c-0.034874,0.4206123,0.0606842,0.7418995,0.5696907,0.7483845
		c0.3805695,0.0848885,0.3306541,0.663908,0.7752037,0.6753578c0.1391525,0.4382648,0.4401054,0.6681557,0.8983727,0.6568928
		c0.3705177-0.0091019,0.5740662-0.2014332,0.5441742-0.5929585C41.622921,25.9577332,41.6466637,25.9153709,41.6659279,25.8704967z
		"/>
	<path style="fill:#271F1C;" d="M42.0448074,18.9770203c-0.6354218,0.4128036-0.8776474,1.2127228-1.5573921,1.5818748
		c-1.4140358-0.3866158-2.8424721-0.662035-4.3198776-0.5590668c-0.1261635,0.0033741-0.2523232,0.0067348-0.3784866,0.0100956
		c-0.1836777-0.0260506-0.367363-0.0521011-0.5510406-0.0781555c-0.0686111-0.0359287-0.1372147-0.0718555-0.205822-0.1077862
		c-0.1834793,0.0033894-0.3669586,0.0067787-0.5504341,0.01017c-0.1828117-0.015976-0.3656197-0.0319519-0.5484314-0.0479259
		c-1.0906525-0.4354954-2.2773838-0.410387-3.3966808-0.7085571c0.1556358-0.7550507-0.2198257-1.5549011,0.1930103-2.2882576
		c0.3229942,0.1758156,0.6993427-0.0363064,0.9993458,0.0892143c1.9382839,0.8109741,4.0613003,0.2195358,6.0380573,0.8499699
		c1.353756,0.4317417,2.8210678,0.2402172,4.2302361,0.4090843C41.9428368,18.4214382,41.8487167,18.7074432,42.0448074,18.9770203z
		"/>
	<path style="fill:#F67662;" d="M44.985096,12.4443035c0.8188591-0.2485037,1.5379257-0.8417549,2.4665985-0.7116871
		c0.2459373,0.0344448,0.5033836,0.0278378,0.7364388,0.1009836c0.2135811,0.0670338,0.5773277,0.0585575,0.5214043,0.4105892
		c-0.0540924,0.3404961-0.3913956,0.2588215-0.6213264,0.2476931c-0.9758186-0.0472174-1.4075851,0.5485573-1.7899399,1.3371115
		c-0.4065971,0.8385639-0.5900841,1.8718586-1.6286774,2.2687445c0.1085663-0.8809299-0.3687172-1.6591187-0.4385796-2.5082769
		c0.1586342-0.309618,0.4650421-0.53897,0.4988022-0.9166002C44.8149071,12.596674,44.9000015,12.5204878,44.985096,12.4443035z"/>
	<path style="fill:#848B8C;" d="M44.985096,12.4443035c-0.0850945,0.0761843-0.1701889,0.1523705-0.2545166,0.2284975
		c-0.2223396,0.0654545-0.4454308,0.1309681-0.6685333,0.1964808c-0.1859512-0.381588-0.3256264-0.8623152-0.8092346-0.9106941
		c-0.5830879-0.0583296-0.7334442-0.4648552-0.9172974-0.8836813c-0.0249939-0.1913424-0.0097313-0.3692274,0.1646004-0.4939709
		c0.7290192,0.1122856,1.4696579,0.175705,1.8337059,0.9976797c0.1108246,0.2502337,0.4380798,0.1388779,0.6738815,0.1591406
		C45.0002098,11.9732876,44.9926567,12.2087965,44.985096,12.4443035z"/>
	<path style="fill:#A53122;" d="M44.145153,16.6609554c-0.078476,0.1199207-0.1569557,0.2398415-0.235424,0.3595676
		c-0.2302017-0.0647583-0.4105568,0.0552177-0.5949287,0.1605682c0.0115738-0.2613983-0.047802-0.5037975-0.194252-0.7228031
		c-0.0145645-0.4279194-0.029129-0.8558369-0.0436935-1.2837563c0.3789406-0.3795757,0.2300491-0.9273567,0.4342308-1.3626242
		c0.1131477-0.027833,0.2263031-0.0556669,0.3394432-0.0835018c0.0070572,0.0840511,0.0141068,0.1681032,0.0211563,0.2521553
		C43.9404221,14.8763142,43.532135,15.820734,44.145153,16.6609554z"/>
	<path style="fill:#E9553C;" d="M44.145153,16.6609554c-0.613018-0.8402214-0.204731-1.7846413-0.2734337-2.6802912
		c0.1197205-0.1304035,0.2394142-0.2609072,0.3591003-0.3914127c0.0700569,0.8493681,0.5473404,1.6275568,0.4387741,2.5084867
		C44.6008339,16.384306,44.4574165,16.6013336,44.145153,16.6609554z"/>
	<path style="fill:#504B4A;" d="M36.1675339,19.9998169c1.4774094-0.1029568,2.9058456,0.1724625,4.3198814,0.5590782
		c-0.0417137,0.1073513-0.083416,0.2146988-0.1258125,0.3216972c-0.2077065,0.0230484-0.414711,0.0464458-0.6217232,0.0698071
		c-0.4022026-0.5271053-0.9859886-0.3279324-1.5077019-0.3770218c-0.4634132-0.3790493-1.0054131-0.1124973-1.5062866-0.1834183
		C36.5398102,20.2598743,36.353672,20.1298447,36.1675339,19.9998169z"/>
	<path style="fill:#65221A;" d="M43.314846,17.1810188c0.1843262-0.105278,0.3646812-0.2252541,0.594883-0.1604958
		c-0.4726181,0.7942371-1.1606026,1.3829174-1.8649178,1.9562664c-0.1960945-0.2693462-0.1019745-0.5553513-0.047554-0.8392429
		c0.3605881-0.0257187,0.3798332-0.2879028,0.3868256-0.5586777c0.0602112-0.0011559,0.1199608-0.0075951,0.1791191-0.0195045
		C42.8920555,17.5888157,43.0532761,17.2852364,43.314846,17.1810188z"/>
	<path style="fill:#65221A;" d="M44.678196,33.2271614c-0.0948982-0.044838-0.1897964-0.0896759-0.2846909-0.1345139
		c0.0173798-0.0218239,0.0468483-0.0644798,0.0503693-0.0624352c0.0910912,0.052887,0.1794739,0.110424,0.2685013,0.1672058
		L44.678196,33.2271614z"/>
	<path style="fill:#845547;" d="M46.3361588,31.1249428c0.0623703-0.0697613,0.1247444-0.1395187,0.1871605-0.2093086
		C46.460968,30.985384,46.3985634,31.0551643,46.3361588,31.1249428z"/>
	<path style="fill:#78797B;" d="M36.3718071,25.6310024c0.2832794,0.3186779,0.4862404,0.6771317,0.5476761,1.106144
		c0.1840363,0.5672054,0.2330894,1.1491756,0.1961632,1.7408333c-1.2866096-0.1711979-2.596386-0.0590057-3.7294998-1.0411453
		c-0.593708-0.5146065-1.5814133-0.2687168-2.3984318-0.1224556c0.2030754-0.5417118-0.0591869-0.9001827-0.4799309-1.1844254
		c-0.7707615-0.5207081-1.8756733-0.3547421-2.5058575,0.3910103c-0.2278557,0.2696438-0.4435577,0.5133171-0.8376026,0.4546642
		c-1.5165825-0.5104256-3.1240387-0.5682354-4.6724586-0.9255409c-0.2405415-0.0555096-0.5320053,0.1096535-0.7999516,0.1729488
		c-0.0031853-0.2111454-0.0063381-0.4224701-0.0093575-0.6331558c-0.2011337-0.6270199,0.3131809-1.0843182,0.3919373-1.6451855
		c0.8455276-0.1614151,1.67206-0.3683186,2.5611286-0.1944332c1.0204945,0.1995869,2.048666,0.3734131,3.0936985,0.4562492
		c0.4522705,0.0358524,0.5679512-0.0333786,0.5448341-0.439537c0.2499504,0.1210976,0.4999008,0.2421932,0.7498531,0.3632889
		c1.0720253,0.3034115,2.1245995,0.7982635,3.2571239,0.6768494c0.5467758-0.0586185,0.9374352,0.1936131,1.4007492,0.2803059
		C34.5813599,25.2557182,35.3693008,26.0031509,36.3718071,25.6310024z"/>
	<path style="fill:#271F1C;" d="M27.1643238,26.9756279c0.3940449,0.0586529,0.6097469-0.1850204,0.8376026-0.4546642
		c0.6301842-0.7457523,1.735096-0.9117184,2.5058575-0.3910103c0.4207439,0.2842426,0.6830063,0.6427135,0.4799309,1.1844254
		c-0.5246201,0.1116352-0.8680134-0.3651161-1.3750954-0.396944c-1.0044861-0.0630512-1.4531364,0.6717243-2.0123997,1.2565155
		c-0.2075577,0.2170277-0.3526402,0.4938087-0.5515823,0.7798061
		C26.7513714,28.2265491,27.0207386,27.6054859,27.1643238,26.9756279z"/>
	<path style="fill:#271F1C;" d="M30.1524639,29.4015045c1.1740589,0.0534992,1.289011,0.1946793,1.3363094,1.6412411
		c-0.1659298,0.3181953-0.5192299-0.6856956-0.6991711,0.1204548c-0.0654106,0.2930489-0.5440712,0.0517883-0.8229008-0.0696335
		C29.9210758,30.5177498,29.9359207,29.948555,30.1524639,29.4015045z"/>
	<path style="fill:#271F1C;" d="M29.2185326,31.3285942c-0.3093987-0.3669224-1.0691395-0.4205208-0.7050343-1.2996063
		c-0.2141705,0.2312374-0.3078499,0.4216366-0.4165173,0.4306107c-0.2083683,0.0172119-0.2153435-0.204874-0.1807938-0.3444424
		c0.0875797-0.3537884,0.0494938-0.7975159,0.4138985-0.9997082c0.4127789-0.2290382,0.7782536-0.0054111,1.0986309,0.2747746
		C29.3585682,30.0363998,29.2885513,30.6824951,29.2185326,31.3285942z"/>
	<path style="fill:#271F1C;" d="M30.2578182,28.755146c-0.1540756-0.0266762-0.4875698-0.0227547-0.7613564-0.1486626
		c-0.2902164-0.1334629-0.6869049-0.3524094-0.7448006-0.60186c-0.0935516-0.4030685,0.5582924-0.1308212,0.6643295-0.4772758
		c0.5656986,0.1992016,1.1313992,0.3984013,1.6970978,0.5976048c-0.1527691,0.1521969-0.2535095,0.2890263-0.2161903,0.5531197
		C30.9158516,28.8122082,30.6019764,28.8445854,30.2578182,28.755146z"/>
	<path style="fill:#504B4A;" d="M29.2185326,31.3285942c0.0700188-0.6460991,0.1400356-1.2921944,0.2101841-1.9383717
		c0.2408676,0.0338535,0.4923382-0.6122341,0.7237549,0.0113125c-0.2165508,0.54702-0.2313957,1.1162148-0.18577,1.6920319
		C29.4175987,31.5562534,29.4175987,31.5562534,29.2185326,31.3285942z"/>
	<path style="fill:#845547;" d="M37.1156464,28.4779797c0.0369263-0.5916576-0.0121269-1.1736279-0.1961632-1.7408333
		c0.1178055-0.0084476,0.2356453-0.0164547,0.3538361-0.0237579c0.0550842,0.2035103-0.0291786,0.4603252,0.2272835,0.584753
		c-0.005146,0.6390724-0.0102997,1.2781429-0.0154305,1.9172039C36.9876823,29.1571484,37.148838,28.7688618,37.1156464,28.4779797z
		"/>
	<path style="fill:#D4311C;" d="M37.8651352,29.9795361c0.7063065,0.056118,1.3404846,0.3599949,1.8232765,0.8229065
		c0.5316086,0.5097256,1.0765114,0.580761,1.7110138,0.393734c0.3922691-0.1156254,0.739151-0.1763306,0.9585915,0.2706985
		c-0.0282326,0.0549908-0.0441971,0.1224346-0.0861015,0.1632366c-0.7084312,0.6898155-3.4658966,0.9100151-4.2351723,0.3370934
		c-0.2740936-0.204134-0.1637955-0.5112267-0.1740685-0.7770863C37.8471146,30.7872257,37.862751,30.3831234,37.8651352,29.9795361z
		"/>
	<path style="fill:#845547;" d="M44.6315765,30.5365601c0.016468-0.3869324,0.2885551-0.3824902,0.5661545-0.3695984
		C45.1645355,30.5285091,44.8970337,30.5309677,44.6315765,30.5365601z"/>
	<path style="fill:#845547;" d="M45.9374847,29.9797134c0.0125618-0.2447758,0.1307564-0.3817673,0.3863678-0.3785076
		C46.2543144,29.7878933,46.4525909,30.2480373,45.9374847,29.9797134z"/>
	<path style="fill:#D4311C;" d="M11.7492514,27.9009228c-0.0238438,0.3782425-0.0476885,0.756485-0.07199,1.1348419
		c-0.4764252,1.2483826-1.2998238,0.7898655-2.1037073,0.428566c-0.0283003-0.0127182-0.057909-0.023447-0.0878954-0.0313644
		C7.38028,28.8771801,7.0925155,28.516943,7.2337089,26.4133835c0.0384459-0.5727921,0.0823269-1.1654205,0.3418398-1.7034149
		c0.839191,0.3648796,1.8705726-0.0874977,2.6432948,0.6815014c0.262207,0.2609406,0.6995792-0.1243019,1.0741692-0.1373634
		c0.6296062-0.0219536,0.312768-0.4301186,0.2769566-0.7375774c-0.0374746-0.3217487,0.1403704-0.3133392,0.4119596-0.2717953
		c1.0425291,0.1594791,2.0922241,0.2765408,3.0718622,0.7043228c0.7089338,0.3095722,0.8962193-0.0794144,0.89219-0.6804142
		c-0.000988-0.1472492-0.3203239-0.2916012-0.0492573-0.4447842c0.1024561-0.0578995,0.3293943-0.0176659,0.426156,0.0644093
		c0.1549816,0.1314602,0.338913,0.3297844,0.1684742,0.5609684c-0.5126944,0.6954174-0.2639828,0.8809814,0.5075111,1.0731792
		c1.0916557,0.271965,2.1355858,0.7211437,3.2965126,0.5028477c0.3481064-0.0654526,0.5980206,0.0953007,0.7996807,0.3590775
		c-0.0590229,0.6282482-0.1177597,1.2566223-0.1762466,1.8850212c-0.4669266,0.3449497-0.5825462,0.7860947-0.360918,1.3195477
		c-0.0055847,0.2471371-0.0111694,0.494278-0.017025,0.7413177c-0.4690151,0.1300068-0.4599609,0.5707645-0.5185661,0.9075966
		c-0.096035,0.5520096-0.5214634,0.8544579-0.9065342,0.7486458c-0.8536243-0.2345715-1.7768726-0.2615299-2.5585823-0.7498245
		c-0.1239052-0.0773964-0.3059654-0.1654854-0.4256897-0.1297741c-1.2450123,0.371336-1.1185741-0.3104706-0.8684282-1.1033173
		c0.0520391-0.1649303-0.0016518-0.3056889-0.1348734-0.415657c0.0008793-0.1824226,0.0018845-0.3649025,0.0028896-0.5473766
		c0.2933426-0.6132851,0.230094-1.1358261-0.386198-1.5176315l-0.0024137-0.0030174
		c-0.2456074-1.0961189-1.2963057-1.4859543-2.0901518-0.7755032c-0.1236992,0.067667-0.2473984,0.1353321-0.3710976,0.2029991
		c-0.2989397,0.081974-0.860693-0.0936832-0.5624285,0.5737305C11.7289476,27.6477051,11.7390995,27.7743149,11.7492514,27.9009228z
		"/>
	<path style="fill:#845547;" d="M15.1310844,29.0405197c-0.0010052,0.1824741-0.0020103,0.364954-0.0028896,0.5473766
		c-0.1236715,0.0016136-0.2474689,0.0032768-0.3710756,0.0049076c-0.0725813-0.6787968-0.1453543-1.3575649-0.2180367-2.0366745
		c0.0678568-0.0123196,0.1356239-0.0242882,0.2033901-0.0362587l0.0023565,0.0030289
		C14.7178268,28.0684204,15.0377359,28.5256348,15.1310844,29.0405197z"/>
	<path style="fill:#C19791;" d="M22.0745392,23.9445801c-0.0788021,0.5609818-0.5931168,1.01828-0.3919811,1.6453018
		c-0.1128979,0.0571918-0.2256603,0.1150208-0.3381119,0.1720028c0.0701942-0.6682014,0.1400795-1.3355579,0.210434-2.0030937
		c0.2289867-0.8870583,0.463604-1.772419,0.6838131-2.6613522c0.1421242-0.5737247-0.1518135-0.8909035-0.6726208-1.0348835
		c-0.2966442-0.0820045-0.6308155-0.0725689-0.6153908-0.5329895c0.0133438-0.398222,0.2213764-0.6581841,0.5446625-0.8046818
		c0.5375576-0.243597,1.1118183-0.413784,1.7064514-0.3057003c0.4990215,0.0907021,0.9917278,0.0768299,1.4898281,0.0548077
		c0.6041279,0.0121689,1.2079868,0.0241623,1.8126411,0.0362396c0.7681065,0.2471428,1.550106,0.3872375,2.360014,0.3241386
		c0.40275,0.2127666,0.8524628,0.204174,1.2857838,0.2727623c-0.494297,0.2798538-1.0255356,0.1608219-1.5312405,0.0934658
		c-1.1845512-0.157774-2.3626518-0.3621597-3.5643635-0.3229561c-0.6199703-0.035881-1.2568359,0.1239281-1.8581142-0.1002426
		c-0.5096607-0.1900139-0.9004879-0.0102634-1.2979221,0.2774982c-0.5296173,0.3834591-0.4555988,0.6221371,0.1537418,0.7653236
		c0.1989727,0.1265488,0.3977261,0.2531128,0.5964756,0.3796749c0.0591488,0.3096828,0.1182976,0.6193676,0.1774464,0.9290485
		c-0.4775677,0.4102173-0.3661671,0.9698792-0.3800449,1.4977531
		C22.1998692,23.0315075,22.0963078,23.4765129,22.0745392,23.9445801z"/>
	<path style="fill:#A53122;" d="M20.5578899,29.5889091c-0.2216244-0.533453-0.1060047-0.9745979,0.3609219-1.3195477
		C20.9777641,28.7582359,20.8769608,29.2033997,20.5578899,29.5889091z"/>
	<path style="fill:#78797B;" d="M14.5407696,35.0573425c1.5882912,0.3711929,3.1175137,0.9660721,4.7383919,1.2201729
		c0.8085117,0.1267509,1.6575394,0.0645294,2.413662,0.4667854c-0.3385563,0.3285255-0.7551994,0.1421623-1.1372356,0.1634331
		c-0.3709278,0.0206528-0.7421989-0.3866653-1.1164684-0.000679c-0.1806316-0.0041237-0.3612595-0.0082512-0.5420799-0.012085
		c-0.0408001-0.3192253-0.3091526-0.3536034-0.5413132-0.419342c-1.0321865-0.2922783-2.0603733-0.60252-3.1029577-0.8521843
		C14.8931484,35.5373268,14.5850229,35.4928627,14.5407696,35.0573425z"/>
	<path style="fill:#96999C;" d="M14.5407696,35.0573425c0.0442533,0.4355202,0.3523788,0.4799843,0.7119989,0.5661011
		c1.0425844,0.2496643,2.0707712,0.559906,3.1029577,0.8521843c0.2321606,0.0657387,0.5005131,0.1001167,0.5413132,0.419342
		c-2.1842155-0.1896896-4.1893559-1.0128899-6.2151814-1.7615776c-0.2128-0.0786438-0.3873615-0.206974-0.3786402-0.4724503
		c0.4245729-0.0183563,0.8237152,0.000782,1.1902952,0.2930565c0.1683865,0.1342545,0.4248266,0.4227638,0.6869411,0.0682297
		C14.3006001,35.0337944,14.4206839,35.0455704,14.5407696,35.0573425z"/>
	<path style="fill:#96999C;" d="M19.4391193,36.9070549c0.3742695-0.3859863,0.7455406,0.0213318,1.1164684,0.000679
		c0.3820362-0.0212708,0.7986794,0.1650925,1.1372356-0.1634331c0.1226959,0.0009651,0.2454185,0.0018501,0.3680573,0.0028648
		c0.0402088,0.3187904,0.2669163,0.3608093,0.5274696,0.3610153c0.273735,0.0002174,0.5629635-0.0197792,0.6310558,0.3519821
		C21.9271679,37.4962349,20.6575069,37.3769684,19.4391193,36.9070549z"/>
	<path style="fill:#96999C;" d="M24.1381721,37.4724693c0.7149563-0.1755714,1.441431-0.4788361,2.0805492,0.1874924
		C25.5249653,37.6008492,24.7997494,37.8900528,24.1381721,37.4724693z"/>
	<path style="fill:#96999C;" d="M27.7104931,37.6983223c0.5479259-0.3619614,1.0136185,0.006382,1.5024433,0.1692276
		C28.6648102,38.2310867,28.1746941,38.0797119,27.7104931,37.6983223z"/>
	<path style="fill:#96999C;" d="M26.5811253,37.6552544c0.2605381-0.2414551,0.5123291-0.2551422,0.7526875,0.0289803
		C27.0726185,37.9412842,26.8208485,37.9542542,26.5811253,37.6552544z"/>
	<path style="fill:#555B5C;" d="M34.8302994,22.5790806c-0.2451363,0.0210152-0.4902725,0.0420265-0.7353401,0.0630131
		c-0.1309395,0.0007725-0.2619438,0.0015697-0.3929482,0.0023689c-0.1266212-0.0581017-0.2532463-0.1162014-0.3796196-0.1744366
		c0.2118378-0.4009762,0.8845024,0.0338707,0.9955254-0.5492554c0.8386192,0.2527981,1.2478142-0.4925709,1.8476181-0.794878
		c0.387886,0.2839394,0.9670563,0.1208897,1.2916412,0.5527515c-0.0080376,0.0629406-0.0160789,0.1258831-0.0238647,0.1890087
		c-0.6579018,0.2275772-1.3101044,0.4755802-2.030838,0.3917217C35.1493034,22.2299156,34.9116783,22.2774048,34.8302994,22.5790806
		z"/>
	<path style="fill:#78797B;" d="M37.4571762,21.6786442c-0.324585-0.4318619-0.9037552-0.2688122-1.2916222-0.5526638
		c0.1867714-0.2452621,0.3735275-0.4906139,0.5602798-0.7359657c0.5009308,0.0708656,1.0429306-0.1956863,1.5063438,0.183363
		l0.007267-0.0071735c-0.9707985-0.031395-0.2015228,0.6434994-0.3791313,0.9340591
		C37.7750359,21.6706905,37.6180916,21.6791515,37.4571762,21.6786442z"/>
	<path style="fill:#78797B;" d="M38.2321777,20.5733776c0.5217133,0.0490894,1.1054993-0.1500835,1.5077019,0.3770218
		c-0.0097008,0.3542252-0.2090302,0.5265541-0.5449333,0.5680199c-0.2987099-0.3374023-1.0802879-0.1901226-0.9555016-0.9522152
		L38.2321777,20.5733776z"/>
	<path style="fill:#845547;" d="M34.8302994,22.5790806c0.0813789-0.3016758,0.3190041-0.349165,0.5721741-0.319706
		c0.7207336,0.0838585,1.3729362-0.1641445,2.030838-0.3917217c0.0203476,0.1289997,0.0409431,0.2581844,0.0616608,0.3872929
		C36.6268692,22.5276623,35.7481346,22.7140617,34.8302994,22.5790806z"/>
	<path style="fill:#504B4A;" d="M38.2394447,20.5662041c-0.1247864,0.7620926,0.6567917,0.6148129,0.9555016,0.9522152
		c-0.4527626,0.584404-0.8900719,0.015358-1.3346329-0.0180931C38.0379219,21.2097034,37.2686462,20.5348091,38.2394447,20.5662041z
		"/>
	<path style="fill:#78797B;" d="M38.9862518,22.6404877c-0.0006599,0.0613174-0.0005531,0.122633,0.0003052,0.1839352
		c-0.1649437,0.0048828-0.3050194-0.0421524-0.3971329-0.1900063
		C38.7215118,22.6364212,38.8538857,22.6384544,38.9862518,22.6404877z"/>
	<path style="fill:#96999C;" d="M33.7020111,22.6444626c0.1310043-0.0007992,0.2620087-0.0015965,0.3929482-0.0023689
		c0.0413055,0.539669,0.4023247,0.797472,0.8551254,0.9816055c0.3909988,0.1590118,0.7174873,0.3754311,0.6727295,0.8737965
		c-1.1604538,0.2481384-2.1986275-0.5749969-3.3656845-0.3712387c-0.5159683,0.0900822-1.024025-0.0424099-1.539978-0.2320995
		c-0.5541267-0.2037277-1.2076836-0.3853569-1.6931438,0.236105c-0.2499523-0.1210957-0.4999027-0.2421913-0.7498627-0.363306
		c-0.1504612-0.3443432-0.4454308-0.4000759-0.7721786-0.3776245c-0.5072975,0.0348549-0.9784336-0.1402454-1.444912-0.2824154
		c-0.9671993-0.2947826-1.9060974-0.7643051-2.9259624-0.1673088c-0.3419418,0.2001629-0.4773788-0.1605473-0.685051-0.3129101
		c0.0138779-0.527874-0.0975227-1.0875359,0.380003-1.4976864c1.6723804-0.0397873,3.3556442,0.0320969,4.9568577,0.4804726
		c1.3651428,0.382267,2.7515259,0.631094,4.1280384,0.9336052C32.4835472,22.6689281,33.0842438,23.0443115,33.7020111,22.6444626z"
		/>
	<path style="fill:#F67662;" d="M37.5006027,27.2981415c-0.2564621-0.1244278-0.1721992-0.3812428-0.2272835-0.584753
		c-0.5679169-1.1192989-0.6287537-2.4478607-1.4930229-3.4542007c-0.3482857-0.4055386,0.0966568-0.4130592,0.3649788-0.4423904
		c0.9778671-0.1069031,1.8930931,0.24547,2.8366356,0.3904343c0.0778046,0.4521027-0.055378,0.8762226-0.1724586,1.3023796
		c-1.5138969,0.0635395-1.7742424,0.4346485-1.3495293,1.9102306
		C37.5425224,26.7067986,37.7178574,26.9949989,37.5006027,27.2981415z"/>
	<path style="fill:#848B8C;" d="M29.0240078,24.1302624c0.4854603-0.6214619,1.1390171-0.4398327,1.6931438-0.236105
		c0.5159531,0.1896896,1.0240097,0.3221817,1.539978,0.2320995c1.167057-0.2037582,2.2052307,0.6193771,3.3656845,0.3712387
		c0.6189117,0.1341057,0.692543,0.6281929,0.7488251,1.1336765c-1.0023384,0.3719788-1.7902794-0.3754539-2.6897583-0.5437546
		c-0.4633141-0.0866928-0.8539734-0.3389244-1.4007492-0.2803059
		C31.1486073,24.9285259,30.0960331,24.4336739,29.0240078,24.1302624z"/>
	<path style="fill:#78797B;" d="M40.1521492,25.933651c-0.4445496-0.0114498-0.3946342-0.5904694-0.7752991-0.6752434
		c-0.0716209-0.1989288-0.1431503-0.3979759-0.2146759-0.5970211c0.0692482-0.8561668,0.7373924-0.3972435,1.1408463-0.5195427
		c0.0627365,0.0625534,0.1254768,0.1251011,0.1882172,0.1876488c0.0694771,0.0788555,0.1389542,0.1577129,0.2085724,0.2369881
		c0.0063705,0.2362041,0.1446381,0.3274956,0.3626022,0.3316631c-0.0154381,0.1258526-0.0309143,0.2516594-0.0461273,0.3774109
		C40.80476,25.5951481,40.013134,25.1532688,40.1521492,25.933651z"/>
	<path style="fill:#555B5C;" d="M40.1521492,25.933651c-0.1390152-0.7803822,0.6526108-0.3385029,0.8641357-0.6580963
		c0.3303795,0.1304417,0.3162766,0.5371609,0.5785255,0.7221546c0.0297775,0.3914013-0.1737709,0.5837326-0.5442886,0.5928345
		C40.5922546,26.6018066,40.2913017,26.3719158,40.1521492,25.933651z"/>
	<path style="fill:#F67662;" d="M39.1621742,24.6613865c0.0715256,0.1990452,0.143055,0.3980923,0.2146759,0.5970211
		c-0.5089111-0.0065994-0.6044693-0.3278866-0.5695953-0.7484989
		C38.9256172,24.5603542,39.0438957,24.6108704,39.1621742,24.6613865z"/>
	<path style="fill:#E9553C;" d="M26.5034676,18.5101471c-0.603857-0.0119934-1.207716-0.0239868-1.8118439-0.0361557
		c-0.9543724-0.5646305-0.9522953-0.876709-0.0734863-1.5002327c0.4322796-0.3067074,0.9258041-0.4228077,1.3981953-0.486351
		c0.8087845-0.1087914,1.5055103-0.3886356,2.0945225-0.9318552c0.2756672-0.2542353,0.536375-0.2503843,0.8547001-0.1135864
		c0.3539066,0.1520863,0.6620712-0.1128244,0.9968071-0.1540899c0.3355446,0.4726048,0.1225338,0.9880733,0.1174068,1.4875374
		c-0.825922,0.3857937-1.5036278,0.9473705-2.0159836,1.7045937C27.5436802,18.4900532,27.0235729,18.5000992,26.5034676,18.5101471
		z"/>
	<path style="fill:#96999C;" d="M31.4246883,14.559967c0.0288258-0.1231918,0.0576572-0.2463818,0.0860653-0.3696804
		c1.614418-0.1455498,3.2104416,0.2048941,4.8209038,0.1827822c1.5651665,0.3128157,3.1231117,0.6846867,4.7397881,0.5557241
		c0.6109352,0.1059227,1.2773857-0.2229214,1.8433151,0.2353983c-0.1801529,0.1115732-0.3603134,0.2231455-0.5404663,0.3347168
		c-1.8179359-0.0903358-3.6296082-0.12292-5.4375801-0.4838943c-1.0905762-0.2177429-2.2778397-0.2784395-3.4001846,0.1002359
		c-0.1865044-0.0006008-0.3730125-0.0012016-0.5595169-0.0018024c-0.3757133-0.6800976-0.9598999-0.4657288-1.5200939-0.3542919
		C31.4461746,14.6927586,31.4354324,14.6263628,31.4246883,14.559967z"/>
	<path style="fill:#65221A;" d="M30.0791836,16.7751312c0.0057125-0.4991817,0.2187233-1.0146503-0.1168213-1.4872551
		c0.2013531-0.3129511,0.3913536-0.1626005,0.5806141,0.0139704c0.0574112,0.1271515,0.1149158,0.2543354,0.1724396,0.3815165
		c0.0082531,0.1235676,0.0164909,0.2471361,0.0247288,0.3707066c-0.1671371,0.2427788-0.1884022,0.4876385-0.0104923,0.735342
		c-0.4128361,0.7333565-0.0373745,1.5332069-0.1931248,2.2882423c-0.128891,0.0098228-0.2576714,0.0196609-0.3864498,0.0294991
		c-0.4333363-0.0686092-0.883049-0.0600166-1.2860088-0.2727585c-0.0063705-0.0458393-0.0143509-0.091383-0.0241489-0.1366081
		c0.7136059,0.1027431,1.065897-0.1770306,0.9775238-0.9233322c0.3659611-0.0706501,0.3490276-0.326252,0.2907124-0.6018429
		C30.0984993,17.0401192,30.0888424,16.9076252,30.0791836,16.7751312z"/>
	<path style="fill:#C19791;" d="M36.331356,14.3731289c-1.6101608,0.0220518-3.2061844-0.328392-4.8206024-0.1828423
		c0.0840855-0.2577133,0.3653793-0.2587881,0.5319443-0.4091978c1.3726311,0.1475601,2.7656364,0.0732603,4.1237755,0.3792057
		c0.0707169,0.0142412,0.1413155,0.0284328,0.2117157,0.042592C36.3586388,14.2585726,36.3430977,14.3153305,36.331356,14.3731289z"
		/>
	<path style="fill:#845547;" d="M30.7153988,15.6833658c-0.0575066-0.1271839-0.1150112-0.2543678-0.1724224-0.3815193
		c0.2854633-0.2578106,0.3953876-0.7243404,0.8822041-0.7419291c0.010252,0.0664454,0.0209942,0.1328411,0.0318718,0.1990376
		c0.0017776,0.1225348,0.0034237,0.2452717,0.0050697,0.3680067c-0.0073185,0.1276913-0.0146351,0.2553844-0.0216331,0.3828468
		C31.2624474,15.8323212,30.9788647,15.7158546,30.7153988,15.6833658z"/>
	<path style="fill:#A53122;" d="M14.7424726,27.5198708c-0.0677662,0.0119705-0.1355333,0.0239391-0.2033901,0.0362587
		c-0.2702904-0.0296021-0.3553905-0.2902393-0.5371628-0.4302597c-0.2958279-0.6717415-0.9153118-0.1992912-1.3495989-0.3815022
		C13.446167,26.0339165,14.4968653,26.4237518,14.7424726,27.5198708z"/>
	<path style="fill:#845547;" d="M12.6523209,26.7443676c0.4342871,0.1822109,1.053771-0.2902393,1.3495989,0.3815022
		c-1.0166101-0.5137863-1.5119333,0.4877338-2.2528419,0.7750854c-0.0099783-0.1266403-0.0201302-0.2532501-0.0301523-0.3797951
		c0.2686615-0.1117306,0.4658232-0.2934456,0.5622978-0.5737934C12.4049225,26.8796997,12.5286217,26.8120346,12.6523209,26.7443676
		z"/>
	<path style="fill:#504B4A;" d="M36.3783913,14.2029181c-0.0706024-0.0141907-0.141201-0.0283823-0.2119179-0.0426235
		c0.1153755-0.4453678,0.2237701-0.8916702,0.188221-1.3587408c0.7573166,0.2152882,1.3561096-0.3216782,2.0303535-0.4798069
		c0.3759499-0.0881729,0.7587585-0.2122059,1.1526604-0.2677345c0.0714302,0.0165625,0.1427574,0.0324354,0.2139702,0.0483999
		c-0.0063972,0.2458677-0.0126915,0.491642-0.0189819,0.7374163c-0.0142136,0.0688219-0.0284309,0.1376448-0.0426445,0.2064667
		c-0.4635735,0.7563248-1.28545,0.877243-2.0259705,1.1424427C37.2355194,14.1934643,36.8069534,14.1981907,36.3783913,14.2029181z"
		/>
	<path style="fill:#D4311C;" d="M39.7517891,12.1023207c-0.0713234-0.015873-0.1426506-0.0317459-0.2140808-0.0483084
		c0.0357704-0.3731766,0.07164-0.7456665,0.1084137-1.1187105c0.2260246-0.1561089,0.4342842-0.061223,0.6419945,0.0425806
		c0.4768867,0.6819925,0.741188,0.3147945,0.9760513-0.197732c0.212326,0.1288834,0.4246597,0.2577667,0.6373138,0.3866358
		c0.0099335,0.2406816,0.0195541,0.4813786,0.0296669,0.7223663c-0.2878036,0.1768942-0.3428955,0.4557228-0.333725,0.7627239
		c-0.0538406-0.0182352-0.1091232-0.0291519-0.1658211-0.0321131
		C41.0961304,11.7199526,40.4148636,11.9406252,39.7517891,12.1023207z"/>
	<path style="fill:#78797B;" d="M41.9306564,11.8888607c-0.0096207-0.240696-0.0192413-0.4813929-0.0291748-0.7220755
		c0.1445389-0.0302572,0.2894096-0.0605307,0.4341507-0.091341c0.1837349,0.4182882,0.3340912,0.8248138,0.9171791,0.8831434
		c0.4836082,0.0483789,0.6232834,0.5291061,0.8092461,0.9106321c-0.0639648,0.0655441-0.1279526,0.1311493-0.1918755,0.196578
		C42.9649849,13.0998182,42.4799004,12.4414654,41.9306564,11.8888607z"/>
	<path style="fill:#65221A;" d="M41.2641678,10.7801504c-0.2348633,0.5125265-0.4991646,0.8797245-0.9760513,0.197732
		c0.0010376-0.3834639,0.2330933-0.6538572,0.5588341-0.7098875C41.1149483,10.2218981,41.1420021,10.5877028,41.2641678,10.7801504
		z"/>
	<path style="fill:#96999C;" d="M22.0519409,19.8202362c-0.6091175-0.1432018-0.683136-0.3818798-0.1535187-0.7653389
		c0.3974342-0.2877617,0.7882614-0.4675121,1.2979221-0.2774982c0.6012783,0.2241707,1.2381439,0.0643616,1.858408,0.1002502
		c0.0096455,0.1383343-0.3264389,0.2441463-0.1194057,0.3476715c0.8133354,0.4067059,1.7209244,0.4762058,2.6034908,0.5311089
		c1.5300922,0.0951824,3.06707-0.0673351,4.5999069,0.204237c0.5712395,0.1012077,1.235611,0.2577915,1.7945786-0.1744404
		c0.1828117,0.015974,0.3656197,0.03195,0.5484161,0.0479259c-0.0371475,0.380228,0.1114273,0.6193504,0.5129929,0.5170307
		c0.2856407-0.0727768,0.5363808,0.0044098,0.8018112,0.039463c-0.2366638,0.8077831-0.9687233,0.9057293-1.5707664,0.8505764
		c-1.355526-0.1241817-2.6926594-0.43713-4.0443859-0.6210499c-0.5046825-0.0686684-1.0515213-0.2251301-1.5333824,0.1346836
		c-0.4378529-0.0622444-0.8757267-0.1245251-1.3136005-0.1868057c-0.3286228-0.398243-0.5963078-0.5446129-1.2289352-0.3738365
		c-0.6305752,0.1702213-1.4096832-0.198782-2.1213074-0.3430157C23.3406124,19.7207642,22.7012653,19.5147514,22.0519409,19.8202362
		z"/>
	<path style="fill:#504B4A;" d="M30.7296524,16.7894115c-0.1779099-0.2477036-0.1566448-0.4925632,0.0102596-0.7353268
		c0.2876434-0.0256119,0.3301544,0.4041939,0.4580593,0.3734913c1.0859833-0.2606831,2.1239548,0.1219616,3.1775627,0.2106838
		c1.8435707,0.1552372,3.6858406,0.3659534,5.5136909,0.6498013c0.8311882,0.129076,1.699894-0.0960331,2.4949875,0.2909927
		c-0.007122,0.2705898-0.0263672,0.532774-0.3869553,0.5584927c-1.4091339-0.1687336-2.8764458,0.0227909-4.2302017-0.4089508
		c-1.976757-0.630434-4.0997734-0.0389957-6.0380573-0.8499699C31.4289951,16.7531052,31.0526466,16.9652271,30.7296524,16.7894115z
		"/>
	<path style="fill:#B8B6B4;" d="M33.9333229,19.7862263c-0.5589676,0.4322319-1.2233391,0.2756481-1.7945786,0.1744404
		c-1.5328369-0.2715721-3.0698147-0.1090546-4.5999069-0.204237c-0.8825665-0.054903-1.7901554-0.124403-2.6034908-0.5311089
		c-0.2070332-0.1035252,0.1290512-0.2093372,0.1194057-0.3476715c1.2014179-0.0392113,2.3795185,0.1651745,3.5640697,0.3229485
		c0.5057049,0.0673561,1.0369434,0.186388,1.5312405-0.0934658c0.1287937-0.0098171,0.2575741-0.0196552,0.3864651-0.0294781
		C31.6559391,19.3758392,32.8426704,19.3507309,33.9333229,19.7862263z"/>
	<path style="fill:#848B8C;" d="M28.6479874,20.754818c0.4818821-0.3597755,1.0287209-0.2033138,1.5334034-0.1346455
		c1.3517265,0.1839199,2.6888599,0.4968681,4.0443859,0.6210499c0.6020432,0.0551529,1.3341026-0.0427933,1.5707245-0.8506699
		c0.2136955-0.1311436-0.0094681-0.2536945-0.0074501-0.3806286c0.1261635-0.0033607,0.2523232-0.0067215,0.3784866-0.0100956
		c0.1861343,0.1300163,0.3722725,0.260046,0.5583534,0.390131c-0.1868095,0.2454071-0.3735657,0.4907589-0.5603371,0.736021
		c-0.599823,0.3022194-1.0090179,1.0475883-1.8478661,0.7944679c-0.6788559-0.3874912-1.4604073-0.2044907-2.1849289-0.3784256
		c-0.4189224-0.1005669-0.7438602-0.5628471-1.2119236-0.3702106C30.0613842,21.5255318,29.3534508,21.175005,28.6479874,20.754818z
		"/>
	<path style="fill:#B8B6B4;" d="M35.7890511,20.0099239c-0.002018,0.1269341,0.2211456,0.249485,0.0074501,0.3806286
		c-0.2653885-0.0349598-0.5161285-0.1121464-0.8017693-0.0393696c-0.4015656,0.1023197-0.5501404-0.1368027-0.5129929-0.5170307
		c0.1834908-0.0033913,0.3669701-0.0067806,0.5504608-0.0101852c0.0274734,0.1144409,0.079464,0.1820793,0.2058105,0.1078014
		C35.4216881,19.9578228,35.6053734,19.9838734,35.7890511,20.0099239z"/>
	<path style="fill:#504B4A;" d="M35.2380104,19.9317684c-0.1263466,0.0742779-0.1783371,0.0066395-0.2058105-0.1078014
		C35.1007957,19.8599129,35.1693993,19.8958397,35.2380104,19.9317684z"/>
	<path style="fill:#845547;" d="M43.8701248,13.0659742c0.0639801-0.0656052,0.1279678-0.1312103,0.1919327-0.1967525
		c0.2230911-0.0654526,0.4461823-0.1309662,0.6685219-0.1964197c-0.034523,0.3776894-0.3409309,0.6070414-0.4995651,0.9166594
		c-0.1198807,0.1302958-0.2395744,0.2607994-0.3592949,0.3912029c-0.0070839-0.0841551-0.0141335-0.1682072-0.0209427-0.2515211
		C43.8573914,13.5085783,43.8637581,13.2872772,43.8701248,13.0659742z"/>
	<path style="fill:#78797B;" d="M31.4401665,15.5100384c0.0073204-0.1276922,0.014637-0.2553854,0.0220242-0.3831644
		c0.5049877-0.0045338,1.0099049-0.0089817,1.514822-0.0134268c0.1865044,0.0006008,0.3730125,0.0012016,0.5595169,0.0018415
		c0.0739708,0.0537081,0.1438408,0.1471691,0.2225075,0.1552782c2.5151863,0.2592583,5.0293121,0.5344648,7.5494194,0.7336216
		c0.3367577,0.0266132,0.9112129,0.0755291,1.0658379-0.5052805c0.1801529-0.1115713,0.3603134-0.2231436,0.5405235-0.3349638
		l0.081913-0.0077782l0.0801239,0.0183659c0.0145645,0.4279194,0.029129,0.8558369,0.0437164,1.2835121
		c-0.2500458-0.0177002-0.5001106-0.0351563-0.7501831-0.0526123c-0.1500702-0.1586876-0.3727455-0.2102795-0.4967499-0.0613499
		c-0.6224251,0.7475071-1.3995781,0.4465179-2.1490593,0.3608131c-1.9046211-0.2177944-3.8120422-0.4140091-5.7127647-0.6616726
		C33.1451263,15.930294,32.2155762,16.0765324,31.4401665,15.5100384z"/>
	<path style="fill:#504B4A;" d="M43.0768547,15.1745319l-0.0801239-0.0183659l-0.081913,0.0077782
		c-0.5659866-0.4580727-1.2324371-0.1292286-1.8434067-0.2351494c-0.0075722-0.0595684-0.0140114-0.119257-0.0193634-0.1790638
		c0.8132324-0.399435,0.6478729-1.0403194,0.4186935-1.6969528c-0.0130577-0.1445503-0.0261116-0.2890997-0.0391693-0.43365
		c0.0567284,0.0035963,0.112011,0.014513,0.1660194,0.0329962c0.2451782,0.0267572,0.6049309-0.0053692,0.6533966,0.2529202
		c0.1390877,0.7411003,0.7994919,0.6673241,1.2600975,0.9068632C43.3069038,14.2471752,43.4557953,14.7949562,43.0768547,15.1745319
		z"/>
	<path style="fill:#555B5C;" d="M43.5110855,13.8119078c-0.4606056-0.2395391-1.1210098-0.1657629-1.2600975-0.9068632
		c-0.0484657-0.2582893-0.4082184-0.2261629-0.6533966-0.2529202c-0.0093384-0.3072491,0.0457535-0.5860777,0.3335571-0.7629719
		c0.5487518,0.5523129,1.0338364,1.2106657,1.9390335,1.1766472c-0.006424,0.2214775-0.0127907,0.4427786-0.0194016,0.6633434
		C43.7373886,13.7562408,43.6242332,13.7840748,43.5110855,13.8119078z"/>
	<path style="fill:#504B4A;" d="M42.370388,16.4054317c0.2500725,0.0174561,0.5001373,0.0349121,0.7501831,0.0526123
		c0.1464272,0.2192497,0.2058029,0.4616489,0.1942291,0.7230473c-0.2615242,0.1041451-0.4227448,0.4077244-0.7516518,0.3783131
		C42.5926285,17.1591167,42.0172844,16.8597965,42.370388,16.4054317z"/>
	<path style="fill:#555B5C;" d="M42.370388,16.4054317c-0.3531036,0.4543648,0.2222404,0.753685,0.1927605,1.1539726
		c-0.0591049,0.0118694-0.1188545,0.0183086-0.1790657,0.0194645c-0.7949638-0.3868408-1.6636696-0.1617317-2.4948578-0.2908077
		c-1.8278503-0.2838478-3.6701202-0.4945641-5.5136909-0.6498013c-1.0536079-0.0887222-2.0915794-0.4713669-3.1775627-0.2106838
		c-0.1279049,0.0307026-0.1704159-0.3991032-0.4580593-0.3734913c-0.0080051-0.1235857-0.016243-0.2471542-0.0244961-0.3707218
		c0.2634487,0.0324917,0.5470314,0.1489582,0.7250729-0.1735544c0.7750874,0.5667238,1.7046375,0.4204855,2.5713253,0.5334139
		c1.9007225,0.2476635,3.8081436,0.4438782,5.7127647,0.6616726c0.7494812,0.0857048,1.5266342,0.386694,2.1490593-0.3608131
		C41.9976425,16.1951523,42.2203178,16.2467442,42.370388,16.4054317z"/>
	<path style="fill:#848B8C;" d="M22.4460411,22.6266975c0.2076721,0.1523628,0.3431091,0.513073,0.685051,0.3129101
		c1.019865-0.5969963,1.9587631-0.1274738,2.9259624,0.1673088c0.4664783,0.14217,0.9376144,0.3172703,1.444912,0.2824154
		c0.3267479-0.0224514,0.6217175,0.0332813,0.7721786,0.3776245c0.0231266,0.4061756-0.0925541,0.4754066-0.5448246,0.4395542
		c-1.0450325-0.0828362-2.073204-0.2566624-3.0936985-0.4562492c-0.8890686-0.1738853-1.715601,0.0330181-2.5611286,0.1944332
		C22.0963078,23.4765129,22.1998692,23.0315075,22.4460411,22.6266975z"/>
	<path style="fill:#A53122;" d="M15.1310844,29.0405197c-0.0933485-0.5148849-0.4132576-0.9720993-0.3862553-1.5176201
		C15.3611784,27.9046936,15.424427,28.4272346,15.1310844,29.0405197z"/>
	<path style="fill:#A53122;" d="M12.2812233,26.9473667c-0.0964746,0.2803478-0.2936363,0.4620628-0.5622997,0.5737934
		C11.4205303,26.8536835,11.9822836,27.0293407,12.2812233,26.9473667z"/>
	<path style="fill:#B8B6B4;" d="M33.7020111,22.6444626c-0.6177673,0.3998489-1.2184639,0.0244656-1.7910709-0.1013737
		c-1.3765125-0.3025112-2.7628956-0.5513382-4.1280384-0.9336052c-1.6012135-0.4483757-3.2844772-0.5202599-4.9568577-0.4804726
		c-0.0591068-0.3097477-0.1182556-0.6194324-0.1775837-0.9291592c1.3119221,0.0329552,2.539608,0.636425,3.8661156,0.5720444
		c2.2269039,0.7355804,4.5170212,1.2177773,6.8075676,1.6982632C33.4487648,22.5282612,33.5753899,22.5863609,33.7020111,22.6444626
		z"/>
	<path style="fill:#848B8C;" d="M26.514576,20.7718964c-1.3265076,0.0643806-2.5541935-0.5390892-3.8661156-0.5720444
		c-0.1985703-0.1265182-0.3973236-0.2530823-0.5962963-0.379631c0.6491013-0.3054695,1.2884483-0.0994568,1.9320011,0.0309772
		c0.7116241,0.1442337,1.4907322,0.513237,2.1213074,0.3430157c0.6326275-0.1707764,0.9003124-0.0244064,1.2289238,0.3738632
		C27.1168671,20.8602982,26.792078,20.7209892,26.514576,20.7718964z"/>
	<path style="fill:#A53122;" d="M28.83992,18.6977863c0.009798,0.0452251,0.0177784,0.0907688,0.0241489,0.1366081
		c-0.8096981,0.0630741-1.5916977-0.0770206-2.3598042-0.3241634c0.5193081-0.0101318,1.0394154-0.0201778,1.559742-0.0299892
		C28.3254814,18.5433083,28.6435661,18.4032898,28.83992,18.6977863z"/>
	<path style="fill:#78797B;" d="M26.514576,20.7718964c0.2775021-0.0509071,0.6022911,0.0884018,0.8198204-0.2038193
		c0.4378853,0.062254,0.8757591,0.1245346,1.313612,0.186779c0.7054424,0.4201488,1.4133759,0.7706757,2.2728271,0.4169559
		c0.4680634-0.1926365,0.7930012,0.2696438,1.2119236,0.3702106c0.7245216,0.1739349,1.506073-0.0090656,2.1849289,0.3784256
		c-0.1107941,0.5834484-0.7834587,0.1486015-0.9952965,0.5495777C31.0315971,21.9896736,28.7414799,21.5074768,26.514576,20.7718964
		z"/>
	<path style="fill:#D4311C;" d="M28.83992,18.6977863c-0.1963539-0.2944965-0.5144386-0.1544781-0.7759132-0.2175446
		c0.5121346-0.7574577,1.1898403-1.3190346,2.0157642-1.7048283c0.0090714,0.1322117,0.0187283,0.2647057,0.0287895,0.3972511
		c-0.358326,0.0739174-0.3511944,0.3250294-0.2911167,0.6017895C29.905817,18.5207558,29.5535259,18.8005295,28.83992,18.6977863z"
		/>
	<path style="fill:#848B8C;" d="M42.3742943,15.498908c-0.1546249,0.5808096-0.7290802,0.5318937-1.0658379,0.5052805
		c-2.5201073-0.1991568-5.0342331-0.4743633-7.5494194-0.7336216c-0.0786667-0.0081091-0.1485367-0.1015701-0.2225075-0.1552782
		c1.122345-0.3787146,2.3096085-0.318018,3.4001846-0.100275C38.7446861,15.375988,40.5563583,15.4085722,42.3742943,15.498908z"/>
	<path style="fill:#B8B6B4;" d="M41.0520477,14.7497311c0.005352,0.0598068,0.0117912,0.1194954,0.0193634,0.1790638
		c-1.616642,0.1289606-3.1745872-0.2429104-4.7397537-0.5557261c0.0114403-0.0577383,0.0269814-0.1144962,0.0465317-0.1701822
		c0.4287643-0.0046959,0.8573303-0.0094223,1.2859001-0.0141573C38.7934113,14.3757267,39.9227295,14.5627279,41.0520477,14.7497311
		z"/>
	<path style="fill:#848B8C;" d="M32.9770126,15.1134472c-0.5049171,0.0044451-1.0098343,0.008893-1.514822,0.0134268
		c-0.0017147-0.1226473-0.0033607-0.2453842-0.0051384-0.367919C32.0171127,14.6477184,32.6012993,14.4333496,32.9770126,15.1134472
		z"/>
	<path style="fill:#A53122;" d="M29.8174438,17.7744541c-0.0600777-0.2767601-0.0672092-0.5278721,0.2911148-0.6017895
		C30.1664715,17.4482021,30.1834049,17.703804,29.8174438,17.7744541z"/>
	<path style="fill:#271F1C;" d="M41.0520477,14.7497311c-1.1293182-0.1870031-2.2586365-0.3740044-3.3879585-0.5610008
		c0.7405128-0.265192,1.5623894-0.3861103,2.0265007-1.1423807c0.0592384,0.2668495-0.0135574,0.5651855,0.1894264,0.7973099
		c0.2525978,0.2888517,0.5570107,0.5255604,0.9504318,0.4887981c0.4015388-0.0375252,0.4348488-0.3750496,0.424633-0.7027931
		c0.0286217-0.2084684-0.0417786-0.4539557,0.2156601-0.5768862C41.6999207,13.7094116,41.8652802,14.350296,41.0520477,14.7497311z
		"/>
	<path style="fill:#A53122;" d="M41.4707413,13.0527782c-0.2574387,0.1229305-0.1870384,0.3684177-0.2157822,0.5767365
		c-0.7607651,0.2249289-1.066803-0.4264154-1.5222626-0.7896862c0.0062904-0.2457743,0.0125847-0.4915485,0.0189819-0.7374163
		c0.6631851-0.161787,1.3444519-0.3824596,1.679924,0.5173512C41.4446297,12.7636786,41.4576836,12.9082279,41.4707413,13.0527782z"
		/>
	<path style="fill:#65221A;" d="M39.7326965,12.8398285c0.4554596,0.3632708,0.7614975,1.0146151,1.5222626,0.7896862
		c0.0103378,0.3278933-0.0229721,0.6654177-0.424511,0.7029428c-0.3934212,0.0367622-0.697834-0.1999464-0.9504318-0.4887981
		c-0.2029839-0.2321243-0.130188-0.5304604-0.1894264-0.7973099C39.7042656,12.9774733,39.718483,12.9086504,39.7326965,12.8398285z
		"/>
</g>
</svg>
