<?xml version="1.0" encoding="utf-8"?>
<!-- Generator: Adobe Illustrator 21.1.0, SVG Export Plug-In . SVG Version: 6.00 Build 0)  -->
<svg version="1.1" id="Слой_1" xmlns="http://www.w3.org/2000/svg" xmlns:xlink="http://www.w3.org/1999/xlink" x="0px" y="0px"
	 viewBox="0 0 25 25" style="enable-background:new 0 0 25 25;" xml:space="preserve">
<g>
	<path style="fill:#FFFFFF;" d="M21.9561958,5.1913133c-0.0003929,0.7105665-0.0003929,0.7105656,0.6691093,0.9314833
		c1.3062706,0.4310336,1.7309208,1.3665252,1.2138062,2.651607c-0.1441288,0.3581724-0.2713795,0.7243023-0.3813534,1.0942192
		c-0.0268707,0.090394,0.0117435,0.2406921,0.0768204,0.3113165c0.3784046,0.4106445,0.8018723,0.7823868,1.157093,1.211194
		c0.63801,0.7701797,0.558424,1.7067156-0.1605682,2.4049244c-0.6354485,0.6170807-0.6502895,0.6245518-0.2635899,1.3925905
		c0.537529,1.0676079,0.0800343,2.1156807-0.8509197,2.500145c-0.412878,0.1705112-0.8041725,0.3927498-1.2142296,0.5708618
		c-0.1893177,0.0822296-0.2529659,0.1934738-0.2486019,0.3952789c0.0112286,0.5189953,0.0139351,1.0388832-0.0033531,1.5576324
		c-0.0274563,0.8237801-0.6321754,1.4928379-1.4505348,1.5938435c-0.3315659,0.0409222-0.670805,0.0334568-1.0060291,0.0256214
		c-0.1921215-0.004488-0.3040981,0.0513668-0.356329,0.2429466c-0.0533886,0.1958237-0.1295643,0.3853607-0.1936493,0.5783501
		c-0.3534164,1.0643349-1.3330364,1.531683-2.3849659,1.1418571c-0.4291611-0.1590405-0.858427-0.3201504-1.2962246-0.4517918
		c-0.1034422-0.0311031-0.2762356,0.0152168-0.3576365,0.0903606c-0.3658123,0.3376961-0.7068682,0.7020092-1.0629988,1.050436
		c-0.6841087,0.6693115-1.6784897,0.6898365-2.3937178,0.0464706c-0.2039261-0.1834354-0.3933945-0.3836136-0.5818844-0.5832939
		c-0.1194754-0.1265717-0.2277536-0.166851-0.3980045-0.0731258c-0.2572165,0.1416035-0.524374,0.2724762-0.8004417,0.371172
		c-0.9133339,0.3265266-1.7759347-0.022316-2.2048516-0.8824501c-0.2177267-0.4366188-0.4118152-0.8854103-0.6414595-1.3154163
		c-0.0523338-0.0979958-0.2050304-0.1950092-0.3157678-0.2000847c-0.4775772-0.0218887-0.9567571-0.006052-1.4353013-0.010149
		c-1.0833519-0.0092773-1.7695756-0.6926937-1.7870796-1.7774105c-0.0036142-0.2239552-0.0147207-0.4491978,0.0035789-0.6717091
		c0.0186639-0.2269573-0.0808103-0.3268185-0.2868636-0.3913841c-0.2998769-0.0939636-0.6020746-0.194067-0.8828492-0.33288
		c-0.8144752-0.4026737-1.1421512-1.2494431-0.8380476-2.1088791c0.156018-0.4409275,0.301366-0.8860369,0.4723257-1.3210878
		c0.0813826-0.2070961,0.0669864-0.3461266-0.1068312-0.5043116c-0.3382827-0.3078623-0.6526004-0.6422062-0.9744468-0.9679499
		c-0.753338-0.762455-0.7543259-1.7638235-0.0040114-2.5243006c0.0571668-0.0579424,0.1162452-0.1140013,0.1732339-0.1721144
		c0.513375-0.5234842,0.5187179-0.5263901,0.1752722-1.1852083c-0.187589-0.3598433-0.3074176-0.7282066-0.2703899-1.1399393
		C0.7979456,8.1458969,1.0852221,7.6984749,1.6061146,7.421206c0.4665556-0.2483454,0.9475865-0.4707451,1.429769-0.6878481
		C3.220154,6.6503892,3.2938673,6.5449195,3.2876022,6.3398881c-0.0143011-0.4679542-0.01019-0.9367428-0.0029299-1.4050293
		c0.0168588-1.0873144,0.69928-1.7662091,1.7833657-1.7810445c0.16289-0.0022295,0.3258686,0.0017345,0.4887514-0.0007656
		C6.1066141,3.1446111,5.9680691,3.2205594,6.18015,2.6936171c0.1427045-0.354568,0.2676344-0.7387674,0.5002956-1.0299976
		c0.49225-0.6161662,1.1679988-0.7334096,1.9037704-0.4973415c0.4259701,0.1366696,0.8491173,0.285671,1.2631884,0.4544971
		c0.2284565,0.0931474,0.3859043,0.0776184,0.5585127-0.1142768c0.2855024-0.3174059,0.6001396-0.6086063,0.9025059-0.9108404
		c0.8121691-0.8118149,1.875721-0.7922119,2.6561279,0.0489491c0.5649529,0.6089337,0.5649529,0.6089327,1.3313913,0.2125344
		c0.9773235-0.5054663,1.9745712-0.1937315,2.4783173,0.7843276c0.2141056,0.4157015,0.4158688,0.8382853,0.6072655,1.2649087
		c0.0819645,0.1826973,0.1868515,0.2607996,0.3933926,0.2517025c0.3760242-0.0165603,0.7553978,0.0211778,1.1296711-0.0092669
		C21.1665649,3.0461552,22.0765324,3.8922331,21.9561958,5.1913133z M1.9228698,12.4848204
		c0.6344081,0.6250143,1.199385,1.1959047,1.7825841,1.747529c0.1760964,0.1665621,0.2046268,0.3165503,0.1246791,0.5338459
		c-0.249295,0.6775723-0.4727471,1.3648472-0.7317441,2.0385475c-0.0882065,0.2294426-0.0516794,0.3187294,0.1797004,0.3937378
		c0.5317526,0.1723919,1.0523083,0.3792305,1.5836155,0.5531273c0.1822348,0.0596447,0.2253027,0.1571274,0.2223554,0.3321075
		c-0.0089178,0.5294151,0.0101023,1.0595341-0.008369,1.5884514c-0.0095129,0.272377,0.0609303,0.3758392,0.3537216,0.3672733
		c0.712266-0.020834,1.4258146,0.0040512,2.1382813-0.0130444c0.2310319-0.0055428,0.3413568,0.0743446,0.4336123,0.2779026
		c0.3021755,0.6667309,0.6305428,1.3215675,0.9345713,1.9874916c0.089571,0.1961899,0.1654673,0.2634735,0.3832541,0.1489258
		c0.503644-0.2649021,1.0265007-0.4931068,1.5324574-0.7538681c0.1594505-0.0821819,0.2486696-0.0586147,0.3653717,0.0659275
		c0.4438982,0.4737206,0.8984575,0.9374504,1.3884649,1.4458256c0.6086998-0.6208897,1.1789303-1.1842613,1.7253885-1.7698174
		c0.1925106-0.2062836,0.3580599-0.2232056,0.610981-0.1268559c0.7390614,0.2815285,1.4890766,0.5343075,2.2649689,0.8090401
		c0.2239189-0.6223106,0.449625-1.2187996,0.6499519-1.8236923c0.066555-0.200964,0.1629143-0.2655163,0.3689899-0.2602501
		c0.5394039,0.0137825,1.0796375-0.0043163,1.6190071,0.0101833c0.2352943,0.0063248,0.32094-0.062458,0.3163128-0.3082161
		c-0.013998-0.7431641,0.0009155-1.4868393-0.0091133-2.2301311c-0.0025578-0.1895046,0.0570698-0.2844925,0.2337952-0.3649673
		c0.6940937-0.3160667,1.3771286-0.6563263,2.0684452-0.9786453c0.1668491-0.0777931,0.2026825-0.1590719,0.1176224-0.328681
		c-0.2507267-0.4999475-0.4768486-1.0123758-0.7332554-1.5092611c-0.1011257-0.1959734-0.0880947-0.3165493,0.0785999-0.4697924
		c0.4626141-0.4252892,0.9064865-0.870965,1.3704548-1.3208895c-0.1103859-0.1182966-0.1761341-0.1930161-0.2463245-0.2632952
		c-0.5180454-0.5186844-1.032114-1.0415125-1.5588856-1.5511971c-0.1399059-0.1353674-0.1609383-0.2531796-0.0921726-0.4290009
		c0.1592426-0.4071646,0.3023605-0.8207417,0.4469643-1.23349c0.1303864-0.3721619,0.2540569-0.7466793,0.3902435-1.1483397
		c-0.6238995-0.2241549-1.2217331-0.4466586-1.825695-0.6510534c-0.1725216-0.0583854-0.2372055-0.1380205-0.2331676-0.3229184
		c0.0120049-0.5496702-0.009058-1.1002369,0.0100479-1.6495037c0.0091705-0.2636695-0.0875359-0.3264451-0.3332024-0.3217969
		c-0.712616,0.013483-1.4258709-0.0052638-2.138422,0.0098915c-0.2469616,0.0052524-0.3770256-0.0657558-0.4828453-0.3020926
		c-0.3313866-0.7401044-0.6950893-1.4657373-1.0615616-2.2288148c-0.5675049,0.274709-1.1235056,0.52279-1.6574917,0.811578
		c-0.2516298,0.136085-0.3964062,0.1082735-0.5887251-0.0992913c-0.4121161-0.4447875-0.8564558-0.8597159-1.3056593-1.3047655
		c-0.6002607,0.6035991-1.1773672,1.1750548-1.7424183,1.758193c-0.145627,0.1502881-0.272213,0.2009735-0.4797888,0.1232758
		C9.693203,3.4637599,8.9860659,3.2349331,8.2930222,2.9691813C8.0463619,2.8745978,7.9752746,2.9616926,7.9063439,3.1740141
		C7.7431116,3.6768057,7.5516605,4.1704574,7.3896012,4.6735959c-0.0694642,0.2156606-0.171483,0.3026509-0.410687,0.2934446
		C6.4399705,4.9462991,5.899518,4.9682641,5.3599963,4.9572825C5.1505919,4.9530196,5.0732794,5.0176535,5.0770798,5.2345157
		c0.0114179,0.6515713-0.0233626,1.3050423,0.0138788,1.9546766c0.0236769,0.4130216-0.0814557,0.6727161-0.4968042,0.7863731
		C4.4398861,8.0177794,4.2998114,8.111949,4.1533546,8.1826105C3.633599,8.4333839,3.1138806,8.6842356,2.5691659,8.9471149
		c0.2776518,0.5834913,0.5311754,1.147294,0.8143044,1.6958132c0.1112213,0.2154741,0.1130767,0.345871-0.0797441,0.518734
		C2.8433359,11.5744038,2.4086049,12.0157671,1.9228698,12.4848204z"/>
	<path style="fill:#FFFFFF;" d="M18.3262062,13.9840288c-0.0141602,0.6937714-0.1638222,1.3393087-0.6159992,1.8931103
		c-0.5082684,0.6225023-1.170023,0.8930826-1.9534264,0.845067c-1.1856136-0.0726585-2.0483284-0.9010544-2.2269392-2.1024332
		c-0.1242428-0.8356791-0.0024214-1.6254406,0.4912987-2.3263435c0.5465631-0.7759218,1.3253231-1.0657845,2.245059-0.9692879
		c0.8219643,0.086235,1.4628277,0.4882717,1.7767181,1.271822c0.1745148,0.435627,0.2466927,0.9122477,0.3649921,1.3703938
		C18.3806763,13.9722481,18.3534412,13.9781389,18.3262062,13.9840288z M16.8387566,13.8965874
		c-0.0755825-0.2954817-0.1488686-0.7026463-0.2880955-1.0858517c-0.1006927-0.2771463-0.3680191-0.3924541-0.6628933-0.3737268
		c-0.2943573,0.0186949-0.5122566,0.1766672-0.6277018,0.4476261c-0.3037701,0.7129688-0.3092299,1.441679-0.0499592,2.1639051
		c0.1447229,0.4031458,0.4249105,0.5801821,0.7718811,0.5598326c0.3280649-0.0192423,0.601243-0.2526131,0.6986952-0.6558056
		C16.754406,14.6475468,16.7762985,14.329998,16.8387566,13.8965874z"/>
	<path style="fill:#FFFFFF;" d="M11.9621964,10.3579464c-0.0283289,0.8191795-0.2608795,1.6241617-0.9910793,2.2084446
		c-1.2524014,1.0021305-3.2077475,0.4301119-3.6806045-1.1025896C6.9691062,10.4220018,7.0421281,9.402648,7.733676,8.5023308
		c0.49508-0.6445365,1.1807833-0.8872104,1.9760857-0.862978C11.1776257,7.6840796,11.9744892,8.8302727,11.9621964,10.3579464z
		 M10.491066,10.2492628c-0.0986767-0.3589001-0.1546202-0.7499371-0.3128338-1.0939398
		C9.9399958,8.6373291,9.3019915,8.6192217,8.9596977,9.0725174C8.670392,9.4556398,8.6584272,9.9071159,8.6643229,10.3419285
		c0.0050249,0.37047,0.0862322,0.7525826,0.2060385,1.1049652c0.1029186,0.3027134,0.3558102,0.4897881,0.7139149,0.4780684
		c0.34725-0.011363,0.5698719-0.2031832,0.6604862-0.5075321C10.3542585,11.0496693,10.4063578,10.6648226,10.491066,10.2492628z"/>
	<path style="fill:#FFFFFF;" d="M15.8204155,7.6274352c-1.269803,2.2757001-2.5016909,4.4825006-3.7325459,6.689877
		c-0.4221058,0.7569904-0.8391991,1.5167971-1.2661753,2.2710209c-0.0417995,0.0738373-0.1343651,0.1625099-0.2081366,0.1670647
		c-0.3046799,0.0188179-0.6111984,0.0078869-0.9633303,0.0078869c0.1066027-0.2060699,0.1876526-0.373127,0.2776794-0.5352001
		c1.3155622-2.3683701,2.6324015-4.7360296,3.9487228-7.1039782c0.2412815-0.4340458,0.487298-0.8656197,0.7189989-1.3047371
		c0.07236-0.137136,0.1550322-0.2007284,0.3132496-0.1948986C15.1936846,7.6349645,15.4791555,7.6274352,15.8204155,7.6274352z"/>
</g>
</svg>
