<?xml version="1.0" encoding="utf-8"?>
<!-- Generator: Adobe Illustrator 21.1.0, SVG Export Plug-In . SVG Version: 6.00 Build 0)  -->
<svg version="1.1" id="Слой_1" xmlns="http://www.w3.org/2000/svg" xmlns:xlink="http://www.w3.org/1999/xlink" x="0px" y="0px"
	 viewBox="0 0 25 25" style="enable-background:new 0 0 25 25;" xml:space="preserve">
<g>
	<g>
		<path style="fill:#FEFEFE;" d="M0.6503433,10.2003222c0-1.5585661,0.0002443-3.1171322-0.0012422-4.6756973
			C0.6490588,5.480298,0.660243,5.4703193,0.7096761,5.4703264c7.8715453,0.0011454,15.7430925,0.0011454,23.6146374,0.0000005
			c0.0494232-0.0000072,0.0606213,0.0099587,0.0605793,0.0542941c-0.0014877,1.5585666-0.0012436,3.1171341-0.0012436,4.6757011
			C16.4725475,10.2003222,8.5614452,10.2003222,0.6503433,10.2003222z"/>
		<path style="fill:#0000FE;" d="M0.6503433,10.2003222c7.9111018,0,15.8222046,0,23.7333069,0c0,1.5762997,0,3.1526003,0,4.7289
			c-7.9111023,0-15.8222046,0-23.7333069,0C0.6503433,13.3529224,0.6503433,11.7766218,0.6503433,10.2003222z"/>
		<path style="fill:#FE0000;" d="M0.6503433,14.9292221c7.9111018,0,15.8222046,0,23.7333069,0
			c0,1.5582676-0.0002136,3.1165352,0.0011253,4.674799c0.0000362,0.0426407-0.0077057,0.0553398-0.059433,0.0553322
			c-7.8722324-0.0012894-15.7444639-0.0012875-23.6166954,0.0000019c-0.0517404,0.0000095-0.0594645-0.0127106-0.059428-0.0553398
			C0.6505563,18.0457516,0.6503433,16.4874878,0.6503433,14.9292221z"/>
	</g>
</g>
</svg>
