<?xml version="1.0" encoding="utf-8"?>
<!-- Generator: Adobe Illustrator 21.1.0, SVG Export Plug-In . SVG Version: 6.00 Build 0)  -->
<svg version="1.1" id="Слой_1" xmlns="http://www.w3.org/2000/svg" xmlns:xlink="http://www.w3.org/1999/xlink" x="0px" y="0px"
	 viewBox="0 0 55 45" style="enable-background:new 0 0 55 45;" xml:space="preserve">
<g>
	<path style="fill:#C8D1D7;" d="M45.0969772,22.2469196c0.2807388,0.0308456,0.6251144-0.1427536,0.7939491,0.2475357
		c-0.7777748,0.0958424-1.5375328,0.2114582-2.3105202,0.4122887c-1.1438217,0.2971764-2.3266144,0.5392914-3.509594,0.7342415
		c-1.4950943,0.2463799-2.9488068,0.7351246-4.4297333,1.0789986c-1.1994057,0.2785072-2.3518295,0.831131-3.5193291,1.028389
		c-1.4678459,0.2479992-2.8163776,0.8451557-4.2820702,1.0948563c-1.632267,0.2780819-3.2756157,0.6472759-4.8825226,1.105238
		c-0.6734562,0.1919384-1.3838539,0.2630787-2.0160732,0.5923901c-0.249527,0.1299763-0.5050125,0.3510685-0.4255085,0.6130085
		c0.073349,0.2416649,0.3854675,0.1145153,0.5954647,0.0665741c1.1321602-0.258461,2.2632523-0.5216198,3.3946381-0.7834702
		c4.2446499-0.9823685,8.3964977-2.3048439,12.6012859-3.4327946c1.5308113-0.4106464,3.0828018-0.7446346,4.6305733-1.0891094
		c1.4994125-0.3337078,2.9478569-0.8763504,4.4774094-1.0836983l0.041111,0.0023651
		c0.1617279-0.0302982,0.2758064-0.1192722,0.3368721-0.2735367c0.2748299,0.0384159,0.5474586,0.0826912,0.7599449,0.2864895
		c-0.2295189,0.3391171-0.534832,0.0012379-0.8253822,0.100565c-2.0531654,0.7018986-4.2130928,1.0068111-6.273098,1.7328091
		c-1.0111694,0.3563633-2.0479393,0.7318802-3.1378059,0.9417152c-1.1815033,0.227478-2.3886566,0.4565849-3.5190697,0.9627228
		c-0.9880943,0.4424171-2.1675625,0.4512424-3.1074238,0.8572273c-1.1070385,0.4781971-2.2578125,0.3998356-3.3418713,0.7770977
		c-0.7328434,0.2550354-1.5693436,0.1948719-2.2565632,0.6309872c-0.2806549,0.1781044-0.5626278,0.2567501-0.8937263,0.3053875
		c-1.0972061,0.1611691-1.9982929,0.7663956-2.8839645,1.4150486c2.4113636-0.3788662,4.7005901-1.2671719,7.1077881-1.6594734
		c-1.1863937,0.5798054-2.2481709,1.4109344-3.5949497,1.5917912c-0.2406998,0.0323219-0.4930573,0.1047649-0.7019253,0.224926
		c-0.8484325,0.4880867-1.699625,0.9462547-2.6267204,1.2940598c-0.9072189,0.3403549-1.6859455,0.9386444-2.0908394,1.891243
		c-0.0457439,0.0058594-0.0916195,0.0103912-0.1376228,0.0135994c-0.2001934-0.0057983-0.3009853,0.0927773-0.3062572,0.2916565
		c-0.3636837,0.2621422-0.9100552,0.1130409-1.2029972,0.5344162c-0.1427841,0.1348495-0.2855682,0.2697029-0.4284134,0.4043655
		c-0.1580162-0.4547119-0.4310265-0.7617455-0.8628292-1.0368271c-0.5374842-0.3424034-1.1174192-0.6179771-1.6299925-0.9979286
		c-0.809659-0.6001778-1.4656029-1.3719234-2.2615147-1.9993553c-0.586153-0.4620667-1.0320826-1.0868568-1.7974911-1.3224735
		c-0.1439018-0.0442963-0.2381144-0.2799377-0.3354044-0.4393978c-0.1927223-0.3158722-0.4557219-0.3435268-0.7675953-0.2155285
		c-0.1437635-0.0074139-0.2875261-0.0148277-0.4312887-0.0222435c-0.064436-0.2654381-0.0939102-0.5585384-0.4619074-0.5837936
		c-0.0834551-0.1958714-0.2250061-0.306797-0.4443808-0.3039398c-0.1376276-0.2599735-0.3378048-0.4579754-0.5944648-0.6000195
		c-0.5690598-0.5898724-1.1986442-1.1003952-1.9325867-1.4741039c0.4007859-0.8990211,1.256124-1.10849,2.077497-1.3694859
		c0.1237297,1.0334721-0.0055594,1.1202698,1.4840078,1.5340729c0.0988693,0.3954506-0.2938128,0.6493149-0.3308554,1.0998116
		c0.362052-0.157423,0.6751604-0.2630978,1.0202808-0.2604752c0.3181944,0.0024261,0.7363262-0.3546753,0.9212437,0.0759239
		c0.1956205,0.4555206-0.2906427,0.6001682-0.5970144,0.7919788c-0.0168924,0.0105743,0.0055428,0.0839634,0.0130606,0.1643448
		c0.5317698,0.0530243,1.0222349-0.1665268,1.5076962-0.3030624c0.6560869-0.184515,1.3597984-0.2071285,1.970746-0.5498524
		c0.2488594-0.0453663,0.4977179-0.0907326,0.7465763-0.1361008c0.6104965,0.1490269,1.0125132,0.8284988,1.7175522,0.7128754
		c1.2309647-0.2018757,2.4447594-0.2285213,3.6582108,0.1313171c0.3497581,0.1037197,0.7391777,0.091074,1.0735474-0.137022
		c0.5139103-0.079958,1.0308342-0.1442547,1.5412464-0.2424011c3.5091095-0.674757,6.9700623-1.530838,10.399004-2.549366
		c2.5643272-0.7617035,5.1931343-1.306982,7.7949638-1.9415283C42.0951462,22.8201218,43.5757332,22.4353085,45.0969772,22.2469196z
		"/>
	<path style="fill:#5E6A76;" d="M9.1740284,26.3259678c-1.4895139-0.4139652-1.3602247-0.5007629-1.4839544-1.534235
		c0.0023842-1.5471668,0.0047693-3.0943394,0.0071526-4.6414948c0.305706-0.1976471,0.0396662-0.4920864,0.1231179-0.7273674
		c-0.1339931,0.0380974-0.2679863,0.0761948-0.4019794,0.1142941c-0.0111442-0.0943184-0.0222878-0.1886368-0.0334253-0.2829437
		c0.2105455-0.2858963,0.7671313-0.0544357,0.8169389-0.4182281c0.0409031-0.2987576,0.0659437-0.7455311-0.3656402-0.9295902
		c0.0004778-0.0998001,0.0009117-0.1996155,0.0013456-0.2994308c0.254065-0.1997013,0.0962601-0.4294529,0.068614-0.6645184
		c-0.0642338-0.5461426-0.2182355-1.1172504,0.2411103-1.5878553c0.1064482-0.041296,0.2129507-0.082654,0.3194523-0.124012
		c0.4414635-0.0357351,0.9030294-0.0443773,0.905407-0.6718435c0.0310116-0.0392447,0.0665636-0.0738211,0.1066608-0.1037302
		c0.32967,0.631505,0.4283342-0.0076437,0.6239624-0.113431c0.2569695,0.0339546,0.1750994,0.3772993,0.4043369,0.4587307
		c0.1130037-0.4567165,0.3764181-0.557373,0.7859488-0.388361c0.1861715,0.0768309,0.3548231,0.2761154,0.6029825,0.0593414
		c0.3049335-0.2663698,0.3919334-0.175292,0.3769121,0.2299404c-0.0089293,0.240922,0.0789213,0.6905155,0.5293646,0.314292
		c0.6642647-0.5548096,1.1642284-0.5729351,1.854497-0.0550289c0.1041269,0.078124,0.3367729,0.0927715,0.3330822,0.0547428
		c-0.0902739-0.9304752,0.5960321-0.2646027,0.8414364-0.4315567c0.559226-0.3804541,1.1011629-0.7789907,1.7323217-1.0358458
		c0.2004509-0.0813398,0.4184551,0.3230381,0.6093769-0.0220213c0.3015709,0.0318422,0.3668365,0.2612677,0.4192619,0.5014296
		c-0.414299,0.2564192-0.7205048,0.6457529-1.2904472,0.7118492c-0.2559853,0.029685-0.7023335,0.0675945-0.9016037,0.4182682
		c-0.3355656,0.5905256-0.9378042,0.8577061-1.4561977,1.2383995c-0.6030331,0.4428482-1.3627815,0.62887-1.8082438,1.3554516
		c-0.5043421,0.8226185-0.7046576,1.714222-0.9610004,2.6075516c-0.195859,0.6825447-0.2660828,1.391777-0.61833,2.0454865
		c-0.2423029,0.4496708-0.443572,1.0596924-0.3371468,1.5231819c0.1260309,0.5488796,0.2566757,1.1137905,0.332818,1.6643906
		c0.0769806,0.5566845,0.2927532,0.5886211,0.7324257,0.488409c0.7951527-0.1812382,1.5934944-0.3521957,2.4130468-0.3892956
		c1.1640863-0.0526943,2.3274965-0.0958462,3.3437319-0.7961674c0.1456242-0.1003551,0.3806419-0.0709915,0.5742989-0.101675
		c0.021574,0.01157,0.0431385,0.0231552,0.064703,0.0347385c-0.0208664-0.0122795-0.0417328-0.0245628-0.0626011-0.0368423
		c0.0198517-0.2797909,0.1615314-0.4382114,0.4493523-0.4510117c0.3471699-0.2970428,0.9138317,0.0603542,1.2048378-0.4042816
		c0.1236877,0.0064621,0.2474174,0.0131569,0.3711472,0.0198517c0.0858078,0.2407913,0.3202209,0.2785835,0.5119038,0.3747482
		c0.0934734,0.0451717,0.1869469,0.0903416,0.2805901,0.1357059c-0.6899643,0.2619152-1.4697247,0.2108059-2.1229954,0.6316223
		c0.7492237,0.1595001,1.4384689-0.1722126,2.1544952-0.2663517c0.2964973-0.0919418,0.5929966-0.1838837,0.8894939-0.2758236
		c0.3496895,0.0545139,0.6993828,0.109026,1.0490742,0.1635399c0.0262108,0.3893127,0.4470139,0.1245975,0.5742512,0.3464661
		c-1.5827751,0.31287-3.1655483,0.6257381-4.7483234,0.9386082c-0.2594357,0.0759506-0.5346661,0.1189976-0.7751503,0.2344303
		c-0.5711422,0.2741508-1.2368374,0.5191422-1.7772999,0.3022575c-1.2220659-0.4904079-2.4066734-0.2413464-3.6148767-0.109148
		c-0.2029257,0.0222073-0.4069576,0.0086613-0.4409981,0.2809067c-0.8257971,0.0035019-1.6476803,0.0681419-2.4538927-0.2520103
		C9.878787,26.3451061,9.5273848,26.198431,9.1740284,26.3259678z"/>
	<path style="fill:#46505C;" d="M18.615654,24.793108c-0.1936474,0.0306702-0.4286652,0.0013065-0.5742893,0.1016617
		c-1.0162354,0.7003212-2.1796455,0.7434731-3.3437319,0.7961674c-0.8195524,0.0370998-1.6178942,0.2080574-2.4130468,0.3892956
		c-0.4396725,0.1002121-0.6554451,0.0682755-0.7324257-0.488409c-0.0761423-0.5506001-0.2067871-1.1155109-0.332818-1.6643906
		c-0.1064253-0.4634895,0.0948439-1.0735111,0.3371468-1.5231819c0.3522472-0.6537094,0.422471-1.3629417,0.61833-2.0454865
		c0.2563429-0.8933296,0.4566584-1.7849331,0.9610004-2.6075516c0.4454622-0.7265816,1.2052107-0.9126034,1.8082438-1.3554516
		c0.5183935-0.3806934,1.1206322-0.6478739,1.4561977-1.2383995c0.1992702-0.3506737,0.6456184-0.3885832,0.9016037-0.4182682
		c0.5699425-0.0660963,0.8761482-0.45543,1.2904472-0.7118492c0.1960888,1.6776209,0.0563946,3.3610058,0.0868893,5.0414658
		c0.0238094,1.3119431,0.0510311,2.6238232,0.0767365,3.9357281c-0.0637054,0.4841805,0.1309643,0.9081612,0.3111763,1.3355083
		c-0.287817,0.0128326-0.4294968,0.1712532-0.4493484,0.4510441L18.615654,24.793108z"/>
	<path style="fill:#5E6A76;" d="M17.1320934,35.1570129c0.1427841-0.1348457,0.2855682-0.2696991,0.4283524-0.4041138
		c0.0449753,0.2436295,0.0863895,0.4875603,0.1361809,0.7297707c0.0331326,0.1611671-0.0575829,0.4057999,0.1445351,0.4606247
		c0.2708244,0.0734634,0.2486515-0.2329597,0.3657684-0.3684273c0.6815548-0.7883415,1.450346-1.577198,2.3697605-1.9687843
		c1.0276089-0.437664,2.0909157-0.8732758,3.2328644-1.0848045c0.6774559-0.1254921,1.4148006-0.2707443,2.0411816-0.5933933
		c1.820612-0.9378052,3.6354008-1.8381424,5.6579685-2.3149414c1.4357719-0.3384628,2.8327675-0.8657265,4.2378006-1.341116
		c1.6099167-0.5447121,3.286499-0.8895149,4.9254837-1.3517971c2.819519-0.7952595,5.5089531-2.0565224,8.4784508-2.3229294
		c0.4501419-0.0403843,0.9490891-0.0870762,1.3412933-0.4007206c0.3747826,0.1665249,0.6327972,0.4530468,0.8687401,0.7823162
		c0.2937469,0.4099407,0.3818245,0.7805519-0.0545845,1.141613l0.012516-0.0019703
		c-0.1319885-0.0174999-0.2041054,0.0539398-0.2481804,0.1670513c-0.0465088,0.0022831-0.0916214-0.0045853-0.1353455-0.0205975
		c-0.1137581-0.4435673-0.22752-0.8871326-0.3412781-1.3306999c-0.0498276,0.5355206-0.3784294,0.7769032-0.8446121,0.9228935
		c-0.2495041,0.0781364-0.4940529,0.1521358-0.6896019,0.3933468c-0.3320084,0.4095325-0.7836914,0.5704079-1.3260994,0.3840752
		c-0.4649963-0.1597385-1.0291634-0.0295811-1.238903,0.280426c-0.2966156,0.4384212-0.5540009,0.4032898-0.9281845,0.281208
		c0.0654945-0.0237064,0.1311111-0.0472889,0.1967239-0.0708714c-0.0144882-0.0188866-0.0389023-0.0557213-0.041996-0.0540085
		c-0.0586395,0.0324154-0.1147614,0.0693874-0.171402,0.1054096c-0.3562279,0.0655613-0.8265572-0.0382023-0.8260765,0.5566845
		c-0.8519554,0.0951195-1.5614471,0.7288074-2.4592705,0.6505108l0.0003052,0.0003586
		c-0.1742668-0.2361012-0.3890572-0.1512966-0.6059265-0.0805893c-0.9917259,0.3233337-1.9805069,0.6564255-2.9775543,0.9625206
		c-0.9437408,0.2897301-1.8370056,0.837162-2.8422699,0.8006268c-0.5407639-0.0196514-1.1994057,0.2071991-1.3588409,0.3891468
		c-0.4965668,0.5666885-0.9660301,0.3940983-1.466526,0.2435589c-0.3068428-0.092289-0.6175499-0.0320263-0.7716064,0.1247272
		c-0.4123554,0.4195633-0.3821983,0.4088116-0.7555656,0.4318428c-0.9098587,0.0561314-1.9185448,0.1323566-2.6088181,0.6456718
		c-1.0703907,0.7959843-2.2039471,1.2212009-3.4778538,1.4201717c-0.2776642,0.0433655-0.5136261-0.1661758-0.7992039-0.0539398
		c-1.3435268,0.5280304-2.6433849,1.2411499-4.1704674,1.0363045c-0.038496-0.0051613-0.1154556,0.029953-0.1202641,0.0562134
		c-0.1161022,0.6341209-0.8633633,0.9564209-0.8623714,1.5974808c0.0005894,0.3815384-0.1986523,0.4567108-0.4124317,0.4744797
		c-0.3851357,0.0320206-0.7917156,0.1465187-1.164957-0.0782852c-0.020731-0.174263-0.1481495-0.1841431-0.2824974-0.1833496
		c-0.1858673,0.0013657-0.3848038-0.0324745-0.4912739,0.1822166c-0.3826828-0.1116791-0.6874866-0.3417778-0.9549503-0.6286201
		c0.1393566-0.0203857,0.2871552-0.0199852,0.3801918-0.1544151C17.0143566,35.8604851,17.0375175,35.4559212,17.1320934,35.1570129
		z"/>
	<path style="fill:#5E6A76;" d="M37.6470757,11.2542858c0.0825729,0.0286341,0.1651535,0.0572672,0.2478333,0.0858469
		c0.0205803,0.1032343,0.0820923,0.1431408,0.1847534,0.1194935l-0.0136108,0.0268555
		c0.0495224,0.0456743,0.0990448,0.0913582,0.1485672,0.137042c0.1327438,0.2451677,0.2067413,0.5061207,0.1975746,0.7859306
		c-0.0813255,2.4818945-0.0243378,4.9677849-0.214756,7.4465389c-0.4440536-0.1168709-0.2772293-0.485981-0.2702446-0.7450428
		c0.0562363-2.0864105-0.1673241-4.1786966,0.1306725-6.2610369c0.0306969-0.2144775,0.1287804-0.5364113-0.2465057-0.6014919
		c-0.3156776-0.0547428-0.4481926,0.1492462-0.5031815,0.4230947c-0.1415749,0.7051115-0.5731506,1.121995-1.257946,1.3177853
		c-0.2352448,0.0672579-0.4030113,0.2610836-0.5932312,0.4229641c-1.0981369,0.9345255-1.3905983,2.2871647-1.9074249,3.5262947
		c-0.1443176,0.3460178-0.2002792,0.7073689-0.2913055,1.0628529c-0.2469482,0.9644375,0.0341797,2.3118496-1.5481091,2.4494019
		c-0.0300694,0.002615-0.0492134,0.1308899-0.0734539,0.2005348c-0.3928013,0.0224228-0.7518902-0.0819931-1.0839653-0.2880764
		c0.5614586-0.0959511,0.2360229-0.4232845,0.1900291-0.6926899c-0.1991844-1.166687-0.3661938-2.336195-0.5034142-3.5138969
		c-0.1682301-1.4438543-0.3708096-2.8743925-0.2384129-4.3304348c0.2282963-0.1519241,0.4848061-0.1964645,0.7505646-0.1750469
		c0.2913208,0.0234795,0.4482613-0.1021862,0.4856815-0.3874006c0.2577667-0.0360508,0.5590572,0.0372324,0.6987953-0.289299
		c0.0881119-0.2058868,0.2735939-0.2185678,0.4368248-0.1516447c0.201004,0.082408,0.0637856,0.2432528,0.0425186,0.378623
		c-0.0178642,0.1136999-0.0036736,0.2324352-0.0036736,0.3692198c0.2871437-0.0821543,0.3840637-0.2675304,0.426075-0.4975424
		c0.8353424,0.348465,1.7037125,0.4082565,2.5752831,0.2144337c0.1657639-0.0368624,0.3041801-0.0193596,0.4471855-0.03578
		C36.5813789,12.1690063,37.3357811,12.090786,37.6470757,11.2542858z M37.989006,11.9705458
		c0.011055-0.0396643,0.0176849-0.0634575,0.0243187-0.0872478c-0.0145226,0.0046701-0.0410118,0.0085831-0.0413628,0.0141468
		C37.970829,11.9153309,37.9793549,11.9338274,37.989006,11.9705458z"/>
	<path style="fill:#46505C;" d="M31.6367073,21.65135c0.0242405-0.0696449,0.0433846-0.1979198,0.0734539-0.2005348
		c1.5822887-0.1375523,1.3011608-1.4849644,1.5481091-2.4494019c0.0910263-0.355484,0.1469879-0.716835,0.2913055-1.0628529
		c0.5168266-1.23913,0.809288-2.5917692,1.9074249-3.5262947c0.1902199-0.1618805,0.3579865-0.3557062,0.5932312-0.4229641
		c0.6847954-0.1957903,1.1163712-0.6126738,1.257946-1.3177853c0.0549889-0.2738485,0.1875038-0.4778376,0.5031815-0.4230947
		c0.3752861,0.0650806,0.2772026,0.3870144,0.2465057,0.6014919c-0.2979965,2.0823402-0.0744362,4.1746264-0.1306725,6.2610369
		c-0.0069847,0.2590618-0.1738091,0.6281719,0.2702446,0.7450428c0.0184555,0.0895634,0.036911,0.1791458,0.0553551,0.2687225
		c0.004509,0.2061043,0.0090294,0.4122181,0.0135536,0.61833c-0.4942322,0.5925407-1.0496063,1.0515041-1.8884048,1.0555649
		c-0.2833786,0.0013733-0.6641693-0.1955013-0.8509636,0.2274876c-0.1720619,0.0208874-0.34412,0.0417767-0.5161896,0.0626888
		c-0.5025177-0.3839684-1.0251694-0.0105934-1.5370903-0.0408382c-0.030365-0.152977-0.0943451-0.2706566-0.2769547-0.2637882
		C32.697464,21.4963684,32.1543045,21.7239723,31.6367073,21.65135z"/>
	<path style="fill:#A9B5BF;" d="M19.2073231,33.9127922c0.4048939-0.9525986,1.1836205-1.5508881,2.0908394-1.891243
		c0.9270954-0.347805,1.7782879-0.8059731,2.6267204-1.2940598c0.208868-0.1201611,0.4612255-0.1926041,0.7019253-0.224926
		c1.3467789-0.1808567,2.408556-1.0119858,3.5949497-1.5917912c-2.407198,0.3923016-4.6964245,1.2806072-7.1077881,1.6594734
		c0.8856716-0.648653,1.7867584-1.2538795,2.8839645-1.4150486c0.3310986-0.0486374,0.6130714-0.1272831,0.8937263-0.3053875
		c0.6872196-0.4361153,1.5237198-0.3759518,2.2565632-0.6309872c1.0840588-0.3772621,2.2348328-0.2989006,3.3418713-0.7770977
		c0.9398613-0.4059849,2.1193295-0.4148102,3.1074238-0.8572273c1.1304131-0.5061378,2.3375664-0.7352448,3.5190697-0.9627228
		c1.0898666-0.2098351,2.1266365-0.5853519,3.1378059-0.9417152c2.0600052-0.7259979,4.2199326-1.0309105,6.273098-1.7328091
		c0.2905502-0.0993271,0.5958633,0.2385521,0.8253822-0.100563c0.2468414,0.0522327,0.4936943,0.1044617,0.7405968,0.1566505
		c-0.8078995,0.3221397-1.5992889,0.6985111-2.4282494,0.9520302c-0.9221802,0.2820282-1.8785934,0.4521656-2.8200989,0.6710129
		c-0.1010742-0.1571331-0.1927032-0.1255703-0.2789307,0.0139599c-0.0968819,0.0028992-0.1937637,0.0058022-0.2906456,0.0087032
		c-0.4519958-0.2341118-0.7808762-0.0468483-1.0602646,0.3097954c-1.5210037,0.5904675-3.1070938,0.9932308-4.6707535,1.4230976
		c-2.2934341,0.6304874-4.5503387,1.3916283-6.8649654,1.9462624c-0.1257839,0.030138-0.3885155-0.0073547-0.3238945,0.3547573
		c1.2522583-0.1125526,2.4422665-0.5180569,3.6083164-0.9177952c1.15802-0.3969841,2.3722992-0.5562954,3.5404701-0.9265327
		c1.090641-0.3456631,2.2472687-0.7114162,3.4166946-0.8861847c1.1321678-0.1691971,2.1471596-0.7463512,3.2431183-0.990696
		c2.0586967-0.4589863,4.0251732-1.2827721,6.1351013-1.5244312c0.2512665,0.1467609,0.5025291,0.2935181,0.7537689,0.4403267
		c-0.1815872,0.2568607-0.4789848,0.2174721-0.6832542,0.1482754c-1.1071854-0.3750534-2.1159973,0.120718-3.0793762,0.4453259
		c-1.559845,0.5255871-3.1802254,0.8054619-4.7338448,1.348278c-1.5739708,0.5499229-3.2001801,0.949337-4.7997894,1.4271317
		c-2.0597458,0.6152382-4.0844917,1.40135-6.183176,1.8157845c-1.7261086,0.3408642-3.2552185,1.1411304-4.8597374,1.7233982
		c-1.2914314,0.4686508-2.5913563,0.9860439-3.8864326,1.4844418c-0.7313805,0.2814636-1.4857388,0.5069923-1.9348621,1.2516441
		C19.7662449,33.7315292,19.5146046,33.920948,19.2073231,33.9127922z"/>
	<path style="fill:#8D9BA5;" d="M12.6232672,26.7125111c0.0340405-0.2722454,0.2380724-0.2586994,0.4409981-0.2809067
		c1.2082033-0.1321983,2.3928108-0.3812599,3.6148767,0.109148c0.5404625,0.2168846,1.2061577-0.0281067,1.7772999-0.3022575
		c0.2404842-0.1154327,0.5157146-0.1584797,0.7750053-0.23452c1.0443363,0.4095135,2.0180817-0.1975803,3.0266056-0.2752609
		c0.708395-0.0545654,1.5306664-0.0550079,2.1973305-0.4937572c0.2558537,0.0297699,0.5388527-0.0818405,0.7568035,0.1453171
		c0.0343056,0.1149883,0.0822239,0.1223011,0.144228,0.0182381c0.1979694-0.0505123,0.3959408-0.1010246,0.5939121-0.151535
		c0.1077766,0.1557217,0.2074642,0.1481647,0.2994442-0.0148411c0.1460304-0.0015259,0.2920609-0.0030537,0.4380913-0.0045815
		c0.3036251,0.0382347,0.5639-0.0383453,0.7593288-0.286684c0.0996666-0.0045166,0.1993294-0.0090351,0.298996-0.0135498
		c0.0553074,0.0925884,0.1339016,0.152668,0.2422295,0.1123447c1.0149784-0.3778,2.0886536-0.503931,3.12854-0.7617531
		c0.3618221-0.0897083,0.9679508-0.1018658,1.1288013-0.6716099c0.0958939-0.0004539,0.1918755-0.000782,0.2878609-0.0011101
		c0.2191048,0.2309589,0.4570656,0.1477947,0.6756706,0.0174446c1.0880814-0.6487846,2.3052864-0.7946301,3.5280838-0.921854
		c0.232048-0.0241432,0.523407,0.0795383,0.5867538-0.2869587c0.252243-0.2524376,0.599411-0.2238655,0.9088402-0.3070221
		c0.059742,0.0411434,0.1295471,0.1275616,0.1777611,0.1168461c1.3836899-0.3075256,2.8346405-0.2437477,4.1808891-0.7549534
		c0.8689156,0.1507645,1.677742,0.4949589,2.5054283,0.7782307c-1.5213127,0.1883831-3.0018997,0.5731964-4.4867058,0.9353237
		c-2.6018295,0.6345463-5.2306366,1.1798248-7.7949638,1.9415283c-3.4289417,1.018528-6.8898945,1.874609-10.399004,2.549366
		c-0.5104122,0.0981464-1.0273361,0.1624432-1.541399,0.2426147c0.7148132-0.4360294,1.4684238-0.7930546,2.2705326-1.031395
		c0.5932884-0.1762905,1.2003002-0.306488,1.8015251-0.455904c0.1303101-0.0323792,0.2446804-0.0873833,0.2138577-0.2442589
		c-0.0343075-0.1746445-0.1600151-0.1300602-0.2879791-0.1062183c-1.7998848,0.3353691-3.6318779,0.5527267-5.3901577,1.0377235
		c-1.1488838,0.3169003-2.2234154,0.2080021-3.3499565,0.1396008c-0.5628805-0.0341816-1.1318388-0.4467239-1.7069798-0.0469322
		c-0.2488585,0.0453682-0.4977169,0.0907345-0.7465954,0.1360302
		C13.4512053,26.9265194,12.8086615,27.2015228,12.6232672,26.7125111z M26.1141644,26.1246357
		c0.1851921,0.3378563,0.3761292,0.507328,0.5894566,0.0200996c0.0988045-0.0012817,0.1976089-0.0025635,0.2964134-0.0038433
		c0.2117939,0.0092793,0.4203835,0.0128975,0.4691315-0.2657013c0.1403751-0.0030479,0.2807465-0.0060997,0.4211197-0.0091476
		c0.7993279,0.0628605,1.5249882-0.2835007,2.2463436-0.5153732c0.3418713-0.10989,0.8908882,0.1830978,1.0671501-0.3869095
		c0.1442738-0.0077801,0.2885475-0.0155621,0.4328213-0.0233402c0.9784775-0.2335453,1.9143219-0.6211185,2.8810043-0.8718987
		c1.7256432-0.4476719,3.4864159-0.7765141,5.2677193-0.9192448c0.9510002-0.0761967,1.5666885-0.8970051,2.5035019-0.9663849
		c-0.2397079-0.1021709-0.4470215-0.0498638-0.6680412,0.0010757c-1.4459038,0.3332424-2.8692474,0.7679462-4.3486977,0.9518242
		c-1.9221687,0.238905-3.787693,0.7213173-5.6187973,1.3458576c-0.5225067,0.1043854-1.0697708,0.1285839-1.5193882,0.4690704
		c-0.2973843,0.2766685-0.7456379,0.013979-1.0427361,0.2916756c-1.0429802-0.0029297-1.9900723,0.456768-2.9970913,0.630558
		C25.9967384,25.8897533,26.0847816,26.0391045,26.1141644,26.1246357z M43.5156898,21.9387398
		c-0.379734-0.1588154-0.6164894-0.2280235-0.8779907,0.0905018C42.9163933,22.132473,43.1507301,22.1423168,43.5156898,21.9387398z
		"/>
	<path style="fill:#8D9BA5;" d="M19.2073231,33.9127922c0.3072815,0.0081558,0.5589218-0.181263,0.6853428-0.3908691
		c0.4491234-0.7446518,1.2034817-0.9701805,1.9348621-1.2516441c1.2950764-0.4983978,2.5950012-1.0157909,3.8864326-1.4844418
		c1.6045189-0.5822678,3.1336288-1.382534,4.8597374-1.7233982c2.0986843-0.4144344,4.1234303-1.2005463,6.183176-1.8157845
		c1.5996094-0.4777946,3.2258186-0.8772087,4.7997894-1.4271317c1.5536194-0.5428162,3.1739998-0.822691,4.7338448-1.348278
		c0.9633789-0.3246078,1.9721909-0.8203793,3.0793762-0.4453259c0.2042694,0.0691967,0.501667,0.1085854,0.6832542-0.1482754
		c0.2110558,0.0170174,0.3653183,0.1121807,0.4386063,0.3187389c-0.3922157,0.3136425-0.8911629,0.3603344-1.3413048,0.4007187
		c-2.9694977,0.266407-5.6589317,1.5276699-8.4784508,2.3229294c-1.6389847,0.4622822-3.315567,0.807085-4.9254837,1.3517971
		c-1.4050331,0.4753895-2.8020287,1.0026531-4.2378006,1.341116c-2.0225677,0.476799-3.8373566,1.3771362-5.6579685,2.3149414
		c-0.6263809,0.322649-1.3637257,0.4679012-2.0411816,0.5933933c-1.1419487,0.2115288-2.2052555,0.6471405-3.2328644,1.0848045
		c-0.9194145,0.3915863-1.6882057,1.1804428-2.3697605,1.9687843c-0.1171169,0.1354675-0.094944,0.4418907-0.3657684,0.3684273
		c-0.2021179-0.0548248-0.1114025-0.2994576-0.1445351-0.4606247c-0.0497913-0.2422104-0.0912056-0.4861412-0.1361828-0.7297745
		c0.292944-0.4218063,0.8393154-0.2727051,1.2030277-0.5348129c0.1980495,0.0035057,0.2992897-0.0946045,0.3062286-0.2916908
		C19.1157036,33.9231834,19.1615791,33.9186516,19.2073231,33.9127922z"/>
	<path style="fill:#A9B5BF;" d="M46.5929298,22.5601959c-0.0610657,0.1542645-0.1751442,0.2432384-0.3361549,0.2738285
		c0.0007133,0.0002937-0.0213165-0.0382824-0.0213165-0.0382824l-0.0205116,0.0356255
		c-1.5295525,0.2073479-2.9779968,0.7499905-4.4774094,1.0836983c-1.5477715,0.3444748-3.099762,0.678463-4.6305733,1.0891094
		c-4.2047882,1.1279507-8.356636,2.4504261-12.6012859,3.4327946c-1.1313858,0.2618504-2.2624779,0.5250092-3.3946381,0.7834702
		c-0.2099972,0.0479412-0.5221157,0.1750908-0.5954647-0.0665741c-0.079504-0.26194,0.1759815-0.4830322,0.4255085-0.6130085
		c0.6322193-0.3293114,1.342617-0.4004517,2.0160732-0.5923901c1.6069069-0.457962,3.2502556-0.8271561,4.8825226-1.105238
		c1.4656925-0.2497005,2.8142242-0.8468571,4.2820702-1.0948563c1.1674995-0.197258,2.3199234-0.7498817,3.5193291-1.028389
		c1.4809265-0.343874,2.934639-0.8326187,4.4297333-1.0789986c1.1829796-0.1949501,2.3657722-0.4370651,3.509594-0.7342415
		c0.7729874-0.2008305,1.5327454-0.3164463,2.3105202-0.4122887C46.1250153,22.5161266,46.3589706,22.5381622,46.5929298,22.5601959
		z"/>
	<path style="fill:#A9B5BF;" d="M31.6367073,21.65135c0.5175972,0.0726223,1.0607567-0.1549816,1.5596275,0.1328831
		c-0.7855492-0.1475849-1.4288654,0.4096107-2.178257,0.4386463c-0.0838318-0.4330158-0.4413071-0.282423-0.662262-0.2515297
		c-1.4282494,0.1996975-2.8536301,0.4226246-4.2756443,0.6633816c-1.1941814,0.2021809-2.3825092,0.4389305-3.573431,0.6603794
		c-1.0418396-0.3738155-2.2248497-0.193285-2.7112942,0.4483395c0.1741047,0,0.3203278,0,0.4665508,0
		c0.003334,0.0641594,0.0066681,0.1283169,0.0100021,0.1924782c-0.29105,0.4644051-0.8577118,0.107008-1.2048817,0.4040508
		c-0.1802158-0.4273796-0.3748856-0.8513603-0.3111801-1.3355408c2.145752-0.1796894,4.2652531-0.5359592,6.3787346-0.937088
		c1.1891041-0.225687,2.3787575-0.4539814,3.5754986-0.6317062c0.6391277-0.0949154,0.8372707-0.3870163,0.7291393-1.0080185
		c-0.0581856-0.3341541,0.0093136-0.6901951,0.019865-1.036377c0.3429756,0.2387867,0.5387402,0.7792816,0.4376831,0.9632225
		c-0.4681854,0.8521729,0.1109371,0.891531,0.6558838,1.0088024C30.8848171,21.5693569,31.243906,21.6737728,31.6367073,21.65135z"
		/>
	<path style="fill:#C8D1D7;" d="M42.275547,24.649044c0.0968819-0.0029011,0.1937637-0.0058041,0.2906189-0.008688
		c0.092968-0.0046444,0.1859627-0.0093079,0.2789574-0.0139751c0.9415054-0.2188473,1.8979187-0.3889847,2.8200989-0.6710129
		c0.8289604-0.2535191,1.6203499-0.6298904,2.4282494-0.9520302c0.4019318,0.1447105,0.8039093,0.2893829,1.2058945,0.4340172
		c-2.1099243,0.241621-4.0764008,1.0654068-6.1350975,1.5243931c-1.0959587,0.2443447-2.1109505,0.8214989-3.2431183,0.990696
		c-1.169426,0.1747684-2.3260536,0.5405216-3.4166946,0.8861847c-1.1681709,0.3702374-2.3824501,0.5295486-3.5404701,0.9265327
		c-1.16605,0.3997383-2.3560581,0.8052425-3.6083164,0.9177952c-0.064621-0.362112,0.1981106-0.3246193,0.3238945-0.3547573
		c2.3146267-0.5546341,4.5715313-1.3157749,6.8649654-1.9462624c1.5636597-0.4298668,3.1497498-0.8326302,4.6707764-1.4232826
		C41.5802689,24.8948383,41.9478149,24.8401413,42.275547,24.649044z"/>
	<path style="fill:#8D9BA5;" d="M30.552742,21.3632736c-0.5449467-0.1172714-1.1240692-0.1566296-0.6558838-1.0088024
		c0.1010571-0.1839409-0.0947075-0.7244358-0.4376831-0.9632225c-0.1580448-2.2354317-0.2227631-4.4735432-0.1909733-6.7144117
		c0.2442322,0.0498247,0.4885273,0.0996571,0.7328186,0.1494884c-0.132473,1.4559689,0.0701065,2.886507,0.2383366,4.3303614
		c0.1372204,1.177702,0.3042297,2.3472099,0.5034142,3.5138969C30.788765,20.9399891,31.1142006,21.2673225,30.552742,21.3632736z"
		/>
	<path style="fill:#C8D1D7;" d="M32.8377304,12.0731611c-0.0420113,0.2300119-0.1389313,0.4153881-0.426075,0.4975424
		c0-0.1367846-0.0141907-0.2555199,0.0036736-0.3692198c0.0212669-0.1353703,0.1584854-0.2962151-0.0425186-0.378623
		c-0.1632309-0.0669231-0.3487129-0.0542421-0.4368248,0.1516447c-0.1397381,0.3265314-0.4410286,0.2532482-0.6989899,0.2890863
		c-0.0818672-0.0350857-0.163538-0.0699577-0.2452106-0.1048298c0.1024704-0.3211126,0.1951733-0.6288414-0.3478699-0.5527496
		c-0.1903591,0.0266733-0.3865089,0.0120001-0.5800152,0.0162067l-0.0217304,0.0174875
		c0.2903118-0.7061644,0.9995995-0.6803455,1.5428219-0.7272158c1.1531105-0.0994921,2.3049812-0.2217922,3.4585838-0.3080206
		c0.8371887-0.0625772,1.713089-0.0942764,2.4414673,0.4891214c-0.2333145,0.2413311-0.5428886,0.2524328-0.8287697,0.2027283
		c-1.0310936-0.1792717-2.0357437,0.0421047-3.0457268,0.1682806C33.2511673,11.5094967,32.84972,11.5600691,32.8377304,12.0731611z
		"/>
	<path style="fill:#5E6A76;" d="M38.2329674,22.106802c-0.3094292,0.0831566-0.6565971,0.0545845-0.9088097,0.3068581
		c-0.5430603-0.0745392-1.078495-0.0134048-1.6115036,0.0907898c-0.0618935-0.1594505-0.1237831-0.3189011-0.1856766-0.4783516
		c0.1867943-0.4229889,0.567585-0.2261143,0.8509636-0.2274876c0.8387985-0.0040607,1.3941727-0.4630241,1.8880692-1.0555096
		c0.5291901,0.1496868,1.069355-0.0216179,1.6280823,0.0230236c-0.3496323,0.3983212-0.9457588,0.1231937-1.3290672,0.5943985
		c0.8177147,0.0142307,1.5378838-0.0044708,2.1951218-0.3997345c0.4215164,0.0851574,0.8739395,0.0729179,1.2223969,0.3879585
		C40.7023582,21.4517994,39.4720306,21.8009243,38.2329674,22.106802z"/>
	<path style="fill:#8D9BA5;" d="M32.8377304,12.0731611c0.0119896-0.513092,0.4134369-0.5636644,0.7728157-0.6085606
		c1.0099831-0.1261759,2.0146332-0.3475523,3.0457268-0.1682806c0.285881,0.0497046,0.5954552,0.0386028,0.8287697-0.2027283
		c0.0539398,0.0532656,0.1079483,0.1066437,0.1619949,0.1603584c-0.3112564,0.8368359-1.0656586,0.9150562-1.7868385,0.9978647
		c-0.1430054,0.0164204-0.2814217-0.0010824-0.4471855,0.03578C34.5414429,12.4814177,33.6730728,12.4216261,32.8377304,12.0731611z
		"/>
	<path style="fill:#C8D1D7;" d="M9.6132164,14.1428986c0.177187-0.8137856-0.4355574-0.4480658-0.8082256-0.4659815
		c0.0715618-0.3444023,0.3610535-0.3209019,0.5221128-0.3586988c2.2812843-0.5353918,4.598259-0.7234449,6.938159-0.6547995
		c0.1504879,0.0044155,0.2997017,0.0079803,0.4144573,0.1269283c-0.0782528,0.0549603-0.1561699,0.1570606-0.2346115,0.1574659
		c-1.9865961,0.0102348-3.9108334,0.4897299-5.8622894,0.7627869c-0.2847157,0.0398378-0.467433,0.1401777-0.5186872,0.4310341
		C9.9139833,14.1422539,9.7635994,14.1425772,9.6132164,14.1428986z"/>
	<path style="fill:#A9B5BF;" d="M10.0638962,14.1413364c0.0514898-0.2905588,0.2342072-0.3908987,0.5189228-0.4307365
		c1.9514561-0.273057,3.8756933-0.752552,5.8622894-0.7627869c0.0784416-0.0004053,0.1563587-0.1025057,0.2346115-0.1574659
		c0.554718,0.1295681,1.1972713,0.0809298,1.4933167,0.7355032c-0.1909084,0.3450241-0.4089127-0.0593538-0.6093025,0.02213
		c-0.2419434-0.2622681-0.5726852-0.221262-0.8814907-0.2913828c-0.4308872-0.0978413-0.5953312,0.4364519-0.8559475,0.3783045
		c-1.477066-0.3295488-2.8558235,0.2520733-4.2805443,0.374691c-0.4883375,0.0420275-0.9873772-0.030859-1.4602537,0.1557989
		L10.0638962,14.1413364z"/>
	<path style="fill:#8D9BA5;" d="M7.5506625,28.5438385c-0.3379126-0.2589226-0.6833744-0.5087261-1.0110507-0.7800121
		c-0.2142396-0.1773758-0.3528752-0.0213699-0.5133915,0.0735245c-0.0515227-0.0833721-0.0829854-0.198534-0.1575985-0.2463188
		C4.9384627,26.995348,4.9368539,26.99786,5.6124816,26.1610794c0.7340379,0.373848,1.3636222,0.8843708,1.9326415,1.4742451
		C7.128171,27.9750443,7.7595782,28.1122551,7.689878,28.384901l0.0018482-0.002224
		C7.6447053,28.4363976,7.5976834,28.490118,7.5506625,28.5438385z"/>
	<path style="fill:#8D9BA5;" d="M40.7601471,20.9607887c-0.657238,0.3952637-1.3774071,0.4139652-2.1951218,0.3997345
		c0.3833084-0.4712048,0.979435-0.1960773,1.3290672-0.5943985c-0.5587273-0.0446415-1.0988922,0.1266632-1.6280823-0.0230236
		c-0.0041885-0.2061672-0.008709-0.412281-0.0132217-0.6183853C39.0857925,20.4117756,40.0077477,20.4320374,40.7601471,20.9607887z
		"/>
	<path style="fill:#A9B5BF;" d="M30.0421696,11.6397066l0.0220108-0.0174818
		c0.4116573,0.0020905,0.4329052,0.6784649,0.9276047,0.5365372c0.0816727,0.0348721,0.1633434,0.0697441,0.2452106,0.1048298
		c-0.0372257,0.2854271-0.1941662,0.4110928-0.485487,0.3876133c-0.2657585-0.0214176-0.5222683,0.0231228-0.7505646,0.1750469
		c-0.244215-0.049758-0.4885101-0.0995903-0.7327423-0.149415C29.1050186,12.0168266,29.5457573,11.8074942,30.0421696,11.6397066z"
		/>
	<path style="fill:#A9B5BF;" d="M38.2329674,22.106802c1.2390633-0.3058777,2.4693909-0.6550026,3.7495766-0.7580547
		c0.2171288-0.031271,0.4313011-0.0481625,0.609005,0.1200428c-1.34618,0.5111103-2.7971306,0.4473324-4.1808205,0.754858
		C38.3625145,22.2343636,38.2927094,22.1479454,38.2329674,22.106802z"/>
	<path style="fill:#8D9BA5;" d="M7.836194,17.9063892c0.4316282,0.1840725,0.4065876,0.630846,0.3656845,0.9296036
		c-0.0498075,0.3637924-0.6063933,0.1323318-0.8169389,0.4182281c-0.368351-0.5419827,0.1338539-0.9967175,0.1503382-1.5001183
		C7.6355915,17.8048725,7.7358923,17.8556309,7.836194,17.9063892z"/>
	<path style="fill:#8D9BA5;" d="M8.1473608,15.3545361c-0.4593983,0.4706669-0.3053966,1.0417747-0.2411628,1.5879173
		c0.0276461,0.2350655,0.185451,0.464817-0.0685849,0.6645298c-0.1090407-0.1510983-0.2181101-0.302206-0.3271794-0.4533157
		c-0.02776-0.4940491-0.0555205-0.9880981-0.0833778-1.4821491c0.3639498-0.0563087,0.1793985-0.7668829,0.7242198-0.6074505
		C8.1498861,15.1608849,8.1486235,15.2577105,8.1473608,15.3545361z"/>
	<path style="fill:#C8D1D7;" d="M7.3866034,14.9098854c0.0476031-0.6370564,0.351284-1.0544701,1.1240015-1.2485008
		c-0.1397982,0.2756042-0.2651186,0.4557734-0.223855,0.665513C8.0696707,14.649231,7.8372211,14.9479656,7.3866034,14.9098854z"/>
	<path style="fill:#A9B5BF;" d="M7.3866034,14.9098854c0.4506178,0.0380802,0.6830673-0.2606544,0.9001465-0.5829878
		c0.1996813-0.0533705,0.4260244-0.2338896,0.540906,0.1137314c-0.1676102,0.0476236-0.2231083,0.1748638-0.2378712,0.3312674
		l0.0060873-0.0096436c-0.1181326,0.0688219-0.1589727,0.176321-0.1535997,0.3069468l0.003994-0.0022373
		c-0.0982885-0.0009613-0.1965761-0.0019236-0.2948637-0.0028868c-0.5449481-0.15944-0.3603969,0.5511341-0.7243466,0.6074429
		C7.4136357,15.4176416,7.4001193,15.163763,7.3866034,14.9098854z"/>
	<path style="fill:#8D9BA5;" d="M9.3721676,14.5587406c-0.0023775,0.6274681-0.4639435,0.6361103-0.9055557,0.6717777
		c-0.0068808-0.0545645-0.0136127-0.1090593-0.0203447-0.1635561L8.442276,15.0691948
		c0.1554575-0.0501461,0.1609812-0.1753139,0.1535959-0.306942l-0.0060787,0.0096045
		c0.1959515,0.0014629,0.3042898-0.0904016,0.3103676-0.2912512C9.057497,14.5066519,9.2148323,14.5326967,9.3721676,14.5587406z"/>
	<path style="fill:#8D9BA5;" d="M7.418365,19.5371647c0.1339931-0.0380993,0.2679863-0.0761967,0.4019794-0.1142941
		c-0.0834517,0.235281,0.1825881,0.5297203-0.1231179,0.7273674C7.5021625,19.9923191,7.3696184,19.8059731,7.418365,19.5371647z"/>
	<path style="fill:#A9B5BF;" d="M9.6132164,14.1428986c0.150383-0.0003214,0.3007669-0.0006447,0.4509153-0.0012646
		c-0.0002356-0.0002975,0.0213661,0.0237579,0.0213661,0.0237579c0.005764,0.0587292,0.011528,0.1174593,0.017293,0.1761894
		c-0.1956282,0.1057873-0.2942924,0.744936-0.6239624,0.113431C9.4749155,14.3300018,9.4952965,14.2154512,9.6132164,14.1428986z"/>
	<path style="fill:#A9B5BF;" d="M7.5104337,17.1536674c0.1090693,0.1511097,0.2181387,0.3022175,0.3271794,0.4533157
		c-0.000463,0.0998039-0.0008969,0.1996193-0.0013747,0.2994194c-0.1003461-0.0507717-0.2006469-0.1015301-0.3009605-0.1522999
		C7.457067,17.5568428,7.331677,17.3615437,7.5104337,17.1536674z"/>
	<path style="fill:#C8D1D7;" d="M8.9001608,14.480608c-0.0060778,0.2008476-0.1144161,0.2927122-0.3103676,0.2912493
		c0.0147543-0.1563644,0.0702524-0.2836046,0.2378626-0.3312283C8.857254,14.4450989,8.8811636,14.4584551,8.9001608,14.480608z"/>
	<path style="fill:#C8D1D7;" d="M38.0796623,11.4596262c-0.1026611,0.0236473-0.1641731-0.0162592-0.1847534-0.1194925
		C37.9564247,11.3800011,38.0180435,11.4198141,38.0796623,11.4596262z"/>
	<path style="fill:#8D9BA5;" d="M38.2146187,11.6235237c-0.0495224-0.0456839-0.0990448-0.0913677-0.1485672-0.137042
		C38.1766396,11.4659634,38.2140083,11.5248165,38.2146187,11.6235237z"/>
	<path style="fill:#A9B5BF;" d="M9.1492357,30.4836788c-0.2302542,0.0098553-0.2594671-0.2439594-0.422471-0.3220253
		c-0.00208-0.1375694-0.0042496-0.2753029-0.0064182-0.4130363l0.034955-0.037487
		c0.5519333,0.1912251,0.90734,0.6887398,1.4776926,1.008276c-0.0879049-0.6762638-0.5103359-1.0827827-0.7557888-1.5740871
		c0.3118734-0.1279984,0.574873-0.1003437,0.7675953,0.2155285c0.09729,0.1594601,0.1915026,0.3951015,0.3354044,0.4393978
		c0.7654085,0.2356167,1.211338,0.8604069,1.7974911,1.3224735c0.7959118,0.6274319,1.4518557,1.3991776,2.2615147,1.9993553
		c0.5125732,0.3799515,1.0925083,0.6555252,1.6299925,0.9979286c0.4318027,0.2750816,0.704813,0.5821152,0.8628292,1.0368271
		c-0.0945148,0.2990913-0.1176758,0.7036552-0.6107235,0.4130478c-0.2009029-0.1022415-0.3568039-0.2489357-0.4509716-0.456604
		c-0.432229-0.3860779-0.8367271-0.8186417-1.4659386-0.8745232c-0.49051-0.360363-1.1129818-0.5685539-1.375021-1.1923828
		c-0.2024164-0.3513374-0.4439554-0.6456833-0.9045544-0.6208801l0.0067959,0.0047417
		c-0.0525227-0.051899-0.1050472-0.1038017-0.1575708-0.1556969l0.0075693,0.0081596
		c-0.1274014-0.3334293-0.3515663-0.5512867-0.7170534-0.6003513c-0.6352501-0.080183-0.9721308-0.8314743-1.6805201-0.7471485
		L9.78018,30.9312286c-0.0498371-0.1475449-0.1645212-0.1647968-0.2963867-0.1475277l-0.0018196-0.0014782
		C9.4982605,30.5409412,9.362031,30.4696426,9.1492357,30.4836788z"/>
	<path style="fill:#A9B5BF;" d="M14.4258156,27.208374c0.575141-0.3997917,1.1440992,0.0127506,1.7069798,0.0469322
		c1.1265411,0.0684013,2.2010727,0.1772995,3.3499565-0.1396008c1.7582798-0.4849968,3.5902729-0.7023544,5.3901577-1.0377235
		c0.127964-0.0238419,0.2536716-0.0684261,0.2879791,0.1062183c0.0308228,0.1568756-0.0835476,0.2118797-0.2138577,0.2442589
		c-0.6012249,0.149416-1.2082367,0.2796135-1.8015251,0.455904c-0.8021088,0.2383404-1.5557194,0.5953655-2.2705326,1.031395
		c-0.3342171,0.2278824-0.7236366,0.2405281-1.0733948,0.1368084c-1.2134514-0.3598385-2.4272461-0.3331928-3.6582108-0.1313171
		C15.4383287,28.0368729,15.0363121,27.3574009,14.4258156,27.208374z"/>
	<path style="fill:#A9B5BF;" d="M12.6232672,26.7125111c0.1853943,0.4890118,0.8279381,0.2140083,1.055953,0.6318932
		c-0.6109285,0.3427944-1.31464,0.3654079-1.970727,0.5499229c-0.4854612,0.1365356-0.9759264,0.3560867-1.5076962,0.3030624
		c-0.0075178-0.0803814-0.029953-0.1537704-0.0130606-0.1643448c0.3063717-0.1918106,0.792635-0.3364582,0.5970144-0.7919788
		c-0.1849174-0.4305992-0.6030493-0.0734978-0.9212437-0.0759239c-0.3451204-0.0026226-0.6582289,0.1030521-1.0202808,0.2604752
		c0.0370426-0.4504967,0.4297247-0.704361,0.3308554-1.0998116c0.353303-0.1273746,0.7047052,0.0193005,0.9952927,0.1346951
		C10.9755869,26.780653,11.7974701,26.716013,12.6232672,26.7125111z"/>
	<path style="fill:#8D9BA5;" d="M9.4772053,29.145319c0.2454529,0.4913044,0.6678839,0.8978233,0.7557888,1.5740871
		c-0.5703526-0.3195362-0.9257593-0.8170509-1.477869-1.0080662c-0.2080746-0.2187939-0.3794718-0.5318108-0.7638412-0.296278
		c-0.2238669-0.2418461-0.2715645-0.5530891-0.3371859-0.857338c0.0128388-0.0585079,0.0252337-0.1167774,0.0376277-0.1750469
		l-0.0018454,0.0022221c0.1660357-0.0013847,0.3434229,0.0313835,0.449748-0.1495571
		c0.2193747-0.0028572,0.3609257,0.1080685,0.4444304,0.3038769c0.0588484,0.2698212,0.088109,0.5630627,0.4618578,0.5838566
		C9.1896791,29.1304913,9.3334417,29.1379051,9.4772053,29.145319z"/>
	<path style="fill:#A9B5BF;" d="M8.1396284,28.235342c-0.1063251,0.1809406-0.2837124,0.1481724-0.449748,0.1495571
		c0.0696979-0.272644-0.5617094-0.4098549-0.1447573-0.7495747C7.8018236,27.7773666,8.0020008,27.9753685,8.1396284,28.235342z"/>
	<path style="fill:#A9B5BF;" d="M9.0459166,29.1230755c-0.3737488-0.0207939-0.4030094-0.3140354-0.4618578-0.5838566
		C8.9520063,28.564537,8.9814806,28.8576374,9.0459166,29.1230755z"/>
	<path style="fill:#A9B5BF;" d="M19.0697002,33.9263916c-0.0069389,0.1970863-0.1081791,0.2951965-0.3062286,0.2916908
		C18.7687149,34.0191689,18.8695068,33.9205933,19.0697002,33.9263916z"/>
	<polygon style="fill:#FEFEFE;" points="46.2149467,22.8313675 46.2354584,22.795742 46.2567749,22.8340244 	"/>
	<path style="fill:#8D9BA5;" d="M10.1027908,14.3415813c-0.005765-0.0587301-0.011529-0.1174603-0.017293-0.1761894
		c0.4728765-0.1866579,0.9719162-0.1137714,1.4602537-0.1557989c1.4247208-0.1226177,2.8034782-0.7042398,4.2805443-0.374691
		c0.2606163,0.0581474,0.4250603-0.4761457,0.8559475-0.3783045c0.3088055,0.0701208,0.6395473,0.0291147,0.8814907,0.2913828
		c-0.6312199,0.256711-1.1731567,0.6552477-1.7323828,1.0357018c-0.2454042,0.166954-0.9317102-0.4989185-0.8414364,0.4315567
		c0.0036907,0.0380287-0.2289553,0.0233812-0.3330822-0.0547428c-0.6902685-0.5179062-1.1902323-0.4997807-1.854497,0.0550289
		c-0.4504433,0.3762236-0.5382938-0.07337-0.5293646-0.314292c0.0150213-0.4052324-0.0719786-0.4963102-0.3769121-0.2299404
		c-0.2481594,0.216774-0.416811,0.0174894-0.6029825-0.0593414c-0.4095306-0.1690121-0.672945-0.0683556-0.7859488,0.388361
		C10.2778902,14.7188807,10.3597603,14.375536,10.1027908,14.3415813z"/>
	<path style="fill:#8D9BA5;" d="M35.5269775,22.0260983c0.0618935,0.1594505,0.1237831,0.3189011,0.1854935,0.4786873
		c-0.9106598,0.2116032-1.8211403,0.4228725-2.731617,0.6341438c-0.4747543,0.0761509-0.9344864,0.1970501-1.3489208,0.4528675
		l0.0064011-0.0038128c-0.1692486-0.0002308-0.3478699-0.0282803-0.4557266,0.1536179l0.0058842-0.0040722
		c-2.2922306,0.208559-4.4719181,0.9729996-6.7276001,1.3620796c-0.1603241-0.0113831-0.320652-0.022768-0.4809761-0.034153
		c-0.1272373-0.2218685-0.5480404,0.0428467-0.5742817-0.3467484c-0.0071278-0.0282593-0.0088844-0.056572-0.0053024-0.0852146
		c0.7025852,0.0939789,1.3755951-0.1691914,2.0735111-0.1791477c0.2206211-0.0031471,0.5781708-0.0265999,0.6337357-0.4011021
		c0.0972328-0.0013714,0.1944656-0.0027409,0.2917004-0.0041084c0.9184074,0.2763844,1.6615677-0.1523972,2.4008808-0.5966644
		c0.2422829-0.0094528,0.4845619-0.0189075,0.7268448-0.0283623c0.890955-0.0142117,1.811161,0.0971012,2.5446281-0.5929623
		c0.427063,0.0106564,0.7351837-0.4388752,1.1932182-0.3084068c0.6370583,0.0769253,1.1655922-0.2827606,1.745945-0.4339752
		C35.1828575,22.0678749,35.3549156,22.0469856,35.5269775,22.0260983z"/>
	<path style="fill:#8D9BA5;" d="M31.0178204,22.2225914c0.749649-0.0287476,1.3929653-0.5859432,2.1785145-0.4383583
		c0.1830177-0.0069408,0.2469978,0.1107388,0.2772408,0.2639999c-0.063755,0.0693207-0.1273918,0.1383572-0.1910324,0.2073956
		c-0.7297173,0.120306-1.4632339,0.2213669-2.1884956,0.3643055c-2.9083309,0.5731945-5.8141022,1.1593685-8.7209206,1.7406349
		c-0.3020744,0.0462303-0.6040478,0.0925713-0.906023,0.1389084l-0.0316772-0.0336704
		c-0.0934734-0.0451679-0.1869469-0.0903378-0.2803955-0.1354294c0.1007195-0.5480423,0.7179909-0.0776539,0.9036617-0.4582367
		c0.0943985-0.0002728,0.188797-0.0005436,0.2831936-0.0008163c0.3077469-0.0756798,0.7521725,0.2798233,0.9043407-0.2866631
		c0.1000786-0.0424709,0.2001591-0.0849419,0.3002357-0.1274166c0.1090546,0.4218044,0.3898392,0.2716217,0.6478062,0.1937218
		c0.5905819-0.178339,1.210165-0.2520008,1.7952557-0.4053555c0.4796391-0.1257172,1.1158504,0.2087021,1.4564171-0.4007626
		c0.0950603-0.0064163,0.1901188-0.0128345,0.2851791-0.0192509c0.5414066-0.0132904,1.1387615,0.1773949,1.5207329-0.4171371
		c0.096859-0.0027542,0.193716-0.0055084,0.290575-0.0082626c0.2350922,0.2295837,0.3842812,0.1691017,0.460886-0.136488
		C30.3414822,22.2500057,30.6796513,22.2362976,31.0178204,22.2225914z"/>
	<path style="fill:#C8D1D7;" d="M22.3732243,24.3606796c2.9067211-0.581377,5.8124924-1.167551,8.7208233-1.7407455
		c0.7252617-0.1429386,1.4587784-0.2439995,2.1885223-0.3643875c-0.0058861,0.0890083-0.0118027,0.1781006-0.0177193,0.2671928
		c-0.4580345-0.1304684-0.7661552,0.3190632-1.1930466,0.3085861c-0.8288364-0.1021652-1.5676308,0.3941059-2.3880024,0.367403
		c-0.0497684-0.0016212-0.1044178,0.1467819-0.1567974,0.2253799c-0.2422829,0.0094547-0.4845619,0.0189095-0.726902,0.0282784
		c-0.8598385-0.0405865-1.6000919,0.3997192-2.4008236,0.5967484c-0.0972347,0.0013676-0.1944675,0.002737-0.291769,0.0040073
		c-0.5149612,0.0506191-1.0561047,0.0208054-1.5364876,0.1773911c-0.3881493,0.1265259-0.9297028-0.137394-1.1706905,0.4029598
		c-0.003582,0.0286427-0.0018253,0.0569553,0.0053024,0.0852146c-0.3496609-0.0542316-0.6993542-0.1087437-1.0489273-0.163662
		C22.3622913,24.4899883,22.3677578,24.425333,22.3732243,24.3606796z"/>
	<path style="fill:#C8D1D7;" d="M22.3418865,23.8713245c-0.0943966,0.0002728-0.1887951,0.0005436-0.2831745,0.0010052
		c-0.4928894-0.3307056-0.9415817,0.0922165-1.4156094,0.0832195c-0.1237297-0.0066948-0.2474594-0.0133896-0.3711472-0.0198517
		c-0.0032902-0.0639305-0.0066242-0.128088-0.0099545-0.1922436c0.7108917-0.3364925,1.5246525-0.1579189,2.2447395-0.4483433
		c1.1909218-0.2214489,2.3792496-0.4581985,3.573431-0.6603794c1.4220142-0.240757,2.8473949-0.4636841,4.2756443-0.6633816
		c0.2209549-0.0308933,0.5784302-0.1814861,0.662262,0.2515297c-0.3384266,0.0134182-0.6765957,0.0271263-1.0148716,0.040657
		c-0.1723824-0.0175838-0.3493099-0.0506554-0.4607773,0.1366615c-0.096859,0.0027542-0.193716,0.0055084-0.2906532,0.0081482
		c-0.4937115,0.1871834-1.1176796-0.1003551-1.5206547,0.4172516c-0.0950603,0.0064163-0.1901188,0.0128345-0.2851696,0.0192642
		c-1.3297348,0.0136585-2.6193657,0.2827473-3.8994884,0.6123829c-0.1000767,0.0424747-0.2001572,0.0849457-0.3001328,0.1275272
		C22.9420128,23.6711922,22.5200672,23.3863716,22.3418865,23.8713245z"/>
	<path style="fill:#A9B5BF;" d="M23.9799156,25.0654564c0.1603241,0.011385,0.320652,0.0227699,0.4809093,0.0340729
		c-0.0033684,0.0450306-0.0051613,0.0902004-0.0054417,0.1354275c-0.6666641,0.4387493-1.4889355,0.4391918-2.1973305,0.4937572
		c-1.0085239,0.0776806-1.9822693,0.6847744-3.0266056,0.2752609
		C20.8143673,25.6911945,22.3971405,25.3783264,23.9799156,25.0654564z"/>
	<path style="fill:#8D9BA5;" d="M21.4670963,24.831274c-0.7160263,0.0941391-1.4052715,0.4258518-2.1544952,0.2663517
		c0.6532707-0.4208164,1.4330311-0.3697071,2.1229954-0.6316223c0,0,0.0315075,0.033474,0.0314293,0.0333939
		C21.4669991,24.6099701,21.4670467,24.720623,21.4670963,24.831274z"/>
	<path style="fill:#A9B5BF;" d="M20.6431026,23.9555492c0.4740276,0.008997,0.92272-0.4139252,1.4156094-0.0832195
		c-0.1856899,0.380394-0.8029613-0.0899944-0.9036808,0.4580479C20.9633236,24.2341328,20.7289104,24.1963406,20.6431026,23.9555492
		z"/>
	<path style="fill:#A9B5BF;" d="M21.4670963,24.831274c-0.0000496-0.110651-0.0000973-0.2213039-0.0000706-0.3318768
		c0.3020535-0.046257,0.6040268-0.092598,0.9060993-0.1388283c-0.0053673,0.064764-0.0108337,0.1294193-0.0164185,0.1944752
		C22.0600929,24.6473904,21.7635937,24.7393322,21.4670963,24.831274z"/>
	<path style="fill:#C8D1D7;" d="M8.4462671,15.0669622c0.006732,0.0544968,0.013464,0.1089916,0.0203447,0.1635561
		C8.3602591,15.271944,8.2537565,15.313302,8.1473083,15.354598c0.0013151-0.0968876,0.0025778-0.1937132,0.0039673-0.2905302
		C8.2496901,15.0650387,8.3479776,15.0660009,8.4462671,15.0669622z"/>
	<path style="fill:#46505C;" d="M18.6177654,24.7909908c0.0208683,0.0122795,0.0417347,0.0245628,0.0626011,0.0368423
		c-0.0215645-0.0115833-0.043129-0.0231686-0.064703-0.0347385L18.6177654,24.7909908z"/>
	<path style="fill:#46505C;" d="M50.9348793,26.2647934c-0.2336502,0.4374142-0.5717201,0.7625294-1.0302773,0.9580212
		c-0.6058846,0.0382118-1.1251717,0.3152332-1.6430931,0.5960255c-1.1146088,0.2336197-2.1654968,0.6652889-3.2371826,1.0340576
		c-4.0436554,1.3914433-8.0899277,2.7752895-12.1362152,4.1590652c-2.3173714,0.7925072-4.6436844,1.5595512-6.9525146,2.3760986
		c-1.4414253,0.5097733-2.9493542,0.8313179-4.3271599,1.5210762c-0.3129883,0.0697365-0.6237259,0.1525497-0.9393616,0.2069206
		c-1.2913284,0.2224617-2.5407391,0.23349-3.5731716-0.7629509c0.1066227-0.2148743,0.3055592-0.1810341,0.4913101-0.1824341
		c0.0399494,0.1446152,0.1665306,0.1559105,0.2826138,0.1833839c0.3732414,0.2248039,0.7798214,0.1103058,1.164957,0.0782852
		c0.2137794-0.0177689,0.4130211-0.0929413,0.4124317-0.4744797c-0.0009918-0.6410599,0.7462692-0.9633598,0.8623714-1.5974808
		c0.0048084-0.0262604,0.081768-0.0613747,0.1202641-0.0562134c1.5270824,0.2048454,2.8269405-0.5082741,4.1704674-1.0363045
		c0.2855778-0.112236,0.5215397,0.0973053,0.7992039,0.0539398c1.2739067-0.1989708,2.4074631-0.6241875,3.4778538-1.4201717
		c0.6902733-0.5133152,1.6989594-0.5895405,2.6088181-0.6456718c0.3733673-0.0230312,0.3432102-0.0122795,0.7555656-0.4318428
		c0.1540565-0.1567535,0.4647636-0.2170162,0.7716064-0.1247272c0.5004959,0.1505394,0.9699593,0.3231297,1.466526-0.2435589
		c0.1594353-0.1819477,0.8180771-0.4087982,1.3588409-0.3891468c1.0052643,0.0365353,1.8985291-0.5108967,2.8422699-0.8006268
		c0.9970474-0.3060951,1.9858284-0.6391869,2.9775543-0.9625206c0.2168694-0.0707073,0.4316597-0.1555119,0.6059265,0.0805874
		c-0.0466652,0.0425663-0.1942863-0.0609837-0.1544762,0.1067314c0.0513916-0.035696,0.1027832-0.0713902,0.154171-0.1070881
		c0.8978233,0.0782967,1.6073151-0.5553913,2.4592705-0.6505108c-0.0004807-0.5948868,0.4698486-0.4911232,0.8260765-0.5566845
		l0.0167885,0.0195923c0.3740692,0.1219597,0.6314545,0.1570911,0.9280701-0.2813301
		c0.2097397-0.3100071,0.7739067-0.4401646,1.238903-0.280426c0.542408,0.1863327,0.994091,0.0254574,1.3260994-0.3840752
		c0.195549-0.2412109,0.4400978-0.3152103,0.6896019-0.3933468c0.4661827-0.1459904,0.7947845-0.387373,0.8446121-0.9228935
		C50.7073593,25.3776608,50.8211212,25.8212261,50.9348793,26.2647934z M28.1959915,33.174202
		c-0.097435,0.0114937-0.1948719,0.0229912-0.2923088,0.0344887c0.0144234,0.0295258,0.0288486,0.0590515,0.043272,0.0885773
		c0.0825157-0.0416031,0.1650276-0.0832062,0.2475567-0.124794c0.0502472-0.0390701,0.1987038,0.0656662,0.157383-0.1074829
		C28.2999249,33.1013947,28.2479591,33.1377983,28.1959915,33.174202z M33.1349487,31.5276356
		c-0.1641846,0.0061512-0.3408165-0.0250072-0.4487572,0.1497269c-0.1645432,0.005476-0.34132-0.0258923-0.4495125,0.149271
		c-1.2284451,0.1267509-2.3023434,0.7256966-3.4296837,1.1613274c1.1754341-0.2884407,2.359972-0.549099,3.4291573-1.1619625
		c0.1642303-0.0063229,0.3408775,0.0245075,0.4489288-0.1499767c0.1634636-0.0082722,0.3401108,0.0229893,0.4487534-0.1496639
		c0.0509338-0.0383682,0.2022858,0.0636711,0.1555519-0.1112537C33.2379074,31.4526138,33.1864281,31.4901257,33.1349487,31.5276356
		z"/>
	<path style="fill:#A9B5BF;" d="M48.2615089,27.81884c0.5179214-0.2807922,1.0372086-0.5578136,1.6430931-0.5960255
		c0.0505257,0.475956-0.2765198,0.6982365-0.6042328,0.9403477c-1.4380913,1.0624485-3.1768684,1.4070587-4.7920418,2.052681
		c-2.1587219,0.8628883-4.4049263,1.460041-6.5796432,2.255188c-2.651619,0.9695168-5.3806458,1.6957703-8.0188904,2.6827049
		c-1.4581146,0.5454636-2.9506645,0.9235687-4.425848,1.3823051c-1.0802689,0.3359261-2.1303768,0.7740822-3.2516117,0.9772491
		c-2.2452984,0.4068451-4.4342079,0.3164024-6.338728-1.0938454c-1.5106249-1.1185799-2.9293566-2.3613777-4.386117-3.5524101
		c-0.1385965-0.1133156-0.2328148-0.2614937-0.2005463-0.4571877c0.8660269,0.3019066,1.4298029,1.0314522,2.1595869,1.5255928
		c0.8880768,0.601326,1.6365118,1.4120674,2.6745758,1.7888641c0.2674637,0.2868423,0.5722675,0.5169411,0.9549503,0.6286201
		c1.03228,0.996624,2.2816906,0.9855957,3.573019,0.763134c0.3156357-0.0543709,0.6263733-0.1371841,0.9393311-0.2068977
		c0.2481575,0.1501884,0.4905224,0.1533699,0.7809258,0.0789108c1.1741314-0.301033,2.2950802-0.7380371,3.4311485-1.154171
		c1.3708515-0.5021286,2.8619061-0.6828384,4.1928291-1.3237572c0.9456425-0.4553833,1.980093-0.6391754,2.9400597-1.0778923
		c0.5489273-0.2508659,1.0930176-0.6157494,1.7426567-0.7143173c1.7336502-0.2630386,3.4195938-0.7749023,5.0675278-1.3356647
		c1.4760361-0.5022678,2.9985619-0.874918,4.4334412-1.5115662c1.1158218-0.4950809,2.3286209-0.7567406,3.4156036-1.3289948
		C47.9013214,28.3897076,48.2814369,28.2697563,48.2615089,27.81884z"/>
	<path style="fill:#8D9BA5;" d="M16.1411057,35.7243042c-1.038064-0.3767967-1.786499-1.1875381-2.6745758-1.7888641
		c-0.729784-0.4941406-1.29356-1.2236862-2.1595869-1.5255928c-0.381671-0.6215725-1.2662792-0.7237587-1.5229006-1.4746552
		c0.7083912-0.0843258,1.0452719,0.6669655,1.6801586,0.7470627c0.0205231,0.4610977,0.3358412,0.5703659,0.7174168,0.6004372
		l-0.0075483-0.0081329c0.0525312,0.0519104,0.1050406,0.1037903,0.1575499,0.1556702l-0.0067482-0.0047455
		c0.0937157,0.509697,0.5203199,0.5343933,0.9045067,0.6208839c0.2620392,0.6238289,0.884511,0.8320198,1.3748188,1.1922722
		c0.4104328,0.4224739,0.7711334,0.9287567,1.4661407,0.8746338c0.0941677,0.2076683,0.2500687,0.3543625,0.4509716,0.456604
		C16.4282608,35.704319,16.2804623,35.7039185,16.1411057,35.7243042z"/>
	<path style="fill:#46505C;" d="M45.5495262,27.1765728c0.0566406-0.0360222,0.1127625-0.0729942,0.171402-0.1054096
		c0.0030937-0.0017128,0.0275078,0.0351219,0.041996,0.0540085c-0.0656128,0.0235825-0.1312294,0.0471649-0.1967239,0.0708714
		C45.5663147,27.1961651,45.5495262,27.1765728,45.5495262,27.1765728z"/>
	<path style="fill:#8D9BA5;" d="M17.8698273,36.3540573c-0.1160831-0.0274734-0.2426643-0.0387688-0.2826138-0.1833839
		C17.7216778,36.1699142,17.8490963,36.1797943,17.8698273,36.3540573z"/>
	<path style="fill:#FEFEFE;" d="M51.3184052,26.1183395c-0.0827293,0.0556889-0.1654549,0.1113796-0.2481804,0.1670589
		C51.1142998,26.1722794,51.1864166,26.1008396,51.3184052,26.1183395z"/>
	<path style="fill:#8D9BA5;" d="M37.989006,11.9705458c-0.0096512-0.0367184-0.018177-0.0552149-0.0170441-0.073101
		c0.000351-0.0055637,0.0268402-0.0094767,0.0413628-0.0141478C38.006691,11.9070883,38.000061,11.9308815,37.989006,11.9705458z"/>
	<path style="fill:#A9B5BF;" d="M7.9912839,29.415062c0.3843694-0.2355328,0.5557666,0.0774841,0.7638412,0.296278
		c0.0001764-0.0002098-0.0347786,0.0372772-0.0347786,0.0372772c-0.1845341-0.0551205-0.3694963-0.1098385-0.5544586-0.1645584
		C8.107687,29.5277271,8.0494862,29.4713936,7.9912839,29.415062z"/>
	<path style="fill:#8D9BA5;" d="M8.1658878,29.5840588c0.1849623,0.0547199,0.3699245,0.1094379,0.5546722,0.1643581
		c0.001955,0.1379337,0.0041246,0.2756672,0.0062046,0.4132366C8.4746332,30.0322514,8.2883511,29.8391438,8.1658878,29.5840588z"/>
	<path style="fill:#8D9BA5;" d="M9.1492357,30.4836788c0.2127953-0.0140362,0.3490248,0.0572624,0.3327379,0.2985439
		C9.3245525,30.7345486,9.2212982,30.6264954,9.1492357,30.4836788z"/>
	<path style="fill:#8D9BA5;" d="M9.4837933,30.7837009c0.1318655-0.0172691,0.2465496-0.0000172,0.2963867,0.1475277
		C9.64046,30.9642792,9.541028,30.9163761,9.4837933,30.7837009z"/>
	<path style="fill:#A9B5BF;" d="M7.6917262,28.3826771c-0.0123944,0.0582695-0.0247893,0.116539-0.0376282,0.1750469
		c-0.0344896-0.0070877-0.0688887-0.0118809-0.103538-0.0140133C7.5976834,28.490118,7.6447053,28.4363976,7.6917262,28.3826771z"/>
	<path style="fill:#A9B5BF;" d="M33.2648506,22.5227394c0.0059166-0.0890923,0.0118332-0.1781845,0.0177193-0.2671928
		c0.0636139-0.0689564,0.1272507-0.1379929,0.1910057-0.2073135c0.512043,0.0299606,1.0346947-0.3434143,1.5372124,0.040554
		C34.4304428,22.2399788,33.9019089,22.5996647,33.2648506,22.5227394z"/>
	<path style="fill:#8D9BA5;" d="M42.275547,24.649044c-0.3277321,0.1910973-0.6952782,0.2457943-1.0602417,0.3096104
		C41.4946709,24.6021957,41.8235512,24.4149323,42.275547,24.649044z"/>
	<path style="fill:#8D9BA5;" d="M42.8451233,24.6263809c-0.0929947,0.0046673-0.1859894,0.0093307-0.2789574,0.0139751
		C42.65242,24.5008106,42.7440491,24.4692478,42.8451233,24.6263809z"/>
	<path style="fill:#A9B5BF;" d="M31.6536732,24.4814243c1.8307209-0.6243153,3.6962452-1.1067276,5.6184139-1.3456326
		c1.4794502-0.1838779,2.9027939-0.6185818,4.3486977-0.9518242c0.2210197-0.0509396,0.4283333-0.1032467,0.6680412-0.0010757
		c-0.9368134,0.0693798-1.5525017,0.8901882-2.5035019,0.9663849c-1.7813034,0.1427307-3.5420761,0.4715729-5.2677193,0.9192448
		c-0.9666824,0.2507801-1.9025269,0.6383533-2.880991,0.871912C31.6423073,24.7874374,31.6479912,24.6344318,31.6536732,24.4814243z
		"/>
	<path style="fill:#C8D1D7;" d="M24.4553833,25.2349567c0.0002804-0.0452271,0.0020733-0.0903969,0.0054417-0.1354275
		c2.2557487-0.3889999,4.4354362-1.1534405,6.7276134-1.3619919c-0.2225895,0.2254372-0.5280704,0.232914-0.8075256,0.3153191
		c-0.8878784,0.261816-1.866869,0.2514172-2.6347256,0.874464c-0.0996666,0.0045147-0.1993294,0.0090332-0.2989979,0.0135555
		c-0.3477898-0.1552296-0.6041641-0.0683174-0.7593269,0.2866783c-0.1460304,0.0015278-0.2920609,0.0030556-0.4380894,0.0046673
		c-0.1075516-0.1529732-0.20714-0.143446-0.2994461,0.0147552c-0.1979713,0.0505104-0.3959427,0.1010227-0.5939484,0.1514473
		c-0.0478039-0.0083752-0.0958557-0.0143967-0.1441917-0.0181503C24.994236,25.1531162,24.711237,25.2647266,24.4553833,25.2349567z
		"/>
	<path style="fill:#A9B5BF;" d="M27.7461872,24.9273205c0.7678566-0.6230469,1.7468472-0.612648,2.6347256-0.874464
		c0.2794552-0.0824051,0.5849361-0.0898819,0.8075256-0.3153191l-0.0058231,0.0040646
		c0.1677361-0.0042667,0.3492088,0.0322456,0.455719-0.1536179l-0.0063972,0.0038128
		c0.2046394,0.004879,0.409277,0.0097561,0.6139126,0.0146313c-0.1609421,0.5696182-0.7670708,0.5817757-1.1288929,0.671484
		c-1.0398865,0.257822-2.1135616,0.3839531-3.12854,0.7617531C27.8800888,25.0799885,27.8014946,25.0199089,27.7461872,24.9273205z"
		/>
	<path style="fill:#A9B5BF;" d="M32.980854,23.1389294c0.9104767-0.2112713,1.8209572-0.4225407,2.731617-0.6341438
		c0.5331917-0.1045303,1.0686264-0.1656647,1.6116867-0.0911255c-0.0633774,0.3666611-0.3547363,0.2629795-0.5867844,0.2871227
		c-1.2227974,0.127224-2.4400024,0.2730694-3.5280838,0.921854c-0.218605,0.1303501-0.4565659,0.2135143-0.6756401-0.0175533
		C32.5707359,23.3421555,33.1045685,23.5560055,32.980854,23.1389294z"/>
	<path style="fill:#A9B5BF;" d="M31.2037792,24.9637623c-0.1762619,0.5700054-0.7252789,0.2770176-1.0671501,0.3869076
		c-0.7213554,0.2318726-1.4470158,0.5782337-2.2462769,0.5151196c0.3156166-0.3711758,0.9033527-0.2176132,1.2008133-0.623394
		c0.2970982-0.2776966,0.7453518-0.015007,1.0428047-0.2917671C30.4906197,24.9549446,30.8471985,24.9593525,31.2037792,24.9637623z
		"/>
	<path style="fill:#C8D1D7;" d="M29.0911655,25.2423954c-0.2974606,0.4057808-0.8851967,0.2522182-1.2008133,0.623394
		c-0.14044,0.0033016-0.2808113,0.0063534-0.4213524,0.0090561c-0.2298203-0.0406952-0.4440613-0.0539207-0.4689655,0.2660465
		c-0.0988045,0.0012798-0.1976089,0.0025616-0.2964649,0.0037766c-0.1965027-0.0067215-0.3929539-0.0133762-0.5894051-0.0200329
		c-0.0293827-0.0855312-0.1174259-0.2348824-0.0200901-0.2516823
		C27.1010933,25.6991634,28.0481853,25.2394657,29.0911655,25.2423954z"/>
	<path style="fill:#C8D1D7;" d="M31.2037792,24.9637604c-0.3565807-0.0044079-0.7131596-0.0088158-1.069809-0.0131321
		c0.4495487-0.340395,0.9968128-0.3645935,1.5195122-0.4690895c-0.0054913,0.1528931-0.0111752,0.3058987-0.0168686,0.4588928
		C31.4923267,24.9481983,31.348053,24.9559803,31.2037792,24.9637604z"/>
	<path style="fill:#C8D1D7;" d="M32.980854,23.1389294c0.1237144,0.4170761-0.4101181,0.2032261-0.4472046,0.4661541
		c-0.0960159,0.0004368-0.1919975,0.0007648-0.2878914,0.0012188c-0.2045441-0.0047493-0.4091816-0.0096264-0.613821-0.0145054
		C32.0463676,23.3359795,32.5060997,23.2150803,32.980854,23.1389294z"/>
	<path style="fill:#A9B5BF;" d="M43.5156898,21.9387398c-0.3649597,0.203577-0.5992966,0.1937332-0.8779907,0.0905018
		C42.8992004,21.7107162,43.1359558,21.7799244,43.5156898,21.9387398z"/>
	<path style="fill:#A9B5BF;" d="M26.6878624,25.2275543c0.1551628-0.3549957,0.4115372-0.4419079,0.7593269-0.2866783
		C27.2517624,25.189209,26.9914875,25.265789,26.6878624,25.2275543z"/>
	<path style="fill:#A9B5BF;" d="M26.1141644,26.1246357c0.1964512,0.0066566,0.3929024,0.0133114,0.5894051,0.0200329
		C26.4902935,26.6319637,26.2993565,26.462492,26.1141644,26.1246357z"/>
	<path style="fill:#A9B5BF;" d="M27.0000343,26.140892c0.0249043-0.3199673,0.2391453-0.3067417,0.4689655-0.2660465
		C27.4204178,26.1537895,27.2118282,26.1501713,27.0000343,26.140892z"/>
	<path style="fill:#A9B5BF;" d="M25.9503269,25.2469769c0.0923061-0.1582012,0.1918945-0.1677284,0.2994461-0.0147552
		C26.1577911,25.3951416,26.0581036,25.4026985,25.9503269,25.2469769z"/>
	<path style="fill:#A9B5BF;" d="M25.2121868,25.3802738c0.048336,0.0037537,0.0963879,0.0097752,0.1441917,0.0181503
		C25.2944107,25.5025749,25.2464924,25.4952621,25.2121868,25.3802738z"/>
	<path style="fill:#8D9BA5;" d="M22.5067406,23.2951107c-0.7200871,0.2904243-1.5338478,0.1118507-2.2447395,0.4483433
		c-0.1462269-0.0000038-0.29245-0.0000038-0.4665546-0.0000038C20.2818909,23.1018257,21.464901,22.9212952,22.5067406,23.2951107z"
		/>
	<path style="fill:#FEFEFE;" d="M30.991785,12.158762c-0.4946995,0.1419277-0.5159473-0.5344467-0.9276047-0.5365372
		c0.1932259-0.0042124,0.3893757,0.0104609,0.5797348-0.0162125C31.1869583,11.5299206,31.0942554,11.8376493,30.991785,12.158762z"
		/>
	<path style="fill:#C8D1D7;" d="M8.5958719,14.7622528c0.0073853,0.131628,0.0018616,0.2567959-0.1535959,0.306942
		C8.4368992,14.9385738,8.4777393,14.8310747,8.5958719,14.7622528z"/>
	<path style="fill:#C8D1D7;" d="M16.0703373,35.1132736c-0.6950073,0.0541229-1.0557079-0.4521599-1.4661407-0.8746338
		C15.2336102,34.294632,15.6381083,34.7271957,16.0703373,35.1132736z"/>
	<path style="fill:#C8D1D7;" d="M13.2293777,33.0463676c-0.3841867-0.0864906-0.810791-0.111187-0.9045067-0.6208839
		C12.7854223,32.4006844,13.0269613,32.6950302,13.2293777,33.0463676z"/>
	<path style="fill:#C8D1D7;" d="M12.1816177,32.282692c-0.3815756-0.0300713-0.6968937-0.1393394-0.7174168-0.6004372
		C11.8300514,31.7314053,12.0542164,31.9492626,12.1816177,32.282692z"/>
	<path style="fill:#C8D1D7;" d="M12.3316193,32.4302292c-0.0525093-0.0518799-0.1050186-0.1037598-0.1575499-0.1556702
		C12.226572,32.3264275,12.2790966,32.3783302,12.3316193,32.4302292z"/>
	<path style="fill:#A9B5BF;" d="M23.4003315,24.6334934c0.2409878-0.5403538,0.7825413-0.2764339,1.1706905-0.4029598
		c0.4803829-0.1565857,1.0215263-0.1267719,1.5364876-0.1773911c-0.0554962,0.3746033-0.4130459,0.398056-0.633667,0.4012032
		C24.7759266,24.4643021,24.1029167,24.7274723,23.4003315,24.6334934z"/>
	<path style="fill:#A9B5BF;" d="M29.5270042,23.4241085c0.0523796-0.078598,0.107029-0.2270012,0.1567974-0.2253799
		c0.8203716,0.0267029,1.559166-0.4695683,2.3880024-0.367403C31.3381653,23.5212097,30.4179592,23.4098969,29.5270042,23.4241085z"
		/>
	<path style="fill:#A9B5BF;" d="M26.3992786,24.0491352c0.8007317-0.1970291,1.5409851-0.6373348,2.4008236-0.5967484
		C28.0608463,23.8967381,27.3176861,24.3255196,26.3992786,24.0491352z"/>
	<path style="fill:#C8D1D7;" d="M31.6383343,23.5879841c-0.1065102,0.1858635-0.2879829,0.1493511-0.455719,0.1536179
		C31.2904644,23.5597038,31.4690857,23.5877533,31.6383343,23.5879841z"/>
	<path style="fill:#A9B5BF;" d="M23.546463,23.4572449c1.2801228-0.3296356,2.5697536-0.5987244,3.8994884-0.6123829
		c-0.3405762,0.6094513-0.9767876,0.275032-1.4564266,0.4007492c-0.5850906,0.1533546-1.2046738,0.2270164-1.7952557,0.4053555
		C23.9363022,23.7288666,23.6555176,23.8790493,23.546463,23.4572449z"/>
	<path style="fill:#A9B5BF;" d="M27.7311211,22.8255978c0.4029751-0.5176067,1.0269432-0.2300682,1.5206547-0.4172516
		C28.8698826,23.0029926,28.2725277,22.8123074,27.7311211,22.8255978z"/>
	<path style="fill:#A9B5BF;" d="M22.3418865,23.8713245c0.1781807-0.4849529,0.6001263-0.2001324,0.9044437-0.2865524
		C23.094059,24.1511478,22.6496334,23.7956448,22.3418865,23.8713245z"/>
	<path style="fill:#A9B5BF;" d="M29.542429,22.400198c0.1114674-0.1873169,0.2883949-0.1542454,0.4607773-0.1366615
		C29.9267101,22.5692997,29.7775211,22.6297817,29.542429,22.400198z"/>
	<path style="fill:#8D9BA5;" d="M48.2615089,27.81884c0.019928,0.4509163-0.3601875,0.5708675-0.6489105,0.722868
		c-1.0869827,0.5722542-2.2997818,0.8339138-3.4156036,1.3289948c-1.4348793,0.6366482-2.9574051,1.0092983-4.4334412,1.5115662
		c-1.647934,0.5607624-3.3338776,1.0726261-5.0675278,1.3356647c-0.6496391,0.098568-1.1937294,0.4634514-1.7426567,0.7143173
		c-0.9599667,0.4387169-1.9944172,0.622509-2.9400597,1.0778923c-1.3309231,0.6409187-2.8219776,0.8216286-4.1928291,1.3237572
		c-1.1360683,0.4161339-2.2570171,0.853138-3.4311485,1.154171c-0.2904034,0.0744591-0.5327682,0.0712776-0.7809258-0.0789108
		c1.3778362-0.6897812,2.8857651-1.0113258,4.3271904-1.5210991c2.3088303-0.8165474,4.6351433-1.5835915,6.9525146-2.3760986
		c4.0462875-1.3837757,8.0925598-2.767622,12.1362152-4.1590652C46.0960121,28.484129,47.1469002,28.0524597,48.2615089,27.81884z"
		/>
	<path style="fill:#5E6A76;" d="M32.236145,31.8259926c-1.0691776,0.6128693-2.2537155,0.8735275-3.4291496,1.1619682
		c1.1273403-0.4356308,2.2012386-1.0345764,3.4296837-1.1613274L32.236145,31.8259926z"/>
	<path style="fill:#5E6A76;" d="M33.1338196,31.5263462c-0.1086273,0.1726646-0.2852745,0.1414032-0.4487343,0.1496792
		l0.0011215,0.0013504c0.1079254-0.1747475,0.2845573-0.143589,0.4487419-0.1497402L33.1338196,31.5263462z"/>
	<path style="fill:#5E6A76;" d="M32.2366791,31.8266335c0.1081924-0.1751633,0.2849693-0.143795,0.4495201-0.1492653
		l-0.0011139-0.0013428c-0.1080551,0.1744804-0.2847023,0.1436501-0.4489365,0.149971L32.2366791,31.8266335z"/>
	<path style="fill:#5E6A76;" d="M28.1944962,33.1724586c-0.0825138,0.0416031-0.1650257,0.0832062-0.2475414,0.1248093
		c-0.0144234-0.0295258-0.0288486-0.0590515-0.043272-0.0885773c0.0974369-0.0114975,0.1948738-0.022995,0.2923088-0.0344887
		L28.1944962,33.1724586z"/>
	<path style="fill:#5E6A76;" d="M42.2641792,28.3837681c-0.0513878,0.0356979-0.1027794,0.0713921-0.154171,0.1070881
		c-0.0398102-0.1677151,0.107811-0.0641651,0.1544762-0.1067314L42.2641792,28.3837681z"/>
	<path style="fill:#5E6A76;" d="M33.1349487,31.5276356c0.0514793-0.0375099,0.1029587-0.0750217,0.154438-0.1125317
		c0.0467339,0.1749249-0.1046181,0.0728855-0.1555595,0.111248L33.1349487,31.5276356z"/>
	<path style="fill:#5E6A76;" d="M28.1959915,33.174202c0.0519676-0.0364037,0.1039333-0.0728073,0.1559029-0.109211
		c0.0413208,0.1731491-0.1071358,0.0684128-0.1573925,0.1074753L28.1959915,33.174202z"/>
</g>
</svg>
