<?xml version="1.0" encoding="utf-8"?>
<!-- Generator: Adobe Illustrator 21.1.0, SVG Export Plug-In . SVG Version: 6.00 Build 0)  -->
<svg version="1.1" id="Слой_1" xmlns="http://www.w3.org/2000/svg" xmlns:xlink="http://www.w3.org/1999/xlink" x="0px" y="0px"
	 viewBox="0 0 55 45" style="enable-background:new 0 0 55 45;" xml:space="preserve">
<g>
	<path style="fill:#970A13;" d="M52.5452194,15.3752127c0.3617554,0.4254827,0.2445259,0.8308058-0.1583405,1.0968885
		c-1.2540321,0.8282509-2.5171661,1.6373863-3.8679428,2.3160934c-0.9401207,0.4723682-1.7837029,1.1335068-2.7165718,1.6405907
		c-1.7841759,0.9698372-3.5490913,1.9751968-5.319313,2.9705925c-2.7319374,1.5361652-5.4621658,3.0753651-8.1904831,4.617939
		c-0.1265907,0.0715733-0.2274971,0.1885834-0.3403645,0.2844315c-1.1039619,0.5813637-2.2172337,1.1458054-3.3101101,1.7473011
		c-3.0885067,1.6998558-6.1662025,3.419342-9.2530785,5.1221657c-1.6452007,0.9075432-3.2513466,0.9383812-4.7971802-0.2500458
		c-0.2649851-0.2037201-0.5753841-0.3483658-0.8640966-0.5206032c-1.4594145-1.0129509-2.9089985-2.0412483-4.3826027-3.033884
		c-1.4941955-1.006506-2.9000406-2.1422348-4.4628015-3.0479031c-0.0692387-0.0436954-0.1384778-0.0873928-0.2077165-0.1310902
		c-0.033349-0.1356754-0.0866313-0.2477684-0.2590251-0.218935c-0.3648853-0.4520817-0.8304317-0.7682915-1.3554721-1.0041962
		c-0.95872-0.8166428-1.180517-1.5035172-0.8070829-2.4990807c0.9579651,0.8014965,2.0452616,1.4160461,3.0684392,2.1229534
		c0.4332037,0.2992992,0.8523569,0.6496639,1.4214721,0.6681976c0.1787457,0.1074944,0.3577523,0.2152901,0.5367589,0.3230858
		c0.1584754,0.1965351,0.3583164,0.2555237,0.5986032,0.1800156c0.0503621,0.4846134,0.4339218,0.5591221,0.8025303,0.6520348
		c-0.3369465,0.3809929-0.1165438,0.5414925,0.2381945,0.730999c1.2088366,0.6457825,2.3093586,1.4619274,3.4487543,2.2187004
		c1.0234394,0.6797543,2.0352983,1.5220776,3.4267159,1.2821484c0.1930027-0.0332794,0.4142666,0.0579033,0.559351-0.1499252
		c1.0680828,0.2609215,2.8136368-0.2484741,3.3252468-0.9703865l0.0117836-0.0227757l0.0607014,0.0088463
		c0.4869976,0.0976105,0.8282127-0.2419014,1.2268734-0.4091606c0.164114,0.0175285,0.2630634-0.0418015,0.2605038-0.2208614
		c0.212923,0.0343685,0.3725929-0.0552349,0.5018749-0.2155819c0.1686783,0.049181,0.2790871-0.0014076,0.3130722-0.1828499
		c0.0437031,0.0774593,0.0937481,0.0838699,0.1506557,0.0134506c0.1546974,0.0322018,0.2626762-0.0130959,0.2976665-0.1794567
		l0.0204124,0.0364189c0.268919,0.077879,0.4472504,0.0080776,0.4820576-0.2957001
		c0.4454899-0.1207314,0.8453236-0.3362103,1.2262459-0.5909309c0.2559299,0.0489883,0.4857941,0.0511494,0.5237179-0.2915173
		c0.0294056,0.001009,0.0529003-0.0104618,0.0704823-0.0344143c1.1965446-0.1365604,2.1288471-0.8898869,3.1780415-1.3697376
		c0.0427494-0.0195465,0.0412273-0.1358871,0.0603294-0.2071342l0.0012741,0.0062828
		c0.6540337-0.0538139,1.2328949-0.2647247,1.6593876-0.7940483l0.0167484-0.0022068
		c0.6009407,0.0938606,0.9684486-0.2380466,1.2674465-0.6949062c0.0467339-0.013937,0.0934677-0.027874,0.1402035-0.0418148
		c0.4306946,0.013979,0.8127556-0.0754032,1.0417175-0.49016l0.0177994,0.0020084
		c0.1377258,0.0391178,0.2294083,0.013092,0.2202415-0.1556454l-0.0036545,0.0099258
		c0.6075668,0.0703659,0.9933929-0.2915287,1.3572464-0.696249c0.1485748,0.026228,0.2926369,0.0427475,0.336277-0.1565018
		c0.1539803,0.0231876,0.2499542-0.0310497,0.2624779-0.1966591c0.1570625,0.0959377,0.2491379-0.0026627,0.3373871-0.1127071
		c0.6123505-0.0574837,1.1811104-0.1991768,1.5192566-0.7863998c0.1125374,0.0493736,0.2113228,0.0352001,0.2918854-0.0631752
		c0.1155624,0.0147667,0.2089424-0.0033474,0.2177429-0.1468658l-0.0022736,0.0143318
		c0.4404716-0.1046982,0.9029655-0.1690311,1.1504211-0.6275578l0.0313988,0.0142517
		c0.309864,0.0637283,0.5396957-0.1380329,0.778183-0.2640896c1.2343178-0.6524239,2.4538879-1.3326893,3.6858902-1.9895725
		c0.8609734-0.459053,1.8117714-0.7398109,2.6173134-1.3106308c0.3239288,0.0446911,0.5884895-0.0916195,0.8682251-0.2382851
		C48.0949554,17.6778812,50.321228,16.5287228,52.5452194,15.3752127z"/>
	<path style="fill:#047CD4;" d="M12.5617456,21.5242271c0.6508331-0.1924057,1.3029251-0.3806896,1.9521027-0.5785255
		c0.5168314-0.157505,1.0416698-0.240612,1.58249-0.2112522c0.1876411,0.2932968,0.3435535,0.5446091,0.2100525,0.9608402
		c-0.1949577,0.6078434,0.0621891,1.3015747,0.4785271,1.6360626c0.3849106,0.3092365,0.4015179,0.5141983,0.3049774,0.8776455
		l-0.0611687-0.00177c-0.1300869-0.0541248-0.2289639-0.02071-0.2948837,0.1051369l-0.0177307,0.0067139
		c-0.7406101-0.0626793-1.3767118,0.2080574-1.9693975,0.6173019l-0.0315828,0.0119457
		c-0.477458-0.0623856-0.9175282-0.0129719-1.2319994,0.4120102c-0.1703405,0.0276794-0.3332872,0.0313206-0.5079756,0.1052361
		c-1.2753162,0.5396214-2.5777636,1.006424-3.9238796,1.3420925c-0.2805252-0.0101967-0.5830545-0.0933952-0.8373985-0.0167294
		c-0.726954,0.2191143-1.3828712,0.2436752-1.9996262-0.2988071c-0.1411896-0.1241894-0.3112988-0.2498779-0.4720688-0.3519707
		C5.2378645,25.8199024,4.7861533,25.3595505,4.11727,25.388979l-0.0268316-0.0193577
		c0.0809078-0.6943741-0.1684072-0.8601456-0.7614555-0.475687c-0.3154438-0.2536297-0.630888-0.5072594-0.9463317-0.760891
		c0.5273037-0.3922176,1.1748772-0.4501419,1.7771332-0.626255c1.8510842-0.5412998,3.7139812-1.0380611,5.617321-1.3663883
		C10.7586555,22.1760139,11.7506666,22.2589474,12.5617456,21.5242271z"/>
	<path style="fill:#99C0F3;" d="M27.2276993,17.9674568c0.2997513-0.2741375,0.6957684-0.2853031,1.0584946-0.3870296
		c3.6974297-1.0369244,7.3947983-2.0740862,11.0927467-3.1091728c0.2916985-0.0816488,0.5759506-0.2219133,0.8941269-0.1427259
		c-0.2280617,0.4412136-0.6767082,0.3521948-1.0536575,0.4498034c-0.4369659,0.1131468-0.881691,0.1633272-0.6908455,0.885417
		c0.0836258,0.3164263,0.1951256,0.8771238-0.2817116,1.1697912c0.056778,0.0800896,0.1135521,0.160181,0.1703415,0.2402573
		l0.0046387-0.0038185c-0.1268349,0.0058022-0.2480431,0.0228176-0.3109207,0.1560516l0.0003853-0.0003395
		c-0.3559227,0.0068855-0.7206612-0.0079269-0.9234047,0.3755684c-0.2067795,0.1324596-0.413559,0.2649193-0.6203423,0.3973789
		L36.57761,17.992342c-0.3248711,0.0650978-0.7339554-0.1198139-0.9343681,0.3147469l0.0117798-0.0074806
		c-0.1653976,0.0296764-0.3579102-0.0205669-0.4720726,0.1601467l0.0083656-0.0054588
		c-0.7284927,0.034502-1.3586006,0.4087124-2.0437508,0.5906239c-1.6176338,0.4294891-3.1866779,1.0213451-4.7872772,1.5044174
		c-1.263876,0.3814449-2.509964,0.9034882-3.789032,1.293396c-0.1273403-0.1751251-0.3136272-0.1860924-0.4825096-0.1185608
		c-0.4031067,0.1611958-0.8747349,0.1268139-0.9960003-0.2374325c-0.1517429-0.4557972-0.2962246-1.2221432,0.0811481-1.4474163
		c0.7865963-0.4695606,1.4547119-1.1361389,2.346138-1.4447269C26.0920258,18.3965893,26.7884178,18.5244083,27.2276993,17.9674568z
		"/>
	<path style="fill:#6BA3E1;" d="M27.2276993,17.9674568c-0.4392815,0.5569515-1.1356735,0.4291325-1.7076683,0.62714
		c-0.8914261,0.308588-1.5595417,0.9751663-2.346138,1.4447269c-0.3773727,0.2252731-0.2328911,0.9916191-0.0811481,1.4474163
		c0.1212654,0.3642464,0.5928936,0.3986282,0.9960003,0.2374325c0.1688824-0.0675316,0.3551693-0.0565643,0.4824696,0.1185665
		c-1.1356888,0.3352108-2.2175179,0.8384209-3.3820534,1.0834713c-0.5386753-0.0082169-0.987278,0.4683399-1.5576706,0.289423
		c-0.4929085-0.662756-0.4153328-1.4401875-0.185564-2.1075191c0.1858883-0.5398998,0.1264286-0.8413849-0.2770767-1.1537437
		c0.9023209-0.565094,1.9571457-0.6803379,2.9560394-0.850769c1.1461563-0.1955566,2.2143803-0.6693344,3.3683815-0.7988682
		c0.3025246-0.0339565,0.598877-0.1229095,0.8981743-0.1863861c0.1355858,0.0377941,0.2493477,0.011343,0.3303185-0.1117878
		C26.8904095,17.9935246,27.0590534,17.9804897,27.2276993,17.9674568z M22.4730644,21.8833733
		c0.0422935,0.0181751,0.0940342,0.0599918,0.1242504,0.0479202c0.0307026-0.0122623,0.0401802-0.0776653,0.0589523-0.1198006
		c-0.0421391-0.0181751-0.0938892-0.06007-0.1237545-0.047966C22.5015888,21.7760601,22.4918957,21.8409729,22.4730644,21.8833733z"
		/>
	<path style="fill:#368DDB;" d="M52.5452194,15.3752127c-2.2239914,1.1535101-4.450264,2.3026686-6.6691017,3.4660082
		c-0.2797356,0.1466656-0.5442963,0.2829762-0.867939,0.2381134c0.3765221-0.4130287,0.9399338-0.566843,1.3868866-0.9055157
		c-0.2128143-0.3485336-1.2424698-0.3436871-0.3774452-0.9924297c0.0269012-0.0201702,0.0105743-0.1693859-0.0271416-0.1935234
		c-0.507885-0.3250504-0.6562157-1.0221653-1.370285-1.2213593c0.3480568-0.1029224,0.6953239-0.1460295,0.3945351-0.5476942
		c0.3011284-0.1735916,0.6181755-0.3013401,0.967556-0.3359585c2.0018692-0.0967798,3.9950027,0.0924501,5.9910355,0.1847239
		C52.3680458,15.085824,52.3677216,15.0928373,52.5452194,15.3752127z M51.8812561,15.3328753
		c-1.5280952-0.0710173-2.830349-0.1315384-4.1326065-0.1920595c0.508728,0.3312874,0.508728,0.3312874,0.5657196,1.0158939
		c0.0441589,0.530426,0.4510841,0.8838158,0.8375397,0.6801434C49.9985962,16.3906269,50.9038124,16.0496502,51.8812561,15.3328753z
		"/>
	<path style="fill:#368DDB;" d="M19.1688499,19.9543705c0.4035053,0.3123589,0.462965,0.6138439,0.2770767,1.1537437
		c-0.2297688,0.6673317-0.3073444,1.4447632,0.1856537,2.1076107c-0.7800713,0.5024433-1.6314087,0.8227367-2.5411587,0.9936218
		c0.096014-0.3637962,0.0794067-0.568758-0.3055038-0.8779945c-0.416338-0.3344879-0.6734848-1.0282192-0.4785271-1.6360626
		c0.1335011-0.4162312-0.0224113-0.6675434-0.2100525-0.9608402c0.6432514-0.510479,1.4479885-0.5175991,2.1974506-0.6385632
		C18.5798721,20.0497112,18.87714,20.0039501,19.1688499,19.9543705z"/>
	<path style="fill:#6BA3E1;" d="M38.4171829,17.0738125c-0.056778-0.0800915-0.1135521-0.160183-0.17033-0.2402725
		c0.4768372-0.2926674,0.3653374-0.8533649,0.2817116-1.1697912c-0.1908455-0.7220898,0.2538795-0.7722702,0.6908455-0.885417
		c0.3769493-0.0976086,0.8255959-0.0085897,1.0536575-0.4498034c0.1010666-0.007966,0.2021523-0.0160332,0.3031998-0.0240993
		c0.3024864,0.2059002,0.6094551,0.2018452,0.9202042,0.0194883c0.1504822,0.0050535,0.3009682,0.010108,0.4514275,0.0150118
		c0.0995903,0.3363094,0.3897171,0.2217216,0.6153641,0.2597799c0.4669685,0.1802731,0.5233383,0.5544138,0.46418,0.9831018
		C41.4998016,16.1073112,40.0253792,16.7972336,38.4171829,17.0738125z"/>
	<path style="fill:#6BA3E1;" d="M2.3826511,24.1330433c0.3154438,0.2536316,0.630888,0.5072613,0.9461784,0.7610607
		c0.2070723,0.233448,0.4261439,0.4477444,0.7616088,0.4755173l0.0266652,0.0193138
		c0.2205749,0.163084,0.450285,0.3155003,0.6603661,0.4913616c0.6160398,0.5156937,1.4406967,0.7323895,1.9657412,1.376627
		c-0.5693769-0.0188293-0.9885302-0.369194-1.4217339-0.6684933c-1.0231776-0.7069073-2.1104741-1.3214569-3.0684392-2.1229534
		C2.1789443,24.3085499,2.2176135,24.1961193,2.3826511,24.1330433z"/>
	<path style="fill:#368DDB;" d="M43.0274429,15.581811c0.0591583-0.428688,0.0027885-0.8028288-0.4640579-0.9829798
		c0.1684875-0.005682,0.3448868,0.0226078,0.4825325-0.1135559c0.0933762,0.0089273,0.1867523,0.0178528,0.2801208,0.026577
		c0.5033569,0.1745729,1.0247002,0.0983257,1.539753,0.1100349l0.0106506,0.0034819
		c0.0298004,0.2313681,0.0063858,0.430644-0.2832146,0.4693413c-0.1095238,0.0959101-0.2189827,0.191946-0.3284302,0.287981
		C43.809906,15.1853542,43.4495621,15.575531,43.0274429,15.581811z"/>
	<path style="fill:#368DDB;" d="M12.5617456,21.5242271c-0.811079,0.7347202-1.8030901,0.6517868-2.7846403,0.6161728
		C10.6894341,21.8632584,11.5901728,21.5336819,12.5617456,21.5242271z"/>
	<path style="fill:#99C0F3;" d="M44.5932999,15.0948343c0.2895279-0.0388212,0.3129425-0.2380972,0.2831421-0.4694653
		c0.3868484,0.0077906,0.8277779-0.2168961,1.1058655,0.2575178c-0.3494034,0.034585-0.6664505,0.1623335-0.9673805,0.335948
		C44.8405418,15.2930813,44.6176643,15.5315504,44.5932999,15.0948343z"/>
	<path style="fill:#99C0F3;" d="M43.0459175,14.4852753c-0.1376457,0.1361637-0.314045,0.1078739-0.4825325,0.1135559
		c-0.225769-0.0381804-0.5158958,0.0764074-0.6154861-0.259902C42.3323631,14.2492723,42.6885223,14.3719244,43.0459175,14.4852753z
		"/>
	<path style="fill:#99C0F3;" d="M41.4964714,14.3239174c-0.3107491,0.1823568-0.6177177,0.1864119-0.9202042-0.0194883
		C40.8889809,14.0298634,41.1905403,14.280242,41.4964714,14.3239174z"/>
	<path style="fill:#99C0F3;" d="M44.8657913,14.6218872c-0.5150528-0.0117092-1.036396,0.064538-1.539753-0.1100349
		C43.84552,14.46136,44.368309,14.3642054,44.8657913,14.6218872z"/>
	<path style="fill:#99C0F3;" d="M26.7217636,18.0065594c-0.0809708,0.1231308-0.1947327,0.1495819-0.3303185,0.1117878
		C26.4749584,18.0023918,26.5910816,17.9829159,26.7217636,18.0065594z"/>
	<path style="fill:#99C0F3;" d="M43.0274429,15.581811c0.4221191-0.0062799,0.7824631-0.3964567,1.237381-0.1991405
		c-0.1614113,0.1126108-0.3119507,0.300766-0.4860115,0.3258638c-1.3263397,0.1912422-2.5059929,0.8305798-3.7722969,1.1987209
		c-0.6705704,0.1949501-1.239418,0.4197063-0.9807777,1.3064213c0.0653801,0.2241402-0.1139183,0.3878822-0.2684555,0.518858
		c-0.5866928,0.4972324-0.7525139,1.1730709-0.626091,1.863018c0.132679,0.7240925,0.1635971,1.3943901-0.2046852,2.0482464
		l-0.0315552-0.0143147c-0.4287033,0.1263885-0.9963722-0.0020866-1.1502647,0.6276207c0,0,0.0022736-0.0143318,0.0022049-0.0143509
		c-0.0726051,0.0489483-0.1451416,0.0979156-0.2176743,0.1468849c-0.0805626,0.0983753-0.179348,0.1125488-0.2923355,0.0626659
		c-0.5870247,0.1068192-1.2806129,0.0078011-1.5188065,0.7869091c-0.0882492,0.1100445-0.1803246,0.2086449-0.337944,0.1123085
		c-0.145504-0.0111237-0.2316856,0.0559444-0.2619209,0.1970577c-0.0436401,0.1992493-0.1877022,0.1827297-0.3367882,0.1557751
		c-0.6050301-0.0644836-1.0439453,0.1936607-1.3567352,0.6969757l0.0036583-0.0098991
		c-0.0734138,0.0518875-0.1468315,0.103754-0.2202454,0.1556187l-0.0178871-0.0020008
		c-0.4256535-0.0031757-0.9082451-0.1275387-1.0416298,0.4901524c-0.0467358,0.0139408-0.0934696,0.0278778-0.1406422,0.0413284
		c-0.673996-0.2260399-0.9813042,0.2150173-1.2670078,0.6953926l-0.016819,0.0022202
		c-0.6828098-0.0062523-1.2525997,0.2235031-1.659317,0.794035l-0.0015984-0.006361
		c-1.1944313,0.2897682-2.2486439,0.8668289-3.2380466,1.5769501c-0.0175819,0.0239525-0.0410767,0.0354233-0.070591,0.0345535
		c-0.1127777,0.0176487-0.2254448,0.0351601-0.3381119,0.0526714c-0.0102959-0.1012001,0.0182667-0.2374554-0.036684-0.2983665
		c-0.8828678-0.9785995-1.306303-2.1407261-1.5147877-3.4281693c-0.0488071-0.3013992-0.0462437-0.4619846,0.1494827-0.6449375
		c0.2356129-0.2202396,0.4389057-0.468586,0.2465191-0.7973652c-0.1847572-0.3157368-0.4440746-0.5545769-0.8618755-0.5236092
		c-0.2278881,0.0168953-0.4623699-0.0272846-0.6866035,0.0056267c-0.6126633,0.0899277-0.2046356-0.2828331-0.2207546-0.4627972
		c0.706934-0.2194195,1.4119511-0.4453697,2.1212559-0.65695c1.7492027-0.5217781,3.4369297-1.2594223,5.2655373-1.503046
		l0.0340672,0.0398827l-0.0386372-0.0353718c0.2466335-0.3397312,0.6718788-0.3991699,1.0077286-0.5373344
		c1.0805855-0.4445381,2.183321-0.9433765,3.3219433-1.1016502c0.7938614-0.1103497,1.3590508-0.4760227,1.9877167-0.8276291
		l-0.0083694,0.0054588c0.1655693-0.0292301,0.3496552-0.0037155,0.4720345-0.1601257l-0.0117455,0.0074615
		c0.3360481-0.0319576,0.6515045-0.1249123,0.9343338-0.3147278l-0.0100212,0.0062714
		c0.4484329-0.104229,0.9178925-0.1582909,1.2549667-0.5273857c0.0962448-0.0818462,0.1924934-0.1636925,0.2887421-0.2455387
		l-0.0003853,0.0003376c0.1235237-0.0124111,0.2458954-0.0270939,0.3109207-0.1560478l-0.0046387,0.0038185
		C40.0253792,16.7972336,41.4998016,16.1073112,43.0274429,15.581811z"/>
	<path style="fill:#368DDB;" d="M19.6791039,31.5233002c-0.51161,0.7219124-2.257164,1.231308-3.3255577,0.9701805
		c-1.1991777-0.0101624-2.0581884-0.7949638-3.0151834-1.3422298c-1.5634289-0.8940639-3.1060963-1.8244343-4.6575212-2.7394867
		c-0.3686085-0.0929127-0.7521682-0.1674213-0.8018355-0.6520996c0.2660966-0.2604504,0.6012568-0.3561172,0.9564939-0.4046421
		c0.095089,0.3150539-0.3217077,0.2774429-0.3699875,0.5655174c0.6389656,0.0643311,1.003828,0.5999756,1.5465879,0.8687134
		c1.4035883,0.6949615,2.6741667,1.6485767,4.179594,2.1539745c0.1943216,0.065239,0.5289764,0.1902599,0.4656296-0.0515881
		c-0.192358-0.7344055,0.4994879-1.2035007,0.4173908-1.9367657c-0.0884409-0.7899265,0.117919-1.8327503,0.6537151-2.266449
		c0.8847561-0.7161598,0.3917255-0.864996-0.1648397-1.1980782c-0.1028624-0.0615578-0.1672621-0.1873875-0.2494144-0.2835541
		c0.7712698-0.1061878,1.4234285-0.5551815,2.1640139-0.7514133c0.4573631-0.1211891,0.8880596-0.3744907,1.38904-0.2662201
		c0.288538,0.2534542,0.4365635,0.5278683,0.4977188,0.9508381c0.111105,0.7684841-0.1103897,1.5085316-0.0312691,2.2662277
		c0.1427689,1.3672638,0.6343842,2.6998348,0.4179096,4.1031456l-0.0609436-0.0093098
		c-0.0624962-0.0217209-0.1247501-0.0429783-0.187006-0.0642376c-0.0079594,0.0235691-0.0159168,0.047142-0.0238743,0.070713
		C19.5462112,31.512125,19.6126575,31.5177116,19.6791039,31.5233002z"/>
	<path style="fill:#6BA3E1;" d="M37.926506,22.6437988c0.3682823-0.6538563,0.3373642-1.3241539,0.2046852-2.0482464
		c-0.1264229-0.6899471,0.0393982-1.3657856,0.626091-1.863018c0.1545372-0.1309757,0.3338356-0.2947178,0.2684555-0.518858
		c-0.2586403-0.8867149,0.3102074-1.1114712,0.9807777-1.3064213c1.266304-0.3681412,2.4459572-1.0074787,3.7722969-1.1987209
		c0.1740608-0.0250978,0.3246002-0.213253,0.4860115-0.3258648c0.1094208-0.0960131,0.2188797-0.192049,0.3284035-0.2879591
		c0.024437,0.4368401,0.2473145,0.1983709,0.4216995,0.1241245c0.3005905,0.4016418-0.0466766,0.4447489-0.3947334,0.5476713
		c0.7140694,0.199194,0.8624001,0.8963089,1.370285,1.2213593c0.0377159,0.0241375,0.0540428,0.1733532,0.0271416,0.1935234
		c-0.8650246,0.6487427,0.1646309,0.6438961,0.3774452,0.9924297c-0.4469528,0.3386726-1.0103645,0.492487-1.3868866,0.9055157
		c-0.8058281,0.5709915-1.7566261,0.8517494-2.6175995,1.3108025c-1.2320023,0.6568832-2.4515724,1.3371487-3.6858902,1.9895725
		C38.4662018,22.5057659,38.2363701,22.7075272,37.926506,22.6437988z"/>
	<path style="fill:#6BA3E1;" d="M19.7515888,31.5093708c0.2164745-1.4033108-0.2751408-2.7358818-0.4179096-4.1031456
		c-0.0791206-0.7576962,0.142374-1.4977436,0.0312691-2.2662277c-0.0611553-0.4229698-0.2091808-0.6973839-0.4976807-0.9510632
		c0.6757698-0.5593796,1.5421391-0.6622086,2.3226566-0.9705372c0.1006184-0.0473404,0.2012348-0.094677,0.3018513-0.1420155
		c0.0160885,0.1799564-0.3919392,0.5527172,0.2207241,0.4627895c0.2242336-0.0329113,0.4587154,0.0112686,0.6866035-0.0056267
		c0.4178009-0.0309677,0.6771183,0.2078724,0.8618755,0.5236092c0.1923866,0.3287792-0.0109062,0.5771255-0.2465191,0.7973652
		c-0.1957264,0.1829529-0.1982899,0.3435383-0.1494827,0.6449375c0.2084846,1.2874432,0.6319199,2.4495697,1.5147877,3.4281693
		c0.0549507,0.0609112,0.0263882,0.1971664,0.036665,0.2984104c-0.0618362,0.0795803-0.1236591,0.1591225-0.1854782,0.2386627
		c-0.3809223,0.2547207-0.780756,0.4701996-1.2268028,0.5904922c-0.2686024-0.0762806-0.4206085,0.0360489-0.4815006,0.2961388
		l-0.0204315-0.0363693c-0.0992279,0.0598335-0.1984386,0.1196213-0.2976475,0.1794071
		c-0.0569077,0.0704193-0.1069527,0.0640087-0.1508465-0.0134544c-0.1044216,0.0609474-0.2086506,0.1219006-0.3128815,0.1828537
		c-0.129282,0.160347-0.2889519,0.2499504-0.5019512,0.2160416c-0.0868587,0.0737743-0.173645,0.1470852-0.2604275,0.2204018
		C20.5798016,31.2674694,20.2385864,31.6069813,19.7515888,31.5093708z"/>
	<path style="fill:#6BA3E1;" d="M13.637064,34.6251221c-1.4152021-0.421257-2.4908857-1.4012718-3.6703548-2.2147675
		c-0.8938704-0.6165161-1.863142-1.1309814-2.717555-1.795414c-0.8662429-0.6736279-1.7531862-1.3529377-2.3672214-2.2970371
		c1.5631623,0.9065437,2.9690075,2.0422726,4.463203,3.0487785c1.4736042,0.9926357,2.9231882,2.0209332,4.3826027,3.033884
		c-0.0263271,0.0706635-0.0519466,0.1410255-0.0775652,0.2113914L13.637064,34.6251221z"/>
	<path style="fill:#6BA3E1;" d="M8.6808414,28.4117641c1.551425,0.9150524,3.0940924,1.8454227,4.6575212,2.7394867
		c0.956995,0.547266,1.8160057,1.3320675,3.0151834,1.3422298c-0.1447735,0.2080345-0.3660374,0.1168518-0.5590401,0.1501312
		c-1.3914175,0.2399292-2.4032764-0.6023941-3.4267159-1.2821484c-1.1393957-0.756773-2.2399178-1.5729179-3.4487543-2.2187004
		C8.5642977,28.9532566,8.343895,28.792757,8.6808414,28.4117641z"/>
	<path style="fill:#99C0F3;" d="M21.1899281,23.2183971c-0.7805214,0.3083286-1.6468906,0.4111576-2.3226604,0.9705372
		c-0.5010185-0.1080456-0.931715,0.145256-1.3890781,0.2664452c-0.7405853,0.1962318-1.3927441,0.6452255-2.1639547,0.7514935
		c-0.0435877,0.0091877-0.0859575,0.0223904-0.1270514,0.0396843c-0.3433523,0.0972214-0.6917248,0.1796474-1.0292149,0.2941475
		c-1.7645025,0.5986481-3.5262442,1.2054405-5.2889452,1.8094006L8.8353357,27.354908
		c-0.355073,0.0486393-0.6902332,0.1443062-0.9563298,0.4047565c-0.2409816,0.075573-0.4408226,0.0165844-0.597147-0.1798477
		c0.5237641-0.4117336,1.2079062-0.4516315,1.7694182-0.7721558c1.3461161-0.3356647,2.6485634-0.8024673,3.9238796-1.3420887
		c0.1746883-0.0739155,0.337635-0.0775566,0.5079603-0.1051674c0.4504614-0.0183353,0.8589878-0.1621513,1.2320147-0.4120789
		l0.0314207-0.012022c0.6959-0.0797615,1.3465948-0.3042412,1.9695597-0.6172256l0.0176601-0.006731
		c0.0982685-0.0350513,0.1966114-0.0700855,0.2949543-0.1051197l0.0611687,0.00177
		c0.9102764-0.170536,1.7616138-0.4908295,2.5416851-0.9932728c0.570303,0.1788254,1.0189056-0.2977314,1.5575542-0.2895489
		C21.1893787,23.0235615,21.1896534,23.1209793,21.1899281,23.2183971z"/>
	<path style="fill:#368DDB;" d="M9.0512772,26.8076649c-0.561512,0.3205204-1.2456541,0.3604183-1.7694173,0.7721519
		c-0.1811585-0.1078987-0.3601651-0.2156944-0.5389109-0.3231888c-0.5247827-0.6439419-1.3494396-0.8606377-1.9654794-1.3763313
		c-0.2100811-0.1758614-0.4397912-0.3282776-0.6603661-0.4913616c0.6690497-0.0293846,1.1207609,0.4309673,1.6250801,0.7512226
		c0.1607699,0.1020927,0.3308792,0.2277813,0.4720688,0.3519707c0.616755,0.5424824,1.2726722,0.5179214,1.9996262,0.2988071
		C8.4682226,26.7142696,8.770752,26.7974682,9.0512772,26.8076649z"/>
	<path style="fill:#368DDB;" d="M24.8251514,29.1387672c0.9894028-0.7101212,2.0436153-1.2871819,3.2380466-1.5769501
		c-0.0187778,0.0713253-0.0172558,0.1876659-0.0600052,0.2072124
		C26.9539986,28.2488804,26.0216961,29.0022068,24.8251514,29.1387672z"/>
	<path style="fill:#6BA3E1;" d="M34.7180748,24.2392139c0.2381935-0.779108,0.9317818-0.68009,1.5188065-0.7869091
		C35.8991852,24.0400372,35.3304253,24.1817303,34.7180748,24.2392139z"/>
	<path style="fill:#6BA3E1;" d="M28.0647964,27.5681782c0.4067173-0.5705318,0.9765072-0.8002872,1.659317-0.794035
		C29.2976913,27.3034534,28.7188301,27.5143642,28.0647964,27.5681782z"/>
	<path style="fill:#6BA3E1;" d="M29.7409325,26.7719231c0.2857037-0.4803753,0.5930119-0.9214325,1.2670078-0.6953926
		C30.7093811,26.5338764,30.3418732,26.8657837,29.7409325,26.7719231z"/>
	<path style="fill:#6BA3E1;" d="M32.4246864,25.4013309c0.3127899-0.503315,0.7517052-0.7614594,1.3567352-0.6969757
		C33.4180794,25.1098022,33.0322533,25.4716969,32.4246864,25.4013309z"/>
	<path style="fill:#6BA3E1;" d="M36.7446861,23.2571049c0.1538925-0.6297073,0.7215614-0.5012321,1.1502647-0.6276207
		C37.6476517,23.0880737,37.1851578,23.1524067,36.7446861,23.2571049z"/>
	<path style="fill:#6BA3E1;" d="M31.1485825,26.035202c0.1333847-0.617691,0.6159763-0.4933281,1.0416298-0.4901524
		C31.961338,25.9597988,31.579277,26.049181,31.1485825,26.035202z"/>
	<path style="fill:#6BA3E1;" d="M4.6746178,28.1876888c-0.2153044,0.1086292-0.2340488,0.0927296-0.259398-0.2196255
		C4.5879865,27.9399204,4.6412687,28.0520134,4.6746178,28.1876888z"/>
	<path style="fill:#368DDB;" d="M22.5226479,30.3513298c0.0608921-0.2600899,0.2128983-0.3724194,0.4815006-0.2961388
		C22.9698982,30.3594074,22.7915668,30.4292088,22.5226479,30.3513298z"/>
	<path style="fill:#368DDB;" d="M24.2309513,29.4646988c0.0618191-0.0795403,0.123642-0.1590824,0.1854782-0.2386627
		c0.1126862-0.0175552,0.2253532-0.0350666,0.338131-0.0527153C24.7167454,29.5158482,24.4868813,29.5136871,24.2309513,29.4646988z
		"/>
	<path style="fill:#6BA3E1;" d="M19.6791039,31.5233002c-0.0664463-0.0055885-0.1328926-0.0111752-0.1993389-0.0167637
		c0.0079575-0.023571,0.0159149-0.0471439,0.0238743-0.070713c0.0622559,0.0212593,0.1245098,0.0425167,0.187006,0.0642376
		L19.6791039,31.5233002z"/>
	<path style="fill:#6BA3E1;" d="M34.1182098,24.5485802c0.0302353-0.1411133,0.1164169-0.2081814,0.2619209-0.1970577
		C34.3681641,24.5175304,34.2721901,24.5717678,34.1182098,24.5485802z"/>
	<path style="fill:#6BA3E1;" d="M32.2080994,25.5470505c0.0734138-0.0518646,0.1468315-0.1037312,0.2202454-0.1556187
		C32.4375076,25.5601425,32.3458252,25.5861683,32.2080994,25.5470505z"/>
	<path style="fill:#6BA3E1;" d="M36.5292168,23.3896389c0.0725327-0.0489693,0.1450691-0.0979366,0.2176743-0.1468849
		C36.7381592,23.3862915,36.6447792,23.4044056,36.5292168,23.3896389z"/>
	<path style="fill:#368DDB;" d="M22.2045689,30.4943676c0.0992088-0.0597858,0.1984196-0.1195736,0.2976475-0.1794071
		C22.4672451,30.4812717,22.3592663,30.5265694,22.2045689,30.4943676z"/>
	<path style="fill:#368DDB;" d="M21.7408409,30.6637669c0.1042309-0.0609531,0.2084599-0.1219063,0.3128815-0.1828537
		C22.019928,30.6623592,21.9095192,30.7129478,21.7408409,30.6637669z"/>
	<path style="fill:#368DDB;" d="M20.9784622,31.1002102c0.0867825-0.0733166,0.1735687-0.1466274,0.2604275-0.2204018
		C21.2415257,31.0584087,21.1425762,31.1177387,20.9784622,31.1002102z"/>
	<path style="fill:#368DDB;" d="M16.7161121,24.3190784c-0.6229649,0.3129845-1.2736597,0.5374641-1.9695597,0.6172256
		C15.3394003,24.5271358,15.975502,24.2563992,16.7161121,24.3190784z"/>
	<path style="fill:#368DDB;" d="M4.0904384,25.3696213c-0.335465-0.0277729-0.5545366-0.2420692-0.7616088-0.4755173
		C3.9220312,24.5094757,4.1713462,24.6752472,4.0904384,25.3696213z"/>
	<path style="fill:#368DDB;" d="M14.7151318,24.9483261c-0.3730268,0.2499275-0.7815533,0.3937435-1.2320147,0.4120789
		C13.7976036,24.9353542,14.2376738,24.8859406,14.7151318,24.9483261z"/>
	<path style="fill:#368DDB;" d="M17.0287266,24.2072277c-0.0983429,0.0350342-0.1966858,0.0700684-0.2949543,0.1051197
		C16.7997627,24.1865177,16.8986397,24.1531029,17.0287266,24.2072277z"/>
	<path style="fill:#FDFDFD;" d="M21.1899281,23.2183971c-0.0002747-0.0974178-0.0005493-0.1948357-0.0007935-0.2922211
		c1.1645622-0.2450161,2.2463913-0.7482262,3.3820801-1.083437c1.279108-0.3899136,2.5251961-0.9119568,3.789072-1.2934017
		c1.6005993-0.4830723,3.1696434-1.0749283,4.7872772-1.5044174c0.6851501-0.1819115,1.315258-0.5561218,2.0437508-0.5906239
		c-0.628624,0.3515854-1.1938133,0.7172585-1.9876747,0.8276081c-1.1386223,0.1582737-2.2413578,0.6571121-3.3219433,1.1016502
		c-0.3358498,0.1381645-0.761095,0.1976032-1.0077286,0.5373344l0.0045433-0.0045052
		c-1.8285809,0.243618-3.5163078,0.9812622-5.2655106,1.5030403c-0.7093048,0.2115803-1.4143219,0.4375305-2.1212559,0.65695
		C21.3911591,23.1237202,21.2905426,23.1710567,21.1899281,23.2183971z"/>
	<path style="fill:#FDFDFD;" d="M37.8225555,17.4712296c-0.3370743,0.3690929-0.8065338,0.4231548-1.2549667,0.5273838
		c0.2067451-0.1324348,0.4135246-0.2648945,0.6203575-0.3979053C37.3995171,17.5571804,37.6110382,17.514204,37.8225555,17.4712296z
		"/>
	<path style="fill:#FDFDFD;" d="M36.57761,17.992342c-0.2828293,0.1898155-0.5982857,0.2827702-0.9343338,0.3147278
		C35.8436546,17.8725281,36.252739,18.0574398,36.57761,17.992342z"/>
	<path style="fill:#6BA3E1;" d="M37.8225555,17.4712276c-0.2115173,0.0429764-0.4230385,0.0859528-0.6346092,0.1294804
		c0.2026901-0.3829441,0.5674286-0.3681316,0.9233513-0.3750191C38.015049,17.3075352,37.9188004,17.3893814,37.8225555,17.4712276z
		"/>
	<path style="fill:#FDFDFD;" d="M35.6550217,18.2996082c-0.1223793,0.1564102-0.3064651,0.1308956-0.4720345,0.1601257
		C35.2971115,18.2790413,35.489624,18.3292847,35.6550217,18.2996082z"/>
	<path style="fill:#6BA3E1;" d="M38.421833,17.0699787c-0.0650253,0.1289539-0.187397,0.1436367-0.3109207,0.1560478
		C38.17379,17.0927963,38.2949982,17.0757809,38.421833,17.0699787z"/>
	<path style="fill:#6BA3E1;" d="M13.6501732,34.6119576c0.0185881,0.0134239,0.0371761,0.0268478,0.0557632,0.0402756
		c-0.0229912-0.0090408-0.0459824-0.0180817-0.068924-0.0271149L13.6501732,34.6119576z"/>
	<path style="fill:#99C0F3;" d="M22.47299,21.8831749c0.0189056-0.042202,0.0285988-0.1071148,0.0595226-0.119648
		c0.0298653-0.012104,0.0816154,0.0297909,0.1237545,0.047966c-0.0187721,0.0421352-0.0282497,0.1075382-0.0589523,0.1198006
		C22.5670986,21.9433651,22.515358,21.9015484,22.47299,21.8831749z"/>
	<path style="fill:#047CD4;" d="M51.8812561,15.3328753c-0.9774437,0.7167749-1.8826599,1.0577517-2.7293472,1.5039778
		c-0.3864555,0.2036724-0.7933807-0.1497173-0.8375397-0.6801434c-0.0569916-0.6846066-0.0569916-0.6846066-0.5657196-1.0158939
		C49.0509071,15.2013369,50.3531609,15.261858,51.8812561,15.3328753z"/>
	<polygon style="fill:#FDFDFD;" points="28.8739681,20.9208889 28.9126053,20.9562607 28.8785381,20.916378 	"/>
	<path style="fill:#047CD4;" d="M15.1871834,25.2465572c0.0410938-0.0172939,0.0834637-0.0304966,0.1270514-0.0396843
		c0.0820932,0.0960865,0.146493,0.2219162,0.2493553,0.283474c0.5565653,0.3330822,1.0495958,0.4819183,0.1648397,1.1980782
		c-0.5357962,0.4336987-0.742156,1.4765224-0.6537151,2.266449c0.0820971,0.7332649-0.6097488,1.2023602-0.4173908,1.9367657
		c0.0633469,0.241848-0.2713079,0.116827-0.4656296,0.0515881c-1.5054274-0.5053978-2.7760057-1.459013-4.179594-2.1539745
		c-0.5427599-0.2687378-0.9076223-0.8043823-1.5465879-0.8687134c0.0482798-0.2880745,0.4650764-0.2504635,0.3699875-0.5655174
		c0,0,0.0335236-0.0049171,0.0334263-0.0047207c0.8245583,0.0813141,1.6630964-0.1245747,2.370018-0.3944397
		c1.1487083-0.4385204,2.2632885-0.9700985,3.4601383-1.2910614C14.9178991,25.6061172,15.1454506,25.5265179,15.1871834,25.2465572
		z"/>
	<path style="fill:#368DDB;" d="M15.1871834,25.2465572c-0.0417328,0.2799606-0.2692842,0.35956-0.488101,0.4182434
		c-1.1968498,0.3209629-2.31143,0.852541-3.4601383,1.2910614c-0.7069216,0.269865-1.5454597,0.4757538-2.370018,0.3944397
		c1.7627983-0.6041565,3.5245399-1.2109489,5.2890425-1.809597C14.4954586,25.4262047,14.8438311,25.3437786,15.1871834,25.2465572z
		"/>
</g>
</svg>
