<?xml version="1.0" encoding="utf-8"?>
<!-- Generator: Adobe Illustrator 21.1.0, SVG Export Plug-In . SVG Version: 6.00 Build 0)  -->
<svg version="1.1" id="Слой_1" xmlns="http://www.w3.org/2000/svg" xmlns:xlink="http://www.w3.org/1999/xlink" x="0px" y="0px"
	 viewBox="0 0 55 45" style="enable-background:new 0 0 55 45;" xml:space="preserve">
<g>
	<path style="fill:#86B4DC;" d="M19.6647358,7.9880857c0.4158421-0.0451579,0.8316364-0.1291552,1.2475338-0.1296458
		c6.1213989-0.0072074,12.2428131-0.0028381,18.3642235-0.0026541c0.7194023,0.0000215,1.4361839,0.0024896,2.0380287,0.4887795
		c-0.1763611,0.0044212-0.3526993,0.0087852-0.5290413,0.0131512C39.2698784,8.68085,37.699913,7.9670734,36.2004547,8.5981283
		c-0.1654587,0.006031-0.3309212,0.012064-0.4963837,0.018095c-0.1368179-0.0846605-0.2734299-0.242959-0.4104881-0.243351
		c-5.0289726-0.0143566-10.0579796-0.0140667-15.0869846-0.0157776C19.9493923,8.34655,19.7378063,8.2690182,19.6647358,7.9880857z"
		/>
	<path style="fill:#67ABEC;" d="M50.352459,17.1102867c0.0334778,0.2147331,0.0669479,0.4294682,0.1003952,0.6442184
		c-0.5055046,0.0199413-0.5271339,0.3792553-0.5280495,0.7531376c-0.5991821,0.0951767-1.1985207,0.1902084-1.797863,0.2852402
		c-0.7608337-0.4648571-1.2982597-1.1660328-1.9000053-1.7981071c0.0366096-0.056448,0.0807152-0.1041126,0.1337852-0.143486
		c0.1178818-0.2690926,0.2357674-0.5381851,0.3536491-0.8072777c0.8004837-0.1030798,0.7705536-0.5241652,0.410408-1.0717049
		c0.1247597-0.6387358-0.3392525-0.6895447-0.7712326-0.7723379c-0.3190079-0.1758642-0.5712128-0.4171562-0.7322807-0.7477026
		c0.0089417-0.377533-0.175415-0.6271019-0.5131416-0.7751427c0.0946922-0.0901356,0.1893845-0.1802711,0.2840767-0.2704039
		c0.3910484,0.2891073,0.7820969,0.5782146,1.1731453,0.8673229c0.1889496,0.5598001,0.6362534,0.875844,1.1051674,1.1714706
		c0.2442627,0.4259491,0.57061,0.7678061,1.014164,0.9895258c0.1009521,0.1581545,0.2019081,0.316309,0.3028564,0.4744644
		c-0.0293694,0.031785-0.0582237,0.0640259-0.0865707,0.0967216c-0.2317505,0.0003033-0.6037788-0.0961189-0.613945,0.1919594
		c-0.0188179,0.5333805,0.4084816,0.7312889,0.8858261,0.8013191c0.0853767,0.0835705,0.1707268,0.1671867,0.256073,0.2508011
		c0.0319824,0.1101665,0.0639648,0.2203331,0.0959473,0.3304996c0.0321846-0.0208378,0.064373-0.0416775,0.0965576-0.0625172
		c-0.0634766-0.0900211-0.1269531-0.1800423-0.1904335-0.2700558c-0.0835915-0.0853634-0.1671753-0.1707401-0.2507668-0.2561111
		c-0.0112991-0.2455368-0.0225983-0.4910736-0.0339012-0.7366104c0.0359573-0.0310307,0.0714035-0.0626373,0.1063347-0.0948181
		c0.0746613,0.0094166,0.1472282,0.0273247,0.2175865,0.0537777c0.1800995,0.4055767,0.4766312,0.6874104,0.8939095,0.8408566
		L50.352459,17.1102867z"/>
	<path style="fill:#86B4DC;" d="M12.6361675,9.9112911c1.7424154-2.1951694,4.0858097-2.3327479,6.588747-1.9248552
		c-0.7732258,0.7360287-1.721611,0.2111521-2.5788841,0.3498316c-0.5462952,0.0883713-1.1935349-0.1676188-1.5305872,0.5216389
		l0.0070601-0.0012779c-0.7133894-0.0226002-1.1723814,0.2737846-1.275094,1.0169077l0.0029249-0.0022907
		c-0.3742685-0.0085106-0.6236601,0.1696348-0.7638321,0.5110283l0.0009632-0.003232
		c-0.396225-0.0424652-0.4953318,0.3610582-0.7644987,0.5093126c-0.0998468-0.0120583-0.1996946-0.0241137-0.2995415-0.03617
		c0.0278835-0.1448021,0.0557671-0.2896032,0.0836506-0.4344053c0,0-0.0017796-0.0062809-0.0019569-0.0064325
		C12.2820168,10.2445612,12.4590931,10.0779247,12.6361675,9.9112911z"/>
	<path style="fill:#4191DD;" d="M15.1153402,8.8578854c0.3371553-0.6892366,0.984395-0.4332466,1.5306902-0.5216179
		c0.8572731-0.1386795,1.8056583,0.3861971,2.5788841-0.3498316c0.1465244,0.000535,0.2931366,0.0006204,0.439785,0.0011787
		c0.0731068,0.2814035,0.2846928,0.3589354,0.5419292,0.3694658c-0.0031242,0.0845385-0.0036221,0.1691084-0.0014153,0.2536793
		c-0.0785732,0.0896435-0.157196,0.1792994-0.2358723,0.2688646c-0.0958977,0.0047455-0.1917419,0.0095863-0.2875843,0.0144272
		c-0.1586666-0.0022182-0.3173332-0.0044336-0.4759998-0.006649c-0.0930328-0.0009193-0.1860676-0.0018387-0.2791004-0.0027552
		c-1.0942574-0.0018072-2.1885109-0.0036116-3.2827673-0.0054169C15.4677057,8.8721161,15.2915239,8.8649998,15.1153402,8.8578854z"
		/>
	<path style="fill:#67ABEC;" d="M40.7854805,8.3577166c0.176342-0.0043659,0.3526802-0.0087299,0.5290413-0.0131512
		c0.0747643,0.0003347,0.1490746,0.0062151,0.2230186,0.0175581c0.0047684,0.3895473,0.2490883,0.4895716,0.5824814,0.4819679
		c0.1565056,0.1589832,0.3130112,0.3179655,0.4694557,0.4770355c0.0021172,0.1789207,0.0042915,0.3577566,0.00634,0.5366917
		c-0.3433266,0.0124226-0.4632683-0.5129032-0.8981133-0.3616247c0.1207161,0.2275858,0.2332497,0.4397535,0.3457909,0.6519222
		c-1.0390091,0.2315693-0.6923981-0.9480801-1.2397423-1.2172565C40.7976608,8.7398129,40.7915688,8.5487633,40.7854805,8.3577166z"
		/>
	<path style="fill:#4191DD;" d="M43.5892906,10.6339445c0.1131783,0.0250835,0.2263641,0.0501671,0.33918,0.075408
		c0.0483322,0.1483822,0.0970192,0.2966051,0.1457481,0.4448166c-0.2203522-0.0147228-0.398304,0.0541296-0.5077286,0.2578926
		c-0.0711937-0.0016499-0.1423988-0.0023108-0.2138786-0.0020342c-0.1189346-0.1987858-0.3064728-0.2610435-0.5237999-0.2642908
		c-0.004837-0.165638-0.0096741-0.331274-0.0144424-0.496912C43.0707855,10.542799,43.3374443,10.9738989,43.5892906,10.6339445z"/>
	<path style="fill:#DDF2FA;" d="M48.6846771,15.4350395c-0.4435539-0.2217197-0.7699013-0.5635767-1.014164-0.9895258
		C48.3639717,14.4111557,48.7061272,14.7367849,48.6846771,15.4350395z"/>
	<path style="fill:#DDF2FA;" d="M50.364151,17.0553265c-0.4172783-0.1534462-0.71381-0.4352798-0.8939095-0.8408566
		C49.9940834,16.2547245,50.4956512,16.3185825,50.364151,17.0553265z"/>
	<path style="fill:#DDF2FA;" d="M12.1070757,10.417779c-0.0278835,0.1448021-0.0557671,0.2896032-0.0834141,0.4346962
		c-0.2033968,0.1324291-0.407032,0.2645683-0.6106682,0.3967075c-0.0350018-0.0352812-0.0699854-0.0705853-0.1050272-0.1059875
		C11.3588257,10.6639366,11.5914307,10.3849277,12.1070757,10.417779z"/>
	<path style="fill:#67ABEC;" d="M44.7658195,11.4745951c0.1288643,0.2215548,0.2577286,0.4431076,0.3864021,0.6648426
		c-0.515419,0.0525141-0.7475624-0.2375641-0.8412323-0.6951351l0.0462646-0.049962
		C44.4934425,11.4210911,44.629631,11.4478426,44.7658195,11.4745951z"/>
	<path style="fill:#DDF2FA;" d="M42.1200218,8.8440914c-0.3333931,0.0076036-0.577713-0.0924206-0.5824814-0.4819679
		C41.6553802,8.6149979,42.3658371,8.1516047,42.1200218,8.8440914z"/>
	<path style="fill:#DDF2FA;" d="M12.6361675,9.9112911c-0.1770744,0.1666336-0.3541508,0.3332701-0.5310488,0.5000553
		C12.082159,10.0324011,12.2695875,9.8767796,12.6361675,9.9112911z"/>
	<path style="fill:#67ABEC;" d="M43.5664902,11.4120617c0.1094246-0.203763,0.2873764-0.2726154,0.5077286-0.2578926
		c0.0943184,0.08008,0.1886711,0.1601458,0.2830276,0.2401953l-0.0459976,0.0496321
		C44.0631714,11.4331474,43.8148308,11.4226055,43.5664902,11.4120617z"/>
	<path style="fill:#67ABEC;" d="M48.9875336,15.9095039c0.0881844,0.0839005,0.1763611,0.167799,0.2648315,0.2514439
		c-0.0346413,0.0319252-0.0700874,0.0635319-0.1057396,0.094368c-0.0816841-0.0831585-0.1636696-0.1661263-0.2456627-0.2490902
		C48.9293098,15.9735298,48.9581642,15.9412889,48.9875336,15.9095039z"/>
	<path style="fill:#67ABEC;" d="M4.9792843,18.7759819c-0.1386952-0.6089401,0.4142933-0.9799194,0.5180335-1.5054169
		c0.7471204-0.7717724,1.4941463-1.5436134,2.2410827-2.3154783c0.2910185-0.1409388,0.4840803-0.3696585,0.5990362-0.6682568
		c1.101326-0.9355097,2.1300888-1.9444523,3.0751028-3.0381126c0.2040901-0.1316738,0.4077253-0.263813,0.6111231-0.3962421
		c0.0996094,0.0117655,0.1994572,0.0238209,0.2994175,0.0359764c0.0347071,0.213624,0.0747871,0.4205379,0.3762932,0.3098946
		c0.3977289-0.1459532,0.4141769-0.4725685,0.388092-0.8193045l-0.0009356,0.0032568
		c0.3805046,0.0177946,0.7497959,0.0188456,0.7638044-0.5110531l-0.0028887,0.0023241
		c0.7809439,0.1072454,0.9395771-0.5657063,1.2750578-1.0169411l-0.0070601,0.0012779
		c0.1760807,0.0070934,0.3522625,0.0142097,0.5283747,0.0211678c-0.323802,1.1297922,0.1480436,1.5676327,1.2686577,1.5238571
		c0.9276829-0.0362387,1.8580914-0.0025568,2.7873058-0.0000229c0.0034389,0.1481256,0.0068684,0.296423,0.0102959,0.4447184
		c-2.1826172-0.0110111-4.4353161-0.2157135-5.7793436,2.0910311c-0.1131382,0.1684275-0.2262754,0.3368549-0.3393087,0.5052052
		c-0.644907,0.6216002-1.6073494,0.9635401-1.7708902,2.0095253c-0.1480169,0.012042-0.2960348,0.024087-0.4440517,0.036129
		c-0.1312761-0.5925503-0.0020142-1.0775938,0.5461721-1.4150629c0.5707054-0.3513384,0.4194527-0.6419477-0.0976257-0.8828325
		c-0.0023966-0.1758718-0.0047932-0.3517427-0.0071907-0.5276146c0.2153358-0.3041525,0.4306726-0.6083059,0.6460094-0.9124584
		c-0.0958805-0.0862303-0.1917591-0.1724634-0.2876396-0.2586966c-1.1898708,1.184516-2.4126987,2.3389864-3.5424433,3.57831
		C8.4014511,15.3260107,8.4648218,15.923275,9.08463,16.0230427c0.2241268,0.1474648,0.4485855,0.2952423,0.6730442,0.4430199
		c0.171031,0.2531776,0.342063,0.5063591,0.5130949,0.7595387c-0.9362907-0.1662884-1.1646986,1.01754-1.9980421,1.0475979
		c0.0590172-0.4694786,0.2377129-0.9555283-0.1813431-1.3704376c-0.8594165,0.419426-0.9173312,1.071352-0.57234,1.8474865
		c-0.7530661,0.161705-1.2819548-0.6017742-2.0228848-0.49016c-0.2343316,0.0924797-0.2834401,0.2863693-0.2789979,0.5095806
		l-0.0044312,0.0034103C5.1348166,18.7661915,5.0570021,18.7671604,4.9792843,18.7759819z"/>
	<path style="fill:#86B4DC;" d="M12.0688686,20.7991962c-0.0047312,5.4820995-0.0024147,10.9642296-0.0257435,16.446249
		c-0.0021896,0.5145111,0.2433586,1.1080894-0.2876377,1.5361214c-0.292531-0.0915833-0.5850677-0.1831779-0.8776045-0.2747726
		c0.4284897-1.3297234-0.200161-2.6382751-0.0793619-3.9618378c0.0010586-0.092289,0.0021162-0.1845741,0.0031738-0.2768631
		c0.1585054-0.0803604,0.3170109-0.1607208,0.4755163-0.2410812c0.2629967-0.1405258,0.2910452-0.3873177,0.298502-0.6474876
		c0.1263924-4.4097977-0.158288-8.8132725-0.2023773-13.2204285c0.0837507-0.1553841,0.1675034-0.31077,0.2512541-0.4661541
		l0.0032387-0.0213184c0.4911242-0.2366447,0.6295252-0.7689495,0.9575291-1.1423264
		c-0.0086365,0.379961-0.0148659,0.7582684,0.5234861,0.7624359c0.0852461,0.2000217,0.1706276,0.4001217,0.2560091,0.6002235
		c-0.012763,0.0838757-0.0594711,0.1375313-0.1401253,0.160965c-0.2651663-0.050724-0.5079031-0.0430546-0.6422749,0.2467175
		l0.004838-0.0042648C12.3203201,20.3664227,12.1480598,20.5349255,12.0688686,20.7991962z"/>
	<path style="fill:#86B4DC;" d="M44.1208687,38.8473053c-0.3895683-0.4323006-0.2444878-0.9632721-0.2453423-1.4552574
		c-0.0089722-5.1500969-0.002018-10.3002281-0.0089607-15.4503345c-0.0007439-0.5496769,0.203373-1.2833443-0.8002167-1.1589909
		c-0.0746574-0.0714626-0.1494522-0.1430264-0.224247-0.2145882c-0.0922241-0.2589245-0.1844482-0.5178509-0.2766418-0.7767754
		c0.0878525-0.0068512,0.1756744-0.0137024,0.2634964-0.0205536l0.0129662,0.0179958
		c0.0789795,0.078907,0.157959,0.157814,0.2369385,0.236721l0.0160332,0.0077858
		c0.0746498,0.0944023,0.1493034,0.1888027,0.2239609,0.2831345c0.0418358,0.0315533,0.0836678,0.063179,0.1254997,0.0948029
		c-0.0306664-0.0426521-0.0613327-0.0853062-0.0919914-0.1279602c-0.0180473-0.1114769-0.0360985-0.2229538-0.054142-0.3344307
		c0.0546341-0.2638397,0.2278633-0.3729954,0.4854164-0.3721657c0.3653603-0.0098763,0.6130676,0.1805458,0.8021278,0.4710636
		c0.0067787,0.5927792,0.013382,1.1855774,0.0199852,1.7783775c-0.3360748,0.2356491-0.2633438,0.5931854-0.2637672,0.921196
		c-0.0046654,3.6201916-0.0060539,7.2403812-0.0039978,10.8605766c0.0001869,0.3283615-0.0699005,0.6849098,0.2581978,0.9255409
		c-0.4534187,1.3981171,0.1514969,2.864975-0.2765579,4.2648277C44.2532845,38.8142395,44.1870308,38.8305855,44.1208687,38.8473053
		z"/>
	<path style="fill:#1663AC;" d="M44.1208687,38.8473053c0.0661621-0.0167198,0.1324158-0.0330658,0.1989326-0.0487213
		c0.6081161-0.09515,0.8194962-0.4650192,0.7880669-1.0570221c-0.0308418-0.5810738,0.0273056-1.1675835-0.0154648-1.7471428
		c-0.057415-0.7779999,0.2620659-1.0836296,1.0222282-0.9458313c0.3800888,0.7990265,0.6664505,1.5543823,0.2681236,2.4957542
		c-0.4493828,1.0620193-0.0631905,1.5108147,1.1417923,1.5555038c0.9250755,0.0343056,1.8514481,0.0337563,2.7772408,0.0487099
		c-0.039135,0.0700455-0.0593796,0.1451759-0.0607224,0.225399l-0.0359306,0.0177994
		c-0.3943558,0.0979576-0.7887459,0.1959076-1.183094,0.2935486c-0.7939796,0.018055-1.5880013,0.0364304-2.3820076,0.0547714
		c-0.8957596-0.0215988-1.7384682-0.2571526-2.54673-0.6314774C44.1025047,39.0215569,44.1116867,38.934433,44.1208687,38.8473053z"
		/>
	<path style="fill:#4191DD;" d="M42.5654259,19.7913589c0.0922279,0.2589245,0.1844521,0.5178509,0.2765388,0.7766056
		c-0.1818733,0.0590019-0.3636093,0.1181736-0.5453453,0.1773453c-1.681118-0.0102673-3.362236-0.0205345-5.0433769-0.0305195
		c-0.3519516-0.2384357-0.7043724-0.2381325-1.0572701-0.0018806c-0.155735,0.0001774-0.3114662,0.0003586-0.4672279,0.0008278
		c-0.3518944-0.238266-0.7042427-0.2360325-1.0570526-0.0018139c-0.749855-0.0017262-1.4997139-0.0034561-2.2495575-0.0048656
		c-0.4582748-0.2896996-0.9708023-0.1007099-1.4539433-0.1664371c-0.7969513-0.1084156-1.6466351,0.2664127-2.3970642-0.2609901
		c0.1452179-0.307869,0.3978081-0.4750938,0.7206402-0.5503483c0.0834293,0.2938881,0.1769676,0.4341545,0.5815258,0.4644184
		c2.8786793,0.2153454,5.7587757,0.0517235,8.637064,0.1015205c0.2506866-0.0005074,0.5013657-0.0010147,0.7520485-0.0015221
		c0.0867271-0.0006981,0.1734543-0.0013962,0.2601814-0.0020943c0.4994583,0.0026951,1.0013924,0.0373917,1.4976768-0.0009747
		c0.4901848-0.0378971,1.1391945,0.258955,1.3402901-0.530365C42.4307442,19.7581253,42.4990349,19.7684917,42.5654259,19.7913589z"
		/>
	<path style="fill:#4191DD;" d="M24.5109806,20.703619c-0.8353443,0.0022888-1.6706905,0.0045795-2.5060329,0.0071735
		c-0.6899776-0.2617264-1.3796864-0.2633476-2.0691204,0.0024395c-0.5806255,0.001442-1.1612511,0.002882-1.7418842,0.0046024
		c-0.6911602-0.2630692-1.380928-0.268774-2.0691662,0.011364c-0.6629095,0.0047226-1.3258219,0.0094471-1.9888077,0.0143204
		c-0.0929089-0.0649815-0.1857424-0.1301117-0.278594-0.1952133c0.7152557-0.5082779,1.5286226-0.1306305,2.2866011-0.2531071
		c2.4977913,0.0008831,4.9956074,0.0072193,7.4933796-0.0008945c0.7169743-0.0023327,1.5164413,0.1432037,2.1280746-0.1233158
		c0.644598-0.2808762,0.0768108-1.1868877,0.3952732-1.7441521c0.0398769-0.0697765,0.1175156-0.1179771,0.1776543-0.1761761
		c0.035223,0.0744267,0.0478725,0.1525059,0.0379543,0.2342434c0.0027771,0.1938858,0.005558,0.3877716,0.0083351,0.5816555
		c-0.0066433,0.2305775-0.0132885,0.4611549-0.0199318,0.6917305c-0.0212688,0.5104885-0.1952171,0.8382263-0.7988014,0.7935982
		C25.2138996,20.5258598,24.8346653,20.4653969,24.5109806,20.703619z"/>
	<path style="fill:#1663AC;" d="M10.877883,38.506794c0.2925367,0.0915947,0.5850735,0.1831894,0.8776045,0.2747726
		c-0.0483427,0.1033707-0.0966816,0.206749-0.1453114,0.310276c-0.3346853,0.4211502-0.8375511,0.4834213-1.3079901,0.6143532
		c-1.3027401,0.0162926-2.6173568,0.2485237-3.8942122-0.211235c0.0272093-0.1462555,0.0541458-0.2923393,0.0811119-0.4380455
		c0.1692734,0.0055161,0.3385181,0.0106583,0.5077639,0.0158005C8.3974657,39.6174507,9.6930895,39.4421501,10.877883,38.506794z"/>
	<path style="fill:#84BFF8;" d="M24.5109806,20.703619c0.3236847-0.2382221,0.702919-0.1777592,1.0549335-0.1517315
		c0.6035843,0.0446281,0.7775326-0.2831097,0.7985706-0.7935162c0.6435318,0.562706,1.4085503,0.6118774,2.2065849,0.521244
		c0.7504864,0.5274181,1.6001701,0.1525898,2.3971214,0.2610054c0.4831409,0.0657272,0.9956684-0.1232624,1.4539433,0.1664371
		C29.7850132,20.8687057,27.1479607,20.8757362,24.5109806,20.703619z"/>
	<path style="fill:#84BFF8;" d="M13.8573904,20.548275c0.0928364,0.0651321,0.1856699,0.1302624,0.2785788,0.1952438
		c-0.5130787,0.0146122-1.0262346,0.0293732-1.5394878,0.044363c-0.0031281-0.1640148-0.0061588-0.3282623-0.0091906-0.4925079
		l-0.0048275,0.0042648c0.1777792-0.002943,0.3555479-0.0058861,0.5333157-0.0088291
		C13.3629827,20.3766327,13.6101866,20.4624538,13.8573904,20.548275z"/>
	<path style="fill:#84BFF8;" d="M16.1247768,20.7291985c0.6882381-0.280138,1.378006-0.2744331,2.0691662-0.011364
		C17.5050755,20.8719559,16.8152733,20.8623142,16.1247768,20.7291985z"/>
	<path style="fill:#84BFF8;" d="M19.9358273,20.713232c0.6894341-0.2657871,1.3791428-0.2641659,2.0691204-0.0024395
		C21.3154469,20.8675041,20.6257381,20.8659706,19.9358273,20.713232z"/>
	<path style="fill:#84BFF8;" d="M34.6716919,20.7119236c0.3528099-0.2342186,0.7051582-0.2364521,1.0570526,0.0018139
		C35.3762207,20.8449173,35.0238609,20.8450642,34.6716919,20.7119236z"/>
	<path style="fill:#84BFF8;" d="M36.1959724,20.7129097c0.3528976-0.2362518,0.7053185-0.2365551,1.0572701,0.0018806
		C36.9006386,20.8441029,36.5482063,20.8444862,36.1959724,20.7129097z"/>
	<path style="fill:#84BFF8;" d="M42.2966194,20.7453098c0.181736-0.0591717,0.363472-0.1183434,0.5453453-0.1773453
		c0.0749321,0.0717316,0.1497269,0.1432953,0.2243843,0.2147579C42.8096886,20.7701855,42.553154,20.7577496,42.2966194,20.7453098z
		"/>
	<path style="fill:#B0E4F9;" d="M12.5872908,20.2953739c0.0030317,0.1642456,0.0060625,0.3284931,0.0091906,0.4925079
		c-0.175724,0.0036716-0.3515463,0.007576-0.5274906,0.0113983C12.1480598,20.5349255,12.3203201,20.3664227,12.5872908,20.2953739z
		"/>
	<path style="fill:#5B94C9;" d="M20.205162,8.610774c-0.0021553-0.0845852-0.0016575-0.1691551,0.0014668-0.2536936
		c5.0289745,0.0017252,10.0579815,0.0014353,15.0869541,0.0157919c0.1370583,0.000392,0.2736702,0.1586905,0.4105568,0.2432709
		l-0.0056992,0.0076599C30.5340137,8.6194582,25.3695869,8.6151161,20.205162,8.610774z"/>
	<path style="fill:#4191DD;" d="M40.7854805,8.3577166c0.0060883,0.1910467,0.0121803,0.3820963,0.0180092,0.5724506
		c-1.5320969-0.0190468-3.0639305-0.037405-4.5957603-0.0557613c-0.0024223-0.0920935-0.0048523-0.184185-0.0072746-0.2762775
		C37.699913,7.9670734,39.2698784,8.68085,40.7854805,8.3577166z"/>
	<path style="fill:#5B94C9;" d="M36.2004547,8.5981283C36.202877,8.6902208,36.205307,8.7823124,36.20784,8.8742895
		c-0.0919991,0.0106583-0.1841087,0.021431-0.2762184,0.0322037c-0.0777245-0.0942316-0.1554527-0.1884604-0.233181-0.28269
		l0.0056992-0.0076618C35.8695335,8.6101923,36.034996,8.6041594,36.2004547,8.5981283z"/>
	<path style="fill:#4191DD;" d="M50.4799118,17.9282932c0.5942078,0.3473854,0.4893799,0.9407043,0.4902687,1.4745941
		c0.0102234,6.1367149,0.0106392,12.2734489,0.0092049,18.4101734c-0.0000877,0.3705826,0.0884018,0.773468-0.2678032,1.0581818
		c-0.0211372-0.216301-0.0498199-0.4287758-0.2732201-0.5431023c0.1514473-0.8510666,0.3129005-1.6957703,0.2655449-2.573967
		c-0.0291367-0.5403709-0.2443314-0.753067-0.7604485-0.7070999c-0.010376-0.0914726-0.020752-0.1829453-0.0308342-0.2743492
		c0.0151787-0.0734024,0.0318184-0.1464806,0.050209-0.2191544c0.0757065-0.1872749,0.2165718-0.3742638,0.2173958-0.5618706
		c0.013752-3.1193008,0.0101357-6.2386742,0.0097084-9.3580303c-0.0000305-0.2190075-0.0580444-0.4141369-0.248333-0.5481129
		c-0.0057068-0.0761585-0.0074921-0.1524067-0.005352-0.2287502c0.4802551,0.0062008,0.6887589-0.0873718,0.7061424-0.7086906
		C50.6912766,21.4012337,50.7540894,19.6621876,50.4799118,17.9282932z"/>
	<path style="fill:#1F7EDC;" d="M50.4382706,38.3280067c0.2234917,0.11446,0.2521744,0.3269348,0.2733116,0.5432358
		c-0.0865822,0.1118507-0.1731682,0.223671-0.2597656,0.3353615c-0.0481148-0.0243607-0.0981216-0.043663-0.1500282-0.0580482
		c-0.9257927-0.0149536-1.8521652-0.0144043-2.7772408-0.0487099c-1.2049828-0.0446892-1.5911751-0.4934845-1.1417923-1.5555038
		c0.3983269-0.9413719,0.1119652-1.6967278-0.2679977-2.4958649c0.1861534-0.0206718,0.3721771-0.0412331,0.5579834-0.0614357
		c0.5057106-0.0857811,1.0116425-0.1719017,1.5175743-0.2580261l-0.0210915,0.0451088
		c-0.0067787,0.8874588-0.0243454,1.7749977-0.0178299,2.6623611c0.010067,1.372921,0.5480919,1.6434708,1.7976341,0.9172974
		C50.1121063,38.345192,50.2751923,38.3366013,50.4382706,38.3280067z"/>
	<path style="fill:#389BFB;" d="M50.4799118,17.9282932c0.2741776,1.7338943,0.2113647,3.4729404,0.1624832,5.2198219
		c-0.0173836,0.6213188-0.2258873,0.7148914-0.7061157,0.7086792c-0.0038643-1.7831097-0.0077515-3.5662022-0.0116386-5.3492966
		c0.0010796-0.3737373,0.0227089-0.7330513,0.5282135-0.7529926C50.4778214,17.8099461,50.4868317,17.8678799,50.4799118,17.9282932
		z"/>
	<path style="fill:#B0E4F9;" d="M50.3017883,39.1485558c0.0519066,0.0143852,0.1019135,0.0336876,0.1500282,0.0580482
		c-0.0703049,0.0558586-0.140625,0.1115913-0.2108498,0.1673355C50.2424088,39.2937317,50.2626534,39.2186012,50.3017883,39.1485558
		z"/>
	<path style="fill:#1F7EDC;" d="M46.2254715,16.9952641c0.6032104,0.6315861,1.1406364,1.3327618,1.9017868,1.7974567
		c0.0035133,1.7542019,0.0067139,3.5085678,0.0099487,5.2630367c-0.1185837,0.0939426-0.5634537-0.0501137-0.257515,0.3533039
		c0.0834045,0.0742493,0.1668129,0.1484966,0.2504883,0.2226563c-0.0013885,0.832962-0.0030479,1.6660099-0.0047035,2.4990597
		c-0.4153862,0.0027542-0.8307762,0.0055065-1.2461662,0.0082588c-0.0029259-0.2019005-0.0451202-0.3838615-0.2463493-0.4850483
		c-0.3375664-0.7380867,0.888176-1.0434551,0.4972153-1.7963219c-0.0093918-0.3431015-0.2031136-0.4919319-0.5287704-0.5017147
		c-0.0678482-0.2731323-0.2650642-0.4216003-0.5074272-0.5265636c0.1682129-0.3272648-0.2436333-0.6713448,0.028862-0.9955864
		c0.1293259,0.095335,0.3324203,0.2984543,0.3760605,0.268589c0.2926025-0.2002602,0.0792084-0.5168133,0.1249466-0.7822189
		c0.0006447-0.3319664,0.001297-0.6639309,0.0019455-0.9958954c0.0995255-0.5161819,0.4340363-1.0333977-0.0068245-1.5471954
		c-0.0008202-0.3227959-0.1700478-0.4859467-0.4846687-0.511261c0.0534096-0.5858593-0.2994423-1.0298843-0.5295486-1.5167599
		C45.811657,17.4977951,46.0185661,17.2465286,46.2254715,16.9952641z"/>
	<path style="fill:#4DA2F9;" d="M48.1371803,24.0556526c-0.0032082-1.754364-0.0064087-3.5087299-0.009922-5.2629318
		c0.5990257-0.0948696,1.1983643-0.1899014,1.7975464-0.285078c0.0037231,1.7829494,0.0076103,3.5660419,0.0114746,5.3491516
		c-0.0021667,0.076355-0.0003815,0.1526031,0.0053406,0.2288322C49.3401489,24.0756836,48.7386627,24.0656681,48.1371803,24.0556526
		z"/>
	<path style="fill:#1663AC;" d="M46.1228409,22.8338013c-0.2724953,0.3242416,0.1393509,0.6683216-0.0285301,0.9956264
		c-0.2462921,0.0196648-0.4929199,0.0392876-0.7395439,0.0589142c-0.4209099-0.4611454-0.5101204-0.9764957-0.2530365-1.5484352
		c0.3274994-0.8765316,0.7340584-1.7708626-0.5161362-2.2921333c-0.1888885-0.2905388-0.4365959-0.4809608-0.801342-0.4715614
		c-0.3123207-0.8076077-0.6927185-1.5669041-1.4559021-2.0548115c0.4037209-0.0137749,0.8074417-0.0275517,1.2111626-0.0413265
		c0.5278702-0.0554581,1.1870956,0.8162823,1.5755692-0.2232037c0.3001823-0.0083237,0.5477409-0.1167355,0.7158012-0.3763561
		c0.1766129-0.0097408,0.3532219-0.0194817,0.5298386-0.0292244c-0.0530701,0.0393734-0.0971756,0.087038-0.1337852,0.143486
		c-0.2083702,0.2517529-0.4152794,0.5030193-0.622036,0.7543526c-0.7024307,0.8893127-0.5875816,1.2184181,0.5293999,1.5166912
		c0.314621,0.0253143,0.4838486,0.1884651,0.4848671,0.5114079c-0.6004524-0.032917-0.764061,0.2846432-0.7559929,0.8393993
		c0.0079803,0.5488491,0.2720566,0.7265949,0.762619,0.7076492c-0.0006485,0.3319645-0.0013008,0.663929-0.001812,0.9960175
		C46.2995186,22.3377571,46.1343994,22.5108109,46.1228409,22.8338013z"/>
	<path style="fill:#B0E4F9;" d="M45.6212654,13.4522667c0.161068,0.3305464,0.4132729,0.5718384,0.7324371,0.747735
		c0.2571335,0.2574577,0.5141068,0.5148802,0.7710762,0.7723055c0.3601456,0.5475397,0.3900757,0.9686251-0.4110489,1.0712337
		c-0.0480843-0.0384312-0.0952682-0.0767088-0.1416359-0.1148901c0.1587257-0.9627666-0.3630333-1.4534512-1.1990166-1.7257757
		c-0.1902695-0.2057123-0.3805351-0.4114237-0.5708046-0.6171379c0.1055069-0.1468334,0.2110176-0.2936687,0.3165283-0.4405041
		C45.2862854,13.2475796,45.4537773,13.3499222,45.6212654,13.4522667z"/>
	<path style="fill:#5B94C9;" d="M43.5664902,11.4120617c0.2483406,0.0105438,0.4966812,0.0210857,0.7447586,0.0319347
		c0.0934105,0.4578772,0.3255539,0.7479553,0.8409729,0.6954432c0.0800591,0.0890512,0.1599312,0.1782827,0.2398872,0.2673969
		c-0.0946007,0.0900164-0.1892929,0.1801519-0.2839699,0.2702808l0.0049934-0.0051451
		c-0.4109001,0.3569431-0.8203201,0.0462589-1.2303123-0.0026617c-0.1834641-0.3367424-0.3669243-0.6734848-0.5503845-1.0102291
		c0.003727-0.0832548,0.0105438-0.166256,0.0204468-0.2490034C43.4240913,11.4097509,43.4952965,11.4104118,43.5664902,11.4120617z"
		/>
	<path style="fill:#4DA2F9;" d="M48.9009628,16.0062256c0.0819931,0.0829639,0.1639786,0.1659317,0.2456627,0.2490902
		c0.0109978,0.2457314,0.0222969,0.4912682,0.0335541,0.7368279l-0.0073586,0.0074024
		c-0.4773216-0.0700722-0.9046211-0.2679806-0.8858032-0.8013611C48.297184,15.9101067,48.6692123,16.0065289,48.9009628,16.0062256
		z"/>
	<path style="fill:#5B94C9;" d="M47.1247787,14.9723072c-0.2569695-0.2574253-0.5139427-0.5148478-0.7710762-0.7723055
		C46.7855263,14.2827625,47.2495384,14.3335714,47.1247787,14.9723072z"/>
	<path style="fill:#B0E4F9;" d="M46.3607216,16.8512897c-0.1766167,0.0097427-0.3532257,0.0194836-0.5296516,0.0287933
		c-0.0022469-0.1282673-0.0046844-0.2561054-0.0069847-0.3839855c0.2492447-0.1893196,0.4983482-0.3785915,0.7474518-0.5678635
		c0.0469246,0.0385981,0.0941086,0.0768757,0.1421928,0.1153069C46.596489,16.3131046,46.4786034,16.5821972,46.3607216,16.8512897z
		"/>
	<path style="fill:#5B94C9;" d="M45.6212654,13.4522667c-0.1674881-0.1023445-0.33498-0.2046871-0.5024757-0.3068161
		c-0.0018845-0.1576939-0.0037613-0.3156023-0.0056381-0.4735107l-0.0050125,0.0051794
		C45.4458504,12.8251648,45.6302071,13.0747337,45.6212654,13.4522667z"/>
	<path style="fill:#4DA2F9;" d="M49.4309921,17.2482224c0.0634766,0.090023,0.1269531,0.1800442,0.1904297,0.2700653
		c-0.0321846,0.0208397-0.064373,0.0416794-0.0965576,0.0625172c-0.0319824-0.1101665-0.0639648-0.2203331-0.0959473-0.3304996
		L49.4309921,17.2482224z"/>
	<path style="fill:#4DA2F9;" d="M49.4289169,17.2503052c-0.0853462-0.0836143-0.1706963-0.1672306-0.256073-0.2508011
		l0.0073357-0.0073605c0.0836334,0.0853481,0.1672173,0.1707249,0.2508087,0.2560883L49.4289169,17.2503052z"/>
	<path style="fill:#4DA2F9;" d="M15.1225033,8.8566284c-0.3354807,0.4512348-0.4941139,1.1241865-1.2750578,1.0169411
		C13.9501219,9.1304131,14.4091139,8.8340282,15.1225033,8.8566284z"/>
	<path style="fill:#4DA2F9;" d="M13.0874653,10.3790417c0.0260849,0.346736,0.0096369,0.6733513-0.388092,0.8193045
		c-0.301506,0.1106434-0.3415861-0.0962706-0.3762932-0.3098946C12.5921335,10.7400999,12.6912403,10.3365765,13.0874653,10.3790417
		z"/>
	<path style="fill:#4DA2F9;" d="M13.8503342,9.8712454c-0.0140085,0.5298986-0.3832998,0.5288477-0.7638044,0.5110531
		C13.2266741,10.0408802,13.4760656,9.8627348,13.8503342,9.8712454z"/>
	<path style="fill:#B0E4F9;" d="M35.6984406,8.6238031c0.0777283,0.0942297,0.1554565,0.1884584,0.2333832,0.282465
		c-0.0445442,0.2984695,0.2243958,0.6961823-0.2551613,0.843524c-0.0346451,0.0106392-0.1525002-0.2495584-0.2315674-0.3837576
		c-0.8075905-0.5095997-1.7046509-0.2487164-2.5465088-0.2220993c-1.5202465,0.0480614-3.0662422-0.3230562-4.5619469,0.2193365
		c-0.3393154,0.0013046-0.6786308,0.0026093-1.0179462,0.003912c-0.1257935-0.1802683-0.302536-0.2490168-0.5166225-0.2360182
		c-1.6256351-0.004796-3.254591,0.0508146-4.8755932-0.03827c-0.8951283-0.0491962-1.497015,0.1320982-1.7344017,1.0491161
		c-0.0845661-0.2611895-0.1691341-0.5223808-0.2537041-0.7835703c0.0103416-0.1595745,0.0206814-0.31915,0.0310211-0.4787235
		c0.0786247-0.0896587,0.1572475-0.1793146,0.2358208-0.2689581C25.3695869,8.6151161,30.5340137,8.6194582,35.6984406,8.6238031z"
		/>
	<path style="fill:#84BFF8;" d="M19.9383717,9.3584414c0.0845699,0.2611895,0.169138,0.5223808,0.2538872,0.7834749
		c-0.2095699,0.0011301-0.3914871,0.0548506-0.4924889,0.2611599c-0.929203-0.0027018-1.8596115-0.0363836-2.7872944-0.000145
		c-1.1206141,0.0437756-1.5924597-0.3940649-1.2686577-1.5238571c1.0943279,0.0019617,2.1885815,0.0037661,3.2829418,0.0053635
		c0.045805,0.1034651,0.0915051,0.2071419,0.1372032,0.3108158c0.0472641-0.1026173,0.0945301-0.2052336,0.1417942-0.3078508
		c0.1586666,0.0022154,0.3173332,0.0044308,0.4761639,0.006362C19.7675133,9.0484648,19.8529415,9.203454,19.9383717,9.3584414z"/>
	<path style="fill:#67ABEC;" d="M19.9383717,9.3584414c-0.0854301-0.1549873-0.1708584-0.3099766-0.2564507-0.4646769
		c0.0956783-0.0045538,0.1915226-0.0093946,0.2874203-0.0141401C19.959053,9.0392914,19.9487133,9.1988668,19.9383717,9.3584414z"/>
	<path style="fill:#67ABEC;" d="M19.2057571,8.8874025c-0.0472641,0.1026173-0.0945301,0.2052336-0.1417942,0.3078508
		c-0.0456982-0.1036739-0.0913982-0.2073507-0.1372032-0.3108158C19.0196896,8.8855639,19.1127243,8.8864832,19.2057571,8.8874025z"
		/>
	<path style="fill:#84BFF8;" d="M35.4449997,9.365963c0.0791626,0.1342707,0.1970177,0.3944683,0.2316628,0.3838291
		c0.479557-0.1473417,0.2106171-0.5450544,0.2551613-0.843524c0.0919075-0.0105476,0.1840172-0.0213203,0.2760162-0.0319786
		c1.5317192,0.0184727,3.0635529,0.0368309,4.5956497,0.0558777c0.5476074,0.2698689,0.2009964,1.4495182,1.2401886,1.2178173
		c0.1229591,0.1880627,0.3016167,0.2604017,0.5199165,0.2505617l-0.0012932-0.0077353
		c0.0862846,0.086215,0.1725655,0.1724329,0.2588501,0.2586479l-0.006855-0.0006342
		c0.0048409,0.165638,0.0096779,0.331274,0.0144577,0.4969683c-0.016777,0.449214-0.0393181,0.9108782-0.6974487,0.665843
		c-0.388195-0.1445303-0.5519981-0.0139523-0.5788689,0.3693666c-0.9000626-0.8456345-1.8407516-1.5455637-3.2043457-1.3279963
		c-0.6114845,0.0975657-1.2491951,0.0307283-1.8750076,0.038497c-0.4097404-0.1091537-0.8347244,0.292922-1.2378883-0.0369015
		c-0.2366791-0.2332621-0.5103874-0.2294083-0.7998161-0.1249104c-0.9304276,0.0450859-1.8608513,0.0901747-2.7912769,0.1352644
		c-0.3405647-0.2924299-0.6799469-0.2907066-1.0181561,0.0040903c-0.5133781-0.0122032-1.0267544-0.0244036-1.5401325-0.0366049
		l-0.0049648-0.0771618c0.0144043-0.2409582,0.0168762-0.4775448-0.2283268-0.6234207
		c-0.0626812-0.0936089-0.1253624-0.1872168-0.1880436-0.2808237c0.3107262-0.5304956,0.820385-0.4879961,1.3331165-0.4854641
		C31.8133507,9.3745317,33.6291885,9.3671513,35.4449997,9.365963z"/>
	<path style="fill:#4191DD;" d="M42.5635948,10.3985462c-0.2182999,0.00984-0.3969574-0.062499-0.5199165-0.2505617
		c-0.1127243-0.2120371-0.2252579-0.4242048-0.345974-0.6517906c0.434845-0.1512785,0.5547867,0.3740473,0.8981133,0.3616247
		l-0.0036621-0.0034103C42.58255,10.0358906,42.5730743,10.2172194,42.5635948,10.3985462z"/>
	<path style="fill:#67ABEC;" d="M42.5635948,10.3985462c0.0094795-0.1813269,0.0189552-0.3626556,0.0285606-0.544138
		c0.5840492-0.0618973,0.8011208,0.3453674,0.9971046,0.779583c-0.2518158,0.3399076-0.5184746-0.0911922-0.7748909,0.0148335
		l0.0067596,0.0006361c-0.0862923-0.0862169-0.1725578-0.1724319-0.2588272-0.2586498L42.5635948,10.3985462z"/>
	<path style="fill:#67ABEC;" d="M41.5524445,12.1811209c0.0268631-0.3834372,0.1906662-0.5140152,0.5788612-0.3694849
		c0.6581306,0.2450352,0.6806717-0.216629,0.6974487-0.665843c0.2173843,0.003191,0.4049225,0.0654488,0.5238571,0.2642345
		c-0.0096321,0.082798-0.016449,0.1657991-0.0201836,0.2490559c-0.2036629,0.3821545-0.4073181,0.764307-0.6860962,1.2874279
		c0.525856-0.1178885,0.8811722-0.1975451,1.2364883-0.2772007c0.4099922,0.0489206,0.8194122,0.3596048,1.2303123,0.0026617
		c0.0018959,0.157876,0.0037727,0.3157845,0.0056534,0.4734783c-0.1054955,0.1466179-0.2110062,0.2934532-0.3164825,0.4412174
		c-0.5774193,0.0437212-1.178009-0.2971058-1.7337418,0.1054754c-0.6860085,0.0225687-0.5928345-0.997714-1.2882385-0.962575
		C41.704361,12.5467529,41.6284027,12.3639374,41.5524445,12.1811209z"/>
	<path style="fill:#4191DD;" d="M4.9792843,18.7759819c0.0777178-0.0088215,0.1555324-0.0097904,0.233469-0.0028954
		c0.0045223,0.8335361,0.0106578,1.667057,0.0131998,2.5005932c0.0064793,2.1242428,0.4810829,2.6053486,2.5417638,2.5727615
		c0.0841246,0.0799885,0.1682501,0.159977,0.2523551,0.2400131c-0.2518373-0.0013943-0.5087919,0.0294018-0.7545967-0.0097656
		c-1.1756392-0.1873207-1.6140747,0.2103157-1.5700865,1.4792099c0.103251,2.9784565,0.0473213,5.9624252,0.0558205,8.9441662
		c-0.2390795,1.3403931-0.3563223,2.6884918-0.2562423,4.0503426c-0.0983663,0.1003838-0.1967325,0.2007675-0.2950983,0.3011513
		c-0.295825-0.2005501-0.2529302-0.512867-0.2525382-0.8024139C4.956039,31.624754,4.967968,25.200367,4.9792843,18.7759819z"/>
	<path style="fill:#1E75CA;" d="M6.4890575,39.0565376c-0.026938,0.1460838-0.0538745,0.2921677-0.0810838,0.4384232
		c-0.4317284-0.026619-0.8159313-0.1532555-1.0883589-0.5150452c0.0687957-0.0508499,0.1299582-0.1091499,0.1836882-0.174469
		c0.0689149-0.0734367,0.1381307-0.1473351,0.2073464-0.2212334C5.9701185,38.7416534,6.2295885,38.8990974,6.4890575,39.0565376z"
		/>
	<path style="fill:#1E75CA;" d="M5.1998687,38.8515587c0.0983658-0.1003838,0.196732-0.2007675,0.2948847-0.3007431
		l0.0146503,0.025013c-0.015954,0.0760307-0.0178876,0.1524162-0.0058002,0.2291527
		c-0.0540304,0.0657845-0.1151929,0.1240845-0.1839886,0.1749344C5.2586608,38.9563828,5.2189126,38.9135857,5.1998687,38.8515587z"
		/>
	<path style="fill:#1663AC;" d="M12.5853577,18.5292969c-0.3280039,0.3733768-0.4664049,0.9056816-0.9579134,1.1414642
		c-0.0381088,0.0106163-0.0758324,0.0220947-0.1135559,0.0335732c0.0369005-0.0037956,0.073801-0.0075932,0.1107016-0.0113926
		c-0.0837507,0.1553841-0.1675034,0.31077-0.2517557,0.4650669c-0.6407242-0.1795807-0.5258837,0.3003998-0.5649529,0.6461926
		c-0.4652472-0.5364113-1.1276913-1.0443821-0.2561607-1.7738914c0.0365524,0.0183697,0.0730925,0.0367622,0.1096334,0.0551529
		c-0.0352116-0.0197296-0.0704241-0.0394592-0.1056347-0.0591888c-0.0085707-0.3396454-0.0171423-0.6792889-0.025713-1.0189342
		c0.0027838-0.1678219,0.0055676-0.3356457,0.0085239-0.5034485c1.3029518-0.1355305,0.7517214-1.0748634,0.7669382-1.7686214
		c0.0236721-0.0819168,0.0473433-0.1638346,0.0710144-0.2457523c0.1480169-0.012042,0.2960348-0.024087,0.4440489-0.035965
		c0.5493031,0.065527,0.9219503,0.6443043,1.5337849,0.5279255c-0.0561762,0.3405018-0.7180557,0.4249744-0.4078531,0.8984337
		c0.117548,0.1794147,0.3733892,0.1573772,0.5596609,0.0282421c0.4135847-0.2867146,0.8293543-0.6270523,0.80301-1.163229
		c-0.0203447-0.4140596-0.4337711-0.2382231-0.6972179-0.2544165c0.1840639-0.6841106,1.0668392-1.3752499-0.0205946-2.046566
		c0.1131363-0.1684294,0.2262735-0.3368568,0.3387432-0.5053749c1.1480637,0.8595829,2.0732193,0.8969488,2.593708-0.6799603
		c0.0362568-0.1098452,0.2735882-0.2394285,0.3973255-0.2214632c2.075964,0.3013897,4.1609516,0.1414957,6.2408791,0.119916
		c1.0593491-0.0109901,2.120821,0.4268484,3.177103-0.0063391c0.134861,0.4262552-0.5312939,0.9203281-0.0120068,1.245718
		c0.51227,0.3209934,0.6080952-0.416048,0.9250431-0.5546503c0.5657692-0.2474174,1.2166996-0.3818541,1.6301098,0.3471003
		c0.1422844,0.250886,0.3764114,0.3114862,0.6461926,0.2425556c0.204546-0.0522623,0.235445-0.1962929,0.1995983-0.3826523
		c-0.0550632-0.2862616-0.0993977-0.574585-0.148283-0.8620348c0.4700928,0.2190981,0.9734402,0.1982155,1.4760952,0.2430124
		c2.5010319,0.2228889,4.9837399-0.5875092,7.4833355-0.1178875c0.3693161,0.0693884,0.4342232-0.1225815,0.4770203-0.3939066
		c0.2073669,0.004446,0.3932533,0.0523911,0.5054283,0.2495985c-0.0966606,0.6320305,0.1202927,1.0754271,0.7604408,1.2642775
		c0.0885773,0.0843019,0.1771545,0.1686058,0.265728,0.2529078c-0.0706558,0.9527016,1.0936394,0.7091398,1.3257141,1.3685932
		c-0.0899887,0.131834-0.1799774,0.2636671-0.2699661,0.3954992c-0.0434113,0.3575878-0.2191391,0.6363363-0.5058517,0.8489523
		c-0.2487144-0.2179127-0.4974289-0.4358253-0.7461433-0.6537371c-0.0250587-0.0705748-0.0613251-0.1348238-0.1088028-0.1927471
		c0.1019211-0.5178099-0.2251053-0.3280058-0.4650269-0.2818937c-0.4656334-0.369976-0.5580177-1.3690662-1.3167572-1.1467009
		c-0.970253,0.2843533-1.8439827,0.0940275-2.756321-0.0827513c-5.0689659-0.0173216-10.137928-0.0346432-15.206892-0.0519657
		c-0.1283455-0.1736212-0.2736282-0.7905188-0.3846436-0.4351788c-0.3358727,1.0750809-1.1238365,0.7923632-1.7362576,0.7239323
		c-0.998085-0.1115198-1.7233734,0.2949953-2.3698902,0.9212847C14.8469706,16.2217236,13.7238674,17.3834629,12.5853577,18.5292969
		z"/>
	<path style="fill:#1E75CA;" d="M26.3393002,12.1505709c-1.0565014,0.4333372-2.1179733-0.0045013-3.1773224,0.0064888
		c-2.0799274,0.0215797-4.1649151,0.1814737-6.2408791-0.119916c-0.1237373-0.0179653-0.3610687,0.111618-0.3973255,0.2214632
		c-0.5204887,1.5769091-1.4456444,1.5395432-2.593708,0.6799603c1.344696-2.306654,3.5973949-2.1019516,5.779953-2.0905237
		c0.3361607-0.0173912,0.6723824-0.0352011,1.008604-0.053009c2.0140266,0.0786991,4.029213,0.2163868,6.0351124-0.1185684
		c0.0517063,0.4223471,0.1168575,0.8466015-0.1730289,1.2206926C26.5002289,11.98174,26.4197636,12.0661545,26.3393002,12.1505709z"
		/>
	<path style="fill:#4DA2F9;" d="M7.7677169,23.8464413c-2.0606809,0.0325871-2.5352845-0.4485188-2.5417638-2.5727615
		c-0.002542-0.8335361-0.0086775-1.667057-0.0131998-2.5005932L5.2171588,18.76968
		c0.221035-0.0997562,0.2535949-0.3027153,0.2790003-0.5095921c0.7409301-0.1116142,1.2698188,0.651865,2.0227485,0.4904346
		c0.1478076-0.0051613,0.2957516-0.010601,0.443696-0.0160389C7.6769118,20.4300537,7.778132,22.1403751,7.7677169,23.8464413z"/>
	<path style="fill:#1F7EDC;" d="M7.7677169,23.8464413c0.0104151-1.7060661-0.0908051-3.4163876,0.1953411-5.1116219
		c0.1035247-0.1536484,0.2065978-0.3076363,0.309669-0.4616203c0.8333435-0.0300579,1.0617514-1.2138863,1.9982948-1.0474701
		c0.0892811,0.0928001,0.1783085,0.1854725,0.2673359,0.2781429c-0.0027838,0.1678219-0.0055676,0.3356457-0.0080929,0.5034771
		c-0.9459581,0.5811443-1.3646488,1.379406-1.2699347,2.5303669c0.096549,1.1732693,0.024066,2.3604488,0.0255899,3.5415363
		c-0.1769581,0.0274258-0.3539162,0.0548458-0.5308456,0.08218c-0.2449741-0.0250683-0.4899778-0.0500507-0.7349815-0.0750275
		C7.935967,24.0064182,7.8518414,23.9264297,7.7677169,23.8464413z"/>
	<path style="fill:#1F7EDC;" d="M13.3543234,15.981472c-0.6118412,0.1163845-0.9844885-0.4623928-1.5337915-0.5279198
		c0.1635437-1.0461493,1.1259861-1.3880892,1.7708941-2.0096893c1.0873299,0.6713953,0.2045546,1.3625345,0.0204906,2.0466452
		l0.007144-0.0203123c-0.2471189,0.0893812-0.279891,0.2906227-0.2686739,0.5148239L13.3543234,15.981472z"/>
	<path style="fill:#B0E4F9;" d="M9.08496,16.0233574c-0.6201382-0.1000824-0.6835089-0.6973467-0.4511948-0.9521952
		c1.1297445-1.2393236,2.3525724-2.3937941,3.5424433-3.57831c0.0958805,0.0862331,0.1917591,0.1724663,0.2876396,0.2586966
		c-0.2153368,0.3041525-0.4306736,0.6083059-0.6459551,0.9125671c-0.3389263,0.175313-0.6245375,0.4018555-0.7513094,0.7811928
		l0.0009575-0.0018063c-0.0849724,0.0848856-0.1699448,0.1697712-0.2549162,0.2546558l0.0011263-0.0009441
		c-0.0845995,0.0849323-0.169199,0.1698666-0.2537975,0.2547979l0.0009365-0.0001822
		c-0.3698616,0.1389227-0.6200218,0.3997526-0.7733574,0.7592125C9.5958147,15.1712189,8.9722986,15.4002237,9.08496,16.0233574z"/>
	<path style="fill:#86B4DC;" d="M20.7186222,10.7950344c-0.3362217,0.017808-0.6724434,0.0356178-1.008604,0.053009
		c-0.0033684-0.1487122-0.0067978-0.2970095-0.0102367-0.445137c0.1009903-0.2061396,0.2829075-0.25986,0.4924774-0.2609901
		c0.2372036-0.9169226,0.8390903-1.098217,1.7342186-1.0490208c1.6210022,0.0890846,3.249958,0.033474,4.8757629,0.0381651
		c-1.5143242,0.5405674-3.0795135,0.1995735-4.6149273,0.2036791C21.0673485,9.3377333,20.4915543,9.5814457,20.7186222,10.7950344z
		"/>
	<path style="fill:#DDF2FA;" d="M11.376483,15.4895172c-0.0236712,0.0819178-0.0473423,0.1638355-0.0708838,0.2456303
		c-0.2421913-0.019289-0.4845123-0.0384579-0.7268333-0.0576267c-0.0138187-0.4062452-0.0276375-0.8124924-0.0414572-1.2187366
		c0.007864-0.1689882,0.015728-0.3379774,0.0235929-0.5069656l-0.0009384,0.0001898
		c0.1778183,0.0079117,0.2573385-0.0820704,0.253788-0.2547941l-0.0011148,0.0009422
		c0.1698961,0.0001144,0.2548313-0.0847998,0.2549057-0.2546539l-0.000947,0.0017986
		c0.3041573,0.0689268,0.5637712,0.0047226,0.7584343-0.2536793c0.5170784,0.2408848,0.6683311,0.5314941,0.0976257,0.8828325
		C11.3744688,14.4119234,11.2452068,14.8969669,11.376483,15.4895172z"/>
	<path style="fill:#1E75CA;" d="M10.5787659,15.6775208c0.242321,0.0191689,0.484642,0.0383377,0.7268333,0.0576267
		c-0.0153475,0.6938801,0.5358829,1.633213-0.7670698,1.7687435c-0.0891991-0.0926895-0.1782265-0.1853619-0.2675076-0.278162
		c-0.1712847-0.2533073-0.3423166-0.5064888-0.5131836-0.7595425
		C10.0315914,16.2033825,10.3051786,15.9404516,10.5787659,15.6775208z"/>
	<path style="fill:#84BFF8;" d="M10.5787668,15.6775208c-0.2735882,0.2629309-0.5471754,0.5258617-0.8209286,0.7886658
		C9.5332155,16.318285,9.3087568,16.1705074,9.08463,16.0230427c-0.1123314-0.6228189,0.5111847-0.8518238,0.7029371-1.312026
		c0.3728495,0.2812757,0.5303249-0.0775404,0.7497416-0.2522326C10.5511284,14.8650284,10.5649471,15.2712755,10.5787668,15.6775208
		z"/>
	<path style="fill:#84BFF8;" d="M8.272727,18.2731991c-0.1030712,0.1539841-0.2061443,0.307972-0.309669,0.4616203
		c-0.1483989,0.0051022-0.2963428,0.0105419-0.4441504,0.0157032c-0.3448548-0.7764091-0.2869401-1.4283352,0.5724764-1.8477612
		C8.5104399,17.3176708,8.3317442,17.8037205,8.272727,18.2731991z"/>
	<path style="fill:#86B4DC;" d="M11.8250294,13.1916218c-0.194663,0.2584019-0.454277,0.3226061-0.7584343,0.2536793
		c0.1267605-0.3793297,0.4123716-0.6058722,0.7512989-0.7811852C11.8202362,12.839879,11.8226328,13.0157499,11.8250294,13.1916218z
		"/>
	<path style="fill:#4191DD;" d="M5.4961591,18.260088c-0.0254054,0.2068768-0.0579653,0.4098358-0.2790003,0.5095921
		C5.212719,18.5464573,5.2618275,18.3525677,5.4961591,18.260088z"/>
	<path style="fill:#5B94C9;" d="M12.5853577,18.5292969c1.1385098-1.145834,2.2616129-2.3075733,3.421587-3.4312506
		c0.6465168-0.6262894,1.3718052-1.0328045,2.3698902-0.9212847c0.612421,0.0684309,1.4003849,0.3511486,1.7362576-0.7239323
		c0.1110153-0.35534,0.2562981,0.2615576,0.3845882,0.4355154c-0.0101967,0.0731649-0.0441132,0.2022171-0.0265942,0.2096233
		c0.1072598,0.045351,0.2261562,0.0866375,0.3412075,0.0867205c4.7378311,0.0033836,9.4756622,0.0024643,14.2134933,0.0010643
		c0.2543526-0.0000753,0.5122833,0.0008965,0.6788406-0.245779c0.9123383,0.1767788,1.786068,0.3671045,2.756321,0.0827513
		c0.7587395-0.2223654,0.8511238,0.7767248,1.3167305,1.1468906c0.0630646,0.2459116,0.25214,0.2834969,0.4650536,0.2817039
		c0.0474777,0.0579233,0.083744,0.1221724,0.1088028,0.1927471c-0.0287895,0.0349627-0.0575562,0.0699387-0.0861397,0.1046629
		c-0.5067863,0.4118805-0.9537239-0.0838985-1.433197-0.0945711c-0.0652504-0.0730152-0.1300163-0.1464472-0.1947784-0.2198792
		c-0.1089821-0.2921839-0.2882767-0.505374-0.6177521-0.5498199c-0.1090126-0.0959568-0.2087326-0.0830965-0.3002777,0.0256243
		c-0.1537971-0.0069981-0.3075943-0.0139971-0.4613914-0.0209951c-0.1059875-0.0990953-0.206707-0.0929832-0.3023224,0.0151348
		c-0.3239326-0.0016651-0.6478653-0.0033283-0.9718018-0.0049934c-0.1822777-0.1911583-0.3655624-0.191433-0.5498428-0.0028944
		c-1.9328957-0.0007505-3.8657951-0.0014992-5.7986908-0.0022469c-0.1023998-0.1032715-0.20327-0.100462-0.3026714,0.0043592
		c-0.1555462,0.0034895-0.3110905,0.0069771-0.4666367,0.0104647c-0.2664719-0.2550688-0.5318546-0.2537937-0.7961521,0.0033789
		c-0.4127579-0.0016518-0.8255177-0.0033026-1.2382755-0.0049524c-0.1783218-0.1934862-0.3598747-0.197237-0.5446968-0.0092859
		c-1.3403511,0.0011473-2.6807041,0.0022945-4.0210571,0.0034428c-0.0985775-0.1106863-0.1996136-0.1135807-0.3031445-0.0069113
		c-0.6610985,0.0010138-1.3222008,0.0020275-1.9832993,0.0030413c-0.1019554-0.1065369-0.2024994-0.1047516-0.3016548,0.0039225
		c-0.3241062,0.0020084-0.6482124,0.0040169-0.9723167,0.0060272c-0.0994873-0.1101418-0.1984158-0.1088371-0.2968006,0.0014868
		c-0.335535,0.1070766-0.8151398-0.2100239-1.0003166,0.3397512c-0.0744324,0.1635714-0.1488628,0.3271446-0.2232952,0.490715
		c-0.0203934,0.5732574-0.5985088,0.7853317-0.8027306,1.2395382c-0.6549263,0.3208942-0.9072409,1.1744175-1.7134438,1.2951813
		c-0.8923063-0.2316017-1.0189638,0.710495-1.5598717,1.0175667C12.5704918,19.2875652,12.5767212,18.9092579,12.5853577,18.5292969
		z"/>
	<path style="fill:#218DF6;" d="M14.6688499,18.2742481c0.8062029-0.1207638,1.0585175-0.974287,1.7136059-1.2950478
		c0.0000706,1.4709854,1.1238689,0.5882435,1.3305473,0.4277153c0.933672-0.7251949,1.9586487-0.679678,3.0153427-0.6718426
		c1.7749367,0.0131626,3.5500336,0.0049057,5.3250599,0.0056667c0.0919552,0.0846672,0.1839123,0.1693249,0.2758694,0.2539864
		c0.0159931,0.1605473,0.0319862,0.3210945,0.0478039,0.4816532c-0.0377274,0.090126-0.0752773,0.1802425-0.1128311,0.2703571
		c-0.4064102,0.0885143-0.8124142,0.2507706-1.2193031,0.2530212c-1.9663181,0.0108662-3.9043217,0.148468-5.8637848,0.4337292
		c-1.4191189,0.2065983-2.2136726,0.9378185-3.0371742,1.8616734c-0.757988,0.1225147-1.5713549-0.2551327-2.2866106,0.2531452
		c-0.2471886-0.0858517-0.4943924-0.1716728-0.7416725-0.2574291c0.0362921-0.0792751,0.0726595-0.158617,0.109025-0.2379551
		c0.0806541-0.0234337,0.1273623-0.0770893,0.1401291-0.1611443C13.9572058,19.4796124,14.2079773,18.7922325,14.6688499,18.2742481
		z"/>
	<path style="fill:#1E75CA;" d="M10.877883,38.506794c-1.1847935,0.9353561-2.4804173,1.1106567-3.8810687,0.5661774
		c0.1918817-0.2718353,0.4842663-0.2119675,0.7537208-0.2278671c0.7244568,0.0942802,0.9774218-0.1676178,1.0657482-0.9484215
		c0.1181307-1.0442772-0.1321945-2.0588837-0.0321779-3.0858231c0.6714716-0.0886345,1.3429441-0.1772728,2.0144157-0.2659035
		C10.677722,35.8685188,11.3063726,37.1770706,10.877883,38.506794z"/>
	<path style="fill:#84BFF8;" d="M8.7550459,24.1615257c0.1769581-0.0274277,0.3539162-0.0548477,0.5308695-0.0821819
		c0.4204998,0.0114326,0.8410034,0.0227737,1.261508,0.0341167c0.8815489,0.321846,0.7384233,1.1021099,0.7423019,1.7697868
		c0.0157738,2.7144718-0.0051308,5.4291592-0.0125132,8.1437645c-0.1585064,0.0803604-0.3170118,0.1607208-0.4754543,0.2411423
		l-0.0304155-0.0301437c0.0105667-2.8465366-0.0413876-5.6953583,0.0625181-8.5384846
		c0.0414715-1.1347523-0.3029652-1.3794804-1.288578-1.0475388c-0.259614-0.101717-0.519227-0.2034359-0.778842-0.305151
		C8.7623978,24.28508,8.7586002,24.2233086,8.7550459,24.1615257z"/>
	<path style="fill:#5B94C9;" d="M11.2772121,34.0270119c0.0073824-2.7146053,0.0282869-5.4292927,0.0125132-8.1437645
		c-0.0038786-0.6676769,0.1392469-1.4479408-0.7422256-1.7698288c0.4677191-0.7195282,0.2090845-1.5242901,0.2691612-2.2916317
		c0.0003157-0.1700859,0.0006323-0.3401756,0.000947-0.5102615c-0.0032415-0.1691189-0.0064831-0.3382378-0.0097237-0.5073566
		c0.0390663-0.3457603-0.0757742-0.8257408,0.564949-0.6461601c0.0445919,4.4082432,0.3292723,8.811718,0.2028799,13.2215157
		C11.5682564,33.6396942,11.5402079,33.8864861,11.2772121,34.0270119z"/>
	<path style="fill:#84BFF8;" d="M10.798521,34.5449562c-0.6714716,0.0886307-1.3429441,0.177269-2.0145063,0.2657738
		c-0.340764,0.0059357-0.6814365,0.0120125-1.0221105,0.0180817c-0.0040245-0.0441017-0.0094099-0.0880432-0.0161576-0.1318169
		c0.0012612-0.1320572,0.0025225-0.2641106,0.0037804-0.3962402c0.1021032-0.030529,0.2042074-0.0609894,0.3063116-0.0914497
		c0.9051676,0.0095711,1.8103361,0.0191345,2.7155037,0.0287056l0.0304155,0.0301437
		C10.8006372,34.3603821,10.7995796,34.4526672,10.798521,34.5449562z"/>
	<path style="fill:#B0E4F9;" d="M14.6688499,18.2742481c-0.4608727,0.5179844-0.7116442,1.2053642-1.3039932,1.6175289
		c-0.0853853-0.1999226-0.1707668-0.4000225-0.2560129-0.6000443
		C13.6498861,18.9847431,13.7765436,18.0426464,14.6688499,18.2742481z"/>
	<path style="fill:#B0E4F9;" d="M13.2247276,20.0529213c-0.0363655,0.0793381-0.0727329,0.15868-0.109025,0.2379551
		c-0.1776915,0.0028763-0.3554602,0.0058193-0.5332394,0.0087624
		C12.7168245,20.0098667,12.9595613,20.0021973,13.2247276,20.0529213z"/>
	<path style="fill:#5B94C9;" d="M11.6245899,19.6929417c-0.0369005,0.0037994-0.073801,0.007597-0.1107016,0.0113926
		c0.0377235-0.0114784,0.0754471-0.0229568,0.1135559-0.0335732C11.6278286,19.6716232,11.6245899,19.6929417,11.6245899,19.6929417
		z"/>
	<path style="fill:#5B94C9;" d="M40.3515358,15.6440668c0.2487144,0.2179117,0.4974289,0.4358244,0.7458801,0.6534719
		c0.3406982,0.4776211,0.7028618,0.9341755,1.2309341,1.2238636c0.7631836,0.4879055,1.1435814,1.2472019,1.4559021,2.0548096
		c-0.2581673-0.0003529-0.4313965,0.1088028-0.4860153,0.373415c-0.0738754,0.0134277-0.1416664,0.0410652-0.2033424,0.0836811
		l-0.0160332-0.0077953c0.0014229-0.1593952-0.0772629-0.2385883-0.2369385-0.2367115l-0.0129852-0.0179939
		c0.0620461-0.3365307-0.1236115-0.4895134-0.417347-0.5624447c-0.0776672-0.269886-0.224453-0.4686966-0.524765-0.5099812
		c-0.0855141-0.0844955-0.1706619-0.1693077-0.2561874-0.2537842c-0.0855789-0.0852566-0.1707916-0.1708508-0.2560005-0.2564468
		c-0.2295914-0.8768234-1.6216965-1.2248974-1.109417-2.4391537C40.2939796,15.7140055,40.3227463,15.6790295,40.3515358,15.6440668
		z"/>
	<path style="fill:#5B94C9;" d="M45.1017303,22.3399086c-0.2570839,0.5719376-0.1678734,1.0872879,0.2531204,1.5482712
		c-0.6218224,0.2557564-0.7801399,0.7067509-0.7709732,1.3765869c0.042244,3.0857391,0.0212593,6.1723423,0.0229454,9.2586365
		l-0.0107346,0.0101204c-0.3280029-0.2407112-0.2579155-0.5972595-0.2581024-0.925621
		c-0.0020561-3.6201954-0.0006676-7.2403851,0.0039978-10.8605766c0.0004234-0.3280106-0.0723076-0.6855469,0.2637444-0.9212494
		C44.7710457,21.9973183,44.9363899,22.1686134,45.1017303,22.3399086z"/>
	<path style="fill:#5B94C9;" d="M46.6729584,34.9866867c-0.1860237,0.0205574-0.3720474,0.0411186-0.5582008,0.0617905
		c-0.7602882-0.1376877-1.0797691,0.167942-1.0223541,0.9459419c0.0427704,0.5795593-0.015377,1.166069,0.0154648,1.7471428
		c0.0314293,0.5920029-0.1799507,0.9618721-0.7880669,1.0570221c0.4278793-1.4001656-0.1770363-2.8670235,0.2763824-4.2651405
		c0,0,0.0106392-0.0100403,0.010582-0.0099831c0.5088425-0.0095863,1.017746-0.0192261,1.5266457-0.0288696
		C46.4377136,34.522171,46.6266174,34.6762733,46.6729584,34.9866867z"/>
	<path style="fill:#1E75CA;" d="M45.1017303,22.3399086c-0.1653404-0.1712952-0.3306847-0.3425903-0.4960022-0.5138321
		c-0.0065804-0.5927467-0.0131836-1.185545-0.0199623-1.7783241C45.8357887,20.5690441,45.4292297,21.4633751,45.1017303,22.3399086
		z"/>
	<path style="fill:#84BFF8;" d="M42.4119873,19.2080956c0.2933388,0.0731983,0.4789963,0.226181,0.4169502,0.5627117
		c-0.0878029,0.0068493-0.1756248,0.0137005-0.2634773,0.0205517c-0.0664253-0.0228672-0.134716-0.0332336-0.2049065-0.0310936
		l-0.0268326,0.0049534c-0.0360107-0.1362038-0.0719337-0.2725258-0.1078529-0.4088497
		C42.2866859,19.3054085,42.3487282,19.2559853,42.4119873,19.2080956z"/>
	<path style="fill:#84BFF8;" d="M43.0948944,20.033308c0.061676-0.0426159,0.129467-0.0702534,0.2033424-0.0836811
		c0.0180283,0.1107044,0.0360794,0.2221813,0.0541267,0.3336582l-0.0335159,0.0332241
		C43.2441978,20.2221107,43.1695442,20.1277103,43.0948944,20.033308z"/>
	<path style="fill:#84BFF8;" d="M42.8419228,19.7888012c0.1596756-0.0018768,0.2383614,0.0773163,0.2369385,0.2367115
		C42.9998817,19.9466152,42.9209023,19.8677082,42.8419228,19.7888012z"/>
	<path style="fill:#84BFF8;" d="M43.3523636,20.2832851c0.0306587,0.042654,0.0613251,0.0853081,0.0919914,0.1279602
		c-0.041832-0.0316238-0.0836639-0.0632496-0.1254997-0.0948029L43.3523636,20.2832851z"/>
	<path style="fill:#218DF6;" d="M42.3605537,19.7602654c-0.2010956,0.78932-0.8501053,0.4924679-1.3402901,0.530365
		c-0.4962845,0.0383663-0.9982185,0.0036697-1.4976883,0.0010548c-0.088028-0.1732922-0.1747131-0.1680088-0.26017,0.0020142
		c-0.2506828,0.0005074-0.5013618,0.0010147-0.7521248,0.0015621c-0.0906029-0.6348019-0.4826584-0.877943-1.0919037-1.029295
		c-2.5518417-0.6339321-5.1324654-0.8892155-7.7551346-0.7525616c-0.0441208-0.5084229-0.1381016-1.0230637,0.1853924-1.4855995
		c0.0024529-0.1795769,0.0048428-0.3591881,0.0072346-0.5388012c0.3672562-0.0647488,0.7705975-0.2620296,1.0961037-0.173418
		c2.7818451,0.7572899,5.6138077,0.3054199,8.4209671,0.4078102c0.4660034,0.459219,0.932003,0.9184361,1.398037,1.3773956
		c0.4165764,0.6526089,0.6516342,1.4758568,1.5628357,1.6643066L42.3605537,19.7602654z"/>
	<path style="fill:#389BFB;" d="M29.6632423,18.5134048c2.6226692-0.1366539,5.2032928,0.1186295,7.7551346,0.7525616
		c0.6092453,0.1513519,1.0013008,0.3944931,1.0919037,1.0292931c-2.878212-0.0498352-5.7583084,0.1137867-8.6369877-0.1015587
		c-0.4045582-0.0302639-0.4980965-0.1705303-0.5814266-0.464077l0.0246315,0.0436363
		c0.2443123-0.0782146,0.2896557-0.2746849,0.2943802-0.4952984C29.628334,19.0231094,29.6457882,18.7682571,29.6632423,18.5134048z
		"/>
	<path style="fill:#DDF2FA;" d="M29.6632423,18.5134048c-0.0174541,0.2548523-0.0349083,0.5097046-0.0523777,0.7645779
		c-0.2200947,0.092617-0.3145065,0.2599068-0.2943668,0.4952774l-0.0246315-0.0436363
		c-0.3229313,0.074913-0.5755215,0.2421379-0.7207394,0.5500069c-0.7980919,0.0906181-1.5631104,0.0414467-2.2066422-0.5212593
		c0.0068741-0.2306576,0.0135193-0.461235,0.0198326-0.6919041c0.1793137-0.1963196,0.1525974-0.3898239-0.0080051-0.5815639
		c0.0099182-0.0817375-0.0027313-0.1598167-0.0380669-0.2341194c0.0335388-0.0626202,0.0498924-0.1295853,0.0489426-0.2007732
		c0.1681767-0.1941853,0.1769009-0.3856068-0.0099316-0.5736446c-0.015995-0.1605453-0.0319881-0.3210926-0.048027-0.4815712
		c0.0356808-0.0696659,0.0594044-0.1432762,0.0709572-0.2208481c0.2366314-0.2459755,0.1667957-0.5501595,0.1599922-0.8423567
		c0.2529583-0.0045872,0.5059147-0.0091715,0.758873-0.0137568c0.4236412,0.0136194,0.8472786,0.027236,1.2709198,0.0408525
		c0.2884274,0.2094126,0.5768547,0.418828,0.865284,0.6282415l0.0571671,0.0647717
		c0.112051,0.1253548,0.224102,0.2507133,0.3361511,0.37607C29.5251408,17.4903412,29.6191216,18.004982,29.6632423,18.5134048z
		 M27.3178806,19.0383625c0.032938,0.2578392,0.1130047,0.4747086,0.4339561,0.4492035
		c0.25597-0.0203381,0.2978306-0.2251263,0.3433304-0.4221287c0.9931202-0.6746979,0.4994888-1.5062237,0.2439518-2.3126373
		c-0.7870255-0.431963-0.9761333-0.3921928-1.0642033,0.223814c-0.0066681,0.4277782-0.0133381,0.8555603-0.0200081,1.2833385
		c-0.0254784,0.0268917-0.0760155,0.0588951-0.0717678,0.0797291c0.0131493,0.0644989,0.0471516,0.1247482,0.0730591,0.1866455
		C27.2767601,18.6970062,27.2973213,18.8676834,27.3178806,19.0383625z"/>
	<path style="fill:#389BFB;" d="M39.2624054,20.2936993c0.0854568-0.170023,0.172142-0.1753063,0.26017-0.0020161
		C39.4358597,20.2923031,39.3491325,20.2930012,39.2624054,20.2936993z"/>
	<path style="fill:#389BFB;" d="M26.387188,18.0500107c0.0009499,0.071188-0.0154037,0.1381531-0.0489426,0.2007732
		c-0.0600262,0.058075-0.1376648,0.1062756-0.1775417,0.1760521c-0.3184624,0.5572643,0.2493248,1.4632759-0.3952732,1.7441521
		c-0.6116333,0.2665195-1.4111004,0.1209831-2.1280746,0.1233158c-2.4977722,0.0081139-4.9955883,0.0017776-7.4933796,0.0008945
		c0.8235111-0.923893,1.6180649-1.6551132,3.0371838-1.8617115c1.9594631-0.2852612,3.8974667-0.422863,5.8637848-0.4337292
		c0.406889-0.0022507,0.8128929-0.1645069,1.2195358-0.252985C26.3055363,17.8478756,26.3463612,17.9489422,26.387188,18.0500107z"
		/>
	<path style="fill:#84BFF8;" d="M26.3763123,18.4849033c0.1606026,0.19174,0.1873188,0.3852444,0.0080051,0.5815639
		C26.3818703,18.8726749,26.3790894,18.6787891,26.3763123,18.4849033z"/>
	<path style="fill:#4DA2F9;" d="M7.750535,38.8451042c-0.2694545,0.0158997-0.5618391-0.0439682-0.7537208,0.2278671
		c-0.1692104-0.0053978-0.3384552-0.01054-0.5077286-0.0160561c-0.2594972-0.1578178-0.5189672-0.3152618-0.7782798-0.4726028
		c-0.0671515,0.0000916-0.1343379-0.0027733-0.2014022-0.0084839l-0.0146499-0.025013
		c-0.0998669-1.3622589,0.0173759-2.7103577,0.2563233-4.0507202c0.3195677,0.0286331,0.639267,0.0572357,0.9589653,0.0858383
		c0.1020246,0.052021,0.2040491,0.1040382,0.3060737,0.1560555c0.2432098-0.0149956,0.4864206-0.029995,0.7296305-0.0449944
		c0.0067477,0.0437737,0.0121331,0.0877151,0.0161605,0.1315536C7.7581191,36.1672249,7.7543268,37.5061607,7.750535,38.8451042z"/>
	<path style="fill:#4DA2F9;" d="M49.949028,38.3537827c-1.2495422,0.7261734-1.7875671,0.4556236-1.7976341-0.9172974
		c-0.0065155-0.8873634,0.0110512-1.7749023,0.0177765-2.6623344c0.3292847-0.0179558,0.6586266-0.0359344,0.9879684-0.0539131
		c0.2517319,0.0174713,0.5034637,0.0349426,0.7551956,0.0524178c0.0103722,0.0914726,0.0207481,0.1829453,0.0310593,0.2742882
		C49.9452324,36.1491356,49.9471283,37.251461,49.949028,38.3537827z"/>
	<path style="fill:#B0E4F9;" d="M49.1571388,34.7202415c-0.3293419,0.0179749-0.6586838,0.0359535-0.9879684,0.0539093
		l0.0210266-0.0449409c-0.0037041-0.1321716-0.0072823-0.2645416-0.0109138-0.3971748
		c1.7545547-0.1119385,1.7542839-0.1119385,1.7539139-1.9319763c-0.0004196-2.101202-0.0025864-4.2024117,0.0002937-6.3036079
		c0.0023804-1.7362728,0.0051346-1.73666-1.6764374-1.7106705c-0.1258774,0.0019493-0.2515793,0.015255-0.3773613,0.0232811
		c-0.3059387-0.4034176,0.1389313-0.2593613,0.257515-0.3533039c0.6014557,0.0099106,1.2029419,0.0199261,1.8044128,0.0298691
		c0.1902733,0.1339054,0.2482872,0.3290348,0.2483177,0.5480423c0.0004272,3.1193562,0.0040436,6.2387295-0.0097084,9.3580303
		c-0.000824,0.1876068-0.1416893,0.3745956-0.2174911,0.5617409C49.677742,34.529789,49.3874092,34.480114,49.1571388,34.7202415z"
		/>
	<path style="fill:#389BFB;" d="M49.949028,38.3537827c-0.0018997-1.1023216-0.0037956-2.2046471-0.0056343-3.306839
		c0.5161819-0.0458374,0.7313766,0.1668587,0.7605133,0.7072296c0.0473557,0.8781967-0.1140976,1.7229004-0.2655449,2.573967
		C50.2751923,38.3366013,50.1121063,38.345192,49.949028,38.3537827z"/>
	<path style="fill:#84BFF8;" d="M49.1571388,34.7202377c0.2302704-0.2401237,0.5206032-0.1904488,0.8055992-0.1667976
		c-0.0182953,0.0728035-0.034935,0.1458817-0.0501137,0.2192841C49.6606026,34.7551804,49.4088707,34.737709,49.1571388,34.7202377z
		"/>
	<path style="fill:#84BFF8;" d="M48.1793365,34.3322945c0.0035782,0.1323738,0.0071564,0.2647438,0.0108604,0.3969154
		c-0.5058136,0.0859299-1.0117455,0.1720505-1.5174561,0.2578316c-0.0461235-0.3107681-0.2350273-0.4648705-0.5393715-0.4921265
		c-0.0021515-0.0548515-0.0024757-0.1100464-0.0009995-0.1652489c0.6654968-0.0363235,1.3309937-0.0726471,1.9964943-0.1089706
		L48.1793365,34.3322945z"/>
	<path style="fill:#67ABEC;" d="M47.8796921,24.4090614c0.125782-0.0080261,0.2514839-0.0213318,0.3773613-0.0232811
		c1.681572-0.0259895,1.6788177-0.0256023,1.6764374,1.7106705c-0.0028801,2.1011963-0.0007133,4.2024059-0.0002937,6.3036079
		c0.00037,1.8200378,0.0006409,1.8200378-1.7539177,1.9319763l-0.0503464-0.1112823
		c0.0071144-0.0563469,0.0053253-0.1124763-0.0050392-0.1686058c0.0440369-0.713089,0.1718445-1.4348106-0.2224922-2.1011734
		c0.1695328-0.1455612,0.3390617-0.2911224,0.5087204-0.4368553c0.7105904-0.4331417,0.9887428-1.0134335,0.5810089-1.7991142
		c-0.1169968-0.2254543-0.3257523-0.4541321-0.1011887-0.677206c0.663662-0.6592636,0.0428047-1.1017723-0.2343597-1.6064472
		c0.4629402-0.0053043,0.7102432-0.1459503,0.7993202-0.693821c0.185997-1.1439056-0.3307648-1.7520714-1.3249931-2.1057224
		C48.046505,24.5575581,47.9630966,24.4833107,47.8796921,24.4090614z"/>
	<path style="fill:#1663AC;" d="M48.1236343,34.0524254c0.0106239,0.055851,0.012413,0.1119804,0.0052986,0.1683273
		c-0.6655693,0.0362663-1.3310661,0.0725899-1.9965553,0.1087837c-0.8454704,0.0830841-1.0413055-0.347641-1.0284271-1.1242599
		c0.0403709-2.4354687,0.0981903-4.8758965-0.0172539-7.3065014c-0.0589371-1.2409439,0.3532982-1.6707001,1.5147095-1.5428238
		c0.3256569,0.0097828,0.5193787,0.1586132,0.528923,0.5018806c-0.502037,0.0942478-1.2546806-0.25313-1.2546539,0.7220745
		c0.0000153,0.5411873-0.0939484,1.1377602,0.7572861,1.0740814c0.2012291,0.1011868,0.2434235,0.2831478,0.246418,0.4851608
		c-0.4837303,0.0591354-1.0561066-0.0210133-1.0013351,0.7678165c0.0721436,1.0391102-0.1255684,2.0888729,0.1154594,3.1225719
		c-0.0326233,0.3399544,0.1142082,0.5135479,0.4632378,0.4996796c0.2484322,0.2495327,0.5898628,0.176981,0.8874626,0.2562428
		c-0.8625793,0.3885784-1.043251,1.2846012-0.9881897,1.9770641c0.0427208,0.5373268,0.9111176,0.1507034,1.396553,0.2669373
		C47.8712845,34.057888,47.9996872,34.0458565,48.1236343,34.0524254z"/>
	<path style="fill:#86B4DC;" d="M45.9935036,31.0295372c-0.2410278-1.033699-0.0433159-2.0834618-0.1154594-3.1225719
		c-0.0547714-0.7888298,0.5176048-0.7086811,1.0013351-0.7678165c0.4153214-0.0028648,0.8307114-0.0056171,1.2463608-0.0081806
		c0.0906296,0.0148888,0.1809998,0.0295906,0.2715378,0.0441456c0.0062408,0.0714111,0.0122795,0.142971,0.0182724,0.2145367
		c-1.2554588,0.0404625-1.2554588,0.0404625-0.9840393,0.6747723c-0.4748688,0.1287861-0.6029091,0.4605179-0.5317879,0.9087925
		c-0.0136108,0.4820633-0.1805649,1.0884686,0.5940895,1.0783386c0.2256355-0.0029545,0.464962-0.4541283,0.6768913,0.0115452
		c0.189415,0.4161987-0.2340813,0.5728416-0.4246216,0.8142128c-0.1778831,0.2253265-0.7286835-0.0659828-0.7130051,0.5653572
		c0.4638786,0.024128,0.9203949,0.0478725,1.376915,0.0716152c-0.169529,0.1455669-0.3390579,0.2911282-0.5085182,0.4369183
		c-0.1857071-0.0550957-0.3714905-0.1104183-0.5572701-0.1657429c-0.2975998-0.0792618-0.6390305-0.0067101-0.8879967-0.2564068
		C46.3856697,31.2846413,46.3361397,31.0214539,45.9935036,31.0295372z"/>
	<path style="fill:#86B4DC;" d="M46.6014061,24.3559513c-1.1614113-0.1278763-1.5736465,0.3018799-1.5147095,1.5428238
		c0.1154442,2.4306049,0.0576248,4.8710327,0.0172539,7.3065014c-0.0128784,0.776619,0.1829567,1.2073441,1.0284271,1.1242599
		c-0.0014839,0.0553322-0.0011597,0.110527,0.0009918,0.1653786c-0.5088577,0.0093193-1.0177612,0.018959-1.5266037,0.0285454
		c-0.0016289-3.0863514,0.0193558-6.1729546-0.0228882-9.2586937c-0.0091667-0.669836,0.1491508-1.1208305,0.7709732-1.3765869
		c0.2465401-0.0194645,0.4931679-0.0390873,0.73946-0.0587521C46.3363419,23.934351,46.5335579,24.082819,46.6014061,24.3559513z"/>
	<path style="fill:#4DA2F9;" d="M48.3971062,27.1752605c-0.0903664-0.0147018-0.1807365-0.0294037-0.2713661-0.0442924
		c0.0013924-0.8332405,0.0030518-1.6662884,0.0044403-2.4992504c0.9939575,0.3537407,1.5107193,0.9619064,1.3247223,2.1058121
		c-0.089077,0.5478706-0.33638,0.6885166-0.7993088,0.6937504l0.0020828-0.0025597
		C48.5708199,27.3442326,48.483963,27.2597485,48.3971062,27.1752605z"/>
	<path style="fill:#1E75CA;" d="M46.6329613,26.6539879c-0.8512344,0.0636787-0.7572708-0.5328941-0.7572861-1.0740814
		c-0.0000267-0.9752045,0.7526169-0.6278267,1.2546539-0.7220745
		C47.5211372,25.6105328,46.2953949,25.9159012,46.6329613,26.6539879z"/>
	<path style="fill:#1E75CA;" d="M46.6257935,21.324276c-0.4905624,0.0189457-0.7546387-0.1588001-0.762619-0.7076492
		c-0.0080681-0.5547562,0.1555405-0.8723164,0.7559929-0.8393993C47.0598297,20.2908783,46.7253189,20.808094,46.6257935,21.324276z
		"/>
	<path style="fill:#1E75CA;" d="M46.1343002,19.2658195c-1.1169815-0.2982731-1.2318306-0.6273785-0.5293999-1.5166912
		C45.8348579,18.2359352,46.1877098,18.6799603,46.1343002,19.2658195z"/>
	<path style="fill:#1E75CA;" d="M46.1228409,22.8338013c0.0115585-0.3229904,0.1766777-0.4960442,0.5011406-0.5135078
		c-0.0458717,0.2652836,0.1675224,0.5818367-0.1250801,0.7820969
		C46.4552612,23.1322556,46.2521667,22.9291363,46.1228409,22.8338013z"/>
	<path style="fill:#86B4DC;" d="M42.3283501,17.5214005c-0.5280724-0.2896862-0.8902359-0.7462406-1.2309341-1.2238617
		c0.2869759-0.2123508,0.4627037-0.4910994,0.5060806-0.8486538c0.3950157,0.062089,0.7455635,0.3425484,1.1742897,0.2392941
		c-0.120079,0.756279,1.223278,0.8904572,0.7617264,1.7918949C43.1357918,17.4938488,42.7320709,17.5076256,42.3283501,17.5214005z"
		/>
	<path style="fill:#1E75CA;" d="M43.5395126,17.4800758c0.4615517-0.9014397-0.8818054-1.0356178-0.7616425-1.7916603
		c-0.0300407-0.4032202,0.2193031-0.6159353,0.5349274-0.7834167c0.0762177,0.5077038,0.2541695,0.9559736,0.6839676,1.2801685
		c0.4139671,0.3122482,1.0114899,0.4378242,1.1183167,1.071703C44.7266083,18.2963562,44.0673828,17.4246159,43.5395126,17.4800758z
		"/>
	<path style="fill:#1F7EDC;" d="M45.1150818,17.2568703c-0.1068268-0.6338787-0.7043495-0.7594547-1.1183167-1.071703
		c-0.4297981-0.3241949-0.6077499-0.7724648-0.6839638-1.2800426c0.0049744-0.0649719,0.0093727-0.1301069,0.0132141-0.1952791
		c0.0736923-0.0250874,0.1463966-0.0527782,0.2181091-0.0830746c0.4148216,0.2224522,0.7630234,0.5812464,1.2678375,0.6195335
		l0.01297,0.0163403c0.1834488,0.4026651,0.3668976,0.8053274,0.5503426,1.2079916
		c0.0425339,0.1250191,0.1016846,0.1956654,0.2215462,0.0677261c0.0764236-0.010231,0.1521263-0.0243034,0.2271233-0.0422192
		c0.0024414,0.1278343,0.004879,0.2556725,0.0071259,0.3839397C45.6628227,17.1401348,45.4152641,17.2485466,45.1150818,17.2568703z
		"/>
	<path style="fill:#DDF2FA;" d="M43.5441246,14.626771c-0.0717125,0.0302963-0.1444168,0.0579872-0.218071,0.0830402
		c-0.2520218-0.101655-0.4286842-0.2778931-0.526516-0.5321379c0.0896683-0.1618385,0.1793365-0.3236761,0.2689972-0.4855146
		c0.5557594-0.4025965,1.1563492-0.0617695,1.7337685-0.1054888c0.190239,0.2047815,0.3805046,0.4104929,0.5707245,0.6161776
		c0.2859573,0.5956135,0.4335403,1.1196671-0.5480919,1.0597973l-0.0128212-0.016427
		C44.6964607,14.4112825,44.2603722,14.2322178,43.5441246,14.626771z"/>
	<path style="fill:#67ABEC;" d="M44.8249321,15.2626448c0.981636,0.0598698,0.834053-0.4641838,0.5480957-1.0597973
		c0.8360329,0.2723522,1.3577919,0.7630367,1.1990662,1.7258034c-0.2496605,0.1888552-0.498764,0.3781271-0.7480087,0.5674467
		c-0.0751381,0.0179615-0.1508408,0.0320339-0.2270012,0.0418911c-0.0708389-0.0323963-0.1448555-0.0547237-0.2218094-0.0673523
		C45.1918297,16.0679722,45.0083809,15.6653099,44.8249321,15.2626448z"/>
	<path style="fill:#84BFF8;" d="M43.8828201,12.6693106c-0.3553162,0.0796556-0.7106323,0.1593122-1.2364883,0.2772007
		c0.2787781-0.5231209,0.4824333-0.9052734,0.6860962-1.2874279C43.5158958,11.9958258,43.6993561,12.3325682,43.8828201,12.6693106
		z"/>
	<path style="fill:#84BFF8;" d="M20.7186222,10.7950344c-0.2270679-1.2135887,0.3487263-1.4573011,1.4686909-1.4602947
		c1.5354137-0.0041056,3.1006031,0.3368883,4.6149273-0.2036791c0.2139168-0.0128937,0.3906593,0.0558548,0.51651,0.2361832
		c0.1032352,0.5622854-0.3010902,0.9054527-0.5650158,1.3092222C24.7478352,11.0114212,22.7326488,10.8737335,20.7186222,10.7950344
		z"/>
	<path style="fill:#DDF2FA;" d="M26.7537346,10.676466c0.2639256-0.4037695,0.668251-0.7469368,0.5650158-1.3092222
		c0.3392582-0.0013628,0.6785736-0.0026674,1.0179482-0.0038881c0.1093006,0.1626148,0.2185402,0.3251476,0.3277798,0.4876795
		c0.0626812,0.0936069,0.1253624,0.1872149,0.1880226,0.2808352c0.0761032,0.2078085,0.1522255,0.4156084,0.2283478,0.6234093
		l0.0049591,0.0776644c-0.0079651,0.187336-0.0159264,0.3741722-0.0238895,0.5610094
		c-0.9827805-0.6003695-1.5990448,0.6070604-2.4811974,0.5030413C26.8705921,11.5230675,26.8054409,11.0988131,26.7537346,10.676466
		z"/>
	<path style="fill:#86B4DC;" d="M28.6644783,9.8510351c-0.1092396-0.1625319-0.2184792-0.3250647-0.3277798-0.4876795
		c1.4956455-0.5424767,3.0416412-0.1713591,4.5618877-0.2194204c0.8418579-0.0266171,1.7389183-0.2875004,2.5465088,0.2220993
		c-1.8159065,0.0011168-3.6317444,0.0084972-5.4475002-0.0004635C29.4848633,9.363039,28.9752045,9.3205395,28.6644783,9.8510351z"
		/>
	<path style="fill:#1E75CA;" d="M29.0619183,11.3939533c0.0079632-0.1868372,0.0159245-0.3736734,0.0238895-0.5610113
		c0.5133839,0.0117006,1.0267601,0.023901,1.5401306,0.0362453c0.0328445,0.2719221,0.127327,0.4854488,0.4480419,0.506525
		c0.367733,0.024169,0.5441303-0.1574078,0.5701218-0.5107565c0.9304256-0.0450897,1.8608494-0.0901785,2.7910824-0.1358843
		c0.2385597,0.2189283,0.518055,0.1800451,0.8000107,0.1255302c0.4031639,0.3298235,0.8281479-0.0722523,1.2378693,0.0369415
		c-0.039257,1.0556841,0.8434601,0.8677931,1.3863449,0.8855896c0.3991051,0.0130873,0.7874527-0.0935221,1.1567764,0.1408424
		c-0.0427971,0.2713251-0.1077042,0.463295-0.4770203,0.3939066c-2.4995956-0.4696217-4.9823036,0.3407764-7.4833355,0.1178875
		c-0.502655-0.0447969-1.0060024-0.0239143-1.4758663-0.2430344l0.0242043-0.0003252
		c-0.058548-0.0813713-0.1170959-0.1627436-0.1756458-0.2441149C29.3741608,11.714159,29.3421822,11.4710608,29.0619183,11.3939533z
		"/>
	<path style="fill:#1F7EDC;" d="M39.0161858,11.9179754c-0.3693237-0.2343645-0.7576714-0.1277552-1.1567764-0.1408424
		c-0.5428848-0.0177965-1.425602,0.1700945-1.3863449-0.8855896c0.6258316-0.0078087,1.2635422,0.0590286,1.8750267-0.038537
		c1.3635941-0.2175674,2.3042831,0.4823618,3.2043495,1.3279963c0.0759621,0.1829348,0.1519203,0.3657503,0.2282143,0.5481062
		c-0.2881012,0.4764185-0.8337593,0.6215248-1.232872,0.9556503c-0.0885735-0.0843019-0.1771507-0.1686058-0.265728-0.2528286
		c0.3707962-0.7968435,0.1359444-1.2295275-0.7604408-1.2643566C39.4094391,11.9703665,39.2235527,11.9224215,39.0161858,11.9179754
		z"/>
	<path style="fill:#4191DD;" d="M31.6441021,10.8649559c-0.0259914,0.3533487-0.2023888,0.5349255-0.5701218,0.5107565
		c-0.320715-0.0210762-0.4151974-0.2346029-0.4480419-0.5065231C30.9641552,10.5742493,31.3035374,10.572526,31.6441021,10.8649559z
		"/>
	<path style="fill:#4191DD;" d="M35.2351952,10.8546019c-0.2819557,0.0545149-0.561451,0.0933981-0.8000107-0.1255302
		C34.7248077,10.6251936,34.9985161,10.6213398,35.2351952,10.8546019z"/>
	<path style="fill:#86B4DC;" d="M29.0808487,10.7552795c-0.0761223-0.2078009-0.1522446-0.4156008-0.2283478-0.6234093
		C29.0977249,10.2777348,29.095253,10.5143213,29.0808487,10.7552795z"/>
	<path style="fill:#4191DD;" d="M42.5623016,10.390811c0.0862694,0.0862179,0.1725349,0.1724329,0.2588272,0.2586498
		C42.7348671,10.5632439,42.6485863,10.477026,42.5623016,10.390811z"/>
	<path style="fill:#1E75CA;" d="M40.5477829,13.6847591c0.3991127-0.3341255,0.9447708-0.4792318,1.2328682-0.9556503
		c0.695076-0.0346794,0.601902,0.9856033,1.2879105,0.9630346c-0.0896873,0.1618538-0.1793556,0.3236914-0.2689552,0.4854794
		c-0.308651,0.2918758-0.6173782,0.5838032-0.9261093,0.8757315C41.6414223,14.393899,40.4771271,14.6374607,40.5477829,13.6847591z
		"/>
	<path style="fill:#B0E4F9;" d="M7.7457466,34.6969948c-0.2432098,0.0149994-0.4864206,0.0299988-0.729712,0.0452805
		c-0.1020517-0.0519257-0.204021-0.1041336-0.3059921-0.1563454c-0.3196983-0.0285988-0.6393976-0.0572014-0.9589653-0.0858345
		c-0.0083671-2.9817715,0.0475626-5.9657402-0.0556884-8.9441967c-0.0439882-1.2688942,0.3944473-1.6665306,1.5700865-1.4792099
		c0.2458048,0.0391674,0.5027595,0.0083714,0.7545967,0.0097656c0.2450247,0.0249271,0.4900284,0.0499096,0.7350025,0.0749779
		c0.0035257,0.0618763,0.0073233,0.1236477,0.0113993,0.1854744c-0.0772924,0.0199757-0.1550503,0.0380077-0.233242,0.0541725
		C8.4395208,24.4043598,8.3458109,24.4076347,8.2521,24.4109154c-0.1495104,0.0147991-0.2990208,0.0295982-0.4487157,0.0441113
		c-1.8416452-0.1337681-1.8419032-0.1337605-1.7969375,1.6891022c0.0020242,0.0820065,0.0163069,0.1637173,0.024879,0.2455654
		c-0.0001636,1.7841282-0.0003276,3.5682526-0.0004902,5.3523808c-0.0018706,0.760046-0.0037427,1.5200939-0.0056133,2.2801418
		c0.0693827,0.0720558,0.1387649,0.1441193,0.2081475,0.2161751c0.4318271-0.0007935,0.8636537-0.0015869,1.2954807-0.0023842
		c0.0737715,0.0208893,0.1473308,0.0424957,0.2206793,0.0648193C7.7482691,34.4328842,7.7470078,34.5649376,7.7457466,34.6969948z"
		/>
	<path style="fill:#4191DD;" d="M5.5094037,38.5758286c0.0670643,0.0057106,0.1342506,0.0085754,0.2014022,0.0084839
		c-0.0693722,0.0737991-0.138588,0.1476974-0.2075028,0.2211342C5.4915161,38.7282448,5.4934497,38.6518593,5.5094037,38.5758286z"
		/>
	<path style="fill:#1E75CA;" d="M10.8166609,21.8217869c-0.0600767,0.7673416,0.1985579,1.5721035-0.2691612,2.2916317
		c-0.4205809-0.011301-0.8410845-0.0226421-1.2615843-0.0340729c-0.0015192-1.181181,0.0709639-2.3683605-0.0255852-3.5416298
		c-0.0947142-1.1509609,0.3239765-1.9492226,1.2699356-2.5303669c0.0083113,0.3396358,0.0168829,0.6792793,0.0254536,1.0189247
		l-0.0040112,0.0040569c-0.8715181,0.7294884-0.209074,1.2374592,0.2561731,1.7738705
		c0.0032434,0.1690865,0.006485,0.3382053,0.0096216,0.5073547c-0.239109,0.0594177-0.6680422-0.129858-0.6248522,0.3143578
		C10.2183924,21.8906612,10.5870466,21.8021698,10.8166609,21.8217869z"/>
	<path style="fill:#86B4DC;" d="M29.0619221,11.3939533c0.2802601,0.0771074,0.3122387,0.3202057,0.3664856,0.5482512
		c0.0585079,0.0813398,0.1171341,0.1627722,0.1757603,0.2442055l-0.0242043,0.0003252
		c0.0486565,0.2874718,0.0929909,0.5757952,0.1480541,0.8620567c0.0358467,0.1863594,0.0049477,0.33039-0.1995983,0.3826523
		c-0.2697811,0.0689306-0.5039082,0.0083303-0.6461926-0.2425556c-0.4134102-0.7289543-1.0643406-0.5945177-1.6301098-0.3471003
		c-0.3169479,0.1386023-0.4127731,0.8756437-0.9250431,0.5546503c-0.5192871-0.3253899,0.1468678-0.8194628,0.0120068-1.245718
		c0.0806828-0.0845661,0.1611481-0.1689806,0.2416248-0.253562C27.4628735,12.0010138,28.0791378,10.7935839,29.0619221,11.3939533z
		"/>
	<path style="fill:#86B4DC;" d="M35.704628,13.9399738c-0.1665573,0.2466755-0.4244881,0.2457037-0.6788406,0.245779
		c-4.7378311,0.0014-9.4756622,0.0023193-14.2134933-0.0010643c-0.1150513-0.000083-0.2339478-0.0413694-0.3412075-0.0867205
		c-0.017519-0.0074062,0.0163975-0.1364584,0.0265942-0.2096233C25.5667,13.9053307,30.6356621,13.9226522,35.704628,13.9399738z"/>
	<path style="fill:#B0E4F9;" d="M41.873497,15.0533543c0.3087311-0.2919283,0.6174583-0.5838556,0.9261093-0.8757315
		c0.0977631,0.2542953,0.2744255,0.4305334,0.5264473,0.5321884c-0.0038795,0.0652065-0.0082779,0.1303415-0.0132523,0.1953135
		c-0.3156281,0.1673555-0.5649719,0.3800707-0.5349312,0.7832909c-0.4288101,0.1030178-0.7793579-0.1774416-1.1743736-0.2395306
		C41.6935196,15.3170195,41.7835083,15.1851864,41.873497,15.0533543z"/>
	<path style="fill:#86B4DC;" d="M13.6119165,15.4905081c0.2634468,0.0161934,0.6768732-0.1596432,0.6972179,0.2544165
		c0.0263443,0.5361767-0.3894253,0.8765144-0.80301,1.163229c-0.1862717,0.1291351-0.4421129,0.1511726-0.5596609-0.0282421
		c-0.3102026-0.4734592,0.3516769-0.5579319,0.4078531-0.8984337l-0.0039263,0.0035362
		c0.2374172-0.0944471,0.2543459-0.3039532,0.2686701-0.5148182L13.6119165,15.4905081z"/>
	<path style="fill:#1E75CA;" d="M39.5216141,12.1675739c0.8963852,0.0348291,1.131237,0.4675131,0.7604408,1.2643566
		C39.6419067,13.243001,39.4249535,12.7996044,39.5216141,12.1675739z"/>
	<path style="fill:#86B4DC;" d="M40.242733,15.4513197c-0.2129135,0.0017929-0.401989-0.0357924-0.4650536-0.2817039
		C40.0176277,15.1233139,40.3446541,14.9335098,40.242733,15.4513197z"/>
	<path style="fill:#1E75CA;" d="M10.5557194,19.0262737c0.0352106,0.0197296,0.0704231,0.0394592,0.1056347,0.0591888
		c-0.036541-0.0183907-0.073081-0.0367832-0.1096334-0.0551529L10.5557194,19.0262737z"/>
	<path style="fill:#1663AC;" d="M13.6190605,15.4701958c-0.0143242,0.210865-0.0312529,0.4203711-0.2686701,0.5148182
		C13.3391695,15.7608185,13.3719416,15.559577,13.6190605,15.4701958z"/>
	<path style="fill:#86B4DC;" d="M10.5373077,14.4587841c-0.2194157,0.1746922-0.3768911,0.5335083-0.7497406,0.2522326
		c0.1533012-0.3594341,0.4034615-0.6202641,0.7733231-0.7591867C10.5530367,14.1208067,10.5451727,14.2897959,10.5373077,14.4587841
		z"/>
	<path style="fill:#86B4DC;" d="M10.8137512,13.6972141c0.0035505,0.1727238-0.0759697,0.2627058-0.253788,0.2547941
		C10.6445522,13.8670807,10.7291517,13.7821465,10.8137512,13.6972141z"/>
	<path style="fill:#86B4DC;" d="M11.0675411,13.4435024c-0.0000734,0.1698542-0.0850086,0.2547684-0.2549047,0.2546539
		C10.8975964,13.6132736,10.9825687,13.528388,11.0675411,13.4435024z"/>
	<path style="fill:#1F7EDC;" d="M26.0534077,16.7407341c-1.7750282-0.0007553-3.5501251,0.0075016-5.3250618-0.005661
		c-1.056694-0.0078354-2.0816708-0.0533524-3.0153427,0.6718426c-0.2066784,0.1605282-1.3304768,1.0432701-1.3305473-0.4277153
		c0.2040596-0.45434,0.7821751-0.6664143,0.8023052-1.2397881c0.1515045-0.0073023,0.3032761-0.0144844,0.4550476-0.0216694
		c2.4775887,0.0027008,4.955574,0.0311241,7.4325409-0.0068665C25.8622952,15.6987619,26.150486,15.9926462,26.0534077,16.7407341z"
		/>
	<path style="fill:#B0E4F9;" d="M26.8316059,14.9073391c0.4127579,0.0016499,0.8255177,0.0033007,1.2383003,0.0052547
		c0.2653904-0.0010252,0.5307598-0.0023527,0.7961273-0.0036812c0.1555462-0.0034876,0.3110905-0.0069752,0.4666691-0.0101328
		c0.1009007-0.0013437,0.2017689-0.0030184,0.302639-0.004693c1.9328957,0.0007496,3.8657951,0.0014982,5.7987213,0.0026283
		c0.1832924,0.0010939,0.3665504,0.0018053,0.5498123,0.0025148c0.3239365,0.0016651,0.6478691,0.0033283,0.9718704,0.0053406
		c0.1007919-0.0049324,0.2015228-0.0102091,0.3022537-0.0154839c0.1537971,0.007,0.3075943,0.013999,0.4614525,0.0212898
		c0.1001167-0.0084467,0.2001648-0.0171814,0.3002167-0.0259171c0.3294754,0.044446,0.50877,0.2576361,0.6177521,0.5498199
		c-0.0795593,0.0347738-0.1341553,0.0929689-0.1637955,0.17416c-0.0783348-0.0439444-0.1566696-0.0874643-0.2350006-0.1309862
		c-0.8937492-0.5158806-1.8513222-0.1906548-2.7826653-0.2111521c-0.1678925,0.0002193-0.3357811,0.0004387-0.5036736,0.0006552
		c-0.0877724,0.0002851-0.1755486,0.0005703-0.2633247,0.0008574c-1.4396286,0.0005445-2.8792553,0.0010891-4.318882,0.0016317
		c-0.3377094-0.0021181-0.6754169-0.0042372-1.0131245-0.0063581c-0.333744,0.0023499-0.6674843,0.0046968-1.0012283,0.0070486
		c-0.6875172,0.000762-1.3750305,0.0015259-2.0625477,0.0022879c-1.4334946-0.0000601-2.8669891-0.0001202-4.3004837-0.0001783
		c-0.0878735-0.0004578-0.1757488-0.0009155-0.2636204-0.0013723c-0.3383408-0.0002289-0.6766796-0.0004597-1.0150204-0.0006886
		c-1.1019115-0.0071239-2.2038231-0.0142488-3.3057346-0.0213709c0.1851768-0.5497751,0.6647816-0.2326746,1.0003719-0.3394508
		c0.0989494-0.0003977,0.1978474-0.0010939,0.2967453-0.0017872c0.3241043-0.0020103,0.6482105-0.0040188,0.9723625-0.0056906
		c0.1005688-0.001194,0.201088-0.0027275,0.301609-0.0042591c0.6610985-0.0010138,1.3222008-0.0020275,1.9833431-0.0026598
		c0.1010628,0.0024319,0.2020817,0.0044804,0.3031006,0.0065298c1.340353-0.0011482,2.680706-0.0022955,4.0210857-0.0030594
		C26.4685135,14.9016571,26.6500587,14.9044991,26.8316059,14.9073391z"/>
	<path style="fill:#84BFF8;" d="M40.7709427,18.1010494c-0.4659996-0.4592171-0.9319992-0.9184341-1.3988304-1.3778782
		c-0.168869-0.1718884-0.3369026-0.3435516-0.50494-0.5152168c-0.0643768-0.1362915-0.1287537-0.272584-0.1931305-0.4088774
		c0.0529213-0.0484066,0.1058006-0.0968523,0.1586456-0.1453352c0.4789848,0.0110893,0.9259224,0.5068684,1.4327087,0.0949879
		c-0.512455,1.2145233,0.8796501,1.5625973,1.1092415,2.4394207c-0.0508232,0.0523949-0.1022491,0.1041985-0.1542664,0.1554146
		C41.0705605,18.2627258,40.9207535,18.1818886,40.7709427,18.1010494z"/>
	<path style="fill:#4191DD;" d="M17.4083195,15.2488136c1.1019115,0.007122,2.2038231,0.0142469,3.3057938,0.0212994
		c-0.9681664,0.5375872-2.1219749-0.1991587-3.0743046,0.4476299c-0.1517715,0.007185-0.3035431,0.0143671-0.4550476,0.0216694
		C17.2594566,15.5759583,17.3338871,15.412385,17.4083195,15.2488136z"/>
	<path style="fill:#86B4DC;" d="M28.8660336,14.9089127c-0.2653675,0.0013285-0.5307369,0.002656-0.7961273,0.0036812
		C28.3341789,14.6551189,28.5995617,14.6538439,28.8660336,14.9089127z"/>
	<path style="fill:#86B4DC;" d="M35.9838753,14.89923c-0.1832619-0.0007095-0.3665199-0.001421-0.5498123-0.0025148
		C35.6183128,14.7077971,35.8015976,14.7080717,35.9838753,14.89923z"/>
	<path style="fill:#86B4DC;" d="M26.8316059,14.9073391c-0.1815472-0.00284-0.3630924-0.005682-0.5446682-0.0089045
		C26.4717312,14.7101021,26.6532841,14.7138529,26.8316059,14.9073391z"/>
	<path style="fill:#86B4DC;" d="M37.2579994,14.8890848c-0.1007309,0.0052767-0.2014618,0.0105534-0.3022537,0.0154858
		C37.0512924,14.7961054,37.1520119,14.7899933,37.2579994,14.8890848z"/>
	<path style="fill:#86B4DC;" d="M29.6353416,14.8940868c-0.1008701,0.0016747-0.2017384,0.0033493-0.302639,0.004693
		C29.4320717,14.7936268,29.5329418,14.7908173,29.6353416,14.8940868z"/>
	<path style="fill:#86B4DC;" d="M22.265852,14.9014959c-0.1010189-0.0020494-0.2020378-0.0040979-0.3031006-0.0065298
		C22.0662384,14.7879152,22.1672745,14.7908096,22.265852,14.9014959z"/>
	<path style="fill:#86B4DC;" d="M18.7054367,14.9075756c-0.0988979,0.0006933-0.1977959,0.0013895-0.2967453,0.0017872
		C18.507021,14.7987385,18.6059494,14.7974339,18.7054367,14.9075756z"/>
	<path style="fill:#86B4DC;" d="M19.9794083,14.8976259c-0.1005211,0.0015316-0.2010403,0.0030651-0.301609,0.0042591
		C19.7769089,14.7928743,19.8774529,14.7910891,19.9794083,14.8976259z"/>
	<path style="fill:#86B4DC;" d="M38.0196686,14.8844595c-0.1000519,0.0087357-0.2000999,0.0174704-0.3002167,0.0259151
		C37.810936,14.801363,37.910656,14.7885027,38.0196686,14.8844595z"/>
	<path style="fill:#84BFF8;" d="M38.6374207,15.4342794c0.0647621,0.073432,0.129528,0.1468639,0.1947784,0.2198792
		c-0.0523567,0.0480661-0.1052361,0.0965118-0.1580391,0.1448154c-0.0667686-0.0634403-0.1336479-0.1267748-0.200531-0.1901102
		C38.5032654,15.5272484,38.5578613,15.4690533,38.6374207,15.4342794z"/>
	<path style="fill:#1E75CA;" d="M17.6398087,15.7177429c0.9523296-0.6467886,2.1061382,0.0899572,3.0743046-0.4476299
		c0.3382816,0.0003004,0.6766205,0.0005312,1.014925,0.0006981c0.087244,0.1093245,0.1751404,0.1102324,0.2636566,0.0014324
		c1.4334946,0.0000601,2.8669891,0.0001202,4.3004475,0.000124c0.0174961,0.1660023,0.0350266,0.3320627,0.0525589,0.4981213
		c0.0182152,0.3345165,0.0364323,0.669035,0.0546494,1.0035534c-0.0117168,0.0774765-0.0354404,0.1510868-0.0711212,0.2207527
		c-0.0919113-0.0847301-0.1838684-0.1693878-0.2758236-0.254055c0.0970802-0.7480936-0.1911106-1.0419779-0.9810562-1.0298634
		C22.5953827,15.748867,20.1173973,15.7204437,17.6398087,15.7177429z"/>
	<path style="fill:#84BFF8;" d="M26.387188,18.0500107c-0.0408268-0.1010685-0.0816517-0.2021351-0.1227074-0.3032379
		c0.0373211-0.0901508,0.0748711-0.1802673,0.1125984-0.2703934C26.5640888,17.6644039,26.5553646,17.8558254,26.387188,18.0500107z
		"/>
	<path style="fill:#1F7EDC;" d="M7.750535,38.8451042c0.0037918-1.3389435,0.0075841-2.6778793,0.0113721-4.0165558
		c0.3406711-0.005806,0.6813436-0.0118828,1.0221076-0.0178185c-0.099926,1.0270691,0.1503992,2.0416756,0.0322685,3.0859528
		C8.7279568,38.6774864,8.4749918,38.9393845,7.750535,38.8451042z"/>
	<path style="fill:#1663AC;" d="M10.7713423,34.2380104c-0.9051676-0.0095711-1.8103361-0.0191345-2.7156239-0.0285416
		c1.3714428,0.0001907,1.6091547-1.0261078,1.8550768-2.0561028c-0.4798994-0.3959541-1.1798258,0.0946503-1.6362734-0.3962841
		c0.6555433-0.1075649,1.6068068-0.0803776,1.6570959-0.8423901c0.07057-1.0693321,0.3381052-2.2236328-0.2673426-3.263237
		c-0.1380596-0.15308-0.2761183-0.3061638-0.414176-0.4592419c0.3599491-0.816349,0.2837849-1.6833763,0.2951822-2.540226
		c0.9856138-0.3319416,1.3300505-0.0872135,1.288579,1.0475388C10.7299547,28.5426521,10.781909,31.3914738,10.7713423,34.2380104z"
		/>
	<path style="fill:#1F7EDC;" d="M9.5452824,24.6519871c-0.0113983,0.8568497,0.0647659,1.723877-0.2950592,2.5403805
		c-0.5015316-0.0076466-1.0031872-0.0154476-1.5048428-0.0232487c0.0193958-0.9046001,0.0387912-1.8092041,0.058187-2.7138062
		c0.1495118-0.0147991,0.2990222-0.0295982,0.448565-0.0445843c0.0979643,0.1226749,0.1915884,0.1176033,0.2810993-0.0096493
		c0.0781918-0.0161648,0.1559496-0.0341969,0.233243-0.0541725C9.0260553,24.4485512,9.2856684,24.5502701,9.5452824,24.6519871z"/>
	<path style="fill:#1663AC;" d="M10.8166609,21.8217869c-0.2296143-0.0196171-0.5982685,0.0688744-0.6240101-0.1958733
		c-0.04319-0.4442158,0.3857431-0.25494,0.6248522-0.3143578C10.8172932,21.4816113,10.8169765,21.651701,10.8166609,21.8217869z"/>
	<path style="fill:#1F7EDC;" d="M8.2745504,31.7571106c0.456419,0.4909058,1.1563454,0.0003014,1.6362448,0.3962555
		c-0.2459221,1.029995-0.483634,2.0562935-1.8550768,2.0561028c-0.101984,0.0302963-0.2040882,0.0607567-0.3061914,0.0912857
		c-0.0733457-0.0222511-0.1469049-0.0438576-0.2206941-0.0646248c0.4279819-0.8165779,0.1851878-1.6892204,0.2117853-2.5393925
		c0,0,0.0213208-0.0924053,0.0211172-0.0920715C7.9325376,31.6557064,8.1035433,31.7064075,8.2745504,31.7571106z"/>
	<path style="fill:#84BFF8;" d="M41.8871803,18.6980629c0.2999573,0.0416031,0.446743,0.2404137,0.5244102,0.5102997
		c-0.0628624,0.0476227-0.1249046,0.0970459-0.1853142,0.1476784c-0.1632385-0.1700897-0.3268738-0.3398533-0.4905167-0.5096149
		C41.7854233,18.7961426,41.8358994,18.7466888,41.8871803,18.6980629z"/>
	<path style="fill:#84BFF8;" d="M41.6310081,18.4442577c0.0851555,0.084816,0.1703033,0.1696281,0.2558174,0.2541237
		c-0.0509262,0.0483074-0.1014023,0.0977612-0.1507034,0.1476803c-0.0867882-0.0830097-0.1739311-0.1656551-0.2610779-0.2483006
		C41.5265045,18.5460567,41.5784912,18.4948902,41.6310081,18.4442577z"/>
	<path style="fill:#84BFF8;" d="M41.3746376,18.1881504c0.0852089,0.0855961,0.1704216,0.1711903,0.2560005,0.2564468
		c-0.0521469,0.050293-0.1041336,0.1014595-0.1551743,0.1527405c-0.0847511-0.0848713-0.1699219-0.169323-0.2550926-0.2537727
		C41.2723885,18.2923489,41.3238144,18.2405453,41.3746376,18.1881504z"/>
	<path style="fill:#4191DD;" d="M41.2203712,18.343565c0.0851707,0.0844498,0.1703415,0.1689014,0.2550926,0.2537727
		c0.0867271,0.0830688,0.1738701,0.1657143,0.2606583,0.248724c0.1632805,0.170126,0.3269157,0.3398895,0.4901543,0.5099792
		c0.035511,0.136652,0.071434,0.272974,0.1074448,0.4091778c-0.9111099-0.18857-1.1461678-1.0118179-1.5627441-1.6644249
		C40.9207535,18.1818886,41.0705605,18.2627258,41.2203712,18.343565z"/>
	<path style="fill:#1F7EDC;" d="M38.8671722,16.2079544c0.1680374,0.1716652,0.336071,0.3433285,0.50494,0.5152168
		c-2.8063316-0.1021652-5.6382942,0.3497047-8.4201393-0.4075851c-0.3255062-0.0886116-0.7288475,0.1086693-1.0960064,0.1733818
		c-0.1144505,0.0542202-0.2289982,0.1084747-0.343544,0.1627312c0,0-0.0571671-0.0647717-0.055378-0.0653553
		c0.237915-0.5578613,0.6553974-0.8519716,1.2635746-0.8573141c0.62813-0.0055189,1.2582016-0.0348349,1.8841515,0.001956
		C34.6947784,15.8538265,36.8332253,15.3543177,38.8671722,16.2079544z"/>
	<path style="fill:#1E75CA;" d="M29.5124226,16.6516991c0.1145458-0.0542564,0.2290936-0.108511,0.3435459-0.1627312
		c-0.002491,0.1796494-0.0048809,0.3592606-0.0073338,0.5388374C29.7365246,16.9024124,29.6244736,16.7770538,29.5124226,16.6516991
		z"/>
	<path style="fill:#4191DD;" d="M29.3164978,19.7732601c-0.0201397-0.2353706,0.0742722-0.4026604,0.2943668-0.4952774
		C29.6061535,19.4985752,29.5608101,19.6950455,29.3164978,19.7732601z"/>
	<path style="fill:#1E75CA;" d="M38.8671722,16.2079544c-2.033947-0.8536367-4.1723938-0.3541279-6.2624016-0.4769688
		c-0.6259499-0.0367908-1.2560215-0.0074749-1.8841515-0.001956c-0.6081772,0.0053425-1.0256596,0.2994528-1.2635746,0.8573141
		c-0.2902184-0.2088299-0.5786457-0.4182453-0.8668518-0.6275625c-0.087841-0.0761738-0.1759014-0.1524439-0.2639618-0.2287121
		c0.0098305-0.1533127,0.0196629-0.3066225,0.0294952-0.4599352c0.333744-0.0023499,0.6674843-0.0046968,1.0011902-0.0070992
		c0.335989,0.2695665,0.6737251,0.2714663,1.0131626,0.0064106c1.4396267-0.0005426,2.8792534-0.0010872,4.3188362-0.0016823
		c0.0880737,0.1093483,0.1758766,0.1075945,0.2633705-0.0008068c0.1678925-0.0002165,0.3357811-0.0004358,0.5036354-0.000721
		c0.9013176,0.4157829,1.8599854,0.0767498,2.7827034,0.2112179c0.078331,0.0435219,0.1566658,0.0870419,0.2350006,0.1309862
		c0.0668869,0.0637598,0.1337662,0.1270943,0.2005348,0.1905346C38.7384186,15.9353704,38.8027954,16.0716629,38.8671722,16.2079544
		z"/>
	<path style="fill:#4191DD;" d="M27.2549076,18.2599525c0.00667-0.4277782,0.01334-0.8555603,0.0200844-1.2832432
		c0.3454781-0.1186638,0.7719746,0.147789,1.064127-0.2239094c0.255537,0.8064137,0.7491684,1.6379395-0.2439289,2.3125744
		c-0.2590885-0.0090446-0.5181999-0.0180283-0.7773094-0.0270119c-0.0205593-0.1706791-0.0411205-0.3413563-0.0615501-0.5120068
		C27.2559452,18.4375725,27.2554283,18.3487625,27.2549076,18.2599525z"/>
	<path style="fill:#4191DD;" d="M28.3557262,15.2701359c-0.0098324,0.1533108-0.0196648,0.3066206-0.0293522,0.4598866
		c-0.335041,0.0659933-0.7088013-0.0748491-1.0073223,0.1878109c-0.2529583,0.0045853-0.5059147,0.0091696-0.7588615,0.0140162
		c-0.0714893-0.0536156-0.1429901-0.1074896-0.2144909-0.1613607c-0.0175304-0.1660585-0.0350609-0.332119-0.052557-0.4981194
		C26.9806957,15.2716618,27.6682091,15.2708979,28.3557262,15.2701359z"/>
	<path style="fill:#B0E4F9;" d="M28.339119,16.7528c-0.2921524,0.3716984-0.7186489,0.1052456-1.0641251,0.2239094
		C27.3629856,16.3606071,27.5520935,16.320837,28.339119,16.7528z"/>
	<path style="fill:#B0E4F9;" d="M27.3178806,19.0383625c0.2591095,0.0089836,0.5182209,0.0179672,0.7773094,0.0270119
		c-0.0455227,0.1970654-0.0873833,0.4018536-0.3433533,0.4221916
		C27.4308853,19.5130711,27.3508186,19.2962017,27.3178806,19.0383625z"/>
	<path style="fill:#84BFF8;" d="M27.3190517,15.9178333c0.298521-0.26266,0.6722813-0.1218176,1.0073223-0.1878109
		c0.0879173,0.0763149,0.1759777,0.152585,0.2638187,0.2287588C28.1663303,15.9450693,27.7426929,15.9314528,27.3190517,15.9178333z
		"/>
	<path style="fill:#84BFF8;" d="M26.3457012,15.7704887c0.0714989,0.0538712,0.1429996,0.1077452,0.214489,0.1613607
		c0.0067921,0.2919378,0.0766277,0.5961218-0.1600018,0.8420973C26.3821335,16.4395237,26.3639164,16.1050053,26.3457012,15.7704887
		z"/>
	<path style="fill:#B0E4F9;" d="M27.2549076,18.2599525c0.0005207,0.08881,0.0010376,0.1776199,0.0014229,0.2664032
		c-0.0260391-0.0619259-0.0600414-0.1221752-0.0731907-0.1866741
		C27.1788921,18.3188477,27.2294292,18.2868443,27.2549076,18.2599525z"/>
	<path style="fill:#84BFF8;" d="M6.7100425,34.5859299c0.1019711,0.0522118,0.2039404,0.1044197,0.3059921,0.1563454
		C6.9140916,34.6899719,6.812067,34.6379547,6.7100425,34.5859299z"/>
	<path style="fill:#DDF2FA;" d="M47.4315109,28.0644226c-0.2714195-0.6343098-0.2714195-0.6343098,0.9840775-0.6746826
		c0.077034,0.0359993,0.1577187,0.0489655,0.2420883,0.0389805l-0.0020828,0.0025597
		c0.277153,0.5047455,0.8980103,0.9472542,0.2343483,1.6065178c-0.2245636,0.223074-0.0158081,0.4517517,0.1011887,0.677206
		c0.4077339,0.7856808,0.1295815,1.3659725-0.5810089,1.7991142c-0.4566498-0.0235767-0.913166-0.0473213-1.3770447-0.0714493
		c-0.0156784-0.63134,0.5351219-0.3400307,0.7130051-0.5653572c0.1905403-0.2413712,0.6140366-0.3980141,0.4246216-0.8142128
		c-0.2119293-0.4656734-0.4512558-0.0144997-0.6768913-0.0115452c-0.7746544,0.0101299-0.6077003-0.5962753-0.5942001-1.0784283
		c0.4424782-0.0485802,1.0605392,0.2416363,1.2147408-0.4181004C48.215992,28.1201935,47.723732,28.149229,47.4315109,28.0644226z"
		/>
	<path style="fill:#1F7EDC;" d="M47.3442039,31.7854595c0.1857796,0.0553246,0.371563,0.1106472,0.5572701,0.1657429
		c0.3942642,0.6661339,0.2664566,1.3878555,0.2224197,2.1009445c-0.1242065-0.0062904-0.2526093,0.0057411-0.3713264-0.022686
		c-0.4854355-0.1162338-1.3538322,0.2703896-1.396553-0.2669373C46.3009529,33.0700607,46.4816246,32.1740379,47.3442039,31.7854595
		z"/>
	<path style="fill:#DDF2FA;" d="M45.9935036,31.0295372c0.3426361-0.0080833,0.3921661,0.2551041,0.4627037,0.4995155
		C46.1077118,31.5430851,45.9608803,31.3694916,45.9935036,31.0295372z"/>
	<path style="fill:#1E75CA;" d="M47.4315109,28.0644226c0.2922211,0.0848064,0.784481,0.0557709,0.6828423,0.4906025
		c-0.1542015,0.6597366-0.7722626,0.3695202-1.2147408,0.4181004
		C46.8286018,28.5249405,46.9566422,28.1932087,47.4315109,28.0644226z"/>
	<path style="fill:#67ABEC;" d="M48.6576767,27.4287205c-0.0843697,0.009985-0.1650543-0.0029812-0.2420883-0.0389805
		c-0.006031-0.0716553-0.0120697-0.1432152-0.0183105-0.2146263C48.483963,27.2597485,48.5708199,27.3442326,48.6576767,27.4287205z
		"/>
	<path style="fill:#67ABEC;" d="M43.5441246,14.626771c0.7162476-0.3945532,1.1523361-0.2154884,1.2679901,0.6194468
		C44.307148,15.2080173,43.9589462,14.8492231,43.5441246,14.626771z"/>
	<path style="fill:#1E75CA;" d="M45.3752785,16.4706345c0.0769501,0.0126305,0.1509666,0.0349579,0.2218056,0.0673542
		C45.4769592,16.6663017,45.4178085,16.5956554,45.3752785,16.4706345z"/>
	<path style="fill:#1663AC;" d="M29.6041679,12.18641c-0.0586262-0.0814333-0.1172523-0.1628656-0.1757603-0.2442055
		C29.487072,12.0236664,29.54562,12.1050386,29.6041679,12.18641z"/>
	<path style="fill:#67ABEC;" d="M6.0308366,31.742075c0.0001616-1.7841282,0.0003257-3.5682526,0.0001626-5.352396
		c0.675005,0.0075245,0.2223983,1.0330334,0.9205966,1.0201149C6.948307,28.7695274,6.944797,30.1292877,6.941287,31.4890556
		C6.6378031,31.5733967,6.3343196,31.6577377,6.0308366,31.742075z"/>
	<path style="fill:#4DA2F9;" d="M6.9513726,27.4098206c-0.6979752,0.0128918-0.2453685-1.0126171-0.9203734-1.0201416
		c-0.0082455-0.0818329-0.0225282-0.1635437-0.0245523-0.2455502c-0.0449657-1.8228626-0.0447078-1.8228703,1.7969375-1.6891022
		c-0.0192127,0.9048882-0.0386081,1.8094921-0.057898,2.714077C7.4808517,27.2493305,7.2161126,27.3295784,6.9513726,27.4098206z"/>
	<path style="fill:#4DA2F9;" d="M6.0308366,31.742075c0.303483-0.0843372,0.6069665-0.1686783,0.9106908-0.2530575
		c0.2665238,0.069212,0.5328078,0.1384659,0.7990909,0.2077198c-0.0265975,0.850172,0.2161965,1.7228146-0.2117853,2.5393925
		c-0.4318094,0.0006752-0.863636,0.0014687-1.2954011,0.0024605c-0.0693631-0.071991-0.1387863-0.1441841-0.2082095-0.2163734
		C6.0270929,33.2621689,6.028965,32.502121,6.0308366,31.742075z"/>
	<path style="fill:#67ABEC;" d="M6.0252223,34.0222168c0.0694232,0.0721893,0.1388464,0.1443825,0.2082095,0.2163734
		C6.1639872,34.1663361,6.094605,34.0942726,6.0252223,34.0222168z"/>
	<path style="fill:#4DA2F9;" d="M8.5332317,24.4010792c-0.0895109,0.1272526-0.183135,0.1323242-0.2810993,0.0096493
		C8.3458109,24.4076347,8.4395208,24.4043598,8.5332317,24.4010792z"/>
	<path style="fill:#4191DD;" d="M38.2386246,15.4774532c-0.922718-0.1344681-1.8813858,0.204565-2.7827034-0.2112179
		C36.3873024,15.2867985,37.3448753,14.9615726,38.2386246,15.4774532z"/>
	<path style="fill:#4191DD;" d="M30.370079,15.2694454c-0.3394375,0.2650557-0.6771736,0.2631559-1.0131626-0.0064106
		C29.6946621,15.2652082,30.0323696,15.2673273,30.370079,15.2694454z"/>
	<path style="fill:#4191DD;" d="M34.9522858,15.2669563c-0.0874939,0.1084013-0.1752968,0.1101551-0.2633705,0.0008068
		C34.7767372,15.2675266,34.8645134,15.2672415,34.9522858,15.2669563z"/>
	<path style="fill:#4191DD;" d="M21.9926949,15.2722454c-0.0885162,0.108798-0.1764126,0.1078901-0.2636566-0.0014343
		C21.816946,15.2713299,21.9048214,15.2717876,21.9926949,15.2722454z"/>
	<path style="fill:#DDF2FA;" d="M7.7406182,31.6967373c-0.266283-0.0692539-0.532567-0.1385078-0.7990909-0.2077236
		c0.0032697-1.359726,0.0067797-2.7194862,0.0100684-4.0792198c0.2645168-0.0802155,0.5292559-0.1604633,0.7938905-0.2406902
		c0.5015497,0.0078163,1.0032053,0.0156174,1.5047369,0.0232639c0.1379337,0.1529236,0.2759924,0.3060074,0.4135103,0.4590454
		c-0.469018,0.1307697-0.9374933,0.2615738-1.4059696,0.3923874c-0.4933872,0.1010284-0.4660888,0.4760609-0.4459062,0.8473492
		c0.2373548,0.5260983,1.0936904,0.1374702,1.2209802,0.8262196c-0.4756746,0.0597839-1.165946-0.3552551-1.2711453,0.5388851
		c-0.0988646,0.8402939,0.5643563,0.6344147,1.018393,0.706356c-0.1387758,0.5321846-0.6799097,0.4259987-1.0181465,0.6417217
		L7.7406182,31.6967373z"/>
	<path style="fill:#B0E4F9;" d="M8.2577639,28.0438004c0.4684763-0.1308136,0.9369516-0.2616177,1.4059696-0.3923874
		c0.6059895,1.0396461,0.3384542,2.1939468,0.2678843,3.263279c-0.0502892,0.7620125-1.0015526,0.7348251-1.6570969,0.8423939
		c-0.1709776-0.0506783-0.3419833-0.1013794-0.5127854-0.15242c0.3384404-0.2160568,0.8795743-0.1098709,1.0182662-0.6420403
		c0.5470171-0.3210793,0.6677952-0.7287617,0.2528362-1.2452564c-0.1272898-0.6887493-0.9836254-0.3001213-1.2211342-0.8264236
		c0.4569407-0.0114994,1.1065788,0.3518314,1.2903051-0.2725945C9.2816076,28.0079517,8.5799217,28.195507,8.2577639,28.0438004z"/>
	<path style="fill:#5B94C9;" d="M9.0328379,29.7173691c0.414959,0.5164948,0.2941809,0.9241772-0.2528362,1.2452564
		c-0.4539528-0.0719566-1.1171737,0.1339226-1.0183091-0.7063713C7.8668919,29.362114,8.5571632,29.777153,9.0328379,29.7173691z"/>
	<path style="fill:#1E75CA;" d="M8.2577648,28.0438004c0.3221569,0.1517067,1.0238428-0.0358486,0.844244,0.5745506
		c-0.1837263,0.6244259-0.8333645,0.261095-1.2903051,0.2725945C7.7916751,28.5198612,7.7643766,28.1448288,8.2577648,28.0438004z"
		/>
</g>
</svg>
