<?xml version="1.0" encoding="utf-8"?>
<!-- Generator: Adobe Illustrator 21.1.0, SVG Export Plug-In . SVG Version: 6.00 Build 0)  -->
<svg version="1.1" id="Слой_1" xmlns="http://www.w3.org/2000/svg" xmlns:xlink="http://www.w3.org/1999/xlink" x="0px" y="0px"
	 viewBox="0 0 55 45" style="enable-background:new 0 0 55 45;" xml:space="preserve">
<g>
	<path style="fill:#5B6267;" d="M48.7481842,33.905201c-0.2596092,0.3118439-0.4527397,0.7353287-0.9868546,0.5870132
		c-0.1871223,0.0236816-0.1568718,0.1139374-0.0686226,0.2219353l-0.0308533-0.0115166
		c-0.0531921,0.0714684-0.1063652,0.1429253-0.1595459,0.214386l-0.0638924,0.0269508l-0.0693245-0.0014343
		c-0.4083672-0.0776062-0.867588-0.3119621-1.0222855,0.3601265c-0.01297,0.0563507-0.1712532,0.0944824-0.2675133,0.114006
		c-0.7562065,0.1533661-1.5137558,0.3001289-2.2708893,0.448925c0.2869644-0.2382202,0.3766861-0.5161819,0.0098534-0.7220078
		c-0.2811775-0.1577644-0.613327-0.2635803-0.9341202-0.3050995c-1.3780861-0.1783485-2.6942062-0.4677544-3.8814049-1.2802849
		c-0.925869-0.6336746-1.5065765-1.4473267-1.9576111-2.4540195c-0.4151535-0.9265995-0.7217674-1.9024773-1.1860924-2.7966633
		c-0.6285934-1.2105198-1.3180466-2.3849754-1.527195-3.7563095c-0.063385-0.4155884-0.2481308-0.5653477-0.6567345-0.5329151
		c-0.285675,0.0226746-0.7225952-0.0701809-0.559845-0.4000874c0.3339233-0.6768856-0.1296425-0.5020199-0.4384384-0.5114517
		c-0.4342957-0.0132599-0.8692818-0.0038471-1.3040886-0.0041237c0.00247-0.2558765,0.0050564-0.5117569,0.0076447-0.7676392
		c0.5487881-0.0842667,0.8332253-0.6346684,1.3543091-0.7679749c0.0214157,0.1930294,0.1111717,0.3122711,0.3231812,0.2997437
		l0.0009193,0.0050201c0.0490417,0.0504189,0.0980873,0.1008396,0.1471291,0.1512566l0.0053253,0.0069427
		c-0.0030518,0.1280975,0.0183372,0.2436523,0.1542244,0.3004246l0.0018997,0.0020237
		c-0.0150108,0.2324333-0.0187912,0.4572124,0.3102112,0.4552135l-0.0058746-0.001091
		c0.0745392,0.1622734,0.2171059,0.1622105,0.3637466,0.1524353l0.0503273-0.0002651l0.042984,0.0261822
		c0.1176491,0.5081253,0.4549103,0.6235504,0.9221954,0.5259972c0.8073769-0.1685467,1.228508-0.9944477,1.0771179-2.0432034
		c-0.0666389-0.4616451-0.2606392-0.7043018-0.7452812-0.6530952c-0.0606689-0.0958347-0.1213341-0.1916676-0.1819992-0.2875004
		c-0.0600319-0.6480179,0.1703606-1.2486668,0.3041916-1.8650665l-0.0025139,0.0030937
		c0.0556908-0.0519352,0.1113777-0.1038685,0.1670647-0.1558037c0.2102203-0.2023315,0.207756-0.40411-0.001564-0.6053543
		c-0.0456085-0.0477123-0.0912132-0.0954266-0.1368179-0.1431389c-0.0119095-0.1581211-0.0238152-0.3162384-0.0357208-0.4743576
		c0.1505508-0.0100098,0.378952,0.028389,0.4119186-0.1277943c0.157692-0.7470531,0.7706223-1.4214401,0.371727-2.2621231
		c-0.1451645-0.3059301-0.1639442-0.6369991-0.157711-0.9746351c0.0056725-0.3072491,0.1024094-0.4665661,0.440361-0.4822149
		c0.6856651-0.0317459,1.3701935-0.1457357,2.05439-0.1394081c1.3383827,0.0123777,2.6715012-0.1232176,4.0033607-0.1235266
		c0.6083069-0.0001411,1.2078056-0.3044033,1.8255386-0.0448236c0.8388252,0.3524857,1.69841-0.0793219,2.5721397,0.0372009
		c0.7235985,0.0965014,1.4258728,0.3181744,1.3388252,1.032052c-0.0992393,0.8138742,0.0224991,1.6361675-0.1651726,2.4330854
		c-0.0620422,0.2634525-0.1295547,0.526062,0.049572,0.7309055c0.5090141,0.5820961,0.2756462,1.1437969-0.0236015,1.6916065
		c-0.2116089,0.3873825-0.2885475,0.6997032-0.0086327,1.1219425c0.2138405,0.3225784,0.3763847,0.7874775,0.326561,1.1573944
		c-0.1940575,1.4408417,0.0684547,2.8805656-0.093689,4.3247662c-0.154911,1.3796883,0.5179634,2.7439022,0.1590347,4.1693802
		c-0.1088943,0.4324436-0.3412933,0.8172894-0.3636551,1.3031559C48.1910019,32.0997353,48.6122398,32.9706154,48.7481842,33.905201
		z M36.5103111,17.868988c-0.0397339-0.1226425-0.1360664-0.138567-0.238739-0.1103287
		c-0.126976,0.0349216-0.2461433,0.1052856-0.2363319,0.2541714c0.0088806,0.1346569,0.1163979,0.1493797,0.2200012,0.0967484
		C36.3614578,18.0556221,36.5049744,18.0329933,36.5103111,17.868988z"/>
	<path style="fill:#2E2C2B;" d="M29.0561771,32.9381676c-1.4341679,3.2894516-4.5640945,5.3283463-8.442646,4.8849907
		c-0.3873005-0.4150162-0.8164082-0.7798882-1.2482719-1.149456c-0.780098-0.6675797-1.7268181-1.2680283-1.6829128-2.5059204
		c0.4861526-0.0127411,0.9886131-0.3650475,1.4593296,0.0738983c0.028244,0.0263329,0.2097664-0.0411758,0.2483082-0.106987
		c0.5853329-0.9994354,0.7420235-0.2221832,0.9847908,0.2280312c0.0127735,0.0236855,0.0910645,0.012043,0.1399384,0.0169563
		c0.1943054-0.2568512-0.0268917-0.4850464-0.0416985-0.7264137c-0.0110893-0.180809-0.1264706-0.469677,0.1834393-0.4808578
		c0.1993103-0.0071869,0.4313545,0.2292404,0.3698635,0.4131737c-0.1671982,0.500145,0.2134953,0.626461,0.481123,0.8588982
		c0.0732594-0.4148293-0.1352425-0.7521667-0.2416935-1.1145134c-0.0469894-0.1599388-0.3389969-0.3738823-0.0050945-0.4978065
		c0.2426167-0.0900459,0.2539749,0.1839333,0.3101921,0.3396149c0.2331161,0.645546,0.5373287,1.2672577,0.6601391,1.9500809
		c0.050333,0.2798653,0.1727772,0.5715981-0.1185627,0.8503838c-0.0990696-0.2302704-0.1420517-0.4417534-0.2642536-0.5862274
		c-0.1556759-0.1840553-0.3839474-0.094429-0.4010849,0.1067657c-0.0427189,0.501545,0.2729378,0.9313431,0.5069695,1.3153915
		c0.1489353,0.2444038,0.6584911,0.3673935,1.0533371,0.2176018c0.2316151-0.0878677,0.444294-0.1940041,0.1126118-0.4652328
		c-0.3574066-0.292263-0.403944-0.7506866-0.517168-1.1659012c-0.1924362-0.7056808-0.2435722-1.4464569-0.6968727-2.0809593
		c-0.2325554-0.3255157-0.2358952-0.7509651,0.3692932-1.176384c-0.9519672,0.0798874-1.4718876,0.5302048-2.0708103,0.7692566
		c-0.195364,0.0779762-0.6086388,0.2655449-0.578373,0.0579109c0.1027851-0.705162-0.9802494-1.1710777-0.2816029-1.9014702
		c-0.3157806-0.1754208-0.5331001,0.3828831-0.7903099,0.0139008c-0.1979809-0.2840157-0.039444-0.5147648,0.1088791-0.7691994
		c0.1112766-0.1908913,0.1529675-0.4293251,0.1945801-0.6523838c0.0846958-0.4540005-0.1811428-0.7736588-0.5717564-0.65452
		c-0.4572258,0.1394558-0.4149933-0.2516975-0.6114597-0.3741512c0.1110401-0.1846695,0.178299-0.3816795,0.1691856-0.600214
		c0.6526184,0.3057289,0.8803978-0.0158997,0.9164677-0.6206226c0.0480118-0.5164337,0.0960217-1.0328712,0.1441116-1.5492039
		c0.1475563-0.1010132,0.2950344-0.2021294,0.4425144-0.3032475c0.6462231-0.2178288,1.2766666-0.4706039,1.8263493-0.8850193
		c0.4932747-0.3718929,0.9694672-0.7670002,1.4704075-1.1279774c0.3962421-0.285532,0.5420418-1.0338745,1.27738-0.713541
		c0.0001488-0.0492363,0.0118599-0.1018505-0.0013695-0.1471825c-0.1136112-0.3893471,0.117321-0.217638,0.3172302-0.2440643
		c0.4226284-0.0558643,1.131258,0.3931293,1.1370125-0.5453472c0.2799854-0.005949,0.5603294-0.0236664,0.8398743-0.0151424
		c0.4420586,0.0134811,0.8829842,0.0455418,1.003624,0.6020393c0.1540966,0.4266205,0.502037,0.906662-0.3445301,1.0136471
		c-0.1446896,0.0182858-0.110014,0.2611771-0.1205921,0.4116898c-0.0171909,0.2445812,0.0761814,0.5815754-0.2444401,0.6504097
		c-0.2895908,0.0621719-0.2903996-0.2929802-0.4136505-0.4667931c-0.1143551-0.1612701-0.1417236-0.4439468-0.3744621-0.4429874
		c-0.2946758,0.0012169-0.1221447,0.3543568-0.2653942,0.4774647c-0.279377,0.2400932-0.5540714,0.9273014-0.8985119,0.5407467
		c-0.6039982-0.6778564-0.7907486,0.0565319-0.7902985,0.2230587c0.0018921,0.6956787-0.4128685,1.0227413-0.9868011,1.2700081
		c0.2748013,0.265379,0.4542675,0.1159229,0.669075,0.0349045c0.7033672-0.2652969,1.2903976,0.072422,1.4422016,0.8214645
		c0.0587902,0.2901039,0.02878,0.6027298,0.3402252,0.8923836c-0.0727978-0.5331268-0.1322575-0.9827118-0.1966324-1.431591
		c-0.0198498-0.1384201-0.1676788-0.3218899,0.0398846-0.3922997c0.254694-0.0863953,0.2461185,0.1506424,0.3089218,0.3167057
		c0.2071743,0.5478058,0.0798988,1.1907501,0.4475193,1.7399292c0.236433-0.2866421,0.1270409-0.5222645,0.0679455-0.7656174
		c-0.0560207-0.2306824-0.2231064-0.5702763,0.1203861-0.6410847c0.2833939-0.058424,0.6075821,0.0805664,0.5838718,0.5161381
		c-0.0201569,0.3702488,0.170105,0.5914173,0.5238266,0.6845226c0.241272-0.4770279-0.0763702-0.9203091,0.000206-1.3809776
		c0.6500225,0.2709122,0.3569832,0.8728123,0.5400124,1.2855206c0.3267498,0.7367764,0.6417274,1.3743839,0.5955963,2.3092861
		C28.2190456,31.0050125,28.2582989,32.1649246,29.0561771,32.9381676z M21.2178497,25.5596848
		c-0.0676117,0.0206852-0.1352215,0.0413723-0.2028332,0.0620594c0.0135117,0.0196533,0.0270252,0.0393085,0.0405369,0.0589638
		c0.0559635-0.0384808,0.1119289-0.0769596,0.1678123-0.1154976c0.0202923-0.0220394,0.0405846-0.0440788,0.0608768-0.0661182
		C21.2621098,25.519289,21.2399788,25.5394859,21.2178497,25.5596848z M22.1787739,30.844841
		c0.0202427,0.78088,0.4687824,1.3750458,0.8417835,1.9921379c0.2025337,0.3350677,0.7694244,0.4835396,0.8827553,0.2486038
		c0.4471664-0.9269638,0.4524269-0.1716042,0.6058273,0.1108398c0.0663033,0.1220818,0.0904369,0.3114204,0.3071823,0.2591133
		c0.2332535-0.2303505-0.0681858-0.4827347,0.0632324-0.8308983c0.2671204,0.5464897,0.5517998-0.0561562,0.8617077,0.1010323
		c0.1879539,0.0953331,0.436285-0.00103,0.365715-0.2084541c-0.1187096-0.3489151,0.1086407-0.9617405-0.2212009-1.0037556
		c-0.4139614-0.0527306-0.5682964-0.3270931-0.6520271-0.5232124c-0.2428379-0.5688095-0.8015041-0.8157959-1.1362877-1.2804356
		c-0.2250366-0.3123283-0.5792446-0.3508396-0.8600216-0.0635166c-0.4934616,0.5049706-1.0549793,0.8967094-1.6900368,1.1981373
		c-0.1091633,0.0518131-0.3193874,0.1005383-0.2139168,0.3484097C21.7190952,31.3641891,21.841753,30.8182125,22.1787739,30.844841z
		 M20.7724304,34.707386c-0.2642307,0.5816498-0.1546345,0.9771461-0.010685,1.3736229
		c0.0607376,0.1672821,0.1681805,0.2626457,0.3361244,0.1711197c0.1278305-0.069664,0.142828-0.2362289,0.0533409-0.3266602
		C20.8581142,35.6292725,20.9723797,35.2127304,20.7724304,34.707386z M24.4926662,28.435667
		c0.1194572,0.4509468,0.2389183,0.9018955,0.3583755,1.3528423C25.0007801,29.2735176,24.9700108,28.8020706,24.4926662,28.435667z
		 M25.282053,35.008564c0.1160336-0.2367859,0.1289921-0.4253311-0.0133934-0.5999146
		c-0.0132656-0.0162621-0.1108475,0.001236-0.1279907,0.0287666C25.0199585,34.6312904,25.0353508,34.8103561,25.282053,35.008564z
		 M19.1767635,27.04603c0.188324,0.0501385,0.308588,0.0604267,0.4033585-0.0360432
		c0.0201645-0.0205269,0.0127296-0.1108112-0.0070667-0.121212C19.4137764,26.805109,19.309473,26.9028587,19.1767635,27.04603z
		 M23.9992752,33.6462135c0.0269718,0.0411453,0.0507698,0.1183434,0.1012936,0.1451302
		c0.0800228,0.0424232,0.1435909-0.0215416,0.135603-0.0993614c-0.0061531-0.059948-0.0499382-0.1358681-0.1002998-0.1671333
		C24.0428562,33.4670944,24.0218258,33.5525856,23.9992752,33.6462135z M22.5454693,26.5270748
		c-0.0169373-0.0430069-0.0236568-0.1092815-0.0536861-0.1224709c-0.0300159-0.0131836-0.0833549,0.0267448-0.1264706,0.0433941
		c0.0168819,0.0430412,0.0234623,0.1091652,0.0535603,0.1225929C22.4486694,26.5838852,22.5021858,26.5440197,22.5454693,26.5270748
		z M23.3622169,33.4759064c-0.0239754-0.038063-0.0470772-0.0747414-0.0701809-0.1114197
		c-0.020647,0.0381393-0.0580502,0.0766373-0.0572395,0.1143112c0.0008163,0.0378342,0.0396996,0.0748482,0.0619011,0.1122208
		C23.3182316,33.5531807,23.3397675,33.5153465,23.3622169,33.4759064z"/>
	<path style="fill:#636A6F;" d="M48.7481842,33.905201c-0.1359444-0.9345856-0.5571823-1.8054657-0.5117912-2.7917633
		c0.0223618-0.4858665,0.2547607-0.8707123,0.3636551-1.3031559c0.3589287-1.425478-0.3139458-2.7896919-0.1590347-4.1693802
		c0.1621437-1.4442005-0.1003685-2.8839245,0.093689-4.3247662c0.0498238-0.3699169-0.1127205-0.834816-0.326561-1.1573944
		c-0.2799149-0.4222393-0.2029762-0.73456,0.0086327-1.1219425c0.2992477-0.5478096,0.5326157-1.1095104,0.0236015-1.6916065
		c-0.1791267-0.2048435-0.1116142-0.467453-0.049572-0.7309055c0.1876717-0.7969179,0.0659332-1.6192112,0.1651726-2.4330854
		c0.0870476-0.7138777-0.6152267-0.9355507-1.3388252-1.032052c-0.8737297-0.1165228-1.7333145,0.3152847-2.5721397-0.0372009
		c-0.617733-0.2595797-1.2172318,0.0446825-1.8255386,0.0448236c-1.3318596,0.000309-2.664978,0.1359043-4.0033607,0.1235266
		c-0.6841965-0.0063276-1.3687248,0.1076622-2.05439,0.1394081c-0.3379517,0.0156488-0.4346886,0.1749659-0.440361,0.4822149
		c-0.0062332,0.337636,0.0125465,0.668705,0.157711,0.9746351c0.3988953,0.840683-0.214035,1.51507-0.371727,2.2621231
		c-0.0329666,0.1561832-0.2613678,0.1177845-0.4117508,0.1278019c-0.1506729-0.1022892-0.2102165-0.3371048-0.4500694-0.3101673
		c0.0388756-0.2091637-0.0603409-0.3739834-0.1718292-0.5348568c-0.0785828-0.5664549-0.1571655-1.1329088-0.2352753-1.6959572
		c-0.3339996,0.0369415-0.2589836,0.5770836-0.5715714,0.4438772c-0.6281357-0.2676792-0.6933327,0.0037069-0.5848312,0.5122662
		c0.0499496,0.234128-0.0862274,0.2999516-0.263073,0.3861208c-0.2182808,0.1063576-0.1903801,0.2716103-0.0219879,0.4221992
		c-0.3956032,0.937767-0.0220337,1.6693497,0.6240082,2.3277454c-0.0460548,0.1390266,0.0909576,0.4182529-0.225914,0.3564491
		c-0.48283-0.0941734-0.8116379,0.3182144-1.1111145,0.4952488c-0.5530815,0.326952-0.3531227,1.2028809,0.2472191,1.7416649
		c0.0011368,0.0519791,0.0022774,0.1039581,0.0034103,0.1559353c-0.5209694,0.133316-0.8054066,0.6837177-1.3543701,0.7679844
		c-0.0969639-0.5605373-0.2301235-1.118803-0.106039-1.6931515c0.2278805-0.0555038,0.2772942-0.2398643,0.2330246-0.418211
		c-0.2096615-0.8446522,0.0599937-1.7009087-0.1032391-2.5579662c-0.1123657-0.5899601-0.0633602-1.228714,0.0142517-1.832716
		c0.1277084-0.9938316,0.1740589-1.9776468-0.0134525-2.9648132c-0.1470089-0.7739239,0.1822948-0.8965187,0.9955196-0.9414377
		c0.5546799-0.0306387,0.4654541,0.6911888,0.9486237,0.5038223c0.4189949-0.1624784,0.8607903-0.0775366,1.2924728-0.0672531
		c0.1160431,0.0027647,0.2269707,0.1310892,0.3453331,0.1410036c0.5143318,0.0430832,1.179245,0.2801638,1.5160522,0.04879
		c0.7726936-0.5308161,1.6717567-0.2807856,2.2264633-0.1064167c0.985939,0.3099279,0.9940796-0.2540245,1.2254105-0.7675581
		c0.0585365-0.1299438-0.0008621-0.333106,0.2028961-0.3660355c0.2652664-0.0428686,0.2439003,0.2011471,0.3149529,0.3494835
		c0.1558762,0.3254337,0.533844,0.8505726,0.6964836,0.6397095c0.4460945-0.5783615,1.1519241-0.0447721,1.5625992-0.5300407
		c0.1010094-0.1193552,0.2420998-0.157979,0.3044739-0.3646288c0.1804085-0.5977182,0.6952286-0.2312746,1.0497932-0.2640467
		c0.4208031-0.0388927,0.300602,0.2843914,0.2244148,0.5376768c-0.0435257,0.144702-0.0896759,0.3330965,0.0615387,0.4202118
		c0.2022705,0.1165352,0.3089294-0.1155014,0.4538803-0.1989164c0.291275-0.1676207-0.1595459-0.6579084,0.2213783-0.6941481
		c0.4785767-0.0455313,0.056675,0.469882,0.2788506,0.6281385c0.0596199,0.04247,0.1470375,0.0439682,0.2120247,0.0811644
		c0.6624413,0.379179,0.6070061-0.3721781,0.8877716-0.6222878c0.1561394,0.2206707,0.0101547,0.6027794,0.4073296,0.5824308
		c0.1715012-0.0087881,0.4220963,0.06425,0.4582291-0.1597433c0.0625229-0.3876038,0.1663246-0.2548895,0.4118042-0.135417
		c0.934967,0.4550409,1.4903488,0.1521616,1.6499214-0.8425293c0.014122-0.0880222,0.1039581-0.1638975,0.1586266-0.2454147
		c0.1568146,0.471302,0.1338577,0.9623413,0.1331558,1.4455452c-0.0090485,6.2165594-0.0156898,12.4331694-0.0516777,18.649601
		C49.5863457,31.7494888,49.6733971,32.9651642,48.7481842,33.905201z"/>
	<path style="fill:#DA322C;" d="M4.2131238,22.1876545c0.0959501-0.8025608,0.5462375-1.4688778,0.8435035-2.1939011
		c0.4164186,0.523447,0.0242729,1.1693363,0.256115,1.7811718c0.3440728-0.3550434,0.2221818-1.149168,0.9942751-0.9744434
		c-0.0078945,0.0846844-0.0158396,0.1694012-0.0237846,0.2541161l-0.0228019,0.0400677
		c-0.3105249,0.2937603-0.417213,0.6601658-0.3836741,1.0765457c-0.0862308,0.4865742,0.0562148,0.7932072,0.6102638,0.7758732
		c0.1694317,0.2535477,0.421237,0.3117924,0.7039995,0.2964897c-0.3003998,0.2974911-0.2514858,0.6306171-0.1194892,0.9862194
		c0.1021061,0.275074,0.2474608,0.4686699,0.5631919,0.3459511c0.314374-0.1221905,0.6650934-0.2568378,0.3654289-0.7090988
		c0.3594255,0.0740089,0.5897303-0.0493317,0.6531343-0.4276218c0.0532541-0.1013622,0.1067619-0.2025108,0.1602688-0.3036575
		c0.135828-0.1687527,0.271656-0.3375072,0.4074841-0.5062599c0.0149851,0.2433376,0.2103748,0.3186359,0.3797226,0.4349575
		c1.1551666,0.7934551,2.533329,1.0773659,3.7723789,1.6705246c0.7864685,0.3764992,1.5182056,0.880867,2.2306614,1.3893013
		c0.1879387,0.1341209,0.617672,0.4940224,0.2737637,0.7333965c-0.4908438,0.3416462-0.2181206,0.4252758,0.0592165,0.6066437
		c0.1951017,0.1275864,0.3643656,0.2836971,0.3711042,0.5447483c-0.1851559,0.0738029-0.2884941,0.3071537-0.5252447,0.2765999
		c-0.1369905-0.0176735-0.3089342-0.1567688-0.3668795,0.0864658c-0.0466805,0.1959534,0.1306629,0.254631,0.2612534,0.3244514
		c0.3513622,0.1878567,0.6606083,0.4183292,0.9090347,0.7742767c-0.6434507,0.1070499-1.0912638,0.6323681-1.8003302,0.4252949
		c0.3293829,0.6865196,1.1471472,0.3938351,1.5397062,1.0487499c-1.1074133-0.2076607-2.0595341-0.4290638-2.8988323-1.0343113
		c-0.1564417-0.1128159-0.3859348-0.56707-0.671545-0.1330891c-0.273716,0.4159088,0.1810923,0.4172878,0.3653278,0.5735321
		c0.407815,0.3458557,1.0595655,0.485899,1.0287132,1.2062035c-0.7154799-0.4202843-1.4638224-0.773962-2.2060938-1.1427994
		c-0.9641705-0.479105-1.8054228-1.1699696-2.6347122-1.8816299c-0.6139736-0.5268822-1.0819321-1.2934189-1.7874517-1.6022243
		c-1.1184449-0.489542-1.7746105-1.6100216-2.9592538-1.9606724c-0.3093791-0.0915737-0.2155194-0.420639-0.2396455-0.6660366
		C4.2527533,23.5998211,4.4563522,22.8821945,4.2131238,22.1876545z"/>
	<path style="fill:#B8BDBF;" d="M32.1240463,8.60847c0.2297096-0.6552105,0.8136215-0.870841,1.381382-1.0894232
		c1.619133-0.6233463,3.325386-0.7316747,5.0331917-0.8369074c2.6925507-0.1659093,5.3549805,0.2284274,8.0198326,0.4776611
		c1.1017036,0.1030383,2.1942101,0.519238,2.8077393,1.615592c-0.6194229,0.1461887-1.1791458,0.428277-1.7195663,0.7543764
		c-0.7004623-0.0800133-1.3253975,0.2497005-1.9895401,0.366745c-0.1190491-0.0132484-0.2361526-0.0201864-0.3150177,0.0970278
		c-0.3733864-0.0445938-0.7373581-0.1306496-1.1246185-0.090045c-1.0549622,0.1106119-2.113369,0.1883621-3.1704102,0.2791328
		c-1.1140976-0.2695456-2.2410316-0.1797752-3.3668861-0.120307C36.2533379,9.8099356,34.8292885,9.54,33.398262,9.3143091
		C32.8697281,9.2309513,32.4521599,9.0185032,32.1240463,8.60847z"/>
	<path style="fill:#7C8082;" d="M45.3420677,9.9935417c0.0788651-0.1172142,0.1959686-0.1102762,0.3149872-0.0970507
		c0.761776,0.4127264,1.3395004-0.1732607,1.9895706-0.3667221c0.5404205-0.3260994,1.1001434-0.6081877,1.7195663-0.7543764
		c0.2147903,0.3012123,0.1263504,0.6383934,0.1144257,0.9665194c-0.1916542,0.1606836-0.1895332,0.3135986,0.0183754,0.4582644
		c0.0041924,0.0981817,0.0083809,0.1963615,0.0125847,0.294529c-0.0546608,0.0815029-0.1444969,0.1573782-0.1586189,0.2454004
		c-0.1595726,0.9946909-0.7149544,1.2975702-1.6499214,0.8425293c-0.2454796-0.1194725-0.3492813-0.2521868-0.4118042,0.135417
		c-0.0361328,0.2239933-0.2867279,0.1509552-0.4582291,0.1597433c-0.3971748,0.0203485-0.2511902-0.3617601-0.4073296-0.5824308
		c-0.2807655,0.2501097-0.2253304,1.0014668-0.8877716,0.6222878c-0.0649872-0.0371962-0.1524048-0.0386944-0.2120247-0.0811644
		c-0.2221756-0.1582565,0.1997261-0.6736698-0.2788506-0.6281385c-0.3809242,0.0362396,0.0698967,0.5265274-0.2213783,0.6941481
		c-0.1449509,0.083415-0.2516098,0.3154516-0.4538803,0.1989164c-0.1512146-0.0871153-0.1050644-0.2755098-0.0615387-0.4202118
		c0.0761871-0.2532854,0.1963882-0.5765696-0.2244148-0.5376768c-0.3545647,0.0327721-0.8693848-0.3336716-1.0497932,0.2640467
		c-0.0623741,0.2066498-0.2034645,0.2452736-0.3044739,0.3646288c-0.410675,0.4852686-1.1165047-0.0483208-1.5625992,0.5300407
		c-0.1626396,0.2108631-0.5406075-0.3142757-0.6964836-0.6397095c-0.0710526-0.1483364-0.0496864-0.3923521-0.3149529-0.3494835
		c-0.2037582,0.0329294-0.1443596,0.2360916-0.2028961,0.3660355c-0.2313309,0.5135336-0.2394714,1.077486-1.2254105,0.7675581
		c-0.5547066-0.1743689-1.4537697-0.4243994-2.2264633,0.1064167c-0.3368073,0.2313738-1.0017204-0.0057068-1.5160522-0.04879
		c-0.1183624-0.0099144-0.22929-0.1382389-0.3453331-0.1410036c-0.4316826-0.0102835-0.8734779-0.0952253-1.2924728,0.0672531
		c-0.4831696,0.1873665-0.3939438-0.534461-0.9486237-0.5038223c-0.8132248,0.044919-1.1425285,0.1675138-0.9955196,0.9414377
		c0.1875114,0.9871664,0.141161,1.9709816,0.0134525,2.9648132c-0.0776119,0.604002-0.1266174,1.2427559-0.0142517,1.832716
		c0.1632328,0.8570576-0.1064224,1.7133141,0.1032391,2.5579662c0.0442696,0.1783466-0.0051441,0.3627071-0.2333202,0.4181042
		c-0.0830727-2.6514931-0.1658478-5.3028803-0.2486248-7.9542665c-0.042738-0.435194-0.085474-0.870388-0.128212-1.3055811
		c-0.0258045-0.6995707,0.3306732-1.3300705,0.3647594-2.0188198c0.3296108-0.2031002,0.4543839-0.6404667,0.8622894-0.7542992
		c0.3280869,0.4097366,0.7456551,0.6221848,1.274189,0.7055426C34.8292885,9.54,36.2533379,9.8099356,37.6800537,10.0622568
		c1.1116219,0.1897869,2.2336998,0.2560349,3.3592033,0.2813492c1.3153801,0.0703068,2.6159096-0.2522173,3.9329262-0.1488743
		C45.1303864,10.2071466,45.2735214,10.1610737,45.3420677,9.9935417z"/>
	<path style="fill:#4F5353;" d="M31.3728409,23.102623c0.4346924,0.0002842,0.8696785-0.0091286,1.3039742,0.0041313
		c0.3087959,0.0094318,0.7723618-0.1654339,0.4384384,0.5114517c-0.1627502,0.3299065,0.2741699,0.4227619,0.559845,0.4000874
		c0.4086037-0.0324326,0.5933495,0.1173267,0.6567345,0.5329151c0.2091484,1.3713341,0.8986015,2.5457897,1.527195,3.7563095
		c0.464325,0.894186,0.7709389,1.8700638,1.1860924,2.7966633c0.4510345,1.0066929,1.0317421,1.8203449,1.9576111,2.4540195
		c1.1871986,0.8125305,2.5033188,1.1019363,3.8814049,1.2802849c0.3207932,0.0415192,0.6529427,0.1473351,0.9341202,0.3050995
		c0.3668327,0.2058258,0.2771111,0.4837875-0.0098648,0.7219162c0.0014915,0.094265,0.0029869,0.1886253,0.0044785,0.2829819
		c-0.2515602,0.0070038-0.5031242,0.0140076-0.7546844,0.0210075c-0.5029144-0.0219727-1.0057106-0.0749245-1.5043221-0.1076164
		c-0.6270981-0.041111-1.2967148-0.2508087-1.907402,0.123867c-0.676899,0.1173782-1.3074036-0.2958145-1.9847336-0.1735458
		c0.0373421-0.2477036,0.1206284-0.5596237-0.3083382-0.4469337c-0.426796,0.1121216-0.782032-0.0779343-1.1666679-0.1717224
		c-0.5024681-0.1225204-0.9544868-0.4480705-1.5046844-0.3777084c0,0-0.0187874-0.0038414-0.0185547-0.0040741
		c0.0886955-0.2229462,0.0878258-0.4366951-0.0035934-0.6667633c-0.3447075-0.8675194-0.6151123-1.7486305-0.5379829-2.7058105
		c0.0423584-0.5256653,0.0636482-1.0580215,0.0323219-1.5836601c-0.0838928-1.4077225-0.8538704-2.6423683-1.0495911-4.030323
		c-0.0497551-0.3527946-0.3484993-0.6437035-0.4049797-1.0475826c-0.0471077-0.3368645-0.3725662-0.5621872-0.7552547-0.3559589
		c-0.1869774,0.1007595-0.3557644,0.1903763-0.5697746,0.1642971C31.3740311,24.224844,31.373436,23.6637325,31.3728409,23.102623z"
		/>
	<path style="fill:#FB514A;" d="M6.3069673,20.8005123c-0.7720432-0.1747551-0.6501522,0.6193695-0.994225,0.9744129
		c-0.231842-0.6118355,0.1603036-1.2577248-0.256115-1.7811718c0.247726-1.0927277,1.0968843-1.7695313,1.8442059-2.4620514
		c0.9102998-0.8435497,2.0337-1.3937702,3.2682104-1.6631508c0.1020679,0.0332642,0.195652,0.0305653,0.2663784-0.0653629
		c0.1184359-0.0278177,0.2368717-0.0556364,0.3549995-0.0833635c0.4712706,0.2926455,0.9917288,0.1108971,1.4879665,0.1398668
		c0.4842358,0.0282736,0.9746265-0.0096102,1.4305782,0.1918774c1.4083643,0.622366,2.9029226,1.0103397,4.3283701,1.5757389
		c1.8018894,0.714716,3.6581287,1.2447853,5.5011654,1.8239326c0.1020451,0.0375462,0.2040901,0.0750961,0.3061371,0.1126442
		l-0.0055943-0.0062828c0.0018864,0.1073856,0.0037746,0.2147636,0.0056591,0.3221436
		c-1.2777786,0.0051861-2.2469616,0.5866146-2.9229107,1.6393147c-0.2094784,0.3262329-0.1957092,0.8568192-0.8152237,0.5799236
		c-0.0919704-0.0411053-0.229763-0.0126095-0.2050114,0.132452c0.159502,0.9347706-0.3805332,0.4847698-0.7454414,0.3813515
		c-0.4177284-0.1183853-0.7237053-0.0870686-0.6354122,0.4727058c0.0731544,0.46381-0.182909,0.3322048-0.3947487,0.2037258
		c-0.2109203-0.1279202-0.2300243-0.3638725-0.3018742-0.5868759c-0.1692924-0.5254421-0.2745075-1.2033787-0.6549568-1.5020981
		c-0.8491116-0.6667004-1.3669577-1.6510487-2.2356901-2.2422695c-0.7312756-0.4976749-1.4044456-1.1702137-2.4535408-1.1096573
		c-0.5747328,0.0331764-1.1226997-0.3618736-1.57479-0.7257671c-0.9989395-0.8040543-2.1431866-0.6315117-3.1122518,0.1572552
		c-0.7571173,0.6162548-0.8484993,1.5765228-1.5330067,2.1926327c-0.2357535,0.2121964-0.2526574,0.7147732,0.3567224,0.7111893
		c0.0028467,0.1061802,0.0056105,0.2123413,0.0083737,0.3185043c-0.0501933,0.049469-0.1003866,0.098938-0.1505799,0.148407
		c-0.0513315,0.0462322-0.1026621,0.0924644-0.1539931,0.1386967L6.3069673,20.8005123z M18.3032207,22.2924309
		c0.0041122-0.0085983,0.0586624-0.0915222,0.0835667-0.1825542c0.0311546-0.1138668-0.034811-0.2021236-0.146389-0.1661835
		c-0.0756817,0.0243778-0.1458435,0.119381-0.1815052,0.199297C18.0240288,22.2211208,18.0915775,22.2714634,18.3032207,22.2924309z
		"/>
	<path style="fill:#292624;" d="M29.0561771,32.9381676c-0.7978783-0.773243-0.8371315-1.9331551-0.7946301-2.7945232
		c0.0461311-0.9349022-0.2688465-1.5725098-0.5955963-2.3092861c-0.1830292-0.4127083,0.1100101-1.0146084-0.5400124-1.2855206
		c-0.0765762,0.4606686,0.241066,0.9039497-0.000206,1.3809776c-0.3537216-0.0931053-0.5439835-0.3142738-0.5238266-0.6845226
		c0.0237103-0.4355717-0.300478-0.5745621-0.5838718-0.5161381c-0.3434925,0.0708084-0.1764069,0.4104023-0.1203861,0.6410847
		c0.0590954,0.2433529,0.1684875,0.4789753-0.0679455,0.7656174c-0.3676205-0.5491791-0.240345-1.1921234-0.4475193-1.7399292
		c-0.0628033-0.1660633-0.0542278-0.403101-0.3089218-0.3167057c-0.2075634,0.0704098-0.0597343,0.2538795-0.0398846,0.3922997
		c0.0643749,0.4488792,0.1238346,0.8984642,0.1966324,1.431591c-0.3114452-0.2896538-0.281435-0.6022797-0.3402252-0.8923836
		c-0.151804-0.7490425-0.7388344-1.0867615-1.4422016-0.8214645c-0.2148075,0.0810184-0.3942738,0.2304745-0.669075-0.0349045
		c0.5739326-0.2472668,0.9886932-0.5743294,0.9868011-1.2700081c-0.0004501-0.1665268,0.1863003-0.9009151,0.7902985-0.2230587
		c0.3444405,0.3865547,0.6191349-0.3006535,0.8985119-0.5407467c0.1432495-0.1231079-0.0292816-0.4762478,0.2653942-0.4774647
		c0.2327385-0.0009594,0.260107,0.2817173,0.3744621,0.4429874c0.123251,0.1738129,0.1240597,0.528965,0.4136505,0.4667931
		c0.3206215-0.0688343,0.2272491-0.4058285,0.2444401-0.6504097c0.0105782-0.1505127-0.0240974-0.393404,0.1205921-0.4116898
		c0.8465672-0.1069851,0.4986267-0.5870266,0.3444862-1.0135002c0.5471115-0.0669479,0.9962177,0.3313751,1.5310669,0.3226967
		c0.058466,0.1431828,0.1547794,0.2484493,0.3026524,0.3020439c0.6933517,0.8549709,1.1519299,1.8418522,1.4856167,2.8515491
		c0.5693264-0.1789551,0.3190727-0.8614273,0.8230076-0.9949436c-0.021307,1.5914021,0.264164,3.1730194,0.1520004,4.7673187
		c-1.2315254-0.019453-1.1998272-0.0090675-1.5813961,1.15555C29.6990128,31.5867748,29.3514233,32.2538948,29.0561771,32.9381676z"
		/>
	<path style="fill:#A03735;" d="M4.2131238,22.1876545c0.2432284,0.69454,0.0396295,1.4121666,0.108809,2.1158352
		c0.0241261,0.2453976-0.0697336,0.5744629,0.2396455,0.6660366c1.1846433,0.3506508,1.8408089,1.4711304,2.9592538,1.9606724
		c0.7055197,0.3088055,1.1734781,1.0753422,1.7874517,1.6022243c0.8292894,0.7116604,1.6705418,1.4025249,2.6347122,1.8816299
		c0.7422714,0.3688374,1.4906139,0.7225151,2.2061319,1.1427822c0.0424747,0.3525372,0.2578478,0.6419029,0.3771343,0.9660912
		c0.4435949,1.2055702,1.5959129,1.865715,2.3705902,1.4788475c0.3694725,1.0099831,1.0950375,1.8206749,1.5556545,2.779644
		l0.0037479-0.0037727c-0.4541588-0.0708199-0.8615246-0.3428421-1.3394394-0.3115082
		c-1.5657616-1.0692444-3.1344662-2.1342125-4.6965733-3.2087708c-2.1698351-1.4926052-4.3911657-2.9186039-6.4806447-4.5166912
		c-1.2616735-0.9649582-1.7297597-2.4900322-1.8931036-4.0397663C3.9588656,23.8695297,3.9742508,23.0130234,4.2131238,22.1876545z"
		/>
	<path style="fill:#414041;" d="M31.511488,29.7259274c0.1121635-1.5942993-0.1733074-3.1759167-0.1519756-4.7674446
		c0.0050564-0.0575924,0.0100861-0.1150608,0.0151157-0.1725273c0.2140102,0.0260792,0.3827972-0.0635376,0.5697746-0.1642971
		c0.3826885-0.2062283,0.708147,0.0190945,0.7552547,0.3559589c0.0564804,0.4038792,0.3552246,0.694788,0.4049797,1.0475826
		c0.1957207,1.3879547,0.9656982,2.6226006,1.0495911,4.030323c0.0313263,0.5256386,0.0100365,1.0579948-0.0323219,1.5836601
		c-0.0771294,0.95718,0.1932755,1.8382912,0.5379829,2.7058105c0.0914192,0.2300682,0.092289,0.4438171,0.0035934,0.6667633
		c-1.543251-0.6736336-2.4470406-1.836731-2.7294617-3.5018806C31.8320484,30.9086342,31.6545353,30.3202019,31.511488,29.7259274z"
		/>
	<path style="fill:#B8BDBF;" d="M31.2617836,9.3630657c-0.0340862,0.6887493-0.390564,1.3192492-0.3647518,2.0189514
		c-0.3831387,0.019248-0.766449,0.0573902-1.1494007,0.0540762c-1.4123688-0.0122232-2.8302307,0.0485725-4.2232552-0.2699299
		c-0.0868778-0.1023521-0.1847973-0.1699085-0.3253078-0.1031904c-0.100708-0.0955029-0.201416-0.1910057-0.302124-0.2865095
		c0.0266972-0.3096581,0.2755356-0.4226685,0.5053253-0.5111275C27.2886353,9.5391541,29.2246342,9.1177511,31.2617836,9.3630657z"
		/>
	<path style="fill:#632827;" d="M18.452507,36.7814178c-0.4606171-0.9589691-1.186182-1.7696609-1.5553913-2.7795258
		c-0.0055771-0.1466446-0.0114136-0.2934036-0.017252-0.4401665c0.0271759-0.1347198,0.0062408-0.2483711-0.1353912-0.3091698
		c-0.0453358-0.7498741-0.0619106-1.4935188-0.0162506-2.2505913c0.1152058-1.9101658,0.926487-3.5339241,1.8909092-5.1145058
		c0.0949841-0.0103207,0.18997-0.0206413,0.284956-0.030962c-0.0480118,0.5164337-0.0960217,1.0328712-0.1440125,1.5493107
		c-0.3119011,0.1973972-0.7322884,0.2346077-0.9164886,0.6206169c0.0091133,0.2185345-0.0581455,0.4155445-0.1690636,0.6003323
		c-0.0743732,0.0673828-0.199831,0.124382-0.2157459,0.2034359c-0.2495461,1.2394867-0.5612888,2.4867325-0.3497295,3.7539101
		c0.0901337,0.5398827-0.0221481,1.2065849,0.5732994,1.5836792c-0.0439053,1.2378922,0.9028149,1.8383408,1.6829128,2.5059204
		c0.4318638,0.3695679,0.8609715,0.7344398,1.2482719,1.149456c-1.2883282-0.1360054-2.3847351-0.766716-3.4967594-1.3570442
		c0.4779587-0.031311,0.8853245,0.2407112,1.3394699,0.3115501c0.0206757,0.0210686,0.0413647,0.0421181,0.0620537,0.0631714
		c-0.0038967-0.0130081-0.0038376-0.0312958-0.0125771-0.0378418C18.4909039,36.7918968,18.4705391,36.7882156,18.452507,36.7814178
		z"/>
	<path style="fill:#D3AD5E;" d="M23.5385017,19.4512405c-1.8430367-0.5791473-3.699276-1.1092167-5.5011654-1.8239326
		c-1.4254475-0.5653992-2.9200058-0.953373-4.3283701-1.5757389c-0.4559517-0.2014875-0.9463425-0.1636038-1.4305782-0.1918774
		c-0.4962378-0.0289698-1.016696,0.1527786-1.4879665-0.1398678c0.9812632-0.2718744,1.9746704-0.2892733,2.9313135,0.0394173
		c3.1662121,1.0878716,6.3208885,2.2093754,9.4769554,3.3265457c0.2082024,0.073698,0.4518032,0.1151237,0.5836754,0.3350658
		C23.7011948,19.4310932,23.6198463,19.4411659,23.5385017,19.4512405z"/>
	<path style="fill:#A03735;" d="M24.896944,10.7764635c0.100708,0.0955038,0.201416,0.1910067,0.3021908,0.2859411
		c0.0076294,0.0574894,0.0151939,0.1155481,0.0227089,0.1739464c-0.4817753,0.1292143-0.2759838,0.5135784-0.3016491,0.8119307
		c-0.0797939,2.2194147,0.0552158,4.4341135,0.1448746,6.6498384c0.0063229,0.1562462,0.01577,0.3069725,0.1568871,0.409565
		c-0.0558872,0.155695,0.2329617,0.423336-0.153204,0.4717751c-0.1040325-0.0066757-0.2080631-0.0133476-0.3120956-0.0200233
		c-0.0406036-2.6698189-0.0872517-5.3395796-0.11236-8.0095444C24.6418152,11.286211,24.4599781,10.915843,24.896944,10.7764635z"/>
	<path style="fill:#414041;" d="M43.81287,36.1484833c-0.0014915-0.0943565-0.0029869-0.1887169-0.0044785-0.2829857
		c0.7571449-0.1487007,1.5146942-0.2954636,2.2709007-0.4488297c0.0962601-0.0195236,0.2545433-0.0576553,0.2675133-0.114006
		c0.1546974-0.6720886,0.6139183-0.4377327,1.0222855-0.3601265C46.3617554,35.8696365,45.140625,36.1662712,43.81287,36.1484833z"
		/>
	<path style="fill:#414041;" d="M34.6820374,35.015831c0.5501976-0.0703621,1.0022163,0.255188,1.5046844,0.3777084
		c0.3846359,0.0937881,0.739872,0.283844,1.1666679,0.1717224c0.4289665-0.11269,0.3456802,0.1992302,0.3083382,0.4469337
		C36.6404572,35.7639351,35.5748024,35.648407,34.6820374,35.015831z"/>
	<path style="fill:#292624;" d="M39.6464615,36.1857414c0.6106873-0.3746758,1.280304-0.164978,1.907402-0.123867
		c0.4986115,0.032692,1.0014076,0.0856438,1.5043221,0.1076164c-0.2725449,0.3294258-0.6630135,0.2034988-0.978035,0.1831856
		C41.269207,36.3003845,40.4416924,36.453022,39.6464615,36.1857414z"/>
	<path style="fill:#DA322C;" d="M24.7566566,19.5594368c0.1040325,0.0066757,0.2080631,0.0133476,0.3120041,0.0199203
		c0.0874233,0.1577759,0.3227844,0.2116261,0.3097477,0.4402504c-0.5638695,0.5305653-1.0171299-0.1517963-1.5337048-0.1398621
		c-0.0018845-0.1073799-0.0037727-0.2147579-0.0056591-0.3221436
		C24.1449146,19.5582085,24.4507847,19.5588226,24.7566566,19.5594368z"/>
	<path style="fill:#636A6F;" d="M49.4989929,10.2001762c-0.2079086-0.1446657-0.2100296-0.2975807-0.0183754-0.4582644
		C49.4867439,9.8946676,49.4928665,10.0474215,49.4989929,10.2001762z"/>
	<path style="fill:#DA322C;" d="M23.5385017,19.4512405c0.0813446-0.0100746,0.162693-0.0201473,0.2438641-0.0303879
		c0.0206394,0.0475597,0.0414543,0.0952835,0.0622711,0.1430225C23.7425919,19.5263367,23.6405468,19.4887867,23.5385017,19.4512405
		z"/>
	<path style="fill:#D3AD5E;" d="M10.4354219,15.8031883c-0.0707264,0.0959282-0.1643105,0.0986271-0.2663784,0.0653629
		C10.2440586,15.7897463,10.3250971,15.7368336,10.4354219,15.8031883z"/>
	<path style="fill:#414041;" d="M47.6927071,34.7141495c-0.0882492-0.1079979-0.1184998-0.1982536,0.0686226-0.2219353
		C47.802906,34.5863686,47.779808,34.6602592,47.6927071,34.7141495z"/>
	<path style="fill:#414041;" d="M47.5023079,34.9170189c0.0531807-0.0714607,0.1063538-0.1429176,0.1595459-0.214386
		C47.7101784,34.8496284,47.6381721,34.9070816,47.5023079,34.9170189z"/>
	<path style="fill:#632827;" d="M31.3746281,24.7859554c-0.0050297,0.0574665-0.0100594,0.1149349-0.0151157,0.1725273
		c-0.5039597,0.1336422-0.253706,0.8161144-0.8230324,0.9950695c-0.3336868-1.009697-0.7922649-1.9965782-1.4855537-2.8515282
		c0.045969-0.393713,0.3533192-0.2856865,0.5902653-0.3030205c0.2995014-0.0219059,0.632513,0.0497856,0.795042-0.3148193
		l-0.0027885,0.002552c0.7236023-0.3592606,0.5345993-0.9120464,0.2071877-1.3784885
		c-0.436903-0.6224308-1.0535908-1.0079632-1.8699169-0.9276295c-0.060976-0.0079079-0.1217346-0.0158348-0.1824913-0.0237617
		c0.1283436-0.4476604-0.2732906-0.7748489-0.2717285-1.193985c0.5595818,0.0456181,1.0049267,0.698185,1.6466808,0.3108807
		c0.4353218-0.2278175,0.5705299-0.6153965,0.5718708-1.0742416c0.0444489-0.3356724-0.1100597-0.5827923-0.3524437-0.7910252
		c-0.3215065-0.0619583-0.5077362-0.575388-0.9357452-0.2794781c-0.1168289,0.000618-0.2336559,0.0012341-0.3504848,0.0018501
		c-0.0954914,0.0025444-0.1909809,0.0050888-0.2864723,0.0076332c0.098774-0.3157139,0.197546-0.6314297,0.2963161-0.9471455
		c0.4836807-0.5511923,0.7743931-0.2198181,1.0185928,0.2344551c0.1076775,0.200304,0.0168839,0.579895,0.4088306,0.5073833
		c0.3793926-0.0701847,0.4096146-0.4122601,0.4087124-0.7187233c-0.0030575-1.0384951-0.0220509-2.0769453-0.034956-3.1154127
		c0.0145359-0.1453199,0.0290737-0.290638,0.0436077-0.4359579c0.0914116,0.0081263,0.1828194,0.0162516,0.274231,0.0243769
		c0.082777,2.6513863,0.1655521,5.3027735,0.2486248,7.9542665c-0.1237888,0.5744553,0.0093708,1.1327209,0.1063347,1.6932583
		c-0.0024128,0.2558823-0.0049992,0.5117626-0.0074692,0.7676392C31.373436,23.6637325,31.3740311,24.224844,31.3746281,24.7859554z
		"/>
	<path style="fill:#7C8082;" d="M35.0455132,16.9563007c0.2398643-0.0269241,0.299408,0.2078915,0.4500809,0.3101807
		c0.0117378,0.1581116,0.0236435,0.3162289,0.0353966,0.4742107c-0.0096092,0.3013859-0.0190659,0.602911-0.0285263,0.9044361
		l0.002533-0.0030766c-0.2568207,0.3368034-0.7725563,0.4164753-0.8877411,0.8939381
		c-0.1632767,0.0517979-0.3276024,0.2879181-0.4889259-0.0025005c-0.0928535-0.2424717-0.0928459-0.5251045-0.3073616-0.7156334
		c-0.6460457-0.6585426-1.0196152-1.3901253-0.6239395-2.3277988c0.1646309-0.0893726,0.2291374-0.3394871,0.4762192-0.2964306
		C34.1662903,16.3837585,34.6214333,16.6420803,35.0455132,16.9563007z M34.4389038,17.7221317
		c0.0041771,0.1306,0.0176277,0.2557449,0.1932831,0.2520161c0.0182457-0.0003872,0.0504036-0.0326309,0.0513992-0.0514088
		c0.0098381-0.1846638-0.1331139-0.1742954-0.2528458-0.1926136c-0.0253868-0.1791553,0.0773849-0.4343262-0.244175-0.4396019
		c-0.0525284-0.0008621-0.1514511,0.0748806-0.1522255,0.1166439C34.029274,17.6794491,34.2287254,17.7123909,34.4389038,17.7221317
		z"/>
	<path style="fill:#D3AD5E;" d="M34.1283226,19.533205c0.1613312,0.2907028,0.3256569,0.0545826,0.488739,0.002943
		c0.2283745,0.3033466,0.0095329,0.8756485,0.583725,0.970953c0.0606651,0.0958328,0.1213303,0.1916656,0.1818962,0.2875938
		c0.1311989,0.3817501,0.3087234,0.7548084,0.3817368,1.1473064c0.0851746,0.4579029,0.0545197,0.9185753-0.5711098,1.0041962
		c-0.0835342-0.307188,0.0780792-0.6937218-0.2937088-0.9076653c0.1534081-0.1002293,0.2155418-0.2045231,0.0142746-0.320549
		l-0.0079765-0.0129147c-0.2856369-0.1146393-0.1520309-0.3364544-0.1717529-0.543417
		c-0.0324287-0.3403301-0.2408066-0.7219334-0.5944557-0.6728554c-0.3306427,0.045887-0.5913315,0.3854179-0.7442207,0.725214
		c-0.0360413,0.0800972,0.1923523,0.3272972,0.2853851,0.3342686c0.2083321,0.0156174,0.2083321,0.0156155,0.193222,0.3485489
		c-0.070118,0.9981518,0.7477722,0.8679657,1.325386,1.0430832c-0.3475723,0.4081459-0.7119141,0.0975952-1.0707092,0.024992
		l-0.042984-0.0261822c0,0-0.0503273,0.0002651-0.0507622,0.0002079c-0.0961342-0.1110096-0.1972847-0.2089691-0.3633118-0.1523781
		l0.0058594,0.0010681c0.0337067-0.2451859-0.1098213-0.3695602-0.3101959-0.4551907l-0.0018959-0.0020447
		c0.0149384-0.1342125-0.0232658-0.2411232-0.1542282-0.3004036l-0.0053177-0.0069332
		c-0.0490417-0.0504169-0.0980911-0.1008415-0.1471367-0.1512661l-0.000927-0.005024
		c-0.0706177-0.2982616-0.1412277-0.5965195-0.2118378-0.8947754C32.8856239,19.6232948,32.8856239,19.6232948,34.1283226,19.533205
		z"/>
	<path style="fill:#4F5353;" d="M34.1287537,22.9649029c0.3587952,0.0726032,0.7231369,0.3831539,1.070694-0.0249634
		l-0.0061264,0.0062332c0.625618-0.0855961,0.6562729-0.5462685,0.5710983-1.0041714
		c-0.0730133-0.392498-0.2505379-0.7655563-0.3817368-1.1473064c0.484745-0.0513,0.6787453,0.1913567,0.7453842,0.6530018
		c0.1513901,1.0487556-0.2697411,1.8746567-1.0771179,2.0432034C34.5836639,23.5884533,34.2464027,23.4730282,34.1287537,22.9649029
		z"/>
	<path style="fill:#4F5353;" d="M35.2007866,20.5071011c-0.574192-0.0953045-0.3553505-0.6676064-0.583725-0.970953
		c0.1153793-0.4776211,0.631115-0.5572929,0.8879356-0.8940964C35.3711472,19.2584343,35.1407547,19.8590832,35.2007866,20.5071011z
		"/>
	<path style="fill:#4F5353;" d="M32.8460159,20.971981c0.07061,0.2982559,0.1412201,0.5965137,0.2118378,0.8947754
		c-0.2120018,0.0125313-0.3017578-0.1067104-0.3231735-0.2997398c-0.0012474-0.0519867-0.002388-0.1039658-0.0033836-0.15588
		C32.7523537,21.2602863,32.7146263,21.0940742,32.8460159,20.971981z"/>
	<path style="fill:#636A6F;" d="M36.5110512,17.8698044c-0.0060768,0.1631889-0.1495934,0.1858177-0.2558098,0.2397747
		c-0.1036034,0.0526314-0.2111206,0.0379086-0.2200012-0.0967484c-0.0098114-0.1488857,0.1093559-0.2192497,0.2363319-0.2541714
		C36.3742447,17.7304211,36.4705772,17.7463455,36.5110512,17.8698044z"/>
	<path style="fill:#4F5353;" d="M35.5024643,18.6451283c0.0094604-0.3015251,0.0189171-0.6030502,0.0285263-0.9044361
		c0.0457611,0.0478516,0.0913658,0.0955658,0.1369324,0.1432228c0.0005074,0.2017651,0.0010605,0.4035873,0.001606,0.6054096
		C35.613842,18.5412598,35.5581551,18.5931931,35.5024643,18.6451283z"/>
	<path style="fill:#4F5353;" d="M33.3673592,22.332428c0.2003746,0.0856304,0.3439026,0.2100048,0.3101959,0.4551907
		C33.348568,22.7896404,33.3523483,22.5648613,33.3673592,22.332428z"/>
	<path style="fill:#636A6F;" d="M35.669529,18.4893227c-0.0005455-0.2018204-0.0010986-0.4036427-0.001606-0.6054077
		C35.877285,18.0852146,35.8797493,18.286993,35.669529,18.4893227z"/>
	<path style="fill:#4F5353;" d="M33.6716957,22.7865505c0.1660271-0.056591,0.2671776,0.0413685,0.3633118,0.1523781
		C33.8888016,22.948761,33.7462349,22.9488239,33.6716957,22.7865505z"/>
	<path style="fill:#4F5353;" d="M33.211235,22.0299797c0.1309624,0.0592804,0.1691666,0.1661911,0.1542282,0.3004036
		C33.2295723,22.273632,33.2081833,22.1580772,33.211235,22.0299797z"/>
	<path style="fill:#4F5353;" d="M33.0587807,21.8717804c0.0490456,0.0504246,0.0980949,0.1008492,0.1471367,0.1512661
		C33.156868,21.97262,33.1078224,21.9221992,33.0587807,21.8717804z"/>
	<path style="fill:#292624;" d="M17.6823463,34.1677818c-0.5954475-0.3770943-0.4831657-1.0437965-0.5732994-1.5836792
		c-0.2115593-1.2671776,0.1001835-2.5144234,0.3497295-3.7539101c0.0159149-0.0790539,0.1413727-0.1360531,0.2157459-0.2034359
		c0.1963444,0.1223354,0.1541119,0.5134888,0.6113377,0.374033c0.3906136-0.1191387,0.6564522,0.2005196,0.5717564,0.65452
		c-0.0416126,0.2230587-0.0833035,0.4614925-0.1945801,0.6523838c-0.1483231,0.2544346-0.30686,0.4851837-0.1088791,0.7691994
		c0.2572098,0.3689823,0.4745293-0.1893215,0.7903099-0.0139008c-0.6986465,0.7303925,0.384388,1.1963081,0.2816029,1.9014702
		c-0.0302658,0.207634,0.383009,0.0200653,0.578373-0.0579109c0.5989227-0.2390518,1.1188431-0.6893692,2.0708103-0.7692566
		c-0.6051884,0.4254189-0.6018486,0.8508682-0.3692932,1.176384c0.4533005,0.6345024,0.5044365,1.3752785,0.6968727,2.0809593
		c0.113224,0.4152145,0.1597614,0.8736382,0.517168,1.1659012c0.3316822,0.2712288,0.1190033,0.3773651-0.1126118,0.4652328
		c-0.394846,0.1497917-0.9044018,0.0268021-1.0533371-0.2176018c-0.2340317-0.3840485-0.5496883-0.8138466-0.5069695-1.3153915
		c0.0171375-0.2011948,0.245409-0.2908211,0.4010849-0.1067657c0.1222019,0.144474,0.165184,0.355957,0.2642536,0.5862274
		c0.2913399-0.2787857,0.1688957-0.5705185,0.1185627-0.8503838c-0.1228104-0.6828232-0.4270229-1.3045349-0.6601391-1.9500809
		c-0.0562172-0.1556816-0.0675755-0.4296608-0.3101921-0.3396149c-0.3339024,0.1239243-0.0418949,0.3378677,0.0050945,0.4978065
		c0.106451,0.3623466,0.3149529,0.6996841,0.2416935,1.1145134c-0.2676277-0.2324371-0.6483212-0.3587532-0.481123-0.8588982
		c0.061491-0.1839333-0.1705532-0.4203606-0.3698635-0.4131737c-0.3099098,0.0111809-0.1945286,0.3000488-0.1834393,0.4808578
		c0.0148067,0.2413673,0.2360039,0.4695625,0.0416985,0.7264137c-0.0488739-0.0049133-0.1271648,0.0067291-0.1399384-0.0169563
		c-0.2427673-0.4502144-0.3994579-1.2274666-0.9847908-0.2280312c-0.0385418,0.0658112-0.2200642,0.1333199-0.2483082,0.106987
		C18.6709595,33.8027344,18.168499,34.1550407,17.6823463,34.1677818z"/>
	<path style="fill:#292624;" d="M22.1787739,30.844841c-0.3370209-0.0266285-0.4596786,0.5193481-0.8452873,0.3480015
		c-0.1054707-0.2478714,0.1047535-0.2965965,0.2139168-0.3484097c0.6350574-0.3014278,1.1965752-0.6931667,1.6900368-1.1981373
		c0.280777-0.287323,0.634985-0.2488117,0.8600216,0.0635166c0.3347836,0.4646397,0.8934498,0.7116261,1.1362877,1.2804356
		c0.0837307,0.1961193,0.2380657,0.4704819,0.6520271,0.5232124c0.3298416,0.0420151,0.1024914,0.6548405,0.2212009,1.0037556
		c0.07057,0.2074242-0.1777611,0.3037872-0.365715,0.2084541c-0.3099079-0.1571884-0.5945873,0.4454575-0.8617077-0.1010323
		c-0.1314182,0.3481636,0.1700211,0.6005478-0.0631905,0.8318291c-0.2167873,0.0513763-0.240921-0.1379623-0.3072243-0.2600441
		c-0.1534004-0.282444-0.1586609-1.0378036-0.6058273-0.1108398c-0.1133308,0.2349358-0.6802216,0.0864639-0.8827553-0.2486038
		C22.6475563,32.2198868,22.1990166,31.625721,22.1787739,30.844841z"/>
	<path style="fill:#414041;" d="M25.3736897,21.8902187c-0.0057545,0.9384766-0.7143841,0.4894829-1.1370125,0.5453472
		c-0.1999092,0.0264263-0.4308414-0.1452827-0.3172302,0.2440643c0.0132294,0.045332,0.0015182,0.0979462,0.0013695,0.1471825
		c-0.7353382-0.3203335-0.8811378,0.428009-1.27738,0.713541c-0.5009403,0.3609772-0.9771328,0.7560844-1.4704075,1.1279774
		c-0.5496826,0.4144154-1.1801262,0.6671906-1.8260403,0.8850956c0.0664349-0.4826088,0.3219013-0.8353424,0.7175007-1.1134548
		c0.2903442-0.2041168,0.586237-0.4257717,0.5637436-0.8476925l0.0009441-0.0114155
		c0.0530682-0.0460835,0.1061363-0.0921669,0.1592026-0.1382504c0.1418514-0.0683384,0.2837009-0.136673,0.4255543-0.2050095
		c0.0495758-0.0457897,0.0991554-0.0915775,0.1487312-0.1373653c0.8187084-0.4284096,1.5361462-1.0559807,2.4708061-1.2563477
		c0.5105305-0.0390491,1.0210629-0.0780964,1.5315933-0.1171455C25.367939,21.7812366,25.3708153,21.8357277,25.3736897,21.8902187z
		"/>
	<path style="fill:#632827;" d="M25.3736897,21.8902187c-0.0028744-0.054491-0.0057507-0.1089821-0.0085793-0.1635342
		c-0.0004349-0.0633812-0.0009155-0.1266994-0.0013962-0.1900215c0.3637466-0.0000916,0.7274971-0.0001831,1.0912437-0.0002747
		c0.1074924,0.1901855,0.3021374,0.142416,0.4700661,0.1809311c0.7217827,0.1655445,1.3504887,0.4944687,1.8231869,1.0826397
		c-0.5348492,0.0086784-0.9839554-0.3896446-1.5310669-0.3226967c-0.1205959-0.5566444-0.5615215-0.5887051-1.0035801-0.6021862
		C25.9340191,21.8665524,25.6536751,21.8842697,25.3736897,21.8902187z"/>
	<path style="fill:#A03735;" d="M20.6283512,23.5924358c0.0223751,0.4217644-0.2735176,0.6434193-0.5638618,0.8475361
		c-0.3955994,0.2781124-0.6510658,0.630846-0.7175007,1.1134548c-0.147789,0.1010418-0.2952671,0.202158-0.4428253,0.3031712
		c-0.0950623,0.0102196-0.1900482,0.0205402-0.2851257,0.0307045c0.0504818-0.2048359,0.101059-0.4095116,0.1516342-0.6141872
		c0.3827991-0.2717686,0.6966858-0.591732,0.7600708-1.0868721l0.0057716-0.0055714
		c0.2038651,0.0008068,0.2989349-0.106863,0.30369-0.3045807l0.0000763-0.0006447
		C20.1623554,23.9464722,20.3593044,23.6690693,20.6283512,23.5924358z"/>
	<path style="fill:#292624;" d="M20.7724304,34.707386c0.1999493,0.5053444,0.0856838,0.9218864,0.3787804,1.2180824
		c0.0894871,0.0904312,0.0744896,0.2569962-0.0533409,0.3266602c-0.167944,0.091526-0.2753868-0.0038376-0.3361244-0.1711197
		C20.6177959,35.6845322,20.5081997,35.2890358,20.7724304,34.707386z"/>
	<path style="fill:#292624;" d="M24.4926662,28.435667c0.4773445,0.3664036,0.5081139,0.8378506,0.3583755,1.3528423
		C24.7315845,29.3375626,24.6121235,28.8866138,24.4926662,28.435667z"/>
	<path style="fill:#292624;" d="M17.843586,28.0264244c0.1842003-0.3860092,0.6045876-0.4232197,0.9164886-0.6206169
		C18.7239838,28.0105247,18.4962044,28.3321533,17.843586,28.0264244z"/>
	<path style="fill:#292624;" d="M25.282053,35.008564c-0.2467022-0.1982079-0.2620945-0.3772736-0.1413841-0.5711479
		c0.0171432-0.0275307,0.1147251-0.0450287,0.1279907-0.0287666C25.4110451,34.5832329,25.3980865,34.7717781,25.282053,35.008564z"
		/>
	<path style="fill:#632827;" d="M19.1767635,27.04603c0.1327095-0.1431713,0.2370129-0.240921,0.3962917-0.1572552
		c0.0197964,0.0104008,0.0272312,0.1006851,0.0070667,0.121212C19.4853516,27.1064568,19.3650875,27.0961685,19.1767635,27.04603z"
		/>
	<path style="fill:#292624;" d="M23.9992752,33.6462135c0.0225506-0.0936279,0.043581-0.1791191,0.1365967-0.1213646
		c0.0503616,0.0312653,0.0941467,0.1071854,0.1002998,0.1671333c0.007988,0.0778198-0.0555801,0.1417847-0.135603,0.0993614
		C24.050045,33.7645569,24.026247,33.6873589,23.9992752,33.6462135z"/>
	<path style="fill:#292624;" d="M22.5453835,26.5272713c-0.0431976,0.0167484-0.096714,0.0566139-0.1265106,0.0433197
		c-0.030098-0.0134277-0.0366783-0.0795517-0.0535603-0.1225929c0.0431156-0.0166492,0.0964546-0.0565777,0.1264706-0.0433941
		C22.5218124,26.4177933,22.528532,26.4840679,22.5453835,26.5272713z"/>
	<path style="fill:#292624;" d="M23.3622169,33.4759064c-0.0224495,0.0394402-0.0439854,0.0772743-0.0655193,0.1151123
		c-0.0222015-0.0373726-0.0610847-0.0743866-0.0619011-0.1122208c-0.0008106-0.037674,0.0365925-0.0761719,0.0572395-0.1143112
		C23.3151398,33.401165,23.3382416,33.4378433,23.3622169,33.4759064z"/>
	<path style="fill:#414041;" d="M21.2234459,25.5652657c-0.0559635,0.0384827-0.1119289,0.0769615-0.1678925,0.1154423
		c-0.0135117-0.0196552-0.0270252-0.0393105-0.0405369-0.0589638c0.0676117-0.0206871,0.1352215-0.0413742,0.2028332-0.0620594
		L21.2234459,25.5652657z"/>
	<path style="fill:#414041;" d="M21.2178497,25.5596848c0.0221291-0.0201988,0.04426-0.0403957,0.0663929-0.0605927
		c-0.0202923,0.0220394-0.0405846,0.0440788-0.0608368,0.0661469L21.2178497,25.5596848z"/>
	<path style="fill:#5B6267;" d="M33.6732483,16.1936264c-0.2470818-0.0430565-0.3115883,0.207058-0.4762192,0.2964306
		c-0.1684647-0.1506824-0.1963654-0.3159351,0.0219154-0.4222927c0.1768456-0.0861692,0.3130226-0.1519928,0.263073-0.3861208
		c-0.1085014-0.5085592-0.0433044-0.7799454,0.5848312-0.5122662c0.3125877,0.1332064,0.2375717-0.4069357,0.5715714-0.4438772
		c0.0781097,0.5630484,0.1566925,1.1295023,0.2353363,1.6956482C34.5031891,16.1888905,34.1088104,16.0824528,33.6732483,16.1936264
		z"/>
	<path style="fill:#5B6267;" d="M32.8460159,20.971981c-0.1313896,0.1220932-0.0936623,0.2883053-0.1147194,0.4391556
		c-0.6004829-0.5388489-0.8004417-1.4147778-0.2473602-1.7417297c0.2994766-0.1770344,0.6282845-0.5894222,1.1111145-0.4952488
		c0.3168716,0.0618038,0.1798592-0.2174225,0.225914-0.3564491c0.2145195,0.1906757,0.2145119,0.4733086,0.3073654,0.7157803
		C32.8856239,19.6232948,32.8856239,19.6232948,32.8460159,20.971981z"/>
	<path style="fill:#B8BDBF;" d="M33.6732483,16.1936264c0.4355621-0.1111736,0.8299408-0.0047359,1.2005081,0.2275219
		c0.1114273,0.1611824,0.2106438,0.3260021,0.1717682,0.5351658C34.6214333,16.6420803,34.1662903,16.3837585,33.6732483,16.1936264
		z"/>
	<path style="fill:#FA4136;" d="M23.8447037,19.8797455c0.5165749-0.0119343,0.9698353,0.6704273,1.5336246,0.1399784
		c0.0457325,0.0103035,0.0920639,0.0167446,0.1389713,0.0193558c0.1827202,0.5397701,0.3490162,1.073679-0.4426155,1.277359
		c-0.0119972,0.0030918-0.0136948,0.0462132-0.0201988,0.0706539c-0.1463928-0.0012531-0.2927837-0.0025043-0.4391747-0.0037575
		c-0.0738602-0.2685604-0.1264763-0.5454979-0.2280502-0.8031311c-0.0871258-0.2209759-0.3081341-0.292244-0.5124893-0.204586
		c-0.2894802,0.1241741-0.0543671,0.2817039,0.0146751,0.4208946c0.1745529,0.3518982,0.1054993,0.5090485-0.3122349,0.6438084
		c-1.4583378,0.470459-2.6985626,1.3051434-3.7369308,2.4351254l-0.0000973,0.0006161
		c-0.2027931,0.0002918-0.3108635,0.0950069-0.303669,0.3046093l-0.0057678,0.0055256
		c-0.5348988,0.1498032-0.8139229,0.5280151-0.9347935,1.0473728c-0.0971432,0.0069084-0.1942863,0.0138168-0.2914295,0.0207272
		c-0.0428524-0.3602161-0.4078274-0.4255772-0.6020641-0.648262c-0.1028214-0.1178856-0.2804604-0.1668854-0.4003811-0.0166512
		c-0.1228561,0.1539135-0.0229721,0.2743206,0.1166916,0.3726234c0.2697067,0.1898403,0.5192146,0.4159641,0.8691502,0.449873
		c-0.0749264,0.3512955-0.23316,0.6366768-0.5993652,0.7575054c-0.2815189-0.5721931-0.7842693-0.204834-1.1835442-0.2697029
		c-0.0912857-0.0148335-0.1967373,0.1024303-0.1618481,0.2060623c0.1203346,0.3574085,0.481987,0.3864651,0.763073,0.5215263
		c0.1341114,0.0644341,0.2769241,0.1107597,0.4157963,0.165287c-0.2265396,1.009306-0.937788-0.1617241-1.3326187,0.305479
		c0.1568336,0.1432209,0.3208828,0.2576084,0.4370461,0.4087887c0.1231632,0.1602936,0.5137348,0.1870003,0.3421211,0.4920387
		c-0.1741772,0.3095894-0.4362431,0.1287022-0.6606941,0.0098133c-0.0067387-0.2610512-0.1760025-0.4171619-0.3711042-0.5447483
		c-0.2773371-0.1813679-0.5500603-0.2649975-0.0592165-0.6066437c0.3439083-0.2393742-0.085825-0.5992756-0.2737637-0.7333965
		c-0.7124557-0.5084343-1.4441929-1.0128021-2.2306614-1.3893013c-1.2390499-0.5931587-2.6172123-0.8770695-3.7723789-1.6705246
		c-0.1693478-0.1163216-0.3647375-0.1916199-0.3796806-0.4348145L9.22404,22.6399269
		c0.4866648-0.4149361,0.5692596-0.8881645,0.0822849-1.3281174c-0.3072338-0.2775669-0.7058535-0.4472103-0.9906998,0.0863724
		c-0.0522385,0.0113049-0.104476,0.0226097-0.1566582,0.033762C7.8845897,20.9601917,8.1242781,20.4353294,8.006402,19.9452
		c-0.0433679-0.1803265-0.1706681-0.4619007-0.2767015-0.3102074c-0.2937646,0.4202652-0.523211,0.3336582-0.9013257,0.1440163
		c-0.1814675-0.0910149-0.1849294,0.2317085-0.2067261,0.39925l-0.0051656,0.005352
		c-0.6092954,0.0036011-0.5923915-0.4989758-0.356638-0.7111721c0.6845074-0.6161098,0.7758894-1.5763779,1.5330067-2.1926327
		c0.9690652-0.7887669,2.1133122-0.9613094,3.1122518-0.1572552c0.4520903,0.3638935,1.0000572,0.7589436,1.57479,0.7257671
		c1.0490952-0.0605564,1.7222652,0.6119823,2.4535408,1.1096573c0.8687325,0.5912209,1.3865786,1.5755692,2.2356901,2.2422695
		c0.3804493,0.2987194,0.4856644,0.976656,0.6549568,1.5020981c0.0718498,0.2230034,0.0909538,0.4589558,0.3018742,0.5868759
		c0.2118397,0.128479,0.4679031,0.2600842,0.3947487-0.2037258c-0.0882931-0.5597744,0.2176838-0.5910912,0.6354122-0.4727058
		c0.3649082,0.1034184,0.9049435,0.5534191,0.7454414-0.3813515c-0.0247517-0.1450615,0.1130409-0.1735573,0.2050114-0.132452
		c0.6195145,0.2768955,0.6057453-0.2536907,0.8152237-0.5799236C21.5977421,20.4663601,22.566925,19.8849316,23.8447037,19.8797455z
		"/>
	<path style="fill:#B71722;" d="M16.3078861,28.0086784c0.2244511,0.1188889,0.486517,0.2997761,0.6606941-0.0098133
		c0.1716137-0.3050385-0.2189579-0.3317451-0.3421211-0.4920387c-0.1161633-0.1511803-0.2802124-0.2655678-0.4370461-0.4087887
		c0.3948307-0.4672031,1.1060791,0.7038269,1.3327217-0.30546c0.055542-0.2077198,0.110981-0.4154549,0.16642-0.6231918
		c0.3662052-0.1208286,0.5244389-0.4062099,0.5994987-0.757515c0.005579-0.0525303,0.0110245-0.1050529,0.01647-0.1575737
		c0.0971432-0.0069103,0.1942863-0.0138187,0.2915497-0.0204811c0.058279,0.0132637,0.1164398,0.0262814,0.1745987,0.039299
		c-0.0505753,0.2046757-0.1011524,0.4093513-0.1516342,0.6141872c-0.9643288,1.5807381-1.77561,3.2044964-1.8908157,5.1146622
		c-0.04566,0.7570724-0.0290852,1.5007172,0.0164566,2.2504845c-0.2064247,0.2128029-0.04562,0.2654037,0.1351852,0.3092766
		c0.0058384,0.1467628,0.0116749,0.2935219,0.017252,0.4401665c-0.7749405,0.3867493-1.9272585-0.2733955-2.3708534-1.4789658
		c-0.1192865-0.3241882-0.3346596-0.613554-0.3771343-0.9660912c0.0308142-0.7202873-0.6209364-0.8603306-1.0287514-1.2061863
		c-0.1842356-0.1562443-0.6390438-0.1576233-0.3653278-0.5735321c0.2856102-0.4339809,0.5151033,0.0202732,0.671545,0.1330891
		c0.8392982,0.6052475,1.791419,0.8266506,2.8988323,1.0343113c-0.3925591-0.6549149-1.2103233-0.3622303-1.5397062-1.0487499
		c0.7090664,0.2070732,1.1568794-0.3182449,1.8003302-0.4252949c-0.2484264-0.3559475-0.5576725-0.5864201-0.9090347-0.7742767
		c-0.1305904-0.0698204-0.3079338-0.1284981-0.2612534-0.3244514c0.0579453-0.2432346,0.2298889-0.1041393,0.3668795-0.0864658
		C16.019392,28.3158321,16.1227303,28.0824814,16.3078861,28.0086784z"/>
	<path style="fill:#B8BDBF;" d="M6.4872208,22.9470024c-0.5542493,0.017416-0.6966949-0.289217-0.6105571-0.7755413
		c0.4318662-0.2504177,0.3654661-0.6786995,0.3837671-1.0767956c0,0,0.0228019-0.0400677,0.0230088-0.039608
		c0.2675147-0.0020599,0.4450989-0.1941147,0.6583853-0.3107853c0.5566092,0.0279655,0.6608181,0.3759346,0.5968909,0.8429661
		C7.4874544,21.808176,7.436192,22.0291119,7.3849392,22.250164C6.9830832,22.3502903,6.8261657,22.7659187,6.4872208,22.9470024z"
		/>
	<path style="fill:#D3AD5E;" d="M7.3849297,22.2500496c0.0512624-0.2209377,0.1025248-0.4418736,0.1538377-0.6630268
		c0.2060509-0.0545826,0.4579644,0.0750771,0.6201434-0.1549263c0.0522385-0.0113049,0.104476-0.0226097,0.1566963-0.033802
		c0.955431,0.0199833,0.955431,0.0199833,0.908433,1.2416325l-0.0029593-0.0106773
		c-0.13587,0.1686096-0.271698,0.3373642-0.4075251,0.5061169c-0.0288639-0.0223618-0.0573874-0.0451488-0.0855713-0.0683632
		c0.0490179-0.1654682,0.1065521-0.3290234,0.1443186-0.4970207c0.0294914-0.1311817,0.1610231-0.2767448-0.0270615-0.3965149
		c-0.1415653-0.0901451-0.2789555-0.0989628-0.4112844,0.0162182c-0.3485222,0.3033581-0.8877831,0.3899307-1.0407844,0.9155235
		l0.0014305,0.0016079C7.261466,22.8226948,7.2761374,22.5369015,7.3849297,22.2500496z"/>
	<path style="fill:#D3AD5E;" d="M8.0001192,23.8666096c0.2996969,0.4522972-0.0510225,0.5869446-0.3653965,0.7091351
		c-0.315731,0.1227188-0.4610858-0.0708771-0.5631919-0.3459511c-0.1319966-0.3556023-0.1809106-0.6887283,0.1196527-0.9861126
		c0.0679159-0.0455513,0.1356678-0.0912075,0.2034197-0.1368637L7.393168,23.1052094
		c0.2135024,0.2440472,0.0420656,0.7947636,0.6054935,0.7600384L8.0001192,23.8666096z"/>
	<path style="fill:#A03735;" d="M7.3946033,23.1068172c-0.0677519,0.0456562-0.1355038,0.0913124-0.2034197,0.1368637
		c-0.2829261,0.0151958-0.5347314-0.0430489-0.7041631-0.2965965c0.3391452-0.1811657,0.4960628-0.5967941,0.8979187-0.6969204
		C7.2761374,22.5369015,7.261466,22.8226948,7.3946033,23.1068172z"/>
	<path style="fill:#D3AD5E;" d="M6.2604308,21.0946655c-0.018301,0.3980961,0.048099,0.8263779-0.3837671,1.0767956
		C5.8432178,21.7548313,5.9499059,21.3884258,6.2604308,21.0946655z"/>
	<path style="fill:#D3AD5E;" d="M6.9416842,20.7440109c-0.2131457,0.1169319-0.3907299,0.3089867-0.6582446,0.3110466
		c0.0077381-0.0851746,0.0156832-0.1698914,0.0235777-0.2545757l0.0132999-0.011198
		c0.0513139-0.046217,0.1026793-0.0924816,0.1540442-0.1387444c0.0501933-0.049469,0.1003866-0.098938,0.1505632-0.148489
		c0.103755-0.023468,0.2075253-0.046854,0.3112955-0.0702419C6.9380417,20.5358753,6.9398632,20.6399441,6.9416842,20.7440109z"/>
	<path style="fill:#D3AD5E;" d="M8.6535397,23.4392414c-0.0636578,0.3780727-0.2939625,0.5014133-0.653388,0.4274044
		l-0.0014849-0.0013905c-0.0537076-0.4234161,0.4140081-0.2903576,0.5479908-0.5134678
		C8.5823927,23.3808079,8.6180201,23.4099598,8.6535397,23.4392414z"/>
	<path style="fill:#D3AD5E;" d="M8.8135548,23.1353664c-0.0535069,0.1011467-0.1070147,0.2022953-0.1602688,0.3036575
		c-0.0352659-0.0290642-0.0708933-0.0582161-0.1064453-0.0870972c0.060504-0.0948792,0.1208239-0.1899014,0.1811438-0.2849236
		C8.7561684,23.0902176,8.7846918,23.1130047,8.8135548,23.1353664z"/>
	<path style="fill:#636A6F;" d="M45.3420677,9.9935417c-0.0685463,0.167532-0.2116814,0.2136049-0.3698845,0.20119
		c-1.3170166-0.103343-2.6175461,0.2191811-3.9328957,0.1489544c0.0026016-0.0536327,0.0051765-0.1073446,0.0077515-0.1610565
		c1.0570412-0.0907707,2.115448-0.1685209,3.1704102-0.2791328C44.6047096,9.8628922,44.9686813,9.9489479,45.3420677,9.9935417z"/>
	<path style="fill:#5B6267;" d="M41.047039,10.1826296c-0.0025749,0.0537119-0.0051498,0.1074238-0.0077515,0.1610565
		c-1.1255341-0.0253944-2.247612-0.0916424-3.3592339-0.2814293C38.8060074,10.0028543,39.9329414,9.913084,41.047039,10.1826296z"
		/>
	<path style="fill:#636A6F;" d="M47.6466255,9.5297689c-0.6500702,0.1934614-1.2277946,0.7794485-1.9895706,0.3667221
		C46.321228,9.7794695,46.9461632,9.4497557,47.6466255,9.5297689z"/>
	<path style="fill:#A03735;" d="M31.0252361,12.6874666c-0.0914116-0.0081253-0.1828194-0.0162506-0.2742577-0.0244427
		c-0.031683-0.3623362-0.0708275-0.7200384-0.5395641-0.8472548c0.2391224,0.2819157,0.0434418,0.5711966,0.0723972,0.8492737
		c-0.2521133-0.0010405-0.5042229-0.0020809-0.7563362-0.0031204c0.2249908-0.9206982,0.2247066-0.9091969-0.7198486-0.9325619
		c-0.4239368-0.0104856-0.8464794-0.077446-1.2696552-0.1187801c-0.2686977-0.0038633-0.5373993-0.0077257-0.806097-0.0115881
		c-0.245472-0.0028524-0.4706669-0.3228292-0.7339611-0.0469303c-0.1052284-0.0029469-0.2104549-0.0058928-0.3156834-0.0088396
		c-0.052618-0.1256866-0.1052361-0.2513723-0.1578541-0.377059c1.3930244,0.3185024,2.8108864,0.2577066,4.2232552,0.2699299
		c0.3829517,0.003314,0.7662621-0.0348282,1.1494007-0.0540762C30.9397621,11.8170786,30.9824982,12.2522726,31.0252361,12.6874666z
		"/>
	<path style="fill:#FA4136;" d="M18.3032207,22.2924309c-0.2116432-0.0209675-0.279192-0.07131-0.2443275-0.1494408
		c0.0356617-0.079916,0.1058235-0.1749191,0.1815052-0.199297c0.111578-0.0359402,0.1775436,0.0523167,0.146389,0.1661835
		C18.3618832,22.2009087,18.307333,22.2838326,18.3032207,22.2924309z"/>
	<path style="fill:#DA322C;" d="M6.9362202,20.4318085c-0.1037703,0.0233879-0.2075405,0.0467739-0.3112955,0.0702419
		c-0.0027466-0.106081-0.0055103-0.2122421-0.008357-0.3184223l0.0050974-0.0052872
		C6.7433496,20.2420006,7.0884461,20.0282345,6.9362202,20.4318085z"/>
	<path style="fill:#DA322C;" d="M6.4743614,20.6505394c-0.0513649,0.0462627-0.1027303,0.0925274-0.1540442,0.1387444
		C6.3716993,20.7430038,6.4230299,20.6967716,6.4743614,20.6505394z"/>
	<path style="fill:#A03735;" d="M28.7482109,22.7999592c-0.4726982-0.588171-1.1014042-0.9170952-1.8231869-1.0826397
		c-0.1679287-0.0385151-0.3625736,0.0092545-0.4701939-0.1807404c0.3567924-0.3041077,0.7025604,0.0065956,1.0537319,0.0193005
		c0.285162,0.1627712,0.298542,0.1511669,0.3191433-0.2768288c0.2488651-0.4224319,0.4926472-0.8492298,0.9432316-1.0984478
		c0.8161049-0.0803185,1.4327927,0.3052139,1.8696957,0.9276447c0.3274117,0.4664421,0.5164146,1.019228-0.2071743,1.3784866
		c-0.1725578-0.2860737,0.0517597-0.7676907-0.4413548-0.8958302c0.0241833-0.4698753-0.2355614-0.7255058-0.6671658-0.7611084
		c-0.3334599-0.027504-0.5410213,0.2087307-0.6963196,0.4994755c-0.2969723,0.5559998,0.4754944,0.2301903,0.4455929,0.5562019
		c-0.0825367,0.4355564,0.1685562,0.6151619,0.5417423,0.6441193c0.2706203,0.0209961,0.5466518-0.0277576,0.8202724-0.0454082
		c-0.1625214,0.3646049-0.495533,0.2929134-0.7950344,0.3148193c-0.2369461,0.017334-0.5442963-0.0906925-0.5902653,0.3030205
		C28.9029903,23.0484085,28.8066769,22.9431419,28.7482109,22.7999592z"/>
	<path style="fill:#DA322C;" d="M25.5243759,11.1661634c0.052618,0.1256866,0.1052361,0.2513723,0.1578484,0.37749
		c-0.2700005,0.0718975-0.3138866-0.1944971-0.4603329-0.307641c-0.0075626-0.0580597-0.0151272-0.1161184-0.0227566-0.1736078
		C25.3395786,10.9962549,25.4374981,11.0638113,25.5243759,11.1661634z"/>
	<path style="fill:#A03735;" d="M16.8798637,33.5617256c-0.1808052-0.0438728-0.34161-0.0964737-0.1351852-0.3092766
		C16.8861046,33.3133545,16.9070396,33.4270058,16.8798637,33.5617256z"/>
	<path style="fill:#A03735;" d="M18.452507,36.7814178c0.0180321,0.0067978,0.0383968,0.010479,0.0532112,0.0215759
		c0.0087395,0.006546,0.0086803,0.0248337,0.0125771,0.0378418c-0.020689-0.0210533-0.041378-0.0421028-0.0620537-0.0631714
		L18.452507,36.7814178z"/>
	<path style="fill:#B71722;" d="M27.8277054,21.2790508c-0.0206013,0.4279957-0.0339813,0.4396-0.319006,0.2769604
		c-0.3359737-1.0214863-0.901659-1.452364-1.9914532-1.5168476c-0.046854-0.0026951-0.0931854-0.0091362-0.1389179-0.0194397
		c0.0131168-0.2287407-0.2222443-0.2825909-0.3096676-0.4403667c0.3862572-0.048336,0.0974083-0.3159771,0.1532288-0.4716415
		c0.516737-0.6859398,0.3922462-1.5277443,0.3896751-2.2706146c-0.0034599-1.0019312,0.2546043-1.7786198,0.8100777-2.6149769
		c0.5300961-0.7981415,1.458353-0.9609747,2.0183678-1.6465273c0.1299324-0.1590576,0.4633255-0.1512384,0.6118984,0.1884918
		c0.2887249,0.6601973,0.3659821,0.1670818,0.4755669-0.1021662c0.2521133,0.0010395,0.5042229,0.00208,0.7563477,0.0030127
		c0.0129948,0.2039518-0.0232143,0.4404316,0.2930927,0.4445829c-0.8020039,0.8395424-0.6975212,2.2364464-1.7838173,2.9011879
		c0.0377083,0.0602131,0.0754128,0.1204262,0.1131191,0.1806393c-0.0987701,0.3157158-0.1975422,0.6314316-0.2962799,0.9470196
		c0,0-0.0021687-0.019783-0.0021706-0.0197697c-0.2120113-0.0147648-0.3567066,0.0792465-0.4401093,0.2723217
		c-0.1961403,0.1114044-0.160141,0.3021946-0.1639328,0.4793758c0.028162,0.0482483,0.0563202,0.0964966,0.0844822,0.1447468
		c0.0118084,0.1558781,0.0236187,0.311758,0.035429,0.4676361c-0.1282005,0.1002312-0.2266693,0.2500267-0.1750927,0.3897591
		c0.0455055,0.1232815,0.2161369,0.0814037,0.3397064,0.0538788l0.0286121,0.036768
		c-0.0019283,0.4189262,0.3997059,0.7461147,0.2715149,1.1939068C28.0425663,20.33284,27.468132,20.4892521,27.8277054,21.2790508z"
		/>
	<path style="fill:#DA322C;" d="M29.5274754,12.6619225c-0.1095848,0.269248-0.186842,0.7623634-0.4755669,0.1021662
		c-0.1485729-0.3397303-0.481966-0.3475494-0.6118984-0.1884918c-0.5600147,0.6855526-1.4882717,0.8483858-2.0183678,1.6465273
		c-0.5554733,0.8363571-0.8135376,1.6130457-0.8100777,2.6149769c0.0025711,0.7428703,0.1270618,1.5846748-0.3896751,2.2706146
		c-0.1410503-0.102623-0.1504974-0.2533493-0.1568203-0.4095955c-0.0896587-2.2157249-0.2246685-4.4304237-0.1449986-6.6499462
		c0.3754215-0.1478872,0.721611,0.0082636,0.9683971,0.2303295c0.2967606,0.2670345,0.6141663,0.2427912,0.929697,0.210515
		c0.9051342-0.0925884,0.9035969-0.1076269,0.7198067-0.878438c0.4231758,0.0413342,0.8457184,0.1082945,1.2696552,0.1187801
		C29.752182,11.7527256,29.7524662,11.7412243,29.5274754,12.6619225z"/>
	<path style="fill:#FB514A;" d="M27.5379715,11.6105804c0.1837902,0.7708111,0.1853275,0.7858496-0.7198067,0.878438
		c-0.3155308,0.0322762-0.6329365,0.0565195-0.929697-0.210515c-0.2467861-0.2220659-0.5929756-0.3782167-0.9683971-0.2303295
		c0.0257893-0.2982445-0.1800022-0.6826086,0.3017731-0.8118229c0.1464939,0.1128054,0.1903801,0.3792,0.4603806,0.3073025
		c0.1052341,0.0025158,0.2104607,0.0054617,0.3154163,0.008709c0.2272263,0.2905369,0.4774456,0.2206755,0.7342339,0.0466299
		C27.0005722,11.6028547,27.2692738,11.6067171,27.5379715,11.6105804z"/>
	<path style="fill:#A03735;" d="M28.9062176,16.1913452c-0.0377064-0.0602131-0.0754108-0.1204262-0.1131191-0.1806393
		c1.0862961-0.6647415,0.9818134-2.0616455,1.7840328-2.9011078c0.0435047-0.0042543,0.086853-0.0077991,0.1302662-0.0105505
		c0.0129051,1.0384674,0.0318985,2.0769176,0.034956,3.1154127c0.0009022,0.3064632-0.0293198,0.6485386-0.4087124,0.7187233
		c-0.3919468,0.0725117-0.3011532-0.3070793-0.4088306-0.5073833
		C29.6806107,15.9715271,29.3898983,15.6401529,28.9062176,16.1913452z"/>
	<path style="fill:#636A6F;" d="M30.1829987,17.4085331c0.2419891,0.2081852,0.3964977,0.4553051,0.3523884,0.7909489
		c-0.4181366,0.089838-0.3684559,0.580471-0.6711712,0.7868958c-0.1227684,0.0837173-0.325901-0.2413826-0.3198833,0.0728436
		c0.0050316,0.2627449,0.2559681,0.1837406,0.4188442,0.2145309c-0.6417542,0.3873043-1.0870991-0.2652626-1.6466808-0.3108807
		c0,0-0.0282459-0.0365582-0.0281734-0.0361805c-0.0366039-0.090723-0.0732822-0.1818237-0.1099586-0.2729263
		c0.0458565-0.1045151,0.091713-0.2090282,0.1375694-0.3135433c0.2710266-0.03689,0.4003887-0.4032021,0.726347-0.3123589
		c0.0243149,0.0867271-0.0029373,0.2339039,0.1326904,0.2121353c0.0707359-0.0113525,0.12323-0.1364002,0.1839638-0.2100945
		l0.0011311-0.0023994C29.9332161,18.2184925,29.7093105,17.349781,30.1829987,17.4085331z"/>
	<path style="fill:#4F5353;" d="M29.0422802,18.0278625c-0.3259583-0.0908432-0.4553204,0.2754688-0.7265339,0.3123283
		c-0.0982342-0.3251801,0.0812187-0.5971565,0.1696835-0.8865681c0.2098236-0.0148449,0.4021835-0.0519238,0.410944-0.3227654
		c0.1168289-0.0006161,0.2336559-0.0012321,0.350256-0.0021057c0.2005806,0.1741142,0.0714455,0.4076786,0.1094761,0.6112537
		c-0.0006447,0.039959-0.0016823,0.0799065-0.003109,0.1198463c0.0023556,0.0558834,0.0047131,0.1117668,0.0070686,0.1676521
		l-0.0011368,0.0024071C29.253376,18.0292339,29.1478271,18.0285473,29.0422802,18.0278625z"/>
	<path style="fill:#DA322C;" d="M30.7073975,13.0990477c-0.0434132,0.0027514-0.0867615,0.0062962-0.1302662,0.0105505
		c-0.3165226-0.0042315-0.2803135-0.2407112-0.2933083-0.444663c-0.0289669-0.2779694,0.1667137-0.5672503-0.0724087-0.8491659
		c0.4687366,0.1272163,0.5078812,0.4849186,0.5395641,0.8472548C30.7364712,12.8084097,30.7219334,12.9537277,30.7073975,13.0990477
		z"/>
	<path style="fill:#7C8082;" d="M29.3600655,18.027504c-0.0023556-0.0558853-0.0047131-0.1117687-0.0069523-0.1674366
		c0.0220776-0.0089493,0.0440369-0.018116,0.0659981-0.0272808c-0.0210018-0.0309277-0.0420055-0.0618534-0.0630054-0.0927811
		c-0.0380306-0.2035751,0.0911045-0.4371395-0.1094761-0.6112537c0.4282379-0.2956543,0.6144676,0.2177753,0.9359741,0.2797337
		C29.7093105,17.349781,29.9332161,18.2184925,29.3600655,18.027504z"/>
	<path style="fill:#7C8082;" d="M29.9631767,19.2737522c-0.1628761-0.0307903-0.4138126,0.048214-0.4188442-0.2145309
		c-0.0060177-0.3142262,0.1971149,0.0108738,0.3198833-0.0728436c0.3027153-0.2064247,0.2530346-0.6970577,0.6711712-0.7868958
		C30.5337067,18.6583557,30.3984985,19.0459347,29.9631767,19.2737522z"/>
	<path style="fill:#FB514A;" d="M27.8277054,21.2790508c-0.3595734-0.7897987,0.2148609-0.9462109,0.7606716-1.1220627
		c0.0606041,0.0077953,0.1213627,0.0157223,0.1823387,0.0236301C28.3203526,20.429821,28.0765705,20.8566189,27.8277054,21.2790508z
		"/>
	<path style="fill:#D3AD5E;" d="M28.8963737,17.1308575c-0.0087605,0.2708416-0.2011204,0.3079205-0.410944,0.3227654
		c-0.0211105-0.0159626-0.0405426-0.0337601-0.0582943-0.0533924c0.0602093-0.0938835,0.1204205-0.1877651,0.1806335-0.2816486
		l0.0021687,0.019783C28.7053928,17.1359463,28.8008823,17.1334019,28.8963737,17.1308575z"/>
	<path style="fill:#B8BDBF;" d="M34.438942,17.7220821c-0.2102165-0.0096912-0.409668-0.0426331-0.4046021-0.3149147
		c0.0007744-0.0417633,0.0996971-0.117506,0.1522255-0.1166439c0.3215599,0.0052757,0.2187881,0.2604465,0.244175,0.4396019
		L34.438942,17.7220821z"/>
	<path style="fill:#B8BDBF;" d="M34.4307404,17.7301254c0.1197319,0.0183182,0.2626839,0.0079498,0.2528458,0.1926136
		c-0.0009956,0.0187778-0.0331535,0.0510216-0.0513992,0.0514088c-0.1756554,0.0037289-0.189106-0.1214161-0.193264-0.2520409
		L34.4307404,17.7301254z"/>
	<path style="fill:#632827;" d="M33.8740768,21.8968277c0.01511-0.3329334,0.01511-0.3329315-0.193222-0.3485489
		c-0.0930328-0.0069714-0.3214264-0.2541714-0.2853851-0.3342686c0.1528893-0.3397961,0.413578-0.679327,0.7442207-0.725214
		c0.3536491-0.049078,0.562027,0.3325253,0.5944557,0.6728554c0.019722,0.2069626-0.113884,0.4287777,0.1717758,0.543478
		C34.596962,21.9573879,34.2293205,21.8937187,33.8740768,21.8968277z"/>
	<path style="fill:#292624;" d="M33.8740768,21.8968277c0.3552437-0.003109,0.7228851,0.0605602,1.0318451-0.1916981
		l0.0078545,0.0128326c-0.0284729,0.1058006-0.1951447,0.2055531-0.0141754,0.32057
		c0.371788,0.2139435,0.2101746,0.6004772,0.2937088,0.9076653l0.0061378-0.006258
		C34.6218491,22.7647934,33.8039589,22.8949795,33.8740768,21.8968277z"/>
	<path style="fill:#632827;" d="M34.899601,22.0385323c-0.1809692-0.1150169-0.0142975-0.2147694,0.0141754-0.32057
		C35.1151428,21.8340092,35.053009,21.938303,34.899601,22.0385323z"/>
	<path style="fill:#DA322C;" d="M19.8402805,23.8754463c1.0383682-1.129982,2.2785931-1.9646664,3.7369308-2.4351254
		c0.4177341-0.1347599,0.4867878-0.2919102,0.3122349-0.6438084c-0.0690422-0.1391907-0.3041553-0.2967205-0.0146751-0.4208946
		c0.2043552-0.0876579,0.4253635-0.0163898,0.5124893,0.204586c0.1015739,0.2576332,0.1541901,0.5345707,0.2279415,0.8034744
		c-0.3091259,0.0712357-0.5439129,0.2682991-0.7817307,0.4602127c-0.93466,0.200367-1.6520977,0.8279381-2.4707088,1.2563667
		c-0.0495472,0.0457935-0.0991898,0.0915699-0.1488323,0.1373444c-0.1418495,0.0683384-0.283699,0.136673-0.4257259,0.2048359
		c-0.0531254,0.0460243-0.1060772,0.0922241-0.1590271,0.1384258l-0.0009441,0.0114155
		C20.3593044,23.6690693,20.1623554,23.9464722,19.8402805,23.8754463z"/>
	<path style="fill:#A03735;" d="M23.8334713,21.8438911c0.2378178-0.1919136,0.4726048-0.3889771,0.7817307-0.4602127
		c0.1464996,0.0009098,0.2928905,0.002161,0.4393158,0.003706c0.1030884,0.0499573,0.2061424,0.0996189,0.3091965,0.1492786
		c0.0004807,0.0633221,0.0009613,0.1266403,0.0013962,0.1900215C24.8545341,21.7657948,24.3440018,21.804842,23.8334713,21.8438911z
		"/>
	<path style="fill:#A03735;" d="M20.6291771,23.580864c0.0529499-0.0462017,0.1059017-0.0924015,0.1590271-0.1384258
		C20.7353134,23.4886971,20.6822453,23.5347805,20.6291771,23.580864z"/>
	<path style="fill:#A03735;" d="M21.2139339,23.2376041c0.0496387-0.0457764,0.0992813-0.0915527,0.1488304-0.1373463
		C21.3130894,23.1460266,21.2635098,23.1918144,21.2139339,23.2376041z"/>
	<path style="fill:#DA322C;" d="M25.3637142,21.5366631c-0.103054-0.0496597-0.2061081-0.0993214-0.3091965-0.1492767
		c0.0064716-0.0247345,0.0081692-0.0678558,0.0201664-0.0709476c0.7916317-0.20368,0.6253357-0.7375889,0.4426155-1.277359
		c1.0897408,0.0645676,1.655426,0.4954453,1.9913998,1.5169315c-0.3513088-0.0128365-0.6970768-0.3235397-1.0538692-0.0194321
		C26.0912113,21.5364799,25.7274609,21.5365715,25.3637142,21.5366631z"/>
	<path style="fill:#DA322C;" d="M18.7706718,25.2731152c-0.0581589-0.0130177-0.1163197-0.0260353-0.1745987-0.0392952
		c0.1207504-0.5196075,0.3997746-0.8978195,0.9346733-1.0476227C19.4673576,24.6813831,19.153471,25.0013466,18.7706718,25.2731152z
		"/>
	<path style="fill:#DA322C;" d="M19.5365143,24.1806717c-0.0071945-0.2096024,0.1008759-0.3043175,0.303669-0.3046093
		C19.8354492,24.0738087,19.7403793,24.1814785,19.5365143,24.1806717z"/>
	<path style="fill:#FB514A;" d="M6.9362202,20.4318085c0.152226-0.403574-0.1928706-0.1898079-0.3145552-0.2534676
		c0.0217805-0.1676235,0.0252423-0.4903469,0.2067099-0.399332c0.3781147,0.189642,0.6075611,0.2762489,0.9013257-0.1440163
		C7.8357339,19.4832993,7.9630342,19.7648735,8.006402,19.9452c0.1178761,0.4901295-0.1218123,1.0149918,0.152565,1.4867439
		c-0.1622353,0.2301559-0.4141488,0.1004963-0.6201997,0.1550789c0.0638757-0.4668159-0.0403333-0.814785-0.5969424-0.8427505
		C6.9398632,20.6399441,6.9380417,20.5358753,6.9362202,20.4318085z"/>
	<path style="fill:#DA322C;" d="M17.6885548,26.1693859c-0.055439,0.207737-0.110878,0.415472-0.16642,0.6231918
		c-0.1389751-0.0545464-0.2817879-0.100872-0.4158993-0.1653061c-0.281086-0.1350613-0.6427383-0.1641178-0.763073-0.5215263
		c-0.0348892-0.103632,0.0705624-0.2208958,0.1618481-0.2060623C16.9042854,25.9645519,17.4070358,25.5971928,17.6885548,26.1693859
		z"/>
	<path style="fill:#DA322C;" d="M9.22404,22.6399269c0.046998-1.2216492,0.046998-1.2216492-0.908433-1.2416325
		c0.2848644-0.5336952,0.6834841-0.3640518,0.9907179-0.0864849C9.7932997,21.7517624,9.7107048,22.2249908,9.22404,22.6399269z"/>
	<path style="fill:#DA322C;" d="M18.3045235,25.2542973c-0.0054455,0.0525208-0.010891,0.1050434-0.01647,0.1575737
		c-0.350069-0.0338993-0.599577-0.2600231-0.8692837-0.4498634c-0.1396637-0.0983028-0.2395477-0.2187099-0.1166916-0.3726234
		c0.1199207-0.1502342,0.2975597-0.1012344,0.4003811,0.0166512C17.8966961,24.8287201,18.2616711,24.8940811,18.3045235,25.2542973
		z"/>
	<path style="fill:#632827;" d="M8.7279844,23.0670033c-0.0603199,0.0950222-0.1206398,0.1900444-0.1811438,0.2849236
		c-0.1341658,0.222971-0.6018815,0.0899124-0.5481739,0.5133286c-0.5634332,0.0347176-0.3919964-0.5159988-0.6054988-0.760046
		c0.1530061-0.5255928,0.6922669-0.6121655,1.0407891-0.9155235c0.132329-0.115181,0.2697191-0.1063633,0.4112844-0.0162182
		c0.1880846,0.1197701,0.0565529,0.2653332,0.0270615,0.3965149C8.8345366,22.7379799,8.7770023,22.901535,8.7279844,23.0670033z"/>
	<path style="fill:#DA322C;" d="M26.7318745,11.5989923c-0.2567883,0.1740456-0.5070076,0.243907-0.7342339-0.0466299
		C26.2612076,11.2761631,26.4864025,11.5961399,26.7318745,11.5989923z"/>
	<path style="fill:#632827;" d="M29.0742111,21.8854733c0.0299015-0.3260117-0.7425652-0.0002022-0.4455929-0.5562019
		c0.1552982-0.2907448,0.3628597-0.5269794,0.6963196-0.4994755c0.4316044,0.0356026,0.691349,0.2912331,0.6670074,0.7609158
		c0.1382542,0.2371464,0.1702213,0.4446564-0.1970615,0.4265194C29.5530796,22.0052929,29.3143291,21.9315414,29.0742111,21.8854733
		z"/>
	<path style="fill:#292624;" d="M29.0742111,21.8854733c0.240118,0.0460682,0.4788685,0.1198196,0.7206726,0.1317577
		c0.3672829,0.018137,0.3353157-0.189373,0.1970615-0.4265194c0.4932728,0.1283321,0.2689552,0.6099491,0.4415131,0.8960228
		l0.0027752-0.0025501c-0.2736282,0.0176506-0.5496597,0.0664043-0.8202801,0.0454082
		C29.2427673,22.5006351,28.9916744,22.3210297,29.0742111,21.8854733z"/>
	<path style="fill:#D3AD5E;" d="M28.4854298,17.4536228c-0.0884647,0.2894115-0.2679176,0.561388-0.1696835,0.8865681
		c-0.0456696,0.1045456-0.091526,0.2090588-0.1376438,0.3133049c-0.0183296-0.0571194-0.0363998-0.1139679-0.0544662-0.1708202
		c-0.0118103-0.1558781-0.0236206-0.311758-0.0353031-0.4675159c-0.0281181-0.0482082-0.0563622-0.0965385-0.0846081-0.1448669
		c0.0037918-0.1771812-0.0322075-0.3679714,0.1636333-0.4792347c0.0863914,0.0031509,0.1730862,0.0061626,0.2597771,0.0091743
		C28.4448872,17.4198627,28.4643192,17.4376602,28.4854298,17.4536228z"/>
	<path style="fill:#632827;" d="M28.1236362,18.4826756c0.0180664,0.0568523,0.0361366,0.1137009,0.0544662,0.1708202
		c0.0369377,0.0913715,0.073616,0.1824722,0.11022,0.2731953c-0.123642,0.0271473-0.2942734,0.069025-0.3397789-0.0542564
		C27.8969669,18.7327023,27.9954357,18.5829067,28.1236362,18.4826756z"/>
	<path style="fill:#632827;" d="M28.4271355,17.4002304c-0.0866909-0.0030098-0.1733856-0.0060215-0.2597771-0.0091724
		c0.0837021-0.1932163,0.2283974-0.2872276,0.4404087-0.2724628C28.5475559,17.2124653,28.4873447,17.3063469,28.4271355,17.4002304
		z"/>
	<path style="fill:#632827;" d="M28.0037251,17.8702927c0.0282459,0.0483284,0.0564899,0.0966587,0.0846081,0.1448669
		C28.0600452,17.9667892,28.0318871,17.918541,28.0037251,17.8702927z"/>
	<path style="fill:#7C8082;" d="M29.0422802,18.0278625c0.105547,0.0006847,0.2110958,0.0013714,0.3166504,0.0020504
		c-0.06073,0.0736847-0.113224,0.1987324-0.18396,0.2100849C29.0393429,18.2617664,29.0665951,18.1145897,29.0422802,18.0278625z"/>
	<path style="fill:#636A6F;" d="M29.3561058,17.7400055c0.0209999,0.0309277,0.0420036,0.0618534,0.0630054,0.0927811
		c-0.0219612,0.0091648-0.0439205,0.0183315-0.0659981,0.0272808C29.3544235,17.819912,29.3554611,17.7799644,29.3561058,17.7400055
		z"/>
</g>
</svg>
