<?xml version="1.0" encoding="utf-8"?>
<!-- Generator: Adobe Illustrator 21.1.0, SVG Export Plug-In . SVG Version: 6.00 Build 0)  -->
<svg version="1.1" id="Слой_1" xmlns="http://www.w3.org/2000/svg" xmlns:xlink="http://www.w3.org/1999/xlink" x="0px" y="0px"
	 viewBox="0 0 55 45" style="enable-background:new 0 0 55 45;" xml:space="preserve">
<g>
	<path style="fill:#185C97;" d="M7.2490792,30.413929c-0.0634813-0.5336113,0.1519613-1.0299606,0.2067437-1.5470562
		c0.4608941-0.2916451,1.1066055-1.6224537,1.0014877-2.0894375c-0.0364723-0.1620312-0.1216927-0.3088188-0.3072882-0.3548584
		C8.2853308,25.8676205,8.551158,25.3066273,8.525836,24.7591c-0.0395317-0.8547115,0.0552111-1.6006584,0.6943254-2.2120342
		c0.3667202-0.1751747,0.4834299-0.5675869,0.7053366-0.8588161c0.453475-0.5951424,0.3239202-0.8354492-0.4402399-0.9900246
		c0.1928244-0.8186684,0.3856478-1.6373367,0.5785799-2.4555969c0.534502-0.3045235,0.9292269-0.738451,1.293931-1.2361431
		c0.3851767-0.525631,0.2501011-0.8295879-0.2613354-1.0921307c0.3495512-0.8032608,0.6821651-1.6127977,1.2089758-2.3271112
		c0.25385-0.3442001,0.5525904-0.6755123,0.6117373-1.1299629c0.2525892-0.1573153,0.3559265-0.385519,0.3223743-0.6787405
		c0.8329706-0.2408009,1.1626787-1.007926,1.6680784-1.5922947c1.1459265-1.3249769,2.6809473-1.9007092,4.3378687-2.2283902
		c0.6278038-0.1241579,1.1950874-0.3403468,1.7469559-0.6903081c0.9820194-0.6227403,2.1207142-0.8304782,3.2612476-0.822917
		c1.3588657,0.0090089,2.6780739-0.2315488,4.00741-0.432416c0.5837402,0.174571,1.0223541,0.6596465,1.6381989,0.7654223
		c0.0561161,0.0104055,0.1122303,0.0208116,0.1684265,0.0310588c0.0089493,0.0926085,0.0178165,0.1853747,0.0266838,0.2781405
		c-0.1893158,0.0151024-0.3786354,0.0302038-0.5679531,0.0453053c-0.0817871,0.0279889-0.1635704,0.0559773-0.2453575,0.0839663
		c-0.119978,0.0690088-0.2399578,0.1380177-0.3599339,0.2070265c-0.0005589-0.6828365-0.3336945-0.8637509-0.9475861-0.6334863
		c-0.3682575,0.1381302-0.7752876,0.2715988-1.1289749,0.0833912c-0.6853676-0.3647084-1.4396458-0.3717327-2.1100292-0.2259345
		c-1.2743893,0.2771606-2.70718,0.1046519-3.7358265,1.2445502c-0.2632885,0.2917633-0.7925663,0.8062334-1.1272106,0.6262941
		c-1.3245792-0.7122297-2.2352467,0.3349276-3.1771679,0.7677946c-0.9033632,0.4151459-1.5933971,1.3522587-2.2912836,2.1364307
		c-0.4641247,0.5215082-0.9111528,1.0783854-1.2452459,1.7127075c-0.3210144,0.6094894-0.6271753,1.2529411-1.0765533,1.7604322
		c-0.3610497,0.4077406-0.3875389,0.6814079-0.0740948,1.0647411c0.2681532,0.3279457,0.2407637,0.6588707-0.0185146,0.9780464
		c-0.5211954,0.6415997-1.0411844,1.2842579-1.5694895,1.919981c-0.4692478,0.5646572-0.4711466,1.1462383-0.0649223,1.732357
		c0.1288815,0.185957,0.3072252,0.3497658,0.1888399,0.5894814c-0.2686615,0.5440044-0.3530874,1.1898766-0.7802773,1.6397858
		c-0.6136389,0.646265-0.7678614,1.426899-0.8398752,2.2659054c-0.11096,1.2927608-0.082942,2.617403-0.7442703,3.8032665
		C7.4978933,30.109602,7.3809776,31.282053,8.449873,32.3680191c0.0940752,0.0955811,0.1543074,0.2289505,0.2148542,0.3523254
		c0.3871021,0.7888031,1.0936613,1.1886673,1.8890715,1.3302727c0.7182798,0.1278801,1.5403976,0.33078,2.043354-0.5414543
		c0.1138716-0.1974754,0.3440332-0.277626,0.5823441-0.2547035c0.7180195,0.0690498,1.187521-0.3530502,1.6301193-0.8231812
		c0.1295328-0.1375923,0.2089281-0.3754005,0.4367228-0.3315239c0.6655855,0.1281967,0.5210724-0.3321304,0.5271931-0.6901684
		c0.7741194,0.4604301,0.9835997,1.1934414,0.6042433,2.1034107c-0.297678,0.7140388-0.8300018,0.3875237-1.2594671,0.2394218
		c-1.6097889-0.5551224-2.9381065,0.2958069-3.5405283,1.4839935c-0.124074,0.0330086-0.2704544,0.0397148-0.265913,0.2249756
		c-0.1303196,0.0178452-0.2606401,0.0356903-0.3909607,0.0535355c-0.331707-0.1326103-0.6649551-0.104393-0.9988413-0.0095749
		l-0.0282097-0.0501251c-0.0044775-0.0548592,0.0129995-0.1345177-0.0167389-0.1608467
		C9.455183,34.9207611,8.5840006,34.8720093,8.9195404,33.95187c0.0092812-0.0254517-0.0593367-0.1106682-0.1009493-0.1184959
		c-0.4549761-0.0856361-0.4757166-0.5504379-0.7082415-0.8807373c-0.2164645,0.252533-0.337132,0.614109-0.7207475,0.4275093
		c-0.2948194-0.1434097-0.2995033-0.4125557-0.3947783-0.7058067C6.7250447,31.8439732,7.4087567,31.1849079,7.2490792,30.413929z"
		/>
	<path style="fill:#B5201C;" d="M5.9190984,41.3833427c-0.2072358-0.0241776-0.4144716-0.0483551-0.6215262-0.0722847
		c-0.0598092-0.0169716-0.1197996-0.0341949-0.179791-0.0514145c-0.3409171-0.2155838-0.9008574-0.0989304-1.0100703-0.6660843
		c0.1093187-0.0019226,0.2189026,0.0010338,0.3277845-0.0063553c0.2765751-0.0187607,0.481184-0.126297,0.4717669-0.4428177
		c-0.0053101-0.1784592-0.1066189-0.3187485-0.2749743-0.3710098c-0.2623219-0.0814323-0.5090623-0.0181274-0.6306262,0.2365227
		c-0.0780637,0.1635246-0.0721996,0.3671112-0.103955,0.5527382c-0.5921774-0.6580009-0.8575401-1.4301262-0.8074744-2.3123932
		c0.6229312-0.0351601,0.722923,0.5946045,1.1008449,0.8719673c0.1174226,0.086174,0.1714959,0.3341179,0.3660197,0.1455917
		c0.0860057-0.0833549,0.1567545-0.2537537,0.135077-0.3653374c-0.1398211-0.7197037-0.7493737-1.1564293-1.5629673-1.1499252
		c-0.0011694-0.3882713-0.0023386-0.7765388-0.0035055-1.1648064c0.7321916-0.8480721,1.2671649-1.8208885,1.7707298-2.8125916
		c0.047543-0.0936241,0.0474739-0.2114258,0.0695148-0.3179932l-0.005156,0.0001831
		c0.0523853-0.0651703,0.1048017-0.1302338,0.1572185-0.1952972L5.1108112,33.269516
		c0.0544367-0.0596237,0.1088834-0.1192169,0.1633301-0.1788101l-0.0022969,0.0022697
		c0.0706358-0.0510292,0.141283-0.102066,0.2119293-0.1531029c0.0950179-0.0699692,0.1900353-0.1399345,0.2850528-0.2098999
		c0.068821-0.0421066,0.1376438-0.0842133,0.2064662-0.1263237c0.0849385-0.0503044,0.1698766-0.1006126,0.2551041-0.1508751
		c0.4825668,1.1871452,1.4863253,1.9010048,2.4469066,2.6383133c0.3330498,0.2556419,0.7447119,0.4669113,1.2165537,0.3641357
		l0.0279131,0.0497971c0.3293915,0.3408775,0.6624079,0.3567047,0.999136,0.009903
		c0.1303205-0.0178452,0.2606411-0.0356903,0.3903542-0.053566c0.6550465,0.2490005,1.3109589,0.0506744,1.9667854,0.0011139
		c-0.1969585,0.4240837-0.6294308,0.3588905-0.9771061,0.4778671c-0.9859972,0.3374138-1.7205429,0.9427452-2.0392361,1.9735756
		c-0.2320271,0.0226135-0.4957829-0.0745316-0.6672602,0.1767464c-0.2225828-0.0016403-0.4451666-0.0032806-0.6677504-0.004921
		c0.0256233-0.4303741-0.4361696-0.5969963-0.5100822-1.0112495c-0.1847191-1.0352898-0.5769348-2.0101547-1.2667956-2.819046
		c-1.1181955-1.3111458-1.4227452-1.2453423-2.1662641,0.2535172c-0.6023226,1.214222-0.3000035,2.3535156,0.1280932,3.5097542
		c0.0895715,0.2419205,0.2885246,0.2185822,0.4787321,0.2322006c0.0627489,0.5682755,0.0245829,1.1759377,0.2253227,1.6903687
		c0.1244607,0.3189507,0.1724963,1.1368446,0.9821644,0.6888695c0.1944742-0.1075974,0.5026045,0.0463829,0.5277123,0.2546501
		c0.0335898,0.2786026-0.2745633,0.1604271-0.4386301,0.2067795c-0.3706336-0.0909119-0.677002,0.0634995-0.9736385,0.2550583
		L5.9190984,41.3833427z"/>
	<path style="fill:#185C97;" d="M32.5974503,7.7411156c0.2052536,0.2906065,0.4105148,0.5812111,0.615799,0.8718138
		c-0.0466423,0.3317251-0.0933075,0.6634521-0.1399727,0.9951801c-0.0571175,0.1058969-0.1142349,0.2117958-0.1713486,0.3176908
		c-0.0900841,0.0256968-0.1689644,0.0597525-0.1334839,0.1790609c-0.0208282,0.0513582-0.0325661,0.1047182-0.0351677,0.1600409
		c-0.3790932,0.4072723-0.5783463,0.8384676-0.1791077,1.3491306c-0.0055313,0.2161121-0.0110588,0.4322262-0.016571,0.6483221
		c-0.1735458,0.1930361-0.1378822,0.4354916-0.1570168,0.6650105c-0.128994,0.0800953-0.1366158,0.2097235-0.1393166,0.3413725
		c-0.676424,0.285902-0.7028008,0.9146729-0.7955151,1.5080051c-0.1776009,0.3373165-0.3553009,0.6750259-0.5330029,1.0127373
		c-0.353714-0.1167011-0.6855164,0.1235437-0.8264484,0.3019791c-0.4646339,0.5882721-0.6018753,0.079277-0.8336945-0.1725559
		c0.0094261-0.1631947,0.0188522-0.3263903,0.0282784-0.4895859c0.160862-0.2871552,0.2461567-0.5663338-0.0846138-0.8015919
		c-0.0397606-0.0582933-0.0795231-0.1165867-0.1192856-0.1748781c0.0158119-0.1497784-0.0125351-0.2819166-0.1482735-0.37115
		c0.5500431-1.0980425,0.9010353-2.5013161,1.8386173-3.141243c1.226841-0.8373537,1.4137001-1.7419357,1.2226887-2.9803233
		c0.0974865,0.1049037,0.2079868,0.0888495,0.322588,0.0347157C32.4075508,7.9102688,32.5024986,7.8256917,32.5974503,7.7411156z
		 M31.781044,11.9740982c-0.268158,0.0880709-0.249464,0.3717585-0.3080959,0.5853834
		c-0.0485058,0.1767197,0.0909882,0.3304129,0.2745838,0.3069315c0.3206978-0.0410147,0.3249931-0.3105621,0.3207626-0.5590267
		C32.0653877,12.1365337,32.0285912,11.9806509,31.781044,11.9740982z"/>
	<path style="fill:#B5201C;" d="M49.9739227,23.6356316c0.6790314,0.8255539,1.2103119,1.7274895,1.4399529,2.7853222
		c-0.0048752,0.0268669-0.0054131,0.055479-0.0152435,0.0804291c-0.329731,0.8363571-0.6066208,1.6681061,0.1920853,2.4146214
		c0.0034981,0.1709747,0.007,0.3419476,0.0105019,0.5129223c-0.0083656,0.1077003-0.0167351,0.2154026-0.0251045,0.3231049
		c-0.1313477,0.5791626-0.4974785,1.042448-0.766758,1.5535355c-1.1364555,0.8172741-2.4958611,1.3227482-3.4160118,2.4425678
		c-0.7887001,0.1803131-1.4538345,0.806797-2.3367043,0.6471024c-0.0401688-0.1215935-0.1040878-0.2003899,0.0736961-0.3231773
		c0.7486649-0.5170479,1.5596466-0.8900032,2.4165802-1.1802139c0.1673088-0.0566597,0.4348602-0.0791359,0.4122276-0.3208084
		c-0.019165-0.2047272-0.2632637-0.1258888-0.4096146-0.1679993c0.126091-0.282753,0.4841118-0.4125271,0.5045586-0.7649612
		c0.2416115-0.228878,0.5386391-0.2130508,0.8373909-0.1896095c0.0226326,0.2384987,0.1919174,0.3885822,0.3754425,0.2622833
		c0.4900932-0.3372669,1.1487541-0.5530396,1.1512375-1.3221779c0.0159874-0.0327797,0.0302467-0.0662937,0.0427742-0.1005459
		c0.6217461-0.6015739,0.5610275-1.214859-0.2011375-2.031683c-0.3141975-0.1110134-0.378437-0.4227333-0.5320969-0.6626549
		c0.8039513-0.0268192,1.1434135-0.4903164,0.9611473-1.3566952c-0.2415237-1.1480389-0.8609085-2.12257-1.4665184-3.1012344
		c0.3253403-0.0908203,0.3934746,0.3039684,0.6494942,0.3440208C49.9058571,23.5317307,49.939888,23.5836811,49.9739227,23.6356316z
		"/>
	<path style="fill:#B25F5A;" d="M13.239521,11.7785397c0.0335522,0.2932215-0.0697851,0.5214252-0.3224735,0.6786489
		c-0.2772093-0.0009327-0.5548468-0.0132742-0.8313389-0.0006142c-1.1631737,0.0532627-2.3682098,0.7983522-2.6201677,1.7210274
		c-0.3194733,1.1699171,0.1286955,2.1729689,0.7653465,3.1830053c0.3355474-0.5606709,0.6005468-1.0034618,0.8655462-1.4462528
		c0.5114365,0.2625427,0.646512,0.5664997,0.2613354,1.0921307c-0.3647041,0.4976921-0.759429,0.9316196-1.293931,1.2361431
		c-1.1160345-0.8553734-1.4956036-2.0683365-1.45366-3.3815136c0.0412569-1.2917013,0.7936773-2.1947803,1.9672842-2.7277288
		C11.4268036,11.7476892,12.3197956,11.6540871,13.239521,11.7785397z"/>
	<path style="fill:#B25F5A;" d="M40.2355042,14.588233c0.0922966,0.013485,0.1846046,0.0269699,0.2770958,0.0403948
		c0.0709991,0.0296869,0.1418037,0.059432,0.2126045,0.0891771c0.0583496,0.0192375,0.1166954,0.038475,0.1749954,0.0576715
		c0.0668373,0.1513653,0.1901779,0.1515579,0.3248978,0.1212702c1.0003128,0.2504835,1.7016525,0.9848366,2.5077934,1.5495005
		c-0.0292091,0.6971798,0.5778351,1.0801907,0.8131828,1.6467571c0.6923065,0.5632362,1.0374985,1.4096279,1.657486,2.0318604
		l-0.0012665-0.0016518c0.2864265,0.5318794,0.7370987,0.9101868,1.1970978,1.2797661c0,0,0.0320892,0.0266132,0.0319328,0.0265179
		c0.0440102,0.042181,0.0881729,0.0844612,0.1323395,0.1267395l0.0305061,0.0383244
		c-0.0018196,0.0859222,0.035778,0.1294651,0.1257439,0.1164837c0.0366859,0.042738,0.0829124,0.0680447,0.1386757,0.0758419
		c0.1310768,0.3586044,0.6757774,0.3342495,0.7179794,0.7752419c-0.0656548,0.1460991-0.1929436,0.1850929-0.3375664,0.1941757
		c-0.1001587-0.1985989-0.2931747-0.1822777-0.4700661-0.2032452c-0.9164581-1.3796711-2.3748779-2.2645836-3.3112526-3.6328773
		c-0.2231636-0.3260918-0.546299-0.5143528-0.5915222-1.0106449c-0.0406265-0.4459362-0.2429428-0.97262-0.6481857-1.2834473
		c-1.3925476-1.0681057-2.9346275-1.8092527-4.6972771-2.0286942c-0.1531906-0.0190706-0.2560959-0.0879288-0.2955627-0.2407274
		c-0.0116081-0.0365829-0.0094681-0.072341,0.006424-0.1072779c0.0973663,0.0146694,0.194725,0.0293379,0.2922401,0.0439472
		c0.1028137,0.1140909,0.2328796,0.1181564,0.3704376,0.0921021c0.2227249,0.0253019,0.4454536,0.0506029,0.6681595,0.0758667
		C39.7629051,14.6299858,40.0008926,14.6001797,40.2355042,14.588233z"/>
	<path style="fill:#F2F1F0;" d="M31.4456444,14.7771349c0.0928192-0.5937243,0.1191959-1.2224951,0.79562-1.5083971
		c0.1814346,0.6397514,0.6365166,0.0710192,0.9705963,0.2066288c0.8377495,0.3400574,1.7369957,0.5264921,2.5480461,0.9544678
		c0.0882301,0.0465565,0.2178001,0.0147581,0.3282127,0.0192604c-0.1699448,0.1062937-0.3398972,0.2126341-0.5099258,0.3189907
		c-1.0378456-0.0670872-1.8011284,0.5925169-2.6581345,1.003993C32.7294846,14.9945307,32.0859299,14.8882542,31.4456444,14.7771349
		z"/>
	<path style="fill:#3F3C6A;" d="M9.8938551,35.4552231c-0.4718399,0.1027756-0.883502-0.1084938-1.2165518-0.3641357
		c-0.9605813-0.7373085-1.9643397-1.4511681-2.4469066-2.6383133c0.2306709-0.5367756,0.4805164-1.0665417,0.6825013-1.6139717
		c0.0721402-0.1955223,0.1614523-0.3325481,0.3363171-0.4249859c0.1595416,0.7710915-0.5241704,1.4301567-0.2543912,2.2605228
		c0.0952749,0.293251,0.0999589,0.562397,0.3947783,0.7058067c0.3836155,0.1865997,0.504283-0.1749763,0.7207475-0.4275093
		c0.2325249,0.3302994,0.2532654,0.7951012,0.7082415,0.8807373c0.0416126,0.0078278,0.1102304,0.0930443,0.1009493,0.1184959
		c-0.3355398,0.9201393,0.5356426,0.9688911,0.9575758,1.3425064C9.9068546,35.3207054,9.8893776,35.4003639,9.8938551,35.4552231z"
		/>
	<path style="fill:#4A221C;" d="M9.2201614,22.5470657C8.5810471,23.1584415,8.4863043,23.9043884,8.525836,24.7591
		c0.025322,0.5475273-0.2405052,1.1085205-0.374938,1.6631756c-0.1840291,0.2375355-0.3645711,0.4684658-0.3781881,0.7980862
		c-0.0090604,0.2193089,0.0786748,0.531517-0.3096232,0.5546818c-0.3185067-0.3799019-0.2448673-0.8245621-0.1560163-1.2422028
		c0.245482-1.1538811,0.7242274-2.2517986,0.7712197-3.4562187c0.0253649-0.6501083,0.5743628-0.6247826,1.0385828-0.6645069
		C9.151083,22.4571323,9.1856213,22.5021,9.2201614,22.5470657z"/>
	<path style="fill:#AA9492;" d="M30.0676289,6.8088531c-0.056118-0.0104055-0.1122322-0.0208116-0.1682205-0.031199
		c-0.1688709-0.2200146-0.3378716-0.4400468-0.5068703-0.660079c0.7969589-0.33112,1.5793571-0.5356431,2.2466602,0.2586126
		c-0.3482742,0.2133985-0.2262306,0.4696317-0.0666885,0.7293196c-0.1397152,0.004344-0.2794876,0.0086532-0.4192581,0.0129623
		C30.7261219,7.2440777,30.4931393,6.6889272,30.0676289,6.8088531z"/>
	<path style="fill:#B25F5A;" d="M7.4630866,27.7750435c0.388298-0.0231647,0.3005629-0.3353729,0.3096232-0.5546818
		c0.013617-0.3296204,0.194159-0.5605507,0.3781881-0.7980862c0.18472,0.0463409,0.2699404,0.1931286,0.3064127,0.3551598
		c0.1051178,0.4669838-0.5405936,1.7977924-1.0014877,2.0894375C7.4582644,28.5024548,7.4606757,28.1387501,7.4630866,27.7750435z"
		/>
	<path style="fill:#F2F1F0;" d="M46.2035599,20.1248646c-0.6199875-0.6222324-0.9651794-1.4686241-1.6574707-2.0318928
		c0.0177383-0.1659184,0.0354691-0.3318024,0.0531998-0.4976864C45.3963013,18.2721519,46.0950317,19.0113525,46.2035599,20.1248646
		z"/>
	<path style="fill:#B25F5A;" d="M9.2201614,22.5470657C9.1856213,22.5021,9.151083,22.4571323,9.1168728,22.4121151
		c0.2646751-0.5405827,0.0341196-1.1874027,0.3682947-1.7134247c0.7642508,0.15411,0.8938055,0.3944168,0.4403305,0.9895592
		C9.7035913,21.9794788,9.5868816,22.371891,9.2201614,22.5470657z"/>
	<path style="fill:#F2F1F0;" d="M48.5765686,22.5621281c-0.042202-0.4409924-0.5869026-0.4166374-0.7179794-0.7752419
		c1.0012436,0.1238804,2.0005035,0.9640923,2.0132256,1.6928711c-0.256012-0.0400295-0.3241463-0.4348183-0.6494293-0.3439941
		C49.0071487,22.9445515,48.7918625,22.7533417,48.5765686,22.5621281z"/>
	<path style="fill:#F2F1F0;" d="M47.3993912,21.4029789c-0.4599991-0.3695793-0.9106712-0.7478867-1.1970978-1.2797661
		c0.4164772-0.0118866,0.7421417,0.2700577,1.1303444,0.3730183C47.8434143,20.6317062,47.2523842,21.0959911,47.3993912,21.4029789
		z"/>
	<path style="fill:#B25F5A;" d="M35.5782661,14.7680674c0.1699562-0.1063385,0.3399086-0.2126789,0.5098534-0.3189745
		c0.0521584-0.0153723,0.1043282-0.0307884,0.1564484-0.0461683c0.0832863-0.0317421,0.166626-0.0635176,0.2499619-0.095293
		c0.1945267-0.0245209,0.3890495-0.0490417,0.5835381-0.0735483c0.2817574,0.0291271,0.5635376,0.058239,0.8451233,0.0873194
		c-0.3368797,0.4816189-0.9692879,0.094058-1.3461304,0.4578018c-0.2866325-0.0450344-0.5687943-0.028019-0.8459053,0.0600357
		C35.680191,14.8155155,35.6292305,14.791791,35.5782661,14.7680674z"/>
	<path style="fill:#B25F5A;" d="M31.5724564,7.1054716c-0.1594887-0.2596521-0.2815323-0.5158854,0.0667419-0.7292838
		c0.3460026,0.3020997,0.6043205,0.6718898,0.8263741,1.0695658c-0.1909561,0.0011182-0.3817177,0.0022202-0.5724831,0.0033455
		L31.90798,7.4537826C31.7961369,7.3376789,31.6842957,7.2215757,31.5724564,7.1054716z"/>
	<path style="fill:#3F3C6A;" d="M29.3925381,6.1175752c0.1689987,0.2200322,0.3379993,0.4400644,0.5068703,0.660079
		c-0.6159725-0.105794-1.0545864-0.5908694-1.6383266-0.7654405C28.6402054,6.0258508,29.0399036,5.818974,29.3925381,6.1175752z"/>
	<path style="fill:#B5201C;" d="M44.5992889,17.5952854c-0.0177307,0.165884-0.0354614,0.331768-0.0531998,0.4976864
		c-0.235363-0.566534-0.8424072-0.9495449-0.8131981-1.6467247c0.0471115-0.0023594,0.0941696-0.0021477,0.1412239,0.0006599
		c0.2227669,0.2914257,0.4455185,0.5828419,0.6682701,0.8742561C44.5613556,17.4125366,44.5803185,17.503912,44.5992889,17.5952854z
		"/>
	<path style="fill:#F2F1F0;" d="M44.5423851,17.3211632c-0.2227516-0.2914143-0.4455032-0.5828304-0.6682701-0.8742561
		c0.3434372-0.4128666,0.6404991-0.0345078,0.8442726,0.1274376C45.0715485,16.8550148,44.4598579,17.0298653,44.5423851,17.3211632
		z"/>
	<path style="fill:#F2F1F0;" d="M32.5541687,11.6140327c-0.3992386-0.510663-0.1999855-0.9418583,0.1791077-1.3491306
		C32.6444588,10.7107763,33.1290092,11.2327108,32.5541687,11.6140327z"/>
	<path style="fill:#F2F1F0;" d="M33.0732765,9.6081095c0.0466652-0.331728,0.0933304-0.663455,0.1399727-0.9951801
		C33.7611389,9.0223932,33.7264099,9.2693558,33.0732765,9.6081095z"/>
	<path style="fill:#F2F1F0;" d="M37.9233932,14.321435c-0.2817879-0.0291128-0.5635681-0.0582247-0.8453255-0.0873518
		c0.3856125-0.0769663,0.777668-0.6411238,1.1534958,0.0153093c-0.0158958,0.034934-0.0180359,0.0706921-0.0061722,0.107316
		C38.124897,14.3449774,38.024147,14.3332062,37.9233932,14.321435z"/>
	<path style="fill:#C5C2C2;" d="M31.8930931,7.4490757c0.1907616-0.001102,0.3815231-0.0022039,0.5724792-0.0033221
		c0.1203537,0.0645475,0.1387138,0.1742973,0.1316147,0.2954125c-0.0946884,0.0845256-0.1896362,0.1691027-0.2833786,0.2530098
		c-0.0184288-0.2885933-0.2708511-0.150774-0.4077282-0.2242699l0.0104904,0.0098782
		C31.9087448,7.669548,31.900919,7.5593119,31.8930931,7.4490757z"/>
	<path style="fill:#F2F1F0;" d="M40.2355042,14.588233c-0.2346115,0.0119467-0.472599,0.0417528-0.6731071-0.1269264
		C39.8442917,14.1985655,40.0901222,14.1269875,40.2355042,14.588233z"/>
	<path style="fill:#F2F1F0;" d="M32.3805809,12.9273653c0.0191345-0.2295189-0.0165291-0.4719744,0.1570168-0.6650105
		C32.881649,12.5776215,32.5822906,12.7409668,32.3805809,12.9273653z"/>
	<path style="fill:#F2F1F0;" d="M38.8942375,14.3854399c-0.137558,0.0260534-0.2676239,0.0219879-0.3704376-0.092103
		C38.6613731,14.2669287,38.7909813,14.2731295,38.8942375,14.3854399z"/>
	<path style="fill:#F2F1F0;" d="M41.2250977,14.8967466c-0.1347198,0.0302877-0.2580605,0.0300951-0.3248978-0.1212721
		C41.0085335,14.8159256,41.1168175,14.8563366,41.2250977,14.8967466z"/>
	<path style="fill:#F2F1F0;" d="M5.2741413,33.0907059c-0.0544467,0.0595932-0.1088934,0.1191864-0.1633306,0.1788101
		C5.1652598,33.2099266,5.2197003,33.1503143,5.2741413,33.0907059z"/>
	<path style="fill:#F2F1F0;" d="M47.7199135,21.7110443c-0.0899658,0.0129814-0.1275635-0.0305614-0.1257439-0.1164837
		C47.6361313,21.6334457,47.6780243,21.672245,47.7199135,21.7110443z"/>
	<path style="fill:#F2F1F0;" d="M5.1180086,33.2620354c-0.0524173,0.0650635-0.1048336,0.130127-0.157218,0.1952972
		C5.0132184,33.3923073,5.0656137,33.3271713,5.1180086,33.2620354z"/>
	<path style="fill:#F2F1F0;" d="M47.5636635,21.5562363c-0.0441666-0.0422783-0.0883293-0.0845585-0.1323395-0.1267395
		C47.475544,21.4718075,47.5196037,21.5140209,47.5636635,21.5562363z"/>
	<path style="fill:#F2F1F0;" d="M40.7252045,14.717804c-0.0708008-0.0297441-0.1416054-0.0594893-0.2126045-0.0891762
		C40.5833397,14.6583929,40.6542702,14.688098,40.7252045,14.717804z"/>
	<path style="fill:#F2F1F0;" d="M36.4945297,14.3076315c-0.0833359,0.0317755-0.1666756,0.0635509-0.2499619,0.095293
		C36.3279266,14.3711357,36.4112282,14.3393831,36.4945297,14.3076315z"/>
	<path style="fill:#F2F1F0;" d="M5.9752927,32.6036491c-0.0688224,0.0421104-0.1376452,0.0842171-0.2064662,0.1263237
		C5.8376498,32.6878624,5.9064713,32.6457558,5.9752927,32.6036491z"/>
	<path style="fill:#F2F1F0;" d="M32.7684441,10.1048613c-0.0354805-0.1193085,0.0433998-0.1533642,0.1334839-0.17906
		C32.8574333,9.9854898,32.8129387,10.0451756,32.7684441,10.1048613z"/>
	<path style="fill:#F2F1F0;" d="M5.4837737,32.9398727c-0.0706463,0.0510368-0.1412935,0.1020737-0.2119298,0.1531029
		C5.342494,33.0419388,5.4131336,32.9909058,5.4837737,32.9398727z"/>
	<path style="fill:#046EBE;" d="M15.7735319,31.409586c-0.0061207,0.3580379,0.1383924,0.8183651-0.5271931,0.6901684
		c-0.2277946-0.0438766-0.3071899,0.1939316-0.4367228,0.3315239c-0.4425983,0.4701309-0.9120998,0.892231-1.6301193,0.8231812
		c-0.2383108-0.0229225-0.4684725,0.0572281-0.5823441,0.2547035c-0.5029564,0.8722343-1.3250742,0.6693344-2.043354,0.5414543
		c-0.7954102-0.1416054-1.5019693-0.5414696-1.8890715-1.3302727c-0.0605469-0.1233749-0.120779-0.2567444-0.2148542-0.3523254
		c-1.0688953-1.0859661-0.9519796-2.2584171-0.2712088-3.4791412c0.6613283-1.1858635,0.6333103-2.5105057,0.7442703-3.8032665
		c0.0720139-0.8390064,0.2262363-1.6196404,0.8398752-2.2659054c0.4271898-0.4499092,0.5116158-1.0957813,0.7802773-1.6397858
		c0.1183853-0.2397156-0.0599585-0.4035244-0.1888399-0.5894814c-0.4062243-0.5861187-0.4043255-1.1676998,0.0649223-1.732357
		c0.5283051-0.6357231,1.0482941-1.2783813,1.5694895-1.919981c0.2592783-0.3191757,0.2866678-0.6501007,0.0185146-0.9780464
		c-0.3134441-0.3833332-0.2869549-0.6570005,0.0740948-1.0647411c0.449378-0.5074911,0.7555389-1.1509428,1.0765533-1.7604322
		c0.3340931-0.6343222,0.7811213-1.1911993,1.2452459-1.7127075c0.6978865-0.7841721,1.3879204-1.7212849,2.2912836-2.1364307
		c0.9419212-0.4328671,1.8525887-1.4800243,3.1771679-0.7677946c0.3346443,0.1799393,0.8639221-0.3345308,1.1272106-0.6262941
		c1.0286465-1.1398983,2.4614372-0.9673896,3.7358265-1.2445502c0.6703835-0.1457982,1.4246616-0.1387739,2.1100292,0.2259345
		c0.3536873,0.1882076,0.7607174,0.054739,1.1289749-0.0833912c0.6138916-0.2302647,0.9470272-0.0493503,0.947422,0.6335883
		c-0.0136127,0.0251575-0.0307503,0.0473638-0.0515842,0.0667181c-0.3174782,0.2646952-0.5401287,0.5268312,0.0207233,0.7678189
		c0.0941734,0.0314846,0.1883488,0.0629692,0.2827721,0.0940695c0.078207,0.1082773,0.1561604,0.2169399,0.2341156,0.3256016
		c0.661417,0.6049433,0.6349487,1.2209749,0.0555058,1.8712168c-0.0669613,0.0751476-0.0100842,0.2606535-0.0106258,0.3949938
		l-0.0304947,0.0377178c-0.2428074,0.0418701-0.337841,0.1886311-0.3033333,0.4273434
		c-0.0790043,0.1277857-0.1580067,0.2555714-0.237011,0.383357c-0.2023964,0.0826025-0.3042049,0.2293434-0.2878532,0.4514303
		c-0.0320168,0.0625296-0.0640335,0.1250601-0.0960503,0.1875896c-0.1851406,0.0254116-0.2544994,0.1373119-0.2354889,0.3152304
		c-0.078846,0.1154995-0.15769,0.2309999-0.236536,0.3464994c-0.0936241,0.0028667-0.1872501,0.0057344-0.2808743,0.0086012
		c-0.320509-0.2661085-0.5536633,0.0371532-0.8197498,0.1257668c-0.5047779,0.086215-1.0807266-0.1147881-1.4871082,0.3685083
		c-0.0711308,0.0631399-0.1422577,0.1262798-0.2133884,0.1894207c-0.0973663,0.0020266-0.1947327,0.0040522-0.292099,0.0060797
		c-0.5330906,0.2577095-0.7837048,0.7200184-0.6442451,1.2590017c0.1188354,0.4592714,0.2164345,1.0570307,0.9201488,1.0609465
		l0.0321636,0.0315609c0.0017872,0.2075386,0.0035706,0.4150734,0.0053616,0.6226101
		c-0.1587143,0.0331192-0.3215733,0.0722599-0.2856121,0.2857704c0.0084763,0.050312,0.1152687,0.1343918,0.1448956,0.1226101
		c0.1869278-0.0743217,0.1174145-0.258831,0.1478558-0.4015484c0.3703861-0.0225677,0.5819759,0.4343262,0.9811153,0.3249416
		c0.1696262,0.124712,0.3392506,0.2494202,0.5088787,0.3741322c0.0633678,0.0354595,0.1267376,0.0709171,0.1901054,0.1063766
		c0.0563354,0.045332,0.1126747,0.090662,0.1690102,0.1359921c-0.1534348,0.9695396-0.8080616,1.6539631-1.3625431,2.3951912
		c-0.3044319-0.9194508-0.9573593-1.4269218-1.811039-1.4077682c-0.1708527-0.0067005-0.3417072-0.0134029-0.512558-0.0201054
		c-0.5847149-0.4698963-0.812624,0.1586132-1.1724968,0.3808765l-0.0308094,0.024086
		c-0.9009228,0.1581764-0.8025074,0.8685532-0.7409039,1.4728241c0.0602188,0.5906639,0.2647228,1.1666203,0.4058876,1.7490292
		c-0.9709625,1.2280979-2.3427792,2.0608196-3.2783642,3.3238087c-0.9734192-0.7713947-2.2469749-0.715004-3.0856743,0.1281242
		c-0.8133593,0.8176556-0.9041634,1.779089-0.5836382,2.8280277l-0.0088301,0.0075817
		c-0.2131748,0.0809669-0.8462095-0.3239746-0.5979166,0.1931896c0.4051476,0.8438759,0.5272255,1.8981838,1.424449,2.4680595
		C15.7594318,31.3069382,15.7682295,31.3579617,15.7735319,31.409586z"/>
	<path style="fill:#3F3C6A;" d="M15.7735319,31.409586c-0.0053024-0.0516243-0.0141001-0.1026478-0.0263023-0.1530685
		c0.0561953-0.2143345,0.0827303-0.2713451,0.3747282-0.1735516c0.3919029,0.1312485,0.7120056,0.6455383,1.2380524,0.3104744
		c0.3052979-0.1944542,1.017252,0.1448116,0.9421539-0.4394932c-0.0534496-0.415823-0.7125435-0.3493347-1.1395264-0.368742
		c-0.3632793-0.0165176-0.7541275,0.0091305-0.7018814-0.5423031c0.7080402,0.2716827,1.4216194,0.4589634,2.1673374,0.1368694
		c0.0131226,0.0445309,0.0262451,0.0890636,0.0393696,0.1335945c0.0042629-0.0446186,0.0085278-0.0892353,0.0127926-0.1338539
		l0.0155945-0.0035534c0.1313229,0.0260944,0.2626476,0.0521908,0.3939686,0.0782852
		c-0.0572147,0.1664143-0.1144314,0.3328323-0.1716576,0.4992294c-0.0553436,0.0555725-0.1106815,0.1111698-0.1660271,0.1667442
		c-0.0106087,0.0225544-0.0212097,0.0451317-0.0318089,0.067709c0.0124283-0.0207634,0.0248604-0.0415287,0.0372906-0.0622921
		c0.0556316-0.0552788,0.1112652-0.1105576,0.1668987-0.1658363c1.024004-0.0812798,1.024004-0.0812798,0.6967068,0.8382168
		c-0.0138245,0.0564957-0.0276451,0.1129913-0.0413704,0.1693172c-0.2992458,0.0138702-0.4702702,0.1551628-0.4662457,0.4700603
		c-0.308651,0.2699165-0.6133518,0.5418434-0.5185661,1.0173912c-0.0547619,0.0659981-0.1095238,0.1319962-0.1642876,0.1979904
		c-0.2257786-0.0185623-0.3292866,0.0821953-0.3025475,0.3100471c-0.1495914,0.0440788-0.2100716,0.1529083-0.2179527,0.2999535
		c-0.3227844,0.1698456-0.6455669,0.3396912-0.9683495,0.5095406c-0.8921413-0.0548363-1.8560944,0.3864632-2.6452446-0.4019165
		c-0.1136932-0.1135826-0.342782-0.1086693-0.4500628,0.0362167c-0.0890627,0.120285-0.1747837,0.344986-0.1200161,0.4478149
		c0.1024008,0.1922607,0.3491964,0.0738411,0.5336828,0.0984688l-0.0024261-0.0024376
		c-0.0173407,0.1864548-0.104928,0.3321037-0.3030882,0.3201408c-0.8005171-0.0483475-1.5708323,0.3177032-2.3771162,0.1657219
		c0.6025705-1.1880989,1.9308882-2.0390282,3.5406771-1.4839058c0.4294653,0.1481018,0.9617891,0.474617,1.2594671-0.2394218
		C16.7571316,32.6030273,16.5476513,31.8700161,15.7735319,31.409586z"/>
	<path style="fill:#B25F5A;" d="M28.8810501,11.7920723c0.0790043-0.1277857,0.1580067-0.2555714,0.2365799-0.3828688
		c0.2830181-0.012991,0.2805119-0.229558,0.3037643-0.4278316c0,0,0.0304966-0.0377178,0.030098-0.0375662
		c0.3715878-0.6231108,1.2675056-1.0851908,0.6216888-2.0213804C30.66222,8.98985,30.9453716,8.604043,30.8655624,8.1413841
		c-0.1009827-0.5854287-0.7037716-0.6587839-1.1867046-0.6575637c-0.4548473,0.0011497-0.6139584,0.3070054-0.3822594,0.7409015
		c-0.0413189,0.0425024-0.0826359,0.0850039-0.1239567,0.1275053c-0.0941715-0.0314856-0.1883469-0.0629702-0.2822952-0.0941916
		c-0.0068359-0.2558517-0.0138931-0.5119672-0.0209522-0.7680821c0.0208378-0.0193543,0.0379753-0.0415606,0.0515881-0.0667181
		c0.1201401-0.0691109,0.2401199-0.1381197,0.3595486-0.2067842c0.1065674,0.0448046,0.198679,0.0455828,0.2459068-0.0843101
		c0.1893177-0.0151019,0.3786373-0.0302033,0.5677204-0.045126c0.6219177,0.1926184,1.1366119,0.6678343,1.8224125,0.6927691
		l-0.0104637-0.0098639c0.0279884,0.0634136,0.0559502,0.126812,0.0839081,0.1902103
		c0.1910114,1.2383881,0.0041523,2.1429701-1.2226887,2.9803238c-0.937582,0.6399269-1.2885742,2.0432005-1.8387222,3.1414576
		c-0.0385132,0.1589956-0.0106659,0.2912397,0.1483784,0.3709354c0.0397625,0.0582914,0.079525,0.1165848,0.1196804,0.1747789
		c0.0283356,0.2671642,0.0562782,0.5344276,0.084219,0.8016911c-0.0094261,0.1631956-0.0188522,0.3263912-0.0283241,0.4897909
		c-0.3531189,0.2397051,0.041687,0.7472525-0.3488216,0.9736605c-0.0290947-0.1287956-0.0997581-0.2643681-0.0808792-0.3860455
		c0.1926384-1.2416487,0.1528492-2.3723803-1.2787876-2.8932209c0.1783695-0.1569138,0.5279922-0.1556072,0.4810524-0.5206804
		c0.078846-0.1154995,0.15769-0.2309999,0.2363415-0.3461933c0.2122383-0.0050459,0.2888107-0.1118593,0.2356834-0.3155365
		c0.0320168-0.0625296,0.0640335-0.1250601,0.0958424-0.1872215C28.8942356,12.2244406,28.9060535,12.0199938,28.8810501,11.7920723
		z"/>
	<path style="fill:#F2F1F0;" d="M11.0964336,15.9143543c-0.2649994,0.442791-0.5299988,0.885582-0.8655462,1.4462528
		c-0.636651-1.0100365-1.0848198-2.0130882-0.7653465-3.1830053c0.2519579-0.9226751,1.4569941-1.6677647,2.6201677-1.7210274
		c0.2764921-0.01266,0.5541296-0.0003185,0.8313389,0.0006142c-0.0590477,0.4545422-0.3577881,0.7858543-0.6116381,1.1300545
		C11.7785988,14.3015566,11.4459848,15.1110935,11.0964336,15.9143543z"/>
	<path style="fill:#4A221C;" d="M14.2602615,34.7528992c-0.1844864-0.0246277-0.431282,0.093792-0.5336828-0.0984688
		c-0.0547676-0.102829,0.0309534-0.3275299,0.1200161-0.4478149c0.1072807-0.144886,0.3363695-0.1497993,0.4500628-0.0362167
		c0.7891502,0.7883797,1.7531033,0.3470802,2.6449757,0.4020195c-0.1148453,0.1156731-0.2294197,0.2312431-0.343998,0.3468094
		c-0.1167011,0.0149155-0.2334023,0.0298309-0.3501034,0.0447464c-0.2315655-0.0175781-0.478919-0.0977859-0.6406956,0.1615028
		c-0.1677837,0.0036774-0.3355665,0.0073547-0.5033503,0.0110321c-0.3904877-0.0767403-0.7262535,0.0272331-1.0092039,0.3056107
		c-0.2720785,0.0067863-0.544158,0.0135727-0.8162365,0.0203514c-0.6558266,0.0495605-1.311739,0.2478867-1.9667854-0.0011139
		c-0.0039349-0.1852303,0.1424456-0.1919365,0.2665195-0.2249451c0.8061352,0.1518936,1.5764503-0.2141571,2.3769674-0.1658096
		c0.1981602,0.0119629,0.2857475-0.1336861,0.3030958-0.320137c0.0133953-0.0225143,0.0267792-0.0450287,0.040164-0.067543
		C14.2854252,34.7062454,14.2728434,34.7295723,14.2602615,34.7528992z"/>
	<path style="fill:#3F3C6A;" d="M31.9165707,7.7797842c-0.6858006-0.0249348-1.2004948-0.5001507-1.8224144-0.6927691
		c-0.0086327-0.0929456-0.0174999-0.1857119-0.0264492-0.2783203c0.4254322-0.1197677,0.6584148,0.4353828,1.0855598,0.3097701
		c0.1956367,0.2376852,0.3882046,0.4822426,0.7547131,0.3353176L31.8930893,7.4491
		C31.900919,7.5593119,31.9087448,7.669548,31.9165707,7.7797842z"/>
	<path style="fill:#4A221C;" d="M10.9209061,35.5149193c-0.3367281,0.3468056-0.6697445,0.3309784-0.999136-0.0098991
		C10.2559509,35.4105301,10.5891991,35.3823128,10.9209061,35.5149193z"/>
	<path style="fill:#3F3C6A;" d="M29.5264378,7.1321406c-0.0472279,0.1298933-0.1393394,0.1291151-0.2459068,0.0843105
		C29.3628674,7.188118,29.4446507,7.1601295,29.5264378,7.1321406z"/>
	<path style="fill:#AE0608;" d="M3.1292067,37.7525406c0.8135936-0.0065041,1.4231462,0.4302216,1.5629673,1.1499252
		c0.0216775,0.1115837-0.0490713,0.2819824-0.135077,0.3653374c-0.1945238,0.1885262-0.2485971-0.0594177-0.3660197-0.1455917
		c-0.3779218-0.2773628-0.4779136-0.9071274-1.1008449-0.8719673C2.9989743,38.0761757,3.0807815,37.9156647,3.1292067,37.7525406z"
		/>
	<path style="fill:#AA9492;" d="M3.8977067,40.5626373c0.0317554-0.185627,0.0258913-0.3892136,0.103955-0.5527382
		c0.1215639-0.2546501,0.3683043-0.317955,0.6306262-0.2365227c0.1683555,0.0522614,0.2696643,0.1925507,0.2749743,0.3710098
		c0.0094171,0.3165207-0.1951919,0.424057-0.4717669,0.4428177c-0.108882,0.0073891-0.2184658,0.0044327-0.3277845,0.0063553
		C4.0376725,40.5833664,3.9676895,40.5730019,3.8977067,40.5626373z"/>
	<path style="fill:#AA9492;" d="M5.1177812,41.2596436c0.0599914,0.0172195,0.1199818,0.0344429,0.179791,0.0514145
		C5.2152276,41.3720055,5.1615791,41.3331108,5.1177812,41.2596436z"/>
	<path style="fill:#AE0608;" d="M13.2780457,35.462471c0.2720785-0.0067787,0.544158-0.0135651,0.8162069-0.0205574
		c0.4507513,0.2762337,0.7679567,0.1109581,1.0092335-0.3054047c0.1677837-0.0036774,0.3355665-0.0073547,0.5031424-0.011364
		c0.2871218,0.2395401,0.472456,0.0728378,0.6409035-0.161171c0.1167011-0.0149155,0.2334023-0.0298309,0.3500252-0.0447578
		c0.6500072,0.0402374,1.2674007,0.0303688,1.3126945-0.8564415c0.0078812-0.1470451,0.0683613-0.2558746,0.2176113-0.3000031
		c0.1830254-0.0228615,0.2841263-0.126152,0.3028889-0.3099976c0.0547638-0.0659943,0.1095257-0.1319923,0.1642342-0.1980019
		c0.509943-0.1252518,0.8198261-0.4221764,0.8342953-0.9725456c0.0585308-0.0621223,0.1170616-0.1242447,0.1755924-0.1863632
		c0.5926781-0.1495285,1.0630779-0.4040051,0.9759331-1.1370335c0.518795-0.2098236,0.6970959-0.723032,1.0302963-1.1031857
		c1.6525402-1.8854122,3.3954334-3.6889534,5.233099-5.3992863c0.4856853-0.452034,1.0015507-0.9418621,0.7317181-1.7281265
		c-0.3008995-0.8767776,0.2100086-1.3618507,0.8410378-1.7961121c-0.0007439,0.3041992-0.000391,0.6084099-0.0023594,0.9126072
		c-0.0031605,0.4879856,0.4125004,0.7648659,0.6824913,0.541708c0.5569572-0.4603424,1.2490616-0.5562229,1.8244114-0.9148865
		c0.0925999-0.057724,0.1066685-0.2414169,0.1570377-0.3668804c1.3020535-0.2946453,2.5355701-0.883543,3.9736652-0.9059143
		c-0.3588142,0.6190453-0.7195129,1.1835995-1.3102684,1.5613918c-1.2246857,0.7831974-2.4692307,1.5366669-3.6741562,2.3490124
		c-0.9160786,0.6176052-2.0771942,1.0138874-2.3243294,2.3129406c-0.0558834,0.0558548-0.1117668,0.1117096-0.1676483,0.1675682
		c-0.2482243-0.0044079-0.4028988,0.1584969-0.562645,0.3134384c-1.1714668,1.1362247-2.0470371,2.441679-2.3533993,4.2073841
		c3.8204021-0.7270832,7.1538773-2.7434044,10.9210377-3.8633633c-0.2241249,0.7143803-0.7737694,0.8989391-1.1540031,1.2197628
		c-1.3635712,1.1505241-2.4124222,2.6695518-4.1605701,3.3777618c-1.2898922,0.5225639-2.5280056,1.1610603-3.8427849,1.6465683
		c-0.6561985,0.2423172-1.5240993,0.417244-1.8525238,1.2505798c-1.0968609-0.0998917-1.6313896,0.748661-2.3033962,1.3653297
		c-1.5027122-0.0258713-2.8208256,0.623909-4.1754475,1.1400146c-0.5026531-0.4453697-1.0933018-0.5500069-1.7466583-0.5012932
		c-0.4401598,0.0328178-0.6301136,0.530468-1.0754576,0.5166168c-0.4731941-0.6763229-1.3771114-0.8900375-2.1473312-0.5479927
		c-0.9445915,0.419487-1.7987537,1.0569763-2.8587456,1.2019005l-0.0021906-0.0024796
		c0.3187103-1.0308113,1.053256-1.6361427,2.0392532-1.9735565C12.6486149,35.8213615,13.0810871,35.8865547,13.2780457,35.462471z"
		/>
	<path style="fill:#D71508;" d="M5.5903764,38.2509155c-0.1902075-0.0136185-0.3891606,0.0097198-0.4787321-0.2322006
		c-0.4280968-1.1562386-0.7304158-2.2955322-0.1280932-3.5097542c0.7435188-1.4988594,1.0480685-1.5646629,2.1662641-0.2535172
		c0.6898608,0.8088913,1.0820765,1.7837563,1.2667956,2.819046c0.0739126,0.4142532,0.5357056,0.5808754,0.5100822,1.0112534
		c0,0-0.0190477,0.0182571-0.0187893,0.0180206c-1.5722628-0.7754707-1.8896618-0.7582703-2.6489239,0.1433296
		c-0.057446,0.0016899-0.1148906,0.0033836-0.1723366,0.0050812C5.9213772,38.190258,5.7564759,37.9845886,5.5903764,38.2509155z"/>
	<path style="fill:#AE0608;" d="M5.5903764,38.2509155c0.1660995-0.2663269,0.3310008-0.0606575,0.496428,0.0012169
		c-0.0949359,0.3688545-0.136342,0.702507,0.0358272,1.0977364c0.3950219,0.9068146,1.0973434,1.1364136,1.983705,1.0841789
		c0.4564734,0.2018547,0.8932362-0.1564255,1.3465433-0.0479584c0.2126722,0.2128105,0.1069527,0.312912-0.1290846,0.3722267
		c-0.3005867,0.0755424-0.6337328,0.0751801-0.8485556,0.3558197l-0.0349865,0.0133896
		c-0.0931997-0.0182266-0.1909552-0.0554276-0.2519484,0.0604897c-0.0837488,0.04039-0.1674976,0.0807877-0.251245,0.1211815
		C7.83605,41.3245697,7.7350392,41.3399391,7.634181,41.355484c-0.0623102-0.007412-0.124774-0.0149956-0.1872368-0.0225754
		c-0.1746936-0.0213776-0.3493881-0.0427551-0.5240369-0.0641136c-0.0119557-0.0590591-0.0239577-0.1181335-0.0359616-0.1772118
		c0.1640668-0.0463524,0.4722199,0.0718231,0.4386301-0.2067795c-0.0251079-0.2082672-0.3332381-0.3622475-0.5277123-0.2546501
		c-0.8096681,0.4479752-0.8577037-0.3699188-0.9821644-0.6888695C5.6149592,39.4268532,5.6531253,38.819191,5.5903764,38.2509155z"
		/>
	<path style="fill:#D71508;" d="M8.926693,38.0857391c0.2225838,0.0016403,0.4451675,0.0032806,0.6677771,0.004818
		c0.0518494,0.0542107,0.1036692,0.1085205,0.1554899,0.1628304c-0.1503878,0.3703194-0.4749823,0.3235703-0.7797155,0.3255119
		c-0.0211763-0.1582832-0.0418892-0.3165932-0.0626011-0.4748993L8.926693,38.0857391z"/>
	<path style="fill:#AA9492;" d="M6.8869457,41.0915833c0.0120039,0.0590782,0.0240059,0.1181526,0.0359616,0.1772156
		c-0.3203397,0.2344856-0.6680789,0.1162453-1.0095768,0.0781822C6.2099438,41.1550827,6.5163121,41.0006714,6.8869457,41.0915833z"
		/>
	<path style="fill:#AE0608;" d="M9.7499599,38.2533875c-0.0518208-0.0543098-0.1036406-0.1086197-0.1554899-0.1628304
		c0.1714506-0.2511749,0.4352064-0.1540298,0.6672335-0.1766434l0.0021639,0.0024452
		C10.1686172,38.1446648,9.9893656,38.2448845,9.7499599,38.2533875z"/>
	<path style="fill:#C5C2C2;" d="M51.5486412,26.4442978c-0.0190392,0.3056488,0.0590973,0.5833054,0.1847992,0.8647442
		c0.2469292,0.5528603,0.2626038,1.1033993-0.1427193,1.6070518c-0.7987099-0.7466049-0.5218201-1.5783539-0.1920891-2.414711
		c0.0098305-0.02495,0.0103683-0.0535622,0.0152435-0.0804291C51.4591675,26.4266376,51.5040855,26.4344082,51.5486412,26.4442978z"
		/>
	<path style="fill:#E1DEDD;" d="M52.4911919,29.302824c-0.0199585-0.0072384-0.0564842-0.0139256-0.0567436-0.0218143
		c-0.0007629-0.0229855,0.0129776-0.0464554,0.0210304-0.0697327c0.0199814,0.007225,0.0565529,0.0139427,0.0567932,0.0217781
		C52.5129814,29.2560749,52.4992638,29.2795353,52.4911919,29.302824z"/>
	<path style="fill:#3F3C6A;" d="M28.9037304,16.8924427c0.3905144-0.2260818-0.0042915-0.7336292,0.3488274-0.9733343
		c0.2318649,0.2516279,0.3691063,0.760623,0.8337402,0.1723509c0.1409321-0.1784353,0.4727345-0.4186802,0.8264523-0.3021297
		c0.0136166,0.149003,0.0272255,0.2981567,0.0407085,0.447319c-0.5070419,0.7688599-1.0083065,1.5415154-1.5225563,2.3054295
		c-0.4620113,0.6863136-0.9533482,1.3459682-1.8040638,1.5957794c0.5273323-0.6998901,0.7683201-1.5771484,1.5636311-2.2729759
		c-1.0866699,0.2779236-1.0866699,0.2779236-1.7573242-0.1264801c0.3415432-0.0635643,0.7895679,0.2543945,0.9998474-0.2792397
		l-0.0028725-0.0059319c0.0574646-0.0528851,0.1149349-0.1057701,0.1724033-0.1586571l0.0022125,0.0023403
		c0.1294708-0.0150909,0.2471066-0.0431385,0.2342911-0.2140026C28.8605957,17.0194206,28.882164,16.9559307,28.9037304,16.8924427z
		"/>
	<path style="fill:#AA9492;" d="M30.9535866,16.236639c-0.0136108-0.1491528-0.0272198-0.2983065-0.0408363-0.4473095
		c0.1776981-0.3375607,0.3553982-0.6752701,0.532999-1.0125866c0.6401806,0.1115112,1.2837353,0.2177877,1.4741917,0.9953518
		c-0.4738808,0.4452877-1.0693207,0.5937996-1.6857414,0.6911259C31.1406631,16.3876839,31.047123,16.3121605,30.9535866,16.236639z
		"/>
	<path style="fill:#046EBE;" d="M31.781044,11.9740982c0.2475471,0.0065527,0.2843437,0.1624355,0.2872505,0.3332882
		c0.0042305,0.2484646-0.0000648,0.518012-0.3207626,0.5590267c-0.1835957,0.0234814-0.3230896-0.1302118-0.2745838-0.3069315
		C31.53158,12.3458567,31.512886,12.0621691,31.781044,11.9740982z"/>
	<path style="fill:#3F3C6A;" d="M29.2808857,15.4293175c-0.0279446-0.2672634-0.0558872-0.5345268-0.0842228-0.8016911
		C29.5270386,14.8629837,29.4417439,15.1421623,29.2808857,15.4293175z"/>
	<path style="fill:#3F3C6A;" d="M31.990015,7.9601307c-0.0279579-0.0633984-0.0559196-0.1267967-0.0839081-0.1902103
		c0.1368504,0.0734816,0.3892727-0.0643377,0.4077015,0.224256C32.1980019,8.0489807,32.0875015,8.0650349,31.990015,7.9601307z"/>
	<path style="fill:#3F3C6A;" d="M29.0769825,14.4528475c-0.1590443-0.0796957-0.1868916-0.2119398-0.1483784-0.3709354
		C29.0644474,14.1709309,29.0927944,14.3030691,29.0769825,14.4528475z"/>
	<path style="fill:#DD2713;" d="M48.5765686,22.5621281c0.2152939,0.1912136,0.4305801,0.3824234,0.6458168,0.5736351
		c0.6055527,0.9786606,1.2249374,1.9531918,1.4664612,3.1012306c0.1822662,0.8663788-0.157196,1.3298759-0.9611702,1.3566723
		c-0.0000267-0.0000229-0.0041771-0.0034943-0.0041771-0.0034943c-0.0405769-0.5393219-0.4425621-0.4939747-0.8117104-0.5017567
		l-0.0167313-0.0106659c-0.0781021-0.4416103-0.4267883-0.280035-0.6898003-0.3094368
		c-0.9264946-0.20434-1.8461418-0.3167648-2.7290916,0.1749306c-0.8162193,0.4545269-1.3490791,1.1365299-1.5477104,2.0422668
		c-0.2422333,1.1045284,0.0687828,2.0458832,0.9539223,2.7765388c-1.019516-0.1079693-1.4682312,0.406229-1.5366287,1.3750744
		c-0.0101357,0.1436615-0.1498528,0.2973099-0.2644501,0.411335c-0.7188187,0.7152405-1.6341133,1.0625076-2.5709991,1.3849716
		c-0.5206985,0.1792145-1.0962334,0.0634308-1.590477,0.3834686c-1.0904503,0.7060928-2.2949219,1.173172-3.5171509,1.5953407
		c-0.5237885,0.0959587-1.0814056,0.0888977-1.503994,0.493454c-1.6628914,0.1582603-3.2931557,0.6049042-4.9742908,0.5887909
		c-0.8890705-0.0085144-1.5440464,0.3734818-2.242281,0.9129982c-1.4014492,1.0828857-3.7962246,0.3970184-4.4334507-1.1566887
		c0.165411,0.0077324,0.3359737-0.0078545,0.4953289,0.0273132c0.6267262,0.1383133,1.2741489,0.3605385,1.2742577-0.6879501
		c0.0000172-0.1872749,0.1772976-0.3411903,0.4166603-0.3137436c0.0111027,0.1802483-0.0498886,0.4686279,0.2489338,0.3941765
		c0.5552998-0.1383591,1.0981197,0.0372086,1.6185341-0.0007401c0.3312302-0.0241508,0.8971539,0.4156761,1.1134682-0.2473335
		c0.5000801,0.0585938,1.0001602,0.1171875,1.5001945,0.175621c0.7961369,0.6473465,1.7680969,0.4350967,2.5445576,0.2106895
		c1.7799988-0.5144386,3.6092415-0.8269463,5.3631172-1.4907379c1.4569778-0.5514221,2.6363792-1.4363556,3.8661461-2.2958832
		c0.2148323-0.1501541,0.3373642-0.4584465,0.1129189-0.6460915c-0.2276192-0.1903038-0.4062729,0.1100464-0.5147972,0.2664719
		c-0.4637222,0.668396-1.1064148,1.0546417-1.8661194,1.2806015c-0.0611992-0.3363457-0.1223946-0.6726913-0.1835899-1.009037
		c0.0056305-0.1195946,0.011261-0.2391891,0.0168839-0.3587837c0.1531334-0.3874283,0.3097343-0.7539368,0.853405-0.6405029
		c0.2622795,0.0547218,0.4677849-0.0945129,0.6631622-0.2688675c0.4207649-0.3754845,0.8631477-0.6393147,1.4795418-0.4059048
		c0.2414436,0.0914249,0.5486984,0.0332527,0.8226852,0.0078068c0.2779236-0.0258102,0.5625572-0.0962429,0.6409874-0.4222183
		c0.0693817-0.2883949-0.017807-0.5388069-0.2421188-0.7479343c-0.5403442-0.5037708-1.1826248-0.6564026-1.8968163-0.5731602
		c-1.0458641,0.1218987-1.7190361,0.7959385-2.3210182,1.5737953c-1.2844086-0.073988-2.2635193,1.0387764-3.5760498,0.9190636
		c-0.2109489-0.0192375-0.5983391,0.2479858-0.6530304,0.4505806c-0.2296638,0.85075-0.8721352,0.8014259-1.5439491,0.9603004
		c-1.0663204,0.2521629-2.0716915,0.7527771-3.1165161,1.1080856c-0.794632,0.2702217-1.6101456,0.4795494-2.4504509,0.5666275
		c0.0068607-0.2268906-0.0183125-0.4412804-0.1978321-0.6099548c-0.5944653-0.5585442-0.1450653-1.0495872,0.2970638-1.1146469
		c0.6289692-0.092556,1.1385651-0.3923683,1.6841602-0.6155319c1.2351322-0.5052109,2.5308647-0.8918877,3.6282291-1.6973877
		c0.310421-0.2278557,0.541317-0.5469532,0.9135246-0.7074871c1.3358727-0.5761509,2.7048683-1.0648975,4.0282516-1.6841164
		c1.0367851-0.485117,2.1960297-0.7271252,3.2256393-1.2815342c1.2739677-0.6859837,2.7167511-0.9021988,4.0703735-1.3613949
		c0.6338081-0.2150059,1.1481133-0.7173862,1.8514557-0.731493c0.8889961-0.0178299,1.3636169-0.6660633,2.0414429-1.3196774
		c-0.5363617-0.0272007-1.0440521,0.0106716-1.1294403-0.4323139c-0.0804138-0.4172173,0.2994194-0.7280731,0.5930519-1.0130482
		c0.0976372-0.0947533,0.2116737-0.1725998,0.3182182-0.2581768C48.383625,22.747221,48.5109138,22.7082272,48.5765686,22.5621281z
		 M24.9975586,37.4270821c-0.0415916,0.025589-0.0817356,0.0502853-0.1218796,0.0749817
		c0.0417309,0.0220375,0.0838242,0.0619354,0.1250877,0.0610962c0.0412998-0.0008392,0.0817738-0.0423889,0.1226082-0.0660934
		C25.0820045,37.4740524,25.0406342,37.4510422,24.9975586,37.4270821z"/>
	<path style="fill:#AA9492;" d="M7.9370599,41.3091965c0.0837474-0.0403938,0.1674962-0.0807915,0.2503266-0.1210823
		c0.0836782-0.0201302,0.168273-0.0403595,0.2528667-0.060585l0.034524-0.0135994
		c0.7085161,0.101841,1.3870497-0.0958366,2.0693121-0.2256012c1.3747969-0.2614861,2.7682161,0.00737,4.1457691-0.1721535
		c1.2887983-0.1679573,2.5840864-0.2671051,3.8846254-0.2846909c0.1228065,0.0302544,0.245615,0.0605125,0.3684216,0.0907669
		c0.3668442,0.0820808,0.7357197,0.1096916,1.1081734,0.0413132c1.6612549,0.2917404,3.1911869-0.68293,4.8538189-0.4899139
		c0.7612476,0.0883751,1.5538864,0.062439,2.1860256-0.5245438c0.1629505-0.15131,0.3602562-0.0716362,0.5498676-0.0220451
		c0.8818951,0.2306747,1.7451477,0.0983124,2.6011219-0.1472969c1.0497398,0.0892448,2.1479454-0.094326,2.9362335-0.6545334
		c1.0675583-0.7586784,2.1628647-0.8939819,3.3782616-1.1291733c1.7046165-0.3298569,3.3103218-1.1770401,4.9523087-1.8183556
		c0.2745476-0.1072273,0.5755844-0.2097054,0.7371025-0.4994354l0.0084343-0.0101433
		c0.0696983-0.0484352,0.1394005-0.0968704,0.2090988-0.1453094c0.1035385-0.0438118,0.2070732-0.0876198,0.3106155-0.1314316
		c0.412323-0.059082,0.82967-0.1023445,1.174942-0.3727722c0.3692513-0.0744705,0.7384987-0.1489449,1.1077499-0.2234154
		c0.8828506,0.1597366,1.5479851-0.4667473,2.3366852-0.6470604c0.1510658,0.3202972-0.0118103,0.4185295-0.3014755,0.5151215
		c-1.334156,0.4448929-2.6666183,0.8971939-3.9828491,1.3916626c-0.2855682,0.1072769-0.4748955,0.4499321-0.754261,0.5978546
		c-2.1311111,1.1284256-4.2291222,2.3633652-6.5790062,2.9714241c-1.3984947,0.3618736-2.7731056,0.8389702-4.263155,0.9024887
		c-1.018959,0.0434341-2.0163155,0.4853706-3.0485287,0.6507568c-1.2280293,0.1967621-2.4569588,0.3093758-3.70191,0.3057137
		c-2.4258213-0.0071335-4.8523731-0.0133057-7.2772865,0.0403976c-1.0135899,0.0224457-2.0377064,0.1303368-3.0298338,0.3327217
		c-0.524087,0.1069107-0.976758-0.0737801-1.4663267-0.0699501c-1.5324659,0.0119934-3.063076,0.0361977-4.5909996,0.1599884
		C8.1907988,41.563076,8.0059528,41.5529976,7.9370599,41.3091965z"/>
	<path style="fill:#EDBA0D;" d="M44.8823776,31.7620487c-0.8851395-0.7306557-1.1961555-1.6720104-0.9539223-2.7765388
		c0.1986313-0.9057369,0.7314911-1.5877399,1.5477104-2.0422668c0.8829498-0.4916954,1.802597-0.3792706,2.7292328-0.1749935
		c0.1968117,0.1770115,0.4207497,0.2933311,0.6896591,0.3094997c0,0,0.0167313,0.0106659,0.0165787,0.0106773
		c0.2520332,0.197176,0.450264,0.4816532,0.8118629,0.5017452c0,0,0.0041504,0.0034714,0.0041771,0.0034943
		c0.1536827,0.2399445,0.2179222,0.5516644,0.5317345,0.662632c0.0969238,0.6742287,0.4432373,1.3237629,0.2015228,2.0317287
		c-0.0125275,0.0342522-0.0267868,0.0677662-0.0430412,0.0988407c-0.0622978-0.026619-0.1243324-0.0515347-0.186367-0.0764503
		c-0.3993034-0.3800564-0.6608429-1.3157387-1.3504143-0.3102989c-0.2926826-0.2008324,0.0496063-0.6573334-0.4120483-0.7375145
		c-0.4808731-0.0835152-1.1276855,0.4394264-1.2537842,0.9064503c-0.219368,0.8124752,0.1920547,1.190012,0.83881,1.4690228
		c-0.0204468,0.3524342-0.3784676,0.4822083-0.5046158,0.7650719
		C46.5737686,32.5498657,45.6869698,32.3269234,44.8823776,31.7620487z M46.5613747,31.3338547
		c-0.3198166-1.8092194-0.3198166-1.8092194,1.2358971-2.6851883c-0.2312851-0.6265678-0.6692886-0.5369015-1.2137146-0.4578457
		c-0.466507,0.0677414-0.4091148,0.3868065-0.5893707,0.6230469c-0.3926353,0.5145893-0.1356544,1.0653877-0.2427788,1.5853424
		C45.6296501,30.9902363,45.8382378,31.348093,46.5613747,31.3338547z"/>
	<path style="fill:#AE0608;" d="M44.8823776,31.7620487c0.8045921,0.5648746,1.691391,0.787817,2.6670952,0.6410999
		c0.1464081,0.0419998,0.3905067-0.0368385,0.4096718,0.1678886c0.0226326,0.2416725-0.2449188,0.2641487-0.4122276,0.3208084
		c-0.8569336,0.2902107-1.6679153,0.663166-2.4165802,1.1802139c-0.177784,0.1227875-0.1138649,0.2015839-0.0736961,0.3231773
		c-0.3692322,0.0744286-0.7384796,0.1489029-1.1079483,0.2232513c-0.3889809,0.1328278-0.9975052-0.4261475-1.1747246,0.3728943
		c-0.1035423,0.0438118-0.207077,0.0876198-0.3108559,0.1313362c-0.0697823,0.0484085-0.1393166,0.0969086-0.2088585,0.1454048
		l-0.008461,0.0099678c-0.341671-0.0853271-0.6438255,0.0881729-0.9650803,0.1381989
		c-0.767849,0.1195564-1.3424873,0.8575516-2.1101799,0.7801552c-0.586544-0.0591354-0.9701042,0.2649841-1.4506073,0.3685684
		c-0.7596703,0.1637764-1.486412,0.6462898-2.3172951,0.347187c1.222271-0.4221306,2.4267426-0.8892097,3.5171928-1.5953026
		c0.4942436-0.3200378,1.0697784-0.2042542,1.590477-0.3834686c0.9368858-0.322464,1.8521805-0.6697311,2.5709991-1.3849716
		c0.1145973-0.1140251,0.2543144-0.2676735,0.2644501-0.411335C43.4141464,32.1682777,43.8628616,31.6540794,44.8823776,31.7620487z
		"/>
	<path style="fill:#4A221C;" d="M48.0540886,31.6380768c-0.6467552-0.2790108-1.0581779-0.6565475-0.83881-1.4690228
		c0.1260986-0.4670238,0.7729111-0.9899654,1.2537842-0.9064503c0.4616547,0.0801811,0.1193657,0.5366821,0.4120483,0.7375145
		c0.6895714-1.0054398,0.9511108-0.0697575,1.3504906,0.3096962c-0.3626213,0.4780083-0.7916222,0.8786163-1.3401222,1.1386528
		C48.5927277,31.4250259,48.2957001,31.4091988,48.0540886,31.6380768z M48.238987,30.2692719
		c-0.214817-0.3654423-0.4600754-0.1715488-0.5851517,0.032692c-0.1771393,0.2892475,0.1461678,0.2567234,0.2943764,0.3260136
		c0.248558,0.2403736,0.4585304,0.1182289,0.5653992-0.1213856C48.6196442,30.2688389,48.3863869,30.2883759,48.238987,30.2692719z"
		/>
	<path style="fill:#B25F5A;" d="M48.8914795,31.4484673c0.5485001-0.2600365,0.9775009-0.6606445,1.3401222-1.1386528
		c0.0619583,0.0255184,0.1239929,0.0504341,0.1862907,0.0770531c-0.0022163,0.7708435-0.6608772,0.9866161-1.1509705,1.3238831
		C49.0833969,31.8370495,48.9141121,31.6869659,48.8914795,31.4484673z"/>
	<path style="fill:#EB5B18;" d="M50.4609337,30.2880268c0.2417145-0.7079659-0.104599-1.3575001-0.2015228-2.0317287
		C51.0219612,29.0731678,51.0826797,29.6864529,50.4609337,30.2880268z"/>
	<path style="fill:#C5C2C2;" d="M51.6012192,29.4289265c0.1404915,0.1193066,0.1078796,0.2251663-0.0251083,0.3231659
		C51.5844841,29.6443291,51.5928535,29.5366268,51.6012192,29.4289265z"/>
	<path style="fill:#DD2713;" d="M27.5758057,26.5896664c0.0558777-0.0558586,0.1117611-0.1117134,0.1676769-0.1675224
		c0.7103825-0.3858223,1.2410965-1.0190544,1.9174423-1.4368019c1.2695122-0.7841225,2.6052876-1.4550114,3.9231129-2.1567078
		c1.4868431-0.7916965,3.0253448-1.4823895,4.4767075-2.3492298c1.2989235-0.775795,3.046772-0.9151859,3.6075478-2.6824818
		c0.0207634-0.0654373,0.1152344-0.132288,0.1879807-0.152071c0.2897911-0.0788116,0.4722862-0.2565193,0.3210106-0.5379047
		c-0.1734657-0.3226757-0.4437294-0.0671463-0.658226-0.0074997c-0.6400223,0.1779709-1.1193275,0.7694397-1.8017044,0.7991009
		c-1.2392006,0.0538654-2.3204269,0.6428051-3.3799019,1.1220741c-1.7230988,0.7794704-3.5723457,0.7807083-5.3360596,1.2434177
		c-0.0259151,0.0067978-0.0551548,0.0009117-0.0828438,0.000946c-0.0918045-0.3115425-0.4822159-0.5568314-0.1350803-0.9594936
		c0.5654755-0.6559277,0.961216-1.4702568,1.7935276-1.8697662c0.3386536,0.0253944,0.6449356-0.0574608,0.9413757-0.2293472
		c0.5526352-0.3204384,1.1067238-0.6484375,1.6552696-0.9657135c0.5562897-0.3217545,1.4626198-0.4845352,1.403492-1.4613962
		c0.37677-0.3638086,1.0091782,0.0237522,1.3460579-0.4578667c0.100956,0.0118036,0.2017059,0.0235748,0.3022003,0.035306
		c0.0392113,0.1527576,0.1421165,0.2216158,0.2953072,0.2406864c1.7626495,0.2194414,3.3047295,0.9605885,4.6972771,2.0286942
		c0.4052429,0.3108273,0.6075592,0.8375111,0.6481857,1.2834473c0.0452232,0.4962921,0.3683586,0.6845531,0.5915222,1.0106449
		c0.9363747,1.3682938,2.3947945,2.2532063,3.3109779,3.6332493c-0.7543297,0.3440704-1.6968918,0.6302776-2.2365341,0.0032444
		c-0.8053017-0.9357071-1.570858-0.4904861-2.3973618-0.3189793c-0.1597137,0.033144-0.3197365,0.1878738-0.4613419,0.1663437
		c-1.5621414-0.2375031-2.8363991,0.7466545-4.1665192,1.2034893c-1.5990791,0.5492058-3.1751099,1.3343849-4.7706909,1.9976311
		c-0.6109238,0.2539406-1.3120689,0.2150955-1.8705082,0.6253796c-0.9842358,0.7231197-2.2364349,0.9941635-3.1423588,1.8593349
		c-0.1278973,0.1221428-0.3534126,0.1474628-0.5379105,0.2039928c-0.724062,0.2218628-0.7901554,0.1443138-0.6631489-0.6299496
		C27.5799561,27.3123684,27.5603542,26.9481411,27.5758057,26.5896664z"/>
	<path style="fill:#D71508;" d="M27.5758057,26.5896664c-0.0154514,0.3584747,0.0041504,0.722702-0.0535183,1.0742512
		c-0.1270065,0.7742634-0.0609131,0.8518124,0.6631489,0.6299496c0.1844978-0.05653,0.4100132-0.0818501,0.5379105-0.2039928
		c0.9059238-0.8651714,2.158123-1.1362152,3.1423588-1.8593349c0.5584393-0.410284,1.2595844-0.371439,1.8705082-0.6253796
		c1.5955811-0.6632462,3.1716118-1.4484253,4.7706909-1.9976311c1.3301201-0.4568348,2.6043777-1.4409924,4.1665192-1.2034893
		c0.1416054,0.0215302,0.3016281-0.1331997,0.4613419-0.1663437c0.8265038-0.1715069,1.5920601-0.6167278,2.3973618,0.3189793
		c0.5396423,0.6270332,1.4822044,0.340826,2.2365341-0.0032444c0.177166,0.0205956,0.370182,0.0042744,0.4703407,0.2028732
		c-0.1064262,0.0855484-0.2204628,0.1633949-0.3181,0.2581482c-0.2936325,0.2849751-0.6734657,0.5958309-0.5930519,1.0130482
		c0.0853882,0.4429855,0.5930786,0.4051132,1.1294403,0.4323139c-0.6778259,0.653614-1.1524467,1.3018475-2.0414429,1.3196774
		c-0.7033424,0.0141068-1.2176476,0.5164871-1.8514557,0.731493c-1.3536224,0.4591961-2.7964058,0.6754112-4.0703735,1.3613949
		c-1.0296097,0.554409-2.1888542,0.7964172-3.2256393,1.2815342c-1.3233833,0.6192188-2.692379,1.1079655-4.0282516,1.6841164
		c-0.3722076,0.1605339-0.6031036,0.4796314-0.9135246,0.7074871c-1.0973644,0.8055-2.3930969,1.1921768-3.6282291,1.6973877
		c-0.5455952,0.2231636-1.055191,0.5229759-1.6841602,0.6155319c-0.4421291,0.0650597-0.8915291,0.5561028-0.2970638,1.1146469
		c0.1795197,0.1686745,0.2046928,0.3830643,0.1978245,0.6099625l-0.0019741,0.00177
		c-0.1074696-0.055954-0.2149448-0.1119041-0.3224239-0.1678543c-0.5491714-0.5961342-1.1967049-0.8980331-2.0196629-0.6751633
		c0.3284245-0.8333359,1.1963253-1.0082626,1.8525238-1.2505798c1.3147793-0.485508,2.5528927-1.1240044,3.8427849-1.6465683
		c1.748148-0.70821,2.796999-2.2272377,4.1605701-3.3777618c0.3802338-0.3208237,0.9298782-0.5053825,1.1540031-1.2197628
		c-3.7671604,1.1199589-7.1006355,3.1362801-10.9210377,3.8633633c0.3063622-1.7657051,1.1819324-3.0711594,2.3533993-4.2073841
		C27.1729031,26.7481632,27.3275776,26.5852585,27.5758057,26.5896664z"/>
	<path style="fill:#B5201C;" d="M31.2341995,16.4632359c0.6164207-0.0973415,1.2118607-0.2458534,1.6857414-0.6911411
		c0.8571243-0.4114923,1.6204071-1.0710964,2.6582527-1.0040092c0.0510368,0.0237055,0.1019974,0.04743,0.1530113,0.0708141
		c-0.8266602,0.4236822-1.6533623,0.8477087-2.480175,1.2716484c-0.7917747,0.2881527-1.3999538,1.0012074-2.3164768,1.000351
		C30.8448124,16.8072796,31.2587585,16.7366982,31.2341995,16.4632359z"/>
	<path style="fill:#C5C2C2;" d="M31.90798,7.4537826c-0.3665085,0.146925-0.5590763-0.0976324-0.7547131-0.3353176
		c0.1397552-0.0043044,0.2795277-0.0086136,0.4192429-0.0129576C31.6842957,7.2215757,31.7961369,7.3376789,31.90798,7.4537826z"/>
	<path style="fill:#D71508;" d="M33.2511406,16.1106319c0.8267021-0.4240236,1.6534042-0.8480501,2.4800644-1.2717323
		c0.2770615-0.0877142,0.5592232-0.1047297,0.8458557-0.0596952c0.0592003,0.9769258-0.8471298,1.1397066-1.4034195,1.4614611
		c-0.5485458,0.317276-1.1026344,0.6452751-1.6552696,0.9657135c-0.2964401,0.1718864-0.6027222,0.2547417-0.9413948,0.229332
		c-0.0592422-0.0007668-0.1184692-0.0015202-0.1776924-0.0022736C32.683239,16.9925022,32.967186,16.5515671,33.2511406,16.1106319z
		"/>
	<path style="fill:#4A221C;" d="M18.598753,25.6315346c0.935585-1.262989,2.3074017-2.0957108,3.2772274-3.3239098
		c0.3539295-0.1440926,0.3439617-0.5411911,0.5469894-0.7906036c0.4860229-0.1848011,0.6190529-0.5270996,0.4483738-1.0049095
		c0.0980186-0.0310707,0.1960411-0.0621414,0.2940598-0.0932121c0.4350643,0.0725632,0.6788483,0.4316235,1.0032978,0.6698627
		c0.0207329,0.034317,0.0447865,0.0661201,0.0721588,0.0954113c-0.0018387,0.1258297-0.0036774,0.2516613-0.005518,0.377491
		c-0.306427,0.1918335-0.2379532,0.5978184-0.4740219,0.8298435c-0.1766129,0.1239338-0.1928997,0.3095474-0.1928272,0.5017853
		c0.0000744,0.0003567-0.0196552,0.0194435-0.0196552,0.0194435c-0.2189884,0.0159626-0.3818779,0.1116276-0.4618492,0.3250904
		c-0.7876968,0.7944679-1.5753937,1.5889339-2.3630905,2.3834057c-0.0403442,0.032835-0.0806885,0.0656719-0.1210327,0.0985107
		c-0.2336102,0.5270786-1.0051861,0.5670013-1.1025085,1.217495c-1.03442,1.0670357-1.03442,1.0670357-2.119833,0.0951309
		c0.3210163-0.3260098,0.641777-0.6517601,0.9625378-0.9775105C18.4282932,25.9137516,18.513525,25.7726421,18.598753,25.6315346z"
		/>
	<path style="fill:#185C97;" d="M18.598753,25.6315346c-0.085228,0.1411076-0.1704597,0.282217-0.2559566,0.4235287
		c-0.6351147-0.6532421-1.4252396-0.4349594-2.0739555-0.1828346c-0.6005096,0.2333927-1.0351248,0.7968292-1.0603256,1.5537014
		c-0.0169754,0.5098686,0.1398869,0.9745159,0.266099,1.4509811c-0.0459299,0.1746273-0.0363951,0.3173065,0.1922541,0.3337803
		c0.2647018,0.2773666,0.5294056,0.5547371,0.7941074,0.8321037c-0.0524654,0.5515404,0.3383827,0.5258923,0.7016621,0.5424099
		c0.4269829,0.0194073,1.0860767-0.047081,1.1395264,0.368742c0.075098,0.5843048-0.6368561,0.245039-0.9421539,0.4394932
		c-0.5260468,0.3350639-0.8461494-0.1792259-1.2380524-0.3104744c-0.2919979-0.0977936-0.3185329-0.0407829-0.3747282,0.1735516
		c-0.8973103-0.5698757-1.0193882-1.6241837-1.4245358-2.4680595c-0.2482929-0.5171642,0.3847418-0.1122227,0.5979805-0.1932545
		c0.0220814,0.0726776,0.0440989,0.1454201,0.0661163,0.2181587c0.0212984-0.0142841,0.0618563-0.039999,0.0611362-0.0412121
		c-0.0372829-0.0628014-0.0780697-0.1235218-0.1184864-0.1844635c-0.3205252-1.0489388-0.2297211-2.0103722,0.5836382-2.8280277
		C16.351778,24.9165306,17.6253338,24.8601398,18.598753,25.6315346z"/>
	<path style="fill:#185C97;" d="M27.4331455,17.7384014c0.6706543,0.4044037,0.6706543,0.4044037,1.7573242,0.1264801
		c-0.795311,0.6958275-1.0362988,1.5730858-1.5640202,2.2727013c-0.0722771,0.0998631-0.1441612,0.2000008-0.2160473,0.3001366
		c-0.0514107,0.0515099-0.1028194,0.1030178-0.1542263,0.1545296c-0.1174927,0.1655407-0.2349834,0.3310814-0.3524761,0.4966202
		c-0.1365757,0.0041847-0.256424,0.0397987-0.3244934,0.1727028l-0.0003757,0.0001678
		c-0.2192154,0.0589027-0.4384289,0.1178074-0.6576443,0.1767101l-0.0136642-0.0135708
		c-0.0561924-0.4386616-0.1123867-0.8773251-0.1685772-1.3159847c0.5545731-0.7413387,1.2091999-1.4257622,1.362545-2.394907
		C27.2119808,17.7223911,27.3225651,17.7303944,27.4331455,17.7384014z"/>
	<path style="fill:#3F3C6A;" d="M25.9211864,21.4384499c0.2192154-0.0589027,0.4384289-0.1178074,0.6576557-0.176693
		c-0.1390228,0.3346672-0.3728046,0.5956039-0.6150608,0.8616734c-0.8226814,0.9035454-1.716629,1.7399731-2.4494381,2.7299824
		c-0.3444405,0.4653301-0.5683708,1.0894165-1.2327881,1.2556858c0.1553574-1.0621586,0.9766426-1.7103977,1.5601463-2.5060749
		c0.1199379-0.1635532,0.4528885-0.1963348,0.3660984-0.4774952c-0.0975971-0.3161659-0.428772-0.1407433-0.6393795-0.2325935
		c0-0.1918793,0.0162868-0.3774929,0.1929379-0.5010986c0.8834991,0.2777061,1.1668205,0.1173248,1.4943619-0.6873817
		c0.2251015-0.5530338,0.1074238-1.0732327,0.0242538-1.6107235c0.0083027-0.2487068-0.0857048-0.4295921-0.3360062-0.5068722
		L24.943943,19.564497c-0.0970478-0.5720882-0.7854958-0.448349-1.0159454-0.8634796
		c0.8536797-0.0191555,1.5066071,0.4883156,1.8110409,1.4077663c0.056097,0.4387703,0.1122913,0.8774338,0.1685677,1.3161564
		c-0.0209732,0.0262852-0.0420284,0.0525093-0.0630836,0.0787334
		C25.8700771,21.4819317,25.8956318,21.4601917,25.9211864,21.4384499z"/>
	<path style="fill:#B25F5A;" d="M27.4331455,17.7384014c-0.1105804-0.008007-0.2211647-0.0160103-0.3316555-0.0244141
		c-0.0562458-0.0457249-0.1125851-0.0910549-0.1690483-0.1362209c-0.0634117-0.0354042-0.1266937-0.0709724-0.1899776-0.1065426
		c-0.1696281-0.124712-0.3392525-0.2494202-0.5087318-0.3740597c-0.2693939-0.3824177-0.5608616-0.7420692-0.993763-0.9544563
		l-0.0318661-0.0315208c-0.3835526-0.5920086-0.6708622-1.1992865-0.3009853-1.9096794
		c0.0610466,0.0102606,0.1221161,0.019989,0.1831818,0.0297174c0.0066776,0.3779392-0.145998,0.791872,0.1117249,1.1213179
		c0.8341198,1.0662537,1.713007,2.0821018,3.2310772,2.1067715C28.2227135,17.9927959,27.7746887,17.6748371,27.4331455,17.7384014z
		"/>
	<path style="fill:#B25F5A;" d="M23.9279976,18.7010155c0.2304497,0.4151325,0.9188976,0.2913933,1.0158081,0.8635635
		c-0.1885128-0.0149918-0.4657345,0.044445-0.5509377-0.0571518c-0.5801868-0.6918545-1.1886559-0.1970978-1.7873764-0.0870495
		c-0.4177418,0.0767822-0.4642391,0.6030312-0.8568439,0.7115498c-0.0787258-0.4520206,0.3242245-0.6906223,0.4634857-1.0460548
		l0.0307293-0.0238819c0.4286842-0.0103817,0.8125744-0.1589928,1.1725769-0.3810806
		C23.5862904,18.6876125,23.7571449,18.694315,23.9279976,18.7010155z"/>
	<path style="fill:#3F3C6A;" d="M22.2121334,19.0858727c-0.1392612,0.3554325-0.5422115,0.5940342-0.4634171,1.0456467
		c0.0007534,0.0893898,0.0014343,0.1791859,0.0021172,0.2689819c0.0372391,0.0874329,0.074482,0.1748638,0.111721,0.2622967
		c-0.0069523,0.039547,0.001585,0.0754089,0.0256081,0.107584c0.0030594,0.3743782,0.292347,0.5437393,0.5348072,0.7466393
		c-0.2030277,0.2494125-0.1930599,0.6465111-0.5469894,0.7906036c-0.140028-0.5823078-0.344532-1.1582642-0.4047508-1.7489281
		C21.409626,19.9544258,21.3112106,19.2440491,22.2121334,19.0858727z"/>
	<path style="fill:#185C97;" d="M24.9071388,14.2009764c-0.3698978,0.7109241-0.0825882,1.318202,0.3009644,1.9102106
		c-0.7040119-0.0039558-0.8016109-0.6017151-0.9204464-1.0609865c-0.1394596-0.5389833,0.1111546-1.0012922,0.644146-1.2591619
		C24.9235191,13.9275789,24.915329,14.0642786,24.9071388,14.2009764z"/>
	<path style="fill:#3F3C6A;" d="M30.0730667,8.9222031c0.6459312,0.9364119-0.2499866,1.3984919-0.6215744,2.0216026
		c0.0009384-0.1344919-0.0559387-0.3199978,0.0110226-0.3951454c0.579443-0.6502419,0.6059113-1.2662735-0.0556622-1.8717718
		c0.1165562-0.0142794,0.2332668-0.0280046,0.3499813-0.041729C29.8622437,8.7308407,29.9676552,8.8265219,30.0730667,8.9222031z"/>
	<path style="fill:#3F3C6A;" d="M28.0251217,13.0928221c0.0469398,0.3650732-0.3026829,0.3637667-0.4806614,0.5206728
		c-0.5948696-0.0288019-1.1921139-0.0822935-1.7670765,0.1418324c-0.1133327-0.0532093-0.2266617-0.1064186-0.3399944-0.1596289
		c0.4063816-0.4832964,0.9823303-0.2822933,1.4868507-0.3682146c0.284523,0.0319033,0.5823936,0.1485004,0.8200073-0.1260605
		C27.8378716,13.0985565,27.9314976,13.0956888,28.0251217,13.0928221z"/>
	<path style="fill:#185C97;" d="M25.2399693,16.1427078c0.4329014,0.2123871,0.724369,0.5720387,0.993763,0.9544563
		c-0.3992863,0.1093121-0.6108761-0.3475819-0.9812622-0.3250141l-0.0071468-0.0068302
		C25.2435398,16.5577812,25.2417564,16.3502464,25.2399693,16.1427078z"/>
	<path style="fill:#3F3C6A;" d="M23.4154396,18.6809101c-0.3600025,0.2220879-0.7438927,0.3706989-1.1725769,0.3810806
		C22.6028156,18.8395233,22.8307247,18.2110138,23.4154396,18.6809101z"/>
	<path style="fill:#3F3C6A;" d="M28.8693943,7.4899535c0.0070591,0.256115,0.0141163,0.5122304,0.0209522,0.7680821
		C28.3292694,8.0167847,28.5519199,7.7546487,28.8693943,7.4899535z"/>
	<path style="fill:#185C97;" d="M27.7442474,13.1014233c-0.2376137,0.2745609-0.5354843,0.1579638-0.8200073,0.1260605
		C27.1905842,13.1385765,27.4237385,12.8353148,27.7442474,13.1014233z"/>
	<path style="fill:#B25F5A;" d="M25.4373894,13.5956984c0.1133327,0.0532103,0.2266617,0.1064196,0.339695,0.1596355
		c-0.113308,0.16574-0.2886391,0.2064695-0.4703655,0.2343779c-0.0275745-0.0681973-0.0551453-0.1363955-0.0827198-0.2045937
		C25.2951317,13.7219782,25.3662586,13.6588383,25.4373894,13.5956984z"/>
	<path style="fill:#185C97;" d="M25.25247,16.77215c-0.0304413,0.1427174,0.039072,0.3272266-0.1478558,0.4015484
		c-0.0296268,0.0117817-0.1364193-0.072298-0.1448956-0.1226101c-0.0359612-0.2135105,0.1268978-0.2526512,0.2856121-0.2857704
		L25.25247,16.77215z"/>
	<path style="fill:#3F3C6A;" d="M29.4213943,10.9813719c-0.0232525,0.1982737-0.0207462,0.4148407-0.3037643,0.4278316
		C29.0835533,11.1700029,29.178587,11.023242,29.4213943,10.9813719z"/>
	<path style="fill:#3F3C6A;" d="M28.8810501,11.7920723c0.0250034,0.2279215,0.0131855,0.4323683-0.2880592,0.4517984
		C28.5768452,12.0214157,28.6786537,11.8746748,28.8810501,11.7920723z"/>
	<path style="fill:#3F3C6A;" d="M25.223999,13.7851191c0.0275745,0.0681973,0.0551453,0.1363955,0.0824623,0.204236
		c-0.0722256,0.0803843-0.1441956,0.1611271-0.2161617,0.2418699c-0.0610657-0.0097284-0.1221352-0.0194569-0.1831818-0.0297174
		c0.0082111-0.137229,0.0164013-0.2739286,0.0246849-0.4104671C25.0292683,13.7891712,25.1266346,13.7871456,25.223999,13.7851191z"
		/>
	<path style="fill:#B25F5A;" d="M29.756834,8.6351595c-0.1167145,0.0137243-0.2334251,0.0274496-0.3499813,0.041729
		c-0.0777988-0.1081066-0.1557522-0.2167692-0.2339592-0.3250465c0.041069-0.0421162,0.082386-0.0846176,0.1233559-0.1267672
		C29.5075054,8.2967949,29.6892929,8.4017143,29.756834,8.6351595z"/>
	<path style="fill:#3F3C6A;" d="M28.4971466,12.4310932c0.0531273,0.2036762-0.0234451,0.3104897-0.2356834,0.3155355
		C28.2426472,12.5684042,28.312006,12.4565039,28.4971466,12.4310932z"/>
	<path style="fill:#3F3C6A;" d="M26.7424641,17.4712238c0.0632839,0.0355701,0.1265659,0.0711384,0.1899776,0.1065426
		C26.8692017,17.542141,26.8058319,17.5066833,26.7424641,17.4712238z"/>
	<path style="fill:#4A221C;" d="M22.2818298,26.1091633c0.6641426-0.1663342,0.888073-0.7904205,1.2325134-1.2557507
		c0.7328091-0.9900093,1.6267567-1.826437,2.4494381-2.7299824c0.2422562-0.2660694,0.476038-0.5270061,0.6150608-0.8616734
		l0.0003738-0.0001678c0.1411743,0.0044384,0.2688408-0.0164948,0.3244839-0.17272
		c0.1174927-0.1655388,0.2349834-0.3310795,0.3523579-0.4965153c0.0513725-0.0514755,0.1028576-0.103056,0.1543446-0.1546345
		c0.0718861-0.1001358,0.1437702-0.2002735,0.2160473-0.3001366c0.8511047-0.2495365,1.3424416-0.9091911,1.8044529-1.5955048
		c0.5142498-0.7639141,1.0155144-1.5365696,1.5225563-2.3054295c0.0936642,0.0755119,0.1872044,0.1510353,0.2807407,0.226572
		c0.024559,0.2734776-0.3893871,0.344059-0.2999306,0.6475716c-0.151701,0.0616035-0.1880913,0.1829967-0.1723213,0.3314552
		l-0.0108891,0.0085583c-0.2871151,0.1273384-0.5077171,0.3029556-0.4788399,0.6596661
		c-0.0089455,0.1034279-0.017889,0.2068558-0.0268326,0.3102837c-0.8056946,0.5354042-1.1217022,1.4385815-1.6429691,2.1876011
		c-0.0618,0.1079235-0.1236019,0.215847-0.1854019,0.3237686c-0.6310863,0.4342556-1.1419945,0.9193287-0.841095,1.7961063
		c0.2698326,0.7862644-0.2460327,1.2760925-0.7317181,1.7281265c-1.8376656,1.7103329-3.5805588,3.5138741-5.233099,5.3992863
		c-0.3332005,0.3801537-0.5115013,0.893362-1.0302429,1.1027699c-0.4530163,0.0132313-0.4738426,0.6750221-0.9596386,0.6396008
		c0.3272972-0.9194965,0.3272972-0.9194965-0.6967068-0.8382168l-0.0063419-0.0063038
		c0.0572147-0.1664181,0.1144314-0.3328362,0.1716461-0.4992504l-0.0034046,0.0038509
		c0.1205196-0.1037846,0.2410393-0.2075653,0.3613586-0.3115292c0.1246777-0.0852489,0.1506767-0.2120152,0.1476326-0.3510494
		c0.1330471-0.0608864,0.1710339-0.1805763,0.1921196-0.3107281c0.4406166-0.3037605,0.2679386-0.77215,0.3168259-1.1811504
		c0.123373-0.0691471,0.1645832-0.1825104,0.1695786-0.315382c0.286211-0.0896072,0.5794201-0.169939,0.6762791-0.5104237
		c0.0499687-0.0513496,0.0999374-0.1027012,0.1499062-0.1540546l0.0177364-0.0122566
		c0.5898647,0.0017452,0.8367691-0.4407005,1.1061363-0.8540535C22.2442265,26.2084064,22.2635078,26.1589718,22.2818298,26.1091633
		z"/>
	<path style="fill:#EB5B18;" d="M15.4746141,28.8769112c-0.1262121-0.4764652-0.2830744-0.9411125-0.266099-1.4509811
		c0.0252008-0.7568722,0.459816-1.3203087,1.0603256-1.5537014c0.648716-0.2521248,1.4388409-0.4704075,2.0739555,0.1828346
		c-0.3204956,0.3255463-0.6412563,0.6512966-0.9622726,0.9773064c1.085413,0.9719048,1.085413,0.9719048,2.1198196-0.0951385
		c0.0315647,0.2868462,0.0631409,0.573698,0.094696,0.8601265c0.0596924,0.7579975-0.4634743,1.3625908-0.5497208,2.0824909
		l-0.0185452-0.0032215c-0.2002354,0.0003586-0.3201523,0.0895119-0.3309231,0.2993317c0,0-0.0155945,0.0035534-0.0146713,0.0043163
		c0.0009251,0.0007629-0.0530853-0.0005035-0.0530853-0.0005035c-0.745718,0.322094-1.4592972,0.1348133-2.1673374-0.1368694
		c-0.2644825-0.2774734-0.5291862-0.5548439-0.7941589-0.8319607
		C15.6533737,29.0705452,15.6031866,28.9512501,15.4746141,28.8769112z"/>
	<path style="fill:#B5201C;" d="M19.6212215,31.5980148c0.485796,0.0354214,0.5066223-0.6263695,0.9596386-0.6396008
		c0.0870914,0.7334442-0.3833084,0.9879208-0.9761562,1.1373577c-0.0084267-0.1094837-0.0166893-0.2188759-0.02495-0.32827
		C19.5935764,31.7110062,19.6073971,31.6545105,19.6212215,31.5980148z"/>
	<path style="fill:#B5201C;" d="M17.9102516,34.0627747c-0.0452938,0.8868103-0.6626873,0.8966789-1.3126945,0.8564415
		c0.1146564-0.1155548,0.2292309-0.2311249,0.3440762-0.3467979C17.2646847,34.4024658,17.5874672,34.2326202,17.9102516,34.0627747
		z"/>
	<path style="fill:#B5201C;" d="M19.4292812,32.2822266c-0.0144691,0.5503693-0.3243523,0.8472939-0.8342953,0.9725456
		c-0.0947323-0.4755363,0.2099686-0.7474632,0.5182953-1.0171776C19.218399,32.2526054,19.3238392,32.2674179,19.4292812,32.2822266
		z"/>
	<path style="fill:#4A221C;" d="M19.4292812,32.2822266c-0.105442-0.0148087-0.2108822-0.0296211-0.316-0.044632
		c-0.0037003-0.3150997,0.1673241-0.4563923,0.4665699-0.4702625c0.0081635,0.1095638,0.0164261,0.218956,0.0248528,0.3284397
		C19.5463428,32.1579819,19.487812,32.2201042,19.4292812,32.2822266z"/>
	<path style="fill:#4A221C;" d="M18.6958504,30.1759586c0.0107708-0.2098198,0.1306877-0.2989731,0.3309746-0.2991447
		c0.0198956,0.1272202,0.0397415,0.2542496,0.0595894,0.3812809l0.0034046-0.0038509
		C18.958498,30.2281494,18.8271732,30.2020531,18.6958504,30.1759586z"/>
	<path style="fill:#B5201C;" d="M18.4307518,33.452774c-0.0187626,0.1838455-0.1198635,0.2871361-0.3028889,0.3099976
		C18.1014652,33.5349693,18.2049732,33.4342117,18.4307518,33.452774z"/>
	<path style="fill:#4A221C;" d="M18.6280937,30.1797714c0,0,0.0540104,0.0012665,0.0530853,0.0005035
		c-0.005188,0.0438557-0.0094528,0.0884724-0.0137157,0.133091C18.6543388,30.2688351,18.6412163,30.2243023,18.6280937,30.1797714z
		"/>
	<path style="fill:#4A221C;" d="M18.9245148,30.759798c-0.0556335,0.0552788-0.1112671,0.1105576-0.1668987,0.1658363
		l-0.0054741-0.0053959c0.0553379-0.0555954,0.1106758-0.1111927,0.1660194-0.1667652L18.9245148,30.759798z"/>
	<path style="fill:#4A221C;" d="M18.757616,30.9256344c-0.0124302,0.0207634-0.0248623,0.0415287-0.0372906,0.0622921
		c0.0105991-0.0225773,0.0212002-0.0451546,0.0318089-0.067709L18.757616,30.9256344z"/>
	<path style="fill:#EB5B18;" d="M25.0902996,14.231225c0.0719662-0.0807428,0.1439362-0.1614857,0.2161617-0.2418699
		c0.1819839-0.0275517,0.3573151-0.0682812,0.470623-0.2340212c0.5752621-0.2241325,1.1725063-0.1706409,1.7673759-0.141839
		c1.4312458,0.5208483,1.471035,1.6515799,1.2783966,2.8932285c-0.0188789,0.1216774,0.0517845,0.2572498,0.0808792,0.3860455
		c-0.0215721,0.0631618-0.0431404,0.1266518-0.0643425,0.1901913c-0.1291828,0.0150871-0.2247143,0.0675011-0.2346573,0.213953
		c0,0-0.0022125-0.0023384-0.0023823-0.0025177c-0.0575237,0.0528278-0.1148796,0.1058311-0.1722336,0.1588364l0.0028725,0.0059299
		c-1.5179615-0.0245171-2.3968487-1.0403652-3.2309685-2.1066189C24.9443016,15.023097,25.0969772,14.6091642,25.0902996,14.231225z
		 M27.3944569,14.5848894c-0.2483845,0.0449343-0.5203476,0.1313305-0.4528484,0.3918142
		c0.085495,0.3299294,0.3761864,0.5601826,0.7205124,0.6113272c0.2574654,0.0382433,0.4289284-0.1765137,0.4103565-0.4141207
		C28.0413342,14.7754803,27.711031,14.6637926,27.3944569,14.5848894z"/>
	<path style="fill:#EB5B18;" d="M29.756834,8.6351595c-0.0675411-0.2334452-0.2493286-0.3383646-0.4605846-0.4100847
		c-0.2313499-0.4342489-0.0722389-0.7401047,0.3826084-0.7412543c0.482933-0.0012202,1.085722,0.072135,1.1867046,0.6575637
		C30.9453716,8.604043,30.66222,8.98985,30.0731812,8.9224253C29.9676552,8.8265219,29.8622437,8.7308407,29.756834,8.6351595z"/>
	<path style="fill:#B5201C;" d="M15.1034861,35.1365089c-0.2412767,0.4163628-0.5584822,0.5816383-1.0092335,0.3054047
		C14.3772326,35.1637421,14.7129984,35.0597687,15.1034861,35.1365089z"/>
	<path style="fill:#B5201C;" d="M16.2475319,34.963974c-0.1684475,0.2340088-0.3537817,0.4007111-0.6409035,0.161171
		C15.7686129,34.866188,16.0159664,34.9463959,16.2475319,34.963974z"/>
	<path style="fill:#3F3C6A;" d="M14.2602615,34.7528992c0.0125818-0.0233269,0.0251637-0.0466537,0.0377455-0.0699768
		c-0.0133848,0.0225143-0.0267687,0.0450287-0.040164,0.067543L14.2602615,34.7528992z"/>
	<path style="fill:#AA9492;" d="M7.4469442,41.3329086c0.0624628,0.0075798,0.1249266,0.0151634,0.1872368,0.0225754
		C7.5716677,41.3478432,7.5093064,41.3403778,7.4469442,41.3329086z"/>
	<path style="fill:#D71508;" d="M30.9185486,20.264986c0.027689-0.0000343,0.0569286,0.0058517,0.0828438-0.000946
		c1.7637138-0.4627094,3.6129608-0.4639473,5.3360596-1.2434177c1.0594749-0.479269,2.1407013-1.0682087,3.3799019-1.1220741
		c0.6823769-0.0296612,1.1616821-0.62113,1.8017044-0.7991009c0.2144966-0.0596466,0.4847603-0.315176,0.658226,0.0074997
		c0.1512756,0.2813854-0.0312195,0.4590931-0.3210106,0.5379047c-0.0727463,0.019783-0.1672173,0.0866337-0.1879807,0.152071
		c-0.5607758,1.7672958-2.3086243,1.9066868-3.6075478,2.6824818c-1.4513626,0.8668404-2.9898643,1.5575333-4.4767075,2.3492298
		c-1.3178253,0.7016964-2.6536007,1.3725853-3.9231129,2.1567078c-0.6763458,0.4177475-1.2070599,1.0509796-1.9174423,1.4368019
		c0.2471027-1.299099,1.4082184-1.6953812,2.324297-2.3129864c1.2049255-0.8123455,2.4494705-1.565815,3.6741562-2.3490124
		c0.5907555-0.3777924,0.9514542-0.9423466,1.3102684-1.5613918c-1.4380951,0.0223713-2.6716118,0.611269-3.9736862,0.9058304
		C30.9247894,20.8437901,30.8865204,20.5610847,30.9185486,20.264986z"/>
	<path style="fill:#EB5B18;" d="M24.5709133,34.7417984c0.822958-0.2228699,1.4704914,0.0790291,2.0195484,0.6751595
		c0.0291271,0.6111565-0.1744766,1.0203705-0.870079,1.0018425c-0.2363758-0.0062943-0.4412727,0.0333595-0.4822178,0.3204689
		c-0.1063919,0.0027237-0.2127838,0.005455-0.3191776,0.0081787c-0.028883-0.1177711-0.0303669-0.2823334-0.2060356-0.2410088
		c-0.0585308,0.0137672-0.0858593,0.1601677-0.1274509,0.2459297c-0.0509663,0.0029449-0.1011009,0.0110588-0.1503983,0.0243378
		c-0.239563-0.0277405-0.4168434,0.1261749-0.4168606,0.3134499c-0.0001087,1.0484886-0.6475315,0.8262634-1.2742577,0.6879501
		c-0.1593552-0.0351677-0.3299179-0.0195808-0.4953041-0.0273285c-0.0057011-0.1056404-0.0114307-0.2112617-0.0171604-0.3168831
		c0.0027542-0.2872849,0.0055084-0.5745735,0.0082626-0.8618584c0.0092964-0.1548805,0.0185909-0.309761,0.0278873-0.4646416
		C22.9395237,35.4904594,23.4740524,34.6419067,24.5709133,34.7417984z"/>
	<path style="fill:#B5201C;" d="M9.7499599,38.2533875c0.2394056-0.008503,0.4186573-0.1087227,0.5139074-0.3370285
		c1.0600014-0.1449089,1.9141636-0.7823982,2.8587551-1.2018852c0.7702198-0.3420448,1.6741371-0.1283302,2.1472111,0.5478401
		c-0.1329317,0.416626-0.4705153,0.7794762-0.3338842,1.2676086c-2.0018921,0.120472-4.0037804,0.240551-6.0056677,0.36063
		c0.0134754-0.1038933,0.0269527-0.2077866,0.0404291-0.311676C9.2749777,38.5769577,9.5995722,38.6237068,9.7499599,38.2533875z"/>
	<path style="fill:#DD2713;" d="M14.9359531,38.5295296c-0.1366348-0.4877396,0.2009487-0.8505898,0.3338804-1.2672157
		c0.4454641,0.0140038,0.6354179-0.4836464,1.0755777-0.5164642c0.6533566-0.0487137,1.2440052,0.0559235,1.7466259,0.5013199
		c0.2184219,0.4452705,0.4368782,0.8905106,0.6554203,1.3357277c0.0443668,0.7181091-0.238409,1.1886253-0.988287,1.3055191
		c-0.3646107-0.2036552-0.723999-0.3847504-1.1705399-0.2345581c-0.3827248,0.128727-0.2935333-0.199028-0.3318291-0.3929253
		c0.3066387-0.3191566,0.2521896-0.7121086,0.0211582-0.9764977c-0.2428665-0.2779236-0.4756975,0.0728226-0.6970654,0.2003136
		C15.3728247,38.6045837,15.1545868,38.5674553,14.9359531,38.5295296z"/>
	<path style="fill:#B5201C;" d="M30.9185486,20.264986c-0.0320282,0.2960987,0.0062408,0.578804,0.1599693,0.8395977
		c-0.0503483,0.1255474-0.0644169,0.3092403-0.1570168,0.3669643c-0.5753498,0.3586636-1.2674541,0.4545441-1.8244114,0.9148865
		c-0.2699909,0.2231579-0.6856518-0.0537224-0.6824913-0.541708c0.0019684-0.3041973,0.0016155-0.608408,0.0023594-0.9126072
		c0.0618572-0.1079159,0.1236591-0.2158394,0.1852016-0.3238621c0.4378586-0.0791912,0.7442265-0.3075562,0.9286175-0.7287731
		c0.2169323-0.4955559,0.4746037-0.9732761,0.7146091-1.4587288c0.0089436-0.1034279,0.0178871-0.2068558,0.0265312-0.3103828
		c0.4023838-0.043354,0.4886131-0.3166695,0.4791412-0.6595669l0.0106888-0.008646
		c0.54772,0.3775311,1.0921688,0.097414,1.637537-0.0087223c0.0592232,0.0007534,0.1184502,0.0015068,0.1776924,0.0022736
		c-0.8322926,0.3995247-1.2280331,1.2138538-1.7935085,1.8697815C30.4363327,19.7081547,30.8267441,19.9534435,30.9185486,20.264986
		z"/>
	<path style="fill:#B5201C;" d="M18.7473717,38.5829163c-0.2184563-0.4452362-0.4369125-0.8904762-0.6553345-1.3357468
		c1.3546543-0.5161324,2.6727676-1.1659126,4.1754799-1.1400414c-0.0091438,0.1551476-0.0184383,0.3100281-0.0275974,0.4650345
		c-0.6689816-0.0610466-0.9023018,0.2120819-0.6548805,0.8539963c-0.1669998,0.3160248-0.4249172,0.4545975-0.7838745,0.5166817
		C20.0924206,38.0654259,19.3932972,38.2459908,18.7473717,38.5829163z"/>
	<path style="fill:#DD2713;" d="M8.1064873,40.4342651c-0.8865123,0.0520172-1.5888338-0.1775818-1.9838557-1.0843964
		c-0.1721692-0.3952293-0.1307631-0.7288818-0.0358272-1.0977402c0.0572848-0.0016518,0.1147294-0.0033455,0.172267-0.0050316
		c0.5373187,0.229229,1.1377883,0.3465805,1.5159554,0.8566895C7.715755,39.5893631,8.1786747,39.9451485,8.1064873,40.4342651z"/>
	<path style="fill:#EB5B18;" d="M7.7751384,39.1040764c-0.3782787-0.5103989-0.9787483-0.6277504-1.516067-0.8569794
		c0.7591705-0.9016037,1.0765696-0.9188042,2.6488314-0.1433334c0.0204525,0.1585426,0.0411654,0.3168526,0.0623417,0.4751358
		c-0.01301,0.1038666-0.0264874,0.2077599-0.0400667,0.3117905c-0.2160053,0.0010376-0.4319048,0.0019341-0.6478043,0.0028229
		c-0.0893068-0.1188049-0.150033-0.113369-0.1765814,0.0406265c-0.006423,0.045105-0.0113506,0.0903702-0.01478,0.1357994
		C7.9857211,39.0813179,7.8804293,39.0926971,7.7751384,39.1040764z"/>
	<path style="fill:#4A221C;" d="M8.2823734,38.8935127c0.2158995-0.0008888,0.4317989-0.0017853,0.6478043-0.0028229
		c2.0019913-0.1202164,4.0038795-0.2402954,6.0057716-0.3607674c0.2186375,0.0375328,0.4368753,0.0746613,0.6449451-0.0451736
		c0.2213678-0.127491,0.4541988-0.4782372,0.6970654-0.2003136c0.2310314,0.264389,0.2854805,0.657341-0.0211391,0.9763641
		c-0.3122492-0.018013-0.5418653,0.1775475-0.450757,0.4348564c0.1355419,0.3827972,0.5518312,0.3768845,0.9078932,0.3941345
		c0.0837345,0.114666,0.1678181,0.1187897,0.2522907,0.0008011c0.2560234-0.0012817,0.5120468-0.0025597,0.7680721-0.0038376
		c0.1967258,0.3179932,0.6509552,0.0084152,0.8401642,0.3447304c-1.300539,0.0175858-2.5958271,0.1167336-3.8846254,0.2846909
		c-1.377553,0.1795235-2.7709723-0.0893326-4.1457691,0.1721535c-0.6822624,0.1297646-1.360796,0.3274422-2.0693121,0.2256012
		c0.2152853-0.2804337,0.5484314-0.2800713,0.8490181-0.3556137c0.2360373-0.0593147,0.3417568-0.1594162,0.1289139-0.371933
		c-0.0159769-0.2916679-0.2528467-0.3481026-0.4585209-0.3668556c-0.5922871-0.053997-0.8331385-0.4136887-0.9031763-0.9495888
		c0.0034294-0.0454292,0.008357-0.0906944,0.0147533-0.1359749C8.1646166,38.9203606,8.2234945,38.9069366,8.2823734,38.8935127z"/>
	<path style="fill:#B5201C;" d="M8.091012,39.0699387c0.0700378,0.5359001,0.3108892,0.8955917,0.9031763,0.9495888
		c0.2056742,0.0187531,0.442544,0.0751877,0.4585209,0.3668556c-0.4531364-0.1087608-0.8898993,0.2495193-1.3463726,0.0476646
		c0.0723381-0.4888992-0.3905816-0.8446846-0.3313098-1.3302612C7.8804293,39.0926971,7.9857211,39.0813179,8.091012,39.0699387z"/>
	<path style="fill:#4A221C;" d="M8.4402533,41.1275291c-0.0845938,0.0202255-0.1691885,0.0404549-0.2528648,0.060585
		C8.2492981,41.0720978,8.3470535,41.1092987,8.4402533,41.1275291z"/>
	<path style="fill:#B25F5A;" d="M28.6047363,17.2969131c0.009943-0.146452,0.1054745-0.1988659,0.2346573-0.213953
		C28.8518429,17.2537746,28.7342072,17.2818222,28.6047363,17.2969131z"/>
	<path style="fill:#B25F5A;" d="M28.4301205,17.4532299c0.057354-0.0530033,0.1147099-0.1060066,0.1722336-0.1588345
		C28.5450554,17.3474598,28.4875851,17.4003448,28.4301205,17.4532299z"/>
	<path style="fill:#AE0608;" d="M18.5744839,40.4314842c-0.189209-0.3363152-0.6434383-0.0267372-0.8398991-0.3448296
		c0.0083752-0.066143,0.0164795-0.1321907,0.0245857-0.1982384c0.7498779-0.1168938,1.0326538-0.58741,0.988287-1.3055191
		c0.6458397-0.3369064,1.3449631-0.5174713,2.0537071-0.6400566c0.3589573-0.0620842,0.6168747-0.2006569,0.7838802-0.5168114
		c0.215498,0.0025368,0.4309845,0.0051994,0.6464748,0.0078659c0.0057297,0.1056213,0.0114594,0.2112427,0.0171604,0.3168831
		c0.6372013,1.5537224,3.0319767,2.2395897,4.4334259,1.1567039c0.6982346-0.5395164,1.3532104-0.9215126,2.242281-0.9129982
		c1.6811352,0.0161133,3.3113995-0.4305305,4.9743862-0.5886993c-0.0421448,0.0952492-0.066864,0.2595291-0.1292229,0.2753334
		c-1.1707458,0.296772-2.2007542,0.9150352-3.2846317,1.4098663c-0.1435299,0.0655251-0.2164879,0.1464043-0.2430058,0.2887802
		c-0.8559742,0.2456093-1.7192268,0.3779716-2.6011219,0.1472969c-0.1896114-0.0495911-0.3869171-0.1292648-0.5498676,0.0220451
		c-0.6321392,0.5869827-1.424778,0.6129189-2.1860256,0.5245438c-1.662632-0.1930161-3.192564,0.7816544-4.8534355,0.4899178
		c-0.3613434-0.2263641-0.7328701-0.1896095-1.1085567-0.041317C18.8200989,40.4919968,18.6972904,40.4617386,18.5744839,40.4314842
		z"/>
	<path style="fill:#AE0608;" d="M38.238266,33.4141502c0.0611954,0.3363457,0.1223907,0.6726913,0.1833763,1.0090065
		c-1.8755302,1.0239067-3.8390465,1.7871132-5.9809113,2.0230789c-0.2428665-0.0374603-0.4791279-0.0615387-0.5413284,0.2671204
		c-0.5533981,0.054657-1.1173248,0.0238953-1.6552486,0.2040596c-0.287571-0.2355576-0.5348701-0.2880096-0.6746635,0.1483727
		c-0.2178059,0.0108376-0.4356079,0.0216751-0.6534119,0.0325089c-0.5000801-0.0585938-1.0001602-0.1171875-1.5002613-0.1758575
		c-0.0018425-0.1666336-0.003664-0.3331985-0.0054855-0.4997597c1.585453-0.3855095,3.2180119-0.6545715,4.692524-1.3652382
		c1.2783356-0.6161156,2.676403-0.7560234,4.0042076-1.1381302C36.7789803,33.725956,37.4438972,33.1758118,38.238266,33.4141502z"
		/>
	<path style="fill:#D71508;" d="M38.238266,33.4141502c-0.7943687-0.2383385-1.4592857,0.3118057-2.1312027,0.5051613
		c-1.3278046,0.3821068-2.725872,0.5220146-4.0042076,1.1381302c-1.4745121,0.7106667-3.1070709,0.9797287-4.6924839,1.3651619
		c-0.0539131-0.0016403-0.1078644-0.0032234-0.1618137-0.0048218c-0.1118565-0.2776527-0.223711-0.5553055-0.3355656-0.832962
		l0.0019817-0.0017738c0.840313-0.0870857,1.6558266-0.2964134,2.4504585-0.5666351
		c1.0448246-0.3553085,2.0501957-0.8559227,3.1165161-1.1080856c0.671814-0.1588745,1.3142853-0.1095505,1.5439491-0.9603004
		c0.0546913-0.2025948,0.4420815-0.4698181,0.6530304-0.4505806c1.3125305,0.1197128,2.2916412-0.9930515,3.5758018-0.9189644
		c-0.0000267,0.4923592,0.0001984,0.984623,0.0004196,1.4768867C38.249527,33.1749611,38.2438965,33.2945557,38.238266,33.4141502z"
		/>
	<path style="fill:#B5201C;" d="M30.2419128,39.3797646c0.0265179-0.1423759,0.0994759-0.2232552,0.2430058-0.2887802
		c1.0838776-0.4948311,2.1138859-1.1130943,3.2846317-1.4098663c0.0623589-0.0158043,0.0870781-0.1800842,0.1292229-0.2753334
		c0.422493-0.4046478,0.9801102-0.3975868,1.5038986-0.4935455c0.8308411,0.2990646,1.5575829-0.1834488,2.3172531-0.3472252
		c0.4805031-0.1035843,0.8640633-0.4277039,1.4506073-0.3685684c0.7676926,0.0773964,1.3423309-0.6605988,2.1101799-0.7801552
		c0.3212547-0.0500259,0.6234093-0.223526,0.9650803-0.1381989c-0.1614914,0.2899055-0.4625282,0.3923836-0.7370758,0.4996109
		c-1.6419868,0.6413155-3.2476921,1.4884987-4.9523087,1.8183556c-1.2153969,0.2351913-2.3107033,0.3704948-3.3782616,1.1291733
		C32.3898582,39.2854385,31.2916527,39.4690094,30.2419128,39.3797646z"/>
	<path style="fill:#EB5B18;" d="M38.2551498,33.0553665c-0.0002213-0.4922638-0.0004463-0.9845276-0.0004196-1.4768867
		c0.6022301-0.777956,1.2754021-1.4519958,2.3212662-1.5738945c0.7141914-0.0832424,1.356472,0.0693893,1.8968163,0.5731602
		c0.2243118,0.2091274,0.3115005,0.4595394,0.2421188,0.7479343c-0.0784302,0.3259754-0.3630638,0.3964081-0.6409874,0.4222183
		c-0.2739868,0.0254459-0.5812416,0.0836182-0.8226852-0.0078068c-0.616394-0.2334099-1.0587769,0.0304203-1.4795418,0.4059048
		c-0.1953773,0.1743546-0.4008827,0.3235893-0.6631622,0.2688675
		C38.5648842,32.3014297,38.4082832,32.6679382,38.2551498,33.0553665z"/>
	<path style="fill:#EB5B18;" d="M30.244154,36.9174156c0.5379238-0.1801643,1.1018505-0.1494026,1.6552887-0.203701
		c0.2500896,0.051796,0.4661427,0.0345306,0.5412884-0.2674789c2.1418648-0.2359657,4.105381-0.9991722,5.9809113-2.0230789
		c0.7599182-0.2259293,1.4026108-0.612175,1.866333-1.280571c0.1085243-0.1564255,0.287178-0.4567757,0.5147972-0.2664719
		c0.2244453,0.187645,0.1019135,0.4959373-0.1129189,0.6460915c-1.2297668,0.8595276-2.4091682,1.7444611-3.8661461,2.2958832
		c-1.7538757,0.6637917-3.5831184,0.9762993-5.3631172,1.4907379c-0.7764606,0.2244072-1.7484207,0.436657-2.5445576-0.2106895
		c0.2178497-0.0106735,0.4356518-0.0215111,0.6535301-0.0321693C29.8068638,37.0727425,30.0637341,37.1684418,30.244154,36.9174156z
		"/>
	<path style="fill:#B5201C;" d="M27.248558,36.4177818c0.0539494,0.0015984,0.1079006,0.0031815,0.1618137,0.0048218
		c0.0017815,0.1666374,0.003603,0.3332024,0.0054455,0.499836c-0.2162933,0.6630859-0.782217,0.223259-1.1134472,0.2474098
		c-0.5204144,0.0379486-1.0632343-0.137619-1.6185341,0.0007401c-0.2988224,0.0744514-0.2378311-0.2139282-0.2489338-0.3941765
		c0.0494976-0.0129852,0.0996323-0.0210991,0.1505737-0.0240707c0.1111546-0.0016518,0.2223339-0.003273,0.3335114-0.0048943
		c0.1063938-0.0027237,0.2127857-0.005455,0.3192806-0.0080795C25.9421139,36.842701,26.5854893,36.5687065,27.248558,36.4177818z"
		/>
	<path style="fill:#B5201C;" d="M49.7234993,27.5901718c-0.361599-0.020092-0.5598297-0.3045692-0.8118629-0.5017452
		C49.2809372,27.0961971,49.6829224,27.0508499,49.7234993,27.5901718z"/>
	<path style="fill:#B5201C;" d="M48.8950577,27.0777493c-0.2689095-0.0161686-0.4928474-0.1324883-0.6896591-0.3094997
		C48.4682693,26.7977142,48.8169556,26.6361389,48.8950577,27.0777493z"/>
	<path style="fill:#B5201C;" d="M24.9975586,37.4270821c0.0430756,0.0239601,0.084446,0.0469704,0.1258163,0.0699844
		c-0.0408344,0.0237045-0.0813084,0.0652542-0.1226082,0.0660934c-0.0412636,0.0008392-0.0833569-0.0390587-0.1250877-0.0610962
		C24.915823,37.4773674,24.9559669,37.4526711,24.9975586,37.4270821z"/>
	<path style="fill:#B5201C;" d="M42.7739677,34.9913826c0.1772194-0.7990417,0.7857437-0.2400665,1.1747246-0.3728943
		C43.6036377,34.8890381,43.1862907,34.9323006,42.7739677,34.9913826z"/>
	<path style="fill:#4A221C;" d="M18.9429054,40.5222511c0.3756866-0.1482925,0.7472134-0.1850471,1.1085567,0.041317
		C19.6786251,40.6319427,19.3097496,40.604332,18.9429054,40.5222511z"/>
	<path style="fill:#B5201C;" d="M42.2542534,35.2681236c0.0695419-0.0484962,0.1390762-0.0969963,0.2088585-0.145401
		C42.3936539,35.1712532,42.3239517,35.2196884,42.2542534,35.2681236z"/>
	<path style="fill:#4A221C;" d="M46.5613747,31.3338547c-0.7231369,0.0142384-0.9317245-0.3436184-0.809967-0.9346447
		c0.1071243-0.5199547-0.1498566-1.0707531,0.2427788-1.5853424c0.1802559-0.2362404,0.1228638-0.5553055,0.5893707-0.6230469
		c0.544426-0.0790558,0.9824295-0.1687222,1.2135391,0.4583282C46.2415581,29.5246353,46.2415581,29.5246353,46.5613747,31.3338547z
		"/>
	<path style="fill:#EDBA0D;" d="M47.9482117,30.6279774c-0.1482086-0.0692902-0.4715157-0.0367661-0.2943764-0.3260136
		c0.1250763-0.2042408,0.3703346-0.3981342,0.5860977-0.0330563C48.1433296,30.3883553,48.0457687,30.5081673,47.9482117,30.6279774
		z"/>
	<path style="fill:#B25F5A;" d="M47.9482117,30.6279774c0.0975571-0.1198101,0.195118-0.2396221,0.2917213-0.3590698
		c0.1464539,0.0194683,0.3797112-0.0000687,0.2736778,0.2376842C48.4067421,30.7462063,48.1967697,30.868351,47.9482117,30.6279774z
		"/>
	<path style="fill:#DD2713;" d="M27.248558,36.4177818c-0.6630688,0.1509247-1.3064442,0.4249191-2.0102901,0.3215866
		c0.0408421-0.2872086,0.245739-0.3268623,0.4821148-0.3205681c0.6956024,0.018528,0.8992062-0.390686,0.870079-1.0018425
		c0.1075935,0.055954,0.2150688,0.1119041,0.3225384,0.1678581C27.024847,35.8624763,27.1367016,36.1401291,27.248558,36.4177818z"
		/>
	<path style="fill:#AE0608;" d="M32.3992844,17.4334373c-0.5453682,0.1061363-1.089817,0.3862534-1.637537,0.0087223
		c-0.0155697-0.1483707,0.0208206-0.2697639,0.1725216-0.3313675c0.9168072,0.0009632,1.5249863-0.7120914,2.316761-1.0002441
		C32.967186,16.5515671,32.683239,16.9925022,32.3992844,17.4334373z"/>
	<path style="fill:#185C97;" d="M19.5950603,27.797781c-0.0315762-0.2868519-0.0631523-0.5737038-0.094717-0.8605499
		c0.0973358-0.650486,0.8689117-0.6904087,1.1021862-1.2170582c0.0402336-0.0326958,0.080801-0.0658188,0.1213684-0.0989399
		c0.7876968-0.7944717,1.5753937-1.5889378,2.3630123-2.3831463c0.2487659,0.0262985,0.4889545,0.0400505,0.4619274-0.3253498
		c0,0,0.0197296-0.0190868,0.0196552-0.0194435c0.210535,0.0914917,0.5417099-0.083931,0.639307,0.232235
		c0.0867901,0.2811604-0.2461605,0.313942-0.3660984,0.4774952c-0.5835037,0.7956772-1.404789,1.4439163-1.5601463,2.5060749
		c-0.0180473,0.0498734-0.0373287,0.099308-0.057291,0.148344c-0.5843716,0.0051193-0.8582745,0.4129086-1.1064129,0.8540783
		c0,0-0.0177364,0.0122566-0.0178623,0.0119629c-0.0979977,0.0048103-0.1477985,0.0564423-0.1497803,0.1543484
		c-0.096859,0.3404846-0.3900681,0.4208164-0.6764374,0.5101089c-0.0713615,0.003315-0.1425629,0.0069447-0.2135391,0.0101318
		C19.9053268,27.7976818,19.7501945,27.7977314,19.5950603,27.797781z"/>
	<path style="fill:#EB5B18;" d="M21.8881626,20.7703819c-0.0240231-0.0321751-0.0325603-0.068037-0.0254917-0.1078949
		c-0.0372009-0.0875359-0.0745201-0.1747608-0.1118374-0.2619858c-0.0006828-0.0897961-0.0013638-0.1795921-0.0021172-0.2689819
		c0.3925362-0.1081104,0.4390335-0.6343594,0.8567753-0.7111416c0.5987206-0.1100483,1.2071896-0.604805,1.7873764,0.0870495
		c0.0852032,0.1015968,0.3624249,0.04216,0.5509377,0.0571518c0.0001373-0.000082,0.0001621,0.0222797,0.0001621,0.0222797
		c-0.0243816,0.2593822-0.0136547,0.495575,0.3360062,0.5068722c0.0831699,0.5374908,0.2008476,1.0576897-0.0242538,1.6107235
		c-0.3275414,0.8047066-0.6108627,0.9650879-1.4943619,0.6873817c0.2360306-0.2323532,0.1675568-0.6383381,0.47402-0.8297596
		c0.1945591-0.1229191,0.2318192-0.2485142,0.0054798-0.377903c-0.0273705-0.0292912-0.051424-0.0610943-0.0713558-0.0950012
		c0.0136757-0.7443352-0.3475266-0.9285831-1.0040989-0.6702728c-0.0980186,0.0310707-0.1960411,0.0621414-0.2934856,0.0922451
		C22.6086216,20.839922,22.3200264,21.0761356,21.8881626,20.7703819z"/>
	<path style="fill:#B25F5A;" d="M21.8881626,20.7703819c0.4318638,0.3057537,0.720459,0.06954,0.9837551-0.2592373
		c0.170105,0.4787769,0.037075,0.8210754-0.4489479,1.0058765C22.1805096,21.3141212,21.891222,21.1447601,21.8881626,20.7703819z"
		/>
	<path style="fill:#B25F5A;" d="M23.1654034,20.4188995c0.6565723-0.2583103,1.0177746-0.0740623,1.0040989,0.6702728
		C23.8442516,20.850523,23.6004677,20.4914627,23.1654034,20.4188995z"/>
	<path style="fill:#3F3C6A;" d="M23.5488377,22.9127369c0.0270271,0.3654003-0.2131615,0.3516483-0.4619274,0.3253498
		C23.1669598,23.0243645,23.3298492,22.9286995,23.5488377,22.9127369z"/>
	<path style="fill:#B25F5A;" d="M24.24086,21.1841736c0.2263374,0.1293888,0.1890774,0.2549839-0.0054817,0.377903
		C24.2371826,21.4358349,24.2390213,21.3100033,24.24086,21.1841736z"/>
	<path style="fill:#3F3C6A;" d="M20.7238979,25.621233c-0.0405674,0.0331211-0.0811348,0.0662441-0.1213684,0.0989399
		C20.6432095,25.6869049,20.6835537,25.654068,20.7238979,25.621233z"/>
	<path style="fill:#046EBE;" d="M14.9294405,28.5876865c0.0404167,0.0609417,0.0812035,0.1216621,0.1184864,0.1844635
		c0.00072,0.0012131-0.0398378,0.0269279-0.0611362,0.0412121c-0.0220175-0.0727386-0.044035-0.1454811-0.0661163-0.2181587
		C14.9206104,28.5952682,14.9294405,28.5876865,14.9294405,28.5876865z"/>
	<path style="fill:#3F3C6A;" d="M15.4746141,28.8769112c0.1285725,0.0743389,0.1787596,0.193634,0.1919832,0.3340302
		C15.4382191,29.1942177,15.4286842,29.0515385,15.4746141,28.8769112z"/>
	<path style="fill:#3F3C6A;" d="M26.9036999,21.0888691c-0.0556431,0.1562252-0.1833096,0.1771584-0.3244839,0.17272
		C26.6472759,21.1286678,26.7671242,21.0930538,26.9036999,21.0888691z"/>
	<path style="fill:#3F3C6A;" d="M27.4104004,20.4377193c-0.0514851,0.0515785-0.1029701,0.103159-0.1543427,0.1546326
		C27.3075829,20.5407372,27.3589916,20.4892292,27.4104004,20.4377193z"/>
	<path style="fill:#B25F5A;" d="M25.279974,20.0937309c-0.3496609-0.0112972-0.3603878-0.2474899-0.3361416-0.506834
		C25.1942692,19.6641388,25.2882767,19.8450241,25.279974,20.0937309z"/>
	<path style="fill:#185C97;" d="M25.9211864,21.4384518c-0.0255547,0.02174-0.0511093,0.0434799-0.076664,0.0652218
		c0.0210552-0.0262241,0.0421104-0.0524483,0.0630817-0.0787334L25.9211864,21.4384518z"/>
	<path style="fill:#B25F5A;" d="M21.7508335,20.4005013c0.0373173,0.087225,0.0746365,0.1744499,0.1118374,0.2619858
		C21.8253155,20.5753651,21.7880726,20.4879341,21.7508335,20.4005013z"/>
	<path style="fill:#AE0608;" d="M30.2453861,18.4207554c-0.2400055,0.4854527-0.4976768,0.9631729-0.7146091,1.4587288
		c-0.184391,0.421217-0.4907589,0.6495819-0.9286175,0.7287731C29.1236839,19.8593369,29.4396915,18.9561596,30.2453861,18.4207554z
		"/>
	<path style="fill:#3F3C6A;" d="M21.1178513,27.1115208c0.2481384-0.4411697,0.5220413-0.848959,1.1064129-0.8540783
		C21.9546204,26.6708202,21.707716,27.113266,21.1178513,27.1115208z"/>
	<path style="fill:#3F3C6A;" d="M20.1045513,28.1037769c-0.0490875,0.4088612,0.1235905,0.8772507-0.3170261,1.1810112
		l-0.0566406-0.0447044c0.0628433-0.4012356,0.1155891-0.8054295,0.3399124-1.159317L20.1045513,28.1037769z"/>
	<path style="fill:#AE0608;" d="M30.7510586,17.4508057c0.0094719,0.3428974-0.0767574,0.6162128-0.4791412,0.6595669
		C30.2433414,17.7537613,30.4639435,17.5781441,30.7510586,17.4508057z"/>
	<path style="fill:#3F3C6A;" d="M19.0864143,30.2580948c-0.0198479-0.1270313-0.0396938-0.2540607-0.0595894-0.3812809
		c0,0,0.0184937,0.0030346,0.0188522,0.0034027c0.1108608-0.0004177,0.2213669-0.0011997,0.3318672-0.0019817
		c0.0230961,0.0232277,0.0465755,0.0460663,0.0704327,0.0685139C19.3274536,30.0505295,19.206934,30.1543102,19.0864143,30.2580948z
		"/>
	<path style="fill:#3F3C6A;" d="M19.5955009,29.5955811c0.0029488,0.1389694-0.0230503,0.2657356-0.147728,0.3509865
		c-0.023653-0.0222664-0.0471325-0.045105-0.069643-0.0677071c0.0673332-0.0980282,0.1340847-0.1966877,0.2008343-0.2953453
		L19.5955009,29.5955811z"/>
	<path style="fill:#3F3C6A;" d="M20.0600033,27.7985134c0.0712051-0.0036278,0.1424065-0.0072575,0.213768-0.0105724
		c-0.004837,0.1331863-0.0460472,0.2465496-0.1694202,0.3156967l-0.0332928-0.0227299
		C20.0675468,27.9868698,20.0637779,27.8926907,20.0600033,27.7985134z"/>
	<path style="fill:#3F3C6A;" d="M19.7875252,29.2847881c-0.0210857,0.1301517-0.0590725,0.2498417-0.1921196,0.3107281
		l-0.0162964-0.0119057c-0.0045662-0.1388245,0.0303745-0.260252,0.1517754-0.3435268L19.7875252,29.2847881z"/>
	<path style="fill:#3F3C6A;" d="M20.9502087,27.277832c0.0019817-0.0979061,0.0517826-0.149538,0.1497803-0.1543484
		C21.0501461,27.1751308,21.0001774,27.2264824,20.9502087,27.277832z"/>
	<path style="fill:#4A221C;" d="M19.7308846,29.2400837c-0.1214008,0.0832748-0.1563416,0.2047024-0.1517754,0.3435268
		c-0.0668945,0.0985622-0.133646,0.1972218-0.2009792,0.2952518c-0.1110859,0.0001545-0.2215919,0.0009365-0.3324528,0.0013542
		c0.0858879-0.7202682,0.6090546-1.3248615,0.5493622-2.082859c0.1551552,0.0003738,0.3102875,0.0003242,0.4651928,0.0007153
		c0.0035458,0.0946178,0.0073147,0.188797,0.0108261,0.282835C19.8464737,28.4346542,19.7937279,28.8388481,19.7308846,29.2400837z"
		/>
	<path style="fill:#4A221C;" d="M27.3944569,14.5848894c0.3165741,0.0789032,0.6468773,0.1905909,0.6780205,0.5890207
		c0.0185719,0.237607-0.1528912,0.452364-0.4103565,0.4141207c-0.344326-0.0511446-0.6350174-0.2813978-0.7205124-0.6113272
		C26.8741093,14.7162199,27.1460724,14.6298237,27.3944569,14.5848894z"/>
	<path style="fill:#DD2713;" d="M22.2315197,37.4338951c-0.2154903-0.0026665-0.4309769-0.0053291-0.6464748-0.0078659
		c-0.247427-0.6417847-0.0141068-0.9149132,0.6548748-0.8538666C22.2370281,36.8593216,22.2342739,37.1466103,22.2315197,37.4338951
		z"/>
	<path style="fill:#DD2713;" d="M24.9189873,36.747448c-0.1111774,0.0016212-0.2223568,0.0032425-0.3335114,0.0048943
		c0.0416164-0.0857353,0.0689449-0.2321358,0.1274757-0.245903C24.8886204,36.4651146,24.8901043,36.6296768,24.9189873,36.747448z"
		/>
	<path style="fill:#B5201C;" d="M17.7591705,39.8884163c-0.0081062,0.0660477-0.0162106,0.1320953-0.0245857,0.1982384
		c-0.2562904,0.0013771-0.5123138,0.002655-0.7688046,0.0038795c-0.0842533-0.0002861-0.1680374-0.000515-0.2518234-0.0007439
		c-0.3560619-0.0172501-0.7723513-0.0113373-0.9078932-0.3941345c-0.0911083-0.257309,0.1385078-0.4528694,0.450757-0.4348564
		c0.0382767,0.1940308-0.0509148,0.5217857,0.33181,0.3930588C17.0351715,39.5036659,17.3945599,39.684761,17.7591705,39.8884163z"
		/>
	<path style="fill:#B5201C;" d="M8.2823734,38.8935127c-0.0588789,0.0134239-0.1177568,0.0268478-0.1766081,0.040451
		C8.1323404,38.7801437,8.1930666,38.7747078,8.2823734,38.8935127z"/>
	<path style="fill:#AE0608;" d="M16.7139568,40.0897903c0.083786,0.0002289,0.1675701,0.0004578,0.2518234,0.0007439
		C16.8817749,40.20858,16.7976913,40.2044563,16.7139568,40.0897903z"/>
	<path style="fill:#B5201C;" d="M30.244154,36.9174156c-0.1804199,0.2510262-0.4372902,0.1553268-0.6745911,0.1485519
		C29.7092838,36.629406,29.956583,36.6818581,30.244154,36.9174156z"/>
	<path style="fill:#B5201C;" d="M32.440731,36.4462357c-0.0751457,0.3020096-0.2911987,0.3192749-0.5412884,0.2674789
		C31.9616032,36.384697,32.1978645,36.4087753,32.440731,36.4462357z"/>
</g>
</svg>
