<?xml version="1.0" encoding="utf-8"?>
<!-- Generator: Adobe Illustrator 21.1.0, SVG Export Plug-In . SVG Version: 6.00 Build 0)  -->
<svg version="1.1" id="Слой_1" xmlns="http://www.w3.org/2000/svg" xmlns:xlink="http://www.w3.org/1999/xlink" x="0px" y="0px"
	 viewBox="0 0 55 45" style="enable-background:new 0 0 55 45;" xml:space="preserve">
<g>
	<path style="fill:#456CDB;" d="M44.043911,37.4088669c-0.009819,0.2217598-0.0196381,0.4435158-0.0294151,0.6653595
		c-0.0836868,0.0104218-0.1674194,0.0207596-0.2511902,0.0312462c0.0743866-0.4655151-0.1656837-0.7944603-0.4753265-1.0931587
		c-0.1530075-0.2135849-0.4952583-0.148304-0.6118927-0.4303207c-0.0805969-0.1948624-0.2245674-0.3980637-0.4651184-0.2909851
		c-0.2770805,0.1233368-0.2133408,0.4229431-0.1231689,0.6092377c0.2974548,0.6144791-0.3052597,0.7667198-0.5340118,0.7414093
		c-0.5354996-0.0592422-0.988903,0.2358093-1.5213509,0.1834145c-0.5199127-0.0511589-0.8672905,0.2786598-0.8062057,0.8757706
		c-0.0998955,0.0044441-0.1997871,0.0088882-0.2996788,0.0133324c-0.0020142-0.1802864,0.0005188-0.3607635-0.0069923-0.5408211
		c-0.0148697-0.356636-0.1527901-0.3919563-0.4294167-0.1831665c-0.1987762,0.1500359-0.3438492,0.5768509-0.6736259,0.283844
		c-0.2494354-0.2216263-0.2281723-0.6028709-0.0490112-0.8587761c0.3167076-0.4523659-0.0429268-0.3704834-0.273777-0.4120255
		c-0.163311-0.154953,0.0649872-0.4894142-0.2611542-0.569725c-0.4590378-0.4274864-0.5331726,0.0432892-0.5672569,0.2950935
		c-0.163353,1.2068977-0.9742317,1.6767731-2.0439568,1.839798c-0.3249092,0.0495186-0.4222336,0.2450905-0.5225754,0.4855003
		c-0.2498856,0.1245346-0.4871101,0.249794-0.7685852,0.3320999c-1.0443344,0.3053665-2.146368,0.3184128-3.1773472,0.6839561
		c-0.5504189,0.1951561-1.0299568,0.6331406-1.6759949,0.5241585c-0.22925-0.3802719-0.4741478-0.6855316,0.2475567-0.8948822
		c0.2765541-0.0802231,0.7813854-0.2407188,0.8790779-0.4604034c0.3081017-0.6928291,1.0185223-0.9162674,1.5035038-1.3533592
		c0.6183472-0.5572815,1.3977184-1.0472679,2.2315884-1.3551025c0.2645645-0.0976639,0.4859924-0.2513924,0.6413002-0.5280571
		c0.442173-0.7877121,1.1929665-1.2611008,1.9134178-1.7544746c0.2130585-0.1459045,0.458828-0.2338295,0.7371025-0.1601982
		c0.9418793,0.2492218,1.570118-0.3207169,2.3603668-0.8328438c-0.8069534-0.2902641-1.0660095-0.9337425-0.9101563-1.4549637
		c0.2388-0.7986221,0.287735-1.6190453,0.4828644-2.4168816c0.097023-0.3966923,0.227253-0.8946266-0.2110596-1.2243748
		c-0.53088-0.3993816-0.6086197-0.9565983-0.5098686-1.5330429c0.2335434-1.363306-0.4346466-2.5422592-0.8524208-3.7240467
		c-0.5490761-1.553215-1.1967239-3.0565395-1.1757278-4.7327766c0.0077362-0.6175728-0.0810852-1.1704693-0.4473915-1.6771297
		c-0.300705-0.4159298-0.6136131-0.8204145-0.7656631-1.3344021c-0.1048393-0.3543949-0.478096-0.5206499-0.7999535-0.5156679
		c-0.2925568,0.004528-0.294693,0.361125-0.3498268,0.6111116c-0.0907478,0.4114294-0.3689957,0.4488382-0.7149734,0.331172
		c-0.7434902-0.2528639-0.929863-0.135272-0.982954,0.6650171c-0.0226059,0.3407497-0.0560246,0.6319809-0.4895782,0.638649
		c-0.0401649-0.0944691-0.0805168-0.1890736-0.1208649-0.2836781c-0.1015568-0.3421535,0.2346725-0.6107397,0.1593819-0.9484787
		c0.2030735-0.110364,0.2507896-0.2948418,0.2870655-0.5106745c0.226265-1.3460798,0.4063892-2.7016134,0.782917-4.0184994
		c0.6774597-0.2681427,0.5204277-0.7499218,0.3182831-1.2432499c0.0114174-0.1038094,0.0228386-0.2076187,0.034256-0.3114281
		c0.6226921-0.1672506,0.9121971-0.6047249,0.9818153-1.2840309c0.2543945,1.3935766,1.1198235,1.9207659,2.3981171,1.9123869
		c0.0040283,0.4635172,0.0080605,0.9270344,0.0120964,1.3905516c-0.0005379,0.6744719,0.0002556,1.3489466-0.0020599,2.0234127
		c-0.0016975,0.4954414,0.0308456,1.0387878,0.2962151,1.4159679c0.5251732,0.7464399,0.7091293,1.533412,0.6383667,2.4091921
		c-0.0804672,0.9958782,0.8987427,1.7071476,0.7266464,2.7274284c-0.0055695,0.0330315,0.0596695,0.1108265,0.0954056,0.1131248
		c0.6256828,0.0402393,0.4014091,0.5090122,0.423336,0.8440285c0.0185394,0.2833118,0.1099129,0.5863457,0.0836067,0.8377056
		c-0.0637093,0.6086807,0.4855576,0.9322243,0.5499115,1.4674797c0.1037331,0.8627663,0.3231735,1.6919785,0.9308548,2.3617287
		c0.0034637,0.098217,0.0069313,0.1964283,0.0103951,0.2946434c-0.0102654,0.1387081,0.0129166,0.2618465,0.153698,0.3302555
		c0.0025444,0.2006836,0.005085,0.4013691,0.0074463,0.602232c0.2323685,1.0249557-0.1551704,2.1410599,0.5354729,3.1238594
		c0.1411781,0.2008953,0.574482,0.6451454,0.206562,1.0204372c-0.2738991,0.2793827-0.1772079,0.5310345-0.1518211,0.8400383
		c0.0468864,0.5706978,0.3426666,1.0725746,0.3609581,1.6576958c0.0145607,0.4656677,0.9370232,1.0828781,1.3652534,1.0207481
		c0.119915,0.5220108,0.2882881,0.1184196,0.4405251,0.0230637c0.4859009,0.7220192,0.4577332,1.6879311,1.106678,2.3325958
		l-0.0056686-0.0108147C43.895504,37.1713181,43.9017944,37.3175125,44.043911,37.4088669z"/>
	<path style="fill:#D5AE38;" d="M20.2129154,40.4785347c-0.0232716-0.0114365-0.045784-0.0248718-0.0699234-0.0340157
		c-1.9038925-0.7214775-1.9924202-0.9115868-1.3201828-2.8361397c0.3721943-0.5678253,0.4522686-1.2330475,0.6224098-1.8682671
		c0.5006924-0.8922539,0.5111675-1.9351425,0.8991756-2.8699379c0.6226692-1.5001316,0.6914349-3.1463985,1.1289349-4.6989632
		c0.2463131-0.2245464,0.4983196-0.4539967,0.456913-0.8282356c-0.0605679-0.5474129,0.1935616-1.024498,0.3152351-1.5312195
		c0.2456436-0.329958,0.2084274-0.7397594,0.3131657-1.1094913c0.0154819-0.2692471,0.6506863-0.4093761,0.1632175-0.7834091
		c0.0125256-0.0509262,0.0057507-0.0991402-0.0202904-0.1447964c0.0193253-0.052681,0.0386143-0.1052094,0.0579033-0.1577396
		c0.1659756-0.0787621,0.331953-0.1575203,0.4979324-0.2362785c0.235836,0.2671337,0.3645611,0.5231609,0.1412678,0.8923645
		c-0.4841328,0.8004932-0.652977,1.6673069-0.4427891,2.5990105c0.0305271,0.1353226-0.0728226,0.2972279-0.098793,0.4494629
		c-0.3571529,2.0933037-1.2499866,4.0593071-1.4669056,6.1883984c-0.0288658,0.2832909-0.1201782,0.5834846-0.4919529,0.7270622
		c-0.4683037,0.1808586-0.5458984,0.9411545-0.4313583,1.0324135c0.4798508,0.382328,0.4120045,1.0004311,0.7521725,1.398262
		c0.9837246,1.150486,1.7503166,2.474926,2.888092,3.5073204c0.3427448,0.310997,0.6415501,0.4868927,1.0846386,0.422245
		c0.0082912,0.2290535,0.1278858,0.3897781,0.3131752,0.5101776c0.0739193,0.5364151,0.4830551,0.6614342,0.921257,0.745285
		c0.2161121,0.0413513,0.466795-0.0611534,0.6389675,0.1579094c-0.5172176,0.0077477-1.0344372,0.0154953-1.5516548,0.0232506
		c-0.1042042-0.0097198-0.2084084-0.0194359-0.3126259-0.0291481c-1.1164551-0.4040909-2.2500401-0.7466011-3.4215813-0.952816
		c0,0,0.0036964,0.008049,0.0036163,0.0081139c-0.215601-0.2321625-0.4946175-0.288475-0.7946014-0.2866898
		c-0.138773-0.1059189-0.2869492-0.1856041-0.4698429-0.1684151C20.4518986,40.4766273,20.3406601,40.4575233,20.2129154,40.4785347
		z"/>
	<path style="fill:#1C1916;" d="M17.72052,18.3002262c-0.0068703-0.4144745-0.0178986-0.8289318-0.0198479-1.2434292
		c-0.0064793-1.3780575-0.0054874-1.3773661-1.3196182-1.8656759c-0.4086485-0.1518469-0.8197098-0.2984076-1.2220507-0.4657049
		c-0.4879341-0.2028875-0.6920414-0.6569014-0.6977482-1.1113796c-0.0052767-0.4202137,0.4072514-0.6657171,0.7800026-0.768487
		c0.6002884-0.1655035,1.2290354-0.5505037,1.8291998,0.0220423c-0.2642746,0.1675558-0.3244076,0.4027185-0.2717934,0.7032623
		c0.0425568,0.2430973,0.2918434,0.3161812,0.3919601,0.2936888c0.3813896-0.0856857,0.6575108,0.0811815,0.9909096,0.2117853
		c0.7033768,0.2755404,0.9259338,0.0969934,1.0466976-0.6918612c0.02668-0.1742792,0.0035133-0.3561897,0.0033073-0.5345926
		c0.4129753-0.0103168,0.5288525,0.2226715,0.4823284,0.5888205c-0.1041126,0.0582085-0.148428,0.1184196-0.0061989,0.1850195
		c0.0188427,0.4109869,0.0376835,0.8219719,0.0565262,1.2329588c-0.0757141,0.6480656-0.2747097,1.121294-1.0817108,0.8198633
		c-0.1633129-0.0610018-0.3568726-0.0615683-0.4851551,0.1289215c-0.1687431,0.2505722,0.0984402,0.2578354,0.1775894,0.3855591
		c0.2983303,0.4814167,0.452425,1.0201645,0.5471992,1.5858479c0.1346703,0.8038273,0.3304214,1.5974197,0.5000744,2.3953857
		c-0.0656414,0.6204586,0.2925377,1.2103481,0.1325283,1.8376102c-0.2422256-0.4776211-0.4486046-0.7540874-1.0093422-0.234045
		c-0.3456059,0.320528-0.6237049,0.7372894-1.0911236,1.0027046c-0.0577087-1.3722839,0.0991459-2.690155,0.2589207-4.0078602
		c0.1212997-0.0219383,0.2172527,0.2474422,0.268507,0.1120415C18.0655956,18.661026,18.0792274,18.3707485,17.72052,18.3002262z
		 M18.1386986,16.5066929c-0.0228539-0.0572948-0.0397434-0.099638-0.0566311-0.1419792
		c-0.0531368,0.049305-0.1161976,0.0921879-0.1543694,0.1511784c-0.0146484,0.0226345,0.0274811,0.0820103,0.0437393,0.1246452
		C18.0283203,16.5950184,18.0852013,16.5495014,18.1386986,16.5066929z M17.9456959,19.7489433
		c0.0209885-0.0441723,0.0544147-0.083498,0.054081-0.1225319c-0.0003376-0.0391159-0.0343742-0.0779457-0.0536404-0.1168995
		c-0.0193577,0.0388546-0.0534611,0.0775337-0.0539265,0.1166153
		C17.8917446,19.6651955,17.9249268,19.7046661,17.9456959,19.7489433z"/>
	<path style="fill:#1C1916;" d="M23.0332794,13.0085907c0.097477-0.0092583,0.1949577-0.0185156,0.2924347-0.0277739
		c0.3729897,0.2079296,0.7459831,0.4158592,1.1189728,0.6237879c-0.2401085,0.820899,0.0246468,1.6013784,0.1913185,2.3897095
		c-0.0069294,0.0915871-0.0138588,0.183176-0.0207901,0.274765c-0.1921844,0.2647152-0.5549526,0.5321178,0.0123463,0.7848873
		c-0.1624928,0.3214474-0.0224628,0.7127743-0.0994625,0.9796467c-0.3763008,1.3042049-0.6399288,2.6816101-1.6484356,3.7117996
		c-0.1477089-0.0462513-0.5109921-0.0776939-0.3976498-0.1615334c0.5797043-0.4287891,0.0173492-1.0294304,0.3018074-1.4879265
		c0.1440792-0.2322292-0.0330391-0.378624-0.2909222-0.393364c0.0135002-0.0581055,0.0270004-0.1162109,0.0404987-0.1743183
		c0.382267-0.1127014,0.5396748-0.2949772,0.3571148-0.7266273c-0.1665802-0.3938618-0.3647766-0.7019386-0.7942677-0.813694
		c-0.0175915-0.2189884,0.039732-0.4579048-0.1667023-0.6266594c-0.0759602-0.3552647,0.0269241-0.971487-0.6495209-0.410635
		c-0.1620331,0.1343441-0.2626953-0.0014286-0.2705536-0.197998c-0.0159817-0.3995934-0.2714577-0.7725725-0.043354-1.2065992
		c0.126524-0.2407417-0.0848961-0.2873945-0.293478-0.2094278l0.0041714,0.003994
		c0.0005608-0.1557646,0.0011196-0.3115311,0.0016766-0.4672956c0.1120796-0.329957,0.3781872-0.4980497,0.664278-0.6566372
		c0.176342-0.0977497,0.4201603-0.2157526,0.3734283-0.4428072c-0.0557613-0.2709217-0.3411121-0.1680956-0.5292835-0.1755495
		c-0.3869762-0.0153313-0.7752914,0.00315-1.1630592,0.0077152c0.0331135-0.042922,0.0439892-0.0908871,0.0326252-0.1438923
		c0.1044598-0.0845356,0.2089214-0.1690693,0.3133793-0.2540569c0.637291,0.0387468,1.2997818,0.2973404,1.8736744-0.2156124
		C22.4989891,13.3798389,22.7647533,13.2618713,23.0332794,13.0085907z M22.5704651,17.8962421
		c0.0429668-0.5473499,0.0894241-1.1039009-0.462862-1.7251663C22.1024513,16.920105,22.2574501,17.4225082,22.5704651,17.8962421z"
		/>
	<path style="fill:#3B3D42;" d="M18.2323475,25.7121964c0.1856937-0.7407703,0.7535648-1.3450546,0.6258278-2.2188129
		c-0.0625286-0.4277115,0.4694405-0.6706276,0.8877449-0.8240795c0.4050465-0.0256824,0.6412106,0.5738449,1.1131134,0.300703
		c0.2634182,0.0529022,0.5268345,0.1058006,0.7902489,0.158699c-0.0972977,0.3614712-0.4661369,0.6358948-0.3424473,1.0682068
		c-0.0361576,0.6621819-0.2484436,1.3667717,0.5606232,1.7879391c-0.3190708,0.185606-0.756382-0.0365047-0.7026081,0.4644928
		l0.0145721-0.0148373c-0.3800755-0.0356064-0.3517094,0.2242928-0.3410454,0.471384
		c-0.574976,1.1231823-1.2697544,2.1855068-1.7144337,3.3748798c-0.0956783,1.0780334,0.0952339,2.1627598-0.122736,3.2459583
		c-0.06077,0.302002-0.0722713,0.7881279,0.3836174,0.9868355c0.1114445,0.3849716-0.2482662,0.7155151-0.1272526,1.101593
		c-0.3030205,0.2551308-0.2177734,0.8188248-0.8986607,0.8194275c-0.6026649,0.0005379-0.7914486-0.3808403-1.1215954-0.6677475
		c0.1931705-1.7729149-0.1288166-3.5233192-0.2308311-5.2833328c0.1819458,0.0257015,0.2078743-0.2424698,0.4587269-0.1830196
		c0.7108364,0.1684628,1.360384-0.5789852,1.4297199-1.2985249c0.0455952-0.4731579,0.0151157-1.0949669,0.6352654-1.4093571
		c0.5681934-0.2880516,0.5555496-0.8162193,0.039856-1.1971245c0.0767708-0.2574291,0.5626335,0.0192928,0.490572-0.3066463
		c-0.0843925-0.3817139-0.2549038-0.7895203-0.5115738-1.0749264c-0.2414589-0.2684937-0.7091408-0.6769753-0.7732029,0.1936131
		C18.7534523,25.5119019,18.4283791,25.5580997,18.2323475,25.7121964z M19.8939495,23.761816
		c-0.0309086-0.2562504-0.126709-0.4556866-0.4292717-0.437418c-0.1238041,0.0074749-0.1859665,0.118351-0.1601505,0.2208061
		c0.071888,0.2852859,0.321806,0.1898746,0.5140228,0.2133293c0.0255413,0.0031147,0.0517483,0.0007744,0.0776482,0.0009594
		c-0.4129162,0.5265274,0.003191,0.5975113,0.4141426,0.7598228C20.3493519,24.1090813,20.2880173,23.8431778,19.8939495,23.761816z
		 M18.5616035,33.134819c-0.0471439-0.2580452-0.5702782-0.3768387-0.3103027-0.6842728
		c0.4361782-0.5158138-0.0502033-0.965189-0.0277901-1.4464207c0.0130138-0.2794266-0.2325878-0.430027-0.5507488-0.3700695
		c-0.2885818,0.0543823-0.2725677,0.2672043-0.272337,0.473959c0.0005207,0.4652691-0.0296097,0.9342175,0.0174026,1.395071
		C17.531477,33.6171227,17.5464077,33.6156006,18.5616035,33.134819z M20.5545082,24.9668255
		c-0.0515938-0.1145763-0.0967236-0.2498016-0.261034-0.2069454c-0.1030941,0.026886-0.1919079,0.1139336-0.1255589,0.2222958
		c0.0456066,0.0744858,0.1491337,0.136219,0.2374744,0.1560974C20.5164242,25.1632557,20.5943546,25.1024456,20.5545082,24.9668255z
		"/>
	<path style="fill:#455A9A;" d="M36.3005333,8.6113119c0.4552956,0.2128067,0.3651352,0.7089405,0.3684692,1.0184565
		c0.0127983,1.1877232,0.5473099,2.2389936,0.7494354,3.3704901c-0.0014381,0.1057167-0.0028801,0.2114391-0.0043182,0.3171539
		c-0.053833,0.1101503,0.0229073,0.1320057,0.1026688,0.1518202l-0.0004349-0.0003719
		c0.0738449,0.3739481,0.0442314,0.777298,0.311451,1.0963211c-0.0004883,0.052618,0.0118752,0.1020203,0.0370827,0.1482077
		c0.3026352,1.1986666,0.3994217,2.4456282,0.8470764,3.6102667c0.024807,0.0965481,0.049614,0.1930943,0.0744171,0.2896442
		c0.038662,0.351675,0.0973129,0.6980724,0.268055,1.0148621c0.0182762,0.1313915,0.0365486,0.2627831,0.0548134,0.3941669
		c0.0335808,0.07827,0.0671654,0.1565495,0.1007538,0.234827c0.0068245,0.2427235,0.0078812,0.4867306,0.1554337,0.6981316
		c0.102478,0.860878,0.3472633,1.6874981,0.6044197,2.5111408c0.0233612,0.0977993,0.0467148,0.1955967,0.070076,0.2933941
		c0.416317,2.1045952,0.9045601,4.1922321,1.4760971,6.2602272c-0.0028496,0.0887451-0.005703,0.1774902-0.0084152,0.2662792
		c-0.1044273,0.0944424-0.0585365,0.2100048-0.0450172,0.3210564c-0.5851173-0.264677-0.6055946-0.8070946-0.6682968-1.3365726
		c-0.09515-0.8035221-0.3158798-1.5676575-0.7631683-2.2534447c-0.0025406-0.2006817-0.0050812-0.4013672-0.0077209-0.6020889
		c0.2330856-0.2423,0.0318184-0.2825756-0.1536026-0.3302174c-0.0034637-0.0982151-0.0069313-0.1964264-0.0104103-0.2946701
		c0.1162224-0.0841713,0.1773376-0.2001839,0.1231003-0.3349094c-0.3673363-0.9125252-0.4361687-1.8977928-0.6958694-2.8348751
		c-0.5428391-1.9587097-1.1520691-3.8996029-1.6651306-5.8657932c-0.3947716-1.5128584-0.6920929-3.0515413-1.0139008-4.5827036
		c-0.0638542-0.3037977-0.1204872-0.5605297-0.4904671-0.5817604c-0.0040359-0.4635172-0.0080681-0.9270344-0.0119858-1.3906412
		c-0.0061836-0.4127264,0.0698166-0.8313704-0.0681381-1.2347765C35.9482765,8.7054672,36.0996246,8.6446819,36.3005333,8.6113119z"
		/>
	<path style="fill:#CFB98B;" d="M27.0651779,42.0099525c-0.1721725-0.2190628-0.4228554-0.1165581-0.6389675-0.1579094
		c-0.4382019-0.0838509-0.8473377-0.2088699-0.9212418-0.7456779c0.139782-0.101944,0.1661587-0.2467613,0.168581-0.4083595
		c0.0227928-1.5216484,0.4319935-2.9507217,1.0438938-4.330677c0.0336609,0.0233154,0.0670586,0.0470123,0.1001892,0.0710793
		c0.0347786,0.4936371-0.3517399,0.9001122-0.2895412,1.3994217c-0.138073,0.6024895-0.5830536,1.1519279-0.3153877,1.8245544
		c-0.2573433,0.6053848-0.415266,1.1830788,0.413805,1.4860954c0.2768459,0.1185532,0.7263451,0.4059753,0.8029194,0.327858
		c0.5288048-0.5394974,1.2402916-0.154129,1.7974682-0.4330521c0.0179844,0.4035072,0.2460918,0.4978714,0.6208248,0.4925156
		c1.3731213-0.0196266,2.7430649-0.1032562,4.0937119-0.3362923c0.5979271-0.1031647,1.1504288-0.4768028,1.7483101-0.5717125
		c1.9456062-0.3088608,3.795536-0.9986191,5.9291878-1.3234253c-0.7247772-0.2367439-1.2636032-0.334816-1.8005066-0.199913
		c-0.6193619,0.1556168-1.2347832,0.1152534-1.855732,0.077755c1.443676-0.3840866,2.9172363-0.331852,4.3893585-0.300621
		c0.2136574-0.0028572,0.4273186-0.0057144,0.6409798-0.0085716c0.0868835,0.0595093,0.1737747,0.1190186,0.2606659,0.1785278
		c-0.002285,0.1735573,0.0689888,0.3756371-0.1772118,0.4543304c-0.0632095,0.0202026-0.1983109,0.0378342-0.1669197-0.01717
		c0.3054962-0.5351639-0.1213264-0.2570763-0.2533569-0.2183838c-0.3685417,0.1079903-0.7277641,0.2477531-1.0906715,0.3749771
		c-0.1013451,0.0218735-0.2026939,0.0437469-0.3040085,0.0654602c-0.7794228,0.1944084-1.558876,0.3889885-2.3383293,0.5835686
		c-0.1074181,0.0135727-0.2148361,0.0271454-0.3221626,0.0405807c-0.0643883,0.0317612-0.1288719,0.0636597-0.1933517,0.0955582
		c-0.1402664,0.0199432-0.280529,0.0398903-0.4207764,0.0597115c-0.6442299,0.0595703-1.261219,0.2370338-1.8789177,0.4193497
		c-1.5331802,0.4525146-3.1037445,0.7167015-4.6887226,0.9033661c-0.0985966,0.0111275-0.1971951,0.0222626-0.2957878,0.0334358
		c-0.3716202,0.0192413-0.7560711-0.0757103-1.1073551,0.1244774c-0.1506481,0.015255-0.3012981,0.0305023-0.4519348,0.0456963
		C28.7307167,42.1985779,27.8979816,42.0907669,27.0651779,42.0099525z"/>
	<path style="fill:#545558;" d="M18.2323475,25.7121964c0.1960316-0.1540966,0.5211048-0.2002945,0.5435009-0.5046768
		c0.0640621-0.8705883,0.531744-0.4621067,0.7732029-0.1936131c0.25667,0.2854061,0.4271812,0.6932125,0.5115738,1.0749264
		c0.0720615,0.3259392-0.4138012,0.0492172-0.490572,0.3066463c0.5156937,0.3809052,0.5283375,0.9090729-0.039856,1.1971245
		c-0.6201496,0.3143902-0.5896702,0.9361992-0.6352654,1.4093571c-0.0693359,0.7195396-0.7188835,1.4669876-1.4297199,1.2985249
		c-0.2508526-0.0594501-0.2767811,0.2087212-0.4587269,0.1830196c-0.2368832-0.8238583,0.1658363-1.5410347,0.4145355-2.2730637
		c0.061842-0.1820297,0.1386585-0.3718281,0.202446-0.5605068c0.6765499-0.4264259,0.5122929-1.1307888,0.5811501-1.7580929
		l0.0019817,0.0270443c0.0436134-0.0145111,0.0864716-0.0292454,0.1293278-0.0439796
		c-0.03232-0.0506058-0.06464-0.1012096-0.0969601-0.1518154L18.2323475,25.7121964z"/>
	<path style="fill:#CFB98B;" d="M24.4225559,10.8176327c0.1458473-0.0163374,0.3855705-0.0935364,0.4063263,0.0631657
		c0.0830936,0.6273069,0.586647,0.5832977,1.0010471,0.6937237c0.0211315,0.4760208-0.1516495,0.9142065-0.2712765,1.361269
		c-0.1102695,0.4120836,0.0341988,0.6655312,0.4327278,0.7891598c0.1326294,0.5776854,0.4402924,1.1273861,0.2800922,1.7518892
		c-0.0466137,0.0095806-0.0916595,0.0240355-0.1351433,0.0431309c-0.3409119-0.0007534-0.458847,0.310627-0.6760826,0.4831018
		c-0.2672043-0.7127838-0.5471249-0.2288008-0.8242416-0.0087585c-0.1666718-0.788331-0.431427-1.5688105-0.1913109-2.3896875
		c0.3245449-0.7814541-0.1514244-1.5455008-0.0505466-2.3221064C24.403616,11.1275587,24.4130859,10.9725952,24.4225559,10.8176327z
		"/>
	<path style="fill:#545558;" d="M21.6492863,23.1287079c-0.2634182-0.0529003-0.5268345-0.1057987-0.7904739-0.1586609
		c0.0257225-0.8198357-0.7071037-0.5542526-1.1029186-0.7707806c-0.1289825,0.0026398-0.1814251-0.0760193-0.2011738-0.1894054
		c0.1600094-0.6272621-0.1981697-1.2171516-0.1324768-1.8376007c0.3193207,0.0128269,0.4853916-0.6336861,0.8272076-0.2747059
		c0.2896843,0.3042336,0.6166134,0.144825,0.9092121,0.2549171c0.4074326,0.1532993,0.8478107,0.1869526,1.4389057,0.2067871
		c-0.2279472,0.1606426-0.2874775,0.2385902-0.3503132,0.241354c-0.691227,0.0304089-0.82514,0.2905273-0.3703098,0.8334846
		c0.0553169,0.0660362,0.0312691,0.1985531,0.0440006,0.3002586l0.002739-0.0027313
		c-0.3930054,0.1198158-0.4218216,0.1590538-0.1979847,0.3234329c0.207552,0.15242,0.1681423,0.3513565,0.2265911,0.5347004
		C22.0254002,22.8672962,21.7370071,22.9415913,21.6492863,23.1287079z"/>
	<path style="fill:#1C1916;" d="M17.2373161,35.7668381c0.3301468,0.2869072,0.5189304,0.6682854,1.1215954,0.6677475
		c0.6808872-0.0006027,0.5956402-0.5642967,0.8986702-0.8194084c0.0625515,0.0416565,0.1250935,0.0832977,0.1876373,0.1249352
		c-0.1701412,0.6352196-0.2502155,1.3004417-0.6224098,1.8682671c-0.482214-0.2629967-0.9646549-0.3140488-1.4965515-0.1100922
		c-0.5910358,0.226635-1.2144508,0.2050934-1.8251171,0.0539131c-0.1548347-0.0383339-0.3962221-0.0359192-0.3771791-0.2969818
		c0.0142365-0.195179,0.1369991-0.3793449,0.3279114-0.3790245C16.2868004,36.8775978,16.7243404,36.2669563,17.2373161,35.7668381z
		 M17.2576733,36.4410591c-0.0408268,0.0240898-0.1027241,0.0400734-0.1120644,0.0716209
		c-0.0103416,0.0349274,0.0164948,0.1092567,0.046299,0.1221504c0.0779133,0.0337181,0.1441708-0.0052071,0.1470394-0.0930367
		C17.3399925,36.5097961,17.2874889,36.4760513,17.2576733,36.4410591z"/>
	<path style="fill:#CFB98B;" d="M19.2315273,12.8498812c0.0002174,0.1783962,0.0233841,0.3603067-0.0032959,0.534586
		c-0.1207638,0.7888546-0.3433208,0.9674015-1.0466976,0.6918612c-0.3333988-0.1306038-0.60952-0.297471-0.9909096-0.2117853
		c-0.1001167,0.0224924-0.3494034-0.0505915-0.3919601-0.2936888c-0.0526142-0.3005438,0.0075188-0.5357065,0.2717934-0.7032623
		c0.0578041-0.0062599,0.1155148-0.0125971,0.1732311-0.0189714c0.6241951,0.1901121,1.1988678-0.1546507,1.804306-0.1670713
		C19.1091709,12.7376604,19.1703491,12.7937708,19.2315273,12.8498812z"/>
	<path style="fill:#1C1916;" d="M20.0752354,9.2083864c0.2450962,0.0034609,0.4901924,0.0069208,0.7352848,0.0103817
		c0.2588825,0.1347017,0.5177727,0.2694035,0.776659,0.4041061c0.0823498,0.1479406,0.1647015,0.2958813,0.2470512,0.4438219
		c-0.0182762,0.1039972-0.0365524,0.2079945-0.0547962,0.3119364c-0.6083221-0.0598278-1.2157879-0.1329422-1.8254166-0.1736279
		c-0.2955933-0.0197268-0.4621544,0.1774912-0.5372047,0.4524088c-0.1262989,0.0660229-0.1398582,0.1882763-0.1545887,0.3099461
		c-0.0993099,0.0020351-0.1986198,0.0040693-0.2979279,0.0061045c-0.0354519-0.0587912-0.0709019-0.1175823-0.1063538-0.1763744
		l0.0599098,0.034029l0.0687523-0.0044899c0.1435871-0.0519743,0.1571045-0.1080332,0.0053177-0.1692829
		C18.8811436,9.821557,19.3661861,9.4312334,20.0752354,9.2083864z"/>
	<path style="fill:#3B3D42;" d="M18.9642963,10.973464c0.099308-0.0020351,0.1986179-0.0040693,0.2980042-0.0060778
		c0.51157,0.0485945,0.0167656,0.7122526,0.4822826,0.7889223c0.0508366,0.4955864,0.3531837,0.5495043,0.754488,0.4296455
		c0.1030464,0.3593302-0.1261539,0.6766777-0.1292171,1.0225992c-0.1044598,0.0845346-0.2089214,0.1690683-0.3134117,0.253624
		c-0.1142559-0.0078306-0.2284832-0.0156813-0.3427105-0.0235319c0.0466595-0.3660994-0.0692177-0.5990877-0.482193-0.5887709
		c-0.0611897-0.0561037-0.1223679-0.1122141-0.1835747-0.1683197c-0.2933216-0.4166527-0.3733368-0.8904085-0.3711414-1.3861752
		c0.0433273-0.0527086,0.0866547-0.1054163,0.1299763-0.1581249c0.0931683-0.02635,0.1323833-0.0752506,0.0696774-0.1667423
		C18.9067192,10.9427032,18.9359913,10.9436874,18.9642963,10.973464z"/>
	<path style="fill:#455A9A;" d="M42.6577454,33.8985558c0.00214,0.1261139,0.0042801,0.2522278,0.0063858,0.3779259
		c-0.0000381-0.0004082,0.0043831,0.0238228,0.0043831,0.0238228c0.039772,0.1342583,0.0795441,0.2685165,0.1193504,0.4029312
		c-0.1521988,0.0955124-0.3205719,0.4991035-0.4404221-0.0229378c-0.2476349-0.928154-0.4955902-1.8562012-0.7427406-2.7844658
		c-0.0366287-0.1375599,0.0044098-0.2492886,0.1206665-0.33255c0.1919212,0.3667965,0.3838463,0.733593,0.5757256,1.1003952
		c0.0823021,0.3093719,0.1646423,0.6187439,0.2469711,0.9281044c0.0315857,0.0745125,0.0631752,0.149025,0.0947647,0.2235374
		C42.6164703,33.8486786,42.6214447,33.8764267,42.6577454,33.8985558z"/>
	<path style="fill:#1C1916;" d="M19.7558937,22.1992664c0.3958149,0.2165279,1.1286411-0.0490551,1.1029186,0.7707806
		c-0.4716816,0.2731018-0.7078457-0.3264256-1.1128922-0.3007431
		C19.7847576,22.5133705,19.8490734,22.3579884,19.7558937,22.1992664z"/>
	<path style="fill:#3B3D42;" d="M18.2046165,25.8918419c-0.0688572,0.6273041,0.0953999,1.3316669-0.5811501,1.7580929
		C17.6309891,27.0023556,17.829298,26.4178429,18.2046165,25.8918419z"/>
	<path style="fill:#3B3D42;" d="M17.72052,18.3002262c0.3587074,0.0705223,0.3450756,0.3607998,0.2611618,0.5824757
		c-0.0512543,0.1354008-0.1472073-0.1339798-0.268507-0.1120415C17.7156239,18.6138496,17.7180729,18.457037,17.72052,18.3002262z"
		/>
	<path style="fill:#F8F9F9;" d="M20.2129154,40.4785347c0.1277447-0.0210114,0.2389832-0.0019073,0.3055725,0.1257133
		C20.416626,40.5623436,20.3147717,40.5204391,20.2129154,40.4785347z"/>
	<path style="fill:#F8F9F9;" d="M39.2100029,20.2571564c-0.0335884-0.0782776-0.067173-0.1565571-0.1007538-0.234827
		C39.1428375,20.1006107,39.1764221,20.1788845,39.2100029,20.2571564z"/>
	<path style="fill:#F8F9F9;" d="M38.4076843,40.4304695c0.0644798-0.0318985,0.1289635-0.063797,0.1933517-0.0955582
		C38.5365257,40.3668556,38.4721069,40.3986626,38.4076843,40.4304695z"/>
	<path style="fill:#3B3D42;" d="M18.238966,25.7230911c0.03232,0.0506058,0.06464,0.1012096,0.0969601,0.1518154
		c-0.0428562,0.0147343-0.0857143,0.0294685-0.1293278,0.0439796C18.2168827,25.8534718,18.2279243,25.7882824,18.238966,25.7230911
		z"/>
	<path style="fill:#4E7BF0;" d="M26.6265907,41.1481972c-0.8291531-0.3027344-0.6712303-0.8804283-0.4139938-1.485733
		l-0.0008011,0.009594c0.491909,0.1992188,1.906559-0.5624619,2.0563259-1.2136841
		c0.1047878-0.4556541,0.4117584-0.6747704,0.6738186-0.969326c0.348999-0.3459969,0.697998-0.6919937,1.0470009-1.0379868
		c0.0794735,0.1466713,0.1589508,0.2933464,0.3082104,0.5688019c0.0688076-0.5261536,0.1185799-0.9067497,0.168354-1.2873497
		l0.0182762,0.0363693c0,0-0.0233746-0.033329-0.0230694-0.0330887c0.9859295-0.2400513,1.0151577-1.1277924,1.264185-1.8667336
		c0.0037575-0.093586,0.007515-0.1871719,0.0112724-0.2807541c0.4003811-0.0351906,0.5599232-0.2990265,0.667757-0.6508827
		c0.1658936-0.5413094,0.3321342-1.0869389,0.5580902-1.6046085c0.7529602-1.7250805,0.8521118-3.5416832,0.8108902-5.3828545
		c-0.0167427-0.7480068-0.7819481-0.6063805-1.1476135-0.9476509c-0.2772064-0.2587128-0.2838936,0.2519493-0.4860039,0.3066578
		c-0.7297153,0.1975193-0.8225842,1.083971-1.5164127,1.3742752c-0.3452911,0.144474-0.4724426,0.5069656-0.2400055,1.0353546
		c0.3196011,0.7265263,0.6984119,1.5809975-0.3884163,2.2188416c-0.4149208,0.2435074-0.5386391,0.9159203-0.4092102,1.4907513
		c-0.0058613,0.1991749-0.0117264,0.3983517-0.0175896,0.5975246c-0.1983929,0.1220589-0.1564236,0.3115234-0.1385994,0.4942131
		c-0.0532722,0.0477066-0.1065426,0.0954094-0.159811,0.143116c-0.2628326,0.0444069-0.5969715-0.4184952-0.7858276,0.0797997
		c-0.1260242,0.3325157-0.3655872,0.6769257,0.0870838,1.0192146c0.3528156,0.2667885-0.1317558,0.3998222-0.1980381,0.6077538
		c-0.0787334-0.0669212-0.2090931-0.3669853-0.2054234,0.0227966c0.0046196,0.4899445-0.314888,0.4452629-0.6309433,0.4358788
		c0.1511116-0.4384193,0.422575-0.874176,0.4323387-1.3157196c0.040493-1.8312931,0.7894382-3.5060825,1.1045284-5.2770729
		c0.2266178-1.2737293,0.3007011-2.5907173,0.7676525-3.8203964c0.0510864-0.1345291,0.0000134-0.2530861-0.1101894-0.3445034
		c0.0061321-0.1053734,0.0122681-0.2107449,0.0184002-0.3161182c0.0368347-0.0527649,0.0736656-0.105526,0.1105003-0.158289
		c0.0114384-0.1043205,0.0228767-0.2086411,0.0343132-0.3129616c0.167738-0.1166382,0.1358204-0.2909126,0.1319504-0.4570885
		c0.2124348-1.0311604,0.3418694-2.0889206,0.6613598-3.0857697c0.3011055-0.9394836,0.0958195-1.9640388,0.5769272-2.8532524
		c0.4337387-0.0065327,0.4671574-0.2977638,0.4897633-0.6385136c0.053091-0.8002892,0.2394638-0.917881,0.982954-0.6650171
		c0.3459778,0.1176662,0.6242256,0.0802574,0.7149734-0.331172c0.0551338-0.2499866,0.0572701-0.6065836,0.3498268-0.6111116
		c0.3218575-0.004982,0.6951141,0.161273,0.7999535,0.5156679c0.15205,0.5139875,0.4649582,0.9184723,0.7656631,1.3344021
		c0.3663063,0.5066605,0.4551277,1.059557,0.4473915,1.6771297c-0.0209961,1.6762371,0.6266518,3.1795616,1.1757278,4.7327766
		c0.4177742,1.1817875,1.0859642,2.3607407,0.8524208,3.7240467c-0.0987511,0.5764446-0.0210114,1.1336613,0.5098686,1.5330429
		c0.4383125,0.3297482,0.3080826,0.8276825,0.2110596,1.2243748c-0.1951294,0.7978363-0.2440643,1.6182594-0.4828644,2.4168816
		c-0.1558533,0.5212212,0.1032028,1.1646996,0.9101563,1.4549637c-0.7902489,0.5121269-1.4184875,1.0820656-2.3603668,0.8328438
		c-0.2782745-0.0736313-0.524044,0.0142937-0.7371025,0.1601982c-0.7204514,0.4933739-1.4712448,0.9667625-1.9134178,1.7544746
		c-0.1553078,0.2766647-0.3767357,0.4303932-0.6413002,0.5280571c-0.8338699,0.3078346-1.6132412,0.797821-2.2315884,1.3551025
		c-0.4849815,0.4370918-1.1954021,0.6605301-1.5035038,1.3533592c-0.0976925,0.2196846-0.6025238,0.3801804-0.8790779,0.4604034
		c-0.7217045,0.2093506-0.4768066,0.5146103-0.2476101,0.8949928
		C27.8871899,40.8696671,27.2777061,41.0784683,26.6265907,41.1481972z M29.3035278,38.7542305
		c-0.0713234-0.1537399-0.1825619-0.2837372-0.3350658-0.2746544c-0.1987514,0.0118446-0.1805458,0.2045937-0.1825371,0.3486786
		c-0.0015354,0.1111374-0.0248127,0.301136,0.1564121,0.2415504C29.0830421,39.0235405,29.2728863,38.9537735,29.3035278,38.7542305
		z"/>
	<path style="fill:#3C5FC9;" d="M36.3005333,8.6113119c-0.2009087,0.03337-0.3522568,0.0941553-0.2635269,0.3536205
		c0.1379547,0.4034061,0.0619545,0.8220501,0.0681419,1.2347765c-1.2784081,0.0084686-2.143837-0.5187206-2.3982315-1.9122972
		c-0.0696182,0.679306-0.3591232,1.1167803-0.9822044,1.2840357c-0.0003929,0.0000048-0.0526962-0.0051918-0.0526962-0.0051918
		c0.3389435-1.8872085,0.7455254-3.7586675,1.3014679-5.5953941c0.5550537-0.3229313,0.8331718-0.0878363,1.0542755,0.4509604
		c0.2261887,0.5511913,0.414341,1.0865879,0.4823494,1.6934381c0.0934753,0.8340769,0.3722038,1.6389546,0.785881,2.383707
		C36.2877617,8.536809,36.2892761,8.5742579,36.3005333,8.6113119z"/>
	<path style="fill:#3C5FC9;" d="M36.1171303,11.5903502c0.3699799,0.0212307,0.4266129,0.2779627,0.4904671,0.5817604
		c0.3218079,1.5311623,0.6191292,3.0698452,1.0139008,4.5827036c0.5130615,1.9661903,1.1222916,3.9070835,1.6651306,5.8657932
		c0.2597008,0.9370823,0.3285332,1.9223499,0.6958694,2.8348751c0.0542374,0.1347256-0.0068779,0.2507381-0.1231003,0.3349094
		c-0.607666-0.6697235-0.8271065-1.4989357-0.9308395-2.361702c-0.0643539-0.5352554-0.6136208-0.858799-0.5499115-1.4674797
		c0.0263062-0.2513599-0.0650673-0.5543938-0.0836067-0.8377056c-0.0219269-0.3350163,0.2023468-0.8037891-0.423336-0.8440285
		c-0.0357361-0.0022984-0.100975-0.0800934-0.0954056-0.1131248c0.1720963-1.0202808-0.8071136-1.7315502-0.7266464-2.7274284
		c0.0707626-0.8757801-0.1131935-1.6627522-0.6383667-2.4091921c-0.2653694-0.3771801-0.2979126-0.9205265-0.2962151-1.4159679
		C36.1173859,12.9392967,36.1165924,12.264822,36.1171303,11.5903502z"/>
	<path style="fill:#CFB98B;" d="M31.3025799,15.6552944c0.0752907,0.337739-0.2609386,0.6063251-0.1593628,0.9483433
		c-0.6191177,2.0315113-0.9180069,4.1289482-1.2765293,6.2141533c-0.2391663,0.3919144-0.3048916,0.821352-0.2751732,1.2714539
		l-0.0077667,0.0086002c-0.225214,0.2151337-0.1306953,0.4973125-0.1580887,0.7539272
		c-0.3637867,1.6824093-0.7058563,3.3698883-1.0967636,5.0459728c-0.5082512,2.1792049-0.8647652,4.393549-1.5112629,6.5406628
		c-0.0331306-0.0240669-0.0665283-0.0477638-0.099968-0.0709915c-0.0312519-0.2787704-0.1538048-0.5851746-0.0791798-0.8319511
		c0.4331303-1.4323425,0.6956406-2.9028091,1.0462341-4.3529129c0.2429314-1.0047989,0.4066429-2.0241947,0.7464828-3.0187626
		c0.377758-1.105526,0.3843307-2.3210297,0.6504536-3.4784279c0.5370922-2.3359108,0.9162369-4.708725,1.4769592-7.0382957
		c0.1958313-0.8135986,0.0391045-1.7172422,0.5759258-2.4476118C31.1898842,15.3516474,31.0833111,15.5635309,31.3025799,15.6552944
		z"/>
	<path style="fill:#3C5FC9;" d="M41.7253685,31.563282c-0.1162567,0.0832615-0.1572952,0.1949902-0.1206665,0.33255
		c0.2471504,0.9282646,0.4951057,1.8563118,0.7427406,2.7844658c-0.4282951,0.0621605-1.3507576-0.5550499-1.3653183-1.0207176
		c-0.0182915-0.5851212-0.3140717-1.086998-0.3609581-1.6576958c-0.0253868-0.3090038-0.1220779-0.5606556,0.1518211-0.8400383
		c0.3679199-0.3752918-0.0653839-0.8195419-0.206562-1.0204372c-0.6906433-0.9827995-0.3031044-2.0989037-0.5354691-3.1238594
		c0.447464,0.685606,0.6681938,1.4497414,0.7633438,2.2532635c0.0627022,0.5294781,0.0831795,1.0718956,0.6682968,1.3365726
		C41.7081375,30.8825684,41.7631874,31.2101612,41.7253685,31.563282z"/>
	<path style="fill:#3C5FC9;" d="M34.0987854,39.053894c0.1003418-0.2404099,0.1976662-0.4359818,0.5225754-0.4855003
		c1.069725-0.1630249,1.8806038-0.6329002,2.0439568-1.839798c0.0340843-0.2518044,0.1082191-0.72258,0.5670891-0.2952919
		c0.0665588,0.2690811-0.4468269,0.4358215-0.1484756,0.7276459c0.1921425,0.1879387,0.253952-0.147438,0.4097977-0.1577225
		c0.2308502,0.0415421,0.5904846-0.0403404,0.273777,0.4120255c-0.1791611,0.2559052-0.2004242,0.6371498,0.0490112,0.8587761
		c0.3297768,0.2930069,0.4748497-0.1338081,0.6736259-0.283844c0.2766266-0.2087898,0.414547-0.1734695,0.4294167,0.1831665
		c0.0075111,0.1800575,0.0049782,0.3605347,0.0069542,0.5410194c-1.1619987-0.054615-2.2672615,0.4785309-3.4380608,0.3317223
		c-0.1673431,0.0028687-0.3450775-0.0277443-0.460701,0.1424713c-0.1553497,0.0024223-0.3106995,0.0048485-0.4660492,0.0072708
		c-0.0780907-0.1340103-0.2054367-0.15205-0.3431282-0.1457291C34.1787186,39.05373,34.1387863,39.0549927,34.0987854,39.053894z"/>
	<path style="fill:#3C5FC9;" d="M42.9930305,38.8730202c-0.2136612,0.0028572-0.4273224,0.0057144-0.6409607,0.0085945
		c-0.0550194-0.3820305-0.3552818-0.3067245-0.5983353-0.3071175c-0.8443794-0.001358-1.6915321-0.0444717-2.527504,0.1263428
		c-0.0610847-0.5971107,0.286293-0.9269295,0.8062057-0.8757706c0.5324478,0.0523949,0.9858513-0.2426567,1.5213509-0.1834145
		c0.2287521,0.0253105,0.8314667-0.1269302,0.5340118-0.7414093c-0.0901718-0.1862946-0.1539116-0.4859009,0.1231689-0.6092377
		c0.240551-0.1070786,0.3845215,0.0961227,0.4651184,0.2909851c0.1166344,0.2820168,0.4588852,0.2167358,0.6119041,0.4303703
		C42.8704529,37.5820084,42.7778625,38.2031174,42.9930305,38.8730202z"/>
	<path style="fill:#455A9A;" d="M34.0987854,39.053894c0.0400009,0.0010986,0.0799332-0.000164,0.1200714-0.0038261
		c0.0800591,0.1294022,0.2038574,0.1554337,0.3428459,0.1457672c0.1553497-0.0024223,0.3106995-0.0048485,0.4659691-0.0071526
		c0.0038719,0.0530777,0.0078239,0.1060371,0.011776,0.1589928c-0.9743767,0.3873482-2.0806999,0.2478333-3.024456,0.7574425
		c-0.2917271,0.0608635-0.5834522,0.121727-0.8751774,0.1825943c-0.3608627-0.0267372-0.7110367-0.0202789-0.9574509,0.3083534
		L30.1847,40.5943451c-0.42803-0.0749054-0.8096085-0.0556793-0.9434433,0.4655762l-0.0142899-0.0167732
		c-0.5572472,0.2790604-1.268734-0.106308-1.7975388,0.4331894c-0.0765743,0.0781174-0.5260735-0.2093048-0.8029194-0.327858
		c0.6511974-0.0700111,1.2606812-0.2788124,1.850296-0.5542603c0.6460915,0.1088715,1.1256294-0.329113,1.6760483-0.5242691
		c1.0309792-0.3655434,2.1330128-0.3785896,3.1773472-0.6839561C33.6116753,39.303688,33.8488998,39.1784286,34.0987854,39.053894z"
		/>
	<path style="fill:#455A9A;" d="M39.2262306,38.70084c0.8359718-0.1708145,1.6831245-0.1277008,2.527504-0.1263428
		c0.2430534,0.0003929,0.5433159-0.074913,0.5983353,0.3071175c-1.4721413-0.0312538-2.9457016-0.0834885-4.3893204,0.3005714
		l0.0210991,0.005722c-0.7332954-0.0268097-1.4667053-0.0552406-2.1836891,0.1521301
		c-0.1042786-0.01408-0.2085609-0.0281639-0.3128433-0.042244c0.0003662-0.0838966,0.0007324-0.1677895,0.0011024-0.2516861
		c1.1708336,0.1467934,2.2760963-0.3863525,3.4380951-0.3317375C39.0264435,38.7097282,39.1263351,38.7052841,39.2262306,38.70084z"
		/>
	<path style="fill:#455A9A;" d="M31.3025799,15.6552944c-0.2192688-0.0917635-0.1126957-0.303647-0.1680393-0.4559803
		c0.0557957-0.1225758,0.1115875-0.2450104,0.1673775-0.3674431c0.0634003-0.2333002,0.1267986-0.4666014,0.1901989-0.6999016
		c0.1734409-0.4060144,0.2370453-0.8332958,0.2461128-1.2711363c0.0640583-1.1335955,0.4526653-2.2001657,0.6814747-3.299736
		c0.0841026,0.0017195,0.1682091,0.0034389,0.2523117,0.0051584c0,0,0.0523033,0.0051966,0.0526962,0.0051918
		c-0.0110283,0.1038046-0.0224495,0.2076139-0.0339317,0.3113861c-0.3069267,0.363019-0.3163452,0.8021879-0.3182182,1.2432871
		c-0.3765278,1.3168859-0.5566521,2.6724195-0.782917,4.0184994C31.5533695,15.3604527,31.5056534,15.5449305,31.3025799,15.6552944
		z"/>
	<path style="fill:#455A9A;" d="M29.8666306,22.8177605c0.3585796-2.0851746,0.6574688-4.1826115,1.2765865-6.2141228
		c0.040329,0.0947399,0.0806808,0.1893444,0.1208458,0.2838135c-0.4812927,0.8890781-0.2760067,1.9136333-0.5771122,2.853117
		c-0.3194904,0.9968491-0.448925,2.0546093-0.6612835,3.0857334c-0.0448895,0.0001907-0.0894375,0.0046272-0.1335659,0.0132713
		L29.8666306,22.8177605z"/>
	<path style="fill:#455A9A;" d="M42.9930305,38.8730202c-0.215168-0.6699028-0.1225777-1.2910118,0.29496-1.8606567
		c0.3096313,0.2986488,0.5497017,0.627594,0.4753151,1.0931091c0.1483116,0.4863586-0.22612,0.691391-0.5094299,0.9458313
		C43.1668053,38.9920387,43.0799141,38.9325294,42.9930305,38.8730202z"/>
	<path style="fill:#3C5FC9;" d="M32.3725624,11.1261206c0.001873-0.4410992,0.0112915-0.8802681,0.3182182-1.2432871
		C32.8929901,10.3761988,33.0500221,10.8579779,32.3725624,11.1261206z"/>
	<path style="fill:#9DBFF9;" d="M37.4937286,37.0032272c-0.1558456,0.0102844-0.2176552,0.3456612-0.4097977,0.1577225
		c-0.2983513-0.2918243,0.2150345-0.4585648,0.1484756-0.7276459C37.5587158,36.513813,37.3304176,36.8482742,37.4937286,37.0032272
		z"/>
	<path style="fill:#3C5FC9;" d="M39.8698082,26.085062c0.185421,0.0476418,0.3866882,0.0879173,0.1536026,0.3302174
		C39.8827248,26.3469086,39.8595428,26.2237701,39.8698082,26.085062z"/>
	<path style="fill:#FBE933;" d="M31.301918,14.831871c-0.0557899,0.1224327-0.1115818,0.2448673-0.1673775,0.3674431
		c-0.5368214,0.7305098-0.3800945,1.6341534-0.5759258,2.447752c-0.5607224,2.3295708-0.939867,4.7023849-1.4769592,7.0382957
		c-0.2661228,1.1573982-0.2726955,2.3729019-0.6504536,3.4784279c-0.3398399,0.9945679-0.5035515,2.0139637-0.7464828,3.0187626
		c-0.3505936,1.4501038-0.6131039,2.9205704-1.0462341,4.3529129c-0.074625,0.2467766,0.0479279,0.5531807,0.0791798,0.8319511
		c-0.6121216,1.3798676-1.0213223,2.8089409-1.0441151,4.3305893c-0.0024223,0.1615982-0.0287991,0.3064156-0.168581,0.4083595
		c-0.1853046-0.1200066-0.3048992-0.2807312-0.3131142-0.5096893c-0.2028389-0.3094788-0.4057579-0.6190567-0.6087875-0.9286156
		c0.0701847-0.0333862,0.1529865-0.0528488,0.2085495-0.1026802c0.2114124-0.1896095,0.5498734,0.2758675,0.6722088-0.0949059
		c0.1053333-0.3192368-0.2942333-0.4518013-0.4122524-0.7024422c-0.0911045-0.1934738-0.4842358-0.3793831-0.2458382-0.5666161
		c0.5349731-0.4201698,0.2483406-1.1717224,0.9322491-1.6200562c-0.3203773,0-0.4485893-0.0210381-0.5673428,0.0035629
		c-0.5825787,0.1206818-1.0529213,0.2257652-0.9361248-0.7054482c0.1013031-0.8076782-0.1561565-1.6227379-0.1117725-2.4659119
		c0.0328236-0.623539,0.0971241-1.2662888,0.0777874-1.8828068c-0.0266075-0.8480263,0.7471428-1.6528454,0.1037922-2.5316315
		c-0.1199894-0.1639042,0.1364861-0.3492088,0.3655109-0.3974552c0.1561222-0.0328884,0.3797569,0.0746746,0.4438286-0.1958866
		c-0.1456547-0.1982555-0.6828976-0.0553741-0.4471893-0.5979671c0.6336594-1.4586678,1.2737103-2.9212379,1.4706116-4.5232143
		c0.0262623-0.2136879,0.2019672-0.2821045,0.3166676-0.4149113c0.3935642-0.4556904,0.5879459-1.0589352,0.3435268-1.5572186
		c-0.2558575-0.5215969-0.8975525-0.9310284,0.264534-1.0304585c0.1390171-0.0118942,0.1212559-0.2043056,0.1730423-0.3173904
		c0.4956036-1.0821934,1.0489864-2.1327305,1.8832645-2.9993553c0.2388306-0.2480946,0.237566-0.412674,0.0817623-0.7308731
		c-0.2031269-0.4148388-0.117239-0.8790817,0.4103565-1.0438156c0.3529949-0.11022,0.4430733-0.3143091,0.4089413-0.6358337
		C30.4332161,14.7098169,31.0536671,13.9094467,31.301918,14.831871z M25.5994911,38.2221603
		c-0.0430241-0.0186195-0.0860481-0.0372391-0.129076-0.0558586c-0.0184784,0.0431824-0.0608006,0.0956078-0.0486622,0.1269264
		c0.0118885,0.0306816,0.0792332,0.0398636,0.1222382,0.0584793C25.5625439,38.3086624,25.5810966,38.2656136,25.5994911,38.2221603
		z"/>
	<path style="fill:#EAC31D;" d="M24.5831776,39.668045c0.202919,0.3095741,0.405838,0.6191521,0.6086769,0.9286308
		c-0.4431648,0.0645523-0.7419701-0.1113434-1.0847149-0.4223404c-1.1377754-1.0323944-1.9043674-2.3568344-2.888092-3.5073204
		c-0.340168-0.397831-0.2723217-1.015934-0.7521725-1.398262c-0.1145401-0.091259-0.0369453-0.8515549,0.4313583-1.0324135
		c0.3717747-0.1435776,0.4630871-0.4437714,0.4919529-0.7270622c0.2169189-2.1290913,1.1097527-4.0950947,1.4669056-6.1883984
		c0.0259705-0.152235,0.1293201-0.3141403,0.098793-0.4494629c-0.2101879-0.9317036-0.0413437-1.7985172,0.4427891-2.5990105
		c0.2232933-0.3692036,0.0945683-0.6252308-0.1406727-0.8920593c0.0191116-0.0875626,0.0376282-0.1754341,0.0562477-0.263073
		c0.8138962-0.2821255,0.6133652-0.9702454,0.6290016-1.5718899c0.4330101-0.9009304,1.0927582-1.7102013,1.1215649-2.7745132
		c0.6449738-0.317028,0.7245388-0.9336414,0.7445831-1.5332699c0.0199451-0.5966454,0.0854454-1.1698112,0.3269348-1.7173958
		c0.0434799-0.0193291,0.0885258-0.0337839,0.1352539-0.0432301c0.4975204-0.0719471,0.5074024-0.4721136,0.4710255-0.8131609
		c-0.0697975-0.6543875,0.2436771-0.8071346,0.8027039-0.7270489c0.1050224,0.243804,0.4900818,0.1894073,0.5471935,0.5210724
		c-0.4281731,0.1616859-0.5462666,0.5401154-0.5425053,0.9261417c0.007616,0.781415-0.3174839,1.440486-0.6665764,2.0990973
		c-0.654438,1.2346802-1.1943779,2.5135746-1.4259834,3.8998032c-0.0929146,0.5561275-0.8656578,0.8580036-0.5574207,1.5499401
		c-0.8644447,0.1264324-0.4763374,0.8874416-0.7002296,1.3401737c-0.5310078,1.0737438-0.2807369,2.2819672-0.690979,3.3842812
		c-0.3178692,0.8541164-0.4169197,1.7915936-0.5934124,2.6958828c-0.1866341,0.9562511-0.4176064,1.9107819-0.5074902,2.8773804
		c-0.1383305,1.4875984,0.2042141,2.9031715,0.7576027,4.2956009C23.4965534,38.3591003,23.7638454,39.1810837,24.5831776,39.668045
		z"/>
	<path style="fill:#1C1916;" d="M21.4733295,28.1712112c-0.308075-0.3912983,0.1274529-0.7880516-0.0085449-1.1800842
		c-0.0685482-0.1975918,0.1633186-0.5626259-0.2999516-0.5417881c-0.0537567-0.5009918,0.3835545-0.2788811,0.7026253-0.4644871
		c-0.8090668-0.4211674-0.5967808-1.1257572-0.5606194-1.7879353c0.1863308,0.0761929,0.292757-0.0741997,0.4254742-0.150032
		c0.1653767,0.3366737-0.1127453,0.6351795-0.0826302,0.9602127c0.721632-0.1190529,0.2879181,0.6173534,0.5957947,0.8046589
		c-0.1216736,0.5067215-0.375803,0.9838066-0.3152351,1.5312195C21.9716492,27.7172146,21.7196426,27.9466648,21.4733295,28.1712112
		z"/>
	<path style="fill:#3B3D42;" d="M22.2454777,25.8117561c-0.3078766-0.1873055,0.1258373-0.9237118-0.5957947-0.8046589
		c-0.0301151-0.3250332,0.2480068-0.623539,0.0826321-0.9602146l-0.0016384,0.002409
		c0.4146042,0.0349102,0.3730621-0.2201996,0.310648-0.4885826l-0.0093327,0.0074272
		c0.205019,0.0921326,0.35462-0.0468788,0.5189571-0.1244259l-0.0016842,0.0012798
		c-0.0041695,0.1351471,0.0228939,0.2558441,0.1522732,0.3292217c0.0260735,0.0455036,0.0328484,0.0937176,0.0202541,0.1444283
		c-0.1636906,0.2383327-0.1968994,0.504015-0.1631489,0.7836246C22.4539051,25.0719967,22.4911213,25.4817982,22.2454777,25.8117561
		z"/>
	<path style="fill:#545558;" d="M23.3141441,23.1170425c-0.0185146,0.0878696-0.0370312,0.1757412-0.0561428,0.2633038
		c-0.1665745,0.0784531-0.332552,0.1572113-0.4987106,0.2361774c-0.0701313-0.0570412-0.1400776-0.1142883-0.2100258-0.1715336
		l0.0016842-0.0012722c-0.0174847-0.117239-0.0349655-0.2344856-0.0524464-0.3517323l0.0363369,0.0489941l-0.0384331-0.0477257
		c0.4451427-0.0009041,0.5410347-0.2105236,0.352623-0.5900478c0.1756058-0.1718941,0.2980976-0.4177914,0.5919819-0.4248962
		C23.3987236,22.4245548,23.356432,22.7707977,23.3141441,23.1170425z"/>
	<path style="fill:#545558;" d="M22.5586433,24.7022648c-0.0337505-0.2796097-0.0005417-0.5452919,0.1631489-0.7836246
		C23.2093296,24.2928886,22.5741253,24.4330177,22.5586433,24.7022648z"/>
	<path style="fill:#1C1916;" d="M22.5492649,23.4449902c0.0699482,0.0572453,0.1398945,0.1144924,0.2100277,0.1715336
		c-0.0191078,0.0523262-0.0383968,0.1048546-0.0577221,0.1575356
		C22.5721588,23.7008343,22.5450954,23.5801373,22.5492649,23.4449902z"/>
	<path style="fill:#3B3D42;" d="M21.9522915,22.5897579c-0.0584488-0.1833439-0.0190392-0.3822803-0.2265911-0.5347004
		c-0.2238369-0.1643791-0.1950207-0.2036171,0.197979-0.3234215c0.0213146,0.0127335,0.042635,0.0254536,0.0639572,0.0381756
		c-0.0222282-0.0118179-0.0444603-0.0236378-0.0666904-0.0354557c-0.0127316-0.1017056,0.0113163-0.2342224-0.0440006-0.3002586
		c-0.4548302-0.5429573-0.3209171-0.8030758,0.3703098-0.8334846c0.0628357-0.0027637,0.122366-0.0807114,0.3503132-0.241354
		c-0.591095-0.0198345-1.0314732-0.0534878-1.4389057-0.2067871c-0.2925987-0.1100922-0.6195278,0.0493164-0.9092121-0.2549171
		c-0.3418159-0.3589802-0.5078869,0.2875328-0.8272076,0.2747059c-0.1697044-0.7979755-0.3654556-1.591568-0.5001259-2.3953953
		c-0.0947742-0.5656834-0.2488689-1.1044312-0.5471992-1.5858479c-0.0791492-0.1277237-0.3463326-0.1349869-0.1775894-0.3855591
		c0.1282825-0.1904898,0.3218422-0.1899233,0.4851551-0.1289215c0.8070011,0.3014307,1.0059967-0.1717978,1.0813942-0.8197069
		c0.0933323,0.0037346,0.1869755,0.0073099,0.2806225,0.0108852c0.0489082,0.0717373,0.0999851,0.0939074,0.1558437,0.0068197
		c0.15938-0.0004025,0.3187599-0.0008049,0.4781399-0.0012064c-0.0005569,0.1557646-0.0011158,0.3115311-0.0016918,0.4672832
		c-0.4845963,0.1573734-0.0145607,0.4835825-0.161499,0.7006407c0.2499123-0.2011061,0.1308765-0.4652348,0.1573429-0.7046223
		c0.2085819-0.0779667,0.420002-0.0313139,0.293478,0.2094278c-0.2281036,0.4340267,0.0273724,0.8070059,0.043354,1.2065992
		c0.0078583,0.1965694,0.1085205,0.3323421,0.2705536,0.197998c0.676445-0.5608521,0.5735607,0.0553703,0.6494656,0.4106693
		c-0.1880207,0.0467072-0.4824371-0.1134377-0.5484314,0.1368256c-0.0665398,0.2523518,0.1717892,0.4035282,0.4059219,0.4730282
		c0.0962658,0.028574,0.20578,0.0125237,0.309267,0.0167713c0.429491,0.1117554,0.6276875,0.4198322,0.7942677,0.813694
		c0.18256,0.4316502,0.0251522,0.6139259-0.3569889,0.7268467c0.1912727-0.5040646-0.4031258-0.5781841-0.5049133-0.9220581
		c-0.1906338,0.1935596-0.4453545,0.3565617-0.5558548,0.5883274c-0.141655,0.2971039-0.0941315,0.6309814,0.3484554,0.6420746
		c0.2226334,0.005579,0.4477139-0.0863876,0.6716881-0.1342449c0.2578831,0.01474,0.4350014,0.1611347,0.2909222,0.393364
		c-0.2844582,0.4584961,0.2778969,1.0591373-0.3018074,1.4879265c-0.1133423,0.0838394,0.2499409,0.1152821,0.3976574,0.1615314
		C22.6032963,22.0628281,22.3795967,22.4381046,21.9522915,22.5897579z M20.5189133,18.4546356
		c0.0411453,0.1673927-0.4503822,0.5590496,0.1981773,0.4707088c0.4736824,0.1832809,0.5559292,0.0637474,0.5387611-1.039341
		C21.107069,18.462265,20.6508255,18.0806332,20.5189133,18.4546356z"/>
	<path style="fill:#545558;" d="M20.678484,14.8733282c-0.15938,0.0004015-0.3187599,0.0008039-0.4780674,0.0011749
		c-0.0472317-0.1105156-0.0989685-0.1188259-0.1559162-0.0067883c-0.093647-0.0035753-0.1872902-0.0071507-0.2806225-0.0108852
		c-0.0185261-0.4111433-0.0373669-0.8221283-0.055872-1.233058c0.105505-0.005868,0.2106743-0.011795,0.3158417-0.0177221
		c0.3877678-0.0045652,0.776083-0.0230465,1.1630592-0.0077152c0.1881714,0.0074539,0.4735222-0.0953722,0.5292835,0.1755495
		c0.0467319,0.2270546-0.1970863,0.3450575-0.3734283,0.4428072C21.0566711,14.3752785,20.7905636,14.5433712,20.678484,14.8733282z
		"/>
	<path style="fill:#3B3D42;" d="M18.1386986,16.5066929c-0.0534973,0.0428085-0.1103783,0.0883255-0.1672611,0.1338444
		c-0.0162582-0.042635-0.0583878-0.1020107-0.0437393-0.1246452c0.0381718-0.0589905,0.1012325-0.1018734,0.1543694-0.1511784
		C18.0989552,16.4070549,18.1158447,16.449398,18.1386986,16.5066929z"/>
	<path style="fill:#3B3D42;" d="M17.9456959,19.7489433c-0.0207691-0.0442772-0.0539513-0.0837479-0.0534859-0.1228161
		c0.0004654-0.0390816,0.0345688-0.0777607,0.0539284-0.1166153c0.0192642,0.0389538,0.0533009,0.0777836,0.0536385,0.1168995
		C18.0001106,19.6654453,17.9666843,19.704771,17.9456959,19.7489433z"/>
	<path style="fill:#455A9A;" d="M20.0238476,13.6060495c-0.1051674,0.0059271-0.2103367,0.0118542-0.3158417,0.0177221
		c-0.1425667-0.0666571-0.0982513-0.1268682,0.0058613-0.1850767c0.1140919,0.0078011,0.2283192,0.0156517,0.3425751,0.0234823
		C20.0678368,13.5151625,20.0569611,13.5631275,20.0238476,13.6060495z"/>
	<path style="fill:#545558;" d="M22.0899715,10.9609032c0.4220848,0.6491642,0.1319313,1.3521662,0.1535587,2.0315924
		c-0.5738964,0.5129452-1.2363873,0.2543516-1.8736782,0.2156048c0.0030651-0.3454685,0.2322655-0.662816,0.1291924-1.0220013
		l0.0071487,0.027936c0.0562477-0.0498981,0.1124973-0.0997953,0.1687431-0.1496944
		c0.1033859-0.1913404,0.2067719-0.382679,0.3170567-0.5867891c0.1054821,0.0706396,0.1780071,0.1018267,0.2264709,0.1549597
		c0.1392899,0.1527061,0.1932945,0.4846258,0.4874554,0.317934c0.1184464-0.0671196,0.204649-0.3177404,0.186739-0.4709616
		c-0.0314903-0.2693834-0.2710152-0.3244677-0.5216446-0.3367472c-0.3736115-0.0183039-0.7768135-0.2553244-1.0152206,0.3053484
		c-0.0551777,0.1297626-0.3413181,0.3323727-0.6112099,0.3082237c-0.465517-0.0766697,0.0292873-0.7403278-0.4822826-0.7889223
		c0.0146542-0.1216965,0.0282135-0.2439499,0.1545219-0.3100004c0.1031132,0.1340246,0.2362938,0.0219631,0.3442497,0.0434303
		C20.5308437,10.8538904,21.3662548,10.4214506,22.0899715,10.9609032z"/>
	<path style="fill:#545558;" d="M22.4928989,19.702589c-0.2239742,0.0478573-0.4490547,0.1398239-0.6716881,0.1342449
		c-0.4425869-0.0110931-0.4901104-0.3449707-0.3484554-0.6420746c0.1105003-0.2317657,0.365221-0.3947678,0.5558548-0.5883274
		c0.1017876,0.343874,0.6961861,0.4179935,0.5049133,0.9220581C22.5198994,19.5863781,22.5063992,19.6444836,22.4928989,19.702589z"
		/>
	<path style="fill:#3B3D42;" d="M22.5704651,17.8962421c-0.313015-0.4737339-0.4680138-0.9761372-0.462862-1.7251663
		C22.6598892,16.7923412,22.6134319,17.3488922,22.5704651,17.8962421z"/>
	<path style="fill:#545558;" d="M22.0962448,17.9879494c-0.103487-0.0042477-0.2130013,0.0118027-0.309267-0.0167713
		c-0.2341328-0.0695-0.4724617-0.2206764-0.4059219-0.4730282c0.0659943-0.2502632,0.3604107-0.0901184,0.5484314-0.1368256
		C22.1359768,17.5300446,22.0786533,17.768961,22.0962448,17.9879494z"/>
	<path style="fill:#CFB98B;" d="M24.6152153,16.2690792c0.0918388,0.2632179,0.1836777,0.5264359,0.2755413,0.7896652
		c-0.0877171-0.0015812-0.1754589-0.0031776-0.2631969-0.004776C24.0602627,16.8011971,24.4230309,16.5337944,24.6152153,16.2690792
		z"/>
	<path style="fill:#545558;" d="M18.5616035,33.134819c-1.0151958,0.4807816-1.0301266,0.4823036-1.1437759-0.6317329
		c-0.0470123-0.4608536-0.0168819-0.9298019-0.0174026-1.395071c-0.0002308-0.2067547-0.0162449-0.4195766,0.272337-0.473959
		c0.318161-0.0599575,0.5637627,0.0906429,0.5507488,0.3700695c-0.0224133,0.4812317,0.4639683,0.9306068,0.0277901,1.4464207
		C17.9913254,32.7579803,18.5144596,32.8767738,18.5616035,33.134819z"/>
	<path style="fill:#1C1916;" d="M19.1239433,30.2807713c0.3154774,0.4587631,0.1803684,0.9854813,0.1783752,1.4747601
		c-0.0037613,0.9214211-0.0605392,1.8416862,0.0825062,2.7580376c-0.4558887-0.1987114-0.4443874-0.6848373-0.3836174-0.9868393
		C19.2191772,32.443531,19.028265,31.3588047,19.1239433,30.2807713z"/>
	<path style="fill:#545558;" d="M19.8939342,23.7618351c0.394083,0.0813427,0.4554176,0.3472462,0.4164066,0.7574806
		c-0.4109516-0.1623116-0.8270588-0.2332954-0.4141426-0.7598228L19.8939342,23.7618351z"/>
	<path style="fill:#545558;" d="M19.8961983,23.7594929c-0.0258999-0.000185-0.0521069,0.0021553-0.0776482-0.0009594
		c-0.1922169-0.0234547-0.4421349,0.0719566-0.5140228-0.2133293c-0.025816-0.1024551,0.0363464-0.2133312,0.1601505-0.2208061
		c0.3025627-0.0182686,0.3983631,0.1811676,0.4292641,0.4374275L19.8961983,23.7594929z"/>
	<path style="fill:#545558;" d="M20.5546494,24.9670181c0.0397053,0.1354275-0.0382252,0.1962376-0.1492596,0.1712551
		c-0.0883408-0.0198784-0.1918678-0.0816116-0.2374744-0.1560974c-0.066349-0.1083622,0.0224648-0.1954098,0.1255589-0.2222958
		C20.4577847,24.7170238,20.5029144,24.8522491,20.5546494,24.9670181z"/>
	<path style="fill:#1C1916;" d="M21.1794224,26.4345074c-0.001564,0.2382545-0.1505756,0.3698273-0.3410511,0.4713917
		C20.827713,26.6588001,20.7993469,26.398901,21.1794224,26.4345074z"/>
	<path style="fill:#EAC31D;" d="M31.1415787,4.9913425c0,0,0.0287628-0.0091629,0.02911-0.0086346
		c0.3797874,0.1160955,0.6211472,0.0488186,0.5585213-0.4209948c0,0,0.0017681-0.0044432,0.0018559-0.0043302
		c0.4575672,0.0651355,0.8020344-0.1677885,1.1091442-0.4524498c0.5154152-0.4777322,0.6296806-0.2013805,0.6366234,0.3163562
		l-0.0033379,0.0116143c-0.1999931,0.0855756-0.1549225,0.2855592-0.2058105,0.4407344
		c-0.1687546,0.4550366-0.5231133,0.8747787-0.2682037,1.4103818l-0.0075455,0.0171609
		c-0.2606964,0.1235023-0.0602379,0.4800854-0.3082962,0.6099916c-0.0023041-0.102354-0.0046043-0.2047081-0.0069084-0.3070617
		c-0.0496635-0.0938005-0.0991325-0.087307-0.1484413,0.000289c-0.2937584,0.037828-0.8903503-0.010654-0.8083782,0.1937575
		c0.2427444,0.6053019-0.3695621,0.5912728-0.467392,0.8892798c-0.1211128,0.3689232-0.6432381,0.4253807-0.6507969,0.63165
		c-0.0247288,0.6747026-0.5319538,1.074213-0.7524929,1.6240578c-0.347435,0.8662205-0.9700451,1.6195984-1.0624752,2.5903521
		c0.0228653,0.2082138-0.3497925,0.3939228-0.0352058,0.6187353c-0.5963993,0.0004883-1.1944485,0.0280418-1.7886143-0.0081339
		c-0.3905735-0.0237799-0.6565418-0.15137-0.3359699-0.6426992c0.3494701-0.5356255,0.5319576-1.1631966,0.7874107-1.7490549
		c0.6429386-1.4745102,1.1347027-3.0394378,2.3963394-4.1821885C30.3142586,6.1140599,30.8122196,5.6133327,31.1415787,4.9913425z"
		/>
	<path style="fill:#D5AE38;" d="M31.1415787,4.9913425c-0.3293591,0.6219902-0.8273201,1.1227174-1.330864,1.5788131
		c-1.2616367,1.1427507-1.7534008,2.7076783-2.3963394,4.1821885c-0.2554531,0.5858583-0.4379406,1.2134295-0.7874107,1.7490549
		c-0.3205719,0.4913292-0.0546036,0.6189194,0.3359699,0.6426992c0.5941658,0.0361757,1.192215,0.0086222,1.7889824,0.0081387
		c0.264967-0.0841637,0.5232754-0.2033606,0.8133488-0.1459541c-0.0998249,0.1037683-0.1997089,0.207572-0.299593,0.3113766
		c-0.6130981,0.2772779-1.2634125-0.0026169-1.8864422,0.1259937c-0.1235523-0.0303307-0.245636-0.0774384-0.3708858-0.0883923
		c-1.2229328-0.1069565-1.4267998-0.4568872-0.8873215-1.5867891c0.3687515-0.7723284,0.4738445-1.5902061,0.4872551-2.4300175
		c-0.016613-0.0323362-0.0082054-0.0556507,0.0253334-0.0703754c0.043108-0.0598841,0.086113-0.1193361,0.129118-0.1787882
		l-0.015749,0.0172882c0.149271-0.0838137,0.1704369-0.1887255,0.0522575-0.3166418
		c-0.0161381-0.0462942-0.0231342-0.0939312-0.0209656-0.1429157C27.7727604,6.8794661,29.3960037,5.8623967,31.1415787,4.9913425z"
		/>
	<path style="fill:#455A9A;" d="M36.29599,8.4989672c-0.4136772-0.7447524-0.6924057-1.5496302-0.785881-2.383707
		c-0.0680084-0.6068501-0.2561607-1.1422467-0.4823494-1.6934381c-0.2211037-0.5387967-0.4992218-0.7738917-1.0546265-0.4510171
		c0.0807266-0.3300068,0.4232788-0.5401027,0.4168243-0.9101741c0.7327576,0.2609322,1.1931038,0.7295434,1.3287201,1.5355844
		c0.196846,1.1699777,0.4568634,2.3292761,0.6846695,3.4941597C36.4318619,8.236207,36.4777908,8.4015675,36.29599,8.4989672z"/>
	<path style="fill:#545558;" d="M34.3899574,3.0606308c0.0064545,0.3700714-0.3360977,0.5801673-0.4168243,0.9101741
		c-0.5555916,1.8367832-0.9621735,3.7082422-1.3009949,5.5954695c-0.0842247-0.0017385-0.1683311-0.003458-0.2524757-0.0051012
		c0.0307083-0.1220331,0.0614548-0.2441425,0.092205-0.3662529c-0.0015335-0.0321674,0.0066223-0.0621195,0.0244637-0.0898561
		c0.0300293-0.9544201,0.4725838-1.8418059,0.4556084-2.8038635l0.0075569-0.0171757
		c0.2047997-0.3890004,0.2718544-0.8148985,0.332798-1.2424321c0.1854668-0.1707993,0.159153-0.3907275,0.1412125-0.6087136
		l0.0033302-0.0115514c0.2226295-0.3717766,0.1533508-0.8704805,0.5139656-1.1823146
		C34.1005058,3.1273127,34.2236099,3.0455887,34.3899574,3.0606308z"/>
	<path style="fill:#D5AE38;" d="M33.9908028,3.2390134c-0.3606148,0.3118341-0.2913361,0.8105381-0.5139656,1.1823146
		c-0.0069466-0.5177753-0.121212-0.794127-0.6366272-0.3163948c-0.3071098,0.2846613-0.651577,0.5175853-1.1091442,0.4524498
		C32.3763771,3.9329259,33.0403519,3.3404217,33.9908028,3.2390134z"/>
	<path style="fill:#D5AE38;" d="M31.7292099,4.5617132c0.0626259,0.4698133-0.1787338,0.5370903-0.5585213,0.4209948
		C31.2780342,4.7375579,31.5296402,4.684217,31.7292099,4.5617132z"/>
	<path style="fill:#545558;" d="M26.6082783,9.3384542c-0.0134106,0.8398113-0.1185036,1.6576891-0.4872551,2.4300175
		c-0.5394783,1.1299019-0.3356113,1.4798326,0.8873215,1.5867891c0.1252499,0.0109539,0.2473335,0.0580616,0.3709755,0.0878677
		c0.0023308,0.0422363-0.0024052,0.0843258-0.0141182,0.1257477c-0.4579391,0.0520258-0.9158802,0.1040506-1.3738213,0.1560745
		c-0.3985291-0.1236286-0.5429974-0.3770761-0.4327278-0.7891598c0.119627-0.4470625,0.292408-0.8852482,0.2712765-1.361269
		C26.1276512,10.842268,26.2288628,10.0419388,26.6082783,9.3384542z"/>
	<path style="fill:#545558;" d="M26.7992382,8.789937c0.1181793,0.1279163,0.0970135,0.2328281-0.0522575,0.3166418
		C26.7644081,9.0010681,26.7818222,8.8955021,26.7992382,8.789937z"/>
	<path style="fill:#545558;" d="M26.7627296,9.0892906c-0.043005,0.0594521-0.08601,0.1189041-0.129118,0.1787882
		C26.6765766,9.2087708,26.7196541,9.1490307,26.7627296,9.0892906z"/>
	<path style="fill:#D5AE38;" d="M35.4873161,39.2977943c0.1042824,0.01408,0.2085648,0.0281639,0.3128319,0.042305
		c0.7521706,0.2975655,1.4648323,0.0281487,2.1837006-0.1521912l-0.0210991-0.005722
		c0.6208916,0.0375252,1.2363129,0.0778885,1.8556747-0.0777283c0.5369034-0.134903,1.0757294-0.0368309,1.8005066,0.199913
		c-2.1336517,0.3248062-3.9835815,1.0145645-5.9291878,1.3234253c-0.5978813,0.0949097-1.150383,0.4685478-1.7483101,0.5717125
		c-1.350647,0.233036-2.7205906,0.3166656-4.0937119,0.3362923c-0.374733,0.0053558-0.6028404-0.0890083-0.6208248-0.4925156
		l0.0143909,0.0166512c0.3912601,0.0003586,0.6518822-0.2639313,0.9434128-0.4655914l-0.002346,0.0017319
		c0.3618908,0.0299263,0.7522049,0.1480713,0.9574604-0.3083649c0.2917252-0.0608673,0.5834503-0.1217308,0.875597-0.1825867
		c0.7189293,0.1741142,1.423851,0.0281906,2.0514259-0.2728119c0.4239235-0.2033234,1.0243034,0.1319084,1.2920914-0.4535446
		C35.4051094,39.3571358,35.4479027,39.3301468,35.4873161,39.2977943z"/>
	<path style="fill:#456CDB;" d="M26.8176327,36.4384079c0.6464977-2.1471138,1.0030117-4.3614578,1.5112629-6.5406628
		c0.3909073-1.6760845,0.7329769-3.3635635,1.0967064-5.0459423c0.2290535-0.2142906,0.1137543-0.5008793,0.1581459-0.7539577
		l0.0076847-0.0086937c0.0462875-0.0061054,0.0926476-0.0121937,0.1389961-0.0183563
		c0.1102009,0.0914173,0.161274,0.2099743,0.1101875,0.3445034c-0.4669514,1.2296791-0.5410347,2.5466671-0.7676525,3.8203964
		c-0.3150902,1.7709904-1.0640354,3.4457798-1.1045284,5.2770729c-0.0097637,0.4415436-0.2812271,0.8773003-0.4323273,1.3157883
		c-0.0190544,0.3153458-0.3615074,0.6664009,0.1126347,0.9267807c0.2256966,0.1239471,0.4380398,0.3695946,0.6698246,0.0145607
		c-0.07757,0.2164116,0.2580547,0.287281,0.1251755,0.6024933c-0.3750458,0.8896523-1.2005405,1.4998436-1.4511547,2.4607124
		c-0.0491028,0.1882629-0.2592583,0.3972397-0.5495205,0.3231812c0.0283413-0.4394836,0.0566845-0.8789711,0.0850239-1.3184547
		C26.4658928,37.3385201,26.8524113,36.932045,26.8176327,36.4384079z"/>
	<path style="fill:#455A9A;" d="M26.5280914,37.8378296c-0.0283394,0.4394836-0.0566826,0.8789711-0.0851479,1.3186569
		c-0.0821056,0.1697578-0.0352631,0.397068-0.2311478,0.5155716l0.0008011-0.009594
		C25.9450378,38.9897575,26.3900185,38.4403191,26.5280914,37.8378296z"/>
	<path style="fill:#D5AE38;" d="M24.9878521,17.147604c0.7326717-0.1441936,0.1211014-0.8431396,0.4724007-1.1446247
		c0.2172298-0.1723814,0.335165-0.4837618,0.6760769-0.4830084c-0.2414856,0.5478182-0.3069859,1.1209841-0.326931,1.7176294
		c-0.0200443,0.5996284-0.0996094,1.2162418-0.7445831,1.5332699C25.1953926,18.2223682,25.4219112,17.669323,24.9878521,17.147604z
		"/>
	<path style="fill:#D5AE38;" d="M25.9913807,13.7249508c0.4579411-0.0520239,0.9158821-0.1040487,1.3739891-0.1560516
		c0.1033173,0.0773973,0.2064705,0.1547718,0.3096237,0.2321463c0.0095806,0.0440683,0.0134869,0.0886326,0.0117111,0.1336966
		c-0.0471039,0.0000162-0.0941982,0.0006952-0.141283,0.002038c-0.5591316-0.080101-0.8726063,0.0726461-0.8028088,0.7270336
		c0.036377,0.3410473,0.026495,0.7412138-0.4710255,0.8131609C26.431673,14.8523369,26.1240101,14.3026361,25.9913807,13.7249508z"
		/>
	<path style="fill:#3B3D42;" d="M17.2576733,36.4410591c0.0298157,0.0349922,0.0823193,0.068737,0.081274,0.1007347
		c-0.0028687,0.0878296-0.0691261,0.1267548-0.1470394,0.0930367c-0.0298042-0.0128937-0.0566406-0.0872231-0.046299-0.1221504
		C17.1549492,36.4811325,17.2168465,36.4651489,17.2576733,36.4410591z"/>
	<path style="fill:#CFB98B;" d="M22.0899715,10.9609032c-0.7237167-0.5394526-1.5591278-0.1070127-2.3288994-0.260087
		c-0.1079559-0.0214672-0.2411366,0.0905943-0.3442497-0.0434303c0.0750408-0.2748899,0.2416019-0.4721079,0.5371952-0.4523811
		c0.6096287,0.0406857,1.2170944,0.1138,1.8254166,0.1736279C22.021101,10.4990511,22.1199856,10.6955976,22.0899715,10.9609032z"/>
	<path style="fill:#3B3D42;" d="M18.9866066,10.8266287c0.0017662-0.0564327,0.0035324-0.1128654,0.0053062-0.1692905
		C19.1437092,10.7185955,19.1301918,10.7746544,18.9866066,10.8266287z"/>
	<path style="fill:#CFB98B;" d="M19.7445831,11.7563086c0.2698917,0.0241489,0.5560322-0.1784611,0.6112099-0.3082237
		c0.2384071-0.5606728,0.6416092-0.3236523,1.0152206-0.3053484c0.2506294,0.0122795,0.4901543,0.0673637,0.5216446,0.3367472
		c0.01791,0.1532211-0.0682926,0.403842-0.186739,0.4709616c-0.2941608,0.1666918-0.3481655-0.1652279-0.4874554-0.317934
		c-0.0484638-0.053133-0.1209888-0.0843201-0.2264709-0.1549597c-0.1102848,0.2041101-0.2136707,0.3954487-0.3170547,0.5867891
		c-0.1102295-0.0109539-0.1697464,0.0352602-0.168745,0.1496944l-0.0071487-0.027936
		C20.0977669,12.3058128,19.7954197,12.251895,19.7445831,11.7563086z"/>
	<polygon style="fill:#456CDB;" points="42.6685143,34.3003044 42.6641312,34.2764816 42.6956215,34.2909317 	"/>
	<path style="fill:#9DBFF9;" d="M26.2117958,39.6720581c0.1958847-0.1185036,0.1490421-0.3458138,0.2311478-0.5155716
		c0.2903862,0.0738564,0.5005417-0.1351204,0.5496445-0.3233833c0.2506142-0.9608688,1.0761089-1.5710602,1.4511547-2.4607124
		c0.1328793-0.3152122-0.2027454-0.3860817-0.1251888-0.6024933c0.0622368-0.0784187,0.1946678-0.1856918,0.1760902-0.2308731
		c-0.2334538-0.5677567,0.0936356-0.8535271,0.5208244-1.101799c0.268631-0.1561127,0.3935013-0.3321571,0.2918911-0.6944275
		c-0.0945168-0.3369713-0.0316772-0.7180786-0.0381145-1.0797539c0.0532684-0.0477066,0.1065388-0.0954094,0.1595993-0.1433754
		c0.5330658-0.0277023,0.4091339-0.2402153,0.1388111-0.4939537c0.0058632-0.199173,0.0117283-0.3983498,0.0173817-0.5977669
		c0.8463917-0.5030384,1.0798759-1.5078468,1.7469559-2.1662331c0.0955601-0.0943146,0.170372-0.4651299,0.0266113-0.7281151
		c-0.5947838-1.0880699-0.4814644-1.3977013,0.6496964-1.8676071c0.3497086-0.1452789,0.6727753-0.4030952,1.0759354-0.0884266
		c0.4453125,0.3475609,0.4035149,0.8012009,0.3414688,1.2699547c-0.258255,1.9509544-0.8633881,3.7874413-1.8284626,5.5033092
		c-0.1008072,0.1792297-0.0149155,0.2213669,0.1389275,0.2374763c-0.0037575,0.0935822-0.007515,0.1871681-0.0110397,0.2810478
		c-0.1938324,0.0142021-0.3879013,0.0281181-0.5819683,0.0420341c-0.0029564-0.0768585-0.0317822-0.1645851-0.0047798-0.2288551
		c0.2177277-0.51828,0.0582447-1.048069-0.4204483-1.1220474c-0.519558-0.0802879-0.4761219,0.5237808-0.5252934,0.9131241
		c-0.0096626,0.0765343-0.0112896,0.1560783-0.0024815,0.232605c0.0402775,0.3499336-0.170126,0.5484352-0.3875713,0.7910194
		c-0.7461643,0.8324432-0.7412739,1.921402-0.9188404,2.9442139c-0.0021057,0.0121307,0.0378628,0.0315704,0.0581894,0.047596
		c-0.2620564,0.2945595-0.5690269,0.5136757-0.6738148,0.9693298
		C28.1183548,39.1095963,26.7037048,39.8712769,26.2117958,39.6720581z"/>
	<path style="fill:#678FF5;" d="M31.7361698,33.5883064c-0.1538429-0.0161095-0.2397346-0.0582466-0.1389275-0.2374763
		c0.9650745-1.715868,1.5702076-3.5523548,1.8284626-5.5033092c0.0620461-0.4687538,0.1038437-0.9223938-0.3414688-1.2699547
		c-0.4031601-0.3146687-0.7262268-0.0568523-1.0759354,0.0884266c-1.1311607,0.4699059-1.2444801,0.7795372-0.6496964,1.8676071
		c0.1437607,0.2629852,0.0689487,0.6338005-0.0266113,0.7281151c-0.6670799,0.6583862-0.9005642,1.6631947-1.7469559,2.1662331
		c-0.129221-0.5745888-0.0055027-1.2470016,0.4094181-1.490509c1.0868282-0.6378441,0.7080173-1.4923153,0.3884163-2.2188416
		c-0.2324371-0.528389-0.1052856-0.8908806,0.2400055-1.0353546c0.6938286-0.2903042,0.7866974-1.1767559,1.5164127-1.3742752
		c0.2021103-0.0547085,0.2087975-0.5653706,0.4860039-0.3066578c0.3656654,0.3412704,1.1308708,0.1996441,1.1476135,0.9476509
		c0.0412216,1.8411713-0.05793,3.657774-0.8108902,5.3828545c-0.225956,0.5176697-0.3921967,1.0632992-0.5580902,1.6046085
		C32.296093,33.2892799,32.1365509,33.5531158,31.7361698,33.5883064z"/>
	<path style="fill:#F8F9F9;" d="M28.9419403,37.489048c-0.0203304-0.0160294-0.0602989-0.0354691-0.0581932-0.0475998
		c0.1775665-1.0228119,0.1726761-2.1117706,0.9188404-2.9442139c0.2174454-0.2425842,0.4278488-0.4410858,0.3875713-0.7910194
		c-0.0088081-0.0765266-0.0071812-0.1560707,0.0024815-0.232605c0.0491714-0.3893433,0.0057354-0.993412,0.5252934-0.9131241
		c0.478693,0.0739784,0.638176,0.6037674,0.4204483,1.1220474c-0.0270023,0.06427,0.0018234,0.1519966,0.0046062,0.2287407
		c-0.0214958,0.085041-0.0428238,0.1702003-0.0641479,0.2553596c-0.4971352,0.2254944-0.4626751,0.7186165-0.5732727,1.1387138
		c-0.0150528,0.1434021-0.0301056,0.2868042-0.0451603,0.4302063l0.0233746,0.033329c0,0-0.0182762-0.0363693-0.018013-0.0361061
		c-0.3762836,0.0950699-0.4448318,0.3945313-0.4768276,0.7182846C29.6399384,36.7970543,29.2909393,37.1430511,28.9419403,37.489048
		z"/>
	<path style="fill:#678FF5;" d="M29.2692451,32.663044c0.0064373,0.3616753-0.0564022,0.7427826,0.0381145,1.0797539
		c0.1016102,0.3622704-0.0232601,0.5383148-0.2918911,0.6944275c-0.4271889,0.2482719-0.7542782,0.5340424-0.5208244,1.101799
		c0.0185776,0.0451813-0.1138535,0.1524544-0.1760902,0.2308731c-0.2317715,0.3550339-0.4441147,0.1093864-0.6698112-0.0145607
		c-0.4741421-0.2603798-0.1316891-0.6114349-0.1126347-0.9267807c0.3160439,0.0093155,0.6355515,0.053997,0.6309319-0.4359474
		c-0.0036697-0.389782,0.1266899-0.0897179,0.2054234-0.0227966c0.0662823-0.2079315,0.5508537-0.3409653,0.1980381-0.6077538
		c-0.4526711-0.342289-0.2131081-0.6866989-0.0870838-1.0192146C28.6722736,32.2445488,29.0064125,32.7074509,29.2692451,32.663044z
		"/>
	<path style="fill:#678FF5;" d="M31.0788403,34.1666336c0.0213242-0.0851593,0.0426521-0.1703186,0.0641479-0.2553596
		c0.1942406-0.0138016,0.3883095-0.0277176,0.5821419-0.0419197c-0.2492599,0.7386475-0.2784882,1.6263885-1.2644176,1.8664398
		c0.0147495-0.1436424,0.0298023-0.2870445,0.044817-0.4304733C30.9588737,35.0578041,31.0171013,34.6113358,31.0788403,34.1666336z
		"/>
	<path style="fill:#678FF5;" d="M29.9889374,36.4510574c0.0319996-0.3237495,0.1005478-0.6232109,0.4768314-0.7182808
		c-0.0500374,0.3803368-0.0998096,0.7609329-0.1686172,1.2870865C30.147892,36.7444077,30.0684147,36.5977325,29.9889374,36.4510574
		z"/>
	<path style="fill:#456CDB;" d="M29.3035278,38.7542305c-0.0306416,0.199543-0.2204857,0.26931-0.3611908,0.3155746
		c-0.1812248,0.0595856-0.1579475-0.1304131-0.1564121-0.2415504c0.0019913-0.1440849-0.0162144-0.336834,0.1825371-0.3486786
		C29.120966,38.4704933,29.2322044,38.6004906,29.3035278,38.7542305z"/>
	<path style="fill:#455A9A;" d="M29.7304268,24.0707951c-0.0463467,0.0061626-0.0927067,0.0122509-0.1389942,0.0183563
		c-0.0296364-0.4500084,0.0360889-0.879446,0.2752552-1.2713604c-0.0000572-0.0000305,0.0254135,0.0217819,0.0254135,0.0217819
		c0.0003757,0.147831,0.0009556,0.2958412,0.0015392,0.4438534c-0.0114365,0.1043205-0.0228748,0.2086411-0.0341454,0.312994
		c-0.0367756,0.0527725-0.073719,0.1055126-0.1106682,0.1582565C29.7426949,23.8600502,29.7365589,23.9654217,29.7304268,24.0707951
		z"/>
	<path style="fill:#678FF5;" d="M29.5676556,32.0257149c0.2703228,0.2537384,0.3942547,0.4662514-0.1388111,0.4939537
		C29.411232,32.3372383,29.3692627,32.1477737,29.5676556,32.0257149z"/>
	<path style="fill:#456CDB;" d="M29.8936405,23.2834263c-0.0005836-0.1480122-0.0011635-0.2960224-0.0016422-0.443943
		c0.0442314-0.0085545,0.0887794-0.012991,0.1336689-0.0131817C30.0294609,22.9925137,30.0613785,23.1667881,29.8936405,23.2834263z
		"/>
	<path style="fill:#456CDB;" d="M29.748827,23.7546768c0.0369492-0.0527439,0.0738926-0.105484,0.1106682-0.1582565
		C29.8224926,23.6491508,29.7856617,23.7019119,29.748827,23.7546768z"/>
	<path style="fill:#455A9A;" d="M29.5837479,24.0978451c-0.0443916,0.2530785,0.0709076,0.5396671-0.1581459,0.7539577
		C29.4530525,24.5951576,29.3585339,24.3129787,29.5837479,24.0978451z"/>
	<path style="fill:#456CDB;" d="M35.4873161,39.2977943c-0.0394135,0.0323524-0.0822067,0.0593414-0.1285934,0.0810051
		c-0.1065636-0.0103569-0.2129173-0.0207405-0.3192749-0.0311241c-0.003952-0.0529556-0.0079041-0.1059151-0.011776-0.1589928
		c0.1157036-0.1703339,0.293438-0.1397209,0.4607811-0.1425896C35.4880486,39.1300049,35.4876823,39.2138977,35.4873161,39.2977943z
		"/>
	<path style="fill:#456CDB;" d="M34.5617027,39.1958351c-0.1389885,0.0096664-0.2627869-0.0163651-0.3428459-0.1457672
		C34.356266,39.0437851,34.4836121,39.0618248,34.5617027,39.1958351z"/>
	<path style="fill:#CFB98B;" d="M35.0394478,39.3476753c0.1063576,0.0103836,0.2127113,0.0207672,0.3192749,0.0311241
		c-0.2675819,0.5854225-0.8679619,0.2501907-1.2918854,0.4535141c-0.6275749,0.3010025-1.3324966,0.4469261-2.0514259,0.2728119
		C32.9587479,39.5955086,34.0650711,39.7350235,35.0394478,39.3476753z"/>
	<path style="fill:#CFB98B;" d="M30.1847,40.5943451c-0.2915306,0.2016602-0.5521526,0.46595-0.9434128,0.4655914
		C29.3750916,40.5386658,29.75667,40.5194397,30.1847,40.5943451z"/>
	<path style="fill:#CFB98B;" d="M31.1398144,40.2877121c-0.2052555,0.4564362-0.5955696,0.3382912-0.9574604,0.3083649
		C30.4287777,40.2674332,30.7789516,40.2609749,31.1398144,40.2877121z"/>
	<path style="fill:#CFB98B;" d="M37.9838486,39.1879082c-0.7188683,0.1803398-1.43153,0.4497566-2.1837006,0.1521912
		C36.5171432,39.1326675,37.2505531,39.1610985,37.9838486,39.1879082z"/>
	<path style="fill:#FBE933;" d="M32.5118675,9.1949205c-0.0307503,0.1221104-0.0614967,0.2442198-0.092205,0.3662529
		c-0.2287674,1.099494-0.6173744,2.1660643-0.6814232,3.2994032c-0.3473644,0.0219698-0.3787861,0.5068169-0.7416897,0.5063076
		c-0.3153-0.7625418-0.8785095-0.5409632-1.4313431-0.3605661c-0.2900143-0.0574417-0.5483227,0.0617552-0.8132896,0.1459188
		c-0.3149548-0.2248173,0.057703-0.4105263,0.0348148-0.6187639c0.5876656,0.0918331,0.9046116-0.2933578,1.1886673-0.701045
		c0.4778976-0.6858959,0.9020691-1.430582,1.5650597-1.9453773c0.6309433-0.4899092,0.6962166-1.1590958,0.5970306-1.7908649
		c-0.093895-0.5980754,0.0234222-0.9447398,0.5461502-1.1850133c0.2480583-0.1299062,0.0475998-0.4864893,0.3082962-0.6099916
		c0.0169792,0.9620776-0.4255753,1.8494635-0.4556541,2.8040066l-0.0424118,0.0405111L32.5118675,9.1949205z"/>
	<path style="fill:#D5AE38;" d="M31.3019199,14.831871c-0.2482529-0.9224243-0.8687038-0.1220541-1.2825699-0.2770758
		c-0.5245724,0.0708456-0.9130783-0.0916033-1.0810947-0.6313705c0.0015202-0.0905943,0.0030079-0.1813211,0.0044956-0.2720499
		c0.446106,0.1717415,0.720932,0.8992596,1.3672466,0.4213581c0.365591,0.0133533,0.5953732-0.1598148,0.6977177-0.5080118
		c0.3521748,0.0262289,0.0722523,0.5922346,0.4844017,0.5672483C31.4287167,14.3652697,31.3653183,14.5985708,31.3019199,14.831871z
		"/>
	<path style="fill:#CFB98B;" d="M31.4921169,14.1319695c-0.4121494,0.0249863-0.1322269-0.5410194-0.4846897-0.5667019
		c-0.0038147-0.0657635-0.0073471-0.1320734-0.0108776-0.1983833c0.3629036,0.0005093,0.3943253-0.4843378,0.7416897-0.5063076
		C31.7291622,13.2986736,31.6655579,13.725955,31.4921169,14.1319695z"/>
	<path style="fill:#FBDB29;" d="M28.9382229,13.9232912c0.1680489,0.5399008,0.5565548,0.7023497,1.0811272,0.6315041
		c0.0339622,0.3214741-0.0561161,0.5255632-0.409111,0.6357832c-0.5275955,0.1647339-0.6134834,0.6289768-0.4103565,1.0438156
		c0.1558037,0.3181992,0.1570683,0.4827785-0.0817623,0.7308731c-0.8342781,0.8666248-1.387661,1.9171619-1.8832645,2.9993553
		c-0.0517864,0.1130848-0.0340252,0.3054962-0.1730423,0.3173904c-1.1620865,0.0994301-0.5203915,0.5088615-0.264534,1.0304585
		c0.2444191,0.4982834,0.0500374,1.1015282-0.3435268,1.5572186c-0.1147003,0.1328068-0.2904053,0.2012234-0.3166676,0.4149113
		c-0.1969013,1.6019764-0.8369522,3.0645466-1.4706116,4.5232143c-0.2357082,0.542593,0.3015347,0.3997116,0.4471893,0.5979671
		c-0.0640717,0.2705612-0.2877064,0.1629982-0.4438286,0.1958866c-0.2290249,0.0482464-0.4855003,0.233551-0.3655109,0.3974552
		c0.6433506,0.8787861-0.1303997,1.6836052-0.1037922,2.5316315c0.0193367,0.616518-0.0449638,1.2592678-0.0777874,1.8828068
		c-0.044384,0.843174,0.2130756,1.6582336,0.1117725,2.4659119c-0.1167965,0.9312134,0.3535461,0.8261299,0.9361248,0.7054482
		c0.1187534-0.024601,0.2469654-0.0035629,0.5673428-0.0035629c-0.6839085,0.4483337-0.3972759,1.1998863-0.9322491,1.6200562
		c-0.2383976,0.187233,0.1547337,0.3731422,0.2458382,0.5666161c0.1180191,0.2506409,0.5175858,0.3832054,0.4122524,0.7024422
		c-0.1223354,0.3707733-0.4607964-0.0947037-0.6722088,0.0949059c-0.055563,0.0498314-0.1383648,0.069294-0.2085495,0.1026802
		c-0.8192215-0.4869766-1.0865135-1.30896-1.417551-2.141922c-0.5533886-1.3924294-0.8959332-2.8080025-0.7576027-4.2956009
		c0.0898838-0.9665985,0.3208561-1.9211292,0.5074902-2.8773804c0.1764927-0.9042892,0.2755432-1.8417664,0.5934124-2.6958828
		c0.4102421-1.102314,0.1599712-2.3105373,0.690979-3.3842812c0.2238922-0.4527321-0.1642151-1.2137413,0.7002296-1.3401737
		c-0.3082371-0.6919365,0.4645061-0.9938126,0.5574207-1.5499401c0.2316055-1.3862286,0.7715454-2.665123,1.4259834-3.8998032
		c0.3490925-0.6586113,0.6741924-1.3176823,0.6665764-2.0990973c-0.0037613-0.3860264,0.1143322-0.7644558,0.5425053-0.9261417
		c-0.0571117-0.331665-0.4421711-0.2772684-0.5471935-0.5210724c0.0471897-0.0013275,0.0942841-0.0020065,0.1414661-0.0020199
		C28.103981,13.9309301,28.521101,13.9271107,28.9382229,13.9232912z"/>
	<path style="fill:#FBDB29;" d="M25.5995693,38.2223625c-0.0184727,0.043251-0.0370255,0.0862999-0.0555763,0.1293449
		c-0.0430069-0.0186157-0.1103516-0.0277977-0.1222401-0.0584793c-0.0121384-0.0313187,0.0301838-0.083744,0.0486622-0.1269264
		C25.513443,38.1849213,25.5564671,38.2035408,25.5995693,38.2223625z"/>
	<path style="fill:#D5AE38;" d="M23.4410114,22.07831c0.111021-0.2307034,0.2808037-0.4060249,0.5021896-0.5328388
		c-0.0155869,0.6015568,0.1849442,1.2896767-0.628952,1.5718021C23.356432,22.7707977,23.3987236,22.4245548,23.4410114,22.07831z"
		/>
	<path style="fill:#1C1916;" d="M22.031992,23.5681362c0.086565-0.2262802,0.143425-0.4817104,0.4666348-0.4759007
		c0.0173569,0.1169968,0.0348377,0.2342434,0.0523224,0.3514824C22.3866119,23.5212574,22.237011,23.6602688,22.031992,23.5681362z"
		/>
	<path style="fill:#1C1916;" d="M21.7306767,24.0492916c0.0711193-0.1834717,0.1300449-0.3746986,0.310709-0.4885063
		C22.1037388,23.829092,22.1452808,24.0842018,21.7306767,24.0492916z"/>
	<path style="fill:#1C1916;" d="M22.4964066,23.0932541c-0.0559978-0.3003635,0.1193295-0.4624996,0.3525944-0.5900402
		C23.0374413,22.8827305,22.9415493,23.09235,22.4964066,23.0932541z"/>
	<path style="fill:#545558;" d="M20.5189133,18.4546356c0.1319122-0.3740025,0.5881557,0.0076294,0.7369385-0.5686321
		c0.017168,1.1030884-0.0650787,1.2226219-0.539196,1.0393391C20.6736908,18.7586994,20.6987362,18.5637302,20.5189133,18.4546356z"
		/>
	<path style="fill:#1C1916;" d="M20.672636,15.3366299c-0.0264664,0.2393875,0.0925694,0.5035162-0.1573429,0.7046223
		c0.1469383-0.2170582-0.3230972-0.5432673,0.161499-0.7006407L20.672636,15.3366299z"/>
	<path style="fill:#1C1916;" d="M20.5189133,18.4546356c0.1798229,0.1090946,0.1547775,0.3040638,0.1977425,0.4707069
		C20.068531,19.0136852,20.5600586,18.6220284,20.5189133,18.4546356z"/>
	<path style="fill:#1C1916;" d="M20.0445004,14.8677158c0.0569477-0.1120386,0.1086845-0.1037283,0.1559162,0.0067873
		C20.1444855,14.9616222,20.0934086,14.9394522,20.0445004,14.8677158z"/>
	<path style="fill:#545558;" d="M21.9209461,21.7343559c0.0222301,0.0118179,0.0444622,0.0236378,0.0666904,0.0354557
		c-0.0213223-0.012722-0.0426426-0.0254421-0.0639572-0.0381756L21.9209461,21.7343559z"/>
	<path style="fill:#3B3D42;" d="M20.5061932,12.214035c-0.0010014-0.1144342,0.0585155-0.1606483,0.168745-0.1496944
		C20.6186905,12.1142397,20.5624409,12.1641369,20.5061932,12.214035z"/>
	<path style="fill:#FBDB29;" d="M32.6836395,6.9111724c-0.522728,0.2402735-0.6400452,0.5869379-0.5461502,1.1850133
		c0.0991859,0.6317692,0.0339127,1.3009558-0.5970306,1.7908649c-0.6629906,0.5147953-1.087162,1.2594814-1.5650597,1.9453773
		c-0.2840557,0.4076872-0.6010017,0.7928782-1.1886673,0.701045c0.092453-0.9707298,0.7150631-1.7241077,1.0624981-2.5903282
		c0.2205391-0.5498447,0.7277641-0.9493551,0.7524929-1.6240578c0.0075588-0.2062693,0.5296841-0.2627268,0.6507969-0.63165
		c0.0978298-0.298007,0.7101364-0.283978,0.467392-0.8892798c-0.0819721-0.2044115,0.5146198-0.1559296,0.8083706-0.1937504
		l0.0742188-0.0004034l0.0742302,0.0001073C32.6790352,6.7064643,32.6813354,6.8088183,32.6836395,6.9111724z"/>
	<path style="fill:#FBE933;" d="M33.3322945,5.0415931c-0.0609436,0.4275336-0.1279984,0.8534317-0.332798,1.2424321
		c-0.2549248-0.5356083,0.0994339-0.9553504,0.2685013-1.4102736C33.2896423,4.9297748,33.3109665,4.9856834,33.3322945,5.0415931z"
		/>
	<path style="fill:#D5AE38;" d="M33.3322945,5.0415931c-0.021328-0.0559096-0.0426521-0.1118183-0.0642967-0.1678414
		c0.0505753-0.1552887,0.0055046-0.3552723,0.2054977-0.4408479C33.4914474,4.6508656,33.5177612,4.8707938,33.3322945,5.0415931z"
		/>
	<path style="fill:#FBE933;" d="M32.6767311,6.6041107l-0.0742302-0.0001073l-0.0742188,0.0004034
		C32.5775986,6.5168037,32.6270676,6.5103102,32.6767311,6.6041107z"/>
	<path style="fill:#545558;" d="M30.9965496,13.3668842c0.0035305,0.0663099,0.0070629,0.1326199,0.0108776,0.1983833
		c-0.1020565,0.3476505-0.3318386,0.5208187-0.6972504,0.5076189c-0.4249916-0.1452274-0.8331051-0.3141985-1.0445042-0.7552271
		c0.099884-0.1038046,0.1997681-0.2076082,0.299593-0.3113766C30.1180401,12.8259211,30.6812496,12.6043425,30.9965496,13.3668842z"
		/>
	<path style="fill:#3B3D42;" d="M29.2656727,13.3176594c0.2113991,0.4410286,0.6195126,0.6099997,1.0445042,0.7552271
		c-0.6464939,0.4777479-0.92132-0.2497702-1.3674908-0.4215164c-0.4226074,0.0498877-0.8451519,0.099781-1.2676926,0.1496754
		c-0.1031532-0.0773745-0.2063065-0.1547489-0.3096237-0.2321463c0.0115452-0.0414448,0.0162811-0.0835342,0.0139503-0.1257706
		C28.0022602,13.3150425,28.6525745,13.5949373,29.2656727,13.3176594z"/>
	<path style="fill:#455A9A;" d="M32.5118637,9.1949205l-0.0179939-0.049222l0.0424118-0.0405111
		C32.5184898,9.1328011,32.510334,9.1627531,32.5118637,9.1949205z"/>
	<path style="fill:#EAC31D;" d="M27.6749935,13.8010454c0.4225407-0.0498943,0.8450851-0.0997877,1.2676926-0.1496754
		c-0.0014229,0.0907335-0.0029106,0.1814604-0.0044308,0.2720547c-0.4171543,0.003686-0.8342743,0.0075054-1.2514725,0.0113201
		C27.6884804,13.889678,27.6845741,13.8451138,27.6749935,13.8010454z"/>
	<path style="fill:#9DBFF9;" d="M31.0788403,34.1666336c-0.061739,0.4447021-0.1199665,0.8911705-0.5733109,1.1386871
		C30.6161652,34.8852501,30.5817051,34.392128,31.0788403,34.1666336z"/>
</g>
</svg>
