<?xml version="1.0" encoding="utf-8"?>
<!-- Generator: Adobe Illustrator 21.1.0, SVG Export Plug-In . SVG Version: 6.00 Build 0)  -->
<svg version="1.1" id="Слой_1" xmlns="http://www.w3.org/2000/svg" xmlns:xlink="http://www.w3.org/1999/xlink" x="0px" y="0px"
	 viewBox="0 0 30 30" style="enable-background:new 0 0 30 30;" xml:space="preserve">
<g>
	<path style="fill:#FFCC00;" d="M23.2267685,28.9400272c0.5203686,0.0393353,1.0895576-0.1421413,1.5488262-0.5985279
		c1.36726-1.3586826,2.7272968-2.7246361,4.088728-4.0891743c0.2868156-0.2874718,0.2457199-0.5746574-0.1042557-0.7812443
		c-1.9830551-1.1705647-3.9660358-2.3412514-5.9490337-3.5119095c-0.4156265-0.2453632-0.8513012-0.1907139-1.1935005,0.1510601
		c-0.5654964,0.5647907-1.1219769,1.1389484-1.6983986,1.6923466c-0.4316597,0.414423-0.9448204,0.5914936-1.549963,0.4440708
		c-0.910944-0.2219219-1.7222805-0.6567154-2.5024691-1.1570072c-1.3280563-0.8516026-2.5025663-1.890152-3.6144972-3.0021362
		c-1.1186914-1.118742-2.1623545-2.3012743-3.0185213-3.6377668c-0.4821119-0.7525845-0.8960743-1.5374584-1.1318531-2.4082394
		c-0.1758027-0.649271-0.0024853-1.1962538,0.4533615-1.664053c0.4691544-0.4814568,0.950983-0.9505377,1.4241858-1.4280853
		c0.3086071-0.3114405,0.3719368-0.7693348,0.1665134-1.1556864C9.2744141,6.1546392,8.402627,4.515769,7.5310249,2.8768005
		C7.2955103,2.4339361,7.0628457,1.9895307,6.8239341,1.5485079C6.6689239,1.2623645,6.3855691,1.2170395,6.1425223,1.432433
		C6.1144137,1.4573438,6.0883675,1.4846103,6.0617433,1.5111643c-1.3414731,1.3379551-2.683387,2.6754694-4.0240545,4.0142317
		C1.6233448,5.9391508,1.4077588,6.4363408,1.4037509,7.026741C1.3981669,7.849299,1.5159075,8.6559782,1.703611,9.4536381
		c0.3828889,1.6271105,1.0301613,3.1498327,1.8354739,4.6088533c1.0694642,1.9375963,2.379683,3.7033873,3.8496113,5.3521528
		c2.1445193,2.4054241,4.4978595,4.5770626,7.1939225,6.3589478c1.4441261,0.9544487,2.9628754,1.7663536,4.5957298,2.3518314
		C20.4478302,28.5806122,21.7465878,28.9012508,23.2267685,28.9400272z M27.6580524,15.9358368
		c0.2914677,0,0.5831127-0.0058765,0.8743076,0.0029793c0.1118069,0.0034018,0.1298389-0.0333719,0.1268158-0.1351156
		c-0.0122852-0.4138193-0.0434532-0.8262148-0.095768-1.2363281c-0.1653767-1.296402-0.5011787-2.5485659-1.0275269-3.7446146
		c-1.5533638-3.5297847-4.0502014-6.1859159-7.4610043-7.9746299c-1.875639-0.9836334-3.876255-1.5271312-6.0015574-1.5822825
		c-0.0913315-0.00237-0.1324778,0.0069989-0.1314754,0.1149408c0.0053253,0.5734807,0.0044489,1.1470505,0.0005159,1.7205538
		c-0.0006247,0.0912824,0.0248404,0.1182356,0.1172714,0.1231005c0.6530581,0.0343723,1.300396,0.1204147,1.9381695,0.2631292
		c3.4016495,0.7611868,6.129425,2.5575845,8.1660786,5.3815861c1.4926491,2.0696898,2.3127995,4.3930044,2.4897537,6.9401989
		c0.0074787,0.1076927,0.0438957,0.1310835,0.1441784,0.128788C27.084425,15.9315844,27.3712883,15.9358368,27.6580524,15.9358368z
		 M23.0588951,15.9358368c0.2914696,0,0.5831165-0.0058966,0.8743172,0.0029583
		c0.1134834,0.0034504,0.1314907-0.0331583,0.1204071-0.1355953c-0.0510483-0.4717875-0.116663-0.9407463-0.2176304-1.4049625
		c-1.020647-4.6925764-5.0003414-8.178421-9.7867661-8.5726051c-0.0781717-0.0064373-0.1072178,0.0056939-0.1067553,0.091629
		c0.0032578,0.6064258,0.0029449,1.2128835,0.0002184,1.8193145c-0.0003519,0.0780435,0.0235348,0.1062784,0.1023912,0.1111999
		c0.2909365,0.0181556,0.5787115,0.0643196,0.8641539,0.1212959c3.836792,0.765851,6.7504387,3.9723005,7.1419029,7.8617668
		c0.0088902,0.0883341,0.0376606,0.1078262,0.1192741,0.1066608C22.4665184,15.9332771,22.7627239,15.9358339,23.0588951,15.9358368
		z M18.5991211,15.9358253c0.2490387,0,0.4981251-0.0028257,0.7470818,0.0016594
		c0.0783558,0.0014124,0.100317-0.0232239,0.0860977-0.0979757c-0.0245438-0.1290064-0.0395985-0.2598886-0.0661297-0.3884373
		c-0.5417652-2.6250401-2.6712627-4.6225901-5.3207254-4.9960337c-0.0857391-0.012085-0.1032562,0.0082932-0.1027565,0.0894318
		c0.0030422,0.4933491,0.0027113,0.9867315,0.0001211,1.4800873c-0.0003624,0.069066,0.0228357,0.0949726,0.0895863,0.1146145
		c1.9015703,0.5595531,3.1324329,1.7912579,3.6875,3.6943865c0.0255527,0.0876131,0.0652676,0.1053333,0.1462517,0.1038713
		C18.1104012,15.9330206,18.3547859,15.9358368,18.5991211,15.9358253z"/>
</g>
</svg>
