<?xml version="1.0" encoding="utf-8"?>
<!-- Generator: Adobe Illustrator 21.1.0, SVG Export Plug-In . SVG Version: 6.00 Build 0)  -->
<svg version="1.1" id="Слой_1" xmlns="http://www.w3.org/2000/svg" xmlns:xlink="http://www.w3.org/1999/xlink" x="0px" y="0px"
	 viewBox="0 0 25 25" style="enable-background:new 0 0 25 25;" xml:space="preserve">
<g>
	<path style="fill:#FFFFFF;" d="M19.2669868,6.1207747v0.0100098h-4.1000071
		c-0.6174459,0.0111718-0.9150982-0.3268628-0.9700003-0.9700003V5.1607823c0-0.4694448-0.3805599-0.8500051-0.8500051-0.8500051
		H3.6169922c-0.4694448,0-0.8500051,0.3805604-0.8500051,0.8500051V6.070787
		C2.7569773,6.110765,2.7569773,6.150743,2.7569773,6.1907821c0.0100098,2.0999761,0.0100098,4.2000127,0.0100098,6.309998v5.75
		H2.7569773v1.5899963c0,0.4694462,0.3805604,0.8500061,0.8500051,0.8500061h1.4100049
		c0.1699829,0,0.3400269-0.0100098,0.5100098-0.0100098c0.1599731,0,3.940002,0.0100098,7.72998,0.0100098h8.6600056
		c0.4694443,0,0.8500042-0.3805599,0.8500042-0.8500061V6.9707799c0-0.4694448-0.3805599-0.8500051-0.8500042-0.8500051H19.2669868z
		 M8.9070015,9.8007679C8.9770088,9.7807484,9.0570259,9.7707386,9.136982,9.7707386h7.2800293
		c0.3399658,0,0.6799927,0.2300415,0.8099976,0.5400391c-0.4000244,0.2399902-0.7900391,0.4899902-1.1900024,0.7299805
		c-0.9197788,0.5759172-1.8395576,1.1518803-2.7593365,1.7278099c-0.3663931,0.0001554-0.6491251,0.0002756-1.0155191,0.000432
		c-1.2950592-0.8093891-2.5901184-1.6188221-3.8851786-2.4282541c-0.0199585-0.0199585-0.039978-0.0299683-0.0599976-0.0499878
		C8.4369698,10.0407581,8.6269722,9.8707752,8.9070015,9.8007679z M16.7769966,16.0507679
		c-0.1199951,0.0700073-0.25,0.0900269-0.3900146,0.0900269h-7.25c-0.5199585,0-0.9099731-0.3900146-0.9199829-0.9100342v-2.9000244
		c0-0.0099487,0-0.0199585,0.0100098-0.0499878c0.039978,0.0300293,0.0700073,0.0499878,0.0999756,0.0700073
		c1.1600342,0.7299805,2.3200073,1.460022,3.5,2.1799927c0.6199951,0.3800049,1.2700195,0.3800049,1.9000244,0
		c1.1799927-0.7299805,2.3399658-1.4599609,3.5100098-2.1900024c0.0199585-0.0100098,0.039978-0.0199585,0.0700073-0.039978
		v0.0800171c0,0.9400024,0,1.8800049,0.0099487,2.8099976C17.3169746,15.5907459,17.136982,15.880785,16.7769966,16.0507679z"/>
</g>
</svg>
