<?xml version="1.0" encoding="utf-8"?>
<!-- Generator: Adobe Illustrator 21.1.0, SVG Export Plug-In . SVG Version: 6.00 Build 0)  -->
<svg version="1.1" id="Слой_1" xmlns="http://www.w3.org/2000/svg" xmlns:xlink="http://www.w3.org/1999/xlink" x="0px" y="0px"
	 viewBox="0 0 55 45" style="enable-background:new 0 0 55 45;" xml:space="preserve">
<g>
	<path style="fill:#E0DBDC;" d="M4.4488029,21.9648075c0.1136556-0.0051556,0.2273116-0.010313,0.3409581-0.0154305
		c0.1630487,1.0726395,0.661777,1.1349068,1.0781398,1.3241501c1.3814006,0.6278801,2.7723207,1.1719151,4.1575699,1.7668591
		c0.1852407,0.0795536,0.4786835,0.021986,0.4693527,0.5934925c-0.0206614,1.2655735,0.4639378,1.5248127,0.8888597,1.9279537
		c-0.0234947,0.5909615,0.1714449,0.8479156,0.4104691,0.9135532c1.2343206,0.3389454,2.39013,1.4036312,3.6434641,1.5564003
		c0.1205015,0.0062962,0.2410021,0.0125923,0.3615036,0.0188942c0.1135845,0.6735535,0.3046207,0.5842304,0.5243587,0.2121887
		c0.078022-0.0004807,0.1560402-0.0009575,0.2340603-0.00144c0.4516106,0.0966053,0.8748531-0.1254807,1.2883492-0.4570713
		c0.1628304,0.0787983,0.3256626,0.1575947,0.4884949,0.2363911c0.1059513,0.4638844,0.3167038,0.451498,0.5289631,0.5114193
		c1.0911446,0.3080368,2.180254,0.6448441,3.2700729,0.9716015c0.1649361,0.0047188,0.3298702,0.0094433,0.4948063,0.0141621
		c0.0858231,0.0041809,0.1716461,0.008358,0.2574692,0.0125389c0.0378857,0.0078869,0.0758724,0.0125294,0.1139584,0.0139294
		c0.4462166,0.4178562,0.8934937,0.8234024,1.4050694,0.4822464c0.0783768,0.0048141,0.1567497,0.0096245,0.2351265,0.0144386
		c0.2565899,0.9450111,0.6890373,0.3268394,1.0364285,0.4647255c0.1196899,0.0085182,0.2393818,0.0170326,0.3590717,0.0255508
		c0.0446835,0.002285,0.089365,0.0045662,0.1340485,0.0068512c0.1615982,0.0083237,0.3231945,0.0166473,0.4847908,0.0249748
		c0.0407963,0.4240799,0.2021561,0.4390945,0.3752232,0.4826775c0.8970757,0.2258682,1.7928371,0.4725647,2.6890564,0.7120018
		c0.0772476,0.0014229,0.1544952,0.0028496,0.2317429,0.0042725c0.1644955,0.3981514,0.3384514,0.3700333,0.5189705,0.045887
		c0.0780964,0.0038109,0.1561928,0.0076256,0.2342911,0.0114365c0.5492706,0.7111588,1.1663227,0.7381554,1.7891846,0.706501
		c0.0777817,0.0021019,0.1555672,0.0042,0.2333488,0.0062981c0.1792068,0.403656,0.2326584,0.1139374,0.2811317-0.2032242
		c0.0734901-0.0029945,0.1469765-0.0059853,0.2204628-0.0089798c0.0977516,0.2417526,0.188015,0.2373123,0.2702026-0.0327415
		c0.0745163-0.0167923,0.1490326-0.0335884,0.2235527-0.0503769c0.1776619,0.0785484,0.2612076-0.0994797,0.2906609-0.4249725
		c0.0744781-0.0093803,0.1489563-0.0187569,0.2234344-0.0281334c1.0919228-0.2290649,2.0858955-1.1752815,3.1138649-1.8219452
		c1.550808-0.9755669,3.1018143-1.9753075,4.6328926-3.072506c0.3774567-0.2704887,0.9156532-0.1054401,1.1224518-1.1211987
		c0.0759544-0.0127316,0.1519089-0.0254593,0.2278633-0.0381908c0.0505714,0.0619125,0.1166878,0.2009754,0.1494865,0.1746464
		c1.4311066-1.1490364,2.8562775-2.3280106,4.3273315-3.2669735c0.160923-0.1027126,0.3141975-0.2585583,0.3472672-0.6508331
		c0.0329094-0.0060463,0.0656128-0.0151577,0.0980911-0.0273399c1.0186653-0.3998985,2.0430641-0.7805939,2.5194435-2.9973164
		c0.1288033-0.1541977,0.2598343-0.1721554,0.3935661-0.0257072c0,0.4201412,0,0.8402824,0,1.2604237
		c-0.0416451,0.0086975-0.0929565-0.0111389-0.1235619,0.0301685c-1.9993095,2.6985817-4.3383102,3.8153114-6.5308762,5.6158218
		c-1.1508789,0.9450836-2.3262939,1.7937374-3.4992905,2.5636311c-1.2609978,0.8276463-2.516819,1.7226639-3.7958298,2.4618874
		c-1.2526283,0.7239838-2.486557,1.5816612-3.7191391,2.435627c-0.2906723,0.2013893-0.5670776,0.2717514-0.8612823,0.205616
		c-2.1130161-0.474987-4.2037754-1.2724152-6.3097973-1.8501778c-0.9653702-0.2648354-1.9764977-0.4179993-2.9386654-1.0386848
		c-0.5805149-0.3744812-1.2371883-0.2224236-1.8621883-0.4033775c-1.4225197-0.4118576-2.8200817-1.2370529-4.271225-1.195467
		c-0.5996437,0.0171814-1.1930695,0.4086742-1.7986526-0.0023327c-1.002902-0.680666-2.0924835-0.7022629-3.0717154-1.5554066
		c-0.3834209-0.3340473-0.8178024-0.1528835-1.1936626-0.6905956c-0.3106813-0.4444637-0.5980663-0.7595196-0.7191572-1.5845528
		c-0.1286516-0.8765488-0.602911-0.7691307-0.9562292-0.9179306c-1.3301659-0.5601883-2.6646719-1.0791626-3.9960728-1.6278763
		c-0.497767-0.2051449-0.8284464-0.7346821-0.8688231-1.8396015c-0.007709-0.2109699-0.1321521-0.4049377-0.2027383-0.6067486
		C4.4488029,22.132864,4.4488029,22.0488358,4.4488029,21.9648075z"/>
	<path style="fill:#AF1E28;" d="M11.3836832,27.5618324c-0.424922-0.403141-0.9095211-0.6623802-0.8888597-1.9279537
		c0.0093307-0.5715065-0.284112-0.5139389-0.4693527-0.5934925c-1.3852491-0.594944-2.7761693-1.138979-4.1575699-1.7668591
		c-0.4163628-0.1892433-0.915091-0.2515106-1.0781398-1.3241501c0.0675898-0.2506447,0.1512451-0.461977,0.305882-0.4992733
		c0.5641203,0.0165558,1.140039,0.1867542,1.6906643,0.0213509c1.8305902-0.5498981,3.6562576-1.1351871,5.5161047-1.0464287
		c1.092001,0.0861301,2.1469221,0.8908653,3.2547827,0.6687813c0.7869768,0.5819473,1.6052141,0.4487896,2.414485,0.3625526
		c0.5021973-0.0535126,0.7608013,0.2632847,0.7433357,1.3137722c-0.0055065,0.3312836,0.0211143,0.6646938,0.0330315,0.9971333
		c-0.0003643,0.1402206-0.0007286,0.2804375-0.0010929,0.4206581c-0.0978374,0.7270775-0.0038853,1.4851398-0.1208591,2.2261848
		c-0.1085701,0.6877937,0.1770687,0.5756836,0.3829651,0.552557c0.1036491,0.0149593,0.2073002,0.0299225,0.3109493,0.0448818
		c0.0897312,0.2461147,0.1894608,0.2955856,0.3036022,0.0615139c0.0589008,0.0008812,0.1178036,0.0017605,0.1767044,0.0026417
		c0.1882019,0.6098442,0.4370308,0.540781,0.7055588,0.2511311c0.0576591,0.0115547,0.1153202,0.0231094,0.1729794,0.0346642
		c0.2684155,0.6232414,0.6179733,0.5219326,0.9663296,0.4313431c0.4382591,0.0893097,0.8765182,0.1786137,1.3147774,0.2679214
		c0.1905899,0.6464252,0.4406109,0.5612831,0.7106228,0.2301025c0.1400223,0.0137196,0.2800465,0.027441,0.4200687,0.0411644
		c0.1532555,0.5439777,0.3557606,0.5569096,0.5908546,0.2183971c0.0572128,0.0032959,0.1144257,0.0065975,0.1716385,0.0098934
		c0.2282791,0.7080536,0.5264034,0.5496883,0.8344574,0.2681084c0.0571156,0.0034237,0.1142311,0.0068474,0.1713467,0.0102711
		c0.153513,0.5447273,0.3547916,0.5547771,0.5878296,0.2093105c0.0582504,0.0059471,0.1165047,0.011898,0.174757,0.017849
		c0.2300358,0.7044868,0.5272179,0.5543423,0.835598,0.2616615c0.0569439-0.000042,0.1138897-0.0000839,0.1708355-0.0001297
		c0.1464272,0.5655632,0.3473454,0.5876694,0.5859261,0.2341595c0.059063,0.001543,0.118124,0.0030842,0.177187,0.0046272
		c0.2289963,0.707653,0.5255795,0.5451393,0.8318787,0.2575207c0.0583363,0.0109119,0.1166725,0.0218239,0.1750088,0.0327415
		c0.2654667,0.7046013,0.6832428,0.4996147,1.0329857,0.6493664c0.8592186,0.3678913,1.8598995-0.278017,2.523325,1.471489
		c0.0634689,0.1673698,0.1839561-0.0582447,0.2752151-0.0916862c0.8712311-0.3192406,1.647831-1.2295303,2.5340767-1.4952049
		c1.4468842-0.4337482,2.8290024-1.3857784,4.2073021-2.3561058c2.0290756-1.4284916,4.1219788-2.4681301,6.1327667-4.0190868
		c1.18927-0.9173069,2.4037666-1.7042828,3.6063538-2.5499229c-0.1753349,0.5965576-0.4911041,0.7523575-0.7803574,0.983532
		c-3.4622231,2.767067-6.9846649,5.2034893-10.5151978,7.5924358c-1.8069077,1.2226505-3.6292305,2.3542976-5.4390488,3.5602112
		c-0.2709045,0.1805115-0.5155945,0.1978989-0.792881,0.1125717c-1.0328808-0.3178253-2.0697613-0.5838814-3.1052265-0.8694572
		c-0.0858803-0.019928-0.1716728-0.039772-0.2574654-0.0596161c-0.0744419-0.0665627-0.1460495-0.170929-0.2237453-0.1941719
		c-1.9856186-0.5939922-3.9689579-1.2233162-5.9590359-1.751215c-1.3462429-0.3571053-2.6733456-1.0081081-4.0389328-1.0714512
		c-0.0872135-0.0107555-0.174427-0.0215073-0.261591-0.0320835c-0.3468456-0.4289169-0.6749878-1.044981-1.1246567-0.4494801
		c-0.0889664,0.0212402-0.1779327,0.0424805-0.2668991,0.0637207c-0.6033077,0.0982857-1.2066135,0.1965714-1.8099213,0.2948608
		c-0.0395041-0.0971317-0.071003-0.2576103-0.1196833-0.2821255C13.8058996,28.7538948,12.5946293,28.1591415,11.3836832,27.5618324
		z M13.9381437,24.4558201c-0.1170502,0.0712376-0.174962,0.2549-0.1657753,0.4725437
		c0.0428419,1.0148621-0.1383924,1.1023159-0.5804558,0.7302055c-0.4123249-0.3470783-0.8721952-0.3751698-1.2939157-0.8314915
		c-0.2776814-0.3004589-0.7209501-0.3046741-1.1554823,0.5288982c2.3920288,0.9852905,4.5632181,3.1957741,7.0020437,2.0998726
		c-0.3539734-0.4700069-0.7145462-0.4538212-1.1213837-0.303154c-0.2356682,0.0872765-0.7571173,0.8011894-0.7568836-0.60112
		c0.3631039-0.8537788,0.7317886-1.6984634,1.0864754-2.5659637c0.1356411-0.3317566,0.2002201-0.7293243-0.1194973-0.7729053
		c-0.8315716-0.113348-1.6392355-0.6461811-2.4814758-0.5544662c-0.1994362,0.0217152-0.4522963-0.0923576-0.4154987,0.5934048
		C13.8359137,23.6536541,14.1896658,24.052887,13.9381437,24.4558201z M10.8124113,22.6343307
		c1.1666222,1.4239616,1.0725861,1.5529423,1.4002275-0.1028976C11.7782612,22.4286652,11.3561335,22.3424339,10.8124113,22.6343307
		z"/>
	<path style="fill:#AF1E28;" d="M30.1144657,16.7965889c0.1072559,0.0244045,0.2145157,0.048811,0.3217754,0.0732689
		c0.29105,0.1557903,0.58531,0.1491032,0.881012,0.0695972c1.2711868,0.1580143,2.5423737,0.3160267,3.8135681,0.4740391
		c0.3559685,0.3491096,0.2037888,1.4725895,0.6460648,1.6907539c-0.0220146,1.2376919,0.0553932,2.4913235-0.1114006,3.7037716
		c-0.0671539,0.4881554-0.0946693,0.772871,0.226181,0.5492764c0.2609062-0.1818199,0.5189285-0.1627712,0.7697678,0.0454578
		c0.0146408,0.0121517-0.0080795,0.331131-0.0492897,0.4624615c-0.2078857,0.6625538-0.4820175,0.0125484-0.7204018,0.1244774
		c-0.0199547,0.0093708-0.0413551,0.0064392-0.062088,0.0092239c-0.1791077-0.0759029-0.3582115-0.1518021-0.5373192-0.227705
		c-0.4953003-0.6725006-1.2043915-0.3864899-1.6895599-1.3649521c0.442131-0.4381027,0.7112923,0.1616421,1.0113945,0.3618298
		c0.2292747,0.1529369,0.3623276,0.044735,0.4879189-0.2591248c0.1262474-0.3054409,0.3237343-0.7096558,0.1722679-1.0582466
		c-0.2514687-0.5787354-0.1110573-1.1936932-0.1459656-1.7897472c0.2064705-0.59375,0.0393791-0.7002697-0.2265549-0.7248936
		c-0.4813805-0.0445728-0.9624863-0.1061459-1.4431381-0.1761684c-1.5891342-0.2314949-3.1756153-0.5490189-4.770956-0.5749149
		c-0.082922,0.0088463-0.1658421,0.0176926-0.2487659,0.0265388c-0.2458,0.0462093-0.4916,0.0924187-0.7374001,0.138628
		c-0.1881008-0.1946087-0.3603458-0.0681839-0.5303116,0.1044006c-0.0770302,0.0132732-0.1540623,0.0265465-0.2310944,0.0398178
		c-0.8170891-0.1095428-1.6186428,0.1344051-2.4182129,0.4235706c-0.1231003,0.0180187-0.2461987,0.0360394-0.3692989,0.05406
		c-0.3399754,0.054472-0.699234-0.2024612-1.0145378,0.250412c-0.1217957,0.0213661-0.2435932,0.0427361-0.365387,0.064106
		c-0.5144901,0.0745201-1.0349655,0.0533524-1.5335464,0.3822384c-0.2470264,0.0563278-0.4940529,0.1126556-0.7410793,0.1689873
		c-0.5022087-0.1273117-1.0410957-0.0943165-1.4748192,0.2639465c-1.1156921,0.9215832-2.2471409,0.5489845-3.3794098,0.5276775
		c-0.017498-0.0387592-0.0393019-0.0592499-0.0654154-0.0614681c-0.0357695-0.257782-0.1276398-0.3564644-0.2540846-0.3570919
		c-0.0760365-0.4313812,0.2712746-0.8198166,0.0322666-1.2677307c0.0346899-0.125267,0.0693798-0.250536,0.1041231-0.3759556
		c0.3005295-0.13344,0.6113214-0.4129028,0.8562822,0.2406425c-0.1096001,0.1863804-0.281374,0.264679-0.3508148,0.7387104
		c1.1143951-0.1831055,2.1548405-0.3724384,3.196743-0.5210571c1.6708088-0.2383308,3.3268509-0.7390804,4.9913177-1.08325
		C26.13941,17.5317039,28.1484966,17.6149578,30.1144657,16.7965889z"/>
	<path style="fill:#AF1E28;" d="M35.7661896,17.4617023c0.6512489,0.3283787,0.4151077-0.9211044,0.6191444-1.3878937
		c0.5825386,0.3044586,1.1731415,0.4338493,1.7746849,0.3253975c0.0861588,0.0072441,0.1723175,0.0144863,0.2584152,0.0217228
		c0.6108818,0.6687622,1.6229591-0.5170374,1.9200783,1.6516819c0.0131149,0.0956955,0.1918068,0.1305771,0.2948761,0.1426296
		c0.5628929,0.065834,1.1262512,0.1156483,1.6894531,0.170969c0.2964706,0.0335445,0.5929413,0.0670834,0.8893356,0.1005955
		c0.1945267,0.268795,0.4094772,0.2446899,0.6276817,0.1736851c0.1281052,0.0215054,0.2562141,0.0430088,0.3842354,0.0644951
		c0.1957207,0.2698269,0.4107819,0.2310028,0.6280899,0.1561489c0.2126045,0.0308533,0.425209,0.0617085,0.6376762,0.0925293
		c0.6167183,0.3622627,1.2500076,0.422224,1.8872833,0.408783c0.1713371,0.0206375,0.3426743,0.0412769,0.5139084,0.0618916
		c0.6570511,0.3955441,1.3460808,0.3210812,2.0148926,0.5447407c-0.4685593,0.682478-0.9226112,1.3010445-1.5763779,1.0226116
		c-0.3941879-0.1678791-0.8284836-0.1836605-1.2387962,0.0540619c-0.2345238,0.0217819-0.4692001,0.0439987-0.7038727,0.0662136
		c-0.0620155-0.0092449-0.1240273-0.0184898-0.186039-0.0277348c-0.1115532-0.0211792-0.223114-0.0423603-0.3346672-0.0635414
		c-0.0856438-0.0077133-0.1712799-0.0154266-0.2569199-0.02314c-0.2358513-0.1218128-0.4625702-0.0013885-0.6898804,0.1035919
		c-0.241066-0.5674419-0.5383072-0.4141006-0.8356361-0.2595482c-0.0874977,0.0042915-0.1750031,0.0085831-0.2625008,0.0128746
		c-0.3666573-0.7404213-0.8252525-0.3253174-1.245285-0.3949242c-0.0816002-0.0162659-0.1632004-0.0325336-0.2447968-0.0487995
		c-0.0835381-0.2110691-0.1695175-0.2115784-0.2578239-0.0119324c-0.1631584-0.0250931-0.3263206-0.0501862-0.4894829-0.0752754
		c-0.4917831-0.52384-0.9903717-0.7105331-1.4826508-0.0306339c-0.1651001,0.2280312-0.3108673,0.1395741-0.3640442-0.1339474
		c-0.1356697-0.6978588-0.4185143-0.6806545-0.7102737-0.7438965c-0.536171-0.1162186-1.0690613-0.2920303-1.604969-0.4140415
		c-0.3487892-0.0794125-0.7058411-0.2205162-0.8853188,0.696497c-0.0772552,0.3947277-0.2464638,0.0733433-0.3713875-0.0284405
		c-0.0551834-0.4057693-0.161438-0.6806793-0.3986244-0.6201305C35.7664604,18.5331955,35.7663231,17.9974499,35.7661896,17.4617023
		z M36.6836739,17.114193c0.0594292,0.6350918,0.1984024,0.8080482,0.4502563,0.8220463
		c0.6907959,0.0384007,1.3804092,0.158474,2.0711937,0.202177c0.1565399,0.009903,0.4422302,0.2620449,0.44133-0.3358192
		c-0.0006561-0.4332104-0.2576828-0.3172703-0.4123573-0.3364487C38.4060249,17.3634758,37.5707054,17.5410519,36.6836739,17.114193
		z"/>
	<path style="fill:#EA6E5F;" d="M47.0906181,21.066185c0.4104652-0.2381554,0.8447609-0.222374,1.2389488-0.0544949
		c0.6537666,0.2784328,1.1078186-0.3401337,1.5762177-1.0226746c0.0872154-0.0204201,0.1745834-0.0407791,0.2619514-0.061142
		c0.0876274,0.1670856,0.1752548,0.3341694,0.2628403,0.5012379c-0.0473671,0.1807308-0.0946846,0.3614826-0.1420059,0.5422325
		c-0.1992874,0.1338196-0.3241196,0.614851-0.5780144,0.4939976c-1.2031479,0.8455868-2.4176445,1.6325626-3.6069145,2.5498695
		c-2.010788,1.5509567-4.1036911,2.5905952-6.1327667,4.0190868c-1.3782997,0.9703274-2.7604179,1.9223576-4.2073021,2.3561058
		c-0.8862457,0.2656746-1.6628456,1.1759644-2.5340767,1.4952049c-0.091259,0.0334415-0.2117462,0.2590561-0.2752151,0.0916862
		c-0.6634254-1.749506-1.6641064-1.1035976-2.523325-1.471489c-0.3497429-0.1497517-0.767519,0.0552349-1.0325928-0.6497402
		c0.6235905,0.0814419,1.2577877,0.0486698,1.8664799,0.2815762c0.4810658,0.1840706,1.0130768-0.1889954,1.4229126,0.283083
		c0.5448036,0.6275539,1.033165,0.4000053,1.554245,0.0938168c0.4357491-0.2560425,0.8745575-0.4959373,1.3038368-0.7904568
		c1.8353157-1.2591591,3.7207832-2.1738567,5.5842018-3.2376137c1.7249565-0.9847088,3.4519348-1.9334602,5.0828552-3.4650936
		c0.1974106-0.1853981,0.4024124-0.2668819,0.4015541-0.8070621C46.7476158,21.7892876,47.5427513,22.4584217,47.0906181,21.066185z
		"/>
	<path style="fill:#EA6E5F;" d="M30.1144657,16.7965889c-1.9659691,0.8183689-3.9750557,0.7351151-5.9601688,1.1455879
		c-1.6644669,0.3441696-3.320509,0.8449192-4.9913177,1.08325c-1.0419025,0.1486187-2.0823479,0.3379517-3.196743,0.5210571
		c0.0694408-0.4740314,0.2412148-0.55233,0.3507042-0.7388973c0.2075577-0.0644302,0.4152241-0.1286774,0.6228905-0.1929226
		c4.1028919-0.6746101,8.2056332-1.3529873,12.3090038-2.0157948
		C29.5382118,16.5521297,29.8359394,16.5581245,30.1144657,16.7965889z"/>
	<path style="fill:#D19F91;" d="M15.3566446,18.9430866c0.2390089,0.4479141-0.1083021,0.8363495-0.0324001,1.2675171
		c-0.073843,0.0817451-0.1368847,0.2180729-0.0673761,0.3547211c0.0929089,0.182663,0.2135334,0.1158829,0.3215952,0.0025845
		c0.0261135,0.0022182,0.0479174,0.0227089,0.0645123,0.0620174c-0.029192,0.1551952-0.0574808,0.3098412-0.0857687,0.4644871
		c-1.107873,0.2214775-2.1627941-0.5832577-3.2550316-0.6693592c0.0228281-0.8417587,0.4350624-0.2359524,0.6109095-0.6440964
		c-0.1495361-0.034029-0.2704191-0.0615368-0.3913021-0.0890484c0.2428551-0.3072605,0.5203619-0.304451,0.7775307-0.2064457
		c0.1727171,0.0658245,0.3745823,0.1266384,0.466114-0.06884C14.2431593,18.3963776,14.8246641,19.0464497,15.3566446,18.9430866z"
		/>
	<path style="fill:#E0DBDC;" d="M16.9398308,18.6146641c-0.2076664,0.0642452-0.4153328,0.1284924-0.6228905,0.1929226
		c-0.2448502-0.6533585-0.5556421-0.3738956-0.8561726-0.2404556c-0.0202169-0.7294579-0.1366243-1.4934502,0.3351879-1.922823
		c0.2171688-0.1976357-0.2253551-0.9882021,0.2158108-1.1747007c0.3146477-0.1330118,0.9076805,0.500042,0.9279842,1.1463232
		C16.9606037,17.2795677,16.9414654,17.9482098,16.9398308,18.6146641z"/>
	<path style="fill:#EA6E5F;" d="M12.5217829,19.6919098c0.120883,0.0275116,0.241766,0.0550194,0.3913021,0.0890484
		c-0.1758471,0.408144-0.5880814-0.1976624-0.6109095,0.6440964c-1.8596106-0.0887871-3.6852779,0.4965019-5.5158682,1.0464001
		c-0.5506253,0.1654034-1.126544-0.0047951-1.6906643-0.0213528c0.0910516-0.0961781,0.1813455-0.2739754,0.2728124-0.2764149
		C7.7755485,21.1095142,10.1218233,19.8813782,12.5217829,19.6919098z"/>
	<path style="fill:#C4C0B4;" d="M50.2885704,20.971344c0.0473213-0.1807499,0.0946388-0.3615017,0.1420059-0.5422306
		c0.1146431,0.1842155,0.2292404,0.3684158,0.3437042,0.5528393c-0.4765167,2.2169456-1.5009155,2.597641-2.5194817,2.9975319
		c0.3593521-1.0020027,1.0115433-0.909853,1.4700241-1.5660858C49.99506,22.0266037,50.3175201,21.795248,50.2885704,20.971344z"/>
	<path style="fill:#D19F91;" d="M35.7661896,17.4617023c0.0001335,0.5357475,0.0002708,1.0714931,0.0002861,1.6069145
		c-0.0001183-0.0003281,0.0105095,0.0348892,0.0105095,0.0348892c-0.4423752-0.2174225-0.2901955-1.3409023-0.6461639-1.690012
		C35.3743248,15.7633171,35.551609,17.5921421,35.7661896,17.4617023z"/>
	<path style="fill:#EA6E5F;" d="M31.3172531,16.9394569c-0.295702,0.079504-0.589962,0.0861912-0.881012-0.0695992
		C30.7336826,16.7027588,31.0261307,16.7876778,31.3172531,16.9394569z"/>
	<path style="fill:#D19F91;" d="M50.2885666,20.9713421c0.0289536,0.8239059-0.2935066,1.0552616-0.5637436,1.4420567
		c-0.4584808,0.6562328-1.110672,0.5640831-1.4700241,1.5660858c-0.0325775,0.0121899-0.0652809,0.0213013-0.0983772,0.0271645
		c-0.088295-0.0143986-0.1764069-0.0286064-0.2645988-0.0426006c-0.0204811-0.029583-0.0408783-0.0593872-0.0612755-0.0891933
		c0.0151558,0.0402699,0.0303078,0.0805416,0.0454636,0.1208153c-0.7550583,0.5400257-1.5177689,1.041441-2.2630615,1.6306801
		c-0.7799759,0.6166496-1.6033669,1.0617046-2.280426,2.123642c-0.0759544,0.0127316-0.1519089,0.0254593-0.228035,0.0379829
		c-0.5256157-0.480135-0.8454208,0.4802017-1.2652206,0.7339802c-1.2689056,0.7670765-2.5484009,1.4875546-3.7886314,2.4137325
		c-1.1530647,0.8610783-2.335865,1.4961853-3.5061836,2.2277374c-0.1307297,0.0817108-0.4432793-0.0184097-0.3090019,0.6404076
		c-0.0744781,0.0093765-0.1489563,0.0187531-0.2236061,0.027977c-0.1659737-0.0462227-0.2578316,0.1089211-0.2904892,0.4251289
		c-0.0745201,0.0167885-0.1490364,0.0335846-0.2236366,0.0504837c-0.0984573-0.265831-0.188076-0.2419891-0.2701187,0.0326347
		c-0.0734863,0.0029945-0.1469727,0.0059853-0.2206802,0.0087013c-0.1132889-0.0394287-0.2140732-0.0111313-0.2809143,0.2035027
		c-0.0777817-0.0020981-0.1555672-0.0041962-0.2334747-0.0060616c-0.5439453-0.7648277-1.1668034-0.7327309-1.7890587-0.7067375
		c-0.0780983-0.0038109-0.1561947-0.0076256-0.2343941-0.0115509c-0.16506-0.3761253-0.3385906-0.3637276-0.5188675-0.0457726
		c-0.0772476-0.0014229-0.1544952-0.0028496-0.2318993-0.003933c-0.0718422-0.6990547-0.4976082-0.4300804-0.6409397-0.9335327
		c1.0353775,0.2854843,2.072258,0.5515404,3.1051388,0.8693657c0.2772865,0.0853271,0.5219765,0.0679398,0.792881-0.1125717
		c1.8098183-1.2059135,3.6321411-2.3375607,5.4390488-3.5602112c3.5305328-2.3889465,7.0529747-4.8253689,10.5151978-7.5924358
		c0.2892532-0.2311745,0.6050224-0.3869743,0.7803574-0.983532C49.9644508,21.586195,50.089283,21.1051636,50.2885666,20.9713421z"
		/>
	<path style="fill:#D19F91;" d="M18.5981045,29.7681274c1.3655872,0.063343,2.6926899,0.7143459,4.0389328,1.0714512
		c1.990078,0.5278988,3.9734173,1.1572227,5.9590359,1.751215c0.0776958,0.023243,0.1493034,0.1276093,0.2237701,0.1942215
		c-0.1887226,0.4349403-0.4098492,0.1986847-0.6323109,0.1521912c-0.5118427-0.1069794-1.0106564-0.4419899-1.5333443-0.3540192
		c-0.1615963-0.0083275-0.3231926-0.0166512-0.4848328-0.0250359c-0.0424347-0.1817436-0.0870838-0.1844864-0.1340065-0.0067902
		c-0.1196899-0.0085182-0.2393818-0.0170326-0.3592129-0.0252914c-0.257019-0.9404716-0.6911392-0.3078384-1.0362873-0.4649849
		c-0.0783768-0.0048141-0.1567497-0.0096245-0.2351913-0.014431c-0.4360256-0.5364132-0.9175205-0.5441093-1.4050045-0.482254
		c-0.0380859-0.0014-0.0760727-0.0060425-0.1139908-0.0139942c-0.0827026-0.2631855-0.1685276-0.2654057-0.2574368-0.0124702
		c-0.1649361-0.0047226-0.3298702-0.0094471-0.4948654-0.0139751c-0.1797256-0.8244019-0.5626869-0.656086-0.8974209-0.7421169
		C20.3463249,30.5531864,19.4402161,30.4907589,18.5981045,29.7681274z"/>
	<path style="fill:#C4C0B4;" d="M34.2354507,33.803833c-0.1342773-0.6588173,0.1782722-0.5586967,0.3090019-0.6404076
		c1.1703186-0.7315521,2.3531189-1.3666592,3.5061836-2.2277374c1.2402306-0.926178,2.5197258-1.646656,3.7886314-2.4137325
		c0.4197998-0.2537785,0.7396049-1.2141151,1.2652206-0.7339802c-0.2066269,1.0159664-0.7448235,0.8509178-1.1222801,1.1214066
		c-1.5310783,1.0971985-3.0820847,2.0969391-4.6328926,3.072506C36.3213463,32.6285515,35.3273735,33.5747681,34.2354507,33.803833z
		"/>
	<path style="fill:#C4C0B4;" d="M43.3325233,27.7499924c0.6770592-1.0619373,1.5004501-1.5069923,2.280426-2.123642
		c0.7452927-0.5892391,1.5080032-1.0906544,2.2630615-1.6306801l0.0158958-0.0318413
		c0.0881081,0.0142136,0.1762199,0.0284214,0.2645149,0.04282c-0.0328827,0.392458-0.1861572,0.5483036-0.3470802,0.6510162
		c-1.4710541,0.9389629-2.896225,2.1179371-4.3273315,3.2669735C43.4492111,27.9509678,43.3830948,27.8119049,43.3325233,27.7499924
		z"/>
	<path style="fill:#C4C0B4;" d="M11.3836832,27.5618324c1.2109461,0.5973091,2.4222164,1.1920624,3.63167,1.8011875
		c0.0486803,0.0245152,0.0801792,0.1849937,0.1196012,0.2829685c0.1008329,0.129158,0.2017479,0.2574768,0.3026619,0.3857975
		c-1.253334-0.1527691-2.4091434-1.2174549-3.6434641-1.5564003C11.5551281,28.4097481,11.3601885,28.1527939,11.3836832,27.5618324
		z"/>
	<path style="fill:#C4C0B4;" d="M18.5981045,29.7681274c0.8421116,0.7226315,1.7482204,0.785059,2.6378345,1.0137157
		c0.334734,0.086031,0.7176952-0.0822849,0.8974209,0.7421207c-1.0897598-0.326952-2.1788692-0.6637592-3.2700138-0.971796
		c-0.2122593-0.0599213-0.4230118-0.0475349-0.5289173-0.5115051c0.0007095-0.1016541,0.0013733-0.2032261,0.0020351-0.3047924
		C18.4236774,29.7466202,18.510891,29.7573719,18.5981045,29.7681274z"/>
	<path style="fill:#C4C0B4;" d="M26.6541882,32.5831833c0.5226879-0.0879669,1.0215015,0.2470436,1.5333443,0.354023
		c0.2224617,0.0464935,0.4435883,0.2827492,0.6323109-0.1521912c0.0857677,0.0197945,0.1715603,0.0396385,0.2574406,0.0595665
		c0.1434193,0.5035439,0.5691853,0.2345695,0.6410275,0.9336243c-0.8960629-0.2397766-1.7918243-0.4864731-2.6889-0.7123413
		C26.8563442,33.0222816,26.6949844,33.007267,26.6541882,32.5831833z"/>
	<path style="fill:#D19F91;" d="M15.4376163,30.031786c-0.100914-0.1283207-0.201829-0.2566395-0.3026619-0.3857975
		c0.6033897-0.0991325,1.2066956-0.1974182,1.8101292-0.2958183c0.0088673,0.5375862-0.4116879,0.3474426-0.3875446,0.9112587
		c-0.0780201,0.0004826-0.1560383,0.0009594-0.2341213,0.0016079c-0.1461239-0.3526745-0.3417616-0.2181149-0.5242977-0.2123566
		C15.6786184,30.0443783,15.5581179,30.0380821,15.4376163,30.031786z"/>
	<path style="fill:#C4C0B4;" d="M30.7034721,33.8394623c0.6222553-0.0259933,1.2451134-0.0580902,1.7890587,0.7067375
		C31.8697948,34.5776176,31.2527428,34.550621,30.7034721,33.8394623z"/>
	<path style="fill:#C4C0B4;" d="M16.557539,30.2614288c-0.0241432-0.5638161,0.3964119-0.3736725,0.3875446-0.9112587
		c0.0888405-0.0211258,0.1778069-0.042366,0.2666245-0.0636024c0.1647625,0.3998013,0.4590645,0.1678066,0.6341801,0.5177898
		C17.4323921,30.1359482,17.0091496,30.3580341,16.557539,30.2614288z"/>
	<path style="fill:#D19F91;" d="M17.8458881,29.8043575c-0.1751156-0.3499832-0.4694176-0.1179886-0.6341801-0.5177898
		c0.4498177-0.5955048,0.7779598,0.0205593,1.1248055,0.4494762c-0.0007114,0.1013927-0.0013752,0.2029648-0.0020847,0.3046188
		C18.1715508,29.9619522,18.0087185,29.8831558,17.8458881,29.8043575z"/>
	<path style="fill:#C4C0B4;" d="M22.9996529,31.5643997c0.487484-0.0618553,0.9689789-0.0541592,1.4050045,0.482254
		C23.8931465,32.3878021,23.4458694,31.9822559,22.9996529,31.5643997z"/>
	<path style="fill:#C4C0B4;" d="M24.6398487,32.0610847c0.3451481,0.1571465,0.7792683-0.4754868,1.0362873,0.4649849
		C25.328886,32.3879242,24.8964386,33.0060959,24.6398487,32.0610847z"/>
	<path style="fill:#C4C0B4;" d="M15.7991199,30.0506802c0.1825361-0.0057583,0.3781738-0.1403179,0.5242977,0.2123566
		C16.1037407,30.6349106,15.9127045,30.7242336,15.7991199,30.0506802z"/>
	<path style="fill:#C4C0B4;" d="M29.9502106,33.7821426c0.1802769-0.3179588,0.3538074-0.3303566,0.5188675,0.0457687
		C30.288662,34.1521721,30.114706,34.1802902,29.9502106,33.7821426z"/>
	<path style="fill:#C4C0B4;" d="M32.7260056,34.5522614c0.0668411-0.2146339,0.1676254-0.2429314,0.2809143-0.2035027
		C32.9586639,34.6661987,32.9052124,34.9559174,32.7260056,34.5522614z"/>
	<path style="fill:#C4C0B4;" d="M33.7213554,34.2569389c0.0326576-0.3162079,0.1245155-0.4713516,0.2904892-0.4251289
		C33.982563,34.1574593,33.8990173,34.3354874,33.7213554,34.2569389z"/>
	<path style="fill:#C4C0B4;" d="M33.2276001,34.3400574c0.0820427-0.2746239,0.1716614-0.2984657,0.2701187-0.0326347
		C33.4156151,34.5773697,33.3253517,34.58181,33.2276001,34.3400574z"/>
	<path style="fill:#C4C0B4;" d="M22.6282253,31.5379314c0.0889091-0.2529316,0.1747341-0.2507114,0.2574368,0.0124702
		C22.7998714,31.5462894,22.7140484,31.5421124,22.6282253,31.5379314z"/>
	<path style="fill:#C4C0B4;" d="M26.0353489,32.5513611c0.0469227-0.1776962,0.0915718-0.1749535,0.1340065,0.0067902
		C26.1247139,32.5559273,26.0800323,32.5536461,26.0353489,32.5513611z"/>
	<path style="fill:#D19F91;" d="M46.6143646,22.2142944c0.0009422,0.5402012-0.2040596,0.621685-0.4014702,0.8070831
		c-1.6309204,1.5316334-3.3578987,2.4803848-5.0828552,3.4650936c-1.8634186,1.0637569-3.7488861,1.9784546-5.5842018,3.2376137
		c-0.4292793,0.2945194-0.8680878,0.5344143-1.3038368,0.7904568c-0.52108,0.3061886-1.0094414,0.5337372-1.554245-0.0938168
		c-0.4098358-0.4720783-0.9418468-0.0990124-1.4229126-0.283083c-0.6086922-0.2329063-1.2428894-0.2001343-1.8664799-0.28158
		c-0.0587292-0.01054-0.1170654-0.021452-0.1756783-0.0324612c-0.2468433-0.4791279-0.5468464-0.2700901-0.8316021-0.2574234
		c-0.059063-0.001543-0.118124-0.0030842-0.1774864-0.0046883c-0.1632862-0.3982792-0.3779202-0.2816563-0.5856266-0.2340984
		c-0.0569458,0.0000458-0.1138916,0.0000877-0.1711063,0c-0.2455597-0.5082283-0.5503922-0.2582169-0.8353271-0.2615318
		c-0.0582523-0.0059509-0.1165066-0.0119019-0.1750774-0.0179214c-0.1675129-0.3890896-0.3799591-0.2717781-0.5875092-0.2092381
		c-0.0571156-0.0034237-0.1142311-0.0068474-0.1715965-0.0104351c-0.2432995-0.5231209-0.5486164-0.2731018-0.8342075-0.2679443
		c-0.0572128-0.0032959-0.1144257-0.0065975-0.1719589-0.0099392c-0.1675682-0.3906288-0.3797321-0.2971535-0.5905342-0.2183514
		c-0.1400223-0.0137234-0.2800465-0.0274448-0.4204025-0.0412426c-0.2073936-0.4408779-0.4650936-0.258503-0.710289-0.2300243
		c-0.4382591-0.0893078-0.8765182-0.1786118-1.3150463-0.2680702c-0.2699642-0.6103287-0.6103649-0.5890579-0.9660606-0.4311943
		c-0.0576591-0.0115547-0.1153202-0.0231094-0.173193-0.0348606c-0.2003441-0.4751129-0.4590454-0.2935276-0.7053452-0.2509346
		c-0.0589008-0.0008812-0.1178036-0.0017605-0.176918-0.0028801c-0.0864754-0.3135567-0.1873131-0.3382473-0.3033886-0.0612755
		c-0.1036491-0.0149593-0.2073002-0.0299225-0.3112774-0.0448971c-0.0487232-0.2450981-0.0971127-0.4901867-0.145504-0.7352715
		c0.6193848,0.1746826,1.2388916,0.3476982,1.8581352,0.5243683c1.67066,0.476635,3.3495846,0.8617592,5.0095806,1.4571056
		c1.8701859,0.6707325,3.7569675,1.0527859,5.6357002,1.5732059c1.0219746,0.2830925,1.9992085-0.2086334,2.9561634-0.6689377
		c0.6642036-0.3194828,1.3575592-0.3220673,2.0020866-0.8262444c0.3604431-0.2819614,0.6831703-0.7022495,1.0304222-1.0063305
		c0.589386-0.5161247,1.2521019-0.4888763,1.8751373-0.7722912c1.0088539-0.4589195,2.0136757-0.9533253,3.0193977-1.4393501
		c0.5011368-0.2421799,1.0029259-0.3815937,1.4947205-0.8120861C44.6725807,23.4484711,45.6547203,22.8826027,46.6143646,22.2142944
		z"/>
	<path style="fill:#D19F91;" d="M26.9401722,18.494381c0.0770302-0.0132732,0.1540623-0.0265465,0.2311459-0.0398941
		c0.1950264,0.3349209,0.3721638,0.3083115,0.5302582-0.1043262c0.2458-0.0462093,0.4916-0.0924187,0.7373714-0.1387215
		c0.0887547,0.2109356,0.1720505,0.2155228,0.2487946-0.0264454c1.5953407,0.0258961,3.1818218,0.34342,4.770956,0.5749149
		c0.4806519,0.0700226,0.9617577,0.1315956,1.4431381,0.1761684c0.265934,0.0246239,0.4330254,0.1311436,0.226532,0.7253456
		c-0.3982887-0.0194035-0.7966461-0.0341091-1.1948166-0.0600643c-1.3165169-0.0858154-2.6099262-0.689394-3.9319878-0.6776733
		c-1.260294,0.0111732-2.5028648,0.4643097-3.7571392,0.6349125c-2.221344,0.3021431-4.423996,1.1835327-6.6584358,1.3988018
		c-0.1719551,0.0165653-0.3809738,0.0164318-0.3328362,0.510458c0.1115303,1.1446285-0.2129517,2.0414753-0.3904743,3.0236435
		c-0.0385742-0.1011944-0.0771484-0.2023849-0.1157246-0.3035774c0.0003643-0.1402206,0.0007286-0.2804375,0.0009899-0.420927
		c0.0622749-0.5994015,0.2689877-1.3425274,0.1614532-1.7721424c-0.4134121-1.651638,0.2775383-1.3483944,0.6367779-1.5269947
		c0.3282757-0.163208,0.7214184,0.1222401,0.9519329-0.630106c0.2470264-0.0563316,0.4940529-0.1126595,0.7411003-0.1688995
		c0.5533047,0.5457668,1.0496101,0.1807289,1.5335255-0.3823261c0.1217937-0.0213699,0.2435913-0.0427399,0.3653812-0.0642433
		c0.3570938,0.2222748,0.7215347,0.5633869,1.0145435-0.2502747c0.1231003-0.0180206,0.2461987-0.0360413,0.3693275-0.0539932
		c0.7983341,0.4822063,1.5745392-0.0492001,2.3583851-0.214035C26.9037323,18.69907,26.9203892,18.5671082,26.9401722,18.494381z"/>
	<path style="fill:#D19F91;" d="M13.9362841,23.2520752c-0.036787-0.6861935,0.216073-0.5721207,0.4155092-0.5938358
		c0.8422403-0.0917149,1.6499043,0.4411182,2.4814758,0.5544662c0.3197174,0.043581,0.2551384,0.4411488,0.1194973,0.7729053
		c-0.3546867,0.8675003-0.7233715,1.7121849-1.086771,2.5660706c-0.2722473-0.0791302-0.5383368,0.1366482-0.7940884,0.1322556
		c-0.4546738-0.0078125-1.0535297,0.2851295-1.140727-1.2022877c0.2245417,0.0410881,0.459753-0.0768108,0.6650763,0.2305164
		c0.2149525,0.3217411,0.4667597,0.4975929,0.667942,0.035984c0.2566748-0.5889339,0.2923851-1.3403721,0.1951199-2.0713196
		c-0.0810995-0.6094723-0.3655605-0.4303017-0.5831499-0.4398441
		C14.5630798,23.2232533,14.2495985,23.2452984,13.9362841,23.2520752z"/>
	<path style="fill:#EA6E5F;" d="M13.931179,25.4816494c0.0871983,1.4874172,0.6860542,1.1944752,1.140728,1.2022877
		c0.2557516,0.0043926,0.521841-0.2113857,0.7940884-0.1322556c0.000062,1.4022026,0.5215111,0.6882896,0.7571793,0.6010132
		c0.4068375-0.1506672,0.7674103-0.166853,1.1213837,0.303154c-2.4388256,1.0959015-4.6100149-1.1145821-7.0020437-2.0998726
		c0.4345322-0.8335724,0.8778009-0.8293571,1.1554823-0.5288982c0.4217205,0.4563217,0.8815908,0.4844131,1.2939157,0.8314915
		c0.4420633,0.3721104,0.6232977,0.2846565,0.5804558-0.7302055c-0.0091867-0.2176437,0.0487251-0.4013062,0.1654749-0.4722195
		C13.935421,24.7981987,13.9333,25.1399212,13.931179,25.4816494z"/>
	<path style="fill:#EA6E5F;" d="M20.4981079,19.8377533c-0.2305145,0.752346-0.6236572,0.466898-0.9519329,0.630106
		c-0.3592396,0.1786003-1.05019-0.1246433-0.6367779,1.5269947c0.1075344,0.429615-0.0991783,1.1727409-0.1614532,1.7721424
		c-0.0118141-0.3321705-0.038435-0.6655807-0.0329285-0.9968643c0.0174656-1.0504875-0.2411385-1.3672848-0.7433357-1.3137722
		c-0.8092709,0.086237-1.6275082,0.2193947-2.4144859-0.3625526c0.0283012-0.1540394,0.0565901-0.3086853,0.0857821-0.4638805
		c1.133172,0.0207577,2.2646208,0.3933563,3.3803129-0.5282269C19.4570122,19.7434368,19.9958992,19.7104416,20.4981079,19.8377533z
		"/>
	<path style="fill:#C4C0B4;" d="M13.931179,25.4816494c0.002121-0.3417282,0.0042419-0.6834507,0.0066643-1.0255051
		c0.2518225-0.4032574-0.1019297-0.8024902-0.0015535-1.2042847c0.3133087-0.0065613,0.62679-0.0286064,0.9398785-0.0148735
		c0.2175894,0.0095425,0.5020504-0.1696281,0.5831499,0.4398441c0.0972652,0.7309475,0.0615549,1.4823856-0.1951199,2.0713196
		c-0.2011824,0.4616089-0.4529896,0.2857571-0.667942-0.035984C14.390933,25.4048386,14.1557217,25.5227375,13.931179,25.4816494z"
		/>
	<path style="fill:#EA6E5F;" d="M10.8124113,22.6343307c0.5437222-0.2918968,0.9658499-0.2056656,1.4002275-0.1028976
		C11.8849974,24.187273,11.9790335,24.0582924,10.8124113,22.6343307z"/>
	<path style="fill:#EA6E5F;" d="M18.7469559,24.1879234c0.0385742,0.1011925,0.0771484,0.202383,0.1155643,0.3036232
		c0.0001316,0.579977,0.0004196,1.1599064,0.0007076,1.7398319c0.0483913,0.2450848,0.0967808,0.4901733,0.145504,0.7352715
		c-0.2055683,0.0231419-0.4912071,0.135252-0.382637-0.5525417C18.7430687,25.6730633,18.6491165,24.9150009,18.7469559,24.1879234z
		"/>
	<path style="fill:#EA6E5F;" d="M20.678854,27.3614979c0.3556957-0.1578636,0.6960964-0.1791344,0.9660606,0.4311943
		C21.2968273,27.8834305,20.9472694,27.9847393,20.678854,27.3614979z"/>
	<path style="fill:#EA6E5F;" d="M28.3910828,29.5661774c0.2847557-0.0126667,0.5847588-0.2217045,0.8316021,0.2574272
		C28.9166622,30.1113167,28.620079,30.2738304,28.3910828,29.5661774z"/>
	<path style="fill:#EA6E5F;" d="M26.6215363,29.0658588c0.284935,0.003315,0.5897675-0.2466965,0.8353271,0.2615318
		C27.1487541,29.6202011,26.851572,29.7703457,26.6215363,29.0658588z"/>
	<path style="fill:#EA6E5F;" d="M24.8531456,28.5603237c0.2855911-0.0051613,0.5909081-0.2551804,0.8342075,0.2679443
		C25.379549,29.1100082,25.0814247,29.2683735,24.8531456,28.5603237z"/>
	<path style="fill:#EA6E5F;" d="M22.9599609,28.0607624c0.2451954-0.0284786,0.5028954-0.2108536,0.710289,0.2300243
		C23.4005718,28.6220455,23.1505508,28.7071877,22.9599609,28.0607624z"/>
	<path style="fill:#EA6E5F;" d="M19.8003159,27.0757027c0.2462997-0.042593,0.5050011-0.2241783,0.7053452,0.2509346
		C20.2373466,27.6164837,19.9885178,27.6855469,19.8003159,27.0757027z"/>
	<path style="fill:#EA6E5F;" d="M24.0906525,28.3320332c0.2108021-0.0788059,0.422966-0.1722813,0.5905342,0.2183475
		C24.446413,28.8889389,24.2439079,28.8760071,24.0906525,28.3320332z"/>
	<path style="fill:#EA6E5F;" d="M25.8589497,28.8386993c0.20755-0.0625401,0.4199963-0.1798515,0.5875092,0.2092419
		C26.2137413,29.3934765,26.0124626,29.3834267,25.8589497,28.8386993z"/>
	<path style="fill:#EA6E5F;" d="M27.6279697,29.3273945c0.2077065-0.0475616,0.4223404-0.1641846,0.5856266,0.2340946
		C27.9753151,29.91506,27.7743969,29.8929539,27.6279697,29.3273945z"/>
	<path style="fill:#EA6E5F;" d="M19.3200092,27.0115471c0.1160755-0.2769718,0.2169132-0.2522812,0.3033886,0.0612755
		C19.50947,27.3071327,19.4097404,27.2576618,19.3200092,27.0115471z"/>
	<path style="fill:#C4C0B4;" d="M18.8632278,26.2313786c-0.000288-0.5799255-0.000576-1.1598549-0.0007076-1.7398319
		c0.177681-0.982214,0.5021629-1.8790607,0.3906326-3.0236893c-0.0481377-0.4940262,0.160881-0.4938927,0.3328362-0.510458
		c2.2344398-0.2152691,4.4370918-1.0966587,6.6584358-1.3988018c1.2542744-0.1706028,2.4968452-0.6237392,3.7571392-0.6349125
		c1.3220615-0.0117207,2.6154709,0.5918579,3.9319878,0.6776733c0.3981705,0.0259552,0.7965279,0.0406609,1.1948166,0.0600643
		c0.0349312,0.595602-0.1054802,1.2105598,0.1459885,1.7892952c0.1514664,0.3485909-0.0460205,0.7528057-0.1722679,1.0582466
		c-0.1255913,0.3038597-0.2586441,0.4120617-0.4879189,0.2591248c-0.3001022-0.2001877-0.5692635-0.7999325-1.0113945-0.3618298
		c0.4851685,0.9784622,1.1942596,0.6924515,1.6892052,1.3644562c-0.1570969,0.2628727-0.1727753,0.6129131-0.1522903,0.9851742
		c-0.0589333,0.7688293-0.1178665,1.5376606-0.1767998,2.306488c-0.1948814,0.0620956-0.5304489-0.3185787-0.53302,0.3681335
		c-0.0020332,0.5423393,0.3385391,0.3038368,0.5162392,0.3540211c0.2780151,0.0785198,0.5779266,0.0762272,0.8495903-0.0520115
		c0.241581-0.1140347-0.0455704-0.2937164-0.0341034-0.4641418c-0.0080986-0.6900291-0.0161972-1.3800583-0.0242958-2.0700874
		c0.0307846-0.3997936,0.0615692-0.7995834,0.0923538-1.1993752c0.0207329-0.0027847,0.0421333,0.0001469,0.062088-0.0092239
		c0.2383842-0.1119289,0.512516,0.5380764,0.7204018-0.1244774c0.0412102-0.1313305,0.0639305-0.4503098,0.0492897-0.4624615
		c-0.2508392-0.2082291-0.5088615-0.2272778-0.7697678-0.0454578c-0.3208504,0.2235947-0.293335-0.061121-0.226181-0.5492764
		c0.1667938-1.2124481,0.089386-2.4660797,0.1114006-3.7037716c0,0-0.0105286-0.0359592-0.0104103-0.0356312
		c0.2373085-0.0602226,0.3435631,0.2146873,0.3986206,0.62043c-0.0687065,0.7738667,0.1548691,1.1031799,0.5529327,1.0814762
		c1.0373192-0.0565529,2.1103134-0.5124416,3.057251,0.8334293c0.0474129,0.0673962,0.2033501,0.0259762,0.2214279-0.0488644
		c0.3360596-1.3911018,0.9285316-1.1877384,1.5212555-1.0153313c0.0168381,0.0048981,0.0437126-0.1277218,0.0659027-0.1962204
		c0.1631622,0.0250893,0.3263245,0.0501823,0.4894753,0.0753651c0.0825081,0.303587,0.1684418,0.3085594,0.2578316,0.0118427
		c0.0815964,0.0162659,0.1631966,0.0325336,0.2447968,0.0487652c0.1197777,0.5167751,0.7994461,0.7323551,1.245285,0.3949585
		c0.0874977-0.0042915,0.1750031-0.0085831,0.2625084-0.0135326c0.2338562,0.6568661,0.5486717,0.280674,0.8356285,0.2602062
		c0.2273102-0.1049805,0.4540291-0.2254047,0.6899071-0.1036625c0.0809822,0.2130356,0.1666107,0.2204475,0.2568932,0.0232105
		c0.1115532,0.0211811,0.223114,0.0423622,0.3348656,0.0631351c0.0075684,0.0986328,0.006134,0.2757397,0.0237846,0.2836819
		c0.0943909,0.0424614,0.1343956-0.1008587,0.162056-0.2555408c0.2346725-0.0222149,0.4693489-0.0444317,0.7038727-0.0662136
		c0.4519806,1.3926697-0.3431549,0.7235355-0.4763222,1.1485634c-0.9597282,0.6682873-1.9418678,1.2341557-2.8698769,2.0465031
		c-0.4917946,0.4304924-0.9935837,0.5699062-1.4947205,0.8120861c-1.005722,0.4860249-2.0105438,0.9804306-3.0193977,1.4393501
		c-0.6230354,0.2834148-1.2857513,0.2561665-1.8751373,0.7722912c-0.3472519,0.304081-0.6699791,0.724369-1.0304222,1.0063305
		c-0.6445274,0.5041771-1.337883,0.5067616-2.0020866,0.8262444c-0.956955,0.4603043-1.9341888,0.9520302-2.9561634,0.6689377
		c-1.8787327-0.5204201-3.7655144-0.9024734-5.6357002-1.5732059c-1.659996-0.5953465-3.3389206-0.9804707-5.0095806-1.4571056
		C20.1021194,26.5790768,19.4826126,26.4060612,18.8632278,26.2313786z"/>
	<path style="fill:#EA6E5F;" d="M26.9401722,18.494381c-0.019783,0.0727272-0.0364399,0.204689-0.0598011,0.2096004
		c-0.7838459,0.164835-1.560051,0.6962414-2.3583851,0.214035C25.3215275,18.6287842,26.1230812,18.3848362,26.9401722,18.494381z"
		/>
	<path style="fill:#EA6E5F;" d="M35.8296547,23.9989128c-0.0307846,0.3997955-0.0615692,0.7995853-0.0921936,1.1995754
		c-0.2472992,0.1117496-0.4530754-0.0010529-0.5977707-0.4425983c-0.0204849-0.372261-0.0048065-0.7223015,0.1522903-0.9851742
		C35.4714432,23.8471146,35.650547,23.9230137,35.8296547,23.9989128z"/>
	<path style="fill:#EA6E5F;" d="M22.7727337,19.2865276c-0.4839153,0.563055-0.9802208,0.928093-1.5335255,0.3823261
		C21.7377682,19.33988,22.2582436,19.3610477,22.7727337,19.2865276z"/>
	<path style="fill:#EA6E5F;" d="M24.1526585,18.9720097c-0.2930088,0.8136616-0.6574497,0.4725494-1.0145435,0.2502747
		C23.4534245,18.7695484,23.8126831,19.0264816,24.1526585,18.9720097z"/>
	<path style="fill:#EA6E5F;" d="M27.7015762,18.3501606c-0.1580944,0.4126377-0.3352318,0.4392471-0.5302582,0.1043262
		C27.3412304,18.2819767,27.5134754,18.1555519,27.7015762,18.3501606z"/>
	<path style="fill:#EA6E5F;" d="M15.5784636,20.5679092c-0.1080618,0.1132984-0.2286863,0.1800785-0.3215952-0.0025845
		c-0.0695086-0.1366482-0.0064669-0.2729759,0.0673761-0.3547211
		C15.4508238,20.2114449,15.5426941,20.3101273,15.5784636,20.5679092z"/>
	<path style="fill:#EA6E5F;" d="M28.6877422,18.1849937c-0.0767441,0.2419682-0.1600399,0.237381-0.2487946,0.0264473
		C28.5219002,18.2026863,28.6048203,18.19384,28.6877422,18.1849937z"/>
	<path style="fill:#D19F91;" d="M41.5838661,20.3435364c-0.0221901,0.0684986-0.0490646,0.2011185-0.0659027,0.1962204
		c-0.5927238-0.1724072-1.1851959-0.3757706-1.5212555,1.0153313c-0.0180779,0.0748405-0.174015,0.1162605-0.2214279,0.0488644
		c-0.9469376-1.345871-2.0199318-0.8899822-3.057251-0.8334293c-0.3980637,0.0217037-0.6216393-0.3076096-0.5529327-1.0814762
		c0.1250496,0.1018105,0.2942581,0.4231949,0.3715134,0.0284672c0.1794777-0.9170132,0.5365295-0.7759094,0.8853188-0.696497
		c0.5359077,0.1220112,1.0687981,0.297823,1.604969,0.4140415c0.2917595,0.063242,0.574604,0.0460377,0.7102737,0.7438965
		c0.0531769,0.2735214,0.1989441,0.3619785,0.3640442,0.1339474C40.5934944,19.6330032,41.092083,19.8196964,41.5838661,20.3435364z
		"/>
	<path style="fill:#D19F91;" d="M36.6836739,17.114193c0.8870316,0.4268589,1.7223511,0.2492828,2.5504227,0.3519554
		c0.1546745,0.0191784,0.4117012-0.0967617,0.4123573,0.3364487c0.0009003,0.5978642-0.28479,0.3457222-0.44133,0.3358192
		c-0.6907845-0.0437031-1.3803978-0.1637764-2.0711937-0.202177C36.8820763,17.9222412,36.743103,17.7492847,36.6836739,17.114193z"
		/>
	<path style="fill:#D19F91;" d="M43.8212547,20.8744678c-0.4458389,0.3373966-1.1255074,0.1218166-1.245285-0.3949585
		C42.9960022,20.5491505,43.4545975,20.1340466,43.8212547,20.8744678z"/>
	<path style="fill:#D19F91;" d="M44.9193916,21.1211414c-0.2869568,0.0204678-0.6017723,0.3966599-0.8356285-0.2602062
		C44.3810844,20.7070408,44.6783257,20.5536995,44.9193916,21.1211414z"/>
	<path style="fill:#D19F91;" d="M42.3311729,20.4307461c-0.0893898,0.2967148-0.1753235,0.2917423-0.2578316-0.0118446
		C42.1616554,20.2191658,42.2476349,20.2196751,42.3311729,20.4307461z"/>
	<path style="fill:#D19F91;" d="M46.386898,21.1319656c-0.0276604,0.1546822-0.0676651,0.2980022-0.162056,0.2555408
		c-0.0176506-0.0079422-0.0162163-0.1850491-0.0237846-0.2836819C46.2628708,21.1134758,46.3248825,21.1227207,46.386898,21.1319656
		z"/>
	<path style="fill:#D19F91;" d="M45.8661919,21.0406895c-0.0902824,0.197237-0.1759109,0.1898251-0.2568932-0.0232105
		C45.694912,21.0252628,45.7805481,21.0329762,45.8661919,21.0406895z"/>
	<path style="fill:#C4C0B4;" d="M47.8760109,23.9956703c-0.0151558-0.0402737-0.0303078-0.0805454-0.0454636-0.1208153
		c0.0203972,0.0298061,0.0407944,0.0596104,0.0612755,0.0891933L47.8760109,23.9956703z"/>
	<path style="fill:#D19F91;" d="M35.1396904,24.7558899c0.1446953,0.4415455,0.3504715,0.554348,0.5977707,0.4425983
		c0.0079384,0.6898327,0.016037,1.3798618,0.0241432,2.0697975c-0.2500267-0.3193436-0.5860367,0.6911869-0.7987137-0.2059078
		C35.0218239,26.2935505,35.0807571,25.5247192,35.1396904,24.7558899z"/>
	<path style="fill:#E0DBDC;" d="M34.9628906,27.0623779c0.212677,0.8970947,0.548687-0.1134357,0.7987137,0.2059078
		c-0.0114746,0.1705189,0.2756767,0.3502007,0.0340958,0.4642353c-0.2716637,0.1282387-0.5715752,0.1305313-0.8495903,0.0520115
		c-0.1777-0.0501842-0.5182724,0.1883183-0.5162392-0.3540211C34.4324417,26.7437992,34.7680092,27.1244736,34.9628906,27.0623779z"
		/>
</g>
</svg>
