<?xml version="1.0" encoding="utf-8"?>
<!-- Generator: Adobe Illustrator 21.1.0, SVG Export Plug-In . SVG Version: 6.00 Build 0)  -->
<svg version="1.1" id="Слой_1" xmlns="http://www.w3.org/2000/svg" xmlns:xlink="http://www.w3.org/1999/xlink" x="0px" y="0px"
	 viewBox="0 0 55 45" style="enable-background:new 0 0 55 45;" xml:space="preserve">
<g>
	<path style="fill:#B1AEAF;" d="M3.534327,26.651659c0.2678828-0.2523079,0.1027384-0.6056271,0.2083154-0.8953857
		c1.1552453,0.3690224,2.3712931,0.2053986,3.5653734,0.4776917c2.1372213,0.4873638,4.3562641,0.6044216,6.5298519,0.9475555
		c1.6404562,0.2589741,3.2998257,0.3145599,4.9380951,0.6518555c2.0153561,0.4149323,4.0710964,0.689167,6.1229935,0.8449879
		c0.8685703,0.0659618,1.6491203,0.4539948,2.534235,0.42202c0.6495075-0.0234547,0.928709-0.3494816,0.9700432-0.8561134
		c0.0424042-0.5197849-0.2590771-0.8822212-0.8187847-1.0596848c-1.2091122-0.3833714-2.4775352-0.2931919-3.6994343-0.5331764
		c-2.2268734-0.4373741-4.4833717-0.6190815-6.7356987-0.844944c-0.9290752-0.0931721-1.924572-0.5787754-2.7283049-0.4450912
		c-1.3478718,0.2241879-2.530592-0.4058418-3.8140802-0.3009987c-0.3432865,0.0280437-0.7448397,0.0694351-1.0903788-0.0223579
		c-1.8470001-0.4906445-3.7224579-0.5742111-5.6162853-0.46665l-0.0414774-0.0011406
		c0.1259174-1.0877113,0.2488825-2.1757889,0.38076-3.2627869c0.0218964-0.1804752,0.1575675-0.2933121,0.3131466-0.3765678
		c0.7508616-0.0065689,1.5016932-0.0130978,2.2525239-0.0196266c2.0765104,0.2539406,4.1619949,0.1895256,6.2460833,0.1762371
		c0.2913656,0.0010662,0.5826912,0.0019855,0.8740177,0.0029049c0.8073483,0.0007935,1.6146965,0.0015888,2.4220448,0.0023823
		c0.3481445,0.0018387,0.6962891,0.0036755,1.0444336,0.0055141c3.9903965-0.1130276,7.9739723,0.2832928,11.9645023,0.1601887
		c0.1198425,0.0620632,0.239687,0.1241245,0.3595295,0.1861877c-0.0007305,0.3482571-0.0014591,0.696516-0.0021896,1.0447712
		c-0.2096329,0.1332855-0.1786556,0.3329906-0.1470947,0.5328579c-0.0811081,0.4040012,0.0343285,0.788765,0.1151714,1.176918
		c-0.2106266,0.0422878-0.3274403,0.1549492-0.2884216,0.3845024c-0.0744591,0.5990047-0.0344505,1.2006969-0.1229534,1.8063145
		c-0.1817055,1.2434101-0.2503891,2.5033379-0.3655968,3.7564678c-0.0076027,0.0999966-0.0152035,0.1999969-0.0228043,0.2999935
		c-0.1890049,1.5599041-0.3780136,3.1198101-0.5670185,4.6797123c-0.1403275,0.0176544-0.2696781,0.0527534-0.325489,0.2047577
		c-0.1168213,0.0592194-0.2822208,0.1282234-0.2149372,0.269268c0.0329132,0.0689926,0.2391434,0.0553055,0.3669262,0.0790443
		c0.0061169,0.1076126,0.0122318,0.2152252,0.0183468,0.322834c0.0928955,0.3786354-0.3472424,0.5437355-0.353569,0.8826218
		c-0.00457,0.0589828-0.0091438,0.1179657-0.0137177,0.1769524c-0.382803-0.007534-0.6194191-0.4592819-1.0429001-0.3432121
		c-0.0546818-0.0022659-0.1093159-0.0054016-0.1638947-0.0094032c-0.0149384-0.6874847-0.9427452-0.5190582-1.0552635-1.1358871
		c-0.0740128-0.4057198-0.4396458-0.5483665-0.7798653-0.5715752c-2.0582371-0.140419-3.8559494-1.2445526-5.9150791-1.4968948
		c-1.6646061-0.2039909-3.2671394-0.9594193-4.9563169-1.2142105c-0.8446255-0.1273994-1.6672153-0.5854664-2.5596857-0.2554436
		c-0.3467464-0.0593758-0.6934919-0.1187477-1.0402403-0.1781425c-0.3976946-0.54776-1.1128645-0.1757259-1.5728769-0.542923
		c-0.0685892-0.4065781-0.4110727-0.4090633-0.7100396-0.503233c-1.4946628-0.4707813-3.0802693-0.6429958-4.4974527-1.3674488
		c-0.3237147-0.0451508-0.3461435-0.2389374-0.2538378-0.4996128C3.5079732,28.2011356,3.5342193,27.4278564,3.534327,26.651659z"/>
	<path style="fill:#CBC9CB;" d="M13.9253216,21.0903873c-0.2913265-0.0009193-0.5826521-0.0018387-0.8740177-0.0029049
		c0.0379982-0.4491482-0.23174-0.5158901-0.5979881-0.5104179c-0.8063307,0.0120468-1.6129723,0.0015678-2.4194784,0.0038776
		c-0.4845581,0.0013885-0.9129801-0.0967197-1.1650352-0.5732441c-0.2508965-0.4743328,0.1015959-0.7403355,0.3407831-1.0537281
		c0.3138971-0.411274,0.6420021-0.8181934,0.5554285-1.3949966c-0.0161676-0.1077175-0.0111151-0.276886,0.0547848-0.3299217
		c0.9893188-0.7962093,0.1091404-1.0073147-0.4079819-1.3327866c1.0989361-0.1719751,2.1978703-0.3439608,3.2968035-0.5159445
		c0.1722002,0.0027485,0.3443995,0.005497,0.5165997,0.0082445c0.0324278,1.161993,0.2686281,1.4542809,1.281827,1.5283413
		c0.4910078,0.0358925,0.8803616-0.2417774,1.2398462-0.5217133c0.2993374-0.2330971,0.5828209-0.5022306,0.9772949-0.4871817
		c0.7750874,0.0295677,0.9140873-0.2566872,0.4931946-0.8782024c1.8209629-0.1931677,3.6369324-0.4240608,5.4672813-0.5386438
		c1.2266502-0.076787,2.445919-0.2668314,3.6738052-0.3745604c2.5086765-0.2201014,4.999712-0.640089,7.5270443-0.6490812
		c-0.2409477,0.377779-0.5717964,0.7155476-0.5393867,1.2145815c-0.4667473,0.2678852-0.3968201,0.8449373-0.6965065,1.2090626
		c-0.2927208,0.159482-0.4207497,0.4217119-0.5565758,0.7226877c-0.7383518,1.6361332-1.3956261,3.3140163-2.3772125,4.8308048
		c-0.1198425-0.0620632-0.239687-0.1241245-0.3595085-0.1859989c-0.1215172-0.1895218,0.360569-0.6571484-0.0835972-0.5661602
		c-0.60495,0.1239223-1.1608849-0.2284355-1.6950722-0.0540676c-1.0176601,0.3321819-2.0542011,0.0372295-3.1003513,0.2081776
		c-1.3460617,0.2199554-2.7847462-0.1856441-4.1862583-0.2253075c-0.9094563-0.0257378-1.824297,0.1153812-2.7348175,0.2018204
		c-0.0629482,0.0059757-0.1099873,0.179533-0.1644268,0.2751598c-0.3481445-0.0018387-0.6962891-0.0036755-1.0443916-0.0054264
		C15.8749094,20.6060772,14.4035273,20.6045227,13.9253216,21.0903873z"/>
	<path style="fill:#F4EEF2;" d="M47.2219238,14.8569489c0.6314354,0.9849644,1.151062,2.025692,1.5575829,3.1228485
		c-0.0877533,0.0477982-0.2421303,0.085638-0.2510719,0.1452789c-0.0283279,0.1889553,0.150238,0.1760826,0.2741814,0.2063217
		c0.0140533,0.0433464,0.0202675,0.0877876,0.0183411,0.1337147c-0.2649956,0.1180038-0.2743225,0.6467972-0.7234764,0.460638
		c-0.3579979-0.1483765-0.6349869-0.3568707-0.71035-0.7909908c-0.107666-0.6201649-0.257309-1.2341766-0.4170799-1.843462
		c-0.047287-0.1803322-0.144783-0.4117565-0.415287-0.3364296c-0.2171822,0.0604801-0.2006226,0.2598286-0.1705093,0.4290867
		c0.1652184,0.9285049,0.190918,1.9178123,0.5488701,2.7662849c0.3849869,0.9125481,0.2425461,1.4742126-0.5569725,1.9378624
		c-0.3320503,0.1925545-0.4625053,0.4671879-0.2991791,0.7917156c0.2144852,0.4261608,0.3087692,0.7826462-0.1199036,1.1394005
		c-0.1591454,0.1324406-0.1757202,0.3792515-0.0341568,0.5542049c0.168869,0.2087154,0.3669891,0.0644341,0.5452538-0.0190773
		c0.2991676-0.1401539,0.4997139-0.3173599,0.2194138-0.6552734c-0.2463112-0.2969418-0.0041237-0.4693203,0.1750221-0.6505241
		c0.1196594-0.1210384,0.2493896-0.2799339,0.4403801-0.2006073c0.300087,0.1246452,0.2713127,0.4120865,0.2661133,0.6691551
		c-0.0070496,0.3489494,0.0033188,0.6919575,0.1714935,1.009819c-0.2891846,0.0375671-0.5549622,0.1177273-0.7137451,0.3924694
		c-0.3339424,0.0594997-0.5116806,0.3220673-0.7155762,0.5506248c0.0125618,0.0803471,0.0251312,0.1606979,0.0376968,0.2410469
		c-0.0815811,0.1572933-0.1811409,0.2963181-0.3602562,0.3544884c-1.1176109-0.031002-1.4741669-0.3193169-1.5219765-1.4074821
		c-0.023468-0.5341263-0.1960106-0.7414932-0.7111664-0.6759014c-0.0022964-0.6934128-0.0045929-1.3868275-0.006897-2.0802422
		c0.3608017-0.4545326,0.1264801-0.9824791,0.174099-1.4745369c0.0596161-0.6160069-0.0218353-1.0828304-0.8749199-0.8653755
		c-0.2291183,0.0584049-0.6213188-0.0037556-0.8531532-0.263134c0.3229713-0.4593544,0.6832619-0.9183559,0.013176-1.3871441
		c-0.0150719-0.0944691-0.0301399-0.1889362-0.0450211-0.2838669c0.0257797-0.036293,0.0513649-0.0721245,0.0769501-0.1079559
		c-0.0343742,0.0270538-0.0687523,0.0541077-0.1031265,0.0811634c-0.0988007-0.1844692-0.1976013-0.3689384-0.296402-0.5534096
		c0.0393562-0.438345-0.1297417-0.8226099-0.3123817-1.2035055c-0.0356369-0.1817274-0.0710945-0.3633537-0.1066399-0.5449877
		c-0.0560493-0.1941967-0.0434875-0.4210196-0.2572594-0.5400581c-0.0127792-0.1574326-0.0255547-0.3148642-0.0383339-0.4722967
		c-0.120903-0.5690718-0.2418022-1.1381454-0.3626976-1.7072172c0.1302719-0.1307001,0.2605438-0.2613993,0.3908157-0.3920994
		c1.635025,0.1124506,2.7263145,1.2209663,3.953228,2.1090956C45.7823524,13.9854593,46.3282242,14.7010021,47.2219238,14.8569489z"
		/>
	<path style="fill:#F7F2F6;" d="M43.7555618,23.1821613c0.5151596-0.0655918,0.6877022,0.1417751,0.7111702,0.6759014
		c0.0478096,1.0881653,0.4043655,1.3764801,1.5221329,1.4074402c-0.0032959,0.1429405-0.0381126,0.2993088,0.1534576,0.3590317
		c-0.1014595,0.4511871-0.4098549,0.8874283-0.0988503,1.3684101c-0.0604858,0.1040516-0.1209679,0.208107-0.1814499,0.3121624
		c-0.318222,0.9078197,0.054409,1.4040852,1.0393295,1.3841877l0.0242195,0.0048962
		c0.2168694,0.6301212,1.0677948,1.086998,1.1871338,0.7063026c0.1824493-0.5820217,0.6379128-0.7524738,1.0384674-1.0358715
		c0.4031982-0.2852688,0.2000542-0.7104454,0.171936-1.0345478c-0.0252304-0.2908478-0.428112-0.1133385-0.6598053-0.1623821
		c0.2787781-0.2280388,0.4040489-0.5278664,0.4126244-0.8822727c0.1926384,0.0242863,0.22752,0.3698788,0.4878273,0.2419548
		c0.0341835-0.0167961,0.0588722-0.106142,0.0480957-0.152647c-0.0774727-0.3343506-0.3504753-0.2120724-0.5625992-0.2318211
		c-0.0076981-0.0740623-0.0153961-0.1481247-0.0230904-0.222187c0.6780167-0.7081585,0.6867142-1.3663406,0.0402603-2.1595135
		c-0.4642906-0.5696621-0.6867142-0.6594124-1.1468506-0.0287495c-0.0596619-0.0018482-0.1193199-0.0036926-0.1789818-0.0055408
		c-0.1681747-0.3178616-0.1785431-0.6608696-0.1714935-1.009819c0.0051994-0.2570686,0.0339737-0.5445099-0.2661133-0.6691551
		c-0.1909904-0.0793266-0.3207207,0.0795689-0.4403801,0.2006073c-0.1791458,0.1812038-0.4213333,0.3535824-0.1750221,0.6505241
		c0.2803001,0.3379135,0.0797539,0.5151196-0.2194138,0.6552734c-0.1782646,0.0835114-0.3763847,0.2277927-0.5452538,0.0190773
		c-0.1415634-0.1749535-0.1249886-0.4217644,0.0341568-0.5542049c0.4286728-0.3567543,0.3343887-0.7132397,0.1199036-1.1394005
		c-0.1633263-0.3245277-0.0328712-0.5991611,0.2991791-0.7917156c0.7995186-0.4636497,0.9419594-1.0253143,0.5569725-1.9378624
		c-0.3579521-0.8484726-0.3836517-1.83778-0.5488701-2.7662849c-0.0301132-0.1692581-0.0466728-0.3686066,0.1705093-0.4290867
		c0.270504-0.0753269,0.368,0.1560974,0.415287,0.3364296c0.159771,0.6092854,0.3094139,1.2232971,0.4170799,1.843462
		c0.0753632,0.4341202,0.3523521,0.6426144,0.71035,0.7909908c0.4491539,0.1861591,0.4584808-0.3426342,0.7234764-0.460638
		c0.5985069,0.2955456,0.5446281,1.0408688,0.992878,1.4402294c0.0019569,0.109251,0.004055,0.2183151,0.0062103,0.3273869
		c-0.2652397,0.0023689-0.5147018,0.0209503-0.6436768,0.3173676c-0.1908989,0.438736,0.1722832,2.3365822,0.6233482,2.7277851
		c-0.2220573-0.5508614,0.5040474-0.8804016,0.281456-1.3520145c-0.2425957-0.5139961-0.1638985-1.0326176-0.2439995-1.5459785
		c0.8075943,0.9879856,0.6823578,2.1680984,0.6842041,3.3220425c-0.1806068,0.5428867-0.4551277,1.0954075,0.1598625,1.5565739
		c0.0057526,0.116457,0.0115128,0.232914,0.0173187,0.3493443c-0.0034447,0.0601387-0.0069466,0.1203022-0.0105019,0.1805363
		c-0.4606667,0.4464321-0.375618,0.9863663-0.2641716,1.5318012c0.1398125,0.6843204,0.2221718,1.3714542-0.122757,2.0199146
		c-0.2067566,0.3886833-0.0536385,0.7088833,0.089077,1.064579c0.2664757,0.6641808-0.0117722,1.2323303-0.6926651,1.2514076
		c-1.5460815,0.0433331-3.0152206,0.5351238-4.5392189,0.6894093c-0.4195862,0.0424767-0.6952858-0.0680466-0.7006378-0.5235176
		c-0.0049973-0.4253578-0.1714401-0.5131741-0.528244-0.314064c-0.1658707-0.0007515-0.3317261-0.001503-0.4975891-0.0022583
		c0.002037-0.3452435,0.0040741-0.6904907,0.0057793-1.0357571c0.9142036-0.4292355,0.4371681-1.115942,0.3208733-1.7358971
		c-0.000061-0.1158657-0.0001259-0.2317352-0.0001945-0.347599c0.0886955-0.0448513,0.2406578-0.0757294,0.2542267-0.1371708
		c0.0406761-0.184227-0.1295242-0.184866-0.2544632-0.2109699c-0.000145-0.5778103-0.0002937-1.1556225-0.0004425-1.7334328
		c0.125042-0.0259113,0.2953033-0.0262604,0.2549629-0.21064c-0.0134315-0.0614262-0.1654091-0.0925426-0.2540512-0.137516
		c-0.0044022-0.6392059-0.0088043-1.2784157-0.0132065-1.9176216C43.748745,23.7534218,43.7521515,23.4677925,43.7555618,23.1821613
		z"/>
	<path style="fill:#E5E1E5;" d="M33.885704,13.4675093c-2.527523,0.0090065-5.0185585,0.4289942-7.527235,0.6490955
		c-1.2278862,0.107729-2.447155,0.2977734-3.6738052,0.3745604c-1.830349,0.114583-3.6463184,0.3454762-5.4672813,0.5386438
		c-0.3872147,0.0288544-0.7644005-0.0484524-1.1421108,0.2239943c-0.3131847,0.2259045-0.7527199,0.2374821-1.1126347-0.0477314
		c0.2169752-0.4599314-0.0266151-0.918293-0.0046959-1.3775587c2.3497353-0.32934,4.6985531-0.6890116,7.0516281-0.9646921
		c2.700943-0.316433,5.3681087-0.8364449,8.0685272-1.1463823c2.5837879-0.2965517,5.1546764-0.7094908,7.7263317-1.1033039
		c0.3746758-0.057375,0.7373543-0.0915899,1.110424-0.0711479c-0.0894928,0.3855238-0.4384346,0.5109186-0.724144,0.6678667
		c-1.0845451,0.5957623-2.1844902,1.1634912-3.2787018,1.7416544c-0.4102783-0.0685453-0.5665131,0.2068634-0.6981468,0.5155849
		C34.1044769,13.4678984,33.9950905,13.4677038,33.885704,13.4675093z"/>
	<path style="fill:#FCF7FA;" d="M34.9120331,12.9525557c1.0941849-0.5782108,2.1941299-1.1459398,3.2786751-1.7417021
		c0.2857094-0.1569481,0.6346512-0.2823429,0.724144-0.6678667c0.6479912-0.0141878,1.2628517-0.1932993,1.9456482-0.1308746
		c1.0520554,0.0961838,1.797226,0.606081,2.567627,1.2137527c0.9186249,0.7245836,1.9025345,1.3659143,2.831913,2.0775881
		c0.397728,0.3045626,0.8715553,0.5784969,0.9619102,1.153491c-0.8937263-0.155942-1.4395981-0.8714848-2.1149483-1.3603535
		c-1.2269135-0.8881292-2.318203-1.996645-3.953228-2.1090984c-0.3659134-0.3263817-0.5744705,0.1335402-0.8670654,0.1735182
		c-1.3963661,0.4712868-2.7263489,1.0936384-4.0244255,1.7854271c-0.0769768,0.0410252-0.0948219,0.1930122-0.1401825,0.2933645
		c-0.1728745,0.0584555-0.3457527,0.1169119-0.5186272,0.1753664
		C34.8032303,13.7175531,34.8032303,13.7175531,34.9120331,12.9525557z"/>
	<path style="fill:#DAD8DB;" d="M6.8052206,20.9112453C6.05439,20.9177742,5.3035583,20.9243031,4.5526967,20.930872
		c0.0004539-0.0587673,0.0009379-0.1175747,0.0014057-0.1763763c0.8148069-1.4504871,1.8287363-2.7585983,2.9060869-4.0179806
		c0.1672587-0.1955166,0.3373876-0.5666847,0.6839166-0.386364c0.3818512,0.198698,0.056777,0.5102749,0.0241842,0.7680149
		c-0.125741,0.9943523-0.6513968,1.8336411-1.0630727,2.7184887C6.9485984,20.1732903,6.8034129,20.5248585,6.8052206,20.9112453z"
		/>
	<path style="fill:#F4EEF2;" d="M12.7086201,15.3803205c-1.0989332,0.1719837-2.1978674,0.3439693-3.2968035,0.5159445
		c-0.285861-0.0000105-0.5717192-0.0000105-0.8575783-0.0000105c1.808198-0.7436037,3.4524698-1.9792643,5.5481806-1.7440701
		c-0.1228437,0.06007-0.2520094,0.1819658-0.3672876,0.1700039C12.9295588,14.2386074,12.6921968,14.6804371,12.7086201,15.3803205z
		"/>
	<path style="fill:#EDE8EC;" d="M12.7086201,15.3803205c-0.0164232-0.6998835,0.2209387-1.1417131,1.0265112-1.0581322
		c0.1152782,0.0119619,0.2444439-0.1099339,0.3672876-0.1700039c0.2666292-0.1573334,0.5010452-0.3993683,0.8555727-0.3238173
		c-0.0219698,0.4594116,0.2216206,0.9177732,0.0046396,1.3776741c-0.5760918,0.0898285-1.1476717,0.2225866-1.7374115,0.1825237
		C13.0530195,15.3858175,12.8808203,15.383069,12.7086201,15.3803205z"/>
	<path style="fill:#F7F2F6;" d="M48.8026161,18.331398c-0.1239433-0.0302391-0.3025093-0.0173664-0.2741814-0.2063217
		c0.0089417-0.0596409,0.1633186-0.0974808,0.2510719-0.1452789C48.7871628,18.0970078,48.7948875,18.2142029,48.8026161,18.331398z
		"/>
	<path style="fill:#828182;" d="M26.5856895,36.7090607c0.0545788,0.0040016,0.1092129,0.0071373,0.1639805,0.0093269
		c0.0001297,0.1162682,0.0001736,0.2326088,0.0002213,0.3489494c-0.317297-0.0254974-0.6345921-0.0509911-0.9518852-0.0764847
		c0.7669582,0.3011742,1.4242077,1.0238075,2.3389549,0.5979919c0.249876-0.0186577,0.436142,0.0621986,0.5067902,0.3239403
		c-0.3974609,0.0636902-0.7949181,0.1273842-1.192379,0.1910782c-0.3467102-0.0577126-0.6934185-0.1154289-1.0401287-0.1731606
		c-0.2784824-0.1589928-0.5703392-0.2011032-0.8785286-0.1005898c-0.3983936-0.0299606-0.7967892-0.0599174-1.1952477-0.0897713
		c0.030201-0.297123-0.0873508-0.4532928-0.3878174-0.5576515c-1.5232849-0.5290642-3.0648975-0.9886475-4.6427937-1.3241119
		c-0.2626495-0.1788712-0.5580597-0.2084007-0.863987-0.1901169c-0.879755-0.4776917-1.8480759-0.7178078-2.7862825-1.0387077
		c-0.2446575-0.285656-0.5751638-0.13451-0.8688421-0.1707573c-1.0680361,0.1605263-2.0632763-0.2950745-3.1038799-0.3667297
		c-0.0170269-0.2294884-0.0363483-0.4346962-0.3235817-0.5213737c-0.4826412-0.1456451-0.9532433-0.331192-1.4289112-0.4999504
		c-0.2287607-0.0025787-0.4575233-0.0051575-0.6862841-0.00774c-0.0171547-0.5709534-0.8095188-0.3262253-0.8823643-0.8385811
		c0.7440271,0.1127586,1.4263029,0.4431953,2.1442022,0.6288261c4.4505081,1.1507683,8.841341,2.5051613,13.2515335,3.7943878
		c0.5293407,0.1547432,1.0684757,0.5314865,1.6929073,0.314209c-0.0387497-0.2993011-0.2623081-0.2727127-0.4046726-0.3146439
		c-2.8941765-0.8524208-5.7938385-1.686245-8.6872921-2.5410843c-2.0880489-0.61689-4.1686602-1.2589569-6.2525892-1.8897972
		c0.057476-0.1198654,0.1149511-0.239727,0.1724262-0.3595905c0.3467484,0.0593739,0.6934938,0.1187458,1.040247,0.1780567
		c1.1535444,0.5150032,2.4034872,0.7010498,3.6013794,1.0622101c1.5869761,0.478466,3.1676741,0.9879189,4.7505484,1.4735069
		C21.9773884,35.2781258,24.3282967,35.8401222,26.5856895,36.7090607z"/>
	<path style="fill:#939393;" d="M42.5408707,32.902256c-0.0639229-0.0156898-0.1278496-0.0313759-0.1917725-0.0470657
		c-0.0559158-0.2461205-0.0703468-0.6081047-0.3896561-0.574852c-0.9956436,0.1036949-1.8953247-0.3655739-2.8601036-0.4113026
		c-0.0073967-1.3483372-0.1109085-2.6981792,0.0641327-4.042984c0.6773262,0.4487019,1.3088837,0.1665096,1.956356-0.0955906
		c0.3366165-0.136261,0.6908417-0.2633915,1.0718803-0.2137032c0.1096802,0.8064137-0.2228584,1.6499157,0.2037849,2.4297428
		c0.4099197,0.9388123,0.2791672,1.9997654,0.6650543,2.9440098C42.8873215,32.8944244,42.7140961,32.8983421,42.5408707,32.902256z
		 M42.1932487,30.4686413c0.0138168,0.1126823,0.0276337,0.2253685,0.0414467,0.3380508
		c0.0347786-0.017395,0.1007118-0.0482635,0.0998535-0.0502453c-0.0425148-0.0983009-0.0907593-0.1941242-0.1383743-0.2902203
		c-0.3707047-0.6583405-0.8253441-0.2813339-1.257946-0.1764832C41.3399773,30.550024,41.7733154,30.4285641,42.1932487,30.4686413z
		 M40.0836678,30.1230373c-0.0910988-0.0649815-0.1470032-0.1360703-0.2054863-0.1382599
		c-0.0655136-0.0024509-0.1782265,0.0448265-0.1916962,0.0926361c-0.0385208,0.1367378,0.0715065,0.189085,0.184082,0.1791725
		C39.9323349,30.2511444,39.9887772,30.1853008,40.0836678,30.1230373z"/>
	<path style="fill:#F4EEF2;" d="M38.9072838,34.6408424c-0.0651894,0.1061897-0.1303825,0.2123795-0.1954422,0.3188019
		c-0.3708229,0.0327759-0.7464333,0.0840454-1.1103783,0.1069756c-1.069622,0.0673904-2.1344719,0.5292854-3.2182007,0.0979919
		c0.1642876-0.3311615,0.4795914-0.4149818,0.781723-0.5783195c0.4219017-0.2280846,1.252964-0.0848351,1.129837-0.9685364
		c0.2265282-0.0173264,0.4530563-0.0346527,0.6795845-0.0519829c0.4801216,0.1010399,1.1226387,0.5727425,1.0970039-0.4806175
		c0.1688881-0.0590591,0.4481277,0.0932922,0.4999771-0.1349678c0.0445824-0.1962585-0.2061844-0.2031174-0.3660126-0.2280998
		c-0.0208244-0.8666954-0.4020042-1.7337894,0.002903-2.6000061c0.1384697-0.0240002,0.2862892-0.043539,0.3092003-0.2200298
		c0.0295296-0.2274723-0.1310501-0.2768364-0.3067017-0.3049202c0.0004578-0.2870712,0.0009193-0.5741482,0.0013809-0.8612194
		c0.4704514-0.0951405,0.3029671-0.4748211,0.3391876-0.7626572c0.0842972-0.6698761-0.1827965-1.3690929,0.1683044-2.0167942
		c0.110939-0.0004158,0.2218781-0.0008354,0.3328133-0.0012531c0.0216522,0.0607395,0.0433044,0.1214771,0.0649567,0.1822147
		c-0.0286636,0.3082561-0.0803833,0.6178398,0.0527802,0.9167805c-0.0025444,0.2570496-0.0050888,0.5141048-0.0076294,0.7711563
		c-0.1741409,1.3454971-0.0706291,2.6953392-0.0632362,4.0436745c0.0000381,0.1656075,0.0000763,0.3312187,0.0001144,0.49683
		c-0.0113106,0.3019066-0.022625,0.603817-0.0339355,0.9057236C39.0871353,33.736599,38.4153099,34.121479,38.9072838,34.6408424z"
		/>
	<path style="fill:#F4EEF2;" d="M42.5408707,32.902256c0.1732254-0.0039139,0.3464508-0.0078316,0.5196877-0.0117188
		c0.2885513,0.2560158,0.3311691,0.0305939,0.3425865-0.1882324c0.0207825-0.3982964,0.0203056-0.7977047,0.0287056-1.1966476
		c0.165863,0.0007553,0.3317184,0.0015068,0.4975891,0.0022583c0.1521339,0.6329422-0.2031784,1.2075272-0.2126732,1.8268356
		c-0.0047226,0.308075-0.3281898,0.3773193-0.5786018,0.4073524c-0.3109169,0.0373001-0.6287155,0.0171509-0.9435425,0.021801
		c0.0000992-0.0581207,0.0001869-0.11623,0.0002823-0.1743393C42.6512375,33.5321121,42.5129013,33.1753311,42.5408707,32.902256z"
		/>
	<path style="fill:#5C5B5C;" d="M39.0994492,32.3658638c-0.0000381-0.1656113-0.0000763-0.3312225-0.0001144-0.49683
		c0.9647827,0.0457306,1.8644638,0.5149994,2.8601074,0.4113045c0.3193092-0.0332527,0.3337402,0.3287315,0.3896561,0.574852
		c-0.3371773,0.0013084-0.6743507,0.0026207-1.011528,0.003933C40.6857834,32.2670517,39.8211136,32.6408844,39.0994492,32.3658638z
		"/>
	<path style="fill:#828182;" d="M39.0994492,32.3658638c0.7216644,0.2750206,1.5863342-0.0988121,2.238121,0.4932594
		c-0.1218834,0.0061302-0.2437744,0.0122681-0.3656616,0.0184021c-0.0593796-0.1022491-0.111599-0.0780296-0.1602516,0.009079
		c-0.5637016,0.2114754-1.1430511,0.351944-1.7461281,0.3849068C39.0768242,32.9696808,39.0881386,32.6677704,39.0994492,32.3658638
		z"/>
	<path style="fill:#F7F2F6;" d="M42.1949043,33.5895653c-0.0000954,0.0581093-0.0001831,0.1162186-0.0002823,0.1743393
		c-0.0716782,0.0974846-0.1948624,0.1876373-0.2500381,0.0456314C41.8696594,33.6167297,42.064991,33.6145935,42.1949043,33.5895653
		z"/>
	<path style="fill:#5C5B5C;" d="M40.811657,32.8866043c0.0486526-0.0871086,0.100872-0.1113281,0.1602516-0.009079
		l-0.0794907,0.0157928L40.811657,32.8866043z"/>
	<path style="fill:#D0D0D0;" d="M32.6575661,36.1936836c0.0208168,0.3670807-0.3640785,0.2750435-0.5226517,0.4402962
		c0.3104019,0.2619629,0.9096146-0.227993,1.0435371,0.4300575c-1.0555992,0.0948753-2.1043606,0.2288933-3.1207542,0.5475807
		c-0.5523834-0.2804985-0.9096127,0.355732-1.4139118,0.3011818c-0.0706825-0.2617569-0.2569485-0.3426132-0.5068188-0.3239594
		c-0.1068172-0.070694-0.213644-0.1413803-0.3204689-0.2120628c-0.0080032-0.1050339-0.0160103-0.2100677-0.0240135-0.3151016
		c0.0045738-0.0589867,0.0091476-0.1179695,0.0136261-0.1769447c0.9561958-0.016983,1.8973293-0.0058022,2.8179913-0.4197617
		c0.4821529-0.2167892,0.3884125-0.4411354,0.2969875-0.7697983c0.4245415-0.3533325,0.9243946-0.1352272,1.3891411-0.1833725
		C32.2616844,35.8227997,31.9800072,36.2525444,32.6575661,36.1936836z"/>
	<path style="fill:#CBC9CB;" d="M3.4988701,29.4433022c1.4171827,0.724453,3.0027893,0.8966675,4.4974518,1.3674488
		c0.2989669,0.0941696,0.6414504,0.0966549,0.710135,0.5034485c-1.1505795-0.2448959-2.3012557-0.4899998-3.4519229-0.7345142
		c-0.0166054-0.1139717-0.0515852-0.2290344-0.1902041-0.2191715c-0.1358266,0.0096607-0.1609364,0.124958-0.1604228,0.2421131
		c-0.1398129,0.0178642-0.2682738,0.0051289-0.3512163-0.1302986c0.0108919-0.2426376-0.1176891-0.3457661-0.3476143-0.3475189
		c-0.2910218-0.0698643-0.5820434-0.1397285-0.8730643-0.2095947C3.3876319,29.7579098,3.4432514,29.600605,3.4988701,29.4433022z"
		/>
	<path style="fill:#9D9C9D;" d="M3.3320117,29.9152145c0.2910216,0.0698662,0.5820432,0.1397305,0.8730974,0.2095528
		c0.0005188,0.1156731,0.0010047,0.2313919,0.0014911,0.3471069c-0.1813488-0.0028095-0.3626969-0.0056171-0.5440459-0.0084267
		c-0.3186047-0.0175991-0.4767952-0.1905365-0.4888825-0.504818C3.226182,29.943121,3.2789457,29.9286156,3.3320117,29.9152145z"/>
	<path style="fill:#CBC9CB;" d="M2.8189008,29.7719173c-0.0559072,0.1256237-0.1132677,0.1276073-0.1721313,0.0020275
		C2.7041292,29.7721386,2.761508,29.7714615,2.8189008,29.7719173z"/>
	<path style="fill:#F4EEF2;" d="M49.8371735,20.3798885c0.080101,0.513361,0.0014038,1.0319824,0.2439995,1.5459785
		c0.2225914,0.4716129-0.5035133,0.8011532-0.281456,1.3520145c-0.4510651-0.3912029-0.8142471-2.2890491-0.6233482-2.7277851
		c0.1289749-0.2964172,0.378437-0.3149986,0.6436768-0.3173676C49.8283081,20.2814751,49.8340416,20.3305302,49.8371735,20.3798885z
		"/>
	<path style="fill:#FCF7FA;" d="M50.6812401,25.2585049c-0.6149902-0.4611664-0.3404694-1.0136871-0.1598625-1.5565739
		c0.0481644,0.0622559,0.0963249,0.1245213,0.1441803,0.1869011c0.006321,0.1095448,0.0129395,0.2189655,0.0196304,0.328476
		c0.0077286,0.3471031,0.0153656,0.6941242,0.0230026,1.0411453L50.6812401,25.2585049z"/>
	<path style="fill:#BE9B88;" d="M3.9002676,24.5713673c1.8938274-0.1075611,3.7692852-0.0239944,5.6162853,0.46665
		c0.3455391,0.0917931,0.7470922,0.0504017,1.0903788,0.0223579c1.2834883-0.1048431,2.4662085,0.5251865,3.8140802,0.3009987
		c0.8037329-0.1336842,1.7992296,0.3519192,2.7283049,0.4450912c2.252327,0.2258625,4.5088253,0.4075699,6.7356987,0.844944
		c1.221899,0.2399845,2.4903221,0.1498051,3.6994343,0.5331764c0.5597076,0.1774635,0.8611889,0.5398998,0.8187847,1.0596848
		c-0.0413342,0.5066319-0.3205357,0.8326588-0.9700432,0.8561134c-0.8851147,0.0319748-1.6656647-0.3560581-2.534235-0.42202
		c-2.051897-0.1558208-4.1076374-0.4300556-6.1229935-0.8449879c-1.6382694-0.3372955-3.2976389-0.3928814-4.9380951-0.6518555
		c-2.1735878-0.3431339-4.3926306-0.4601917-6.5298519-0.9475555c-1.1940804-0.2722931-2.4101281-0.1086693-3.5653734-0.4776917
		c-0.0507607-0.2466431-0.0143266-0.4462929,0.2733245-0.5121288c0.9505792,0.1015339,1.9009557,0.202837,2.8513331,0.3041382
		c-0.9174776-0.5148258-1.8831358-0.6570492-2.8791921-0.6165638C3.9588282,24.8116016,3.929548,24.6914845,3.9002676,24.5713673z
		 M10.6584272,25.7923031c0.1403522,0.4496689,0.4497604,0.3300648,0.680604,0.3610153
		c3.245533,0.4351273,6.4919167,0.8639355,9.7383461,1.2923717c2.0212498,0.2667484,4.0420685,0.5372658,6.0657005,0.7846699
		c0.2076454,0.0253868,0.5906639,0.199131,0.607914-0.2156487c0.010746-0.2583065-0.2881603-0.3282223-0.5307426-0.3202038
		c-2.314476,0.0764599-4.5586128-0.5068092-6.8407726-0.7359009c-2.282526-0.2291241-4.5523539-0.5821686-6.8314972-0.8488503
		C12.6019449,25.9990559,11.6681061,25.6813221,10.6584272,25.7923031z"/>
	<path style="fill:#5C5B5C;" d="M3.9881079,24.9317188c0.9960563-0.0404854,1.9617145,0.101738,2.8791921,0.6165638
		c-0.9503775-0.1013012-1.900754-0.2026043-2.8513331-0.3041382C4.006546,25.1398468,3.9973269,25.0357838,3.9881079,24.9317188z"/>
	<path style="fill:#CBC9CB;" d="M50.7081909,25.2584534c-0.007637-0.3470211-0.015274-0.6940422-0.0230026-1.0411453
		c0.1414375,0.076088,0.177887,0.206665,0.1830025,0.3534851C50.8454056,24.807127,50.9399681,25.070755,50.7081909,25.2584534z"/>
	<path style="fill:#9D9C9D;" d="M26.5856895,36.7090607c-2.2573929-0.8689384-4.6083012-1.4309349-6.9142761-2.1383591
		c-1.5828743-0.4855881-3.1635723-0.9950409-4.7505484-1.4735069c-1.1978922-0.3611603-2.447835-0.5472069-3.6013794-1.0622063
		c0.8924637-0.3299618,1.7150536,0.1281052,2.559679,0.2555046c1.6891775,0.2547913,3.2917109,1.0102196,4.9563169,1.2142105
		c2.0591297,0.2523422,3.856842,1.3564758,5.9150791,1.4968948c0.3402195,0.0232086,0.7058525,0.1658554,0.7798653,0.5715752
		C25.6429443,36.1900024,26.5707512,36.0215759,26.5856895,36.7090607z"/>
	<path style="fill:#DAD8DB;" d="M29.7158318,21.4446602c0.9815865-1.5167885,1.6388607-3.1946716,2.3772125-4.8308048
		c0.1358261-0.3009758,0.263855-0.5632057,0.5566368-0.72262c-0.2542534,0.7130871-0.321434,1.4849224-0.6870289,2.1634197
		c-0.4832287,0.8968067-0.9404964,1.8028088-0.8727474,2.8678589c-0.229578,0.2568493-0.5765457,0.4439373-0.5181408,0.8719158
		c-0.152132,0.2699661-0.4447231,0.5113106-0.1766129,0.8668995c0.0017509,0.1737137,0.0035019,0.3474274,0.0052509,0.521143
		c0.0003166,0.1157284,0.0006371,0.2314568,0.0009575,0.347187c-0.5434437,0.281826-0.2857685,0.7937088-0.3484936,1.2135811
		c-0.1744232,0.1148815-0.1752434,0.2305603-0.0015907,0.3470383c-0.0005589,0.2880688-0.0011177,0.5761395-0.0016727,0.8642063
		c-0.4566288,0.065012-0.3138657,0.423193-0.3414307,0.6980648c-0.1146221,1.1566944-0.229248,2.3133907-0.343874,3.4700851
		c-0.1531849,0.0079498-0.306366,0.0159035-0.4595509,0.0238571c0.1152077-1.25313,0.1838913-2.5130577,0.3655968-3.7564678
		c0.0885029-0.6056175,0.0484943-1.2073097,0.1226025-1.8064156c0.2195454-0.0352707,0.319212-0.1608925,0.2887726-0.3844013
		c-0.080843-0.3881531-0.1962795-0.7729168-0.1155357-1.1770172c0.3344955-0.0983982,0.4108238-0.2684422,0.147459-0.5327587
		C29.7143726,22.1411762,29.7151012,21.7929173,29.7158318,21.4446602z"/>
	<path style="fill:#D0D0D0;" d="M17.3917999,21.0982819c0.0544395-0.0956249,0.1014786-0.2691822,0.1644268-0.2751579
		c0.9105206-0.0864391,1.8253613-0.2275581,2.7348175-0.2018204c1.4015121,0.0396633,2.8401966,0.4452629,4.1862583,0.2253075
		c1.0461502-0.170948,2.0826912,0.1240044,3.1003513-0.2081776c0.5341873-0.1743679,1.0901222,0.17799,1.6950722,0.0540676
		c0.4441662-0.0909882-0.03792,0.3766384,0.0835972,0.5661602C25.3657722,21.3815765,21.3821964,20.9852562,17.3917999,21.0982819z"
		/>
	<path style="fill:#F4EEF2;" d="M28.904747,30.146492c0.1531849-0.0079536,0.306366-0.0159073,0.4594879-0.0238876
		c0.6120491-0.0114384,0.7130718-0.3350925,0.5450058-0.8557987c-0.1416359-0.4388084-0.2387848-0.8815002,0.4691925-0.8796635
		c0.0821838,0.6466141-0.1023865,1.2751141-0.1299667,1.9142761c0.0011024,0.2257538,0.0022087,0.4515076,0.0033131,0.6772633
		c-0.1167088,0.3376045-0.2134266,0.6781254-0.1520329,1.0417233c-0.0247345,0.4117584-0.0494652,0.823513-0.0741978,1.2352715
		c-0.231863,0.4383774-0.1224136,0.9116554-0.1402798,1.3719139c-0.668047,0.3894577-0.3707867,0.7918358-0.0159988,1.1949844
		c-0.2984562,0.3204994-0.679224,0.1386147-1.0254269,0.1682854c-0.0032272-0.224247-0.0063992-0.4487877-0.0095749-0.6733284
		c0.0035515-0.2862206,0.0071049-0.5724487,0.0106602-0.8586693c0.2913399-0.0055695,0.6094093-0.0115509,0.6471806-0.3877258
		c0.0351887-0.3504524-0.2662106-0.286335-0.4804153-0.3083191c0.0005264-0.1155243,0.0010529-0.2310524,0.0015831-0.3465767
		c1.0187302-0.5625496,0.7643585-1.5756207,0.8608761-2.4590111c0.0569439-0.5211658-0.2203865-0.643528-0.6756134-0.4943752
		c-0.1055317-0.0054569-0.2110653-0.0109119-0.316597-0.0163689C28.8895435,30.346489,28.8971443,30.2464886,28.904747,30.146492z"
		/>
	<path style="fill:#CBC9CB;" d="M28.8438931,35.9905701c0.3461533-0.0293808,0.7269211,0.152504,1.0255032-0.1678162
		c0.350647-0.0423393,0.7011662-0.0848541,1.0516872-0.1273727c0.0914307,0.3284531,0.1851711,0.5527992-0.2969818,0.7695885
		c-0.9206619,0.4139595-1.8617954,0.4027786-2.8179913,0.4197617c0.0064182-0.3388939,0.4465561-0.503994,0.3535519-0.882515
		c0.1087132-0.0031509,0.2175388-0.0064163,0.3263626-0.0096817C28.6053143,35.9918785,28.7246056,35.9912224,28.8438931,35.9905701
		z"/>
	<path style="fill:#DAD8DB;" d="M28.8819427,30.4464855c0.1055317,0.0054569,0.2110653,0.0109119,0.3164463,0.0164299
		c0.0264854,0.9900112-0.058115,1.9729977-0.185112,2.9533253c-0.0005302,0.1155243-0.0010567,0.2310524-0.0015755,0.3465767
		c-0.2490063,0.1856689-0.1521072,0.4542198-0.1667728,0.6960449c-0.0035553,0.2862206-0.0071087,0.5724487-0.0106087,0.8587494
		c-0.1688614-0.001667-0.3377781-0.0034103-0.5066967-0.0051537c-0.0042324-0.062088-0.0084667-0.1241722-0.0126991-0.1862602
		C28.5039291,33.5662956,28.6929379,32.0063896,28.8819427,30.4464855z"/>
	<path style="fill:#939393;" d="M5.2545252,30.579092c1.1506763,0.2451077,2.3013525,0.4902115,3.451932,0.7351074
		c0.4599171,0.3669815,1.175087-0.0050526,1.5727816,0.5427074c-0.0574751,0.1198845-0.1149502,0.2397461-0.1724567,0.3594627
		c-0.9156246-0.2427254-1.840601-0.4552727-2.7438011-0.7375069c-0.705245-0.2203789-1.4783721-0.2345848-2.1129527-0.674614
		C5.2515278,30.7291965,5.2530265,30.6541443,5.2545252,30.579092z"/>
	<path style="fill:#D0D0D0;" d="M13.9253216,21.0903873c0.4782057-0.4858646,1.9495878-0.4843102,2.4220867,0.00247
		C15.5400181,21.0919762,14.7326698,21.0911808,13.9253216,21.0903873z"/>
	<path style="fill:#9D9C9D;" d="M27.7924843,37.061676c0.0080032,0.1050339,0.0160103,0.2100677,0.0239525,0.3152161
		c-0.3780861-0.0255165-0.7383957-0.1121597-1.0665455-0.3095551c-0.0000477-0.1163406-0.0000916-0.2326813-0.0002213-0.3489494
		C27.1730652,36.6023941,27.4096813,37.054142,27.7924843,37.061676z"/>
	<path style="fill:#F4EEF2;" d="M28.3149242,35.1261978c0.0042324,0.062088,0.0084667,0.1241722,0.0126038,0.1863861
		c0.0527668,0.2267303,0.1056328,0.4533386,0.1584969,0.6799507c-0.1088238,0.0032654-0.2176495,0.0065308-0.3263664,0.0096817
		c-0.0060024-0.1077232-0.0121174-0.2153358-0.0182076-0.3230133c0.0019264-0.1390877-0.0221825-0.2667503-0.1520157-0.3482475
		C28.0452461,35.1789513,28.1745968,35.1438522,28.3149242,35.1261978z"/>
	<path style="fill:#CBC9CB;" d="M29.7136421,22.4894314c0.2633648,0.2643166,0.1870365,0.4343605-0.147459,0.5327587
		C29.5349865,22.822422,29.5040092,22.6227169,29.7136421,22.4894314z"/>
	<path style="fill:#EDE8EC;" d="M27.9894352,35.3309555c0.1298332,0.0814972,0.1539421,0.2091599,0.1520157,0.3482475
		c-0.1278095-0.023674-0.3340397-0.0099869-0.3669529-0.0789795C27.7072144,35.4591789,27.8726139,35.3901749,27.9894352,35.3309555
		z"/>
	<path style="fill:#CBC9CB;" d="M29.6817188,24.1992073c0.0304394,0.2235088-0.0692272,0.3491306-0.2887726,0.3844013
		C29.3542786,24.3541565,29.4710922,24.2414951,29.6817188,24.1992073z"/>
	<path style="fill:#EDE8EC;" d="M35.6034737,13.8151684c0.1728745-0.0584545,0.3457527-0.1169109,0.5186424-0.1753359
		c0.381958,0.2822008,0.6695671,0.0672388,1.0036583-0.1387033c0.5358391-0.330308,1.0662384-0.7436066,1.7726212-0.5528946
		c-0.0546761,0.3477497,0.1364326,0.735877-0.1712151,1.0420599c-0.0741005-0.1352863-0.1996155-0.1716671-0.3410759-0.1774006
		c-0.1278114-0.521039-0.3992882-0.3465242-0.6503334-0.1189947c-0.2306519,0.2090464-0.3509331,0.4913673-0.4184723,0.7943668
		c-0.0500755,0.00422-0.1000786,0.0104027-0.1498032,0.018815c-0.456707,0.194211-0.9134178,0.3884239-1.3701248,0.5826359
		c-0.352478-0.0537214-0.5247154,0.1766424-0.6740532,0.434329c-0.4746399,0.8189735-0.9461174,1.6397781-1.4188118,2.4598751
		c-0.2936859,0.5177174-0.587368,1.0354328-0.8810501,1.5531483c-0.0632629,0.0595798-0.1265259,0.1191597-0.189785,0.1787395
		c-0.1686554-0.0006866-0.337307-0.0013771-0.5059624-0.0020657c-0.1038475-0.9556675,0.1511383-1.8343143,0.651001-2.6289539
		c0.4698753-0.7469673,0.6492691-1.5377913,0.5674171-2.4026842c-0.0324097-0.4990339,0.298439-0.8368025,0.5393867-1.2145815
		c0.1095772,0.0001802,0.2189636,0.0003748,0.3283691,0.0005798c0.3103523,0.2773762,0.1264496,0.5564442,0.015583,0.8462181
		c-0.0898781,0.2349215-0.3787193,0.5393267,0.0764999,0.6832304c0.3079453,0.0973482,0.6573563,0.0532188,0.7482567-0.3409958
		C35.1373482,14.2960768,35.4697266,14.1260233,35.6034737,13.8151684z"/>
	<path style="fill:#D0D0D0;" d="M13.2252197,15.3885651c0.5897398,0.0400629,1.1613197-0.0926952,1.7374115-0.1825237
		c0.3599205,0.285244,0.7994556,0.2736664,1.1126404,0.0477619c0.3777103-0.2724466,0.7548962-0.1951399,1.1421108-0.2239943
		c0.4208927,0.6215153,0.2818928,0.9077702-0.4931946,0.8782024c-0.394474-0.015049-0.6779575,0.2540846-0.9772949,0.4871817
		c-0.3594847,0.2799358-0.7488384,0.5576057-1.2398462,0.5217133
		C13.4938478,16.8428459,13.2576475,16.5505581,13.2252197,15.3885651z"/>
	<path style="fill:#E5E1E5;" d="M33.3461266,14.6821051c0.081852,0.864893-0.0975418,1.6557169-0.5674171,2.4026842
		c-0.4998627,0.7946396-0.7548485,1.6732864-0.6509209,2.6289463c0.0316963,0.2689285-0.2356358,0.3413563-0.3416252,0.5198402
		c-0.1994133,0.1239624-0.1667995,0.3267918-0.1752701,0.5156574c-0.1366367,0.0775852-0.165844,0.208107-0.1723766,0.3498039
		c-0.1162033-0.0588398-0.2324085-0.1176796-0.3486118-0.1765232c-0.067749-1.0650501,0.3895187-1.9710522,0.8727474-2.8678589
		c0.3655949-0.6784973,0.4327755-1.4503326,0.6870289-2.1634197C32.9493065,15.5270424,32.8793793,14.9499903,33.3461266,14.6821051
		z"/>
	<path style="fill:#CBC9CB;" d="M43.4318504,31.5056572c-0.0084,0.3989429-0.0079231,0.7983513-0.0287056,1.1966476
		c-0.0114174,0.2188263-0.0540352,0.4442482-0.3425865,0.1882324c-0.3858986-0.9442711-0.255146-2.0052242-0.6652031-2.9440632
		c0.0050125-1.3303204,0.01017-2.6606121,0.0153313-3.9909058c0.2283897-0.2766762,0.1281204-0.6058521,0.1297531-0.911293
		c0.0095139-1.7777634,0.0046501-3.5556049,0.0046501-5.3334198c0.939106-0.3083096,1.0076599-0.2617264,1.0384102,0.6852512
		c0.007946,0.2447491-0.0641136,0.5115433,0.1651688,0.7058125c0.0023041,0.6934147,0.0046005,1.3868294,0.006897,2.0802422
		c-0.0034142,0.2856312-0.0068207,0.5712605-0.0101166,0.8569946c-0.407547,0.0794487-0.3331223,0.4037609-0.3333473,0.6776676
		c-0.0011177,1.3406582,0.0050049,2.6813259,0.0085678,4.0219879c0.005764,0.5770359,0.0115318,1.1540756,0.0172882,1.7311096
		C43.4359245,30.8151665,43.4338875,31.1604137,43.4318504,31.5056572z"/>
	<path style="fill:#E5E1E5;" d="M43.7486687,21.1019192c-0.2292824-0.1942692-0.1572227-0.4610634-0.1651688-0.7058125
		c-0.0307503-0.9469776-0.0993042-0.9935608-1.0384369-0.6852341c-0.1169662-0.000185-0.2339058-0.0003872-0.3508453-0.0005875
		c-0.2864494-0.2457886-0.5748825-0.2406883-0.8651276-0.0068455c-0.7520981-0.0427761-1.4906502-0.2779369-2.2541695-0.1587486
		c-0.0649071-0.4958763,0.1068916-0.7487431,0.6519814-0.7060909c0.4229012,0.0330925,0.8743019,0.0900764,1.2689819-0.0206223
		c0.3497543-0.0980949,0.9222527,0.1453438,1.0255699-0.4920254c0.0577431,0.0576401,0.1154938,0.1152802,0.1732407,0.1729202
		c0.2318344,0.2593784,0.6240349,0.3215389,0.8531532,0.263134c0.8530846-0.2174549,0.934536,0.2493687,0.8749199,0.8653755
		C43.8751488,20.1194401,44.1094704,20.6473866,43.7486687,21.1019192z"/>
	<path style="fill:#9D9C9D;" d="M41.5280571,15.0442553c0.1824722,0.3807945,0.3515701,0.7650595,0.3122368,1.2033949
		c-0.8961258,0.1497726-1.823822,0.2013817-2.5677261,0.8249989c-0.0656776-0.0450897-0.1313553-0.0901775-0.1970825-0.1352577
		c0.0128288-0.0572662,0.0134621-0.1146736,0.0018463-0.1722145c0.0239067-0.525507,0.0478096-1.0510139,0.0717163-1.5765209
		C39.9488106,15.2518559,40.7392921,15.1621571,41.5280571,15.0442553z"/>
	<path style="fill:#F7F2F6;" d="M39.0755348,16.9373837c0.0656776,0.0450878,0.1313553,0.0901756,0.1969528,0.1353283
		c0.8526115,0.0545959,1.7137604,0.0231457,2.5063286,0.4569893c0.4733696,0.2591171,0.4245491-0.1336288,0.4290543-0.4179726
		c0.6700859,0.4687881,0.3097954,0.9277897-0.013176,1.3871441c-0.0577469-0.0576401-0.1154976-0.1152802-0.1732407-0.1729259
		c-0.7040405-0.2781754-1.4451332-0.1899738-2.1642685-0.155386c-0.5961418,0.0286713-0.9580917-0.1487484-1.1298561-0.7128067
		c-0.0016594-0.0576401-0.0018806-0.1152878-0.0006828-0.1729412c0.0222397-0.0167274,0.0659485-0.0412712,0.0631752-0.0488911
		c-0.0158539-0.043541-0.0427666-0.0830498-0.065918-0.1239281c-0.1497574-0.2494907,0.0998268-0.1357193,0.169136-0.185936
		C38.9538689,16.9298325,39.0147018,16.933609,39.0755348,16.9373837z"/>
	<path style="fill:#828182;" d="M42.2078705,17.1117287c-0.0045052,0.2843437,0.0443153,0.6770897-0.4290543,0.4179726
		c-0.7925682-0.4338436-1.653717-0.4023933-2.5063286-0.4569874c0.7439842-0.623682,1.6716805-0.6752911,2.5678062-0.8250637
		c0.0987778,0.1844807,0.1975784,0.3689499,0.2963791,0.5534191l0.0259857,0.027256
		C42.1777306,16.9227924,42.1927986,17.0172596,42.2078705,17.1117287z"/>
	<path style="fill:#9D9C9D;" d="M40.7629585,11.7795944c0.1208954,0.5690718,0.2417946,1.1381454,0.3627167,1.7071915
		c-0.213089,0.2549276-0.4094315,0.4121437-0.7714272,0.1668663c-0.2926979-0.1983261-0.6637955-0.2809496-1.0001144-0.4148989
		C39.8513451,12.7790203,40.7230797,12.6808882,40.7629585,11.7795944z"/>
	<path style="fill:#F7F2F6;" d="M40.7629585,11.7795944c-0.0398788,0.9012938-0.9116135,0.9994259-1.4085236,1.4594316
		c-0.3098412,0.1114349-0.2667465,0.3572454-0.2287331,0.6011209c-0.0069962,0.1031742-0.0139923,0.2063484-0.0209923,0.3095226
		c-0.0451355,0.1395445-0.0352364,0.2700844,0.0631676,0.3861475l0.0289726,0.0161486
		c-0.0370445,0.1040888-0.0740891,0.2081795-0.1111412,0.3122616c-0.2510986-0.166749-0.1960564-0.4907513-0.3605995-0.7019501
		c0.0004425-0.0573273,0.0011406-0.1146507,0.0020943-0.1719713c0.3076248-0.3061943,0.1165161-0.6943216,0.1712036-1.0420694
		c0.5715294-0.3535681,1.4211388-0.4288359,1.3883018-1.3872261c0.2925949-0.039978,0.501152-0.4998999,0.8670654-0.1735182
		C41.0235023,11.5181952,40.8932304,11.6488943,40.7629585,11.7795944z"/>
	<path style="fill:#CBC9CB;" d="M47.7405891,23.7269154c0.0596619,0.0018482,0.1193199,0.0036926,0.1790085,0.0051746
		c0.1631622,0.1927509,0.2886086,0.4599724,0.4962578,0.5655804c0.7242279,0.3683338,0.7600021,0.8636246,0.3688698,1.4862919
		c-0.4168129-0.3392048-0.3631058-1.079998-1.0295601-1.2062454c-0.0448112-0.1666985-0.0879288-0.3308544-0.3129501-0.3323936
		c-0.1964836-0.0013447-0.2122116,0.1436348-0.2425232,0.2806244c-0.2462502-0.0553398-0.1405373-0.2603455-0.1729126-0.4066334
		C47.185627,23.8446426,47.4514046,23.7644825,47.7405891,23.7269154z"/>
	<path style="fill:#828182;" d="M39.0857162,14.8642349c0.0370445-0.1040897,0.0740891-0.2081804,0.1112747-0.312377
		c0.7482948,0.2683687,1.4835396-0.0097456,2.2243347-0.0526829c0.0354691,0.1816254,0.0709267,0.3632517,0.1065636,0.5449791
		c-0.7885971,0.1180029-1.5790787,0.2077017-2.3788376,0.1445017l-0.0581703-0.0052147
		C39.089119,15.0771112,39.0874176,14.9706736,39.0857162,14.8642349z"/>
	<path style="fill:#828182;" d="M39.1257019,13.840147c-0.0380135-0.2438755-0.0811081-0.489686,0.2287331-0.6011209
		c0.3360176,0.1336765,0.7071152,0.2163,0.9998131,0.4146261c0.3619957,0.2452774,0.5583382,0.0880613,0.7714272-0.1668663
		c0.0127602,0.1574583,0.0255356,0.3148899,0.0383034,0.4723415C40.4544792,14.4344826,39.7933502,14.0814886,39.1257019,13.840147z
		"/>
	<path style="fill:#5C5B5C;" d="M39.1257019,13.840147c0.6676483,0.2413416,1.3287773,0.5943356,2.0382767,0.1189804
		c0.2137833,0.1190195,0.2012215,0.3458424,0.2572708,0.5400391c-0.7407188,0.0429459-1.4759636,0.3210602-2.2242584,0.0526915
		l-0.0287743-0.0160713c0.0928612-0.1475458,0.0355797-0.2702885-0.0635071-0.386117
		C39.1117096,14.0464954,39.1187057,13.9433212,39.1257019,13.840147z"/>
	<path style="fill:#939393;" d="M46.1423225,25.6245346c-0.1915703-0.0597229-0.1567535-0.2160912-0.1534576-0.3590317
		c0.1789589-0.0581284,0.2785187-0.1971531,0.3601685-0.354414c0.1590614-0.0018005,0.3180504-0.0036354,0.4770432-0.0054665
		c0.0725021,0.0062466,0.1450119,0.0124893,0.2175941,0.0186729C46.938942,25.4095306,46.4173813,25.3583832,46.1423225,25.6245346z
		"/>
	<path style="fill:#5C5B5C;" d="M47.0435905,24.9243584c-0.0725021-0.0062466-0.1450119-0.0124893-0.2174835-0.0185947
		c-0.0620537-0.3175659-0.2898178-0.2736702-0.5148392-0.235754c0.2038956-0.2285576,0.3816338-0.4911251,0.7155762-0.5506248
		c0.0323105,0.1462173-0.0734024,0.351223,0.1728058,0.4066238c0.0942001,0.0176411,0.1884499,0.035223,0.2826996,0.0528011
		c-0.1255646,0.1020908-0.2511253,0.2041817-0.3766861,0.3062725L47.0435905,24.9243584z"/>
	<path style="fill:#B1AEAF;" d="M46.3112679,24.6700096c0.2250214-0.0379162,0.4527855-0.0818119,0.5148392,0.235754
		c-0.1590233,0.0016899-0.3180122,0.0035248-0.4770737,0.0053253
		C46.3363991,24.8307076,46.3238297,24.7503567,46.3112679,24.6700096z"/>
	<path style="fill:#F7F2F6;" d="M42.136673,16.8010693c0.0343742-0.0270557,0.0687523-0.0541096,0.1031265-0.0811634
		c-0.0255852,0.0358315-0.0511703,0.0716629-0.0769501,0.1079559L42.136673,16.8010693z"/>
	<path style="fill:#5C5B5C;" d="M46.1423225,25.6245346c0.2750587-0.2661514,0.7966194-0.215004,0.9013481-0.7002392
		l0.0617485-0.0391636c0.2760544,0.0220394,0.589695,0.1223011,0.6493111-0.3098621l0.0005074,0.0024948
		c0.6663818,0.1261997,0.6126747,0.866993,1.0295029,1.2061977c0.0804787,0.0455875,0.1609497,0.0911713,0.2414207,0.1367569
		c0.0076942,0.0740623,0.0153923,0.1481247,0.023468,0.2220936c-0.0383415,0.056078-0.029705,0.1036453,0.0262985,0.1426067
		c-0.0085754,0.3544064-0.1338463,0.6542339-0.412632,0.8822708c0.0498619,0.1261349,0.0997353,0.2522697,0.1496086,0.3784046
		c-0.2310638-0.1430588-0.4452019-0.2277851-0.5245323,0.1521721c-0.2207451,0.6513653-0.4858742,1.2420082-1.3625793,0.9958954
		l-0.0244331-0.0046368c-0.241993-0.1992455-0.2084236-0.4389057-0.100563-0.6893978
		c0.1063004-0.2997799-0.317894-0.3805752-0.2707558-0.65592c0.0235558-0.0066833,0.0506134-0.0084667,0.0693512-0.0218754
		c0.011631-0.0083256,0.0106392-0.034277,0.015316-0.0523186c-0.0276642,0.0253048-0.0553284,0.0506096-0.0829887,0.0759163
		c-0.0634041,0.0039139-0.1268082,0.0078316-0.1902122,0.0117493l0.0015182,0.0028706
		c-0.0191193-0.1883221-0.148365-0.2869034-0.2995529-0.3676052C45.7324677,26.5119629,46.040863,26.0757217,46.1423225,25.6245346z
		 M46.3795433,25.8288956c0.3590508,0.4281311,0.7322006,0.484436,1.1349258,0.506155
		c0.2735786,0.0147552,0.5430031,0.0208721,0.5714569-0.3074894c0.0341377-0.3940849-0.3695145-0.3442211-0.560257-0.3555965
		C47.1711617,25.6508293,46.8087654,25.7619152,46.3795433,25.8288956z"/>
	<path style="fill:#EDE8EC;" d="M48.8129044,27.5460949c-0.0498734-0.1261349-0.0997467-0.2522697-0.1496086-0.3784046
		c0.2317009,0.0490456,0.6345825-0.1284637,0.6598129,0.162384c0.0281181,0.3241024,0.2312622,0.749279-0.171936,1.0345478
		c-0.4005547,0.2833977-0.8560181,0.4538498-1.0384674,1.0358715c-0.119339,0.3806953-0.9702644-0.0761814-1.1871338-0.7063026
		c0.8769264,0.2460842,1.1420555-0.3445587,1.3627892-0.9959259C48.4661789,27.6578026,48.6994362,27.8084183,48.8129044,27.5460949
		z"/>
	<path style="fill:#F4EEF2;" d="M49.0261612,25.9207191c-0.080471-0.0455856-0.1609421-0.0911694-0.2414207-0.1367569
		c0.3911171-0.6226673,0.3553429-1.1179581-0.368885-1.4862919c-0.2076492-0.105608-0.3330956-0.3728294-0.4962578-0.5655804
		c0.4601097-0.6302967,0.6825333-0.5405464,1.1468239,0.0291157C49.7128754,24.5543785,49.7041779,25.2125607,49.0261612,25.9207191
		z"/>
	<path style="fill:#E5E1E5;" d="M43.4206696,28.7388153c-0.0035629-1.3406658-0.0096855-2.6813335-0.0085678-4.0219917
		c0.0002251-0.2739067-0.0741997-0.5982189,0.3333473-0.6776676c0.0042877,0.6391029,0.0086899,1.2783127,0.0130539,1.9175262
		c-0.0003128,0.1160526-0.0005913,0.2321014-0.0008736,0.3481483c0.0001488,0.5778103,0.0002975,1.1556225,0.0004158,1.7334385
		c0.0000687,0.1160469,0.000164,0.23209,0.0002632,0.3481312c0.0000687,0.1158676,0.0001335,0.2317371,0.000164,0.3475819
		C43.6458549,28.7355804,43.5332603,28.7371979,43.4206696,28.7388153z"/>
	<path style="fill:#F4EEF2;" d="M43.4206696,28.7388153c0.1125908-0.0016174,0.2251854-0.0032349,0.3378029-0.0048332
		c0.1163254,0.619976,0.5933609,1.3066826-0.3208427,1.735918C43.4322014,29.8928871,43.4264336,29.3158474,43.4206696,28.7388153z"
		/>
	<path style="fill:#EDE8EC;" d="M46.8007965,28.0001278c-0.1078606,0.2504921-0.1414299,0.4901524,0.100563,0.6893978
		c-0.9849281,0.0196667-1.3575592-0.4765987-1.0393639-1.3843842c0.1603203,0.0184937,0.3206749,0.0369511,0.4810295,0.0554085
		l-0.0015182-0.0028896c-0.0395966,0.1923637-0.3461304,0.2698956-0.1788597,0.5680008
		C46.3685341,28.2925682,46.6084328,27.8410435,46.8007965,28.0001278z"/>
	<path style="fill:#F4EEF2;" d="M49.0759277,26.2854195c-0.0560036-0.0389614-0.06464-0.0865288-0.0262985-0.1426067
		c0.2117462,0.0198421,0.4847488-0.1024361,0.5622215,0.2319145c0.0107765,0.046505-0.0139122,0.1358509-0.0480957,0.152647
		C49.3034477,26.6552982,49.2685661,26.3097057,49.0759277,26.2854195z"/>
	<path style="fill:#828182;" d="M46.3430252,27.3605499c-0.1603546-0.0184574-0.3207092-0.0369148-0.4810295-0.0554085
		c0.0605087-0.1040897,0.1209908-0.2081451,0.1814766-0.3121967C46.1946602,27.0736465,46.3239059,27.1722279,46.3430252,27.3605499
		z"/>
	<path style="fill:#F4EEF2;" d="M43.7583084,28.386404c-0.0000992-0.116045-0.0001945-0.2320881-0.0002632-0.348135
		c0.1249657,0.0260983,0.295166,0.0267372,0.2544899,0.2109642C43.9989662,28.3106747,43.8470039,28.3415527,43.7583084,28.386404z"
		/>
	<path style="fill:#F4EEF2;" d="M43.7576294,26.3048306c0.0002823-0.1160469,0.0005608-0.2320957,0.0008736-0.3481483
		c0.0886803,0.0449657,0.2406578,0.0760822,0.2540894,0.1375084C44.0529327,26.2785702,43.8826714,26.2789192,43.7576294,26.3048306
		z"/>
	<path style="fill:#F4EEF2;" d="M35.6034737,13.8151674c-0.1337471,0.3108559-0.4661255,0.4809093-0.5492516,0.8413887
		c-0.0909004,0.3942146-0.4403114,0.438344-0.7482567,0.3409958c-0.4552193-0.1439037-0.166378-0.4483089-0.0764999-0.6832304
		c0.1108665-0.2897739,0.2947693-0.5688419-0.015583-0.8462181c0.1316109-0.308732,0.2878456-0.5841408,0.6981239-0.5155973
		C34.8032303,13.7175531,34.8032303,13.7175531,35.6034737,13.8151674z"/>
	<path style="fill:#F4EEF2;" d="M40.2867088,11.5610104c0.0328369,0.9583902-0.8167725,1.033658-1.3883018,1.3872261
		c-0.7063942-0.1907139-1.2367935,0.2225847-1.7726326,0.5528927c-0.3340912,0.2059422-0.6217003,0.4209042-1.0036583,0.1387014
		c0.0453453-0.1003809,0.0631905-0.252368,0.1401672-0.2933931C37.56036,12.6546488,38.8903427,12.0322971,40.2867088,11.5610104z"
		/>
	<path style="fill:#5C5B5C;" d="M5.2500281,30.8042488c0.6345806,0.4400291,1.4077077,0.4542351,2.1129527,0.674614
		c0.9032001,0.2822342,1.8281765,0.4947815,2.7438011,0.7375069c2.0839596,0.6309891,4.1645708,1.273056,6.2526197,1.889946
		c2.8934536,0.8548393,5.7931156,1.6886635,8.6872921,2.5410843c0.1423645,0.0419312,0.3659229,0.0153427,0.4046726,0.3146439
		c-0.6244316,0.2172775-1.1635666-0.1594658-1.6929073-0.314209c-4.4101925-1.2892265-8.8010254-2.6436195-13.2515335-3.7943878
		c-0.7178993-0.1856308-1.4001751-0.5160675-2.1441545-0.6290245c-0.1143236-0.0111198-0.2286959-0.0220451-0.3430672-0.0329704
		c-0.2107754-0.1160774-0.4296827-0.2011528-0.6770854-0.177578c-1.2098265-0.3579693-2.3545575-0.938467-3.6327646-1.0626793
		c-0.0156453-0.1625633-0.0312905-0.3251286-0.0471177-0.4877205c0.1811671,0.0027828,0.3625152,0.0055904,0.5438774,0.0083656
		c0.1153679,0.0001431,0.2307229,0.0003166,0.3460774,0.0004883c0.0829425,0.1354275,0.2114034,0.1481628,0.351213,0.1305256
		C4.9554443,30.7799625,5.1045446,30.7889957,5.2500281,30.8042488z"/>
	<path style="fill:#5C5B5C;" d="M26.7498894,37.067337c0.3281517,0.1973953,0.6884613,0.2840385,1.0665474,0.3095551
		c0.1068859,0.0705681,0.2137127,0.1412544,0.3205299,0.2119484c-0.914753,0.4258194-1.5720024-0.296814-2.3389606-0.5979881
		C26.1152992,37.016346,26.4325943,37.0418396,26.7498894,37.067337z"/>
	<path style="fill:#939393;" d="M11.6838646,34.0922661c-0.5318108-0.430275-1.3967161-0.2890244-1.7524824-1.021347
		c0.4756575,0.1687813,0.9462595,0.3543282,1.4289007,0.4999733C11.6475163,33.6575699,11.6668377,33.8627777,11.6838646,34.0922661
		z"/>
	<path style="fill:#939393;" d="M9.2450876,33.0632019c-0.5343819-0.0007973-1.0716066,0.0034714-1.2204542-0.6846542
		c-0.0016451-0.0623894-0.0032873-0.1247444-0.0049295-0.1870956c0.1143713,0.0109253,0.2287436,0.0218506,0.3430672,0.0329704
		C8.4355688,32.7369766,9.2279329,32.4922485,9.2450876,33.0632019z"/>
	<path style="fill:#9D9C9D;" d="M39.0749321,19.544714c0.7635078-0.1192112,1.5020599,0.1159496,2.2541389,0.1587925
		c0.2862206,0.2795887,0.5747032,0.269577,0.8651466,0.0067787c0.1169395,0.0002003,0.2338791,0.0004025,0.3508453,0.0005875
		c0.0000267,1.7777977,0.0048904,3.5556393-0.0046234,5.3334026c-0.0016327,0.3054409,0.0986366,0.6346169-0.1300621,0.9113426
		c-0.4281273,0.4707527-0.1214256,1.0442009-0.2186699,1.5611401c-0.3810387-0.0496883-0.7352638,0.0774422-1.0718803,0.2137032
		c-0.6474724,0.2621002-1.2790298,0.5442924-1.956356,0.0955906c0.0016403-0.2577438,0.0041847-0.5147991,0.0070076-0.7721596
		c0.3030968-0.3243637,0.4449348-0.6390438-0.0530586-0.9164696c-0.0216522-0.0607376-0.0433044-0.1214752-0.0649071-0.1822109
		c0.0011826-0.4611664,0.0023193-0.9223366,0.0034599-1.3835087c0.0203133-1.2767181,0.0406303-2.5534363,0.0609474-3.8301563
		c0.5878487-0.0377789,1.2038155,0.1539936,1.9186478-0.2115746c-0.7431793-0.2149506-1.3395157-0.1000385-1.9277077-0.1141148
		c-0.0190811-0.2334576-0.0381622-0.4669151-0.0572433-0.7003708C39.0649452,19.6594486,39.0730515,19.6025257,39.0749321,19.544714
		z"/>
	<path style="fill:#828182;" d="M42.1917076,27.516758c0.0972443-0.5169392-0.2094574-1.0903873,0.2186699-1.5611401
		c-0.0048523,1.3302441-0.0100098,2.6605358-0.0150223,3.9908562C41.9688492,29.1666737,42.3013878,28.3231716,42.1917076,27.516758
		z"/>
	<path style="fill:#828182;" d="M42.1932106,30.4686775c-0.4198952-0.0401134-0.8532333,0.0813465-1.254982-0.1789341
		c0.4326019-0.1048508,0.8872414-0.4818573,1.257946,0.1764832L42.1932106,30.4686775z"/>
	<path style="fill:#828182;" d="M40.0836678,30.1230373c-0.0948906,0.0622635-0.1513329,0.1281071-0.2131004,0.1335487
		c-0.1125755,0.0099125-0.2226028-0.0424347-0.184082-0.1791725c0.0134697-0.0478096,0.1261826-0.0950871,0.1916962-0.0926361
		C39.9366646,29.9869671,39.992569,30.0580559,40.0836678,30.1230373z"/>
	<path style="fill:#828182;" d="M42.1961746,30.4662266c0.0476151,0.096096,0.0958595,0.1919193,0.1383743,0.2902203
		c0.0008583,0.0019817-0.0650749,0.0328503-0.0998535,0.0502453c-0.013813-0.1126823-0.0276299-0.2253685-0.0414619-0.3380318
		L42.1961746,30.4662266z"/>
	<path style="fill:#D0D0D0;" d="M34.3831902,35.1647682c1.0838013,0.4311371,2.1486511-0.0307579,3.2182732-0.0981483
		c0.363945-0.0229301,0.7395554-0.0741997,1.1103821-0.1069756c0.1125031,0.1135635,0.1884804,0.3048058-0.0122681,0.3165512
		c-1.5740166,0.0920525-3.0804329,0.6675606-4.6684036,0.639328c-0.0527496-0.0009384-0.1047287-0.0448952-0.1571426-0.068821
		c-0.328476-0.3923759-0.8850517,0.0350761-1.218502-0.3391495c0.123085-0.2042427,0.3306923-0.1673088,0.5201149-0.1822662
		c0.2948303-0.0278358,0.6192322,0.1022911,0.8696632-0.1627769C34.1579323,35.1632614,34.2705612,35.1640129,34.3831902,35.1647682
		z"/>
	<path style="fill:#CBC9CB;" d="M32.655529,35.5075531c0.3334503,0.3742256,0.8900261-0.0532265,1.218502,0.3391495
		c-0.0577888,0.0010529-0.115654,0.0020828-0.1735725,0.0030403c-0.1463432-0.0019531-0.2760162,0.0302467-0.3524284,0.1716957
		c-0.2301788,0.0573959-0.4603539,0.1147881-0.6904984,0.1722145c-0.6775246,0.0588913-0.3958473-0.3708534-0.3473244-0.6820145
		C32.4253006,35.51017,32.5404129,35.5088615,32.655529,35.5075531z"/>
	<path style="fill:#D0D0D0;" d="M33.3480301,36.0214424c0.0764122-0.1414528,0.2060852-0.1736526,0.3524284-0.1716995
		C33.6587143,36.0624733,33.6195068,36.2804756,33.3480301,36.0214424z"/>
	<path style="fill:#CBC9CB;" d="M38.2121582,28.7359123c-0.0004616,0.2870712-0.0009232,0.5741482-0.0014458,0.8612461
		c-0.0008507,0.1749916-0.0016441,0.3499584-0.0024338,0.5249233c-0.4049072,0.8662167-0.0237274,1.7333107-0.002903,2.6000061
		c-0.1391296,0.0861664-0.1655235,0.2139244-0.1339645,0.3630676c0.0256348,1.05336-0.6168823,0.5816574-1.0969467,0.4807281
		c0.1402283-0.0781708,0.2803993-0.156456,0.4199944-0.2358322c-0.1347351-0.0876541-0.2688904-0.1742172-0.4030418-0.2607841
		c0.0074692-0.3990211,0.0149345-0.7980385,0.0223999-1.1970577c-0.0072365-0.1216431-0.014473-0.2432861-0.0217094-0.3649292
		c0.0095978-0.1207047,0.0191994-0.2414074,0.0285378-0.361969c0.2108383-1.4314556,0.1430321-2.8712997,0.1272125-4.3096085
		c0.000946-0.2897987,0.0018921-0.5795956,0.0028343-0.8693943c0.0009727-0.2386837,0.0019455-0.4773636,0.0029144-0.7160473
		c-0.0077705-1.3885784-0.0155411-2.7771568-0.0233116-4.1657352c0.0218086-0.3999081,0.0436172-0.7998161,0.0654297-1.1997242
		c0.4949188,0.1364155,0.3016052,0.5475216,0.3057632,0.846405c0.0068321,0.4912415,0.1896286,0.7480774,0.7002831,0.7174721
		c-0.0004501,0.1148911-0.0009003,0.229784-0.0013542,0.344677c-0.1244278,0.026207-0.2928505,0.0287724-0.2524948,0.2109623
		c0.0136757,0.0617161,0.1636848,0.0932293,0.2513924,0.1385441C38.2035942,24.3405457,38.2078781,26.538229,38.2121582,28.7359123z
		"/>
	<path style="fill:#FCF7FA;" d="M32.655529,35.5075531c-0.1151161,0.0013084-0.2302284,0.0026169-0.3453217,0.0040855
		c-0.4647236,0.0483055-0.9645767-0.1697998-1.3891182,0.1835327c-0.3505268,0.0427284-0.701046,0.0852432-1.051693,0.1275826
		c-0.3549137-0.4033279-0.652174-0.805706,0.0158596-1.1951599c1.7127666-0.3117561,3.4255428-0.6235199,5.138319-0.9352837
		c0.4253731,0.0028343,0.8545609,0.0707588,1.2712479-0.0745544c0.123127,0.8837013-0.7079353,0.7404518-1.129837,0.9685364
		c-0.3021317,0.1633377-0.6174355,0.2471581-0.781723,0.5783195c-0.1127014-0.0005989-0.2253304-0.0013504-0.3379822-0.002224
		c-0.4011765-0.5393753-0.6936989-0.4991913-0.8696365,0.162899C32.9862213,35.3402443,32.778614,35.3033104,32.655529,35.5075531z"
		/>
	<path style="fill:#939393;" d="M36.2948227,33.6177559c-0.416687,0.1453133-0.8458748,0.0773888-1.2705307,0.0737495
		c0.088871-0.3416023,0.5244942-0.1768799,0.6733284-0.4490089c-0.1547203-0.2670898-0.3955154-0.2169838-0.6398277-0.2743034
		c-0.7388611-0.1733551-1.6958618,0.5244255-2.2303047-0.5279236c-0.0303421-0.0597496-0.2830353-0.0603981-0.4008446-0.0120506
		c-0.3885307,0.1594582-0.7962265,0.161087-1.1858578,0.1091042c-0.621624-0.0829391-1.0307541,0.1048126-1.2152367,0.7183533
		c0.0247326-0.4117584,0.0494633-0.823513,0.0741673-1.2352676c1.935154-0.1683979,3.8528252-0.071146,5.7668571,0.2823372
		c0.5326004,0.0983582,0.9745369,0.1767921,1.1248436,0.7665215c0.1341515,0.0865669,0.2683067,0.17313,0.4030418,0.2607841
		c-0.139595,0.0793762-0.2797661,0.1576614-0.4199944,0.2358322C36.747879,33.5831032,36.5213509,33.6004295,36.2948227,33.6177559z
		"/>
	<path style="fill:#E5E1E5;" d="M38.2121582,28.7359123c-0.0042801-2.1976833-0.008564-4.3953667-0.0127716-6.5930614
		c0.0003929-0.1165066,0.0007095-0.2330017,0.00103-0.3494949c0.0004539-0.114893,0.0009041-0.2297859,0.0013962-0.3446903
		c0.0687447-0.6360226-0.1440353-1.2984123,0.1790962-1.9105759c0.1428146,0.0040474,0.2707253,0.0374317,0.3454514,0.1754856
		c0.0147896,0.3017921-0.0086708,0.596117-0.1687355,0.86376c-0.0017509,0.4301052-0.0350914,0.8629017,0.0013084,1.2897549
		c0.0767212,0.8997383-0.2158089,1.8216286,0.1616669,2.7021446c-0.0003166,0.4624081-0.0006332,0.924818-0.0009499,1.3872261
		c-0.3511009,0.6477013-0.0840073,1.3469181-0.1683044,2.0167942
		C38.5151253,28.2610912,38.6826096,28.6407719,38.2121582,28.7359123z"/>
	<path style="fill:#FCF7FA;" d="M38.7196503,25.956461c0.0003166-0.4624081,0.0006332-0.924818,0.0010071-1.3872128
		c0.1118088,0.0008278,0.2235603,0.0016422,0.3353157,0.0024548c-0.0011406,0.4611721-0.0022774,0.9223423-0.0034599,1.3835087
		C38.9415283,25.9556255,38.8305893,25.9560452,38.7196503,25.956461z"/>
	<path style="fill:#939393;" d="M39.1174202,26.1374226c0.4979935,0.2774258,0.3561554,0.5921059,0.0530586,0.9164696
		C39.0370369,26.7552624,39.0887566,26.4456787,39.1174202,26.1374226z"/>
	<path style="fill:#E5E1E5;" d="M38.0714111,33.0851555c-0.031559-0.1491432-0.0051651-0.2769012,0.1339645-0.3630676
		c0.1598282,0.0249825,0.4105949,0.0318413,0.3660126,0.2280998C38.5195389,33.1784477,38.2402992,33.0260963,38.0714111,33.0851555
		z"/>
	<path style="fill:#E5E1E5;" d="M38.2082787,30.1220818c0.0007896-0.1749649,0.0015831-0.3499317,0.0024338-0.5249233
		c0.1757164,0.0280571,0.3362961,0.0774212,0.3067665,0.3048935C38.4945679,30.0785427,38.3467484,30.0980816,38.2082787,30.1220818
		z"/>
	<path style="fill:#B1AEAF;" d="M5.2500281,30.8042488c-0.1454835-0.0152531-0.2945838-0.0242863-0.3461242-0.201395
		c-0.0005102-0.117382,0.0245996-0.2326794,0.1604261-0.2423401c0.1386189-0.0098629,0.1735988,0.1051998,0.1902041,0.2191715
		C5.2530265,30.6541443,5.2515278,30.7291965,5.2500281,30.8042488z"/>
	<path style="fill:#B1AEAF;" d="M4.552691,30.4723282c-0.1153545-0.0001717-0.2307096-0.0003452-0.3460774-0.0004845
		c-0.0004997-0.1156845-0.0009856-0.2314034-0.0015044-0.3470764C4.4350019,30.1265621,4.5635829,30.2296906,4.552691,30.4723282z"
		/>
	<path style="fill:#5C5B5C;" d="M10.6584272,25.7923031c1.0096788-0.110981,1.9435177,0.2067528,2.8895521,0.3174534
		c2.2791433,0.2666817,4.5489712,0.6197262,6.8314972,0.8488503c2.2821598,0.2290916,4.5262966,0.8123608,6.8407726,0.7359009
		c0.2425823-0.0080185,0.5414886,0.0618973,0.5307426,0.3202038c-0.0172501,0.4147797-0.4002686,0.2410355-0.607914,0.2156487
		c-2.023632-0.2474041-4.0444508-0.5179214-6.0657005-0.7846699c-3.2464294-0.4284363-6.4928131-0.8572445-9.7383461-1.2923717
		C11.1081877,26.1223679,10.7987795,26.241972,10.6584272,25.7923031z"/>
	<path style="fill:#EDE8EC;" d="M30.3784294,28.3871422c-0.7079735-0.0018368-0.6108246,0.440855-0.4691887,0.8796635
		c0.168066,0.5207062,0.0670433,0.8443604-0.5450058,0.8558025c0.1146889-1.1566677,0.2293148-2.313364,0.3439102-3.4700718
		c0.4587879-0.0639267,0.3151531-0.422554,0.3414574-0.6980515c0.000555-0.2880669,0.0011139-0.5761375,0.0016899-0.8642063
		c0.1758289-0.1148968,0.1770515-0.2305698,0.0015736-0.3470383c0.0627251-0.4198723-0.1949501-0.9317551,0.3484783-1.2135906
		c0.389473,0.3268375-0.0454521,0.8852692,0.340744,1.2130413c-0.003994,0.1165962-0.0079918,0.2331924-0.0119915,0.3497906
		c-0.5318508,0.8735867-0.6213951,1.8001461-0.3320007,2.7720871C30.3915405,28.0387611,30.384985,28.2129498,30.3784294,28.3871422
		z"/>
	<path style="fill:#F7F2F6;" d="M30.7420864,24.742691c-0.3861942-0.3277721,0.0487309-0.8862038-0.3407421-1.2130413
		c-0.0003052-0.1157207-0.0006256-0.2314491-0.0009747-0.3471966c0.1675549,0.0004864,0.3351345,0.0009899,0.5027142,0.0014935
		C30.9456615,23.7134686,30.9386082,24.2378635,30.7420864,24.742691z"/>
	<path style="fill:#EDE8EC;" d="M31.0899048,20.922514c0.1162033,0.0588436,0.2324085,0.1176834,0.3486328,0.1765423
		c-0.3796329,0.2464733-0.3201504,0.7140656-0.5273838,1.0473461c-0.0546665-0.0023003-0.1093502-0.0040569-0.164053-0.0052776
		c-0.0051231-0.1425362-0.0368919-0.2715969-0.1753559-0.3466949C30.5133591,21.3664513,30.8603268,21.1793633,31.0899048,20.922514
		z"/>
	<path style="fill:#EDE8EC;" d="M30.9030838,23.1839466c-0.1675797-0.0005035-0.3351593-0.0010071-0.5027103-0.0014935
		c-0.0017204-0.1736965-0.0034714-0.3474102-0.0051708-0.5211105c0.0599384,0.0001297,0.1198158,0.0002422,0.1796799,0.0003548
		c0.1255951,0.001627,0.2512112,0.003252,0.3768272,0.0048771C30.9355011,22.8390331,30.9192924,23.011488,30.9030838,23.1839466z"
		/>
	<path style="fill:#E5E1E5;" d="M30.5748997,22.6616974c-0.0598812-0.0001125-0.1197586-0.0002251-0.179697-0.0003548
		c-0.2681618-0.3556023,0.0244293-0.5969467,0.1765614-0.8669128c0.1384449,0.075098,0.1702137,0.2041588,0.175333,0.3467007
		l0.0001907-0.0009212C30.5474281,22.2669678,30.5802116,22.4706268,30.5748997,22.6616974z"/>
	<path style="fill:#E5E1E5;" d="M30.0496025,25.9544849c-0.0263042,0.2754974,0.1173306,0.6341248-0.3414574,0.6980515
		C29.7357368,26.3776779,29.5929737,26.0194969,30.0496025,25.9544849z"/>
	<path style="fill:#E5E1E5;" d="M30.052866,24.7432404c0.175478,0.1164684,0.1742554,0.2321415-0.0015736,0.3470383
		C29.8776226,24.9738007,29.8784428,24.8581219,30.052866,24.7432404z"/>
	<path style="fill:#828182;" d="M30.9030838,23.1839466c0.0162086-0.1724586,0.0324173-0.3449135,0.048521-0.5173874
		c0.0083885-0.094553,0.0168781-0.1890907,0.0253716-0.2836266l0.0155945-0.0012608
		c0.1469727-0.1569347,0.2939434-0.3138733,0.4409294-0.4706173c0.1007977,1.760622,0.5054035,3.4902973,0.5323105,5.258213
		c0.0640087,0.7388744,0.1025257,1.4813404,0.2058887,2.2146721c0.0360565,0.2558117,0.0591278,0.5853825,0.3899155,0.713213
		c1.4380455,0.5556984,2.9212151,0.9184151,4.4592896,1.0480156c-0.0095978,0.1207047-0.0191994,0.2414074-0.028801,0.362114
		c-2.3057175-0.0785217-4.5039368-0.7581768-6.7436371-1.205864c0.0275803-0.6391621,0.2121506-1.267662,0.1299667-1.9142761
		c0.0065517-0.1741924,0.0131073-0.348381,0.0196629-0.5225735c0.2527504-0.9070129,0.2745018-1.8416901,0.3320007-2.7720871
		c0.0039997-0.1165981,0.0079975-0.2331944,0.0119915-0.3497906C30.9386082,24.2378635,30.9456615,23.7134686,30.9030838,23.1839466
		z"/>
	<path style="fill:#9D9C9D;" d="M30.0255489,33.2556763c0.1844826-0.6135406,0.5936127-0.8012924,1.2152367-0.7183533
		c0.3896313,0.0519829,0.797327,0.050354,1.1858578-0.1091042c0.1178093-0.0483475,0.3705025-0.047699,0.4008446,0.0120506
		c0.5344429,1.0523491,1.4914436,0.3545685,2.2303047,0.5279236c0.2443123,0.0573196,0.4851074,0.0072136,0.6398277,0.2743034
		c-0.1488342,0.2721291-0.5844574,0.1074066-0.6733284,0.4490089c-1.7134933,0.3125687-3.4262695,0.6243324-5.1390362,0.9360886
		C29.9031353,34.1673317,29.7936859,33.6940536,30.0255489,33.2556763z"/>
	<path style="fill:#828182;" d="M36.9914169,33.0692673c-0.1503067-0.5897293-0.5922432-0.6681633-1.1248436-0.7665215
		c-1.914032-0.3534832-3.8317032-0.4507351-5.7668571-0.2823372c-0.0613632-0.3636017,0.0353546-0.7041225,0.1520615-1.0417252
		c0.4248085,0.0337887,0.8464603,0.042635,1.2744026,0.1115017c1.823925,0.29352,3.6575508,0.5267735,5.4876366,0.7820244
		C37.0063515,32.2712288,36.9988861,32.6702461,36.9914169,33.0692673z"/>
	<path style="fill:#5C5B5C;" d="M37.0138168,31.8722095c-1.8300858-0.2552509-3.6637115-0.4885044-5.4876366-0.7820244
		c-0.4279423-0.0688667-0.8495941-0.077713-1.2744064-0.1115017c-0.0010986-0.2257576-0.0022049-0.4515114-0.0033073-0.6772652
		c2.2397003,0.4476871,4.4379196,1.1273422,6.7436371,1.205864C36.9993439,31.6289234,37.0065804,31.7505665,37.0138168,31.8722095z
		"/>
	<path style="fill:#EDE8EC;" d="M29.0132771,33.4162407c0.126997-0.9803276,0.2115974-1.9633141,0.185112-2.9533253
		c0.4553776-0.1492138,0.732708-0.0268517,0.6757641,0.4943142C29.7776356,31.84062,30.0320072,32.8536911,29.0132771,33.4162407z"
		/>
	<path style="fill:#EDE8EC;" d="M28.8449306,34.4588623c0.0146637-0.2418251-0.0822353-0.510376,0.1667709-0.6960449
		c0.2141972,0.0219841,0.5155964-0.0421333,0.4804077,0.3083191C29.4543381,34.4473114,29.1362686,34.4532928,28.8449306,34.4588623
		z"/>
	<path style="fill:#EDE8EC;" d="M28.4860249,35.9925308c-0.0528641-0.2266083-0.1057301-0.4532166-0.1584969-0.6799469
		c0.169014,0.0016174,0.3379307,0.0033607,0.5067959,0.0050278c0.0031204,0.2244606,0.0062923,0.4490013,0.0095196,0.6732483
		C28.7246056,35.9912224,28.6053143,35.9918785,28.4860249,35.9925308z"/>
	<path style="fill:#B1AEAF;" d="M33.7045059,17.9839211c0.4726944-0.820097,0.9441719-1.6409016,1.4188118-2.4598751
		c0.1493378-0.2576866,0.3215752-0.4880505,0.6739044-0.4346886c0.0347519,0.074234,0.0742683,0.2158003,0.1038818,0.2137575
		c1.134964-0.0782471,1.1697159,0.6572628,1.1008835,1.4723349c-0.0027504,0.0553246-0.0048027,0.1107788-0.006279,0.166254
		c-0.335556-0.8708534-0.7813911-0.5879383-1.2450027-0.1189957c-0.3844223-0.1134853-0.7182274,0.0000381-0.9701653,0.1745148
		c0.7180214,1.392271,1.8253632,2.5405388,2.2381172,4.0842438c-0.0103302,0.9885502-0.0206604,1.9771004-0.0309868,2.9656506
		c-0.1721992,0.0006123-0.3443985,0.0012226-0.5165977,0.0018349c-0.0589485-0.6352692-0.1178932-1.2705364-0.1768074-1.9058266
		c-0.1024742-0.5723171-0.4406471-1.0011444-0.8457108-1.3892517c-0.0578613-0.1214485-0.1157227-0.2428932-0.173584-0.3643417
		c-0.0057487-0.2881355-0.2612114-0.441412-0.3653107-0.6764336C34.4695663,19.1634521,34.248024,18.4614868,33.7045059,17.9839211z
		"/>
	<path style="fill:#D0D0D0;" d="M38.3809052,19.5380898c-0.3231277,0.6121635-0.1103477,1.2745533-0.1790924,1.9105759
		c-0.5106964,0.0306187-0.6934929-0.2262173-0.700325-0.7174587c-0.004158-0.2988834,0.1891556-0.7099895-0.3057823-0.8464031
		c-0.0211525-0.1682873-0.0422821-0.3365765-0.0633545-0.5048828c0.0242538-0.2931957,0.0484428-0.5863705,0.0726357-0.8795471
		c0.4583397-0.2889328,0.4572563-0.5789452,0.0020485-0.8700275c-0.0163879-0.2873592-0.0327759-0.5747166-0.0491638-0.8620739
		c0.0093956-0.6365643,0.0187912-1.2731266,0.0281868-1.9096909c0.2538643-0.0492077,0.4034271-0.1352959,0.1310387-0.3705845
		c0.0677414-0.3027306,0.1880226-0.5850515,0.4186745-0.7940979c0.2510452-0.2275295,0.522522-0.4020443,0.6502457,0.1190233
		c-0.0050201,0.143816,0.0252762,0.2714329,0.1609268,0.3507099c-0.1083794,0.8047504-0.2240181,1.6090279-0.1631126,2.4251833
		c0.0413094,0.3492737-0.1366806,0.7315693,0.1570244,1.0428371c-0.0531082,0.2884693-0.1062164,0.5769386-0.1593208,0.8654079
		c-0.0003242,0.1166706-0.0006561,0.2333412-0.0009842,0.3500099
		C38.3806686,19.0774117,38.3807869,19.3077488,38.3809052,19.5380898z"/>
	<path style="fill:#9D9C9D;" d="M33.7045059,17.9839211c0.5435181,0.4775658,0.7650604,1.1795311,1.2051544,1.7291775
		c-0.740139,0.4715099-1.4044037,0.0438366-2.0862045-0.1760292C33.1171379,19.0193539,33.41082,18.5016384,33.7045059,17.9839211z"
		/>
	<path style="fill:#939393;" d="M32.8234558,19.5370693c0.6818008,0.2198658,1.3460655,0.6475391,2.0862045,0.1760292
		c0.1040993,0.2350216,0.3595619,0.388298,0.3651733,0.676569c-0.6336174,0.0035877-1.2671928,0.0018501-1.9005547,0.0125637
		c-0.3451958,0.0058403-0.6316986-0.0650692-0.7407074-0.443552c0.0000305-0.0809574,0.0000648-0.1619129,0.0000992-0.2428703
		C32.6969299,19.656229,32.7601929,19.5966492,32.8234558,19.5370693z"/>
	<path style="fill:#F7F2F6;" d="M32.6336708,19.7158089c-0.0000343,0.0809574-0.0000687,0.1619129,0.0000381,0.2430592
		c-0.3225555,0.1534519-0.2945862,0.5487766-0.5272522,0.764185c-0.3075829,0.3487644-0.5226364,0.7499523-0.6729698,1.1878109
		c-0.1469727,0.1569347-0.2939434,0.3138733-0.4410057,0.4706326c-0.0271702-0.0784817-0.0542488-0.156786-0.0813274-0.2350941
		c0.2072334-0.3332806,0.1477509-0.8008728,0.5273838-1.0473461c0.0065117-0.141716,0.0357189-0.2722378,0.1723919-0.3497696
		c0.1921368-0.1264515,0.4816341-0.2198715,0.1752338-0.5157108c0.1059895-0.178484,0.3733215-0.2509117,0.3416252-0.5198402
		C32.2963638,19.7144318,32.4650154,19.7151222,32.6336708,19.7158089z"/>
	<path style="fill:#9D9C9D;" d="M37.186058,14.8585815c-0.0093956,0.6365643-0.0187912,1.2731266-0.0281372,1.9096622
		c-0.0520706-0.0010242-0.104023,0.0014229-0.1558189,0.0073147c0.068718-0.8151808,0.0339661-1.5506907-1.1009979-1.4724436
		c-0.0296135,0.0020428-0.0691299-0.1395235-0.1038818-0.2137575c0.4568558-0.1938524,0.9135666-0.3880653,1.3702507-0.5822592
		C37.1736565,14.6242723,37.1798592,14.7414265,37.186058,14.8585815z"/>
	<path style="fill:#CBC9CB;" d="M37.186058,14.8585815c-0.0061989-0.1171551-0.0124016-0.2343092-0.0185852-0.3514824
		c0.0497475-0.0084305,0.0997505-0.0146132,0.149826-0.0188332C37.5894852,14.7232857,37.4399223,14.8093739,37.186058,14.8585815z"
		/>
	<path style="fill:#E5E1E5;" d="M38.5468826,14.1636448c-0.1355896-0.0792894-0.1658859-0.2069063-0.1608658-0.3507223
		c0.1415482,0.0057049,0.2670631,0.0420856,0.3411636,0.177372c-0.0009308,0.057332-0.0016289,0.1146555-0.0020638,0.1719866
		C38.6657104,14.1627378,38.6062965,14.1631918,38.5468826,14.1636448z"/>
	<path style="fill:#EDE8EC;" d="M31.7861633,20.2335758c0.3064003,0.2958393,0.0169029,0.3892593-0.1752338,0.5157108
		C31.6193638,20.5603676,31.58675,20.3575382,31.7861633,20.2335758z"/>
	<path style="fill:#F4EEF2;" d="M38.3809052,19.5380898c-0.0001183-0.230341-0.0002365-0.4606781-0.0003777-0.6910324
		c0.0888824-0.0448551,0.240921-0.0754719,0.2548294-0.137207c0.0414314-0.1839104-0.1278305-0.1871204-0.2538223-0.2127895
		c0.0531044-0.2884693,0.1062126-0.5769386,0.1594429-0.8653984c0.0622025-0.0579643,0.1242905-0.1159382,0.1863747-0.173914
		c0.1717415,0.564064,0.5336914,0.7414837,1.1298332,0.7128124c0.7191353-0.0345879,1.460228-0.1227894,2.1642685,0.155386
		c-0.1033173,0.6373749-0.6758156,0.3939362-1.0255699,0.4920311c-0.39468,0.1106987-0.8460808,0.0537148-1.2689819,0.0206223
		c-0.5450897-0.0426521-0.7168884,0.2102146-0.6519814,0.7060909c-0.0018692,0.0578346-0.0099754,0.1147575-0.0242538,0.1707916
		c-0.1080627-0.0006371-0.2161789-0.0012684-0.324295-0.0018997C38.6516342,19.5755215,38.5237236,19.5421371,38.3809052,19.5380898
		z"/>
	<path style="fill:#CBC9CB;" d="M42.1942177,19.7102852c-0.2904434,0.2627983-0.5789261,0.27281-0.8651466-0.0067787
		C41.6193352,19.4695969,41.9077682,19.4644966,42.1942177,19.7102852z"/>
	<path style="fill:#F7F2F6;" d="M39.1490479,15.1886559c-0.0239067,0.525507-0.0478096,1.0510139-0.0717888,1.5765114
		c-0.0604095,0.0022144-0.1207466,0.0044403-0.1810875,0.0066662c-0.0021591-0.0585804-0.0043182-0.1171608-0.0064774-0.1757393
		c0.0950012-0.4669437-0.1799164-0.9865808,0.201252-1.4127588L39.1490479,15.1886559z"/>
	<path style="fill:#EDE8EC;" d="M38.8961716,16.7718334c0.0603409-0.0022259,0.1206779-0.0044518,0.1810913-0.0066662
		c0.0116844,0.0575504,0.0110512,0.1149578-0.0017776,0.172224c-0.0607834-0.0037823-0.1216164-0.0075588-0.1823769-0.0111904
		C38.8951454,16.8748589,38.8961449,16.8233547,38.8961716,16.7718334z"/>
	<path style="fill:#E5E1E5;" d="M38.8961716,16.7718334c-0.0000267,0.0515213-0.0010262,0.1030254-0.0030632,0.1543674
		c-0.0693779,0.0500736-0.3189621-0.0636978-0.1691895,0.1857872c0.0010719,0.0576038,0.0019722,0.1152134,0.0027275,0.1728249
		c-0.0011978,0.0576534-0.0009766,0.1153011,0.0006828,0.1729412c-0.0620613,0.05797-0.1241493,0.1159439-0.1863518,0.1739082
		c-0.2938271-0.3112774-0.1158371-0.693573-0.1572075-1.0428238c0.168602,0.0024338,0.337265,0.0048447,0.5059242,0.0072556
		C38.8918533,16.6546726,38.8940125,16.713253,38.8961716,16.7718334z"/>
	<path style="fill:#F4EEF2;" d="M38.7266464,17.2848129c-0.0007553-0.0576115-0.0016556-0.115221-0.0027275-0.1728249
		c0.0231361,0.040884,0.0500488,0.0803928,0.0659027,0.1239338C38.7925949,17.2435417,38.7488861,17.2680855,38.7266464,17.2848129z
		"/>
	<path style="fill:#EDE8EC;" d="M38.8896942,16.5960941c-0.1686592-0.0024109-0.3373222-0.0048218-0.5059242-0.0072556
		c-0.0608444-0.8161783,0.0547943-1.6204557,0.1631737-2.4252062c0.0593529-0.0004406,0.1187668-0.0008945,0.1781731-0.0013514
		c0.1645355,0.211195,0.1094933,0.5351973,0.3605919,0.7019463c0.001709,0.1064463,0.0034103,0.2128839,0.0051727,0.3192139
		C38.7097778,15.6095133,38.9846954,16.1291504,38.8896942,16.5960941z"/>
	<path style="fill:#9D9C9D;" d="M39.1047096,14.1496696c0.0990868,0.1158285,0.1563683,0.2385712,0.0635071,0.386117
		C39.0694733,14.419754,39.0595741,14.2892141,39.1047096,14.1496696z"/>
	<path style="fill:#939393;" d="M47.4823494,24.5788097c-0.0942497-0.0175781-0.1884995-0.0351601-0.2826996-0.0528011
		c0.0303535-0.1370506,0.0460815-0.2820301,0.2425652-0.2806854c0.2250214,0.0015392,0.2681389,0.1656952,0.3129501,0.3323936
		l-0.0004196-0.0024185C47.6639519,24.5764866,47.5731506,24.5776482,47.4823494,24.5788097z"/>
	<path style="fill:#B1AEAF;" d="M47.4823494,24.5788097c0.0908012-0.0011616,0.1816025-0.0023232,0.2723961-0.0035114
		c-0.0596313,0.4321346-0.3732719,0.3318729-0.6493263,0.3098335
		C47.2312241,24.7829914,47.3567848,24.6809006,47.4823494,24.5788097z"/>
	<path style="fill:#CBC9CB;" d="M46.3795433,25.8288956c0.4292221-0.0669804,0.7916183-0.1780663,1.1461258-0.1569309
		c0.1907425,0.0113754,0.5943947-0.0384884,0.560257,0.3555965c-0.0284538,0.3283615-0.2978783,0.3222446-0.5714569,0.3074894
		C47.1117439,26.3133316,46.7385941,26.2570267,46.3795433,25.8288956z"/>
	<path style="fill:#828182;" d="M46.8007965,28.0001278c-0.1923637-0.1590843-0.4322624,0.2924404-0.6381493-0.0744667
		c-0.1672707-0.2981052,0.1392632-0.3756371,0.1788597-0.5680008c0.0634041-0.0038986,0.1268082-0.0078163,0.1902122-0.0117302
		l-0.0016861-0.00173C46.4829025,27.6195526,46.9070969,27.7003479,46.8007965,28.0001278z"/>
	<path style="fill:#D0D0D0;" d="M48.8129044,27.5460949c-0.1134682,0.2623234-0.3467255,0.1117077-0.5245438,0.1521702
		C48.3677025,27.3183098,48.5818405,27.4030361,48.8129044,27.5460949z"/>
	<path style="fill:#828182;" d="M46.5317192,27.3459301c0.0276604-0.0253067,0.0553246-0.0506115,0.0829887-0.0759163
		c-0.0046768,0.0180416-0.003685,0.043993-0.015316,0.0523186c-0.0187378,0.0134087-0.0457954,0.015192-0.0693512,0.0218754
		L46.5317192,27.3459301z"/>
	<path style="fill:#828182;" d="M8.0197039,32.191452c0.0016422,0.0623512,0.0032845,0.1247063,0.0049295,0.1870956
		c-0.2685456-0.044426-0.6466155,0.1161537-0.6821275-0.3645248C7.5900211,31.9902992,7.8089285,32.0753746,8.0197039,32.191452z"/>
	<path style="fill:#F4EEF2;" d="M39.0559731,24.571703c-0.1117554-0.0008125-0.2235069-0.001627-0.3353157-0.0024548
		c-0.377533-0.8805294-0.0850029-1.8024197-0.1617241-2.702158c-0.0363998-0.4268532-0.0030594-0.8596497-0.0013733-1.2897205
		c0.1670341,0.000597,0.3341331,0.0011616,0.5012283,0.0017242c0.0219154,0.0532436,0.0412941,0.1073933,0.0581322,0.1624527
		C39.0966034,22.0182667,39.0762863,23.2949848,39.0559731,24.571703z"/>
	<path style="fill:#828182;" d="M39.1169205,20.7415466c-0.0168381-0.0550594-0.0362167-0.1092091-0.0581245-0.1624508
		c0.0190086-0.0536175,0.0353622-0.1080303,0.0490646-0.1632385c0.588192,0.0140762,1.1845284-0.1008358,1.9277077,0.1141148
		C40.3207359,20.8955402,39.7047691,20.7037678,39.1169205,20.7415466z"/>
	<path style="fill:#FCF7FA;" d="M39.1078606,20.4158573c-0.0137024,0.0552082-0.030056,0.109621-0.0490646,0.1632385
		c-0.1671028-0.0005646-0.3342018-0.0011292-0.501236-0.0017262c0.1601295-0.2676773,0.1835899-0.5620022,0.1688004-0.8637943
		c0.1081276,0.000639,0.2162437,0.0012703,0.3243065,0.0019073C39.0696983,19.9489422,39.0887794,20.1823997,39.1078606,20.4158573z
		"/>
	<path style="fill:#F4EEF2;" d="M33.1756439,35.3252869c0.1759377-0.6620903,0.4684601-0.7022743,0.8696365-0.162899
		C33.7948761,35.427578,33.4704742,35.297451,33.1756439,35.3252869z"/>
	<path style="fill:#939393;" d="M36.2942314,22.1431465c0.0589485,0.6352692,0.1178932,1.2705364,0.1768227,1.9058323
		c0.0008469,0.1748638,0.001709,0.3496971,0.0025749,0.5245361c0.0025215,0.237812,0.1570587,0.333847,0.3593788,0.3853168
		c-0.000412,0.0864601-0.000824,0.1729164-0.0013084,0.2599697c-0.2322845,0.2020435-0.5409546,0.3842678-0.1844101,0.7337475
		c0.0559921,0.323555,0.1062355,0.648283,0.1718597,0.9698753c0.0172081,0.0843353-0.0759506,0.2736511,0.1048126,0.2300987
		c0.0945854-0.0227871,0.1505089-0.2060413,0.223896-0.3168201c0.0158195,1.4383087,0.0836258,2.8781528-0.1272125,4.3096085
		c-1.5378151-0.1297436-3.0209846-0.4924603-4.4590302-1.0481586c-0.3307877-0.1278305-0.3538589-0.4574013-0.3899155-0.713213
		c-0.103363-0.7333317-0.14188-1.4757977-0.2059479-2.2146511c0.439888,0.0863762,0.4915276,0.4363823,0.5090332,0.7861366
		c0.0200691,0.4010544-0.0027122,0.8041267,0.0122566,1.2056084c0.0078583,0.210844-0.080986,0.560421,0.2367172,0.5459156
		c0.4130745-0.018856,0.1010323-0.3372288,0.1188774-0.522583c0.0589752-0.6126976-0.203186-1.253521,0.1612587-1.8394699
		c0.269146,0.2891026,0.0959053,0.6599751,0.1827621,0.9792252c0.0952072,0.3499432-0.0531273,0.8461342,0.5106239,0.9474983
		c-0.0029564,0.0539341-0.0032349,0.1078815-0.0008278,0.1618423c0.051693,0.0866013,0.1056633,0.0999889,0.1629982,0.005064
		c0.4612465-0.0256195,0.9127846-0.0296097,1.3399734,0.2088509c0.3976822,0.2219887,0.8441734,0.1101189,1.2708054,0.1178627
		c0.1504517,0.0027313,0.2842484-0.0588875,0.3090515-0.2330894c0.0225906-0.1586952-0.1291809-0.3751373-0.1742744-0.3408203
		c-0.4414864,0.3359509-0.7087631-0.2394905-1.1280136-0.1749516c-0.9782639,0.1505966-1.5075912-0.409029-1.6327782-1.3284378
		c-0.0969162-0.7117558,0.1563377-1.576683-0.6390152-2.0890923c-0.0722504-1.1245632-0.0781822-2.2566414-0.3802109-3.3551636
		C33.9757309,22.0143681,35.1385422,22.2015839,36.2942314,22.1431465z"/>
	<path style="fill:#5C5B5C;" d="M37.1322899,19.3799381c0.0211334,0.1682892,0.042263,0.3365784,0.0634155,0.5048656
		c-0.0217934,0.3999062-0.043602,0.7998142-0.0653419,1.1997547c-0.0372696,0.0017719-0.0745277,0.0007286-0.1117058-0.0030918
		c-0.4127541-1.543705-1.5200958-2.6919727-2.2381172-4.0842438c0.2519379-0.1744766,0.585743-0.2880001,0.9703255-0.1747952
		c0.1422539,0.8371544,0.8622398,1.3976479,1.0588646,2.2089462C36.8172569,19.2400951,36.9220886,19.3587704,37.1322899,19.3799381
		z"/>
	<path style="fill:#828182;" d="M37.0186577,21.0814667c0.037178,0.0038204,0.0744362,0.0048637,0.1117058,0.0030918
		c0.0077019,1.388546,0.0154724,2.7771244,0.0233002,4.1657715c-0.1072617-0.0106602-0.2145767-0.0213928-0.3218918-0.0321236
		c0.000412-0.0864582,0.000824-0.1729145,0.001152-0.2599049c0.1662865-0.1530209,0.1515121-0.3542423,0.1483574-0.5523376
		c0.0021248-0.1196156,0.0042572-0.239233,0.0063858-0.3588467C36.9979973,23.058567,37.0083275,22.0700169,37.0186577,21.0814667z"
		/>
	<path style="fill:#9D9C9D;" d="M37.1478577,26.8357029c-0.0733871,0.1107788-0.1293106,0.2940331-0.223896,0.3168201
		c-0.1807632,0.0435524-0.0876045-0.1457634-0.1048126-0.2300987c-0.0656242-0.3215923-0.1158676-0.6463203-0.1719017-0.9698124
		c0.1677895,0.0046043,0.3356171,0.0091515,0.5034447,0.0136967C37.1497498,26.2561073,37.1488037,26.5459042,37.1478577,26.8357029
		z"/>
	<path style="fill:#B1AEAF;" d="M37.150692,25.9663086c-0.1678276-0.0045452-0.3356552-0.0090923-0.5034447-0.0136967
		c-0.3565025-0.3495426-0.0478325-0.5317669,0.1844521-0.7338104c0.1073875,0.0101357,0.2147026,0.0208683,0.3219643,0.0315285
		C37.1526375,25.488945,37.1516647,25.7276249,37.150692,25.9663086z"/>
	<path style="fill:#D0D0D0;" d="M38.2004166,21.7933559c-0.0003204,0.1164932-0.0006371,0.2329884-0.00103,0.3494949
		c-0.08778-0.0453033-0.2377892-0.0768166-0.2514648-0.1385326C37.9075661,21.8221283,38.0759888,21.8195629,38.2004166,21.7933559z
		"/>
	<path style="fill:#F7F2F6;" d="M30.7300968,25.0924816c-0.0574989,0.930397-0.0792503,1.8650742-0.3320007,2.7720871
		C30.1087017,26.8926277,30.198246,25.9660683,30.7300968,25.0924816z"/>
	<path style="fill:#E5E1E5;" d="M30.9111538,22.1464024c0.0270786,0.0783081,0.0541573,0.1566124,0.0813274,0.2350941
		c0.0000896,0.0001755-0.0155048,0.0014362-0.0161533,0.0004845c-0.0767803-0.0812225-0.1529121-0.1614971-0.2290401-0.2417717
		l-0.0001907,0.0009212C30.8018036,22.1423454,30.8564873,22.1441021,30.9111538,22.1464024z"/>
	<path style="fill:#F7F2F6;" d="M30.7472878,22.1402092c0.076128,0.0802746,0.1522598,0.1605492,0.2290401,0.2417717
		c-0.0078449,0.0954876-0.0163345,0.1900253-0.0247231,0.2845783c-0.1255112-0.0016098-0.2511272-0.0032349-0.3767223-0.0048618
		C30.5802116,22.4706268,30.5474281,22.2669678,30.7472878,22.1402092z"/>
	<path style="fill:#9D9C9D;" d="M33.0039139,27.3448963c-0.3644638,0.5859489-0.1023026,1.2267723-0.1612778,1.8394699
		c-0.0178452,0.1853542,0.2941971,0.503727-0.1188774,0.522583c-0.3177032,0.0145054-0.2288589-0.3350716-0.2367172-0.5459156
		c-0.0149689-0.4014816,0.0078125-0.804554-0.0122566-1.2056084c-0.0175056-0.3497543-0.0691452-0.6997604-0.5090332-0.7861366
		c-0.0268478-1.7679367-0.4314537-3.497612-0.5322514-5.258234c0.1503201-0.4380493,0.3653736-0.8392372,0.6730175-1.187973
		c1.1140556,0.0102844,2.2280464,0.0205383,3.3420372,0.0307922c0.4050636,0.3881073,0.7432365,0.8169346,0.8457108,1.3892517
		c-1.1557236,0.0584583-2.3185349-0.1287575-3.4693375,0.1012211c-0.0780373,0.0782642-0.1560135,0.1558704-0.2339935,0.2334747
		c-0.0929489,0.0017014-0.1858978,0.0034027-0.2788925,0.0051708c-0.0261459-0.0117798-0.0522385-0.0236263-0.0783348-0.0354729
		c0.0230942,0.0148869,0.0461922,0.0297718,0.0692863,0.0446606c0.0096893,0.7288666-0.0310326,1.469265,0.4766006,2.0842724
		c0.0202141,0.285347,0.040432,0.570694,0.0606499,0.856041c-0.2493324,0.4394875-0.3986244,0.8680153,0.133873,1.2218399
		C32.9840469,26.8845196,32.9939804,27.1147079,33.0039139,27.3448963z"/>
	<path style="fill:#9D9C9D;" d="M36.8097305,19.031374c-0.1966248-0.8112984-0.9166107-1.3717918-1.0588646-2.2089462
		c0.4634514-0.4686623,0.9092865-0.7515774,1.2447968,0.119236C36.9099503,17.6361008,37.1922722,18.363308,36.8097305,19.031374z"
		/>
	<path style="fill:#828182;" d="M35.448555,20.7538738c-1.1139908-0.0102539-2.2279816-0.0205078-3.3420372-0.0307922
		c0.232605-0.2154369,0.2046356-0.6107616,0.5271912-0.7642136c0.1088715,0.378294,0.3953743,0.4492035,0.7405701,0.4433632
		c0.6333618-0.0107136,1.2669373-0.008976,1.9005547-0.0125637C35.3328323,20.5109806,35.3906937,20.6324253,35.448555,20.7538738z"
		/>
	<path style="fill:#828182;" d="M36.8097305,19.031374c0.3825417-0.668066,0.1002197-1.3952732,0.1859322-2.0897102
		c0.0015221-0.0554352,0.0035744-0.1108894,0.0063248-0.166214c0.0519104-0.0057831,0.1038628-0.0082302,0.1559334-0.007206
		c0.0163383,0.2873859,0.0327263,0.5747433,0.0489159,0.8620853c-0.0007477,0.2900028-0.001297,0.5800228-0.0018501,0.8700447
		c-0.0241928,0.2931767-0.0483818,0.5863514-0.0726357,0.8795471C36.9220886,19.3587704,36.8172569,19.2400951,36.8097305,19.031374
		z"/>
	<path style="fill:#9D9C9D;" d="M36.9876671,24.0471172c-0.0021286,0.1196136-0.004261,0.2392311-0.0063019,0.3587513
		c-0.1691856,0.0558205-0.3384628,0.1117325-0.5077362,0.1676464c-0.0008659-0.174839-0.0017281-0.3496723-0.0025749-0.5245361
		C36.6432724,24.0483398,36.8154716,24.0477295,36.9876671,24.0471172z"/>
	<path style="fill:#CBC9CB;" d="M37.2049866,18.5003738c0.0005531-0.2900219,0.0011024-0.5800419,0.0018501-0.8700447
		C37.6622429,17.9214287,37.6633263,18.211441,37.2049866,18.5003738z"/>
	<path style="fill:#E5E1E5;" d="M38.3815384,18.4970608c0.125988,0.0256691,0.2952499,0.0288792,0.2538185,0.2127895
		c-0.0139084,0.0617352-0.165947,0.0923519-0.2548294,0.137207C38.3808784,18.730402,38.3812103,18.6137314,38.3815384,18.4970608z"
		/>
	<path style="fill:#828182;" d="M33.2052002,25.5988483c0.7953529,0.5124092,0.542099,1.3773365,0.6390152,2.0890923
		c0.1251869,0.9194088,0.6545143,1.4790344,1.6327782,1.3284378c0.4192505-0.064539,0.6865273,0.5109024,1.1280136,0.1749516
		c0.0450935-0.034317,0.1968651,0.1821251,0.1742744,0.3408203c-0.0248032,0.174202-0.1585999,0.2358208-0.3090515,0.2330894
		c-0.4266319-0.0077438-0.8731232,0.104126-1.2708054-0.1178627c-0.4271889-0.2384605-0.878727-0.2344704-1.3398438-0.208971
		c-0.0541534-0.0063343-0.1085739-0.0079441-0.1631279-0.0049438c-0.0024071-0.0539608-0.0021286-0.1079082,0.0008087-0.1620121
		C33.3267746,28.0747986,33.4107056,26.8174343,33.2052002,25.5988483z"/>
	<path style="fill:#5C5B5C;" d="M33.2052002,25.5988483c0.2055054,1.218586,0.1215744,2.4759502,0.4920616,3.6726017
		c-0.5637321-0.1011944-0.4153976-0.5973854-0.5106049-0.9473286c-0.0868568-0.3192501,0.0863838-0.6901226-0.1827621-0.9792252
		c-0.0099144-0.2301884-0.0198479-0.4603767-0.0295486-0.6905575c-0.0095978-0.4111233,0.1418762-0.8399811-0.1341019-1.2218456
		c-0.0202179-0.285347-0.0404358-0.570694-0.0602226-0.8560581c-0.0627441-0.6995468-0.1259155-1.3990822-0.1890869-2.0986137
		c0.07798-0.0776043,0.1559563-0.1552105,0.2339935-0.2334747C33.127018,23.342207,33.1329498,24.4742851,33.2052002,25.5988483z"/>
	<path style="fill:#B1AEAF;" d="M36.473629,24.5735149c0.1692734-0.0559139,0.3385506-0.1118259,0.5077362-0.1676464
		c0.0030708,0.1981907,0.0178452,0.3994122-0.1484413,0.552433C36.6306877,24.907362,36.4761505,24.811327,36.473629,24.5735149z"/>
	<path style="fill:#9D9C9D;" d="M33.6964531,29.4334621c0.054554-0.0030003,0.1089745-0.0013905,0.1631279,0.0049438
		C33.8021164,29.5334511,33.7481461,29.5200634,33.6964531,29.4334621z"/>
	<path style="fill:#939393;" d="M32.5909348,22.4778214c0.0631714,0.6995316,0.1263428,1.3990669,0.1890869,2.0986137
		c-0.5080605-0.6149902-0.4673386-1.3553886-0.4770279-2.0842552l0.0090942-0.0092564
		C32.4050369,22.4812241,32.4979858,22.4795227,32.5909348,22.4778214z"/>
	<path style="fill:#939393;" d="M32.8402443,25.4324932c0.2759781,0.3818645,0.1245041,0.8107224,0.1341019,1.2218456
		C32.4416199,26.3005085,32.5909119,25.8719807,32.8402443,25.4324932z"/>
	<path style="fill:#939393;" d="M32.3029938,22.4921799c-0.0230942-0.0148888-0.0461922-0.0297737-0.0692863-0.0446606
		c0.0260963,0.0118465,0.0521889,0.0236931,0.0783348,0.0354729L32.3029938,22.4921799z"/>
</g>
</svg>
