<?xml version="1.0" encoding="utf-8"?>
<!-- Generator: Adobe Illustrator 21.1.0, SVG Export Plug-In . SVG Version: 6.00 Build 0)  -->
<svg version="1.1" id="Слой_1" xmlns="http://www.w3.org/2000/svg" xmlns:xlink="http://www.w3.org/1999/xlink" x="0px" y="0px"
	 viewBox="0 0 40.4375 42" style="enable-background:new 0 0 40.4375 42;" xml:space="preserve">
<g>
	<path style="fill:#FDFDFD;" d="M28.3008022,41.1551895c-2.0054359,0.2287674-4.0632534-0.4047775-6.0357285,0.3666229
		c-0.8243294,0-1.6486626,0-2.4729919,0c-0.5809994-0.6091232-1.3312645-0.3378448-2.0030422-0.3402023
		c-4.4733057-0.0157089-8.9390097-0.0773048-13.3396301-1.038353c-0.8250654-0.1801834-1.7838769-0.2954025-1.7243896-1.3534584
		c0.05125-0.9115486,0.9664137-0.9839897,1.7184668-1.201107c1.6751351-0.4836235,3.4770246-0.2659416,5.101665-0.9760857
		c0.9139099-0.3135948,1.5175352-0.0044174,1.8220882,0.9064636c-0.5949011,0.7848244-1.4724493,0.5993538-2.2670984,0.6195488
		c-1.3972297,0.0355072-2.7754531,0.132576-4.0963006,0.7864418c6.0262008,1.2196274,12.1329269,1.0150948,18.2258606,1.0450058
		c0.5109997-0.018055,1.0150452,0.0274734,1.5136108,0.136322c0.6680813,0.2442436,1.3709984,0.1818542,2.0605545,0.2484016
		C27.3939419,40.4117432,28.1480732,40.2472305,28.3008022,41.1551895z"/>
	<path style="fill:#FECB00;" d="M18.025219,37.2980881c-3.9622803-1.1698418-8.0425997-2.1717529-11.4396744-4.6028099
		c-5.2270384-3.7406292-6.7035766-9.2257938-6.0402083-15.2885647c0.561812-5.1346111,2.6375792-9.8623362,4.9628701-14.4305744
		c1.2497554-2.4552531,3.6361122-3.1473515,6.5552139-2.1952329c3.1004562,1.011271,5.5732851,3.016511,7.9245119,5.1630611
		c7.012785,6.4023113,12.3655758,14.1575031,17.6898708,21.9252472c0.9295044,1.3560791,1.5547523,2.8968086,1.9353333,4.5175877
		c0.8062172,3.433445,0.0336266,4.9650841-3.2299271,6.376915c-2.1215858,1.2325592-4.4640236,0.8862419-6.7057476,0.7495499
		c-3.3279781-0.2029343-6.6408043-0.6903-9.9010754-1.4387856C19.1541691,37.931633,18.5121937,37.7737694,18.025219,37.2980881z"/>
	<path style="fill:#FBFAF9;" d="M18.025219,37.2980881c3.1449432,0.3879242,6.216465,1.2071686,9.3864422,1.4869118
		c3.0007153,0.2648087,5.9815884,0.35746,8.9715557-0.0212936c-0.2522697,0.3148575-0.7509804,0.4569893-0.6931686,0.9891319
		c-0.449852,0.9310646-1.3305359,0.8334846-2.1336823,0.8611183c-0.9947815,0.0342255-1.9916649,0.0290794-2.9866486-0.0001106
		c-0.6111145-0.0320396-1.2272682-0.0157089-1.8313503-0.1425171c-0.7508583-0.2766151-1.536459-0.2354202-2.3172607-0.2409744
		c-2.2639408-0.2842178-4.5232353-0.6097717-6.739109-1.1553154c-0.6269054-0.1543427-1.4631577-0.1189919-1.6677723-1.024086
		C18.017889,37.7999992,18.0215549,37.5490456,18.025219,37.2980881z"/>
	<path style="fill:#BEBEBE;" d="M28.6466637,40.0945702c0.5757103,0.0112267,1.1514187,0.0224533,1.7271271,0.0336761
		c-0.0214787,0.6930809-0.5830212,0.7105141-1.0015182,0.6500778c-1.545536-0.2232018-3.1180611,0.0240135-4.6524754-0.3054886
		c-0.4614449-0.0060539-0.9228897-0.0121078-1.3843365-0.018158c-3.1688385-0.2780952-6.3278866-0.6067924-9.3142853-1.8186378
		c-0.6353893-0.2578316-1.3614864-0.3711891-1.7234392-1.0710182c0.5026312-0.8230896,1.1940031-0.4183578,1.8439083-0.2837372
		c1.2489347,0.4675751,2.550231,0.6713524,3.8726187,0.7691727c2.7363911,1.0463524,5.6493759,1.2281456,8.4956493,1.736412
		C27.1814594,40.1720924,27.9763985,39.7004509,28.6466637,40.0945702z"/>
	<path style="fill:#CACACA;" d="M24.7197971,40.4728355c1.8781052-0.2245789,3.8084011,0.4064941,5.6541862-0.3447266
		c1.7668247-0.196743,3.5840816,0.317894,5.3160648-0.375248c1.1328964,0.051178,2.0869293-0.6165619,3.2493591-0.7160149
		c-0.4752808,1.1376076-1.4976158,1.5095749-2.5771141,1.7675171c-2.6624641,0.6361732-5.3733253,0.2589035-8.061779,0.3509521
		C27.2163448,40.3545914,25.8010826,41.2900772,24.7197971,40.4728355z"/>
	<path style="fill:#C9C9C9;" d="M14.1416445,37.2812843c-0.5889578,0.0930328-1.2536955-0.2251472-1.7585859,0.3240776
		c-0.4668217,0.2750473-0.788331,0.0128632-1.0970182-0.2967262c-0.6894255,0.0405617-1.0229292-0.8083763-1.7408724-0.6963081
		c-0.9748316-0.549221-2.0196958-0.9862709-2.8467069-1.773037c-0.0824108-0.3437767,0.0125141-0.5116272,0.3930168-0.3961639
		C9.2974396,35.7471199,11.6945124,36.5763779,14.1416445,37.2812843z"/>
	<path style="fill:#D2D2D2;" d="M5.658875,34.1066856c-0.5215316-0.2832222-0.9571295-0.6510696-1.2974157-1.386776
		c0.768116,0.1903915,1.2249517,0.5928383,1.667367,1.0218811C5.9866304,33.9456673,5.8638358,34.0678291,5.658875,34.1066856z"/>
	<path style="fill:#CFCFCF;" d="M5.6588745,34.1066856c0.1232367-0.1215782,0.2464719-0.2431564,0.3698297-0.3648186
		c0.3542509,0.2337914,0.7083793,0.467659,1.0626411,0.7013931c-0.1307316,0.1317711-0.2615957,0.2636757-0.3926716,0.3958015
		C6.351932,34.595089,6.005403,34.3508873,5.6588745,34.1066856z"/>
	<path style="fill:#EDEDED;" d="M11.2860403,37.3086319c0.3656158,0.099102,0.7312317,0.1982002,1.0969334,0.2970123
		c3.5485172,1.3427811,7.2563887,2.0730171,10.9524012,2.8490944c-5.209362,0.0858498-10.4162331,0.0263748-15.6137857-0.3614845
		c-0.9836006-0.0733986-1.9728804-0.2309875-2.9261041-0.4785004c-0.4290013-0.1113892-1.2085378-0.0439758-1.1451674-0.8118668
		c0.0492294-0.5965309,0.7183199-0.6021881,1.1145811-0.6656265c1.6084032-0.2574806,3.2067728-0.6339226,4.8634048-0.519249
		C10.1819954,37.6563416,10.8141022,37.8295021,11.2860403,37.3086319z"/>
	<path style="fill:#241F20;" d="M14.8098545,13.6238604c0.35079,0.2802191,0.475666,0.8946953,1.1124001,0.7518387
		c0.5447063,0.0419197,0.8091393-0.1896152,0.7340813-0.7523832c-0.0063019-0.1179619-0.0126038-0.2359238-0.0189056-0.3538857
		c0.0369968-0.4922094-0.1168728-1.0971756,0.6753674-1.1432161c0.84758,0.2986164,1.713829,0.7025709,1.7482777-0.8173237
		c0.0181465-0.8007059,0.5396347-0.7307949,1.0839882-0.470252c0.3486748,0.4268923,0.0327187,0.9836149,0.2796993,1.4295855
		c0.7001286,1.0186844,1.7572803,0.4481907,2.6531792,0.5953045c1.0295563,0.4021702,2.4445248,0.2411795,2.6658077,1.8243971
		c0.0711784,0.9969797,1.2497215,2.2507229-0.6472321,2.7913513c-0.1232834,0.0212383-0.2465668,0.0424767-0.3698521,0.0637131
		c-0.4607449,0.160223-0.9181709,0.248291-1.3572159-0.0625248c-0.7694092-0.8062325-1.66889-1.2566776-2.8160877-1.0295258
		c-0.3013821,0.2849388-0.5418224,0.6763592-1.0488739,0.6022511c-0.8474388-0.6717396-0.4594631,0.7234001-0.982008,0.5905724
		c-0.4858513-0.0957928-0.8732719,0.1094818-1.2266674,0.4160042c-0.4916458,0.2171803-1.0402431,0.1896553-1.5379448,0.3655319
		c-0.5043373,0.200449-0.1935863,0.6140423-0.2393198,0.9335556c-0.0018549,0.455101-0.2906189,0.7245941-0.6218615,0.9666042
		c-1.8068228,1.2556915-2.5563278,3.3373661-3.8818417,4.9690571c-0.9431915-0.1075363-0.6080465-0.9072132-0.7355986-1.4243546
		c-0.1741133-0.7059193,0.2181416-1.4956589-0.2881775-2.1668472c-0.435605-0.1022339-0.6228781-0.3776226-0.2847672-0.7101955
		c0.6380243-0.627573,0.5911846-1.1987629,0.2486048-1.9977589c-0.2982731-0.6956577-0.1588001-1.494894,0.9762936-0.9820595
		c0.461853,0.208662,0.922616,0.3375225,1.2655916-0.0620232c0.4485178-0.5224934,0.2381067-1.0762367-0.1473694-1.5696678
		c-0.0475435-0.881362,0.788002-0.2125492,1.0295229-0.5864878c0.4828186-0.3684721,0.741291-0.8413658,0.6808128-1.4627123
		C13.9246111,13.8217821,14.1962519,13.4694223,14.8098545,13.6238604z"/>
	<path style="fill:#FED200;" d="M24.7563248,26.3740177c-0.1088333-0.1316357-0.2176647-0.2632675-0.326498-0.3949032
		c-0.4465714-0.2946262-0.8225174-0.6592197-1.1055374-1.1158829c-0.2224598-0.6844101-1.0639515-0.4986687-1.4129639-1.005188
		c0.0489807-0.0553608,0.0979595-0.1107235,0.1462536-0.1670322c0.52425-0.2556992,1.1387615-0.2880669,1.619297-0.6558666
		c0.4646893-0.0943146,0.9088383,0.0475216,1.3604393,0.1117096c0.152359,0.0257301,0.3007202,0.0666885,0.4476509,0.112009
		c0.5132408,0.1935005,1.0353184,0.1996555,1.5639553,0.0713921c0.076479-0.0121574,0.1531239-0.0197582,0.2295189-0.031023
		c0.076828-0.0008755,0.1539097,0.0019112,0.2307453,0.0009594c0.0755997,0.0090466,0.1514473,0.0218372,0.2273693,0.0300446
		c0.6546268,0.0305367,1.2755356,0.3961124,1.9542007,0.1943588c0.8835049-0.3240528,1.4709301,0.2645798,2.1127892,0.6854057
		c-0.3813877,0.5547142-1.2143383,0.2458515-1.5777283,0.8311939c-0.1511765,0.4455738-0.123951,0.9659443-0.5514431,1.2898464
		c-0.1593628,0.0209503-0.3187256,0.0419006-0.4780884,0.062849c-0.1414547-0.0074768-0.2666054-0.0576077-0.3791237-0.1419964
		c-0.2069359-0.1873207-0.4152565-0.3731251-0.6853142-0.473217c-0.703577-0.1303806-1.4013596-0.130003-2.0935307,0.0297737
		c-0.1186829,0.0835075-0.238636,0.1670761-0.3522987,0.2580452c-0.1618748,0.1460342-0.3326969,0.2809296-0.5287971,0.3804665
		C25.0111065,26.4933891,24.8772488,26.4685574,24.7563248,26.3740177z"/>
	<path style="fill:#FCCF00;" d="M14.8966866,20.3254585c0.118454-0.356739,0.236908-0.7134762,0.35536-1.0702133
		c0.1014891-1.0948238,0.9869251-1.0020905,1.7217503-1.136919c0.1317139-0.0791855,0.241291-0.1822968,0.3283081-0.3093834
		c0.2437134-0.6692333,0.6134071-0.7001343,1.0851078-0.2141514c0.5485153,0.1911583,0.5252762-0.687048,1.0415287-0.5571995
		c0.3583851,0.1227627,0.7313919,0.0935154,1.100235,0.106926c0.0979595,0.4174194,0.9974709,0.4343891,0.5593605,1.119627
		c-0.3597832,0.4877377-0.2560406,0.9339886,0.1213455,1.3557453c0.1218071,0.1145325,0.2436161,0.229063,0.3654232,0.3435936
		c-0.0662155,0.0666752-0.1324291,0.1333485-0.1979847,0.2011299c-0.5201035,0.3279457-1.0897331,0.1504364-1.6405182,0.1605682
		c-1.1216717,0.2744198-2.3158722-0.2016373-3.4138279,0.3273582
		C15.8474131,20.5435123,15.3720493,20.4344845,14.8966866,20.3254585z"/>
	<path style="fill:#28231F;" d="M25.0444813,23.4493885c-0.541853,0.2429504-0.9221878-0.1851501-1.370718-0.3299255
		c-0.1790543,0.1419888-0.3544865,0.1376476-0.5274944-0.0121803c-0.6885262-0.8698978-0.8192711-1.7975883-0.288002-2.7937469
		c0.2609921-0.2055607,0.5380859-0.2427444,0.8336029-0.0760555c0.5357876,0.8109989,1.1052895,1.1371441,1.7680035,0.1229496
		c0.3652267,0.2978668,0.9574108-0.041048,1.2564526,0.4464207c0.3492451,0.8109169,0.3206177,1.6308956,0.058567,2.4550514
		c-0.1933918,0.3957901-0.5052128,0.3471413-0.8348026,0.2197418
		C25.6512585,23.2797775,25.3573208,23.1210155,25.0444813,23.4493885z"/>
	<path style="fill:#29231F;" d="M14.833765,25.3278046c-0.1093102-0.1253567-0.2186193-0.2507114-0.3279295-0.37607
		c1.6246748-0.9202213,2.8553286-0.8078346,3.5426893,0.3235378l-0.0229301-0.0030499
		c-0.4439163,1.2445679-0.1231861,2.5338821-0.220335,3.7989655c-0.0572758,0.7458458,0.1141834,1.5307693-0.4026318,2.1924553
		c-0.2065372,0.122982-0.3924522,0.09688-0.5578594-0.0772877c-0.0885525-1.8489342-0.0538826-3.6945038-0.037569-5.0830441
		c-0.1330948,1.3766403,0.0685902,3.2290134-0.0667362,5.0661221c-0.1578617,0.1854286-0.3410511,0.2147217-0.548914,0.0881271
		c-0.20362-1.7962132-0.0615063-3.588089-0.1002541-4.9408379c-0.0891743,1.3109798,0.0534382,3.0785217-0.0479012,4.8356762
		c-0.129735,0.1998348-0.3056898,0.2563915-0.5276737,0.1701012c-0.6384325-1.22229-0.1713543-2.5365524-0.3142071-3.8004074
		C15.1180782,26.7839317,15.421258,25.9814491,14.833765,25.3278046z"/>
	<path style="fill:#211E20;" d="M32.4666672,31.0809422c-0.4735661,1.6372204-1.5962181,0.6191349-2.4735394,0.6046524
		c0.0090313-0.1030083,0.0180607-0.2060184,0.0269909-0.3090324c0.1827278-2.1487446-0.2859268-4.3237362,0.2592983-6.4573746
		c1.2402687-0.4395218,1.1923923,0.5291424,1.2625198,1.229147c0.131937,1.3169384-0.0363274,2.6478882,0.1118279,3.9647923
		c0.0454597,0.1744881,0.1343193,0.3263817,0.2672863,0.4502411C32.1223831,30.7136936,32.3939209,30.7927475,32.4666672,31.0809422
		z"/>
	<path style="fill:#1C1A20;" d="M21.8884773,26.065897c0.0032959,0.0893269,0.009964,0.1784,0.0200043,0.2672215
		c-0.0077076,0.0826664-0.0154171,0.1653328-0.0221138,0.2482605c-0.0280342,0.1644382-0.0723629,0.3244495-0.1272373,0.4814301
		c-0.3056602,0.7131844,0.2312412,1.749691-0.8298283,2.1740303c-0.6418533-0.4288082-0.4008522-1.1531181-0.5833912-1.7257481
		c-0.0388832-0.1105881-0.1200733-0.1771469-0.2471676-0.1768246c-0.1121845,0.0739861-0.1744804,0.1685009-0.184124,0.3055687
		c-0.1099815,0.5559521-0.1153584,0.5452957-1.1045876,1.0443954c-0.1939774,0.0978661-0.0294189,0.3307629-0.0308552,0.5003452
		c-0.0101624,1.1988258,0.3633976,2.4382172-0.3864117,3.5610332c-0.2008305,0.0648918-0.3663464,0.0165901-0.5011215-0.1444855
		c-0.0137177-0.4066696-0.1513233-0.7878418-0.2148457-1.1843491c0.1419888-1.829649-0.3318233-3.6905479,0.2952862-5.4928341
		C19.2833652,25.8130169,20.5999393,25.5543957,21.8884773,26.065897z"/>
	<path style="fill:#E5B704;" d="M18.0361748,26.0127773c-0.0222683,1.873167-0.0445366,3.746336-0.066803,5.619503
		c-0.0556774,0.1531029-0.1523342,0.2715168-0.2962132,0.3499622c-0.1619701-0.0256519-0.3239422-0.0513039-0.4859142-0.0769558
		c-0.1110859-0.2270222-0.0673313-0.4322109,0.0876751-0.6217136c0.0212059-1.5633469,0.0278168-3.1271076,0.0717621-4.6898174
		c0.0148067-0.5265198-0.2340393-1.2367516,0.6789227-1.3215389c0.0002632,0.1162281,0.0035858,0.2323666,0.0099564,0.3484173
		C18.2293606,25.7510452,18.2295647,25.8817596,18.0361748,26.0127773z"/>
	<path style="fill:#3C331C;" d="M16.3227749,20.6525402c-0.0456104-0.934988,0.6604595-0.6032944,1.1071682-0.6228218
		c0.7604427-0.0332413,1.5239105,0.0026951,2.2861061,0.0095634c0.2917042,0.185873,0.2803478,0.3805046,0.0168304,0.5824203
		c-1.5185947,0.6067142-0.3927956,1.8580952-0.674408,2.7663727c-0.0658245,0.188921-0.1931648,0.2363834-0.3729782,0.1635494
		c-0.5001106-0.5735645-0.3446903-1.2896309-0.4542732-2.1959686c-0.2070389,0.8730659,0.0034752,1.6290779-0.5005131,2.1911278
		c-0.1808567,0.0880032-0.3042431,0.0369492-0.370615-0.1518974l0.053648,0.0898266
		c-0.6617546-0.8398705,0.0806255-1.9062119-0.446413-2.7678089C16.7524776,20.6954479,16.5376244,20.6739941,16.3227749,20.6525402
		z"/>
	<path style="fill:#131322;" d="M29.0250187,20.7408733c-0.0506821,0.5070724,1.3387623,0.9265461,0.0400085,1.5706005
		c-0.328989,0.163147,0.1570206,0.8084393,0.3447723,1.2098064c-0.5272083,0.2274017-1.0522575,0.2388916-1.5751286-0.0159283
		c-0.5695992-1.0554485-0.5704746-2.1143398-0.0212975-3.1769199
		C28.3111496,20.1889038,28.9077091,19.7609177,29.0250187,20.7408733z"/>
	<path style="fill:#151422;" d="M20.1038914,21.0284767c0.0417023-0.1126385,0.0351105-0.2223778-0.0197773-0.3292141
		c0.1406002-0.8494091,0.7110615-0.4947052,1.181509-0.4216194c0.6177654,0.9798241,0.4865055,2.0028496,0.1769657,3.0368824
		c-0.0693951,0.0795212-0.1400433,0.1584015-0.2106915,0.2372818c-0.4610195,0.1134434-1.0918903,0.7052059-1.1208782-0.3980179
		C19.8925247,22.4460773,19.9039783,21.7375908,20.1038914,21.0284767z"/>
	<path style="fill:#332C1E;" d="M28.9637928,26.2865601c0.057848,0.0783749,0.1353588,0.1141453,0.2325096,0.1073208
		c0.028738,1.981926,0.1029663,3.9646358,0.0684605,5.9454479c-0.0193672,1.1120377-0.4938602,1.7751389-1.7279968,1.0785332
		c-0.1093922-0.1434593-0.1229229-0.2924805-0.02742-0.4484749c0.3236523-0.3339157,0.9614468-0.3653526,0.9650497-1.0101795
		c0.1725502-1.8184242-0.2708435-3.6648598,0.2830734-5.4594002C28.825449,26.4281712,28.8946228,26.3573647,28.9637928,26.2865601z
		"/>
	<path style="fill:#615117;" d="M24.445549,34.4670448c-0.0376911,0.0978928-0.059948,0.1991806-0.0667686,0.3038597
		c-0.5920506,0.2805481-1.1783619,0.4132309-1.7408428-0.0676041c0.0071487-2.4210167,0.0142956-4.8420353,0.0214443-7.2630539
		c0.3659821-0.0952263,0.5026455,0.1549644,0.6324196,0.4164619c0.350668,1.8733177,0.0332565,3.7715054,0.1985798,5.6464043
		c0.0646858,0.3269424,0.3053265,0.4125671,0.6014385,0.4202728c0.1394787,0.0180931,0.2636986,0.0705948,0.3729439,0.1590195
		C24.5306778,34.214386,24.5240326,34.3425751,24.445549,34.4670448z"/>
	<path style="fill:#27231F;" d="M20.8530483,29.1579266c0.7995625-0.6636715-0.0916843-1.8040524,0.6966419-2.470892
		c0.6326065,0.6551952,0.246048,1.4769592,0.3624058,2.2165203c0.0012226,0.0857372,0.002306,0.1715088,0.0033894,0.2572842
		c-0.0378265,0.2472839-0.0756569,0.4945679-0.1134834,0.7418537c0.0498028,0.9075127,0.3033352,1.8229313-0.1042347,2.7122707
		c-0.7125034,0.3250351-0.7372437-0.280056-0.8605328-0.6744175c-0.1691952-0.5411987-0.0332623-1.1720085-0.4843273-1.6316948
		c-0.1676826-0.1979179-0.2908211-0.4160309-0.3048286-0.6822968
		C20.1926136,29.2586765,20.4894447,29.1509247,20.8530483,29.1579266z"/>
	<path style="fill:#131322;" d="M9.9910688,21.7033138c0.8803959-0.2543182,0.5494375,0.4260349,0.6167059,0.7992039
		c0.1669455,0.9261112-0.3887959,1.9575882,0.4070702,2.7919979c-0.0312281,0.4567051-0.0624561,0.9134064-0.0936852,1.3701134
		c-0.8917847,0.0778675-0.2089043-0.8397579-0.6584206-1.0414886C9.8780546,24.3369179,10.011282,23.0147972,9.9910688,21.7033138z"
		/>
	<path style="fill:#191821;" d="M20.5088367,29.8808918c1.3250675,0.5731392,0.1832352,2.0624142,1.0429478,2.8083744
		c0.1468945-0.1200485,0.29492-0.1214638,0.4442501-0.0042152c0.0923328,0.2541924,0.1210766,0.4977684-0.1161156,0.6969757
		c-0.440691-0.0126305-0.8813839-0.0252571-1.3220749-0.0378838c-0.7323132-0.9043579-0.5718307-1.9296265-0.4026604-2.9572468
		C20.2357349,30.1924076,20.3543739,30.0240288,20.5088367,29.8808918z"/>
	<path style="fill:#141322;" d="M25.0965176,17.4792767c1.2835121-0.6828671,0.2415447-1.9049444,0.6472321-2.7913523
		c0.540678,0.5808344,0.7762947,1.2598124,0.7365799,2.0591288C26.4279079,17.8021336,26.0567169,18.1772823,25.0965176,17.4792767z
		"/>
	<path style="fill:#201D21;" d="M29.6743736,26.3310413c0.0124302-0.5552311,0.0248623-1.1104603,0.0372944-1.6656895
		c0.1802177-0.220211,0.3372269-0.2047482,0.4711456,0.0458927c0.0059643,2.2576675,0.1155834,4.516737-0.0600376,6.7732773
		c-0.0427933,0.0672798-0.0860004,0.1342907-0.1296329,0.2010536
		C29.4175358,29.9286842,30.0133934,28.1020355,29.6743736,26.3310413z"/>
	<path style="fill:#070924;" d="M4.6135187,23.2024345c-0.1160598-0.0026302-0.2372842-0.0285225-0.3473372-0.0040913
		c-0.6857278,0.1522274-1.3689561,0.3157139-2.0530128,0.4754696c-0.0345418-0.1654434-0.1554143-0.4179192-0.0901051-0.4826984
		c0.574544-0.5699215,1.3085432-0.7718906,2.0979252-0.8012943c0.231338-0.0086155,0.4636359,0.0085526,0.6954937,0.0138988
		c0.3385592-0.1568718,0.4433699,0.0402279,0.4910221,0.3240509C5.2334976,23.0373878,5.0224886,23.2854843,4.6135187,23.2024345z"
		/>
	<path style="fill:#1A1821;" d="M14.8204679,7.4077654c-0.4066515-0.2028694-0.846158-0.380198-1.0501375-0.8225627
		c-0.2031164-0.4404907-0.7488518-0.9843612-0.2435141-1.3677006c0.5313139-0.4030428,1.0489664,0.0106473,1.3351402,0.5864606
		C15.0829821,6.3446393,15.1259384,6.8807092,14.8204679,7.4077654z"/>
	<path style="fill:#AD8C0C;" d="M24.3877716,27.0898952c0.1151848-0.0331287,0.2303734-0.0662575,0.3455601-0.0993862
		c0.9655495,1.9193954,0.3874645,3.940279,0.3913479,5.9232025c-0.2151756,0.3233223-0.1041031,0.9704933-0.8042278,0.8173103
		c-0.8180428-1.8811531-0.3058414-3.8482533-0.3732109-5.7789803C23.998188,27.6157246,24.147562,27.3294601,24.3877716,27.0898952z
		"/>
	<path style="fill:#D7AE05;" d="M14.833765,25.3278046c1.0363159-0.0588436,0.690238,0.7317982,0.7073507,1.2266331
		c0.0545139,1.5763302,0.0534649,3.1545773,0.0738802,4.7320862c0.0720854,0.1433849,0.0416174,0.2599735-0.0913982,0.3497601
		l-0.1634836,0.00177l-0.1634092-0.0052147c-0.4677792-1.9914093,0.1374264-4.0439987-0.3440685-6.034626
		C14.8530407,25.5076103,14.8467503,25.4174747,14.833765,25.3278046z"/>
	<path style="fill:#F6D601;" d="M32.4666672,31.0809402c-0.2301865-0.0435066-0.4603729-0.0870113-0.6905613-0.1305199
		c-0.6166534-2.0326843-0.3249989-4.0913963-0.176405-6.1462288c0.0727577-0.0820274,0.145813-0.1638432,0.2188702-0.2456608
		c0.679884,1.0177689,0.2423496,2.1542435,0.3232784,3.2326794C32.2244148,28.8914242,32.0454025,30.0139008,32.4666672,31.0809402z
		"/>
	<path style="fill:#D0A706;" d="M24.7895985,33.0910378c-0.018734-2.0332756-0.037468-4.0665493-0.0562344-6.1001759
		c0.0075188-0.2061272,0.0150719-0.4118977,0.0227909-0.6172562c0.0942078-0.023222,0.1891708-0.0422421,0.2850609-0.0566444
		c1.1005688,1.92659,0.3939915,3.9972992,0.4831219,6.005518c-0.0361252,0.2038689-0.1085815,0.3949394-0.2115879,0.5742149
		C25.1854267,33.0862541,25.0105362,33.1509171,24.7895985,33.0910378z"/>
	<path style="fill:#FEDB00;" d="M14.8526354,25.5982132c0.7556572,1.9749756,0.1579885,4.0271301,0.3441067,6.034605
		c-0.7897062-0.9604492-0.2097912-2.0753269-0.3269157-3.1116619
		C14.7610273,27.5584927,14.8504734,26.5734196,14.8526354,25.5982132z"/>
	<path style="fill:#F7C901;" d="M18.0485249,25.2752724c-1.044426-1.60219-2.3299818-0.5640278-3.5426903-0.3235378
		c0.6673689-0.8023357,3.1700878-1.100872,3.7393494-0.41679C18.4583473,24.7911053,18.2857895,25.0721149,18.0485249,25.2752724z"
		/>
	<path style="fill:#473C1B;" d="M13.0789452,15.7951221c-0.3431759,0.1954966-0.6863527,0.3909931-1.0295258,0.5864887
		c-0.7227716-0.3224373-1.4455433-0.6448736-2.1683168-0.9673119c-0.1207161-0.0865297-0.1565027-0.1657085-0.1078062-0.2378416
		c0.0460815-0.0682592,0.0915718-0.1025486,0.1369448-0.1025486c0.1155615-0.0236855,0.231122-0.0473719,0.3466845-0.0710583
		c0.6456013,0.0613556,1.2902441,0.1252956,1.7618246,0.6548462C12.3721485,15.7035046,12.7255478,15.7493134,13.0789452,15.7951221
		z"/>
	<path style="fill:#352C1E;" d="M21.2096825,19.6198902c-0.5554619,0.0407906-1.0000515-0.0479164-1.0344124-0.7505722
		c-0.0363426-0.7431889,0.5183372-0.541647,0.9130898-0.605196C21.4808483,18.6845493,21.5990105,19.129509,21.2096825,19.6198902z"
		/>
	<path style="fill:#342C1D;" d="M26.9086361,33.047554c-0.5167542,0.6115494-1.1819534,0.3290863-1.8051262,0.2997246
		c-0.1041393-0.0452232-0.1521683-0.1066208-0.1442661-0.1842079c0.0087223-0.0856628,0.0266743-0.1285019,0.0540123-0.1285019
		l0.1620483,0.0288467c0.187439-0.249794,0.434845-0.4398994,0.6487236-0.6632881
		c0.5056076-0.6792927-0.0702953-1.7352409,0.7998447-2.2851295c0.2116413,0.0061169,0.3645153,0.1008339,0.46665,0.285038
		C27.4165535,31.3106651,27.4905052,32.2020988,26.9086361,33.047554z"/>
	<path style="fill:#231F20;" d="M23.3242893,24.8632317c0.7929611-0.0485878,1.1621342,0.3227024,1.1055393,1.1158562
		c-0.1362324,0.1094856-0.2724667,0.2189426-0.4086971,0.3284016c-0.4699459-0.0053768-0.8345795-0.1638184-0.9644318-0.6635227
		C22.7878723,25.2610111,22.5696507,24.8954048,23.3242893,24.8632317z"/>
	<path style="fill:#FED200;" d="M21.5751057,19.9634838c0.1117859,0.1189404,0.2235718,0.2378807,0.3353577,0.3568211
		c0.7068901,0.9358158,0.5012493,1.9751778,0.343523,3.0100098c-0.090971,0.1894188-0.2051201,0.3643723-0.3403969,0.5255394
		l-0.0022583,0.0021839c-0.270071-0.0053635-0.5255165-0.043169-0.6794357-0.3062305l-0.0537128-0.0984516
		c0.4362583-0.9649181,0.108181-1.9840012,0.2103863-2.9727879c-0.018507-0.1951847,0.0384064-0.3649521,0.1704807-0.5095253
		L21.5751057,19.9634838z"/>
	<path style="fill:#171622;" d="M23.0779419,12.8635283c-1.0549755,0.628109-2.0166645,0.3754044-2.9324684-0.3105726
		c0.2429733-0.2093773,0.4903717-0.2070112,0.7417259-0.0155067C21.6241207,12.6013069,22.3962936,12.428318,23.0779419,12.8635283z
		"/>
	<path style="fill:#FCD900;" d="M25.0132561,33.0345688c0.0542641,0.0972748,0.0843506,0.2015266,0.0902576,0.3127289
		c0.1853771,0.4922943,0.7029533,0.3124466,1.3294601,0.6732903c-0.9202137-0.1275902-1.2234726,0.7993965-1.9874382,0.4464302
		c-0.0372505-0.1286278-0.0745163-0.2572861-0.1117821-0.3859406c-0.0739326-0.1383629-0.0397434-0.2405586,0.1025581-0.306591
		c0.1175003-0.2280312,0.2350025-0.4560661,0.3528957-0.683773C24.8642902,33.0727692,24.9388428,33.0539474,25.0132561,33.0345688z
		"/>
	<path style="fill:#F7C901;" d="M18.0361748,26.0127773c-0.0002842-0.1306877-0.0005703-0.2613754-0.0007324-0.3921032
		c1.2771549,0.2112694,2.6559353-0.4578934,3.853035,0.4452038C20.6072407,25.8404179,19.3218193,25.9184456,18.0361748,26.0127773z
		"/>
	<path style="fill:#FEDA00;" d="M17.3127975,12.126214c-0.5411491,0.1943722-0.2310925,0.8916082-0.6753654,1.1432133
		c-0.5762386-0.5612307-0.4972744-1.1581011-0.0964088-1.77248c0.3016224-0.0240974,0.5437851,0.102025,0.7575626,0.2998581
		C17.3013248,11.9066944,17.3060627,12.0164976,17.3127975,12.126214z"/>
	<path style="fill:#0C0C23;" d="M15.5235987,31.6362839c0.0304661-0.1165867,0.0609303-0.2331715,0.0913973-0.3497601
		c0.0957737-0.0043468,0.1915312-0.0090103,0.2872725-0.0139885c0.1192751-0.1751575,0.2405806-0.1765747,0.3639174-0.0042534
		c0.1131287,0.0014343,0.2262554,0.001442,0.3393822,0.0000229c0.1220322-0.1756535,0.2448101-0.1674995,0.3682308-0.0014973
		c0.1004829,0.0036526,0.2008572,0.0092411,0.3011208,0.0167656c-0.0292244,0.2072392-0.0584488,0.4144764-0.0876732,0.6217175
		C16.6369801,31.7891254,16.0201607,32.0845566,15.5235987,31.6362839z"/>
	<path style="fill:#FEDD00;" d="M27.5706482,23.5001945c-0.119566,0.0015144-0.2391281,0.0030308-0.3586941,0.0045452
		c-0.559866-1.065794-0.5140781-2.1308556,0.0038662-3.1953449c0.1258316-0.1092434,0.2516632-0.2184887,0.3774967-0.3277321
		C27.8138695,21.1559753,27.8516178,22.329113,27.5706482,23.5001945z"/>
	<path style="fill:#6A5716;" d="M9.9102411,15.0739088c-0.0070982,0.113678-0.0168056,0.2271318-0.0291309,0.3403769
		c-0.7655563-0.0610838-1.4820089-0.263217-2.1053324-0.7328758c-0.0895162-0.082509-0.1185851-0.1641903-0.0873361-0.2450895
		c0.0310774-0.0804558,0.0617881-0.1207085,0.0922618-0.1207085C8.5616951,14.368578,9.2457867,14.6936684,9.9102411,15.0739088z"/>
	<path style="fill:#B5920B;" d="M21.9335308,23.4751015c-0.0076847-1.0515747-0.0153675-2.1031475-0.0230598-3.1547585
		c0.1217823-0.0236092,0.2435684-0.0471802,0.3653584-0.0707531c0.2043819-0.0574894,0.3536186,0.0089283,0.4478321,0.1994019
		c-0.3110085,0.9830322,0.198864,2.0523739-0.3163757,3.0147057C22.2534943,23.6330185,22.0953178,23.6364822,21.9335308,23.4751015
		z"/>
	<path style="fill:#5B4B18;" d="M27.5706482,23.5001945c0.0075531-1.1728477,0.0151081-2.3456955,0.022665-3.5185375
		c0.1172028-0.0174141,0.2272396,0.0032673,0.3301125,0.0620537c0.1190739,0.0650616,0.1597481,0.1320038,0.1225262,0.2010975
		c-0.0376415,0.0698662-0.0757561,0.1049309-0.1148472,0.1049309c-0.004034,1.0506458-0.0080719,2.1012897-0.0121059,3.1519337
		c-0.1232166,0.1227512-0.239954,0.1232948-0.3491516-0.0184956L27.5706482,23.5001945z"/>
	<path style="fill:#A3840D;" d="M20.4981613,30.2179298c0.0198898,1.0420723,0.0397816,2.0841446,0.0596771,3.1262169
		c-0.1463261-0.0979385-0.292654-0.1958733-0.4389858-0.293808c-0.6422615-0.8674965-0.5332832-1.7795486-0.1617966-2.7077351
		C20.1005478,30.1432953,20.2813339,30.1018982,20.4981613,30.2179298z"/>
	<path style="fill:#907410;" d="M27.6114082,33.0229988c-0.0248756,0.1316185-0.0497532,0.263237-0.0746384,0.3948593
		c-0.1225452-0.1225204-0.2450848-0.2450447-0.3676262-0.367569c-0.229353-0.9225616-0.1464405-1.8513412-0.0548096-2.7811394
		c0.1902885-0.1518402,0.3799152-0.1517239,0.5705681-0.0002327C28.1832142,31.2012634,28.1991138,32.1203079,27.6114082,33.0229988
		z"/>
	<path style="fill:#B18F0B;" d="M24.3877716,27.0898952c-0.0041618,0.2270527-0.0083218,0.4541035-0.0124817,0.6811562
		c-0.1154556,0.1022606-0.2450733,0.1818504-0.3867893,0.243269c-0.2293835,0.0564632-0.4571838,0.0505676-0.6833076-0.0171776
		c-0.1366253-0.0735092-0.2486248-0.1746902-0.3324318-0.3063316c-0.1044846-0.0835743-0.2089691-0.1671467-0.3134174-0.250639
		C23.1231194,26.7690105,23.7958355,27.1287041,24.3877716,27.0898952z"/>
	<path style="fill:#0A0B23;" d="M4.7123423,13.9459372c-0.1617613-0.278698-0.7526238-0.6105289-0.4150171-0.8115625
		c0.5876374-0.3499174,1.2462907-0.0614071,1.7326636,0.4573574c-0.040226,0.062994-0.0804529,0.1259899-0.1200399,0.1896601
		C5.5256338,13.9424343,5.1700001,14.3172026,4.7123423,13.9459372z"/>
	<path style="fill:#0C0D23;" d="M21.9714813,32.6972961c-0.1398468-0.0026741-0.2796879-0.0053482-0.4196148-0.0080261
		c0.1256275-0.9250641-0.2552261-1.8956089,0.2501354-2.7865772c0.1343441,0.1962624,0.2686882,0.3925209,0.4030342,0.5887833
		C21.9096279,31.2037125,22.25284,31.983572,21.9714813,32.6972961z"/>
	<path style="fill:#FED700;" d="M22.6604252,20.3632946c-0.1282749-0.0375614-0.256546-0.0751209-0.3847103-0.1131935
		c0.0982399-0.7719669,0.6962662-0.637558,1.1871471-0.619606c0.4594898,0.0168076,0.3265858,0.3368835,0.2290058,0.606987
		c-0.2420635,0.0493507-0.4841328,0.0987053-0.7262001,0.1480579
		C22.8546028,20.5059719,22.7523708,20.5051994,22.6604252,20.3632946z"/>
	<path style="fill:#94780F;" d="M27.2158203,20.3093948c-0.0012913,1.0651131-0.0025826,2.1302261-0.0038719,3.1953411
		l-0.0047588-0.0136909c-0.1819115,0.1565914-0.339901,0.1353359-0.4739933-0.0632877
		c-0.0968018-0.8687515-0.0253639-1.7408714-0.0453129-2.6113987c-0.0175076-0.2050705,0.0504436-0.3763561,0.203619-0.5138321
		C27.0001774,20.2779408,27.108284,20.2802315,27.2158203,20.3093948z"/>
	<path style="fill:#4E401A;" d="M27.9311047,20.3497391c-0.0065022-0.1019173-0.0090637-0.2039356-0.0076809-0.3060398
		c0.4055443-0.014122,0.8116074-0.0473175,1.2164574-0.0362301c0.3118515,0.0085411,0.8262634-0.1261711,0.7710304,0.3767757
		c-0.0427666,0.3894405-0.5669079,0.2718391-0.8858929,0.3566284C28.7833538,20.2665691,28.3368683,20.365099,27.9311047,20.3497391
		z"/>
	<path style="fill:#5E4D17;" d="M5.2757683,22.7245178c-0.1197605-0.1069336-0.2395205-0.2138634-0.3592839-0.3207989
		c0.5120473-0.5056152,1.2356977-0.3439884,1.8328476-0.581255c0.1705375,0.0474262,0.2975693,0.1491699,0.3810973,0.3052311
		c-0.3673148,0.1374264-0.7346292,0.2748566-1.101943,0.4122868C5.8055286,22.715498,5.6305604,23.0867615,5.2757683,22.7245178z"/>
	<path style="fill:#040525;" d="M14.8098545,13.6238604c-0.3500309,0.2361822-0.7000637,0.4723663-1.0500965,0.7085485
		c-0.2913189-0.3213415-0.219389-0.651597,0.0804529-0.8759909C14.1793804,13.2025967,14.5650034,13.1198463,14.8098545,13.6238604z
		"/>
	<path style="fill:#C09D09;" d="M21.9714813,32.6972961c0.1686878-0.725584-0.1259403-1.5002651,0.2336292-2.205719
		c0.015131,0.977314,0.5014076,2.0077057-0.3251724,2.8904495C21.9104385,33.1537819,21.940958,32.9255371,21.9714813,32.6972961z"
		/>
	<path style="fill:#F0C002;" d="M27.1788101,30.2637749c-0.0031033,0.9288177-0.0062046,1.8576355-0.0094852,2.7864838
		c-0.0870056-0.0021553-0.1738453-0.0030708-0.2606907-0.0027046c-0.0036583-0.9376221-0.0073185-1.8752422-0.0109825-2.8128643
		C27.0019684,30.1419487,27.0951996,30.1563644,27.1788101,30.2637749z"/>
	<path style="fill:#896F11;" d="M7.7807035,14.3156118c-0.0016375,0.1219244-0.0032754,0.2438498-0.0049195,0.3657856
		c-0.1266804,0.0226231-0.2533541,0.0452347-0.3800282,0.0678463c-0.5785875,0.1007671-1.1592574,0.2399197-1.7143059-0.0930395
		c-0.0295849-0.0941219-0.0475588-0.1904116-0.0539203-0.2888699c0.3522062-0.5757256,0.9492993-0.222806,1.4137678-0.3728151
		C7.3638039,13.9264517,7.6038895,14.0481825,7.7807035,14.3156118z"/>
	<path style="fill:#27231F;" d="M21.9084816,26.3331184c0.4482536,0.9414692,0.4061356,1.8841515,0.0070038,2.8277206
		l-0.1002102-0.1438847c-0.1314392-0.8595428-0.0938587-1.7205791-0.0228062-2.581913L21.9084816,26.3331184z"/>
	<path style="fill:#FED300;" d="M19.4383717,33.4578209c0.3242493,0.6237831-0.0662518,0.6518402-0.5275803,0.6492577
		c-0.4501534-0.0025177-0.8624153-0.0088921-0.5309677-0.6438942
		C18.7308331,33.0978813,19.0837002,33.1000824,19.4383717,33.4578209z"/>
	<path style="fill:#EBBD03;" d="M20.1715317,30.180809c-0.0174484,0.9564819-0.0348988,1.9129677-0.0525131,2.8694878
		c-0.0900574-0.0067711-0.1799679-0.0133362-0.2698975-0.0196419c-0.0715427-0.0552216-0.1430836-0.1104431-0.2155418-0.1651535
		c-0.1009884-0.1536484-0.1690655-0.3208351-0.2087326-0.5002708c-0.0749836-0.7250862-0.1747723-1.4543324,0.2478409-2.1219826
		C19.8244343,30.108778,19.9909706,30.0881596,20.1715317,30.180809z"/>
	<path style="fill:#FEDD00;" d="M16.9673271,20.7169018c0.9727402,0.7898598,0.2905331,1.8459969,0.4458466,2.7676411
		C16.5136967,22.6832752,17.164278,21.6317387,16.9673271,20.7169018z"/>
	<path style="fill:#0D0E23;" d="M23.0566998,25.6439667c0.3214779,0.2211723,0.6429539,0.4423466,0.9644318,0.6635227
		c-0.3051052,0.327816-0.6518536,0.4211559-1.0444393,0.1649551C22.4844322,26.1511936,22.982233,25.915947,23.0566998,25.6439667z"
		/>
	<path style="fill:#6A5716;" d="M16.2870369,9.8790188c-0.8459654-0.5746241-1.0018835-0.9357595-0.8082495-1.4927607
		C16.1101475,8.590271,16.064064,9.0646133,16.2870369,9.8790188z"/>
	<path style="fill:#F8D101;" d="M12.0187502,15.6576958c-0.5872679-0.2182789-1.1745338-0.4365559-1.7618132-0.6548405
		C11.0690594,14.6161604,11.6487894,14.8547411,12.0187502,15.6576958z"/>
	<path style="fill:#121023;" d="M20.5289764,17.1445179c-0.3715801,0.2530823-0.7433777,0.4841499-1.1220684,0.0109863
		c-0.0912189-0.0969124-0.1135769-0.1836987-0.0672455-0.2604637c0.0432301-0.0716305,0.0835762-0.1075039,0.1212273-0.1075039
		c0.3641567-0.1121979,0.7283115-0.2243977,1.0924683-0.3365974C20.5452328,16.6821327,20.5371056,16.9133244,20.5289764,17.1445179
		z"/>
	<path style="fill:#FED800;" d="M23.3694496,17.4804649c0.4524097,0.0208416,0.9048214,0.0416851,1.3572216,0.0625248
		c-0.6622257,0.5388489-1.3942013,0.2826805-2.1433811,0.2298508C22.7801495,17.383873,23.1117401,17.5446968,23.3694496,17.4804649
		z"/>
	<path style="fill:#FED900;" d="M5.2757678,22.7245178c0.2509031-0.0615196,0.5018063-0.1230354,0.7527142-0.1845436
		c-0.0983853,1.0181026-0.7064219,0.9476147-1.4149618,0.6624584C4.8342681,23.043129,5.0550179,22.8838234,5.2757678,22.7245178z"
		/>
	<path style="fill:#635117;" d="M17.2985859,11.7968054c-0.3123074,0.0511389-0.5669346-0.0434523-0.7575417-0.2998466
		c0.0170975-0.2858152-0.3187904-0.8106871,0.1875591-0.7793713C17.187521,10.7459698,17.1556644,11.3984947,17.2985859,11.7968054z
		"/>
	<path style="fill:#000125;" d="M7.0412974,13.9945192c-0.3418646,0.6149426-0.9686031,0.1495914-1.4137669,0.3728123
		l0.0436945-0.0629025c-0.2295971-0.3926077,0.1431508-0.4905329,0.3319206-0.6784649l0.0268421-0.0342321
		C6.4651184,13.4798717,6.7114697,13.8419895,7.0412974,13.9945192z"/>
	<path style="fill:#27211F;" d="M20.8871994,12.5374489c-0.2472439,0.0051661-0.4944859,0.0103302-0.7417259,0.015501
		c-0.0001373-0.5714474-0.0002747-1.1429005-0.000412-1.7143326C20.7871647,11.2324705,20.0996876,12.207139,20.8871994,12.5374489z
		"/>
	<path style="fill:#F7C901;" d="M30.0487843,24.6341839l-0.1708832-0.0098534l-0.1662235,0.0409431
		c0.5471764-0.8413277,1.3937454-0.3073082,2.0918694-0.4552612c0.000782,0.1163692,0.0056934,0.2325764,0.0148754,0.3485622
		l-0.0543728,0.0396976c-0.1143913,0.1012554-0.2454681,0.1712704-0.3930702,0.2106876
		c-0.2991199-0.0178356-0.5938072-0.0941868-0.8964138-0.070261C30.3219662,24.7474785,30.1794739,24.7148113,30.0487843,24.6341839
		z"/>
	<path style="fill:#C8A908;" d="M20.1038914,21.0284767c0.0023766,0.7084427,0.004755,1.4168892,0.0071316,2.1253223
		C19.6523781,22.4468822,19.6643791,21.7383976,20.1038914,21.0284767z"/>
	<path style="fill:#40361B;" d="M10.2627392,25.6231403c0.2194738,0.3471642,0.4389477,0.6943245,0.6584206,1.0414886
		c-0.0395441,0.2737732,0.0717545,0.9337349-0.4308138,0.2841434
		C10.2480793,26.6356316,10.3284588,26.0728703,10.2627392,25.6231403z"/>
	<path style="fill:#43381B;" d="M7.1304297,22.1276951c-0.1270356-0.1017475-0.2540712-0.2034969-0.3811026-0.3052387
		c0.5458779-0.0548038,1.0250306-0.5109062,1.6506114-0.2884254C8.1704082,22.2059326,7.5907631,22.0381718,7.1304297,22.1276951z"
		/>
	<path style="fill:#F7C901;" d="M27.5698471,23.4831772c0.1163826,0.0061646,0.2327652,0.0123272,0.3491478,0.0184956
		c0.4969292,0.0065327,0.9938583,0.0130692,1.4907951,0.0196075c0.0937958-0.0122719,0.1874428-0.0112877,0.2809582,0.0031319
		C28.9736042,24.0321808,28.2654552,24.078722,27.5698471,23.4831772z"/>
	<path style="fill:#B7940A;" d="M21.5590496,19.9710445c-0.0076084,0.126236-0.0152187,0.2524757-0.0228271,0.3787136
		c-0.1178074,0.1448288-0.2300797,0.147665-0.3359756-0.0130978c-0.4394836-0.0867233-0.8527813-0.0928402-1.1161327,0.3626022
		c-0.1170616-0.025835-0.2341232-0.0516701-0.3512096-0.0775318c-0.0056171-0.1941833-0.0112076-0.3883362-0.0168266-0.5824699
		C20.3303833,20.0165367,20.9447155,19.9937897,21.5590496,19.9710445z"/>
	<path style="fill:#FEDE00;" d="M5.6814499,14.6562042c0.5714817,0.030941,1.1429629,0.0618811,1.7143755,0.0929317
		C6.8059435,15.0568295,6.2169948,15.3485231,5.6814499,14.6562042z"/>
	<path style="fill:#28221F;" d="M6.0031457,13.6259642c-0.1106405,0.2261543-0.2212815,0.4523106-0.3319211,0.6784649
		c-0.3751225,0.0289354-0.7572179,0.0765238-0.9588857-0.3584909C5.1426101,13.8392792,5.5728779,13.7326212,6.0031457,13.6259642z"
		/>
	<path style="fill:#F7C901;" d="M18.7163696,23.4557209c0.1201248,0.0087395,0.2341404-0.0136395,0.3420753-0.0673962
		c-0.5627079,0.7064838-1.128767,0.7228222-1.698349,0.0072441c0.1120701,0.0070438,0.2237492,0.0185909,0.3350334,0.0339546
		C18.0421085,23.1823425,18.3819313,23.2140732,18.7163696,23.4557209z"/>
	<path style="fill:#3F351C;" d="M19.4383717,33.4578209c-0.3528481,0.0017891-0.7056961,0.0035706-1.0585461,0.0053596
		c-0.0936584-0.0458794-0.1920128-0.0768433-0.295063-0.0928841c-0.2009754-0.1457253-0.2028999-0.2940292-0.0061321-0.4449615
		c0.5554008-0.1581459,1.1194992-0.4178543,1.6171646,0.1325836l0.153326-0.0272636
		C19.712204,33.1730461,19.5752888,33.3154335,19.4383717,33.4578209z"/>
	<path style="fill:#2D271E;" d="M14.8204689,7.4077654c0.0138254-0.5345917,0.0276518-1.0691838,0.0414839-1.6037893
		C15.1608305,6.346653,15.5447254,6.8915429,14.8204689,7.4077654z"/>
	<path style="fill:#FEDA00;" d="M22.6379375,34.7033005c0.5802765,0.0225677,1.1605492,0.0451355,1.7408333,0.0676537
		C23.7760372,35.3267555,23.1919403,35.4024925,22.6379375,34.7033005z"/>
	<path style="fill:#161522;" d="M16.6563358,13.6233158c0.271307,0.2035503,0.2915287,0.4514008,0.0821571,0.6968012
		c-0.2414951,0.2830534-0.519804,0.3996553-0.8162384,0.055582C16.1669483,14.1249037,16.4116421,13.8741102,16.6563358,13.6233158z
		"/>
	<path style="fill:#050624;" d="M26.8915024,20.3025265c-0.027504,0.1232491-0.0550098,0.2465-0.0825157,0.3697491
		c-0.0968876,0.172369-0.2015915,0.1862354-0.3153973,0.0155563c-0.3702736-0.0279865-0.7801399,0.0690384-1.0337162-0.3274021
		C25.9250259,20.0429974,26.405447,20.103157,26.8915024,20.3025265z"/>
	<path style="fill:#D3AA06;" d="M18.0820751,33.0263405c-0.0258255,0.1148567-0.0249557,0.2295113,0.0026455,0.343956
		c-0.6115952-0.3219872-0.3509579-0.9026451-0.4115715-1.3880424c0.0987511-0.116663,0.1974888-0.2333183,0.2962227-0.3499737
		c0.0342255,0.3533554,0.0684528,0.7067089,0.1026802,1.0600643c0.0974102,0.0713654,0.1313038,0.1446075,0.101881,0.2198143
		C18.1441631,32.9882507,18.1136093,33.0263405,18.0820751,33.0263405z"/>
	<path style="fill:#CACACA;" d="M28.6466637,40.094574c-0.7169647-0.0705032-1.4940014,0.275631-2.136858-0.3079147
		C27.2310581,39.8276711,28.0007553,39.5313187,28.6466637,40.094574z"/>
	<path style="fill:#F9D701;" d="M17.3189564,18.2065182c-0.5444393,0.6344261-1.6958523,0.0725384-2.0669107,1.048708
		c0.0892525-0.3590164-0.9127378-0.9201622,0.2017546-1.0893154C16.0796623,17.989109,16.7032661,17.9160519,17.3189564,18.2065182z
		"/>
	<path style="fill:#E0B704;" d="M19.4608898,16.7875366c-0.0179939,0.1226559-0.0359859,0.2453136-0.0539818,0.3679676
		c-0.3645287,0.0892601-0.3565598,1.0432072-1.019701,0.4392815C19.0752888,17.764864,18.3020363,15.9913168,19.4608898,16.7875366z
		"/>
	<path style="fill:#F7C801;" d="M17.3189545,18.2065182c-0.6215782-0.0134945-1.2431602-0.026989-1.8649464-0.0405445
		c0.5400801-0.5116081,1.2387447-0.2031059,1.8480968-0.3570309C17.3077202,17.9414673,17.3133373,18.0739937,17.3189545,18.2065182
		z"/>
	<path style="fill:#221F20;" d="M27.1788101,30.2637749l-0.1381931-0.0376263l-0.1429672,0.0085411
		c-0.1306725-0.006052-0.2613468-0.0121021-0.3920231-0.0181561c-0.4887066,0.8942623,0.1121941,1.9243851-0.3518314,2.8217278
		c-0.3261662,0.0083847-0.6523304,0.0167694-0.9784946,0.0251541c-0.0446949-2.2488251-0.0893879-4.4976482-0.1340828-6.7464657
		c0.1333275-0.1371727,0.2666626-0.2743511,0.399992-0.4115334c1.1603012-0.260973,2.350605-0.7695961,3.3372707,0.4038353
		c0.0159378,2.0888195,0.0525074,4.1781216-0.0187702,6.2667179c-0.7982521,0.6236801-0.9210358,0.0806274-1.0145817-0.5720825
		c-0.085146-0.594101,0.2312794-1.240387-0.2293701-1.7849846C27.4010887,30.2161865,27.2887745,30.231142,27.1788101,30.2637749z"
		/>
	<path style="fill:#F7C901;" d="M28.6384811,26.2830124c-0.9942284-0.7315331-2.1436157-0.1492767-3.1972733-0.3775959
		c0.0011768-0.0964165,0.0037193-0.1927929,0.0076256-0.2891369c1.0541534-0.2613754,2.1086426-0.2541103,3.1634426-0.0040016
		c0.2771626,0.1413555,0.3525944,0.3878746,0.3515167,0.6742821c-0.0436993,0.0686665-0.0327644,0.1271038,0.0328083,0.1753178
		C28.826643,26.5035343,28.7096004,26.4392509,28.6384811,26.2830124z"/>
	<path style="fill:#FEDC00;" d="M28.6122761,25.612278c-1.0545273,0.0013905-2.1090527,0.0027809-3.1635113,0.0040855
		C26.5026169,25.0649395,27.5571022,25.0664864,28.6122761,25.612278z"/>
	<path style="fill:#E6C104;" d="M21.9335308,23.4751015c0.1148186,0.0198746,0.2304173,0.0268784,0.3467903,0.0210094
		c0.2842979-0.2856083,0.5626678-0.5846195,1.0303059-0.4558048c0.1210442,0.0264034,0.242094,0.0528088,0.3631382,0.0791855
		c-0.1880226,1.1984673-1.1242218,0.6086674-1.7601986,0.7363834
		C21.9202347,23.7289352,21.9268799,23.6020203,21.9335308,23.4751015z"/>
	<path style="fill:#F7C901;" d="M26.8596611,23.5059338c0.1170063,0.0225658,0.2328453,0.0176601,0.3475285-0.0148029
		c-0.5674381,0.5810719-1.1606007,0.5008392-1.7674541,0.0686607c0.0600052-0.1697502,0.1794815-0.2754555,0.3505783-0.3255844
		c0.2372475,0.0952988,0.4744987,0.1905994,0.7117443,0.285902C26.6127949,23.3018265,26.7319965,23.2970943,26.8596611,23.5059338z
		"/>
	<path style="fill:#9C7E0E;" d="M25.7903137,23.2342072c-0.116848,0.1083317-0.233696,0.2166634-0.3505611,0.3252888
		c-0.1317673-0.0365028-0.2635212-0.0733032-0.3952732-0.1101055c0.0704727-0.3260231-0.0210056-0.8059902,0.4188004-0.8583393
		C25.9014225,22.5389042,25.7332706,22.9859333,25.7903137,23.2342072z"/>
	<path style="fill:#141322;" d="M23.310627,23.0403061c-0.2652092,0.3287678-0.533329,0.6509514-1.0303078,0.455801
		c0.1045017-1.0469627-0.3467999-2.1613674,0.3801079-3.1328144c0.1047688-0.0340767,0.2065163-0.0266609,0.3052406,0.0222473
		C22.916502,21.2917919,22.9885082,22.1822987,23.310627,23.0403061z"/>
	<path style="fill:#121222;" d="M26.8596611,23.5059338c-0.1192017,0.0047226-0.2383995,0.0094433-0.3576031,0.0141716
		c-0.0027409-0.9441643-0.0054817-1.8883305-0.0083447-2.8323879c0.1049976-0.006052,0.210165-0.0112343,0.3153248-0.0154362
		C26.8258781,21.6168289,26.8427696,22.5613804,26.8596611,23.5059338z"/>
	<path style="fill:#1A1821;" d="M16.2661858,31.2682819c-0.1212769,0.0014477-0.2425537,0.0028973-0.3638744,0.004303
		c-0.0000429-1.8569279-0.0000429-3.7138042-0.0000429-5.5706844c0.1213045-0.0021992,0.2426119-0.0043983,0.3639174-0.0065975
		C16.2661858,27.5529633,16.2661858,29.4106216,16.2661858,31.2682819z"/>
	<path style="fill:#1A1821;" d="M16.9737988,31.2668076c-0.1226902,0.0005646-0.2453785,0.0011253-0.3681488,0.0015945
		c-0.000082-1.856039-0.000082-3.711977-0.000082-5.5679188c0.1227436-0.0021839,0.2454872-0.0043659,0.3682308-0.0065479
		C16.9737988,27.5515594,16.9737988,29.4091854,16.9737988,31.2668076z"/>
	<path style="fill:#000325;" d="M30.0487843,24.6341839c0.113142-0.0152206,0.2262821-0.0304432,0.3394241-0.0456638
		c0.1256504,0.0722847,0.1676331,0.1449184,0.1264553,0.2181911c-0.0411682,0.0732613-0.0825768,0.1100407-0.1247406,0.1100407
		c-0.1843624,2.1860027,0.3357029,4.4007301-0.2675152,6.5687065
		C30.0981121,29.2010765,30.0734463,26.9176292,30.0487843,24.6341839z"/>
	<path style="fill:#121222;" d="M30.3899231,24.9167519c-0.0006905-0.1094093-0.0012608-0.2188187-0.0017147-0.3282318
		c0.3466339-0.0012512,0.6932659-0.0025043,1.0398979-0.0037556c0.3320637,2.1122456,0.2863731,4.2255573,0.017952,6.3395023
		c-0.7443161-1.4407387-0.1656895-2.98489-0.3500881-4.4692097C31.0232353,25.8695812,31.3732758,25.0857792,30.3899231,24.9167519z
		"/>
	<path style="fill:#96790F;" d="M31.4460583,30.9242668c-0.0059834-2.1131668-0.0119648-4.2263355-0.0179482-6.3395023
		c0.1129971-0.018465,0.2250977-0.0140686,0.3361206,0.0133476c0.0038433,2.1175385,0.0078678,4.2349186,0.0118828,6.3523026
		l-0.1665211,0.0057163L31.4460583,30.9242668z"/>
	<path style="fill:#211E20;" d="M20.1715317,30.180809c-0.1339588,0.009203-0.2679214,0.0184059-0.4018803,0.0276108
		c-0.1090603,0.121912-0.1997776,0.2560444-0.2690754,0.4049797c-0.2149944,0.7068501,0.1927872,1.5272064-0.3967228,2.16539
		c-0.2568188,0.0894737-0.5044918,0.110466-0.7227974-0.0936623c0-1.9165115,0-3.8330212,0-6.0274124
		c1.0565186,0.6786041,0.4419403,1.5983791,0.8667698,2.1840801c0.4907913-0.6699657-0.2152119-1.6121769,0.5989761-2.1348553
		c0.5361137,0.6891956,0.3502998,1.5214481,0.4570751,2.2963772c-0.0101147,0.1801834-0.0631905,0.3471203-0.1571617,0.5010548
		c0.1206264,0.1253662,0.241251,0.2507324,0.3619995,0.3763103c-0.0024567,0.112587-0.0060139,0.2249298-0.0105515,0.3372459
		L20.3379135,30.17239L20.1715317,30.180809z"/>
	<path style="fill:#111122;" d="M20.1467152,29.5043716c0.0041161-0.1030483,0.0093994-0.2060356,0.015852-0.3089657
		c-0.0024567-0.0849915-0.0049095-0.169981-0.0075874-0.2549877c0.0619526-0.7495918-0.2012424-1.5407906,0.2857704-2.2360306
		c0.794611,0.707407,0.2450542,1.6406822,0.4122849,2.4535255C20.6992493,29.4398689,20.4371071,29.5009155,20.1467152,29.5043716z"
		/>
	<path style="fill:#000126;" d="M21.792469,26.4350414c0.0077877,0.861021,0.0155735,1.7220383,0.0230827,2.5824852
		c-0.5354862-0.7263508-0.1109085-1.5614452-0.2657547-2.3305244C21.6306152,26.6030369,21.711544,26.5190392,21.792469,26.4350414z
		"/>
	<path style="fill:#F5C601;" d="M20.1625671,29.195406c-0.7588673-0.7465515-0.2860069-1.6493969-0.3157654-2.4884663
		c0.0906887-0.005846,0.1761265,0.0126038,0.256319,0.0553513c0.3475113,0.7848606,0.3132133,1.5724125,0.0166512,2.3618145
		L20.1625671,29.195406z"/>
	<path style="fill:#A1820D;" d="M20.119772,29.1241055c-0.0055485-0.7872753-0.011097-1.5745487-0.0166492-2.3618202
		c0.1079788-0.0462189,0.2205753-0.0655422,0.3377094-0.0579281C20.3830853,27.5175037,20.8503418,28.4002514,20.119772,29.1241055z
		"/>
	<path style="fill:#131222;" d="M18.3810558,32.6851273c0.2342129,0.0009689,0.4684238,0.0019341,0.7026348,0.0028992
		c0.0809116-0.1097412,0.1876202-0.1753464,0.3244228-0.1902428c0.136919,0.0177536,0.2409515,0.0861282,0.3121662,0.2044373
		c-0.0081615,0.1185646-0.0163212,0.237133-0.0244846,0.3556976c-0.5379143-0.0105247-1.0758266-0.0210495-1.6137314-0.0315781
		c-0.0629902-0.109539-0.0663338-0.220871-0.0100174-0.3339958C18.1750507,32.689827,18.2780514,32.6874199,18.3810558,32.6851273z"
		/>
	<path style="fill:#040524;" d="M18.7163696,23.4557209c-0.3450375,0.1714954-0.6859856,0.1836376-1.0212402-0.0261955
		c0.016901-0.8050194,0.0325623-1.6100655,0.0513268-2.4150372c0.0073318-0.3144913,0.1131344-0.5842171,0.4745789-0.5739841
		c0.358345,0.0101452,0.4531002,0.2885017,0.45858,0.5991611C18.6938152,21.8449821,18.7043629,22.6503658,18.7163696,23.4557209z"
		/>
	<path style="fill:#40361B;" d="M21.2002468,20.3366604c0.1135349-0.035141,0.2255306-0.030777,0.3359814,0.0130939
		c-0.1320629,1.0330696,0.4053497,2.1433678-0.3580456,3.1036015
		C21.1855373,22.4144573,21.1928921,21.3755589,21.2002468,20.3366604z"/>
	<path style="fill:#0C0D23;" d="M28.6384811,26.2830124c0.1193733,0.0596218,0.2387447,0.1192417,0.35812,0.1788654
		c-0.0287323,2.0767727-0.0574646,4.1535454-0.0862007,6.2303181c-0.0933933,0.1280365-0.1866074,0.1279068-0.2796345-0.0004005
		C28.6333389,30.5555363,28.63591,28.4192734,28.6384811,26.2830124z"/>
	<path style="fill:#0B0B23;" d="M28.6307659,32.6917953c0.0935745-0.0011101,0.1871471-0.0009956,0.28018,0.0003738
		c-0.3243713,0.5391464-0.8505173,0.283844-1.2996025,0.3308525c-0.0316982-0.9347-0.0634594-1.869381-0.0954018-2.8040867
		C28.5254002,30.7555447,27.1587257,32.3636436,28.6307659,32.6917953z"/>
	<path style="fill:#211D20;" d="M23.3188877,27.7920647c0.2392197-0.0005608,0.4784412-0.0011177,0.7176609-0.0016766
		c0.2728062,2.1164341,0.261673,4.2330647,0.0043983,6.3498631c-0.1623898,0.2904854-0.4360886,0.3094444-0.7229271,0.2963562
		C23.050827,32.2217255,23.0496178,30.0068779,23.3188877,27.7920647z"/>
	<path style="fill:#111123;" d="M23.3188877,27.7920647c-0.000248,2.2149506-0.0004959,4.4299011-0.0008049,6.6446953
		c-0.7746601-2.2149315-0.16432-4.5005913-0.3453236-6.7458515C23.0881367,27.7245636,23.2035141,27.7583141,23.3188877,27.7920647z
		"/>
	<path style="fill:#131322;" d="M24.040947,34.1402512c-0.0014687-2.1166344-0.0029373-4.2332726-0.0044003-6.349884
		c0.1107178-0.0448914,0.2236385-0.0513496,0.338747-0.019331c0.0203342,2.0011673,0.0406704,4.0023193,0.0610123,6.0034618
		c-0.0378914,0.1009407-0.072073,0.2031364-0.1025524,0.3065758C24.2364483,34.1022835,24.1388474,34.1220055,24.040947,34.1402512z
		"/>
	<path style="fill:#1A1821;" d="M26.1537952,33.0382614c0.1509266-0.9363785-0.3563671-1.9548206,0.3518219-2.8217258
		C26.3396111,31.1510315,26.8618717,32.1713524,26.1537952,33.0382614z"/>
	<path style="fill:#332C1E;" d="M19.7202797,32.7022209c-0.0929279-0.0037155-0.1858063-0.0083694-0.2786369-0.0139656
		c-0.274683-0.8237572-0.2687378-1.6476727-0.0014343-2.4717407c0.1098423-0.0015736,0.219656-0.0042725,0.329443-0.0080948
		C19.7531929,31.0396881,19.7367344,31.8709545,19.7202797,32.7022209z"/>
	<path style="fill:#3F351C;" d="M26.9218884,29.1183643c-0.6483765-0.6917114-0.5957336-1.3853455-0.0057087-2.0804539
		C28.0499535,27.7282887,27.6596355,28.4228497,26.9218884,29.1183643z"/>
	<path style="fill:#8C7111;" d="M26.9218884,29.1183643c0.267416-0.6943474,0.5745277-1.3888168-0.0060558-2.0805054
		c0.0651302-0.3472443,0.3498859-0.3196774,0.599699-0.3516541c0.3354511,0.82304,0.3373814,1.6459522-0.0009346,2.4687366
		C27.3170261,29.1427479,27.1194572,29.1305561,26.9218884,29.1183643z"/>
	<path style="fill:#0C0D23;" d="M27.5145969,29.1549416c0.0004387-0.8228931,0.0008812-1.6457825,0.0011292-2.468708
		C28.1525803,27.5093575,28.1528645,28.3322697,27.5145969,29.1549416z"/>
	<path style="fill:#191721;" d="M19.4402084,30.2165146c0.0004578,0.823925,0.0009136,1.6478462,0.0014019,2.471756
		c-0.1192703-0.0000801-0.2385712-0.0001411-0.3578968-0.0002251
		C19.2257118,31.8675346,18.7579861,30.9590836,19.4402084,30.2165146z"/>
	<path style="fill:#3C331C;" d="M18.3086605,20.6587791c0,0.7390614,0,1.068594,0,1.6132774
		C17.9748878,21.7554016,17.9969196,21.4190903,18.3086605,20.6587791z"/>
</g>
</svg>
