<?xml version="1.0" encoding="utf-8"?>
<!-- Generator: Adobe Illustrator 21.1.0, SVG Export Plug-In . SVG Version: 6.00 Build 0)  -->
<svg version="1.1" id="Слой_1" xmlns="http://www.w3.org/2000/svg" xmlns:xlink="http://www.w3.org/1999/xlink" x="0px" y="0px"
	 viewBox="0 0 25 25" style="enable-background:new 0 0 25 25;" xml:space="preserve">
<g>
	<path style="fill:#4C75A2;" d="M19.9648685,22.6872387c-4.9907398,0-9.9814806,0-14.9722204,0
		c-0.0030918-0.0269966-0.0263433-0.0165386-0.0399017-0.017664c-0.0869751-0.0072136-0.1731734-0.0191097-0.2591438-0.033638
		c-0.6249518-0.1055984-1.173434-0.365284-1.637706-0.7848816c-0.6038146-0.5457153-0.9462893-1.2204266-1.0281177-2.0194073
		c-0.0013471-0.0131531,0.0088909-0.0357323-0.0191042-0.0375843c0-4.86271,0-9.7254181,0-14.5881271
		c0.0304468-0.0063243,0.0171831-0.0315361,0.0197041-0.0478354C2.0421269,5.0692177,2.0493729,4.979238,2.066292,4.890985
		c0.266953-1.3924911,1.4358268-2.4301775,2.8812459-2.5599477c0.0155954-0.0014002,0.0387278,0.0075545,0.0451102-0.0182765
		c4.9907398,0,9.9814806,0,14.9722204,0c0.0080051,0.0279441,0.0333023,0.0170667,0.0502682,0.0185578
		c0.4059391,0.0356705,0.794672,0.1361957,1.1537895,0.3226862c1.037735,0.5389004,1.6277714,1.3782332,1.7610245,2.5181615
		c0.0017815,0.0152316-0.0073185,0.0375977,0.0188904,0.0439577c0,4.8559175,0,9.7118359,0,14.5677528
		c-0.0280952,0.0080376-0.0176907,0.0323811-0.0191765,0.049017c-0.0081615,0.0913696-0.0209579,0.1821213-0.0378475,0.2722054
		c-0.2600555,1.3870926-1.4367085,2.4333553-2.8819103,2.5638523
		C19.9943562,22.6703548,19.9711571,22.6612968,19.9648685,22.6872387z M13.6617661,10.5963268
		c0.0087318-0.2468157,0.0204411-0.5436993,0.0292788-0.8406649c0.0051546-0.1731691,0.0023565-0.3462276-0.028615-0.5177507
		c-0.0419893-0.2325258-0.1683741-0.3946838-0.406579-0.4638882c-0.1473999-0.0428238-0.2980928-0.0702-0.4508715-0.0863676
		c-0.2554121-0.027029-0.5119801-0.0292559-0.7684584-0.030241c-0.4152756-0.0015955-0.8308687-0.0045652-1.2423515,0.0627995
		c-0.2065678,0.0338163-0.4050779,0.0900059-0.569459,0.225565c-0.0709772,0.0585337-0.1363506,0.1224031-0.1725035,0.2080069
		c-0.020648,0.0488901-0.0073872,0.0691929,0.0463743,0.0768423c0.064003,0.0091057,0.1267872,0.023221,0.1887379,0.0409594
		c0.2842932,0.0814018,0.4780407,0.2497835,0.5515375,0.5372839c0.0286922,0.1122341,0.0555935,0.2246361,0.0661049,0.3397493
		c0.0312157,0.341855,0.0399542,0.6846399,0.0369949,1.0276575c-0.0024776,0.2871389-0.0152512,0.573801-0.0723438,0.8565578
		c-0.0286303,0.1417933-0.0630131,0.282382-0.1497974,0.403904c-0.057148,0.0800219-0.1374369,0.1183176-0.2369862,0.1161528
		c-0.1007509-0.0021915-0.1840754-0.0486603-0.2612181-0.1057978c-0.1883726-0.1395226-0.3335876-0.3183174-0.4688206-0.5041094
		c-0.494606-0.6795292-0.9122267-1.4017916-1.2570677-2.1638298C8.4352894,9.6456099,8.3768711,9.5111799,8.319109,9.3765144
		C8.2169275,9.1382885,8.0215511,9.0141726,7.7688589,9.011651c-0.6629353-0.0066156-1.326066,0.0045443-1.98911,0.0097237
		c-0.1195264,0.0009346-0.2362523,0.020566-0.3453865,0.0709581C5.3418698,9.1350393,5.2943487,9.2056427,5.2962461,9.3070326
		c0.0015802,0.0844316,0.0196042,0.164814,0.0546393,0.2419252c0.4023027,0.8854599,0.8475957,1.7499695,1.3373032,2.5926971
		c0.4504275,0.7751341,0.9367523,1.5274658,1.5039864,2.2280426c0.2866907,0.354085,0.5934687,0.6902132,0.9444771,0.98557
		c0.5039864,0.4240818,1.0676937,0.7505789,1.6975346,0.9650049c0.4556036,0.1551094,0.9233789,0.2510891,1.4082146,0.2535248
		c0.284421,0.0014305,0.5688601-0.0009899,0.8532877-0.0002766c0.1329365,0.0003319,0.2542715-0.0373726,0.3682909-0.1002941
		c0.0739975-0.0408344,0.1250763-0.1017876,0.1558485-0.1790257c0.0352163-0.0883904,0.0450697-0.1804962,0.0469942-0.2745171
		c0.0049486-0.2417383,0.0290194-0.4813356,0.0980253-0.7146921c0.0486507-0.1645155,0.112587-0.3222933,0.2442799-0.4431953
		c0.1187725-0.1090403,0.255518-0.1475811,0.4138937-0.0905361c0.0996475,0.0358915,0.1856995,0.0931559,0.2664709,0.1585741
		c0.2264233,0.1833878,0.4134312,0.403657,0.607357,0.6173286c0.19172,0.2112427,0.3785791,0.4273558,0.5989838,0.6114159
		c0.3421621,0.2857399,0.7192717,0.4649792,1.1921892,0.4434795c0.6044712-0.0274792,1.2106037-0.0207977,1.8160343-0.0277214
		c0.1326408-0.0015163,0.2599564-0.0267677,0.3828964-0.0728893c0.3152161-0.1182518,0.4086761-0.3400612,0.2652912-0.6381607
		c-0.079277-0.1648197-0.1795197-0.3183231-0.2911205-0.4644222c-0.3470421-0.4543161-0.7558727-0.853035-1.1784763-1.2394152
		c-0.2198486-0.2010031-0.4487-0.3933058-0.6424999-0.6198254c-0.201786-0.2358541-0.2227249-0.426816-0.0778294-0.6991539
		c0.0635548-0.1194506,0.1398277-0.2312727,0.2229424-0.3383026c0.3270588-0.4211597,0.6581459-0.8393784,0.9827194-1.2623358
		c0.3028507-0.3946524,0.591774-0.7988634,0.8256931-1.2371588c0.0941162-0.1763468,0.1792984-0.356801,0.2131901-0.5555973
		c0.0377274-0.2212906-0.0428658-0.3441486-0.2648487-0.4008112c-0.0779228-0.0198898-0.1575642-0.0320625-0.2378368-0.0317755
		c-0.1656532,0.0005932-0.3312778,0.0067453-0.4969349,0.0079021c-0.6264076,0.0043745-1.252821,0.0076847-1.8792324,0.0113373
		c-0.0644474,0.0003757-0.1290607-0.0060387-0.1932182,0.0051746c-0.1717854,0.0300245-0.2630062,0.1490183-0.3208408,0.2923441
		c-0.3172932,0.7863111-0.7044849,1.5369749-1.1903191,2.2382545c-0.1786156,0.2578259-0.3627253,0.5115442-0.5892601,0.7326384
		c-0.0863743,0.0843-0.1789284,0.1616459-0.2932777,0.2101221c-0.1028328,0.0435944-0.1931591,0.028266-0.2736149-0.0477686
		c-0.0907516-0.0857649-0.1418953-0.1924362-0.1716185-0.3096027c-0.0544643-0.2146959-0.0553846-0.433753-0.0515671-0.6529131
		C13.6492586,11.2167978,13.6552458,10.9316349,13.6617661,10.5963268z"/>
	<path style="fill:#FEFEFE;" d="M13.6617661,10.5963268c-0.0065203,0.3353081-0.0125074,0.620471-0.0174723,0.9056511
		c-0.0038176,0.2191601-0.0028973,0.4382172,0.0515671,0.6529131c0.0297232,0.1171665,0.0808668,0.2238379,0.1716185,0.3096027
		c0.0804558,0.0760345,0.1707821,0.091363,0.2736149,0.0477686c0.1143494-0.0484762,0.2069035-0.1258221,0.2932777-0.2101221
		c0.2265348-0.2210941,0.4106445-0.4748125,0.5892601-0.7326384c0.4858341-0.7012796,0.8730259-1.4519434,1.1903191-2.2382545
		c0.0578346-0.1433258,0.1490555-0.2623196,0.3208408-0.2923441c0.0641575-0.0112133,0.1287708-0.0047989,0.1932182-0.0051746
		c0.6264114-0.0036526,1.2528248-0.0069628,1.8792324-0.0113373c0.165657-0.0011568,0.3312817-0.007309,0.4969349-0.0079021
		c0.0802727-0.0002871,0.159914,0.0118856,0.2378368,0.0317755c0.221983,0.0566626,0.3025761,0.1795206,0.2648487,0.4008112
		c-0.0338917,0.1987963-0.1190739,0.3792505-0.2131901,0.5555973c-0.2339191,0.4382954-0.5228424,0.8425064-0.8256931,1.2371588
		c-0.3245735,0.4229574-0.6556606,0.841176-0.9827194,1.2623358c-0.0831146,0.1070299-0.1593876,0.218852-0.2229424,0.3383026
		c-0.1448956,0.2723379-0.1239567,0.4632998,0.0778294,0.6991539c0.1938,0.2265196,0.4226513,0.4188223,0.6424999,0.6198254
		c0.4226036,0.3863802,0.8314342,0.785099,1.1784763,1.2394152c0.1116009,0.1460991,0.2118435,0.2996025,0.2911205,0.4644222
		c0.1433849,0.2980995,0.0499249,0.5199089-0.2652912,0.6381607c-0.1229401,0.0461216-0.2502556,0.071373-0.3828964,0.0728893
		c-0.6054306,0.0069237-1.2115631,0.0002422-1.8160343,0.0277214c-0.4729176,0.0214996-0.8500271-0.1577396-1.1921892-0.4434795
		c-0.2204046-0.1840601-0.4072638-0.4001732-0.5989838-0.6114159c-0.1939259-0.2136717-0.3809338-0.4339409-0.607357-0.6173286
		c-0.0807714-0.0654182-0.1668234-0.1226826-0.2664709-0.1585741c-0.1583757-0.057045-0.2951212-0.0185041-0.4138937,0.0905361
		c-0.1316929,0.1209021-0.1956291,0.2786798-0.2442799,0.4431953c-0.069006,0.2333565-0.0930767,0.4729538-0.0980253,0.7146921
		c-0.0019245,0.0940208-0.0117779,0.1861267-0.0469942,0.2745171c-0.0307722,0.0772381-0.081851,0.1381912-0.1558485,0.1790257
		c-0.1140194,0.0629215-0.2353544,0.100626-0.3682909,0.1002941c-0.2844276-0.0007133-0.5688667,0.0017071-0.8532877,0.0002766
		c-0.4848356-0.0024357-0.952611-0.0984154-1.4082146-0.2535248c-0.6298409-0.214426-1.1935482-0.5409231-1.6975346-0.9650049
		c-0.3510084-0.2953568-0.6577864-0.631485-0.9444771-0.98557c-0.567234-0.7005768-1.0535588-1.4529085-1.5039864-2.2280426
		c-0.4897075-0.8427277-0.9350004-1.7072372-1.3373032-2.5926971C5.3158503,9.4718466,5.2978263,9.3914642,5.2962461,9.3070326
		C5.2943487,9.2056427,5.3418698,9.1350393,5.4343624,9.0923328c0.1091342-0.0503922,0.2258601-0.0700235,0.3453865-0.0709581
		c0.663044-0.0051794,1.3261747-0.0163393,1.98911-0.0097237C8.0215511,9.0141726,8.2169275,9.1382885,8.319109,9.3765144
		c0.0577621,0.1346655,0.1161804,0.2690954,0.1766138,0.4026413c0.344841,0.7620382,0.7624617,1.4843006,1.2570677,2.1638298
		c0.1352329,0.185792,0.280448,0.3645868,0.4688206,0.5041094c0.0771427,0.0571375,0.1604671,0.1036062,0.2612181,0.1057978
		c0.0995493,0.0021648,0.1798382-0.0361309,0.2369862-0.1161528c0.0867844-0.1215219,0.1211672-0.2621107,0.1497974-0.403904
		c0.0570927-0.2827568,0.0698662-0.5694189,0.0723438-0.8565578c0.0029593-0.3430176-0.0057793-0.6858025-0.0369949-1.0276575
		c-0.0105114-0.1151133-0.0374126-0.2275152-0.0661049-0.3397493c-0.0734968-0.2875004-0.2672443-0.4558821-0.5515375-0.5372839
		c-0.0619507-0.0177383-0.1247349-0.0318537-0.1887379-0.0409594c-0.0537615-0.0076494-0.0670223-0.0279522-0.0463743-0.0768423
		c0.0361528-0.0856037,0.1015263-0.1494732,0.1725035-0.2080069c0.164381-0.1355591,0.3628912-0.1917486,0.569459-0.225565
		c0.4114828-0.0673647,0.827076-0.064395,1.2423515-0.0627995c0.2564783,0.0009851,0.5130463,0.003212,0.7684584,0.030241
		c0.1527786,0.0161676,0.3034716,0.0435438,0.4508715,0.0863676c0.238205,0.0692043,0.3645897,0.2313623,0.406579,0.4638882
		c0.0309715,0.1715231,0.0337696,0.3445816,0.028615,0.5177507C13.6822071,10.0526276,13.6704979,10.3495111,13.6617661,10.5963268z
		"/>
</g>
</svg>
