<?xml version="1.0" encoding="utf-8"?>
<!-- Generator: Adobe Illustrator 21.1.0, SVG Export Plug-In . SVG Version: 6.00 Build 0)  -->
<svg version="1.1" id="Слой_1" xmlns="http://www.w3.org/2000/svg" xmlns:xlink="http://www.w3.org/1999/xlink" x="0px" y="0px"
	 viewBox="0 0 25 25" style="enable-background:new 0 0 25 25;" xml:space="preserve">
<g>
	<path style="fill:#FFFFFF;" d="M24.6791496,7.2659206c-0.1014271,0.0977173-0.2098942,0.1891704-0.3032398,0.2940764
		c-1.86413,2.0949636-3.7264748,4.1915145-5.5893822,6.2875657c-0.0837002,0.0941744-0.1693039,0.186657-0.2407207,0.2652845
		c-1.2827129-1.2827711-2.550271-2.5503874-3.8079967-3.8081684C15.226284,9.827033,15.7373028,9.327342,16.257822,8.8183594
		c0.7174435,0.7188444,1.4736176,1.4764919,2.2535324,2.2579308c1.5516777-1.8093967,3.0817165-3.5935555,4.6290741-5.3979135
		c0.4564724,0.4566708,0.8957367,0.8979268,1.3378525,1.3363042c0.0595989,0.059093,0.1335602,0.1037011,0.2008686,0.1550169
		C24.6791496,7.2017722,24.6791496,7.2338462,24.6791496,7.2659206z"/>
	<path style="fill:#FFFFFF;" d="M23.1280937,12.6283045c0.0258522,4.8308344-3.378727,9.4981737-8.6736755,10.5458689
		c-5.4400177,1.0764008-10.5475035-2.090744-12.2481327-6.9898186c-1.807214-5.2061167,0.446388-10.7579308,5.376977-13.228631
		c4.667779-2.3390071,10.1384325-0.9061379,13.0852079,2.818327c-0.4645424,0.4634085-0.9273949,0.9251285-1.4062977,1.4028606
		c-0.0412273-0.0479932-0.1013527-0.1196685-0.1632404-0.1897902c-1.9783516-2.2415662-4.451314-3.3272524-7.4458704-3.1249428
		c-3.880013,0.2621303-7.221097,3.2869787-7.9102745,7.1220717c-0.821013,4.5687199,1.9049389,8.8836355,6.3818579,10.101861
		c4.5283928,1.2322311,9.2629833-1.4062901,10.6116028-5.907815c0.0434513-0.1450281,0.1320858-0.2918901,0.2381077-0.4002905
		c0.6446819-0.6591444,1.300415-1.3074837,1.9528332-1.959054C22.9827423,12.7634678,23.0410461,12.7107401,23.1280937,12.6283045z"
		/>
	<path style="fill:#FFFFFF;" d="M10.8401985,6.458622c1.0227757,0,2.0295458,0,3.0491362,0c0,2.5563116,0,5.102088,0,7.6675529
		c-1.0069151,0-2.019412,0-3.0491362,0C10.8401985,11.5817938,10.8401985,9.0303497,10.8401985,6.458622z"/>
	<path style="fill:#FFFFFF;" d="M13.8913593,15.7022781c0,1.0241013,0,2.030592,0,3.0496387c-1.0172253,0-2.023737,0-3.0492887,0
		c0-1.0082645,0-2.0204601,0-3.0496387C11.8482723,15.7022781,12.8604479,15.7022781,13.8913593,15.7022781z"/>
</g>
</svg>
