<?xml version="1.0" encoding="utf-8"?>
<!-- Generator: Adobe Illustrator 21.1.0, SVG Export Plug-In . SVG Version: 6.00 Build 0)  -->
<svg version="1.1" id="Слой_1" xmlns="http://www.w3.org/2000/svg" xmlns:xlink="http://www.w3.org/1999/xlink" x="0px" y="0px"
	 viewBox="0 0 25 25" style="enable-background:new 0 0 25 25;" xml:space="preserve">
<path style="fill:#34B1E1;" d="M22.5429764,10.7341967c-0.1499634-0.8899536-0.4199829-1.75-0.8099976-2.5700073
	c-0.2099609-0.4299927-0.4299927-0.8399658-0.6900024-1.2299805c-0.1699829-0.2700195-0.3599854-0.5200195-0.5599976-0.7600098
	c-0.4899902-0.6300049-1.0499878-1.1900024-1.6799927-1.6799927c-1.0100098-0.7799683-2.1199951-1.3599854-3.3499756-1.7299805
	c-0.7800293-0.2399902-1.5700073-0.3699951-2.3800049-0.4199829c-0.4000244-0.0200195-0.7999878-0.0100098-1.2000122,0.0099487
	c-0.3699951,0.0300293-0.7399902,0.0700073-1.1099854,0.1300049C10.0429764,2.6142015,9.3330154,2.8242235,8.643013,3.1041918
	C7.7130198,3.4942064,6.8629832,4.0042162,6.083015,4.6442308C5.5429759,5.0842333,5.0529857,5.5842333,4.6129832,6.1342211
	C4.4030223,6.3942308,4.2030101,6.6542406,4.0330272,6.9342089C4.0130076,6.9642382,3.9929883,6.9841967,3.9729688,7.014226
	c-0.9599609,1.5-1.4899902,3.1499634-1.5899658,4.9400024c-0.039978,0.5999756-0.0100098,1.2000122,0.0599976,1.7999878
	c0.0800171,0.6400146,0.2199707,1.2800293,0.4299927,1.9000244c0.1099854,0.3499746,0.2399902,0.6999502,0.4000244,1.0399771
	c0.0100098,0.0200195,0.0199585,0.039978,0.0299683,0.0599976c0.25,0.5499878,0.5599976,1.0800171,0.9000242,1.5800171
	c0.5800171,0.8200073,1.2699585,1.539978,2.0599976,2.1699829c0.75,0.5800171,1.5599976,1.0599976,2.4400029,1.4099731
	c0.9799805,0.4000244,2,0.6400146,3.0599976,0.7200317c0.4799805,0.039978,0.9599609,0.039978,1.4400024,0.0100098
	c0.5299683-0.0400391,1.0499878-0.1099854,1.5700073-0.2300415c1.2999878-0.289978,2.4899902-0.8199463,3.5899658-1.5799561
	c0.710022-0.5,1.3500366-1.0800171,1.9100342-1.75c0.3999634-0.4700317,0.7600098-0.9700317,1.0700073-1.5100098
	c0.1699829-0.289978,0.3199463-0.5800171,0.4499512-0.8800049c0.0100098-0.0200195,0.0200195-0.0499878,0.0300293-0.0700073
	c0.6300049-1.419982,0.9199829-2.9099722,0.8699951-4.460021C22.6729813,11.6842089,22.6330032,11.2042284,22.5429764,10.7341967z
	 M15.7830276,17.6542397c-0.0600586,0.3099976-0.4000244,0.5599976-0.710022,0.5299683
	c-0.1699829-0.0200195-0.3099976-0.0700073-0.4500122-0.1799927c-0.8599854-0.6799927-1.7299805-1.3499756-2.5999756-2.0299673
	c-0.0100098-0.0100098-0.0300293-0.0100098-0.0400391-0.0200195c-0.3399658,0.3099966-0.6799927,0.6300039-1.0199585,0.9400015
	c-0.2400513,0.2199707-0.4800415,0.4500122-0.7300415,0.6699829c-0.1399536,0.1300049-0.3299561,0.0999756-0.4299927-0.0700073
	c-0.0999756-0.1699829-0.1499634-0.3599854-0.2099609-0.539978c-0.0300293-0.0900269-0.0500488-0.1699829-0.0800171-0.2600098
	c-0.2399902-0.7800283-0.4700317-1.5599966-0.710022-2.3300161c-0.0499878-0.1799927-0.1099854-0.3699951-0.1599731-0.5499878
	c-0.5599976-0.1900024-1.1099858-0.3699951-1.6600347-0.5599976c-0.3399658-0.1099854-0.6799927-0.2299805-1.0199585-0.3400269
	c-0.1500244-0.0599976-0.2900391-0.1399536-0.4000244-0.2599487c-0.1699829-0.1900024-0.1599731-0.4000244,0.0200195-0.5599976
	c0.0899658-0.0900269,0.2000122-0.1500244,0.3200073-0.1900024c3.1399541-1.25,6.2799687-2.5,9.4099731-3.7400513
	c0.5300293-0.2099609,1.0599976-0.4199829,1.5800171-0.6299438c0.1499634-0.0599976,0.3099976-0.0900269,0.4699707-0.0800171
	c0.2399902,0.0100098,0.3800049,0.1900024,0.3400269,0.4199829l-0.7800293,3.960022
	c-0.2299805,1.1799927-0.4599609,2.3599854-0.6900024,3.539978c-0.0899658,0.4100342-0.1699829,0.8300161-0.25,1.249999
	c0,0.0200195,0,0.0499878-0.0100098,0.0700073C15.9129715,17.014225,15.8430252,17.3342323,15.7830276,17.6542397z"/>
<path style="fill:#FDFDFD;" d="M15.9756804,16.6923447c-0.0642176,0.3204784-0.1309223,0.6404858-0.1919384,0.9615707
	c-0.0590734,0.3108597-0.3969965,0.5651455-0.711895,0.5287189c-0.1639929-0.0189705-0.3099365-0.0733604-0.4441214-0.1785088
	c-0.8674068-0.6797066-1.7390213-1.3540459-2.6093264-2.030055c-0.0099955-0.0077629-0.0209103-0.0143414-0.0313969-0.0214567
	c-0.2348757-0.2076015-0.4902964-0.3895197-0.7339563-0.5861883c-0.3012333-0.2431393-0.6073694-0.4801922-0.9099064-0.7217302
	c-0.0887098-0.0708237-0.0887451-0.0762444-0.0051203-0.15378c0.2470589-0.2290611,0.4962063-0.4558697,0.7444124-0.6836939
	c0.1306543-0.1199255,0.2603245-0.2409315,0.3917198-0.3600388c0.255125-0.2312679,0.5119152-0.4607038,0.7665691-0.6924887
	c0.2023582-0.184186,0.4019632-0.3713932,0.6038656-0.5560837c0.2821712-0.2581186,0.5654554-0.5150204,0.8480301-0.7726955
	c0.1254168-0.1143656,0.2499113-0.2297421,0.3754463-0.343976c0.2734547-0.2488403,0.5471678-0.4973946,0.8210468-0.7457657
	c0.1519222-0.1377707,0.3065901-0.2726078,0.4557428-0.4133034c0.0808697-0.0762844,0.1671619-0.1483335,0.2306128-0.2418518
	c0.0403299-0.0594406,0.0235386-0.1224146-0.008296-0.1704159c-0.0309076-0.0466051-0.0892239-0.0309095-0.1405077-0.0160856
	c-0.1619453,0.0468063-0.293457,0.1491146-0.4315414,0.2374926c-0.7361155,0.4711351-1.4698181,0.9460402-2.2047138,1.4190836
	c-0.4345512,0.2797174-0.8700657,0.5579357-1.3046112,0.8376617c-0.6624594,0.4264345-1.3241701,0.8540354-1.9867744,1.2802439
	c-0.2855101,0.1836481-0.5724688,0.3650484-0.8587685,0.5474701c-0.5523777-0.1872835-1.1047797-0.3744974-1.6571269-0.5618725
	c-0.3385692-0.1148539-0.6770668-0.2299223-1.0155749-0.3449593c-0.1562443-0.0530958-0.297143-0.1307011-0.4080787-0.256053
	c-0.1653843-0.1868773-0.1558299-0.3962002,0.0266781-0.5642281c0.0909886-0.0837708,0.1987481-0.1403208,0.3126149-0.1855803
	c3.1396313-1.2479486,6.2793093-2.4957809,9.4190817-3.7433748c0.525631-0.2088609,1.0513306-0.417562,1.5778675-0.6241221
	c0.149847-0.058785,0.3056583-0.0921578,0.468544-0.0854893c0.2376251,0.0097265,0.3798656,0.1911321,0.3339481,0.4255557
	c-0.2583084,1.3187122-0.5156612,2.6376133-0.7741833,3.9562845c-0.2312031,1.1793089-0.4635601,2.3583927-0.6952744,3.5376024
	c-0.0821266,0.417944-0.1639538,0.835947-0.2455301,1.2539997C15.9788589,16.6465759,15.9781113,16.6696243,15.9756804,16.6923447z"
	/>
<path style="fill:#D1E4F0;" d="M8.6402521,13.8164692c0.2862997-0.1824226,0.5732584-0.3638229,0.8587685-0.547471
	c0.6626043-0.4262085,1.3243151-0.8538094,1.9867744-1.2802439c0.4345455-0.279726,0.87006-0.5579443,1.3046112-0.8376617
	c0.7348957-0.4730434,1.4685984-0.9479485,2.2047138-1.4190836c0.1380844-0.088378,0.2695961-0.1906862,0.4315414-0.2374926
	c0.0512838-0.0148239,0.1096001-0.0305195,0.1405077,0.0160856c0.0318346,0.0480013,0.0486259,0.1109753,0.008296,0.1704159
	c-0.0634508,0.0935183-0.1497431,0.1655674-0.2306128,0.2418518c-0.1491528,0.1406956-0.3038206,0.2755327-0.4557428,0.4133034
	c-0.2738791,0.2483711-0.5475922,0.4969254-0.8210468,0.7457657c-0.125535,0.114234-0.2500296,0.2296104-0.3754463,0.343976
	c-0.2825747,0.2576752-0.5658588,0.5145769-0.8480301,0.7726955c-0.2019024,0.1846905-0.4015074,0.3718977-0.6038656,0.5560837
	c-0.2546539,0.2317848-0.5114441,0.4612207-0.7665691,0.6924887c-0.1313953,0.1191072-0.2610655,0.2401133-0.3917198,0.3600388
	c-0.2482061,0.2278242-0.4973536,0.4546328-0.7444124,0.6836939c-0.0836248,0.0775356-0.0835896,0.0829563,0.0051203,0.15378
	c0.302537,0.241538,0.6086731,0.478591,0.9099064,0.7217302c0.24366,0.1966686,0.4990807,0.3785868,0.7339563,0.5861883
	c-0.3411283,0.3142376-0.6822042,0.6285515-1.0234032,0.9427261c-0.2423744,0.223177-0.4840441,0.4471302-0.7277136,0.6688843
	c-0.1440964,0.1311378-0.3355293,0.0979576-0.4352646-0.0728054c-0.0980291-0.1678391-0.1516609-0.3531189-0.2087049-0.5369797
	c-0.0269918-0.086998-0.0537815-0.1740589-0.0806723-0.2610893c-0.2348013-0.7774715-0.4694729-1.5549774-0.7044811-2.3323841
	C8.7518415,14.1792898,8.6957865,13.9979582,8.6402521,13.8164692z"/>
</svg>
