<?xml version="1.0" encoding="utf-8"?>
<!-- Generator: Adobe Illustrator 21.1.0, SVG Export Plug-In . SVG Version: 6.00 Build 0)  -->
<svg version="1.1" id="Слой_1" xmlns="http://www.w3.org/2000/svg" xmlns:xlink="http://www.w3.org/1999/xlink" x="0px" y="0px"
	 viewBox="0 0 55 45" style="enable-background:new 0 0 55 45;" xml:space="preserve">
<g>
	<path style="fill:#E6E501;" d="M31.1081104,4.7520795c0.2392998-0.0306931,0.4786015-0.0613866,0.7179146-0.0922384
		c0.9810047,0.2965541,1.9619961,0.5932665,2.9429913,0.8899794l-0.0037651,0.0326228
		c0.2685928,0.4535661,0.722477,0.5429311,1.1905632,0.6043181l0.0466537,0.0308218
		c0.0986938,0.4375615,0.5111504,0.5192041,0.817852,0.7206845c0.1264915,0.0830941,0.2730103,0.1630273,0.2090874,0.3485427
		c-0.0511208,0.1483645-0.1994171,0.1315551-0.3209381,0.1345582c-0.1510963,0.0037336-0.3025856-0.0082755-0.4531593-0.0135446
		c-0.2336998-0.0115829-0.4681358-0.0231075-0.7025719-0.0346313c-1.5419922-0.4202199-3.1079063-0.537972-4.6928635-0.3415642
		c-1.3150005,0.1629534-2.627037,0.3498015-3.9403877,0.5260644c-0.3516235-0.1693239-0.5761986-0.4793901-0.8338966-0.7527604
		c0.014946-0.202323,0.1433716-0.3166761,0.3070488-0.4107337C27.861351,5.5501971,29.3167496,4.6692271,31.1081104,4.7520795z"/>
	<path style="fill:#095397;" d="M26.0855904,6.8049326c0.2576981,0.2733703,0.4822731,0.5834365,0.8337765,0.7527046
		c-0.010891,0.0978026-0.0216579,0.195662-0.0324326,0.2936835c-0.0262775,1.3832517-0.0259666,1.3810983,1.3002205,1.5710979
		c0.0888577,0.0127296,0.1678123,0.0945396,0.2513752,0.1442204c-0.0378246,0.2757521-0.191124,0.2803898-0.438448,0.251895
		c-0.6651516-0.0766306-1.2600918,0.1417646-1.8237095,0.4887171c0.20364,0.3759689,0.816473-0.0767012,0.8384743,0.5101538
		c-0.4818859-0.2202911-0.9922371-0.1677675-1.4984741-0.1550598c-0.0372028-0.4407845,0.6413479-0.5937214,0.4422264-1.0996246
		c0.2325764-0.0334969,0.5033684,0.0931578,0.7424984-0.1747208c-0.2455921-0.1545782-0.76157-0.1671486-0.2531567-0.6168118
		c0.2642498-0.233716,0.2048302-0.6512556-0.0468369-0.9822164c-0.5577736,0.6940627-0.9912205,0.6497006-1.3555355-0.1304407
		c-0.1189938-0.2548041-0.2498913-0.5447416-0.5347366-0.322938c-0.2916603,0.2271118-0.4805698,0.2066197-0.7341499,0.0022688
		c-0.1146526-0.0923939-0.2471237-0.0527558-0.3340855,0.0665393c-0.0651493,0.0893764-0.0704708,0.2587132,0.0334415,0.2463183
		c0.5009785-0.059762,0.6474876,0.5665689,0.9677677,0.570045c0.5242043,0.0056896,0.3467922,0.3735981,0.4099846,0.5725565
		c0.0964775,0.3037453-0.0745735,0.4881239-0.4177952,0.4519358c0.0778465-0.5567331-0.2836552-0.8452215-0.6794186-1.1127892
		c-0.6650524-0.4281282-1.3194027-0.1204128-1.9760571,0.0287428c0.1177864-0.5058742,0.2883644-0.8987694,0.8414402-1.1710505
		c0.3773289-0.1857619,0.603159-0.7340584,0.8258801-1.1575232c0.1239777-0.235724-0.0202255-0.441328-0.3403664-0.434288
		c-1.1727924,0.0257912-1.6246624,0.5770755-1.4257565,1.7630606c0.02878,0.1715956,0.1676006,0.4351368-0.032629,0.4730964
		C20.9927845,7.7589245,20.5995998,8.373785,19.9508934,8.48423c-0.0162315-0.046299-0.0426559-0.0857754-0.0792713-0.1184301
		c0.252264-0.2932749,0.5620575-0.512722,0.9007301-0.6927209c0.4817162-0.2560258,0.6376438-0.620307,0.4243126-1.142108
		c-0.0956421-0.2339377-0.1401634-0.4887762-0.2078819-0.7341299c1.3265591-0.749352,2.8032856-0.9561086,4.274683-1.1829591
		c-0.3844357,0.4447188-0.7851582,0.8768177-1.1477814,1.338819c-0.2181492,0.2779322-0.2040653,0.5802946,0.2352314,0.5583134
		C24.9593201,6.4805703,25.5036335,6.7351384,26.0855904,6.8049326z"/>
	<path style="fill:#F78E14;" d="M26.0855904,6.8049326c-0.5819569-0.0697942-1.1262703-0.3243623-1.7346745-0.2939181
		c-0.4392967,0.0219812-0.4533806-0.2803812-0.2352314-0.5583134c0.3626232-0.4620013,0.7633457-0.8941002,1.1477814-1.338819
		c0.1279831-0.0500126,0.2562027-0.0999985,0.3844452-0.1499958c0.3220596,0.0131087,0.6477242,0.0571976,0.948513-0.1111012
		c0.5537376,0.0000033,1.1074734,0.0000072,1.6612854-0.0000787c0.2936535,0.2384524,0.6240559,0.1552205,0.950264,0.1086626
		c0.1460495,0.0163074,0.2921009,0.0326152,0.4382458,0.0488276c0.3455391,0.266922,0.7276878,0.1793704,1.1074848,0.114543
		c0.1190414,0.042098,0.2380848,0.0841961,0.3557663,0.1268172c-1.7927208-0.0823298-3.2481194,0.7986403-4.7168312,1.642642
		C26.2289619,6.4882565,26.1005363,6.6026096,26.0855904,6.8049326z"/>
	<path style="fill:#A5A5A5;" d="M17.0003586,7.8270416c0.1932354-0.5153203,0.8372631-0.4546242,1.1100521-0.8684068
		c0.8391247-0.228518,1.4533939-0.9525061,2.3454475-1.0635352c0.1179428,0.0931325,0.1812057,0.1250553,0.0660973,0.3347058
		c-0.4151287,0.7560811-1.1809826,1.1916099-1.6404057,1.8966718C18.2544136,8.0268641,17.6273861,7.9269533,17.0003586,7.8270416z"
		/>
	<path style="fill:#CDCDCD;" d="M36.25457,7.4078836c0.1513138,0.0052094,0.302803,0.0172186,0.4538994,0.013485
		c0.121521-0.0030031,0.2698174,0.0138063,0.3209381-0.1345582c0.0639229-0.1855154-0.0825958-0.2654486-0.2090874-0.3485427
		c-0.3067017-0.2014804-0.7191582-0.283123-0.8181343-0.7211289c0.5506477-0.1210752,0.7481117,0.5573397,1.248127,0.5517902
		c0.2695122,0.1361594,0.4108315,0.4731016,0.7597542,0.4849372c0.0669899,0.1356831,0.1598015,0.243289,0.3117638,0.2865887
		l0.0203934,0.0204554c0.1214256,0.2535081,0.2979507,0.4356771,0.5963554,0.4597492
		c0.1088333,0.1664238,0.2813797,0.1598988,0.4496994,0.165411c0.0068016,0.1398163,0.01334,0.2797804,0.0199814,0.4199123
		c-0.2460251,0.0134764-0.5666046-0.0676851-0.7249222,0.0570698c-0.5699844,0.449152-0.9528656,0.0559006-1.222805-0.3003426
		c-0.2087784-0.2755213-0.4045868-0.5003319-0.7120895-0.6364679C36.5838203,7.6201229,36.4191933,7.5140033,36.25457,7.4078836z"/>
	<path style="fill:#E33917;" d="M18.8816586,8.1261797c0.4593143-0.7047644,1.2251682-1.1402931,1.6402969-1.8963742
		c0.1151085-0.2096505,0.0518456-0.2415733-0.0660973-0.3347054c0.1779041-0.0332556,0.3556194-0.0664535,0.5331287-0.0989547
		c0.0675144,0.2460494,0.1120358,0.5008879,0.2076778,0.7348256c0.2133312,0.521801,0.0574036,0.8860822-0.4243126,1.142108
		c-0.3386726,0.1799989-0.6484661,0.399446-0.9003086,0.6925063c-0.0589161,0.0330219-0.1182537,0.0662594-0.1776104,0.0995264
		c-0.101244-0.0478334-0.202467-0.0956955-0.3036919-0.1435575C19.2210484,8.2564297,19.0513515,8.1913052,18.8816586,8.1261797z"/>
	<path style="fill:#F8F6F2;" d="M10.1152058,16.6989803c-0.3541803-0.1871128-0.2315578-0.451046-0.1215019-0.7195349
		c0.2211676-0.5395536,0.4360466-1.081686,0.6535063-1.622757c0.0965919-0.008172,0.1931963-0.0163431,0.2896748-0.0247049
		l0.0395107,0.0395241C10.6893053,15.1473141,10.4022551,15.9231462,10.1152058,16.6989803z"/>
	<path style="fill:#CDCDCD;" d="M35.6926498,5.8659139c0.0881119,0.1068769,0.1762238,0.2137551,0.263752,0.3207402
		c-0.4686737-0.0612798-0.9225578-0.1506448-1.1911507-0.6042109C35.1240845,5.5148764,35.3578949,5.8556433,35.6926498,5.8659139z"
		/>
	<path style="fill:#F78E14;" d="M10.1152058,16.6989803c0.2870493-0.7758341,0.5740995-1.5516663,0.8611898-2.3274727
		c0.2653465-0.4347019,0.5464144-0.8607321,0.7923374-1.3061666c0.3874321-0.701745,0.9489584-1.2511654,1.5123329-1.8018703
		c0.2623587-0.0274334,0.4652958-0.1861649,0.6920424-0.2988672c1.4440765-0.7177601,2.9614487-1.1711197,4.584837-1.221015
		c0.1295185,0.9354095-0.1646233,1.5515471-1.1135712,1.9466801c-0.8405514,0.3499985-1.5963182,0.9174442-2.3609333,1.4314137
		c-0.5636444,0.3788786-1.1684904,0.7268839-1.536684,1.3372841l-0.0072727,0.0108881
		c-0.1172352,0.0100002-0.2231121,0.0309792-0.1848888,0.1912584c-0.0576181-0.000967-0.0881567,0.0273113-0.0916147,0.0848341
		c-0.1527472-0.0350676-0.2561579,0.0232134-0.3147287,0.166337c-0.308321,0.5762463-0.9544706,0.8700762-1.2311821,1.4727468
		c-0.2327805-0.0229149-0.2645588,0.1092339-0.2273045,0.2946415l-0.0546675,0.013586l-0.0140028,0.0545635
		c-0.2473412,0.0301704-0.2791586,0.2000294-0.2608128,0.4024029l-0.0424652,0.0119438l0.0057011,0.0437431
		c-0.4306374,0.1876488-0.466897,0.6832256-0.762373,0.976408c-0.3520107-0.3369389-0.06493-0.8110828-0.2539806-1.1830063
		C10.1098442,16.8992023,10.112525,16.7990913,10.1152058,16.6989803z"/>
	<path style="fill:#15395E;" d="M10.361145,18.1823196c0.295476-0.2931824,0.3317356-0.7887592,0.7623072-0.9765759
		c0.0702429,0.4603386-0.2759705,0.7432156-0.4681702,1.0907116c-0.2299728,0.4157887-0.5364275,0.8090115-0.3482447,1.3330307
		c-0.437418,0.4814663-0.5555477,1.0734081-0.5877657,1.695528c-0.0682611,1.3181133,0.4123201,2.5691948,0.4761839,3.871727
		c0.0044098,0.0899487,0.0629387,0.2274113,0.1322603,0.2562122c0.6476707,0.2690659,0.8964396,0.6918716,0.6420202,1.389286
		c-0.0706472,0.1936531,0.0500174,0.4242992,0.294836,0.4654598c0.3140173,0.0528011,0.2639313-0.2094955,0.3222828-0.4001274
		c0.1957808-0.6396065,0.1146765-1.3155918,0.3277597-1.9616184c0.445015-1.3492031,0.8176079-2.7222939,1.2199516-4.0855713
		c0.1613274-0.2217464,0.3247099-0.4420338,0.4834938-0.6655884c0.2381611-0.3353024,0.2555218-0.8227577,0.7006483-1.0160503
		c-0.0369806,0.235075-0.0742636,0.4704437-0.1115456,0.7058125l-0.0370855,0.0563526
		c-0.4398212,0.5321102-0.7038918,1.1390896-0.7782545,1.8268852c-0.0302258,0.0280037-0.0382843,0.0613613-0.0241756,0.1000729
		c-0.1561651,0.0727386-0.1999569,0.2200184-0.2516594,0.3666382c-0.6761703,1.9174728-1.0704651,3.8879585-1.2218208,5.9184818
		c-0.1108961,1.4877186,0.3682346,2.8743286,0.5912046,4.3050823c-0.0257206,0.0301285-0.0540714,0.0575409-0.0852327,0.0820313
		c-0.169589-0.340229-0.3389978-0.6802673-0.5083952-1.0202866c-0.0467472-0.066925-0.0935049-0.1338673-0.1402626-0.2008076
		c0.0131178-0.0483303-0.0020123-0.0850086-0.0453796-0.1100006c-0.0363998-0.067421-0.0728092-0.1348782-0.1092176-0.2023315
		c0.0143061-0.0491905-0.0017366-0.0846481-0.0481205-0.1063538c-0.037715-0.0621681-0.0754375-0.1243515-0.1131582-0.1865368
		c-0.0528402-0.091116-0.1056805-0.1822319-0.1585207-0.2733326c0.0284462-0.1230106-0.0530062-0.1659718-0.1460581-0.2004852
		c0.0112867-0.514307-0.3107634-0.9099464-0.4938822-1.3521557c-1.2084427-2.9182148-1.7546139-5.9142895-1.1174698-9.0588703
		C10.0021048,19.3831291,10.0733376,18.7273483,10.361145,18.1823196z"/>
	<path style="fill:#C14403;" d="M10.361145,18.1823196c-0.2878075,0.5450287-0.3590403,1.2008095-0.8414707,1.6466198
		c-0.0034742-0.8967819,0.1136389-1.7699642,0.5152225-2.5863667l0.0002222-0.0054207
		c0.023984-0.0792007,0.047966-0.1584015,0.0719967-0.2377205C10.2962151,17.3712368,10.0091343,17.8453808,10.361145,18.1823196z"
		/>
	<path style="fill:#873004;" d="M44.683857,16.0266476c0.0697136,0.1224442,0.1394234,0.2448864,0.2091217,0.3673344
		c0.0413589,0.095892,0.0827217,0.191782,0.1240768,0.2876568c0.0301666,0.0793152,0.0603447,0.1586437,0.0905228,0.2379742
		c0.0171127,0.0733528,0.0342255,0.1467056,0.0513382,0.2200623c-0.0020447,0.1089306-0.0040855,0.2178612-0.0061722,0.3266754
		C44.727478,17.0739613,44.7650146,16.5309772,44.683857,16.0266476z"/>
	<path style="fill:#B62318;" d="M42.052948,11.2445765c0.0911484,0.0248318,0.1822929,0.0496655,0.2734184,0.0745506
		c-0.0090599,0.0486822,0.0091705,0.0826893,0.0546722,0.1020708c-0.0103645,0.0474052-0.0152206,0.0953712-0.0146217,0.1438494
		C42.1386719,11.5787315,42.038311,11.4678984,42.052948,11.2445765z"/>
	<path style="fill:#F8F6F2;" d="M45.1075783,16.9196129c-0.0301781-0.0793304-0.0603561-0.158659-0.0905266-0.2379723
		C45.0472336,16.760973,45.077404,16.840292,45.1075783,16.9196129z"/>
	<polygon style="fill:#F78E14;" points="10.0351181,17.2371521 10.0348969,17.2425728 10.0044765,17.2403278 	"/>
	<path style="fill:#F8F6F2;" d="M42.3664589,11.5650921c-0.0006409-0.0485229,0.0042152-0.096489,0.0145798-0.1438932
		c0.0471191,0.0442352,0.0942383,0.0884666,0.1413345,0.1326971l-0.0193062,0.0224009
		c-0.0483818-0.0055323-0.0968208-0.010479-0.1453247-0.014842L42.3664589,11.5650921z"/>
	<path style="fill:#F8F6F2;" d="M11.1310263,30.2399654c0.0930519,0.0345135,0.1745043,0.0774746,0.1460571,0.2004852
		C11.2283993,30.3736115,11.1797132,30.3067913,11.1310263,30.2399654z"/>
	<path style="fill:#F8F6F2;" d="M11.4356041,30.7137833c0.0377216,0.0621853,0.0754442,0.1243687,0.1131592,0.1865368
		C11.5110378,30.838131,11.473321,30.7759552,11.4356041,30.7137833z"/>
	<path style="fill:#F8F6F2;" d="M11.5968838,31.0066738c0.0364084,0.0674534,0.0728178,0.1349106,0.1092176,0.2023315
		C11.6696882,31.1415386,11.6332865,31.0741062,11.5968838,31.0066738z"/>
	<path style="fill:#F8F6F2;" d="M11.751482,31.319006c0.0467567,0.0669403,0.0935144,0.1338825,0.1402626,0.2008076
		C11.8449831,31.4528656,11.798233,31.3859367,11.751482,31.319006z"/>
	<path style="fill:#F78E14;" d="M39.9029083,9.0647058c0.1432648,0.2573509,0.5477638,0.1771765,0.642849,0.4972906
		c-0.4597626,0.5347109-1.1434517,0.785265-1.7011147,1.1607342c-1.1295891,0.760541-2.7296524-0.0823555-3.1303978-1.4569559
		c-0.0692635-0.2375832-0.1774445-0.4183378-0.3449097-0.5782461c-0.4382744-0.4184904-0.4709396-0.8426051-0.0271378-1.278347
		c0.070179-0.0119963,0.1403618-0.0239925,0.2105408-0.0359888c0.234436,0.0115237,0.4688721,0.0230484,0.7025719,0.0346317
		c0.1638832,0.1061788,0.3285103,0.2122984,0.4918251,0.3180366c-0.3009605,0.1902018-0.4090805,0.3939881-0.0545425,0.6417098
		c0.2096519,0.1464939,0.4272079,0.28613,0.6168518,0.4560404C38.1630783,9.5884361,38.9129639,9.6628027,39.9029083,9.0647058z"/>
	<path style="fill:#E96401;" d="M35.5527382,7.3731928c-0.070179,0.0119963-0.1403618,0.0239925-0.2099915,0.0358667
		c-0.3569298-0.0059614-0.7205276,0.028708-1.0709152-0.024168c-2.4047089-0.3628821-4.762682-0.0894852-7.10182,0.4834967
		C27.075655,7.8626447,26.9812984,7.8569016,26.88694,7.8511577c0.0107689-0.0978584,0.0215359-0.1957178,0.0324268-0.2935205
		c1.3134708-0.1762071,2.6255074-0.3630552,3.9405079-0.5260086C32.4448318,6.8352208,34.010746,6.9529729,35.5527382,7.3731928z"/>
	<path style="fill:#0263AE;" d="M10.3070374,19.6294861c-0.1881828-0.5240192,0.1182718-0.9172421,0.3482447-1.3330307
		c0.1921997-0.347496,0.538413-0.630373,0.4681702-1.0907116l-0.0056353-0.0435753l0.0423527-0.0118771
		c0.2497807-0.0284863,0.2749872-0.2027454,0.2609253-0.4024696l0.0140028-0.0545635c0,0,0.0546675-0.013586,0.0544071-0.0134735
		c0.1758289-0.0207977,0.2461586-0.1234226,0.2275648-0.294754c0.2767115-0.6026707,0.9228611-0.8965006,1.2300425-1.4723921
		c0.1835175,0.0945692,0.2860432,0.0329218,0.3158684-0.1666918c0.003458-0.0575228,0.0339966-0.0858011,0.091217-0.084631
		c0.1229744-0.0041275,0.2045469-0.0489502,0.1852865-0.1914616c0,0,0.0072727-0.0108881,0.0074129-0.0104923
		c0.2287207,0.073143,0.4147663-0.052165,0.5692272-0.1721029c1.3397532-1.0403109,2.7460012-1.9747496,4.2632303-2.737751
		c0.1892109-0.0951538,0.3938179-0.2238817,0.4120655-0.432477c0.0776463-0.8877363,0.5015678-1.6485291,0.8437176-2.440402
		l0.0184708-0.0191441c0.0990944-0.0577517,0.1981907-0.1155033,0.2972851-0.173255
		c0.6487064-0.110445,1.0418911-0.7253056,1.6981945-0.8497248c0.2002296-0.0379596,0.061409-0.3015008,0.032629-0.4730964
		c-0.1989059-1.1859851,0.252964-1.7372694,1.4257565-1.7630606c0.3201408-0.00704,0.464344,0.1985641,0.3403664,0.434288
		c-0.2227211,0.4234648-0.4485512,0.9717612-0.8258801,1.1575232c-0.5530758,0.2722812-0.7236538,0.6651764-0.841423,1.1711402
		c-0.1586094,0.1050539-0.3172359,0.2100182-0.4758625,0.3149824c-0.2766628,0.0078735-0.4321728,0.2300873-0.639143,0.3612604
		c0.1116276,0.0879717,0.2232533,0.1759415,0.3348808,0.2639132c-0.0004082,0.3224068-0.0295506,0.6497927,0.1626835,0.938817
		c0.0075054,0.1933727,0.1109276,0.2897921,0.3014221,0.298193c0.1570663,0.1064196,0.3141365,0.2128391,0.4712029,0.3192577
		c0.0135899,0.1004658,0.0238171,0.2190685,0.1491394,0.2274733c0.1286983,0.0086308,0.1479397-0.1098289,0.1707363-0.2082939
		c0.1549149-0.0033569,0.3098316-0.0067129,0.4647465-0.0100689c0.2644215,0.4503107,0.5131607,0.2062645,0.7623672-0.0172157
		c0.2522755-0.103159,0.5120659-0.191371,0.7548351-0.3134375c0.2743511-0.1379499,0.4685345-0.3230991,0.1648674-0.6255531
		c0.0111961-0.1551237,0.0223885-0.3102474,0.0335827-0.4653711c0.3432217,0.0361881,0.5142727-0.1481905,0.4177952-0.4519358
		c-0.0631924-0.1989584,0.1142197-0.5668669-0.4099846-0.5725565c-0.3202801-0.0034761-0.4667892-0.629807-0.9677677-0.570045
		c-0.1039124,0.0123949-0.0985909-0.1569419-0.0334415-0.2463183c0.0869617-0.1192951,0.2194328-0.1589332,0.3340855-0.0665393
		c0.2535801,0.2043509,0.4424896,0.224843,0.7341499-0.0022688c0.2848454-0.2218037,0.4157429,0.0681338,0.5347366,0.322938
		c0.364315,0.7801414,0.7977619,0.8245034,1.3555355,0.1304407c0.251667,0.3309608,0.3110867,0.7485003,0.0468369,0.9822164
		c-0.5084133,0.4496632,0.0075645,0.4622335,0.2531567,0.6168118c-0.23913,0.2678785-0.509922,0.1412239-0.7396145,0.171833
		c-0.0594902-0.3198986-0.2060719-0.5639362-0.5676022-0.585146c-0.1240978-0.0072813-0.1708183,0.103713-0.1452465,0.2091379
		c0.0935307,0.3855982,0.3931293,0.4021406,0.7128487,0.376008c0.1962376,0.508791-0.4823132,0.6617279-0.4453487,1.1023474
		l-0.0131187-0.0040865c-0.0539665,0.0468493-0.1079388,0.0936966-0.1619053,0.1405449
		c-0.1000061,0.0031862-0.2000122,0.0063734-0.3000717,0.0095482c-0.0218887-0.0212812-0.0437202-0.042551-0.0655518-0.0638199
		c0.021162,0.0219793,0.0423222,0.0439577,0.0634842,0.0659361c-0.0997543,0.7455463-0.8309956,0.5705175-1.2552834,0.8168707
		c-1.0263386,0.5959244-2.1813145,0.7429276-3.3408527,0.501832c-0.7540493-0.156786-1.4362679-0.1757708-1.9084492,0.5080624
		c-0.5820084,0.8428965-1.5325603,1.4467726-1.6917934,2.5675831c-0.0648746,0.0557785-0.129755,0.1115046-0.1946354,0.1672316
		c-0.2873726,0.317914-0.7361584,0.533165-0.6801891,1.0694513c0.0007133,0.1725559-0.1186371,0.2400398-0.2551155,0.2914124
		c-0.3813572,0.0397339-0.2844191,0.3687325-0.3583679,0.5947323c-0.0298157,0.1440029-0.0596313,0.2880039-0.0892458,0.4318123
		c-0.0605831,0.0075741-0.1213675,0.0153427-0.1821527,0.0231094c-0.2461777,0.0335045-0.2769775,0.1852417-0.2134161,0.3887768
		c-0.0422411,0.0805378-0.0844812,0.1610756-0.1267223,0.2416153l-0.041481,0.0124702l-0.0046721,0.0436935
		c-0.0147467,0.0430489-0.0417681,0.0760441-0.0810671,0.0989876c-0.2094193,0.0079498-0.2591925,0.1040783-0.156951,0.2841663
		c-0.0467224,0.1089764-0.0934458,0.2179546-0.1401682,0.3269291c-0.4448261,0.192997-0.4621868,0.6804523-0.7003479,1.0157547
		c-0.1587839,0.2235546-0.3221664,0.4438419-0.4836159,0.6655006c-0.5984545,0.1912365-1.1068373,0.3269615-1.2168598-0.606636
		c-0.0452929-0.3843403-0.4196901-0.7620716-0.7984762-0.9809494
		C10.7394648,19.0533371,10.6862698,19.7451248,10.3070374,19.6294861z"/>
	<path style="fill:#0263AE;" d="M27.0145683,10.8175488c-0.0217228-0.5869989-0.6345558-0.1343288-0.8381958-0.5102978
		c0.5636177-0.3469524,1.1585579-0.5653477,1.8237095-0.4887171c0.247324,0.0284948,0.4006233,0.0238571,0.4384003-0.2519493
		c0.2020702,0.0097418,0.4041862,0.0195389,0.6063042,0.029335c0.0307388,0.1695423,0.1365337,0.2502441,0.3015079,0.2921543
		c0.7532864,0.1913586,1.5032902,0.3956966,2.2570953,0.5849142c0.1526699,0.0383234,0.3015499-0.0053968,0.391819-0.158021
		c0.2559891,0.059783,0.5119781,0.1195669,0.767971,0.1793509c0.0859947,0.3747034,0.2162666,0.6472158,0.6272659,0.2717581
		c1.3724403,0.5002728,2.8051186,0.8613663,4.0148582,1.7375832c-0.0604172,0.0789137-0.1208344,0.1578264-0.1812477,0.2367401
		c0.2136726,0.0562096,0.4109993,0.3409748,0.649765,0.0464811c0.1704216,0.0160027,0.3508797,0.005229,0.4640198,0.173934
		c-0.025753,0.0718679-0.0305977,0.1839094-0.0801926,0.2096138c-1.0206604,0.5290051-1.9410667,1.1944685-2.7700157,1.9901485
		c-0.2750168,0.2639837-0.4659042,0.4892941-0.204937,0.9167604c0.239151,0.3917217,0.1993217,0.7996464-0.3755836,0.9386597
		c-0.1581764,0.0382481-0.246769,0.1758652-0.3024597,0.3269844c-0.252224-0.2238998-0.5044441-0.4478016-0.7566681-0.6717014
		c0.0331459-0.3351555-0.1255035-0.4852085-0.454464-0.4708824c-0.0640564-0.3513603-0.266758-0.560914-0.6251488-0.6112375
		c-0.1716194-0.7336626-0.6558838-1.1167269-1.3801136-1.23069c-0.1145973-0.162899-0.2966347-0.1487188-0.4628658-0.176157
		c-0.0518284-0.0496922-0.1035786-0.0994778-0.1553249-0.1492634c-0.102766-0.3885202-0.3521194-0.6047592-0.754282-0.6414452
		c-0.0568676-0.0467567-0.1135464-0.093688-0.1704063-0.1404181c-0.0521545-0.0494108-0.1041336-0.0990219-0.1561146-0.148633
		c-0.0524597-0.0508852-0.1049175-0.1017714-0.1573753-0.1526575c-0.0048027-0.0457296-0.012764-0.0909033-0.0238914-0.1355181
		c-0.0480156-0.0497169-0.0960331-0.0994339-0.1440487-0.1491518l-0.0122299-0.0127058
		c0.0039978-0.2034721-0.094614-0.302783-0.2990856-0.294631l-0.0132122-0.0119181
		c-0.0147171-0.0676422-0.0294323-0.1352844-0.0441475-0.2029266c-0.0355625,0.0257225-0.0711231,0.051446-0.1066856,0.0771685
		c-0.1035042-0.058197-0.2070065-0.116394-0.3105106-0.1745892c-0.0487061-0.0492926-0.0974083-0.0985851-0.1461143-0.1478786
		l-0.0143223-0.0099049c-0.0589733-0.1348505-0.1726246-0.1556959-0.3015766-0.1446333
		c-0.3167057-0.2538023-0.6334133-0.5076036-0.9501171-0.761405c-0.0443287-0.0555439-0.0886593-0.1110878-0.132988-0.1666317
		L27.0145683,10.8175488z"/>
	<path style="fill:#15395E;" d="M29.0447865,9.5959196c-0.2021179-0.0097961-0.4042339-0.0195932-0.6063042-0.029335
		c-0.0835152-0.0496264-0.1624699-0.1314363-0.2513275-0.144166c-1.3261871-0.1899996-1.326498-0.1878462-1.3002205-1.5710979
		c0.0943642,0.0055809,0.1887207,0.0113239,0.2832012,0.0170655c0.0787449,0.5397606-0.0153084,1.2111578,0.7674446,1.301446
		c1.5212536,0.1754704,3.0054913,0.4613056,4.4924355,0.8690586c3.1536522,0.8647995,5.9583282,2.3699741,8.6106606,4.2206173
		c0.342453,0.5157404,0.8792496,0.8213167,1.3253365,1.224184c0.0273094,0.0862455,0.054985,0.1729498,0.0826607,0.2596531
		c-0.297039,0.0555019-0.4549599-0.1584492-0.6580734-0.3143425c-1.1226959-0.8616791-2.2086411-1.7760401-3.4526863-2.4682178
		c-0.1132126-0.1686754-0.2936707-0.1579018-0.4641304-0.1737013c-0.1561852-0.0943394-0.3123322-0.1888809-0.4684792-0.2834244
		c-1.2097397-0.8762169-2.6424179-1.2373104-4.0149345-1.7372608c-0.1384811-0.2530823-0.3666267-0.2999001-0.6271896-0.2720804
		c-0.2559929-0.0597839-0.511982-0.1195679-0.7679939-0.1791935C31.0655174,9.8547878,30.0373898,9.7981958,29.0447865,9.5959196z"
		/>
	<path style="fill:#15395E;" d="M27.165947,10.981802c0.3167038,0.2538013,0.6334114,0.5076027,0.9501324,0.761281
		c0.0707436,0.1101637,0.1773472,0.1457872,0.3015614,0.1447573l0.0142879,0.0098305
		c0.0486927,0.0492668,0.0974216,0.0986099,0.1461487,0.147953c0.1035042,0.0581951,0.2070065,0.1163921,0.3105793,0.1743174
		c0.0503006,0.0418282,0.1005306,0.0839291,0.1507645,0.12603l0.0131817,0.0118322
		c0.0527878,0.1457691,0.1498795,0.2466984,0.2991161,0.2947168l0.0121803,0.0126247
		c0.0480022,0.0496893,0.0960484,0.0994616,0.1440983,0.1492329c0.0111275,0.0446148,0.0190887,0.0897884,0.0238914,0.1355181
		c-0.026432,0.0283937-0.0521984,0.0573807-0.0772381,0.0868835c-0.9272003-0.6401815-1.8664131-1.2639227-2.776083-1.9281244
		c-0.3856201-0.2815609-0.6918945-0.3207874-1.1028709-0.0429411c-0.5043316,0.3409615-1.0611801,0.6042423-1.5953255,0.9011068
		c-0.804081,0.1959858-1.6081638,0.3919725-2.4122448,0.5879583c-0.4009972-0.0568838-0.8125038-0.0750017-1.2004166-0.180151
		c-0.5221615-0.1415415-0.9145241-0.0671968-1.2863808,0.3683987c-0.7197628,0.843133-1.4896374,1.6434879-2.2387428,2.4615717
		c0.1592388-1.1207581,1.1097908-1.7246342,1.6917992-2.5675306c0.4721813-0.6838331,1.1543999-0.6648483,1.9084492-0.5080624
		c1.1595383,0.2410955,2.3145142,0.0940924,3.3408527-0.501832c0.4242878-0.2463531,1.155529-0.0713243,1.2552834-0.8168707
		l0.002121-0.0021038c0.1000061-0.0031872,0.2000122-0.0063744,0.3000031-0.0095434
		c0.0539646-0.0468416,0.1079445-0.0937014,0.1619205-0.1405621l0.0131187,0.0040865
		c0.5064754-0.0125427,1.0168266-0.0650663,1.4987125,0.1552248c-0.0002785,0.000144,0.0181122-0.0022345,0.0181122-0.0022345
		C27.0773315,10.8705978,27.1216393,10.9261999,27.165947,10.981802z"/>
	<path style="fill:#E6E501;" d="M24.4359951,9.2452564c-0.0111942,0.1551237-0.0223866,0.3102474-0.033596,0.4653959
		c-0.2986012,0.164607-0.5030327,0.5155554-0.9123592,0.4609261c0.0147476-1.0469513-0.8774986-0.7859182-1.5028362-1.0244684
		c0.3898811,0.4367819-0.1490574,0.7732115-0.0367718,1.1660089c-0.12817-0.0807714-0.25634-0.1615438-0.384491-0.2421894
		c-0.2536106-0.2651529-0.4526825-0.5537443-0.4049644-0.9477739l0.0257092-0.0543938
		c0.6858177-0.7809353,1.6730022-0.7346945,2.569891-0.9362946C24.1523399,8.4000349,24.5138416,8.6885233,24.4359951,9.2452564z"/>
	<path style="fill:#15395E;" d="M23.7565765,8.1324673c-0.8968887,0.2016001-1.8840733,0.1553593-2.5701618,0.9368067
		c0.039238-0.1973219,0.0787468-0.3951569,0.1182594-0.5929918c0.1586266-0.1049643,0.3172531-0.2099285,0.4758625-0.3149824
		C22.4371738,8.0120544,23.0915241,7.704339,23.7565765,8.1324673z"/>
	<path style="fill:#15395E;" d="M19.9508934,8.48423c-0.0990944,0.0577517-0.1981907,0.1155033-0.2972145,0.1731129
		c0.0136375-0.0641823,0.0272064-0.1282206,0.0407734-0.1922607c0.0593376-0.0332375,0.1186752-0.0664749,0.1775913-0.0994968
		C19.9082375,8.3984547,19.9346619,8.4379311,19.9508934,8.48423z"/>
	<path style="fill:#E6E501;" d="M18.5578747,9.7436705c-1.6233177,0.0498133-3.1406898,0.5031729-4.5847664,1.220933
		c-0.2267466,0.1127024-0.4296837,0.2714338-0.6920424,0.2988672c0.029088-0.5133104,0.4358091-0.7813015,0.740797-1.1041536
		c0.8743324-0.9255419,1.748107-1.8580322,2.9782133-2.3321757c0.6273098,0.099812,1.2543373,0.1997228,1.8814735,0.2993369
		c0.1698017,0.064827,0.3394985,0.1299515,0.5084152,0.1950674c-0.1517048,0.198535-0.2842503,0.4021063-0.1838398,0.6693859
		l-0.0128059,0.0049334c-0.1105938-0.0052109-0.1453724,0.0396776-0.0936584,0.1417255
		c-0.0101376,0.0294495-0.0285225,0.0522499-0.0551548,0.0683994c-0.0389271,0.0080633-0.0778503,0.0161266-0.1167774,0.0241899
		c0.0137825,0.0209923,0.027565,0.0419846,0.0413475,0.0629759c-0.0108185,0.0269375-0.0265312,0.0506315-0.0471306,0.071084
		c-0.2934322-0.0331917-0.3295403,0.1413498-0.2986736,0.3699646L18.5578747,9.7436705z"/>
	<path style="fill:#A5A5A5;" d="M39.9029083,9.0647058c-0.9899445,0.5980968-1.73983,0.5237303-2.5934639-0.2410946
		c-0.1896439-0.1699104-0.4071999-0.3095465-0.6168518-0.4560404c-0.354538-0.2477217-0.246418-0.451508,0.0545425-0.6417098
		c0.3088112,0.136517,0.5046196,0.3613276,0.713398,0.6368489c0.2699394,0.3562431,0.6528206,0.7494946,1.222805,0.3003426
		c0.1583176-0.1247549,0.4788971-0.0435934,0.7249222-0.0570698C39.582119,8.7490253,39.8380508,8.8038635,39.9029083,9.0647058z"/>
	<path style="fill:#A5A5A5;" d="M19.2061253,8.9909306c-0.1004105-0.2672787,0.032135-0.47085,0.1838398-0.669385
		c0.1020012,0.0478706,0.2032242,0.0957327,0.3044682,0.1435661c-0.0135479,0.0640106-0.0271168,0.1280489-0.0407543,0.1922312
		c-0.0000706,0.0001421-0.0185413,0.0192862-0.0185413,0.0192862C19.4920464,8.7813587,19.3490849,8.8861446,19.2061253,8.9909306z"
		/>
	<path style="fill:#E33917;" d="M41.0404167,14.2598925c-2.6520729-1.8510275-5.456749-3.3562021-8.6104012-4.2210016
		c-1.4869442-0.407753-2.9711819-0.6935883-4.4924355-0.8690586c-0.782753-0.0902882-0.6886997-0.7616854-0.7674446-1.301446
		c2.3390141-0.5729799,4.6969872-0.8463769,7.101696-0.4834948c0.3503876,0.052876,0.7139854,0.0182066,1.0709152,0.024168
		c-0.4443512,0.435864-0.4116859,0.8599787,0.0265884,1.2784691c0.1674652,0.1599083,0.2756462,0.340663,0.3449097,0.5782461
		c0.4007454,1.3746004,2.0008087,2.2174969,3.1303978,1.4569559c0.557663-0.3754692,1.2413521-0.6260233,1.7011147-1.1607342
		c0.0337067,0.0599728,0.0677872,0.1199751,0.1018333,0.1799622c0.0497017,0.0438566,0.0994415,0.0877285,0.1491814,0.1316004
		l0.0069351,0.0065451c0.0514412,0.0492296,0.1029015,0.0984678,0.1543655,0.1477051l0.0005608,0.0005674
		c0.0820656,0.0558319,0.164135,0.1116619,0.2462044,0.1674929c0.0561142,0.0456238,0.1122246,0.0912485,0.1683884,0.1369658
		c-0.0860939,0.0999308-0.0370293,0.137454,0.0686302,0.1488924l-0.0072861-0.0088463
		c0.115448,0.3333158,0.0074081,0.8435936,0.6201248,0.7830715L42.05299,11.2446194
		c-0.014679,0.223279,0.0856819,0.3341122,0.313427,0.3204279l-0.0086594-0.0035877
		c-0.005291,0.1483898,0.012207,0.2805557,0.2049255,0.2880878c0,0,0.0216255,0.0034304,0.0209274,0.0033808
		c-0.2837639,0.2667227-0.3042831,0.6473026-0.323246,0.9779453C42.2079239,13.7451496,41.9012146,14.1451435,41.0404167,14.2598925
		z"/>
	<path style="fill:#B62318;" d="M42.0546951,11.2559528c-0.6127167,0.0605221-0.5046768-0.4497557-0.6201248-0.7830715
		C41.8225937,10.5903015,41.8690414,10.9782448,42.0546951,11.2559528z"/>
	<path style="fill:#B62318;" d="M41.2048378,10.1958694c-0.0820694-0.055831-0.1641388-0.111661-0.2462044-0.1674929
		C41.068615,10.0431719,41.1707497,10.0695124,41.2048378,10.1958694z"/>
	<path style="fill:#B62318;" d="M40.796772,9.873559c-0.0497398-0.0438719-0.0994797-0.0877438-0.1491814-0.1316004
		C40.7424507,9.7347116,40.7852898,9.7863665,40.796772,9.873559z"/>
	<path style="fill:#B62318;" d="M41.4418564,10.4817286c-0.1056595-0.0114393-0.1547241-0.0489626-0.0686302-0.1488934
		C41.3960686,10.3824043,41.4189644,10.4320669,41.4418564,10.4817286z"/>
	<path style="fill:#B62318;" d="M40.9580727,10.0278091c-0.0514641-0.0492373-0.1029243-0.0984755-0.1543655-0.1477051
		C40.855175,9.9293461,40.9066238,9.9785767,40.9580727,10.0278091z"/>
	<path style="fill:#CDCDCD;" d="M45.6674156,23.7132645c0.9531479,0.3682384,1.419323,1.1450634,1.7726135,2.0453873
		c0.7966423,2.0301914,0.7873001,4.0041866-0.1572266,6.0079536c-0.5327721,1.1302643-0.9767761,2.2902489-1.6458435,3.3645363
		c-0.4451714,0.7147942-1.1123161,1.1283722-1.691803,1.6495399c-1.8302574,1.6460648-3.9377403,2.7599869-6.3277283,3.4678955
		c-1.7690506,0.523983-3.5626068,0.8210335-5.3488235,1.2132263c-2.5193901,0.5531654-5.0552216,0.4760056-7.5811329,0.3947334
		c-2.8967304-0.0932121-5.7263851-0.6723709-8.209301-2.2914581c-1.3799143-0.8998299-2.2424469-2.1706276-2.2643204-3.9090958
		c-0.0069036-0.5486488,0.2778196-0.5003777,0.6333342-0.4267998c0.3083811-0.0301094,0.4517908,0.2170944,0.6160517,0.3960762
		c0.5056181,0.5509186,1.0898533,1.0043335,1.6948624,1.4353676c-0.0149384,0.2135124,0.1429443,0.2941475,0.2793407,0.4180069
		c0.362093,0.3288193,0.8812923,0.3710327,1.2254162,0.7410126c0.7897701,0.8490982,1.7792397,1.3115082,2.9199677,1.5390282
		c0.4998589,0.0996971,1.082756-0.0348892,1.4933338,0.2910004c0.7667751,0.6086197,1.6561604,0.6299171,2.5284386,0.5811234
		c2.0460644-0.1144485,4.1179371,0.3393326,6.150486-0.5159187c0.5156212-0.2169609,1.3715935-0.1988068,2.0571518-0.2021523
		c1.1984138-0.0058441,2.2489929-0.5253067,3.3725548-0.7648849c1.4291878-0.3047485,2.7812309-0.9368324,4.0048676-1.7605972
		c1.3229065-0.8905983,2.5238228-1.9275436,3.3304558-3.3394165c0.6203651-1.0858421,1.0076866-2.2384357,1.3371315-3.4620342
		c0.3464546-1.2867699,0.0565033-2.3551521-0.2811699-3.5057945c-0.173851-0.5924072-0.3471794-0.0766926-0.5227127-0.0305996
		C45.2580414,25.937355,45.4627266,24.8253098,45.6674156,23.7132645z"/>
	<path style="fill:#B62318;" d="M12.4853716,32.4580688c-0.22297-1.4307537-0.7021008-2.8173637-0.5912046-4.3050823
		c0.1513557-2.0305233,0.5456505-4.001009,1.2218208-5.9184818c0.0517025-0.1466198,0.0954943-0.2938995,0.2520027-0.3663025
		c0.1286278,0.2652493,0.0211887,0.5160675-0.0890141,0.7396641c-0.2593632,0.5262413-0.1717539,1.0220814,0.1777515,1.4314861
		c0.3017874,0.3535118,0.5333252,0.7399788,0.7177315,1.1494923c0.1222305,0.2714386,0.257616,0.191618,0.4721746,0.1932945
		c0.7466326,0.0058346,1.542325-0.1800041,2.2288923,0.1218128c0.7551594,0.3319702,1.4449177,0.7049351,2.2701035,0.2865715
		c0.0025406,0.3859406-0.0207005,0.7740173,0.0129986,1.1570892c0.0617828,0.7023621-0.1796646,1.4283981,0.1610756,2.1085339
		c0.028656,0.2571373,0.0573158,0.5142765,0.0859737,0.7714138c-0.1252537,0.1312275-0.0935097,0.2971363-0.100399,0.4545097
		c0.0500717,0.9211159-0.05023,1.8411789,0.1120033,2.7693939c0.073267,0.4192009,0.1510239,1.1987381-0.7928581,0.9702721
		c-0.1920643-0.0464935-0.3017025,0.1735916-0.4564419,0.2495804c-0.8781567,0.4312363-1.6259251,0.5981598-2.2939034-0.4641609
		c-0.1230612-0.195713-0.2602386-0.4653664-0.5211458-0.3534241c-0.3709555,0.1591568-0.5644159-0.1247902-0.8415613-0.2110138
		c-0.4476032-0.1392632-0.9060144-0.627903-1.3894129-0.0575066C12.9097643,32.9428291,12.6975679,32.7004471,12.4853716,32.4580688
		z M13.4233112,25.8825588c0.293848-0.8981972,0.293848-0.8981972-0.1265364-1.2810688
		C13.2981787,25.0187435,13.2128096,25.3659344,13.4233112,25.8825588z"/>
	<path style="fill:#15395E;" d="M45.6674156,23.7132645c-0.204689,1.1120453-0.4093742,2.2240906-0.6138649,3.3360157
		c-0.4556694,1.2060394-0.8538132,2.4359131-1.4561996,3.58218c-0.338726,0.6445503-0.5902481,1.3450603-1.162075,1.8429928
		c-0.3640518-0.2720528-0.1920776-0.6648216-0.2034645-1.0018997c-0.0667114-1.974556-0.7292213-3.7420197-1.8124924-5.3703651
		c-0.5681038-1.1472683-1.1144028-2.3080692-2.0159149-3.2484264c-0.4161911-0.9143562-1.3095016-1.4754066-1.7540436-2.3687668
		c-0.0683136-0.5102329-0.6074028-0.7667542-0.6853905-1.2717743c0.2408943-0.0658894,0.3953018,0.0288734,0.4846802,0.2548714
		c0.432785,1.0943241,1.4169617,1.7618046,2.0630684,2.7736435c0.1750755-0.4382439,0.2819214-0.8736324,0.797287-0.4201374
		c0.2204857,0.1940212,0.3866272,0.0716343,0.4065018-0.2039127c0.0431404-0.5981674,0.4636192-0.8331051,0.9243774-1.1078911
		c0.6712036-0.4002991,1.263813-0.9602585,1.7872963-1.5098763c0.3874321-0.4067764,0.6161194-0.8304977,1.2473869-0.7836838
		c0.2473831,0.0183487,0.4717979-0.1201572,0.2142487-0.3489323c-0.3849831-0.3419704-0.4448471-0.8436947-0.7257309-1.227335
		c0.0869522-0.0155087,0.173912-0.0310173,0.2608643-0.046526c0.065361,0.0395508,0.1307182,0.0791016,0.1960793,0.1186523
		c-0.0078087,0.1644497,0.0664024,0.2560883,0.2346115,0.2642803l0.0491982,0.0555286
		c-0.0073547,0.1014366-0.0022697,0.1941757,0.135685,0.1939621c0.0787849,0.080061,0.1575661,0.16012,0.236351,0.240181
		c0.0238609,0.357172,0.1951027,0.6140003,0.5211525,0.7654228c0.0194893,0.053175,0.0389824,0.1063499,0.0584755,0.159523
		c0.2385712,0.5757923,0.4199295,1.1810493,0.8531227,1.6566162C45.8546638,21.2712898,45.792572,22.4926319,45.6674156,23.7132645z
		"/>
	<path style="fill:#873004;" d="M13.1219587,33.1852112c0.4833984-0.5703964,0.9418097-0.0817566,1.3894129,0.0575066
		c0.2771454,0.0862236,0.4706059,0.3701706,0.8415613,0.2110138c0.2609072-0.1119423,0.3980846,0.157711,0.5211458,0.3534241
		c0.6679783,1.0623207,1.4157467,0.8953972,2.2939034,0.4641609c0.1547394-0.0759888,0.2643776-0.2960739,0.4564419-0.2495804
		c0.943882,0.228466,0.8661251-0.5510712,0.7928581-0.9702721c-0.1622334-0.928215-0.0619316-1.848278-0.1119633-2.7693443
		c0.0373898,0.0058212,0.0748882,0.0103664,0.1125374,0.0136814c0.068079,0.6877346,0.0992432,1.3816261,0.2126999,2.0617924
		c0.1800613,1.0794334,0.2644577,2.1854019,0.7484798,3.1950035l0.0058861-0.002739
		c-0.0071526,0.3696594,0.1551666,0.6950836,0.2696209,1.0330009c0.4300213,1.0408211,1.0274754,1.9628296,1.9057484,2.6855583
		c-1.5319176-0.3334694-2.9596748-0.9238701-4.3114433-1.7149239c-0.342392-0.2003746-0.6362572-0.5321732-1.0907497-0.4928665
		c-0.6050091-0.4310341-1.1892443-0.884449-1.6948624-1.4353676c-0.1642609-0.1789818-0.3076706-0.4261856-0.6160517-0.3960762
		C14.3694267,34.4657173,13.5407705,33.9984283,13.1219587,33.1852112z"/>
	<path style="fill:#B62318;" d="M43.6200294,16.7120934c-0.065361-0.0395508-0.1307182-0.0791016-0.1958504-0.1180611
		c-0.108181-0.6022978-0.5097466-0.9258766-1.0578041-1.1098804c-0.4464493-0.403327-0.9832458-0.7089033-1.3256989-1.2246437
		c0.8605385-0.1143646,1.1672478-0.5143585,1.2196884-1.4286346c0.0189629-0.3306427,0.0394821-0.7112226,0.323246-0.9779453
		c0.8940392,1.2939224,1.6522369,2.655777,2.100235,4.1737022c0.0811691,0.5043468,0.0436325,1.0473309,0.4688988,1.4397202
		l-0.0087128,0.048172c-0.0819359,0.2968597,0.1894188,0.7100086-0.2885284,0.8764687
		c-0.0194931-0.0531731-0.0389862-0.106348-0.0582085-0.1594696c-0.0346832-0.3498077-0.1069069-0.6742744-0.5214195-0.7654762
		c-0.0787849-0.080061-0.1575661-0.16012-0.2361031-0.2394943c0.0043716-0.0989532-0.0163994-0.1812286-0.1359329-0.1946487
		c0,0-0.0491982-0.0555286-0.0487213-0.0552959C43.8852997,16.7922916,43.8146896,16.6970024,43.6200294,16.7120934z"/>
	<path style="fill:#873004;" d="M44.8555031,18.3909912c0.4779472-0.16646,0.2065926-0.5796089,0.2885284-0.8764687
		c0.3949547,0.7985172,0.430378,1.6771889,0.5646286,2.5334568C45.2754326,19.5720406,45.0940742,18.9667835,44.8555031,18.3909912z
		"/>
	<path style="fill:#15395E;" d="M19.2061253,8.9909306c0.1429596-0.1047859,0.2859211-0.2095718,0.4289474-0.3143301
		c-0.3420849,0.7919016-0.7660065,1.5526943-0.8436527,2.4404306c-0.0182476,0.2085953-0.2228546,0.3373232-0.4120655,0.432477
		c-1.5172291,0.7630014-2.9234772,1.6974401-4.2632303,2.737751c-0.1544609,0.1199379-0.3405066,0.2452459-0.5692272,0.1721029
		c0.3680534-0.610796,0.9728994-0.9588013,1.5365438-1.3376799c0.7646151-0.5139694,1.5203819-1.0814152,2.3609333-1.4314137
		c0.9489479-0.395133,1.2430897-1.0112705,1.1135712-1.9466801c0,0,0.0653267-0.0093842,0.0648632-0.0092478
		c0.2324562-0.0156069,0.2738457-0.1863394,0.2991371-0.370101c0.0205994-0.0204525,0.0363121-0.0441465,0.0467682-0.0713253
		c0.0459023-0.0108824,0.0712872-0.0397768,0.0757923-0.0869246c0.0266323-0.0161495,0.0450172-0.03895,0.0548496-0.0685291
		c0.0311165-0.0472851,0.0625401-0.0944405,0.0939636-0.1415958L19.2061253,8.9909306z"/>
	<path style="fill:#15395E;" d="M11.4210949,16.7478218c0.0140619,0.1997242-0.0111446,0.3739834-0.2609253,0.4024696
		C11.1419363,16.9478512,11.1737537,16.7779922,11.4210949,16.7478218z"/>
	<path style="fill:#15395E;" d="M11.7170696,16.3850307c0.0185938,0.1713314-0.0517359,0.2739563-0.2275648,0.294754
		C11.4525108,16.4942646,11.4842892,16.3621159,11.7170696,16.3850307z"/>
	<path style="fill:#15395E;" d="M13.2629805,14.7459469c-0.0298252,0.1996136-0.1323509,0.261261-0.3158684,0.1666918
		C13.0068226,14.7691603,13.1102333,14.7108793,13.2629805,14.7459469z"/>
	<path style="fill:#15395E;" d="M13.539484,14.4698544c0.0192604,0.1425114-0.0623121,0.1873341-0.1852865,0.1914616
		C13.3163719,14.5008335,13.4222488,14.4798546,13.539484,14.4698544z"/>
	<path style="fill:#E33917;" d="M19.1455288,25.7904034c-0.8250847,0.4184837-1.514843,0.0455189-2.2700024-0.2864513
		c-0.6865673-0.3018169-1.4822598-0.1159782-2.2288923-0.1218128c-0.2145586-0.0016766-0.3499441,0.0781441-0.4721746-0.1932945
		c-0.1844063-0.4095135-0.4159441-0.7959805-0.7177315-1.1494923c-0.3495054-0.4094048-0.4371147-0.9052448-0.1777515-1.4314861
		c0.1102028-0.2235966,0.2176418-0.4744148,0.0890141-0.7396641c-0.014452-0.0390472-0.0063934-0.0724049,0.0241079-0.1003113
		c0.4623137-0.5226059,0.7676277-1.1120186,0.7779789-1.8269825l0.0369549-0.0559044
		c0.3623676-0.5635586,0.9396353-1.0190544,0.9020624-1.7851963c0.0310774-0.0734978,0.0621557-0.1469936,0.0932341-0.2204914
		c0.054635-0.0211658,0.0754709-0.0611095,0.0625086-0.119833c0.0298157-0.144001,0.0596313-0.288002,0.0889406-0.4318581
		c0.0200157,0.0451488,0.0523996,0.0787029,0.0966473,0.1008072c0.0283909,0.0261993,0.0567827,0.0523949,0.0851755,0.0785942
		c0.0111294-0.0612183,0.0222578-0.1224346,0.0333862-0.1836529c0.0477209-0.1966496,0.0954409-0.3932972,0.1431618-0.5899467
		c0.136982-0.0520535,0.2563324-0.1195374,0.2554092-0.2912674c0.3496151-0.2780781,0.6545734-0.5854931,0.6803989-1.0702772
		c0.0648804-0.055727,0.1297607-0.1114531,0.1946354-0.1672316c0.7490997-0.8181362,1.5189743-1.6184912,2.2387371-2.4616241
		c0.3718567-0.4355955,0.7642193-0.5099401,1.2863808-0.3683987c0.3879128,0.1051493,0.7994194,0.1232672,1.2007847,0.1796999
		c-0.4513359,1.5322323-0.9030399,3.0649137-1.3547459,4.5975962c-0.2277298,0.2194729-0.0992546,0.5032406-0.1366482,0.7570686
		l-0.0013561,0.0023174c-0.1937637,0.1533203-0.2635307,0.3690109-0.2955551,0.600666
		C19.4462967,20.9274235,19.0181808,23.3347263,19.1455288,25.7904034z"/>
	<path style="fill:#095397;" d="M10.3070374,19.6294861c0.3792324,0.1156387,0.4324274-0.576149,0.8120708-0.3567772
		c0.3787861,0.2188778,0.7531834,0.5966091,0.7984762,0.9809494c0.1100225,0.9335976,0.6184053,0.7978725,1.2168579,0.606636
		c-0.4022198,1.3633652-0.7748127,2.7364559-1.2198277,4.085659c-0.2130833,0.6460266-0.131979,1.3220119-0.3277597,1.9616184
		c-0.0583515,0.1906319-0.0082655,0.4529285-0.3222828,0.4001274c-0.2448187-0.0411606-0.3654833-0.2718067-0.294836-0.4654598
		c0.2544193-0.6974144,0.0056505-1.1202202-0.6420202-1.389286c-0.0693216-0.028801-0.1278505-0.1662636-0.1322603-0.2562122
		c-0.0638638-1.3025322-0.544445-2.5536137-0.4761839-3.871727C9.7514896,20.7028942,9.8696194,20.1109524,10.3070374,19.6294861z"
		/>
	<path style="fill:#B62318;" d="M15.1090946,18.0998077c0.0375729,0.7661419-0.5396948,1.2216377-0.9020624,1.7851963
		c0.0374126-0.235817,0.0746956-0.4711857,0.1116772-0.7062607c0.0464211-0.1086788,0.0931444-0.2176571,0.1391573-0.3261337
		c0.1434383-0.0438175,0.2168207-0.1274376,0.1576605-0.2846661c0.039299-0.0229435,0.0663204-0.0559387,0.0807877-0.0984097
		l0.0599527,0.0029049l-0.0135202-0.0596466c0.0422411-0.0805397,0.0844812-0.1610775,0.1262836-0.2409668
		C14.9487591,18.1482544,15.0289268,18.1240311,15.1090946,18.0998077z"/>
	<path style="fill:#B62318;" d="M14.1700773,19.9409084c-0.0103512,0.7149639-0.3156652,1.3043766-0.7779789,1.8269825
		C13.4661856,21.079998,13.7302561,20.4730186,14.1700773,19.9409084z"/>
	<path style="fill:#B62318;" d="M42.5626831,11.8495493c-0.1927185-0.007534-0.2102165-0.1396999-0.2049255-0.2880898
		c0.0484886,0.0043583,0.0969276,0.009305,0.1453094,0.0148382C42.5229378,11.6673822,42.5428085,11.7584648,42.5626831,11.8495493z
		"/>
	<path style="fill:#15395E;" d="M21.5659218,10.0708027c0.12817,0.0807724,0.25634,0.1615448,0.3842545,0.2423763
		c0.5294342,0.1302195,1.0487614,0.1477394,1.5398636-0.1416006c0.4093266,0.0546293,0.6137581-0.296319,0.9123592-0.4609261
		c0.3036804,0.3024292,0.1094971,0.4875784-0.164854,0.6255283c-0.2427692,0.1220665-0.5025597,0.2102785-0.7548065,0.3133984
		c-0.2541122,0.0057259-0.5082531,0.0114899-0.7623959,0.0172548c-0.1549149,0.003356-0.3098316,0.006712-0.4647808,0.0098038
		c-0.106638-0.0064812-0.2132416-0.0126972-0.3198414-0.0189142c-0.1570663-0.1064186-0.3141365-0.2128382-0.471117-0.3192701
		c0.0019035-0.0481253-0.0009041-0.0959644-0.0083351-0.1435337C21.4928188,10.1535463,21.5293694,10.112174,21.5659218,10.0708027z
		"/>
	<path style="fill:#15395E;" d="M16.6479568,15.3718824c-0.0258255,0.4847841-0.3307838,0.7921991-0.6803989,1.0702772
		C15.9117985,15.9050474,16.3605843,15.6897964,16.6479568,15.3718824z"/>
	<path style="fill:#095397;" d="M25.9643669,9.5569429c-0.3226032,0.0290222-0.6222019,0.0124798-0.7157326-0.3731184
		c-0.0255718-0.1054249,0.0211487-0.2164192,0.1452465-0.2091379C25.7554111,8.9958963,25.9019928,9.239934,25.9643669,9.5569429z"
		/>
	<path style="fill:#095397;" d="M21.3046741,8.4762821c-0.0395126,0.197835-0.0790215,0.3956699-0.1182594,0.5929918
		c0.0002708-0.0005121-0.0254383,0.0538816-0.0254383,0.0538816C21.1075821,9.115572,21.053997,9.1085138,21.000412,9.1014557
		c-0.1116276-0.0879717-0.2232533-0.1759415-0.3348808-0.2639132C20.8725014,8.7063694,21.0280113,8.4841557,21.3046741,8.4762821z"
		/>
	<path style="fill:#15395E;" d="M21.000412,9.1014557c0.0535851,0.0070581,0.1071701,0.0141163,0.1606579,0.0214376
		c-0.0478115,0.3942919,0.1512604,0.6828833,0.404871,0.9480362c-0.0365715,0.0412445-0.073122,0.0826168-0.1094971,0.123867
		c-0.0976639-0.051589-0.195507-0.1030569-0.2933483-0.1545238C20.9708614,9.7512484,21.0000038,9.4238625,21.000412,9.1014557z"/>
	<path style="fill:#15395E;" d="M15.4504251,17.4284325c-0.0442476-0.0221043-0.0766315-0.0556583-0.0966473-0.1008072
		c0.0744553-0.2261467-0.0224829-0.5551453,0.3588743-0.5948792c-0.0482244,0.1973305-0.0959444,0.3939781-0.1434059,0.5902081
		C15.5298128,17.3578339,15.4901171,17.3931332,15.4504251,17.4284325z"/>
	<path style="fill:#095397;" d="M22.7203426,10.6668339c0.2541428-0.005765,0.5082836-0.011529,0.7623959-0.0172548
		C23.2335033,10.8730984,22.9847641,11.1171446,22.7203426,10.6668339z"/>
	<path style="fill:#15395E;" d="M15.1090946,18.0998077c-0.0801678,0.0242233-0.1603355,0.0484467-0.2400637,0.0720177
		c-0.0631227-0.2041836-0.0323229-0.3559208,0.2139416-0.3895397c0.036047,0.0369282,0.0758028,0.0693092,0.1193562,0.0970306
		C15.1712503,17.9528141,15.140172,18.02631,15.1090946,18.0998077z"/>
	<path style="fill:#15395E;" d="M14.6155272,18.5679436c0.0591602,0.1572285-0.0142221,0.2408485-0.1576624,0.2846661
		C14.3563347,18.6720219,14.4061079,18.5758934,14.6155272,18.5679436z"/>
	<path style="fill:#095397;" d="M21.9357204,10.6577234c0.1065998,0.006217,0.2132034,0.0124331,0.3198414,0.0189152
		c-0.0227623,0.0987291-0.0420036,0.2171888-0.170702,0.2085581C21.9595375,10.876792,21.9493103,10.7581892,21.9357204,10.6577234z
		"/>
	<path style="fill:#095397;" d="M21.1630955,10.0402727c0.0978413,0.0514669,0.1956844,0.1029348,0.2933483,0.1545248
		c0.0072556,0.0476913,0.0100632,0.0955305,0.0081596,0.1436558C21.2740231,10.3300648,21.1706009,10.2336454,21.1630955,10.0402727
		z"/>
	<path style="fill:#B62318;" d="M15.2023287,17.8793163c-0.0435534-0.0277214-0.0833092-0.0601025-0.1193562-0.0970306
		c0.0606985-0.0076523,0.1214828-0.0154209,0.182066-0.022995C15.2777996,17.8182068,15.2569637,17.8581505,15.2023287,17.8793163z"
		/>
	<path style="fill:#095397;" d="M25.5030155,10.6580935c-0.0539761,0.0468607-0.1079559,0.0937204-0.1619205,0.1405621
		C25.3950768,10.75179,25.449049,10.7049427,25.5030155,10.6580935z"/>
	<path style="fill:#095397;" d="M25.0389709,10.8103027c-0.021162-0.0219784-0.0423222-0.0439568-0.0634842-0.0659361
		c0.0218315,0.0212688,0.043663,0.0425386,0.0655518,0.0638199L25.0389709,10.8103027z"/>
	<polygon style="fill:#15395E;" points="14.7427473,18.4127922 14.7562675,18.4724388 14.6963148,18.4695339 14.7012663,18.4252625 
			"/>
	<path style="fill:#095397;" d="M43.1630859,16.6399689c0.2808838,0.3836384,0.3407478,0.8853626,0.7257309,1.2273331
		c0.2575493,0.228775,0.0331345,0.367281-0.2142487,0.3489323c-0.6312675-0.046814-0.8599548,0.3769073-1.2473869,0.7836838
		c-0.5234833,0.5496178-1.1160927,1.1095772-1.7872963,1.5098763c-0.4607582,0.274786-0.881237,0.5097237-0.9243774,1.1078911
		c-0.0198746,0.275547-0.1860161,0.397934-0.4065018,0.2039127c-0.5153656-0.453495-0.6222115-0.0181065-0.797287,0.4201374
		c-0.6461067-1.0118389-1.6302834-1.6793194-2.0630684-2.7736435c-0.0893784-0.2259979-0.2437859-0.3207607-0.4845161-0.2551174
		l0.0074387-0.0271339c-0.0022697-0.0972271-0.0505905-0.1474457-0.1492882-0.1462326l-0.0178566-0.0048256
		c-0.0826912-0.6180573-0.5119743-0.9119301-1.0407829-1.112709l0.0035629,0.0022202
		c-0.050396-0.0545731-0.1007881-0.1091442-0.1511841-0.1637173l0.0006142,0.0013371
		c-0.003994-0.1396446-0.0079918-0.2792892-0.0119858-0.418932c0.0556908-0.1511192,0.1442833-0.2887363,0.3024597-0.3269844
		c0.5749054-0.1390133,0.6147346-0.5469379,0.3755836-0.9386597c-0.2609673-0.4274664-0.0700798-0.6527767,0.204937-0.9167604
		c0.828949-0.79568,1.7493553-1.4611435,2.7700157-1.9901485c0.0495949-0.0257044,0.0544395-0.1377459,0.0801926-0.2096138
		c1.2441177,0.6921482,2.3300629,1.6065092,3.4527588,2.4681883c0.2031136,0.1558933,0.3610344,0.3698444,0.6584511,0.3144255
		C42.6873131,16.0423317,42.9252014,16.3411484,43.1630859,16.6399689z"/>
	<path style="fill:#095397;" d="M29.0447865,9.5959196c0.9926033,0.2022762,2.020731,0.2588682,2.9503994,0.7192049
		c-0.0902462,0.1524668-0.2391262,0.196187-0.3917961,0.1578636c-0.7538052-0.1892176-1.503809-0.3935556-2.2570953-0.5849142
		C29.1813202,9.8461637,29.0755253,9.7654619,29.0447865,9.5959196z"/>
	<path style="fill:#095397;" d="M31.388258,14.35847c0.7242298,0.1139631,1.2084942,0.4970274,1.3801136,1.23069
		l-0.0423203,0.0425091c-0.569046-0.1961441-0.7108421-0.9450817-1.3533039-1.0462866
		C31.3779182,14.5097446,31.3830891,14.4341078,31.388258,14.35847z"/>
	<path style="fill:#15395E;" d="M34.6046524,17.3429813c0.003994,0.1396427,0.0079918,0.2792873,0.0119934,0.4189262
		c-0.17659-0.1065559-0.3531799-0.2131081-0.5297737-0.3196583c-0.0238609-0.0334206-0.0529251-0.0614376-0.0871964-0.084053
		l-0.0066185-0.0435143l-0.0420647-0.0100632c-0.037674-0.0380917-0.0753479-0.0761833-0.1130257-0.114275l-0.007473-0.0410595
		l-0.0416183-0.0061626c-0.0268631-0.0397568-0.0600433-0.0732479-0.099556-0.1004734l-0.0061798-0.0451393l-0.0438843-0.0133305
		c-0.1026268-0.1139565-0.2052536-0.2279129-0.3078766-0.3418694c0.0245476-0.0354977,0.0418625-0.0742283,0.0519447-0.1161938
		c0.1548882,0.0483875,0.3097725,0.096777,0.4646606,0.1451645C34.1002083,16.8951797,34.3524284,17.1190815,34.6046524,17.3429813z
		"/>
	<path style="fill:#15395E;" d="M30.0159721,13.3914299c0.4019756,0.0368605,0.651329,0.2530994,0.7540951,0.6416197
		l-0.0387554,0.0399847c-0.3445225-0.1009645-0.5543556-0.3658113-0.7654686-0.6291027L30.0159721,13.3914299z"/>
	<path style="fill:#095397;" d="M32.7631798,10.494318c0.2605629-0.0278196,0.4887085,0.0189981,0.6271896,0.2720804
		C32.9794464,11.1415339,32.8491745,10.8690214,32.7631798,10.494318z"/>
	<path style="fill:#095397;" d="M32.7683716,15.58916c0.3583908,0.0503235,0.5610924,0.2598772,0.6250381,0.6113577
		l-0.0223618,0.0228195c-0.0894051-0.0049076-0.1789627-0.0096722-0.2685165-0.0144367
		c-0.1047707-0.0963287-0.2095451-0.1926575-0.3143158-0.2889862c-0.0207672-0.096034-0.0415382-0.1920681-0.0623093-0.2881021
		L32.7683716,15.58916z"/>
	<path style="fill:#095397;" d="M37.405304,12.5036592c0.156147,0.0945435,0.312294,0.189085,0.4684792,0.2834244
		c-0.2387276,0.2942905-0.4360542,0.0095253-0.6497269-0.0466843C37.2844696,12.6614857,37.3448868,12.5825729,37.405304,12.5036592
		z"/>
	<path style="fill:#095397;" d="M33.8479843,16.6712799c-0.1548882-0.0483875-0.3097725-0.096777-0.4646721-0.1452026
		l-0.004673-0.0071144c-0.0025558-0.0984631-0.005146-0.1969719-0.0077362-0.2954807l0.0225067-0.0229645
		C33.7224808,16.1860714,33.8811302,16.3361244,33.8479843,16.6712799z"/>
	<path style="fill:#15395E;" d="M31.388258,14.35847c-0.0051689,0.0756378-0.0103397,0.1512747-0.0155201,0.2268753
		c-0.0519848-0.0003986-0.1039619-0.0007591-0.1559372-0.0011215c-0.1036777-0.1266766-0.2073574-0.2533512-0.3110352-0.3800268
		l0.0197067-0.0219765C31.0916233,14.2097511,31.2736607,14.1955709,31.388258,14.35847z"/>
	<path style="fill:#095397;" d="M29.3517189,12.6525202c-0.1492367-0.0480185-0.2463284-0.1489477-0.2991161-0.2947168
		C29.2571049,12.3497372,29.3557167,12.449048,29.3517189,12.6525202z"/>
	<path style="fill:#095397;" d="M29.0394211,12.3459711c-0.0502338-0.0421009-0.1004639-0.0842018-0.1507645-0.12603
		c0.0354939-0.0254507,0.0710545-0.0511742,0.106617-0.0768967C29.0099888,12.2106867,29.024704,12.2783289,29.0394211,12.3459711z"
		/>
	<path style="fill:#095397;" d="M28.4176407,11.8878403c-0.1242142,0.00103-0.2308178-0.0345936-0.3015614-0.1447573
		C28.2450161,11.7321444,28.3586674,11.7529898,28.4176407,11.8878403z"/>
	<path style="fill:#15395E;" d="M29.531889,12.9498959c0.0524578,0.0508862,0.1049156,0.1017723,0.1573753,0.1526575
		c-0.0229836,0.0220938-0.0455799,0.0445776-0.067749,0.0674047c-0.0556202-0.0443993-0.1112728-0.0887508-0.1669254-0.1331034
		C29.4796906,13.0072765,29.5054569,12.9782896,29.531889,12.9498959z"/>
	<path style="fill:#095397;" d="M28.5780773,12.0456238c-0.048727-0.0493431-0.097456-0.0986862-0.1461487-0.147953
		C28.480669,11.9470387,28.5293713,11.9963312,28.5780773,12.0456238z"/>
	<path style="fill:#095397;" d="M29.5079975,12.8143778c-0.0480499-0.0497713-0.096096-0.0995436-0.1440983-0.1492319
		C29.4119644,12.7149439,29.4599819,12.7646608,29.5079975,12.8143778z"/>
	<path style="fill:#15395E;" d="M30.7700672,14.0330496c0.0517464,0.0497856,0.1034966,0.0995712,0.1553249,0.1492634
		l-0.0196285,0.021884c-0.058157-0.0437136-0.1163101-0.0874262-0.1744633-0.1311369L30.7700672,14.0330496z"/>
	<path style="fill:#15395E;" d="M29.8455563,13.2509851c0.0566826,0.0469313,0.1133614,0.0938625,0.170229,0.1406193
		l-0.0499306,0.0523081c-0.0583305-0.0445776-0.1166763-0.0891361-0.1750183-0.1336946
		C29.8092937,13.2906761,29.8275356,13.2709312,29.8455563,13.2509851z"/>
	<path style="fill:#15395E;" d="M29.6892643,13.1025534c0.051981,0.0496111,0.10396,0.0992222,0.1561146,0.148633
		c-0.0178432,0.0197449-0.0360851,0.0394897-0.0545139,0.0589943c-0.0564423-0.046751-0.1129131-0.0934629-0.1693859-0.1401758
		C29.6436844,13.147131,29.6662807,13.1246471,29.6892643,13.1025534z"/>
	<path style="fill:#095397;" d="M27.165947,10.981802c-0.0443077-0.0556021-0.0886154-0.1112041-0.1329556-0.1667185
		C27.0772877,10.8707142,27.1216183,10.9262581,27.165947,10.981802z"/>
	<path style="fill:#873004;" d="M43.1630859,16.639967c-0.2378845-0.2988186-0.4757729-0.5976353-0.714035-0.8965387
		c-0.0280533-0.0867863-0.0557289-0.1734905-0.0830383-0.2597361c0.54842,0.1844635,0.9499855,0.5080423,1.0581665,1.1103401
		C43.336998,16.6089497,43.2500381,16.6244583,43.1630859,16.639967z"/>
	<path style="fill:#E6E501;" d="M20.2137489,17.1519241c0.4517059-1.5326824,0.90341-3.0653639,1.3547459-4.5975962
		c0.8037128-0.1955347,1.6077957-0.3915215,2.4111996-0.587203c0.2515831,0.2398071,0.3543911,0.5519753,0.4658623,0.8723984
		c0.1582718,0.4549561,0.2498875,0.9527845,0.6269512,1.3016176c0.3880653,0.3590107,0.5065403,0.846036,0.5430508,1.3229713
		c0.1556225,2.0329618,1.1562672,3.7978621,1.7528286,5.6898794c-0.0034561,0.1717567-0.0174484,0.3467464,0.1435108,0.4680977
		c0.0478096,0.0558491,0.0956192,0.1117001,0.143425,0.1675491c0.0268764,0.2516956,0.010397,0.5177364,0.088129,0.7526016
		c0.3366184,1.0171375,0.6734715,2.0358791,1.0646152,3.0326996c0.2555561,0.6512775,0.2547626,1.4174461,0.8267097,1.9337463
		c-0.1445618,0.6717415,0.3598118,1.2024632,0.3984127,1.8343086c-0.2996445,0.8131847,0.3977718,1.4284916,0.4315548,2.1755695
		c-0.1172638,0.0964298-0.2209072,0.2482529-0.3538456,0.280941c-1.8584251,0.4569836-3.7472649,0.7879276-5.6578331,0.7809315
		c-1.466444-0.0053673-2.9456215,0.1840057-4.4059601-0.1186371c-0.2966557-1.1894016-0.4840927-2.3916664-0.444479-3.6228828
		c0.0625019-1.9425945-0.0531445-3.8835049,0.1105614-5.8317585c0.1213379-1.4440422,0.4214649-2.8815632,0.3239498-4.3432026
		c0.0128555-0.2508869,0.025713-0.5017738,0.0385685-0.7526608l0.0014324-0.0022793
		C20.2919235,17.6871929,20.2352962,17.4163952,20.2137489,17.1519241z"/>
	<path style="fill:#F78E14;" d="M27.3683872,21.1539917c-0.5965614-1.8920174-1.5972061-3.6569176-1.7528286-5.6898794
		c-0.0365105-0.4769354-0.1549854-0.9639606-0.5430508-1.3229713c-0.3770638-0.3488331-0.4686794-0.8466616-0.6269512-1.3016176
		c-0.1114712-0.3204231-0.2142792-0.6325912-0.4658623-0.8723984c0.5348225-0.2971687,1.091671-0.5604496,1.5960026-0.9014111
		c0.4109764-0.2778463,0.7172508-0.2386198,1.1028709,0.0429411c0.9096699,0.6642017,1.8488827,1.2879429,2.776083,1.9281244
		c0.0555916,0.0444279,0.1112442,0.0887794,0.1668644,0.1331787c0.0564365,0.0467596,0.1129074,0.0934715,0.1693497,0.1402225
		c0.0583134,0.0445957,0.1166592,0.0891542,0.1749897,0.1337318c0.2111015,0.2633104,0.4209347,0.5281572,0.7654572,0.6291218
		c0.0581417,0.0437365,0.1162949,0.0874491,0.1744518,0.1311626c0.1036797,0.1266756,0.2073593,0.2533503,0.3111382,0.3801813
		c0.3478241,0.7154093,0.9959431,1.1348352,1.5864391,1.6110086c0.0817299,0.0662918,0.1634636,0.1325836,0.2451935,0.1988754
		c0.0484619,0.1349335,0.1102867,0.2546215,0.2828445,0.2480469c0.102623,0.1139565,0.2052498,0.2279129,0.3072357,0.3415756
		l-0.0122185,0.0624199l0.0629234-0.0036564c0.0395126,0.0272255,0.0726929,0.0607166,0.0988884,0.1002922
		c-0.0006638-0.0001774-0.0087471,0.0590076-0.0087471,0.0590076l0.058506-0.0116043
		c0.0376778,0.0380917,0.0753517,0.0761833,0.1123619,0.1140079c-0.0006638-0.0002689-0.0112305,0.0578346-0.0112305,0.0578346
		l0.0605774-0.0039902c0.0342712,0.0226154,0.0633354,0.0506325,0.0866356,0.0837784
		c-0.0160713,0.0624447-0.0315857,0.1251659-0.0470963,0.1878872c-0.2994308,0.0058918-0.762291-0.1724701-0.8648109,0.089922
		c-0.3309746,0.8470726-1.1091461,1.0190849-1.7872353,1.3069725c-0.9260769,0.3931694-1.5902042,1.2915649-2.6296158,1.4082508
		C28.168951,20.5010853,27.6425819,20.5439472,27.3683872,21.1539917z"/>
	<path style="fill:#908B02;" d="M23.4900398,10.1715784c-0.4911022,0.28934-1.0104294,0.2718201-1.5398636,0.1416006
		c-0.11203-0.3928576,0.4269085-0.7292871,0.0370274-1.166069C22.6125412,9.3856602,23.5047874,9.1246271,23.4900398,10.1715784z"/>
	<path style="fill:#A5A5A5;" d="M18.9219456,9.3642397c-0.0252914,0.1837616-0.0666809,0.3544941-0.2991371,0.370101
		C18.5924053,9.5055895,18.6285133,9.331048,18.9219456,9.3642397z"/>
	<path style="fill:#A5A5A5;" d="M19.0445061,9.2059898c-0.0045052,0.0471478-0.0298901,0.0760422-0.0757923,0.0869246
		c-0.0134201-0.02075-0.0272026-0.0417423-0.0409851-0.0627346C18.9666557,9.2221165,19.005579,9.2140532,19.0445061,9.2059898z"/>
	<path style="fill:#A5A5A5;" d="M19.1933193,8.9958649c-0.0314236,0.0471554-0.0628471,0.0943108-0.0939636,0.1415958
		C19.0479469,9.0355425,19.0827255,8.990654,19.1933193,8.9958649z"/>
	<path style="fill:#A5A5A5;" d="M17.1580982,37.060627c0.4544926-0.0393066,0.7483578,0.2924919,1.0907497,0.4928665
		c1.3517685,0.7910538,2.7795258,1.3814545,4.311388,1.7148705c0.885006,0.3737144,1.8330421,0.4079857,2.7677822,0.4998283
		c2.7150555,0.2667694,5.4127522,0.2872276,8.0330887-0.6428032c3.7389374-1.2425461,6.8036194-3.4050102,9.0741692-6.6509361
		c0.5718269-0.4979324,0.823349-1.1984425,1.162075-1.8429928c0.6023865-1.1462669,1.0005302-2.3761406,1.4561996-3.58218
		c0.1753426-0.0459728,0.348671-0.5616875,0.522522,0.0307198c0.3376732,1.1506424,0.6276245,2.2190247,0.2811699,3.5057945
		c-0.3294449,1.2235985-0.7167664,2.3761921-1.3371315,3.4620342c-0.806633,1.4118729-2.0075493,2.4488182-3.3304558,3.3394165
		c-1.2236366,0.8237648-2.5756798,1.4558487-4.0048676,1.7605972c-1.1235619,0.2395782-2.1741409,0.7590408-3.3725548,0.7648849
		c-0.6855583,0.0033455-1.5415306-0.0148087-2.0571518,0.2021523c-2.0325489,0.8552513-4.1044216,0.4014702-6.150486,0.5159187
		c-0.8722782,0.0487938-1.7616634,0.0274963-2.5284386-0.5811234c-0.4105778-0.3258896-0.993475-0.1913033-1.4933338-0.2910004
		c-1.140728-0.22752-2.1301975-0.68993-2.9199677-1.5390282c-0.3441238-0.3699799-0.8633232-0.4121933-1.2254162-0.7410126
		C17.3010426,37.3547745,17.1431599,37.2741394,17.1580982,37.060627z"/>
	<path style="fill:#F78E14;" d="M20.037138,18.6639557c0.0975151,1.4616394-0.2026119,2.8991604-0.3239498,4.3432026
		c-0.1637058,1.9482536-0.0480595,3.889164-0.1105614,5.8317585c-0.0396137,1.2312164,0.1478233,2.4334812,0.4448643,3.6227875
		c-0.057169,1.0482368,0.2771416,2.0545998,0.3314266,3.0909538c-0.4839039-1.0096626-0.5683002-2.1156311-0.7483616-3.1950645
		c-0.1134567-0.6801662-0.1446209-1.3740578-0.2125759-2.0617485c-0.004015-0.156065-0.0081596-0.3121738-0.0123024-0.4682846
		c-0.0286579-0.2571373-0.0573177-0.5142765-0.0860138-0.7714767c0.0006294-2.0228653-0.0937614-4.0495472,0.1427841-6.064724
		C19.6320553,21.546442,19.6254539,20.0769081,20.037138,18.6639557z"/>
	<path style="fill:#C14403;" d="M20.037138,18.6639557c-0.411684,1.4129524-0.4050827,2.8824863-0.5746899,4.327404
		c-0.2365456,2.0151768-0.1421547,4.0418587-0.1427841,6.064724c-0.3407001-0.6800728-0.0992527-1.4061089-0.1610355-2.1084709
		c-0.033699-0.3830719-0.010458-0.7711487-0.0129986-1.1570892c-0.127449-2.4557972,0.3006668-4.8631001,0.6345596-7.2785473
		c0.0320244-0.2316551,0.1017914-0.4473457,0.2955551-0.600666C20.062851,18.1621819,20.0499935,18.4130688,20.037138,18.6639557z"
		/>
	<path style="fill:#E33917;" d="M13.4233112,25.8825588c-0.2105017-0.5166245-0.1251326-0.8638153-0.1265364-1.2810688
		C13.7171593,24.9843616,13.7171593,24.9843616,13.4233112,25.8825588z"/>
	<path style="fill:#C14403;" d="M19.4056778,29.8275604c0.0041428,0.1561108,0.0082874,0.3122196,0.0123024,0.4682846
		c-0.0377731-0.0033588-0.0752716-0.0079041-0.1126614-0.0137253
		C19.3121681,30.1246967,19.2804241,29.9587879,19.4056778,29.8275604z"/>
	<path style="fill:#E96401;" d="M27.3683872,21.1539917c0.2741947-0.6100445,0.8005638-0.6529064,1.3891659-0.7189846
		c1.0394115-0.1166859,1.7035389-1.0150814,2.6296158-1.4082508c0.6780891-0.2878876,1.4562607-0.4598999,1.7872353-1.3069725
		c0.10252-0.262392,0.5653801-0.0840302,0.8641968-0.0902195c0.3378029,0.408514,0.635788,0.8616943,1.0242271,1.2156029
		c0.5652313,0.5149937,0.8512726,1.2958088,1.5865326,1.6398277c0.4445419,0.8933601,1.3378525,1.4544106,1.7535934,2.3686771
		c-0.3214073,0.1191502-0.1037598,0.3304558-0.0917854,0.5104485c0.0150414,0.2261105,0.1113777,0.5799179-0.0920219,0.6443253
		c-0.6680374,0.2115288-0.9491272,0.8374748-1.4428978,1.2065239c-1.8042984,1.3485432-3.3316879,3.0720711-5.4576206,3.9947643
		c-0.651556,0.2827854-0.9457912,0.2333927-1.186388-0.4626503c-0.144949-0.4193344-0.0515137-0.9396496-0.4976196-1.2383385
		c-0.5717907-0.5163593-0.5709972-1.2825279-0.8265533-1.9338055c-0.3911438-0.9968204-0.7279968-2.0155621-1.0646152-3.0326996
		c-0.0777321-0.2348652-0.0612526-0.500906-0.08811-0.7526779c-0.0478039-0.0558739-0.0956249-0.1116734-0.1434441-0.1674728
		C27.3509388,21.5007381,27.3649311,21.3257484,27.3683872,21.1539917z"/>
	<path style="fill:#873004;" d="M42.435276,32.474453c-2.2705498,3.2459259-5.3352318,5.40839-9.0738373,6.6507645
		c-0.3809738-0.2619438-0.3930855-0.7085037-0.5111313-1.0871201c-0.5781784-1.8543892-1.0831394-3.7317543-1.7585831-5.5554543
		c0.3047295-0.0275803,0.3356876,0.2285461,0.4736156,0.40839c0.2653942,0.3460541,0.5707493,0.6479683,1.0965633,0.3558922
		c1.6554337-0.9195518,3.2840729-1.9002991,4.6645622-3.1903706c1.2081451-1.1290169,3.0945854-1.7924747,3.0245438-3.9249554
		c-0.0003014-0.0090466,0.044548-0.0195732,0.0683098-0.0294113c1.083271,1.6283455,1.7457809,3.3958092,1.8124924,5.3703651
		C42.2431984,31.8096313,42.0712242,32.2024002,42.435276,32.474453z"/>
	<path style="fill:#C14403;" d="M40.4193192,26.1021881c-0.0237617,0.0098381-0.0686111,0.0203648-0.0683098,0.0294113
		c0.0700417,2.1324806-1.8163986,2.7959385-3.0245438,3.9249554c-1.3804893,1.2900715-3.0091286,2.2708187-4.6645622,3.1903706
		c-0.5258141,0.2920761-0.8311691-0.0098381-1.0965633-0.3558922c-0.137928-0.1798439-0.1688862-0.4359703-0.4738464-0.4086494
		c-0.1085548-0.3222427-0.2168751-0.644228-0.3251972-0.9662113c-0.2184448-0.7330799-0.3585987-1.4925556-0.7326756-2.1731625
		c-0.039032-0.6318607-0.5434055-1.1625824-0.3988438-1.8343239c0.4459496,0.298748,0.3525143,0.8190632,0.4974632,1.2383976
		c0.2405968,0.696043,0.534832,0.7454357,1.186388,0.4626503c2.1259327-0.9226933,3.6533222-2.6462212,5.4576206-3.9947643
		c0.4937706-0.3690491,0.7748604-0.9949951,1.4428978-1.2065239c0.2033997-0.0644073,0.1070633-0.4182148,0.0920219-0.6443253
		c-0.0119743-0.1799927-0.2296219-0.3912983,0.0917854-0.5104485
		C39.3049164,23.7941189,39.8512154,24.9549198,40.4193192,26.1021881z"/>
	<path style="fill:#908B02;" d="M36.6493607,20.4849949c-0.73526-0.3440189-1.0213013-1.1248341-1.5865326-1.6398277
		c-0.3884392-0.3539085-0.6864243-0.8070889-1.0242271-1.2156029c0.0161247-0.0624237,0.0316391-0.125145,0.0477104-0.1875896
		c0.1771545,0.1068249,0.3537445,0.213377,0.5303345,0.3199329l-0.000618-0.0013294
		c0.050396,0.0545731,0.1007919,0.1091461,0.1511803,0.1637154c0,0-0.0035629-0.0022202-0.00354-0.0022354
		c0.2388229,0.4720154,0.5473175,0.8788586,1.04076,1.1127243c0,0,0.0178566,0.0048256,0.0180893,0.004509
		c0.049839,0.0486393,0.0994492,0.0975952,0.1490555,0.1465492l-0.0074387,0.0271339
		C36.0419579,19.7182407,36.5810471,19.974762,36.6493607,20.4849949z"/>
	<path style="fill:#873004;" d="M44.2758751,17.4660454c0.4145126,0.0912018,0.4867363,0.4156685,0.5214195,0.7654762
		C44.4709778,18.0800457,44.299736,17.8232174,44.2758751,17.4660454z"/>
	<path style="fill:#873004;" d="M43.6200294,16.7120953c0.1946602-0.0150928,0.2652702,0.0801964,0.2350883,0.2645111
		C43.6864319,16.9681816,43.6122208,16.876543,43.6200294,16.7120953z"/>
	<path style="fill:#873004;" d="M43.9038391,17.0319023c0.1195335,0.0134201,0.1403046,0.0956955,0.1359329,0.1946487
		C43.9015694,17.226078,43.8964844,17.1333389,43.9038391,17.0319023z"/>
	<path style="fill:#908B02;" d="M30.7662964,31.5161724c0.1083221,0.3219833,0.2166424,0.6439686,0.3251972,0.9662113
		c0.6756744,1.8239594,1.1806355,3.7013245,1.7588139,5.5557137c0.1180458,0.3786163,0.1301575,0.8251762,0.5111313,1.0871201
		c-2.6206684,0.9302025-5.3183651,0.9097443-8.0334206,0.6429749c-0.9347401-0.0918427-1.8827763-0.1261139-2.7677822-0.4998283
		c-0.8782177-0.7226753-1.4756718-1.6446838-1.9053555-2.6850548c-0.0185699-0.362793,0.1784496-0.7824898-0.2699585-1.0334511
		l-0.0058861,0.002739c-0.0544033-1.036293-0.3887138-2.0426559-0.3315449-3.0908928
		c1.4599533,0.3027382,2.9391308,0.1133652,4.4055748,0.1187325c1.9105682,0.0069962,3.799408-0.3239479,5.6578331-0.7809315
		c0.1329384-0.0326881,0.2365818-0.1845112,0.3535976-0.2809067C30.5649319,31.5178127,30.6656132,31.5169926,30.7662964,31.5161724
		z"/>
	<path style="fill:#F78E14;" d="M20.384922,35.5498581c0.4484081,0.2509613,0.2513885,0.6706581,0.2699585,1.0334511
		C20.5400887,36.2449417,20.3777695,35.9195175,20.384922,35.5498581z"/>
	<path style="fill:#C14403;" d="M20.2137508,17.1519241c0.0215454,0.2644711,0.0781727,0.5352688-0.1366119,0.7570915
		C20.1144943,17.6551647,19.9860191,17.371397,20.2137508,17.1519241z"/>
	<path style="fill:#B62318;" d="M15.4504251,17.4284325c0.0396919-0.0352993,0.0793877-0.0705986,0.1188211-0.1054783
		c-0.0113878,0.0616379-0.0225163,0.1228542-0.0336456,0.1840725C15.5072079,17.4808273,15.478816,17.4546318,15.4504251,17.4284325
		z"/>
	<path style="fill:#15395E;" d="M35.8044281,19.0347824c-0.4934425-0.2338657-0.8019371-0.6407089-1.04076-1.1127243
		C35.2924538,18.1228523,35.7217369,18.4167252,35.8044281,19.0347824z"/>
	<path style="fill:#15395E;" d="M34.7672081,17.9242935c-0.0503883-0.0545692-0.1007843-0.1091423-0.1511803-0.1637154
		C34.66642,17.8151493,34.7168121,17.8697205,34.7672081,17.9242935z"/>
	<path style="fill:#15395E;" d="M35.9715729,19.1858406c-0.0496063-0.048954-0.0992165-0.0979099-0.1490555-0.1465492
		C35.9209824,19.0383949,35.9693031,19.0886135,35.9715729,19.1858406z"/>
	<path style="fill:#A5A5A5;" d="M32.8033409,16.1953869c-0.5904961-0.4761734-1.238615-0.8955994-1.5864391-1.6110086
		c0.0518742,0.0002079,0.1038513,0.0005684,0.1558361,0.000967c0.6424713,0.1012421,0.7842674,0.8501797,1.3533134,1.0463238
		c0.0206261,0.0961771,0.0413971,0.1922112,0.0619164,0.2879744C32.7929268,16.0113773,32.7981339,16.1033802,32.8033409,16.1953869
		z"/>
	<path style="fill:#908B02;" d="M33.3313789,16.6423092c-0.1725578,0.0065746-0.2343826-0.1131134-0.2828255-0.2480888
		l0.0300598-0.0313148c0.0999947,0.0520039,0.1999931,0.1040058,0.2999878,0.1560116l0.0047112,0.0071602
		C33.3732414,16.5680809,33.3559265,16.6068115,33.3313789,16.6423092z"/>
	<polygon style="fill:#908B02;" points="33.6893196,17.0426483 33.6263962,17.0463047 33.6386147,16.9838848 33.6831398,16.997509 	
		"/>
	<polygon style="fill:#908B02;" points="33.8379669,17.1903439 33.7794609,17.2019482 33.788208,17.1429405 33.8304939,17.1492844 	
		"/>
	<polygon style="fill:#908B02;" points="33.9996758,17.3581963 33.9390984,17.3621864 33.9503288,17.3043518 33.9930573,17.314682 	
		"/>
	<path style="fill:#908B02;" d="M32.8033409,16.1953869c-0.0052071-0.0920067-0.0104141-0.1840096-0.0153732-0.2757435
		c0.1050186,0.0965996,0.2097931,0.1929283,0.3143044,0.28932c-0.0080605,0.0513573-0.0158577,0.1026478-0.0236588,0.1539421
		l-0.0300598,0.0313148C32.9668045,16.3279705,32.8850708,16.2616787,32.8033409,16.1953869z"/>
	<path style="fill:#15395E;" d="M33.0786133,16.3629055c0.0078011-0.0512943,0.0155983-0.1025848,0.0236588-0.1539421
		c0.0898132,0.0047016,0.1793709,0.0094662,0.2687759,0.0143738c0.0024452,0.0986538,0.0050354,0.1971626,0.0075912,0.2956257
		C33.2786064,16.4669113,33.1786079,16.4149094,33.0786133,16.3629055z"/>
	<path style="fill:#F78E14;" d="M30.7662964,31.5161724c-0.1006832,0.0008202-0.2013645,0.0016403-0.3017998,0.0024261
		c-0.033535-0.7471123-0.7309513-1.3624191-0.4313068-2.1756039C30.4076977,30.0236168,30.5478516,30.7830925,30.7662964,31.5161724
		z"/>
	<path style="fill:#F78E14;" d="M27.511898,21.6220894c0.0478191,0.0557995,0.0956402,0.111599,0.1434441,0.1674728
		C27.6075172,21.7337894,27.5597076,21.6779385,27.511898,21.6220894z"/>
</g>
</svg>
