<?xml version="1.0" encoding="utf-8"?>
<!-- Generator: Adobe Illustrator 21.1.0, SVG Export Plug-In . SVG Version: 6.00 Build 0)  -->
<svg version="1.1" id="Слой_1" xmlns="http://www.w3.org/2000/svg" xmlns:xlink="http://www.w3.org/1999/xlink" x="0px" y="0px"
	 viewBox="0 0 25 25" style="enable-background:new 0 0 25 25;" xml:space="preserve">
<g>
	<path style="fill:#FFFFFF;" d="M12.981369,23.7542095c-0.3216066,0-0.6432133,0-0.9648199,0
		c-0.0371895-0.0066452-0.0741615-0.0173168-0.1115999-0.0193367c-0.7011747-0.0378094-1.390316-0.1507454-2.0657196-0.3413582
		c-2.0587473-0.5810223-3.7644024-1.7002201-5.0884337-3.3821812c-1.1530347-1.4647388-1.8114376-3.1314888-1.9724505-4.9914961
		c-0.0144351-0.1667528-0.0283084-0.3335543-0.0424426-0.5003319c0-0.191432,0-0.382865,0-0.574297
		c0.0061183-0.0447903,0.0160244-0.0894299,0.0177882-0.1343908c0.0272598-0.6948185,0.1331506-1.3776751,0.3208022-2.0468426
		C3.6682379,9.6466808,4.8635564,7.941298,6.6233997,6.633101c1.2326207-0.9162807,2.6129045-1.5013857,4.1267662-1.7660861
		c0.2814932-0.0492191,0.5653896-0.084692,0.8542757-0.1274104c0-0.5841889,0-1.1682665,0-1.7687945
		c-0.2931585,0-0.5813236,0-0.869545,0c0-0.5845997,0-1.1527202,0-1.7215674c1.1806374,0,2.3536148,0,3.5270948,0
		c0,0.576017,0,1.1445124,0,1.724812c-0.292408,0-0.5779467,0-0.8565321,0
		c-0.0104237,0.0184052-0.0173969,0.0249777-0.017417,0.0315709c-0.0016651,0.5588181-0.0037918,1.1176436-0.0005808,1.676439
		c0.0001402,0.0243001,0.0467472,0.0640016,0.0767097,0.0695548c0.0937099,0.0173702,0.1901493,0.0192704,0.2849493,0.0316253
		c1.4075422,0.1834378,2.7190437,0.6404252,3.9274883,1.3867393c0.2400398,0.1482444,0.4717808,0.3099217,0.7117882,0.4683352
		c0.6433907-0.6286864,1.2863808-1.256979,1.9373589-1.8930759c0.6277313,0.6123772,1.2513618,1.2207532,1.8808212,1.834816
		c-0.6512527,0.6386986-1.2951756,1.2702098-1.9368019,1.8994665c0.0102482,0.0177708,0.0134563,0.0248613,0.0180016,0.0309553
		c0.0251465,0.0337286,0.0512505,0.0667572,0.0758915,0.1008472c1.8628941,2.5771561,2.3794842,5.3976946,1.4466839,8.4412823
		c-0.6548939,2.1368198-1.9734764,3.8070717-3.8257313,5.0503922c-1.3188324,0.8852673-2.7750034,1.4082203-4.3543119,1.5850449
		C13.4142351,23.7122402,13.1976938,23.7322578,12.981369,23.7542095z M12.4979668,6.436316
		c-0.9732666,0.0000954-1.9087229,0.1677852-2.8512278,0.5182528c-2.7262945,1.0137649-4.7488818,3.477581-5.0782027,6.3970957
		c-0.1470628,1.3037491,0.0204539,2.5647411,0.5221486,3.7774267c1.3706832,3.3131809,4.8834915,5.3569603,8.6155825,4.8024788
		c1.7661934-0.2624073,3.283042-1.0373306,4.5435648-2.3049126c2.1759262-2.1881161,2.8313255-5.4802036,1.6554317-8.3015022
		C18.6710529,8.363945,15.7499371,6.4359989,12.4979668,6.436316z"/>
	<path style="fill:#FFFFFF;" d="M11.6107016,9.038187c0.5954742,0,1.1760626,0,1.776515,0c0,0.0483618,0,0.0963268,0,0.1442919
		c0.000001,1.1447659,0.0007849,2.2895317-0.001605,3.4342928c-0.0001764,0.0842361,0.0206547,0.1351967,0.0962467,0.1845264
		c1.0486193,0.6843109,1.0534678,2.1624479,0.009181,2.8528385c-0.0817947,0.0540752-0.1078835,0.1092319-0.1059809,0.2030811
		c0.0058975,0.2908592-0.0004406,0.5819492,0.0037918,0.8728657c0.0011854,0.0814819-0.0261822,0.1038609-0.1052437,0.1034203
		c-0.5245085-0.0029106-1.0490532-0.0032673-1.5735531,0.0002499c-0.0850687,0.0005703-0.1014557-0.0324326-0.1006594-0.1079235
		c0.0031929-0.3024273-0.0006456-0.6049347,0.0027628-0.9073582c0.0007792-0.0691099-0.0212135-0.1091299-0.0801039-0.1474733
		c-1.0793943-0.7027826-1.0764027-2.1875725,0.0069828-2.8840618c0.0703449-0.0452223,0.0719671-0.0970478,0.0719442-0.1626215
		c-0.000392-1.1447649-0.0002804-2.2895298-0.0002775-3.4342937C11.6107025,9.1412868,11.6107016,9.0925522,11.6107016,9.038187z"/>
</g>
</svg>
