<?xml version="1.0" encoding="utf-8"?>
<!-- Generator: Adobe Illustrator 21.1.0, SVG Export Plug-In . SVG Version: 6.00 Build 0)  -->
<svg version="1.1" id="Слой_1" xmlns="http://www.w3.org/2000/svg" xmlns:xlink="http://www.w3.org/1999/xlink" x="0px" y="0px"
	 viewBox="0 0 55 45" style="enable-background:new 0 0 55 45;" xml:space="preserve">
<g>
	<path style="fill:#859181;" d="M3.6278012,19.1663208c0.070313-0.7069645,0.6310804-1.0498352,1.0900228-1.4682999
		c0.8302722,0.384676,1.6609678,0.7684078,2.4904847,1.1546707c0.2039003,0.0949459,0.4018784,0.3133068,0.6370621,0.1509914
		c0.9683185-0.6682987,1.8827138-0.7905617,2.7261415,0.1981926c0.0273714,0.0320873,0.0965147,0.041502,0.1456118,0.0401821
		c1.0270023-0.0276356,1.8701162,0.4902687,2.7115726,0.9614105c1.3789215,0.7720795,2.8490915,1.3541622,4.2250853,2.1413116
		c1.1424789,0.6535606,2.3084049,1.3096809,3.5802727,1.7160625c0.2376766,0.0759392,0.4489365,0.181982,0.7082481-0.0457954
		c0.6959229-0.6112862,1.613266-1.0003242,2.4241943-0.6517429c0.7458191,0.3205948,1.5342331,0.7358799,2.1378422,1.3831787
		c0.4025745,0.431715,0.5937233,1.2809849,1.5300331,0.901165c0.2481441-0.1006622,0.3355923,0.2603264,0.4432125,0.4555473
		c0.7667389,1.3908272,0.9392071,2.967205,1.3922176,4.4562263c0.168539,0.5539818,0.1931553,1.1748524,0.6722832,1.6006699
		c-0.0245399,0.0473137-0.0490818,0.0946236-0.0736217,0.1419411c-0.2551003,0.0013695-0.5102024,0.0027313-0.7653046,0.0040932
		c-0.0616875-0.2417374-0.0272884-0.6315556-0.4613743-0.2993698c-0.0511227-0.0019913-0.1016598-0.0085087-0.1516113-0.0195599
		c-0.0328312-0.3778229-0.3328056-0.4135284-0.6110115-0.4771137c-0.0643673-0.1363697-0.0917339-0.3242016-0.198801-0.4011765
		c-1.1217041-0.8064938-2.2013435-1.69771-3.4107208-2.3447571c-0.5863438-0.3137074-0.92346-0.8823147-1.5310955-1.1147957
		c-1.010685-0.3866901-2.0153084-0.7828369-3.1226673-0.7928925c-0.5054913-0.004591-0.4995232-0.2342243-0.2390766-0.5821896
		c0.3978233-0.5314999,0.7782497-1.0760193,1.1660614-1.6150131c-0.677063,0.2172012-1.069191,0.7339687-1.4955711,1.1917973
		c-0.3869934,0.415535-0.795929,0.6126957-1.3614502,0.546957c-1.6140594-0.1876373-2.9753628-0.9944267-4.3615227-1.7454147
		c-0.5361128-0.2904549-0.8094072-1.0479889-1.593626-0.8970737c-0.0482254-0.0038433-0.0963984-0.0082531-0.1445189-0.0132294
		c-0.1836329-0.6813545-0.6838923-0.8749599-1.2701864-0.4676018c-0.1376162,0.0956173-0.1795416,0.0764561-0.3039398-0.0112839
		c-0.5780277-0.4076862-1.1365089-0.8422222-1.7051716-1.2582989c-0.4960089-0.3629169-0.8079805-1.0307579-1.5409532-1.0455666
		c-0.0487866-0.0049191-0.0976682-0.008564-0.1466451-0.0109329c-0.021553-0.1947041-0.1238689-0.2987671-0.3261647-0.2906322
		c-0.1018014-0.0011902-0.2036028-0.0023804-0.3054047-0.0035725c-0.9722538-0.3672504-1.692358-1.335413-2.8756976-1.2149506
		C3.6934016,19.441349,3.6562822,19.2614059,3.6278012,19.1663208z"/>
	<path style="fill:#9BA693;" d="M22.6928139,19.730217c-0.7850761-2.3646011,0.5989857-4.3368769,2.5109482-4.3921633
		c0.9339886-0.0270081,1.8812809,0.23316,2.815094,0.4041023c3.2838535,0.6011381,6.5651245,1.2165346,9.844841,1.8398333
		c0.2156601,0.0409851,0.4675446,0.0438862,0.637394,0.2358303c0.139183,0.2731247,0.4950371,0.1115189,0.6610603,0.3298607
		c-0.2645264,0.1101418-0.0444946,0.6005955-0.4894562,0.5816288c0.3573685,0.1178837,0.667942,0.0612507,0.9649315-0.1064816
		c0.1919479,0.0706463,0.3791695,0.1607399,0.5766144,0.2087498c1.1773453,0.286272,2.3581467,0.558527,3.5325813,0.8560314
		c0.0555725,0.0140762,0.0616951,0.2233276,0.0908699,0.3416996c-0.0384712,0.0552845-0.0769615,0.1105576-0.1154594,0.1658287
		c0.0197105,0.01301,0.0394211,0.026022,0.0591316,0.0390339c0.0198555-0.0673504,0.0397148-0.1346989,0.0595779-0.2020473
		c0.6100082,0.0037556,0.5161476,0.3510361,0.3296127,0.7102013c-0.1619186,0.3117695-0.4190903,0.5843372-0.3331642,0.9784393
		c-0.3142815,0.0964012-0.2485657,0.469471-0.464283,0.637516c-0.6819801,0.1447296-1.3484039,0.1862812-2.0505791,0.0200253
		c-0.9387589-0.2222805-1.8997116-0.3909664-2.8603859-0.4694977c-1.0087204-0.0824585-1.9529724-0.4628963-2.9661255-0.5271816
		c-0.3748055-0.0237808-0.7189636-0.3745823-1.1394691-0.4162731c-2.0855141-0.2067642-4.1857109-0.2587585-6.2566071-0.6229763
		c-1.162529-0.2044601-2.3706322-0.2567005-3.4689922-0.6767521C23.9159622,19.392189,23.3284225,19.3429089,22.6928139,19.730217z
		 M37.6726036,18.8303204c-0.5059395-0.2526379-0.920063-0.274168-1.566925-0.2829952
		C36.6836014,18.924118,37.0831757,19.0233059,37.6726036,18.8303204z"/>
	<path style="fill:#737D6A;" d="M12.3306923,23.7555237c0.7842188-0.1509151,1.0575132,0.6066189,1.593626,0.8970737
		c1.3861599,0.750988,2.7474632,1.5577774,4.3615227,1.7454147c0.5655212,0.0657387,0.9744568-0.131422,1.3614502-0.546957
		c0.4263802-0.4578285,0.8185081-0.974596,1.4955711-1.1917973c-0.3878117,0.5389938-0.7682381,1.0835133-1.1660614,1.6150131
		c-0.2604465,0.3479652-0.2664146,0.5775986,0.2390766,0.5821896c1.1073589,0.0100555,2.1119823,0.4062023,3.1226673,0.7928925
		c0.6076355,0.232481,0.9447517,0.8010883,1.5310955,1.1147957c1.2093773,0.647047,2.2890167,1.5382633,3.4107208,2.3447571
		c0.1070671,0.0769749,0.1344337,0.2648067,0.1987209,0.4012547l-0.0093002,0.0094013
		c-1.4101009-0.2134743-2.6030979-0.9988632-3.9082355-1.4892197c-1.8052864-0.6782646-3.4656391-1.7272243-5.3959084-2.0965443
		c-0.1926022-0.0368519-0.2647285-0.0390167-0.3588276,0.1085987c-0.6780548,1.0636597-1.2585716,2.1877594-1.1420078,3.4774265
		c0.0520344,0.5757084-0.1650391,0.6088924-0.5655117,0.625864c-0.123455-0.0283356-0.2703342-0.0230064-0.366785-0.0901413
		c-1.1146307-0.775835-2.2194786-1.5656986-3.3311882-2.3457584c-1.4353819-1.0071754-2.874629-2.0088406-4.3122129-3.0128784
		c0.2482853-0.0325546,0.3431358-0.1498356,0.1408119-0.3433342c-0.1672325-0.1599407-0.3816385-0.2592831-0.6238184-0.270483
		c-0.0130243-0.3186283-0.2380075-0.3168182-0.4670267-0.3089085c-0.0101032-0.1015968,0.0195313-0.2425537-0.0362682-0.2988873
		c-0.843451-0.8515415-1.3108735-1.9938602-2.2692351-2.7762585c-0.7221804-0.5895824-1.381135-1.2562981-2.1860652-1.7439728
		c-0.2087731-0.0799732-0.1039617-0.4406395-0.3978293-0.4444447c0.0068145-0.4816399,0.0426135-0.9551277,0.3781533-1.3442898
		c0.0284553,0.0950756,0.0655746,0.2750187,0.0841835,0.2731247c1.1833396-0.1204624,1.9034438,0.8477001,2.8756976,1.2149143
		c0.1079793,0.310463-0.2660427,0.8252563,0.3514314,0.9142742c0.4822764,0.0695324,0.415041-0.3128433,0.4267831-0.6091003
		c0.7329726,0.0148087,1.0449443,0.6826496,1.5409532,1.0455666c0.5686626,0.4160767,1.1271439,0.8506126,1.7051716,1.2582989
		c0.1243982,0.0877399,0.1663237,0.1069012,0.3039398,0.0112839c0.5862942-0.4073582,1.0865536-0.2137527,1.2700748,0.4677525
		c-0.427433-0.0139122-0.7893486,0.1002235-1.0722723,0.5713902C11.6696844,24.3223877,12.2797728,24.6825428,12.3306923,23.7555237
		z"/>
	<path style="fill:#9BA693;" d="M30.5420856,32.1600914c-0.4791279-0.4258175-0.5037441-1.0466881-0.6722832-1.6006699
		c-0.4530106-1.4890213-0.6254787-3.0653992-1.3922176-4.4562263c-0.1076202-0.1952209-0.1950684-0.5562096-0.4432125-0.4555473
		c-0.9363098,0.3798199-1.1274586-0.46945-1.5300331-0.901165c-0.6036091-0.6472988-1.3920231-1.0625839-2.1378422-1.3831787
		c-0.8109283-0.3485813-1.7282715,0.0404568-2.4241943,0.6517429c-0.2593117,0.2277775-0.4705715,0.1217346-0.7082481,0.0457954
		c-1.2718678-0.4063816-2.4377937-1.0625019-3.5802727-1.7160625c-1.3759937-0.7871494-2.8461637-1.3692322-4.2250853-2.1413116
		c-0.8414564-0.4711418-1.6845703-0.9890461-2.7115726-0.9614105c-0.0490971,0.0013199-0.1182404-0.0080948-0.1456118-0.0401821
		c-0.8434277-0.9887543-1.757823-0.8664913-2.7261415-0.1981926c-0.2351837,0.1623154-0.4331617-0.0560455-0.6370621-0.1509914
		c-0.8295169-0.3862629-1.6602125-0.7699947-2.4904847-1.1546707c0.8708968-0.8370018,1.96134-1.0532265,3.066431-0.8226738
		c2.022872,0.4220257,3.9102478,1.2960472,5.8581133,1.948595c2.1930475,0.734684,4.3015022,1.7157669,6.5483227,2.2880974
		c0.0982304,0.0250225,0.243515-0.0216961,0.3009949,0.0335503c1.0142002,0.9747715,2.0998402,0.4756451,3.177002,0.1683807
		c-0.2247353,0.5825481-0.0060158,1.1359024,0.5299664,1.385973c0.3010998,0.1404839,0.6242924,0.2313347,0.9303761,0.3463058
		c0.7081299,0.2659855,1.28158,0.8441162,2.0033531,0.9840412c1.5874767,0.3077526,2.9728165,1.0995426,4.4392567,1.6927757
		c1.8706245,0.7567463,3.3817101,2.1717682,5.254837,2.9346199c0.088665,0.036108,0.2160568,0.1390343,0.2146797,0.2086468
		c-0.0108795,0.5483704,0.4952888,0.7310696,0.743557,1.0926037C35.3908119,30.7594814,32.9859085,31.5238094,30.5420856,32.1600914
		z"/>
	<path style="fill:#859181;" d="M37.7847137,29.9589367c-0.2482681-0.3615341-0.7544365-0.5442333-0.743557-1.0926037
		c0.0013771-0.0696125-0.1260147-0.1725388-0.2146797-0.2086468c-1.873127-0.7628517-3.3842125-2.1778736-5.254837-2.9346199
		c-1.4664402-0.5932331-2.8517799-1.3850231-4.4392567-1.6927757c-0.7217731-0.139925-1.2952232-0.7180557-2.0033531-0.9840412
		c-0.3060837-0.1149712-0.6292763-0.205822-0.9303761-0.3463058c-0.5359821-0.2500706-0.7547016-0.8034248-0.5299664-1.385973
		c0.033123-0.0362282,0.0741539-0.0522022,0.1231041-0.0478325c1.3640194,0.6170864,2.809967,1.0006027,4.221777,1.4815102
		c2.2662354,0.7719517,4.4989433,1.6433468,6.8062134,2.29352c0.0426979,0.1904774,0.1584587,0.2733688,0.3532448,0.2398872
		c0.1931,0.0217743,0.3862,0.0435524,0.57938,0.0650387c0.0908928,0.3270168,0.3724785,0.3726978,0.6427574,0.4350662
		c-0.0019798,0.1489182-0.0039558,0.2978344-0.0059395,0.4467525c0.0193558,0.1586742,0.0521049,0.3111248,0.2619171,0.2927856
		c0.16502-0.014431,0.1810188-0.1492519,0.1985435-0.2766876c0.1563835,0.09692,0.3127632,0.1938419,0.4691429,0.2907658
		c0.1092682,0.2041779,0.3034286,0.1653652,0.4828644,0.1686878l0.0700531-0.0006962l0.0700111,0.0025539
		c0.0045967,0.3870239,0.3218346,0.4625378,0.5871506,0.5916901c0.3089981,0.1504269,0.6878967,0.1012325,0.9655342,0.3398285
		c-0.0120201,0.0208492-0.024025,0.0417042-0.0360298,0.062561c0.011261-0.0215969,0.022522-0.0431919,0.0337868-0.0647888
		c0.88237,0.0647602,1.6449661,0.3258705,2.0155907,1.2295418C40.2850876,29.2913876,39.0441895,29.6567535,37.7847137,29.9589367z
		 M40.795723,28.5016937c-0.046093-0.014307-0.0748787-0.023243-0.1036682-0.0321808
		c0.0054283,0.0192242,0.0108566,0.0384464,0.0162849,0.0576706C40.7305145,28.5207157,40.7526894,28.5142479,40.795723,28.5016937z
		"/>
	<path style="fill:#555748;" d="M29.7031593,32.3061256c0.2551022-0.0013618,0.5102043-0.0027237,0.7653046-0.0040932
		c0.0111198,0.2538528,0.4608002,0.7034225-0.2778645,0.6226654c-1.3421078,0.1668663-2.5938797,0.6465187-3.7979984,1.2159996
		c-2.5477638,1.2049484-4.9385586,0.9834518-7.2262745-0.6247673c-0.0945301-0.5525742-0.1880665-1.1054306-0.2837772-1.6579075
		c-0.095871-0.5534153,0.9094753-1.8383617,1.3941612-1.6520615c0.6056309,0.2327881,1.2405987,0.0799866,1.8025322,0.3036747
		c1.6554832,0.658989,3.4085121,0.9173145,5.136261,1.2521172c0.5044785,0.0977612,0.9773254,0.6984291,1.5676155,0.2276669
		c0.1023521-0.000742,0.2047024-0.0014839,0.3070545-0.002224c0.0499516,0.0110512,0.1004887,0.0175686,0.1516953,0.0193081
		C29.2713356,32.2974586,29.484581,32.3058929,29.7031593,32.3061256z"/>
	<path style="fill:#555748;" d="M35.752327,25.3463821c-0.1931-0.0217743-0.3862-0.0435524-0.5795059-0.0650997
		c-0.0438499-0.1884708-0.1496048-0.2859898-0.3530388-0.2401142c-2.3072701-0.6501732-4.539978-1.5215683-6.8062134-2.29352
		c-1.4118099-0.4809074-2.8577576-0.8644238-4.221777-1.4815102c0.0031223-0.0954113,0.0062466-0.1908169,0.009367-0.2862301
		c0.0538101-0.048214,0.1076221-0.0964203,0.1614342-0.1446285c0.5939293,0.5609035,1.4064579,0.5449276,2.1160984,0.79986
		c1.9705486,0.7079105,3.9446182,1.405695,5.9645901,1.9637375c2.0612144,0.6717796,4.1204529,1.3497295,6.1843262,2.0132523
		c1.4630127,0.4703503,2.9244194,0.9488564,4.4019852,1.3694725c0.7772942,0.2212696,0.8253479,0.1341629,0.5791206-0.5964737
		c-0.1497498-0.6625061-0.158226-1.3353176-0.146553-2.0095959l0.0101357,0.0113029
		c0.7605743,0.6731377,1.7039032,0.2793064,2.5213776,0.3031425c1.3870468,0.0404453,2.7273331,0.5785465,4.1263504,0.335474
		c0.0425377-0.0073891,0.0940628,0.0365562,0.1413193,0.0567436c0.7636032,0.3261852,1.5069847,0.2135448,2.2409782-0.1031723
		c0.1936607-0.0115395,0.3929558,0.0359173,0.4090424,0.2432499c0.0128784,0.1659679-0.1016388,0.321825-0.296608,0.390852
		c-0.4055939,0.1435986-0.8052597,0.3039722-1.2071953,0.457468c-0.315239-0.0135593-0.5698776,0.1509171-0.834877,0.2850342
		c-1.1870346,0.4179611-2.3740768,0.8359222-3.5611115,1.2538853c-0.772049,0.1895447-1.5411835,0.3967533-2.3460579,0.387598
		c-0.403183,0.121851-0.8063622,0.2437019-1.2095222,0.3655338c0.0083427-0.4144459-0.1940765-0.6167297-0.5974388-0.7365036
		c-1.146946-0.3405743-2.2804947-0.7262535-3.4193192-1.0941792c-0.0685616-0.3105984-0.2842636-0.2901897-0.5176086-0.2300892
		c-0.4170418-0.0551128-0.7450943-0.4240227-1.2013969-0.3407001c-0.1582947-0.2357559-0.3749924-0.3388481-0.6586075-0.2899513
		c-0.0880775-0.0068569-0.1761551-0.01371-0.2642326-0.0205669C36.2424927,25.4217644,36.0217133,25.3325462,35.752327,25.3463821z"
		/>
	<path style="fill:#859181;" d="M23.9625931,20.8352795c-0.053812,0.0482082-0.1076241,0.0964146-0.1614361,0.1446285
		c-0.504858-0.2964668-0.9911842-0.6093712-1.1082954-1.2497139c0.635561-0.3872852,1.2231007-0.3380051,1.9380875-0.0645695
		c1.0983601,0.4200516,2.3064632,0.4722919,3.4689922,0.6767521c2.0708961,0.3642178,4.171093,0.4162121,6.2566071,0.6229763
		c0.4205055,0.0416908,0.7646637,0.3924923,1.1394691,0.4162731c1.0131531,0.0642853,1.9574051,0.4447231,2.9661255,0.5271816
		c0.9606743,0.0785313,1.921627,0.2472172,2.8603859,0.4694977c0.7021751,0.166256,1.3685989,0.1247044,2.0505791-0.0200195
		c0.0002785,0.1561108,0.0005455,0.3122234,0.0008163,0.4683342c-0.2432785,0.4925213-0.1723862,1.0457592-0.3015442,1.560339
		l-0.0102119-0.0114174c-0.2899933-0.0117149-0.435894-0.3036499-0.7576599-0.3243446
		c-1.2156792-0.0781937-2.3858299-0.4464417-3.6065369-0.5686531c-1.5205841-0.1522331-3.0162048-0.546484-4.5257568-0.8187408
		c-1.0551071-0.1902962-2.1805248-0.1857052-3.1563988-0.5689754c-1.1164722-0.4384823-2.2826366-0.5194778-3.401186-0.8476658
		c-0.7884293-0.2313328-1.6732006-0.234396-2.3633785-0.5911751C24.6395416,20.3397732,24.3441982,20.4057751,23.9625931,20.8352795
		z"/>
	<path style="fill:#9BA693;" d="M19.1663647,33.5158119c2.2876778,1.6083374,4.6784725,1.829834,7.2262363,0.6248856
		c1.2041187-0.5694809,2.4558907-1.0491333,3.7979984-1.2159996c0.3566685,0.8619308,0.062479,1.4735222-0.9244156,1.737072
		c-1.3931351,0.3720322-2.8250561,0.5492249-4.2555084,0.7155304c-0.5354805,0.0622559-1.0740662,0.104557-1.6124401,0.1337929
		c-1.3013897,0.0706635-2.4328804-0.3786316-3.5255108-1.0619507c-1.0179443-0.6366119-2.141592-1.1043358-3.1587868-1.7419891
		c-1.2814569-0.8033142-2.4725533-1.751255-3.7574482-2.5484486c-1.2207966-0.7574234-2.3445473-1.6476154-3.5449877-2.4296665
		c-1.533082-0.9987564-2.9374003-2.1675415-4.361547-3.310606c-0.3592796-0.2883701-0.2883539-0.6915951-0.3625045-1.0603218
		c0.4864454,0.0652275,0.6698942,0.601017,1.1207027,0.7216454c0.3537569,0.4735012,0.7827559,0.8676243,1.2682462,1.2021523
		c0.018826,0.4392719,0.360899,0.2935429,0.6011157,0.3321514c0.0562744,0.0466499,0.1125484,0.093298,0.1687045,0.1400871
		c0.0128651,0.6281528,0.5644403,0.5911064,0.9448543,0.7654114c0.0993443,0.0591164,0.1986876,0.1182346,0.2980309,0.177351
		c1.4375839,1.0040379,2.8768311,2.005703,4.3122129,3.0128784c1.1117096,0.7800598,2.2165575,1.5699234,3.3311882,2.3457584
		c0.0964508,0.0671349,0.24333,0.0618057,0.3672009,0.0900955C17.6396236,32.8273964,18.4733429,33.0655174,19.1663647,33.5158119z"
		/>
	<path style="fill:#859181;" d="M43.8373642,21.7205887c-0.0858994-0.3939266,0.1712723-0.6664944,0.3331909-0.9782639
		c0.1865349-0.3591652,0.2803955-0.7064457-0.3296127-0.7102013l-0.0032692-0.0028286
		c-0.0291557-0.1183586-0.0352783-0.32761-0.0908508-0.3416862c-1.1744347-0.2975044-2.3552361-0.5697594-3.5325813-0.8560314
		c-0.1974449-0.0480099-0.3846664-0.1381035-0.5765266-0.2086525c0.0924225-0.1935997,0.3335228-0.3060684,0.3081131-0.5640526
		c2.2461548,0.304697,4.4600029,0.7833843,6.6779861,1.2398148c0.0157967,0.3941345,0.1302986,0.6698341,0.4856529,0.9585266
		c0.4553337,0.3699188,1.0661125,0.6538124,1.2400475,1.3107376c-0.2846146,0.0543518-0.4686089-0.1110382-0.6882401-0.2614536
		c-0.8226242-0.563385-1.5635376-1.2558689-2.5148506-1.7429581c-0.0133247,0.4229164,0.2696419,0.5256424,0.4183083,0.7192841
		c0.5440178,0.7085609,1.5734749,0.7826614,2.067482,1.5116386c0.4155197,0.6131611,0.9628983,0.8936272,1.638649,1.0306606
		c0.0118217,0.3487854,0.3422546,0.4309731,0.5429115,0.5975132c0.4215775,0.3498974,0.357235-0.0671844,0.3975639-0.2953663
		c0.4106522,0.2791557,0.6609306,0.8287277,1.2788391,0.7584019c0.211731,0.247551,0.4234581,0.4951038,0.6350937,0.7427673
		c-0.6332741,0.3215351-1.2790298,0.1025448-1.9210281,0.0448265c-0.4054985-0.518671-1.0548058-0.6152458-1.6039772-0.819231
		c-0.7757721-0.288166-1.3854828-0.9208202-2.2292099-1.0286541c-0.9117737-0.1165352-1.5943031-0.8187981-2.4946404-0.9611301
		C43.8563309,21.8610764,43.8500748,21.7704315,43.8373642,21.7205887z"/>
	<path style="fill:#61695B;" d="M50.2042427,24.6732655c0.6419983,0.0577183,1.2877541,0.2767086,1.9210281-0.0448265
		c0.1971321,0.1302433-0.0405579,0.2320213-0.0229568,0.350584c-0.7339859,0.3167171-1.4773674,0.4293575-2.2409706,0.1031723
		c-0.0472565-0.0201874-0.0987816-0.0641327-0.1413193-0.0567436c-1.3990173,0.2430725-2.7393036-0.2950287-4.1263504-0.335474
		c-0.8174744-0.0238361-1.7608032,0.3699951-2.5213776-0.3031425c0.1292419-0.5144558,0.0583496-1.0676937,0.3016281-1.5602417
		c0.2268906,0.2292137,0.004158,0.7490349,0.5687332,0.7786236c1.4287949,0.0748787,2.7839165,0.5551777,4.1804047,0.8071861
		C48.8076439,24.5359402,49.4943771,24.7201748,50.2042427,24.6732655z"/>
	<path style="fill:#9BA693;" d="M44.2655144,27.9971104c0.8048744,0.0091553,1.5740089-0.1980534,2.3461533-0.3874474
		c1.0140572,0.2117844,1.9883347-0.1342049,2.9796753-0.2254086c0.616848-0.0567513,0.9177208-0.3863239,0.5813408-1.0286274
		c0.2649994-0.1341171,0.5196381-0.2985935,0.834877-0.2850342c0.5111237,0.1139355,0.6018715,0.5125542,0.5995293,0.9398937
		c-0.0023346,0.4266987-0.3566933,0.5298595-0.679966,0.6178493c-2.0213089,0.550148-4.0998039,0.5588684-6.170536,0.6371078
		C44.5432243,28.2735023,44.3393555,28.2507706,44.2655144,27.9971104z"/>
	<path style="fill:#9BA693;" d="M48.3496056,21.5677853c-0.1740265-0.6567593-0.7848053-0.9406528-1.240139-1.3105717
		c-0.3553543-0.2886925-0.4698563-0.5643921-0.4856529-0.9585266c0.3856735-0.0259151,0.7104263,0.1092911,0.9702415,0.3886147
		c1.3003006,1.3979244,2.5975113,2.7987232,3.8959656,4.1984406c-0.6177521,0.0702553-0.8680305-0.4793167-1.2787743-0.7583942
		c-0.2055588-0.1596031-0.4110222-0.3192825-0.6164894-0.4789619c-0.031189-0.2790928-0.1830788-0.4340363-0.4665756-0.4536133
		c-0.0516624-0.0022316-0.1033287-0.0044632-0.1549911-0.0066929c-0.0666122-0.3457966-0.181366-0.6430454-0.6194382-0.6142445
		L48.3496056,21.5677853z"/>
	<path style="fill:#9BA693;" d="M36.3973885,25.6506538c0.0880775,0.0068569,0.1761551,0.01371,0.2644424,0.0202065
		c0.1435318,0.2687836,0.3198318,0.4632683,0.6583977,0.2903118c0.4563026-0.0833225,0.7843552,0.2855873,1.2015915,0.3402195
		c0.0930176,0.2546864,0.2973289,0.2602844,0.5174141,0.2305698c1.1388245,0.3679256,2.2723732,0.7536049,3.4193192,1.0941792
		c0.4033623,0.1197739,0.6057816,0.3220577,0.5974388,0.7365036c-0.1013489,0.0157681-0.2026711,0.0315189-0.3040047,0.0472736
		c-1.5333061-0.7660389-3.1901474-1.1834583-4.8102303-1.7045956l-0.0700111-0.0025539l-0.0702133,0.0007038
		c-0.1196938-0.1743965-0.3081474-0.1516743-0.4827042-0.1686954c-0.1563797-0.0969238-0.3127594-0.1938457-0.4690857-0.2908211
		c-0.1534691-0.0053825-0.3069916-0.0107155-0.4605179-0.0160427c0.0019836-0.1489182,0.0039597-0.2978344,0.0058708-0.4468479
		C36.400341,25.7376118,36.4011269,25.6941719,36.3973885,25.6506538z"/>
	<path style="fill:#555748;" d="M5.8081532,24.0797558c-0.4508085-0.1206284-0.6342573-0.6564178-1.1207027-0.7216454
		c-1.0833397-0.6441078-1.4993896-1.6252117-1.4377797-2.8474903c0.2938704,0.0038052,0.189059,0.3644714,0.3977304,0.4445152
		c-0.0252912,0.5393467,0.4747217,0.8834534,0.7168553,1.180191c0.3990998,0.4891033,0.7766757,1.098629,1.377429,1.4276943
		C6.0215583,23.7163219,5.8854051,23.8952541,5.8081532,24.0797558z"/>
	<path style="fill:#737D6A;" d="M37.9417572,26.7053223c1.6200829,0.5211372,3.2769241,0.9385567,4.8102303,1.7045956
		c-0.4147301,0.1514206-0.8294563,0.302845-1.244194,0.4542503c-0.3706284-0.9036846-1.1332245-1.1647949-2.0155945-1.2295551
		l0.0022545,0.0022354c-0.2776489-0.2386036-0.6565475-0.1894093-0.9655457-0.3398361
		C38.2635918,27.16786,37.9463539,27.0923462,37.9417572,26.7053223z"/>
	<path style="fill:#61695B;" d="M39.9458275,18.0588722c0.0254097,0.2579842-0.2156906,0.3704529-0.3081131,0.5640526
		c-0.2970772,0.167635-0.6076508,0.224268-0.9650192,0.1063843c0.4449615,0.0189667,0.2249298-0.471487,0.4896545-0.581501
		c0.1734428,0.0029316,0.358532,0.0508404,0.4844131-0.1269131C39.7464523,18.0335541,39.8461418,18.0462132,39.9458275,18.0588722z
		"/>
	<path style="fill:#859181;" d="M39.6467628,18.020895c-0.1258812,0.1777534-0.3109703,0.1298447-0.4844131,0.1269131
		c-0.1662216-0.2184696-0.5220757-0.0568638-0.6612587-0.3299885C38.891613,17.8346329,39.296711,17.7723179,39.6467628,18.020895z"
		/>
	<path style="fill:#61695B;" d="M12.3306923,23.7555237c-0.0509195,0.9270191-0.6610079,0.566864-1.2169027,0.5583115
		c0.2829237-0.4711666,0.6448393-0.5853024,1.0722723-0.5713902C12.2342939,23.7472706,12.2824669,23.7516804,12.3306923,23.7555237
		z"/>
	<path style="fill:#61695B;" d="M7.3659225,20.9595432c-0.0117421,0.296257,0.0554934,0.6786327-0.4267831,0.6091003
		c-0.6174741-0.0890179-0.2434521-0.6038113-0.3514314-0.9142742c0.1018019,0.0012283,0.2036033,0.0024185,0.3054543,0.0035381
		c0.0149341,0.2020416,0.1178341,0.3054562,0.3261151,0.2907028C7.2682543,20.9509792,7.3171358,20.9546242,7.3659225,20.9595432z"
		/>
	<path style="fill:#737D6A;" d="M29.0901737,31.987196c-0.1023521,0.0007401-0.2047024,0.001482-0.3070469,0.002142
		c-0.0863781-0.1686954-0.336628-0.2279911-0.313345-0.4697762l0.0093002-0.0094013
		C28.7573681,31.5736675,29.0573425,31.6093731,29.0901737,31.987196z"/>
	<path style="fill:#737D6A;" d="M29.7031593,32.3061256c-0.2185783-0.0002327-0.4318237-0.008667-0.4612904-0.2996216
		C29.6758709,31.6745701,29.6414719,32.0643883,29.7031593,32.3061256z"/>
	<path style="fill:#737D6A;" d="M7.2192774,20.9486103c-0.208281,0.0147533-0.3111811-0.0886612-0.3261151-0.2907028
		C7.0954084,20.6498432,7.1977243,20.7539063,7.2192774,20.9486103z"/>
	<path style="fill:#737D6A;" d="M50.2042427,24.6732655c-0.7098656,0.0469093-1.3965988-0.1373253-2.0811806-0.2608624
		c-1.3964882-0.2520084-2.7516098-0.7323074-4.1804047-0.8071861c-0.5645752-0.0295887-0.3418427-0.5494099-0.5687332-0.7786236
		c-0.0002708-0.1560841-0.0005379-0.3121967-0.0008163-0.4683075c0.2157173-0.1680508,0.1500015-0.5411205,0.464283-0.6375217
		c0.0126839,0.0496674,0.01894,0.1403122,0.0390244,0.143486c0.9003372,0.1423321,1.5828667,0.844595,2.4946404,0.9611301
		c0.8437271,0.1078339,1.4534378,0.7404881,2.2292099,1.0286541C49.149437,24.0580196,49.7987442,24.1545944,50.2042427,24.6732655z
		"/>
	<path style="fill:#859181;" d="M37.6726036,18.8303204c-0.5894279,0.1929855-0.9890022,0.0937977-1.566925-0.2829952
		C36.7525406,18.5561523,37.1666641,18.5776825,37.6726036,18.8303204z"/>
	<path style="fill:#859181;" d="M43.8409424,20.0321236c-0.0198631,0.0673485-0.0397224,0.134697-0.0595779,0.2020473
		c-0.0197105-0.0130119-0.0394211-0.0260239-0.0591316-0.0390339c0.0384979-0.0552711,0.0769882-0.1105442,0.1154594-0.1658287
		L43.8409424,20.0321236z"/>
	<path style="fill:#61695B;" d="M28.4697819,31.5195618c-0.023283,0.241785,0.2269669,0.3010807,0.313345,0.4697762
		c-0.5902977,0.4708443-1.0631447-0.1298237-1.5676231-0.2275848c-1.7277489-0.3348026-3.4807777-0.5931282-5.136261-1.2521172
		c-0.5619335-0.2236881-1.1969013-0.0708866-1.8025322-0.3036747c-0.4846859-0.1863003-1.4900322,1.0986462-1.3941612,1.6520615
		c0.0957108,0.5524769,0.1892471,1.1053333,0.2837772,1.6579075c-0.6929836-0.4504128-1.5267029-0.6885338-2.0666199-1.3702888
		c0.4000568-0.0169258,0.6171303-0.0501099,0.5650959-0.6258183c-0.1165638-1.2896671,0.463953-2.4137669,1.1420078-3.4774265
		c0.094099-0.1476154,0.1662254-0.1454506,0.3588276-0.1085987c1.9302692,0.3693199,3.5906219,1.4182796,5.3959084,2.0965443
		C25.866684,30.5206985,27.0596809,31.3060875,28.4697819,31.5195618z"/>
	<path style="fill:#61695B;" d="M5.8081532,24.0797558c0.0772519-0.1845016,0.2134051-0.3634338-0.0664678-0.5167351
		c-0.6007533-0.3290653-0.9783292-0.938591-1.377429-1.4276943c-0.2421336-0.2967377-0.7421465-0.6408443-0.7168553-1.180191
		c0.805032,0.4876041,1.4639866,1.1543198,2.186167,1.7439022c0.9583616,0.7823982,1.4257841,1.9247169,2.2692351,2.7762585
		c0.0557995,0.0563335,0.026165,0.1972904,0.0362682,0.2988873l-0.0027027,0.0037537
		c-0.0966768-0.0079765-0.1933541-0.0159531-0.2900314-0.0239296c-0.0562739-0.0466499-0.1125479-0.093298-0.1688404-0.1399174
		c-0.1189642-0.258009-0.3492684-0.3145676-0.6010976-0.3321819C6.590909,24.9473801,6.1619101,24.553257,5.8081532,24.0797558z"/>
	<path style="fill:#61695B;" d="M9.0891047,26.696909c-0.0993433-0.0591164-0.1986866-0.1182346-0.2981977-0.1772003
		c-0.0645008-0.1419773-0.1288338-0.2841034-0.1931677-0.4262314l0.0083666-0.0103912
		c0.2421722,0.0112057,0.4565783,0.110548,0.6238108,0.2704887C9.4322405,26.5470734,9.3373899,26.6643543,9.0891047,26.696909z"/>
	<path style="fill:#61695B;" d="M8.1390715,25.7741833c0.2290192-0.0079098,0.4540024-0.0097198,0.4670267,0.3089085
		l-0.008256,0.010252C8.382535,26.0782356,8.2261381,25.97686,8.1363688,25.7779369L8.1390715,25.7741833z"/>
	<path style="fill:#737D6A;" d="M36.3973885,25.6506538c0.0037384,0.0435181,0.0029526,0.0869579-0.0022926,0.1304111
		c-0.2702103-0.062273-0.551796-0.107954-0.6426888-0.4349709C36.0217133,25.3325462,36.2424927,25.4217644,36.3973885,25.6506538z"
		/>
	<path style="fill:#737D6A;" d="M36.389225,26.2279129c0.1535263,0.0053272,0.3070488,0.0106602,0.4605179,0.0160427
		c-0.0175819,0.127491-0.0335808,0.2623119-0.1986008,0.2767429C36.44133,26.5390377,36.4085808,26.3865871,36.389225,26.2279129z"
		/>
	<path style="fill:#737D6A;" d="M34.8197823,25.0411682c0.203434-0.0458755,0.3091888,0.0516434,0.3530388,0.2401142
		C34.978241,25.314537,34.8624802,25.2316456,34.8197823,25.0411682z"/>
	<path style="fill:#737D6A;" d="M37.3188286,26.5347767c0.1745567,0.0170212,0.3630104-0.0057011,0.4827042,0.1686954
		C37.6222572,26.7001419,37.4280968,26.7389545,37.3188286,26.5347767z"/>
	<path style="fill:#737D6A;" d="M40.795723,28.5016937c-0.0430336,0.0125542-0.0652084,0.019022-0.0873833,0.0254898
		c-0.0054283-0.0192242-0.0108566-0.0384464-0.0162849-0.0576706C40.7208443,28.4784508,40.74963,28.4873867,40.795723,28.5016937z"
		/>
	<path style="fill:#737D6A;" d="M39.4921989,27.634613c-0.0112648,0.0215969-0.0225258,0.0431919-0.0337868,0.0647888
		c0.0120049-0.0208569,0.0240097-0.0417118,0.0360298-0.062561L39.4921989,27.634613z"/>
	<path style="fill:#737D6A;" d="M23.9625931,20.8352795c0.3816051-0.4295044,0.6769485-0.4955063,1.2886581-0.1792927
		c0.6901779,0.3567791,1.5749493,0.3598423,2.3633785,0.5911751c1.1185493,0.3281879,2.2847137,0.4091835,3.401186,0.8476658
		c0.9758739,0.3832703,2.1012917,0.3786793,3.1563988,0.5689754c1.509552,0.2722569,3.0051727,0.6665077,4.5257568,0.8187408
		c1.2207069,0.1222115,2.3908577,0.4904594,3.6065369,0.5686531c0.3217659,0.0206947,0.4676666,0.3126297,0.7576599,0.3243446
		c-0.0116806,0.6742687-0.0032043,1.3470802,0.1466522,2.0096855c-1.0068436-0.6508598-2.2363815-0.6020927-3.3148079-1.0611553
		c-0.8491631-0.361475-1.7468719-0.6304893-2.6417809-0.8941078c-0.9510384-0.2801495-1.9255943-0.4918442-2.8772583-0.7720547
		c-0.7350311-0.2164249-1.5476494-0.3617764-2.3316917-0.0590324c-2.0199718-0.5580425-3.9940414-1.255827-5.9645901-1.9637375
		C25.369051,21.3802071,24.5565224,21.396183,23.9625931,20.8352795z"/>
	<path style="fill:#61695B;" d="M32.0432816,23.598877c0.7840424-0.3027439,1.5966606-0.1573925,2.3316917,0.0590324
		c0.951664,0.2802105,1.9262199,0.4919052,2.8772583,0.7720547c0.8949089,0.2636185,1.7926178,0.5326328,2.6417809,0.8941078
		c1.0784264,0.4590626,2.3079643,0.4102955,3.3148079,1.0611553c0.2461205,0.7305374,0.1980667,0.8176441-0.5792274,0.5963745
		c-1.4775658-0.4206161-2.9389725-0.8991222-4.4019852-1.3694725C36.1637344,24.9486065,34.104496,24.2706566,32.0432816,23.598877z
		"/>
	<path style="fill:#859181;" d="M50.1726837,26.3556271c0.33638,0.6423035,0.0355072,0.9718761-0.5813408,1.0286274
		c-0.9913406,0.0912037-1.9656181,0.4371929-2.9796753,0.2254086
		C47.7986069,27.1915493,48.9856491,26.7735882,50.1726837,26.3556271z"/>
	<path style="fill:#737D6A;" d="M37.3202286,25.9611721c-0.3385658,0.1729565-0.5148659-0.0215282-0.6583977-0.2903118
		C36.9452362,25.622324,37.1619339,25.7254162,37.3202286,25.9611721z"/>
	<path style="fill:#737D6A;" d="M39.0392342,26.5319614c-0.2200851,0.0297146-0.4243965,0.0241165-0.5174141-0.2305698
		C38.7549706,26.2417717,38.9706726,26.2213631,39.0392342,26.5319614z"/>
	<path style="fill:#859181;" d="M8.1363688,25.7779369c0.0897694,0.1989231,0.2461662,0.3002987,0.4614735,0.3154068
		c0.0642309,0.1422615,0.1285639,0.2843876,0.1930656,0.4263649c-0.3802481-0.1744556-0.9318233-0.1374092-0.9446883-0.7655621
		C7.9430146,25.7619839,8.0396919,25.7699604,8.1363688,25.7779369z"/>
	<path style="fill:#859181;" d="M7.0763993,25.281908c0.2518291,0.0176144,0.4821334,0.074173,0.6010976,0.3321819
		C7.4372983,25.5754509,7.0952253,25.72118,7.0763993,25.281908z"/>
	<path style="fill:#737D6A;" d="M48.9731903,22.1880798c0.0516624,0.0022297,0.1033287,0.0044613,0.15485,0.0067863
		c0.0480499,0.209486,0.0962334,0.4188824,0.144413,0.6282768l-0.0015984,0.0019913
		c-0.6757431-0.1370449-1.2231216-0.417511-1.6386414-1.0306721c-0.4940071-0.7289772-1.5234642-0.8030777-2.067482-1.5116386
		c-0.1486664-0.1936417-0.431633-0.2963676-0.4183083-0.7192841c0.951313,0.4870892,1.6922264,1.1795731,2.5148506,1.7429581
		c0.2196312,0.1504154,0.4036255,0.3158054,0.6882401,0.2614536l0.004097,0.0059776
		C48.3830719,21.9573097,48.586277,22.1653996,48.9731903,22.1880798z"/>
	<path style="fill:#737D6A;" d="M49.5947571,22.648386c0.2054672,0.1596794,0.4109306,0.3193588,0.6164894,0.4789619
		c-0.0402374,0.2281036,0.0241051,0.6451855-0.3974724,0.2952881c-0.2006569-0.1665401-0.5310898-0.2487278-0.5429115-0.5975132
		l0.0015831-0.0019665C49.3798752,22.7649117,49.4873199,22.7066498,49.5947571,22.648386z"/>
	<path style="fill:#859181;" d="M48.9731903,22.1880817c-0.3869133-0.0226822-0.5901184-0.230772-0.6195793-0.6141529
		C48.7918243,21.5450344,48.9065781,21.8422832,48.9731903,22.1880817z"/>
	<path style="fill:#859181;" d="M49.5947571,22.648386c-0.1074371,0.0582638-0.2148819,0.1165257-0.3223114,0.1747704
		c-0.048172-0.2094078-0.0963554-0.4188042-0.1444054-0.6282902C49.4116783,22.2143497,49.5635681,22.3692932,49.5947571,22.648386z
		"/>
</g>
</svg>
