<?xml version="1.0" encoding="utf-8"?>
<!-- Generator: Adobe Illustrator 21.1.0, SVG Export Plug-In . SVG Version: 6.00 Build 0)  -->
<svg version="1.1" id="Слой_1" xmlns="http://www.w3.org/2000/svg" xmlns:xlink="http://www.w3.org/1999/xlink" x="0px" y="0px"
	 viewBox="0 0 55 45" style="enable-background:new 0 0 55 45;" xml:space="preserve">
<g>
	<path style="fill:#F3CB96;" d="M15.1262674,31.5660324c-0.3548317-1.4743233-0.1600666-2.9302349,0.2308521-4.3549976
		c0.8439474-3.0758991,2.2283411-5.9089336,4.0316477-8.5327606c0.3364983-0.4896088,0.3493919-1.1831913,0.9534645-1.4964771
		c0.053875,0.2071838,0.1077461,0.4143353,0.1616096,0.6214924c-0.1301098,0.7733097-0.9364338,1.1543064-1.1052799,1.9051399
		c-0.0041809,0.0549374-0.0083618,0.1098747-0.0125408,0.1648121l0.0076199-0.0108376
		c-0.182024,0.0447426-0.1986885,0.1732635-0.1656532,0.3269634l0.0071716-0.0111046
		c-0.2018414,0.0362167-0.1774521,0.1851082-0.1637058,0.3286991l0.0073223-0.0119858
		c-0.2011108,0.0353374-0.1902752,0.1779976-0.1658535,0.3275375l0.0073147-0.0118866
		c-0.474184,0.4173412-0.7100163,0.9267673-0.6056404,1.5676308c-0.237793,1.664217-1.0218105,3.1531544-1.5702839,4.7123928
		c-0.6210766,1.7656441-1.1558847,3.5100918-0.9847212,5.4036236c-0.0692816,0.0070419-0.1385641,0.0140839-0.2078457,0.0211258
		C15.1341476,32.3225403,15.4164953,31.8159809,15.1262674,31.5660324z M17.7071171,23.3876762
		c0.0837631-0.0924664,0.1573219-0.186058,0.0331783-0.3014107c-0.0387535,0.0780659-0.077507,0.1561298-0.1159821,0.2344265
		c-0.0989571,0.083849-0.166502,0.1732864-0.0525227,0.295042C17.6168995,23.5397148,17.6620083,23.4636955,17.7071171,23.3876762z
		 M16.7382584,25.7434464c0.1627617-0.1225414,0.1354561-0.3103352,0.1636372-0.4791737
		c0.0878868-0.0851612,0.167057-0.1717434,0.0472832-0.2906837c-0.0392399,0.0769691-0.0784779,0.1539402-0.1177177,0.2309132
		c-0.1522465,0.1277618-0.1495171,0.3069801-0.1594067,0.4823151c-0.034214,0.0817833-0.0704117,0.1628685-0.0998096,0.2463474
		c-0.0032177,0.0091362,0.0326691,0.0320396,0.0504189,0.0485573
		C16.6611938,25.9022961,16.6997261,25.8228683,16.7382584,25.7434464z M17.2952728,24.1003761
		c-0.1692467,0.1706066-0.356554,0.3362598-0.1993389,0.6314888c0.2213154-0.1600475,0.2527275-0.362999,0.2725868-0.5711632
		c0.0957985-0.0840969,0.1654873-0.1726685,0.050169-0.292923C17.3775501,23.9453125,17.3364105,24.0228443,17.2952728,24.1003761z
		 M16.4702969,26.2777462c-0.2168331,0.2600651-0.4078541,0.5406227-0.3179321,1.0033665
		C16.4389534,26.9493599,16.503952,26.6357079,16.4702969,26.2777462z"/>
	<path style="fill:#4B412C;" d="M20.5038452,17.8032856c-0.0538673-0.2071533-0.1077385-0.4143047-0.1616135-0.6214886
		c1.5062428-2.0692787,3.0102882-4.1401367,4.5213089-6.2058897c0.2071743-0.2832336,0.4421787-0.5505991,0.8263664-0.6012115
		c0.5413456,0.6344748,0.6862202,2.3089466,0.1479206,3.0263042c0-0.7614136,0-1.3945389,0-2.1798325
		c-0.1161766,0.1825018-0.1304855,0.2043362-0.1441612,0.2265606c-0.2501545,0.4065847-1.0030499,0.7003717-0.2966595,1.3216515
		c-0.597517,0.2090483-0.4968491,0.812973-0.7031651,1.2432756c-0.2175121,0.1515408-0.3089409,0.356842-0.2642403,0.6201878
		c0.0001717,0.0000725,0.0095959,0.0158606,0.0095959,0.0158606c-0.1620178,0.0411882-0.2920895,0.1481028-0.2734966,0.308197
		c0.0199318,0.1716423,0.1506786,0.040863,0.2344646,0.0303802c-0.085638,0.4249487-0.7170849,0.529685-0.6221943,1.0605459
		c-0.6109619,0.8982487-1.2219238,1.7964993-1.8328857,2.6947479c-0.4680901-0.7261868,0.2743073-1.2371387,0.3324623-1.8697548
		c0.3627567-0.3704262,0.5746174-0.8353291,0.8062916-1.2878237c0.148222-0.1045933,0.092741-0.2676544,0.1170502-0.407814
		c0.0908661-0.0519581,0.1700325-0.1340332,0.112833-0.2309084c-0.0948372-0.1606236-0.2062893,0.0041475-0.3116894,0.0126152
		c-0.4917278,0.2683153-1.004034,0.518672-1.0365162,1.1877556C21.4782944,16.6988583,20.9910698,17.2510719,20.5038452,17.8032856z
		"/>
	<path style="fill:#F3CB96;" d="M38.0776825,29.5033436c0.1494446,1.8361797-0.2707481,3.5425091-1.1732635,5.1382732
		c-0.1499443,0.2651215-0.1330719,0.5583534-0.15382,0.8459969c-0.1430626,0.0084953-0.2863922,0.0167465-0.4297218,0.0250015
		c0.2706833-0.9857063,0.5642319-1.9666862,0.6191978-2.9969597c0.1415062-0.0841064,0.1540642-0.2116508,0.1195984-0.3550377
		c0.0526237-0.4152222-0.0207367-0.8190022-0.1109161-1.2212524c0.0958557-0.1053562,0.1917076-0.2107124,0.2876396-0.3161564
		c0.0000801,0.462368,0.0000801,0.9248238,0.0000801,1.3872814c0.0581169-0.0017052,0.1162338-0.0034103,0.1743546-0.0051117
		c0-0.3571777,0-0.7143574,0-1.0715351c0.6629295-0.4104156,0.1688766-1.0540161,0.3160973-1.5683708
		c0.1215897-1.1378574-0.4225159-2.1456757-0.6976662-3.1915321c-0.368969-1.4024582-0.9794693-2.7420368-1.8335266-3.9437408
		l0.0056305,0.0102825c-0.0554352-0.0549622-0.1108704-0.1099243-0.1663055-0.1648846l0.0059547,0.006628
		c0.0091057-0.1821823-0.0049782-0.3564434-0.1643105-0.4810963l0.0057716,0.0087814
		c-0.0545197-0.1084061-0.1090431-0.2168121-0.1635666-0.3252182l0.0061302,0.0090904
		c-0.0548706-0.1071396-0.1097412-0.2142773-0.1646118-0.3214169l0.0032082,0.0042515
		c-0.0567322-0.0532475-0.1134644-0.1064987-0.1701965-0.1597481c-0.2908707-0.8120174-0.6280518-1.5923672-1.4131584-2.0663872
		c-0.1137276-0.2457085-0.227459-0.4914169-0.3411865-0.7371254c-0.0174332-0.1427612-0.1246796-0.1907978-0.2413788-0.2288628
		c-0.0749741-0.0822849-0.1499481-0.1645699-0.2249222-0.2468529c0.0551224-0.3623199-0.1611252-0.5294075-0.458889-0.6378498
		c-0.0595036-0.1631927-0.1190109-0.3263836-0.1785183-0.4895763c-0.002491-0.176506-0.1031475-0.382988,0.1472626-0.4822712
		c0.347517,0.0435896,0.3575878,0.626379,0.8080883,0.5053196c0.0791664,0.3659172,0.2204208,0.6846581,0.6172943,0.8083019
		c0.0775032,0.4389229,0.1323967,0.887085,0.4944954,1.2096996c-0.0032997,0.2059898,0.1081886,0.3169594,0.2995262,0.3618641
		c0.0090446,0.0892868,0.0180931,0.1785736,0.0271339,0.2678432c-0.007679,0.2297363,0.0883446,0.3930588,0.3063812,0.4782143
		l0.0010452,0.0033302c0.0460663,0.1055088,0.0920715,0.2110939,0.1380806,0.3166809
		c0.0099907,0.1323032,0.0547371,0.2447014,0.1786194,0.3117657c0.0024033,0.2005863,0.1143379,0.3086205,0.2997322,0.3545723
		c0.030571,0.2386761,0.1254272,0.4444351,0.3098106,0.6043453c0.0512619,0.237545,0.1360054,0.4575596,0.3261681,0.6223907
		c1.0551987,1.9600296,1.9500504,3.9858437,2.4346504,6.1681633C38.0363388,28.4477863,38.0295219,28.9816685,38.0776825,29.5033436
		z"/>
	<path style="fill:#9B7C61;" d="M24.4294319,14.6327705c-0.0445309-0.2632732,0.0468979-0.4685745,0.2645111-0.6199818
		c0.8477783-0.0676565,0.560461-0.7770462,0.703064-1.2434092c-0.7063904-0.6212797,0.046505-0.9150667,0.2966595-1.3216515
		c0.0136757-0.0222244,0.0279846-0.0440588,0.1441612-0.2265606c0,0.7852936,0,1.4184189,0,2.1798325
		c0.5382996-0.7173576,0.393425-2.3918295-0.1479206-3.0263042c-0.0000305-0.4713383-0.0000305-0.9426899-0.0000305-1.4544563
		c-0.200983,0.0082417-0.396349,0.3867512-0.612442,0.0710135c-0.140934-0.2059183-0.1974735-0.4505157-0.0025082-0.6377411
		c0.2097645-0.201437,0.1880245-0.4126,0.1305485-0.6485996c0.1298409-0.2352643-0.1498108-0.6147513,0.347187-0.8247275
		c0,0.4287672,0,0.7834077,0.0000038,1.1380677c-0.0321045,0.199194-0.0965157,0.454073,0.0640907,0.5704536
		c0.2568874,0.1861506,0.2853107-0.310565,0.5390949-0.2515993c0.0333004,0.4823923,0.1731415,0.9614658,0.0530643,1.4486523
		c-0.0612888,0.2486706,0.1055527,0.3498039,0.2858562,0.3647461c0.2319508,0.0192223,0.1919003-0.217371,0.1858196-0.3378839
		c-0.0114746-0.2274942-0.0911865-0.4507284-0.1297874-0.6779003c-0.0395584-0.2327757-0.1030884-0.4945879,0.2947369-0.4398375
		c0.0086441,0.079505,0.0172882,0.1590099,0.0259304,0.238513c0.0325279,0.0838223,0.0650578,0.1676435,0.0975857,0.2514648
		c0.0916729,0.3362684-0.0533333,0.7937593,0.4664612,0.910759c0.0786953,0.1433086,0.1765785,0.2808123,0.1390076,0.459384
		c-0.6065521-0.2133255-0.9233646-0.0168085-0.9115868,0.6445236c-0.0027962,0.869729,0.0367336,1.7298117,0.5648308,2.4785576
		c0.0331097-0.0042553,0.0574417,0.0083847,0.0729599,0.0377331c-0.0574913,0.1356258-0.1011562,0.3629999-0.3019123,0.2120123
		c-0.5907307-0.4442873-0.5495243,0.0871763-0.6563492,0.4008274c-0.2128677,0.0202169-0.4550991-0.0056982-0.4818974,0.3067904
		c-0.4238281-0.0188951-1.0754356-0.5398016-0.9642582,0.755826C24.7601185,14.8918962,24.7494526,14.6317282,24.4294319,14.6327705
		z"/>
	<path style="fill:#4B412C;" d="M26.6629391,11.1995277c-0.0117779-0.6613321,0.3050346-0.8578491,0.9115868-0.6445236
		c0.7728539,1.2165251,1.8857956,2.1815891,2.5649376,3.4675016c-0.0554066,0.1140232-0.0624809,0.218605,0.0584297,0.2981033
		c0.1620922,0.1233225,0.1338348,0.3085995,0.1554585,0.4776402c-0.1234169,0.0531626-0.2468338,0.1063242-0.3702488,0.1594868
		l-0.002882,0.0143404c0.0077782-0.5717611-0.4751091-0.6705046-0.8458252-0.8773823
		c-0.010025-0.0408039-0.02005-0.0816059-0.0300732-0.1224089c0.0085258,0.0403376,0.0170536,0.0806751,0.0255814,0.1210117
		L29.098938,14.10849c-0.1511192-0.0121183-0.1682491,0.0379562-0.0664768,0.1432209l-0.002739,0.019187
		c-0.1045017,0.0994349-0.0852966,0.1575441,0.0581741,0.1741419l0.0296688,0.0064068
		c-0.0282784,0.226634-0.0565529,0.453269-0.0848312,0.679903c-0.4602661-0.5432367-1.1796837-0.7958298-1.582058-1.4064922
		c-0.0164833-0.0250149-0.0984497-0.0068817-0.1499081-0.008852c-0.0155563-0.0295353-0.0398884-0.0421753-0.0730648-0.0378408
		C27.4578915,12.7566662,26.943222,12.0047951,26.6629391,11.1995277z"/>
	<path style="fill:#4B412C;" d="M25.0871716,6.4214845c-0.0025387-0.0525537-0.0254307-0.1155543-0.0046062-0.1561141
		c0.3905544-0.7607856,0.5171757-1.5770121,0.5426464-2.4212816c0.020998-0.6959105,0.659441-0.4425192,1.0053329-0.5633349
		c0.3939972-0.13762,0.5524445,0.2965624,0.5532627,0.5960548c0.0031109,1.1414347,0.7039871,2.1810851,0.4393482,3.3694263
		c-0.07514,0.3373985-0.1260033,0.7399001,0.1938133,1.1086884c0.2829037,0.3262205-0.2000141,0.4219475-0.3681583,0.6048937
		c-0.1077881-0.1493406-0.1270714-0.4153824-0.4209995-0.3192863c-0.0280285-0.0455399-0.0409012-0.0950232-0.03862-0.1484489
		c0.1732941-0.0032291,0.3364639-0.0623369,0.3262501-0.2544346c-0.0435562-0.81919,0.0128365-1.633297,0.2012157-2.6524844
		c-0.5190105,0.9320607-1.1443272,1.0762715-1.6921024,0.5286827c-0.3311043-0.3309889-0.4052143-0.2145758-0.4403839,0.1626015
		C25.3668194,6.462564,25.2159214,6.4328427,25.0871716,6.4214845z"/>
	<path style="fill:#F6F6F4;" d="M25.0871716,6.4214845c0.1287498,0.0113583,0.2796478,0.0410795,0.296999-0.1450377
		c0.0351696-0.3771772,0.1092796-0.4935904,0.4403839-0.1626015c0.5477753,0.5475888,1.1730919,0.403378,1.6921024-0.5286827
		c-0.1883793,1.0191875-0.244772,1.8332944-0.2012157,2.6524844c0.0102139,0.1920977-0.152956,0.2512054-0.3263836,0.2544746
		c-0.0052986-0.056056-0.0104599-0.1121521-0.015625-0.1682482c-0.0346165-0.1784773,0.0634518-0.4364729-0.3035927-0.3820658
		c-0.368084,0.0545602-0.7444439,0.0532494-1.117178,0.0764256c0-0.354641,0-0.7092814,0-1.1380486
		c-0.4969978,0.2099762-0.2173462,0.5894632-0.347187,0.8247275c-0.4404507-0.1374459-0.3122406-0.4704041-0.2047901-0.7327127
		C25.0781116,6.7831793,25.197464,6.6294827,25.0871716,6.4214845z"/>
	<path style="fill:#9B7C61;" d="M29.9831028,14.957736c0.123415-0.0531626,0.2468319-0.1063242,0.3702259-0.1594238
		c0.0871563-0.0000038,0.1743317-0.0000696,0.2615051-0.0001364c0.3001442-0.0320969,0.3090115,0.4103546,0.6111164,0.3750544
		c0.1589775,0.1978207,0.3179398,0.3956747,0.4769039,0.5935268c-0.0064354,0.0536423-0.0128651,0.1072845-0.0197506,0.1610584
		c-0.250864,0.099412-0.1502075,0.3058939-0.1477661,0.4822798c-0.4213314-0.1344585-0.3582954-0.8387003-0.9326668-0.7928476
		l0.0002785-0.0124321c-0.0021915-0.1288185,0.0557327-0.3353043-0.1911659-0.1479616
		c-0.2059631-0.0280218-0.3509102-0.1377745-0.4370651-0.3262825C29.9775124,15.0729599,29.9803085,15.0153475,29.9831028,14.957736
		z"/>
	<path style="fill:#DCDCDC;" d="M27.0278111,8.6405315c0.2939281-0.096097,0.3132114,0.1699448,0.4209995,0.3192854
		c-0.004425,0.3785982-0.0088482,0.7571974-0.0132847,1.1357994c-0.5198021-0.1169958-0.3747959-0.5744867-0.4665852-0.911334
		c-0.0325642-0.0840149-0.0650177-0.16745-0.0974693-0.250885c-0.0086422-0.079504-0.0172863-0.159009-0.0258884-0.2389984
		C26.9063511,8.6761208,26.967083,8.6583261,27.0278111,8.6405315z"/>
	<path style="fill:#9B7C61;" d="M30.393343,14.1868935c-0.0650578,0.0445957-0.1301174,0.0891924-0.1953144,0.1337519
		c-0.1210461-0.0795345-0.1139717-0.1841164-0.0585651-0.2981396C30.2240906,14.077323,30.3087177,14.1321077,30.393343,14.1868935z
		"/>
	<path style="fill:#9B7C61;" d="M18.2692127,38.2047005c-0.0026855-0.102478-0.005373-0.2049522-0.007988-0.3074074
		c0.2563248-0.2608299,0.4840012-0.3529892,0.9031544-0.2176628c0.4207611,0.1358452,0.676302,0.393959,0.9234695,0.6787758
		c1.0064068,1.1597366,1.9398708,2.1449051,3.7552834,2.2549477c1.3956699,0.0845985,2.774704,0.2611809,4.1819687,0.1201897
		c1.7372723-0.174057,3.2780437-0.7416954,4.4810104-2.0611115c0.0292664,0.2227669,0.1100235,0.3757744,0.3371277,0.1697998
		c0.2901001-0.2631035,0.4752426-0.6020317,0.6207047-0.9626427c0.8403168-0.0239258,1.40131-0.4972382,1.8310509-1.1609993
		c0.131916-0.2037621,0.2319031-0.4168129,0.5185318-0.412735c-0.0017242,0.2663651-0.1501884,0.4932556,0.0673027,0.8018417
		c0.6092033,0.864357,0.2643814,2.2019653-0.6908417,2.7290039c-0.5449333,0.3006668-1.1329498,0.5943642-1.7357368,0.7049751
		c-1.4715919,0.2700348-2.9412956,0.5721626-4.4406433,0.6825867c-0.4247742,0.0312843-0.8779793,0.0470123-1.2524719,0.3191566
		c-2.9040565,0.15448-5.6678143-0.2278214-8.041708-2.1018028C19.2360229,39.0293083,18.7526188,38.6170044,18.2692127,38.2047005z"
		/>
	<path style="fill:#DE862F;" d="M15.7595911,32.4942703c-0.1711636-1.893528,0.3636446-3.6379757,0.9847212-5.4036198
		c0.5484734-1.5592384,1.3324909-3.0481758,1.5701714-4.7123375c0.2529964-0.3290081,0.5335064-0.6426296,0.6051769-1.0739498
		c0.3791447,0.0423355,0.4367695-0.2503204,0.5738697-0.5040588c0.2355709-0.4359798,0.3275776-1.0090885,0.9432011-1.1346951
		l0.0584698,0.0426636c-0.1384754,0.7032757-0.6261654,1.2304535-0.9253407,1.8483047
		c-1.3506527,2.7893448-2.4853153,5.661356-3.0247898,8.735136c-0.1664753,0.1306248-0.1174374,0.3270397-0.1625462,0.4977112
		c-0.1914883,0.7245026-0.0283642,1.4943161-0.2937756,2.2069168
		C15.9790297,32.8289833,15.8693113,32.6616287,15.7595911,32.4942703z"/>
	<path style="fill:#F8BE5A;" d="M20.4363136,19.665369c-0.6152058,0.1258469-0.7072124,0.6989555-0.9427834,1.1349354
		c-0.1371002,0.2537384-0.194725,0.5463943-0.5738735,0.5039005c0.0001869-0.1646328,0.0003834-0.3291054,0.0005798-0.493578
		l-0.0073242,0.0118752c0.1403751-0.0660858,0.1526413-0.1970482,0.165863-0.3275261l-0.0073338,0.0119724
		c0.1215191-0.0762177,0.1720028-0.1878128,0.1637173-0.3286858l-0.0071774,0.011095
		c0.1570778-0.0573769,0.1711254-0.1872196,0.165659-0.3269539l-0.0076256,0.0108242
		c0.1287861-0.0454502,0.1310654-0.100523,0.0125465-0.1647987c0.1688461-0.7508335,0.9751701-1.1318302,1.1052799-1.9051399
		c0.4872284-0.5522175,0.974453-1.1044312,1.4616318-1.6568775c0.4004822-0.1320438,0.6718826-0.5211926,1.1183662-0.5614157
		c-0.2316742,0.4524946-0.4435349,0.9173975-0.8065529,1.2879305C21.291132,17.5583763,20.7698689,18.5500031,20.4363136,19.665369z
		"/>
	<path style="fill:#9B7C61;" d="M15.7595911,32.4942741c0.1097202,0.1673546,0.2194386,0.3347092,0.3289995,0.5019112
		c0.0305328,0.7687035,0.5666199,1.4459991,0.4073849,2.2492714c-0.6770868-0.7847595-0.673358-1.8048325-0.9439363-2.7301254
		C15.621027,32.508358,15.6903095,32.5013161,15.7595911,32.4942741z"/>
	<path style="fill:#9A591D;" d="M18.9202366,20.810627c-0.0001965,0.1644726-0.0003929,0.3289452-0.0005798,0.493578
		c-0.0716667,0.4314785-0.3521767,0.7451-0.6051731,1.0741081C18.2102203,21.7373943,18.4460526,21.2279682,18.9202366,20.810627z"
		/>
	<path style="fill:#DE862F;" d="M16.4702969,26.2777462c0.0336552,0.3579617-0.0313435,0.6716137-0.3179321,1.0033665
		C16.0624428,26.8183689,16.2534637,26.5378113,16.4702969,26.2777462z"/>
	<path style="fill:#9B7C61;" d="M17.3688602,24.1609859c-0.0201988,0.20788-0.0516109,0.4108315-0.2729263,0.570879
		c-0.1572151-0.295229,0.0300922-0.4608822,0.1993389-0.6314888C17.3201599,24.1201439,17.3446884,24.1403484,17.3688602,24.1609859
		z"/>
	<path style="fill:#DE862F;" d="M16.6714897,25.6863232c0.0104542-0.1748409,0.0077248-0.3540592,0.1599712-0.4818211
		c0.0219707,0.0221252,0.0456982,0.0421638,0.0711861,0.0601234c-0.0289326,0.1684856-0.001627,0.3562794-0.1643887,0.4788208
		C16.7159367,25.7244835,16.6936798,25.7054424,16.6714897,25.6863232z"/>
	<path style="fill:#DE862F;" d="M16.7382584,25.7434464c-0.0385323,0.079422-0.0770645,0.1588497-0.1155949,0.2382755
		c-0.0177498-0.0165176-0.0536366-0.0394211-0.0504189-0.0485573c0.029398-0.0834789,0.0655956-0.1645641,0.0995274-0.2465954
		C16.6936798,25.7054424,16.7159367,25.7244835,16.7382584,25.7434464z"/>
	<path style="fill:#9B7C61;" d="M16.831459,25.2045021c0.0392418-0.076973,0.0784798-0.153944,0.1177197-0.2309132
		c0.1197739,0.1189404,0.0406036,0.2055225-0.0469074,0.2908611C16.8771591,25.246666,16.8534317,25.2266273,16.831459,25.2045021z"
		/>
	<path style="fill:#9A591D;" d="M19.0787754,20.494976c-0.0132217,0.1304779-0.0254879,0.2614403-0.165863,0.3275261
		C18.8885002,20.6729736,18.8776646,20.5303135,19.0787754,20.494976z"/>
	<path style="fill:#9A591D;" d="M19.3936405,19.8624039c0.0054665,0.1397343-0.0085812,0.269577-0.165659,0.3269539
		C19.194952,20.0356674,19.2116165,19.9071465,19.3936405,19.8624039z"/>
	<path style="fill:#9B7C61;" d="M17.6240349,23.3204613c0.0387535-0.0780659,0.077507-0.1561298,0.1162605-0.2341957
		c0.1241436,0.1153526,0.0505848,0.2089443-0.0331783,0.3014107C17.6787853,23.3660603,17.6510925,23.3436546,17.6240349,23.3204613
		z"/>
	<path style="fill:#9B7C61;" d="M17.7071171,23.3876762c-0.0451088,0.0760193-0.0902176,0.1520386-0.1353264,0.2280579
		c-0.1139793-0.1217556-0.0464344-0.2111931,0.0523853-0.2951565
		C17.6510925,23.3436546,17.6787853,23.3660603,17.7071171,23.3876762z"/>
	<path style="fill:#9B7C61;" d="M17.2952728,24.1003761c0.0411377-0.0775318,0.0822773-0.1550636,0.1234169-0.2325974
		c0.1153183,0.1202545,0.0456295,0.2088261-0.0499973,0.2930641C17.3446884,24.1403484,17.3201599,24.1201439,17.2952728,24.1003761
		z"/>
	<path style="fill:#9A591D;" d="M19.2351589,20.1782627c0.0082855,0.140873-0.0421982,0.2524681-0.1637173,0.3286858
		C19.0577068,20.3633709,19.0333176,20.2144794,19.2351589,20.1782627z"/>
	<path style="fill:#9A591D;" d="M19.3985615,19.7084293c0.1185188,0.0642757,0.1162395,0.1193485-0.0125465,0.1647987
		C19.3901997,19.8183041,19.3943806,19.7633667,19.3985615,19.7084293z"/>
	<path style="fill:#B45A0B;" d="M21.9450855,18.7425747c0.6109619-0.8982487,1.2219238-1.7964993,1.8332272-2.6944637
		c0.5068817,0.1347389,0.4815369,0.5804653,0.4990635,0.9479408c0.0285072,0.5979176-0.0164452,1.1993351-0.0303936,1.7992764
		c-0.4475536-0.1986008-0.2971783-0.5833092-0.2128067-0.8785496c0.1277428-0.4470062,0.0130825-0.7783699-0.3368874-1.2059898
		c-0.0412502,0.7781219-0.7518806,1.0851574-0.8368282,1.732832c-0.6080723,0.6087379-0.2216587,1.369297-0.3139954,2.0567684
		c-0.0010757,0.156395-0.0021515,0.3127899-0.0032234,0.469183c-0.3234234,0.0712833-0.4054394,0.2211132-0.1558075,0.4788551
		c0.0289993,0.2299404-0.0457401,0.4335651-0.1591492,0.6273804c-0.5265732,0.4181061-0.5050564,0.9992027-0.4710464,1.584013
		c-0.0013313,0.1571541-0.0026627,0.3143101-0.003994,0.4714642c-0.5773659,0.4681091-0.412365,1.1326733-0.4606724,1.7407894
		c-0.0013733,0.1066837-0.0027485,0.2133675-0.0041256,0.3200531c-0.2189617,0.1775551-0.3039341,0.4173527-0.3135662,0.6889629
		c-0.0563545,1.5895309-0.2444859,3.1745682-0.1601467,4.7689495c0.0327168,0.6185493,0.316433,1.1487885,0.6019974,1.6725082
		c0.1168575,0.2143173,0.3414593,0.3408318,0.6023636,0.2619629c0.2701683-0.081665,0.2093811-0.3296776,0.2128544-0.5294609
		c0.0068264-0.3923721-0.0003662-0.7849884-0.0017586-1.1775036c0.0490303-0.3226299,0.0980625-0.6452579,0.1470928-0.9678879
		c-0.0108624-1.0605984,0.2424431-2.0934677,0.3300056-3.1437359c0.3373947,0.7526226,0.2934418,1.5954647,0.0998421,2.2997055
		c-0.4133492,1.5035801,0.45298,2.7778511,0.5049019,4.1783791c0.000246,0.0066452,0.0468884,0.0115662,0.1956997,0.0456848
		c0-0.6054573,0-1.1880875,0-1.7707214c0.3319054-0.0371666,0.4706383,0.1306229,0.6561432,0.4131012
		c0.5736179,0.8734932,0.5248566,2.0426903,1.3417969,2.7815628c0.4679565,0.4232407,0.3496647,1.2717171,1.0202122,1.4899635
		c0.3791332,0.123394,0.6442127,0.3076515,0.8882999,0.5916634c0.1848869,0.2151337,2.082304,0.3308105,2.1803017,0.1068497
		c0.2254906-0.5153198,0.5073433-0.644455,0.9678574-0.3130608c0.3386631,0.2437057,0.9322262,0.1538353,0.9961777,0.7580299
		c-0.3268375,0.6684303-0.7117462,0.1195679-1.0062428-0.0025749c-0.4581738-0.190033-0.795393-0.2644539-1.019865,0.2787476
		c-0.0274105,0.0663376-0.067524,0.2890778-0.1361942,0.1697083c-0.3421745-0.5948029-0.7841644-0.1619186-1.1097183-0.0801849
		c-0.8383102,0.2104607-1.4087086-0.0502892-1.8896503-0.7233047c-0.6104145-0.8541946-1.3044796-1.6406975-2.070631-2.3617096
		c-0.1783276-0.16782-0.3589439-0.3290787-0.6231422-0.2367439c-0.2705193,0.0945435-0.1785946,0.3442459-0.1999874,0.5412483
		c-0.0139236,0.1282005-0.0179253,0.2574768-0.0285988,0.4202003c-0.9391899-0.2617493-0.8019943-1.1979332-1.2367039-1.9431381
		c0,0.3769264-0.0008373,0.5858421,0.0002098,0.7947464c0.0013542,0.2702789-0.0214729,0.5723076-0.2764759,0.6907463
		c-0.243206,0.1129608-0.4737053-0.1445503-0.5964355-0.2923393c-0.8967838-1.0798836-1.8652821-2.1379852-1.8148365-3.6871014
		c0.0113831-0.3494358-0.0565567-0.635622-0.4773636-0.6765022c-0.1142178-0.5681667,0.4489136-1.0097866,0.2964039-1.5851936
		c0.0017319-0.1004829,0.0034618-0.2009697,0.0051937-0.3014526c0.3276806-0.7093525,0.5100384-1.45961,0.6271896-2.2282219
		c0.0107956-0.6677971,0.544754-1.1992626,0.4909229-1.8838997c0.2472229-0.4474583,0.333889-0.9472771,0.4670029-1.4319496
		c0.0082493-0.2584457,0.0164948-0.5168915,0.0247402-0.7753372c0.58951-0.4938068,0.4706459-1.1670322,0.4096737-1.8381538
		c-0.2458324,0.5576897-0.491663,1.1153812-0.7374916,1.673069c-0.2633896,0.817522-0.5450745,1.6296844-0.7863445,2.4536819
		c-0.4968586,1.6968842-1.0931759,3.3700199-1.2820129,5.1439915c-0.2026997,0.5549183-0.2909889,1.1299191-0.3016319,1.7185478
		c-0.2968864,0.0755653-0.45397-0.1338272-0.6282654-0.3081913c0.0706139-0.5653019,0.0950699-1.1410866,0.2202053-1.694088
		c0.4589958-2.0283623,1.0050526-4.0343246,1.6864033-6.0006561c0.1135864-0.3278046,0.1770306-0.6523304,0.1447887-0.9961681
		l-0.0031433,0.005209c0.5417671-0.4606495,0.6595268-1.0758343,0.6351967-1.7428074l-0.0029716,0.0045891
		c0.4387627-0.205946,0.313942-0.6003914,0.3182907-0.9516335l-0.0016994,0.0023155
		c0.4373016-0.2847176,0.5856724-0.7700138,0.7566128-1.2080441C21.526001,19.0022316,21.5988331,18.7682934,21.9450855,18.7425747z
		"/>
	<path style="fill:#9A591D;" d="M24.2469826,18.7953281c0.0139484-0.5999413,0.0589008-1.2013588,0.0303936-1.7992764
		c-0.0175266-0.3674755,0.0078182-0.8132019-0.4990635-0.9479408c-0.095232-0.5311451,0.5362148-0.6358814,0.6224098-1.0610428
		c0.0131969-0.1129303,0.0258369-0.225647,0.038475-0.3383646c0,0-0.0094242-0.0157881-0.0095959-0.0158606
		c0.3198509-0.0011148,0.3305168,0.2590532,0.466711,0.7584314c-0.1111774-1.2956276,0.5404301-0.7747211,0.9643497-0.7556419
		c-0.0088749,0.4779577,0.3011551,0.6371832,0.8189793,0.7951937c-0.2188988-0.4214754-0.0769501-0.8058643-0.3371735-1.1021681
		c0.1068249-0.3136511,0.0656185-0.8451147,0.6563492-0.4008274c0.2007561,0.1509876,0.244421-0.0763865,0.3019123-0.2120104
		c0.0514965,0.0021553,0.1334629-0.0159779,0.1499462,0.009037c0.4023743,0.6106625,1.1217918,0.8632555,1.5820465,1.4064817
		l-0.0045338-0.0059776c0.0084248,0.3386326-0.2486687,0.3202448-0.4701691,0.3497133
		c-0.4602451-0.1406889-0.7493515-0.5055571-1.2039299-0.950181c-0.1111336,1.5634184,0.616972,2.8497534,0.7560482,4.2263689
		c-0.6498127,0.5479431-0.7134933-0.1617966-0.9721889-0.4530811c-0.0099831-0.0539417-0.0199642-0.1078815-0.0299454-0.1618233
		c0.0082035-0.6086235-0.0653286-1.1861553-0.6036415-1.5868874c-0.1418457-0.2224979-0.286068-0.4983692-0.5869141-0.4429874
		c-0.3010426,0.0554199-0.3299236,0.3745861-0.3958263,0.6242313c-0.2067051,0.7829971-0.4068756,1.5677185-0.6095772,2.3517723
		C24.6545334,19.0697327,24.3576183,19.148241,24.2469826,18.7953281z"/>
	<path style="fill:#DE862F;" d="M21.9450855,18.7425747c-0.3462524,0.0257187-0.4190845,0.2596569-0.5331364,0.5519104
		c-0.1709404,0.4380302-0.3193111,0.9233265-0.7566109,1.2080421c-0.1850243-0.2382183,0.4547672-0.6427536-0.1601582-0.7942829
		l-0.0584488-0.042635c0.3331375-1.1156063,0.8544006-2.107233,1.8405552-2.7926826
		C22.2193928,17.5054359,21.4769955,18.0163879,21.9450855,18.7425747z"/>
	<path style="fill:#9A591D;" d="M23.0838394,15.5849962c-0.4464836,0.0402231-0.7178841,0.4293718-1.1183662,0.5614157
		c0.032526-0.6688509,0.5448322-0.9192076,1.036562-1.1874723c0.066288,0.0727816,0.1325703,0.1455116,0.1988544,0.2182417
		C23.1765804,15.3173418,23.2320614,15.4804029,23.0838394,15.5849962z"/>
	<path style="fill:#9B7C61;" d="M24.4391975,14.6487036c-0.0126381,0.1127176-0.0252781,0.2254343-0.038475,0.3383646
		c-0.084343,0.0106955-0.2150898,0.1414747-0.2350216-0.0301676C24.1471081,14.7968063,24.2771797,14.6898918,24.4391975,14.6487036
		z"/>
	<path style="fill:#F3CB96;" d="M23.2008896,15.1771812c-0.0662842-0.0727301-0.1325665-0.1454601-0.1988544-0.2182417
		c0.1053982-0.0085182,0.2168503-0.1732893,0.3116875-0.0126657C23.3709221,15.043149,23.2917557,15.1252241,23.2008896,15.1771812z
		"/>
	<path style="fill:#DE862F;" d="M36.3208771,35.5126152c-0.1665077,0.1173897-0.1692543,0.2917671-0.1633835,0.4692421
		c-0.114727,0.1080399-0.2293472,0.2160187-0.3439674,0.3239975c-0.2866287-0.0040779-0.3866158,0.2089729-0.5185318,0.412735
		c-0.4297409,0.6637611-0.9907341,1.1370735-1.8311577,1.1610222c-0.0248337-0.200737-0.0942345-0.3089981-0.2625237-0.0985489
		c-0.1887741,0.2360611-0.2050018,0.5988617-0.536087,0.7319069c-0.0371857-0.2164078,0.0714836-0.4729233-0.1736412-0.632103
		c0.0544777-0.4480057-0.0520592-0.9023705,0.2448311-1.3363724c0.2145691-0.3136597-0.049778-0.5116653-0.3888359-0.554409
		c0.0014-0.420887,0.0027847-0.8417168,0.0041733-1.2625504c0.4778328,0.0783195,0.6767693-0.2889938,0.8110352-0.606308
		c0.3722038-0.8796196,1.0293236-0.8884926,1.805069-0.7121925c0.9000511,0.2045479,1.0480614,0.087841,1.182457-0.8078461
		c0.0187912-0.1252098,0.0680237-0.2474289,0.1143646-0.3666801c0.33144-0.8529167,0.2838249-1.7108498,0.0403061-2.5722809
		c-0.0024643-0.104414-0.0049324-0.2088318-0.0074005-0.3132477c0.0640602-0.0027847,0.1281204-0.0055695,0.1921806-0.0083523
		c0.4118576,0.4585953,0.107811,1.1227226,0.458992,1.5987377c0.0901794,0.4022503,0.1635399,0.8060303,0.1111717,1.2215462
		c-0.1886024,0.0680122-0.3802299,0.1347923-0.119854,0.354744C36.8851089,33.545929,36.5915604,34.5269089,36.3208771,35.5126152z"
		/>
	<path style="fill:#F8BE5A;" d="M36.9487572,30.9393654c-0.351181-0.4760151-0.0471344-1.1401424-0.4593468-1.5986481
		c-0.0363274-0.2595081-0.0581436-0.5219975-0.1104813-0.7782516c-0.4928246-2.4130688-1.5973816-4.5958977-2.5630913-6.8326302
		c-0.3822823-0.8854332-0.9843292-1.6766853-1.1483574-2.6559277c0.1041451,0.0542488,0.2082977,0.1084957,0.3124428,0.1627445
		l0.0013847,0.0016289c0.4198265,1.1078186,0.9656754,2.1526356,1.5811653,3.1626358l-0.0042877-0.0057888
		c0.0268593,0.2525978,0.1171913,0.4733257,0.3201218,0.6375122l-0.0036659-0.0058937
		c0.0059357,0.1308594,0.0250473,0.2551003,0.1610565,0.3206253l-0.0022545-0.0034771
		c-0.0043335,0.1357918,0.0297165,0.2523193,0.1606979,0.3202019l-0.0032768-0.0041943
		c0.5280952,1.4768219,1.0561905,2.9536438,1.5842781,4.4304638l-0.0052795-0.0090942
		c0.1554794,0.8473434,0.3109665,1.694685,0.4664497,2.5420246C37.1404648,30.728653,37.0446129,30.8340092,36.9487572,30.9393654z"
		/>
	<path style="fill:#DE862F;" d="M35.1957359,22.2301998c0.8540573,1.201704,1.4645576,2.5412827,1.8335266,3.9437408
		c0.2751503,1.0458565,0.8192558,2.0536747,0.6976051,3.1913433c-0.275486-0.1361313-0.2485619-0.4093456-0.3338127-0.650425
		c-0.3157768-0.8930378-0.368309-1.8795261-0.936348-2.6831131L36.456604,26.03158
		c-0.1535301-0.8558311-0.4396172-1.6586189-0.9491463-2.3719978l0.0025597,0.0032673
		C35.5589066,23.1515923,35.0750504,22.757206,35.1957359,22.2301998z"/>
	<path style="fill:#F8BE5A;" d="M35.1957359,22.2301998c-0.1206856,0.5270061,0.3631706,0.9213924,0.3142776,1.4326496
		c-0.1063843-0.0009842-0.2127686-0.0019665-0.3191528-0.0029488l0.0032768,0.0041866
		c0.0003777-0.133812-0.0092316-0.2625961-0.1606941-0.3201923l0.0022583,0.0034733
		c0.0072403-0.1374817-0.0161552-0.259573-0.1610603-0.3206215l0.0036697,0.0058823
		c-0.0210838-0.2555065,0.0967827-0.5807762-0.3201256-0.6375008c0,0,0.0042877,0.0057888,0.0042877,0.0057678
		c-0.0170937-0.9615841-0.6790199-1.6605988-1.026886-2.4869404c-0.1093178-0.2596931-0.1494789-0.6343727-0.5542793-0.6756744
		l-0.0013847-0.0016251c0.0001221-0.1620541,0.0002365-0.3241138,0.0003548-0.4861736
		c0.7851105,0.47402,1.1222916,1.2543697,1.4132767,2.0663948c0.0567741,0.0532532,0.1134262,0.1064968,0.1700821,0.1597404
		l-0.0032043-0.0042286c0.0133591,0.1284103,0.0247841,0.2577839,0.164608,0.321394l-0.0061264-0.0090561
		c0.0036201,0.1340237,0.0231705,0.2599983,0.1635628,0.3251839l-0.0057716-0.0087433
		c0.0104218,0.1755276-0.0400505,0.3718166,0.1643105,0.4810581l-0.0059319-0.0066376
		c0.0554428,0.0549603,0.1108627,0.1099281,0.1662827,0.1648941L35.1957359,22.2301998z"/>
	<path style="fill:#F8BE5A;" d="M36.456707,26.0317459c0.5680389,0.803587,0.6205711,1.7900753,0.936348,2.6831131
		c0.0852509,0.2410793,0.0583267,0.5142937,0.3338127,0.650425c-0.1471596,0.5145435,0.3468933,1.158144-0.3161049,1.5685158
		c-0.0529442-0.9869804-0.0299759-1.9909573-0.6408997-2.8525276l0.0052795,0.0090675
		C36.918293,27.3655605,36.4093132,26.7416859,36.456707,26.0317459z"/>
	<path style="fill:#DE862F;" d="M36.7698631,28.0812721c0.6109238,0.8615704,0.5879555,1.8655472,0.6408997,2.8525276
		c0.0000687,0.3572216,0.0000687,0.7144012,0.0000687,1.071579c-0.0581207,0.0017014-0.1162376,0.0034065-0.1743546,0.0051117
		c0-0.4624577,0-0.9249134-0.0000839-1.3872814C37.0808296,29.7759571,36.9253426,28.9286156,36.7698631,28.0812721z"/>
	<path style="fill:#DE862F;" d="M32.9802818,18.7504826c-0.0001221,0.1620598-0.0002365,0.3241196-0.0003586,0.4861736
		c-0.1041451-0.0542526-0.2082977-0.1084995-0.3124657-0.1626949l0.0017014,0.0051956
		c-0.0538673-0.0537071-0.1077347-0.1074162-0.161602-0.1611233c-0.4898758-0.2180195-0.4941444-0.6501026-0.4805145-1.0900726
		c0.0485802-0.0967731,0.097168-0.1935482,0.145752-0.2903194c0.0749741,0.082283,0.1499481,0.1645679,0.2246323,0.2470341
		c0.002346,0.1589584,0.1222191,0.1935959,0.2416687,0.2286816C32.7528229,18.2590656,32.8665543,18.5047741,32.9802818,18.7504826z
		"/>
	<path style="fill:#F8BE5A;" d="M32.1727943,17.5376415c-0.048584,0.0967712-0.0971718,0.1935463-0.1456985,0.2901497
		c-0.6077347-0.1962795-0.8181763-0.6909084-0.9403152-1.2518768c0.2024288,0.1207657,0.3358707,0.3751049,0.6271248,0.3238773
		C32.0116692,17.008234,32.2279167,17.1753216,32.1727943,17.5376415z"/>
	<path style="fill:#9A591D;" d="M31.7139053,16.8997917c-0.291254,0.0512276-0.424696-0.2031116-0.6271458-0.3240471
		l0.0011635-0.024292c-0.0517521-0.0567207-0.1035061-0.1134377-0.1552582-0.1701584
		c-0.0528297-0.0513477-0.1056595-0.1026974-0.1584892-0.1540451c-0.1299114-0.1828499-0.2043495-0.3813057-0.1716137-0.6099186
		c0.5744801-0.0459356,0.5114441,0.6583061,0.9327755,0.7927647C31.5948944,16.5734081,31.6544018,16.736599,31.7139053,16.8997917z
		"/>
	<path style="fill:#F8BE5A;" d="M36.9400749,32.5156555c-0.260376-0.2199516-0.0687485-0.2867317,0.119854-0.354744
		C37.0941391,32.3040047,37.0815811,32.4315491,36.9400749,32.5156555z"/>
	<path style="fill:#DE862F;" d="M35.0410156,22.0822258c-0.204361-0.1092415-0.1538887-0.3055305-0.1643105-0.4810581
		C35.0360374,21.7257824,35.0501213,21.9000435,35.0410156,22.0822258z"/>
	<path style="fill:#DE862F;" d="M34.7250404,21.2937832c-0.1398239-0.0636101-0.1512489-0.1929836-0.164608-0.321394
		C34.6152992,21.0795059,34.6701698,21.1866436,34.7250404,21.2937832z"/>
	<path style="fill:#DE862F;" d="M34.8824768,21.609911c-0.1403923-0.0651855-0.1599426-0.1911602-0.1635628-0.3251839
		C34.7734337,21.3930988,34.8279572,21.5015049,34.8824768,21.609911z"/>
	<path style="fill:#F8BE5A;" d="M32.6390915,18.0133591c-0.1194458-0.0350876-0.2393188-0.069725-0.2416649-0.2286835
		C32.5144157,17.8225594,32.6216621,17.8705959,32.6390915,18.0133591z"/>
	<path style="fill:#DE862F;" d="M35.2013664,22.2404823c-0.0554199-0.054966-0.1108398-0.1099339-0.1662827-0.1648941
		C35.0904961,22.130558,35.1459312,22.1855202,35.2013664,22.2404823z"/>
	<path style="fill:#DE862F;" d="M34.5636368,20.9766178c-0.0566559-0.0532436-0.113308-0.1064873-0.1700821-0.1597404
		C34.4501724,20.8701191,34.5069046,20.9233704,34.5636368,20.9766178z"/>
	<path style="fill:#F3CB96;" d="M27.0278111,8.6405315c-0.0607281,0.0177946-0.12146,0.0355892-0.1822281,0.0538673
		c-0.3978672-0.054266-0.3343372,0.2075462-0.2947788,0.4403219c0.0386009,0.2271719,0.1183128,0.4504061,0.1297874,0.6779003
		c0.0060806,0.120513,0.0461311,0.3571062-0.1858196,0.3378839c-0.1803036-0.0149422-0.3471451-0.1160755-0.2858562-0.3647461
		c0.1200771-0.4871864-0.0197639-0.96626-0.0528812-1.4485874c0.2725906-0.0043888,0.5449924-0.0088434,0.8173981-0.013298
		c0.0051651,0.0560961,0.0103264,0.1121922,0.015625,0.1682482C26.9869099,8.5455074,26.9997826,8.5949907,27.0278111,8.6405315z"/>
	<path style="fill:#DCDCDC;" d="M26.9734325,8.3238735c-0.2724056,0.0044546-0.5448074,0.0089092-0.8173981,0.013298
		c-0.2539673-0.0590305-0.2823906,0.437685-0.539278,0.2515345c-0.1606064-0.1163807-0.0961952-0.3712597-0.0640907-0.5704536
		c0.3727303-0.0231953,0.7490902-0.0218844,1.1171741-0.0764446C27.0368843,7.8874006,26.9388161,8.1453962,26.9734325,8.3238735z"
		/>
	<path style="fill:#B45A0B;" d="M26.3424683,14.3286581c0.2602234,0.2963037,0.1182747,0.6806927,0.3371735,1.1021681
		c-0.5178242-0.1580105-0.8278542-0.3172359-0.8189793-0.7951937C25.8873692,14.3229599,26.1296005,14.348875,26.3424683,14.3286581
		z"/>
	<path style="fill:#F3CB96;" d="M26.8714714,8.9333963c0.0324516,0.083436,0.0649052,0.1668711,0.0974693,0.250885
		C26.9365292,9.1010399,26.9039993,9.0172186,26.8714714,8.9333963z"/>
	<path style="fill:#9A591D;" d="M29.9831028,14.957736c-0.0027943,0.0576115-0.0055904,0.1152239-0.0083466,0.1728249
		c-0.4395638,0.7803164,0.126524,1.3156481,0.4645901,1.9064665l0.0030823-0.0037937
		c-0.0060539,0.5647392,0.4248581,0.9995193,0.4614582,1.5515728l-0.0116901-0.0037117
		c-0.6376057-0.0477943-1.0597496-0.6381798-1.2341633-1.7260208c-0.0600224-0.6311703-0.3162575-1.1908951-0.6298447-1.7297354
		l0.0045338,0.0060005c0.0282898-0.2266235,0.0565643-0.4532585,0.0845413-0.6798773
		c0.2931442,0.1641045,0.4566174,0.5437231,0.862957,0.5206146L29.9831028,14.957736z"/>
	<path style="fill:#F3CB96;" d="M29.9802208,14.9720764c-0.4063396,0.0231085-0.5698128-0.3565102-0.862957-0.5206146
		c0.0003014-0.0000153-0.0293674-0.006422-0.0293674-0.006422c-0.0201435-0.057539-0.0391617-0.11584-0.0581741-0.1741419
		c0,0,0.002739-0.019187,0.0008926-0.0189295c0.0215454-0.0476532,0.0449352-0.0955658,0.0683231-0.1434784l0.0304794-0.0153961
		c-0.0004864-0.000205,0.0049763,0.0016003,0.0049763,0.0016003C29.5051117,14.3015718,29.987999,14.4003153,29.9802208,14.9720764z
		"/>
	<path style="fill:#9A591D;" d="M29.1343956,14.0946941c0,0-0.0054646-0.0018053-0.0049782-0.0016003
		c-0.0080414-0.0401335-0.0165691-0.080471-0.025095-0.1208086C29.1143456,14.0130882,29.1243706,14.0538902,29.1343956,14.0946941z
		"/>
	<path style="fill:#9A591D;" d="M29.0297222,14.2708979c0.0190125,0.0583019,0.0380306,0.1166029,0.0576096,0.1745234
		C28.9444256,14.428442,28.9252205,14.3703327,29.0297222,14.2708979z"/>
	<path style="fill:#9A591D;" d="M29.098938,14.10849c-0.0233879,0.0479126-0.0467777,0.0958252-0.0683231,0.1434784
		C28.9306889,14.1464462,28.9478188,14.0963717,29.098938,14.10849z"/>
	<path style="fill:#9A591D;" d="M32.4914131,37.880867c0.2452965,0.1591797,0.1366272,0.4156952,0.1738129,0.632103
		l-0.0016289,0.0018921c-0.0520096,0.052002-0.1040154,0.1040039-0.1560249,0.1560097l-0.001461,0.0015602
		c-1.2029667,1.319416-2.7437382,1.8870544-4.4810104,2.0611115c-1.4072647,0.1409912-2.7862988-0.0355911-4.1819687-0.1201897
		c-1.8154125-0.1100426-2.7488766-1.095211-3.7552834-2.2549477c-0.2471676-0.2848167-0.5027084-0.5429306-0.9234695-0.6787758
		c-0.4191532-0.1353264-0.6468296-0.0431671-0.9031544,0.2176628c-0.6332588-0.5587769-1.0101795-1.3042984-1.4565811-1.9992409
		c0.0828667-0.2244377,0.0259361-0.3676071-0.2292576-0.395668c-0.0263023-0.085762-0.0526028-0.1715202-0.0791588-0.257103
		c0.1589832-0.8030968-0.3771038-1.4803925-0.4076366-2.2490959c0.2655697-0.7124443,0.1024456-1.4822578,0.2939339-2.2067604
		c0.0451088-0.1706715-0.0039291-0.3670864,0.1625729-0.497633c0.2785301,0.4392071,0.0733662,0.9337082,0.1554146,1.3976631
		c0.0494766,0.2797775,0.1497097,0.5206547,0.4157677,0.5862637c0.2809372,0.0692825,0.1780834-0.3327465,0.3806019-0.4009037
		c0.0538101,0.000309,0.1076183,0.0006161,0.1614285,0.0009251c0.1742516,0.1743927,0.3313351,0.3837852,0.6282139,0.3083458
		c0.0844479,0.7367744-0.3742733,1.4853706,0.0958557,2.2341957c0.1028557-0.3522987,0.5854378-0.4531174,0.5382462-0.9373932
		c-0.0732861-0.7520905,0.0431175-1.4984837,0.1522198-2.2420998c0.4208469,0.0409698,0.4887867,0.3271561,0.4774036,0.6765919
		c-0.0504456,1.5491161,0.9180527,2.6072178,1.8148365,3.6871014c0.1227303,0.147789,0.3532295,0.4053001,0.5964355,0.2923393
		c0.255003-0.1184387,0.2778301-0.4204674,0.2764759-0.6907463c-0.0010471-0.2089043-0.0002098-0.41782-0.0002098-0.7947464
		c0.4347095,0.7452049,0.297514,1.6813889,1.2367039,1.9431381c0.0106735-0.1627235,0.0146751-0.2919998,0.0285988-0.4202003
		c0.0213928-0.1970024-0.0705318-0.4467049,0.1999874-0.5412483c0.2641983-0.0923347,0.4448147,0.068924,0.6231422,0.2367439
		c0.7661514,0.7210121,1.4602165,1.507515,2.070631,2.3617096c0.4809418,0.6730156,1.0513401,0.9337654,1.8896503,0.7233047
		c0.3255539-0.0817337,0.7675438-0.5146179,1.1097183,0.0801849c0.0686703,0.1193695,0.1087837-0.1033707,0.1361942-0.1697083
		c0.224472-0.5432014,0.5616913-0.4687805,1.019865-0.2787476c0.2944965,0.1221428,0.6794052,0.6710052,1.0062523,0.0026817
		C31.8694954,38.1918182,32.1804543,38.0363426,32.4914131,37.880867z"/>
	<path style="fill:#9B7C61;" d="M16.575386,35.5023842c0.2551937,0.0280609,0.3121243,0.1712303,0.2292576,0.395668
		C16.6306362,35.8226624,16.5314274,35.7039146,16.575386,35.5023842z"/>
	<path style="fill:#DE862F;" d="M30.4392529,17.0371113c-0.3379726-0.5909023-0.9040604-1.1262341-0.4644966-1.9065504
		c0.0861168,0.1885185,0.2310638,0.2982712,0.4373093,0.3263311c0.0638161,0.0493345,0.1273499,0.098628,0.1908836,0.1479235
		l-0.0002785,0.0124321c-0.0328445,0.2286959,0.0415936,0.4271517,0.1714745,0.6100836
		C30.3906384,16.384882,30.4686909,16.7332249,30.4392529,17.0371113z"/>
	<path style="fill:#9A591D;" d="M30.6029491,15.6048155c-0.0635338-0.0492954-0.1270676-0.0985889-0.1908836-0.1479235
		C30.6586819,15.2695112,30.6007576,15.475997,30.6029491,15.6048155z"/>
	<path style="fill:#B4B1AE;" d="M35.8135262,36.3058548c0.1146202-0.1079788,0.2292404-0.2159576,0.3439674-0.3239975
		c0.3388557,0.396389,0.6792107,0.7914886,1.0160446,1.1895676c0.7842674,0.9268646,0.6523132,1.8518867-0.3291664,2.5824585
		c-1.4500694,1.0793762-3.1362,1.4989471-4.8727512,1.7601089c-1.1866703,0.1784592-2.3817959,0.3156281-3.5855408,0.3194084
		c-0.2416344,0.0007591-0.5554543,0.1026726-0.6248932-0.2901459c0.3744411-0.2719803,0.8276463-0.2877083,1.2524204-0.3189926
		c1.4993477-0.110424,2.9690514-0.4125519,4.4406433-0.6825867c0.602787-0.110611,1.1908035-0.4043083,1.7357368-0.7049751
		c0.9552231-0.5270386,1.300045-1.8646469,0.6908417-2.7290039C35.6633377,36.7991104,35.8118019,36.5722198,35.8135262,36.3058548z
		"/>
	<path style="fill:#9A591D;" d="M32.665226,38.51297c0.3310852-0.1330452,0.3473129-0.4958458,0.536087-0.7319069
		c0.1682892-0.2104492,0.23769-0.1021881,0.2625237,0.0985489c-0.1453552,0.3605881-0.3304977,0.6995163-0.6205978,0.9626198
		c-0.2271042,0.2059746-0.3078613,0.0529671-0.3371277-0.1697998l0.001461-0.0015564
		c0.0520058-0.052002,0.1040154-0.1040077,0.1560287-0.1560135L32.665226,38.51297z"/>
	<path style="fill:#B45A0B;" d="M17.4968815,31.874815c-0.2025185,0.0681572-0.0996647,0.4701862-0.3806019,0.4009037
		c-0.266058-0.065609-0.366291-0.3064861-0.4157677-0.5862637c-0.0820484-0.4639549,0.1231155-0.958456-0.1554146-1.3976631
		c0.5394478-3.0738583,1.6741104-5.9458694,3.0247631-8.7352142c0.2991753-0.6178513,0.7868652-1.1450291,0.9253407-1.8483047
		c0.6149044,0.1515007-0.0248871,0.556036,0.1601372,0.7942543l0.0016994-0.0023098
		c-0.3039188,0.251049-0.3323593,0.5942307-0.3182926,0.9516296l0.0029736-0.0045834
		c-0.4533901,0.4928589-0.4780731,1.1419659-0.6351986,1.7428017l0.003149-0.0051994
		C18.6192398,25.9916763,17.7397652,28.8521957,17.4968815,31.874815z"/>
	<path style="fill:#DF6A03;" d="M24.2469826,18.7953281c0.1106358,0.3529129,0.4075508,0.2744045,0.6651669,0.2870979
		c-0.0282078,0.478075-0.6157265,0.6278648-0.6214504,1.1608562c-0.0130386,1.2140884-0.0735893,2.4295139-0.166647,3.6404152
		c-0.1098213,1.4290123-0.3435211,2.8515682-0.390173,4.2812729c-0.0299683,0.9184799-0.4409904,1.8326283-0.0790062,2.760519
		c0.0190945,0.5374527,0.0219402,1.0734043-0.1471405,1.5934811c0,0.582634,0,1.1652641,0,1.7707214
		c-0.1488113-0.0341187-0.1954536-0.0390396-0.1956997-0.0456848c-0.0519218-1.400528-0.918251-2.674799-0.5049019-4.1783791
		c0.1935997-0.7042408,0.2375526-1.5470829-0.0998077-2.2996655c0.2615719-2.7030964,0.804039-5.3802032,0.8059139-8.1125526
		c-0.2815666,1.4668388-1.0938816,2.7889595-0.9894123,4.3552933c0.0733204,1.0992737-0.0576344,2.2119331-0.2192287,3.3250694
		c-0.1691017,1.1648464-0.2180595,2.3900146,0.0726871,3.5758858c-0.0490303,0.3226299-0.0980625,0.6452579-0.1470242,0.9678936
		c-0.5426655-0.0904446-0.696682-0.5042858-0.7804546-0.9607716c-0.2241306-1.2213173-0.2502689-2.4421482-0.0357323-3.6727066
		c0.0593739-0.3405552,0.1638031-0.7324352-0.1256256-1.0519466c0.0013771-0.1066856,0.0027523-0.2133694,0.004076-0.3200264
		c0.5321598-0.4800396,0.3981991-1.1364307,0.460722-1.7408161c0.0013313-0.1571541,0.0026627-0.3143101,0.0040455-0.4714279
		c0.4085236-0.4532261,0.4337463-1.0204239,0.4709949-1.5840492c0.113409-0.1938152,0.1881485-0.39744,0.1592216-0.6273556
		c0.1936989-0.1135406,0.1602402-0.3009148,0.155735-0.4788799c0.0010719-0.1563931,0.0021477-0.312788,0.0032806-0.4691563
		c0.4948273-0.6260452,0.2735195-1.3613911,0.3139381-2.0567951c0.0849476-0.6476746,0.795578-0.95471,0.8368282-1.732832
		c0.3499699,0.4276199,0.4646301,0.7589836,0.3368874,1.2059898C23.9498043,18.212019,23.7994289,18.5967274,24.2469826,18.7953281z
		"/>
	<path style="fill:#CD6A0F;" d="M23.5077324,32.5189705c0.1690807-0.5200768,0.166235-1.0560284,0.1471767-1.5934258
		c0.0045872-0.5825443,0.251545-1.1425037,0.161993-1.7338963c0.6021919-0.0893764,0.7099342,0.1714287,0.8314877,0.7637005
		c0.2292576,1.1170635-0.2061501,2.293335,0.4373627,3.377533c0.3644886,0.61409,0.4758091,1.3747215,0.7387867,2.0547981
		c0.093008,0.2405281,0.1439285,0.6416893,0.5395527,0.5542145c0.4409733-0.0975037,0.8124294,0.0847054,1.2135429,0.1665611
		c0.6051388,0.1234894,1.0688305,0.0321274,0.977562-0.7578545c0.0017395-0.1561432,0.0034828-0.3122864,0.0051823-0.4684639
		c0.0502396-0.0001526,0.1005154,0.0003357,0.1507854,0.0014381c0.0244732,0.6199417,0.5239468,1.2776756,0.9549179,1.2574883
		c0.510334-0.0023041,1.0191441-0.0356598,1.4825077,0.267643c0.5256023,0.3440399,0.5994511,0.0219154,0.5661831-0.4188461
		c0.2109318,0.0000916,0.4218616,0.0001831,0.6327915,0.0002747c0.3390732,0.0426941,0.6034203,0.2406998,0.3888512,0.5543594
		c-0.2968903,0.4340019-0.1903534,0.8883667-0.2448311,1.3363724c-0.3111305,0.1554756-0.6220894,0.3109512-0.933054,0.46632
		c-0.063961-0.6043015-0.6575241-0.514431-0.9961872-0.7581367c-0.4605141-0.3313942-0.7423668-0.2022591-0.9678574,0.3130608
		c-0.0979977,0.2239609-1.9954147,0.108284-2.1803017-0.1068497c-0.2440872-0.2840118-0.5091667-0.4682693-0.8882999-0.5916634
		c-0.6705475-0.2182465-0.5522556-1.0667229-1.0202122-1.4899635c-0.8169403-0.7388725-0.7681789-1.9080696-1.3417969-2.7815628
		C23.9783707,32.6495934,23.8396378,32.4818039,23.5077324,32.5189705z"/>
	<path style="fill:#F87C05;" d="M22.3772831,30.9096584c-0.2907467-1.1858711-0.2417889-2.4110394-0.0726871-3.5758858
		c0.1615944-1.1131363,0.2925491-2.2257957,0.2192287-3.3250694c-0.1044693-1.5663338,0.7078457-2.8884544,0.9894123-4.3552933
		c-0.0018749,2.7323494-0.544342,5.4094563-0.8059139,8.1125526C22.6197262,28.8161907,22.3664207,29.8490601,22.3772831,30.9096584
		z"/>
	<path style="fill:#CD6A0F;" d="M21.2884464,26.1921272c0.2894287,0.3195114,0.1849995,0.7113914,0.1256256,1.0519466
		c-0.2145367,1.2305584-0.1883984,2.4513893,0.0357323,3.6727066c0.0837727,0.4564857,0.2377892,0.870327,0.7804546,0.9607716
		c0.0013237,0.3925095,0.0085163,0.7851257,0.0016899,1.1774979c-0.0034733,0.1997833,0.0573139,0.4477959-0.2128544,0.5294609
		c-0.2609043,0.0788689-0.4855061-0.0476456-0.6023636-0.2619629c-0.2855644-0.5237198-0.5692806-1.0539589-0.6019974-1.6725082
		c-0.0843391-1.5943813,0.1037922-3.1794186,0.1601467-4.7689495
		C20.9845123,26.6094799,21.0694847,26.3696823,21.2884464,26.1921272z"/>
	<path style="fill:#DE862F;" d="M19.3744831,29.352232c-0.0017319,0.1004829-0.0034618,0.2009697-0.0049496,0.3015423
		c-0.339386,0.0463123-0.4473553,0.2638988-0.4540939,0.5800591c-0.0042286,0.1982574-0.0074978,0.4540462-0.3272762,0.2315788
		c0.1888371-1.7739716,0.7851543-3.4471073,1.2820129-5.1439915c0.2412701-0.8239975,0.5229549-1.6361599,0.7863369-2.4536362
		c0.1357651,0.0024071,0.2538013,0.0399952,0.3278255,0.1650391c-0.0082455,0.2584457-0.0164909,0.5168915-0.0246086,0.775444
		c-0.3918629,0.4002514-0.7661667,0.8061733-0.4671345,1.4318428c0.0538311,0.6846371-0.4801273,1.2161026-0.4906845,1.8840046
		c-0.6725979,0.5319023-0.5050297,1.4195843-0.8690529,2.0835419C19.1311588,29.2107601,19.2904015,29.3021011,19.3744831,29.352232
		z"/>
	<path style="fill:#CD6A0F;" d="M18.5881634,30.4654121c0.3197784,0.2224674,0.3230476-0.0333214,0.3272762-0.2315788
		c0.0067387-0.3161602,0.1147079-0.5337467,0.4540939-0.5800591c0.1522655,0.5753174-0.4108658,1.0169373-0.296648,1.585104
		c-0.1091423,0.7435265-0.2255459,1.4899197-0.1522598,2.2420101c0.0471916,0.4842758-0.4353905,0.5850945-0.5382462,0.9373932
		c-0.470129-0.7488251-0.0114079-1.4974213-0.0958557-2.2341957C18.2971745,31.5953312,18.3854637,31.0203304,18.5881634,30.4654121
		z"/>
	<path style="fill:#DE862F;" d="M17.4968815,31.874815c0.2428837-3.0226192,1.1223583-5.8831387,2.2127876-8.689949
		c0.0322361,0.3438282-0.031208,0.668354-0.1447945,0.9961586c-0.6813507,1.9663315-1.2274075,3.9722939-1.6864033,6.0006561
		c-0.1251354,0.5530014-0.1495914,1.1287861-0.2202053,1.694088C17.6044998,31.8754311,17.5506916,31.875124,17.4968815,31.874815z"
		/>
	<path style="fill:#CD6A0F;" d="M20.9843388,23.0328236c-0.0740242-0.1250439-0.1920605-0.162632-0.3278255-0.1650391
		c0.2458363-0.5577335,0.4916668-1.1154251,0.7374992-1.6731148C21.4549847,21.8657913,21.5738487,22.5390167,20.9843388,23.0328236
		z"/>
	<path style="fill:#CD6A0F;" d="M19.3744831,29.352232c-0.0840816-0.0501308-0.2433243-0.1414719-0.2416248-0.1445751
		c0.3640232-0.6639576,0.196455-1.5516396,0.8690529-2.0835419C19.8845215,27.892622,19.7021637,28.6428795,19.3744831,29.352232z"
		/>
	<path style="fill:#CD6A0F;" d="M22.8604603,18.4436207c-0.0404186,0.6954041,0.1808891,1.4307499-0.3139381,2.0567951
		C22.6388016,19.8129177,22.252388,19.0523586,22.8604603,18.4436207z"/>
	<path style="fill:#CD6A0F;" d="M21.7532425,24.1312847c-0.062521,0.6043854,0.0714397,1.2607765-0.4607201,1.7408161
		C21.3408794,25.263958,21.1758785,24.5993938,21.7532425,24.1312847z"/>
	<path style="fill:#CD6A0F;" d="M22.2282848,22.0758076c-0.0372486,0.5636253-0.0624714,1.1308231-0.4709949,1.5840492
		C21.7232285,23.0750103,21.7017117,22.4939137,22.2282848,22.0758076z"/>
	<path style="fill:#DE862F;" d="M19.7065201,23.1900654c0.1571255-0.6008358,0.1818085-1.2499428,0.6351986-1.7428017
		C20.3660469,22.1142311,20.2482872,22.7294159,19.7065201,23.1900654z"/>
	<path style="fill:#CD6A0F;" d="M20.4925957,25.2401104c-0.2990322-0.6256695,0.0752716-1.0315914,0.4671345-1.4318428
		C20.8264847,24.2928333,20.7398186,24.7926521,20.4925957,25.2401104z"/>
	<path style="fill:#DE862F;" d="M20.3387451,21.4518471c-0.0140667-0.357399,0.0143738-0.7005806,0.3182926-0.9516296
		C20.6526871,20.8514557,20.7775078,21.2459011,20.3387451,21.4518471z"/>
	<path style="fill:#CD6A0F;" d="M22.5432415,20.9695721c0.0045052,0.1779652,0.0379639,0.3653393-0.155735,0.4788799
		C22.1378021,21.1906853,22.2198181,21.0408554,22.5432415,20.9695721z"/>
	<path style="fill:#F87C05;" d="M28.5604229,34.8821716c-0.0017433,0.1561432-0.0034866,0.3122864-0.0052128,0.4684677
		c-0.4143829,0.1495361-0.999155,0.1982727-1.158577-0.1222839c-0.4176922-0.8398399-1.1682987-1.5034332-1.3498917-2.4562302
		c-0.4161358-2.183424-0.5314217-4.4005756-0.6365948-6.6128502c-0.0747299-1.5718937-0.0156155-3.1501408-0.0167904-4.7255516
		c-0.0001583-0.2136211,0.0013199-0.491354-0.2388687-0.5230064c-0.3208408-0.0422802-0.2364883,0.2959251-0.2678699,0.4667187
		c-0.1409378,0.7671585-0.2621822,1.5386524-0.3646393,2.3120174c-0.2428436,1.8330288-0.4709892,3.6680069-0.7050762,5.5021954
		c0.0895519,0.5913925-0.1574059,1.1513519-0.161993,1.7338963c-0.3620205-0.9279461,0.0490017-1.8420944,0.07897-2.7605743
		c0.0466518-1.4297047,0.2803516-2.8522606,0.390173-4.2812729c0.0930576-1.2109013,0.1536083-2.4263268,0.166647-3.6404152
		c0.005724-0.5329914,0.5932426-0.6827812,0.6214504-1.1608562c0.2025967-0.7839928,0.4027672-1.5687141,0.6094723-2.3517113
		c0.0659027-0.2496452,0.0947838-0.5688114,0.3958263-0.6242313c0.3008461-0.0553818,0.4450684,0.2204895,0.586895,0.4430046
		c0.0550957,0.3668175,0.1102066,0.7336159,0.1653175,1.1004162c-0.1904545,0.1137371-0.163105,0.3030758-0.1671352,0.4815197
		l-0.0001926,0.0001755c-0.3338585,0.1859493-0.5359459,0.5232639-0.4501686,0.8459911
		c0.1756649,0.6609287-0.0149651,1.2941132-0.0409641,1.9326687c-0.0631313,1.5503654,0.263607,3.0679169,0.3083782,4.600296
		c0.0515556,1.764576,0.0117035,3.5392418,0.5287533,5.2355938c0.2522488,0.8275795,0.3191891,1.9269695,1.551178,2.0794849
		c-0.0004196,0.3691444-0.0008278,0.7382889-0.0012321,1.1074295c-0.0206909,0.0146561-0.061142,0.0364265-0.0588436,0.0428085
		c0.0142002,0.0394554,0.0380268,0.0754356,0.0586548,0.1125755C28.4409866,34.3553162,28.2944126,34.6609344,28.5604229,34.8821716
		z"/>
	<path style="fill:#FB8C03;" d="M28.3995209,32.825634c-1.2320004-0.1525154-1.2989407-1.2519054-1.5511894-2.0794849
		c-0.5170498-1.696352-0.4771976-3.4710178-0.5287533-5.2355938c-0.0447712-1.5323792-0.3715096-3.0499306-0.3083782-4.600296
		c0.0259991-0.6385555,0.216629-1.27174,0.0409641-1.9326687c-0.0857773-0.3227272,0.1163101-0.6600418,0.4501686-0.845993
		c0.0221977,0.0121002,0.0443916,0.0242004,0.0665874,0.0362988c-0.0221329-0.0121555-0.0442619-0.0243149-0.0663948-0.0364723
		c0.0040302-0.1784439-0.0233192-0.3677826,0.1670341-0.4814339c0.1460819,0.162178,0.2922649,0.3242741,0.4384441,0.4863682
		c0.0099812,0.0539417,0.0199623,0.1078815,0.0298996,0.1617069c-0.071064,0.6388073,0.1143723,1.2551403,0.16572,1.8833199
		c0.2065258,1.8674088,0.4513836,3.7315292,0.6101589,5.6029549C28.1126461,28.1283016,28.2408314,30.4782619,28.3995209,32.825634z
		"/>
	<path style="fill:#DE862F;" d="M28.1101379,18.7512627c-0.1390762-1.3766155-0.8671818-2.6629505-0.7560482-4.2263689
		c0.4545784,0.4446239,0.7436848,0.8094921,1.2037239,0.949872c0.0552711,0.2270403,0.3482208,0.3205423,0.3316345,0.5885067
		l-0.0321007,0.0285416c-0.3231411-0.1469002-0.6462822-0.2938023-1.0932655-0.4970026
		c0.2650547,0.9078608,0.154808,1.7848711,0.6216202,2.5419569c-0.0432739,0.3119297,0.1458683,0.6625805-0.1551991,0.9315605
		C28.1903801,18.9626408,28.150259,18.8569527,28.1101379,18.7512627z"/>
	<path style="fill:#4B412C;" d="M28.8894749,16.0632591c0.0165596-0.267951-0.2763901-0.3614531-0.3316612-0.5884933
		c0.2217064-0.0291595,0.4787998-0.0107718,0.4703751-0.3494043c0.3135872,0.5388174,0.5698223,1.0985422,0.6299038,1.7297621
		C29.2530174,16.7357445,29.2349033,16.2406464,28.8894749,16.0632591z"/>
	<path style="fill:#CD6A0F;" d="M28.1101379,18.7512627c0.0401211,0.10569,0.0802422,0.2113781,0.1204395,0.3171654
		c-0.4610558,0.2314873-0.9970322,0.4103031-0.7834702,1.1156292c-0.0477753-0.000248-0.0955734-0.0011635-0.143362-0.0027199
		c-0.0514698-0.6281319-0.2369061-1.2444649-0.1658421-1.8832722
		C27.3966446,18.5894661,27.4603252,19.2992058,28.1101379,18.7512627z"/>
	<path style="fill:#CD6A0F;" d="M27.1080036,18.1363583c-0.1461792-0.1620941-0.2923622-0.3241901-0.4384441-0.4863682
		c-0.0550098-0.3668861-0.1101208-0.7336845-0.1652164-1.100502C27.042675,16.9502029,27.1162071,17.5277348,27.1080036,18.1363583z
		"/>
	<path style="fill:#FA9407;" d="M27.4470711,20.1840343c-0.2135258-0.7053032,0.3224506-0.884119,0.7835064-1.1156063
		c0.300993-0.2690792,0.1118507-0.61973,0.1552601-0.9317131c0.6062164-0.1450653,0.3023243-0.8210144,0.6512775-1.1160526
		c0.6346073,0.7099876,1.010767,1.5824146,1.5174866,2.4008484c0.0430069-0.3156567,0.3958073-0.4891815,0.337595-0.840416
		c0,0,0.0116901,0.0037117,0.0119171,0.0038395c0.3753395-0.6746349,0.0341797-1.1361923-0.4616852-1.5517006l-0.0030823,0.0037937
		c0.0293446-0.3038025-0.048708-0.6521454,0.3347988-0.8096962c0.0528603,0.0512657,0.10569,0.1026154,0.1584854,0.1540527
		c0.0517406,0.0567493,0.1035175,0.113409,0.1552925,0.1700668l-0.0011635,0.0242939
		c0.12216,0.5611382,0.3326015,1.0557671,0.9403362,1.2520466c-0.0136833,0.4401398-0.0094147,0.8722229,0.4804726,1.0902538
		c0.0538712,0.0537148,0.1077309,0.1074123,0.1615906,0.1611118l-0.0017014-0.0051956
		c0.1640511,0.9791889,0.766098,1.7704411,1.1483803,2.6558743c0.9657097,2.2367325,2.0702667,4.4195614,2.5630913,6.8326302
		c0.0523376,0.2562542,0.0741539,0.5187435,0.1104813,0.7782516c-0.0637054,0.0026932-0.1277657,0.0054779-0.1918144,0.0082741
		c-0.610363-1.806591-0.9737625-3.7014103-1.9205399-5.3876133c-0.1180038-0.210165-0.1596031-0.632967-0.4686813-0.497654
		c-0.2808723,0.122963-0.2072258,0.5526066-0.0491982,0.7705688c0.9173126,1.2652302,0.9069633,2.7778187,1.1639671,4.2170353
		c0.0366249,0.2051086,0.1376266,0.5615196-0.1269112,0.6322041c-0.3190536,0.0852489-0.5083466-0.2456989-0.6041031-0.5024376
		c-0.1169815-0.3136559-0.1500053-0.6603794-0.2045441-0.9952106c-0.1119995-0.6875725-0.3695259-1.3237324-0.6773567-2.1928959
		c-0.4284744,1.0863533,0.4435005,1.9191704,0.0817757,2.8033028c-0.3189201-0.1949425-0.2993546-0.4644966-0.3643723-0.7143307
		c-0.2502556-0.9616318-0.4901772-1.9297066-0.8187294-2.8656197c-0.1629982-0.4643078-0.4470062-0.8784199-0.4436283-1.4028111
		c0.0012951-0.2012463,0.1436787-0.5695305-0.2117405-0.5601387c-0.2792625,0.0073795-0.2395935,0.3507252-0.2537041,0.5851402
		c-0.0750866,1.2474709,0.5999088,2.3740826,0.5724564,3.6173477c-0.017992,0.8147774,0.4905128,1.5549393,0.3756866,2.391468
		c-0.021595,0.1573505-0.0156975,0.3228817-0.2063103,0.3813572c-0.1337204,0.0410233-0.3258133,0.0327797-0.3490391-0.0880527
		c-0.2138271-1.1123161-1.0320358-1.9977474-1.1781731-3.1270847c-0.1943645-1.5020618-0.7212467-2.9086533-1.1984501-4.3301983
		c-0.049099-0.1462593-0.1383247-0.3094769-0.3329906-0.2773228c-0.1995983,0.0329666-0.1875267,0.2130928-0.2111511,0.3702621
		c-0.0537949,0.3579025,0.1322422,0.760891-0.1474571,1.0917511c-0.7336693-0.7827282-0.3131332-1.8711891-0.7910709-2.7199192
		c-0.2745762,0.2223949-0.0538559,0.5766563-0.3188076,0.7427979
		C27.5450554,20.9240303,27.7506962,20.5155277,27.4470711,20.1840343z"/>
	<path style="fill:#FB8C03;" d="M27.6145897,21.2909317c0.2648849-0.1661358,0.0441647-0.5203972,0.3187408-0.7427921
		c0.4779377,0.8487301,0.0574017,1.937191,0.7910709,2.7199192c0.2796993-0.3308601,0.0936623-0.7338486,0.1474571-1.0917511
		c0.0236244-0.1571693,0.0115528-0.3372955,0.2111511-0.3702621c0.1946659-0.0321541,0.2838917,0.1310635,0.3329906,0.2773228
		c0.4772034,1.421545,1.0040855,2.8281364,1.1984501,4.3301983c0.1461372,1.1293373,0.9643459,2.0147686,1.1781731,3.1270847
		c0.0232258,0.1208324,0.2153187,0.129076,0.3490391,0.0880527c0.1906128-0.0584755,0.1847153-0.2240067,0.2063103-0.3813572
		c0.1148262-0.8365288-0.3936787-1.5766907-0.3756866-2.391468c0.0274525-1.2432652-0.647543-2.3698769-0.5724564-3.6173477
		c0.0141106-0.2344151-0.0255585-0.5777607,0.2537041-0.5851402c0.3554192-0.0093918,0.2130356,0.3588924,0.2117405,0.5601387
		c-0.0033779,0.5243912,0.2806301,0.9385033,0.4436283,1.4028111c0.3285522,0.9359131,0.5684738,1.9039879,0.8187294,2.8656197
		c0.0650177,0.2498341,0.0454521,0.5193882,0.3643723,0.7143307c0.3617249-0.8841324-0.5102501-1.7169495-0.0817757-2.8033028
		c0.3078308,0.8691635,0.5653572,1.5053234,0.6773567,2.1928959c0.0545387,0.3348312,0.0875626,0.6815548,0.2045441,0.9952106
		c0.0957565,0.2567387,0.2850494,0.5876865,0.6041031,0.5024376c0.2645378-0.0706844,0.1635361-0.4270954,0.1269112-0.6322041
		c-0.2570038-1.4392166-0.2466545-2.9518051-1.1639671-4.2170353c-0.1580276-0.2179623-0.2316742-0.6476059,0.0491982-0.7705688
		c0.3090782-0.135313,0.3506775,0.2874889,0.4686813,0.497654c0.9467773,1.686203,1.3101768,3.5810223,1.9205399,5.3876133
		c0.0024567,0.1044044,0.0049248,0.2088223,0.007328,0.313282c-0.2351646,0.1709824-0.1294899,0.4293938-0.1708374,0.6514111
		c-0.1100311,0.5908222-0.4804459,1.0580196-0.8736305,1.4547024c-0.3496208,0.3527374-0.3302498-0.3568592-0.618412-0.3453617
		c-0.0517807,0.0020676-0.1164513-0.0253315-0.1539459-0.0031891c-0.5306015,0.3132915-1.2859802,0.2877178-1.4991417,1.0821781
		c-0.1104317,0.4115601-0.2672958,0.8599281-0.7979202,0.9556847c-0.5410213-1.9478817-1.7686577-3.6158905-2.2514-5.6080036
		c0.0187016,0.5678349-0.4734955,0.9514503-0.4427624,1.4910393c0.0108299,0.1901722-0.0535107,0.3808327-0.2771358,0.4172707
		c-0.2187366,0.0356464-0.3226471-0.1467438-0.4282379-0.2930164c-0.1380653-0.1912537,0.0069885-0.5718174-0.3946304-0.5881271
		c-0.1057339-1.084425-0.2061787-2.1693954-0.3185101-3.2531395C27.928606,24.178957,27.7696152,22.7351494,27.6145897,21.2909317z"
		/>
	<path style="fill:#F87C05;" d="M28.3968697,28.8768616c0.401619,0.0163097,0.2565651,0.3968735,0.3946304,0.5881271
		c0.1055908,0.1462727,0.2095013,0.3286629,0.4282379,0.2930164c0.2236252-0.036438,0.2879658-0.2270985,0.2771358-0.4172707
		c-0.0307331-0.5395889,0.4614639-0.9232044,0.4427624-1.4910393c0.4827423,1.9921131,1.7103786,3.6601219,2.2513962,5.6080074
		c-0.0394821,0.4350548,0.0327721,0.8559685,0.1607208,1.2698326c-0.0013885,0.4208336-0.0027733,0.8416634-0.0041733,1.2625504
		c-0.2109451-0.000042-0.421875-0.0001335-0.6327839-0.0002708c-0.2344284-0.1584129-0.4818954-0.281929-0.7457027-0.3939438
		c-0.6472893-0.2748413-1.1771641-0.3788681-1.3030109,0.5451927c-0.4309711,0.0201874-0.9304447-0.6375465-0.9548798-1.257534
		C28.606451,32.881279,28.5016613,30.8790684,28.3968697,28.8768616z"/>
	<path style="fill:#FA9407;" d="M32.3517532,34.7275352c-0.1279488-0.4138641-0.2002029-0.8347778-0.1607208-1.2698326
		c0.5306282-0.0957603,0.6874924-0.5441284,0.797924-0.9556885c0.2131615-0.7944603,0.9685402-0.7688866,1.4991417-1.0821781
		c0.0374947-0.0221424,0.1021652,0.0052567,0.1539459,0.0031891c0.2881622-0.0114975,0.2687912,0.6980991,0.618412,0.3453617
		c0.3931847-0.3966827,0.7635994-0.8638802,0.8736305-1.4547024c0.0413475-0.2220173-0.0643272-0.4804287,0.1708374-0.6514111
		c0.2435799,0.8613853,0.2911949,1.7193184-0.0402451,2.5722351c-0.0463409,0.1192513-0.0955734,0.2414703-0.1143646,0.3666801
		c-0.1343956,0.8956871-0.2824059,1.012394-1.182457,0.8078461c-0.7757454-0.1763-1.4328651-0.1674271-1.805069,0.7121925
		C33.0285225,34.4385414,32.829586,34.8058548,32.3517532,34.7275352z"/>
	<path style="fill:#DE862F;" d="M36.456707,26.0317459c-0.0473938,0.70994,0.461586,1.3338146,0.3184357,2.0585938
		c-0.5280876-1.4767933-1.0561829-2.9536152-1.5842781-4.4304371c0.1063805,0.0009804,0.2127647,0.0019627,0.319149,0.0029469
		l-0.0025597-0.0032654c0.0917168,0.8805676,0.4316063,1.6618271,0.9491501,2.3719959L36.456707,26.0317459z"/>
	<path style="fill:#DE862F;" d="M32.981308,19.2382813c0.4048004,0.0413017,0.4449615,0.4159813,0.5542793,0.6756744
		c0.3478661,0.8263416,1.0097923,1.5253563,1.026886,2.4869404C33.9469833,21.3909168,33.4011345,20.3460999,32.981308,19.2382813z"
		/>
	<path style="fill:#DE862F;" d="M34.5581856,22.3951283c0.4169083,0.0567245,0.2990417,0.3819942,0.3201256,0.6375008
		C34.6753769,22.868454,34.5850449,22.6477261,34.5581856,22.3951283z"/>
	<path style="fill:#DE862F;" d="M34.8746414,23.0267467c0.1449051,0.0610485,0.1683006,0.1831398,0.1610603,0.3206215
		C34.8996887,23.281847,34.8805771,23.1576061,34.8746414,23.0267467z"/>
	<path style="fill:#DE862F;" d="M35.0334435,23.343895c0.1514626,0.0575962,0.1610718,0.1863804,0.1606941,0.3201923
		C35.0631599,23.5962143,35.02911,23.4796867,35.0334435,23.343895z"/>
	<path style="fill:#F8BE5A;" d="M36.456604,26.03158c-0.5175438-0.7101688-0.8574333-1.4914284-0.9491501-2.3719959
		C36.0169868,24.372961,36.3030739,25.1757488,36.456604,26.03158z"/>
	<path style="fill:#F8BE5A;" d="M32.6691589,19.0791569c-0.0538597-0.0536995-0.1077194-0.1073971-0.1615906-0.1611118
		C32.5614243,18.9717407,32.6152916,19.0254498,32.6691589,19.0791569z"/>
	<path style="fill:#DE862F;" d="M31.087923,16.5514507c-0.051775-0.0566578-0.1035519-0.1133175-0.1552925-0.1700668
		C30.984417,16.438015,31.036171,16.4947319,31.087923,16.5514507z"/>
	<path style="fill:#DE862F;" d="M30.8921967,18.5810947c0.0582123,0.3512344-0.2945881,0.5247593-0.337595,0.840416
		c-0.5067196-0.8184338-0.8828793-1.6908607-1.5175629-2.4007797c-0.059948-0.3095913-0.1198177-0.6192532-0.1796913-0.928915
		l0.0321007-0.0285435c0.3454552,0.1773739,0.3635693,0.672472,0.7686443,0.791851
		C29.8324471,17.942915,30.254591,18.5333004,30.8921967,18.5810947z"/>
	<path style="fill:#DE862F;" d="M30.4424286,17.0332336c0.4958649,0.4155083,0.8370247,0.8770657,0.4616852,1.5517006
		C30.8672867,18.032753,30.4363747,17.5979729,30.4424286,17.0332336z"/>
	<path style="fill:#DE862F;" d="M32.6636009,38.5148621c-0.0520134,0.0520058-0.104023,0.1040115-0.1560287,0.1560135
		C32.5595818,38.618866,32.6115875,38.566864,32.6636009,38.5148621z"/>
	<path style="fill:#DF6A03;" d="M23.8169022,29.1916485c0.234087-1.8341885,0.4622326-3.6691666,0.7050762-5.5021954
		c0.102457-0.773365,0.2237015-1.5448589,0.3646393-2.3120174c0.0313816-0.1707935-0.0529709-0.5089989,0.2678699-0.4667187
		c0.2401886,0.0316525,0.2387104,0.3093853,0.2388687,0.5230064c0.0011749,1.5754108-0.0579395,3.1536579,0.0167904,4.7255516
		c0.1051731,2.2122746,0.220459,4.4294262,0.6365948,6.6128502c0.1815929,0.9527969,0.9321995,1.6163902,1.3498917,2.4562302
		c0.1594219,0.3205566,0.744194,0.2718201,1.158577,0.1222839c0.0912552,0.7899437-0.3724365,0.8813057-0.9775753,0.7578163
		c-0.4011135-0.0818558-0.7725697-0.2640648-1.2135429-0.1665611c-0.3956242,0.0874748-0.4465446-0.3136864-0.5395527-0.5542145
		c-0.2629776-0.6800766-0.3742981-1.4407082-0.7387867-2.0547981c-0.6435127-1.084198-0.2081051-2.2604694-0.4373627-3.377533
		C24.5268364,29.3630772,24.4190941,29.102272,23.8169022,29.1916485z"/>
	<path style="fill:#DF6A03;" d="M28.3968697,28.8768616c0.1047916,2.0022068,0.2095814,4.0044174,0.314333,6.0066681
		c-0.0503082-0.0010567-0.100584-0.001545-0.1508236-0.0013924c-0.2659664-0.2212029-0.1193924-0.5268211-0.1622849-0.7936745
		c0.0007019-0.0517845,0.000761-0.1035919,0.0001831-0.1553993c0.0004044-0.3691406,0.0008125-0.7382851,0.0012321-1.1074295
		c-0.1586781-2.3473721-0.2868633-4.6973324-0.4857273-7.0412941c-0.1587753-1.8714256-0.4036331-3.7355461-0.6101589-5.6029549
		c0.0479107,0.0015087,0.0957088,0.0024242,0.1434841,0.0026722c0.3035889,0.3314705,0.0979481,0.7399731,0.1674156,1.1068802
		c0.1550922,1.444212,0.3140831,2.8880196,0.4638367,4.3327847C28.190691,26.7074661,28.2911358,27.7924366,28.3968697,28.8768616z"
		/>
	<path style="fill:#DF6A03;" d="M29.6660824,36.1410637c0.1258469-0.9240608,0.6557217-0.820034,1.3030109-0.5451927
		c0.2638073,0.1120148,0.5112743,0.2355309,0.7457027,0.3939438c0.0332451,0.4408073-0.0406036,0.7629318-0.566206,0.4188919
		C30.6852264,36.1054039,30.1764164,36.1387596,29.6660824,36.1410637z"/>
	<path style="fill:#FB8C03;" d="M28.3982773,33.9330635c0.0005779,0.0518074,0.0005188,0.1036148-0.0001831,0.1553993
		c-0.0206337-0.0371552-0.0444603-0.0731354-0.0586605-0.1125908
		C28.3371353,33.9694901,28.3775864,33.9477196,28.3982773,33.9330635z"/>
	<path style="fill:#F87C05;" d="M26.5025253,18.131424c0.0221329,0.0121574,0.0442619,0.0243168,0.0663948,0.0364723
		c-0.0221958-0.0120983-0.0443897-0.0241985-0.0665874-0.0362988L26.5025253,18.131424z"/>
	<path style="fill:#FB8C03;" d="M28.8573475,16.091814c0.0598736,0.3096638,0.1197433,0.6193256,0.1796913,0.9289169
		c-0.348877,0.2949696-0.0449848,0.9709187-0.6512012,1.115984c-0.4669476-0.7570324-0.3567009-1.6340427-0.6217556-2.5419035
		C28.2110653,15.7980118,28.5342064,15.9449139,28.8573475,16.091814z"/>
</g>
</svg>
