<?xml version="1.0" encoding="utf-8"?>
<!-- Generator: Adobe Illustrator 21.1.0, SVG Export Plug-In . SVG Version: 6.00 Build 0)  -->
<svg version="1.1" id="Слой_1" xmlns="http://www.w3.org/2000/svg" xmlns:xlink="http://www.w3.org/1999/xlink" x="0px" y="0px"
	 viewBox="0 0 55 45" style="enable-background:new 0 0 55 45;" xml:space="preserve">
<g>
	<path style="fill:#F5F8F5;" d="M48.8585358,13.3988628c0.4686966,0.0836964,1.0395012-0.0734053,1.2820053,0.5436659
		c-0.3355026,0.2924118-0.745739,0.5001345-1.0010414,0.8834229l0.0011559,0.0050163
		c-0.3423195,0.1945276-0.639019,0.4446039-0.8995552,0.738719c-0.1760597,0.0965796-0.3436012,0.2026138-0.4354858,0.3925743
		c-0.0589828,0.0461426-0.1179695,0.0922852-0.1769562,0.1384277c-0.0632935,0.021904-0.1372871,0.0295238-0.1883354,0.0677719
		c-2.0292778,1.5204449-4.0585251,3.0409622-6.0791931,4.5728016c-0.1307373,0.0991116-0.1932869,0.2881699-0.2875557,0.4353886
		c-0.0445328,0.0464096-0.0890656,0.0928192-0.1335983,0.1392288c-0.70438-0.0092754-1.0716705,0.5427036-1.5406761,0.9253254
		c-0.4290771,0.2935028-0.8581543,0.5870094-1.2872391,0.8805141c-0.3483162-0.2114716-0.5304832-0.0046291-0.7985573,0.2187214
		c-0.5717888,0.4764023-1.1212234,1.0059834-1.8424416,1.2738743c-0.0452614-0.0785885-0.0912056-0.0789318-0.1378212-0.001194
		c-0.3889694,0.3930626-1.0646439,0.5780926-0.9630051,1.3271503c-0.0205574,0.0409927-0.0537605,0.061182-0.0996132,0.0605736
		c-0.5373917-0.3695984-0.940876-0.3164196-1.1088448,0.2275791c-0.1577187,0.5107899-0.5425453,0.5583076-0.9393883,0.7428017
		c-0.7015076,0.3261395-1.4612465,0.467783-2.1594963,0.8132362c-0.5511532,0.2726727-1.2746239-0.0094433-1.8521614,0.353569
		c-0.0101681,0.0063915-0.0507832-0.0118999-0.0575619-0.0273113c-0.2446651-0.5561638-0.7443848-0.3447132-1.1319275-0.3297119
		c-1.6180439,0.0626163-3.2296143-0.0408039-4.81353-0.3224373c-0.6174603-0.1097889-1.3350353,0.147953-1.9009476-0.4521809
		c-0.1414337-0.1499863-0.6208286-0.2719193-0.976305-0.32658c-0.7461662-0.1147442-1.5007973,0.0617466-2.2555752-0.2513943
		c-0.8391838-0.3481579-0.8909092-0.2894802-0.6587753-1.1168518c1.5094624-0.6636543,3.0189247-1.3273067,4.528429-1.9910793
		c0.7799206-0.3364506,1.5598011-0.6727791,2.3396797-1.0091076c0.9430981-0.3536396,1.9307175-0.6120625,2.7287769-1.275898
		c0.1989937-0.0313644,0.4138279-0.0246696,0.594574-0.0998878c2.1840019-0.9088459,4.3629723-1.8297863,6.5432568-2.7475758
		c1.0752029-0.4285965,2.1504059-0.857193,3.2256126-1.2857895c-0.0255089-0.072506-0.0510216-0.1450119-0.0765305-0.2175159
		c-1.3058891,0.0162201-2.4273415,0.6703053-3.5926704,1.1726303l-0.0158157,0.0002422
		c-0.0376816-0.0056858-0.0705872,0.0043297-0.0987091,0.0300446c-2.330307,0.9182835-4.6606121,1.836565-6.9909191,2.7548485
		c-1.0019493,0.3311176-1.9874763,0.7029171-2.9295006,1.182497c-0.9439678,0.3290634-1.8930149,0.6457462-2.7704105,1.1370144
		c-0.2439346-0.0581055-0.4376431,0.0873432-0.643364,0.1682396c-1.3613071,0.535305-2.7197685,1.0778522-4.079155,1.618042
		c0.0144434-0.0661926,0.0064802-0.155014,0.0468674-0.1950073c0.3294783-0.3262577,0.9999752-0.3522987,0.9056683-1.0595436
		c-0.0101509-0.0761318,0.1803474-0.1080055,0.2989006-0.0882359c0.1374664,0.0229244,0.3404751,0.1816502,0.3614273-0.0964565
		c0.019598-0.2601032-0.191967-0.3241062-0.4161854-0.3383255c-0.1939316-0.0122986-0.3489952,0.0609341-0.5002031,0.1747627
		c-0.1710587,0.1287746-0.3500099,0.1130085-0.47682-0.0630875c-0.1156559-0.1606026-0.1083231-0.3454609,0.0007486-0.5116367
		c0.1446667-0.2204037,0.366724-0.3612823,0.6133022-0.3969498c0.2903881-0.0420036,0.4782333-0.1700516,0.5071526-0.4513283
		c0.0295258-0.2871647-0.1465225-0.6887093-0.3142071-0.7002926c-0.6455021-0.0445824-0.5871611-0.5603123-0.7524452-0.9328804
		c1.2258148-0.4567528,2.517868-0.6946163,3.7536926-1.1032867c1.547287-0.5116673,3.1520214-0.7894039,4.7071552-1.276762
		c0.9384403-0.2940903,1.9146614-0.544735,2.8675423-0.8172188c1.1484489-0.328413,2.3035469-0.6378326,3.4504299-0.9737587
		c1.4217644-0.4164419,2.8261127-0.8810759,4.2713451-1.2317028c1.0451927-0.2535725,2.092804-0.5813913,3.1051407-0.9693947
		c0.4468651-0.1712704,0.872139-0.2304649,1.3302383-0.1907825c0.5083771,0.269743,1.4208107,0.0766363,2.0045166-0.4244404
		c0.1407471-0.0017128,0.281498-0.0034266,0.4222565-0.0051336c0.7316971,0.2260695,1.4633942,0.2234879,2.1951065,0.0001211
		c0.2467766-0.0755911,0.5241432-0.3436375,0.6869316,0.1091843c-0.3192291,0.1482525-0.6384583,0.2965012-0.957695,0.4447384
		c-0.3763847,0.0097942-0.6503296,0.2600975-0.9663582,0.4116058c-0.9888039,0.3854942-1.9784698,0.7687922-2.9655495,1.1586628
		c-0.1629677,0.0643673-0.3945656,0.1354475-0.2894554,0.3692217c0.088295,0.1963625,0.2716179,0.0713654,0.4111938,0.0096912
		c0.9505157-0.4199944,1.9003334-0.8415794,2.8503723-1.2626543c0.3418579-0.106884,0.6914139-0.1975603,0.9611359-0.4563665
		c0.4461021-0.172307,0.8922005-0.3446131,1.3383026-0.516921c0.9236717,0.4125443,1.7913284-0.3090611,2.706337-0.1341877
		c0.2515182,0.048069,0.5779076-0.0820713,0.6282463,0.3326025c-0.040287,0.1752377-0.3395882,0.1338367-0.3234253,0.3663416
		C48.2954483,14.0348148,48.5098572,13.9399157,48.8585358,13.3988628z"/>
	<path style="fill:#F5F7F2;" d="M15.4535694,20.0892887c0.1652842,0.3725662,0.1069431,0.8882961,0.7524452,0.9328785
		c0.1676846,0.0115833,0.3437328,0.4131279,0.3142071,0.7002926c-0.0289192,0.2812767-0.2167645,0.4093246-0.5071526,0.4513283
		c-0.2465782,0.0356674-0.4686356,0.1765461-0.6133022,0.3969498c-0.1090717,0.1661758-0.1164045,0.3510342-0.0007486,0.5116367
		c0.1268101,0.176096,0.3057613,0.1918621,0.47682,0.0630875c0.1512079-0.1138287,0.3062716-0.1870613,0.5002031-0.1747627
		c0.2242184,0.0142193,0.4357834,0.0782223,0.4161854,0.3383255c-0.0209522,0.2781067-0.2239609,0.119381-0.3614273,0.0964565
		c-0.1185532-0.0197697-0.3090515,0.012104-0.2989006,0.0882359c0.0943069,0.7072449-0.57619,0.7332859-0.9056683,1.0595436
		c-0.0403872,0.0399933-0.032424,0.1288147-0.0468674,0.1950226c-0.2847614,0.2077179-0.6145458,0.3144398-0.944375,0.4210625
		c-0.2229671-0.0442848-0.4776525-0.1417789-0.435092,0.2593651c-0.127697,0.0464973-0.2949972,0.0567417-0.3763762,0.1456413
		c-0.3941526,0.4305725-0.8044443,0.5378113-1.2951536,0.1597633c-0.0599308-0.0461731-0.1790895-0.0297203-0.2687063-0.020937
		c-1.0811672,0.1059437-1.9877844-0.5384789-3.0115528-0.6238861c0.0026722-0.3143005,0.4685316-0.0986786,0.3585472-0.4218388
		c-0.0602131-0.1769199-0.2925549-0.2572441-0.38906-0.1317177c-0.5149984,0.6698704-1.073494,0.109314-1.6144981,0.1075897
		c-0.9677343-0.0030842-1.4486542-0.5090218-1.6220527-1.4009876c0.1259394-0.2729015,0.3667288-0.3697395,0.6353798-0.4625568
		c1.321002-0.4564037,2.6437221-0.8991413,3.9997573-1.2495308c1.6664953-0.4306107,3.3450384-0.8261261,4.9669275-1.416708
		C15.2653055,20.0836105,15.3630581,20.0963936,15.4535694,20.0892887z"/>
	<path style="fill:#ADB9C3;" d="M50.2939339,14.1871376c0.049614,0.0931683,0.0992279,0.1863384,0.1487236,0.2794952
		c0.0255013,0.6613932-0.0759964,1.3011131-0.3268585,1.9153538c-0.0214386,0.0329323-0.0321045,0.0690498-0.0314789,0.1086693
		c-0.350235,0.1346378-0.7016144,0.268259-0.7831078,0.7028999c0,0,0.0001183-0.0008984,0.0002861-0.0007401
		c-0.2468567,0.0258999-0.3834229,0.1632462-0.4127998,0.4088936l0.0000114,0.0014324
		c-0.1786842,0.0072746-0.2649918,0.1043625-0.2712059,0.2793121l0.0021591-0.002409
		c-0.965847,0.5320415-1.6091461,1.4053726-2.32724,2.1995621l0.0000381-0.0024395
		c-0.2578888,0.018816-0.391964,0.160532-0.4121323,0.4153233c0,0,0.0019951-0.0023785,0.0020676-0.0022945
		c-0.5673027,0.2604675-0.9483757,0.70895-1.2497025,1.2379494c-0.039505,0.0403252-0.0790062,0.0806503-0.1184387,0.1211929
		c-0.2504921,0.0298862-0.4021149,0.1584949-0.4202728,0.4205647c0,0,0.0021706-0.0013599,0.0022774-0.0012321
		c-0.1865158-0.0040493-0.267868,0.1050568-0.2940941,0.2734928c-0.1756325,0.0035801-0.2546234,0.106884-0.2767868,0.2687359
		c-0.5010986,0.3172359-0.9729462,0.6634903-1.2196083,1.2326393l0.0000229,0.0012703
		c-0.2066231-0.0023384-0.3332062,0.1055584-0.4022827,0.2926178c-0.0129242,0.0318584-0.0154953,0.0645313-0.0075684,0.0983963
		c-1.0120926,0.5346642-1.8362846,1.2772789-2.4705315,2.2303391c-0.0407028,0.0390091-0.0814056,0.0780182-0.1220207,0.1172638
		c-0.9435463,0.6052952-1.7479668,1.3669529-2.4825134,2.2072105c-0.088356,0.0872478-0.176712,0.1744957-0.2649612,0.2619553
		c-0.3542595,0.3365765-0.8137169,0.5555763-1.0913467,0.9776211l0.0012054-0.0011005
		c-0.2197456,0.1172123-0.4161797,0.2528439-0.4247169,0.537096c0,0,0.0013809-0.0016594,0.0015259-0.0014706
		c-0.2126122-0.0164909-0.381546,0.035511-0.4307938,0.2751141l-0.0518456-0.0027809l-0.0500755,0.0137272
		c-0.3906212,0.3922729-0.9609261,0.5813694-1.2413254,1.0981846c-0.359642,0.1228104-0.4542465,0.568367-0.8249168,0.6776695
		c-0.3371964,0.2188072-0.7973976,0.2554893-0.9993877,0.6747437c-0.1421394-0.0058708-0.2814236-0.0034943-0.375145,0.1303291
		c-0.2393284,0.0791016-0.5156574,0.1080132-0.577364,0.4272232c-0.0782032-0.0018539-0.1564064-0.0037117-0.2345753-0.0053596
		c-0.6331158-0.0252953-1.1875343,0.2952843-1.7894001,0.4072914c-0.1791859,0.0077858-0.3583679,0.0155678-0.5375538,0.0233727
		c-0.5076828,0.0357742-1.0283203-0.1234741-1.5234451,0.1012459c-0.1605263,0.0038681-0.3210487,0.0077324-0.4820061,0.0117645
		c-0.2426281-0.4493866-0.6664886-0.1996307-1.009285-0.2619209c-0.0882282-0.0045357-0.1764545-0.0090714-0.2647915-0.013401
		c-1.1839695-0.3021202-2.3646355-0.6186104-3.574543-0.8053513c-0.0876064-0.0076103-0.1752148-0.0152245-0.2629433-0.0225983
		c-1.4210167-0.5433388-2.9248905-0.7452621-4.3993778-1.0681763c-1.3309574-0.1822624-2.5889015-0.6519871-3.8824415-0.9816818
		c-2.1558456-0.5494823-4.2915983-1.167326-6.4031186-1.8652859c-0.5570612-0.1841373-1.1073871-0.4435883-1.2456422-1.1238995
		c0.1594424-0.3904572-0.4812365-0.6957626-0.1177435-1.1078453c0.4249253,0.1072674,0.1749921,0.5889263,0.4366088,0.7866764
		c-0.0409951,0.2005291,0.0374317,0.3108025,0.2446632,0.3237324c0.0186057,0.0227547,0.0332613,0.047821,0.0439668,0.0751972
		c-0.0870156,0.3372498,0.1813569,0.4126663,0.3874469,0.5524769c0.3184538,0.2160378,0.7000179,0.177599,1.0433474,0.2964821
		c1.7252202,0.5973816,3.499578,1.0253582,5.2545238,1.5210018c2.5283651,0.7140827,5.0691252,1.3575268,7.6351881,1.9157429
		c2.4858837,0.5407753,4.9232979,1.3362617,7.5104885,1.3057327c1.1233578-0.0132561,2.1957035-0.2372093,3.2393837-0.632
		c0.1679516-0.06353,0.2429104-0.1969681,0.2520542-0.3716621c0.2729073-0.187191,0.5458126-0.374382,0.818718-0.561573
		c0.4771614-0.2269287,0.9296837-0.4895935,1.2882462-0.888464c0.2161827-0.0988503,0.4102364-0.2236652,0.5217323-0.4452801
		l0.0048294,0.0034466c0.7650146-0.5029163,1.435791-1.113905,2.0511093-1.788496l0.0027046,0.0040398
		c0.6713448-0.4669762,1.2486916-1.0349178,1.7775307-1.6549568l-0.009758,0.0032234
		c0.0503883-0.0465069,0.100769-0.0930138,0.1511536-0.1395226l0.0068665,0.0076427
		c0.3917313-0.2392864,0.7437325-0.5200901,0.9720535-0.9301434l0.0122871-0.0101509
		c0.6657295-0.366148,1.0590401-1.0395279,1.6444626-1.4827995c1.1239891-0.8510609,2.0281219-1.9133835,2.9860649-2.9264812
		l-0.0088196,0.0083294c0.4287949-0.0512238,0.6382065-0.3640347,0.8308754-0.6968174l-0.0034904,0.0034542
		c0.778759-0.5199604,1.3698616-1.2453976,2.0307236-1.8908978c0.4451332-0.4347801,1.0014114-0.7775631,1.2796936-1.3712559
		l-0.0159454-0.0223351c0.1166687,0.0189896,0.1645927-0.028574,0.1408463-0.1455059l0.019619,0.0050011
		c0.8367844-0.4345379,1.347744-1.2363853,2.0521774-1.8185883C50.0639992,15.805645,50.4251709,15.1051502,50.2939339,14.1871376z"
		/>
	<path style="fill:#E1F1F1;" d="M4.764792,27.3469944c-0.3634219,0.4121914,0.277257,0.7174969,0.1178145,1.107954
		c-0.3725762-0.2589626-0.537044-0.6201172-0.5349054-1.0684299c0.002914-0.610714,0.0861449-1.2367516-0.0189095-1.8289261
		c-0.2028165-1.1432343,0.4036589-1.7779732,1.2522626-2.3152447c0.173388,0.8919563,0.6543078,1.3978939,1.6220422,1.4009781
		c0.5410042,0.0017242,1.0994997,0.5622807,1.6144981-0.1075897c0.0965052-0.1255264,0.3288469-0.0452023,0.38906,0.1317177
		c0.1099844,0.3231602-0.355875,0.1075382-0.3585472,0.4218388c1.0237684,0.0854073,1.9303856,0.7298298,3.0115528,0.6238861
		c0.0896168-0.0087833,0.2087755-0.0252361,0.2687063,0.020937c0.4907093,0.3780479,0.901001,0.2708092,1.2951536-0.1597633
		c0.0813789-0.0888996,0.2486792-0.099144,0.376461-0.1455612c0.022748,0.0218048,0.0454245,0.0435162,0.0681076,0.0652065
		c-0.0491581,0.4170437-0.6481133,0.4342651-0.6461363,0.8884964c-0.2469597,0.0087433-0.4860868-0.0115585-0.7347622-0.0528412
		c-0.7168303-0.1189899-1.365406-0.5348244-2.1188707-0.4776993c-0.4912653-0.2358875-1.0305271-0.2922001-1.5510769-0.4207554
		c-1.0373282-0.2561703-2.0701952-0.530407-3.1049051-0.7971802c-0.2489328-0.1429596-0.4978652-0.285923-0.7792358-0.4475136
		c-0.0363531,0.2046928-0.0706277,0.3976784-0.1049023,0.5906658c-0.0298023,0.0795364-0.0596046,0.159071-0.089407,0.2386093
		c-0.1066298,0.0952625-0.118248,0.1933327-0.0087137,0.2949829c-0.0006318,0.4499321-0.0012636,0.8998661-0.0018959,1.3498001
		c-0.1445236,0.1458702-0.1450477,0.2898598,0.0056396,0.4318771C4.7441459,27.1772919,4.7544689,27.2621422,4.764792,27.3469944z"
		/>
	<path style="fill:#0D4C76;" d="M50.2939339,14.1871376c0.131237,0.9180126-0.2299347,1.6185074-0.9277191,2.1952152
		c-0.7044334,0.5822029-1.2153931,1.3840504-2.0520515,1.8184223c-0.0187607-0.0549698-0.0376396-0.1097717-0.0565224-0.1645756
		c0.0182762-0.1485405,0.4196739-0.1665268,0.1417542-0.4159985c-0.0003433-0.0446968-0.0005646-0.0893955-0.0006638-0.1340961
		c0.0465126-0.1376343,0.093029-0.2752705,0.1395454-0.4129047c0.2272758-0.0598717,0.4850655,0.2175159,0.6528397,0.0460072
		c0.7177277-0.7336864,1.5895386-1.362031,1.8576126-2.4377661c-0.3753929-0.2475672-0.5795174,0.2900038-0.9092598,0.1444855
		c0.2553329-0.3832636,0.6655693-0.5909863,1.0010719-0.8833981C50.1916695,14.0240669,50.2428017,14.1056023,50.2939339,14.1871376
		z"/>
	<path style="fill:#F5F8F5;" d="M16.4138088,32.4258156c1.4744873,0.3229141,2.9783611,0.5248375,4.3993778,1.0681763
		c-0.4762287,0.1876297-1.0127888,0.1247826-1.412077-0.041111c-0.8076344-0.3355522-1.6521282-0.4246635-2.4833946-0.6010246
		C16.644886,32.7939758,16.4316559,32.7478638,16.4138088,32.4258156z"/>
	<path style="fill:#F5F8F5;" d="M36.8208771,28.9906368c0.7345467-0.8402576,1.5389671-1.6019154,2.4825134-2.2072105
		c-0.0546379,0.6730099-0.5676765,1.2319908-1.2630882,1.4469585c-0.1785316,0.055191-0.3205452,0.2445393-0.4664192,0.3856049
		C37.3606682,28.8221798,37.1716919,29.0655231,36.8208771,28.9906368z"/>
	<path style="fill:#F5F8F5;" d="M39.4254112,26.6661625c0.6342468-0.9530602,1.4584389-1.6956749,2.4705315-2.2303391
		C41.2468834,25.3723068,40.6102562,26.3227997,39.4254112,26.6661625z"/>
	<path style="fill:#F5F8F5;" d="M21.0761299,33.5165901c1.2099075,0.1867409,2.3905735,0.503231,3.574543,0.8053513
		c-0.3472366,0.3991928-0.7137527-0.0072556-1.0726719,0.0071945c-0.790617,0.0318184-1.5410633-0.2276726-2.2734928-0.5202942
		C21.1562252,33.7495995,21.0855885,33.6663094,21.0761299,33.5165901z"/>
	<path style="fill:#F5F8F5;" d="M46.2924232,20.079607c0.7180939-0.7941895,1.361393-1.6675205,2.32724-2.1995621
		C48.0798988,18.862875,47.4348412,19.7343273,46.2924232,20.079607z"/>
	<path style="fill:#F5F8F5;" d="M42.3057709,24.0435371c0.2466621-0.5691471,0.7185097-0.9154015,1.2196083-1.2326374
		c0.2427979,0.5337982-0.0101013,1.058939-0.6108818,1.2128296C42.7224922,24.0729122,42.5092812,24.0392761,42.3057709,24.0435371z
		"/>
	<path style="fill:#F5F8F5;" d="M33.2685432,32.148983c0.2803993-0.5168152,0.8507042-0.7059116,1.2413254-1.0981846
		C34.513176,32.1746788,34.2118454,32.4412842,33.2685432,32.148983z"/>
	<path style="fill:#F5F8F5;" d="M44.6326942,21.7281456c0.3013268-0.5289993,0.6823997-0.9774818,1.2497025-1.2379494
		C45.8243179,21.1722202,45.2951431,21.6964817,44.6326942,21.7281456z"/>
	<path style="fill:#F5F8F5;" d="M50.115799,16.3819866c0.2508621-0.6142406,0.3523598-1.2539606,0.3268585-1.9153538
		C51.0424767,14.8485184,50.8533249,15.9565363,50.115799,16.3819866z"/>
	<path style="fill:#6C8799;" d="M48.8585358,13.3988628c-0.3486786,0.5410528-0.5630875,0.635952-1.2175064,0.5299835
		c-0.0161629-0.2325048,0.2831383-0.1911039,0.3234253-0.3663416c0.0922546-0.0482655,0.1844597-0.096674,0.2766418-0.1451654
		c0.175972-0.0100212,0.3519592-0.0199594,0.5279541-0.0298977C48.7964401,13.4103889,48.8262711,13.414196,48.8585358,13.3988628z"
		/>
	<path style="fill:#ADB9C3;" d="M40.9436302,13.1019411c-0.5837059,0.5010757-1.4961395,0.6941824-2.0045166,0.4244394
		c0.1838264-0.0026398,0.3761749,0.0277081,0.5160103-0.1380434c0.1340523-0.0484324,0.2681656-0.0967312,0.4022789-0.145031
		C40.2120094,13.1387806,40.5703506,13.0629559,40.9436302,13.1019411z"/>
	<path style="fill:#F5F8F5;" d="M49.3012123,17.1935558c0.0814934-0.4346409,0.4328728-0.5682621,0.7831078-0.7028999
		c0.2076874,0.1241322,0.3022346,0.3202229,0.3189011,0.5503139c0.0097275,0.1342697-0.1162872,0.3445435-0.1951904,0.219429
		C49.9077873,16.7843361,49.5998154,17.1903152,49.3012123,17.1935558z"/>
	<path style="fill:#F5F8F5;" d="M28.4677544,34.4608803c0.6018658-0.1120071,1.1562843-0.4325867,1.7894001-0.4072914
		C29.844698,34.5352364,29.0408211,34.7183037,28.4677544,34.4608803z"/>
	<path style="fill:#F5F8F5;" d="M26.4067554,34.585495c0.4951248-0.2247162,1.0157623-0.0654678,1.5234451-0.1012421
		C27.4546413,35.0032425,26.931263,34.8028755,26.4067554,34.585495z"/>
	<path style="fill:#F5F8F5;" d="M35.4645691,30.2302132c0.2776299-0.4220448,0.7370872-0.6410446,1.0913467-0.9776211
		C36.641758,30.0801716,35.9872322,30.0816135,35.4645691,30.2302132z"/>
	<path style="fill:#6C8799;" d="M43.2902374,13.6508627c0.3192291-0.1482496,0.6384583-0.2964983,0.9576874-0.4447508
		c0.1291428,0.0482759,0.3158112-0.0425215,0.3819618,0.1579866c-0.4461174,0.1722994-0.8922157,0.3446054-1.3382607,0.5166035
		C43.2912064,13.8038826,43.2907181,13.7273722,43.2902374,13.6508627z"/>
	<path style="fill:#F5F8F5;" d="M31.4442387,33.5013962c0.2019901-0.4192543,0.6621914-0.4559364,0.9993877-0.6747437
		c0.0551071,0.1203156,0.3416901,0.2263947,0.0015984,0.3653183C32.1193008,33.3251076,31.8099003,33.5006638,31.4442387,33.5013962
		z"/>
	<path style="fill:#E1F1F1;" d="M43.5609932,13.0969276c-0.7317123,0.2233667-1.4634094,0.2259483-2.1951065-0.0001211
		C42.09758,13.0968437,42.8292847,13.0968857,43.5609932,13.0969276z"/>
	<path style="fill:#F5F8F5;" d="M24.9154644,34.3353424c0.3427963,0.0622902,0.7666569-0.1874657,1.009285,0.2619171
		C25.5847015,34.5249138,25.1324463,34.8839073,24.9154644,34.3353424z"/>
	<path style="fill:#F5F8F5;" d="M48.7690506,13.3874416c-0.1759949,0.0099382-0.3519821,0.0198765-0.5279541,0.0298977
		c-0.0006104-0.1696701-0.0771179-0.3995523,0.1805-0.4255619C48.6743393,12.966259,48.7555656,13.164278,48.7690506,13.3874416z"/>
	<path style="fill:#F5F8F5;" d="M44.0939827,22.2699032c0.018158-0.2620697,0.1697807-0.3906784,0.4202728-0.4205647
		C44.5507622,22.1657848,44.4295464,22.3248692,44.0939827,22.2699032z"/>
	<path style="fill:#F5F8F5;" d="M35.0410576,30.7662086c0.0085373-0.2842522,0.2049713-0.4198837,0.4247169-0.537096
		C35.481739,30.5326786,35.4267082,30.7801342,35.0410576,30.7662086z"/>
	<path style="fill:#F5F8F5;" d="M48.8886986,17.6017094c0.029377-0.2456474,0.1659431-0.3829937,0.4127998-0.4088936
		C49.3563652,17.5232735,49.2200928,17.6609039,48.8886986,17.6017094z"/>
	<path style="fill:#F5F8F5;" d="M45.8803291,20.4924908c0.0201683-0.2547913,0.1542435-0.3965073,0.4121323-0.4153233
		C46.296505,20.3558674,46.158329,20.4935226,45.8803291,20.4924908z"/>
	<path style="fill:#F5F8F5;" d="M30.4917297,34.0589485c0.0617065-0.3192101,0.3380356-0.3481216,0.577364-0.4272232
		C31.0707436,34.0361328,30.7009869,33.9391823,30.4917297,34.0589485z"/>
	<path style="fill:#F5F8F5;" d="M39.8574028,13.2433062c-0.1341133,0.0482998-0.2682266,0.0965986-0.4022789,0.145031
		c-0.0021172-0.1698112,0.0353889-0.333003,0.2222557-0.3701477C39.8340683,12.9870415,39.8390999,13.1333141,39.8574028,13.2433062
		z"/>
	<path style="fill:#F5F8F5;" d="M34.6117897,31.0398521c0.0492477-0.239603,0.2181816-0.291605,0.4307938-0.2751141
		C35.0503159,31.0931892,34.8255501,31.0579166,34.6117897,31.0398521z"/>
	<path style="fill:#F5F8F5;" d="M41.903511,24.3374271c0.0690765-0.1870594,0.1956596-0.2949562,0.4022827-0.2926178
		C42.3296509,24.359272,42.1084251,24.3371563,41.903511,24.3374271z"/>
	<path style="fill:#F5F8F5;" d="M48.6175041,17.8824539c0.0062141-0.1749496,0.0925217-0.2720375,0.2712059-0.2793121
		C48.9078636,17.8024864,48.8157196,17.8939018,48.6175041,17.8824539z"/>
	<path style="fill:#F5F8F5;" d="M43.802166,22.5421638c0.026226-0.1684361,0.1075783-0.2775421,0.2940941-0.2734928
		C44.1067886,22.4764671,44.0011559,22.5594692,43.802166,22.5421638z"/>
	<path style="fill:#024687;" d="M40.9399757,21.3158798c0.0445328-0.0464096,0.0890656-0.0928192,0.1335983-0.1392288
		c0.3600006,0.305088,0.7491684,0.1563377,0.9292374-0.1325626c0.5513763-0.8846493,1.5976753-1.0954018,2.2864571-1.784483
		c0.2390862-0.239193,0.539196-0.5109482,0.9646416-0.3248672c0.1518097,0.0664005,0.2591667-0.0352154,0.3172989-0.1733818
		c0.2616425-0.6219139,0.6511688-0.7618408,1.2823105-0.4569588c-0.1646042,0.1874733-0.2967758,0.4268379-0.4994049,0.553484
		c-0.9031105,0.5644665-1.5110703,1.4210529-2.2259636,2.1723518c-0.1636848,0.1720161-0.2982178,0.3432846-0.2689247,0.5958557
		l0.003212-0.0037346c-0.4490891,0.0271893-0.6518364,0.3478508-0.8307228,0.6969433c0,0,0.0088196-0.0083294,0.0086288-0.008503
		c-0.2273331-0.0296078-0.4106407-0.0221615-0.615551,0.1634865c-1.2280693,1.1126423-2.2578011,2.4393711-3.6667213,3.3623867
		c-0.2375107,0.1555958-0.5167046,0.4783707-0.3480644,0.8835812l-0.012619,0.0095825
		c-0.6976242-0.0797234-0.8769684,0.3813801-0.9717216,0.9307117l-0.0070457-0.0076866
		c-0.0504417,0.0464916-0.1007042,0.0930309-0.1509743,0.1395664c0,0,0.009758-0.0032234,0.0096245-0.0033283
		c-0.1591568-0.0233135-0.3177795-0.0354633-0.4508095,0.0793476c-0.4256172,0.3673115-0.7748222,0.8171139-1.2504654,1.1329784
		c-0.1441498,0.0957241-0.1057129,0.2845364-0.0761223,0.4427357L35.4969864,29.43993
		c-0.700634,0.072237-1.8377228,1.0641251-2.0509262,1.7886829l-0.005024-0.0036659
		c-0.1917229-0.0100403-0.3832474-0.0198593-0.5747757-0.0296822c-0.89851-0.8693104-0.9197426-1.7131977-0.0811386-2.6900978
		c0.1345673-0.1567593,0.1045456-0.334034-0.0652695-0.4703846c0.0390968-0.5128784,0.5216331-0.480711,0.8238602-0.6701508
		c0.0085602-0.5519028,0.5592728-0.6324844,0.8308563-0.9557266c0.5594711-0.1806717,1.0392609-0.4737968,1.3730583-0.97295
		c0.091301-0.0907001,0.1826057-0.1814003,0.2739105-0.2721004c0.0451965-0.0451374,0.0903893-0.0902767,0.1355896-0.1354122
		l0.0024261-0.0024128c0.0469666-0.044796,0.0939369-0.0895901,0.1409073-0.1343842l0.0629845,0.0001469l0.0630264-0.0013962
		c0.1814003-0.0011921,0.2712708-0.0978737,0.2855759-0.2734623c0.0431557-0.0003242,0.0863075-0.0008621,0.1294594-0.0016155
		c0.3270569-0.1668549,0.6993828-0.2787685,0.8300056-0.6839905c0.6623001-0.0186634,0.836113-0.7435703,1.3701363-0.9476891
		c0.0437126-0.0492249,0.0874252-0.0984478,0.1311417-0.1476727l0.0044556-0.0033131
		c0.1700172-0.0103035,0.2741661-0.0863819,0.2701073-0.2705059l0.0042877-0.0039845
		c0.3035431,0.032856,0.4399948-0.1017494,0.4070358-0.4061432l0.0055313-0.0055752
		c0.118679,0.0083218,0.2189903-0.0227299,0.282856-0.1319294c0.2474098-0.1180668,0.3646202-0.4469509,0.7452621-0.3758373
		C41.0590286,21.6698227,41.1308746,21.4613781,40.9399757,21.3158798z"/>
	<path style="fill:#E1F1F1;" d="M16.4161091,25.3115635c-0.2321339,0.8273716-0.1804085,0.7686939,0.6587753,1.1168518
		c0.7547779,0.3131409,1.509409,0.1366501,2.2555752,0.2513943c0.3554764,0.0546608,0.8348713,0.1765938,0.976305,0.32658
		c0.5659122,0.6001339,1.2834873,0.342392,1.9009476,0.4521809c1.5839157,0.2816334,3.1954861,0.3850536,4.81353,0.3224373
		c0.3875427-0.0150013,0.8872623-0.2264519,1.1319275,0.3297119c0.0067787,0.0154114,0.0473938,0.0337029,0.0575619,0.0273113
		c0.5775375-0.3630123,1.3010082-0.0808964,1.8521614-0.353569c0.6982498-0.3454533,1.4579887-0.4870968,2.1594963-0.8132362
		c0.396843-0.184494,0.7816696-0.2320118,0.9393883-0.7428017c0.1679688-0.5439987,0.5714531-0.5971775,1.1088371-0.2275753
		c-0.5274315,0.4872227-1.0889397,0.929493-1.7081718,1.2955017l0.0096207,0.0143433
		c-0.0927963,0.0570908-0.1855927,0.1141796-0.278389,0.1712704c-0.4389191,0.3532085-1.0557251,0.3002644-1.4942513,0.6544495
		c-0.7263203,0.2050991-1.4526138,0.4101791-2.1789112,0.6152554c-0.1798229-0.1134586-0.3700008-0.1345596-0.5821171-0.107132
		c-1.1966057,0.1547318-2.3964348,0.0815372-3.5956135,0.034462c-0.7074871-0.1519833-1.4637127,0.0017414-2.1407433-0.3412838
		c-0.0117798-0.1018085,0.0051746-0.237442-0.1437759-0.2299538c-0.0437241,0.0021992-0.0814457,0.1237946-0.1219158,0.19067
		c-0.7727585-0.0594158-1.4969997-0.3272476-2.2430077-0.5047798c-1.5540028-0.3698215-3.1234169-0.6754627-4.6889925-0.9952602
		c-0.1786079-0.0364838-0.2733192-0.1346664-0.3628664-0.2658806c0.1502886-0.1786022,0.3005781-0.3572044,0.4508667-0.5358047
		C15.6942263,25.9361496,15.8841372,25.3183708,16.4161091,25.3115635z"/>
	<path style="fill:#0D558A;" d="M46.8535194,18.3043976c-0.6311417-0.304882-1.020668-0.1649551-1.2823105,0.4569588
		c-0.0581322,0.1381664-0.1654892,0.2397823-0.3172989,0.1733818c-0.4254456-0.1860809-0.7255554,0.0856743-0.9646416,0.3248672
		c-0.6887817,0.6890812-1.7350807,0.8998337-2.2864571,1.784483c-0.180069,0.2889004-0.5692368,0.4376507-0.9292374,0.1325607
		c0.0942688-0.1472168,0.1568184-0.3362751,0.2875557-0.4353867c2.020668-1.5318394,4.0499153-3.0523567,6.0791931-4.5728016
		c0.0510483-0.0382481,0.125042-0.0458679,0.188343-0.0677567c0.0589867-0.0461369,0.1179695-0.0922909,0.1769485-0.138443
		c0.0918846-0.1899605,0.2594261-0.2959948,0.435482-0.3925657c0.4425697-0.072444,0.8969078-0.1305723,0.899559-0.7387276
		l-0.0011559-0.0050163c0.3297119,0.1454935,0.5338364-0.3920774,0.9092293-0.1445103
		c-0.268074,1.0757351-1.1398849,1.7040796-1.8576126,2.4377661c-0.1677742,0.1715088-0.4255638-0.1058788-0.6528664-0.0460052
		c-0.0577164-0.0776558-0.1537628-0.1322536-0.2111092-0.0489407c-0.1104507,0.1604729-0.0932083,0.3296528,0.0715904,0.4618435
		c0.0000992,0.0447006,0.0003204,0.0893993,0.0006638,0.1341152c-0.1461487,0.01717-0.3362083-0.0383377-0.3810158,0.172369
		c-0.0374794,0.1762581,0.0997658,0.2202587,0.2392616,0.2436104c0.0188828,0.0548038,0.0377617,0.1096058,0.0565224,0.1645756
		c0,0-0.0197449-0.0048351-0.0200844-0.0050373c-0.0909615,0.0062599-0.1381454,0.0544567-0.1405067,0.1457081
		c0,0,0.0159454,0.0223351,0.0155716,0.0216045C47.0636864,18.3430119,46.9586067,18.3237057,46.8535194,18.3043976z"/>
	<path style="fill:#879DAA;" d="M16.4161091,25.3115635c-0.5319719,0.0068073-0.7218828,0.6245861-1.2237597,0.6851234
		c-0.1548901-0.202158-0.2258558-0.5214367-0.6182556-0.3391075c-0.1592112,0.0739727-0.3525133-0.0207806-0.4866676-0.162714
		c0.0491886-0.1085052,0.0983753-0.2170143,0.147563-0.3255196c0.3298283-0.1066227,0.6596127-0.2133446,0.9443731-0.4210625
		c1.3593874-0.540205,2.7178488-1.0827522,4.0791559-1.6180573c0.2057209-0.0808964,0.3994293-0.2263451,0.6434307-0.1682587
		c0.2736797,0.0031223,0.5479183,0.0191536,0.8207417,0.0059738c0.3048172-0.0147266,0.2592163,0.1656246,0.2218056,0.3526649
		C19.4350338,23.9842567,17.9255714,24.6479092,16.4161091,25.3115635z"/>
	<path style="fill:#6C8799;" d="M25.6017933,20.6424751c2.330307-0.9182835,4.6606121-1.836565,6.9909191-2.7548409
		c0.057724,0.0714779,0.0932693,0.0701447,0.0987091-0.0300522l0.0159187-0.0000172
		c0.1984444,0.042429,0.4346008,0.033865,0.4434853,0.3304501c-2.1802845,0.9177895-4.3592548,1.8387299-6.5432568,2.7475758
		c-0.1807461,0.0752182-0.3955803,0.0685234-0.5945702,0.0998974
		C26.0281582,20.7452221,25.6882591,20.8264275,25.6017933,20.6424751z"/>
	<path style="fill:#879DAA;" d="M25.6017933,20.6424732c0.0864658,0.1839542,0.4263649,0.1027489,0.4112053,0.3930149
		c-0.7980633,0.663826-1.7856827,0.9222488-2.7288094,1.2758446c-0.0278568-0.383749-0.4317207-0.2943382-0.6118965-0.4863605
		C23.6143169,21.3453922,24.599844,20.9735928,25.6017933,20.6424732z"/>
	<path style="fill:#6C8799;" d="M22.6722927,21.8249722c0.1801758,0.1920223,0.5840397,0.1026115,0.6118965,0.4863605
		c-0.77985,0.3363724-1.5597305,0.6727009-2.3396511,1.0091515c0.0373688-0.1869183,0.0829697-0.3672695-0.2218475-0.3525429
		c-0.2728233,0.0131798-0.5470619-0.0028515-0.8207417-0.0059738
		C20.7792778,22.4707184,21.7283249,22.1540356,22.6722927,21.8249722z"/>
	<path style="fill:#E1F1F1;" d="M35.4710617,24.614315c0.7212181-0.2678909,1.2706528-0.797472,1.8424416-1.2738743
		c0.268074-0.2233505,0.4502411-0.4301929,0.7985497-0.2187233c-0.3370743,0.4403687-0.9136543,0.6085491-1.225132,1.0780029
		c-0.0402756,0.0277977-0.059063,0.0661278-0.0563698,0.1149883c-0.1905632-0.0147934-0.337986,0.0709801-0.4667435,0.2002487
		c-0.3436928,0.3211594-0.8985672,0.3899765-1.080574,0.9043274c-0.2567978,0.1838856-0.5135956,0.3677711-0.7703896,0.5516567
		c-0.0475388-0.0102215-0.0950737-0.0204468-0.1426086-0.0306702c-0.1016388-0.7490578,0.5740356-0.9340878,0.9630051-1.3271503
		l0.002388,0.0022945c0.0461121,0.0981674,0.0912514,0.0920086,0.1355743-0.0012684L35.4710617,24.614315z"/>
	<path style="fill:#879DAA;" d="M33.1508255,18.188015c-0.0088844-0.2965851-0.2450409-0.2880211-0.4434853-0.3304501
		c1.165226-0.5025501,2.2866783-1.1566353,3.5925674-1.1728554c0.0255089,0.072504,0.0510216,0.14501,0.0765305,0.2175159
		C35.3012314,17.330822,34.2260284,17.7594185,33.1508255,18.188015z"/>
	<path style="fill:#879DAA;" d="M42.3304329,14.3373775c-0.9500389,0.4210749-1.8998566,0.84266-2.8503723,1.2626543
		c-0.139576,0.0616741-0.3228989,0.1866713-0.4111938-0.0096912c-0.1051102-0.2337742,0.1264877-0.3048544,0.2894554-0.3692217
		c0.9870796-0.3898706,1.9767456-0.7731686,2.9655609-1.1586866C42.3260689,14.1540632,42.3282509,14.2457209,42.3304329,14.3373775
		z"/>
	<path style="fill:#0D558A;" d="M36.8869209,24.1997204c0.3114777-0.4694538,0.8880577-0.6376343,1.225132-1.078001
		c0.4290924-0.2935047,0.8581696-0.5870113,1.2872543-0.8805084c0.0184212,0.0159855,0.0366249,0.0322094,0.0546036,0.0486813
		c-0.0007553,0.0894241-0.0015068,0.1788502-0.0022583,0.2682724l-0.0042953,0.003973
		c-0.1852722-0.0049286-0.2735138,0.0870399-0.2701111,0.2705154l-0.0044479,0.0033016
		c-0.0621223,0.0132313-0.1242599,0.0264816-0.1863976,0.0397282c0.0184135,0.0359879,0.0368309,0.0719719,0.0552483,0.1079559
		c-0.5340233,0.2041187-0.7078362,0.9290257-1.3702126,0.9476624
		C37.3721657,23.9105511,37.2063179,24.2794724,36.8869209,24.1997204z"/>
	<path style="fill:#0D4C76;" d="M34.3702354,25.9402714c0.0475349,0.0102234,0.0950699,0.0204487,0.1426353,0.0306778
		c-0.0460854,0.1459885-0.0921936,0.2919731-0.1383018,0.4379559c-0.2715836,0.3232422-0.8222961,0.4038239-0.8307495,0.9556427
		c-0.3105392-0.2613487-0.66745,0.1440544-0.9814949-0.0682106c0.6193504-0.3659954,1.1808586-0.8082657,1.7082901-1.2954884
		C34.3164749,26.0014534,34.349678,25.9812641,34.3702354,25.9402714z"/>
	<path style="fill:#0D558A;" d="M40.9399757,21.3158798c0.1908989,0.1454983,0.1190529,0.3539429-0.0476494,0.3227978
		c-0.3806419-0.0711136-0.4978523,0.2577705-0.7454071,0.3757954c-0.1181602-0.0070534-0.2225342,0.0151615-0.282711,0.1319714
		l-0.0055313,0.005558c-0.134922,0.0459499-0.2698441,0.0919209-0.4047661,0.1378899
		c-0.0179787-0.0164719-0.0361824-0.0326958-0.0546036-0.0486832
		C39.8683052,21.8585835,40.2355957,21.3066044,40.9399757,21.3158798z"/>
	<path style="fill:#ADB9C3;" d="M42.3304329,14.3373766c-0.002182-0.0916557-0.004364-0.1833134-0.0065498-0.2749443
		c0.3160172-0.1514845,0.589962-0.4017878,0.9663467-0.411582c0.0004883,0.0765219,0.0009766,0.1530323,0.0013962,0.2298517
		C43.0218468,14.1398172,42.6722908,14.2304935,42.3304329,14.3373766z"/>
	<path style="fill:#0D4C76;" d="M49.1406555,14.8309679c-0.0026512,0.6081553-0.4569893,0.6662836-0.899559,0.7387276
		C48.5016365,15.2755718,48.798336,15.0254955,49.1406555,14.8309679z"/>
	<path style="fill:#0D4C76;" d="M47.8056145,15.9622612c-0.058979,0.0461521-0.1179619,0.0923061-0.1769485,0.138443
		C47.687645,16.0545464,47.7466316,16.0084038,47.8056145,15.9622612z"/>
	<path style="fill:#E1F1F1;" d="M35.3332405,24.613121c0.0466156-0.0777378,0.0925598-0.0773945,0.1378212,0.001194
		l0.0001411-0.0001678c-0.0452042-0.000721-0.0903931-0.0002995-0.1355743,0.0012684L35.3332405,24.613121z"/>
	<path style="fill:#879DAA;" d="M32.6914215,17.8575821c-0.0054398,0.1001968-0.0409851,0.1015301-0.0987091,0.0300503
		C32.6208344,17.8619118,32.6537399,17.8518963,32.6914215,17.8575821z"/>
	<path style="fill:#E1F1F1;" d="M14.2349892,25.1693459c-0.0491877,0.1085052-0.0983744,0.2170143-0.1475582,0.3253498
		c-0.0731096-0.0003452-0.1462231-0.0005188-0.2193375-0.0006924c-0.0226879-0.0216961-0.0453644-0.0434074-0.0681124-0.0652122
		C13.7573357,25.0275669,14.0120211,25.125061,14.2349892,25.1693459z"/>
	<path style="fill:#013D71;" d="M31.6312523,32.5589104c-0.2729053,0.187191-0.5458107,0.374382-0.8187199,0.5615692
		c-2.8391819,1.1478577-5.6618252,0.7130508-8.4802189-0.0885696c0.2217312-0.0191841,0.4430447-0.0384026,0.664362-0.0576172
		c0.544138,0.2641373,1.1219921,0.1021194,1.6845207,0.1294594c0.172678,0.0083885,0.3711014-0.1057472,0.3847637-0.238327
		c0.0894165-0.8678284,1.5303078-1.0134182,1.1334057-2.1343803c-0.0166302-0.0469704,0.0845299-0.1727352,0.1570034-0.2080574
		c0.4254322-0.2073574,0.869524-0.5078068,1.3419495-0.3703995c0.4974365,0.1446819,0.8929749-0.0126629,1.3109188-0.1858616
		c0.3150368-0.1305599,0.6163387-0.295166,0.9338779-0.4185715c0.4418278-0.1717052,0.7167015-0.0955086,0.6482811,0.4711342
		c-0.101429,0.8399792,0.60779,1.4233265,0.7274017,2.1990223c0.0060024,0.0389328,0.2039299,0.0482712,0.3124943,0.0713882
		C31.6312771,32.3794365,31.6312656,32.4691734,31.6312523,32.5589104z"/>
	<path style="fill:#879DAA;" d="M22.3318958,33.0318756c2.8188114,0.8016548,5.6414547,1.2364616,8.4806366,0.088604
		c-0.0091419,0.1746979-0.0841007,0.308136-0.2520523,0.371666c-1.0436802,0.3947906-2.1160259,0.6187439-3.2393837,0.632
		c-2.5871906,0.030529-5.0246048-0.7649574-7.5104885-1.3057327c-2.5660629-0.5582161-5.106823-1.2016602-7.6351881-1.9157429
		c-1.7549458-0.4956436-3.5293036-0.9236202-5.2545238-1.5210018c-0.3433294-0.1188831-0.7248936-0.0804443-1.0433474-0.2964821
		c-0.20609-0.1398106-0.4744625-0.2152271-0.3876843-0.552166c0.2174463,0.0923519,0.4351306,0.1843929,0.652832,0.2766056
		c0.1919842,0.0714798,0.3821516,0.1481476,0.5761862,0.2132969c2.9573135,0.9929371,5.9753342,1.7767773,8.997448,2.5349255
		c1.3838644,0.3471661,2.7663698,0.7424908,4.1974916,0.8828564c0.3537006,0.2282066,0.7472172,0.2895584,1.1585045,0.276432
		l-0.006443-0.0049706c0.3799419,0.26548,0.822649,0.2763557,1.2596111,0.3105316L22.3318958,33.0318756z"/>
	<path style="fill:#09609C;" d="M6.1426792,28.809454c-0.2176843-0.092041-0.4353685-0.184082-0.6528149-0.2764339
		c-0.010468-0.0276871-0.0251236-0.0527534-0.0437527-0.0755615c0.0168195-0.182291-0.0803556-0.278347-0.2446399-0.323679
		c-0.2616167-0.1977501-0.0116835-0.679409-0.4366088-0.7866764c-0.0103941-0.0849609-0.0207171-0.1698112-0.0310264-0.2547226
		c0.0662079-0.1448746,0.0569005-0.2886944-0.0056539-0.431818c0.0006323-0.449934,0.0012641-0.899868,0.0019078-1.3498535
		c0.0029087-0.0983429,0.0058055-0.1966381,0.0087018-0.2949295c0.0298023-0.0795383,0.0596046-0.1590729,0.0895548-0.2382526
		c0.0226789,0.2697678,0.0520816,0.5388145,0.0664668,0.8086605c0.0452986,0.8497086,0.2425318,1.6139355,1.1923361,1.8686199
		c0.6652346,0.1783772,0.6107183,0.5381451,0.3171139,0.9971237C6.3170695,28.5711155,6.2298741,28.6902847,6.1426792,28.809454z"/>
	<path style="fill:#0D4C76;" d="M38.4100075,26.7202492c-0.1686401-0.4052105,0.1105537-0.7279854,0.3480644-0.8835812
		c1.4089203-0.9230156,2.438652-2.2497444,3.6667213-3.3623867c0.2049103-0.185648,0.3882179-0.1930943,0.615551-0.1634865
		c-0.9577522,1.0132713-1.8618851,2.0755939-2.9858742,2.9266548C39.4690475,25.6807213,39.075737,26.3541012,38.4100075,26.7202492
		z"/>
	<path style="fill:#0D4C76;" d="M46.8535194,18.3043976c0.1050873,0.0193081,0.2101669,0.0386143,0.3156242,0.0586529
		c-0.2779083,0.5944233-0.8341866,0.9372063-1.2793198,1.3719864c-0.660862,0.6455002-1.2519646,1.3709373-2.0307236,1.8908978
		c-0.0291672-0.2524166,0.1053658-0.4236851,0.2690506-0.5957012c0.7148933-0.7512989,1.3228531-1.6078854,2.2259636-2.1723518
		C46.5567436,18.7312355,46.6889153,18.4918709,46.8535194,18.3043976z"/>
	<path style="fill:#0D4C76;" d="M33.4460602,31.2286129c0.2132034-0.7245579,1.3502922-1.7164459,2.0509262-1.7886829
		C34.8818512,30.1147079,34.2110748,30.7256966,33.4460602,31.2286129z"/>
	<path style="fill:#0D4C76;" d="M35.4998741,29.4441566c-0.0295906-0.1581993-0.0680275-0.3470116,0.0761223-0.4427357
		c0.4756432-0.3158646,0.8248482-0.765667,1.2504654-1.1329784c0.1330299-0.1148109,0.2916527-0.1026611,0.4508095-0.0793476
		C36.7485657,28.4092388,36.1712189,28.9771805,35.4998741,29.4441566z"/>
	<path style="fill:#0D4C76;" d="M31.6312523,32.5589104c0.0000134-0.0897369,0.0000248-0.1794739,0.0000458-0.2691841
		c0.3080044-0.4109459,0.754406-0.5749207,1.228981-0.6886177c0.0201492,0.02285,0.0399361,0.0460091,0.0593643,0.0694809
		C32.560936,32.0693169,32.1084137,32.3319817,31.6312523,32.5589104z"/>
	<path style="fill:#0D4C76;" d="M37.4256668,27.6605434c0.0947533-0.5493317,0.2740974-1.0104351,0.9717216-0.9307117
		C38.1693993,27.1404533,37.8173981,27.421257,37.4256668,27.6605434z"/>
	<path style="fill:#0D4C76;" d="M43.0317154,22.3192978c0.1788864-0.3490925,0.3816338-0.669754,0.8307228-0.6969433
		C43.6699219,21.9552631,43.4605103,22.268074,43.0317154,22.3192978z"/>
	<path style="fill:#0D4C76;" d="M32.8662605,31.1952648c0.1915283,0.0098228,0.3830528,0.0196419,0.5747757,0.0296822
		c-0.1113014,0.2218342-0.3053551,0.3466492-0.5215378,0.4454994c-0.0192833-0.0233288-0.0390701-0.0464878-0.0591545-0.0692768
		C32.8623619,31.4659061,32.8643112,31.3305874,32.8662605,31.1952648z"/>
	<path style="fill:#879DAA;" d="M5.2014718,28.1337795c0.1642842,0.045332,0.2614594,0.1413879,0.2446399,0.323679
		C5.2389035,28.444582,5.1604767,28.3343086,5.2014718,28.1337795z"/>
	<path style="fill:#0D4C76;" d="M47.1535721,18.3414459c0.0023613-0.0912514,0.0495453-0.1394482,0.1405067-0.1457081
		C47.3181648,18.3128719,47.2702408,18.3604355,47.1535721,18.3414459z"/>
	<path style="fill:#0D4C76;" d="M37.2676468,27.7924232c0.0502701-0.0465355,0.1005325-0.0930748,0.1509743-0.1395664
		C37.3684158,27.6994095,37.3180351,27.7459164,37.2676468,27.7924232z"/>
	<path style="fill:#034D8C;" d="M6.4042635,28.4519138c0.2936049-0.4589615,0.3481212-0.8187294-0.3171134-0.9971066
		c-0.9498043-0.2546844-1.1470375-1.0189114-1.1923361-1.8686199c-0.0143852-0.269846-0.043788-0.5388927-0.0664668-0.8086605
		c0.0341268-0.1933441,0.0684013-0.3863297,0.1047544-0.5910225c0.2813706,0.1615906,0.530303,0.304554,0.7792311,0.4475136
		c-0.1253119,0.2023602-0.5445113,0.0102558-0.5330477,0.4023991c0.0059524,0.2036152,0.1121449,0.345747,0.2659783,0.4465084
		c0.8424306,0.5517979,1.7887955,0.8770943,2.7412076,1.1582947c0.2293892,0.0677261,0.5442343,0.2503643,0.8228445,0.0315208
		c0.136652,0.0014763,0.273303,0.0029526,0.4099731,0.0043564c0.0173445,0.1177464,0.0597267,0.2079659,0.1842537,0.2599525
		c0.8309717,0.3469238,1.6718903,0.6616173,2.559721,0.8332005c0.0044441,0.4459248-0.5581312,0.1085663-0.656456,0.5565033
		c0.0343695,0.0179482,0.131134,0.0454216,0.1963968,0.1065311c0.2902822,0.2718182,0.6327028,0.6917,0.3725805,0.9801006
		c-0.2847385,0.3156929-0.553483,0.8746109-1.2938385,0.5575676c-1.2020731-0.5147629-2.4600658-0.9141502-3.7575893-1.1590366
		C6.7962432,28.7688675,6.5115237,28.7406254,6.4042635,28.4519138z"/>
	<path style="fill:#096EAA;" d="M9.4192696,26.6771698c-0.136651-0.0014763-0.2733021-0.0029526-0.4099445-0.0044479
		c-0.1241846-0.9477253-1.1434255-0.490921-1.6851454-1.0103664c0.5638142-0.1267929,0.9942007-0.0582523,1.4386978-0.027504
		c0.5433397,0.0375862,1.0130329,0.6107044,1.605442,0.2171021c0.7534647-0.0571251,1.4020405,0.3587093,2.1188707,0.4776993
		c0.2486753,0.0412827,0.4878025,0.0615845,0.7347527,0.0528641c0.5051012,0.0642548,1.0490255-0.2647839,1.519537,0.1499939
		c0.0895472,0.1312141,0.1842585,0.2293968,0.3628664,0.2658806c1.5655756,0.3197975,3.1349897,0.6254387,4.6889925,0.9952602
		c0.7460079,0.1775322,1.4702492,0.445364,2.2430077,0.5047798c0.0885658,0.0130939,0.1771278,0.0261879,0.2656918,0.0392838
		c0.6770306,0.3430252,1.4332561,0.1893005,2.1405029,0.3414574c-0.0456562,0.0652122-0.2834778-0.0020332-0.1526508,0.1600151
		c0.0827942,0.1025562,0.3580322-0.0452118,0.4176769,0.2238846c-0.3844681,0.1483402-0.7334251,0.0775719-1.0762768-0.0563393
		c-0.325758-0.1272392-0.6886253-0.2441502-0.9995041-0.11133c-0.6450043,0.2755795-1.2182064,0.0819492-1.8073883-0.133709
		c-0.0797825-0.0292034-0.1693821-0.0694942-0.2479057-0.0584068c-0.8779716,0.1239586-1.7216988,0.2063942-2.6230545-0.0735664
		c-0.6301765-0.1957302-1.3457203-0.2139244-2.0147018-0.3579292c-0.2212448-0.0476284-0.4303541-0.1843739-0.6226177,0.0478516
		c-0.1335974-0.080965-0.2679377-0.0980511-0.4036503-0.0047169c-0.1374979-0.0958939-0.2749071-0.1917953-0.4123154-0.2876949
		c-0.2322865-0.1996689-0.4665737-0.3970623-0.6964025-0.5995216c-0.3715725-0.3273201-0.7735891-0.4660072-1.2442274-0.2157402
		c-0.044384-0.0034313-0.0885382-0.0015316-0.1324644,0.0056973c-0.5133924,0.1564693-0.9725142-0.1776047-1.4558239-0.1708374
		C10.408844,27.0547028,9.9903965,26.5587845,9.4192696,26.6771698z"/>
	<path style="fill:#09609C;" d="M10.3683195,25.8519535c-0.5924091,0.3936024-1.0621023-0.1795158-1.605442-0.2171021
		c-0.4444971-0.0307484-0.8748837-0.0992889-1.4386978,0.027504c0.5417199,0.5194454,1.5609608,0.0626411,1.6851454,1.0103664
		c-0.2786198,0.2188625-0.5934649,0.0362244-0.822854-0.0315018c-0.9524121-0.2812004-1.898777-0.6064968-2.7412076-1.1582947
		C5.29143,25.382164,5.1852374,25.2400322,5.179285,25.036417c-0.0114636-0.3921432,0.4077358-0.2000389,0.5330477-0.4023991
		c1.0347147,0.2667732,2.0675817,0.5410099,3.1049099,0.7971802C9.3377924,25.5597534,9.8770542,25.616066,10.3683195,25.8519535z"
		/>
	<path style="fill:#09609C;" d="M14.7414799,26.5325108c-0.4705114-0.4147778-1.0144358-0.0857391-1.519537-0.1499939
		c-0.0019674-0.4542542,0.5969877-0.4714756,0.6461458-0.8885193c0.0731192,0.0001793,0.1462326,0.0003529,0.2193422,0.0006981
		c0.1341496,0.1421032,0.3274517,0.2368565,0.4866629,0.1628838c0.3923998-0.1823292,0.4633656,0.1369495,0.6182556,0.3391075
		C15.042058,26.1753063,14.8917685,26.3539085,14.7414799,26.5325108z"/>
	<path style="fill:#ADB9C3;" d="M4.7281828,26.6605625c0.0625544,0.1431236,0.0718617,0.2869434,0.0056539,0.431818
		C4.5831351,26.9504223,4.5836592,26.8064327,4.7281828,26.6605625z"/>
	<path style="fill:#ADB9C3;" d="M4.7387929,25.0157795c-0.0028968,0.0982914-0.0057936,0.1965866-0.0087023,0.2949295
		C4.6205444,25.2091122,4.6321626,25.111042,4.7387929,25.0157795z"/>
	<path style="fill:#024687;" d="M47.2576408,18.0361996c-0.1394958-0.0233517-0.276741-0.0673523-0.2392616-0.2436104
		c0.0448074-0.2107067,0.2348671-0.1551991,0.3810158-0.172369C47.6773148,17.8696728,47.2759171,17.8876591,47.2576408,18.0361996z
		"/>
	<path style="fill:#024687;" d="M47.3987312,17.486105c-0.1647987-0.1321907-0.1820412-0.3013706-0.0715904-0.4618435
		c0.0573463-0.083313,0.1533928-0.0287151,0.2111092,0.0489407C47.4917603,17.2108345,47.4452438,17.3484707,47.3987312,17.486105z"
		/>
	<path style="fill:#01447F;" d="M32.8662605,31.1952648c-0.0019493,0.1353226-0.0038986,0.2706413-0.0059166,0.4059048
		c-0.4746399,0.113636-0.9210415,0.2776108-1.2290459,0.6885567c-0.1085701-0.0231438-0.3064976-0.0324821-0.3125-0.0714149
		c-0.1196117-0.7756958-0.8288307-1.3590431-0.7274017-2.1990223c0.0684204-0.5666428-0.2064533-0.6428394-0.6482811-0.4711342
		c-0.3175392,0.1234055-0.6188412,0.2880116-0.9338779,0.4185715c-0.417944,0.1731987-0.8134823,0.3305435-1.3109188,0.1858616
		c-0.4724255-0.1374073-0.9165173,0.1630421-1.3419495,0.3703995c-0.0724735,0.0353222-0.1736336,0.161087-0.1570034,0.2080574
		c0.3969021,1.1209621-1.0439892,1.266552-1.1334057,2.1343803c-0.0136623,0.1325798-0.2120857,0.2467155-0.3847637,0.238327
		c-0.5625286-0.0273399-1.1403828,0.1346779-1.6845474-0.1294174c-0.0856304-0.9231606-0.6089211-0.3014755-0.9640942-0.2730675
		c-0.0436325,0.0006142-0.0872879,0.0004768-0.1309414-0.0003891c-0.0014324-0.0903854-0.0028648-0.1807671-0.0042934-0.2711563
		c0.0524406-0.3430557,0.2802563-0.2865486,0.5100346-0.223053c0.1042042,0.0287933,0.2725887,0.0905495,0.2531757-0.0753326
		c-0.0791817-0.676651,0.4335804-0.5571365,0.8166256-0.6842632c0.6249676-0.2074165,1.1066685-0.6307049,1.4372768-1.2108021
		c0.1369324-0.0002232,0.2738647-0.0004463,0.410799-0.0006695c0.2737675-0.0929031,0.6841965,0.2227287,0.8225002-0.2751331
		c0.0442657-0.0017071,0.0885468-0.0028019,0.1328411-0.0032825c0.2450886-0.0533676,0.6007729,0.1715488,0.6899185-0.2741947
		c0.0898495-0.0000095,0.179697-0.0000191,0.2696018,0.000021c0.404644,0.0004673,0.8153324,0.044754,1.2121964-0.0103989
		c0.4433517-0.0616169,0.9174709-0.1683311,0.8518372-0.8040352c0.0904961-0.0013752,0.1809959-0.0027485,0.271492-0.0041256
		c0.1494408-0.0047951,0.3103542,0.0258408,0.4099979-0.1327496c0.1367626,0.0000687,0.2735252,0.0001411,0.4102859,0.0002098
		c0.1340389,0.4310017,0.4361992,0.3000031,0.6857872,0.1694202c0.1807766-0.0945778,0.3457165-0.1882954,0.5534592-0.1778164
		c0.3259335-0.2856579,0.5542698-0.7249947,1.0845966-0.6888218c0.1699219,0.1364384,0.1999435,0.3137131,0.0653763,0.4704723
		C31.9465179,29.4820671,31.9677505,30.3259544,32.8662605,31.1952648z"/>
	<path style="fill:#09609C;" d="M30.3959026,28.7319126c-0.1367607-0.0000687-0.2735233-0.0001411-0.4102631-0.0002575
		c0.002533-0.0458717,0.005043-0.0916939,0.0075512-0.1375141c0.2328053-0.2158985,0.7064762-0.0075436,0.8062572-0.4577484
		c0.4385014-0.3541641,1.0553074-0.3012199,1.4941769-0.6543903c0.1311798,0.0053349,0.2524529-0.0055504,0.2784386-0.1713085
		l-0.0096207-0.0143433c0.3139267,0.2122517,0.6708374-0.1931515,0.9813766,0.0681973
		c-0.3023338,0.1895237-0.7848701,0.1573563-0.823967,0.6702347c-0.5304337-0.0362606-0.75877,0.4030762-1.0847321,0.6887798
		C31.21805,28.1325817,30.8092155,28.7663536,30.3959026,28.7319126z"/>
	<path style="fill:#09609C;" d="M34.3745689,26.408905c0.0461082-0.1459827,0.0922165-0.2919674,0.1383018-0.4379597
		c0.2567673-0.1838894,0.5135651-0.367775,0.7703629-0.5516396c0.1548004,0.0055618,0.309597,0.0111046,0.4643936,0.0166492
		C35.4138298,25.9351082,34.9340401,26.2282333,34.3745689,26.408905z"/>
	<path style="fill:#0D558A;" d="M35.7476273,25.435955c-0.1547966-0.0055447-0.3095932-0.0110874-0.4643936-0.0166492
		c0.1820068-0.5143719,0.7368813-0.583189,1.0805893-0.9042397c0.0197868,0.0380383,0.0439682,0.0729027,0.072567,0.1047001
		c-0.0033264,0.0902176-0.0066528,0.1804333-0.0099754,0.2706509l-0.0629692,0.0013752l-0.0630608-0.0001812
		c-0.0469971,0.0447865-0.093914,0.0896015-0.140831,0.1344185l-0.0024223,0.0023918
		c-0.0452003,0.0451279-0.0903969,0.0902786-0.1355972,0.1354332C35.930233,25.2545547,35.8389282,25.3452549,35.7476273,25.435955z
		"/>
	<path style="fill:#09609C;" d="M36.8869209,24.1997204c0.319397,0.079752,0.4852448-0.2891693,0.7845154-0.2684193
		c-0.1305466,0.4052486-0.5028725,0.5171623-0.8299179,0.6840057c-0.0036507-0.1002083-0.007309-0.2004051-0.0109673-0.3005981
		C36.827858,24.2658482,36.8466454,24.2275181,36.8869209,24.1997204z"/>
	<path style="fill:#096EAA;" d="M39.4539108,22.2898922c0.134922-0.045969,0.2698441-0.0919399,0.4047661-0.1378899
		c0.032959,0.3044109-0.1034927,0.4390163-0.4070358,0.4061604C39.452404,22.4687424,39.4531555,22.3793163,39.4539108,22.2898922z"
		/>
	<path style="fill:#0D558A;" d="M36.8305511,24.3147087c0.0036583,0.100193,0.0073166,0.2003899,0.0109673,0.3005981
		c-0.0431633,0.0007648-0.0863152,0.0013027-0.1295509,0.0015984c-0.0919113,0.0009346-0.1837463,0.0018997-0.2755775,0.002861
		c-0.0285988-0.0317974-0.0527802-0.0666618-0.072567-0.1047001C36.4925652,24.3856888,36.6399879,24.2999153,36.8305511,24.3147087
		z"/>
	<path style="fill:#09609C;" d="M36.4363899,24.6197662c0.0918312-0.0009613,0.1836662-0.0019264,0.2755775-0.002861
		c-0.014225,0.1756172-0.1040955,0.2722988-0.2854958,0.2734909C36.4297371,24.8001995,36.4330635,24.7099838,36.4363899,24.6197662
		z"/>
	<path style="fill:#096EAA;" d="M39.1772461,22.832653c-0.0034027-0.1834755,0.0848389-0.275444,0.2701111-0.2705154
		C39.4514122,22.7462711,39.3472633,22.8223495,39.1772461,22.832653z"/>
	<path style="fill:#096EAA;" d="M39.0416489,22.9836388c-0.0184174-0.035984-0.0368347-0.0719681-0.0552483-0.1079559
		c0.0621376-0.0132465,0.1242752-0.0264969,0.1863976-0.0397301C39.1290741,22.885191,39.0853615,22.9344139,39.0416489,22.9836388z
		"/>
	<path style="fill:#096EAA;" d="M39.8642082,22.1464443c0.0601768-0.1168098,0.1645508-0.1390247,0.282711-0.1319714
		C40.0831985,22.1237144,39.9828873,22.1547661,39.8642082,22.1464443z"/>
	<path style="fill:#09609C;" d="M36.021534,25.1638546c0.0452003-0.0451546,0.0903969-0.0903053,0.1355972-0.1354332
		C36.111927,25.0735779,36.0667343,25.1187172,36.021534,25.1638546z"/>
	<path style="fill:#09609C;" d="M36.1595535,25.0260296c0.046917-0.044817,0.0938339-0.089632,0.140831-0.1344185
		C36.2534904,24.9364395,36.2065201,24.9812336,36.1595535,25.0260296z"/>
	<path style="fill:#09609C;" d="M26.2805729,29.9571857c-0.0442944,0.0004807-0.0885754,0.0015755-0.1328411,0.0032921
		c-0.2739716-0.000349-0.5479469-0.0007076-0.8219185-0.0010681c-0.3431339-0.182991-0.6768894-0.2564163-1.0902252-0.1788521
		c-0.6430111,0.1206646-1.3070068,0.1577187-1.9634132,0.1725636c-1.1528854,0.0260696-2.2531185-0.180357-3.3932648-0.4469433
		c-1.1637745-0.27211-2.2499161-0.8013344-3.4345989-0.9671116c-0.0519457-0.007267-0.0858727-0.1433201-0.1281929-0.2193832
		c0.1922636-0.2322655,0.4013729-0.09552,0.6226177-0.0478916c0.6689816,0.1440048,1.3845253,0.162199,2.0147018,0.3579292
		c0.9013557,0.2799606,1.7450829,0.197525,2.6230545,0.0735664c0.0785236-0.0110874,0.1681232,0.0292034,0.2479057,0.0584068
		c0.5891819,0.2156582,1.162384,0.4092884,1.8073883,0.133709c0.3108788-0.1328201,0.6737461-0.0159092,0.9995041,0.11133
		c0.3428516,0.1339111,0.6918087,0.2046795,1.0762768,0.0563393c-0.0596447-0.2690964-0.3348827-0.1213284-0.4176769-0.2238846
		c-0.130827-0.1620483,0.1069946-0.0948029,0.1526508-0.1600151c1.199419,0.0469017,2.3992481,0.1200962,3.5958538-0.0346355
		c0.2121162-0.0274277,0.4022942-0.0063267,0.5821285,0.107132c0.0901566,0.03825,0.1802979,0.0765018,0.2704411,0.1147537
		c-0.3544369,0.1904888-0.7473583,0.2662373-1.134882,0.2600918c-0.4254913-0.0067482-0.5554829,0.1746864-0.5160446,0.556448
		c-0.0898495,0.0000095-0.179697,0.0000191-0.2695427,0.0000744C26.6540375,29.556757,26.4091206,29.6105213,26.2805729,29.9571857z
		"/>
	<path style="fill:#0D558A;" d="M28.8909645,28.8664227c-0.0901432-0.0382519-0.1802845-0.0765038-0.2704411-0.1147537
		c0.7262859-0.2050762,1.4525795-0.4101563,2.1788998-0.6152554c-0.0997562,0.4501839-0.5734272,0.2418289-0.8063087,0.4576836
		c-0.2021427-0.0070572-0.4021168-0.0108337-0.4174957,0.2703552c-0.0904961,0.0013771-0.1809959,0.0027504-0.2715263,0.0040798
		C29.1663609,28.8677979,29.0286636,28.8671112,28.8909645,28.8664227z"/>
	<path style="fill:#F5F8F5;" d="M22.3020382,28.3377151c-0.0885639-0.0130959-0.1771259-0.0261898-0.2656918-0.0392838
		c0.0404701-0.0668755,0.0781918-0.1884708,0.1219158-0.19067C22.3072128,28.1002731,22.2902584,28.2359066,22.3020382,28.3377151z"
		/>
	<path style="fill:#0D4C76;" d="M32.5720634,27.3106937c-0.0259857,0.1657581-0.1472588,0.1766434-0.2784386,0.1713085
		C32.3864708,27.4248734,32.4792671,27.3677845,32.5720634,27.3106937z"/>
	<path style="fill:#F5F8F5;" d="M35.3356285,24.6154156c0.0451813-0.0015678,0.0903702-0.0019894,0.1355743-0.0012684
		C35.4268799,24.7074242,35.3817406,24.713583,35.3356285,24.6154156z"/>
	<path style="fill:#0D4C76;" d="M22.0325298,32.7012367c0.3551979-0.0283775,0.8784885-0.6500626,0.964119,0.273098
		c-0.2212906,0.0191727-0.4426041,0.0383911-0.6643353,0.0575752c0,0-0.0068188-0.0092125-0.0069714-0.0095177
		C22.3087387,32.841156,22.2385368,32.709259,22.0325298,32.7012367z"/>
	<path style="fill:#0D4C76;" d="M21.8973141,32.4297256c0.0014343,0.0903854,0.0028667,0.1807671,0.0042515,0.271183
		c-0.2785931,0.0037766-0.5571365,0.0075188-0.8356819,0.0112572l0.006382,0.0049667
		c-0.3515415-0.237339-0.7455845-0.2963028-1.1584435-0.2764282c-1.4311218-0.1403656-2.8136272-0.5356903-4.1974916-0.8828564
		c-3.0221138-0.7581482-6.0401344-1.5419884-8.997448-2.5349255c-0.1940346-0.0651493-0.384202-0.1418171-0.5761862-0.2132969
		c0.0871778-0.1193409,0.1743731-0.2385101,0.2615676-0.3576946c0.1072598,0.2886944,0.3919792,0.3169365,0.6200929,0.3599854
		c1.2975235,0.2448864,2.5555162,0.6442738,3.7575893,1.1590366c0.7403555,0.3170433,1.0091-0.2418747,1.2938385-0.5575676
		c0.2601223-0.2884007-0.0822983-0.7082825-0.3725805-0.9801006c-0.0652628-0.0611095-0.1620274-0.088583-0.1963968-0.1065311
		c0.0983248-0.447937,0.6609001-0.1105785,0.6564531-0.5565357l0.0022011-0.0030403
		c0.0397768-0.0452309,0.0795536-0.0904617,0.1193323-0.1356926c0.0474205-0.1379395,0.0948429-0.2758789,0.1422644-0.4138184
		c0.0439262-0.0072289,0.0880804-0.0091286,0.1324787-0.0056305c0.1201944,0.3114185-0.0829315,0.5727844-0.1396494,0.8549633
		c-0.1723413,0.8574028,0.1009264,1.6339302,0.889451,1.9835815c0.6011753,0.2665749,1.2492981,0.5152912,1.9442739,0.4694824
		c0.6385231-0.0420914,0.7492409-0.262558,0.4382029-0.811451c-0.2256622-0.3982296-0.7472563-0.5828571-0.7905779-1.1085339
		c0.5513353,0.1383152,0.8366652,0.5849876,1.1248569,1.0077305c0.6118145,0.8974571,0.6013393,0.9032326-0.3293552,1.3298073
		c-0.0976009,0.044733-0.1854076,0.1108322-0.3009214,0.1811085c0.5684872,0.3252678,1.1458464,0.1778545,1.700984,0.2176037
		c0.0200539,0.1152382,0.0493584,0.2216015,0.1869717,0.2516098C18.8120213,31.9212055,20.3414497,32.2478561,21.8973141,32.4297256
		z"/>
	<path style="fill:#013D71;" d="M21.0658836,32.7121658c0.2785454-0.0037384,0.5570889-0.0074806,0.8356819-0.0112572
		c0.0437012,0.0008354,0.0873566,0.0009727,0.1309891,0.0003586c0.2059822,0.0079918,0.2761841,0.1398888,0.2927876,0.321125
		C21.8885326,32.9885216,21.4458256,32.9776459,21.0658836,32.7121658z"/>
	<path style="fill:#013D71;" d="M19.9138222,32.4407043c0.412859-0.0198746,0.8069019,0.0390892,1.1584435,0.2764282
		C20.6610394,32.7302628,20.2675228,32.668911,19.9138222,32.4407043z"/>
	<path style="fill:#09609C;" d="M12.4270582,27.2176666c-0.0474215,0.1379395-0.0948439,0.2758789-0.1421213,0.413765
		c-0.0397282,0.0452137-0.0796013,0.0904808-0.1194744,0.1357479l-0.002202,0.0030384
		c-0.8878279-0.1715508-1.7287464-0.4862442-2.5597181-0.833168c-0.124527-0.0519867-0.1669092-0.1422062-0.1842537-0.2599525
		c0.5711079-0.1183128,0.9895554,0.3776054,1.5519457,0.3697319C11.4545441,27.040062,11.9136658,27.374136,12.4270582,27.2176666z"
		/>
	<path style="fill:#034D8C;" d="M17.0968018,31.3363285c-0.5551376-0.0397491-1.1324968,0.1076641-1.700984-0.2176037
		c0.1155138-0.0702763,0.2033205-0.1363754,0.3009214-0.1811085c0.9306946-0.4265747,0.9411697-0.4323502,0.3293552-1.3298073
		c-0.2881918-0.4227428-0.5735216-0.8694153-1.1248569-1.0077305l-0.0039721-0.0074463
		c0.0051041-0.0925655,0.0101986-0.1851406,0.0152922-0.2777176c0.135623-0.0933228,0.2699633-0.0762367,0.4035606,0.0047283
		c0.0423203,0.0761032,0.0762472,0.2121563,0.1281929,0.2194233c1.1846828,0.1657772,2.2708244,0.6950016,3.4345989,0.9671116
		c1.1401463,0.2665863,2.2403793,0.4730129,3.3932648,0.4469433c0.6564064-0.0148449,1.3204021-0.051899,1.9634132-0.1725636
		c0.4133358-0.0775642,0.7470913-0.0041389,1.0902176,0.1788769c-0.0001965,0.0920696-0.0003872,0.1841202-0.0005741,0.2761669
		c-0.1369343,0.0002232-0.2738667,0.0004463-0.4108047,0.0006618c-0.6275482,0.1687183-1.3164635,0.1490765-1.8572273,0.5847664
		c-0.4140186,0.3335667-0.874794,0.455616-1.3874207,0.3186131c-0.3168125-0.0846729-0.6237583-0.1549168-0.919241,0.0445404
		c-0.3304138,0.2230377-0.5985184,0.1465797-0.933897-0.0592861c-0.7926254-0.4865379-1.6618652-0.1939564-2.5008278-0.120182
		C17.2337246,31.0119324,17.1693802,31.2209721,17.0968018,31.3363285z"/>
	<path style="fill:#E1E35E;" d="M14.9012375,28.6000786c0.0433216,0.5256767,0.5649157,0.7103043,0.7905779,1.1085339
		c0.311038,0.548893,0.2003202,0.7693596-0.4382029,0.811451c-0.6949759,0.0458088-1.3430986-0.2029076-1.9442739-0.4694824
		c-0.7885246-0.3496513-1.0617924-1.1261787-0.889451-1.9835815c0.0567179-0.2821789,0.2598438-0.5435448,0.1396494-0.8549633
		c0.470624-0.2503338,0.8726406-0.1116467,1.2442131,0.2156734c0.2298288,0.2024593,0.4641161,0.3998528,0.6963854,0.5996666
		c-0.0032501,0.1198139-0.0064821,0.2394829-0.0097141,0.3591518c-0.9534492-0.2886333-1.3944693-0.0310192-1.2855616,0.8884315
		c0.1757689-0.6344681,0.5520277-0.7877064,1.0609226-0.7028446c0.1135569,0.0189362,0.2284632,0.0019913,0.230031-0.1591721
		c0.1805658-0.0445595,0.2650414,0.1255646,0.4014416,0.179678L14.9012375,28.6000786z M14.0182953,29.3724461l0.0040894-0.0336647
		l-0.0333462,0.0065174c-0.0694227-0.003212-0.1388464-0.006424-0.2082691-0.009634
		c-0.0181656-0.0921631-0.0754166-0.1971836-0.1590281-0.11343c-0.0788603,0.0790005-0.1273746,0.2295647,0.0279942,0.325098
		c0.1410561,0.3562603,0.4217806,0.4305553,0.76441,0.3791122l0.0392904-0.0042267
		c0.2347116,0.0674152,0.3163404-0.0264835,0.2995996-0.2611618c-0.0151291-0.2120686-0.1047335-0.2689648-0.2946091-0.1867466
		c-0.11236-0.1242733-0.2262831-0.1544704-0.3431816-0.005703C14.0780516,29.4414711,14.0457344,29.4094181,14.0182953,29.3724461z"
		/>
	<path style="fill:#0D4C76;" d="M14.4904213,28.386528c0.003232-0.119669,0.006464-0.2393379,0.0097141-0.3591518
		c0.1374254,0.0957546,0.2748346,0.1916561,0.4123325,0.28755c-0.0050039,0.0925655-0.0100985,0.1851406-0.0152025,0.2777061
		c-0.1364107-0.0541248-0.2208862-0.2242489-0.4013796-0.1793766L14.4904213,28.386528z"/>
	<path style="fill:#024687;" d="M17.0968018,31.3363285c0.0725784-0.1153564,0.1369228-0.3243961,0.2190113-0.3316135
		c0.8389626-0.0737743,1.7082024-0.3663559,2.5008278,0.120182c0.3353786,0.2058659,0.6034832,0.2823238,0.933897,0.0592861
		c0.2954826-0.1994572,0.6024284-0.1292133,0.919241-0.0445404c0.5126266,0.1370029,0.973402,0.0149536,1.3874207-0.3186131
		c0.5407639-0.4356899,1.2296791-0.416048,1.8572273-0.5847664c-0.3306026,0.5801048-0.8123035,1.0033932-1.4372711,1.2108097
		c-0.3830452,0.1271267-0.8958073,0.0076122-0.8166256,0.6842632c0.019413,0.1658821-0.1489716,0.104126-0.2531757,0.0753326
		c-0.2297783-0.0634956-0.4575939-0.1200027-0.5100346,0.223053c-1.5558701-0.1818657-3.0852985-0.5085163-4.6135464-0.8417835
		C17.1461601,31.55793,17.1168556,31.4515667,17.0968018,31.3363285z"/>
	<path style="fill:#034D8C;" d="M28.8909645,28.8664227c0.1376991,0.0006886,0.2753963,0.0013752,0.4131279,0.0021095
		c0.0656681,0.6357498-0.4084511,0.7424641-0.8518028,0.804081c-0.3968639,0.0551529-0.8075523,0.0108662-1.2121964,0.0103989
		c-0.0394936-0.3818111,0.090498-0.5632458,0.5159893-0.5564976C28.1436062,29.1326599,28.5365276,29.0569115,28.8909645,28.8664227
		z"/>
	<path style="fill:#034D8C;" d="M30.3959026,28.7319126c0.4133129,0.034441,0.8221474-0.5993309,1.2392178-0.0083504
		c-0.2077141-0.0105247-0.372654,0.0831928-0.5534306,0.1777706C30.8321018,29.0319157,30.5299416,29.1629143,30.3959026,28.7319126
		z"/>
	<path style="fill:#034D8C;" d="M26.2805729,29.9571857c0.1285477-0.3466644,0.3734646-0.4004288,0.6899223-0.2741489
		C26.8813457,30.1287346,26.5256615,29.9038181,26.2805729,29.9571857z"/>
	<path style="fill:#024687;" d="M25.3252316,30.2356014c0.0001869-0.0920467,0.0003777-0.1840973,0.0005741-0.2761688
		c0.2739792,0.0003376,0.5479546,0.0006962,0.8219261,0.0010452C26.009428,30.4583302,25.598999,30.1426983,25.3252316,30.2356014z"
		/>
	<path style="fill:#034D8C;" d="M29.5756187,28.8644524c0.015379-0.281189,0.215353-0.2774124,0.4174957-0.2703552
		c-0.0024319,0.0458641-0.0049419,0.0916862-0.0074749,0.137558C29.885973,28.8902931,29.7250595,28.8596573,29.5756187,28.8644524z
		"/>
	<path style="fill:#034D8C;" d="M12.1654615,27.7671776c0.0398741-0.0452652,0.0797472-0.0905323,0.1194744-0.1357479
		C12.2450151,27.6767159,12.2052383,27.7219467,12.1654615,27.7671776z"/>
	<path style="fill:#013D71;" d="M14.4904213,28.386528l0.0054646,0.0267277
		c-0.0016403,0.1608505-0.1165466,0.1777954-0.2301035,0.1588593c-0.5088949-0.0848618-0.8851538,0.0683765-1.0609226,0.7028446
		C13.095952,28.3555088,13.536972,28.0978947,14.4904213,28.386528z"/>
	<path style="fill:#0D4C76;" d="M13.7807693,29.3356647c0.0694227,0.0032101,0.1388464,0.006422,0.2081099,0.0095482
		l-0.0008383,0.0313358l0.0302544-0.0041027c0.0274391,0.036972,0.0597563,0.069025,0.0967007,0.0960541
		c0.0107651,0.3658504,0.2703857-0.0224056,0.3559742,0.1173134c0.0109444,0.0289974,0.0112391,0.0581017,0.0008869,0.0873165
		c-0.104804,0.0649815-0.1079254,0.1529503-0.0572205,0.2530899c-0.3431206,0.0516682-0.6238451-0.0226269-0.7651701-0.3778381
		C13.6930552,29.4781761,13.7369127,29.4069195,13.7807693,29.3356647z"/>
	<path style="fill:#013D71;" d="M14.4718571,29.67313c0.0103521-0.0292149,0.0100574-0.0583191-0.0009184-0.0875301
		c0.0110579-0.0389538,0.006897-0.0759792-0.0125122-0.11129c0.1898756-0.0822182,0.27948-0.025322,0.2946091,0.1867466
		c0.0167408,0.2346783-0.064888,0.328577-0.2993736,0.2611942C14.459878,29.8392315,14.465867,29.7561798,14.4718571,29.67313z"/>
	<path style="fill:#6C8799;" d="M13.7807693,29.3356647c-0.0438566,0.0712547-0.0877142,0.1425114-0.1313028,0.2127171
		c-0.1550999-0.0965824-0.1065855-0.2471466-0.0277252-0.3261471
		C13.7053528,29.1384811,13.7626038,29.2435017,13.7807693,29.3356647z"/>
	<path style="fill:#6C8799;" d="M14.4584265,29.4743099c0.0194092,0.0353107,0.0235701,0.0723362,0.0125122,0.11129
		c-0.085557-0.1395054-0.3451777,0.2487507-0.3559427-0.1170998C14.2321434,29.3198395,14.3460665,29.3500366,14.4584265,29.4743099
		z"/>
	<path style="fill:#6C8799;" d="M14.4718571,29.67313c-0.00599,0.0830498-0.0119791,0.1661015-0.0181952,0.2491207
		c0,0-0.0395164,0.0041943-0.0392704,0.0040836C14.3639317,29.8260803,14.367053,29.7381115,14.4718571,29.67313z"/>
	<polygon style="fill:#6C8799;" points="14.0182953,29.3724461 13.9880409,29.3765488 13.9888792,29.3452129 14.0223846,29.3387814 
			"/>
</g>
</svg>
