<?xml version="1.0" encoding="utf-8"?>
<!-- Generator: Adobe Illustrator 21.1.0, SVG Export Plug-In . SVG Version: 6.00 Build 0)  -->
<svg version="1.1" id="Слой_1" xmlns="http://www.w3.org/2000/svg" xmlns:xlink="http://www.w3.org/1999/xlink" x="0px" y="0px"
	 viewBox="0 0 25 25" style="enable-background:new 0 0 25 25;" xml:space="preserve">
<g>
	<path style="fill:#E64D3E;" d="M3.2233043,19.6342945c-0.0225663-0.2121468-0.031476-0.4247379-0.0208695-0.6379814
		c0.0615728-0.181284,0.0815222-0.3617668-0.0101931-0.5401459c-0.0055125-0.3439655-0.015491-0.6879311-0.0157118-1.0318985
		c-0.0007024-1.0953636-0.0069804-2.1909409,0.0671756-3.2847795c0.0382011-0.5634832,0.0848405-1.1277142,0.2213223-1.6763315
		c0.2070596-0.8323164,0.7624369-1.3599033,1.5382886-1.6778555c0.2574196-0.1054945,0.5227613-0.1709843,0.8029194-0.1876907
		c2.9946637-0.178586,5.9921994-0.2093201,8.9906712-0.1664629c1.5578709,0.0222664,3.1184502,0.044261,4.6688061,0.1956606
		c0.9922791,0.0969028,1.9388561,0.7761087,2.1547165,1.9267378c0.2135181,1.1381483,0.2491741,2.2879486,0.2590485,3.4397774
		c0.0099201,1.1574326,0.0237331,2.3151455-0.0260849,3.4722252c-0.0019341,0.0449028-0.0082073,0.0896225-0.0124626,0.13451
		c-0.0522766-0.0539322,0.009325-0.1371441-0.0526657-0.2046108c-0.0117493,0.1142883,0.0054016,0.2164688-0.0305614,0.3150978
		c-0.0180531,0.0495167,0.0230732,0.0684109,0.0694828,0.0675869c0.0025806,0.0722466,0.0357151,0.1500263-0.0377865,0.2085133
		c-0.0105667-0.0184422-0.0244064-0.0540161-0.0311508-0.0527172c-0.0675774,0.0130081-0.0359917,0.069788-0.0410862,0.1086388
		c-0.0846977,0.6458187-0.2189407,1.2708263-0.6553955,1.7904339c-0.3504162,0.4171791-0.7899609,0.6660385-1.3284874,0.7203884
		c-0.3959599,0.0399647-0.7932053,0.0775719-1.188303,0.1196251c-0.4914608,0.0523052-0.9840469,0.0881786-1.4758587,0.1134205
		c-0.6457291,0.0331402-1.2929649,0.0553474-1.9394283,0.0690155c-1.007514,0.0212955-2.015789,0.0063553-3.0237417,0.0072746
		c-1.1833344,0.0010777-2.3661957-0.0038376-3.5489435-0.0614681c-0.3928604-0.0191441-0.787261-0.036047-1.1810675-0.0486507
		c-0.1612024-0.0051594-0.3274751-0.0057011-0.4867082-0.0333557c-0.4760051-0.0826683-0.9589934-0.0990143-1.4376931-0.1514664
		c-0.5619226-0.061573-1.014647-0.2810936-1.3855691-0.6965351c-0.3329682-0.3729305-0.5499721-0.7922497-0.6292784-1.2957668
		c-0.0612316-0.3887615-0.1184142-0.7782574-0.1716313-1.1845894C3.2175949,19.4789047,3.2709086,19.5645237,3.2233043,19.6342945z
		 M7.3862267,13.5226154c0.4695139,0.0160227,0.9390221,0.0166273,1.4085217-0.0006199
		c0.0276337,0.0084229,0.0533514,0.0078602,0.0741482-0.0158005c0.0463028-0.0099649,0.0221567-0.0358782,0.0132093-0.0583506
		c0.0007191-0.028203,0.0014391-0.0564051,0.0021591-0.0846081c0.0110521-0.2867174,0.0374012-0.5736847-0.0141335-0.8593731
		c-0.0614471-0.0045805-0.1228886-0.0130625-0.1843414-0.0131454c-0.6942592-0.0009298-1.3885212-0.0005903-2.0827823-0.000555
		c-0.5757284,0.0000286-1.1514578,0.0003967-1.7271852-0.0001869C4.80019,12.4898996,4.7312799,12.4802666,4.7338967,12.596817
		c0.006206,0.276433,0.001133,0.5531082,0.0022621,0.8296776c0.000195,0.0477285-0.0122237,0.1111584,0.073338,0.097271
		c0.4583769,0.012435,0.9167414,0.0172529,1.3750639-0.002327c0.1405859,0.0078259,0.1098003,0.1126957,0.1098166,0.1973925
		c0.000433,2.2854338,0.0003157,4.5708685,0.0003181,6.8563013c0.0000005,0.0451412,0.0019255,0.0903473,0.0001106,0.1354065
		c-0.0025363,0.0629711,0.0237889,0.0946579,0.0888162,0.0920925c0.3090897-0.0121956,0.6191864,0.0236931,0.9276414-0.0193901
		c0.048141-0.046917,0.0249414-0.1066418,0.0249686-0.1600151c0.0011387-2.2848835,0.0009642-4.5697651,0.0002542-6.8546467
		c-0.0000191-0.0614891-0.0077066-0.1229753-0.0118189-0.1844635C7.3451872,13.5636158,7.3657069,13.5431147,7.3862267,13.5226154z
		 M13.5729332,15.2605305c0-0.1188116,0.0000038-0.1862507-0.0000019-0.2536898
		c-0.0000639-0.7735806-0.0036716-1.5471907,0.0029154-2.320714c0.001256-0.1475925-0.0262222-0.2117748-0.1913433-0.1999006
		c-0.2190781,0.0157528-0.4406738,0.0129642-0.6601887,0.0005198c-0.1512909-0.0085764-0.1977358,0.0321302-0.19736,0.1919003
		c0.0055828,2.3715467,0.0038033,4.7431107,0.0037937,7.1146736c-0.0000019,0.2879734,0.0035715,0.5760117-0.0015984,0.8638916
		c-0.0018644,0.1037922,0.0202484,0.1522217,0.1384592,0.1483364c0.2538137-0.0083389,0.5081806-0.0059872,0.7621574-0.0004826
		c0.1068125,0.0023136,0.1529474-0.0269642,0.1466751-0.1430473c-0.0092621-0.1714687-0.0023918-0.3438091-0.0023918-0.5157776
		c0.0157871-0.0091381,0.0315752-0.0182743,0.0473623-0.0274105c0.0321436,0.0450077,0.0584707,0.0959549,0.0973701,0.1340656
		c0.2629728,0.2576542,0.5655813,0.4478817,0.9299021,0.5266266c0.5520296,0.119318,0.890379-0.1171322,0.9628267-0.6756001
		c0.0188389-0.1452217,0.0333395-0.2922249,0.0336466-0.438446c0.00278-1.3212795,0.0025883-2.6425667,0.0015774-3.9638519
		c-0.0001688-0.2206907-0.0212975-0.4403791-0.0791883-0.653945c-0.0700512-0.2584333-0.2360392-0.4139328-0.5047922-0.4608736
		c-0.2552452-0.0445814-0.4924316,0.0103607-0.7254696,0.1079712C14.0523481,14.814127,13.8249111,15.0141077,13.5729332,15.2605305
		z M10.4564505,20.0744495c0,0.2320938,0.004344,0.4175777-0.0017996,0.6027164
		c-0.0031605,0.0952606,0.0285702,0.1298542,0.1246367,0.1280861c0.2596397-0.0047798,0.519454-0.0048962,0.7791138-0.0010834
		c0.0924501,0.0013542,0.1303949-0.0274906,0.1303349-0.1248798c-0.0012293-1.9930973-0.000474-3.9861946,0.0014849-5.9792919
		c0.0000925-0.0937786-0.0343122-0.1296053-0.1294813-0.1278276c-0.2370501,0.0044308-0.4745989,0.0090141-0.7112522-0.0017529
		c-0.1538563-0.007-0.1989317,0.0422421-0.1982679,0.1994743c0.0062084,1.467988,0.0015984,2.9360189,0.0068989,4.4040136
		c0.0005693,0.157692-0.0536709,0.2729244-0.1688442,0.3657513c-0.0875988,0.0706062-0.1765127,0.1422195-0.2737646,0.1977558
		c-0.439105,0.2507496-0.6023188,0.1538448-0.6023407-0.3518887c-0.0000648-1.54706-0.0013819-3.0941238,0.0023785-4.6411743
		c0.0003119-0.1287575-0.0291214-0.1813984-0.1683035-0.1741133c-0.2139473,0.011199-0.4289484,0.0019321-0.6435032,0.0019264
		c-0.2245913-0.0000048-0.2252474,0.0002947-0.2252941,0.2191696c-0.0002451,1.1574717-0.0017366,2.3149481,0.0005598,3.472415
		c0.0010862,0.5475616,0.0039177,1.0952549,0.0179119,1.6425838c0.0049953,0.1953888,0.0169172,0.3982391,0.1310835,0.5699863
		c0.2132244,0.3207607,0.6091757,0.4083195,1.0279284,0.233717C9.8879356,20.5716,10.1679764,20.3575077,10.4564505,20.0744495z
		 M16.6935482,17.6865273c0.0003281,0,0.0006561,0,0.0006561,0c0.0003281,0.5421734-0.0067863,1.0844631,0.0021782,1.6264877
		c0.0105457,0.637516,0.4451561,1.2081108,1.0581341,1.4115524c0.6123447,0.2032299,1.2969284-0.0022907,1.6990528-0.4905453
		c0.3479843-0.4225197,0.3716698-0.916954,0.3567963-1.4258118c-0.002491-0.0851669-0.0587254-0.0817547-0.1167355-0.0817547
		c-0.2710972-0.0000038-0.5422516,0.0029106-0.8132668-0.0018539c-0.0910778-0.0016003-0.117712,0.0330582-0.1145611,0.1189671
		c0.0049629,0.1353588,0.0051861,0.2712116-0.0001945,0.4065514c-0.0101738,0.2559853-0.168972,0.4478989-0.4045486,0.497303
		c-0.3513737,0.0736866-0.6253967-0.1605644-0.6327076-0.5562439c-0.0082378-0.4460411,0.0020733-0.8924255-0.0063877-1.338459
		c-0.0025864-0.1364059,0.042057-0.1726055,0.1739845-0.1712475c0.5873127,0.0060596,1.1747494-0.0004005,1.7620792,0.0046234
		c0.1174946,0.0010033,0.1567516-0.0336285,0.1547871-0.1526966c-0.0064392-0.3896027-0.0037441-0.7793751-0.0026836-1.1690769
		c0.000555-0.2034988,0.0008106-0.4073229-0.0483189-0.6059866c-0.1841869-0.744832-0.9060211-1.2648087-1.6409512-1.18507
		c-0.8180466,0.0887547-1.4110222,0.7149572-1.4255066,1.520606C16.6858139,16.6245956,16.6935482,17.1556301,16.6935482,17.6865273
		z"/>
	<path style="fill:#BF3A2C;" d="M3.2233043,19.6342945c0.0476043-0.0697708-0.0057094-0.1553898,0.0417531-0.2434006
		c0.0532172,0.406332,0.1103997,0.7958279,0.1716313,1.1845894c0.0793064,0.5035172,0.2963102,0.9228363,0.6292784,1.2957668
		c0.3709221,0.4154415,0.8236465,0.6349621,1.3855691,0.6965351c0.4786997,0.0524521,0.961688,0.0687981,1.4376931,0.1514664
		c0.1592331,0.0276546,0.3255057,0.0281963,0.4867082,0.0333557c0.3938065,0.0126038,0.7882071,0.0295067,1.1810675,0.0486507
		c1.1827478,0.0576305,2.3656092,0.0625458,3.5489435,0.0614681c1.0079527-0.0009193,2.0162277,0.0140209,3.0237417-0.0072746
		c0.6464634-0.0136681,1.2936993-0.0358753,1.9394283-0.0690155c0.4918118-0.0252419,0.9843979-0.0611153,1.4758587-0.1134205
		c0.3950977-0.0420532,0.7923431-0.0796604,1.188303-0.1196251c0.5385265-0.0543499,0.9780712-0.3032093,1.3284874-0.7203884
		c0.4364548-0.5196075,0.5706978-1.1446152,0.6553955-1.7904339c0.0050945-0.0388508-0.0264912-0.0956306,0.0410862-0.1086388
		c0.0067444-0.0012989,0.0205841,0.0342751,0.0311508,0.0527172c0.015398,0.6700268-0.0654907,1.3309612-0.2431583,1.9744701
		c-0.2463284,0.8922043-0.9972839,1.5728245-1.9884529,1.6650181c-1.5133057,0.1407566-3.0268402,0.2350845-4.5448341,0.2684212
		c-1.6822729,0.0369473-3.3649025,0.0404148-5.0471725-0.0043297c-0.7504807-0.0199585-1.5009508-0.0463943-2.2507744-0.0831661
		c-0.7100601-0.0348148-1.4170351-0.1099472-2.1246023-0.1800499c-0.4384813-0.0434399-0.8468118-0.1342411-1.1952796-0.4110851
		c-0.4342015-0.3449516-0.7657225-0.7677174-0.8982716-1.3159485c-0.1525996-0.6311607-0.232553-1.2737427-0.2517467-1.9233036
		c-0.0050697-0.0545883,0.068248-0.1124287-0.0067582-0.1641674C3.2333343,19.7531013,3.2283192,19.6936989,3.2233043,19.6342945z"
		/>
	<path style="fill:#222222;" d="M17.7255096,8.6657152c-0.2860718,0.3138571-0.5836964,0.5375309-0.9548321,0.6501188
		c-0.1251812,0.0379753-0.2520618,0.0578346-0.383276,0.0551519c-0.3736191-0.007637-0.5899849-0.1814098-0.6705694-0.5433979
		c-0.0555344-0.2494726-0.0677595-0.5029802-0.0677462-0.7575512c0.0000811-1.5928059,0.001482-3.185616-0.0029259-4.77841
		c-0.0003414-0.1230803,0.0234165-0.1658442,0.1548605-0.15955c0.2479544,0.0118737,0.4974451,0.0134692,0.7451906-0.0004048
		c0.1467934-0.0082209,0.1464005,0.062084,0.1462326,0.1703596c-0.0024338,1.5589132-0.0017262,3.1178308-0.0017357,4.6767473
		c-0.0000038,0.467597,0.1704769,0.5663757,0.582901,0.3364601c0.0589638-0.0328703,0.1155834-0.0704985,0.1707706-0.1094837
		c0.1951618-0.1378603,0.2902241-0.3057847,0.2876778-0.5661693c-0.0140781-1.4401655-0.0045147-2.880549-0.010067-4.3208313
		c-0.0005608-0.1452935,0.0278549-0.1974025,0.1835155-0.1872156c0.2362156,0.0154595,0.4743843,0.0097179,0.7113285,0.0015261
		c0.1111355-0.0038419,0.1539192,0.015914,0.1536407,0.1423423c-0.0043964,1.9881737-0.003727,3.9763615-0.0011711,5.9645414
		c0.000124,0.0971394-0.0139217,0.1391659-0.1262093,0.1351995c-0.2651367-0.009367-0.5309372-0.0073986-0.7962399-0.0008545
		c-0.0988197,0.0024366-0.1264305-0.0306473-0.1231537-0.1252069C17.7299385,9.0691156,17.7255096,8.8887758,17.7255096,8.6657152z"
		/>
	<path style="fill:#222222;" d="M14.606432,6.2710085c0,0.5307255,0.0106487,1.0617146-0.0025187,1.592113
		c-0.0193214,0.7782674-0.5819998,1.3839049-1.3718739,1.4991641c-0.7054634,0.1029415-1.422575-0.3555298-1.6603079-1.0601282
		c-0.0546837-0.162075-0.0810966-0.3288355-0.0813427-0.4986453c-0.0014935-1.0332351-0.0055752-2.066504,0.0008459-3.0997014
		c0.0047865-0.7701292,0.538147-1.407814,1.2695732-1.5386014c0.7594175-0.1357923,1.4706802,0.2644386,1.7495852,0.9838495
		c0.0724955,0.1870022,0.0976267,0.3814011,0.0974264,0.5805626C14.6073036,5.2434168,14.607646,5.7572126,14.607646,6.271008
		C14.607646,6.271008,14.6068363,6.2710085,14.606432,6.2710085z M12.5312901,6.2438912
		c0,0.5075955-0.0019293,1.0152016,0.000679,1.5227838c0.0017366,0.338069,0.2129955,0.562273,0.5211935,0.5615911
		c0.3025064-0.0006704,0.5171776-0.2305584,0.5179415-0.5670447c0.0022783-1.0039067,0.0021696-2.0078239,0.0000772-3.0117316
		c-0.0007038-0.3378115-0.2129641-0.5679917-0.5150023-0.5700555c-0.3142118-0.0021467-0.5231457,0.2246575-0.5245047,0.5755105
		C12.5297518,5.2512531,12.5311861,5.7475753,12.5312901,6.2438912z"/>
	<path style="fill:#222222;" d="M8.89361,4.5195599C8.9711418,4.264267,9.0402441,4.0394716,9.1076832,3.8141775
		c0.2600651-0.868782,0.5220346-1.7370112,0.776474-2.6074402c0.0348167-0.1191053,0.087389-0.1555034,0.2090998-0.1514003
		c0.2868013,0.0096684,0.5741501,0.0031003,0.8780241,0.0031003c-0.1780138,0.5940852-0.3504877,1.1705741-0.5235043,1.7469002
		c-0.3304996,1.1009078-0.6610556,2.2017984-0.9924145,3.3024478C9.425869,6.205749,9.4115114,6.3037353,9.4117498,6.4068146
		c0.0021744,0.9374428-0.0016012,1.8749113,0.004631,2.8123178c0.0008554,0.1288118-0.0326996,0.1618328-0.1582937,0.1561813
		c-0.2367058-0.0106497-0.474618-0.0111971-0.7112694,0.0000505C8.4101429,9.3818588,8.3663759,9.34867,8.3675737,9.2028379
		c0.0074158-0.9035044-0.0036612-1.8071928,0.0078001-2.7106118c0.0040789-0.3216214-0.1163073-0.6065273-0.2034283-0.9012084
		C7.7407188,4.1324048,7.3037901,2.6754591,6.8616562,1.2201177c-0.0447803-0.147402-0.0082769-0.1692805,0.1270785-0.1642061
		C7.2199388,1.064579,7.4520249,1.0651585,7.6831226,1.05504c0.1266756-0.0055465,0.1831517,0.028332,0.2213511,0.1591841
		c0.3047595,1.043956,0.6195693,2.0849771,0.9315104,3.1268351C8.8504734,4.3894544,8.8669672,4.4372487,8.89361,4.5195599z"/>
	<path style="fill:#BF3A2C;" d="M3.1922417,18.4561672c0.0917153,0.1783791,0.0717659,0.3588619,0.0101931,0.5401459
		C3.1779702,18.8166714,3.1826131,18.6364651,3.1922417,18.4561672z"/>
	<path style="fill:#BF3A2C;" d="M21.8271866,19.7781334c-0.0464096,0.000824-0.0875359-0.0180702-0.0694828-0.0675869
		c0.0359631-0.098629,0.0188122-0.2008095,0.0305614-0.3150978c0.0619907,0.0674667,0.0003891,0.1506786,0.0526657,0.2046108
		C21.8363552,19.6593609,21.8317719,19.7187462,21.8271866,19.7781334z"/>
	<path style="fill:#E64D3E;" d="M3.2383494,19.8125057c0.0750062,0.0517387,0.0016885,0.1095791,0.0067582,0.1641674
		C3.2289054,19.9225063,3.2206175,19.868042,3.2383494,19.8125057z"/>
	<path style="fill:#EDEDED;" d="M13.5729332,15.2605305c0.2519779-0.2464228,0.4794149-0.4464035,0.7643518-0.5657539
		c0.2330379-0.0976105,0.4702244-0.1525526,0.7254696-0.1079712c0.2687531,0.0469408,0.434741,0.2024403,0.5047922,0.4608736
		c0.0578909,0.2135658,0.0790195,0.4332542,0.0791883,0.653945c0.0010109,1.3212852,0.0012026,2.6425724-0.0015774,3.9638519
		c-0.0003071,0.1462212-0.0148077,0.2932243-0.0336466,0.438446c-0.0724478,0.5584679-0.4107971,0.7949181-0.9628267,0.6756001
		c-0.3643208-0.0787449-0.6669292-0.2689724-0.9299021-0.5266266c-0.0388994-0.0381107-0.0652266-0.0890579-0.0973701-0.1340656
		c-0.0157871,0.0091362-0.0315752,0.0182724-0.0473623,0.0274105c0,0.1719685-0.0068703,0.3443089,0.0023918,0.5157776
		c0.0062723,0.1160831-0.0398626,0.1453609-0.1466751,0.1430473c-0.2539768-0.0055046-0.5083437-0.0078564-0.7621574,0.0004826
		c-0.1182108,0.0038853-0.1403236-0.0445442-0.1384592-0.1483364c0.0051699-0.2878799,0.0015965-0.5759182,0.0015984-0.8638916
		c0.0000095-2.371563,0.0017891-4.7431269-0.0037937-7.1146736c-0.0003757-0.15977,0.0460691-0.2004766,0.19736-0.1919003
		c0.2195148,0.0124445,0.4411106,0.015233,0.6601887-0.0005198c0.1651211-0.0118742,0.1925993,0.0523081,0.1913433,0.1999006
		c-0.006587,0.7735233-0.0029793,1.5471334-0.0029154,2.320714C13.572937,15.0742798,13.5729332,15.1417189,13.5729332,15.2605305z
		 M14.6069241,17.7102089c0-0.440197,0.000041-0.880394-0.0000172-1.3205929
		c-0.0000257-0.1918812,0.003931-0.3838787-0.0014343-0.575614c-0.0071125-0.2541828-0.1352005-0.3459053-0.3755331-0.2744837
		c-0.1761265,0.0523396-0.326375,0.1498079-0.46521,0.2683487c-0.1365891,0.1166229-0.1976233,0.2520275-0.1956415,0.4409447
		c0.0097723,0.9310856,0.0207348,1.862751-0.0039759,2.7932739c-0.008399,0.3162594,0.1271029,0.4971447,0.3611631,0.6485004
		c0.0706587,0.0456905,0.146821,0.0852795,0.2248764,0.1166973c0.3095369,0.1245804,0.4531422,0.030098,0.4546347-0.3024292
		C14.6084728,18.9066505,14.6065454,18.3084259,14.6069241,17.7102089z"/>
	<path style="fill:#EDEDED;" d="M10.4564505,20.0744495c-0.2884741,0.2830582-0.5685148,0.4971504-0.9005203,0.6355839
		c-0.4187527,0.1746025-0.8147039,0.0870438-1.0279284-0.233717c-0.1141663-0.1717472-0.1260881-0.3745975-0.1310835-0.5699863
		c-0.0139942-0.5473289-0.0168257-1.0950222-0.0179119-1.6425838c-0.0022964-1.1574669-0.0008049-2.3149433-0.0005598-3.472415
		c0.0000467-0.2188749,0.0007029-0.2191744,0.2252941-0.2191696c0.2145548,0.0000057,0.4295559,0.0092726,0.6435032-0.0019264
		c0.1391821-0.0072851,0.1686153,0.0453558,0.1683035,0.1741133c-0.0037603,1.5470505-0.0024433,3.0941143-0.0023785,4.6411743
		c0.0000219,0.5057335,0.1632357,0.6026382,0.6023407,0.3518887c0.0972519-0.0555363,0.1861658-0.1271496,0.2737646-0.1977558
		c0.1151733-0.0928268,0.1694136-0.2080593,0.1688442-0.3657513c-0.0053005-1.4679947-0.0006905-2.9360256-0.0068989-4.4040136
		c-0.0006638-0.1572323,0.0444117-0.2064743,0.1982679-0.1994743c0.2366533,0.010767,0.4742022,0.0061836,0.7112522,0.0017529
		c0.0951691-0.0017776,0.1295738,0.034049,0.1294813,0.1278276c-0.0019588,1.9930973-0.0027142,3.9861946-0.0014849,5.9792919
		c0.0000601,0.0973892-0.0378847,0.1262341-0.1303349,0.1248798c-0.2596598-0.0038128-0.519474-0.0036964-0.7791138,0.0010834
		c-0.0960665,0.0017681-0.1277971-0.0328255-0.1246367-0.1280861
		C10.4607944,20.4920273,10.4564505,20.3065434,10.4564505,20.0744495z"/>
	<path style="fill:#EDEDED;" d="M16.6935482,17.6865273c0-0.5308971-0.0077343-1.0619316,0.0018063-1.5926552
		c0.0144844-0.8056488,0.60746-1.4318514,1.4255066-1.520606c0.73493-0.0797386,1.4567642,0.440238,1.6409512,1.18507
		c0.0491295,0.1986637,0.0488739,0.4024878,0.0483189,0.6059866c-0.0010605,0.3897018-0.0037556,0.7794743,0.0026836,1.1690769
		c0.0019646,0.1190681-0.0372925,0.1536999-0.1547871,0.1526966c-0.5873299-0.005024-1.1747665,0.0014362-1.7620792-0.0046234
		c-0.1319275-0.001358-0.1765709,0.0348415-0.1739845,0.1712475c0.008461,0.4460335-0.0018501,0.8924179,0.0063877,1.338459
		c0.0073109,0.3956795,0.2813339,0.6299305,0.6327076,0.5562439c0.2355766-0.0494041,0.3943748-0.2413177,0.4045486-0.497303
		c0.0053806-0.1353397,0.0051575-0.2711926,0.0001945-0.4065514c-0.0031509-0.0859089,0.0234833-0.1205673,0.1145611-0.1189671
		c0.2710152,0.0047646,0.5421696,0.0018501,0.8132668,0.0018539c0.0580101,0,0.1142445-0.0034122,0.1167355,0.0817547
		c0.0148735,0.5088577-0.008812,1.0032921-0.3567963,1.4258118c-0.4021244,0.4882545-1.0867081,0.6937752-1.6990528,0.4905453
		c-0.612978-0.2034416-1.0475883-0.7740364-1.0581341-1.4115524c-0.0089645-0.5420246-0.0018501-1.0843143-0.0018501-1.6264858
		C16.6945324,17.6865292,16.6938763,17.6865273,16.6935482,17.6865273z M18.2525826,16.6503849c0,0,0,0.0003777,0,0.0005646
		c0.112875,0,0.2273121-0.011858,0.3382511,0.0027885c0.1653366,0.0218258,0.1890583-0.0596161,0.1781788-0.1948357
		c-0.0090237-0.1121769,0.000658-0.2257195-0.0036068-0.3384438c-0.0105915-0.2801018-0.22155-0.4983959-0.4894733-0.5104399
		c-0.2791557-0.0125465-0.5163879,0.1872177-0.5434551,0.4719439c-0.0143661,0.1510925-0.0020313,0.3045406-0.0086441,0.456625
		c-0.0040627,0.0934772,0.039959,0.115284,0.1224537,0.1128712C17.9816132,16.6474972,18.1171398,16.6503849,18.2525826,16.6503849z
		"/>
	<path style="fill:#EDEFEF;" d="M8.8842649,13.3632364c-0.00072,0.028203-0.00144,0.0564051-0.0021181,0.0845642
		c-0.0043898,0.0194359-0.0088205,0.0389147-0.0132504,0.0583944c-0.0207968,0.0236607-0.0465145,0.0242233-0.0741062,0.0158329
		c-0.4695044-0.0244493-0.9390397-0.0262232-1.4085636,0.0005875c-0.0205197,0.0204992-0.0410395,0.0410004-0.061522,0.0614519
		c-0.004468,0.0556841-0.012897,0.1114159-0.0129128,0.1671495c-0.0006456,2.3440075-0.0005407,4.6880169-0.0005283,7.0320244
		c-0.308455,0.0430832-0.6185517,0.0071945-0.9276414,0.0193901C6.3185949,20.8051968,6.2922697,20.77351,6.294806,20.7105389
		c0.0018148-0.0450592-0.0001101-0.0902653-0.0001106-0.1354065c-0.0000024-2.2854328,0.0001149-4.5708675-0.0003181-6.8563013
		c-0.0000162-0.0846968,0.0307693-0.1895666-0.1097713-0.1973562c-0.4583788-0.0231857-0.9167709-0.0268106-1.3751092,0.0022907
		c-0.0855618,0.0138874-0.073143-0.0495424-0.073338-0.097271C4.7350297,13.1499252,4.7401028,12.87325,4.7338967,12.596817
		c-0.0026169-0.1165504,0.0662932-0.1069174,0.1419258-0.1068411c0.5757275,0.0005836,1.1514568,0.0002155,1.7271852,0.0001869
		c0.6942611-0.0000353,1.3885231-0.0003748,2.0827823,0.000555c0.0614529,0.000083,0.1228943,0.0085649,0.1843414,0.0131388
		C8.8792038,12.7902393,8.8525877,13.0772181,8.8842649,13.3632364z M6.3793993,13.5090055
		c-0.0086818,0.0051146-0.0170364,0.0100355-0.0253901,0.0149565c0.0084472,0.0047703,0.0168891,0.0132532,0.0253444,0.0132666
		c0.0084496,0.0000134,0.0169129-0.0084476,0.0253711-0.0131922C6.3963914,13.5190897,6.3880577,13.5141439,6.3793993,13.5090055z
		 M7.2495251,13.5156708c-0.0048528,0.0014296-0.0105214,0.0018549-0.0141411,0.0047998
		c-0.0013809,0.0011225,0.0019369,0.0080204,0.0031137,0.0122871c0.0048547-0.0014458,0.0105047-0.0019064,0.0141511-0.0048485
		C7.2540131,13.5268097,7.2507033,13.5199203,7.2495251,13.5156708z"/>
	<path style="fill:#EDEDED;" d="M7.3112636,20.7832413c-0.0000124-2.3440075-0.0001173-4.6880169,0.0005283-7.0320244
		c0.0000157-0.0557337,0.0084448-0.1114655,0.0129137-0.1671495c0.0040741,0.0615368,0.0117617,0.123023,0.0117807,0.1845121
		c0.00071,2.2848816,0.0008845,4.5697632-0.0002542,6.8546467C7.336205,20.6765995,7.3594046,20.7363243,7.3112636,20.7832413z"/>
	<path style="fill:#EDEDED;" d="M7.3862267,13.5226154c0.4695239-0.0268106,0.9390593-0.0250368,1.4085636-0.0005875
		C8.3252487,13.5392427,7.8557405,13.5386381,7.3862267,13.5226154z"/>
	<path style="fill:#EDEDED;" d="M4.8094969,13.5237656c0.4583383-0.0291014,0.9167304-0.0254765,1.3751092-0.0022907
		C5.7262383,13.5410185,5.2678738,13.5362005,4.8094969,13.5237656z"/>
	<path style="fill:#EDEDED;" d="M8.8842649,13.3632364c-0.0316772-0.2860184-0.0050611-0.5729971-0.0141335-0.8593798
		C8.9216661,12.7895517,8.8953171,13.076519,8.8842649,13.3632364z"/>
	<path style="fill:#EDEDED;" d="M8.8688965,13.5061951c0.0044298-0.0194798,0.0088606-0.0389585,0.0132504-0.0583944
		C8.8910532,13.4703169,8.9151993,13.4962301,8.8688965,13.5061951z"/>
	<path style="fill:#E64D3E;" d="M14.6067352,17.7102089c-0.0001898,0.598217,0.0017376,1.1964417-0.0009489,1.7946453
		c-0.0014925,0.3325272-0.1450977,0.4270096-0.4546347,0.3024292c-0.0780554-0.0314178-0.1542177-0.0710068-0.2248764-0.1166973
		c-0.2340603-0.1513557-0.3695621-0.3322411-0.3611631-0.6485004c0.0247107-0.9305229,0.0137482-1.8621883,0.0039759-2.7932739
		c-0.0019817-0.1889172,0.0590525-0.3243217,0.1956415-0.4409447c0.138835-0.1185408,0.2890835-0.2160091,0.46521-0.2683487
		c0.2403326-0.0714216,0.3684206,0.0203009,0.3755331,0.2744837c0.0053654,0.1917353,0.0014086,0.3837328,0.0014343,0.575614
		C14.6069651,16.8298149,14.6069241,17.2700119,14.6067352,17.7102089z"/>
	<path style="fill:#E64D3E;" d="M18.2525826,16.6503849c-0.1354427,0-0.2709694-0.0028877-0.4062958,0.0010738
		c-0.0824947,0.0024128-0.1265163-0.0193939-0.1224537-0.1128712c0.0066128-0.1520844-0.005722-0.3055325,0.0086441-0.456625
		c0.0270672-0.2847261,0.2642994-0.4844904,0.5434551-0.4719439c0.2679234,0.012044,0.4788818,0.2303381,0.4894733,0.5104399
		c0.0042648,0.1127243-0.0054169,0.2262669,0.0036068,0.3384438c0.0108795,0.1352196-0.0128422,0.2166615-0.1781788,0.1948357
		c-0.110939-0.0146465-0.2253761-0.0027885-0.3382511-0.0027885C18.2525826,16.6507626,18.2525826,16.6505718,18.2525826,16.6503849
		z"/>
	<path style="fill:#EDEDED;" d="M6.3793993,13.5090055c0.0086584,0.0051384,0.0169921,0.0100842,0.0253253,0.0150309
		c-0.0084581,0.0047445-0.0169215,0.0132055-0.0253711,0.0131922c-0.0084553-0.0000134-0.0168972-0.0084963-0.0253444-0.0132666
		C6.3623629,13.5190411,6.3707175,13.5141201,6.3793993,13.5090055z"/>
	
		<ellipse transform="matrix(0.5422323 -0.8402286 0.8402286 0.5422323 -8.0473461 12.2775707)" style="fill:#EDEDED;" cx="7.2440138" cy="13.5242023" rx="0.0101683" ry="0.0093994"/>
</g>
</svg>
