<svg id="Слой_1" data-name="Слой 1" xmlns="http://www.w3.org/2000/svg" viewBox="0 0 40.44 42"><defs><style>.cls-1{fill:#fdfdfd;}.cls-2{fill:#fecb00;}.cls-3{fill:#fbfaf9;}.cls-4{fill:#bebebe;}.cls-5{fill:#cacaca;}.cls-6{fill:#c9c9c9;}.cls-7{fill:#d2d2d2;}.cls-8{fill:#cfcfcf;}.cls-9{fill:#ededed;}.cls-10{fill:#241f20;}.cls-11{fill:#fed200;}.cls-12{fill:#fccf00;}.cls-13{fill:#28231f;}.cls-14{fill:#29231f;}.cls-15{fill:#211e20;}.cls-16{fill:#1c1a20;}.cls-17{fill:#e5b704;}.cls-18{fill:#3c331c;}.cls-19{fill:#131322;}.cls-20{fill:#151422;}.cls-21{fill:#332c1e;}.cls-22{fill:#615117;}.cls-23{fill:#27231f;}.cls-24{fill:#191821;}.cls-25{fill:#141322;}.cls-26{fill:#201d21;}.cls-27{fill:#070924;}.cls-28{fill:#1a1821;}.cls-29{fill:#ad8c0c;}.cls-30{fill:#d7ae05;}.cls-31{fill:#f6d601;}.cls-32{fill:#d0a706;}.cls-33{fill:#fedb00;}.cls-34{fill:#f7c901;}.cls-35{fill:#473c1b;}.cls-36{fill:#352c1e;}.cls-37{fill:#342c1d;}.cls-38{fill:#231f20;}.cls-39{fill:#171622;}.cls-40{fill:#fcd900;}.cls-41{fill:#feda00;}.cls-42{fill:#0c0c23;}.cls-43{fill:#fedd00;}.cls-44{fill:#6a5716;}.cls-45{fill:#b5920b;}.cls-46{fill:#5b4b18;}.cls-47{fill:#a3840d;}.cls-48{fill:#907410;}.cls-49{fill:#b18f0b;}.cls-50{fill:#0a0b23;}.cls-51{fill:#0c0d23;}.cls-52{fill:#fed700;}.cls-53{fill:#94780f;}.cls-54{fill:#4e401a;}.cls-55{fill:#5e4d17;}.cls-56{fill:#040525;}.cls-57{fill:#c09d09;}.cls-58{fill:#f0c002;}.cls-59{fill:#896f11;}.cls-60{fill:#fed300;}.cls-61{fill:#ebbd03;}.cls-62{fill:#0d0e23;}.cls-63{fill:#f8d101;}.cls-64{fill:#121023;}.cls-65{fill:#fed800;}.cls-66{fill:#fed900;}.cls-67{fill:#635117;}.cls-68{fill:#000125;}.cls-69{fill:#27211f;}.cls-70{fill:#c8a908;}.cls-71{fill:#40361b;}.cls-72{fill:#43381b;}.cls-73{fill:#b7940a;}.cls-74{fill:#fede00;}.cls-75{fill:#28221f;}.cls-76{fill:#3f351c;}.cls-77{fill:#2d271e;}.cls-78{fill:#161522;}.cls-79{fill:#050624;}.cls-80{fill:#d3aa06;}.cls-81{fill:#f9d701;}.cls-82{fill:#e0b704;}.cls-83{fill:#f7c801;}.cls-84{fill:#221f20;}.cls-85{fill:#fedc00;}.cls-86{fill:#e6c104;}.cls-87{fill:#9c7e0e;}.cls-88{fill:#121222;}.cls-89{fill:#000325;}.cls-90{fill:#96790f;}.cls-91{fill:#112;}.cls-92{fill:#000126;}.cls-93{fill:#f5c601;}.cls-94{fill:#a1820d;}.cls-95{fill:#131222;}.cls-96{fill:#040524;}.cls-97{fill:#0b0b23;}.cls-98{fill:#211d20;}.cls-99{fill:#111123;}.cls-100{fill:#8c7111;}.cls-101{fill:#191721;}</style></defs><title>Монтажная область 2</title><path class="cls-1" d="M28.3,41.16c-2,.23-4.06-.4-6,.37H19.79c-.58-.61-1.33-.34-2-.34a63.12,63.12,0,0,1-13.34-1c-.83-.18-1.78-.3-1.72-1.35s1-1,1.72-1.2c1.68-.48,3.48-.27,5.1-1a1.27,1.27,0,0,1,1.82.91c-.59.78-1.47.6-2.27.62a9.44,9.44,0,0,0-4.1.79c6,1.22,12.13,1,18.23,1a6.06,6.06,0,0,1,1.51.14,8.06,8.06,0,0,0,2.06.25C27.39,40.41,28.15,40.25,28.3,41.16Z"/><path class="cls-2" d="M18,37.3c-4-1.17-8-2.17-11.44-4.6C1.36,29-.12,23.47.55,17.41c.56-5.13,2.64-9.86,5-14.43C6.76.52,9.14-.17,12.06.78A22.18,22.18,0,0,1,20,5.94c7,6.4,12.37,14.16,17.69,21.93a13.34,13.34,0,0,1,1.94,4.52c.81,3.43,0,5-3.23,6.38-2.12,1.23-4.46.89-6.71.75a60.81,60.81,0,0,1-9.9-1.44A3.47,3.47,0,0,1,18,37.3Z"/><path class="cls-3" d="M18,37.3c3.14.39,6.22,1.21,9.39,1.49a41.81,41.81,0,0,0,9,0c-.25.31-.75.46-.69,1-.45.93-1.33.83-2.13.86-1,0-2,0-3,0a11.85,11.85,0,0,1-1.83-.14,6.69,6.69,0,0,0-2.32-.24,58.7,58.7,0,0,1-6.74-1.16c-.63-.15-1.46-.12-1.67-1Z"/><path class="cls-4" d="M28.65,40.09l1.73,0c0,.69-.58.71-1,.65-1.55-.22-3.12,0-4.65-.31l-1.38,0A31.73,31.73,0,0,1,14,38.64c-.64-.26-1.36-.37-1.72-1.07.5-.82,1.19-.42,1.84-.28a13.85,13.85,0,0,0,3.87.77c2.74,1,5.65,1.23,8.5,1.74C27.18,40.17,28,39.7,28.65,40.09Z"/><path class="cls-5" d="M24.72,40.47c1.88-.22,3.81.41,5.65-.34,1.77-.2,3.58.32,5.32-.38,1.13.05,2.09-.62,3.25-.72a3.25,3.25,0,0,1-2.58,1.77c-2.66.64-5.37.26-8.06.35C27.22,40.35,25.8,41.29,24.72,40.47Z"/><path class="cls-6" d="M14.14,37.28c-.59.09-1.25-.23-1.76.32-.47.28-.79,0-1.1-.3-.69,0-1-.81-1.74-.7A13.45,13.45,0,0,1,6.7,34.84c-.08-.34,0-.51.39-.4A29.93,29.93,0,0,0,14.14,37.28Z"/><path class="cls-7" d="M5.66,34.11a2.79,2.79,0,0,1-1.3-1.39,3.47,3.47,0,0,1,1.67,1A.43.43,0,0,1,5.66,34.11Z"/><path class="cls-8" d="M5.66,34.11,6,33.74l1.06.7-.39.4Z"/><path class="cls-9" d="M11.29,37.31l1.1.3a73,73,0,0,0,11,2.85c-5.21.09-10.42,0-15.61-.36a16.61,16.61,0,0,1-2.93-.48c-.43-.11-1.21,0-1.15-.81,0-.6.72-.6,1.11-.67a21.32,21.32,0,0,1,4.86-.52C10.18,37.66,10.81,37.83,11.29,37.31Z"/><path class="cls-10" d="M14.81,13.62c.35.28.48.89,1.11.75.54,0,.81-.19.73-.75l0-.35c0-.49-.12-1.1.68-1.14.85.3,1.71.7,1.75-.82,0-.8.54-.73,1.08-.47.35.43,0,1,.28,1.43.7,1,1.76.45,2.65.6,1,.4,2.44.24,2.67,1.82.07,1,1.25,2.25-.65,2.79l-.37.06a1.39,1.39,0,0,1-1.36-.06,2.93,2.93,0,0,0-2.82-1c-.3.28-.54.68-1,.6-.85-.67-.46.72-1,.59a1.4,1.4,0,0,0-1.23.42c-.49.22-1,.19-1.54.37s-.19.61-.24.93a1.2,1.2,0,0,1-.62,1c-1.81,1.26-2.56,3.34-3.88,5-.94-.11-.61-.91-.74-1.42-.17-.71.22-1.5-.29-2.17-.44-.1-.62-.38-.28-.71A1.54,1.54,0,0,0,10,19c-.3-.7-.16-1.49,1-1,.46.21.92.34,1.27-.06s.24-1.08-.15-1.57c0-.88.79-.21,1-.59a1.56,1.56,0,0,0,.68-1.46C13.92,13.82,14.2,13.47,14.81,13.62Z"/><path class="cls-11" d="M24.76,26.37,24.43,26a3.62,3.62,0,0,1-1.11-1.12c-.22-.68-1.06-.5-1.41-1l.15-.17A8.48,8.48,0,0,0,23.68,23a3.94,3.94,0,0,1,1.36.11,3.5,3.5,0,0,1,.45.11,2.6,2.6,0,0,0,1.56.07l.23,0h.23l.23,0c.65,0,1.28.4,2,.19.88-.32,1.47.26,2.11.69-.38.55-1.21.25-1.58.83-.15.45-.12,1-.55,1.29l-.48.06a.68.68,0,0,1-.38-.14,2.17,2.17,0,0,0-.69-.47,5.09,5.09,0,0,0-2.09,0l-.35.26a2.46,2.46,0,0,1-.53.38A.41.41,0,0,1,24.76,26.37Z"/><path class="cls-12" d="M14.9,20.33l.36-1.07c.1-1.09,1-1,1.72-1.14a1,1,0,0,0,.33-.31c.24-.67.61-.7,1.09-.21.55.19.53-.69,1-.56a3.73,3.73,0,0,0,1.1.11c.1.42,1,.43.56,1.12a1,1,0,0,0,.12,1.36l.37.34-.2.2c-.52.33-1.09.15-1.64.16-1.12.27-2.32-.2-3.41.33Z"/><path class="cls-13" d="M25,23.45c-.54.24-.92-.19-1.37-.33a.37.37,0,0,1-.53,0,2.37,2.37,0,0,1-.29-2.79.69.69,0,0,1,.83-.08c.54.81,1.11,1.14,1.77.12.37.3,1,0,1.26.45a3.4,3.4,0,0,1,.06,2.46c-.19.4-.51.35-.83.22S25.36,23.12,25,23.45Z"/><path class="cls-14" d="M14.83,25.33,14.51,25c1.62-.92,2.86-.81,3.54.32h0c-.44,1.24-.12,2.53-.22,3.8-.06.75.11,1.53-.4,2.19a.41.41,0,0,1-.56-.08c-.09-1.85-.05-3.69,0-5.08-.13,1.38.07,3.23-.07,5.07a.39.39,0,0,1-.55.09c-.2-1.8-.06-3.59-.1-4.94-.09,1.31.05,3.08,0,4.84a.4.4,0,0,1-.53.17c-.64-1.22-.17-2.54-.31-3.8C15.12,26.78,15.42,26,14.83,25.33Z"/><path class="cls-15" d="M32.47,31.08c-.47,1.64-1.6.62-2.47.6l0-.31c.18-2.15-.29-4.32.26-6.46,1.24-.44,1.19.53,1.26,1.23.13,1.32,0,2.65.11,4a.92.92,0,0,0,.27.45C32.12,30.71,32.39,30.79,32.47,31.08Z"/><path class="cls-16" d="M21.89,26.07q0,.13,0,.27l0,.25a3,3,0,0,1-.13.48c-.31.71.23,1.75-.83,2.17-.64-.43-.4-1.15-.58-1.73a.24.24,0,0,0-.25-.18.37.37,0,0,0-.18.31c-.11.56-.12.55-1.1,1-.19.1,0,.33,0,.5,0,1.2.36,2.44-.39,3.56a.43.43,0,0,1-.5-.14,9.51,9.51,0,0,0-.21-1.18c.14-1.83-.33-3.69.3-5.49A8.34,8.34,0,0,1,21.89,26.07Z"/><path class="cls-17" d="M18,26,18,31.63a.63.63,0,0,1-.3.35l-.49-.08a.54.54,0,0,1,.09-.62c0-1.56,0-3.13.07-4.69,0-.53-.23-1.24.68-1.32q0,.17,0,.35Q18.33,25.82,18,26Z"/><path class="cls-18" d="M16.32,20.65c0-.93.66-.6,1.11-.62.76,0,1.52,0,2.29,0,.29.19.28.38,0,.58-1.52.61-.39,1.86-.67,2.77a.25.25,0,0,1-.37.16c-.5-.57-.34-1.29-.45-2.2-.21.87,0,1.63-.5,2.19a.23.23,0,0,1-.37-.15l.05.09c-.66-.84.08-1.91-.45-2.77Z"/><path class="cls-19" d="M29,20.74c-.05.51,1.34.93,0,1.57-.33.16.16.81.34,1.21a1.81,1.81,0,0,1-1.58,0,3.22,3.22,0,0,1,0-3.18C28.31,20.19,28.91,19.76,29,20.74Z"/><path class="cls-20" d="M20.1,21a.39.39,0,0,0,0-.33c.14-.85.71-.49,1.18-.42a3.49,3.49,0,0,1,.18,3l-.21.24c-.46.11-1.09.71-1.12-.4A3.68,3.68,0,0,1,20.1,21Z"/><path class="cls-21" d="M29,26.29a.25.25,0,0,0,.23.11c0,2,.1,4,.07,5.95,0,1.11-.49,1.78-1.73,1.08a.37.37,0,0,1,0-.45c.32-.33,1-.37,1-1,.17-1.82-.27-3.66.28-5.46Z"/><path class="cls-22" d="M24.45,34.47a1,1,0,0,0-.07.3,1.47,1.47,0,0,1-1.74-.07l0-7.26c.37-.1.5.15.63.42.35,1.87,0,3.77.2,5.65.06.33.31.41.6.42a.73.73,0,0,1,.37.16A.37.37,0,0,1,24.45,34.47Z"/><path class="cls-23" d="M20.85,29.16c.8-.66-.09-1.8.7-2.47.63.66.25,1.48.36,2.22v.26l-.11.74a5.45,5.45,0,0,1-.1,2.71c-.71.33-.74-.28-.86-.67s0-1.17-.48-1.63a1.14,1.14,0,0,1-.3-.68A.75.75,0,0,1,20.85,29.16Z"/><path class="cls-19" d="M10,21.7c.88-.25.55.43.62.8.17.93-.39,2,.41,2.79l-.09,1.37c-.89.08-.21-.84-.66-1A14.15,14.15,0,0,1,10,21.7Z"/><path class="cls-24" d="M20.51,29.88c1.33.57.18,2.06,1,2.81a.32.32,0,0,1,.44,0,.56.56,0,0,1-.12.7l-1.32,0a3.43,3.43,0,0,1-.4-3A1.43,1.43,0,0,1,20.51,29.88Z"/><path class="cls-25" d="M25.1,17.48c1.28-.68.24-1.9.65-2.79a2.69,2.69,0,0,1,.74,2.06C26.43,17.8,26.06,18.18,25.1,17.48Z"/><path class="cls-26" d="M29.67,26.33l0-1.67q.27-.33.47,0c0,2.26.12,4.52-.06,6.77l-.13.2C29.42,29.93,30,28.1,29.67,26.33Z"/><path class="cls-27" d="M4.61,23.2a1.5,1.5,0,0,0-.35,0l-2.05.48c0-.17-.16-.42-.09-.48a3,3,0,0,1,2.1-.8c.23,0,.46,0,.7,0,.34-.16.44,0,.49.32C5.23,23,5,23.29,4.61,23.2Z"/><path class="cls-28" d="M14.82,7.41a2,2,0,0,1-1.05-.82c-.2-.44-.75-1-.24-1.37s1,0,1.34.59A1.73,1.73,0,0,1,14.82,7.41Z"/><path class="cls-29" d="M24.39,27.09l.35-.1c1,1.92.39,3.94.39,5.92-.22.32-.1,1-.8.82-.82-1.88-.31-3.85-.37-5.78A1.51,1.51,0,0,1,24.39,27.09Z"/><path class="cls-30" d="M14.83,25.33c1-.06.69.73.71,1.23.05,1.58.05,3.15.07,4.73a.25.25,0,0,1-.09.35H15.2c-.47-2,.14-4-.34-6A1.83,1.83,0,0,0,14.83,25.33Z"/><path class="cls-31" d="M32.47,31.08,31.78,31c-.62-2-.32-4.09-.18-6.15l.22-.25c.68,1,.24,2.15.32,3.23A10.77,10.77,0,0,0,32.47,31.08Z"/><path class="cls-32" d="M24.79,33.09,24.73,27l0-.62.29-.06c1.1,1.93.39,4,.48,6a1.77,1.77,0,0,1-.21.57A.44.44,0,0,1,24.79,33.09Z"/><path class="cls-33" d="M14.85,25.6c.76,2,.16,4,.34,6-.79-1-.21-2.08-.33-3.11A25.67,25.67,0,0,1,14.85,25.6Z"/><path class="cls-34" d="M18,25.28c-1-1.6-2.33-.56-3.54-.32.67-.8,3.17-1.1,3.74-.42C18.46,24.79,18.29,25.07,18,25.28Z"/><path class="cls-35" d="M13.08,15.8l-1,.59-2.17-1q-.18-.13-.11-.24c0-.07.09-.1.14-.1l.35-.07a2.45,2.45,0,0,1,1.76.65Z"/><path class="cls-36" d="M21.21,19.62c-.56,0-1,0-1-.75s.52-.54.91-.61A.93.93,0,0,1,21.21,19.62Z"/><path class="cls-37" d="M26.91,33c-.52.61-1.18.33-1.81.3q-.16-.07-.14-.18T25,33l.16,0a7.69,7.69,0,0,1,.65-.66c.51-.68-.07-1.74.8-2.29a.52.52,0,0,1,.47.29A2.75,2.75,0,0,1,26.91,33Z"/><path class="cls-38" d="M23.32,24.86q1.19-.07,1.11,1.12l-.41.33a.87.87,0,0,1-1-.66C22.79,25.26,22.57,24.9,23.32,24.86Z"/><path class="cls-11" d="M21.58,20l.34.36a3.68,3.68,0,0,1,.34,3,2.5,2.5,0,0,1-.34.53h0a.71.71,0,0,1-.68-.31l-.05-.1c.44-1,.11-2,.21-3a.64.64,0,0,1,.17-.51Z"/><path class="cls-39" d="M23.08,12.86a2.44,2.44,0,0,1-2.93-.31.53.53,0,0,1,.74,0A4.43,4.43,0,0,1,23.08,12.86Z"/><path class="cls-40" d="M25,33a.71.71,0,0,1,.09.31c.19.49.7.31,1.33.67-.92-.13-1.22.8-2,.45l-.11-.39a.2.2,0,0,1,.1-.31l.35-.68Z"/><path class="cls-34" d="M18,26q0-.2,0-.39c1.28.21,2.66-.46,3.85.45A15.53,15.53,0,0,0,18,26Z"/><path class="cls-41" d="M17.31,12.13c-.54.19-.23.89-.68,1.14a1.26,1.26,0,0,1-.1-1.77,1,1,0,0,1,.76.3Q17.3,12,17.31,12.13Z"/><path class="cls-42" d="M15.52,31.64l.09-.35h.29q.18-.26.36,0h.34c.12-.18.24-.17.37,0l.3,0-.09.62C16.64,31.79,16,32.08,15.52,31.64Z"/><path class="cls-43" d="M27.57,23.5h-.36a3.36,3.36,0,0,1,0-3.2l.38-.33A8.32,8.32,0,0,1,27.57,23.5Z"/><path class="cls-44" d="M9.91,15.07q0,.17,0,.34a3.91,3.91,0,0,1-2.11-.73.22.22,0,0,1-.09-.25q0-.12.09-.12A5,5,0,0,1,9.91,15.07Z"/><path class="cls-45" d="M21.93,23.48l0-3.15.37-.07a.35.35,0,0,1,.45.2c-.31,1,.2,2.05-.32,3A.29.29,0,0,1,21.93,23.48Z"/><path class="cls-46" d="M27.57,23.5l0-3.52a.5.5,0,0,1,.33.06q.18.1.12.2c0,.07-.08.1-.11.1V23.5a.2.2,0,0,1-.35,0Z"/><path class="cls-47" d="M20.5,30.22l.06,3.13-.44-.29A2.61,2.61,0,0,1,20,30.34.38.38,0,0,1,20.5,30.22Z"/><path class="cls-48" d="M27.61,33l-.07.39-.37-.37a8.09,8.09,0,0,1-.05-2.78.41.41,0,0,1,.57,0A2.53,2.53,0,0,1,27.61,33Z"/><path class="cls-49" d="M24.39,27.09v.68A1.44,1.44,0,0,1,24,28a1.28,1.28,0,0,1-.68,0,.88.88,0,0,1-.33-.31l-.31-.25C23.12,26.77,23.8,27.13,24.39,27.09Z"/><path class="cls-50" d="M4.71,13.95c-.16-.28-.75-.61-.42-.81A1.4,1.4,0,0,1,6,13.59l-.12.19C5.53,13.94,5.17,14.32,4.71,13.95Z"/><path class="cls-51" d="M22,32.7h-.42c.13-.93-.26-1.9.25-2.79l.4.59C21.91,31.2,22.25,32,22,32.7Z"/><path class="cls-52" d="M22.66,20.36l-.38-.11c.1-.77.7-.64,1.19-.62s.33.34.23.61l-.73.15C22.85,20.51,22.75,20.51,22.66,20.36Z"/><path class="cls-53" d="M27.22,20.31v3.2h0a.28.28,0,0,1-.47-.06c-.1-.87,0-1.74,0-2.61a.59.59,0,0,1,.2-.51A.66.66,0,0,1,27.22,20.31Z"/><path class="cls-54" d="M27.93,20.35q0-.15,0-.31c.41,0,.81,0,1.22,0s.83-.13.77.38-.57.27-.89.36C28.78,20.27,28.34,20.37,27.93,20.35Z"/><path class="cls-55" d="M5.28,22.72l-.36-.32c.51-.51,1.24-.34,1.83-.58a.6.6,0,0,1,.38.31L6,22.54C5.81,22.72,5.63,23.09,5.28,22.72Z"/><path class="cls-56" d="M14.81,13.62l-1.05.71a.54.54,0,0,1,.08-.88C14.18,13.2,14.57,13.12,14.81,13.62Z"/><path class="cls-57" d="M22,32.7c.17-.73-.13-1.5.23-2.21,0,1,.5,2-.33,2.89Z"/><path class="cls-58" d="M27.18,30.26q0,1.39,0,2.79h-.26V30.23A.17.17,0,0,1,27.18,30.26Z"/><path class="cls-59" d="M7.78,14.32v.37l-.38.07a2.34,2.34,0,0,1-1.71-.09,1.22,1.22,0,0,1-.05-.29C6,13.79,6.58,14.14,7,14A.66.66,0,0,1,7.78,14.32Z"/><path class="cls-23" d="M21.91,26.33a3.3,3.3,0,0,1,0,2.83l-.1-.14a11,11,0,0,1,0-2.58Z"/><path class="cls-60" d="M19.44,33.46c.32.62-.07.65-.53.65s-.86,0-.53-.64A.65.65,0,0,1,19.44,33.46Z"/><path class="cls-61" d="M20.17,30.18l-.05,2.87-.27,0-.22-.17a1.48,1.48,0,0,1-.21-.5,3.13,3.13,0,0,1,.25-2.12A.41.41,0,0,1,20.17,30.18Z"/><path class="cls-43" d="M17,20.72c1,.79.29,1.85.45,2.77C16.51,22.68,17.16,21.63,17,20.72Z"/><path class="cls-62" d="M23.06,25.64l1,.66a.74.74,0,0,1-1,.16C22.48,26.15,23,25.92,23.06,25.64Z"/><path class="cls-44" d="M16.29,9.88c-.85-.57-1-.94-.81-1.49C16.11,8.59,16.06,9.06,16.29,9.88Z"/><path class="cls-63" d="M12,15.66,10.26,15A1.17,1.17,0,0,1,12,15.66Z"/><path class="cls-64" d="M20.53,17.14c-.37.25-.74.48-1.12,0q-.14-.15-.07-.26t.12-.11l1.09-.34Z"/><path class="cls-65" d="M23.37,17.48l1.36.06c-.66.54-1.39.28-2.14.23C22.78,17.38,23.11,17.54,23.37,17.48Z"/><path class="cls-66" d="M5.28,22.72,6,22.54c-.1,1-.71.95-1.41.66Z"/><path class="cls-67" d="M17.3,11.8a.73.73,0,0,1-.76-.3c0-.29-.32-.81.19-.78S17.16,11.4,17.3,11.8Z"/><path class="cls-68" d="M7,14c-.34.61-1,.15-1.41.37l0-.06c-.23-.39.14-.49.33-.68l0,0C6.47,13.48,6.71,13.84,7,14Z"/><path class="cls-69" d="M20.89,12.54l-.74,0V10.84C20.79,11.23,20.1,12.21,20.89,12.54Z"/><path class="cls-34" d="M30,24.63h-.17l-.17,0c.55-.84,1.39-.31,2.09-.46q0,.17,0,.35l-.05,0a1,1,0,0,1-.39.21,6.44,6.44,0,0,0-.9-.07A.71.71,0,0,1,30,24.63Z"/><path class="cls-70" d="M20.1,21v2.13A1.84,1.84,0,0,1,20.1,21Z"/><path class="cls-71" d="M10.26,25.62l.66,1c0,.27.07.93-.43.28C10.25,26.64,10.33,26.07,10.26,25.62Z"/><path class="cls-72" d="M7.13,22.13l-.38-.31c.55-.05,1-.51,1.65-.29C8.17,22.21,7.59,22,7.13,22.13Z"/><path class="cls-34" d="M27.57,23.48l.35,0,1.49,0a1,1,0,0,1,.28,0A1.57,1.57,0,0,1,27.57,23.48Z"/><path class="cls-73" d="M21.56,20l0,.38c-.12.14-.23.15-.34,0-.44-.09-.85-.09-1.12.36l-.35-.08,0-.58Z"/><path class="cls-74" d="M5.68,14.66l1.71.09C6.81,15.06,6.22,15.35,5.68,14.66Z"/><path class="cls-75" d="M6,13.63l-.33.68c-.38,0-.76.08-1-.36Z"/><path class="cls-34" d="M18.72,23.46a.65.65,0,0,0,.34-.07c-.56.71-1.13.72-1.7,0l.34,0A.8.8,0,0,1,18.72,23.46Z"/><path class="cls-76" d="M19.44,33.46H18.38a1,1,0,0,0-.3-.09q-.3-.22,0-.44c.56-.16,1.12-.42,1.62.13l.15,0Z"/><path class="cls-77" d="M14.82,7.41l0-1.6C15.16,6.35,15.54,6.89,14.82,7.41Z"/><path class="cls-41" d="M22.64,34.7l1.74.07C23.78,35.33,23.19,35.4,22.64,34.7Z"/><path class="cls-78" d="M16.66,13.62a.43.43,0,0,1,.08.7c-.24.28-.52.4-.82.06Z"/><path class="cls-79" d="M26.89,20.3l-.08.37c-.1.17-.2.19-.32,0-.37,0-.78.07-1-.33A1.42,1.42,0,0,1,26.89,20.3Z"/><path class="cls-80" d="M18.08,33a.75.75,0,0,0,0,.34c-.61-.32-.35-.9-.41-1.39l.3-.35.1,1.06q.15.11.1.22T18.08,33Z"/><path class="cls-5" d="M28.65,40.09c-.72-.07-1.49.28-2.14-.31C27.23,39.83,28,39.53,28.65,40.09Z"/><path class="cls-81" d="M17.32,18.21c-.54.63-1.7.07-2.07,1,.09-.36-.91-.92.2-1.09A2.57,2.57,0,0,1,17.32,18.21Z"/><path class="cls-82" d="M19.46,16.79l-.05.37c-.36.09-.36,1-1,.44C19.08,17.76,18.3,16,19.46,16.79Z"/><path class="cls-83" d="M17.32,18.21l-1.86,0c.54-.51,1.24-.2,1.85-.36Z"/><path class="cls-84" d="M27.18,30.26l-.14,0H26.9l-.39,0c-.49.89.11,1.92-.35,2.82l-1,0L25,26.32l.4-.41c1.16-.26,2.35-.77,3.34.4,0,2.09.05,4.18,0,6.27-.8.62-.92.08-1-.57s.23-1.24-.23-1.78A1.09,1.09,0,0,0,27.18,30.26Z"/><path class="cls-34" d="M28.64,26.28c-1-.73-2.14-.15-3.2-.38q0-.14,0-.29a6.62,6.62,0,0,1,3.16,0,.67.67,0,0,1,.35.67.12.12,0,0,0,0,.18A.28.28,0,0,1,28.64,26.28Z"/><path class="cls-85" d="M28.61,25.61H25.45A3.25,3.25,0,0,1,28.61,25.61Z"/><path class="cls-86" d="M21.93,23.48a1.56,1.56,0,0,0,.35,0c.28-.29.56-.58,1-.46l.36.08c-.19,1.2-1.12.61-1.76.74Z"/><path class="cls-34" d="M26.86,23.51a.74.74,0,0,0,.35,0,1.22,1.22,0,0,1-1.77.07.5.5,0,0,1,.35-.33l.71.29Q26.67,23.19,26.86,23.51Z"/><path class="cls-87" d="M25.79,23.23l-.35.33-.4-.11c.07-.33,0-.81.42-.86S25.73,23,25.79,23.23Z"/><path class="cls-25" d="M23.31,23c-.27.33-.53.65-1,.46.1-1-.35-2.16.38-3.13a.39.39,0,0,1,.31,0A6.45,6.45,0,0,0,23.31,23Z"/><path class="cls-88" d="M26.86,23.51H26.5q0-1.42,0-2.83l.32,0Z"/><path class="cls-28" d="M16.27,31.27H15.9q0-2.79,0-5.57h.36Z"/><path class="cls-28" d="M17,31.27h-.37q0-2.78,0-5.57H17Z"/><path class="cls-89" d="M30,24.63l.34,0q.19.11.13.22c0,.07-.08.11-.12.11-.18,2.19.34,4.4-.27,6.57Q30.09,28.06,30,24.63Z"/><path class="cls-88" d="M30.39,24.92q0-.16,0-.33h1a22.42,22.42,0,0,1,0,6.34c-.74-1.44-.17-3-.35-4.47C31,25.87,31.37,25.09,30.39,24.92Z"/><path class="cls-90" d="M31.45,30.92l0-6.34a.83.83,0,0,1,.34,0q0,3.18,0,6.35h-.17Z"/><path class="cls-15" d="M20.17,30.18l-.4,0a1.65,1.65,0,0,0-.27.4c-.21.71.19,1.53-.4,2.17a.65.65,0,0,1-.72-.09v-6c1.06.68.44,1.6.87,2.18.49-.67-.22-1.61.6-2.13.54.69.35,1.52.46,2.3a1.06,1.06,0,0,1-.16.5l.36.38q0,.17,0,.34l-.16,0Z"/><path class="cls-91" d="M20.15,29.5q0-.15,0-.31v-.25c.06-.75-.2-1.54.29-2.24.79.71.25,1.64.41,2.45A.72.72,0,0,1,20.15,29.5Z"/><path class="cls-92" d="M21.79,26.44q0,1.29,0,2.58c-.54-.73-.11-1.56-.27-2.33Z"/><path class="cls-93" d="M20.16,29.2c-.76-.75-.29-1.65-.32-2.49a.47.47,0,0,1,.26.06,3,3,0,0,1,0,2.36Z"/><path class="cls-94" d="M20.12,29.12l0-2.36a.73.73,0,0,1,.34-.06C20.38,27.52,20.85,28.4,20.12,29.12Z"/><path class="cls-95" d="M18.38,32.69h.7a.45.45,0,0,1,.32-.19.41.41,0,0,1,.31.2l0,.36-1.61,0a.33.33,0,0,1,0-.33Z"/><path class="cls-96" d="M18.72,23.46a1,1,0,0,1-1,0c0-.81,0-1.61.05-2.42,0-.31.11-.58.47-.57s.45.29.46.6C18.69,21.84,18.7,22.65,18.72,23.46Z"/><path class="cls-71" d="M21.2,20.34a.49.49,0,0,1,.34,0c-.13,1,.41,2.14-.36,3.1Z"/><path class="cls-51" d="M28.64,26.28l.36.18-.09,6.23q-.14.19-.28,0Z"/><path class="cls-97" d="M28.63,32.69h.28c-.32.54-.85.28-1.3.33l-.1-2.8C28.53,30.76,27.16,32.36,28.63,32.69Z"/><path class="cls-98" d="M23.32,27.79H24a25.45,25.45,0,0,1,0,6.35.68.68,0,0,1-.72.3A27.53,27.53,0,0,1,23.32,27.79Z"/><path class="cls-99" d="M23.32,27.79q0,3.32,0,6.64c-.77-2.21-.16-4.5-.35-6.75Z"/><path class="cls-19" d="M24,34.14V27.79a.51.51,0,0,1,.34,0l.06,6q-.06.15-.1.31Z"/><path class="cls-28" d="M26.15,33c.15-.94-.36-2,.35-2.82C26.34,31.15,26.86,32.17,26.15,33Z"/><path class="cls-21" d="M19.72,32.7h-.28a3.86,3.86,0,0,1,0-2.47h.33Z"/><path class="cls-76" d="M26.92,29.12a1.4,1.4,0,0,1,0-2.08C28,27.73,27.66,28.42,26.92,29.12Z"/><path class="cls-100" d="M26.92,29.12c.27-.69.57-1.39,0-2.08.07-.35.35-.32.6-.35a3.14,3.14,0,0,1,0,2.47Z"/><path class="cls-51" d="M27.51,29.15q0-1.23,0-2.47A1.83,1.83,0,0,1,27.51,29.15Z"/><path class="cls-101" d="M19.44,30.22q0,1.24,0,2.47h-.36C19.23,31.87,18.76,31,19.44,30.22Z"/><path class="cls-18" d="M18.31,20.66v1.61C18,21.76,18,21.42,18.31,20.66Z"/></svg>