<svg id="Слой_1" data-name="Слой 1" xmlns="http://www.w3.org/2000/svg" viewBox="0 0 30 120"><defs><style>.cls-1{fill:#34b1e1;}.cls-2{fill:#28a9dc;}.cls-3{fill:#3eb8e4;}.cls-4{fill:#fdfdfd;}.cls-5{fill:#d1e4f0;}.cls-6{fill:#e64d3e;}.cls-7{fill:#bf3a2c;}.cls-8{fill:#222;}.cls-9{fill:#ededed;}.cls-10{fill:#edefef;}.cls-11{fill:#4c75a2;}.cls-12{fill:#fefefe;}.cls-13{fill:#febf50;}.cls-14{fill:#863ac7;}.cls-15{fill:#6d48c8;}.cls-16{fill:#c737aa;}.cls-17{fill:#5459ca;}.cls-18{fill:#a237b3;}.cls-19{fill:#df437c;}.cls-20{fill:#d53e8f;}.cls-21{fill:#fe9349;}.cls-22{fill:#e84869;}.cls-23{fill:#fb5345;}.cls-24{fill:#fe6b42;}.cls-25{fill:#f14d57;}.cls-26{fill:#fe8045;}</style></defs><title>Монтажная область 3</title><path class="cls-1" d="M3.4,110.47a10.24,10.24,0,0,1-.51-1.29,12.61,12.61,0,0,1-.6-4.58,12.55,12.55,0,0,1,2-6.13l.07-.09.14,0h20.8l.14,0a11.63,11.63,0,0,1,.85,1.52,12.64,12.64,0,0,1,.12,10.49l0,.08H19.14s0-.06,0-.08l.3-1.55.86-4.39,1-4.9a.42.42,0,0,0-.41-.53,1.42,1.42,0,0,0-.58.11l-2,.77L6.65,104.53a1.23,1.23,0,0,0-.39.23.46.46,0,0,0,0,.7,1.14,1.14,0,0,0,.51.32L8,106.2l2.05.7.21.67.87,2.89Z"/><path class="cls-2" d="M3.4,110.47h7.73l.1.32a3.13,3.13,0,0,0,.26.67.33.33,0,0,0,.54.09l.9-.83,1.27-1.17,0,0,3.23,2.52a1.06,1.06,0,0,0,.55.22.85.85,0,0,0,.88-.66c.08-.4.16-.79.24-1.19h7.21a9.72,9.72,0,0,1-.56,1.09,12.62,12.62,0,0,1-8.15,6,12.74,12.74,0,0,1-1.95.28,12.39,12.39,0,0,1-1.78,0,12.62,12.62,0,0,1-10.49-7.29Z"/><path class="cls-3" d="M25.41,98.37l-.14,0H4.47l-.14,0a10.26,10.26,0,0,1,.72-1,12.6,12.6,0,0,1,19.68,0A10.43,10.43,0,0,1,25.41,98.37Z"/><path class="cls-4" d="M19.14,110.47c-.08.4-.16.79-.24,1.19a.85.85,0,0,1-.88.66,1.06,1.06,0,0,1-.55-.22l-3.23-2.52,0,0c-.29-.26-.61-.48-.91-.73l-1.13-.89c-.11-.09-.11-.09,0-.19l.92-.85.49-.45,1-.86.75-.69,1.05-1,.47-.43,1-.92.56-.51a1.89,1.89,0,0,0,.29-.3.18.18,0,0,0,0-.21c0-.06-.11,0-.17,0a2.1,2.1,0,0,0-.53.29l-2.73,1.76-1.62,1-2.46,1.59L10,106.9,8,106.2l-1.26-.43a1.14,1.14,0,0,1-.51-.32.46.46,0,0,1,0-.7,1.23,1.23,0,0,1,.39-.23l11.68-4.64,2-.77a1.42,1.42,0,0,1,.58-.11.42.42,0,0,1,.41.53l-1,4.9-.86,4.39-.3,1.55S19.14,110.44,19.14,110.47Z"/><path class="cls-5" d="M10,106.9l1.06-.68,2.46-1.59,1.62-1,2.73-1.76a2.1,2.1,0,0,1,.53-.29c.06,0,.14,0,.17,0a.18.18,0,0,1,0,.21,1.89,1.89,0,0,1-.29.3l-.56.51-1,.92-.47.43-1.05,1-.75.69-1,.86-.49.45-.92.85c-.1.1-.1.1,0,.19l1.13.89c.3.24.62.47.91.73l-1.27,1.17-.9.83a.33.33,0,0,1-.54-.09,3.13,3.13,0,0,1-.26-.67l-.1-.32-.87-2.89Z"/><path class="cls-6" d="M5.45,22.86a4.24,4.24,0,0,1,0-.66.69.69,0,0,0,0-.56c0-.36,0-.71,0-1.07,0-1.13,0-2.27.07-3.4a10,10,0,0,1,.23-1.74A2.48,2.48,0,0,1,7.29,13.7a2.58,2.58,0,0,1,.83-.19c3.1-.18,6.21-.22,9.31-.17,1.61,0,3.23,0,4.84.2a2.46,2.46,0,0,1,2.23,2,20.17,20.17,0,0,1,.27,3.56c0,1.2,0,2.4,0,3.6,0,0,0,.09,0,.14s0-.14-.05-.21a1.35,1.35,0,0,1,0,.33c0,.05,0,.07.07.07s0,.16,0,.22,0-.06,0-.05,0,.07,0,.11a3.43,3.43,0,0,1-.68,1.85,2,2,0,0,1-1.38.75L21.32,26c-.51.05-1,.09-1.53.12q-1,.05-2,.07c-1,0-2.09,0-3.13,0-1.23,0-2.45,0-3.68-.06l-1.22-.05a3.64,3.64,0,0,1-.5,0c-.49-.09-1-.1-1.49-.16a2.14,2.14,0,0,1-1.44-.72,2.57,2.57,0,0,1-.65-1.34c-.06-.4-.12-.81-.18-1.23C5.44,22.7,5.5,22.79,5.45,22.86Zm4.31-6.33c.49,0,1,0,1.46,0a.07.07,0,0,0,.08,0s0,0,0-.06v-.09a4.09,4.09,0,0,0,0-.89H7.16c-.08,0-.15,0-.15.11,0,.29,0,.57,0,.86,0,0,0,.12.08.1.47,0,.95,0,1.42,0,.15,0,.11.12.11.2q0,3.55,0,7.1s0,.09,0,.14,0,.1.09.1c.32,0,.64,0,1,0,0,0,0-.11,0-.17q0-3.55,0-7.1c0-.06,0-.13,0-.19Zm6.41,1.8c0-.12,0-.19,0-.26,0-.8,0-1.6,0-2.4,0-.15,0-.22-.2-.21a5.34,5.34,0,0,1-.68,0c-.16,0-.2,0-.2.2q0,3.68,0,7.37c0,.3,0,.6,0,.89,0,.11,0,.16.14.15H16c.11,0,.16,0,.15-.15s0-.36,0-.53l0,0a1,1,0,0,0,.1.14,2,2,0,0,0,1,.55.74.74,0,0,0,1-.7,3.6,3.6,0,0,0,0-.45q0-2.05,0-4.11a2.59,2.59,0,0,0-.08-.68.61.61,0,0,0-.52-.48,1.32,1.32,0,0,0-.75.11A2.58,2.58,0,0,0,16.17,18.33Zm-3.23,5c0,.24,0,.43,0,.62s0,.13.13.13h.81c.1,0,.14,0,.13-.13q0-3.1,0-6.19c0-.1,0-.13-.13-.13s-.49,0-.74,0-.21,0-.21.21c0,1.52,0,3,0,4.56a.45.45,0,0,1-.17.38,2.21,2.21,0,0,1-.28.2c-.45.26-.62.16-.62-.36q0-2.4,0-4.81c0-.13,0-.19-.17-.18s-.44,0-.67,0-.23,0-.23.23q0,1.8,0,3.6c0,.57,0,1.13,0,1.7a1.08,1.08,0,0,0,.14.59A.83.83,0,0,0,12,24,3,3,0,0,0,12.94,23.32Zm6.46-2.47h0c0,.56,0,1.12,0,1.68A1.59,1.59,0,0,0,20.5,24a1.63,1.63,0,0,0,1.76-.51A2.07,2.07,0,0,0,22.63,22c0-.09-.06-.08-.12-.08h-.84c-.09,0-.12,0-.12.12s0,.28,0,.42a.52.52,0,0,1-.42.52.53.53,0,0,1-.66-.58c0-.46,0-.92,0-1.39,0-.14,0-.18.18-.18h1.82c.12,0,.16,0,.16-.16,0-.4,0-.81,0-1.21a2.57,2.57,0,0,0-.05-.63,1.62,1.62,0,0,0-1.7-1.23,1.6,1.6,0,0,0-1.48,1.57C19.39,19.74,19.4,20.29,19.4,20.84Z"/><path class="cls-7" d="M5.45,22.86c0-.07,0-.16,0-.25.06.42.11.82.18,1.23a2.57,2.57,0,0,0,.65,1.34,2.14,2.14,0,0,0,1.44.72c.5.05,1,.07,1.49.16a3.64,3.64,0,0,0,.5,0l1.22.05c1.22.06,2.45.06,3.68.06,1,0,2.09,0,3.13,0q1,0,2-.07c.51,0,1-.06,1.53-.12l1.23-.12a2,2,0,0,0,1.38-.75,3.43,3.43,0,0,0,.68-1.85s0-.1,0-.11,0,0,0,.05a7,7,0,0,1-.25,2A2.34,2.34,0,0,1,22.37,27c-1.57.15-3.13.24-4.71.28-1.74,0-3.49,0-5.23,0l-2.33-.09c-.74,0-1.47-.11-2.2-.19a2.25,2.25,0,0,1-1.24-.43,2.48,2.48,0,0,1-.93-1.36,9.67,9.67,0,0,1-.26-2c0-.06.07-.12,0-.17Z"/><path class="cls-8" d="M20.47,11.5a2.19,2.19,0,0,1-1,.67,1.27,1.27,0,0,1-.4.06.65.65,0,0,1-.69-.56,3.59,3.59,0,0,1-.07-.78q0-2.47,0-4.95c0-.13,0-.17.16-.17a7.45,7.45,0,0,0,.77,0c.15,0,.15.06.15.18q0,2.42,0,4.84c0,.48.18.59.6.35l.18-.11a.65.65,0,0,0,.3-.59c0-1.49,0-3,0-4.48,0-.15,0-.2.19-.19s.49,0,.74,0,.16,0,.16.15q0,3.09,0,6.18c0,.1,0,.14-.13.14h-.82c-.1,0-.13,0-.13-.13S20.47,11.73,20.47,11.5Z"/><path class="cls-8" d="M17.24,9c0,.55,0,1.1,0,1.65a1.6,1.6,0,0,1-1.42,1.55A1.62,1.62,0,0,1,14,10.61c0-1.07,0-2.14,0-3.21a1.62,1.62,0,0,1,3.13-.57,1.64,1.64,0,0,1,.1.6q0,.8,0,1.6ZM15.09,9c0,.53,0,1.05,0,1.58a.53.53,0,0,0,.54.58.54.54,0,0,0,.54-.59q0-1.56,0-3.12a.54.54,0,1,0-1.08,0C15.09,8,15.09,8.48,15.09,9Z"/><path class="cls-8" d="M11.32,7.21l.22-.73c.27-.9.54-1.8.8-2.7a.18.18,0,0,1,.22-.16h.91l-.54,1.81-1,3.42a1.05,1.05,0,0,0,0,.31c0,1,0,1.94,0,2.91,0,.13,0,.17-.16.16s-.49,0-.74,0-.19,0-.19-.18c0-.94,0-1.87,0-2.81a3.12,3.12,0,0,0-.21-.93Q9.9,6.05,9.22,3.79c0-.15,0-.18.13-.17s.48,0,.72,0a.19.19,0,0,1,.23.16c.32,1.08.64,2.16,1,3.24Z"/><path class="cls-7" d="M5.42,21.64a.69.69,0,0,1,0,.56A3,3,0,0,1,5.42,21.64Z"/><path class="cls-7" d="M24.72,23s-.09,0-.07-.07a1.35,1.35,0,0,0,0-.33c.06.07,0,.16.05.21Z"/><path class="cls-6" d="M5.46,23c.08.05,0,.11,0,.17A.28.28,0,0,1,5.46,23Z"/><path class="cls-9" d="M16.17,18.33a2.58,2.58,0,0,1,.79-.59,1.32,1.32,0,0,1,.75-.11.61.61,0,0,1,.52.48,2.59,2.59,0,0,1,.08.68q0,2.05,0,4.11a3.6,3.6,0,0,1,0,.45.74.74,0,0,1-1,.7,2,2,0,0,1-1-.55,1,1,0,0,1-.1-.14l0,0c0,.18,0,.36,0,.53s0,.15-.15.15h-.79c-.12,0-.15,0-.14-.15,0-.3,0-.6,0-.89q0-3.68,0-7.37c0-.17,0-.21.2-.2a5.34,5.34,0,0,0,.68,0c.17,0,.2.05.2.21,0,.8,0,1.6,0,2.4C16.17,18.14,16.17,18.21,16.17,18.33Zm1.07,2.54q0-.68,0-1.37c0-.2,0-.4,0-.6s-.14-.36-.39-.28a1.33,1.33,0,0,0-.48.28.55.55,0,0,0-.2.46c0,1,0,1.93,0,2.89a.71.71,0,0,0,.37.67l.23.12c.32.13.47,0,.47-.31C17.24,22.11,17.24,21.49,17.24,20.87Z"/><path class="cls-9" d="M12.94,23.32A3,3,0,0,1,12,24a.83.83,0,0,1-1.06-.24,1.08,1.08,0,0,1-.14-.59c0-.57,0-1.13,0-1.7q0-1.8,0-3.6c0-.23,0-.23.23-.23s.44,0,.67,0,.17,0,.17.18q0,2.4,0,4.81c0,.52.17.62.62.36a2.21,2.21,0,0,0,.28-.2.45.45,0,0,0,.17-.38c0-1.52,0-3,0-4.56,0-.16,0-.21.21-.21s.49,0,.74,0,.13,0,.13.13q0,3.1,0,6.19c0,.1,0,.13-.13.13h-.81c-.1,0-.13,0-.13-.13S12.94,23.56,12.94,23.32Z"/><path class="cls-9" d="M19.4,20.84c0-.55,0-1.1,0-1.65a1.6,1.6,0,0,1,1.48-1.57,1.62,1.62,0,0,1,1.7,1.23,2.57,2.57,0,0,1,.05.63c0,.4,0,.81,0,1.21,0,.12,0,.16-.16.16H20.65c-.14,0-.18,0-.18.18,0,.46,0,.92,0,1.39a.53.53,0,0,0,.66.58.52.52,0,0,0,.42-.52c0-.14,0-.28,0-.42s0-.12.12-.12h.84c.06,0,.12,0,.12.08a2.07,2.07,0,0,1-.37,1.48A1.63,1.63,0,0,1,20.5,24a1.59,1.59,0,0,1-1.1-1.46c0-.56,0-1.12,0-1.68ZM21,19.77h0a2.7,2.7,0,0,1,.35,0c.17,0,.2-.06.18-.2s0-.23,0-.35a.54.54,0,0,0-1.07,0c0,.16,0,.32,0,.47s0,.12.13.12Z"/><path class="cls-10" d="M11.31,16.37v.15a.07.07,0,0,1-.08,0,13.37,13.37,0,0,0-1.46,0l-.06.06c0,.06,0,.12,0,.17q0,3.64,0,7.28c-.32,0-.64,0-1,0-.07,0-.09,0-.09-.1s0-.09,0-.14q0-3.55,0-7.1c0-.09,0-.2-.11-.2a12.5,12.5,0,0,0-1.42,0c-.09,0-.08-.05-.08-.1,0-.29,0-.57,0-.86,0-.12.07-.11.15-.11H11.3C11.31,15.77,11.28,16.07,11.31,16.37Zm-2.59.15,0,0h.05Zm.9,0h0Z"/><path class="cls-9" d="M9.68,24.05q0-3.64,0-7.28c0-.06,0-.12,0-.17s0,.13,0,.19q0,3.55,0,7.1C9.71,23.94,9.73,24,9.68,24.05Z"/><path class="cls-9" d="M9.76,16.53a13.37,13.37,0,0,1,1.46,0Q10.49,16.56,9.76,16.53Z"/><path class="cls-9" d="M7.09,16.53a12.5,12.5,0,0,1,1.42,0C8,16.55,7.57,16.55,7.09,16.53Z"/><path class="cls-9" d="M11.31,16.37c0-.3,0-.59,0-.89A4.09,4.09,0,0,1,11.31,16.37Z"/><path class="cls-9" d="M11.3,16.51v-.06S11.34,16.5,11.3,16.51Z"/><path class="cls-6" d="M17.24,20.87c0,.62,0,1.24,0,1.86,0,.34-.15.44-.47.31l-.23-.12a.71.71,0,0,1-.37-.67c0-1,0-1.93,0-2.89a.55.55,0,0,1,.2-.46,1.33,1.33,0,0,1,.48-.28c.25-.07.38,0,.39.28s0,.4,0,.6Q17.24,20.18,17.24,20.87Z"/><path class="cls-6" d="M21,19.77h-.42c-.09,0-.13,0-.13-.12s0-.32,0-.47a.54.54,0,0,1,1.07,0c0,.12,0,.23,0,.35s0,.22-.18.2a2.7,2.7,0,0,0-.35,0Z"/><path class="cls-9" d="M8.72,16.52l0,0H8.69Z"/><circle class="cls-9" cx="9.61" cy="16.53" r="0.01" transform="translate(-9.49 15.65) rotate(-57.16)"/><path class="cls-11" d="M23.77,87.2H5.84s0,0,0,0l-.31,0a3.81,3.81,0,0,1-2-.94,3.66,3.66,0,0,1-1.23-2.42s0,0,0,0V66.27s0,0,0-.06,0-.21,0-.32a3.82,3.82,0,0,1,3.45-3.07s0,0,.05,0H23.77s0,0,.06,0a3.66,3.66,0,0,1,1.38.39,3.72,3.72,0,0,1,2.11,3s0,0,0,.05V83.72s0,0,0,.06,0,.22,0,.33a3.83,3.83,0,0,1-3.45,3.07S23.78,87.17,23.77,87.2ZM16.22,72.72c0-.3,0-.65,0-1a3,3,0,0,0,0-.62.65.65,0,0,0-.49-.56,3.1,3.1,0,0,0-.54-.1,9.06,9.06,0,0,0-.92,0,9,9,0,0,0-1.49.08,1.38,1.38,0,0,0-.68.27.67.67,0,0,0-.21.25c0,.06,0,.08.06.09l.23,0a.87.87,0,0,1,.66.64,2.6,2.6,0,0,1,.08.41c0,.41,0,.82,0,1.23a5.4,5.4,0,0,1-.09,1,1.22,1.22,0,0,1-.18.48.32.32,0,0,1-.28.14.54.54,0,0,1-.31-.13,2.7,2.7,0,0,1-.56-.6A14.66,14.66,0,0,1,10,71.74l-.21-.48a.68.68,0,0,0-.66-.44c-.79,0-1.59,0-2.38,0a1,1,0,0,0-.41.08.26.26,0,0,0-.17.26.72.72,0,0,0,.07.29q.72,1.59,1.6,3.1a20.85,20.85,0,0,0,1.8,2.67,8.56,8.56,0,0,0,1.13,1.18,6.28,6.28,0,0,0,2,1.16,5.29,5.29,0,0,0,1.69.3h1a.9.9,0,0,0,.44-.12.41.41,0,0,0,.19-.21.92.92,0,0,0,.06-.33,3.23,3.23,0,0,1,.12-.86,1.11,1.11,0,0,1,.29-.53.46.46,0,0,1,.5-.11,1.1,1.1,0,0,1,.32.19,6.75,6.75,0,0,1,.73.74,7.41,7.41,0,0,0,.72.73,2,2,0,0,0,1.43.53c.72,0,1.45,0,2.17,0a1.34,1.34,0,0,0,.46-.09.5.5,0,0,0,.32-.76,3.22,3.22,0,0,0-.35-.56A11.52,11.52,0,0,0,21.52,77a8.74,8.74,0,0,1-.77-.74.64.64,0,0,1-.09-.84,2.83,2.83,0,0,1,.27-.41l1.18-1.51a10.84,10.84,0,0,0,1-1.48,2.21,2.21,0,0,0,.26-.67.37.37,0,0,0-.32-.48,1.14,1.14,0,0,0-.28,0H19.89a1.38,1.38,0,0,0-.23,0,.5.5,0,0,0-.38.35,13.63,13.63,0,0,1-1.43,2.68,5.86,5.86,0,0,1-.71.88,1.15,1.15,0,0,1-.35.25.28.28,0,0,1-.33-.06.74.74,0,0,1-.21-.37,2.94,2.94,0,0,1-.06-.78C16.21,73.46,16.21,73.12,16.22,72.72Z"/><path class="cls-12" d="M16.22,72.72c0,.4,0,.74,0,1.08a2.94,2.94,0,0,0,.06.78.74.74,0,0,0,.21.37.28.28,0,0,0,.33.06,1.15,1.15,0,0,0,.35-.25,5.86,5.86,0,0,0,.71-.88,13.63,13.63,0,0,0,1.43-2.68.5.5,0,0,1,.38-.35,1.38,1.38,0,0,1,.23,0h2.85a1.14,1.14,0,0,1,.28,0,.37.37,0,0,1,.32.48,2.21,2.21,0,0,1-.26.67,10.84,10.84,0,0,1-1,1.48L20.92,75a2.83,2.83,0,0,0-.27.41.64.64,0,0,0,.09.84,8.74,8.74,0,0,0,.77.74,11.52,11.52,0,0,1,1.41,1.48,3.22,3.22,0,0,1,.35.56.5.5,0,0,1-.32.76,1.34,1.34,0,0,1-.46.09c-.72,0-1.45,0-2.17,0a2,2,0,0,1-1.43-.53,7.41,7.41,0,0,1-.72-.73,6.75,6.75,0,0,0-.73-.74,1.1,1.1,0,0,0-.32-.19.46.46,0,0,0-.5.11,1.11,1.11,0,0,0-.29.53,3.23,3.23,0,0,0-.12.86.92.92,0,0,1-.06.33.41.41,0,0,1-.19.21.9.9,0,0,1-.44.12h-1a5.29,5.29,0,0,1-1.69-.3,6.28,6.28,0,0,1-2-1.16,8.56,8.56,0,0,1-1.13-1.18,20.85,20.85,0,0,1-1.8-2.67q-.88-1.51-1.6-3.1a.72.72,0,0,1-.07-.29.26.26,0,0,1,.17-.26,1,1,0,0,1,.41-.08c.79,0,1.59,0,2.38,0a.68.68,0,0,1,.66.44l.21.48a14.66,14.66,0,0,0,1.51,2.59,2.7,2.7,0,0,0,.56.6.54.54,0,0,0,.31.13.32.32,0,0,0,.28-.14,1.22,1.22,0,0,0,.18-.48,5.4,5.4,0,0,0,.09-1c0-.41,0-.82,0-1.23a2.6,2.6,0,0,0-.08-.41.87.87,0,0,0-.66-.64l-.23,0c-.06,0-.08,0-.06-.09a.67.67,0,0,1,.21-.25,1.38,1.38,0,0,1,.68-.27,9,9,0,0,1,1.49-.08,9.06,9.06,0,0,1,.92,0,3.1,3.1,0,0,1,.54.1.65.65,0,0,1,.49.56,3,3,0,0,1,0,.62C16.25,72.07,16.23,72.42,16.22,72.72Z"/><path class="cls-13" d="M14.55,57.69H9.09a14.47,14.47,0,0,1-1.47-.06,6.07,6.07,0,0,1-2.08-.55,5.79,5.79,0,0,1-1.06-.69l0,0a.26.26,0,0,1,.05-.13L4.68,56a5.62,5.62,0,0,1,1.9-1.7,5.44,5.44,0,0,1,1.56-.56.29.29,0,0,0,.13,0l.12.06a5.63,5.63,0,0,0,1.43.51,9.32,9.32,0,0,0,1.62.17l.84,0s0,.05.05.07a6.18,6.18,0,0,1,.68.59,6.44,6.44,0,0,1,.44.49,6.14,6.14,0,0,1,.73,1.14,5.84,5.84,0,0,1,.29.7A1,1,0,0,1,14.55,57.69Z"/><path class="cls-14" d="M17.13,32.87h.15s0,.07-.07.1a12.56,12.56,0,0,1-1.23.88,19.74,19.74,0,0,1-1.75,1c-.4.2-.8.4-1.2.58,0,0,0,0,0,0s0,0,0,0l.75-.35c.44-.21.87-.43,1.3-.66s.57-.32.85-.5a13.23,13.23,0,0,0,1.36-1s.08,0,.07-.1h0c1.29,0,2.59,0,3.88,0a10.3,10.3,0,0,1,1.17.07,6.18,6.18,0,0,1,1.71.46l.07,0c-.29.19-.58.36-.88.53-.5.29-1,.57-1.52.83l-1,.48-.53.25-1.34.6s0,0,0,0h-.11c-.53,0-1.06,0-1.59-.05-1.28,0-2.56,0-3.84,0-.51,0-1,0-1.54,0l-.87,0s0,0,.05,0l.18,0,.51-.21a.74.74,0,0,1,.38-.11l.07,0,.2-.09c.1-.06.24-.07.31-.18l0,0,1.13-.53c.37-.18.72-.37,1.08-.57s.74-.43,1.09-.66A11.11,11.11,0,0,0,17,33C17,33,17.12,32.95,17.13,32.87Z"/><path class="cls-15" d="M17.13,32.87c0,.08-.08.11-.14.15a11.11,11.11,0,0,1-.94.68q-.53.35-1.09.66c-.36.2-.71.39-1.08.57l-1.13.53,0,0c-.07.12-.2.13-.31.18l-.2.09-.07,0a.74.74,0,0,0-.38.11l-.51.21-.18,0s0,0-.05,0c-.32,0-.63.05-.94.11a5.77,5.77,0,0,0-1.56.49,4,4,0,0,0-.61.36l-.31.24-.28.27a1.09,1.09,0,0,0-.25,0c-.32.07-.63.17-.95.26l-1.33.38-.94.25-1.25.31s0,0-.05,0,0-.27,0-.4a7.86,7.86,0,0,1,.14-1.18v0s0,0,.08,0l.46-.13c.75-.2,1.49-.43,2.23-.67L6.77,36l.44-.14.61-.24.86-.36a1.81,1.81,0,0,1,.38-.16A1.45,1.45,0,0,0,9.42,35c.41-.2.82-.41,1.21-.63a11.77,11.77,0,0,0,1.05-.68,6.55,6.55,0,0,0,.56-.46c.09-.08.17-.18.26-.27s0,0,0,0,0,0,0,0h-3a1.3,1.3,0,0,1,.22,0h7.48Z"/><path class="cls-16" d="M27,36.68a6.43,6.43,0,0,1,.23,1.14,8.45,8.45,0,0,1,.05,1c0,2.37,0,4.74,0,7.11,0,0,0,0,0,.06a.24.24,0,0,1-.09-.1q-.48-.73-1-1.43t-1-1.22c-.25-.28-.5-.57-.77-.83l0,0L24.09,42h0s0-.07,0-.11c0-.38,0-.76-.08-1.14a6.23,6.23,0,0,0-.37-1.52,5,5,0,0,0-.52-1l.06,0L23.9,38l.88-.34,1.15-.47.8-.34A2.24,2.24,0,0,1,27,36.68Z"/><path class="cls-17" d="M9.43,32.88h3s0,0,0,0,0,0,0,0-.17.19-.26.27a6.55,6.55,0,0,1-.56.46,11.77,11.77,0,0,1-1.05.68c-.39.23-.8.43-1.21.63a1.45,1.45,0,0,1-.35.13,1.81,1.81,0,0,0-.38.16l-.86.36-.61.24L6.77,36l-1.32.45c-.74.24-1.48.47-2.23.67l-.46.13s-.06,0-.08,0a3.6,3.6,0,0,1,.13-.56,5.21,5.21,0,0,1,3.4-3.48,6.71,6.71,0,0,1,1.26-.27,14.59,14.59,0,0,1,1.7-.06Z"/><path class="cls-18" d="M27,36.68a2.24,2.24,0,0,0-.31.13l-.8.34-1.15.47L23.9,38l-.76.29-.06,0h0a4.93,4.93,0,0,0-3.54-2L19,36.18s0,0,0,0l1.34-.6.53-.25,1-.48c.51-.27,1-.54,1.52-.83.3-.17.59-.35.88-.53a4.72,4.72,0,0,1,1,.57A5.21,5.21,0,0,1,27,36.64Z"/><path class="cls-19" d="M27.28,52.66A5.64,5.64,0,0,1,26.53,55a5.12,5.12,0,0,1-1.14,1.35l0,0s0,0,0-.05c0-.21-.08-.42-.12-.63a17.54,17.54,0,0,0-.46-1.78c-.17-.52-.35-1-.56-1.55s-.31-.73-.49-1.08c0,0,0-.06-.06-.07l.13-.39A7.49,7.49,0,0,0,24,49.05c0-.47,0-.94,0-1.42s0-.68,0-1c0,0,0,0,.06,0q.49.66.93,1.36c.26.42.51.84.74,1.28q.23.43.43.86t.49,1.1c.18.44.35.89.5,1.34C27.25,52.62,27.26,52.64,27.28,52.66Z"/><path class="cls-20" d="M27.28,52.66s0,0,0-.06c-.15-.45-.32-.9-.5-1.34s-.32-.74-.49-1.1-.28-.58-.43-.86c-.23-.44-.48-.86-.74-1.28s-.6-.92-.93-1.36c0,0,0,0-.06,0s0-.05,0-.08c0-1.31,0-2.62,0-3.93,0-.2,0-.39,0-.59h0l.34.34,0,0c.27.27.52.55.77.83s.68.8,1,1.22.69.94,1,1.43a.24.24,0,0,0,.09.1s0,0,0,.06c0,2,0,3.94,0,5.91a3.4,3.4,0,0,1,0,.55S27.3,52.61,27.28,52.66Z"/><path class="cls-21" d="M8.26,53.66a.29.29,0,0,1-.13,0,5.44,5.44,0,0,0-1.56.56A5.62,5.62,0,0,0,4.68,56l-.17.25a.26.26,0,0,0-.05.13,4.43,4.43,0,0,1-.57-.56,5.39,5.39,0,0,1-1-1.71.12.12,0,0,1,0,0s0,0,.05,0a7.3,7.3,0,0,1,.58-.66c.13-.13.26-.26.39-.38l.4-.34A8,8,0,0,1,5,52.13a8.32,8.32,0,0,1,1.06-.56.67.67,0,0,0,.22-.11l0,0a4.5,4.5,0,0,0,.53.91,5.37,5.37,0,0,0,.87.89A4.29,4.29,0,0,0,8.26,53.66Z"/><path class="cls-21" d="M14.55,57.69a1,1,0,0,0-.08-.27,5.84,5.84,0,0,0-.29-.7,6.14,6.14,0,0,0-.73-1.14,6.44,6.44,0,0,0-.44-.49,6.18,6.18,0,0,0-.68-.59s-.05,0-.05-.07h3.43a.45.45,0,0,0,.11.2,8.75,8.75,0,0,1,.67,1.25,9.27,9.27,0,0,1,.5,1.48,1.68,1.68,0,0,1,.07.32h-2.5Z"/><path class="cls-22" d="M23.64,51.23s0,0,.06.07c.18.35.34.72.49,1.08s.39,1,.56,1.55a17.54,17.54,0,0,1,.46,1.78c0,.21.08.42.12.63,0,0,0,0,0,.05a4.37,4.37,0,0,1-.6.43,5.08,5.08,0,0,1-1,.47h0c0-.14,0-.29-.07-.43-.09-.5-.18-1-.31-1.49a16,16,0,0,0-.55-1.75l-.22-.56s0-.1-.09-.11l0,0a4.57,4.57,0,0,0,.81-1.08A6.74,6.74,0,0,0,23.64,51.23Z"/><path class="cls-23" d="M2.52,50.16c0-.22,0-.44,0-.66q0-1.08,0-2.15s0,0,0-.05l.06,0,.63-.36c.31-.17.63-.32.95-.46s.53-.22.81-.32a8.24,8.24,0,0,1,.79-.25s0,.05,0,.08c0,.66,0,1.32,0,2,0,.15,0,.29,0,.44a1.25,1.25,0,0,0-.3.1,10.4,10.4,0,0,0-1.5.7,11.34,11.34,0,0,0-1.31.88S2.59,50.15,2.52,50.16Z"/><path class="cls-24" d="M20.13,57.68H17.79a1,1,0,0,0,0-.21,9.78,9.78,0,0,0-.29-1.08c-.09-.28-.2-.55-.31-.82s-.28-.6-.44-.9a.78.78,0,0,1-.12-.23h.07q1.1,0,2.19-.06a2,2,0,0,1,.33,0,.22.22,0,0,0,0,.08,11.18,11.18,0,0,1,.42,1.07A12.09,12.09,0,0,1,20,57.08C20.07,57.28,20.11,57.48,20.13,57.68Z"/><path class="cls-18" d="M2.52,42s0,0,0-.05q0-1.07,0-2.15s0,0,0-.07h.06l1.18-.29,1.07-.27,1.23-.33a2.22,2.22,0,0,1,.44-.1A5.72,5.72,0,0,0,6,40a7.6,7.6,0,0,0-.19,1.2,1.34,1.34,0,0,0-.31.06l-.9.22-1,.25c-.25.06-.48.15-.73.22A1.44,1.44,0,0,1,2.52,42Z"/><path class="cls-25" d="M22.5,53c.06,0,.07.06.09.11l.22.56a16,16,0,0,1,.55,1.75c.13.49.23,1,.31,1.49,0,.14,0,.29.07.43a4,4,0,0,1-.65.19,7.72,7.72,0,0,1-1.22.16h0a.63.63,0,0,0,0-.08c0-.2-.06-.39-.09-.59a14.58,14.58,0,0,0-.48-1.91c-.12-.37-.25-.72-.4-1.08h0a4.75,4.75,0,0,0,.93-.47A5.35,5.35,0,0,0,22.5,53Z"/><path class="cls-25" d="M5.76,45.88a8.24,8.24,0,0,0-.79.25c-.27.1-.54.2-.81.32s-.64.3-.95.46l-.63.36-.06,0s0,0,0,0q0-1.18,0-2.36s0,0,0,0l.6-.16c.35-.09.69-.22,1-.3s.86-.22,1.29-.32A1.41,1.41,0,0,1,5.76,44s0,.05,0,.08q0,.81,0,1.62C5.76,45.76,5.76,45.82,5.76,45.88Z"/><path class="cls-26" d="M6.31,51.45a.67.67,0,0,1-.22.11A8.32,8.32,0,0,0,5,52.13a8,8,0,0,0-.71.51l-.4.34c-.14.12-.26.25-.39.38a7.3,7.3,0,0,0-.58.66s0,0-.05,0a4,4,0,0,1-.18-.63,8.89,8.89,0,0,1-.17-1.25s0,0,0-.06l0,0c.2-.2.41-.39.63-.58s.45-.36.69-.53a9.28,9.28,0,0,1,1.48-.85,4.84,4.84,0,0,1,.51-.21l0,.25A6.16,6.16,0,0,0,6.31,51.45Z"/><path class="cls-20" d="M2.52,42a1.44,1.44,0,0,0,.34-.08c.24-.07.48-.16.73-.22l1-.25.9-.22a1.34,1.34,0,0,1,.31-.06c0,.55-.05,1.1-.06,1.65,0,.1,0,.2,0,.3a3.22,3.22,0,0,0-.35.08l-1,.24c-.22.06-.44.14-.66.2s-.52.12-.78.2a3.57,3.57,0,0,1-.45.12c0-.1,0-.2,0-.3q0-.79,0-1.59S2.51,42,2.52,42Z"/><path class="cls-23" d="M20.88,54c.14.36.28.71.4,1.08A14.58,14.58,0,0,1,21.75,57c0,.2.06.39.09.59a.63.63,0,0,1,0,.08l-.25,0H20.13c0-.2-.06-.4-.1-.6a12.09,12.09,0,0,0-.41-1.56,11.18,11.18,0,0,0-.42-1.07.22.22,0,0,1,0-.08.94.94,0,0,1,.25,0,6.92,6.92,0,0,0,.85-.15C20.48,54.13,20.68,54.06,20.88,54Z"/><path class="cls-24" d="M5.89,49.93a4.84,4.84,0,0,0-.51.21A9.28,9.28,0,0,0,3.9,51q-.36.25-.69.53c-.22.18-.42.38-.63.58l0,0c0-.21,0-.42,0-.63,0-.43,0-.85,0-1.28,0,0,0,0,0-.06s.11-.06.15-.1A11.34,11.34,0,0,1,4,49.18a10.4,10.4,0,0,1,1.5-.7,1.25,1.25,0,0,1,.3-.1c0,.3,0,.59,0,.89,0,.13,0,.27,0,.4S5.89,49.84,5.89,49.93Z"/><path class="cls-14" d="M6.49,38.73a2.22,2.22,0,0,0-.44.1l-1.23.33-1.07.27-1.18.29H2.52q0-.42,0-.84v0s0,0,.05,0l1.25-.31.94-.25,1.33-.38c.31-.09.63-.19.95-.26a1.09,1.09,0,0,1,.25,0A4.85,4.85,0,0,0,6.49,38.73Z"/><path class="cls-22" d="M2.52,43.94A3.57,3.57,0,0,0,3,43.83c.26-.08.52-.13.78-.2s.44-.15.66-.2l1-.24a3.22,3.22,0,0,1,.35-.08V44a1.41,1.41,0,0,0-.31.06c-.43.1-.86.22-1.29.32s-.69.22-1,.3l-.6.16Z"/><path class="cls-26" d="M16.58,54.45a.78.78,0,0,0,.12.23q.24.44.44.9c.12.27.22.54.31.82a9.78,9.78,0,0,1,.29,1.08,1,1,0,0,1,0,.21H17a1.68,1.68,0,0,0-.07-.32,9.27,9.27,0,0,0-.5-1.48,8.75,8.75,0,0,0-.67-1.25.45.45,0,0,1-.11-.2Z"/><path class="cls-15" d="M17.38,32.87c0,.05,0,.07-.07.1a13.23,13.23,0,0,1-1.36,1c-.28.17-.56.34-.85.5s-.86.45-1.3.66l-.75.35s0,0,0,0,0,0,0,0c.41-.18.81-.38,1.2-.58a19.74,19.74,0,0,0,1.75-1A12.56,12.56,0,0,0,17.21,33s.07,0,.07-.1Z"/><path class="cls-12" d="M16.58,54.45h-4.3l-.84,0a9.32,9.32,0,0,1-1.62-.17,5.63,5.63,0,0,1-1.43-.51l-.12-.06a4.29,4.29,0,0,1-.53-.36,5.37,5.37,0,0,1-.87-.89,4.5,4.5,0,0,1-.53-.91l0,0a6.16,6.16,0,0,1-.37-1.27l0-.25c0-.09,0-.18,0-.26s0-.27,0-.4c0-.3,0-.59,0-.89s0-.29,0-.44c0-.66,0-1.32,0-2,0,0,0-.05,0-.08s0-.12,0-.18q0-.81,0-1.62s0-.05,0-.08V43.1c0-.1,0-.2,0-.3,0-.55,0-1.1.06-1.65A7.6,7.6,0,0,1,6,40a5.72,5.72,0,0,1,.47-1.24,4.85,4.85,0,0,1,.81-1.08l.28-.27.31-.24a4,4,0,0,1,.61-.36,5.77,5.77,0,0,1,1.56-.49c.31-.05.63-.08.94-.11l.87,0c.51,0,1,0,1.54,0,1.28,0,2.56,0,3.84,0,.53,0,1.06,0,1.59.05H19l.58.06a4.93,4.93,0,0,1,3.54,2h0a5,5,0,0,1,.52,1A6.23,6.23,0,0,1,24,40.77c0,.38.06.76.08,1.14,0,0,0,.07,0,.11,0,.2,0,.39,0,.59,0,1.31,0,2.62,0,3.93,0,0,0,.05,0,.08q0,.51,0,1c0,.47,0,.94,0,1.42a7.49,7.49,0,0,1-.28,1.79l-.13.39a6.74,6.74,0,0,1-.28.62,4.57,4.57,0,0,1-.81,1.08l0,0a5.35,5.35,0,0,1-.67.54,4.75,4.75,0,0,1-.93.47h0c-.2.07-.4.14-.6.19a6.92,6.92,0,0,1-.85.15.94.94,0,0,0-.25,0,2,2,0,0,0-.33,0q-1.1.06-2.19.06ZM7.42,43c0,.22,0,.45,0,.67s0,.72,0,1.07c0,.19,0,.38,0,.58,0,0,0,0,0,.05,0,.47,0,.94,0,1.41,0,.28,0,.57,0,.85,0,0,0,0,0,.07,0,.42,0,.85,0,1.27a5.67,5.67,0,0,0,.09.83,3.91,3.91,0,0,0,.24.87,2.59,2.59,0,0,0,.29.56l0,.06a3.11,3.11,0,0,0,1.71,1.19,6.11,6.11,0,0,0,1.42.21c.52,0,1,0,1.55,0h4.26c.23,0,.45,0,.68,0h.5a10.12,10.12,0,0,0,1.15-.09,3.79,3.79,0,0,0,1.07-.3l.07,0a3,3,0,0,0,1.1-.87,2.08,2.08,0,0,0,.35-.56s0,0,0-.05a4.2,4.2,0,0,0,.3-1,8.31,8.31,0,0,0,.1-1c0-.23,0-.47,0-.7v0c0-.93,0-1.86,0-2.79h0s0,0,0,0q0-1.12,0-2.24c0-.19,0-.37,0-.56v0c0-.49,0-1-.09-1.47A4.32,4.32,0,0,0,22,39.64a2.86,2.86,0,0,0-.37-.58,3,3,0,0,0-.67-.62l-.09-.06a4.05,4.05,0,0,0-1.61-.52c-.42-.05-.84-.06-1.26-.08l-.76,0c-1.84,0-3.68,0-5.53,0a9.37,9.37,0,0,0-1.36.11A3.63,3.63,0,0,0,9,38.37,3,3,0,0,0,7.73,40a3,3,0,0,0-.14.53,3.68,3.68,0,0,0-.09.6v.06c0,.18,0,.35,0,.53s0,.51,0,.76Z"/><path class="cls-20" d="M22.42,42.44c0,.19,0,.37,0,.56q0,1.12,0,2.24s0,0,0,0l0,0c-.1-.12-.21-.22-.32-.34s-.42-.42-.64-.62-.46-.41-.69-.61-.49-.4-.74-.6q-.75-.57-1.55-1.06a.52.52,0,0,0-.22-.11l0,0a4.71,4.71,0,0,0-5.6-.71,5.17,5.17,0,0,0-.81.58.05.05,0,0,0-.06,0,3.8,3.8,0,0,1-.55.07,3.87,3.87,0,0,1-.59.09c-.12,0-.23.05-.35.06l-.67.1c-.19,0-.38.08-.57.11l-.39.08a4.62,4.62,0,0,0-.52.09,5.11,5.11,0,0,1-.66.14c0-.25,0-.51,0-.76s0-.35,0-.53v-.06c.34,0,.68-.13,1-.2l.8-.19.12,0c.1,0,.2,0,.3,0l.59-.13a1,1,0,0,1,.25,0,1.19,1.19,0,0,0,.32,0,3,3,0,0,1,.52-.09,5.13,5.13,0,0,0,.53-.1h0a.73.73,0,0,0,.33,0,1,1,0,0,1,.36-.06,1.83,1.83,0,0,0,.6-.07.36.36,0,0,1,.19,0,.21.21,0,0,0,.11,0,2,2,0,0,1,.55-.07h0a1.6,1.6,0,0,1,.41-.06A2,2,0,0,0,15,40a3.84,3.84,0,0,0,.4,0,2.13,2.13,0,0,1,.34,0,1.24,1.24,0,0,1,.19,0c.11,0,.23,0,.34,0h0a.83.83,0,0,1,.25,0,.8.8,0,0,0,.27,0,.53.53,0,0,1,.25,0,.34.34,0,0,0,.17,0,.5.5,0,0,1,.3,0,.36.36,0,0,0,.23,0,.24.24,0,0,1,.15,0,.41.41,0,0,0,.22,0,.7.7,0,0,1,.29,0h.08a2.2,2.2,0,0,1,.47,0l0,0a1.09,1.09,0,0,0-.17.93,1.1,1.1,0,0,0,1.28.79,1.13,1.13,0,0,0,.65-.39l0,0,.43.32.6.48.53.45S22.36,42.43,22.42,42.44Z"/><path class="cls-18" d="M7.59,40.54A3,3,0,0,1,7.73,40,3,3,0,0,1,9,38.37a3.63,3.63,0,0,1,1.31-.47,9.37,9.37,0,0,1,1.36-.11c1.84-.05,3.68,0,5.53,0l.76,0c.42,0,.84,0,1.26.08a4.05,4.05,0,0,1,1.61.52l.09.06a.28.28,0,0,1-.2.05.48.48,0,0,0-.28,0,.2.2,0,0,1-.14,0,.36.36,0,0,0-.23,0,.3.3,0,0,1-.19,0,.26.26,0,0,0-.2,0l-.12,0-.29,0a1.73,1.73,0,0,0-.4.06.14.14,0,0,1-.14,0h0l-.17,0a.26.26,0,0,1-.23,0,.06.06,0,0,0-.06,0,3.35,3.35,0,0,1-.39.08.82.82,0,0,1-.34,0h0a1.79,1.79,0,0,1-.41.08,3.22,3.22,0,0,1-.32,0,.4.4,0,0,0-.17,0,.48.48,0,0,1-.29,0h-.06l-.24.05a1.59,1.59,0,0,0-.36.07.24.24,0,0,1-.17,0c-.11,0-.19,0-.28.06l-.07,0a1.21,1.21,0,0,0-.26,0c-.12,0-.24.1-.37,0h0a2.43,2.43,0,0,1-.29.06c-.12,0-.25,0-.38.07a.22.22,0,0,1-.11,0,.69.69,0,0,0-.32,0,2.91,2.91,0,0,1-.42.09,2.5,2.5,0,0,1-.43.05,1,1,0,0,0-.3.05l-.48.11s-.05,0-.07,0-.17,0-.25,0a3.07,3.07,0,0,1-.63.12h0L10.3,40a1.2,1.2,0,0,1-.35.06,1,1,0,0,0-.31,0l-.41.11c-.21.05-.42.07-.62.12Z"/><path class="cls-24" d="M17.74,52.77c-.23,0-.45,0-.68,0H15.73a.09.09,0,0,0,0-.07c-.16-.16-.31-.33-.47-.49s-.52-.47-.8-.68a8.74,8.74,0,0,0-1.44-.9l-.58-.26A8.33,8.33,0,0,0,11.17,50a8.8,8.8,0,0,0-1.23-.21c-.27,0-.53,0-.8,0a6.6,6.6,0,0,0-.73,0l-.47.05c-.13,0-.26,0-.39.05A5.67,5.67,0,0,1,7.47,49c0-.42,0-.85,0-1.27,0,0,0,0,0-.07h0c.24,0,.48-.06.72-.09s.59,0,.88,0,.54,0,.82,0l.61.06.39.05.08.11a4.72,4.72,0,0,0,3.35,2.13,5.47,5.47,0,0,0,.79,0s0,.06.06.08l.2.15a11.07,11.07,0,0,1,1.05.92l.26.27.37.41c.2.24.4.48.58.74A.58.58,0,0,1,17.74,52.77Z"/><path class="cls-16" d="M7.59,40.54l1-.21c.21,0,.42-.07.62-.12l.41-.11a1,1,0,0,1,.31,0A1.2,1.2,0,0,0,10.3,40l.44-.11h0a3.07,3.07,0,0,0,.63-.12c.08,0,.16-.06.25,0s0,0,.07,0l.48-.11a1,1,0,0,1,.3-.05,2.5,2.5,0,0,0,.43-.05,2.91,2.91,0,0,0,.42-.09.69.69,0,0,1,.32,0,.22.22,0,0,0,.11,0c.12,0,.25,0,.38-.07a2.43,2.43,0,0,0,.29-.06h0c.13.07.25,0,.37,0a1.21,1.21,0,0,1,.26,0l.07,0c.09,0,.17-.1.28-.06a.24.24,0,0,0,.17,0,1.59,1.59,0,0,1,.36-.07l.24-.05h.06a.48.48,0,0,0,.29,0,.4.4,0,0,1,.17,0,3.22,3.22,0,0,0,.32,0,1.79,1.79,0,0,0,.41-.08h0a.82.82,0,0,0,.34,0,3.35,3.35,0,0,0,.39-.08.06.06,0,0,1,.06,0,.26.26,0,0,0,.23,0l.17,0h0a.14.14,0,0,0,.14,0,1.73,1.73,0,0,1,.4-.06l.29,0,.12,0a.26.26,0,0,1,.2,0,.3.3,0,0,0,.19,0,.36.36,0,0,1,.23,0,.2.2,0,0,0,.14,0,.48.48,0,0,1,.28,0,.28.28,0,0,0,.2-.05,3,3,0,0,1,.67.62,2.86,2.86,0,0,1,.37.58A4.32,4.32,0,0,1,22.34,41c.06.49.06,1,.09,1.47v0c-.06,0-.09-.06-.13-.09l-.53-.45-.6-.48-.43-.32,0,0,0,0a1.09,1.09,0,0,0-.25-1.53,1.07,1.07,0,0,0-1.16-.08,1.14,1.14,0,0,0-.35.29,2.2,2.2,0,0,0-.47,0H18.4a.7.7,0,0,0-.29,0,.41.41,0,0,1-.22,0,.24.24,0,0,0-.15,0,.36.36,0,0,1-.23,0,.5.5,0,0,0-.3,0,.34.34,0,0,1-.17,0,.53.53,0,0,0-.25,0,.8.8,0,0,1-.27,0,.83.83,0,0,0-.25,0h0c-.11,0-.23,0-.34,0a1.24,1.24,0,0,0-.19,0,2.13,2.13,0,0,0-.34,0,3.84,3.84,0,0,1-.4,0,2,2,0,0,1-.37,0,1.6,1.6,0,0,0-.41.06h0a2,2,0,0,0-.55.07.21.21,0,0,1-.11,0,.36.36,0,0,0-.19,0,1.83,1.83,0,0,1-.6.07,1,1,0,0,0-.36.06.73.73,0,0,1-.33,0h0a5.13,5.13,0,0,1-.53.1,3,3,0,0,0-.52.09,1.19,1.19,0,0,1-.32,0,1,1,0,0,0-.25,0l-.59.13c-.1,0-.2,0-.3,0l-.12,0-.8.19c-.34.07-.68.15-1,.2A3.68,3.68,0,0,1,7.59,40.54Z"/><path class="cls-26" d="M7.56,49.85c.13,0,.26,0,.39-.05l.47-.05a6.6,6.6,0,0,1,.73,0c.27,0,.54,0,.8,0a8.8,8.8,0,0,1,1.23.21,8.33,8.33,0,0,1,1.25.41l.58.26a8.74,8.74,0,0,1,1.44.9q.42.32.8.68c.17.16.32.32.47.49a.09.09,0,0,1,0,.07h-2.1s0-.05,0-.07c-.18-.13-.36-.25-.55-.37a7.47,7.47,0,0,0-2.36-1,7.77,7.77,0,0,0-1.43-.17,6.54,6.54,0,0,0-.75,0,3.12,3.12,0,0,0-.41,0,2.59,2.59,0,0,1-.29-.56A3.91,3.91,0,0,1,7.56,49.85Z"/><path class="cls-23" d="M17.74,52.77a.58.58,0,0,0-.13-.21c-.18-.26-.38-.5-.58-.74l-.37-.41-.26-.27a11.07,11.07,0,0,0-1.05-.92l-.2-.15s-.06,0-.06-.08c.21,0,.41,0,.62-.06a4.81,4.81,0,0,0,1.49-.52,5.82,5.82,0,0,0,.63-.42h0c.23.23.46.46.68.7l.21.23c.17.2.34.4.5.61s.53.72.76,1.09.3.49.44.74a3.79,3.79,0,0,1-1.07.3,10.12,10.12,0,0,1-1.15.09Z"/><path class="cls-25" d="M20.45,52.36c-.14-.25-.28-.49-.44-.74s-.49-.74-.76-1.09-.33-.41-.5-.61l-.21-.23c-.22-.24-.45-.47-.68-.7h0l0,0a4.75,4.75,0,0,0,.8-.82,5.09,5.09,0,0,0,.46-.74l.06,0,.18.17c.18.17.34.36.51.54l.45.51q.34.4.65.82c.29.39.56.8.82,1.21a1.27,1.27,0,0,0,.17.26,2.08,2.08,0,0,1-.35.56,3,3,0,0,1-1.1.87Z"/><path class="cls-22" d="M22,50.92a1.27,1.27,0,0,1-.17-.26c-.26-.41-.53-.82-.82-1.21s-.42-.55-.65-.82l-.45-.51c-.17-.18-.34-.36-.51-.54l-.18-.17-.06,0v0a4.42,4.42,0,0,0,.38-1,4.83,4.83,0,0,0,.12-1.13l.05,0,.18.15c.25.21.48.43.71.65s.51.52.76.79l.41.47c.21.25.41.5.61.77,0,0,0,0,.07,0,0,.23,0,.47,0,.7a8.31,8.31,0,0,1-.1,1,4.2,4.2,0,0,1-.3,1S22,50.9,22,50.92Z"/><path class="cls-19" d="M22.42,48.1s-.05,0-.07,0c-.2-.26-.4-.52-.61-.77l-.41-.47c-.24-.27-.49-.54-.76-.79s-.46-.45-.71-.65l-.18-.15-.05,0a5.42,5.42,0,0,0,0-.6,4.69,4.69,0,0,0-.81-2,5.67,5.67,0,0,0-.55-.65.52.52,0,0,1,.22.11q.8.49,1.55,1.06c.25.19.5.39.74.6s.46.4.69.61.44.4.64.62.22.22.32.34l0,0h0c0,.93,0,1.86,0,2.79Z"/><path class="cls-23" d="M10.88,47.7l-.39-.05-.61-.06c-.27,0-.54,0-.82,0s-.59,0-.88,0-.48,0-.72.09h0c0-.28,0-.57,0-.85,0-.47,0-.94,0-1.41,0,0,0,0,0-.05l.47-.05c.27,0,.55,0,.82-.06a11.93,11.93,0,0,1,1.29,0,1.05,1.05,0,0,1,.23,0s0,0,0,.05a4.65,4.65,0,0,0,.51,2.06Z"/><path class="cls-25" d="M10.22,45.31a1.05,1.05,0,0,0-.23,0,11.93,11.93,0,0,0-1.29,0c-.27,0-.55,0-.82.06l-.47.05c0-.19,0-.38,0-.58q0-.54,0-1.07l.28-.05.93-.2c.28-.06.57-.06.85-.14s.3,0,.45-.06a1.42,1.42,0,0,1,.6,0s.1,0,.15,0v0a4.71,4.71,0,0,0-.34,1.06A5.08,5.08,0,0,0,10.22,45.31Z"/><path class="cls-21" d="M8.09,51.28a3.12,3.12,0,0,1,.41,0,6.54,6.54,0,0,1,.75,0,7.77,7.77,0,0,1,1.43.17,7.47,7.47,0,0,1,2.36,1c.19.12.37.24.55.37,0,0,0,0,0,.07H12.8c-.52,0-1,0-1.55,0a6.11,6.11,0,0,1-1.42-.21,3.11,3.11,0,0,1-1.71-1.19Z"/><path class="cls-19" d="M7.43,42.49a5.11,5.11,0,0,0,.66-.14,4.62,4.62,0,0,1,.52-.09L9,42.19c.19,0,.38-.09.57-.11l.67-.1c.12,0,.23-.06.35-.06a3.87,3.87,0,0,0,.59-.09,3.8,3.8,0,0,0,.55-.07.05.05,0,0,1,.06,0,5.48,5.48,0,0,0-.64.7.1.1,0,0,0-.08,0,1.19,1.19,0,0,1-.27,0l-.63.09-.64.11c-.23,0-.47,0-.69.1s-.54.09-.8.16a3.37,3.37,0,0,1-.61.09Z"/><path class="cls-22" d="M7.42,43A3.37,3.37,0,0,0,8,43c.26-.07.54-.09.8-.16s.47-.06.69-.1l.64-.11.63-.09a1.19,1.19,0,0,0,.27,0,.1.1,0,0,1,.08,0l-.11.15a6.21,6.21,0,0,0-.38.65s-.1,0-.15,0a1.42,1.42,0,0,0-.6,0c-.15,0-.3,0-.45.06s-.57.08-.85.14l-.93.2-.28.05C7.42,43.49,7.41,43.27,7.42,43Z"/><path class="cls-12" d="M10.67,43.27a6.21,6.21,0,0,1,.38-.65l.11-.15a5.48,5.48,0,0,1,.64-.7,5.17,5.17,0,0,1,.81-.58,4.71,4.71,0,0,1,5.6.71l0,0a5.67,5.67,0,0,1,.55.65,4.69,4.69,0,0,1,.81,2,5.42,5.42,0,0,1,0,.6,4.83,4.83,0,0,1-.12,1.13,4.42,4.42,0,0,1-.38,1v0a5.09,5.09,0,0,1-.46.74,4.75,4.75,0,0,1-.8.82l0,0a5.82,5.82,0,0,1-.63.42,4.81,4.81,0,0,1-1.49.52c-.21,0-.41,0-.62.06a5.47,5.47,0,0,1-.79,0A4.72,4.72,0,0,1,11,47.81l-.08-.11-.15-.29a4.65,4.65,0,0,1-.51-2.06s0,0,0-.05a5.08,5.08,0,0,1,.09-.94,4.71,4.71,0,0,1,.34-1.06Zm5.95,4.56a2.88,2.88,0,0,0,.56-.48,3,3,0,0,0,.6-1l0,0a3.06,3.06,0,0,0-3.24-4.07,3,3,0,0,0-1.79.86,2.74,2.74,0,0,0-.51.67,1.67,1.67,0,0,0-.14.28,3,3,0,0,0-.23,1.57,2.87,2.87,0,0,0,.35,1.11,3.06,3.06,0,0,0,3.14,1.56A3.11,3.11,0,0,0,16.62,47.82Z"/><path class="cls-12" d="M18.95,39.71a1.14,1.14,0,0,1,.35-.29,1.07,1.07,0,0,1,1.16.08A1.09,1.09,0,0,1,20.72,41l0,0a1.13,1.13,0,0,1-.65.39,1.1,1.1,0,0,1-1.28-.79,1.09,1.09,0,0,1,.17-.93Z"/><path class="cls-22" d="M12.27,43.78a2.74,2.74,0,0,1,.51-.67,3,3,0,0,1,1.79-.86,3.06,3.06,0,0,1,3.24,4.07l0,0,0,0c-.32-.24-.64-.46-1-.67s-.82-.49-1.24-.71l-.61-.29c-.39-.18-.8-.34-1.2-.48S12.75,43.9,12.27,43.78Z"/><path class="cls-25" d="M12.27,43.78c.49.12,1,.25,1.44.41s.81.3,1.2.48l.61.29c.42.22.84.45,1.24.71s.66.43,1,.67l0,0a3,3,0,0,1-.6,1,2.88,2.88,0,0,1-.56.48.07.07,0,0,0,0,0l-.39-.28c-.26-.18-.53-.34-.8-.49A11.74,11.74,0,0,0,14,46.29a12.86,12.86,0,0,0-2-.64.3.3,0,0,0-.12,0,3,3,0,0,1,.23-1.57A1.67,1.67,0,0,1,12.27,43.78Z"/><path class="cls-23" d="M11.89,45.63a.3.3,0,0,1,.12,0,12.86,12.86,0,0,1,2,.64,11.74,11.74,0,0,1,1.43.71c.27.16.54.32.8.49l.39.28a.07.07,0,0,1,0,0,3.11,3.11,0,0,1-1.23.48,3.06,3.06,0,0,1-3.14-1.56A2.87,2.87,0,0,1,11.89,45.63Z"/></svg>