<?xml version="1.0" encoding="utf-8"?><svg width="212" height="178" viewBox="0 0 212 178" xmlns="http://www.w3.org/2000/svg" xmlns:xlink="http://www.w3.org/1999/xlink"><svg version="1.1" id="icon_cart" x="50" y="127.4" viewBox="-2 -2 36.2 31.7" xml:space="preserve" width="36.2" height="31.7" xmlns="http://www.w3.org/2000/svg"><style/><path d="M6.1 0c1.3.6 1.1 2 1.4 3.1h22.7c1.7 0 2.2.7 2 2.4-.5 3.2-1 6.3-1.5 9.5-.2 1.6-.7 2-2.3 2H10l.3 1.5h17.2c.9.1 1.5.8 1.5 1.6s-.6 1.4-1.5 1.5H9.4c-1.4 0-1.9-.4-2.2-1.8-1.1-5.3-2-10.5-3-15.8-.1-.3-.1-.6-.2-.9H2.1C1 3.1.3 2.7.1 2c-.2-.8.1-1.3 1-2h5zm22.5 6.2h-6.4v3h5.9c.2-1 .4-2 .5-3zm-20 3h5.2v-3H8.1c.1 1 .3 2 .5 3zm13.7 1.6v3h5.2c.2-1 .3-2 .5-3h-5.7zm-1.8-1.6v-3h-4.9v3h4.9zm-5 1.6v3h4.9v-3h-4.9zm-1.7 0H8.9c.2 1 .4 2 .5 3h4.4v-3zm-2.4 12.3c1.4 0 2.5 1 2.5 2.3 0 1.3-1.1 2.3-2.6 2.3-1.4 0-2.5-1-2.5-2.3 0-1.3 1.1-2.3 2.6-2.3zm15 4.6c-1.4 0-2.5-1-2.5-2.3 0-1.3 1.1-2.3 2.5-2.3s2.5 1 2.5 2.3c0 1.3-1.1 2.3-2.5 2.3z"/></svg><svg version="1.1" id="icon_logo" viewBox="-2 -2 121 33" xml:space="preserve" width="121" height="33" xmlns="http://www.w3.org/2000/svg"><style/><path d="M117 28c-1.6-.4-3.3-.8-6.1-1.4-1.7.5-4.9 2-8.3 2.3-7.2.6-13.4-4.7-14.6-11.5C86.7 9.9 90.5 3.3 97.5.8c6.7-2.3 14.1.5 17.5 6.7.8 1.4 1.4 3 2 4.5v16zm-3.7-13.3c.1-6.1-4.8-11.2-10.9-11.4-6-.1-11.2 5-11.4 11-.1 6 4.9 11.2 11 11.4 6 .1 11.2-4.9 11.3-11zM0 2c1.4-.1 3.4-.9 4.1-.3 3.3 2.8 6.3 5.9 9.3 9.1.6.6.3 2 .4 3-1-.1-2.4.1-3-.5C7.1 10 3.6 6.5 0 3V2zm44.8 27c-8.1 0-14.7-6.4-14.7-14.5C30.2 6.4 36.7 0 44.8 0c7.9 0 14.3 6.3 14.4 14.2.2 8.2-6.3 14.8-14.4 14.8zm11.1-14.3c.1-6-5-11.3-11-11.4-6-.1-11.2 5-11.3 11-.1 6 4.9 11.2 11 11.4 5.9.1 11.1-5 11.3-11zM9.3 28.8c-.5-.3-1.5-.7-1.5-1 0-1 .1-2.3.7-3 4.1-5 8.3-9.9 12.4-14.9 2.3-2.8 4.7-5.6 7.1-8.3.6-.6 1.8-.6 2.7-.8.1 1 .7 2.4.2 3-6.6 8.1-13.4 16-20.1 24-.4.3-.9.5-1.5 1zm56.2-.1c.1-1.4-.2-3 .5-3.8 6.7-8.1 13.5-16 20.3-23.9.3-.3.9-.3 2.3-.9-.2 1.7.2 3.3-.5 4.1-6.8 8.2-13.8 16.2-20.8 24.2-.1.2-.6.1-1.8.3zm6.6-15.3c-1.1.2-2.5.9-3 .5-3.7-3.4-7.2-6.9-10.6-10.5-.3-.3-.1-1.7.3-2.1.4-.4 1.7-.5 2.1-.1 3.6 3.4 7.1 7 10.6 10.5.2.1.2.5.6 1.7z"/></svg><svg version="1.1" id="icon_play" y="127.4" viewBox="-2 -2 50 50" xml:space="preserve" width="50" height="50" xmlns="http://www.w3.org/2000/svg"><style/><circle cx="23" cy="23" r="23" fill="#fedb49"/><path d="M16.8 22.9v-8.7c0-1.1.2-2 1.3-2.6 1-.5 1.9-.1 2.7.5 4.2 2.9 8.5 5.8 12.7 8.8 1.9 1.3 1.9 2.9 0 4.2-4.3 3-8.6 5.9-12.9 8.9-.9.6-1.7.9-2.7.4-1-.6-1.2-1.4-1.2-2.5.1-3 .1-6 .1-9z" fill="#020201"/></svg><svg version="1.1" id="icon_podarok" y="33" viewBox="-2 -2 108 94.4" xml:space="preserve" width="108" height="94.4" xmlns="http://www.w3.org/2000/svg"><style>.dst1{fill:#fe4b01}.dst3{fill:#fed502}</style><path class="dst1" d="M104 29v18c-1.6 1.6-3.7 1.3-5.6 1.3-12.3-.1-24.7-.2-37-.2-.1-8-.2-16-.2-24.1h21.4c2 0 3.9.2 5.9.1 5.7-.2 11.4-.3 15.5 4.9zM0 47V30c3.2-4.6 7.5-6.4 13.1-5.9 2.9.3 5.9 0 8.9-.1h19c.7.1 1.3.2 2 .3 0 7.9 0 15.9-.1 23.8-12.4.1-24.7.1-37.1.2-2 .1-4 0-5.8-1.3z"/><path d="M43 24.2c-.7-.1-1.3-.2-2-.3-2.6-1.8-5.2-3.6-7.7-5.5-1.8-1.3-3-3-1.6-5.1s3.3-1 4.8 0c2.7 1.7 5.2 3.6 7.9 5.2 2.2 1.3 4.3 4.5 6.7 3.2 2-1.1.5-4.6.9-7.1C56.3 7.2 63.4 3.2 71 0h2c5.9 1.6 12 .1 18 1 2 2.2 1.1 4.7.7 7-1.1 6.4-4.7 11.5-9.2 16H61.1c-2.8 1.4-5.9.9-8.9 1-2.9-1.6-6.1-.7-9.2-.8z" fill="#fec002"/><path class="dst3" d="M52.1 14.7c-.4 2.4 1.1 5.9-.9 7.1-2.4 1.4-4.5-1.9-6.7-3.2-2.7-1.6-5.2-3.5-7.9-5.2-1.6-1-3.4-2.1-4.8 0s-.2 3.8 1.6 5.1c2.5 1.9 5.1 3.7 7.7 5.5h-19c-3.8-3.9-7.4-8.1-8.5-13.5-.7-3.1-2.7-6.6.3-9.7C19.5.3 25.3 1.7 31 0h2c7.8 3 14.9 7 19.1 14.7z"/><path d="M90.6 90.4c-25.7 0-51.3-.1-77-.1C8.2 88.7 6 85.1 6 79.6c.1-10.4-.1-20.9-.2-31.3 12.4-.1 24.7-.1 37.1-.2 3 .5 6.1.4 9.1.1h9.3c12.3.1 24.7.2 37 .2-.1 10.5-.3 21-.2 31.5.2 5.5-2 9.1-7.5 10.5z" fill="#d2381a"/><path class="dst3" d="M61.3 48.1H52c.1-7.7.1-15.4.2-23.1 3-.1 6 .4 8.9-1 .1 8 .2 16 .2 24.1z"/><path d="M52.2 25c-.1 7.7-.1 15.4-.2 23.1-3 .3-6.1.4-9.1-.1 0-7.9 0-15.9.1-23.8 3.1.1 6.3-.8 9.2.8z" fill="#fee469"/></svg><svg version="1.1" id="icon_romb" x="121" viewBox="-2 -2 90.3 90.4" xml:space="preserve" width="90.3" height="90.4" xmlns="http://www.w3.org/2000/svg"><style/><path d="M0 44.6v-3.1c.8-3.7 3.4-6.2 6-8.7 7.6-7.4 15.1-14.8 22.6-22.3 2.6-2.5 5.1-5.1 7.7-7.6 3.9-3.8 10.5-4 14.3.1 5.7 6 11.6 11.9 17.5 17.8 5.2 5.3 10.3 10.6 15.6 15.8 3.9 3.9 3.1 10.6-.5 14.1-11 10.7-22 21.6-32.9 32.4-1.5 1.5-3.2 2.5-5.4 2.8-.5.1-1 .1-1.4.5h-1.2c-.2-.1-.3-.3-.5-.3-2.9-.6-5.2-1.9-7.2-4.1-9.6-9.9-19.3-19.6-29-29.4C3.3 50.5 1 48.4.4 45.1c-.1-.2-.3-.3-.4-.5zm72.5-1.2c-.3-.4-.6-.7-.9-1.1-9-9.1-18-18.2-26.9-27.3-.9-1-1.5-1-2.5 0-9 9-18.1 17.9-27.2 26.8-1 1-.9 1.5 0 2.4 9 9.1 18.1 18.3 27 27.4.8.8 1.2.8 2 0 9.2-9.1 18.5-18.3 27.8-27.4.2-.2.4-.5.7-.8z" fill="#fe8ac9"/></svg><svg version="1.1" id="icon_volna" x="121" y="90.4" viewBox="-2 -2 89.6 31.6" xml:space="preserve" width="89.6" height="31.6" xmlns="http://www.w3.org/2000/svg"><style>.fst7{fill:#f6d88f}</style><path class="fst7" d="M85.4 22.5c.9 4.2-.8 5.8-4.9 4.9-.7-.9-1.3-1.9-2.1-2.6-5.6-5.2-5.8-5.4-11.5-.5-4 3.4-6.7 1.8-9.7-1-2.7-2.6-5.1-4-8.8-.7-5.5 5-5.9 4.9-11.8-.3-2.8-2.5-4.9-2.8-7.9-.3-6 5-6.2 5-12.3-.3-2.8-2.4-4.8-2.5-7.5-.1C6.5 23.7 4 26.8 0 24.4v-3.9c2-1.4 4-2.8 5.9-4.4 6.6-5.4 6.8-5.6 13-.3 3.3 2.8 5.5 2.5 8.2-.3 3.5-3.7 7.2-4.2 10.8-.1 3.3 3.7 6.6 3.4 9.8-.1 3.3-3.6 6.6-3.4 9.6.1 3.7 4.3 7.1 4 10.7 0 3.1-3.5 6-2.8 9.2.2 2.5 2.5 5.4 4.6 8.2 6.9z"/><path class="fst7" d="M0 12.7V8.8c3.2-3 7.4-5 9.8-8.8h4.9c2.1 1.8 4.2 3.6 6.2 5.5 1.2 1.1 2.3 1.2 3.4 0 1.9-2 4.7-3 6.1-5.5h3.9c.9 1.8 2.9 2.5 4.2 3.9 2.8 3.2 5.4 3.3 8.2 0C48.6 1.7 51 .4 54 .6c5 5 10 8.4 15.9 1 1.5-1.8 3.9-.8 5.7.7 3.2 2.5 6.5 4.9 9.7 7.4v3.9c-4 2.4-6.6-.6-8.9-2.9-3.1-3.1-5.5-3-8.4.2-3.3 3.6-7.1 4.3-10.5.4-3.8-4.3-7-3.5-10.5.2-3 3.1-5.9 2.8-8.9-.1-.9-.9-2.2-1.5-3-2.4-1.8-1.9-3.2-1.7-5.3 0-7.5 6.2-6.4 6.4-13.7.3-2.8-2.3-4.7-2.3-7 .1-2.5 2.4-5.3 4.1-9.1 3.3z"/></svg></svg>