<?xml version="1.0" encoding="utf-8"?><svg width="121" height="66" viewBox="0 0 121 66" xmlns="http://www.w3.org/2000/svg" xmlns:xlink="http://www.w3.org/1999/xlink"><svg version="1.1" id="icon_logo" viewBox="-2 -2 121 33" xml:space="preserve" width="121" height="33" xmlns="http://www.w3.org/2000/svg"><style/><path d="M117 28c-1.6-.4-3.3-.8-6.1-1.4-1.7.5-4.9 2-8.3 2.3-7.2.6-13.4-4.7-14.6-11.5C86.7 9.9 90.5 3.3 97.5.8c6.7-2.3 14.1.5 17.5 6.7.8 1.4 1.4 3 2 4.5v16zm-3.7-13.3c.1-6.1-4.8-11.2-10.9-11.4-6-.1-11.2 5-11.4 11-.1 6 4.9 11.2 11 11.4 6 .1 11.2-4.9 11.3-11zM0 2c1.4-.1 3.4-.9 4.1-.3 3.3 2.8 6.3 5.9 9.3 9.1.6.6.3 2 .4 3-1-.1-2.4.1-3-.5C7.1 10 3.6 6.5 0 3V2zm44.8 27c-8.1 0-14.7-6.4-14.7-14.5C30.2 6.4 36.7 0 44.8 0c7.9 0 14.3 6.3 14.4 14.2.2 8.2-6.3 14.8-14.4 14.8zm11.1-14.3c.1-6-5-11.3-11-11.4-6-.1-11.2 5-11.3 11-.1 6 4.9 11.2 11 11.4 5.9.1 11.1-5 11.3-11zM9.3 28.8c-.5-.3-1.5-.7-1.5-1 0-1 .1-2.3.7-3 4.1-5 8.3-9.9 12.4-14.9 2.3-2.8 4.7-5.6 7.1-8.3.6-.6 1.8-.6 2.7-.8.1 1 .7 2.4.2 3-6.6 8.1-13.4 16-20.1 24-.4.3-.9.5-1.5 1zm56.2-.1c.1-1.4-.2-3 .5-3.8 6.7-8.1 13.5-16 20.3-23.9.3-.3.9-.3 2.3-.9-.2 1.7.2 3.3-.5 4.1-6.8 8.2-13.8 16.2-20.8 24.2-.1.2-.6.1-1.8.3zm6.6-15.3c-1.1.2-2.5.9-3 .5-3.7-3.4-7.2-6.9-10.6-10.5-.3-.3-.1-1.7.3-2.1.4-.4 1.7-.5 2.1-.1 3.6 3.4 7.1 7 10.6 10.5.2.1.2.5.6 1.7z"/></svg><svg version="1.1" id="icon_logo2" y="33" viewBox="-2 -2 121 33" xml:space="preserve" width="121" height="33" xmlns="http://www.w3.org/2000/svg"><style>.bst0{fill:#4c4c4c}</style><path class="bst0" d="M118.7 27.3c-1.6-.4-3.3-.8-6.1-1.4-1.7.5-4.9 2-8.3 2.3-7.2.6-13.4-4.7-14.6-11.5C88.4 9.2 92.2 2.6 99.2.1c6.7-2.3 14.1.5 17.5 6.7.8 1.4 1.4 3 2 4.5v16zM115 14c.1-6.1-4.8-11.2-10.9-11.4-6-.1-11.2 5-11.4 11-.1 6 4.9 11.2 11 11.4 6 .1 11.2-4.9 11.3-11zM1.7 1.3C3.1 1.2 5 .4 5.8 1c3.3 2.8 6.3 5.9 9.3 9.1.6.6.3 2 .4 3-1-.1-2.4.1-3-.5C8.8 9.3 5.3 5.8 1.7 2.3v-1zm43.9 28.5c-8.1 0-14.7-6.4-14.7-14.5S37.4.8 45.6.8C53.5.8 59.8 7.1 60 15c.1 8.1-6.4 14.7-14.4 14.8zm11-14.3c.1-6-5-11.3-11-11.4-6-.1-11.2 5-11.3 11-.1 6 4.9 11.2 11 11.4 5.9.1 11.2-5 11.3-11zM11 28c-.5-.3-1.5-.7-1.5-1 0-1 .1-2.3.7-3 4.1-5 8.3-9.9 12.4-14.9 2.3-2.8 4.7-5.6 7.1-8.3.5-.5 1.7-.5 2.5-.7.1 1 .7 2.4.2 3-6.6 8.1-13.4 16-20.1 24-.2.3-.7.5-1.3.9zm56.2-.1c.1-1.4-.2-3 .5-3.8C74.4 16 81.2 8.1 88 .2c.3-.3.9-.3 2.3-.9-.2 1.7.2 3.3-.5 4.1-6.9 8.2-13.9 16.2-20.8 24.3-.2.1-.6.1-1.8.2zm6.5-15.2c-1.1.2-2.5.9-3 .5C67 9.8 63.5 6.3 60.1 2.7c-.3-.3-.1-1.7.3-2.1.4-.4 1.7-.5 2.1-.1 3.6 3.4 7.1 7 10.6 10.5.3.1.3.5.6 1.7z"/><text transform="translate(41.003 21.375)" font-size="19.604" font-family="MyriadPro-Regular">2</text></svg></svg>